<svg width="93" height="5" viewBox="0 0 93 5" fill="none" xmlns="http://www.w3.org/2000/svg">
<g clip-path="url(#clip0_1370_9943)">
<rect width="92.25" height="4.52" fill="white"/>
<path d="M20.3 0.399902H63.96Z" fill="white"/>
<path d="M20.3 0.399902H63.96" stroke="#010101" stroke-width="0.25" stroke-miterlimit="10"/>
<path d="M64.3 0.859863V1.14986Z" fill="white"/>
<path d="M64.3 0.859863V1.14986" stroke="#010101" stroke-width="0.25" stroke-miterlimit="10"/>
<path d="M90.13 1.23989H2.13V1.13989H90.13V1.23989Z" fill="white" stroke="#010101" stroke-width="0.25" stroke-miterlimit="10"/>
<path d="M2.13 0.399902H19.96Z" fill="white"/>
<path d="M2.13 0.399902H19.96" stroke="#010101" stroke-width="0.25" stroke-miterlimit="10"/>
<path d="M64.3 0.399902H90.13Z" fill="white"/>
<path d="M64.3 0.399902H90.13" stroke="#010101" stroke-width="0.25" stroke-miterlimit="10"/>
<path d="M0.130005 4.38989V2.38989H4.13V4.38989H0.130005Z" fill="white" stroke="#010101" stroke-width="0.25" stroke-miterlimit="10"/>
<path d="M64.3 0.859902V0.399902Z" fill="white"/>
<path d="M64.3 0.859902V0.399902" stroke="#010101" stroke-width="0.25" stroke-miterlimit="10"/>
<path d="M20.3 0.22998V0.39998Z" fill="white"/>
<path d="M20.3 0.22998V0.39998" stroke="#010101" stroke-width="0.25" stroke-miterlimit="10"/>
<path d="M20.3 0.859863V1.14986Z" fill="white"/>
<path d="M20.3 0.859863V1.14986" stroke="#010101" stroke-width="0.25" stroke-miterlimit="10"/>
<path d="M19.95 0.859863V1.14986Z" fill="white"/>
<path d="M19.95 0.859863V1.14986" stroke="#010101" stroke-width="0.25" stroke-miterlimit="10"/>
<path d="M63.96 0.859863V1.14986Z" fill="white"/>
<path d="M63.96 0.859863V1.14986" stroke="#010101" stroke-width="0.25" stroke-miterlimit="10"/>
<path d="M20.3 0.859902V0.399902Z" fill="white"/>
<path d="M20.3 0.859902V0.399902" stroke="#010101" stroke-width="0.25" stroke-miterlimit="10"/>
<path d="M88.13 4.38989V2.38989H92.13V4.38989H88.13Z" fill="white" stroke="#010101" stroke-width="0.25" stroke-miterlimit="10"/>
<path d="M63.96 0.399902V0.859902Z" fill="white"/>
<path d="M63.96 0.399902V0.859902" stroke="#010101" stroke-width="0.25" stroke-miterlimit="10"/>
<path d="M63.96 0.859863H64.3Z" fill="white"/>
<path d="M63.96 0.859863H64.3" stroke="#010101" stroke-width="0.25" stroke-miterlimit="10"/>
<path d="M63.96 0.22998V0.39998Z" fill="white"/>
<path d="M63.96 0.22998V0.39998" stroke="#010101" stroke-width="0.25" stroke-miterlimit="10"/>
<path d="M88.39 2.32988H92.13V2.38988H88.39C88.25 2.38988 88.13 2.26988 88.13 2.12988V1.81988C88.13 1.67988 88.25 1.55988 88.39 1.55988H89.99C90.07 1.55988 90.13 1.49988 90.13 1.41988V0.329883C90.13 0.249883 90.07 0.189883 89.99 0.189883H88.19V0.129883H89.99C90.1 0.129883 90.19 0.219883 90.19 0.329883V1.42988C90.19 1.53988 90.1 1.62988 89.99 1.62988H88.39C88.28 1.62988 88.19 1.71988 88.19 1.82988V2.13988C88.19 2.24988 88.28 2.33988 88.39 2.33988" fill="white"/>
<path d="M88.39 2.32988H92.13V2.38988H88.39C88.25 2.38988 88.13 2.26988 88.13 2.12988V1.81988C88.13 1.67988 88.25 1.55988 88.39 1.55988H89.99C90.07 1.55988 90.13 1.49988 90.13 1.41988V0.329883C90.13 0.249883 90.07 0.189883 89.99 0.189883H88.19V0.129883H89.99C90.1 0.129883 90.19 0.219883 90.19 0.329883V1.42988C90.19 1.53988 90.1 1.62988 89.99 1.62988H88.39C88.28 1.62988 88.19 1.71988 88.19 1.82988V2.13988C88.19 2.24988 88.28 2.33988 88.39 2.33988" stroke="#010101" stroke-width="0.25" stroke-miterlimit="10"/>
<path d="M19.95 0.859863H20.29Z" fill="white"/>
<path d="M19.95 0.859863H20.29" stroke="#010101" stroke-width="0.25" stroke-miterlimit="10"/>
<path d="M63.96 0.22998H64.3Z" fill="white"/>
<path d="M63.96 0.22998H64.3" stroke="#010101" stroke-width="0.25" stroke-miterlimit="10"/>
<path d="M19.95 0.22998V0.39998Z" fill="white"/>
<path d="M19.95 0.22998V0.39998" stroke="#010101" stroke-width="0.25" stroke-miterlimit="10"/>
<path d="M19.95 0.399902V0.859902Z" fill="white"/>
<path d="M19.95 0.399902V0.859902" stroke="#010101" stroke-width="0.25" stroke-miterlimit="10"/>
<path d="M64.3 0.22998V0.39998Z" fill="white"/>
<path d="M64.3 0.22998V0.39998" stroke="#010101" stroke-width="0.25" stroke-miterlimit="10"/>
<path d="M19.95 0.22998H20.29Z" fill="white"/>
<path d="M19.95 0.22998H20.29" stroke="#010101" stroke-width="0.25" stroke-miterlimit="10"/>
<path d="M3.86 2.32988C3.97 2.32988 4.06 2.23988 4.06 2.12988V1.81988C4.06 1.70988 3.97 1.61988 3.86 1.61988H2.26C2.15 1.61988 2.06 1.52988 2.06 1.41988V0.329883C2.06 0.219883 2.15 0.129883 2.26 0.129883H4.06V0.189883H2.26C2.18 0.189883 2.12 0.249883 2.12 0.329883V1.42988C2.12 1.50988 2.18 1.56988 2.26 1.56988H3.86C4 1.56988 4.12 1.68988 4.12 1.82988V2.13988C4.12 2.27988 4 2.39988 3.86 2.39988H0.130005V2.33988H3.87L3.86 2.32988Z" fill="white" stroke="#010101" stroke-width="0.25" stroke-miterlimit="10"/>
</g>
<defs>
<clipPath id="clip0_1370_9943">
<rect width="92.25" height="4.52" fill="white"/>
</clipPath>
</defs>
</svg>
