<svg width="105" height="5" viewBox="0 0 105 5" fill="none" xmlns="http://www.w3.org/2000/svg">
<g clip-path="url(#clip0_1452_271)">
<rect width="104.25" height="4.52" fill="white"/>
<path d="M104.12 4.40005H100.12V1.18005H4.12V4.39005H0.119995V2.29005H2.06V0.0500488H4.06V0.330049H14.85V0.160049H15.19V0.330049H89.05V0.160049H89.39V0.330049H100.18V0.0500488H102.18V2.30005H104.12V4.40005Z" fill="white"/>
<path d="M89.06 0.860107H89.4" stroke="#010101" stroke-width="0.25" stroke-miterlimit="10"/>
<path d="M89.4 0.860107V1.15011" stroke="#010101" stroke-width="0.25" stroke-miterlimit="10"/>
<path d="M89.06 0.860107V1.15011" stroke="#010101" stroke-width="0.25" stroke-miterlimit="10"/>
<path d="M89.06 0.230225H89.4" stroke="#010101" stroke-width="0.25" stroke-miterlimit="10"/>
<path d="M89.4 0.230225V0.400225" stroke="#010101" stroke-width="0.25" stroke-miterlimit="10"/>
<path d="M89.06 0.230225V0.400225" stroke="#010101" stroke-width="0.25" stroke-miterlimit="10"/>
<path d="M89.4 0.860146V0.400146" stroke="#010101" stroke-width="0.25" stroke-miterlimit="10"/>
<path d="M89.06 0.400146V0.860146" stroke="#010101" stroke-width="0.25" stroke-miterlimit="10"/>
<path d="M89.4 0.400146H102.13" stroke="#010101" stroke-width="0.25" stroke-miterlimit="10"/>
<path d="M14.85 0.860107H15.19" stroke="#010101" stroke-width="0.25" stroke-miterlimit="10"/>
<path d="M15.19 0.860107V1.15011" stroke="#010101" stroke-width="0.25" stroke-miterlimit="10"/>
<path d="M14.85 0.860107V1.15011" stroke="#010101" stroke-width="0.25" stroke-miterlimit="10"/>
<path d="M14.85 0.230225H15.19" stroke="#010101" stroke-width="0.25" stroke-miterlimit="10"/>
<path d="M15.19 0.230225V0.400225" stroke="#010101" stroke-width="0.25" stroke-miterlimit="10"/>
<path d="M14.85 0.230225V0.400225" stroke="#010101" stroke-width="0.25" stroke-miterlimit="10"/>
<path d="M15.19 0.860146V0.400146" stroke="#010101" stroke-width="0.25" stroke-miterlimit="10"/>
<path d="M14.85 0.400146V0.860146" stroke="#010101" stroke-width="0.25" stroke-miterlimit="10"/>
<path d="M2.13 0.400146H14.86" stroke="#010101" stroke-width="0.25" stroke-miterlimit="10"/>
<path d="M100.39 2.33012H104.13V2.39012H100.39C100.25 2.39012 100.13 2.27012 100.13 2.13012V1.82012C100.13 1.68012 100.25 1.56012 100.39 1.56012H101.99C102.07 1.56012 102.13 1.50012 102.13 1.42012V0.320117C102.13 0.240117 102.07 0.180117 101.99 0.180117H100.19V0.120117H101.99C102.1 0.120117 102.19 0.210117 102.19 0.320117V1.42012C102.19 1.53012 102.1 1.62012 101.99 1.62012H100.39C100.28 1.62012 100.19 1.71012 100.19 1.82012V2.13012C100.19 2.24012 100.28 2.33012 100.39 2.33012Z" stroke="#010101" stroke-width="0.25" stroke-miterlimit="10"/>
<path d="M100.13 4.40015V2.40015H104.13V4.40015H100.13Z" stroke="#010101" stroke-width="0.25" stroke-miterlimit="10"/>
<path d="M3.86 2.33013C3.97 2.33013 4.06 2.24013 4.06 2.13013V1.82013C4.06 1.71013 3.97 1.62013 3.86 1.62013H2.26C2.15 1.62013 2.06 1.53013 2.06 1.42013V0.330127C2.06 0.220127 2.15 0.130127 2.26 0.130127H4.06V0.190127H2.26C2.18 0.190127 2.11999 0.250127 2.11999 0.330127V1.43013C2.11999 1.51013 2.18 1.57013 2.26 1.57013H3.86C4 1.57013 4.12 1.69013 4.12 1.83013V2.14013C4.12 2.28013 4 2.40013 3.86 2.40013H0.119995V2.34013H3.86V2.33013Z" stroke="#010101" stroke-width="0.25" stroke-miterlimit="10"/>
<path d="M102.13 1.24014H2.13V1.14014H102.13V1.24014Z" stroke="#010101" stroke-width="0.25" stroke-miterlimit="10"/>
<path d="M0.119995 4.40015V2.40015H4.12V4.40015H0.119995Z" stroke="#010101" stroke-width="0.25" stroke-miterlimit="10"/>
<path d="M15.19 0.400146H89.05" stroke="#010101" stroke-width="0.25" stroke-miterlimit="10"/>
</g>
<defs>
<clipPath id="clip0_1452_271">
<rect width="104.25" height="4.52" fill="white"/>
</clipPath>
</defs>
</svg>
