<svg width="42" height="30" viewBox="0 0 42 30" fill="none" xmlns="http://www.w3.org/2000/svg">
<g clip-path="url(#clip0_1313_895)">
<path d="M29.5 28L4 2.5L2.5 3.5L28 29L29.5 28Z" fill="white"/>
<rect width="41" height="4" fill="white"/>
<path d="M26.51 27.6798L25.96 27.9398L25.71 28.0598C25.71 28.0598 25.64 28.0598 25.62 28.0398C25.62 28.0398 25.53 27.9498 25.35 27.7698L24.74 28.3798C24.74 28.3798 24.74 28.3798 24.72 28.3798L24.45 28.6498C24.45 28.6498 24.43 28.6498 24.42 28.6498C24.43 28.6598 24.26 28.4898 24.11 28.3398L21.58 25.8098C21.49 25.7298 21.43 25.5798 21.43 25.4798C21.43 25.3798 21.5 25.3098 21.55 25.2498C21.66 25.1398 21.75 25.0698 21.85 25.0098C22.04 24.8798 22.26 24.7198 22.55 24.5098L22.59 24.5498C21.9 25.2398 21.97 25.1698 21.93 25.2098C21.89 25.2498 21.73 25.4098 21.86 25.5298L23.87 27.5398" stroke="#010101" stroke-width="0.25" stroke-miterlimit="10"/>
<path d="M28.45 24.6399V24.6599L27.69 25.4199C27.69 25.4199 27.66 25.3899 27.61 25.3399C27.7 25.4299 27.76 25.4899 27.76 25.4899V25.5299C27.76 25.5299 27.77 25.6199 27.78 25.6399" stroke="#010101" stroke-width="0.25" stroke-miterlimit="10"/>
<path d="M27.15 24.8798L26.84 24.5698C26.84 24.5698 26.84 24.5498 26.84 24.5398L27.59 23.7898C27.59 23.7898 27.61 23.7898 27.62 23.7898" stroke="#010101" stroke-width="0.25" stroke-miterlimit="10"/>
<path d="M24.72 28.3899C24.72 28.3899 24.72 28.3899 24.71 28.3799C24.69 28.3599 24.63 28.2999 24.56 28.2299C24.53 28.1999 24.51 28.1799 24.48 28.1499L23.88 27.5499C23.88 27.5499 23.88 27.5299 23.88 27.5199L24.49 26.9099" stroke="#010101" stroke-width="0.25" stroke-miterlimit="10"/>
<path d="M26.83 24.6899C26.83 24.6899 26.92 24.7099 26.94 24.7199H26.98" stroke="#010101" stroke-width="0.25" stroke-miterlimit="10"/>
<path d="M25.75 24.4399L26.08 24.1099C26.08 24.1099 26.2 24.0599 26.25 24.1099C26.25 24.1099 26.3 24.1599 26.39 24.2499C26.49 24.3499 26.63 24.4899 26.82 24.6799C26.9 24.7599 26.99 24.8499 27.08 24.9399" stroke="#010101" stroke-width="0.25" stroke-miterlimit="10"/>
<path d="M26.78 27.9499L26.45 28.2799C26.45 28.2799 26.33 28.3299 26.28 28.2799C26.28 28.2799 26.14 28.1399 25.94 27.9399" stroke="#010101" stroke-width="0.25" stroke-miterlimit="10"/>
<path d="M26.82 25.1398C26.82 25.1398 26.87 25.1498 26.89 25.1398L27.22 24.8098C27.22 24.8098 27.24 24.8298 27.27 24.8598C27.3 24.8898 27.33 24.9198 27.36 24.9498C27.39 24.9798 27.42 25.0098 27.46 25.0498C27.49 25.0798 27.53 25.1198 27.56 25.1498C27.59 25.1798 27.62 25.2098 27.64 25.2298C27.66 25.2498 27.68 25.2698 27.68 25.2698" stroke="#010101" stroke-width="0.25" stroke-miterlimit="10"/>
<path d="M26.02 24.7099L26.17 24.5599C26.17 24.5599 26.22 24.5399 26.24 24.5599C26.24 24.5599 26.32 24.6399 26.48 24.7999C26.57 24.8899 26.69 25.0099 26.82 25.1399C26.82 25.1399 26.83 25.1499 26.86 25.1799C26.88 25.1999 26.9 25.2199 26.93 25.2499C26.93 25.2499 26.95 25.2699 26.96 25.2799C26.97 25.2899 26.99 25.3099 27.01 25.3299L27.05 25.3699C27.05 25.3699 27.08 25.3999 27.09 25.4099L27.13 25.4499L27.17 25.4899L27.21 25.5299L27.24 25.5599L27.31 25.6299C27.31 25.6299 27.33 25.6499 27.35 25.6699" stroke="#010101" stroke-width="0.25" stroke-miterlimit="10"/>
<path d="M25.34 27.77L25.01 27.44C24.86 27.29 24.7 27.13 24.59 27.02L24.48 26.91H24.47C24.47 26.91 24.43 26.86 24.42 26.85C24.4 26.83 24.39 26.79 24.4 26.76L24.52 26.51L24.78 25.95" stroke="#010101" stroke-width="0.25" stroke-miterlimit="10"/>
<path d="M2.61 3.60997L3.7 2.51998C3.7 2.51998 3.81 2.47998 3.86 2.51998L29.16 27.82C29.16 27.82 29.2 27.93 29.16 27.98L28.07 29.07C28.07 29.07 27.96 29.11 27.91 29.07L2.61 3.76998C2.61 3.76998 2.57 3.65997 2.61 3.60997Z" stroke="#010101" stroke-width="0.25" stroke-miterlimit="10"/>
<path d="M2.52998 4.64993C2.72881 4.64993 2.88998 4.48875 2.88998 4.28993C2.88998 4.09111 2.72881 3.92993 2.52998 3.92993C2.33116 3.92993 2.16998 4.09111 2.16998 4.28993C2.16998 4.48875 2.33116 4.64993 2.52998 4.64993Z" stroke="#010101" stroke-width="0.25" stroke-miterlimit="10"/>
<path d="M0.520005 1.12988C0.520005 1.12988 0.580005 1.15988 0.580005 1.18988C0.580005 1.20988 0.580005 1.21988 0.560005 1.22988C0.550005 1.22988 0.530005 1.23988 0.520005 1.23988C0.470005 1.23988 0.420005 1.23988 0.370005 1.23988C0.320005 1.23988 0.270005 1.23988 0.220005 1.23988C0.190005 1.23988 0.170005 1.23988 0.150005 1.20988C0.150005 1.20988 0.130005 1.18988 0.130005 1.17988C0.130005 1.16988 0.130005 1.14988 0.130005 1.13988C0.130005 0.989883 0.130005 0.839883 0.130005 0.679883C0.130005 0.519883 0.130005 0.369883 0.130005 0.219883C0.130005 0.209883 0.130005 0.189883 0.130005 0.179883C0.130005 0.169883 0.140005 0.159883 0.150005 0.149883C0.150005 0.149883 0.170005 0.129883 0.180005 0.129883C0.190005 0.129883 0.210005 0.129883 0.220005 0.129883C0.470005 0.129883 0.720005 0.129883 0.970005 0.129883C1.22 0.129883 1.47 0.129883 1.72 0.129883C1.97 0.129883 2.22001 0.129883 2.47001 0.129883C2.72001 0.129883 2.97001 0.129883 3.22001 0.129883C3.23001 0.129883 3.25 0.129883 3.26 0.129883C3.27 0.129883 3.28 0.139883 3.29 0.149883C3.29 0.149883 3.31 0.169883 3.31 0.179883C3.31 0.189883 3.31 0.209883 3.31 0.219883C3.31 0.359883 3.31 0.499883 3.31 0.649883C3.31 0.789883 3.31 0.939883 3.31 1.07988C3.31 1.21988 3.31 1.36988 3.31 1.50988C3.31 1.64988 3.31 1.79988 3.31 1.93988C3.31 1.94988 3.31 1.96988 3.31 1.97988C3.31 1.98988 3.3 2.00988 3.29 2.00988C3.27 2.02988 3.24001 2.02988 3.22001 2.02988C3.13001 2.02988 3.03 2.02988 2.94 2.02988C2.85 2.02988 2.75001 2.02988 2.66001 2.02988C2.63001 2.02988 2.61 2.02988 2.59 2.04988C2.59 2.04988 2.57 2.06988 2.57 2.07988C2.57 2.08988 2.57 2.10988 2.57 2.11988C2.57 2.24988 2.57 2.38988 2.57 2.52988C2.57 2.66988 2.57 2.79988 2.57 2.93988C2.57 3.07988 2.57 3.20988 2.57 3.34988C2.57 3.48988 2.57 3.61988 2.57 3.75988C2.57 3.76988 2.57 3.78988 2.57 3.79988C2.57 3.80988 2.56 3.81988 2.55 3.82988C2.55 3.82988 2.53 3.84988 2.52 3.84988C2.51 3.84988 2.49 3.84988 2.48 3.84988C2.3 3.84988 2.11 3.84988 1.92 3.84988C1.73 3.84988 1.55 3.84988 1.36 3.84988C1.17 3.84988 0.990005 3.84988 0.800005 3.84988C0.610005 3.84988 0.420005 3.84988 0.240005 3.84988C0.230005 3.84988 0.210005 3.84988 0.200005 3.84988C0.190005 3.84988 0.170005 3.83988 0.170005 3.82988C0.150005 3.80988 0.150005 3.77988 0.140005 3.75988C0.140005 3.68988 0.140005 3.61988 0.140005 3.54988C0.140005 3.47988 0.140005 3.40988 0.140005 3.33988C0.140005 3.30988 0.140005 3.28988 0.170005 3.26988C0.190005 3.24988 0.210005 3.24988 0.240005 3.23988C0.290005 3.23988 0.340005 3.23988 0.390005 3.23988C0.440005 3.23988 0.490005 3.23988 0.540005 3.23988C0.560005 3.23988 0.570005 3.23988 0.580005 3.24988C0.590005 3.24988 0.600005 3.27988 0.600005 3.28988C0.600005 3.30988 0.600005 3.31988 0.580005 3.32988C0.570005 3.32988 0.550005 3.33988 0.540005 3.33988C0.480005 3.33988 0.420005 3.33988 0.360005 3.33988C0.330005 3.33988 0.310005 3.33988 0.290005 3.36988C0.270005 3.38988 0.260005 3.40988 0.260005 3.43988C0.260005 3.46988 0.260005 3.49988 0.260005 3.52988C0.260005 3.55988 0.260005 3.58988 0.260005 3.61988C0.260005 3.64988 0.260005 3.66988 0.290005 3.68988C0.290005 3.68988 0.310005 3.70988 0.320005 3.70988C0.330005 3.70988 0.350005 3.70988 0.360005 3.70988C0.520005 3.70988 0.690005 3.70988 0.860005 3.70988C1.03 3.70988 1.19 3.70988 1.36 3.70988C1.53 3.70988 1.69 3.70988 1.86 3.70988C2.03 3.70988 2.2 3.70988 2.36 3.70988C2.37 3.70988 2.39 3.70988 2.4 3.70988C2.41 3.70988 2.42001 3.69988 2.43001 3.68988C2.44001 3.67988 2.45001 3.66988 2.45001 3.65988C2.45001 3.64988 2.45001 3.62988 2.45001 3.61988C2.45001 3.48988 2.45001 3.34988 2.45001 3.20988C2.45001 3.06988 2.45001 2.93988 2.45001 2.79988C2.45001 2.65988 2.45001 2.52988 2.45001 2.38988C2.45001 2.24988 2.45001 2.11988 2.45001 1.97988C2.45001 1.96988 2.45001 1.94988 2.45001 1.93988C2.45001 1.92988 2.46001 1.90988 2.47001 1.90988C2.49001 1.88988 2.52 1.88988 2.54 1.88988C2.63 1.88988 2.73 1.88988 2.82 1.88988C2.91 1.88988 3.01 1.88988 3.1 1.88988C3.13 1.88988 3.15 1.88988 3.17 1.86988C3.17 1.86988 3.19 1.84988 3.19 1.83988C3.19 1.82988 3.19 1.80988 3.19 1.79988C3.19 1.67988 3.19 1.55988 3.19 1.42988C3.19 1.30988 3.19 1.17988 3.19 1.05988C3.19 0.939883 3.19 0.809883 3.19 0.689883C3.19 0.569883 3.19 0.439883 3.19 0.319883C3.19 0.309883 3.19 0.289883 3.19 0.279883C3.19 0.269883 3.18 0.259883 3.17 0.249883C3.17 0.249883 3.15001 0.229883 3.14001 0.229883C3.13001 0.229883 3.11 0.229883 3.1 0.229883C2.87 0.229883 2.64001 0.229883 2.41001 0.229883C2.18001 0.229883 1.95 0.229883 1.72 0.229883C1.49 0.229883 1.26 0.229883 1.03 0.229883C0.800005 0.229883 0.570005 0.229883 0.340005 0.229883C0.330005 0.229883 0.310005 0.229883 0.300005 0.229883C0.290005 0.229883 0.270005 0.239883 0.260005 0.249883C0.240005 0.269883 0.240005 0.299883 0.240005 0.319883C0.240005 0.429883 0.240005 0.549883 0.240005 0.659883C0.240005 0.769883 0.240005 0.889883 0.240005 0.999883C0.240005 1.02988 0.240005 1.04988 0.260005 1.06988C0.280005 1.08988 0.300005 1.08988 0.330005 1.09988C0.390005 1.09988 0.450005 1.09988 0.510005 1.09988L0.520005 1.12988Z" stroke="#010101" stroke-width="0.25" stroke-miterlimit="10"/>
<path d="M26.86 24.5898L26.84 24.5698" stroke="#010101" stroke-width="0.25" stroke-miterlimit="10"/>
<path d="M2.52999 4.70987C2.76195 4.70987 2.94999 4.52183 2.94999 4.28987C2.94999 4.05791 2.76195 3.86987 2.52999 3.86987C2.29803 3.86987 2.10999 4.05791 2.10999 4.28987C2.10999 4.52183 2.29803 4.70987 2.52999 4.70987Z" stroke="#010101" stroke-width="0.25" stroke-miterlimit="10"/>
<path d="M38.62 3.8599C38.62 3.8599 38.58 3.8099 38.58 3.7699C38.57 3.4999 38.58 3.2299 38.58 2.9599C38.58 2.8199 38.58 2.6899 38.58 2.5499C38.58 2.4099 38.58 2.2799 38.58 2.1399C38.58 2.1299 38.58 2.1099 38.58 2.0999C38.58 2.0899 38.57 2.0699 38.56 2.0699C38.54 2.0499 38.51 2.0499 38.49 2.0499C38.4 2.0499 38.3 2.0499 38.21 2.0499C38.12 2.0499 38.02 2.0499 37.93 2.0499C37.9 2.0499 37.88 2.0499 37.86 2.0299C37.86 2.0299 37.84 2.0099 37.84 1.9999C37.84 1.9899 37.84 1.9699 37.84 1.9599C37.84 1.8199 37.84 1.6799 37.84 1.5299C37.84 1.3899 37.84 1.2399 37.84 1.0999C37.84 0.959902 37.84 0.809902 37.84 0.669902C37.84 0.529902 37.84 0.379902 37.84 0.239902C37.84 0.229902 37.84 0.209902 37.84 0.199902C37.84 0.189902 37.85 0.179902 37.86 0.169902C37.86 0.169902 37.88 0.149902 37.89 0.149902C37.9 0.149902 37.92 0.149902 37.93 0.149902C38.18 0.149902 38.43 0.149902 38.68 0.149902C38.93 0.149902 39.18 0.149902 39.43 0.149902C39.68 0.149902 39.93 0.149902 40.18 0.149902C40.43 0.149902 40.68 0.149902 40.93 0.149902C40.94 0.149902 40.96 0.149902 40.97 0.149902C40.98 0.149902 40.99 0.159902 41 0.169902C41 0.169902 41.02 0.189902 41.02 0.199902C41.02 0.209902 41.02 0.229902 41.02 0.239902C41.02 0.389902 41.02 0.549902 41.02 0.699902C41.02 0.849902 41.02 1.0099 41.02 1.1599C41.02 1.1699 41.02 1.1899 41.02 1.1999C41.02 1.2099 41.01 1.2299 41 1.2299C40.98 1.2499 40.95 1.2499 40.93 1.2599C40.88 1.2599 40.83 1.2599 40.78 1.2599C40.73 1.2599 40.68 1.2599 40.63 1.2599C40.61 1.2599 40.6 1.2599 40.59 1.2499C40.58 1.2499 40.57 1.2199 40.57 1.2099C40.57 1.1999 40.57 1.1799 40.59 1.1699C40.6 1.1699 40.62 1.1599 40.63 1.1599C40.69 1.1599 40.75 1.1599 40.81 1.1599C40.84 1.1599 40.86 1.1599 40.88 1.1299C40.9 1.1099 40.9 1.0899 40.9 1.0599C40.91 0.939902 40.9 0.829902 40.9 0.719902C40.9 0.609902 40.9 0.489902 40.9 0.379902C40.9 0.349902 40.9 0.329902 40.88 0.309902C40.88 0.309902 40.86 0.289902 40.84 0.289902C40.83 0.289902 40.81 0.289902 40.8 0.289902C40.57 0.289902 40.34 0.289902 40.11 0.289902C39.88 0.289902 39.65 0.289902 39.42 0.289902C39.19 0.289902 38.96 0.289902 38.73 0.289902C38.5 0.289902 38.27 0.289902 38.04 0.289902C38.03 0.289902 38.01 0.289902 38 0.289902C37.99 0.289902 37.98 0.299902 37.97 0.309902C37.96 0.319902 37.95 0.329902 37.95 0.339902C37.95 0.349902 37.95 0.369902 37.95 0.379902C37.95 0.499902 37.95 0.619902 37.95 0.749902C37.95 0.869902 37.95 0.999902 37.95 1.1199C37.95 1.2399 37.95 1.3699 37.95 1.4899C37.95 1.6099 37.95 1.7399 37.95 1.8599C37.95 1.8699 37.95 1.8899 37.95 1.8999C37.95 1.9099 37.96 1.9299 37.97 1.9299C37.99 1.9499 38.02 1.9499 38.04 1.9499C38.13 1.9499 38.23 1.9499 38.32 1.9499C38.41 1.9499 38.51 1.9499 38.6 1.9499C38.63 1.9499 38.65 1.9499 38.67 1.9699C38.67 1.9699 38.69 1.9899 38.69 1.9999C38.69 2.0099 38.69 2.0299 38.69 2.0399C38.69 2.1699 38.69 2.3099 38.69 2.4499C38.69 2.5899 38.69 2.7199 38.69 2.8599C38.69 2.9999 38.69 3.1299 38.69 3.2699C38.69 3.4099 38.69 3.5399 38.69 3.6799C38.69 3.6899 38.69 3.7099 38.69 3.7199C38.69 3.7299 38.7 3.7399 38.71 3.7499C38.71 3.7499 38.73 3.7699 38.74 3.7699C38.75 3.7699 38.77 3.7699 38.78 3.7699C38.95 3.7699 39.11 3.7699 39.28 3.7699C39.45 3.7699 39.61 3.7699 39.78 3.7699C39.95 3.7699 40.11 3.7699 40.28 3.7699C40.45 3.7699 40.62 3.7699 40.78 3.7699C40.79 3.7699 40.81 3.7699 40.82 3.7699C40.83 3.7699 40.85 3.7599 40.85 3.7499C40.87 3.7299 40.88 3.7099 40.88 3.6799C40.88 3.6499 40.88 3.6199 40.88 3.5899C40.88 3.5599 40.88 3.5299 40.88 3.4999C40.88 3.4699 40.87 3.4499 40.85 3.4299C40.83 3.4099 40.81 3.4099 40.78 3.3999C40.72 3.3999 40.66 3.3999 40.6 3.3999C40.58 3.3999 40.57 3.3999 40.56 3.3899C40.55 3.3899 40.54 3.3599 40.54 3.3499C40.54 3.3299 40.54 3.3199 40.56 3.3099C40.58 3.2999 40.59 3.2999 40.6 3.2999C40.65 3.2999 40.7 3.2999 40.75 3.2999C40.8 3.2999 40.85 3.2999 40.9 3.2999C40.93 3.2999 40.95 3.3099 40.97 3.3299C40.99 3.3499 40.99 3.3699 41 3.3999C41 3.4699 41 3.5399 41 3.6099C41 3.6799 41 3.7499 41 3.8199C41 3.8499 41 3.8699 40.97 3.8899C40.97 3.8899 40.95 3.9099 40.94 3.9099C40.93 3.9099 40.91 3.9099 40.9 3.9099C40.72 3.9099 40.53 3.9099 40.34 3.9099C40.15 3.9099 39.97 3.9099 39.78 3.9099C39.41 3.9099 39.04 3.9099 38.66 3.9099V4.1199H38.61L38.59 3.8899L38.62 3.8599Z" stroke="#010101" stroke-width="0.25" stroke-miterlimit="10"/>
<path d="M27.22 24.8099C27.22 24.8099 27.27 24.7999 27.29 24.8099L27.67 25.1899C27.67 25.1899 27.69 25.2399 27.67 25.2599L27.6 25.3299L27.34 25.5899C27.34 25.5899 27.32 25.6399 27.34 25.6599C27.45 25.7699 27.56 25.8799 27.65 25.9699C27.81 26.1299 27.9 26.2199 27.89 26.2099C27.91 26.2299 27.91 26.2599 27.89 26.2799L27.74 26.4299" stroke="#010101" stroke-width="0.25" stroke-miterlimit="10"/>
<path d="M24.52 26.5099C24.44 26.4299 24.38 26.3699 24.33 26.3199C24.24 26.2299 24.19 26.1799 24.19 26.1799C24.14 26.1299 24.14 26.0599 24.19 26.0099L24.52 25.6799" stroke="#010101" stroke-width="0.25" stroke-miterlimit="10"/>
<path d="M27.54 25.3999C27.62 25.4799 27.7 25.5599 27.78 25.6399C27.8 25.6599 27.81 25.6699 27.83 25.6899C28.12 25.9799 28.37 26.2299 28.36 26.2199C28.41 26.2699 28.41 26.3399 28.36 26.3899L28.03 26.7199" stroke="#010101" stroke-width="0.25" stroke-miterlimit="10"/>
<path d="M25.61 21.7899C25.48 21.6599 25.33 21.8199 25.29 21.8599C25.25 21.8999 25.32 21.8299 24.63 22.5199L24.59 22.4799C24.8 22.1899 24.95 21.9699 25.09 21.7799C25.16 21.6799 25.22 21.5999 25.33 21.4799C25.39 21.4199 25.45 21.3599 25.56 21.3599C25.67 21.3599 25.81 21.4199 25.89 21.5099L28.42 24.0399C28.57 24.1899 28.74 24.3599 28.73 24.3499C28.73 24.3499 28.73 24.3699 28.73 24.3799L28.46 24.6499C28.46 24.6499 28.37 24.5599 28.3 24.4899C28.27 24.4599 28.25 24.4399 28.22 24.4099L27.63 23.8099L25.62 21.7999L25.61 21.7899Z" stroke="#010101" stroke-width="0.25" stroke-miterlimit="10"/>
<path d="M29.15 27.9799C32.05 25.0799 34.48 21.3399 36.11 17.1399C37.74 12.9299 38.57 8.26994 38.57 3.68994" stroke="#010101" stroke-width="0.25" stroke-miterlimit="10"/>
</g>
<defs>
<clipPath id="clip0_1313_895">
<rect width="41.14" height="29.23" fill="white"/>
</clipPath>
</defs>
</svg>
