<svg width="42" height="30" viewBox="0 0 42 30" fill="none" xmlns="http://www.w3.org/2000/svg">
<g clip-path="url(#clip0_1314_919)">
<rect width="41" height="4" fill="white"/>
<path d="M38.5 3.5L37.5 2.5L15.5 24.5L15 24L13 26.5L12 28L13 29L14.5 28H15L17 26V25.5L37 5.5L38.5 3.5Z" fill="white"/>
<path d="M21.46 18.0801L21.39 18.1501" stroke="#010101" stroke-width="0.25" stroke-miterlimit="10"/>
<path d="M28.04 11.5L27.84 11.7" stroke="#010101" stroke-width="0.25" stroke-miterlimit="10"/>
<path d="M21.46 18.08L27.54 12" stroke="#010101" stroke-width="0.25" stroke-miterlimit="10"/>
<path d="M21.11 18.7101L20.97 18.5701" stroke="#010101" stroke-width="0.25" stroke-miterlimit="10"/>
<path d="M29.5599 13.03L29.0699 13.53" stroke="#010101" stroke-width="0.25" stroke-miterlimit="10"/>
<path d="M29.56 13.0301L29.42 12.8901" stroke="#010101" stroke-width="0.25" stroke-miterlimit="10"/>
<path d="M27.94 12.9602L28.11 13.1302" stroke="#010101" stroke-width="0.25" stroke-miterlimit="10"/>
<path d="M22.99 19.6L29.07 13.52" stroke="#010101" stroke-width="0.25" stroke-miterlimit="10"/>
<path d="M22.99 19.6001L22.5 20.1001" stroke="#010101" stroke-width="0.25" stroke-miterlimit="10"/>
<path d="M28.04 11.5L28.18 11.64" stroke="#010101" stroke-width="0.25" stroke-miterlimit="10"/>
<path d="M22.35 19.9602L22.49 20.1002" stroke="#010101" stroke-width="0.25" stroke-miterlimit="10"/>
<path d="M22.43 18.4802L22.59 18.6402" stroke="#010101" stroke-width="0.25" stroke-miterlimit="10"/>
<path d="M28.11 13.1301L22.6 18.6501" stroke="#010101" stroke-width="0.25" stroke-miterlimit="10"/>
<path d="M21.17 18.3701L20.97 18.5701" stroke="#010101" stroke-width="0.25" stroke-miterlimit="10"/>
<path d="M27.94 12.9602L22.43 18.4702" stroke="#010101" stroke-width="0.25" stroke-miterlimit="10"/>
<path d="M22.43 18.4801C22.11 18.3401 21.79 18.2101 21.46 18.0801" stroke="#010101" stroke-width="0.25" stroke-miterlimit="10"/>
<path d="M22.59 18.6401L22.99 19.6001" stroke="#010101" stroke-width="0.25" stroke-miterlimit="10"/>
<path d="M29.07 13.5201L28.11 13.1201" stroke="#010101" stroke-width="0.25" stroke-miterlimit="10"/>
<path d="M27.54 11.99C27.67 12.31 27.8 12.63 27.94 12.96" stroke="#010101" stroke-width="0.25" stroke-miterlimit="10"/>
<path d="M27.62 11.9102L27.54 11.9902" stroke="#010101" stroke-width="0.25" stroke-miterlimit="10"/>
<path d="M16.35 26.8701V26.9101" stroke="#010101" stroke-width="0.25" stroke-miterlimit="10"/>
<path d="M14.85 28.28C14.85 28.28 14.73 28.33 14.68 28.28" stroke="#010101" stroke-width="0.25" stroke-miterlimit="10"/>
<path d="M16.96 26.01C16.96 26.01 17.01 26.13 16.96 26.18" stroke="#010101" stroke-width="0.25" stroke-miterlimit="10"/>
<path d="M15.38 27.75C15.16 27.97 14.96 28.17 14.89 28.24C14.87 28.26 14.85 28.28 14.85 28.28" stroke="#010101" stroke-width="0.25" stroke-miterlimit="10"/>
<path d="M14.68 28.2802L14.35 27.9502" stroke="#010101" stroke-width="0.25" stroke-miterlimit="10"/>
<path d="M16.63 25.6802L16.96 26.0102" stroke="#010101" stroke-width="0.25" stroke-miterlimit="10"/>
<path d="M13.53 23.79H13.55" stroke="#010101" stroke-width="0.25" stroke-miterlimit="10"/>
<path d="M12.69 24.6601C12.69 24.6601 12.69 24.6401 12.69 24.6301" stroke="#010101" stroke-width="0.25" stroke-miterlimit="10"/>
<path d="M13.46 25.4202L12.7 24.6602" stroke="#010101" stroke-width="0.25" stroke-miterlimit="10"/>
<path d="M14.3 24.57C14.3 24.57 14.3 24.55 14.3 24.54" stroke="#010101" stroke-width="0.25" stroke-miterlimit="10"/>
<path d="M14.28 24.5901L14.3 24.5701" stroke="#010101" stroke-width="0.25" stroke-miterlimit="10"/>
<path d="M14.3 24.55L13.55 23.8" stroke="#010101" stroke-width="0.25" stroke-miterlimit="10"/>
<path d="M17.0099 28.3401L17.0199 28.3501" stroke="#010101" stroke-width="0.25" stroke-miterlimit="10"/>
<path d="M17.0099 28.3401C17.0099 28.3401 17.0199 28.3601 17.0199 28.3501" stroke="#010101" stroke-width="0.25" stroke-miterlimit="10"/>
<path d="M16.36 26.9L16.48 26.78" stroke="#010101" stroke-width="0.25" stroke-miterlimit="10"/>
<path d="M12.41 24.3701C12.41 24.3701 12.41 24.3501 12.41 24.3401" stroke="#010101" stroke-width="0.25" stroke-miterlimit="10"/>
<path d="M12.68 24.6401L12.41 24.3701" stroke="#010101" stroke-width="0.25" stroke-miterlimit="10"/>
<path d="M16.55 22.4801C16.34 22.1901 16.19 21.9701 16.05 21.7801C15.98 21.6801 15.92 21.6001 15.81 21.4801C15.75 21.4201 15.69 21.3601 15.58 21.3601C15.47 21.3601 15.33 21.4201 15.25 21.5101" stroke="#010101" stroke-width="0.25" stroke-miterlimit="10"/>
<path d="M16.51 22.5202C15.82 21.8302 15.89 21.9002 15.85 21.8602C15.81 21.8202 15.65 21.6602 15.53 21.7902" stroke="#010101" stroke-width="0.25" stroke-miterlimit="10"/>
<path d="M15.25 21.51C15.25 21.51 15.25 21.51 15.26 21.52" stroke="#010101" stroke-width="0.25" stroke-miterlimit="10"/>
<path d="M12.69 24.0101C12.75 23.9401 12.83 23.8801 12.91 23.8401" stroke="#010101" stroke-width="0.25" stroke-miterlimit="10"/>
<path d="M15.53 21.79C15.53 21.79 15.53 21.79 15.52 21.78" stroke="#010101" stroke-width="0.25" stroke-miterlimit="10"/>
<path d="M15.52 21.77L15.27 21.52" stroke="#010101" stroke-width="0.25" stroke-miterlimit="10"/>
<path d="M12.73 24.05L12.98 24.3" stroke="#010101" stroke-width="0.25" stroke-miterlimit="10"/>
<path d="M14.2 24.7202C14.2 24.7202 14.28 24.7202 14.31 24.6902" stroke="#010101" stroke-width="0.25" stroke-miterlimit="10"/>
<path d="M13.37 25.64C13.37 25.64 13.41 25.57 13.4 25.53" stroke="#010101" stroke-width="0.25" stroke-miterlimit="10"/>
<path d="M14.16 24.7102H14.2" stroke="#010101" stroke-width="0.25" stroke-miterlimit="10"/>
<path d="M13.4 25.5202V25.4802" stroke="#010101" stroke-width="0.25" stroke-miterlimit="10"/>
<path d="M13.31 25.6902C13.02 25.9802 12.77 26.2302 12.78 26.2202" stroke="#010101" stroke-width="0.25" stroke-miterlimit="10"/>
<path d="M14.89 24.1101C14.89 24.1101 15.01 24.0601 15.06 24.1101" stroke="#010101" stroke-width="0.25" stroke-miterlimit="10"/>
<path d="M12.79 26.3802C12.79 26.3802 12.74 26.2602 12.79 26.2102" stroke="#010101" stroke-width="0.25" stroke-miterlimit="10"/>
<path d="M15.06 24.1101L15.39 24.4401" stroke="#010101" stroke-width="0.25" stroke-miterlimit="10"/>
<path d="M13.11 26.7101L12.78 26.3801" stroke="#010101" stroke-width="0.25" stroke-miterlimit="10"/>
<path d="M16.67 28.1501L16.75 28.0701" stroke="#010101" stroke-width="0.25" stroke-miterlimit="10"/>
<path d="M18.59 24.51C18.88 24.72 19.1 24.87 19.29 25.01C19.39 25.08 19.47 25.14 19.59 25.25C19.65 25.31 19.71 25.37 19.71 25.48C19.71 25.59 19.65 25.73 19.56 25.81" stroke="#010101" stroke-width="0.25" stroke-miterlimit="10"/>
<path d="M18.55 24.55C19.24 25.24 19.17 25.17 19.21 25.21C19.25 25.25 19.41 25.4101 19.28 25.5301" stroke="#010101" stroke-width="0.25" stroke-miterlimit="10"/>
<path d="M19.56 25.8201C19.56 25.8201 19.56 25.8201 19.55 25.8101" stroke="#010101" stroke-width="0.25" stroke-miterlimit="10"/>
<path d="M19.28 25.54C19.28 25.54 19.28 25.54 19.29 25.55" stroke="#010101" stroke-width="0.25" stroke-miterlimit="10"/>
<path d="M19.29 25.55L19.54 25.8" stroke="#010101" stroke-width="0.25" stroke-miterlimit="10"/>
<path d="M17.0099 28.3401L16.7599 28.0901" stroke="#010101" stroke-width="0.25" stroke-miterlimit="10"/>
<path d="M16.44 28.3701C16.44 28.3701 16.42 28.3701 16.41 28.3701" stroke="#010101" stroke-width="0.25" stroke-miterlimit="10"/>
<path d="M12.52 24.23C12.57 24.15 12.63 24.07 12.69 24.01" stroke="#010101" stroke-width="0.25" stroke-miterlimit="10"/>
<path d="M16.47 26.78L16.49 26.76" stroke="#010101" stroke-width="0.25" stroke-miterlimit="10"/>
<path d="M16.41 28.3701L15.65 27.6101" stroke="#010101" stroke-width="0.25" stroke-miterlimit="10"/>
<path d="M17.27 27.54C17.27 27.54 17.27 27.52 17.27 27.51" stroke="#010101" stroke-width="0.25" stroke-miterlimit="10"/>
<path d="M16.49 26.77C16.49 26.77 16.51 26.77 16.52 26.77" stroke="#010101" stroke-width="0.25" stroke-miterlimit="10"/>
<path d="M16.71 28.6701L16.43 28.3901" stroke="#010101" stroke-width="0.25" stroke-miterlimit="10"/>
<path d="M16.52 26.77L17.27 27.52" stroke="#010101" stroke-width="0.25" stroke-miterlimit="10"/>
<path d="M13.58 25.2902C13.73 25.1402 14.05 24.8202 14.16 24.7102" stroke="#010101" stroke-width="0.25" stroke-miterlimit="10"/>
<path d="M17.03 28.3501L19.56 25.8201" stroke="#010101" stroke-width="0.25" stroke-miterlimit="10"/>
<path d="M17.23 28.1501C17.18 28.2301 17.12 28.3101 17.06 28.3701" stroke="#010101" stroke-width="0.25" stroke-miterlimit="10"/>
<path d="M17.05 28.3701C16.99 28.4401 16.91 28.5001 16.83 28.5401" stroke="#010101" stroke-width="0.25" stroke-miterlimit="10"/>
<path d="M16.96 26.1702C16.96 26.1702 16.92 26.2102 16.83 26.3002C16.57 26.5602 15.81 27.3202 15.38 27.7502" stroke="#010101" stroke-width="0.25" stroke-miterlimit="10"/>
<path d="M15.58 27.6801C15.58 27.6801 15.66 27.6001 15.77 27.4901C15.94 27.3201 16.21 27.0501 16.31 26.9501C16.34 26.9201 16.35 26.9101 16.36 26.9001" stroke="#010101" stroke-width="0.25" stroke-miterlimit="10"/>
<path d="M12.68 24.6401C12.68 24.6401 12.75 24.5701 12.84 24.4801C12.87 24.4501 12.89 24.4301 12.92 24.4001" stroke="#010101" stroke-width="0.25" stroke-miterlimit="10"/>
<path d="M13 24.32L15.53 21.79" stroke="#010101" stroke-width="0.25" stroke-miterlimit="10"/>
<path d="M14.89 24.1101C14.89 24.1101 14.85 24.1501 14.76 24.2401C14.5 24.5001 13.74 25.2601 13.31 25.6901" stroke="#010101" stroke-width="0.25" stroke-miterlimit="10"/>
<path d="M16.42 28.3901C16.42 28.3901 16.49 28.3201 16.58 28.2301C16.61 28.2001 16.63 28.1801 16.66 28.1501" stroke="#010101" stroke-width="0.25" stroke-miterlimit="10"/>
<path d="M16.75 28.07L19.28 25.54" stroke="#010101" stroke-width="0.25" stroke-miterlimit="10"/>
<path d="M12.92 24.4001L13 24.3201" stroke="#010101" stroke-width="0.25" stroke-miterlimit="10"/>
<path d="M12.72 24.04L15.25 21.51" stroke="#010101" stroke-width="0.25" stroke-miterlimit="10"/>
<path d="M12.41 24.34C12.41 24.34 12.57 24.18 12.72 24.03" stroke="#010101" stroke-width="0.25" stroke-miterlimit="10"/>
<path d="M12.73 24.05L12.72 24.04" stroke="#010101" stroke-width="0.25" stroke-miterlimit="10"/>
<path d="M13.39 25.49C13.39 25.49 13.48 25.4 13.58 25.3" stroke="#010101" stroke-width="0.25" stroke-miterlimit="10"/>
<path d="M14.16 24.7101L14.28 24.5901" stroke="#010101" stroke-width="0.25" stroke-miterlimit="10"/>
<path d="M15.54 27.6702C15.54 27.6702 15.46 27.6702 15.43 27.7002" stroke="#010101" stroke-width="0.25" stroke-miterlimit="10"/>
<path d="M16.38 26.75C16.38 26.75 16.34 26.82 16.35 26.86" stroke="#010101" stroke-width="0.25" stroke-miterlimit="10"/>
<path d="M15.58 27.6802H15.54" stroke="#010101" stroke-width="0.25" stroke-miterlimit="10"/>
<path d="M16.71 28.6701C16.76 28.6201 16.91 28.4701 17.03 28.3501" stroke="#010101" stroke-width="0.25" stroke-miterlimit="10"/>
<path d="M13.24 29.0701C13.24 29.0701 13.13 29.1101 13.08 29.0701" stroke="#010101" stroke-width="0.25" stroke-miterlimit="10"/>
<path d="M11.99 27.9802L13.08 29.0702" stroke="#010101" stroke-width="0.25" stroke-miterlimit="10"/>
<path d="M11.9899 27.9801C11.9899 27.9801 11.9499 27.8701 11.9899 27.8201" stroke="#010101" stroke-width="0.25" stroke-miterlimit="10"/>
<path d="M38.57 3.69019C38.57 3.69019 38.56 3.75019 38.54 3.77019" stroke="#010101" stroke-width="0.25" stroke-miterlimit="10"/>
<path d="M38.53 3.61011C38.53 3.61011 38.56 3.66011 38.56 3.69011" stroke="#010101" stroke-width="0.25" stroke-miterlimit="10"/>
<path d="M38.53 3.61002L37.44 2.52002" stroke="#010101" stroke-width="0.25" stroke-miterlimit="10"/>
<path d="M21.6 18.2202L21.66 18.1602" stroke="#010101" stroke-width="0.25" stroke-miterlimit="10"/>
<path d="M28.93 13.3801L28.87 13.4401" stroke="#010101" stroke-width="0.25" stroke-miterlimit="10"/>
<path d="M37.29 2.53023C37.29 2.53023 37.4 2.49023 37.45 2.53023" stroke="#010101" stroke-width="0.25" stroke-miterlimit="10"/>
<path d="M27.68 12.14L27.82 12" stroke="#010101" stroke-width="0.25" stroke-miterlimit="10"/>
<path d="M27.92 11.9L28.17 11.65L37.28 2.53003" stroke="#010101" stroke-width="0.25" stroke-miterlimit="10"/>
<path d="M11.99 27.8302L21.1 18.7102L21.36 18.4502" stroke="#010101" stroke-width="0.25" stroke-miterlimit="10"/>
<path d="M21.47 18.3502L21.6 18.2202" stroke="#010101" stroke-width="0.25" stroke-miterlimit="10"/>
<path d="M38.53 3.77002L29.42 12.89L28.93 13.39" stroke="#010101" stroke-width="0.25" stroke-miterlimit="10"/>
<path d="M22.85 19.4602L22.36 19.9602L13.25 29.0802" stroke="#010101" stroke-width="0.25" stroke-miterlimit="10"/>
<path d="M27.62 12.1901L27.68 12.1301" stroke="#010101" stroke-width="0.25" stroke-miterlimit="10"/>
<path d="M22.91 19.4001L22.85 19.4601" stroke="#010101" stroke-width="0.25" stroke-miterlimit="10"/>
<path d="M27.86 11.8301L27.89 11.8601" stroke="#010101" stroke-width="0.25" stroke-miterlimit="10"/>
<path d="M27.96 11.9301L27.93 11.9001" stroke="#010101" stroke-width="0.25" stroke-miterlimit="10"/>
<path d="M28 11.9702L27.97 11.9402" stroke="#010101" stroke-width="0.25" stroke-miterlimit="10"/>
<path d="M28 12H27.99" stroke="#010101" stroke-width="0.25" stroke-miterlimit="10"/>
<path d="M21.41 18.4902L21.38 18.4602" stroke="#010101" stroke-width="0.25" stroke-miterlimit="10"/>
<path d="M28.0099 11.9902V11.9702" stroke="#010101" stroke-width="0.25" stroke-miterlimit="10"/>
<path d="M21.34 18.1101H21.35" stroke="#010101" stroke-width="0.25" stroke-miterlimit="10"/>
<path d="M21.31 18.3901L21.34 18.4201" stroke="#010101" stroke-width="0.25" stroke-miterlimit="10"/>
<path d="M27.59 11.8801L27.63 11.9201" stroke="#010101" stroke-width="0.25" stroke-miterlimit="10"/>
<path d="M21.34 18.4202L21.37 18.4502" stroke="#010101" stroke-width="0.25" stroke-miterlimit="10"/>
<path d="M22.7599 16.7102L22.7899 16.7402" stroke="#010101" stroke-width="0.25" stroke-miterlimit="10"/>
<path d="M27.79 11.6501H27.8" stroke="#010101" stroke-width="0.25" stroke-miterlimit="10"/>
<path d="M22.54 16.9302L22.57 16.9602" stroke="#010101" stroke-width="0.25" stroke-miterlimit="10"/>
<path d="M27.81 11.6602L27.85 11.7002" stroke="#010101" stroke-width="0.25" stroke-miterlimit="10"/>
<path d="M21.14 18.3401L21.18 18.3801" stroke="#010101" stroke-width="0.25" stroke-miterlimit="10"/>
<path d="M27.79 11.76L27.83 11.8" stroke="#010101" stroke-width="0.25" stroke-miterlimit="10"/>
<path d="M27.83 11.8L27.86 11.83" stroke="#010101" stroke-width="0.25" stroke-miterlimit="10"/>
<path d="M26.4 13.0801L26.43 13.1101" stroke="#010101" stroke-width="0.25" stroke-miterlimit="10"/>
<path d="M27.78 11.6501H27.79" stroke="#010101" stroke-width="0.25" stroke-miterlimit="10"/>
<path d="M26.36 13.0701H26.37" stroke="#010101" stroke-width="0.25" stroke-miterlimit="10"/>
<path d="M26.18 13.3L26.21 13.33" stroke="#010101" stroke-width="0.25" stroke-miterlimit="10"/>
<path d="M26.38 13.0701H26.39" stroke="#010101" stroke-width="0.25" stroke-miterlimit="10"/>
<path d="M21.56 18.4402V18.4202" stroke="#010101" stroke-width="0.25" stroke-miterlimit="10"/>
<path d="M21.55 18.4502H21.54" stroke="#010101" stroke-width="0.25" stroke-miterlimit="10"/>
<path d="M21.55 18.4201L21.52 18.3901" stroke="#010101" stroke-width="0.25" stroke-miterlimit="10"/>
<path d="M22.73 16.7002H22.74" stroke="#010101" stroke-width="0.25" stroke-miterlimit="10"/>
<path d="M21.51 18.3901L21.48 18.3601" stroke="#010101" stroke-width="0.25" stroke-miterlimit="10"/>
<path d="M21.41 18.29L21.44 18.32" stroke="#010101" stroke-width="0.25" stroke-miterlimit="10"/>
<path d="M22.74 16.7002H22.75" stroke="#010101" stroke-width="0.25" stroke-miterlimit="10"/>
<path d="M21.44 18.3201L21.47 18.3501" stroke="#010101" stroke-width="0.25" stroke-miterlimit="10"/>
<path d="M21.27 18.3601L21.3 18.3901" stroke="#010101" stroke-width="0.25" stroke-miterlimit="10"/>
<path d="M21.23 18.3101L21.27 18.3501" stroke="#010101" stroke-width="0.25" stroke-miterlimit="10"/>
<path d="M21.46 18.54H21.44" stroke="#010101" stroke-width="0.25" stroke-miterlimit="10"/>
<path d="M27.79 11.9702L27.82 12.0002" stroke="#010101" stroke-width="0.25" stroke-miterlimit="10"/>
<path d="M27.7599 11.9402L27.7899 11.9702" stroke="#010101" stroke-width="0.25" stroke-miterlimit="10"/>
<path d="M27.86 12.04L27.83 12.01" stroke="#010101" stroke-width="0.25" stroke-miterlimit="10"/>
<path d="M27.89 12.07L27.86 12.04" stroke="#010101" stroke-width="0.25" stroke-miterlimit="10"/>
<path d="M21.3199 18.1001H21.3299" stroke="#010101" stroke-width="0.25" stroke-miterlimit="10"/>
<path d="M27.92 12.0701H27.93" stroke="#010101" stroke-width="0.25" stroke-miterlimit="10"/>
<path d="M21.38 18.25L21.41 18.28" stroke="#010101" stroke-width="0.25" stroke-miterlimit="10"/>
<path d="M21.47 18.53H21.48" stroke="#010101" stroke-width="0.25" stroke-miterlimit="10"/>
<path d="M27.91 12.0801H27.89" stroke="#010101" stroke-width="0.25" stroke-miterlimit="10"/>
<path d="M21.33 18.2102L21.37 18.2502" stroke="#010101" stroke-width="0.25" stroke-miterlimit="10"/>
<path d="M27.68 11.8601L27.72 11.9001" stroke="#010101" stroke-width="0.25" stroke-miterlimit="10"/>
<path d="M27.73 11.9001L27.76 11.9301" stroke="#010101" stroke-width="0.25" stroke-miterlimit="10"/>
<path d="M21.36 18.1201L21.4 18.1601" stroke="#010101" stroke-width="0.25" stroke-miterlimit="10"/>
<path d="M27.9 11.8701L27.93 11.9001" stroke="#010101" stroke-width="0.25" stroke-miterlimit="10"/>
<path d="M21.44 18.52L21.41 18.49" stroke="#010101" stroke-width="0.25" stroke-miterlimit="10"/>
<path d="M38.57 3.69015C38.57 3.43015 38.57 3.17015 38.57 2.92015C38.57 2.79015 38.57 2.66015 38.57 2.53015C38.57 2.40015 38.57 2.27015 38.57 2.14015C38.57 2.13015 38.57 2.11015 38.57 2.10015C38.57 2.09015 38.56 2.07015 38.55 2.07015C38.53 2.05015 38.5 2.05015 38.48 2.05015C38.39 2.05015 38.29 2.05015 38.2 2.05015C38.11 2.05015 38.01 2.05015 37.92 2.05015C37.89 2.05015 37.87 2.05015 37.85 2.03015C37.85 2.03015 37.83 2.01015 37.83 2.00015C37.83 1.99015 37.83 1.97015 37.83 1.96015C37.83 1.82015 37.83 1.68015 37.83 1.53015C37.83 1.39015 37.83 1.24015 37.83 1.10015C37.83 0.960147 37.83 0.810146 37.83 0.670146C37.83 0.530146 37.83 0.380146 37.83 0.240146C37.83 0.230146 37.83 0.210146 37.83 0.200146C37.83 0.190146 37.84 0.180146 37.85 0.170146C37.85 0.170146 37.87 0.150146 37.88 0.150146C37.89 0.150146 37.91 0.150146 37.92 0.150146C38.17 0.150146 38.42 0.150146 38.67 0.150146C38.92 0.150146 39.17 0.150146 39.42 0.150146C39.67 0.150146 39.92 0.150146 40.17 0.150146C40.42 0.150146 40.67 0.150146 40.92 0.150146C40.93 0.150146 40.95 0.150146 40.96 0.150146C40.97 0.150146 40.98 0.160146 40.99 0.170146C40.99 0.170146 41.01 0.190146 41.01 0.200146C41.01 0.210146 41.01 0.230146 41.01 0.240146C41.01 0.390146 41.01 0.550146 41.01 0.700146C41.01 0.850146 41.01 1.01015 41.01 1.16015C41.01 1.17015 41.01 1.19015 41.01 1.20015C41.01 1.21015 41 1.23015 40.99 1.23015C40.97 1.25015 40.94 1.25015 40.92 1.26015C40.87 1.26015 40.82 1.26015 40.77 1.26015C40.72 1.26015 40.67 1.26015 40.62 1.26015C40.6 1.26015 40.59 1.26015 40.58 1.25015C40.57 1.25015 40.56 1.22015 40.56 1.21015C40.56 1.18015 40.59 1.15015 40.62 1.15015" stroke="#010101" stroke-width="0.25" stroke-miterlimit="10"/>
<path d="M2.52 3.86011L2.5 4.09011" stroke="#010101" stroke-width="0.25" stroke-miterlimit="10"/>
<path d="M2.45998 3.87011C2.08998 3.87011 1.71998 3.87011 1.33998 3.87011C1.14998 3.87011 0.969976 3.87011 0.779976 3.87011C0.589976 3.87011 0.409976 3.87011 0.219976 3.87011C0.209976 3.87011 0.189976 3.87011 0.179976 3.87011C0.169976 3.87011 0.149976 3.86011 0.149976 3.85011C0.129976 3.83011 0.129976 3.80011 0.119976 3.78011C0.119976 3.71011 0.119976 3.64011 0.119976 3.57011C0.119976 3.50011 0.119976 3.43011 0.119976 3.36011C0.119976 3.33011 0.119976 3.31011 0.149976 3.29011C0.169976 3.27011 0.189976 3.27011 0.219976 3.26011C0.269976 3.26011 0.319976 3.26011 0.369976 3.26011C0.419976 3.26011 0.469976 3.26011 0.519976 3.26011C0.539976 3.26011 0.549976 3.26011 0.559976 3.27011C0.569976 3.27011 0.579976 3.30011 0.579976 3.31011C0.579976 3.33011 0.579976 3.34011 0.559976 3.35011C0.549976 3.35011 0.529976 3.36011 0.519976 3.36011C0.459976 3.36011 0.399976 3.36011 0.339976 3.36011C0.309976 3.36011 0.289976 3.36011 0.269976 3.39011C0.249976 3.41011 0.239976 3.43011 0.239976 3.46011C0.239976 3.49011 0.239976 3.52011 0.239976 3.55011C0.239976 3.58011 0.239976 3.61011 0.239976 3.64011C0.239976 3.67011 0.239976 3.69011 0.269976 3.71011C0.269976 3.71011 0.289976 3.73011 0.299976 3.73011C0.309976 3.73011 0.329976 3.73011 0.339976 3.73011C0.499976 3.73011 0.669976 3.73011 0.839976 3.73011C1.00998 3.73011 1.16998 3.73011 1.33998 3.73011C1.50998 3.73011 1.66998 3.73011 1.83998 3.73011C2.00998 3.73011 2.17998 3.73011 2.33998 3.73011C2.34998 3.73011 2.36998 3.73011 2.37998 3.73011C2.38998 3.73011 2.39998 3.72011 2.40998 3.71011C2.41998 3.70011 2.42998 3.69011 2.42998 3.68011C2.42998 3.67011 2.42998 3.65011 2.42998 3.64011C2.42998 3.51011 2.42998 3.37011 2.42998 3.23011C2.42998 3.09011 2.42998 2.96011 2.42998 2.82011C2.42998 2.68011 2.42998 2.55011 2.42998 2.41011C2.42998 2.27011 2.42998 2.14011 2.42998 2.00011C2.42998 1.99011 2.42998 1.97011 2.42998 1.96011C2.42998 1.95011 2.43998 1.93011 2.44998 1.93011C2.46998 1.91011 2.49998 1.91011 2.51998 1.91011C2.60998 1.91011 2.70998 1.91011 2.79998 1.91011C2.88998 1.91011 2.98998 1.91011 3.07998 1.91011C3.10998 1.91011 3.12998 1.91011 3.14998 1.89011C3.14998 1.89011 3.16998 1.87011 3.16998 1.86011C3.16998 1.85011 3.16998 1.83011 3.16998 1.82011C3.16998 1.70011 3.16998 1.58011 3.16998 1.45011C3.16998 1.33011 3.16998 1.20011 3.16998 1.08011C3.16998 0.960107 3.16998 0.830107 3.16998 0.710107C3.16998 0.590107 3.16998 0.460107 3.16998 0.340107C3.16998 0.330107 3.16998 0.310107 3.16998 0.300107C3.16998 0.290107 3.15998 0.280107 3.14998 0.270107C3.14998 0.270107 3.12998 0.250107 3.11998 0.250107C3.10998 0.250107 3.08998 0.250107 3.07998 0.250107C2.84998 0.250107 2.61998 0.250107 2.38998 0.250107C2.15998 0.250107 1.92998 0.250107 1.69998 0.250107C1.46998 0.250107 1.23998 0.250107 1.00998 0.250107C0.779976 0.250107 0.549976 0.250107 0.319976 0.250107C0.309976 0.250107 0.289976 0.250107 0.279976 0.250107C0.269976 0.250107 0.249976 0.260107 0.239976 0.270107C0.219976 0.290107 0.219976 0.320107 0.219976 0.340107C0.219976 0.450107 0.219976 0.570107 0.219976 0.680107C0.219976 0.790107 0.219976 0.910107 0.219976 1.02011C0.219976 1.05011 0.219976 1.07011 0.239976 1.09011C0.259976 1.11011 0.279976 1.11011 0.309976 1.12011C0.369976 1.12011 0.429976 1.12011 0.489976 1.12011C0.509976 1.12011 0.519976 1.12011 0.529976 1.13011C0.539976 1.13011 0.549976 1.16011 0.549976 1.17011C0.549976 1.19011 0.549976 1.20011 0.529976 1.21011C0.519976 1.21011 0.499976 1.22011 0.489976 1.22011C0.439976 1.22011 0.389976 1.22011 0.339976 1.22011C0.289976 1.22011 0.239976 1.22011 0.189976 1.22011C0.159976 1.22011 0.139976 1.22011 0.119976 1.19011C0.119976 1.19011 0.0999756 1.17011 0.0999756 1.16011C0.0999756 1.15011 0.0999756 1.13011 0.0999756 1.12011C0.0999756 0.970107 0.0999756 0.820107 0.0999756 0.660107C0.0999756 0.500107 0.0999756 0.350107 0.0999756 0.200107C0.0999756 0.190107 0.0999756 0.170107 0.0999756 0.160107C0.0999756 0.150107 0.109976 0.140107 0.119976 0.130107C0.119976 0.130107 0.139976 0.110107 0.149976 0.110107C0.159976 0.110107 0.179976 0.110107 0.189976 0.110107C0.439976 0.110107 0.689976 0.110107 0.939976 0.110107C1.18998 0.110107 1.43998 0.110107 1.68998 0.110107C1.93998 0.110107 2.18998 0.110107 2.43998 0.110107C2.68998 0.110107 2.93998 0.110107 3.18998 0.110107C3.19998 0.110107 3.21998 0.110107 3.22998 0.110107C3.23998 0.110107 3.24998 0.120107 3.25998 0.130107C3.25998 0.130107 3.27998 0.150107 3.27998 0.160107C3.27998 0.170107 3.27998 0.190107 3.27998 0.200107C3.27998 0.340107 3.27998 0.480107 3.27998 0.630107C3.27998 0.770107 3.27998 0.920107 3.27998 1.06011C3.27998 1.20011 3.27998 1.35011 3.27998 1.49011C3.27998 1.63011 3.27998 1.78011 3.27998 1.92011C3.27998 1.93011 3.27998 1.95011 3.27998 1.96011C3.27998 1.97011 3.26998 1.99011 3.25998 1.99011C3.23998 2.01011 3.20998 2.01011 3.18998 2.01011C3.09998 2.01011 2.99998 2.01011 2.90998 2.01011C2.81998 2.01011 2.71998 2.01011 2.62998 2.01011C2.59998 2.01011 2.57998 2.01011 2.55998 2.03011C2.55998 2.03011 2.53998 2.05011 2.53998 2.06011C2.53998 2.07011 2.53998 2.09011 2.53998 2.10011C2.53998 2.23011 2.53998 2.37011 2.53998 2.51011C2.53998 2.65011 2.53998 2.78011 2.53998 2.92011C2.53998 3.19011 2.53998 3.46011 2.53998 3.73011C2.53998 3.76011 2.53998 3.80011 2.49998 3.82011" stroke="#010101" stroke-width="0.25" stroke-miterlimit="10"/>
<path d="M2.46997 4.09013V3.88013" stroke="#010101" stroke-width="0.25" stroke-miterlimit="10"/>
<path d="M40.62 1.13001C40.68 1.13001 40.74 1.13001 40.8 1.13001C40.83 1.13001 40.85 1.13001 40.87 1.10001C40.89 1.08001 40.89 1.06001 40.89 1.03001C40.9 0.91001 40.89 0.80001 40.89 0.69001C40.89 0.58001 40.89 0.46001 40.89 0.35001C40.89 0.32001 40.89 0.30001 40.87 0.28001C40.87 0.28001 40.85 0.26001 40.83 0.26001C40.81 0.26001 40.8 0.26001 40.79 0.26001C40.56 0.26001 40.33 0.26001 40.1 0.26001C39.87 0.26001 39.64 0.26001 39.41 0.26001C39.18 0.26001 38.95 0.26001 38.72 0.26001C38.49 0.26001 38.26 0.26001 38.03 0.26001C38.02 0.26001 38 0.26001 37.99 0.26001C37.98 0.26001 37.97 0.27001 37.96 0.28001C37.95 0.29001 37.94 0.30001 37.94 0.31001C37.94 0.32001 37.94 0.34001 37.94 0.35001C37.94 0.47001 37.94 0.59001 37.94 0.72001C37.94 0.84001 37.94 0.97001 37.94 1.09001C37.94 1.21001 37.94 1.34001 37.94 1.46001C37.94 1.58001 37.94 1.71001 37.94 1.83001C37.94 1.84001 37.94 1.86001 37.94 1.87001C37.94 1.88001 37.95 1.90001 37.96 1.90001C37.98 1.92001 38.01 1.92001 38.03 1.92001C38.12 1.92001 38.22 1.92001 38.31 1.92001C38.4 1.92001 38.5 1.92001 38.59 1.92001C38.62 1.92001 38.64 1.92001 38.66 1.94001C38.66 1.94001 38.68 1.96001 38.68 1.97001C38.68 1.98001 38.68 2.00001 38.68 2.01001C38.68 2.14001 38.68 2.28001 38.68 2.42001C38.68 2.56001 38.68 2.69001 38.68 2.83001C38.68 2.97001 38.68 3.10001 38.68 3.24001C38.68 3.38001 38.68 3.51001 38.68 3.65001C38.68 3.66001 38.68 3.68001 38.68 3.69001C38.68 3.70001 38.69 3.71001 38.7 3.72001C38.7 3.72001 38.72 3.74001 38.73 3.74001C38.74 3.74001 38.76 3.74001 38.77 3.74001C38.94 3.74001 39.1 3.74001 39.27 3.74001C39.44 3.74001 39.6 3.74001 39.77 3.74001C39.94 3.74001 40.1 3.74001 40.27 3.74001C40.44 3.74001 40.61 3.74001 40.77 3.74001C40.78 3.74001 40.8 3.74001 40.81 3.74001C40.82 3.74001 40.84 3.73001 40.84 3.72001C40.86 3.70001 40.87 3.68001 40.87 3.65001C40.87 3.62001 40.87 3.59001 40.87 3.56001C40.87 3.53001 40.87 3.50001 40.87 3.47001C40.87 3.44001 40.86 3.42001 40.84 3.40001C40.82 3.38001 40.8 3.38001 40.77 3.37001C40.71 3.37001 40.65 3.37001 40.59 3.37001C40.57 3.37001 40.56 3.37001 40.55 3.36001C40.54 3.36001 40.53 3.33001 40.53 3.32001C40.53 3.30001 40.53 3.29001 40.55 3.28001C40.57 3.27001 40.58 3.27001 40.59 3.27001C40.64 3.27001 40.69 3.27001 40.74 3.27001C40.79 3.27001 40.84 3.27001 40.89 3.27001C40.92 3.27001 40.94 3.28001 40.96 3.30001C40.98 3.32001 40.98 3.34001 40.99 3.37001C40.99 3.44001 40.99 3.51001 40.99 3.58001C40.99 3.65001 40.99 3.72001 40.99 3.79001C40.99 3.82001 40.99 3.84001 40.96 3.86001C40.96 3.86001 40.94 3.88001 40.93 3.88001C40.92 3.88001 40.9 3.88001 40.89 3.88001C40.71 3.88001 40.52 3.88001 40.33 3.88001C40.14 3.88001 39.96 3.88001 39.77 3.88001C39.58 3.88001 39.4 3.88001 39.21 3.88001C39.02 3.88001 38.83 3.88001 38.65 3.88001C38.64 3.88001 38.62 3.88001 38.61 3.88001C38.6 3.88001 38.59 3.87001 38.58 3.86001C38.56 3.84001 38.55 3.82001 38.55 3.79001C38.55 3.76001 38.55 3.74001 38.55 3.71001" stroke="#010101" stroke-width="0.25" stroke-miterlimit="10"/>
<path d="M2.46997 4.09009H2.50997" stroke="#010101" stroke-width="0.25" stroke-miterlimit="10"/>
<path d="M18.59 24.51L18.55 24.55" stroke="#010101" stroke-width="0.25" stroke-miterlimit="10"/>
<path d="M27.68 11.8601L27.62 11.9201" stroke="#010101" stroke-width="0.25" stroke-miterlimit="10"/>
<path d="M38.5999 4.69014C38.8209 4.69014 39 4.51105 39 4.29014C39 4.06922 38.8209 3.89014 38.5999 3.89014C38.379 3.89014 38.2 4.06922 38.2 4.29014C38.2 4.51105 38.379 4.69014 38.5999 4.69014Z" stroke="#010101" stroke-width="0.25" stroke-miterlimit="10"/>
<path d="M21.23 18.3101L21.17 18.3701" stroke="#010101" stroke-width="0.25" stroke-miterlimit="10"/>
<path d="M22.53 16.8801L22.6 16.8101" stroke="#010101" stroke-width="0.25" stroke-miterlimit="10"/>
<path d="M22.67 16.8101L22.64 16.8401L22.61 16.8101" stroke="#010101" stroke-width="0.25" stroke-miterlimit="10"/>
<path d="M22.67 16.81L22.64 16.78" stroke="#010101" stroke-width="0.25" stroke-miterlimit="10"/>
<path d="M22.7 16.7002L22.63 16.7702" stroke="#010101" stroke-width="0.25" stroke-miterlimit="10"/>
<path d="M16.5099 22.5202L16.5499 22.4802" stroke="#010101" stroke-width="0.25" stroke-miterlimit="10"/>
<path d="M26.17 13.2402L26.24 13.1702" stroke="#010101" stroke-width="0.25" stroke-miterlimit="10"/>
<path d="M26.31 13.1802L26.28 13.2102L26.25 13.1802" stroke="#010101" stroke-width="0.25" stroke-miterlimit="10"/>
<path d="M26.31 13.1801L26.28 13.1501" stroke="#010101" stroke-width="0.25" stroke-miterlimit="10"/>
<path d="M26.34 13.0701L26.27 13.1401" stroke="#010101" stroke-width="0.25" stroke-miterlimit="10"/>
<path d="M21.13 18.2802L21.2 18.2102" stroke="#010101" stroke-width="0.25" stroke-miterlimit="10"/>
<path d="M21.46 18.5402L21.55 18.4502" stroke="#010101" stroke-width="0.25" stroke-miterlimit="10"/>
<path d="M27.79 11.7602L27.85 11.7002" stroke="#010101" stroke-width="0.25" stroke-miterlimit="10"/>
<path d="M21.27 18.2102L21.24 18.2402L21.21 18.2102" stroke="#010101" stroke-width="0.25" stroke-miterlimit="10"/>
<path d="M38.6 4.71012C38.832 4.71012 39.02 4.52208 39.02 4.29012C39.02 4.05816 38.832 3.87012 38.6 3.87012C38.368 3.87012 38.18 4.05816 38.18 4.29012C38.18 4.52208 38.368 4.71012 38.6 4.71012Z" stroke="#010101" stroke-width="0.25" stroke-miterlimit="10"/>
<path d="M27.75 11.6602L27.68 11.7302" stroke="#010101" stroke-width="0.25" stroke-miterlimit="10"/>
<path d="M27.72 11.7602L27.69 11.7302" stroke="#010101" stroke-width="0.25" stroke-miterlimit="10"/>
<path d="M21.27 18.2102L21.24 18.1802" stroke="#010101" stroke-width="0.25" stroke-miterlimit="10"/>
<path d="M27.72 11.76L27.69 11.79L27.66 11.76" stroke="#010101" stroke-width="0.25" stroke-miterlimit="10"/>
<path d="M27.91 12.08L28 11.99" stroke="#010101" stroke-width="0.25" stroke-miterlimit="10"/>
<path d="M21.3 18.1101L21.23 18.1801" stroke="#010101" stroke-width="0.25" stroke-miterlimit="10"/>
<path d="M27.58 11.83L27.65 11.76" stroke="#010101" stroke-width="0.25" stroke-miterlimit="10"/>
<path d="M21.33 18.2101L21.39 18.1501" stroke="#010101" stroke-width="0.25" stroke-miterlimit="10"/>
</g>
<defs>
<clipPath id="clip0_1314_919">
<rect width="41.14" height="29.23" fill="white"/>
</clipPath>
</defs>
</svg>
