<svg width="9" height="9" viewBox="0 0 9 9" fill="none" xmlns="http://www.w3.org/2000/svg">
<g clip-path="url(#clip0_788_2821)">
<path d="M0.0500488 0.520049L0.280049 0.180049L0.630049 0.0500488H7.47005L7.87005 0.210049L8.05005 0.630049V7.47005L7.90005 7.85005L7.47005 8.05005L0.550049 8.04005L0.190049 7.84005L0.0500488 7.47005V0.520049Z" fill="white"/>
<path d="M0.630005 0.0500488H7.47" stroke="black" stroke-width="0.25" stroke-linecap="round" stroke-linejoin="round"/>
<path d="M7.47009 0.0500488C7.79009 0.0500488 8.05009 0.310049 8.05009 0.630049" stroke="black" stroke-width="0.25" stroke-linecap="round" stroke-linejoin="round"/>
<path d="M8.05005 0.630005V7.47" stroke="black" stroke-width="0.25" stroke-linecap="round" stroke-linejoin="round"/>
<path d="M8.05009 7.47009C8.05009 7.79009 7.79009 8.05009 7.47009 8.05009" stroke="black" stroke-width="0.25" stroke-linecap="round" stroke-linejoin="round"/>
<path d="M7.47 8.05005H0.630005" stroke="black" stroke-width="0.25" stroke-linecap="round" stroke-linejoin="round"/>
<path d="M0.630049 8.05009C0.310049 8.05009 0.0500488 7.79009 0.0500488 7.47009" stroke="black" stroke-width="0.25" stroke-linecap="round" stroke-linejoin="round"/>
<path d="M0.0500488 7.47V0.630005" stroke="black" stroke-width="0.25" stroke-linecap="round" stroke-linejoin="round"/>
<path d="M0.0500488 0.630049C0.0500488 0.310049 0.310049 0.0500488 0.630049 0.0500488" stroke="black" stroke-width="0.25" stroke-linecap="round" stroke-linejoin="round"/>
<path d="M7.41002 0.80002C7.48734 0.80002 7.55002 0.737339 7.55002 0.66002C7.55002 0.5827 7.48734 0.52002 7.41002 0.52002C7.3327 0.52002 7.27002 0.5827 7.27002 0.66002C7.27002 0.737339 7.3327 0.80002 7.41002 0.80002Z" stroke="black" stroke-width="0.25" stroke-linecap="round" stroke-linejoin="round"/>
<path d="M7.41002 7.55002C7.48734 7.55002 7.55002 7.48734 7.55002 7.41002C7.55002 7.3327 7.48734 7.27002 7.41002 7.27002C7.3327 7.27002 7.27002 7.3327 7.27002 7.41002C7.27002 7.48734 7.3327 7.55002 7.41002 7.55002Z" stroke="black" stroke-width="0.25" stroke-linecap="round" stroke-linejoin="round"/>
<path d="M0.690049 0.80002C0.767369 0.80002 0.830049 0.737339 0.830049 0.66002C0.830049 0.5827 0.767369 0.52002 0.690049 0.52002C0.612729 0.52002 0.550049 0.5827 0.550049 0.66002C0.550049 0.737339 0.612729 0.80002 0.690049 0.80002Z" stroke="black" stroke-width="0.25" stroke-linecap="round" stroke-linejoin="round"/>
<path d="M0.690049 7.55002C0.767369 7.55002 0.830049 7.48734 0.830049 7.41002C0.830049 7.3327 0.767369 7.27002 0.690049 7.27002C0.612729 7.27002 0.550049 7.3327 0.550049 7.41002C0.550049 7.48734 0.612729 7.55002 0.690049 7.55002Z" stroke="black" stroke-width="0.25" stroke-linecap="round" stroke-linejoin="round"/>
</g>
<defs>
<clipPath id="clip0_788_2821">
<rect width="8.1" height="8.1" fill="white"/>
</clipPath>
</defs>
</svg>
