<svg width="128" height="78" viewBox="0 0 128 78" fill="none" xmlns="http://www.w3.org/2000/svg">
<g clip-path="url(#clip0_897_361)">
<rect y="0.75" width="4" height="77.25" fill="white"/>
<rect x="4" y="9" width="120" height="69" fill="white"/>
<rect x="124" width="4" height="78" fill="white"/>
<path d="M4.12195 0.703125V77.903" stroke="black" stroke-width="0.25" stroke-linecap="round" stroke-linejoin="round"/>
<path d="M4.12196 77.9028H0.129761" stroke="black" stroke-width="0.25" stroke-linecap="round" stroke-linejoin="round"/>
<path d="M0.129761 77.903V0.703125" stroke="black" stroke-width="0.25" stroke-linecap="round" stroke-linejoin="round"/>
<path d="M127.87 0.0898438V77.9029" stroke="black" stroke-width="0.25" stroke-linecap="round" stroke-linejoin="round"/>
<path d="M127.87 77.9028H123.878" stroke="black" stroke-width="0.25" stroke-linecap="round" stroke-linejoin="round"/>
<path d="M123.878 77.9029V0.0898438" stroke="black" stroke-width="0.25" stroke-linecap="round" stroke-linejoin="round"/>
<path d="M123.888 8.94336V11.9344" stroke="black" stroke-width="0.25" stroke-linecap="round" stroke-linejoin="round"/>
<path d="M123.888 11.9346H4.12195" stroke="black" stroke-width="0.25" stroke-linecap="round" stroke-linejoin="round"/>
<path d="M4.12195 11.9344V8.94336" stroke="black" stroke-width="0.25" stroke-linecap="round" stroke-linejoin="round"/>
<path d="M4.12195 8.94336H123.888" stroke="black" stroke-width="0.25" stroke-linecap="round" stroke-linejoin="round"/>
<path d="M4.11194 11.9346H123.878" stroke="black" stroke-width="0.25" stroke-linecap="round" stroke-linejoin="round"/>
<path d="M123.878 11.9346V77.1552" stroke="black" stroke-width="0.25" stroke-linecap="round" stroke-linejoin="round"/>
<path d="M123.878 77.155H4.11194" stroke="black" stroke-width="0.25" stroke-linecap="round" stroke-linejoin="round"/>
<path d="M4.11194 77.1552V11.9346" stroke="black" stroke-width="0.25" stroke-linecap="round" stroke-linejoin="round"/>
<path d="M0.119995 77.155V77.9028" stroke="black" stroke-width="0.25" stroke-linecap="round" stroke-linejoin="round"/>
<path d="M0.119995 77.9028H127.87" stroke="black" stroke-width="0.25" stroke-linecap="round" stroke-linejoin="round"/>
<path d="M127.87 77.9028V77.155" stroke="black" stroke-width="0.25" stroke-linecap="round" stroke-linejoin="round"/>
<path d="M127.87 77.155H0.119995" stroke="black" stroke-width="0.25" stroke-linecap="round" stroke-linejoin="round"/>
<path d="M0 0.75H4M124 0H128" stroke="black" stroke-width="0.25"/>
</g>
<defs>
<clipPath id="clip0_897_361">
<rect width="128" height="78" fill="white"/>
</clipPath>
</defs>
</svg>
