<svg width="44" height="95" viewBox="0 0 44 95" fill="none" xmlns="http://www.w3.org/2000/svg">
<g clip-path="url(#clip0_1338_809)">
<rect width="44" height="95" fill="white"/>
<path d="M3.67346 14.0427H40.3266" stroke="black" stroke-width="0.25" stroke-linecap="round" stroke-linejoin="round"/>
<path d="M40.3266 14.0427V93.3855" stroke="black" stroke-width="0.25" stroke-linecap="round" stroke-linejoin="round"/>
<path d="M40.3266 93.3855H3.67346" stroke="black" stroke-width="0.25" stroke-linecap="round" stroke-linejoin="round"/>
<path d="M3.67346 93.3855V14.0427" stroke="black" stroke-width="0.25" stroke-linecap="round" stroke-linejoin="round"/>
<path d="M43.8685 14.0427H40.3266" stroke="black" stroke-width="0.25" stroke-linecap="round" stroke-linejoin="round"/>
<path d="M40.3266 14.0427V93.8838" stroke="black" stroke-width="0.25" stroke-linecap="round" stroke-linejoin="round"/>
<path d="M40.3266 93.8838H43.8685" stroke="black" stroke-width="0.25" stroke-linecap="round" stroke-linejoin="round"/>
<path d="M43.8685 93.8838V14.0427" stroke="black" stroke-width="0.25" stroke-linecap="round" stroke-linejoin="round"/>
<path d="M3.67333 14.0427H0.13147" stroke="black" stroke-width="0.25" stroke-linecap="round" stroke-linejoin="round"/>
<path d="M0.13147 14.0427V93.8838" stroke="black" stroke-width="0.25" stroke-linecap="round" stroke-linejoin="round"/>
<path d="M0.13147 93.8838H3.67333" stroke="black" stroke-width="0.25" stroke-linecap="round" stroke-linejoin="round"/>
<path d="M3.67346 93.8838V14.0427" stroke="black" stroke-width="0.25" stroke-linecap="round" stroke-linejoin="round"/>
<path d="M43.8684 13.066H0.13147" stroke="black" stroke-width="0.25" stroke-linecap="round" stroke-linejoin="round"/>
<path d="M0.13147 13.066V14.0428" stroke="black" stroke-width="0.25" stroke-linecap="round" stroke-linejoin="round"/>
<path d="M0.13147 14.0427H43.8684" stroke="black" stroke-width="0.25" stroke-linecap="round" stroke-linejoin="round"/>
<path d="M43.8685 14.0428V13.066" stroke="black" stroke-width="0.25" stroke-linecap="round" stroke-linejoin="round"/>
<path d="M40.3266 93.3855H3.67346" stroke="black" stroke-width="0.25" stroke-linecap="round" stroke-linejoin="round"/>
<path d="M3.67346 93.3855V93.8838" stroke="black" stroke-width="0.25" stroke-linecap="round" stroke-linejoin="round"/>
<path d="M3.67346 93.8838H40.3266" stroke="black" stroke-width="0.25" stroke-linecap="round" stroke-linejoin="round"/>
<path d="M40.3266 93.8838V93.3855" stroke="black" stroke-width="0.25" stroke-linecap="round" stroke-linejoin="round"/>
<path d="M43.8685 93.8838V94.8804" stroke="black" stroke-width="0.25" stroke-linecap="round" stroke-linejoin="round"/>
<path d="M43.8685 94.8804H0.12146" stroke="black" stroke-width="0.25" stroke-linecap="round" stroke-linejoin="round"/>
<path d="M0.12146 94.8804V93.8838" stroke="black" stroke-width="0.25" stroke-linecap="round" stroke-linejoin="round"/>
<path d="M0.12146 93.8838H43.8685" stroke="black" stroke-width="0.25" stroke-linecap="round" stroke-linejoin="round"/>
<path d="M43.8684 0.119629H0.13147" stroke="black" stroke-width="0.25" stroke-linecap="round" stroke-linejoin="round"/>
<path d="M0.13147 0.119629V11.5711" stroke="black" stroke-width="0.25" stroke-linecap="round" stroke-linejoin="round"/>
<path d="M0.13147 11.571H43.8684" stroke="black" stroke-width="0.25" stroke-linecap="round" stroke-linejoin="round"/>
<path d="M43.8685 11.5711V0.119629" stroke="black" stroke-width="0.25" stroke-linecap="round" stroke-linejoin="round"/>
<path d="M43.8684 11.571H0.13147" stroke="black" stroke-width="0.25" stroke-linecap="round" stroke-linejoin="round"/>
<path d="M0.13147 11.571V13.066" stroke="black" stroke-width="0.25" stroke-linecap="round" stroke-linejoin="round"/>
<path d="M0.13147 13.066H43.8684" stroke="black" stroke-width="0.25" stroke-linecap="round" stroke-linejoin="round"/>
<path d="M43.8685 13.066V11.571" stroke="black" stroke-width="0.25" stroke-linecap="round" stroke-linejoin="round"/>
<path d="M40.2457 14.2919H3.75439" stroke="black" stroke-width="0.25" stroke-linecap="round" stroke-linejoin="round"/>
<path d="M3.75439 14.2919V93.6346" stroke="black" stroke-width="0.25" stroke-linecap="round" stroke-linejoin="round"/>
<path d="M3.75439 93.6346H40.2457" stroke="black" stroke-width="0.25" stroke-linecap="round" stroke-linejoin="round"/>
<path d="M40.2457 93.6346V14.2919" stroke="black" stroke-width="0.25" stroke-linecap="round" stroke-linejoin="round"/>
<path d="M3.95679 83.3492H3.40021" stroke="black" stroke-width="0.25" stroke-linecap="round" stroke-linejoin="round"/>
<path d="M3.40021 83.3492V87.7345" stroke="black" stroke-width="0.25" stroke-linecap="round" stroke-linejoin="round"/>
<path d="M3.40021 87.7345H3.95679" stroke="black" stroke-width="0.25" stroke-linecap="round" stroke-linejoin="round"/>
<path d="M3.95679 87.7345V83.3492" stroke="black" stroke-width="0.25" stroke-linecap="round" stroke-linejoin="round"/>
<path d="M3.40021 84.306H3.95679" stroke="black" stroke-width="0.25" stroke-linecap="round" stroke-linejoin="round"/>
<path d="M3.95679 84.306V83.9971" stroke="black" stroke-width="0.25" stroke-linecap="round" stroke-linejoin="round"/>
<path d="M3.95679 83.9971H3.40021" stroke="black" stroke-width="0.25" stroke-linecap="round" stroke-linejoin="round"/>
<path d="M3.40021 83.9971V84.306" stroke="black" stroke-width="0.25" stroke-linecap="round" stroke-linejoin="round"/>
<path d="M3.40021 85.1532H3.95679" stroke="black" stroke-width="0.25" stroke-linecap="round" stroke-linejoin="round"/>
<path d="M3.95679 85.1532V85.9306" stroke="black" stroke-width="0.25" stroke-linecap="round" stroke-linejoin="round"/>
<path d="M3.95679 85.9305H3.40021" stroke="black" stroke-width="0.25" stroke-linecap="round" stroke-linejoin="round"/>
<path d="M3.40021 85.9306V85.1532" stroke="black" stroke-width="0.25" stroke-linecap="round" stroke-linejoin="round"/>
<path d="M3.40021 86.7777H3.95679" stroke="black" stroke-width="0.25" stroke-linecap="round" stroke-linejoin="round"/>
<path d="M3.95679 86.7777V87.0867" stroke="black" stroke-width="0.25" stroke-linecap="round" stroke-linejoin="round"/>
<path d="M3.95679 87.0867H3.40021" stroke="black" stroke-width="0.25" stroke-linecap="round" stroke-linejoin="round"/>
<path d="M3.40021 87.0867V86.7777" stroke="black" stroke-width="0.25" stroke-linecap="round" stroke-linejoin="round"/>
<path d="M3.95679 83.2097H3.40021" stroke="black" stroke-width="0.25" stroke-linecap="round" stroke-linejoin="round"/>
<path d="M3.40021 83.2097V83.3497" stroke="black" stroke-width="0.25" stroke-linecap="round" stroke-linejoin="round"/>
<path d="M3.40021 83.3492H3.95679" stroke="black" stroke-width="0.25" stroke-linecap="round" stroke-linejoin="round"/>
<path d="M3.95679 83.3497V83.2097" stroke="black" stroke-width="0.25" stroke-linecap="round" stroke-linejoin="round"/>
<path d="M3.95679 87.7345H3.40021" stroke="black" stroke-width="0.25" stroke-linecap="round" stroke-linejoin="round"/>
<path d="M3.40021 87.7345V87.8745" stroke="black" stroke-width="0.25" stroke-linecap="round" stroke-linejoin="round"/>
<path d="M3.40021 87.874H3.95679" stroke="black" stroke-width="0.25" stroke-linecap="round" stroke-linejoin="round"/>
<path d="M3.95679 87.8745V87.7345" stroke="black" stroke-width="0.25" stroke-linecap="round" stroke-linejoin="round"/>
<path d="M3.95679 51.7656H3.40021" stroke="black" stroke-width="0.25" stroke-linecap="round" stroke-linejoin="round"/>
<path d="M3.40021 51.7656V56.1608" stroke="black" stroke-width="0.25" stroke-linecap="round" stroke-linejoin="round"/>
<path d="M3.40021 56.1609H3.95679" stroke="black" stroke-width="0.25" stroke-linecap="round" stroke-linejoin="round"/>
<path d="M3.95679 56.1608V51.7656" stroke="black" stroke-width="0.25" stroke-linecap="round" stroke-linejoin="round"/>
<path d="M3.40021 52.7324H3.95679" stroke="black" stroke-width="0.25" stroke-linecap="round" stroke-linejoin="round"/>
<path d="M3.95679 52.7324V52.4235" stroke="black" stroke-width="0.25" stroke-linecap="round" stroke-linejoin="round"/>
<path d="M3.95679 52.4235H3.40021" stroke="black" stroke-width="0.25" stroke-linecap="round" stroke-linejoin="round"/>
<path d="M3.40021 52.4235V52.7324" stroke="black" stroke-width="0.25" stroke-linecap="round" stroke-linejoin="round"/>
<path d="M3.40021 53.5796H3.95679" stroke="black" stroke-width="0.25" stroke-linecap="round" stroke-linejoin="round"/>
<path d="M3.95679 53.5796V54.347" stroke="black" stroke-width="0.25" stroke-linecap="round" stroke-linejoin="round"/>
<path d="M3.95679 54.3469H3.40021" stroke="black" stroke-width="0.25" stroke-linecap="round" stroke-linejoin="round"/>
<path d="M3.40021 54.347V53.5796" stroke="black" stroke-width="0.25" stroke-linecap="round" stroke-linejoin="round"/>
<path d="M3.40021 55.1941H3.95679" stroke="black" stroke-width="0.25" stroke-linecap="round" stroke-linejoin="round"/>
<path d="M3.95679 55.1941V55.503" stroke="black" stroke-width="0.25" stroke-linecap="round" stroke-linejoin="round"/>
<path d="M3.95679 55.5031H3.40021" stroke="black" stroke-width="0.25" stroke-linecap="round" stroke-linejoin="round"/>
<path d="M3.40021 55.503V55.1941" stroke="black" stroke-width="0.25" stroke-linecap="round" stroke-linejoin="round"/>
<path d="M3.95679 51.6361H3.40021" stroke="black" stroke-width="0.25" stroke-linecap="round" stroke-linejoin="round"/>
<path d="M3.40021 51.6361V51.7661" stroke="black" stroke-width="0.25" stroke-linecap="round" stroke-linejoin="round"/>
<path d="M3.40021 51.7656H3.95679" stroke="black" stroke-width="0.25" stroke-linecap="round" stroke-linejoin="round"/>
<path d="M3.95679 51.7661V51.6361" stroke="black" stroke-width="0.25" stroke-linecap="round" stroke-linejoin="round"/>
<path d="M3.95679 56.1609H3.40021" stroke="black" stroke-width="0.25" stroke-linecap="round" stroke-linejoin="round"/>
<path d="M3.40021 56.1609V56.2909" stroke="black" stroke-width="0.25" stroke-linecap="round" stroke-linejoin="round"/>
<path d="M3.40021 56.2904H3.95679" stroke="black" stroke-width="0.25" stroke-linecap="round" stroke-linejoin="round"/>
<path d="M3.95679 56.2909V56.1609" stroke="black" stroke-width="0.25" stroke-linecap="round" stroke-linejoin="round"/>
<path d="M3.95679 20.3715H3.40021" stroke="black" stroke-width="0.25" stroke-linecap="round" stroke-linejoin="round"/>
<path d="M3.40021 20.3715V24.7667" stroke="black" stroke-width="0.25" stroke-linecap="round" stroke-linejoin="round"/>
<path d="M3.40021 24.7666H3.95679" stroke="black" stroke-width="0.25" stroke-linecap="round" stroke-linejoin="round"/>
<path d="M3.95679 24.7667V20.3715" stroke="black" stroke-width="0.25" stroke-linecap="round" stroke-linejoin="round"/>
<path d="M3.40021 21.3381H3.95679" stroke="black" stroke-width="0.25" stroke-linecap="round" stroke-linejoin="round"/>
<path d="M3.95679 21.3381V21.0292" stroke="black" stroke-width="0.25" stroke-linecap="round" stroke-linejoin="round"/>
<path d="M3.95679 21.0292H3.40021" stroke="black" stroke-width="0.25" stroke-linecap="round" stroke-linejoin="round"/>
<path d="M3.40021 21.0292V21.3381" stroke="black" stroke-width="0.25" stroke-linecap="round" stroke-linejoin="round"/>
<path d="M3.40021 22.1853H3.95679" stroke="black" stroke-width="0.25" stroke-linecap="round" stroke-linejoin="round"/>
<path d="M3.95679 22.1853V22.9627" stroke="black" stroke-width="0.25" stroke-linecap="round" stroke-linejoin="round"/>
<path d="M3.95679 22.9626H3.40021" stroke="black" stroke-width="0.25" stroke-linecap="round" stroke-linejoin="round"/>
<path d="M3.40021 22.9627V22.1853" stroke="black" stroke-width="0.25" stroke-linecap="round" stroke-linejoin="round"/>
<path d="M3.40021 23.8098H3.95679" stroke="black" stroke-width="0.25" stroke-linecap="round" stroke-linejoin="round"/>
<path d="M3.95679 23.8098V24.1188" stroke="black" stroke-width="0.25" stroke-linecap="round" stroke-linejoin="round"/>
<path d="M3.95679 24.1188H3.40021" stroke="black" stroke-width="0.25" stroke-linecap="round" stroke-linejoin="round"/>
<path d="M3.40021 24.1188V23.8098" stroke="black" stroke-width="0.25" stroke-linecap="round" stroke-linejoin="round"/>
<path d="M3.95679 20.2418H3.40021" stroke="black" stroke-width="0.25" stroke-linecap="round" stroke-linejoin="round"/>
<path d="M3.40021 20.2418V20.3718" stroke="black" stroke-width="0.25" stroke-linecap="round" stroke-linejoin="round"/>
<path d="M3.40021 20.3715H3.95679" stroke="black" stroke-width="0.25" stroke-linecap="round" stroke-linejoin="round"/>
<path d="M3.95679 20.3718V20.2418" stroke="black" stroke-width="0.25" stroke-linecap="round" stroke-linejoin="round"/>
<path d="M3.95679 24.7666H3.40021" stroke="black" stroke-width="0.25" stroke-linecap="round" stroke-linejoin="round"/>
<path d="M3.40021 24.7666V24.9066" stroke="black" stroke-width="0.25" stroke-linecap="round" stroke-linejoin="round"/>
<path d="M3.40021 24.9061H3.95679" stroke="black" stroke-width="0.25" stroke-linecap="round" stroke-linejoin="round"/>
<path d="M3.95679 24.9066V24.7666" stroke="black" stroke-width="0.25" stroke-linecap="round" stroke-linejoin="round"/>
<path d="M36.6035 54.5064C36.8885 55.3037 37.7842 55.7223 38.5986 55.4433C39.4129 55.1642 39.8405 54.2872 39.5554 53.4899C39.2704 52.6925 38.3746 52.274 37.5603 52.553C37.1124 52.7025 36.7663 53.0513 36.6035 53.4899" stroke="black" stroke-width="0.25" stroke-linecap="round" stroke-linejoin="round"/>
<path d="M38.0693 54.5064C38.3543 54.5064 38.5884 54.2772 38.5884 53.9982C38.5884 53.7191 38.3543 53.4899 38.0693 53.4899" stroke="black" stroke-width="0.25" stroke-linecap="round" stroke-linejoin="round"/>
<path d="M38.0692 54.5063H33.0203" stroke="black" stroke-width="0.25" stroke-linecap="round" stroke-linejoin="round"/>
<path d="M33.02 54.5065C33.02 54.5065 33 54.5065 33 54.4865" stroke="black" stroke-width="0.25" stroke-linecap="round" stroke-linejoin="round"/>
<path d="M33 54.4865V53.5198" stroke="black" stroke-width="0.25" stroke-linecap="round" stroke-linejoin="round"/>
<path d="M33 53.5199C33 53.5199 33 53.4799 33.02 53.4799" stroke="black" stroke-width="0.25" stroke-linecap="round" stroke-linejoin="round"/>
<path d="M33.0203 53.4799H38.0692" stroke="black" stroke-width="0.25" stroke-linecap="round" stroke-linejoin="round"/>
<path d="M33.794 54.5064V53.4799" stroke="black" stroke-width="0.25" stroke-linecap="round" stroke-linejoin="round"/>
<path d="M38.0693 54.3868C38.2885 54.3868 38.4663 54.2127 38.4663 53.9981C38.4663 53.7834 38.2885 53.6094 38.0693 53.6094C37.85 53.6094 37.6723 53.7834 37.6723 53.9981C37.6723 54.2127 37.85 54.3868 38.0693 54.3868Z" stroke="black" stroke-width="0.25" stroke-linecap="round" stroke-linejoin="round"/>
<path d="M38.0387 53.6792C37.8657 53.6991 37.7334 53.8486 37.7537 54.0181C37.7741 54.1875 37.9268 54.317 38.0998 54.2971C38.2729 54.2772 38.4052 54.1277 38.3848 53.9583C38.3747 53.8088 38.2525 53.6892 38.0998 53.6792" stroke="black" stroke-width="0.25" stroke-linecap="round" stroke-linejoin="round"/>
<path d="M38.0998 54.3071C38.2729 54.2871 38.4052 54.1377 38.3848 53.9682C38.3645 53.7988 38.2118 53.6692 38.0387 53.6892C37.8657 53.7091 37.7334 53.8586 37.7537 54.028C37.7639 54.1775 37.8861 54.2971 38.0387 54.3071" stroke="black" stroke-width="0.25" stroke-linecap="round" stroke-linejoin="round"/>
<ellipse cx="38.0387" cy="53.5999" rx="0.127241" ry="0.125" fill="black"/>
<path d="M38.0388 53.6792V54.3071" stroke="black" stroke-width="0.25" stroke-linecap="round" stroke-linejoin="round"/>
<ellipse cx="38.0387" cy="54.3872" rx="0.127241" ry="0.125" fill="black"/>
<ellipse cx="38.0998" cy="53.5999" rx="0.127241" ry="0.125" fill="black"/>
<path d="M38.0998 53.6792V54.3071" stroke="black" stroke-width="0.25" stroke-linecap="round" stroke-linejoin="round"/>
<ellipse cx="38.0998" cy="54.3872" rx="0.127241" ry="0.125" fill="black"/>
<path d="M36.634 49.7823H37.5399" stroke="black" stroke-width="0.25" stroke-linecap="round" stroke-linejoin="round"/>
<path d="M38.946 49.8022V50.2607" stroke="black" stroke-width="0.25" stroke-linecap="round" stroke-linejoin="round"/>
<path d="M38.946 50.2607H43.7302" stroke="black" stroke-width="0.25" stroke-linecap="round" stroke-linejoin="round"/>
<path d="M43.7303 50.2607V43.3141" stroke="black" stroke-width="0.25" stroke-linecap="round" stroke-linejoin="round"/>
<path d="M43.7302 43.3141H38.946" stroke="black" stroke-width="0.25" stroke-linecap="round" stroke-linejoin="round"/>
<path d="M38.946 43.3141V48.2275" stroke="black" stroke-width="0.25" stroke-linecap="round" stroke-linejoin="round"/>
<path d="M35.7688 49.7823C35.5753 49.7823 35.4227 49.6328 35.4125 49.4435" stroke="black" stroke-width="0.25" stroke-linecap="round" stroke-linejoin="round"/>
<path d="M35.4125 49.4434V44.0117" stroke="black" stroke-width="0.25" stroke-linecap="round" stroke-linejoin="round"/>
<path d="M35.4125 44.0117C35.4125 43.8223 35.5652 43.6729 35.7586 43.6729" stroke="black" stroke-width="0.25" stroke-linecap="round" stroke-linejoin="round"/>
<path d="M35.8039 43.6729L42.8039 43.6729" stroke="black" stroke-width="0.25" stroke-linecap="round" stroke-linejoin="round"/>
<path d="M42.8039 43.6729C42.9973 43.6729 43.15 43.8223 43.15 44.0117" stroke="black" stroke-width="0.25" stroke-linecap="round" stroke-linejoin="round"/>
<path d="M43.15 44.0117V46.5731" stroke="black" stroke-width="0.25" stroke-linecap="round" stroke-linejoin="round"/>
<path d="M43.1498 46.5731L43.1398 49.4235" stroke="black" stroke-width="0.25" stroke-linecap="round" stroke-linejoin="round"/>
<path d="M43.1398 49.4236C43.1398 49.6229 42.9668 49.7824 42.753 49.7824" stroke="black" stroke-width="0.25" stroke-linecap="round" stroke-linejoin="round"/>
<path d="M42.7632 49.7923L35.5869 49.7823" stroke="black" stroke-width="0.25" stroke-linecap="round" stroke-linejoin="round"/>
<path d="M37.5399 49.7823H35.728" stroke="black" stroke-width="0.25" stroke-linecap="round" stroke-linejoin="round"/>
<path d="M35.728 49.7823H37.5399" stroke="black" stroke-width="0.25" stroke-linecap="round" stroke-linejoin="round"/>
<path d="M35.5869 49.7827C35.7497 49.8127 35.9228 49.7727 36.0449 49.6727" stroke="black" stroke-width="0.25" stroke-linecap="round" stroke-linejoin="round"/>
<path d="M36.0449 49.6727C36.5946 49.2441 37.1341 48.7159 37.3886 48.1478" stroke="black" stroke-width="0.25" stroke-linecap="round" stroke-linejoin="round"/>
<path d="M37.3886 48.1479C37.5413 47.8887 37.8365 47.7193 38.1521 47.7094" stroke="black" stroke-width="0.25" stroke-linecap="round" stroke-linejoin="round"/>
<path d="M38.152 47.7094C38.4778 47.7094 38.773 47.8588 38.9358 48.108" stroke="black" stroke-width="0.25" stroke-linecap="round" stroke-linejoin="round"/>
<path d="M38.9359 48.1079C39.1293 48.4069 39.4855 48.6461 39.9232 48.7856" stroke="black" stroke-width="0.25" stroke-linecap="round" stroke-linejoin="round"/>
<path d="M39.9232 48.7857C40.6764 48.9451 41.45 48.5863 41.8063 47.9186" stroke="black" stroke-width="0.25" stroke-linecap="round" stroke-linejoin="round"/>
<path d="M41.8165 47.9186C41.8878 47.2608 42.4782 46.7127 43.15 46.5731" stroke="black" stroke-width="0.25" stroke-linecap="round" stroke-linejoin="round"/>
<path d="M43.15 46.5731V44.0117" stroke="black" stroke-width="0.25" stroke-linecap="round" stroke-linejoin="round"/>
<path d="M43.15 44.0117C43.15 43.8223 42.9973 43.6729 42.8039 43.6729" stroke="black" stroke-width="0.25" stroke-linecap="round" stroke-linejoin="round"/>
<path d="M42.8039 43.6729L35.8039 43.6729" stroke="black" stroke-width="0.25" stroke-linecap="round" stroke-linejoin="round"/>
<path d="M35.7586 43.6729C35.5652 43.6729 35.4125 43.8223 35.4125 44.0117" stroke="black" stroke-width="0.25" stroke-linecap="round" stroke-linejoin="round"/>
<path d="M35.4125 44.0117V49.4434" stroke="black" stroke-width="0.25" stroke-linecap="round" stroke-linejoin="round"/>
<path d="M35.4125 49.4435C35.4125 49.6328 35.5753 49.7823 35.7688 49.7823" stroke="black" stroke-width="0.25" stroke-linecap="round" stroke-linejoin="round"/>
<path d="M36.6035 53.4799V54.5064" stroke="black" stroke-width="0.25" stroke-linecap="round" stroke-linejoin="round"/>
<path d="M38.0693 53.4799V54.5064" stroke="black" stroke-width="0.25" stroke-linecap="round" stroke-linejoin="round"/>
<path d="M38.0693 53.4799V54.5064" stroke="black" stroke-width="0.25" stroke-linecap="round" stroke-linejoin="round"/>
<path d="M33.794 53.4799V54.5064" stroke="black" stroke-width="0.25" stroke-linecap="round" stroke-linejoin="round"/>
<path d="M38.1001 53.6792H38.0388" stroke="black" stroke-width="0.25" stroke-linecap="round" stroke-linejoin="round"/>
<path d="M38.0388 54.3071H38.1001" stroke="black" stroke-width="0.25" stroke-linecap="round" stroke-linejoin="round"/>
<ellipse cx="38.0387" cy="53.5999" rx="0.127241" ry="0.125" fill="black"/>
<path d="M38.0388 54.3071V53.6792" stroke="black" stroke-width="0.25" stroke-linecap="round" stroke-linejoin="round"/>
<ellipse cx="38.0387" cy="54.3872" rx="0.127241" ry="0.125" fill="black"/>
<ellipse cx="38.0998" cy="53.5999" rx="0.127241" ry="0.125" fill="black"/>
<path d="M38.0998 54.3071V53.6792" stroke="black" stroke-width="0.25" stroke-linecap="round" stroke-linejoin="round"/>
<ellipse cx="38.0998" cy="54.3872" rx="0.127241" ry="0.125" fill="black"/>
<path d="M37.5399 49.7823H36.634" stroke="black" stroke-width="0.25" stroke-linecap="round" stroke-linejoin="round"/>
<path d="M38.946 48.2275V49.8022" stroke="black" stroke-width="0.25" stroke-linecap="round" stroke-linejoin="round"/>
<path d="M35.728 49.7823H35.768" stroke="black" stroke-width="0.25" stroke-linecap="round" stroke-linejoin="round"/>
<path d="M35.768 49.7823H35.728" stroke="black" stroke-width="0.25" stroke-linecap="round" stroke-linejoin="round"/>
</g>
<defs>
<clipPath id="clip0_1338_809">
<rect width="44" height="95" fill="white"/>
</clipPath>
</defs>
</svg>
