<svg width="124" height="121" viewBox="0 0 124 121" fill="none" xmlns="http://www.w3.org/2000/svg">
<g clip-path="url(#clip0_1365_271)">
<path d="M123.12 0.120117H0.119995V120.12H123.12V0.120117Z" fill="white"/>
<path d="M83.12 94.6201V73.6201" stroke="#010101" stroke-width="0.25" stroke-miterlimit="10"/>
<path d="M83.12 73.6201H120.12" stroke="#010101" stroke-width="0.25" stroke-miterlimit="10"/>
<path d="M120.12 73.6201V94.6201" stroke="#010101" stroke-width="0.25" stroke-miterlimit="10"/>
<path d="M120.12 94.6201H83.12" stroke="#010101" stroke-width="0.25" stroke-miterlimit="10"/>
<path d="M80.13 73.6201V94.6201" stroke="#010101" stroke-width="0.25" stroke-miterlimit="10"/>
<path d="M3.13 73.6201H40.13" stroke="#010101" stroke-width="0.25" stroke-miterlimit="10"/>
<path d="M0.119995 72.34V72.29" stroke="#010101" stroke-width="0.25" stroke-miterlimit="10"/>
<path d="M83.12 97.6301H120.12" stroke="#010101" stroke-width="0.25" stroke-miterlimit="10"/>
<path d="M120.12 97.6301V118.63" stroke="#010101" stroke-width="0.25" stroke-miterlimit="10"/>
<path d="M120.12 118.62H83.12" stroke="#010101" stroke-width="0.25" stroke-miterlimit="10"/>
<path d="M80.13 97.6301V118.63" stroke="#010101" stroke-width="0.25" stroke-miterlimit="10"/>
<path d="M3.13 97.6301H40.13" stroke="#010101" stroke-width="0.25" stroke-miterlimit="10"/>
<path d="M40.12 97.6301V118.63" stroke="#010101" stroke-width="0.25" stroke-miterlimit="10"/>
<path d="M0.119995 96.34V96.29" stroke="#010101" stroke-width="0.25" stroke-miterlimit="10"/>
<path d="M83.12 46.6201V25.6201" stroke="#010101" stroke-width="0.25" stroke-miterlimit="10"/>
<path d="M120.12 46.6201H83.12" stroke="#010101" stroke-width="0.25" stroke-miterlimit="10"/>
<path d="M43.13 25.6201H80.13" stroke="#010101" stroke-width="0.25" stroke-miterlimit="10"/>
<path d="M80.13 25.6201V46.6201" stroke="#010101" stroke-width="0.25" stroke-miterlimit="10"/>
<path d="M3.13 46.6201V25.6201" stroke="#010101" stroke-width="0.25" stroke-miterlimit="10"/>
<path d="M123.12 48.29H0.119995" stroke="#010101" stroke-width="0.25" stroke-miterlimit="10"/>
<path d="M0.119995 24.3401H123.12" stroke="#010101" stroke-width="0.25" stroke-miterlimit="10"/>
<path d="M123.12 0.120117H0.119995" stroke="#010101" stroke-width="0.25" stroke-miterlimit="10"/>
<path d="M83.12 22.6201V1.62012" stroke="#010101" stroke-width="0.25" stroke-miterlimit="10"/>
<path d="M83.12 1.62012H120.12" stroke="#010101" stroke-width="0.25" stroke-miterlimit="10"/>
<path d="M43.13 22.6201V1.62012" stroke="#010101" stroke-width="0.25" stroke-miterlimit="10"/>
<path d="M3.13 1.62012H40.13" stroke="#010101" stroke-width="0.25" stroke-miterlimit="10"/>
<path d="M40.12 1.62012V22.6201" stroke="#010101" stroke-width="0.25" stroke-miterlimit="10"/>
<path d="M40.12 22.6201H3.13" stroke="#010101" stroke-width="0.25" stroke-miterlimit="10"/>
<path d="M123.12 24.29H0.119995" stroke="#010101" stroke-width="0.25" stroke-miterlimit="10"/>
<path d="M120.12 1.62012V22.6201" stroke="#010101" stroke-width="0.25" stroke-miterlimit="10"/>
<path d="M3.13 22.6201V1.62012" stroke="#010101" stroke-width="0.25" stroke-miterlimit="10"/>
<path d="M83.12 70.6301V49.6301" stroke="#010101" stroke-width="0.25" stroke-miterlimit="10"/>
<path d="M83.12 49.6201H120.12" stroke="#010101" stroke-width="0.25" stroke-miterlimit="10"/>
<path d="M120.12 49.6201V70.6201" stroke="#010101" stroke-width="0.25" stroke-miterlimit="10"/>
<path d="M120.12 70.6301H83.12" stroke="#010101" stroke-width="0.25" stroke-miterlimit="10"/>
<path d="M43.13 70.6301V49.6301" stroke="#010101" stroke-width="0.25" stroke-miterlimit="10"/>
<path d="M43.13 49.6201H80.13" stroke="#010101" stroke-width="0.25" stroke-miterlimit="10"/>
<path d="M80.13 49.6201V70.6201" stroke="#010101" stroke-width="0.25" stroke-miterlimit="10"/>
<path d="M80.13 70.6301H43.13" stroke="#010101" stroke-width="0.25" stroke-miterlimit="10"/>
<path d="M3.13 70.6301V49.6301" stroke="#010101" stroke-width="0.25" stroke-miterlimit="10"/>
<path d="M3.13 49.6201H40.13" stroke="#010101" stroke-width="0.25" stroke-miterlimit="10"/>
<path d="M40.12 49.6201V70.6201" stroke="#010101" stroke-width="0.25" stroke-miterlimit="10"/>
<path d="M40.12 70.6301H3.13" stroke="#010101" stroke-width="0.25" stroke-miterlimit="10"/>
<path d="M123.12 72.29H0.119995" stroke="#010101" stroke-width="0.25" stroke-miterlimit="10"/>
<path d="M123.12 48.34V48.29" stroke="#010101" stroke-width="0.25" stroke-miterlimit="10"/>
<path d="M0.119995 48.34V48.3" stroke="#010101" stroke-width="0.25" stroke-miterlimit="10"/>
<path d="M0.119995 48.3401H123.12" stroke="#010101" stroke-width="0.25" stroke-miterlimit="10"/>
<path d="M123.12 96.29H0.119995" stroke="#010101" stroke-width="0.25" stroke-miterlimit="10"/>
<path d="M123.12 96.2901V72.3401" stroke="#010101" stroke-width="0.25" stroke-miterlimit="10"/>
<path d="M0.119995 72.3401V96.2901" stroke="#010101" stroke-width="0.25" stroke-miterlimit="10"/>
<path d="M123.12 120.12V96.3301" stroke="#010101" stroke-width="0.25" stroke-miterlimit="10"/>
<path d="M0.119995 96.3401V120.13" stroke="#010101" stroke-width="0.25" stroke-miterlimit="10"/>
<path d="M123.12 48.2901V24.3401" stroke="#010101" stroke-width="0.25" stroke-miterlimit="10"/>
<path d="M0.119995 24.3401V48.2901" stroke="#010101" stroke-width="0.25" stroke-miterlimit="10"/>
<path d="M0.119995 0.120117V24.2801" stroke="#010101" stroke-width="0.25" stroke-miterlimit="10"/>
<path d="M123.12 24.2901V0.120117" stroke="#010101" stroke-width="0.25" stroke-miterlimit="10"/>
<path d="M123.12 72.2901V48.3401" stroke="#010101" stroke-width="0.25" stroke-miterlimit="10"/>
<path d="M0.119995 48.3401V72.2901" stroke="#010101" stroke-width="0.25" stroke-miterlimit="10"/>
<path d="M43.13 94.6201V73.6201" stroke="#010101" stroke-width="0.25" stroke-miterlimit="10"/>
<path d="M43.13 73.6201H80.13" stroke="#010101" stroke-width="0.25" stroke-miterlimit="10"/>
<path d="M80.13 94.6201H43.13" stroke="#010101" stroke-width="0.25" stroke-miterlimit="10"/>
<path d="M3.13 94.6201V73.6201" stroke="#010101" stroke-width="0.25" stroke-miterlimit="10"/>
<path d="M40.12 73.6201V94.6201" stroke="#010101" stroke-width="0.25" stroke-miterlimit="10"/>
<path d="M40.12 94.6201H3.13" stroke="#010101" stroke-width="0.25" stroke-miterlimit="10"/>
<path d="M123.12 72.34V72.29" stroke="#010101" stroke-width="0.25" stroke-miterlimit="10"/>
<path d="M0.119995 72.3401H123.12" stroke="#010101" stroke-width="0.25" stroke-miterlimit="10"/>
<path d="M0.119995 120.12H123.12" stroke="#010101" stroke-width="0.25" stroke-miterlimit="10"/>
<path d="M83.12 118.62V97.6201" stroke="#010101" stroke-width="0.25" stroke-miterlimit="10"/>
<path d="M43.13 118.62V97.6201" stroke="#010101" stroke-width="0.25" stroke-miterlimit="10"/>
<path d="M43.13 97.6301H80.13" stroke="#010101" stroke-width="0.25" stroke-miterlimit="10"/>
<path d="M80.13 118.62H43.13" stroke="#010101" stroke-width="0.25" stroke-miterlimit="10"/>
<path d="M3.13 118.62V97.6201" stroke="#010101" stroke-width="0.25" stroke-miterlimit="10"/>
<path d="M40.12 118.62H3.13" stroke="#010101" stroke-width="0.25" stroke-miterlimit="10"/>
<path d="M123.12 96.34V96.29" stroke="#010101" stroke-width="0.25" stroke-miterlimit="10"/>
<path d="M0.119995 96.3401H123.12" stroke="#010101" stroke-width="0.25" stroke-miterlimit="10"/>
<path d="M83.12 25.6201H120.12" stroke="#010101" stroke-width="0.25" stroke-miterlimit="10"/>
<path d="M120.12 25.6201V46.6201" stroke="#010101" stroke-width="0.25" stroke-miterlimit="10"/>
<path d="M43.13 46.6201V25.6201" stroke="#010101" stroke-width="0.25" stroke-miterlimit="10"/>
<path d="M80.13 46.6201H43.13" stroke="#010101" stroke-width="0.25" stroke-miterlimit="10"/>
<path d="M3.13 25.6201H40.13" stroke="#010101" stroke-width="0.25" stroke-miterlimit="10"/>
<path d="M40.12 25.6201V46.6201" stroke="#010101" stroke-width="0.25" stroke-miterlimit="10"/>
<path d="M40.12 46.6201H3.13" stroke="#010101" stroke-width="0.25" stroke-miterlimit="10"/>
<path d="M123.12 24.34V24.29" stroke="#010101" stroke-width="0.25" stroke-miterlimit="10"/>
<path d="M0.119995 24.34V24.29" stroke="#010101" stroke-width="0.25" stroke-miterlimit="10"/>
<path d="M120.12 22.6201H83.12" stroke="#010101" stroke-width="0.25" stroke-miterlimit="10"/>
<path d="M43.13 1.62012H80.13" stroke="#010101" stroke-width="0.25" stroke-miterlimit="10"/>
<path d="M80.13 1.62012V22.6201" stroke="#010101" stroke-width="0.25" stroke-miterlimit="10"/>
<path d="M80.13 22.6201H43.13" stroke="#010101" stroke-width="0.25" stroke-miterlimit="10"/>
<path d="M0.119995 72.3401H123.12" stroke="#010101" stroke-width="0.25" stroke-miterlimit="10"/>
<path d="M0.119995 96.3401H123.12" stroke="#010101" stroke-width="0.25" stroke-miterlimit="10"/>
<path d="M123.12 48.29H0.119995" stroke="#010101" stroke-width="0.25" stroke-miterlimit="10"/>
<path d="M0.119995 24.3401H123.12" stroke="#010101" stroke-width="0.25" stroke-miterlimit="10"/>
<path d="M123.12 0.120117H0.119995" stroke="#010101" stroke-width="0.25" stroke-miterlimit="10"/>
<path d="M123.12 24.29H0.119995" stroke="#010101" stroke-width="0.25" stroke-miterlimit="10"/>
<path d="M123.12 72.29H0.119995" stroke="#010101" stroke-width="0.25" stroke-miterlimit="10"/>
<path d="M0.119995 48.3401H123.12" stroke="#010101" stroke-width="0.25" stroke-miterlimit="10"/>
<path d="M123.12 96.2901V72.3401" stroke="#010101" stroke-width="0.25" stroke-miterlimit="10"/>
<path d="M0.119995 96.3401V120.13" stroke="#010101" stroke-width="0.25" stroke-miterlimit="10"/>
<path d="M123.12 48.2901V24.3401" stroke="#010101" stroke-width="0.25" stroke-miterlimit="10"/>
<path d="M0.119995 0.120117V24.2801" stroke="#010101" stroke-width="0.25" stroke-miterlimit="10"/>
<path d="M123.12 24.2901V0.120117" stroke="#010101" stroke-width="0.25" stroke-miterlimit="10"/>
<path d="M123.12 72.2901V48.3401" stroke="#010101" stroke-width="0.25" stroke-miterlimit="10"/>
<path d="M0.119995 48.3401V72.2901" stroke="#010101" stroke-width="0.25" stroke-miterlimit="10"/>
<path d="M0.119995 24.3401V48.2901" stroke="#010101" stroke-width="0.25" stroke-miterlimit="10"/>
<path d="M123.12 96.29H0.119995" stroke="#010101" stroke-width="0.25" stroke-miterlimit="10"/>
<path d="M0.119995 120.12H123.12" stroke="#010101" stroke-width="0.25" stroke-miterlimit="10"/>
</g>
<defs>
<clipPath id="clip0_1365_271">
<rect width="123.25" height="120.25" fill="white"/>
</clipPath>
</defs>
</svg>
