<svg width="124" height="78" viewBox="0 0 124 78" fill="none" xmlns="http://www.w3.org/2000/svg">
<g clip-path="url(#clip0_1396_271)">
<path d="M123.12 0.120117H0.119995V76.9201H123.12V0.120117Z" fill="white"/>
<path d="M123.12 0.120117H0.119995" stroke="#010101" stroke-width="0.25" stroke-miterlimit="10"/>
<path d="M40.13 17.8401H3.13" stroke="#010101" stroke-width="0.25" stroke-miterlimit="10"/>
<path d="M43.13 1.62012H80.13" stroke="#010101" stroke-width="0.25" stroke-miterlimit="10"/>
<path d="M83.12 17.8401V1.62012" stroke="#010101" stroke-width="0.25" stroke-miterlimit="10"/>
<path d="M83.12 1.62012H120.12" stroke="#010101" stroke-width="0.25" stroke-miterlimit="10"/>
<path d="M3.13 75.4302V59.2302" stroke="#010101" stroke-width="0.25" stroke-miterlimit="10"/>
<path d="M3.13 59.2202H40.13" stroke="#010101" stroke-width="0.25" stroke-miterlimit="10"/>
<path d="M80.13 59.2202V75.4202" stroke="#010101" stroke-width="0.25" stroke-miterlimit="10"/>
<path d="M80.13 75.4302H43.13" stroke="#010101" stroke-width="0.25" stroke-miterlimit="10"/>
<path d="M83.12 75.4302V59.2302" stroke="#010101" stroke-width="0.25" stroke-miterlimit="10"/>
<path d="M120.13 75.4302H83.13" stroke="#010101" stroke-width="0.25" stroke-miterlimit="10"/>
<path d="M3.13 56.23V40.03" stroke="#010101" stroke-width="0.25" stroke-miterlimit="10"/>
<path d="M120.13 56.2302H83.13" stroke="#010101" stroke-width="0.25" stroke-miterlimit="10"/>
<path d="M3.13 20.8401H40.13" stroke="#010101" stroke-width="0.25" stroke-miterlimit="10"/>
<path d="M40.13 20.8401V37.0301" stroke="#010101" stroke-width="0.25" stroke-miterlimit="10"/>
<path d="M43.13 37.0201V20.8301" stroke="#010101" stroke-width="0.25" stroke-miterlimit="10"/>
<path d="M43.13 20.8401H80.13" stroke="#010101" stroke-width="0.25" stroke-miterlimit="10"/>
<path d="M80.13 37.02H43.13" stroke="#010101" stroke-width="0.25" stroke-miterlimit="10"/>
<path d="M83.12 20.8401H120.12" stroke="#010101" stroke-width="0.25" stroke-miterlimit="10"/>
<path d="M0.119995 76.9202H123.12" stroke="#010101" stroke-width="0.25" stroke-miterlimit="10"/>
<path d="M0.119995 57.9402V76.9302" stroke="#010101" stroke-width="0.25" stroke-miterlimit="10"/>
<path d="M0.119995 38.7402V57.8902" stroke="#010101" stroke-width="0.25" stroke-miterlimit="10"/>
<path d="M123.12 19.4901V0.120117" stroke="#010101" stroke-width="0.25" stroke-miterlimit="10"/>
<path d="M123.12 38.69V19.54" stroke="#010101" stroke-width="0.25" stroke-miterlimit="10"/>
<path d="M0.119995 19.54V38.69" stroke="#010101" stroke-width="0.25" stroke-miterlimit="10"/>
<path d="M3.13 1.62012H40.13" stroke="#010101" stroke-width="0.25" stroke-miterlimit="10"/>
<path d="M40.13 1.62012V17.8301" stroke="#010101" stroke-width="0.25" stroke-miterlimit="10"/>
<path d="M43.13 17.8401V1.62012" stroke="#010101" stroke-width="0.25" stroke-miterlimit="10"/>
<path d="M80.13 1.62012V17.8301" stroke="#010101" stroke-width="0.25" stroke-miterlimit="10"/>
<path d="M80.13 17.8401H43.13" stroke="#010101" stroke-width="0.25" stroke-miterlimit="10"/>
<path d="M120.13 17.8401H83.13" stroke="#010101" stroke-width="0.25" stroke-miterlimit="10"/>
<path d="M123.12 19.4902H0.119995" stroke="#010101" stroke-width="0.25" stroke-miterlimit="10"/>
<path d="M120.13 1.62012V17.8301" stroke="#010101" stroke-width="0.25" stroke-miterlimit="10"/>
<path d="M40.13 59.2202V75.4202" stroke="#010101" stroke-width="0.25" stroke-miterlimit="10"/>
<path d="M40.13 75.4302H3.13" stroke="#010101" stroke-width="0.25" stroke-miterlimit="10"/>
<path d="M43.13 75.4302V59.2302" stroke="#010101" stroke-width="0.25" stroke-miterlimit="10"/>
<path d="M43.13 59.2202H80.13" stroke="#010101" stroke-width="0.25" stroke-miterlimit="10"/>
<path d="M83.12 59.2202H120.12" stroke="#010101" stroke-width="0.25" stroke-miterlimit="10"/>
<path d="M120.13 59.2202V75.4202" stroke="#010101" stroke-width="0.25" stroke-miterlimit="10"/>
<path d="M0.119995 57.9402H123.12" stroke="#010101" stroke-width="0.25" stroke-miterlimit="10"/>
<path d="M3.13 40.03H40.13" stroke="#010101" stroke-width="0.25" stroke-miterlimit="10"/>
<path d="M40.13 40.03V56.23" stroke="#010101" stroke-width="0.25" stroke-miterlimit="10"/>
<path d="M40.13 56.2302H3.13" stroke="#010101" stroke-width="0.25" stroke-miterlimit="10"/>
<path d="M43.13 56.23V40.03" stroke="#010101" stroke-width="0.25" stroke-miterlimit="10"/>
<path d="M43.13 40.03H80.13" stroke="#010101" stroke-width="0.25" stroke-miterlimit="10"/>
<path d="M80.13 40.03V56.23" stroke="#010101" stroke-width="0.25" stroke-miterlimit="10"/>
<path d="M80.13 56.2302H43.13" stroke="#010101" stroke-width="0.25" stroke-miterlimit="10"/>
<path d="M83.12 56.23V40.03" stroke="#010101" stroke-width="0.25" stroke-miterlimit="10"/>
<path d="M83.12 40.03H120.12" stroke="#010101" stroke-width="0.25" stroke-miterlimit="10"/>
<path d="M120.13 40.03V56.23" stroke="#010101" stroke-width="0.25" stroke-miterlimit="10"/>
<path d="M123.12 57.8901H0.119995" stroke="#010101" stroke-width="0.25" stroke-miterlimit="10"/>
<path d="M3.13 37.0201V20.8301" stroke="#010101" stroke-width="0.25" stroke-miterlimit="10"/>
<path d="M40.13 37.02H3.13" stroke="#010101" stroke-width="0.25" stroke-miterlimit="10"/>
<path d="M80.13 20.8401V37.0301" stroke="#010101" stroke-width="0.25" stroke-miterlimit="10"/>
<path d="M83.12 37.0201V20.8301" stroke="#010101" stroke-width="0.25" stroke-miterlimit="10"/>
<path d="M120.13 20.8401V37.0301" stroke="#010101" stroke-width="0.25" stroke-miterlimit="10"/>
<path d="M120.13 37.02H83.13" stroke="#010101" stroke-width="0.25" stroke-miterlimit="10"/>
<path d="M0.119995 19.54H123.12" stroke="#010101" stroke-width="0.25" stroke-miterlimit="10"/>
<path d="M3.13 17.8401V1.62012" stroke="#010101" stroke-width="0.25" stroke-miterlimit="10"/>
<path d="M123.12 76.9202V57.9302" stroke="#010101" stroke-width="0.25" stroke-miterlimit="10"/>
<path d="M0.119995 38.7402H123.12" stroke="#010101" stroke-width="0.25" stroke-miterlimit="10"/>
<path d="M123.12 38.6902H0.119995" stroke="#010101" stroke-width="0.25" stroke-miterlimit="10"/>
<path d="M0.119995 0.120117V19.4901" stroke="#010101" stroke-width="0.25" stroke-miterlimit="10"/>
<path d="M123.12 57.8902V38.7402" stroke="#010101" stroke-width="0.25" stroke-miterlimit="10"/>
</g>
<defs>
<clipPath id="clip0_1396_271">
<rect width="123.25" height="77.05" fill="white"/>
</clipPath>
</defs>
</svg>
