<?xml version="1.0" encoding="UTF-8"?>
<svg xmlns="http://www.w3.org/2000/svg" width="72.25" height="79.25" viewBox="0 0 72.25 79.25">
  <defs>
    <style>
      .cls-1 {
        fill: #fff;
      }

      .cls-2 {
        fill: none;
        stroke: #010101;
        stroke-linecap: round;
        stroke-linejoin: round;
        stroke-width: .25px;
      }
    </style>
  </defs>
  <g id="Layer_2" data-name="Layer 2">
    <rect class="cls-1" x=".12" y=".12" width="72" height="79"/>
  </g>
  <g id="Layer_1" data-name="Layer 1">
    <g id="_2D" data-name="2D">
      <path class="cls-2" d="m70.83,1.42h1.29"/>
      <path class="cls-2" d="m2.68,38.56v5.3"/>
      <path class="cls-2" d="m3.54,3.85v34.14"/>
      <path class="cls-2" d="m3.54,44.53v31.1"/>
      <path class="cls-2" d="m2.45,37.83c.21-.03.43-.08.63-.05,0,0,.02,0,.04,0,.1.02.2.06.29.11l.09.06c.1.07.2.15.29.24.04.04.08.09.11.14.06.09.11.19.14.3.03.08.06.16.08.25.11.45.16.91.19,1.38.02.3.02.6.02.9,0,.36,0,.72-.02,1.08-.02.29-.05.58-.08.87-.03.24-.07.48-.15.71-.03.1-.08.19-.13.28-.06.11-.14.21-.23.3-.06.06-.12.1-.19.15-.14.08-.3.14-.46.16h-.13c-.2,0-.4-.05-.6-.12h0c-.13-.05-.27-.1-.36-.2-.02-.02-.03-.04-.04-.06-.06-.09-.08-.22-.07-.34,0-.05.02-.1.04-.15.03-.06.06-.12.11-.16.02-.02.05-.04.08-.06.07-.04.14-.06.21-.06.02,0,.04,0,.05,0,.08.02.15.08.22.15,0,0,.02.02.03.03.09.1.18.2.3.24h0c.11.04.26.03.36-.03,0,0,0,0,.02,0,.09-.07.13-.18.16-.3.02-.07.04-.15.05-.23.04-.24.06-.48.08-.72.02-.3.04-.6.06-.9,0-.2,0-.39,0-.59,0-.42-.05-.82-.08-1.24,0-.16-.02-.33-.03-.49,0-.24,0-.49-.09-.71-.02-.05-.05-.11-.08-.16-.06-.1-.15-.18-.25-.21h0c-.1-.03-.2,0-.29.05,0,0,0,0-.02,0-.1.06-.18.16-.28.24,0,0-.02.02-.03.02-.09.07-.21.1-.32.1-.02,0-.04,0-.05,0-.08,0-.15-.05-.21-.1-.03-.02-.05-.05-.07-.08-.04-.06-.06-.12-.07-.2-.02-.12,0-.26.07-.36.02-.03.03-.05.06-.07.05-.05.11-.1.18-.12,0,0,.02,0,.03,0,.08-.03.21-.03.34-.05Z"/>
      <path class="cls-2" d="m3.54,75.39h31.15"/>
      <path class="cls-2" d="m3.54,74.74h31.24"/>
      <path class="cls-2" d="m.12,1.42V.31"/>
      <path class="cls-2" d="m72.12,79.12V1.42"/>
      <path class="cls-2" d="m72.12.31v1.11"/>
      <path class="cls-2" d="m.12,79.12V1.42"/>
      <path class="cls-2" d="m72.12.31H.12"/>
      <path class="cls-2" d="m72.12.12H.12"/>
      <path class="cls-2" d="m3.54,3.26h31.24"/>
      <path class="cls-2" d="m1.11,79.12V1.42"/>
      <path class="cls-2" d="m34.74,1.42H1.11"/>
      <path class="cls-2" d="m70.83,1.42h-36.09"/>
      <path class="cls-2" d="m70.83,79.12V2.44"/>
      <path class="cls-2" d="m69.57,3.08h-33.15"/>
      <path class="cls-2" d="m37.4,75.39h31.15"/>
      <path class="cls-2" d="m37.4,75.17h31.15"/>
      <path class="cls-2" d="m37.4,3.08v72.55"/>
      <path class="cls-2" d="m36.56,3.08v72.55"/>
      <path class="cls-2" d="m1.11,75.62h69.73"/>
      <path class="cls-2" d="m1.11,75.9h69.72"/>
      <path class="cls-2" d="m68.57,75.62V3.08"/>
      <path class="cls-2" d="m69.47,75.62V3.08"/>
      <path class="cls-2" d="m72.12,79.12H.12"/>
      <path class="cls-2" d="m3.54,3.85h31.24"/>
      <path class="cls-2" d="m34.81,3.08H2.65"/>
      <path class="cls-2" d="m2.55,3.08h-1.13"/>
      <path class="cls-2" d="m2.68,44.65v30.97"/>
      <path class="cls-2" d="m70.83,2.44H1.11"/>
      <path class="cls-2" d="m2.65,37.81V3.06"/>
      <path class="cls-2" d="m1.41,75.62V2.44"/>
      <path class="cls-2" d="m36.42,3.08h-1.63"/>
      <path class="cls-2" d="m70.83,1.42v1.03"/>
      <path class="cls-2" d="m37.4,74.54h31.15"/>
      <path class="cls-2" d="m37.4,4.07h31.15"/>
      <path class="cls-2" d="m37.4,3.36h31.15"/>
      <path class="cls-2" d="m70.83,3.08h-1.27"/>
      <path class="cls-2" d="m3.54,4.07h31.24"/>
      <path class="cls-2" d="m34.78,75.9V3.07"/>
      <path class="cls-2" d="m1.11,1.42H.12"/>
    </g>
  </g>
</svg>