<svg width="46" height="95" viewBox="0 0 46 95" fill="none" xmlns="http://www.w3.org/2000/svg">
<g clip-path="url(#clip0_702_2518)">
<rect x="43" y="43" width="3" height="7" fill="white"/>
<rect width="44" height="95" fill="white"/>
<path d="M3.69507 14.0427H40.5643" stroke="black" stroke-width="0.25" stroke-linecap="round" stroke-linejoin="round"/>
<path d="M40.5643 14.0427V93.3855" stroke="black" stroke-width="0.25" stroke-linecap="round" stroke-linejoin="round"/>
<path d="M40.5643 93.3855H3.69507" stroke="black" stroke-width="0.25" stroke-linecap="round" stroke-linejoin="round"/>
<path d="M3.69507 93.3855V14.0427" stroke="black" stroke-width="0.25" stroke-linecap="round" stroke-linejoin="round"/>
<path d="M44.127 14.0427H40.5643" stroke="black" stroke-width="0.25" stroke-linecap="round" stroke-linejoin="round"/>
<path d="M40.5643 14.0427V93.8838" stroke="black" stroke-width="0.25" stroke-linecap="round" stroke-linejoin="round"/>
<path d="M40.5643 93.8838H44.127" stroke="black" stroke-width="0.25" stroke-linecap="round" stroke-linejoin="round"/>
<path d="M44.127 93.8838V14.0427" stroke="black" stroke-width="0.25" stroke-linecap="round" stroke-linejoin="round"/>
<path d="M3.69488 14.0427H0.132141" stroke="black" stroke-width="0.25" stroke-linecap="round" stroke-linejoin="round"/>
<path d="M0.132141 14.0427V93.8838" stroke="black" stroke-width="0.25" stroke-linecap="round" stroke-linejoin="round"/>
<path d="M0.132141 93.8838H3.69488" stroke="black" stroke-width="0.25" stroke-linecap="round" stroke-linejoin="round"/>
<path d="M3.69507 93.8838V14.0427" stroke="black" stroke-width="0.25" stroke-linecap="round" stroke-linejoin="round"/>
<path d="M44.1268 13.066H0.132141" stroke="black" stroke-width="0.25" stroke-linecap="round" stroke-linejoin="round"/>
<path d="M0.132141 13.066V14.0428" stroke="black" stroke-width="0.25" stroke-linecap="round" stroke-linejoin="round"/>
<path d="M0.132141 14.0427H44.1268" stroke="black" stroke-width="0.25" stroke-linecap="round" stroke-linejoin="round"/>
<path d="M44.127 14.0428V13.066" stroke="black" stroke-width="0.25" stroke-linecap="round" stroke-linejoin="round"/>
<path d="M40.5643 93.3855H3.69507" stroke="black" stroke-width="0.25" stroke-linecap="round" stroke-linejoin="round"/>
<path d="M3.69507 93.3855V93.8838" stroke="black" stroke-width="0.25" stroke-linecap="round" stroke-linejoin="round"/>
<path d="M3.69507 93.8838H40.5643" stroke="black" stroke-width="0.25" stroke-linecap="round" stroke-linejoin="round"/>
<path d="M40.5643 93.8838V93.3855" stroke="black" stroke-width="0.25" stroke-linecap="round" stroke-linejoin="round"/>
<path d="M44.127 93.8838V94.8804" stroke="black" stroke-width="0.25" stroke-linecap="round" stroke-linejoin="round"/>
<path d="M44.127 94.8804H0.122147" stroke="black" stroke-width="0.25" stroke-linecap="round" stroke-linejoin="round"/>
<path d="M0.122147 94.8804V93.8838" stroke="black" stroke-width="0.25" stroke-linecap="round" stroke-linejoin="round"/>
<path d="M0.122147 93.8838H44.127" stroke="black" stroke-width="0.25" stroke-linecap="round" stroke-linejoin="round"/>
<path d="M44.1268 0.119629H0.132141" stroke="black" stroke-width="0.25" stroke-linecap="round" stroke-linejoin="round"/>
<path d="M0.132141 0.119629V11.5711" stroke="black" stroke-width="0.25" stroke-linecap="round" stroke-linejoin="round"/>
<path d="M0.132141 11.571H44.1268" stroke="black" stroke-width="0.25" stroke-linecap="round" stroke-linejoin="round"/>
<path d="M44.127 11.5711V0.119629" stroke="black" stroke-width="0.25" stroke-linecap="round" stroke-linejoin="round"/>
<path d="M44.1268 11.571H0.132141" stroke="black" stroke-width="0.25" stroke-linecap="round" stroke-linejoin="round"/>
<path d="M0.132141 11.571V13.066" stroke="black" stroke-width="0.25" stroke-linecap="round" stroke-linejoin="round"/>
<path d="M0.132141 13.066H44.1268" stroke="black" stroke-width="0.25" stroke-linecap="round" stroke-linejoin="round"/>
<path d="M44.127 13.066V11.571" stroke="black" stroke-width="0.25" stroke-linecap="round" stroke-linejoin="round"/>
<path d="M40.4828 14.2919H3.77649" stroke="black" stroke-width="0.25" stroke-linecap="round" stroke-linejoin="round"/>
<path d="M3.77649 14.2919V93.6346" stroke="black" stroke-width="0.25" stroke-linecap="round" stroke-linejoin="round"/>
<path d="M3.77649 93.6346H40.4828" stroke="black" stroke-width="0.25" stroke-linecap="round" stroke-linejoin="round"/>
<path d="M40.4828 93.6346V14.2919" stroke="black" stroke-width="0.25" stroke-linecap="round" stroke-linejoin="round"/>
<path d="M3.98009 83.3492H3.42023" stroke="black" stroke-width="0.25" stroke-linecap="round" stroke-linejoin="round"/>
<path d="M3.42023 83.3492V87.7345" stroke="black" stroke-width="0.25" stroke-linecap="round" stroke-linejoin="round"/>
<path d="M3.42023 87.7345H3.98009" stroke="black" stroke-width="0.25" stroke-linecap="round" stroke-linejoin="round"/>
<path d="M3.98009 87.7345V83.3492" stroke="black" stroke-width="0.25" stroke-linecap="round" stroke-linejoin="round"/>
<path d="M3.42023 84.306H3.98009" stroke="black" stroke-width="0.25" stroke-linecap="round" stroke-linejoin="round"/>
<path d="M3.98009 84.306V83.9971" stroke="black" stroke-width="0.25" stroke-linecap="round" stroke-linejoin="round"/>
<path d="M3.98009 83.9971H3.42023" stroke="black" stroke-width="0.25" stroke-linecap="round" stroke-linejoin="round"/>
<path d="M3.42023 83.9971V84.306" stroke="black" stroke-width="0.25" stroke-linecap="round" stroke-linejoin="round"/>
<path d="M3.42023 85.1532H3.98009" stroke="black" stroke-width="0.25" stroke-linecap="round" stroke-linejoin="round"/>
<path d="M3.98009 85.1532V85.9306" stroke="black" stroke-width="0.25" stroke-linecap="round" stroke-linejoin="round"/>
<path d="M3.98009 85.9305H3.42023" stroke="black" stroke-width="0.25" stroke-linecap="round" stroke-linejoin="round"/>
<path d="M3.42023 85.9306V85.1532" stroke="black" stroke-width="0.25" stroke-linecap="round" stroke-linejoin="round"/>
<path d="M3.42023 86.7777H3.98009" stroke="black" stroke-width="0.25" stroke-linecap="round" stroke-linejoin="round"/>
<path d="M3.98009 86.7777V87.0867" stroke="black" stroke-width="0.25" stroke-linecap="round" stroke-linejoin="round"/>
<path d="M3.98009 87.0867H3.42023" stroke="black" stroke-width="0.25" stroke-linecap="round" stroke-linejoin="round"/>
<path d="M3.42023 87.0867V86.7777" stroke="black" stroke-width="0.25" stroke-linecap="round" stroke-linejoin="round"/>
<path d="M3.98009 83.2097H3.42023" stroke="black" stroke-width="0.25" stroke-linecap="round" stroke-linejoin="round"/>
<path d="M3.42023 83.2097V83.3497" stroke="black" stroke-width="0.25" stroke-linecap="round" stroke-linejoin="round"/>
<path d="M3.42023 83.3492H3.98009" stroke="black" stroke-width="0.25" stroke-linecap="round" stroke-linejoin="round"/>
<path d="M3.98009 83.3497V83.2097" stroke="black" stroke-width="0.25" stroke-linecap="round" stroke-linejoin="round"/>
<path d="M3.98009 87.7345H3.42023" stroke="black" stroke-width="0.25" stroke-linecap="round" stroke-linejoin="round"/>
<path d="M3.42023 87.7345V87.8745" stroke="black" stroke-width="0.25" stroke-linecap="round" stroke-linejoin="round"/>
<path d="M3.42023 87.874H3.98009" stroke="black" stroke-width="0.25" stroke-linecap="round" stroke-linejoin="round"/>
<path d="M3.98009 87.8745V87.7345" stroke="black" stroke-width="0.25" stroke-linecap="round" stroke-linejoin="round"/>
<path d="M3.98009 51.7656H3.42023" stroke="black" stroke-width="0.25" stroke-linecap="round" stroke-linejoin="round"/>
<path d="M3.42023 51.7656V56.1608" stroke="black" stroke-width="0.25" stroke-linecap="round" stroke-linejoin="round"/>
<path d="M3.42023 56.1609H3.98009" stroke="black" stroke-width="0.25" stroke-linecap="round" stroke-linejoin="round"/>
<path d="M3.98009 56.1608V51.7656" stroke="black" stroke-width="0.25" stroke-linecap="round" stroke-linejoin="round"/>
<path d="M3.42023 52.7324H3.98009" stroke="black" stroke-width="0.25" stroke-linecap="round" stroke-linejoin="round"/>
<path d="M3.98009 52.7324V52.4235" stroke="black" stroke-width="0.25" stroke-linecap="round" stroke-linejoin="round"/>
<path d="M3.98009 52.4235H3.42023" stroke="black" stroke-width="0.25" stroke-linecap="round" stroke-linejoin="round"/>
<path d="M3.42023 52.4235V52.7324" stroke="black" stroke-width="0.25" stroke-linecap="round" stroke-linejoin="round"/>
<path d="M3.42023 53.5796H3.98009" stroke="black" stroke-width="0.25" stroke-linecap="round" stroke-linejoin="round"/>
<path d="M3.98009 53.5796V54.347" stroke="black" stroke-width="0.25" stroke-linecap="round" stroke-linejoin="round"/>
<path d="M3.98009 54.3469H3.42023" stroke="black" stroke-width="0.25" stroke-linecap="round" stroke-linejoin="round"/>
<path d="M3.42023 54.347V53.5796" stroke="black" stroke-width="0.25" stroke-linecap="round" stroke-linejoin="round"/>
<path d="M3.42023 55.1941H3.98009" stroke="black" stroke-width="0.25" stroke-linecap="round" stroke-linejoin="round"/>
<path d="M3.98009 55.1941V55.503" stroke="black" stroke-width="0.25" stroke-linecap="round" stroke-linejoin="round"/>
<path d="M3.98009 55.5031H3.42023" stroke="black" stroke-width="0.25" stroke-linecap="round" stroke-linejoin="round"/>
<path d="M3.42023 55.503V55.1941" stroke="black" stroke-width="0.25" stroke-linecap="round" stroke-linejoin="round"/>
<path d="M3.98009 51.6361H3.42023" stroke="black" stroke-width="0.25" stroke-linecap="round" stroke-linejoin="round"/>
<path d="M3.42023 51.6361V51.7661" stroke="black" stroke-width="0.25" stroke-linecap="round" stroke-linejoin="round"/>
<path d="M3.42023 51.7656H3.98009" stroke="black" stroke-width="0.25" stroke-linecap="round" stroke-linejoin="round"/>
<path d="M3.98009 51.7661V51.6361" stroke="black" stroke-width="0.25" stroke-linecap="round" stroke-linejoin="round"/>
<path d="M3.98009 56.1609H3.42023" stroke="black" stroke-width="0.25" stroke-linecap="round" stroke-linejoin="round"/>
<path d="M3.42023 56.1609V56.2909" stroke="black" stroke-width="0.25" stroke-linecap="round" stroke-linejoin="round"/>
<path d="M3.42023 56.2904H3.98009" stroke="black" stroke-width="0.25" stroke-linecap="round" stroke-linejoin="round"/>
<path d="M3.98009 56.2909V56.1609" stroke="black" stroke-width="0.25" stroke-linecap="round" stroke-linejoin="round"/>
<path d="M3.98009 20.3715H3.42023" stroke="black" stroke-width="0.25" stroke-linecap="round" stroke-linejoin="round"/>
<path d="M3.42023 20.3715V24.7667" stroke="black" stroke-width="0.25" stroke-linecap="round" stroke-linejoin="round"/>
<path d="M3.42023 24.7666H3.98009" stroke="black" stroke-width="0.25" stroke-linecap="round" stroke-linejoin="round"/>
<path d="M3.98009 24.7667V20.3715" stroke="black" stroke-width="0.25" stroke-linecap="round" stroke-linejoin="round"/>
<path d="M3.42023 21.3381H3.98009" stroke="black" stroke-width="0.25" stroke-linecap="round" stroke-linejoin="round"/>
<path d="M3.98009 21.3381V21.0292" stroke="black" stroke-width="0.25" stroke-linecap="round" stroke-linejoin="round"/>
<path d="M3.98009 21.0292H3.42023" stroke="black" stroke-width="0.25" stroke-linecap="round" stroke-linejoin="round"/>
<path d="M3.42023 21.0292V21.3381" stroke="black" stroke-width="0.25" stroke-linecap="round" stroke-linejoin="round"/>
<path d="M3.42023 22.1853H3.98009" stroke="black" stroke-width="0.25" stroke-linecap="round" stroke-linejoin="round"/>
<path d="M3.98009 22.1853V22.9627" stroke="black" stroke-width="0.25" stroke-linecap="round" stroke-linejoin="round"/>
<path d="M3.98009 22.9626H3.42023" stroke="black" stroke-width="0.25" stroke-linecap="round" stroke-linejoin="round"/>
<path d="M3.42023 22.9627V22.1853" stroke="black" stroke-width="0.25" stroke-linecap="round" stroke-linejoin="round"/>
<path d="M3.42023 23.8098H3.98009" stroke="black" stroke-width="0.25" stroke-linecap="round" stroke-linejoin="round"/>
<path d="M3.98009 23.8098V24.1188" stroke="black" stroke-width="0.25" stroke-linecap="round" stroke-linejoin="round"/>
<path d="M3.98009 24.1188H3.42023" stroke="black" stroke-width="0.25" stroke-linecap="round" stroke-linejoin="round"/>
<path d="M3.42023 24.1188V23.8098" stroke="black" stroke-width="0.25" stroke-linecap="round" stroke-linejoin="round"/>
<path d="M3.98009 20.2418H3.42023" stroke="black" stroke-width="0.25" stroke-linecap="round" stroke-linejoin="round"/>
<path d="M3.42023 20.2418V20.3718" stroke="black" stroke-width="0.25" stroke-linecap="round" stroke-linejoin="round"/>
<path d="M3.42023 20.3715H3.98009" stroke="black" stroke-width="0.25" stroke-linecap="round" stroke-linejoin="round"/>
<path d="M3.98009 20.3718V20.2418" stroke="black" stroke-width="0.25" stroke-linecap="round" stroke-linejoin="round"/>
<path d="M3.98009 24.7666H3.42023" stroke="black" stroke-width="0.25" stroke-linecap="round" stroke-linejoin="round"/>
<path d="M3.42023 24.7666V24.9066" stroke="black" stroke-width="0.25" stroke-linecap="round" stroke-linejoin="round"/>
<path d="M3.42023 24.9061H3.98009" stroke="black" stroke-width="0.25" stroke-linecap="round" stroke-linejoin="round"/>
<path d="M3.98009 24.9066V24.7666" stroke="black" stroke-width="0.25" stroke-linecap="round" stroke-linejoin="round"/>
<path d="M36.798 54.5064C37.083 55.3037 37.9788 55.7223 38.7931 55.4433C39.6074 55.1642 40.035 54.2872 39.7499 53.4899C39.4649 52.6925 38.5692 52.274 37.7548 52.553C37.3069 52.7025 36.9608 53.0513 36.798 53.4899" stroke="black" stroke-width="0.25" stroke-linecap="round" stroke-linejoin="round"/>
<path d="M38.2638 54.5064C38.5488 54.5064 38.7829 54.2772 38.7829 53.9982C38.7829 53.7191 38.5488 53.4899 38.2638 53.4899" stroke="black" stroke-width="0.25" stroke-linecap="round" stroke-linejoin="round"/>
<path d="M38.2638 54.5065H33.2149" stroke="black" stroke-width="0.25" stroke-linecap="round" stroke-linejoin="round"/>
<path d="M33.2145 54.5065C33.2145 54.5065 33.1945 54.5065 33.1945 54.4865" stroke="black" stroke-width="0.25" stroke-linecap="round" stroke-linejoin="round"/>
<path d="M33.1945 54.4865V53.5198" stroke="black" stroke-width="0.25" stroke-linecap="round" stroke-linejoin="round"/>
<path d="M33.1945 53.5199C33.1945 53.5199 33.1945 53.4799 33.2145 53.4799" stroke="black" stroke-width="0.25" stroke-linecap="round" stroke-linejoin="round"/>
<path d="M33.2149 53.4799H38.2638" stroke="black" stroke-width="0.25" stroke-linecap="round" stroke-linejoin="round"/>
<path d="M33.9885 54.5064V53.4799" stroke="black" stroke-width="0.25" stroke-linecap="round" stroke-linejoin="round"/>
<path d="M38.2638 54.3869C38.483 54.3869 38.6608 54.2129 38.6608 53.9982C38.6608 53.7835 38.483 53.6095 38.2638 53.6095C38.0445 53.6095 37.8668 53.7835 37.8668 53.9982C37.8668 54.2129 38.0445 54.3869 38.2638 54.3869Z" stroke="black" stroke-width="0.25" stroke-linecap="round" stroke-linejoin="round"/>
<path d="M38.2332 53.6792C38.0602 53.6991 37.9279 53.8486 37.9482 54.0181C37.9686 54.1875 38.1213 54.317 38.2943 54.2971C38.4674 54.2772 38.5997 54.1277 38.5793 53.9583C38.5692 53.8088 38.447 53.6892 38.2943 53.6792" stroke="black" stroke-width="0.25" stroke-linecap="round" stroke-linejoin="round"/>
<path d="M38.2943 54.3071C38.4674 54.2871 38.5997 54.1377 38.5793 53.9682C38.559 53.7988 38.4063 53.6692 38.2332 53.6892C38.0602 53.7091 37.9279 53.8586 37.9482 54.028C37.9584 54.1775 38.0806 54.2971 38.2332 54.3071" stroke="black" stroke-width="0.25" stroke-linecap="round" stroke-linejoin="round"/>
<ellipse cx="38.2332" cy="53.5999" rx="0.127241" ry="0.125" fill="black"/>
<path d="M38.2332 53.6792V54.3071" stroke="black" stroke-width="0.25" stroke-linecap="round" stroke-linejoin="round"/>
<ellipse cx="38.2332" cy="54.3872" rx="0.127241" ry="0.125" fill="black"/>
<ellipse cx="38.2943" cy="53.5999" rx="0.127241" ry="0.125" fill="black"/>
<path d="M38.2943 53.6792V54.3071" stroke="black" stroke-width="0.25" stroke-linecap="round" stroke-linejoin="round"/>
<ellipse cx="38.2943" cy="54.3872" rx="0.127241" ry="0.125" fill="black"/>
<path d="M36.8285 49.7823H37.7345" stroke="black" stroke-width="0.25" stroke-linecap="round" stroke-linejoin="round"/>
<path d="M41.0936 49.8022V50.2607" stroke="black" stroke-width="0.25" stroke-linecap="round" stroke-linejoin="round"/>
<path d="M41.0936 50.2607H45.8778" stroke="black" stroke-width="0.25" stroke-linecap="round" stroke-linejoin="round"/>
<path d="M45.8779 50.2607V43.3141" stroke="black" stroke-width="0.25" stroke-linecap="round" stroke-linejoin="round"/>
<path d="M45.8778 43.3141H41.0936" stroke="black" stroke-width="0.25" stroke-linecap="round" stroke-linejoin="round"/>
<path d="M41.0936 43.3141V48.2275" stroke="black" stroke-width="0.25" stroke-linecap="round" stroke-linejoin="round"/>
<path d="M35.9633 49.7823C35.7699 49.7823 35.6172 49.6328 35.607 49.4435" stroke="black" stroke-width="0.25" stroke-linecap="round" stroke-linejoin="round"/>
<path d="M35.607 49.4435V44.0118" stroke="black" stroke-width="0.25" stroke-linecap="round" stroke-linejoin="round"/>
<path d="M35.607 44.0118C35.607 43.8225 35.7597 43.673 35.9531 43.673" stroke="black" stroke-width="0.25" stroke-linecap="round" stroke-linejoin="round"/>
<path d="M35.9531 43.673H44.9515" stroke="black" stroke-width="0.25" stroke-linecap="round" stroke-linejoin="round"/>
<path d="M44.9515 43.673C45.1449 43.673 45.2976 43.8225 45.2976 44.0118" stroke="black" stroke-width="0.25" stroke-linecap="round" stroke-linejoin="round"/>
<path d="M45.2976 44.0118V46.5732" stroke="black" stroke-width="0.25" stroke-linecap="round" stroke-linejoin="round"/>
<path d="M45.2975 46.5731L45.2875 49.4235" stroke="black" stroke-width="0.25" stroke-linecap="round" stroke-linejoin="round"/>
<path d="M45.2875 49.4236C45.2875 49.6229 45.1144 49.7824 44.9006 49.7824" stroke="black" stroke-width="0.25" stroke-linecap="round" stroke-linejoin="round"/>
<path d="M44.9108 49.7923L37.7345 49.7823" stroke="black" stroke-width="0.25" stroke-linecap="round" stroke-linejoin="round"/>
<path d="M37.7345 49.7823H35.9225" stroke="black" stroke-width="0.25" stroke-linecap="round" stroke-linejoin="round"/>
<path d="M35.9225 49.7823H37.7345" stroke="black" stroke-width="0.25" stroke-linecap="round" stroke-linejoin="round"/>
<path d="M37.7345 49.7827C37.8973 49.8127 38.0704 49.7727 38.1925 49.6727" stroke="black" stroke-width="0.25" stroke-linecap="round" stroke-linejoin="round"/>
<path d="M38.1925 49.6727C38.7422 49.2441 39.2817 48.7159 39.5362 48.1478" stroke="black" stroke-width="0.25" stroke-linecap="round" stroke-linejoin="round"/>
<path d="M39.5362 48.1479C39.6889 47.8887 39.9841 47.7193 40.2996 47.7094" stroke="black" stroke-width="0.25" stroke-linecap="round" stroke-linejoin="round"/>
<path d="M40.2996 47.7094C40.6254 47.7094 40.9206 47.8588 41.0834 48.108" stroke="black" stroke-width="0.25" stroke-linecap="round" stroke-linejoin="round"/>
<path d="M41.0834 48.108C41.2768 48.407 41.6331 48.6462 42.0708 48.7857" stroke="black" stroke-width="0.25" stroke-linecap="round" stroke-linejoin="round"/>
<path d="M42.0708 48.7857C42.8241 48.9451 43.5977 48.5863 43.954 47.9186" stroke="black" stroke-width="0.25" stroke-linecap="round" stroke-linejoin="round"/>
<path d="M43.9641 47.9186C44.0354 47.2608 44.6258 46.7127 45.2976 46.5731" stroke="black" stroke-width="0.25" stroke-linecap="round" stroke-linejoin="round"/>
<path d="M45.2976 46.5732V44.0118" stroke="black" stroke-width="0.25" stroke-linecap="round" stroke-linejoin="round"/>
<path d="M45.2976 44.0118C45.2976 43.8225 45.1449 43.673 44.9515 43.673" stroke="black" stroke-width="0.25" stroke-linecap="round" stroke-linejoin="round"/>
<path d="M44.9515 43.673H35.9531" stroke="black" stroke-width="0.25" stroke-linecap="round" stroke-linejoin="round"/>
<path d="M35.9531 43.673C35.7597 43.673 35.607 43.8225 35.607 44.0118" stroke="black" stroke-width="0.25" stroke-linecap="round" stroke-linejoin="round"/>
<path d="M35.607 44.0118V49.4435" stroke="black" stroke-width="0.25" stroke-linecap="round" stroke-linejoin="round"/>
<path d="M35.607 49.4435C35.607 49.6328 35.7699 49.7823 35.9633 49.7823" stroke="black" stroke-width="0.25" stroke-linecap="round" stroke-linejoin="round"/>
<path d="M36.798 53.4799V54.5064" stroke="black" stroke-width="0.25" stroke-linecap="round" stroke-linejoin="round"/>
<path d="M38.2638 53.4799V54.5064" stroke="black" stroke-width="0.25" stroke-linecap="round" stroke-linejoin="round"/>
<path d="M38.2638 53.4799V54.5064" stroke="black" stroke-width="0.25" stroke-linecap="round" stroke-linejoin="round"/>
<path d="M33.9885 53.4799V54.5064" stroke="black" stroke-width="0.25" stroke-linecap="round" stroke-linejoin="round"/>
<path d="M38.2946 53.6792H38.2332" stroke="black" stroke-width="0.25" stroke-linecap="round" stroke-linejoin="round"/>
<path d="M38.2332 54.307H38.2946" stroke="black" stroke-width="0.25" stroke-linecap="round" stroke-linejoin="round"/>
<ellipse cx="38.2332" cy="53.5999" rx="0.127241" ry="0.125" fill="black"/>
<path d="M38.2332 54.3071V53.6792" stroke="black" stroke-width="0.25" stroke-linecap="round" stroke-linejoin="round"/>
<ellipse cx="38.2332" cy="54.3872" rx="0.127241" ry="0.125" fill="black"/>
<ellipse cx="38.2943" cy="53.5999" rx="0.127241" ry="0.125" fill="black"/>
<path d="M38.2943 54.3071V53.6792" stroke="black" stroke-width="0.25" stroke-linecap="round" stroke-linejoin="round"/>
<ellipse cx="38.2943" cy="54.3872" rx="0.127241" ry="0.125" fill="black"/>
<path d="M37.7345 49.7823H36.8285" stroke="black" stroke-width="0.25" stroke-linecap="round" stroke-linejoin="round"/>
<path d="M41.0936 48.2275V49.8022" stroke="black" stroke-width="0.25" stroke-linecap="round" stroke-linejoin="round"/>
<path d="M35.9226 49.7823H35.9626" stroke="black" stroke-width="0.25" stroke-linecap="round" stroke-linejoin="round"/>
<path d="M35.9626 49.7823H35.9226" stroke="black" stroke-width="0.25" stroke-linecap="round" stroke-linejoin="round"/>
</g>
<defs>
<clipPath id="clip0_702_2518">
<rect width="46" height="95" fill="white"/>
</clipPath>
</defs>
</svg>
