<svg width="93" height="89" viewBox="0 0 93 89" fill="none" xmlns="http://www.w3.org/2000/svg">
<g clip-path="url(#clip0_1370_10444)">
<path d="M92.12 0.120117H0.119995V88.1201H92.12V0.120117Z" fill="white"/>
<path d="M4.13 8.86011H88.13" stroke="#010101" stroke-width="0.25" stroke-miterlimit="10"/>
<path d="M4.12 73.8701H88.12" stroke="#010101" stroke-width="0.25" stroke-miterlimit="10"/>
<path d="M4.13 66.8601H88.13" stroke="#010101" stroke-width="0.25" stroke-miterlimit="10"/>
<path d="M4.13 77.8601H88.13" stroke="#010101" stroke-width="0.25" stroke-miterlimit="10"/>
<path d="M4.13 76.8701H88.13" stroke="#010101" stroke-width="0.25" stroke-miterlimit="10"/>
<path d="M4.12 4.86011H88.12" stroke="#010101" stroke-width="0.25" stroke-miterlimit="10"/>
<path d="M4.13 16.8601H88.13" stroke="#010101" stroke-width="0.25" stroke-miterlimit="10"/>
<path d="M4.12 63.8701H88.12" stroke="#010101" stroke-width="0.25" stroke-miterlimit="10"/>
<path d="M4.13 58.8601H88.13" stroke="#010101" stroke-width="0.25" stroke-miterlimit="10"/>
<path d="M4.13 67.8601H88.13" stroke="#010101" stroke-width="0.25" stroke-miterlimit="10"/>
<path d="M4.13 52.8601H88.13" stroke="#010101" stroke-width="0.25" stroke-miterlimit="10"/>
<path d="M4.12 33.8601H88.12" stroke="#010101" stroke-width="0.25" stroke-miterlimit="10"/>
<path d="M4.13 59.8701H88.13" stroke="#010101" stroke-width="0.25" stroke-miterlimit="10"/>
<path d="M4.13 78.8701H88.13" stroke="#010101" stroke-width="0.25" stroke-miterlimit="10"/>
<path d="M4.13 49.8601H88.13" stroke="#010101" stroke-width="0.25" stroke-miterlimit="10"/>
<path d="M4.13 32.8601H88.13" stroke="#010101" stroke-width="0.25" stroke-miterlimit="10"/>
<path d="M4.13 25.8601H88.13" stroke="#010101" stroke-width="0.25" stroke-miterlimit="10"/>
<path d="M4.13 27.8701H88.13" stroke="#010101" stroke-width="0.25" stroke-miterlimit="10"/>
<path d="M4.12 34.8701H88.12" stroke="#010101" stroke-width="0.25" stroke-miterlimit="10"/>
<path d="M4.13 31.8701H88.13" stroke="#010101" stroke-width="0.25" stroke-miterlimit="10"/>
<path d="M4.13 38.8601H88.13" stroke="#010101" stroke-width="0.25" stroke-miterlimit="10"/>
<path d="M4.12 51.8601H88.12" stroke="#010101" stroke-width="0.25" stroke-miterlimit="10"/>
<path d="M4.12 53.8601H88.12" stroke="#010101" stroke-width="0.25" stroke-miterlimit="10"/>
<path d="M4.13 57.8701H88.13" stroke="#010101" stroke-width="0.25" stroke-miterlimit="10"/>
<path d="M4.13 41.8601H88.13" stroke="#010101" stroke-width="0.25" stroke-miterlimit="10"/>
<path d="M4.13 62.8601H88.13" stroke="#010101" stroke-width="0.25" stroke-miterlimit="10"/>
<path d="M4.13 65.8601H88.13" stroke="#010101" stroke-width="0.25" stroke-miterlimit="10"/>
<path d="M4.13 68.8601H88.13" stroke="#010101" stroke-width="0.25" stroke-miterlimit="10"/>
<path d="M4.13 72.8701H88.13" stroke="#010101" stroke-width="0.25" stroke-miterlimit="10"/>
<path d="M4.13 75.8601H88.13" stroke="#010101" stroke-width="0.25" stroke-miterlimit="10"/>
<path d="M4.12 24.8701H88.12" stroke="#010101" stroke-width="0.25" stroke-miterlimit="10"/>
<path d="M4.13 21.8601H88.13" stroke="#010101" stroke-width="0.25" stroke-miterlimit="10"/>
<path d="M4.13 26.8701H88.13" stroke="#010101" stroke-width="0.25" stroke-miterlimit="10"/>
<path d="M4.13 20.8601H88.13" stroke="#010101" stroke-width="0.25" stroke-miterlimit="10"/>
<path d="M4.13 18.8701H88.13" stroke="#010101" stroke-width="0.25" stroke-miterlimit="10"/>
<path d="M4.13 22.8601H88.13" stroke="#010101" stroke-width="0.25" stroke-miterlimit="10"/>
<path d="M4.13 28.8701H88.13" stroke="#010101" stroke-width="0.25" stroke-miterlimit="10"/>
<path d="M4.13 60.8601H88.13" stroke="#010101" stroke-width="0.25" stroke-miterlimit="10"/>
<path d="M4.13 17.8601H88.13" stroke="#010101" stroke-width="0.25" stroke-miterlimit="10"/>
<path d="M4.12 14.8701H88.12" stroke="#010101" stroke-width="0.25" stroke-miterlimit="10"/>
<path d="M4.13 19.8601H88.13" stroke="#010101" stroke-width="0.25" stroke-miterlimit="10"/>
<path d="M4.12 13.8701H88.12" stroke="#010101" stroke-width="0.25" stroke-miterlimit="10"/>
<path d="M4.13 35.8601H88.13" stroke="#010101" stroke-width="0.25" stroke-miterlimit="10"/>
<path d="M4.13 37.8601H88.13" stroke="#010101" stroke-width="0.25" stroke-miterlimit="10"/>
<path d="M4.13 46.8701H88.13" stroke="#010101" stroke-width="0.25" stroke-miterlimit="10"/>
<path d="M4.13 36.8601H88.13" stroke="#010101" stroke-width="0.25" stroke-miterlimit="10"/>
<path d="M4.12 54.8701H88.12" stroke="#010101" stroke-width="0.25" stroke-miterlimit="10"/>
<path d="M4.13 56.8601H88.13" stroke="#010101" stroke-width="0.25" stroke-miterlimit="10"/>
<path d="M4.13 39.8601H88.13" stroke="#010101" stroke-width="0.25" stroke-miterlimit="10"/>
<path d="M4.13 45.8701H88.13" stroke="#010101" stroke-width="0.25" stroke-miterlimit="10"/>
<path d="M4.12 61.8601H88.12" stroke="#010101" stroke-width="0.25" stroke-miterlimit="10"/>
<path d="M4.13 40.8601H88.13" stroke="#010101" stroke-width="0.25" stroke-miterlimit="10"/>
<path d="M4.12 64.8601H88.12" stroke="#010101" stroke-width="0.25" stroke-miterlimit="10"/>
<path d="M4.12 44.8601H88.12" stroke="#010101" stroke-width="0.25" stroke-miterlimit="10"/>
<path d="M4.13 69.8701H88.13" stroke="#010101" stroke-width="0.25" stroke-miterlimit="10"/>
<path d="M4.12 71.8601H88.12" stroke="#010101" stroke-width="0.25" stroke-miterlimit="10"/>
<path d="M4.12 43.8601H88.12" stroke="#010101" stroke-width="0.25" stroke-miterlimit="10"/>
<path d="M4.12 74.8601H88.12" stroke="#010101" stroke-width="0.25" stroke-miterlimit="10"/>
<path d="M4.13 12.8701H88.13" stroke="#010101" stroke-width="0.25" stroke-miterlimit="10"/>
<path d="M4.13 47.8601H88.13" stroke="#010101" stroke-width="0.25" stroke-miterlimit="10"/>
<path d="M4.13 9.86011H88.13" stroke="#010101" stroke-width="0.25" stroke-miterlimit="10"/>
<path d="M4.13 79.8601H88.13" stroke="#010101" stroke-width="0.25" stroke-miterlimit="10"/>
<path d="M4.13 15.8601H88.13" stroke="#010101" stroke-width="0.25" stroke-miterlimit="10"/>
<path d="M4.13 55.8601H88.13" stroke="#010101" stroke-width="0.25" stroke-miterlimit="10"/>
<path d="M4.13 42.8601H88.13" stroke="#010101" stroke-width="0.25" stroke-miterlimit="10"/>
<path d="M4.13 70.8601H88.13" stroke="#010101" stroke-width="0.25" stroke-miterlimit="10"/>
<path d="M4.13 50.8601H88.13" stroke="#010101" stroke-width="0.25" stroke-miterlimit="10"/>
<path d="M4.13 48.8701H88.13" stroke="#010101" stroke-width="0.25" stroke-miterlimit="10"/>
<path d="M4.13 6.87012H88.13" stroke="#010101" stroke-width="0.25" stroke-miterlimit="10"/>
<path d="M4.13 29.8701H88.13" stroke="#010101" stroke-width="0.25" stroke-miterlimit="10"/>
<path d="M4.13 30.8601H88.13" stroke="#010101" stroke-width="0.25" stroke-miterlimit="10"/>
<path d="M4.13 11.8701H88.13" stroke="#010101" stroke-width="0.25" stroke-miterlimit="10"/>
<path d="M4.12 23.8601H88.12" stroke="#010101" stroke-width="0.25" stroke-miterlimit="10"/>
<path d="M4.13 10.8601H88.13" stroke="#010101" stroke-width="0.25" stroke-miterlimit="10"/>
<path d="M88.13 88.1201V4.13013" stroke="#010101" stroke-width="0.25" stroke-miterlimit="10"/>
<path d="M88.13 0.120117H92.13" stroke="#010101" stroke-width="0.25" stroke-miterlimit="10"/>
<path d="M92.12 88.1201H88.12" stroke="#010101" stroke-width="0.25" stroke-miterlimit="10"/>
<path d="M92.12 88.1201V0.120117" stroke="#010101" stroke-width="0.25" stroke-miterlimit="10"/>
<path d="M0.119995 88.1201V0.120117" stroke="#010101" stroke-width="0.25" stroke-miterlimit="10"/>
<path d="M0.119995 0.120117H4.12" stroke="#010101" stroke-width="0.25" stroke-miterlimit="10"/>
<path d="M4.12 88.1201H0.119995" stroke="#010101" stroke-width="0.25" stroke-miterlimit="10"/>
<path d="M4.12 4.13013H88.12" stroke="#010101" stroke-width="0.25" stroke-miterlimit="10"/>
<path d="M4.12 0.120117H88.12" stroke="#010101" stroke-width="0.25" stroke-miterlimit="10"/>
<path d="M4.12 88.1201H88.12" stroke="#010101" stroke-width="0.25" stroke-miterlimit="10"/>
<path d="M4.12 87.8601H88.12" stroke="#010101" stroke-width="0.25" stroke-miterlimit="10"/>
<path d="M4.12 88.1201V87.8601" stroke="#010101" stroke-width="0.25" stroke-miterlimit="10"/>
<path d="M4.13 86.8601H88.13" stroke="#010101" stroke-width="0.25" stroke-miterlimit="10"/>
<path d="M4.13 85.8601H88.13" stroke="#010101" stroke-width="0.25" stroke-miterlimit="10"/>
<path d="M4.12 84.8601H88.12" stroke="#010101" stroke-width="0.25" stroke-miterlimit="10"/>
<path d="M4.12 83.8601H88.12" stroke="#010101" stroke-width="0.25" stroke-miterlimit="10"/>
<path d="M4.13 82.8701H88.13" stroke="#010101" stroke-width="0.25" stroke-miterlimit="10"/>
<path d="M4.12 81.8601H88.12" stroke="#010101" stroke-width="0.25" stroke-miterlimit="10"/>
<path d="M4.12 87.8601V4.12012" stroke="#010101" stroke-width="0.25" stroke-miterlimit="10"/>
<path d="M4.13 80.8601H88.13" stroke="#010101" stroke-width="0.25" stroke-miterlimit="10"/>
<path d="M4.13 5.87012H88.13" stroke="#010101" stroke-width="0.25" stroke-miterlimit="10"/>
<path d="M4.13 7.87012H88.13" stroke="#010101" stroke-width="0.25" stroke-miterlimit="10"/>
<path d="M88.13 0.120117H92.13" stroke="#010101" stroke-width="0.25" stroke-miterlimit="10"/>
<path d="M92.12 88.1201H88.12" stroke="#010101" stroke-width="0.25" stroke-miterlimit="10"/>
<path d="M92.12 88.1201V0.120117" stroke="#010101" stroke-width="0.25" stroke-miterlimit="10"/>
<path d="M0.119995 88.1201V0.120117" stroke="#010101" stroke-width="0.25" stroke-miterlimit="10"/>
<path d="M0.119995 0.120117H4.12" stroke="#010101" stroke-width="0.25" stroke-miterlimit="10"/>
<path d="M4.12 88.1201H0.119995" stroke="#010101" stroke-width="0.25" stroke-miterlimit="10"/>
<path d="M4.12 88.1201H88.12" stroke="#010101" stroke-width="0.25" stroke-miterlimit="10"/>
</g>
<defs>
<clipPath id="clip0_1370_10444">
<rect width="92.25" height="88.25" fill="white"/>
</clipPath>
</defs>
</svg>
