<svg width="85" height="22" viewBox="0 0 85 22" fill="none" xmlns="http://www.w3.org/2000/svg">
<g clip-path="url(#clip0_788_1003)">
<path d="M1.88999 4.51005H3.88999V8.30005H4.91999V0.0500488H79.89V8.30005H80.89V4.50005H82.89V8.30005H84.65V9.80005H82.89V19H82.34V19.34H80.34V21.09H4.32999V19.34H2.32999V19H1.88999V9.82005H0.0499878V8.30005H1.88999V4.51005Z" fill="white"/>
<path d="M78.34 16.88L81.84 19.01" stroke="black" stroke-width="0.25" stroke-linecap="round" stroke-linejoin="round"/>
<path d="M79.94 8.30005V9.05005" stroke="black" stroke-width="0.25" stroke-linecap="round" stroke-linejoin="round"/>
<path d="M79.88 17.28H4.84998" stroke="black" stroke-width="0.25" stroke-linecap="round" stroke-linejoin="round"/>
<path d="M79.88 16.55L4.87 0.0500488" stroke="black" stroke-width="0.25" stroke-linecap="round" stroke-linejoin="round"/>
<path d="M6.33002 16.88L2.83002 19.01" stroke="black" stroke-width="0.25" stroke-linecap="round" stroke-linejoin="round"/>
<path d="M0.0499878 8.30005V9.05005" stroke="black" stroke-width="0.25" stroke-linecap="round" stroke-linejoin="round"/>
<path d="M4.33002 21.0901H6.33002" stroke="black" stroke-width="0.25" stroke-linecap="round" stroke-linejoin="round"/>
<path d="M6.33002 21.0901V19.0901" stroke="black" stroke-width="0.25" stroke-linecap="round" stroke-linejoin="round"/>
<path d="M6.33002 19.0901H4.33002" stroke="black" stroke-width="0.25" stroke-linecap="round" stroke-linejoin="round"/>
<path d="M4.33002 19.0901V21.0901" stroke="black" stroke-width="0.25" stroke-linecap="round" stroke-linejoin="round"/>
<path d="M78.34 21.0901H80.34" stroke="black" stroke-width="0.25" stroke-linecap="round" stroke-linejoin="round"/>
<path d="M80.34 21.0901V19.0901" stroke="black" stroke-width="0.25" stroke-linecap="round" stroke-linejoin="round"/>
<path d="M80.34 19.0901H78.34" stroke="black" stroke-width="0.25" stroke-linecap="round" stroke-linejoin="round"/>
<path d="M78.34 19.0901V21.0901" stroke="black" stroke-width="0.25" stroke-linecap="round" stroke-linejoin="round"/>
<path d="M6.33002 21.0901H78.34" stroke="black" stroke-width="0.25" stroke-linecap="round" stroke-linejoin="round"/>
<path d="M78.34 21.0901V19.0901" stroke="black" stroke-width="0.25" stroke-linecap="round" stroke-linejoin="round"/>
<path d="M78.34 19.0901H6.33002" stroke="black" stroke-width="0.25" stroke-linecap="round" stroke-linejoin="round"/>
<path d="M6.33002 19.0901V21.0901" stroke="black" stroke-width="0.25" stroke-linecap="round" stroke-linejoin="round"/>
<path d="M79.89 18.05V0.0500488" stroke="black" stroke-width="0.25" stroke-linecap="round" stroke-linejoin="round"/>
<path d="M79.89 0.0500488H4.87" stroke="black" stroke-width="0.25" stroke-linecap="round" stroke-linejoin="round"/>
<path d="M4.87 0.0500488V18.05" stroke="black" stroke-width="0.25" stroke-linecap="round" stroke-linejoin="round"/>
<path d="M4.87 18.05H79.89" stroke="black" stroke-width="0.25" stroke-linecap="round" stroke-linejoin="round"/>
<path d="M81.84 19.01H78.34" stroke="black" stroke-width="0.25" stroke-linecap="round" stroke-linejoin="round"/>
<path d="M78.34 19.01V18.38" stroke="black" stroke-width="0.25" stroke-linecap="round" stroke-linejoin="round"/>
<path d="M78.34 18.38H80.34" stroke="black" stroke-width="0.25" stroke-linecap="round" stroke-linejoin="round"/>
<path d="M80.34 18.38V16.88" stroke="black" stroke-width="0.25" stroke-linecap="round" stroke-linejoin="round"/>
<path d="M80.34 16.88H78.34" stroke="black" stroke-width="0.25" stroke-linecap="round" stroke-linejoin="round"/>
<path d="M79.94 18.05C79.9842 18.05 80.02 17.8799 80.02 17.67C80.02 17.4602 79.9842 17.29 79.94 17.29C79.8958 17.29 79.86 17.4602 79.86 17.67C79.86 17.8799 79.8958 18.05 79.94 18.05Z" stroke="black" stroke-width="0.25" stroke-linecap="round" stroke-linejoin="round"/>
<path d="M82.89 19V4.5" stroke="black" stroke-width="0.25" stroke-linecap="round" stroke-linejoin="round"/>
<path d="M82.89 4.5H80.89" stroke="black" stroke-width="0.25" stroke-linecap="round" stroke-linejoin="round"/>
<path d="M80.89 4.5V19" stroke="black" stroke-width="0.25" stroke-linecap="round" stroke-linejoin="round"/>
<path d="M80.89 19H82.89" stroke="black" stroke-width="0.25" stroke-linecap="round" stroke-linejoin="round"/>
<path d="M79.94 9.05005V8.30005" stroke="black" stroke-width="0.25" stroke-linecap="round" stroke-linejoin="round"/>
<path d="M79.94 8.30005H84.65" stroke="black" stroke-width="0.25" stroke-linecap="round" stroke-linejoin="round"/>
<path d="M84.65 8.30005V9.80005" stroke="black" stroke-width="0.25" stroke-linecap="round" stroke-linejoin="round"/>
<path d="M84.65 9.80005H79.94" stroke="black" stroke-width="0.25" stroke-linecap="round" stroke-linejoin="round"/>
<path d="M79.94 9.80005V8.30005" stroke="black" stroke-width="0.25" stroke-linecap="round" stroke-linejoin="round"/>
<path d="M4.84998 17.28H79.88" stroke="black" stroke-width="0.25" stroke-linecap="round" stroke-linejoin="round"/>
<path d="M4.87 0.0500488V1.55005" stroke="black" stroke-width="0.25" stroke-linecap="round" stroke-linejoin="round"/>
<path d="M4.87 1.55005H79.88" stroke="black" stroke-width="0.25" stroke-linecap="round" stroke-linejoin="round"/>
<path d="M79.88 1.55005V3.05005" stroke="black" stroke-width="0.25" stroke-linecap="round" stroke-linejoin="round"/>
<path d="M79.88 3.05005H4.87" stroke="black" stroke-width="0.25" stroke-linecap="round" stroke-linejoin="round"/>
<path d="M4.87 3.05005V4.55005" stroke="black" stroke-width="0.25" stroke-linecap="round" stroke-linejoin="round"/>
<path d="M4.87 4.55005H79.88" stroke="black" stroke-width="0.25" stroke-linecap="round" stroke-linejoin="round"/>
<path d="M79.88 4.55005V6.05005" stroke="black" stroke-width="0.25" stroke-linecap="round" stroke-linejoin="round"/>
<path d="M79.88 6.05005H4.87" stroke="black" stroke-width="0.25" stroke-linecap="round" stroke-linejoin="round"/>
<path d="M4.87 6.05005V7.55005" stroke="black" stroke-width="0.25" stroke-linecap="round" stroke-linejoin="round"/>
<path d="M4.87 7.55005H79.88" stroke="black" stroke-width="0.25" stroke-linecap="round" stroke-linejoin="round"/>
<path d="M79.88 7.55005V9.05005" stroke="black" stroke-width="0.25" stroke-linecap="round" stroke-linejoin="round"/>
<path d="M79.88 9.05005H4.87" stroke="black" stroke-width="0.25" stroke-linecap="round" stroke-linejoin="round"/>
<path d="M4.87 9.05005V10.55" stroke="black" stroke-width="0.25" stroke-linecap="round" stroke-linejoin="round"/>
<path d="M4.87 10.55H79.88" stroke="black" stroke-width="0.25" stroke-linecap="round" stroke-linejoin="round"/>
<path d="M79.88 10.55V12.05" stroke="black" stroke-width="0.25" stroke-linecap="round" stroke-linejoin="round"/>
<path d="M79.88 12.05H4.87" stroke="black" stroke-width="0.25" stroke-linecap="round" stroke-linejoin="round"/>
<path d="M4.87 12.05V13.55" stroke="black" stroke-width="0.25" stroke-linecap="round" stroke-linejoin="round"/>
<path d="M4.87 13.55H79.88" stroke="black" stroke-width="0.25" stroke-linecap="round" stroke-linejoin="round"/>
<path d="M79.88 13.55V15.05" stroke="black" stroke-width="0.25" stroke-linecap="round" stroke-linejoin="round"/>
<path d="M79.88 15.05H4.87" stroke="black" stroke-width="0.25" stroke-linecap="round" stroke-linejoin="round"/>
<path d="M4.87 15.05V16.55" stroke="black" stroke-width="0.25" stroke-linecap="round" stroke-linejoin="round"/>
<path d="M4.87 16.55H79.88" stroke="black" stroke-width="0.25" stroke-linecap="round" stroke-linejoin="round"/>
<path d="M2.83002 19.01H6.33002" stroke="black" stroke-width="0.25" stroke-linecap="round" stroke-linejoin="round"/>
<path d="M6.33002 19.01V18.38" stroke="black" stroke-width="0.25" stroke-linecap="round" stroke-linejoin="round"/>
<path d="M6.33002 18.38H4.33002" stroke="black" stroke-width="0.25" stroke-linecap="round" stroke-linejoin="round"/>
<path d="M4.33002 18.38V16.88" stroke="black" stroke-width="0.25" stroke-linecap="round" stroke-linejoin="round"/>
<path d="M4.33002 16.88H6.33002" stroke="black" stroke-width="0.25" stroke-linecap="round" stroke-linejoin="round"/>
<path d="M3.89001 19.01V4.51001" stroke="black" stroke-width="0.25" stroke-linecap="round" stroke-linejoin="round"/>
<path d="M3.89001 4.51001H1.89001" stroke="black" stroke-width="0.25" stroke-linecap="round" stroke-linejoin="round"/>
<path d="M1.89001 4.51001V19.01" stroke="black" stroke-width="0.25" stroke-linecap="round" stroke-linejoin="round"/>
<path d="M1.89001 19.01H3.89001" stroke="black" stroke-width="0.25" stroke-linecap="round" stroke-linejoin="round"/>
<path d="M0.0499878 9.05005V8.30005" stroke="black" stroke-width="0.25" stroke-linecap="round" stroke-linejoin="round"/>
<path d="M0.0499878 8.30005H4.76999" stroke="black" stroke-width="0.25" stroke-linecap="round" stroke-linejoin="round"/>
<path d="M4.76996 8.30005V9.80005" stroke="black" stroke-width="0.25" stroke-linecap="round" stroke-linejoin="round"/>
<path d="M4.76999 9.80005H0.0499878" stroke="black" stroke-width="0.25" stroke-linecap="round" stroke-linejoin="round"/>
<path d="M0.0499878 9.80005V8.30005" stroke="black" stroke-width="0.25" stroke-linecap="round" stroke-linejoin="round"/>
<path d="M4.84996 18.05C4.89414 18.05 4.92996 17.8799 4.92996 17.67C4.92996 17.4602 4.89414 17.29 4.84996 17.29C4.80578 17.29 4.76996 17.4602 4.76996 17.67C4.76996 17.8799 4.80578 18.05 4.84996 18.05Z" stroke="black" stroke-width="0.25" stroke-linecap="round" stroke-linejoin="round"/>
<path d="M2.33002 19.3401H4.33002" stroke="black" stroke-width="0.25" stroke-linecap="round" stroke-linejoin="round"/>
<path d="M4.33002 19.3401V19.0901" stroke="black" stroke-width="0.25" stroke-linecap="round" stroke-linejoin="round"/>
<path d="M4.33002 19.0901H2.33002" stroke="black" stroke-width="0.25" stroke-linecap="round" stroke-linejoin="round"/>
<path d="M2.33002 19.0901V19.3401" stroke="black" stroke-width="0.25" stroke-linecap="round" stroke-linejoin="round"/>
<path d="M80.34 19.3401H82.34" stroke="black" stroke-width="0.25" stroke-linecap="round" stroke-linejoin="round"/>
<path d="M82.34 19.3401V19.0901" stroke="black" stroke-width="0.25" stroke-linecap="round" stroke-linejoin="round"/>
<path d="M82.34 19.0901H80.34" stroke="black" stroke-width="0.25" stroke-linecap="round" stroke-linejoin="round"/>
<path d="M80.34 19.0901V19.3401" stroke="black" stroke-width="0.25" stroke-linecap="round" stroke-linejoin="round"/>
</g>
<defs>
<clipPath id="clip0_788_1003">
<rect width="84.7" height="21.14" fill="white"/>
</clipPath>
</defs>
</svg>
