<svg width="148" height="90" viewBox="0 0 148 90" fill="none" xmlns="http://www.w3.org/2000/svg">
<g clip-path="url(#clip0_746_807)">
<rect width="148" height="90" fill="white"/>
<path d="M2.12643 2.12402L2.11643 89.8803" stroke="black" stroke-width="0.25" stroke-linecap="round" stroke-linejoin="round"/>
<path d="M2.11663 89.8804H0.120001" stroke="black" stroke-width="0.25" stroke-linecap="round" stroke-linejoin="round"/>
<path d="M0.120001 89.8803V0.129639" stroke="black" stroke-width="0.25" stroke-linecap="round" stroke-linejoin="round"/>
<path d="M0.120001 0.129639L2.12661 2.1241" stroke="black" stroke-width="0.25" stroke-linecap="round" stroke-linejoin="round"/>
<path d="M147.87 0.129639V89.8803" stroke="black" stroke-width="0.25" stroke-linecap="round" stroke-linejoin="round"/>
<path d="M147.87 89.8804H145.884" stroke="black" stroke-width="0.25" stroke-linecap="round" stroke-linejoin="round"/>
<path d="M145.884 89.8803V2.12402" stroke="black" stroke-width="0.25" stroke-linecap="round" stroke-linejoin="round"/>
<path d="M145.884 2.1241L147.87 0.129639" stroke="black" stroke-width="0.25" stroke-linecap="round" stroke-linejoin="round"/>
<path d="M136.09 2.12402H145.884" stroke="black" stroke-width="0.25" stroke-linecap="round" stroke-linejoin="round"/>
<path d="M145.884 2.12402V89.8803" stroke="black" stroke-width="0.25" stroke-linecap="round" stroke-linejoin="round"/>
<path d="M145.884 89.8804H2.12641" stroke="black" stroke-width="0.25" stroke-linecap="round" stroke-linejoin="round"/>
<path d="M2.12641 89.8803V2.12402" stroke="black" stroke-width="0.25" stroke-linecap="round" stroke-linejoin="round"/>
<path d="M2.12641 2.12402H136.09" stroke="black" stroke-width="0.25" stroke-linecap="round" stroke-linejoin="round"/>
<path d="M133.185 0.129629L0.130001 0.119629" stroke="black" stroke-width="0.25" stroke-linecap="round" stroke-linejoin="round"/>
<path d="M0.130001 0.119629L2.12663 2.12406" stroke="black" stroke-width="0.25" stroke-linecap="round" stroke-linejoin="round"/>
<path d="M2.12641 2.12402H134.403" stroke="black" stroke-width="0.25" stroke-linecap="round" stroke-linejoin="round"/>
<path d="M134.403 2.12402H145.884" stroke="black" stroke-width="0.25" stroke-linecap="round" stroke-linejoin="round"/>
<path d="M145.884 2.1241L147.88 0.129639" stroke="black" stroke-width="0.25" stroke-linecap="round" stroke-linejoin="round"/>
<path d="M147.88 0.129639H133.185" stroke="black" stroke-width="0.25" stroke-linecap="round" stroke-linejoin="round"/>
</g>
<defs>
<clipPath id="clip0_746_807">
<rect width="148" height="90" fill="white"/>
</clipPath>
</defs>
</svg>
