<svg width="374" height="6" viewBox="0 0 374 6" fill="none" xmlns="http://www.w3.org/2000/svg">
<path d="M0 0.5V1.5H0.125V2.5H0V3.5H0.125V4.5H0V5.5H0.125V5.875H0.5V6H1.5V5.875H2.5V6H3.5V5.875H4.5V6H5.5V5.875H6.5V6H7.5V5.875H8.5V6H9.5V5.875H10.5V6H11.5V5.875H12.5V6H13.5V5.875H14.5V6H15.5V5.875H16.5V6H17.5V5.875H18.5V6H19.5V5.875H20.5V6H21.5V5.875H22.5V6H23.5V5.875H24.5V6H25.5V5.875H26.5V6H27.5V5.875H28.5V6H29.5V5.875H30.5V6H31.5V5.875H32.5V6H33.5V5.875H34.5V6H35.5V5.875H36.5V6H37.5V5.875H38.5V6H39.5V5.875H40.5V6H41.5V5.875H42.5V6H43.5V5.875H44.5V6H45.5V5.875H46.5V6H47.5V5.875H48.5V6H49.5V5.875H49.875V5.5H50V4.5H49.875V3.5H50V2.5H49.875V1.5H50V0.5H49.875V0.125H49.5V0H48.5V0.125H47.5V0H46.5V0.125H45.5V0H44.5V0.125H43.5V0H42.5V0.125H41.5V0H40.5V0.125H39.5V0H38.5V0.125H37.5V0H36.5V0.125H35.5V0H34.5V0.125H33.5V0H32.5V0.125H31.5V0H30.5V0.125H29.5V0H28.5V0.125H27.5V0H26.5V0.125H25.5V0H24.5V0.125H23.5V0H22.5V0.125H21.5V0H20.5V0.125H19.5V0H18.5V0.125H17.5V0H16.5V0.125H15.5V0H14.5V0.125H13.5V0H12.5V0.125H11.5V0H10.5V0.125H9.5V0H8.5V0.125H7.5V0H6.5V0.125H5.5V0H4.5V0.125H3.5V0H2.5V0.125H1.5V0H0.5V0.125H0.125V0.5H0Z" fill="white" stroke="black" stroke-width="0.25" stroke-dasharray="1 1"/>
<path d="M162 0.5V1.5H162.125V2.5H162V3.5H162.125V4.5H162V5.5H162.125V5.875H162.5V6H163.5V5.875H164.5V6H165.5V5.875H166.5V6H167.5V5.875H168.5V6H169.5V5.875H170.5V6H171.5V5.875H172.5V6H173.5V5.875H174.5V6H175.5V5.875H176.5V6H177.5V5.875H178.5V6H179.5V5.875H180.5V6H181.5V5.875H182.5V6H183.5V5.875H184.5V6H185.5V5.875H186.5V6H187.5V5.875H188.5V6H189.5V5.875H190.5V6H191.5V5.875H192.5V6H193.5V5.875H194.5V6H195.5V5.875H196.5V6H197.5V5.875H198.5V6H199.5V5.875H200.5V6H201.5V5.875H202.5V6H203.5V5.875H204.5V6H205.5V5.875H206.5V6H207.5V5.875H208.5V6H209.5V5.875H210.5V6H211.5V5.875H211.875V5.5H212V4.5H211.875V3.5H212V2.5H211.875V1.5H212V0.5H211.875V0.125H211.5V0H210.5V0.125H209.5V0H208.5V0.125H207.5V0H206.5V0.125H205.5V0H204.5V0.125H203.5V0H202.5V0.125H201.5V0H200.5V0.125H199.5V0H198.5V0.125H197.5V0H196.5V0.125H195.5V0H194.5V0.125H193.5V0H192.5V0.125H191.5V0H190.5V0.125H189.5V0H188.5V0.125H187.5V0H186.5V0.125H185.5V0H184.5V0.125H183.5V0H182.5V0.125H181.5V0H180.5V0.125H179.5V0H178.5V0.125H177.5V0H176.5V0.125H175.5V0H174.5V0.125H173.5V0H172.5V0.125H171.5V0H170.5V0.125H169.5V0H168.5V0.125H167.5V0H166.5V0.125H165.5V0H164.5V0.125H163.5V0H162.5V0.125H162.125V0.5H162Z" fill="white" stroke="black" stroke-width="0.25" stroke-dasharray="1 1"/>
<path d="M81 0.5V1.5H81.125V2.5H81V3.5H81.125V4.5H81V5.5H81.125V5.875H81.5V6H82.5V5.875H83.5V6H84.5V5.875H85.5V6H86.5V5.875H87.5V6H88.5V5.875H89.5V6H90.5V5.875H91.5V6H92.5V5.875H93.5V6H94.5V5.875H95.5V6H96.5V5.875H97.5V6H98.5V5.875H99.5V6H100.5V5.875H101.5V6H102.5V5.875H103.5V6H104.5V5.875H105.5V6H106.5V5.875H107.5V6H108.5V5.875H109.5V6H110.5V5.875H111.5V6H112.5V5.875H113.5V6H114.5V5.875H115.5V6H116.5V5.875H117.5V6H118.5V5.875H119.5V6H120.5V5.875H121.5V6H122.5V5.875H123.5V6H124.5V5.875H125.5V6H126.5V5.875H127.5V6H128.5V5.875H129.5V6H130.5V5.875H130.875V5.5H131V4.5H130.875V3.5H131V2.5H130.875V1.5H131V0.5H130.875V0.125H130.5V0H129.5V0.125H128.5V0H127.5V0.125H126.5V0H125.5V0.125H124.5V0H123.5V0.125H122.5V0H121.5V0.125H120.5V0H119.5V0.125H118.5V0H117.5V0.125H116.5V0H115.5V0.125H114.5V0H113.5V0.125H112.5V0H111.5V0.125H110.5V0H109.5V0.125H108.5V0H107.5V0.125H106.5V0H105.5V0.125H104.5V0H103.5V0.125H102.5V0H101.5V0.125H100.5V0H99.5V0.125H98.5V0H97.5V0.125H96.5V0H95.5V0.125H94.5V0H93.5V0.125H92.5V0H91.5V0.125H90.5V0H89.5V0.125H88.5V0H87.5V0.125H86.5V0H85.5V0.125H84.5V0H83.5V0.125H82.5V0H81.5V0.125H81.125V0.5H81Z" fill="white" stroke="black" stroke-width="0.25" stroke-dasharray="1 1"/>
<path d="M243 0.5V1.5H243.125V2.5H243V3.5H243.125V4.5H243V5.5H243.125V5.875H243.5V6H244.5V5.875H245.5V6H246.5V5.875H247.5V6H248.5V5.875H249.5V6H250.5V5.875H251.5V6H252.5V5.875H253.5V6H254.5V5.875H255.5V6H256.5V5.875H257.5V6H258.5V5.875H259.5V6H260.5V5.875H261.5V6H262.5V5.875H263.5V6H264.5V5.875H265.5V6H266.5V5.875H267.5V6H268.5V5.875H269.5V6H270.5V5.875H271.5V6H272.5V5.875H273.5V6H274.5V5.875H275.5V6H276.5V5.875H277.5V6H278.5V5.875H279.5V6H280.5V5.875H281.5V6H282.5V5.875H283.5V6H284.5V5.875H285.5V6H286.5V5.875H287.5V6H288.5V5.875H289.5V6H290.5V5.875H291.5V6H292.5V5.875H292.875V5.5H293V4.5H292.875V3.5H293V2.5H292.875V1.5H293V0.5H292.875V0.125H292.5V0H291.5V0.125H290.5V0H289.5V0.125H288.5V0H287.5V0.125H286.5V0H285.5V0.125H284.5V0H283.5V0.125H282.5V0H281.5V0.125H280.5V0H279.5V0.125H278.5V0H277.5V0.125H276.5V0H275.5V0.125H274.5V0H273.5V0.125H272.5V0H271.5V0.125H270.5V0H269.5V0.125H268.5V0H267.5V0.125H266.5V0H265.5V0.125H264.5V0H263.5V0.125H262.5V0H261.5V0.125H260.5V0H259.5V0.125H258.5V0H257.5V0.125H256.5V0H255.5V0.125H254.5V0H253.5V0.125H252.5V0H251.5V0.125H250.5V0H249.5V0.125H248.5V0H247.5V0.125H246.5V0H245.5V0.125H244.5V0H243.5V0.125H243.125V0.5H243Z" fill="white" stroke="black" stroke-width="0.25" stroke-dasharray="1 1"/>
<path d="M324 0.5V1.5H324.125V2.5H324V3.5H324.125V4.5H324V5.5H324.125V5.875H324.5V6H325.5V5.875H326.5V6H327.5V5.875H328.5V6H329.5V5.875H330.5V6H331.5V5.875H332.5V6H333.5V5.875H334.5V6H335.5V5.875H336.5V6H337.5V5.875H338.5V6H339.5V5.875H340.5V6H341.5V5.875H342.5V6H343.5V5.875H344.5V6H345.5V5.875H346.5V6H347.5V5.875H348.5V6H349.5V5.875H350.5V6H351.5V5.875H352.5V6H353.5V5.875H354.5V6H355.5V5.875H356.5V6H357.5V5.875H358.5V6H359.5V5.875H360.5V6H361.5V5.875H362.5V6H363.5V5.875H364.5V6H365.5V5.875H366.5V6H367.5V5.875H368.5V6H369.5V5.875H370.5V6H371.5V5.875H372.5V6H373.5V5.875H373.875V5.5H374V4.5H373.875V3.5H374V2.5H373.875V1.5H374V0.5H373.875V0.125H373.5V0H372.5V0.125H371.5V0H370.5V0.125H369.5V0H368.5V0.125H367.5V0H366.5V0.125H365.5V0H364.5V0.125H363.5V0H362.5V0.125H361.5V0H360.5V0.125H359.5V0H358.5V0.125H357.5V0H356.5V0.125H355.5V0H354.5V0.125H353.5V0H352.5V0.125H351.5V0H350.5V0.125H349.5V0H348.5V0.125H347.5V0H346.5V0.125H345.5V0H344.5V0.125H343.5V0H342.5V0.125H341.5V0H340.5V0.125H339.5V0H338.5V0.125H337.5V0H336.5V0.125H335.5V0H334.5V0.125H333.5V0H332.5V0.125H331.5V0H330.5V0.125H329.5V0H328.5V0.125H327.5V0H326.5V0.125H325.5V0H324.5V0.125H324.125V0.5H324Z" fill="white" stroke="black" stroke-width="0.25" stroke-dasharray="1 1"/>
</svg>
