<svg width="39" height="4" viewBox="0 0 39 4" fill="none" xmlns="http://www.w3.org/2000/svg">
<g clip-path="url(#clip0_1665_8052)">
<path d="M37.2301 1.70987C37.2301 1.70987 37.2301 1.70987 37.2301 1.71987C37.2301 1.71987 37.2301 1.75987 37.2301 1.79987C37.2301 1.83987 37.2301 1.87987 37.2301 1.87987C37.2301 1.87987 37.2301 1.87987 37.2301 1.88987L37.1801 1.88987L37.1801 2.15987L37.1501 2.15987L37.1501 3.06987L37.1201 3.06987L37.0501 3.06987L37.0501 3.13987L37.0501 3.17987L37.0501 3.21987L37.0501 3.36987L1.28006 3.36988L1.28006 3.05988L1.27006 3.05988L1.19006 3.05988L1.19006 2.15988L1.16006 2.15988L1.16006 1.88988L1.11006 1.88988C1.11006 1.88988 1.11006 1.88988 1.11006 1.87988C1.11006 1.87988 1.11006 1.83988 1.11006 1.79988C1.11006 1.75988 1.11006 1.71988 1.11006 1.71988C1.11006 1.71988 1.11006 1.71988 1.11006 1.70988L1.16006 1.70988L1.16006 0.969876C0.830061 0.739876 0.490061 0.499876 0.160061 0.269876L0.160061 0.119876L38.1901 0.119873L38.1901 0.269873C37.8601 0.499873 37.5201 0.739873 37.1901 0.969873L37.1901 1.70987L37.2401 1.70987L37.2301 1.70987Z" fill="white"/>
<path d="M10.1801 0.749756L1.31005 0.749757" stroke="#010101" stroke-width="0.25" stroke-linecap="round" stroke-linejoin="round"/>
<path d="M1.25 0.97998L1.25 0.81998" stroke="#010101" stroke-width="0.25" stroke-linecap="round" stroke-linejoin="round"/>
<path d="M1.24 1.0498L1.25 1.0498L1.25 0.979805" stroke="#010101" stroke-width="0.25" stroke-linecap="round" stroke-linejoin="round"/>
<path d="M1.16011 1.0498L1.24011 1.0498" stroke="#010101" stroke-width="0.25" stroke-linecap="round" stroke-linejoin="round"/>
<path d="M37.0001 0.749756L28.1301 0.749757" stroke="#010101" stroke-width="0.25" stroke-linecap="round" stroke-linejoin="round"/>
<path d="M1.26001 1.05981L1.24001 1.05981" stroke="#010101" stroke-width="0.25" stroke-linecap="round" stroke-linejoin="round"/>
<path d="M27.88 0.749756L10.43 0.749757" stroke="#010101" stroke-width="0.25" stroke-linecap="round" stroke-linejoin="round"/>
<path d="M1.13 2.1499L1.13 0.969902" stroke="#010101" stroke-width="0.25" stroke-linecap="round" stroke-linejoin="round"/>
<path d="M37.1901 1.69995L37.2401 1.69995" stroke="#010101" stroke-width="0.25" stroke-linecap="round" stroke-linejoin="round"/>
<path d="M37.05 0.81998L37.05 0.97998" stroke="#010101" stroke-width="0.25" stroke-linecap="round" stroke-linejoin="round"/>
<path d="M1.08001 1.69995L1.13 1.69995" stroke="#010101" stroke-width="0.25" stroke-linecap="round" stroke-linejoin="round"/>
<path d="M1.13 1.87988L1.08001 1.87988" stroke="#010101" stroke-width="0.25" stroke-linecap="round" stroke-linejoin="round"/>
<path d="M37.0701 1.0498L37.0601 1.0498L37.0601 0.979805" stroke="#010101" stroke-width="0.25" stroke-linecap="round" stroke-linejoin="round"/>
<path d="M10.2201 1.05981L1.25009 1.05982L1.25009 0.989815" stroke="#010101" stroke-width="0.25" stroke-linecap="round" stroke-linejoin="round"/>
<path d="M37.2301 1.87988L37.1801 1.87988" stroke="#010101" stroke-width="0.25" stroke-linecap="round" stroke-linejoin="round"/>
<path d="M10.2801 1.35986L10.3201 1.35986" stroke="#010101" stroke-width="0.25" stroke-linecap="round" stroke-linejoin="round"/>
<path d="M10.4301 0.549824C10.4301 0.549824 10.4401 0.549824 10.4501 0.549824C10.4501 0.549824 10.4501 0.559824 10.4501 0.569824" stroke="#010101" stroke-width="0.25" stroke-linecap="round" stroke-linejoin="round"/>
<path d="M10.3401 1.34987C10.3401 1.34987 10.3401 1.36987 10.3201 1.36987" stroke="#010101" stroke-width="0.25" stroke-linecap="round" stroke-linejoin="round"/>
<path d="M10.28 1.35986C10.28 1.35986 10.26 1.35986 10.26 1.33986" stroke="#010101" stroke-width="0.25" stroke-linecap="round" stroke-linejoin="round"/>
<path d="M10.4301 0.549805L10.1801 0.549805" stroke="#010101" stroke-width="0.25" stroke-linecap="round" stroke-linejoin="round"/>
<path d="M10.1601 0.579834C10.1601 0.579834 10.1601 0.569834 10.1601 0.559834C10.1601 0.559834 10.1601 0.559834 10.1801 0.559834" stroke="#010101" stroke-width="0.25" stroke-linecap="round" stroke-linejoin="round"/>
<path d="M37.2401 1.86987C37.2401 1.86987 37.2401 1.82987 37.2401 1.79987C37.2401 1.76987 37.2401 1.71987 37.2401 1.72987" stroke="#010101" stroke-width="0.25" stroke-linecap="round" stroke-linejoin="round"/>
<path d="M37.2401 1.86988C37.2401 1.86988 37.2401 1.86988 37.2401 1.87988" stroke="#010101" stroke-width="0.25" stroke-linecap="round" stroke-linejoin="round"/>
<path d="M37.2301 1.69996C37.2301 1.69996 37.2301 1.69996 37.2301 1.70996" stroke="#010101" stroke-width="0.25" stroke-linecap="round" stroke-linejoin="round"/>
<path d="M1.24011 3.0498L1.16011 3.0498" stroke="#010101" stroke-width="0.25" stroke-linecap="round" stroke-linejoin="round"/>
<path d="M37.07 1.0498L37.15 1.0498" stroke="#010101" stroke-width="0.25" stroke-linecap="round" stroke-linejoin="round"/>
<path d="M1.25 3.35986L1.25 3.12986" stroke="#010101" stroke-width="0.25" stroke-linecap="round" stroke-linejoin="round"/>
<path d="M37.15 1.04995L37.15 1.69995" stroke="#010101" stroke-width="0.25" stroke-linecap="round" stroke-linejoin="round"/>
<path d="M1.25005 3.35987L37.05 3.35986" stroke="#010101" stroke-width="0.25" stroke-linecap="round" stroke-linejoin="round"/>
<path d="M36.8501 0.549805L28.1301 0.549805" stroke="#010101" stroke-width="0.25" stroke-linecap="round" stroke-linejoin="round"/>
<path d="M1.15 0.949951L1.25 0.949951" stroke="#010101" stroke-width="0.25" stroke-linecap="round" stroke-linejoin="round"/>
<path d="M37.15 3.0498L37.07 3.0498" stroke="#010101" stroke-width="0.25" stroke-linecap="round" stroke-linejoin="round"/>
<path d="M1.07007 1.86987C1.07007 1.86987 1.07007 1.82987 1.07007 1.79987C1.07007 1.76987 1.07007 1.71987 1.07007 1.72987" stroke="#010101" stroke-width="0.25" stroke-linecap="round" stroke-linejoin="round"/>
<path d="M1.08008 1.87988C1.08008 1.87988 1.08008 1.87988 1.08008 1.86988" stroke="#010101" stroke-width="0.25" stroke-linecap="round" stroke-linejoin="round"/>
<path d="M1.07007 1.71997C1.07007 1.71997 1.07007 1.71997 1.07007 1.70997" stroke="#010101" stroke-width="0.25" stroke-linecap="round" stroke-linejoin="round"/>
<path d="M18.8301 0.579922L18.8301 0.669922" stroke="#010101" stroke-width="0.25" stroke-linecap="round" stroke-linejoin="round"/>
<path d="M18.8701 0.699951L19.4501 0.699951" stroke="#010101" stroke-width="0.25" stroke-linecap="round" stroke-linejoin="round"/>
<path d="M19.4501 0.549834C19.4501 0.549834 19.4801 0.559834 19.4801 0.579834" stroke="#010101" stroke-width="0.25" stroke-linecap="round" stroke-linejoin="round"/>
<path d="M18.8401 0.579834C18.8401 0.579834 18.8501 0.549834 18.8701 0.549834" stroke="#010101" stroke-width="0.25" stroke-linecap="round" stroke-linejoin="round"/>
<path d="M19.4501 0.699951C19.4501 0.699951 19.4801 0.689951 19.4801 0.669951" stroke="#010101" stroke-width="0.25" stroke-linecap="round" stroke-linejoin="round"/>
<path d="M18.8401 0.669951C18.8401 0.669951 18.8501 0.699951 18.8701 0.699951" stroke="#010101" stroke-width="0.25" stroke-linecap="round" stroke-linejoin="round"/>
<path d="M19.4801 0.669922L19.4801 0.579922" stroke="#010101" stroke-width="0.25" stroke-linecap="round" stroke-linejoin="round"/>
<path d="M18.8701 0.549805L19.4501 0.549805" stroke="#010101" stroke-width="0.25" stroke-linecap="round" stroke-linejoin="round"/>
<path d="M1.16003 1.69995L1.16003 1.04995" stroke="#010101" stroke-width="0.25" stroke-linecap="round" stroke-linejoin="round"/>
<path d="M18.8701 0.549805L10.4401 0.549805" stroke="#010101" stroke-width="0.25" stroke-linecap="round" stroke-linejoin="round"/>
<path d="M37.06 0.949951L37.16 0.949951" stroke="#010101" stroke-width="0.25" stroke-linecap="round" stroke-linejoin="round"/>
<path d="M1.26001 3.0498L1.24001 3.0498" stroke="#010101" stroke-width="0.25" stroke-linecap="round" stroke-linejoin="round"/>
<path d="M37.1901 0.969971L37.1601 0.969971" stroke="#010101" stroke-width="0.25" stroke-linecap="round" stroke-linejoin="round"/>
<path d="M38.16 0.249756L38.16 0.149756" stroke="#010101" stroke-width="0.25" stroke-linecap="round" stroke-linejoin="round"/>
<path d="M0.160034 0.149756L0.160034 0.249756" stroke="#010101" stroke-width="0.25" stroke-linecap="round" stroke-linejoin="round"/>
<path d="M1.15002 2.1499L1.12003 2.1499" stroke="#010101" stroke-width="0.25" stroke-linecap="round" stroke-linejoin="round"/>
<path d="M37.1901 2.1499L37.1601 2.1499" stroke="#010101" stroke-width="0.25" stroke-linecap="round" stroke-linejoin="round"/>
<path d="M37.13 0.129883L1.19001 0.129886" stroke="#010101" stroke-width="0.25" stroke-linecap="round" stroke-linejoin="round"/>
<path d="M37.1901 0.969971C37.5201 0.739971 37.8601 0.499971 38.1901 0.269971" stroke="#010101" stroke-width="0.25" stroke-linecap="round" stroke-linejoin="round"/>
<path d="M0.130005 0.269971C0.460005 0.499971 0.800005 0.739971 1.13 0.969971" stroke="#010101" stroke-width="0.25" stroke-linecap="round" stroke-linejoin="round"/>
<path d="M38.1901 0.269775L38.1901 0.119776" stroke="#010101" stroke-width="0.25" stroke-linecap="round" stroke-linejoin="round"/>
<path d="M0.130005 0.129785L0.130005 0.279785" stroke="#010101" stroke-width="0.25" stroke-linecap="round" stroke-linejoin="round"/>
<path d="M1.26001 1.05981L1.26001 2.05981L1.26001 3.05981" stroke="#010101" stroke-width="0.25" stroke-linecap="round" stroke-linejoin="round"/>
<path d="M37.05 1.05981L28.08 1.05982" stroke="#010101" stroke-width="0.25" stroke-linecap="round" stroke-linejoin="round"/>
<path d="M37.05 3.0498L37.05 2.0498L37.05 1.0498" stroke="#010101" stroke-width="0.25" stroke-linecap="round" stroke-linejoin="round"/>
<path d="M10.1801 0.549805L1.46005 0.549805" stroke="#010101" stroke-width="0.25" stroke-linecap="round" stroke-linejoin="round"/>
<path d="M27.98 1.35986L28.02 1.35986" stroke="#010101" stroke-width="0.25" stroke-linecap="round" stroke-linejoin="round"/>
<path d="M28.13 0.549824C28.13 0.549824 28.14 0.549824 28.15 0.549824C28.15 0.549824 28.15 0.559824 28.15 0.569824" stroke="#010101" stroke-width="0.25" stroke-linecap="round" stroke-linejoin="round"/>
<path d="M28.04 1.34987C28.04 1.34987 28.04 1.36987 28.02 1.36987" stroke="#010101" stroke-width="0.25" stroke-linecap="round" stroke-linejoin="round"/>
<path d="M27.9801 1.35986C27.9801 1.35986 27.9601 1.35986 27.9601 1.33986" stroke="#010101" stroke-width="0.25" stroke-linecap="round" stroke-linejoin="round"/>
<path d="M28.13 0.549805L27.88 0.549805" stroke="#010101" stroke-width="0.25" stroke-linecap="round" stroke-linejoin="round"/>
<path d="M27.86 0.579834C27.86 0.579834 27.86 0.569834 27.86 0.559834C27.86 0.559834 27.86 0.559834 27.88 0.559834" stroke="#010101" stroke-width="0.25" stroke-linecap="round" stroke-linejoin="round"/>
<path d="M27.88 0.549805L19.45 0.549805" stroke="#010101" stroke-width="0.25" stroke-linecap="round" stroke-linejoin="round"/>
<path d="M27.92 1.05981L25.12 1.05981L13.19 1.05982L10.39 1.05982" stroke="#010101" stroke-width="0.25" stroke-linecap="round" stroke-linejoin="round"/>
<path d="M10.4501 0.579854L10.3401 1.34985" stroke="#010101" stroke-width="0.25" stroke-linecap="round" stroke-linejoin="round"/>
<path d="M10.27 1.34985L10.16 0.579854" stroke="#010101" stroke-width="0.25" stroke-linecap="round" stroke-linejoin="round"/>
<path d="M1.24 3.04987L1.25 3.04987L1.25 3.11987" stroke="#010101" stroke-width="0.25" stroke-linecap="round" stroke-linejoin="round"/>
<path d="M37.0701 3.04987L37.0601 3.04987L37.0601 3.11987" stroke="#010101" stroke-width="0.25" stroke-linecap="round" stroke-linejoin="round"/>
<path d="M37.05 3.11985L37.05 3.34985" stroke="#010101" stroke-width="0.25" stroke-linecap="round" stroke-linejoin="round"/>
<path d="M37.05 3.04987L25.12 3.04987L13.19 3.04988L1.26005 3.04988L1.26005 3.11988" stroke="#010101" stroke-width="0.25" stroke-linecap="round" stroke-linejoin="round"/>
<path d="M37.0701 3.04987L37.0501 3.04987L37.0501 3.11987" stroke="#010101" stroke-width="0.25" stroke-linecap="round" stroke-linejoin="round"/>
<path d="M37.0701 1.0498L37.0501 1.0498L37.0501 0.979805" stroke="#010101" stroke-width="0.25" stroke-linecap="round" stroke-linejoin="round"/>
<path d="M36.85 0.549805L37.15 0.149805" stroke="#010101" stroke-width="0.25" stroke-linecap="round" stroke-linejoin="round"/>
<path d="M1.15007 0.149805L1.45007 0.549805" stroke="#010101" stroke-width="0.25" stroke-linecap="round" stroke-linejoin="round"/>
<path d="M37.16 0.949951L38.16 0.249951" stroke="#010101" stroke-width="0.25" stroke-linecap="round" stroke-linejoin="round"/>
<path d="M0.160034 0.249951L1.16003 0.949951" stroke="#010101" stroke-width="0.25" stroke-linecap="round" stroke-linejoin="round"/>
<path d="M0.160034 0.149902L1.16003 0.149902" stroke="#010101" stroke-width="0.25" stroke-linecap="round" stroke-linejoin="round"/>
<path d="M37.16 0.149902L38.16 0.149902" stroke="#010101" stroke-width="0.25" stroke-linecap="round" stroke-linejoin="round"/>
<path d="M0.130062 0.129883L1.19006 0.129883" stroke="#010101" stroke-width="0.25" stroke-linecap="round" stroke-linejoin="round"/>
<path d="M37.1301 0.129883L38.1901 0.129883" stroke="#010101" stroke-width="0.25" stroke-linecap="round" stroke-linejoin="round"/>
<path d="M28.15 0.579854L28.04 1.34985" stroke="#010101" stroke-width="0.25" stroke-linecap="round" stroke-linejoin="round"/>
<path d="M27.9701 1.34985L27.8601 0.579854" stroke="#010101" stroke-width="0.25" stroke-linecap="round" stroke-linejoin="round"/>
<path d="M1.16003 3.0498L1.16003 1.8798" stroke="#010101" stroke-width="0.25" stroke-linecap="round" stroke-linejoin="round"/>
<path d="M37.15 1.8798L37.15 3.0498" stroke="#010101" stroke-width="0.25" stroke-linecap="round" stroke-linejoin="round"/>
<path d="M36.85 0.549951L37.15 0.949951" stroke="#010101" stroke-width="0.25" stroke-linecap="round" stroke-linejoin="round"/>
<path d="M1.15007 0.949951L1.45007 0.549951" stroke="#010101" stroke-width="0.25" stroke-linecap="round" stroke-linejoin="round"/>
<path d="M37.16 0.949902L37.16 2.1499" stroke="#010101" stroke-width="0.25" stroke-linecap="round" stroke-linejoin="round"/>
<path d="M1.15002 2.1499L1.15002 0.949902" stroke="#010101" stroke-width="0.25" stroke-linecap="round" stroke-linejoin="round"/>
<path d="M37.1901 0.969902L37.1901 2.1499" stroke="#010101" stroke-width="0.25" stroke-linecap="round" stroke-linejoin="round"/>
</g>
<defs>
<clipPath id="clip0_1665_8052">
<rect width="38.31" height="3.48" fill="white" transform="translate(38.3101 3.47998) rotate(180)"/>
</clipPath>
</defs>
</svg>
