<?xml version="1.0" encoding="UTF-8"?>
<svg id="Layer_1" data-name="Layer 1" xmlns="http://www.w3.org/2000/svg" width="15" height="2.19" viewBox="0 0 15 2.19">
  <defs>
    <style>
      .cls-1 {
        fill: #fff;
      }

      .cls-2 {
        fill: none;
        stroke: #010101;
        stroke-linecap: round;
        stroke-linejoin: round;
        stroke-width: .25px;
      }
    </style>
  </defs>
  <rect class="cls-1" x="0" width="14.98" height="2.18"/>
  <g id="Frame">
    <path class="cls-2" d="m14.88,1.97H.12h14.75H1.5h12v.09H1.5h12"/>
    <path class="cls-2" d="m14.88,2.06h-1.37"/>
    <path class="cls-2" d="m14.88,1.97v.09H.12h14.75"/>
    <path class="cls-2" d="m.12,1.97v.09h1.38"/>
    <path class="cls-2" d="m1.5,1.97v.09"/>
    <path class="cls-2" d="m.12,1.97h1.38"/>
    <path class="cls-2" d="m.12,1.97v.09h1.38"/>
    <path class="cls-2" d="m1.5,1.97v.09"/>
    <path class="cls-2" d="m.12,1.97h1.38"/>
    <path class="cls-2" d="m14.88,1.97v.09h-1.37"/>
    <path class="cls-2" d="m13.5,1.97v.09"/>
    <path class="cls-2" d="m14.88,1.97h-1.37"/>
    <path class="cls-2" d="m1.5.18H.12h1.38v.05-.05Z"/>
    <path class="cls-2" d="m1.5.22H.12v-.05"/>
    <path class="cls-2" d="m.12.22v-.05"/>
    <path class="cls-2" d="m.12.22h1.38"/>
    <path class="cls-2" d="m13.5.18h1.37-1.37v.05-.05Z"/>
    <path class="cls-2" d="m13.5.22h1.37v-.05"/>
    <path class="cls-2" d="m14.88.22v-.05"/>
    <path class="cls-2" d="m14.88.22h-1.37"/>
    <path class="cls-2" d="m.12.13h14.75H.12v.05h14.75v-.05"/>
    <path class="cls-2" d="m14.88.18v-.05"/>
    <path class="cls-2" d="m14.88.18H.12v-.05"/>
    <path class="cls-2" d="m14.88.22H.12h14.75v.05H.12v-.05"/>
    <path class="cls-2" d="m.12.27v-.05"/>
    <path class="cls-2" d="m.12.27h14.75v-.05"/>
    <path class="cls-2" d="m13.5.18H1.5h12v1.79H1.5h12"/>
    <path class="cls-2" d="m13.57,1.97h-.07"/>
    <path class="cls-2" d="m13.57.18v1.79"/>
    <path class="cls-2" d="m13.57.18H1.43h12.14Z"/>
    <path class="cls-2" d="m13.57,1.97H1.43h12.14Z"/>
    <path class="cls-2" d="m1.5.18v1.79"/>
    <path class="cls-2" d="m1.43,1.97h.07"/>
    <path class="cls-2" d="m1.43.18v1.79"/>
    <path class="cls-2" d="m1.5.18v1.79"/>
    <path class="cls-2" d="m1.43,1.97h.07"/>
    <path class="cls-2" d="m1.43.18v1.79"/>
    <path class="cls-2" d="m13.5.18v1.79"/>
    <path class="cls-2" d="m13.57,1.97h-.07"/>
    <path class="cls-2" d="m13.57.18v1.79"/>
  </g>
</svg>