<svg width="14" height="4" viewBox="0 0 14 4" fill="none" xmlns="http://www.w3.org/2000/svg">
<g clip-path="url(#clip0_1375_18964)">
<path d="M13.4299 2.01001C13.4299 2.01001 13.4199 1.99001 13.4099 1.98001L13.4299 2.00001" fill="white"/>
<path d="M12.43 1.30002C12.51 1.33002 12.59 1.36002 12.67 1.39002C12.78 1.43002 12.88 1.49002 12.97 1.55002C13.08 1.62002 13.18 1.71002 13.27 1.81002C13.36 1.90002 13.43 2.00002 13.5 2.11002C13.57 2.23002 13.64 2.35002 13.68 2.48002C13.73 2.62002 13.76 2.77002 13.78 2.92002C13.78 2.92002 13.75 2.92002 13.68 2.92002L13.68 3.00002C13.68 3.08002 13.59 3.13002 13.51 3.18002C13.43 3.22002 13.36 3.26002 13.29 3.28002C13.21 3.31002 13.13 3.33002 13.04 3.36002C12.93 3.39002 12.83 3.41002 12.72 3.43002C12.49 3.48002 12.25 3.50002 12.02 3.52002C12.02 3.52002 12 3.52002 11.99 3.52002L11.87 3.52002C11.87 3.52002 11.83 3.52002 11.84 3.52002C11.79 3.52002 11.73 3.52002 11.68 3.50002C11.47 3.48002 11.3 3.45002 11.13 3.42002C11.03 3.40002 10.93 3.38002 10.82 3.35002C10.74 3.33002 10.65 3.30002 10.57 3.27002C10.49 3.24002 10.42 3.21002 10.35 3.17002C10.27 3.13002 10.18 3.07002 10.18 2.99002L10.18 2.91002C10.11 2.91002 10.08 2.91002 10.08 2.91002C10.1 2.76002 10.13 2.61002 10.18 2.47002C10.23 2.34002 10.29 2.21002 10.36 2.10002C10.43 1.99002 10.5 1.89002 10.59 1.80002C10.61 1.78002 10.62 1.76002 10.64 1.75002L10.58 1.65002L9.72003 2.18002C9.66003 2.22002 9.58003 2.24002 9.51003 2.24002L4.40003 2.24002C4.33003 2.24002 4.25003 2.22002 4.19003 2.18002L3.33003 1.65002L3.27003 1.75002C3.27003 1.75002 3.31003 1.78002 3.32003 1.80002C3.41003 1.89002 3.48003 1.99002 3.55003 2.10002C3.62003 2.22002 3.69003 2.34002 3.73003 2.47002C3.78003 2.61002 3.81003 2.76002 3.83003 2.91002C3.83003 2.91002 3.80003 2.91002 3.73003 2.91002L3.73003 2.99002C3.73003 3.07002 3.64003 3.12002 3.56003 3.17002C3.48003 3.21002 3.41003 3.25002 3.34003 3.27002C3.26003 3.30002 3.18003 3.32002 3.09003 3.35002C2.98003 3.38002 2.88003 3.40002 2.77003 3.42002C2.54003 3.47002 2.30003 3.49002 2.07003 3.51002C2.07003 3.51002 2.05003 3.51002 2.04003 3.51002L1.92003 3.51002C1.92003 3.51002 1.88003 3.51002 1.89003 3.51002C1.84003 3.51002 1.78003 3.51002 1.73003 3.49002C1.52003 3.47002 1.35003 3.44002 1.18003 3.41002C1.08003 3.39002 0.980029 3.37002 0.870029 3.34002C0.790029 3.32002 0.700029 3.29002 0.620029 3.26002C0.540029 3.23002 0.470029 3.20002 0.400029 3.16002C0.320029 3.12002 0.230029 3.06002 0.230029 2.98002L0.230029 2.90002C0.160029 2.90002 0.13003 2.90002 0.13003 2.90002C0.15003 2.75002 0.180029 2.60002 0.230029 2.46002C0.280029 2.32002 0.340029 2.20002 0.410029 2.09002C0.480029 1.98002 0.560029 1.88002 0.640029 1.79002C0.730029 1.69002 0.830029 1.60002 0.940029 1.53002C0.990029 1.50002 1.03003 1.47002 1.08003 1.45002C1.21003 1.39002 1.34003 1.33002 1.48003 1.28002C1.49003 1.28002 1.51003 1.28002 1.52003 1.27002C1.61003 1.25002 1.71003 1.23002 1.80003 1.23002L2.16003 1.23002C2.25003 1.23002 2.36003 1.25002 2.44003 1.27002C2.45003 1.27002 2.47003 1.27002 2.48003 1.28002C2.56003 1.31002 2.64003 1.34002 2.72003 1.37002C2.72003 1.37002 2.73003 1.37002 2.74003 1.37002L2.79003 1.29002L2.13003 0.89002L2.09003 0.860021C2.03003 0.820021 1.99003 0.760021 1.99003 0.690021L1.99003 0.0900207C1.99003 0.0900207 1.99003 0.0900207 2.02003 0.0900207L11.82 0.0900199L11.92 0.0900199L11.92 0.69002C11.92 0.76002 11.88 0.82002 11.82 0.86002L11.78 0.89002L11.12 1.29002L11.17 1.37002C11.17 1.37002 11.18 1.37002 11.19 1.37002C11.27 1.34002 11.35 1.30002 11.43 1.28002C11.44 1.28002 11.46 1.28002 11.47 1.27002C11.56 1.25002 11.66 1.23002 11.75 1.23002L12.11 1.23002C12.2 1.23002 12.31 1.25002 12.39 1.27002C12.4 1.27002 12.42 1.27002 12.43 1.28002C12.51 1.31002 12.59 1.34002 12.67 1.37002C12.77 1.42002 12.88 1.46002 12.97 1.53002C13.07 1.60002 13.17 1.69002 13.27 1.79002C13.35 1.88002 13.43 1.98002 13.5 2.09002" fill="white"/>
<path d="M3.50001 2.03005C3.50001 2.03005 3.50001 2.04005 3.51001 2.05005Z" fill="white"/>
<path d="M3.63013 2.26001L3.61013 2.23001C3.61013 2.23001 3.62013 2.24001 3.63013 2.25001" fill="white"/>
<path d="M3.3198 1.80986C3.4098 1.89986 3.4798 1.99986 3.5498 2.10986" stroke="#010101" stroke-width="0.25" stroke-linecap="round" stroke-linejoin="round"/>
<path d="M1.88989 3.52979C1.88989 3.52979 1.77989 3.52979 1.72989 3.50979C1.51989 3.48979 1.34989 3.45979 1.17989 3.42979C1.07989 3.40979 0.979893 3.38979 0.869893 3.35979C0.789893 3.33979 0.699893 3.30979 0.619893 3.27979C0.539893 3.24979 0.469893 3.21979 0.399893 3.17979C0.319893 3.13979 0.229893 3.07979 0.229893 2.99979" stroke="#010101" stroke-width="0.25" stroke-linecap="round" stroke-linejoin="round"/>
<path d="M3.72998 2.91976L3.72998 2.99976" stroke="#010101" stroke-width="0.25" stroke-linecap="round" stroke-linejoin="round"/>
<path d="M3.02983 1.54981C3.13983 1.61981 3.23983 1.70981 3.32983 1.80981" stroke="#010101" stroke-width="0.25" stroke-linecap="round" stroke-linejoin="round"/>
<path d="M9.71979 2.17969L11.7798 0.919688" stroke="#010101" stroke-width="0.25" stroke-linecap="round" stroke-linejoin="round"/>
<path d="M3.32983 1.65977L3.26983 1.75977" stroke="#010101" stroke-width="0.25" stroke-linecap="round" stroke-linejoin="round"/>
<path d="M0.219841 2.99976C0.219841 2.99976 0.52984 2.99976 0.86984 2.99976L3.07984 2.99976C3.41984 2.99976 3.75984 2.99976 3.72984 2.99976" stroke="#010101" stroke-width="0.25" stroke-linecap="round" stroke-linejoin="round"/>
<path d="M10.1699 2.99976L10.1699 2.91976" stroke="#010101" stroke-width="0.25" stroke-linecap="round" stroke-linejoin="round"/>
<path d="M11.83 3.52979C11.83 3.52979 11.85 3.52979 11.86 3.52979L11.98 3.52979" stroke="#010101" stroke-width="0.25" stroke-linecap="round" stroke-linejoin="round"/>
<path d="M13.6799 2.99978C13.6799 3.07978 13.5899 3.12978 13.5099 3.17978C13.4299 3.21978 13.3599 3.25978 13.2899 3.27978C13.2099 3.30978 13.1299 3.32978 13.0399 3.35978C12.9299 3.38978 12.8299 3.40978 12.7199 3.42978C12.4899 3.47978 12.2499 3.49978 12.0199 3.51978" stroke="#010101" stroke-width="0.25" stroke-linecap="round" stroke-linejoin="round"/>
<path d="M2.12994 0.919688L4.18994 2.17969" stroke="#010101" stroke-width="0.25" stroke-linecap="round" stroke-linejoin="round"/>
<path d="M12.97 1.5498C12.87 1.4898 12.77 1.4398 12.67 1.3898" stroke="#010101" stroke-width="0.25" stroke-linecap="round" stroke-linejoin="round"/>
<path d="M3.54998 2.10974C3.61998 2.22974 3.68998 2.34974 3.72998 2.47974" stroke="#010101" stroke-width="0.25" stroke-linecap="round" stroke-linejoin="round"/>
<path d="M1.47998 1.2998C1.47998 1.2998 1.50998 1.2998 1.51998 1.2898C1.60998 1.2698 1.70998 1.2498 1.79998 1.2498L2.15998 1.2498C2.24998 1.2498 2.35998 1.2698 2.43998 1.2898C2.44998 1.2898 2.46998 1.2898 2.47998 1.2998" stroke="#010101" stroke-width="0.25" stroke-linecap="round" stroke-linejoin="round"/>
<path d="M12.6699 1.3999C12.5899 1.3699 12.5099 1.3299 12.4299 1.3099" stroke="#010101" stroke-width="0.25" stroke-linecap="round" stroke-linejoin="round"/>
<path d="M3.72998 2.99978C3.72998 3.07978 3.63998 3.12978 3.55998 3.17978C3.47998 3.21978 3.40998 3.25978 3.33998 3.27978C3.25998 3.30978 3.17998 3.32978 3.08998 3.35978C2.97998 3.38978 2.87998 3.40978 2.76998 3.42978C2.53998 3.47978 2.29998 3.49978 2.06998 3.51978" stroke="#010101" stroke-width="0.25" stroke-linecap="round" stroke-linejoin="round"/>
<path d="M10.0699 2.91968C10.0699 2.91968 10.4299 2.91968 10.8199 2.91968L13.0299 2.91968C13.4199 2.91968 13.8099 2.91968 13.7799 2.91968" stroke="#010101" stroke-width="0.25" stroke-linecap="round" stroke-linejoin="round"/>
<path d="M13.4998 2.10986C13.4298 1.99986 13.3598 1.89986 13.2698 1.80986" stroke="#010101" stroke-width="0.25" stroke-linecap="round" stroke-linejoin="round"/>
<path d="M5.08984 0.699707L4.92984 0.699707" stroke="#010101" stroke-width="0.25" stroke-linecap="round" stroke-linejoin="round"/>
<path d="M11.9199 0.129883C11.9199 0.129883 11.8699 0.129883 11.8199 0.129883" stroke="#010101" stroke-width="0.25" stroke-linecap="round" stroke-linejoin="round"/>
<path d="M10.6399 1.75977L10.5799 1.65977" stroke="#010101" stroke-width="0.25" stroke-linecap="round" stroke-linejoin="round"/>
<path d="M13.4299 2.00977C13.4299 2.00977 13.4199 1.98977 13.4099 1.97977" stroke="#010101" stroke-width="0.25" stroke-linecap="round" stroke-linejoin="round"/>
<path d="M11.9899 3.52979C11.9899 3.52979 12.0299 3.52979 12.0199 3.52979" stroke="#010101" stroke-width="0.25" stroke-linecap="round" stroke-linejoin="round"/>
<path d="M13.6799 2.47974C13.6299 2.34974 13.5699 2.21974 13.4999 2.10974" stroke="#010101" stroke-width="0.25" stroke-linecap="round" stroke-linejoin="round"/>
<path d="M2.73979 1.3999L2.78979 1.3199" stroke="#010101" stroke-width="0.25" stroke-linecap="round" stroke-linejoin="round"/>
<path d="M2.06982 3.52979C2.06982 3.52979 2.04982 3.52979 2.03982 3.52979L1.91982 3.52979" stroke="#010101" stroke-width="0.25" stroke-linecap="round" stroke-linejoin="round"/>
<path d="M2.71978 1.39981C2.82978 1.43981 2.92978 1.49981 3.01978 1.55981" stroke="#010101" stroke-width="0.25" stroke-linecap="round" stroke-linejoin="round"/>
<path d="M10.0699 2.91968C10.0899 2.76968 10.1199 2.61968 10.1699 2.47968" stroke="#010101" stroke-width="0.25" stroke-linecap="round" stroke-linejoin="round"/>
<path d="M3.62988 2.24976L3.62988 2.21976L3.60988 2.20976" stroke="#010101" stroke-width="0.25" stroke-linecap="round" stroke-linejoin="round"/>
<path d="M11.1899 1.3999C11.2699 1.3699 11.3499 1.3299 11.4299 1.3099" stroke="#010101" stroke-width="0.25" stroke-linecap="round" stroke-linejoin="round"/>
<path d="M2.08984 0.129883L2.01984 0.129883" stroke="#010101" stroke-width="0.25" stroke-linecap="round" stroke-linejoin="round"/>
<path d="M11.8198 0.129883L2.08982 0.129884" stroke="#010101" stroke-width="0.25" stroke-linecap="round" stroke-linejoin="round"/>
<path d="M2.01978 0.129883L1.98978 0.129883" stroke="#010101" stroke-width="0.25" stroke-linecap="round" stroke-linejoin="round"/>
<path d="M4.3999 2.23975C4.3299 2.23975 4.2499 2.21975 4.1899 2.17975" stroke="#010101" stroke-width="0.25" stroke-linecap="round" stroke-linejoin="round"/>
<path d="M8.96997 0.699707L8.80997 0.699707" stroke="#010101" stroke-width="0.25" stroke-linecap="round" stroke-linejoin="round"/>
<path d="M8.96997 0.869873L8.96997 0.829873" stroke="#010101" stroke-width="0.25" stroke-linecap="round" stroke-linejoin="round"/>
<path d="M13.6799 2.99976C13.6799 2.99976 13.3699 2.99976 13.0299 2.99976L10.8199 2.99976C10.4799 2.99976 10.1399 2.99976 10.1699 2.99976" stroke="#010101" stroke-width="0.25" stroke-linecap="round" stroke-linejoin="round"/>
<path d="M3.83984 2.91968C3.83984 2.91968 3.47984 2.91968 3.08984 2.91968L0.879844 2.91968C0.489844 2.91968 0.0998437 2.91968 0.129844 2.91968" stroke="#010101" stroke-width="0.25" stroke-linecap="round" stroke-linejoin="round"/>
<path d="M11.8298 3.52979C11.8298 3.52979 11.7198 3.52979 11.6698 3.50979C11.4598 3.48979 11.2898 3.45979 11.1198 3.42979C11.0198 3.40979 10.9198 3.38979 10.8098 3.35979C10.7298 3.33979 10.6398 3.30979 10.5598 3.27979C10.4798 3.24979 10.4098 3.21979 10.3398 3.17979C10.2598 3.13979 10.1698 3.07979 10.1698 2.99979" stroke="#010101" stroke-width="0.25" stroke-linecap="round" stroke-linejoin="round"/>
<path d="M0.129834 2.91968C0.149834 2.76968 0.179834 2.61968 0.229834 2.47968C0.279834 2.33968 0.339834 2.21968 0.409834 2.10968C0.479834 1.99968 0.559833 1.89968 0.639833 1.80968C0.729833 1.70968 0.829834 1.61968 0.939834 1.54968C0.989834 1.51968 1.02983 1.48968 1.07983 1.46968" stroke="#010101" stroke-width="0.25" stroke-linecap="round" stroke-linejoin="round"/>
<path d="M10.5899 1.80981C10.6799 1.70981 10.7799 1.62981 10.8899 1.54981" stroke="#010101" stroke-width="0.25" stroke-linecap="round" stroke-linejoin="round"/>
<path d="M13.6799 2.91976L13.6799 2.99976" stroke="#010101" stroke-width="0.25" stroke-linecap="round" stroke-linejoin="round"/>
<path d="M10.8799 1.5498C10.9799 1.4898 11.0799 1.4398 11.1799 1.3898" stroke="#010101" stroke-width="0.25" stroke-linecap="round" stroke-linejoin="round"/>
<path d="M0.219971 2.99976L0.219971 2.91976" stroke="#010101" stroke-width="0.25" stroke-linecap="round" stroke-linejoin="round"/>
<path d="M2.08988 0.899688L2.12988 0.929688" stroke="#010101" stroke-width="0.25" stroke-linecap="round" stroke-linejoin="round"/>
<path d="M1.91992 3.52979C1.91992 3.52979 1.87992 3.52979 1.88992 3.52979" stroke="#010101" stroke-width="0.25" stroke-linecap="round" stroke-linejoin="round"/>
<path d="M11.9199 0.719727L11.9199 0.119727" stroke="#010101" stroke-width="0.25" stroke-linecap="round" stroke-linejoin="round"/>
<path d="M13.7798 2.91968C13.7598 2.76968 13.7298 2.61968 13.6798 2.47968" stroke="#010101" stroke-width="0.25" stroke-linecap="round" stroke-linejoin="round"/>
<path d="M3.63989 2.25977L3.61989 2.22977" stroke="#010101" stroke-width="0.25" stroke-linecap="round" stroke-linejoin="round"/>
<path d="M11.1199 1.3199L11.1699 1.3999" stroke="#010101" stroke-width="0.25" stroke-linecap="round" stroke-linejoin="round"/>
<path d="M4.93994 0.709717L4.73994 0.129717" stroke="#010101" stroke-width="0.25" stroke-linecap="round" stroke-linejoin="round"/>
<path d="M4.93994 0.839844L4.93994 0.709844" stroke="#010101" stroke-width="0.25" stroke-linecap="round" stroke-linejoin="round"/>
<path d="M9.71997 2.17975C9.65997 2.21975 9.57997 2.23975 9.50997 2.23975" stroke="#010101" stroke-width="0.25" stroke-linecap="round" stroke-linejoin="round"/>
<path d="M4.93994 0.869873L4.93994 0.829873" stroke="#010101" stroke-width="0.25" stroke-linecap="round" stroke-linejoin="round"/>
<path d="M5.08984 0.839883L5.08984 0.879883" stroke="#010101" stroke-width="0.25" stroke-linecap="round" stroke-linejoin="round"/>
<path d="M8.81982 0.839883L8.81982 0.879883" stroke="#010101" stroke-width="0.25" stroke-linecap="round" stroke-linejoin="round"/>
<path d="M8.81998 0.869873L8.97998 0.869873" stroke="#010101" stroke-width="0.25" stroke-linecap="round" stroke-linejoin="round"/>
<path d="M5.08984 0.869873L4.92984 0.869873" stroke="#010101" stroke-width="0.25" stroke-linecap="round" stroke-linejoin="round"/>
<path d="M3.49977 2.0298C3.49977 2.0298 3.49977 2.0398 3.50977 2.0498" stroke="#010101" stroke-width="0.25" stroke-linecap="round" stroke-linejoin="round"/>
<path d="M3.72983 2.47968C3.77983 2.61968 3.80983 2.76968 3.82983 2.91968" stroke="#010101" stroke-width="0.25" stroke-linecap="round" stroke-linejoin="round"/>
<path d="M3.60988 2.21976C3.60988 2.21976 3.61988 2.23976 3.62988 2.24976" stroke="#010101" stroke-width="0.25" stroke-linecap="round" stroke-linejoin="round"/>
<path d="M2.47997 1.29989C2.55997 1.32989 2.63997 1.35989 2.71997 1.38989" stroke="#010101" stroke-width="0.25" stroke-linecap="round" stroke-linejoin="round"/>
<path d="M11.9199 0.719893C11.9199 0.789893 11.8799 0.849893 11.8199 0.889893" stroke="#010101" stroke-width="0.25" stroke-linecap="round" stroke-linejoin="round"/>
<path d="M8.60981 0.129717L8.80981 0.709717" stroke="#010101" stroke-width="0.25" stroke-linecap="round" stroke-linejoin="round"/>
<path d="M1.98984 0.719893C1.98984 0.789893 2.02984 0.849893 2.08984 0.889893" stroke="#010101" stroke-width="0.25" stroke-linecap="round" stroke-linejoin="round"/>
<path d="M11.8198 0.899688L11.7798 0.929688" stroke="#010101" stroke-width="0.25" stroke-linecap="round" stroke-linejoin="round"/>
<path d="M5.2998 0.129717L5.0998 0.709717" stroke="#010101" stroke-width="0.25" stroke-linecap="round" stroke-linejoin="round"/>
<path d="M8.81982 0.709844L8.81982 0.839844" stroke="#010101" stroke-width="0.25" stroke-linecap="round" stroke-linejoin="round"/>
<path d="M5.08984 0.709844L5.08984 0.839844" stroke="#010101" stroke-width="0.25" stroke-linecap="round" stroke-linejoin="round"/>
<path d="M10.3598 2.10986C10.4298 1.99986 10.4998 1.89986 10.5898 1.80986" stroke="#010101" stroke-width="0.25" stroke-linecap="round" stroke-linejoin="round"/>
<path d="M10.1799 2.47974C10.2299 2.34974 10.2899 2.21974 10.3599 2.10974" stroke="#010101" stroke-width="0.25" stroke-linecap="round" stroke-linejoin="round"/>
<path d="M1.07998 1.46973C1.20998 1.40973 1.33998 1.34973 1.47998 1.29973" stroke="#010101" stroke-width="0.25" stroke-linecap="round" stroke-linejoin="round"/>
<path d="M12.4299 1.2998C12.4299 1.2998 12.3999 1.2998 12.3899 1.2898C12.2999 1.2698 12.1999 1.2498 12.1099 1.2498L11.7499 1.2498C11.6599 1.2498 11.5499 1.2698 11.4699 1.2898C11.4599 1.2898 11.4399 1.2898 11.4299 1.2998" stroke="#010101" stroke-width="0.25" stroke-linecap="round" stroke-linejoin="round"/>
<path d="M4.39977 2.23975L9.50977 2.23975" stroke="#010101" stroke-width="0.25" stroke-linecap="round" stroke-linejoin="round"/>
<path d="M13.4299 1.99976L13.4099 1.97976" stroke="#010101" stroke-width="0.25" stroke-linecap="round" stroke-linejoin="round"/>
<path d="M1.98975 0.129736L1.98975 0.729736" stroke="#010101" stroke-width="0.25" stroke-linecap="round" stroke-linejoin="round"/>
<path d="M8.96997 0.839844L8.96997 0.709844" stroke="#010101" stroke-width="0.25" stroke-linecap="round" stroke-linejoin="round"/>
<path d="M13.2698 1.80981C13.1798 1.70981 13.0798 1.62981 12.9698 1.54981" stroke="#010101" stroke-width="0.25" stroke-linecap="round" stroke-linejoin="round"/>
<path d="M13.4998 2.10986C13.4298 1.99986 13.3498 1.89986 13.2698 1.80986C13.1798 1.70986 13.0798 1.61986 12.9698 1.54986C12.8698 1.48986 12.7698 1.43986 12.6698 1.38986C12.5898 1.35986 12.5098 1.31986 12.4298 1.29986" stroke="#010101" stroke-width="0.25" stroke-linecap="round" stroke-linejoin="round"/>
<path d="M8.96992 0.709717L9.16992 0.129717" stroke="#010101" stroke-width="0.25" stroke-linecap="round" stroke-linejoin="round"/>
<path d="M3.57987 2.16974L3.59987 2.19974L3.61987 2.22974" stroke="#010101" stroke-width="0.25" stroke-linecap="round" stroke-linejoin="round"/>
</g>
<defs>
<clipPath id="clip0_1375_18964">
<rect width="13.91" height="3.65" fill="white" transform="translate(13.9099 3.6499) rotate(180)"/>
</clipPath>
</defs>
</svg>
