<svg width="16" height="22" viewBox="0 0 16 22" fill="none" xmlns="http://www.w3.org/2000/svg">
<path d="M9.99995 1.5L10.5 0H5.49995L6 1.5H7.5V7.5H7C3.50005 8 2.99995 9.5 1.99995 10.5C0.999953 11.5 -4.68493e-05 15.5 2.49995 18.5C4.99995 21.5 6.99995 21.5 9.49995 21C12 20.5 15 18.5 15 14C15 10.4 12.3333 8.5 11 8L9.49995 7.5H8.49995V1.5H9.99995Z" fill="white"/>
<path d="M6.55005 0.129883C5.97005 0.129883 5.48005 0.129883 5.50005 0.129883" stroke="#010101" stroke-width="0.25" stroke-linecap="round" stroke-linejoin="round"/>
<path d="M7.48998 11.9499C6.39998 12.1899 5.62998 13.1499 5.62998 14.2599C5.62998 15.5599 6.68998 16.6199 7.98998 16.6199C9.28998 16.6199 10.35 15.5599 10.35 14.2599C10.35 13.1499 9.57998 12.1899 8.48998 11.9499" stroke="#010101" stroke-width="0.25" stroke-linecap="round" stroke-linejoin="round"/>
<path d="M8.49 7.26977C12.16 7.53977 15 10.5798 15 14.2598C15 18.1198 11.86 21.2598 8 21.2598C4.14 21.2598 1 18.1298 0.999999 14.2598C0.999999 10.3898 3.84 7.53977 7.5 7.27977" stroke="#010101" stroke-width="0.25" stroke-linecap="round" stroke-linejoin="round"/>
<path d="M8.48999 1.38976L8.48999 14.2398C8.48999 14.5298 8.26999 14.7498 7.98999 14.7498C7.70999 14.7498 7.48999 14.5298 7.48999 14.2498L7.48999 1.38976" stroke="#010101" stroke-width="0.25" stroke-linecap="round" stroke-linejoin="round"/>
<path d="M10.25 0.969658C10.25 1.02966 10.24 1.07966 10.22 1.12966C10.2 1.17966 10.17 1.22966 10.13 1.26966C10.06 1.33966 9.95 1.38966 9.83 1.39966L6.95 1.39966C6.52 1.39966 6.17 1.39966 6.18 1.39966C6.05 1.38966 5.95 1.33966 5.88 1.26966C5.84 1.22966 5.81 1.17966 5.79 1.12966C5.77 1.07966 5.76 1.02966 5.76 0.969658" stroke="#010101" stroke-width="0.25" stroke-linecap="round" stroke-linejoin="round"/>
<path d="M10.25 0.399717L10.25 0.959717L6.7 0.959717C6.17 0.959717 5.74 0.959717 5.75 0.959717L5.75 0.399718" stroke="#010101" stroke-width="0.25" stroke-linecap="round" stroke-linejoin="round"/>
<path d="M5.49999 0.129658C5.47999 0.259658 5.57999 0.379659 5.70999 0.399659C5.71999 0.399659 5.72999 0.399659 5.73999 0.399659L10.25 0.399658C10.26 0.399658 10.26 0.399658 10.27 0.399658C10.34 0.379658 10.37 0.399657 10.46 0.279657C10.47 0.269657 10.48 0.249658 10.49 0.219658C10.49 0.189658 10.49 0.159658 10.49 0.129658L6.53999 0.129658" stroke="#010101" stroke-width="0.25" stroke-linecap="round" stroke-linejoin="round"/>
<path d="M6.78003 1.38978L6.78003 1.51978C6.78003 1.51978 6.68003 1.51978 6.59003 1.51978C6.50003 1.51978 6.39003 1.51978 6.40003 1.51978L6.40003 1.38978" stroke="#010101" stroke-width="0.25" stroke-linecap="round" stroke-linejoin="round"/>
<path d="M6.78003 1.51983C6.78003 1.51983 6.78003 1.53983 6.77003 1.54983C6.77003 1.55983 6.76003 1.56983 6.75003 1.57983C6.75003 1.57983 6.67003 1.57983 6.59003 1.57983C6.51003 1.57983 6.42003 1.57983 6.43003 1.57983C6.43003 1.57983 6.41003 1.55983 6.41003 1.54983C6.41003 1.53983 6.41003 1.52983 6.40003 1.51983" stroke="#010101" stroke-width="0.25" stroke-linecap="round" stroke-linejoin="round"/>
<path d="M9.58997 1.51983C9.58997 1.51983 9.58997 1.53983 9.57997 1.54983C9.57997 1.55983 9.56997 1.56983 9.55997 1.57983C9.55997 1.57983 9.47997 1.57983 9.39997 1.57983C9.31997 1.57983 9.22997 1.57983 9.23997 1.57983C9.23997 1.57983 9.21997 1.55983 9.21997 1.54983C9.21997 1.53983 9.21997 1.52983 9.20997 1.51983" stroke="#010101" stroke-width="0.25" stroke-linecap="round" stroke-linejoin="round"/>
<path d="M9.20994 1.38978L9.20994 1.51978C9.20994 1.51978 9.30994 1.51978 9.39994 1.51978C9.48994 1.51978 9.59994 1.51978 9.58994 1.51978L9.58994 1.38978" stroke="#010101" stroke-width="0.25" stroke-linecap="round" stroke-linejoin="round"/>
</svg>
