<svg width="20" height="8" viewBox="0 0 20 8" fill="none" xmlns="http://www.w3.org/2000/svg">
<g clip-path="url(#clip0_1375_19231)">
<path d="M12.1799 6.60988V7.18988C12.1799 7.18988 12.1399 7.26988 12.0999 7.26988C12.1799 7.26988 11.0499 7.26988 9.92989 7.26988C8.80989 7.26988 7.67989 7.26988 7.75989 7.26988C7.71989 7.26988 7.67989 7.22988 7.67989 7.18988V6.60988C6.88989 6.60988 6.48989 6.60988 6.50989 6.60988C5.81989 6.60988 5.13989 6.60988 4.44989 6.58988C4.34989 6.58988 4.25989 6.58988 4.15989 6.58988C3.55989 6.57988 3.09989 6.55988 2.76989 6.53988C1.94989 6.47988 1.88989 6.37988 1.78989 6.25988C1.68989 6.12988 1.53989 5.97988 0.939893 4.17988C0.819893 4.17988 0.759893 4.17988 0.759893 4.17988V4.14988H0.519893C0.419893 4.14988 0.329893 4.14988 0.339893 4.14988V3.87988H0.309893C0.309893 3.87988 0.309893 3.86988 0.309893 3.84988H0.249893C0.189893 3.84988 0.139893 3.79988 0.139893 3.74988C0.139893 3.68988 0.199893 3.64988 0.249893 3.64988H0.309893V3.61988H0.339893V3.34988C0.339893 3.34988 0.419893 3.34988 0.519893 3.34988H0.759893V3.31988C0.759893 3.31988 0.819893 3.31988 0.939893 3.31988C1.51989 0.999883 1.66989 0.809883 1.77989 0.649883C1.87989 0.489883 1.93989 0.359883 2.75989 0.289883C3.00989 0.269883 3.32989 0.249883 3.75989 0.239883C5.39989 0.199883 7.02989 0.189883 8.66989 0.199883V0.129883C8.66989 0.129883 9.26989 0.129883 9.91989 0.129883C10.5699 0.129883 11.2199 0.129883 11.1699 0.129883V0.199883C14.6699 0.199883 16.2599 0.219883 17.0799 0.289883C17.8999 0.359883 17.9599 0.489883 18.0599 0.649883C18.0799 0.689883 18.1099 0.729883 18.1399 0.789883C18.2499 1.00988 18.4499 1.53988 18.9099 3.30988C19.0299 3.30988 19.0899 3.30988 19.0899 3.30988C19.0999 3.30988 19.1099 3.30988 19.1099 3.32988C19.1799 3.32988 19.2599 3.32988 19.3299 3.32988C19.4299 3.32988 19.5199 3.32988 19.5099 3.32988V3.59988H19.5399C19.5399 3.59988 19.5399 3.60988 19.5399 3.62988H19.5999C19.6599 3.62988 19.7099 3.67988 19.7099 3.72988C19.7099 3.78988 19.6499 3.82988 19.5999 3.82988H19.5399V3.85988H19.5099V4.12988C19.5099 4.12988 19.4299 4.12988 19.3299 4.12988C19.2599 4.12988 19.1799 4.12988 19.1099 4.12988C19.1099 4.13988 19.1099 4.14988 19.0899 4.14988C19.0899 4.14988 19.0299 4.14988 18.9099 4.14988C18.3099 5.94988 18.1599 6.09988 18.0599 6.22988C17.9599 6.35988 17.8999 6.45988 17.0799 6.50988C16.7499 6.52988 16.2899 6.54988 15.6899 6.55988C14.5199 6.57988 13.3399 6.57988 12.1699 6.57988" fill="white"/>
<path d="M14.43 4.18018C14.13 5.98018 14.05 6.13018 14 6.26018C13.95 6.39018 13.92 6.49018 13.51 6.54018C13.1 6.60018 12.3 6.61018 11.05 6.61018" stroke="#010101" stroke-width="0.25" stroke-linecap="round" stroke-linejoin="round"/>
<path d="M19.1101 3.32007C19.4501 3.32007 14.6901 3.32007 9.9301 3.32007C5.1701 3.32007 0.410101 3.32007 0.740101 3.32007" stroke="#010101" stroke-width="0.25" stroke-linecap="round" stroke-linejoin="round"/>
<path d="M7.72005 0.200195C7.01005 0.210195 6.60005 0.240195 6.34005 0.280195C6.21005 0.300195 6.12005 0.330195 6.05005 0.370195" stroke="#010101" stroke-width="0.25" stroke-linecap="round" stroke-linejoin="round"/>
<path d="M9.92017 0.190186V3.31019" stroke="#010101" stroke-width="0.25" stroke-linecap="round" stroke-linejoin="round"/>
<path d="M7.98006 6.61011C7.01006 6.61011 6.48006 6.61011 6.50006 6.61011" stroke="#010101" stroke-width="0.25" stroke-linecap="round" stroke-linejoin="round"/>
<path d="M18.3201 5.83008C18.6301 5.83008 14.2801 5.83008 9.93006 5.83008C5.58006 5.83008 1.23006 5.83008 1.54006 5.83008" stroke="#010101" stroke-width="0.25" stroke-linecap="round" stroke-linejoin="round"/>
<path d="M18.4302 5.56006C18.7402 5.56006 14.3302 5.56006 9.92022 5.56006C5.51022 5.56006 1.10022 5.56006 1.41022 5.56006" stroke="#010101" stroke-width="0.25" stroke-linecap="round" stroke-linejoin="round"/>
<path d="M17.8202 0.420166C18.1102 0.420166 14.0202 0.420166 9.93016 0.420166C5.84016 0.420166 1.74016 0.420166 2.03016 0.420166" stroke="#010101" stroke-width="0.25" stroke-linecap="round" stroke-linejoin="round"/>
<path d="M0.740094 4.18018C0.400094 4.18018 5.16009 4.18018 9.92009 4.18018C14.6801 4.18018 19.4401 4.18018 19.1001 4.18018" stroke="#010101" stroke-width="0.25" stroke-linecap="round" stroke-linejoin="round"/>
<path d="M18.4601 1.63013C18.7701 1.63013 14.3501 1.63013 9.93013 1.63013C5.51013 1.63013 1.08013 1.63013 1.39013 1.63013" stroke="#010101" stroke-width="0.25" stroke-linecap="round" stroke-linejoin="round"/>
<path d="M18.5402 5.29004C18.8602 5.29004 14.3902 5.29004 9.93017 5.29004C5.47017 5.29004 1.00017 5.29004 1.31017 5.29004" stroke="#010101" stroke-width="0.25" stroke-linecap="round" stroke-linejoin="round"/>
<path d="M17.0201 0.730205C17.0201 0.730205 16.9901 0.680205 16.9801 0.650205C16.8901 0.490205 16.8401 0.360205 16.1301 0.290205C15.7601 0.250205 15.2101 0.230205 14.3501 0.210205" stroke="#010101" stroke-width="0.25" stroke-linecap="round" stroke-linejoin="round"/>
<path d="M6.50019 6.61009C5.81019 6.61009 5.13019 6.61009 4.44019 6.59009" stroke="#010101" stroke-width="0.25" stroke-linecap="round" stroke-linejoin="round"/>
<path d="M17.7201 4.18018C17.2001 5.98018 17.0701 6.13018 16.9801 6.26018C16.8901 6.39018 16.8401 6.49018 16.1301 6.54018C15.4201 6.60018 14.0401 6.61018 11.8701 6.61018" stroke="#010101" stroke-width="0.25" stroke-linecap="round" stroke-linejoin="round"/>
<path d="M18.2301 0.960205C18.5401 0.960205 14.2301 0.960205 9.92006 0.960205C5.61006 0.960205 1.31006 0.960205 1.62006 0.960205" stroke="#010101" stroke-width="0.25" stroke-linecap="round" stroke-linejoin="round"/>
<path d="M15.0302 0.210205C15.2202 0.210205 12.5702 0.210205 9.93016 0.210205C7.29016 0.210205 4.63016 0.210205 4.82016 0.210205" stroke="#010101" stroke-width="0.25" stroke-linecap="round" stroke-linejoin="round"/>
<path d="M4.44015 6.59009C4.34015 6.59009 4.25015 6.59009 4.15015 6.59009" stroke="#010101" stroke-width="0.25" stroke-linecap="round" stroke-linejoin="round"/>
<path d="M3.76001 0.23013C5.40001 0.19013 7.03001 0.18013 8.67001 0.19013" stroke="#010101" stroke-width="0.25" stroke-linecap="round" stroke-linejoin="round"/>
<path d="M18.7501 2.64014C19.0701 2.64014 14.5001 2.64014 9.93008 2.64014C5.36008 2.64014 0.780077 2.64014 1.10008 2.64014" stroke="#010101" stroke-width="0.25" stroke-linecap="round" stroke-linejoin="round"/>
<path d="M2.13013 3.32019C2.65013 1.01019 2.78013 0.820186 2.87013 0.660186C2.92013 0.580186 2.95013 0.500186 3.08013 0.440186" stroke="#010101" stroke-width="0.25" stroke-linecap="round" stroke-linejoin="round"/>
<path d="M18.6502 2.30005C18.9702 2.30005 14.4502 2.30005 9.92016 2.30005C5.39016 2.30005 0.880162 2.30005 1.20016 2.30005" stroke="#010101" stroke-width="0.25" stroke-linecap="round" stroke-linejoin="round"/>
<path d="M18.9302 4.18018C18.3302 5.98018 18.1802 6.13018 18.0802 6.26018C17.9802 6.39018 17.9202 6.49018 17.1002 6.54018C16.7702 6.56018 16.3102 6.58018 15.7102 6.59018" stroke="#010101" stroke-width="0.25" stroke-linecap="round" stroke-linejoin="round"/>
<path d="M16.7801 0.26001C17.0301 0.26001 13.4801 0.26001 9.92012 0.26001C6.36012 0.26001 2.82012 0.26001 3.07012 0.26001" stroke="#010101" stroke-width="0.25" stroke-linecap="round" stroke-linejoin="round"/>
<path d="M5.51007 0.210205C4.64007 0.220205 4.09007 0.250205 3.72007 0.290205C3.38007 0.330205 3.19007 0.370205 3.07007 0.430205" stroke="#010101" stroke-width="0.25" stroke-linecap="round" stroke-linejoin="round"/>
<path d="M14.4302 3.32003C14.1302 1.01003 14.0502 0.820029 14.0002 0.660029C13.9902 0.610029 13.9702 0.570029 13.9502 0.530029" stroke="#010101" stroke-width="0.25" stroke-linecap="round" stroke-linejoin="round"/>
<path d="M5.52002 0.210186C6.63002 0.200186 7.73002 0.190186 8.84002 0.190186" stroke="#010101" stroke-width="0.25" stroke-linecap="round" stroke-linejoin="round"/>
<path d="M10.55 0.190186C12.3 0.190186 13.1 0.210186 13.51 0.280186C13.8 0.330186 13.9 0.410186 13.95 0.510186" stroke="#010101" stroke-width="0.25" stroke-linecap="round" stroke-linejoin="round"/>
<path d="M18.5601 1.96021C18.8801 1.96021 14.4001 1.96021 9.93008 1.96021C5.46008 1.96021 0.970075 1.96021 1.29007 1.96021" stroke="#010101" stroke-width="0.25" stroke-linecap="round" stroke-linejoin="round"/>
<path d="M5.42017 3.32013C5.72017 1.01013 5.80017 0.820127 5.85017 0.660127C5.89017 0.550127 5.91017 0.460127 6.05017 0.380127" stroke="#010101" stroke-width="0.25" stroke-linecap="round" stroke-linejoin="round"/>
<path d="M18.7401 4.73022C19.0601 4.73022 14.5001 4.73022 9.93012 4.73022C5.36012 4.73022 0.790119 4.73022 1.11012 4.73022" stroke="#010101" stroke-width="0.25" stroke-linecap="round" stroke-linejoin="round"/>
<path d="M10.5701 2.36011C11.1001 2.44011 11.6301 2.55011 12.1501 2.70011" stroke="#010101" stroke-width="0.25" stroke-linecap="round" stroke-linejoin="round"/>
<path d="M18.6401 5.01001C18.9601 5.01001 14.4401 5.01001 9.93011 5.01001C5.42011 5.01001 0.890106 5.01001 1.21011 5.01001" stroke="#010101" stroke-width="0.25" stroke-linecap="round" stroke-linejoin="round"/>
<path d="M5.42017 4.18018C5.72017 5.98018 5.80017 6.13018 5.85017 6.26018C5.90017 6.39018 5.93017 6.49018 6.34017 6.54018C6.75017 6.60018 7.55017 6.61018 8.80017 6.61018" stroke="#010101" stroke-width="0.25" stroke-linecap="round" stroke-linejoin="round"/>
<path d="M4.15018 6.59018C3.55018 6.58018 3.09018 6.56018 2.76018 6.54018C1.94018 6.48018 1.88018 6.38018 1.78018 6.26018C1.68018 6.13018 1.53018 5.98018 0.930176 4.18018" stroke="#010101" stroke-width="0.25" stroke-linecap="round" stroke-linejoin="round"/>
<path d="M18.1901 6.09009C18.4901 6.09009 14.2101 6.09009 9.93015 6.09009C5.65015 6.09009 1.36015 6.09009 1.67015 6.09009" stroke="#010101" stroke-width="0.25" stroke-linecap="round" stroke-linejoin="round"/>
<path d="M17.1702 6.53003C17.4402 6.53003 13.6802 6.53003 9.93024 6.53003C6.18024 6.53003 2.42024 6.53003 2.69024 6.53003" stroke="#010101" stroke-width="0.25" stroke-linecap="round" stroke-linejoin="round"/>
<path d="M17.4801 0.340088C17.7601 0.340088 13.8401 0.340088 9.93008 0.340088C6.02008 0.340088 2.09008 0.340088 2.37008 0.340088" stroke="#010101" stroke-width="0.25" stroke-linecap="round" stroke-linejoin="round"/>
<path d="M15.7002 6.59009C14.5302 6.61009 13.3502 6.61009 12.1802 6.61009" stroke="#010101" stroke-width="0.25" stroke-linecap="round" stroke-linejoin="round"/>
<path d="M16.5801 6.56006C16.8201 6.56006 13.3801 6.56006 9.93015 6.56006C6.48015 6.56006 3.03015 6.56006 3.28015 6.56006" stroke="#010101" stroke-width="0.25" stroke-linecap="round" stroke-linejoin="round"/>
<path d="M3.76018 0.230225C3.33018 0.240225 3.01018 0.260225 2.76018 0.280225C1.94018 0.350225 1.88018 0.480225 1.78018 0.640225C1.68018 0.800225 1.53018 0.990225 0.930176 3.30022" stroke="#010101" stroke-width="0.25" stroke-linecap="round" stroke-linejoin="round"/>
<path d="M14.3501 0.210205C15.2101 0.220205 15.7601 0.250205 16.1301 0.290205C16.8401 0.360205 16.8901 0.490205 16.9801 0.650205C16.9901 0.670205 17.0101 0.700205 17.0201 0.730205" stroke="#010101" stroke-width="0.25" stroke-linecap="round" stroke-linejoin="round"/>
<path d="M9.92017 4.18018V6.61018" stroke="#010101" stroke-width="0.25" stroke-linecap="round" stroke-linejoin="round"/>
<path d="M0.220215 3.75C0.220215 3.75 0.220215 3.85 0.220215 3.84" stroke="#010101" stroke-width="0.25" stroke-linecap="round" stroke-linejoin="round"/>
<path d="M11.6501 1.42017C11.7101 1.42017 10.8201 1.42017 9.93015 1.42017C9.04015 1.42017 8.15015 1.42017 8.21015 1.42017" stroke="#010101" stroke-width="0.25" stroke-linecap="round" stroke-linejoin="round"/>
<path d="M0.320068 3.3501C0.320068 3.3501 0.410068 3.3501 0.510068 3.3501H19.3401C19.4401 3.3501 19.5401 3.3501 19.5301 3.3501" stroke="#010101" stroke-width="0.25" stroke-linecap="round" stroke-linejoin="round"/>
<path d="M11.05 6.61011H8.80005" stroke="#010101" stroke-width="0.25" stroke-linecap="round" stroke-linejoin="round"/>
<path d="M19.1301 4.16016C19.1301 4.16016 19.1301 4.18016 19.1101 4.18016" stroke="#010101" stroke-width="0.25" stroke-linecap="round" stroke-linejoin="round"/>
<path d="M19.56 3.88013H19.53" stroke="#010101" stroke-width="0.25" stroke-linecap="round" stroke-linejoin="round"/>
<path d="M19.1301 3.34007C19.1301 3.34007 19.1301 3.32007 19.1101 3.32007" stroke="#010101" stroke-width="0.25" stroke-linecap="round" stroke-linejoin="round"/>
<path d="M0.720215 3.34007C0.720215 3.34007 0.720215 3.32007 0.740215 3.32007" stroke="#010101" stroke-width="0.25" stroke-linecap="round" stroke-linejoin="round"/>
<path d="M0.720215 4.16016C0.720215 4.16016 0.720215 4.18016 0.740215 4.18016" stroke="#010101" stroke-width="0.25" stroke-linecap="round" stroke-linejoin="round"/>
<path d="M19.5601 3.82007H19.6201" stroke="#010101" stroke-width="0.25" stroke-linecap="round" stroke-linejoin="round"/>
<path d="M0.240215 3.84009H0.220215" stroke="#010101" stroke-width="0.25" stroke-linecap="round" stroke-linejoin="round"/>
<path d="M9.72021 5.56017V4.17017" stroke="#010101" stroke-width="0.25" stroke-linecap="round" stroke-linejoin="round"/>
<path d="M0.290039 3.64014V3.87014" stroke="#010101" stroke-width="0.25" stroke-linecap="round" stroke-linejoin="round"/>
<path d="M16.5701 2.95021C16.6501 2.93021 16.7201 2.9002 16.7801 2.8702C16.8501 2.8402 16.9101 2.81021 16.9401 2.78021C16.9601 2.76021 16.9701 2.75021 16.9801 2.73021V2.71021" stroke="#010101" stroke-width="0.25" stroke-linecap="round" stroke-linejoin="round"/>
<path d="M12.1701 6.61007C12.1701 6.61007 12.1501 6.58007 12.1301 6.57007" stroke="#010101" stroke-width="0.25" stroke-linecap="round" stroke-linejoin="round"/>
<path d="M19.53 4.15015C19.53 4.15015 19.44 4.15015 19.34 4.15015H0.510028C0.410028 4.15015 0.310028 4.15015 0.320028 4.15015" stroke="#010101" stroke-width="0.25" stroke-linecap="round" stroke-linejoin="round"/>
<path d="M17.7501 6.4502C18.0401 6.4502 13.9801 6.4502 9.93013 6.4502C5.88013 6.4502 1.82012 6.4502 2.11012 6.4502" stroke="#010101" stroke-width="0.25" stroke-linecap="round" stroke-linejoin="round"/>
<path d="M18.0102 6.33008C18.3102 6.33008 14.1202 6.33008 9.93017 6.33008C5.74017 6.33008 1.55017 6.33008 1.85017 6.33008" stroke="#010101" stroke-width="0.25" stroke-linecap="round" stroke-linejoin="round"/>
<path d="M19.53 3.3501V4.1501" stroke="#010101" stroke-width="0.25" stroke-linecap="round" stroke-linejoin="round"/>
<path d="M0.320068 4.1501V3.3501" stroke="#010101" stroke-width="0.25" stroke-linecap="round" stroke-linejoin="round"/>
<path d="M11.1802 0.190186C14.6802 0.190186 16.2702 0.210186 17.0902 0.280186C17.9102 0.350186 17.9702 0.480186 18.0702 0.640186C18.0902 0.680186 18.1202 0.720186 18.1502 0.780186" stroke="#010101" stroke-width="0.25" stroke-linecap="round" stroke-linejoin="round"/>
<path d="M18.8301 4.4502C19.1601 4.4502 14.5401 4.4502 9.92014 4.4502C5.30014 4.4502 0.69014 4.4502 1.02014 4.4502" stroke="#010101" stroke-width="0.25" stroke-linecap="round" stroke-linejoin="round"/>
<path d="M19.6301 3.65015C19.6301 3.65015 19.6301 3.68015 19.6301 3.71015V3.75015" stroke="#010101" stroke-width="0.25" stroke-linecap="round" stroke-linejoin="round"/>
<path d="M0.290039 3.62012C0.290039 3.62012 0.290039 3.63012 0.290039 3.65012" stroke="#010101" stroke-width="0.25" stroke-linecap="round" stroke-linejoin="round"/>
<path d="M0.290039 3.62012H0.320039" stroke="#010101" stroke-width="0.25" stroke-linecap="round" stroke-linejoin="round"/>
<path d="M0.220215 3.75015V3.71015V3.65015" stroke="#010101" stroke-width="0.25" stroke-linecap="round" stroke-linejoin="round"/>
<path d="M0.320039 3.88013H0.290039" stroke="#010101" stroke-width="0.25" stroke-linecap="round" stroke-linejoin="round"/>
<path d="M19.6101 3.65015H19.6301" stroke="#010101" stroke-width="0.25" stroke-linecap="round" stroke-linejoin="round"/>
<path d="M19.5601 3.62012C19.5601 3.62012 19.5601 3.63012 19.5601 3.65012" stroke="#010101" stroke-width="0.25" stroke-linecap="round" stroke-linejoin="round"/>
<path d="M19.6301 3.65015C19.6801 3.65015 19.7201 3.69015 19.7301 3.74015" stroke="#010101" stroke-width="0.25" stroke-linecap="round" stroke-linejoin="round"/>
<path d="M19.53 3.62012H19.56" stroke="#010101" stroke-width="0.25" stroke-linecap="round" stroke-linejoin="round"/>
<path d="M0.240234 3.82V3.75" stroke="#010101" stroke-width="0.25" stroke-linecap="round" stroke-linejoin="round"/>
<path d="M19.7301 3.75C19.7301 3.8 19.6801 3.84 19.6301 3.84" stroke="#010101" stroke-width="0.25" stroke-linecap="round" stroke-linejoin="round"/>
<path d="M0.290225 3.82007H0.230225" stroke="#010101" stroke-width="0.25" stroke-linecap="round" stroke-linejoin="round"/>
<path d="M0.290225 3.8501H0.230225" stroke="#010101" stroke-width="0.25" stroke-linecap="round" stroke-linejoin="round"/>
<path d="M0.220215 3.65015H0.230215" stroke="#010101" stroke-width="0.25" stroke-linecap="round" stroke-linejoin="round"/>
<path d="M10.1301 4.18018V5.56018" stroke="#010101" stroke-width="0.25" stroke-linecap="round" stroke-linejoin="round"/>
<path d="M0.290225 3.64014H0.230225" stroke="#010101" stroke-width="0.25" stroke-linecap="round" stroke-linejoin="round"/>
<path d="M0.290225 3.75H0.230225" stroke="#010101" stroke-width="0.25" stroke-linecap="round" stroke-linejoin="round"/>
<path d="M19.6101 3.64014V3.67014" stroke="#010101" stroke-width="0.25" stroke-linecap="round" stroke-linejoin="round"/>
<path d="M19.5601 3.8501H19.6201" stroke="#010101" stroke-width="0.25" stroke-linecap="round" stroke-linejoin="round"/>
<path d="M0.240234 3.75018V3.68018" stroke="#010101" stroke-width="0.25" stroke-linecap="round" stroke-linejoin="round"/>
<path d="M0.220117 3.84C0.170117 3.84 0.130117 3.8 0.120117 3.75" stroke="#010101" stroke-width="0.25" stroke-linecap="round" stroke-linejoin="round"/>
<path d="M0.290225 3.67017H0.230225" stroke="#010101" stroke-width="0.25" stroke-linecap="round" stroke-linejoin="round"/>
<path d="M0.120117 3.75016C0.120117 3.70016 0.170117 3.66016 0.220117 3.66016" stroke="#010101" stroke-width="0.25" stroke-linecap="round" stroke-linejoin="round"/>
<path d="M19.5601 3.64014V3.87014" stroke="#010101" stroke-width="0.25" stroke-linecap="round" stroke-linejoin="round"/>
<path d="M18.3502 1.29004C18.6602 1.29004 14.2902 1.29004 9.92023 1.29004C5.55023 1.29004 1.19023 1.29004 1.50023 1.29004" stroke="#010101" stroke-width="0.25" stroke-linecap="round" stroke-linejoin="round"/>
<path d="M19.6101 3.82007V3.84007" stroke="#010101" stroke-width="0.25" stroke-linecap="round" stroke-linejoin="round"/>
<path d="M19.6301 3.75C19.6301 3.75 19.6301 3.85 19.6301 3.84" stroke="#010101" stroke-width="0.25" stroke-linecap="round" stroke-linejoin="round"/>
<path d="M0.240234 3.67014V3.64014" stroke="#010101" stroke-width="0.25" stroke-linecap="round" stroke-linejoin="round"/>
<path d="M19.6101 3.67017V3.74017" stroke="#010101" stroke-width="0.25" stroke-linecap="round" stroke-linejoin="round"/>
<path d="M19.5601 3.67017H19.6201" stroke="#010101" stroke-width="0.25" stroke-linecap="round" stroke-linejoin="round"/>
<path d="M19.6101 3.75V3.82" stroke="#010101" stroke-width="0.25" stroke-linecap="round" stroke-linejoin="round"/>
<path d="M19.5601 3.64014H19.6201" stroke="#010101" stroke-width="0.25" stroke-linecap="round" stroke-linejoin="round"/>
<path d="M19.6301 3.84009H19.6101" stroke="#010101" stroke-width="0.25" stroke-linecap="round" stroke-linejoin="round"/>
<path d="M19.5601 3.75H19.6201" stroke="#010101" stroke-width="0.25" stroke-linecap="round" stroke-linejoin="round"/>
<path d="M7.72021 0.200001C8.25021 0.200001 8.77022 0.190001 9.30022 0.200001" stroke="#010101" stroke-width="0.25" stroke-linecap="round" stroke-linejoin="round"/>
<path d="M12.29 3.12012C12.29 3.12012 12.29 3.14012 12.31 3.15012C12.33 3.17012 12.37 3.19012 12.44 3.22012C12.46 3.22012 12.48 3.23012 12.51 3.24012" stroke="#010101" stroke-width="0.25" stroke-linecap="round" stroke-linejoin="round"/>
<path d="M18.1602 0.790039C18.2702 1.01004 18.4702 1.54004 18.9302 3.31004" stroke="#010101" stroke-width="0.25" stroke-linecap="round" stroke-linejoin="round"/>
<path d="M9.51005 2.41016C8.52005 2.48016 7.53005 2.61016 6.55005 2.80016" stroke="#010101" stroke-width="0.25" stroke-linecap="round" stroke-linejoin="round"/>
<path d="M18.07 0.650146C18.37 0.650146 14.15 0.650146 9.92003 0.650146C5.69003 0.650146 1.48003 0.650146 1.78003 0.650146" stroke="#010101" stroke-width="0.25" stroke-linecap="round" stroke-linejoin="round"/>
<path d="M2.32007 3.1901C2.32007 3.1901 2.33007 3.1901 2.35007 3.1701C2.37007 3.1701 2.40007 3.1501 2.44007 3.1401C2.48007 3.1301 2.53007 3.1101 2.60007 3.0901C2.66007 3.0701 2.74007 3.0501 2.83007 3.0301C2.91007 3.0101 3.01007 2.9801 3.11007 2.9601C3.22007 2.9301 3.34007 2.9001 3.47007 2.8701C3.49007 2.8701 3.52007 2.8601 3.55007 2.8501" stroke="#010101" stroke-width="0.25" stroke-linecap="round" stroke-linejoin="round"/>
<path d="M2.34009 3.2902C2.34009 3.2902 2.34009 3.2902 2.37009 3.2702C2.39009 3.2702 2.42009 3.2502 2.46009 3.2402C2.50009 3.2302 2.55009 3.2102 2.62009 3.1902C2.68009 3.1702 2.76009 3.1502 2.85009 3.1302C2.93009 3.1102 3.03009 3.0802 3.13009 3.0602C3.24009 3.0302 3.36009 3.0002 3.49009 2.9702C3.52009 2.9702 3.54009 2.9602 3.57009 2.9502" stroke="#010101" stroke-width="0.25" stroke-linecap="round" stroke-linejoin="round"/>
<path d="M8.49023 2.32006C8.82023 2.32006 9.16023 2.32006 9.49023 2.31006" stroke="#010101" stroke-width="0.25" stroke-linecap="round" stroke-linejoin="round"/>
<path d="M2.34008 3.29019C2.34008 3.29019 2.34008 3.22019 2.33008 3.19019" stroke="#010101" stroke-width="0.25" stroke-linecap="round" stroke-linejoin="round"/>
<path d="M5.74016 2.9502L3.41016 3.1702" stroke="#010101" stroke-width="0.25" stroke-linecap="round" stroke-linejoin="round"/>
<path d="M3.41011 3.18018C3.06011 3.21018 2.71011 3.25018 2.36011 3.29018" stroke="#010101" stroke-width="0.25" stroke-linecap="round" stroke-linejoin="round"/>
<path d="M8.5 2.42016C8.84 2.42016 9.17 2.42016 9.51 2.41016" stroke="#010101" stroke-width="0.25" stroke-linecap="round" stroke-linejoin="round"/>
<path d="M3.56006 2.95019C3.67006 2.93019 3.78006 2.90019 3.91006 2.87019C4.06006 2.84019 4.22006 2.81019 4.39006 2.78019C4.49006 2.76019 4.58006 2.75019 4.68006 2.73019C4.78006 2.71019 4.88006 2.70019 4.98006 2.68019C5.08006 2.66019 5.19006 2.65019 5.31006 2.64019C5.42006 2.63019 5.54006 2.61019 5.67006 2.60019C5.78006 2.59019 5.89006 2.58019 6.00006 2.57019C6.11006 2.56019 6.21006 2.55019 6.32006 2.54019C6.43006 2.54019 6.53006 2.52019 6.63006 2.52019C6.73006 2.52019 6.84006 2.50019 6.94006 2.50019C7.17006 2.48019 7.39006 2.47019 7.59006 2.46019C7.79006 2.46019 7.97006 2.44019 8.14006 2.44019C8.26006 2.44019 8.38006 2.44019 8.49006 2.44019" stroke="#010101" stroke-width="0.25" stroke-linecap="round" stroke-linejoin="round"/>
<path d="M9.5 2.31005C9.5 2.31005 9.59 2.31005 9.63 2.30005" stroke="#010101" stroke-width="0.25" stroke-linecap="round" stroke-linejoin="round"/>
<path d="M6.55 2.80005L5.75 2.95005" stroke="#010101" stroke-width="0.25" stroke-linecap="round" stroke-linejoin="round"/>
<path d="M12.6201 2.8501C12.6201 2.8701 12.5901 2.8901 12.5501 2.9101C12.5101 2.9301 12.4701 2.9401 12.4201 2.9601C12.4101 2.9601 12.3901 2.9701 12.3601 2.9801C12.3401 2.9801 12.3201 3.0001 12.3101 3.0101C12.3101 3.0101 12.3101 3.0101 12.3101 3.0201" stroke="#010101" stroke-width="0.25" stroke-linecap="round" stroke-linejoin="round"/>
<path d="M12.3101 3.03003C12.3101 3.03003 12.3101 3.05003 12.3301 3.06003C12.3501 3.08003 12.4001 3.10003 12.4601 3.13003C12.4801 3.13003 12.4901 3.14003 12.5101 3.15003" stroke="#010101" stroke-width="0.25" stroke-linecap="round" stroke-linejoin="round"/>
<path d="M16.9702 2.62012C16.9702 2.62012 16.9702 2.68012 16.9702 2.72012" stroke="#010101" stroke-width="0.25" stroke-linecap="round" stroke-linejoin="round"/>
<path d="M12.51 3.15007C12.51 3.15007 12.56 3.15007 12.59 3.15007C12.65 3.15007 12.71 3.16007 12.77 3.16007C12.83 3.16007 12.9 3.16007 12.96 3.16007C13.02 3.16007 13.08 3.16007 13.12 3.16007C13.18 3.16007 13.23 3.16007 13.28 3.16007C13.33 3.16007 13.38 3.16007 13.44 3.16007C13.49 3.16007 13.54 3.16007 13.59 3.16007C13.64 3.16007 13.69 3.16007 13.74 3.16007C13.94 3.16007 14.14 3.16007 14.32 3.14007C14.5 3.14007 14.68 3.12007 14.85 3.11007C15.02 3.10007 15.18 3.08007 15.34 3.06007C15.5 3.04007 15.64 3.02007 15.79 3.00007C15.92 2.98007 16.05 2.95007 16.17 2.93007C16.29 2.90007 16.4 2.87007 16.51 2.84007C16.53 2.84007 16.55 2.83007 16.57 2.82007" stroke="#010101" stroke-width="0.25" stroke-linecap="round" stroke-linejoin="round"/>
<path d="M2.3601 3.29004H2.3501" stroke="#010101" stroke-width="0.25" stroke-linecap="round" stroke-linejoin="round"/>
<path d="M3.55005 2.85009C3.66005 2.82009 3.77005 2.80009 3.90005 2.77009C4.05005 2.74009 4.21005 2.71009 4.38005 2.68009C4.48005 2.66009 4.57005 2.65009 4.67005 2.63009C4.77005 2.61009 4.87005 2.60009 4.97005 2.58009C5.07005 2.56009 5.18005 2.55009 5.29005 2.54009C5.40005 2.53009 5.52005 2.51009 5.65005 2.50009C5.76005 2.49009 5.87005 2.48009 5.98005 2.47009C6.09005 2.46009 6.19005 2.45009 6.30005 2.44009C6.41005 2.44009 6.51005 2.42009 6.61005 2.42009C6.71005 2.42009 6.82005 2.40009 6.93005 2.40009C7.16005 2.38009 7.38005 2.37009 7.58005 2.36009C7.78005 2.35009 7.97005 2.34009 8.13005 2.34009C8.25005 2.34009 8.37005 2.34009 8.47005 2.34009" stroke="#010101" stroke-width="0.25" stroke-linecap="round" stroke-linejoin="round"/>
<path d="M14.4201 2.32007C14.3601 2.32007 14.3001 2.32007 14.2401 2.32007C14.0201 2.32007 13.7901 2.32007 13.5301 2.32007C13.3001 2.32007 13.0701 2.32007 12.8401 2.32007C12.6201 2.32007 12.4001 2.32007 12.1801 2.32007C12.0801 2.32007 11.9801 2.32007 11.8801 2.32007" stroke="#010101" stroke-width="0.25" stroke-linecap="round" stroke-linejoin="round"/>
<path d="M12.29 3.12004C12.29 3.12004 12.3 3.07004 12.31 3.04004" stroke="#010101" stroke-width="0.25" stroke-linecap="round" stroke-linejoin="round"/>
<path d="M12.1702 2.6001C12.2602 2.6301 12.3302 2.6501 12.4002 2.6801C12.5002 2.7201 12.5602 2.7501 12.5902 2.7801C12.6202 2.8001 12.6302 2.8301 12.6302 2.8401" stroke="#010101" stroke-width="0.25" stroke-linecap="round" stroke-linejoin="round"/>
<path d="M16.5701 2.85011C16.6501 2.82011 16.7201 2.80011 16.7801 2.77011C16.8501 2.74011 16.9101 2.71011 16.9401 2.68011C16.9601 2.66011 16.9701 2.65011 16.9701 2.63011C16.9701 2.63011 16.9701 2.62011 16.9701 2.61011" stroke="#010101" stroke-width="0.25" stroke-linecap="round" stroke-linejoin="round"/>
<path d="M12.51 3.24019C12.51 3.24019 12.56 3.25019 12.59 3.26019C12.65 3.26019 12.71 3.27019 12.78 3.28019C12.84 3.28019 12.91 3.28019 12.97 3.28019C13.03 3.28019 13.09 3.28019 13.14 3.28019C13.2 3.28019 13.25 3.28019 13.3 3.28019C13.35 3.28019 13.4 3.28019 13.46 3.28019C13.51 3.28019 13.56 3.28019 13.61 3.28019C13.66 3.28019 13.71 3.28019 13.76 3.28019C13.96 3.28019 14.16 3.28019 14.34 3.26019C14.53 3.26019 14.7 3.24019 14.87 3.23019C15.04 3.22019 15.2 3.20019 15.36 3.18019C15.51 3.16019 15.66 3.14019 15.81 3.12019C15.94 3.10019 16.07 3.07019 16.19 3.05019C16.31 3.02019 16.43 2.99019 16.53 2.96019C16.55 2.96019 16.57 2.95019 16.59 2.94019" stroke="#010101" stroke-width="0.25" stroke-linecap="round" stroke-linejoin="round"/>
<path d="M14.5701 3.24019C14.5701 3.24019 14.5701 3.25019 14.5601 3.26019C14.5501 3.26019 14.5201 3.27019 14.4901 3.28019C14.4601 3.28019 14.4201 3.28019 14.3801 3.28019C14.3401 3.28019 14.3001 3.28019 14.2601 3.28019C14.2201 3.28019 14.1701 3.28019 14.1301 3.28019C14.0801 3.28019 14.0401 3.28019 13.9901 3.28019C13.9401 3.28019 13.8901 3.28019 13.8501 3.28019C13.8001 3.28019 13.7501 3.28019 13.7001 3.28019C13.5001 3.28019 13.2901 3.28019 13.0901 3.26019C12.8801 3.26019 12.6801 3.24019 12.4701 3.23019C12.2801 3.22019 12.1001 3.20019 11.9001 3.19019" stroke="#010101" stroke-width="0.25" stroke-linecap="round" stroke-linejoin="round"/>
<path d="M10.8201 2.30005C11.2801 2.36005 11.7201 2.47005 12.1601 2.60005" stroke="#010101" stroke-width="0.25" stroke-linecap="round" stroke-linejoin="round"/>
<path d="M12.1602 2.71021C12.2402 2.74021 12.3102 2.76021 12.3802 2.78021C12.4802 2.82021 12.5402 2.85021 12.5702 2.88021C12.5702 2.88021 12.5802 2.89021 12.5902 2.90021" stroke="#010101" stroke-width="0.25" stroke-linecap="round" stroke-linejoin="round"/>
<path d="M7.96023 2.71015C7.91023 2.71015 7.86023 2.69015 7.81023 2.69015C7.72023 2.67015 7.63023 2.66015 7.54023 2.65015C7.52023 2.65015 7.51023 2.65015 7.49023 2.65015" stroke="#010101" stroke-width="0.25" stroke-linecap="round" stroke-linejoin="round"/>
<path d="M16.9702 2.6201C16.9702 2.6201 16.9702 2.6001 16.9702 2.5901C16.9702 2.5701 16.9402 2.5601 16.9202 2.5501C16.8902 2.5401 16.8602 2.5201 16.8102 2.5101C16.7702 2.5001 16.7102 2.4901 16.6602 2.4801C16.6002 2.4701 16.5402 2.4601 16.4702 2.4501C16.4002 2.4501 16.3302 2.4301 16.2602 2.4301C16.1802 2.4301 16.1002 2.4101 16.0202 2.4101C15.8302 2.3901 15.6502 2.3801 15.4702 2.3701C15.2802 2.3601 15.0902 2.3501 14.8902 2.3501C14.7402 2.3501 14.5902 2.3501 14.4402 2.3501" stroke="#010101" stroke-width="0.25" stroke-linecap="round" stroke-linejoin="round"/>
<path d="M11.1802 0.120117V0.260117" stroke="#010101" stroke-width="0.25" stroke-linecap="round" stroke-linejoin="round"/>
<path d="M8.67017 0.260186V0.190186" stroke="#010101" stroke-width="0.25" stroke-linecap="round" stroke-linejoin="round"/>
<path d="M7.99023 6.56006V5.56006" stroke="#010101" stroke-width="0.25" stroke-linecap="round" stroke-linejoin="round"/>
<path d="M11.8601 5.56006V6.56006" stroke="#010101" stroke-width="0.25" stroke-linecap="round" stroke-linejoin="round"/>
<path d="M17.72 3.3202C17.2 1.01021 17.07 0.820205 16.98 0.660205C16.89 0.500205 16.84 0.370205 16.13 0.300205C15.42 0.230205 14.04 0.210205 11.01 0.210205" stroke="#010101" stroke-width="0.25" stroke-linecap="round" stroke-linejoin="round"/>
<path d="M8.51001 1.42008L8.70001 1.08008" stroke="#010101" stroke-width="0.25" stroke-linecap="round" stroke-linejoin="round"/>
<path d="M11.1501 1.09009L11.3401 1.43009" stroke="#010101" stroke-width="0.25" stroke-linecap="round" stroke-linejoin="round"/>
<path d="M7.67017 7.18018C7.67017 7.18018 7.71017 7.26018 7.75017 7.26018" stroke="#010101" stroke-width="0.25" stroke-linecap="round" stroke-linejoin="round"/>
<path d="M11.15 1.09009C11.15 1.09009 10.56 1.09009 9.93003 1.09009C9.30003 1.09009 8.66003 1.09009 8.71003 1.09009" stroke="#010101" stroke-width="0.25" stroke-linecap="round" stroke-linejoin="round"/>
<path d="M12.1801 7.18018C12.1801 7.18018 12.1401 7.26018 12.1001 7.26018" stroke="#010101" stroke-width="0.25" stroke-linecap="round" stroke-linejoin="round"/>
<path d="M7.67017 7.18014V6.64014" stroke="#010101" stroke-width="0.25" stroke-linecap="round" stroke-linejoin="round"/>
<path d="M12.1802 6.64014V7.18014" stroke="#010101" stroke-width="0.25" stroke-linecap="round" stroke-linejoin="round"/>
<path d="M12.1001 7.26001C12.1801 7.26001 11.0501 7.26001 9.93012 7.26001C8.81012 7.26001 7.68012 7.26001 7.76012 7.26001" stroke="#010101" stroke-width="0.25" stroke-linecap="round" stroke-linejoin="round"/>
<path d="M11.8901 2.63013V3.32013" stroke="#010101" stroke-width="0.25" stroke-linecap="round" stroke-linejoin="round"/>
<path d="M7.96021 2.33021V1.72021" stroke="#010101" stroke-width="0.25" stroke-linecap="round" stroke-linejoin="round"/>
<path d="M7.96021 3.32007V2.57007" stroke="#010101" stroke-width="0.25" stroke-linecap="round" stroke-linejoin="round"/>
<path d="M8.67017 0.190127V0.130127" stroke="#010101" stroke-width="0.25" stroke-linecap="round" stroke-linejoin="round"/>
<path d="M11.1802 0.120117C11.1802 0.120117 10.5802 0.120117 9.9302 0.120117C9.2802 0.120117 8.6302 0.120117 8.6802 0.120117" stroke="#010101" stroke-width="0.25" stroke-linecap="round" stroke-linejoin="round"/>
<path d="M7.67017 6.64007C7.67017 6.64007 7.69017 6.58007 7.71017 6.57007" stroke="#010101" stroke-width="0.25" stroke-linecap="round" stroke-linejoin="round"/>
<path d="M7.96021 1.72017C7.96021 1.65017 7.9802 1.57017 8.0302 1.51017C8.0702 1.46017 8.1402 1.42017 8.2002 1.42017" stroke="#010101" stroke-width="0.25" stroke-linecap="round" stroke-linejoin="round"/>
<path d="M11.8901 1.72017C11.8901 1.65017 11.8701 1.57017 11.8201 1.51017C11.7801 1.46017 11.7101 1.42017 11.6501 1.42017" stroke="#010101" stroke-width="0.25" stroke-linecap="round" stroke-linejoin="round"/>
<path d="M11.8901 1.72021V2.30021" stroke="#010101" stroke-width="0.25" stroke-linecap="round" stroke-linejoin="round"/>
<path d="M12.1802 6.64011C12.1802 6.64011 12.1802 6.62011 12.1802 6.61011" stroke="#010101" stroke-width="0.25" stroke-linecap="round" stroke-linejoin="round"/>
<path d="M18.8401 2.98022C19.1701 2.98022 14.5501 2.98022 9.9301 2.98022C5.3101 2.98022 0.690103 2.98022 1.0101 2.98022" stroke="#010101" stroke-width="0.25" stroke-linecap="round" stroke-linejoin="round"/>
<path d="M10.55 0.189941H9.30005" stroke="#010101" stroke-width="0.25" stroke-linecap="round" stroke-linejoin="round"/>
</g>
<defs>
<clipPath id="clip0_1375_19231">
<rect width="19.85" height="7.39" fill="white"/>
</clipPath>
</defs>
</svg>
