<svg width="10" height="5" viewBox="0 0 10 5" fill="none" xmlns="http://www.w3.org/2000/svg">
<g clip-path="url(#clip0_1331_4206)">
<path fill-rule="evenodd" clip-rule="evenodd" d="M8.67004 4.5L0.170044 4.5L0.170044 4L0.670044 3L1.67004 2.5L1.67004 1.5L2.17004 6.11959e-07L6.67004 2.18557e-07L7.17004 1.5L7.17004 2.5L7.67004 2.5L8.67004 3.5L9.17004 4L8.67004 4.5ZM4.67004 4C4.83671 3.5 5.37004 2.5 6.17004 2.5L6.17004 2L2.67004 2L2.67004 2.5C3.00338 2.5 3.77004 2.7 4.17004 3.5L4.67004 4Z" fill="white"/>
<path d="M4.54 0.680176L4.62 0.680176" stroke="#010101" stroke-width="0.25" stroke-linecap="round" stroke-linejoin="round"/>
<path d="M4.53001 0.710205L4.64001 0.710205" stroke="#010101" stroke-width="0.25" stroke-linecap="round" stroke-linejoin="round"/>
<path d="M4.52001 0.730225L4.64001 0.730225" stroke="#010101" stroke-width="0.25" stroke-linecap="round" stroke-linejoin="round"/>
<path d="M4.51002 0.75L4.65002 0.75" stroke="#010101" stroke-width="0.25" stroke-linecap="round" stroke-linejoin="round"/>
<path d="M4.51008 0.540039L4.58008 0.510039" stroke="#010101" stroke-width="0.25" stroke-linecap="round" stroke-linejoin="round"/>
<path d="M4.58002 0.500029L4.65002 0.530029" stroke="#010101" stroke-width="0.25" stroke-linecap="round" stroke-linejoin="round"/>
<path d="M4.66005 0.540117L4.68005 0.620117" stroke="#010101" stroke-width="0.25" stroke-linecap="round" stroke-linejoin="round"/>
<path d="M4.67004 0.620176L4.62004 0.680176" stroke="#010101" stroke-width="0.25" stroke-linecap="round" stroke-linejoin="round"/>
<path d="M4.54004 0.680176L4.49004 0.620176" stroke="#010101" stroke-width="0.25" stroke-linecap="round" stroke-linejoin="round"/>
<path d="M4.49001 0.620117L4.51001 0.540117" stroke="#010101" stroke-width="0.25" stroke-linecap="round" stroke-linejoin="round"/>
<path d="M4.48008 0.52002L4.58008 0.470019" stroke="#010101" stroke-width="0.25" stroke-linecap="round" stroke-linejoin="round"/>
<path d="M4.58005 0.470019L4.68005 0.52002" stroke="#010101" stroke-width="0.25" stroke-linecap="round" stroke-linejoin="round"/>
<path d="M4.68007 0.520127L4.70007 0.630127" stroke="#010101" stroke-width="0.25" stroke-linecap="round" stroke-linejoin="round"/>
<path d="M4.71008 0.630205L4.64008 0.710205" stroke="#010101" stroke-width="0.25" stroke-linecap="round" stroke-linejoin="round"/>
<path d="M4.52002 0.710205L4.45002 0.630205" stroke="#010101" stroke-width="0.25" stroke-linecap="round" stroke-linejoin="round"/>
<path d="M4.45998 0.620117L4.47998 0.510117" stroke="#010101" stroke-width="0.25" stroke-linecap="round" stroke-linejoin="round"/>
<path d="M4.47008 0.51001L4.58008 0.46001" stroke="#010101" stroke-width="0.25" stroke-linecap="round" stroke-linejoin="round"/>
<path d="M4.58006 0.45L4.69006 0.5" stroke="#010101" stroke-width="0.25" stroke-linecap="round" stroke-linejoin="round"/>
<path d="M4.69998 0.510127L4.72998 0.630127" stroke="#010101" stroke-width="0.25" stroke-linecap="round" stroke-linejoin="round"/>
<path d="M4.72009 0.630215L4.64009 0.720215" stroke="#010101" stroke-width="0.25" stroke-linecap="round" stroke-linejoin="round"/>
<path d="M4.52002 0.730225L4.44002 0.640225" stroke="#010101" stroke-width="0.25" stroke-linecap="round" stroke-linejoin="round"/>
<path d="M4.44009 0.630127L4.47009 0.510127" stroke="#010101" stroke-width="0.25" stroke-linecap="round" stroke-linejoin="round"/>
<path d="M4.45008 0.48999L4.58008 0.42999" stroke="#010101" stroke-width="0.25" stroke-linecap="round" stroke-linejoin="round"/>
<path d="M4.58008 0.42999L4.71008 0.48999" stroke="#010101" stroke-width="0.25" stroke-linecap="round" stroke-linejoin="round"/>
<path d="M4.72 0.490127L4.75 0.630127" stroke="#010101" stroke-width="0.25" stroke-linecap="round" stroke-linejoin="round"/>
<path d="M4.75 0.64L4.66 0.75" stroke="#010101" stroke-width="0.25" stroke-linecap="round" stroke-linejoin="round"/>
<path d="M4.51001 0.75L4.42001 0.64" stroke="#010101" stroke-width="0.25" stroke-linecap="round" stroke-linejoin="round"/>
<path d="M4.42007 0.630127L4.45007 0.490127" stroke="#010101" stroke-width="0.25" stroke-linecap="round" stroke-linejoin="round"/>
<path d="M4.49005 0.800049L4.68005 0.800049" stroke="#010101" stroke-width="0.25" stroke-linecap="round" stroke-linejoin="round"/>
<path d="M4.39008 0.440186L4.58008 0.350185" stroke="#010101" stroke-width="0.25" stroke-linecap="round" stroke-linejoin="round"/>
<path d="M4.58002 0.350185L4.77002 0.440186" stroke="#010101" stroke-width="0.25" stroke-linecap="round" stroke-linejoin="round"/>
<path d="M4.78008 0.440146L4.83008 0.650146" stroke="#010101" stroke-width="0.25" stroke-linecap="round" stroke-linejoin="round"/>
<path d="M4.83008 0.660078L4.70008 0.830078" stroke="#010101" stroke-width="0.25" stroke-linecap="round" stroke-linejoin="round"/>
<path d="M4.69006 0.830078L4.48006 0.830078" stroke="#010101" stroke-width="0.25" stroke-linecap="round" stroke-linejoin="round"/>
<path d="M4.47009 0.820068L4.34009 0.650069" stroke="#010101" stroke-width="0.25" stroke-linecap="round" stroke-linejoin="round"/>
<path d="M4.34001 0.650146L4.39001 0.440146" stroke="#010101" stroke-width="0.25" stroke-linecap="round" stroke-linejoin="round"/>
<path d="M4.41008 0.460205L4.58008 0.380205" stroke="#010101" stroke-width="0.25" stroke-linecap="round" stroke-linejoin="round"/>
<path d="M4.76005 0.460137L4.80005 0.640137" stroke="#010101" stroke-width="0.25" stroke-linecap="round" stroke-linejoin="round"/>
<path d="M4.80005 0.650049L4.68005 0.800049" stroke="#010101" stroke-width="0.25" stroke-linecap="round" stroke-linejoin="round"/>
<path d="M4.48999 0.790039L4.36999 0.640039" stroke="#010101" stroke-width="0.25" stroke-linecap="round" stroke-linejoin="round"/>
<path d="M4.37003 0.640137L4.41003 0.460137" stroke="#010101" stroke-width="0.25" stroke-linecap="round" stroke-linejoin="round"/>
<path d="M6.99009 0.920166C6.99009 0.920166 6.99009 0.900166 6.99009 0.890166C7.01009 0.790166 7.01009 0.700166 7.02009 0.600166C7.02009 0.560166 7.02009 0.520166 7.02009 0.480166C7.02009 0.440166 7.02009 0.400166 7.02009 0.360166C7.02009 0.330166 7.02009 0.310166 7.02009 0.280166C7.02009 0.280166 7.02009 0.280166 7.02009 0.270166C7.02009 0.270166 7.02009 0.270166 7.02009 0.260166C7.02009 0.260166 7.03009 0.260166 7.03009 0.250166C7.03009 0.250166 7.03009 0.250166 7.03009 0.240166C7.03009 0.240166 7.03009 0.240166 7.03009 0.230166C7.03009 0.210166 7.03009 0.200166 7.03009 0.180166C7.03009 0.160166 7.03009 0.150166 7.03009 0.130166C7.16009 0.130166 5.75009 0.130166 4.52009 0.130166C3.29009 0.130166 1.88009 0.130167 2.01009 0.130166C2.01009 0.150166 2.01009 0.160166 2.01009 0.180166C2.01009 0.200166 2.01009 0.210166 2.01009 0.230166C2.01009 0.230166 2.01009 0.230166 2.01009 0.240166C2.01009 0.240166 2.01009 0.240166 2.01009 0.250166C2.01009 0.250166 2.02009 0.250167 2.02009 0.260167C2.02009 0.260167 2.02009 0.260166 2.02009 0.270166C2.02009 0.270166 2.02009 0.270167 2.02009 0.280167C2.02009 0.310167 2.02009 0.330167 2.02009 0.360167C2.02009 0.400167 2.02009 0.440166 2.02009 0.480166C2.02009 0.520166 2.02009 0.560166 2.02009 0.600166C2.02009 0.700166 2.03009 0.800166 2.05009 0.890166C2.05009 0.890166 2.05009 0.910166 2.05009 0.920166" stroke="#010101" stroke-width="0.25" stroke-linecap="round" stroke-linejoin="round"/>
<path d="M5.3501 2.01003L5.3501 2.03003" stroke="#010101" stroke-width="0.25" stroke-linecap="round" stroke-linejoin="round"/>
<path d="M5.2401 2.15015C5.2401 2.15015 5.2501 2.13015 5.2601 2.11015C5.2601 2.11015 5.2601 2.10015 5.2701 2.08015C5.2701 2.08015 5.2701 2.06015 5.2901 2.04015C5.2901 2.03015 5.2901 2.01015 5.3001 1.99015C5.3001 1.97015 5.3001 1.95015 5.3101 1.93015C5.3101 1.87015 5.3301 1.82015 5.3401 1.76015C5.3401 1.73015 5.3401 1.70015 5.3501 1.67015" stroke="#010101" stroke-width="0.25" stroke-linecap="round" stroke-linejoin="round"/>
<path d="M3.92004 2.15015C3.92004 2.15015 3.87004 2.14015 3.86004 2.12015" stroke="#010101" stroke-width="0.25" stroke-linecap="round" stroke-linejoin="round"/>
<path d="M3.90002 2.11011C3.90002 2.11011 3.90002 2.11011 3.90002 2.09011" stroke="#010101" stroke-width="0.25" stroke-linecap="round" stroke-linejoin="round"/>
<path d="M3.91005 2.12015C3.91005 2.12015 3.92005 2.14015 3.93005 2.15015" stroke="#010101" stroke-width="0.25" stroke-linecap="round" stroke-linejoin="round"/>
<path d="M5.53009 1.26001L6.84009 1.26001" stroke="#010101" stroke-width="0.25" stroke-linecap="round" stroke-linejoin="round"/>
<path d="M3.63 1.26001L2.32 1.26001" stroke="#010101" stroke-width="0.25" stroke-linecap="round" stroke-linejoin="round"/>
<path d="M6.43005 2.09009L5.33005 2.09009" stroke="#010101" stroke-width="0.25" stroke-linecap="round" stroke-linejoin="round"/>
<path d="M2.74009 2.09009L3.84009 2.09009" stroke="#010101" stroke-width="0.25" stroke-linecap="round" stroke-linejoin="round"/>
<path d="M7.26001 2.47021L7.26001 1.67021C7.26001 1.44021 7.07001 1.25021 6.84001 1.25021C6.61001 1.25021 6.42001 1.44021 6.42001 1.67021L6.42001 2.47021" stroke="#010101" stroke-width="0.25" stroke-linecap="round" stroke-linejoin="round"/>
<path d="M1.89999 2.47021L1.89999 1.67021C1.89999 1.44021 2.08999 1.25021 2.31999 1.25021C2.54999 1.25021 2.73999 1.44021 2.73999 1.67021L2.73999 2.47021" stroke="#010101" stroke-width="0.25" stroke-linecap="round" stroke-linejoin="round"/>
<path d="M1.65999 2.66016C1.65999 2.66016 1.65999 2.62016 1.65999 2.60016C1.65999 2.59016 1.67999 2.57016 1.68999 2.56016C1.70999 2.53016 1.73999 2.51016 1.76999 2.48016L2.91999 2.48016C2.91999 2.48016 2.93999 2.53016 2.95999 2.56016C2.95999 2.57016 2.97999 2.59016 2.98999 2.60016C2.98999 2.62016 2.98999 2.64016 2.98999 2.66016" stroke="#010101" stroke-width="0.25" stroke-linecap="round" stroke-linejoin="round"/>
<path d="M7.51001 2.66016C7.51001 2.66016 7.51001 2.62016 7.51001 2.60016C7.51001 2.59016 7.49001 2.57016 7.48001 2.56016C7.46001 2.53016 7.43001 2.51016 7.40001 2.48016L6.25001 2.48016C6.25001 2.48016 6.23001 2.53016 6.21001 2.56016C6.21001 2.57016 6.19001 2.59016 6.18001 2.60016C6.18001 2.62016 6.18001 2.64016 6.18001 2.66016" stroke="#010101" stroke-width="0.25" stroke-linecap="round" stroke-linejoin="round"/>
<path d="M5.18004 4.36011C5.10004 4.36011 5.02004 4.36011 4.96004 4.35011C4.90004 4.35011 4.85004 4.34011 4.81004 4.33011C4.78004 4.33011 4.76004 4.32011 4.74004 4.31011C4.72004 4.31011 4.71004 4.29011 4.70004 4.28011C4.69004 4.28011 4.68004 4.26011 4.67004 4.25011C4.67004 4.25011 4.66004 4.23011 4.66004 4.21011C4.66004 4.18011 4.66004 4.15011 4.67004 4.08011C4.67004 4.03011 4.69004 3.96011 4.70004 3.91011C4.70004 3.90011 4.70004 3.88011 4.70004 3.87011C4.70004 3.86011 4.70004 3.84011 4.71004 3.83011C4.72004 3.81011 4.75004 3.81011 4.77004 3.80011C4.81004 3.80011 4.84004 3.79011 4.87004 3.77011C4.88004 3.77011 4.90004 3.75011 4.91004 3.74011C4.95004 3.70011 4.97004 3.64011 4.99004 3.59011C5.04004 3.46011 5.09004 3.35011 5.15004 3.23011C5.19004 3.16011 5.23004 3.09011 5.27004 3.02011C5.32004 2.94011 5.38004 2.86011 5.45004 2.81011C5.50004 2.77011 5.55004 2.75011 5.61004 2.73011C5.69004 2.70011 5.77004 2.67011 5.86004 2.66011C5.88004 2.66011 5.89004 2.66011 5.91004 2.66011C5.91004 2.66011 5.92004 2.66011 5.93004 2.66011L7.77004 2.66011C7.79004 2.66011 7.81004 2.66011 7.84004 2.66011C7.92004 2.66011 8.01004 2.69011 8.09004 2.73011C8.15004 2.75011 8.20004 2.78011 8.25004 2.81011C8.32004 2.86011 8.38004 2.94011 8.43004 3.02011C8.47004 3.09011 8.51004 3.16011 8.55004 3.23011C8.61004 3.35011 8.67004 3.46011 8.71004 3.59011C8.73004 3.64011 8.75004 3.70011 8.79004 3.74011C8.80004 3.75011 8.81004 3.76011 8.83004 3.77011C8.86004 3.79011 8.89004 3.79011 8.93004 3.80011C8.95004 3.80011 8.98004 3.81011 8.99004 3.83011C8.99004 3.84011 8.99004 3.86011 9.00004 3.87011C9.00004 3.88011 9.00004 3.90011 9.00004 3.91011C9.01004 3.96011 9.02004 4.03011 9.03004 4.08011C9.03004 4.12011 9.04004 4.17011 9.04004 4.20011C9.04004 4.22011 9.04004 4.23011 9.04004 4.24011C9.04004 4.26011 9.02004 4.27011 9.01004 4.28011C9.00004 4.28011 8.98004 4.30011 8.97004 4.31011C8.97004 4.31011 8.96004 4.31011 8.95004 4.32011C8.94004 4.32011 8.92004 4.32011 8.91004 4.33011C8.88004 4.33011 8.84004 4.34011 8.79004 4.35011C8.73004 4.35011 8.67004 4.35011 8.59004 4.36011C8.51004 4.36011 8.43004 4.36011 8.34004 4.36011C8.25004 4.36011 8.17004 4.36011 8.08004 4.36011C7.99004 4.36011 7.91004 4.36011 7.82004 4.36011C7.73004 4.36011 7.65004 4.36011 7.56004 4.36011C7.47004 4.36011 7.38004 4.36011 7.30004 4.36011C7.21004 4.36011 7.12004 4.36011 7.04004 4.36011C6.95004 4.36011 6.86004 4.36011 6.78004 4.36011C6.69004 4.36011 6.60004 4.36011 6.52004 4.36011C6.43004 4.36011 6.34004 4.36011 6.26004 4.36011C6.17004 4.36011 6.08004 4.36011 6.00004 4.36011C5.91004 4.36011 5.82004 4.36011 5.74004 4.36011C5.65004 4.36011 5.57004 4.36011 5.48004 4.36011C5.39004 4.36011 5.31004 4.36011 5.23004 4.36011L5.18004 4.36011Z" stroke="#010101" stroke-width="0.25" stroke-linecap="round" stroke-linejoin="round"/>
<path d="M3.24002 2.6501C3.24002 2.6501 3.25002 2.6501 3.26002 2.6501C3.28002 2.6501 3.29002 2.6501 3.31002 2.6501C3.39002 2.6501 3.48002 2.6801 3.56002 2.7201C3.62002 2.7401 3.67002 2.7701 3.72002 2.8001C3.79002 2.8501 3.85002 2.9301 3.90002 3.0101C3.94002 3.0801 3.98002 3.1501 4.02002 3.2201C4.08002 3.3401 4.14002 3.4501 4.18002 3.5801C4.20002 3.6301 4.22002 3.6901 4.26002 3.7301C4.27002 3.7401 4.28002 3.7501 4.30002 3.7601C4.33002 3.7801 4.36002 3.7801 4.40002 3.7901C4.42002 3.7901 4.45002 3.8001 4.46002 3.8201C4.46002 3.8301 4.46002 3.8501 4.47002 3.8601C4.47002 3.8701 4.47002 3.8901 4.47002 3.9001C4.48002 3.9501 4.49002 4.0201 4.50002 4.0701C4.51002 4.1401 4.52002 4.1701 4.51002 4.2001C4.51002 4.2201 4.51002 4.2301 4.50002 4.2401C4.50002 4.2501 4.48002 4.2601 4.47002 4.2701C4.46002 4.2701 4.44002 4.2901 4.43002 4.3001C4.41002 4.3001 4.39002 4.3101 4.36002 4.3201C4.32002 4.3201 4.28002 4.3301 4.21002 4.3401C4.15002 4.3401 4.07002 4.3401 3.99002 4.3501C3.91002 4.3501 3.82002 4.3501 3.74002 4.3501C3.65002 4.3501 3.57002 4.3501 3.48002 4.3501C3.39002 4.3501 3.31002 4.3501 3.22002 4.3501C3.13002 4.3501 3.04002 4.3501 2.96002 4.3501C2.87002 4.3501 2.78002 4.3501 2.70002 4.3501C2.61002 4.3501 2.52002 4.3501 2.44002 4.3501C2.35002 4.3501 2.26002 4.3501 2.18002 4.3501C2.09002 4.3501 2.00002 4.3501 1.92002 4.3501C1.83002 4.3501 1.74002 4.3501 1.66002 4.3501C1.57002 4.3501 1.48002 4.3501 1.40002 4.3501C1.31002 4.3501 1.23002 4.3501 1.14002 4.3501C1.05002 4.3501 0.970018 4.3501 0.880018 4.3501C0.790018 4.3501 0.710018 4.3501 0.630018 4.3501C0.550018 4.3501 0.480018 4.3501 0.430018 4.3401C0.380018 4.3401 0.340018 4.3301 0.310018 4.3201C0.290018 4.3201 0.280018 4.3201 0.270018 4.3101C0.270018 4.3101 0.250018 4.3101 0.250018 4.3001C0.240018 4.3001 0.220018 4.2801 0.210018 4.2701C0.200018 4.2701 0.190018 4.2501 0.180018 4.2301C0.180018 4.2301 0.180018 4.2101 0.180018 4.1901C0.180018 4.1601 0.180018 4.1101 0.190018 4.0701C0.190018 4.0201 0.210018 3.9501 0.220018 3.9001C0.220018 3.8901 0.220018 3.8701 0.220018 3.8601C0.220018 3.8501 0.220018 3.8301 0.230018 3.8201C0.240018 3.8001 0.270018 3.8001 0.290018 3.7901C0.330018 3.7901 0.360018 3.7801 0.390018 3.7601C0.400018 3.7601 0.420018 3.7401 0.430018 3.7301C0.470018 3.6901 0.490018 3.6301 0.510018 3.5801C0.560018 3.4501 0.610018 3.3401 0.670018 3.2201C0.710018 3.1501 0.750018 3.0801 0.790018 3.0101C0.840018 2.9301 0.900018 2.8501 0.970018 2.8001C1.02002 2.7601 1.07002 2.7401 1.13002 2.7201C1.21002 2.6901 1.29002 2.6601 1.38002 2.6501C1.40002 2.6501 1.42002 2.6501 1.45002 2.6501L3.29002 2.6501L3.24002 2.6501Z" stroke="#010101" stroke-width="0.25" stroke-linecap="round" stroke-linejoin="round"/>
<path d="M6.07007 1.07C5.99007 1.12 5.92007 1.18 5.87007 1.25" stroke="#010101" stroke-width="0.25" stroke-linecap="round" stroke-linejoin="round"/>
<path d="M6.38 1.08999L6.38 1.23999" stroke="#010101" stroke-width="0.25" stroke-linecap="round" stroke-linejoin="round"/>
<path d="M6.08008 1.08999L6.08008 1.23999" stroke="#010101" stroke-width="0.25" stroke-linecap="round" stroke-linejoin="round"/>
<path d="M6.43005 1.06006C6.43005 1.06006 6.43005 1.06006 6.41005 1.06006" stroke="#010101" stroke-width="0.25" stroke-linecap="round" stroke-linejoin="round"/>
<path d="M6.47998 1.00006L6.42998 1.06006" stroke="#010101" stroke-width="0.25" stroke-linecap="round" stroke-linejoin="round"/>
<path d="M6.03003 1.06006L5.98003 1.00006" stroke="#010101" stroke-width="0.25" stroke-linecap="round" stroke-linejoin="round"/>
<path d="M6.08008 1.24C6.08008 1.24 6.08008 1.24 6.08008 1.25" stroke="#010101" stroke-width="0.25" stroke-linecap="round" stroke-linejoin="round"/>
<path d="M6.38002 1.09009C6.38002 1.09009 6.38002 1.07009 6.40002 1.07009" stroke="#010101" stroke-width="0.25" stroke-linecap="round" stroke-linejoin="round"/>
<path d="M6.37 1.26001C6.37 1.26001 6.37 1.26001 6.37 1.25001" stroke="#010101" stroke-width="0.25" stroke-linecap="round" stroke-linejoin="round"/>
<path d="M6.22998 1.07007L6.04998 1.07007" stroke="#010101" stroke-width="0.25" stroke-linecap="round" stroke-linejoin="round"/>
<path d="M6.41003 1.07007L6.23003 1.07007" stroke="#010101" stroke-width="0.25" stroke-linecap="round" stroke-linejoin="round"/>
<path d="M6.06008 1.07009C6.06008 1.07009 6.08008 1.07009 6.08008 1.09009" stroke="#010101" stroke-width="0.25" stroke-linecap="round" stroke-linejoin="round"/>
<path d="M3.23999 1L2.31999 1L2.26999 1" stroke="#010101" stroke-width="0.25" stroke-linecap="round" stroke-linejoin="round"/>
<path d="M3.13009 1.07001C3.21009 1.11001 3.28009 1.18001 3.34009 1.26001" stroke="#010101" stroke-width="0.25" stroke-linecap="round" stroke-linejoin="round"/>
<path d="M2.79004 1.08999L2.79004 1.23999" stroke="#010101" stroke-width="0.25" stroke-linecap="round" stroke-linejoin="round"/>
<path d="M2.94004 1L3.17004 1" stroke="#010101" stroke-width="0.25" stroke-linecap="round" stroke-linejoin="round"/>
<path d="M2.93007 1L2.95007 1" stroke="#010101" stroke-width="0.25" stroke-linecap="round" stroke-linejoin="round"/>
<path d="M2.69004 1L2.92004 1" stroke="#010101" stroke-width="0.25" stroke-linecap="round" stroke-linejoin="round"/>
<path d="M3.08008 1.08999L3.08008 1.23999" stroke="#010101" stroke-width="0.25" stroke-linecap="round" stroke-linejoin="round"/>
<path d="M2.74001 1.06006C2.74001 1.06006 2.74001 1.06006 2.76001 1.06006" stroke="#010101" stroke-width="0.25" stroke-linecap="round" stroke-linejoin="round"/>
<path d="M2.68999 1.00006L2.73999 1.06006" stroke="#010101" stroke-width="0.25" stroke-linecap="round" stroke-linejoin="round"/>
<path d="M3.13005 1.06006L3.18005 1.00006" stroke="#010101" stroke-width="0.25" stroke-linecap="round" stroke-linejoin="round"/>
<path d="M2.79004 1.09009C2.79004 1.09009 2.79004 1.07009 2.77004 1.07009" stroke="#010101" stroke-width="0.25" stroke-linecap="round" stroke-linejoin="round"/>
<path d="M3.08008 1.24C3.08008 1.24 3.08008 1.24 3.08008 1.25" stroke="#010101" stroke-width="0.25" stroke-linecap="round" stroke-linejoin="round"/>
<path d="M3.12001 1.07007C3.12001 1.07007 3.13001 1.07007 3.14001 1.07007" stroke="#010101" stroke-width="0.25" stroke-linecap="round" stroke-linejoin="round"/>
<path d="M3.1001 1.07009C3.1001 1.07009 3.0801 1.07009 3.0801 1.09009" stroke="#010101" stroke-width="0.25" stroke-linecap="round" stroke-linejoin="round"/>
<path d="M2.79004 1.26001C2.79004 1.26001 2.79004 1.26001 2.79004 1.25001" stroke="#010101" stroke-width="0.25" stroke-linecap="round" stroke-linejoin="round"/>
<path d="M2.94 1.07007L3.12 1.07007" stroke="#010101" stroke-width="0.25" stroke-linecap="round" stroke-linejoin="round"/>
<path d="M2.75005 1.07007L2.93005 1.07007" stroke="#010101" stroke-width="0.25" stroke-linecap="round" stroke-linejoin="round"/>
<path d="M3.82007 2.03003C3.82007 2.03003 3.82007 2.03003 3.82007 2.01003C3.82007 2.01003 3.82007 2.01003 3.82007 2.00003C3.82007 2.00003 3.82007 1.99003 3.82007 1.98003C3.82007 1.98003 3.82007 1.97003 3.82007 1.96003C3.82007 1.96003 3.82007 1.95003 3.82007 1.94003C3.82007 1.92003 3.82007 1.91003 3.81007 1.89003C3.81007 1.86003 3.81007 1.84003 3.80007 1.81003C3.80007 1.78003 3.79007 1.76003 3.78007 1.73003C3.78007 1.70003 3.78007 1.68003 3.77007 1.65003C3.77007 1.62003 3.77007 1.60003 3.76007 1.57003C3.76007 1.54003 3.75007 1.51003 3.74007 1.48003C3.74007 1.46003 3.74007 1.44003 3.73007 1.42003" stroke="#010101" stroke-width="0.25" stroke-linecap="round" stroke-linejoin="round"/>
<path d="M5.3501 2.0301C5.3501 2.0301 5.3401 2.0801 5.3301 2.1001" stroke="#010101" stroke-width="0.25" stroke-linecap="round" stroke-linejoin="round"/>
<path d="M3.85999 2.12012C3.85999 2.12012 3.81999 2.06012 3.81999 2.03012" stroke="#010101" stroke-width="0.25" stroke-linecap="round" stroke-linejoin="round"/>
<path d="M5.47009 1.42001C5.47009 1.47001 5.45009 1.53001 5.44009 1.58001C5.44009 1.63001 5.42009 1.68001 5.41009 1.73001C5.40009 1.79001 5.39009 1.84001 5.38009 1.89001C5.38009 1.91001 5.38009 1.92001 5.37009 1.94001C5.37009 1.95001 5.37009 1.97001 5.37009 1.98001C5.37009 1.99001 5.37009 2.00001 5.37009 2.01001" stroke="#010101" stroke-width="0.25" stroke-linecap="round" stroke-linejoin="round"/>
<path d="M5.31006 2.11015C5.31006 2.11015 5.27006 2.15015 5.24006 2.15015" stroke="#010101" stroke-width="0.25" stroke-linecap="round" stroke-linejoin="round"/>
<path d="M5.72009 1.67017L5.72009 1.46017" stroke="#010101" stroke-width="0.25" stroke-linecap="round" stroke-linejoin="round"/>
<path d="M5.92001 1L6.84001 1L6.89001 1" stroke="#010101" stroke-width="0.25" stroke-linecap="round" stroke-linejoin="round"/>
<path d="M5.72009 1.46021C5.72009 1.33021 5.72009 1.25021 5.72009 1.25021" stroke="#010101" stroke-width="0.25" stroke-linecap="round" stroke-linejoin="round"/>
<path d="M3.45007 1.4502L3.45007 1.4002" stroke="#010101" stroke-width="0.25" stroke-linecap="round" stroke-linejoin="round"/>
<path d="M3.45005 1.00008C3.45005 1.00008 3.52005 1.05008 3.55005 1.08008" stroke="#010101" stroke-width="0.25" stroke-linecap="round" stroke-linejoin="round"/>
<path d="M5.61008 1.08008C5.61008 1.08008 5.68008 1.02008 5.71008 1.00008" stroke="#010101" stroke-width="0.25" stroke-linecap="round" stroke-linejoin="round"/>
<path d="M5.60999 1.08018C5.50999 1.17018 5.42999 1.29018 5.39999 1.43018" stroke="#010101" stroke-width="0.25" stroke-linecap="round" stroke-linejoin="round"/>
<path d="M5.47009 1.42018C5.47009 1.42018 5.44009 1.43018 5.41009 1.43018" stroke="#010101" stroke-width="0.25" stroke-linecap="round" stroke-linejoin="round"/>
<path d="M5.92004 1.00016C5.92004 1.00016 5.83004 1.00016 5.79004 1.03016C5.74004 1.05016 5.69004 1.08016 5.64004 1.12016C5.59004 1.16016 5.55004 1.21016 5.52004 1.26016C5.51004 1.28016 5.49004 1.31016 5.48004 1.34016C5.48004 1.36016 5.46004 1.39016 5.46004 1.41016" stroke="#010101" stroke-width="0.25" stroke-linecap="round" stroke-linejoin="round"/>
<path d="M4.36007 2.18018C4.36007 2.18018 4.47007 2.18018 4.59007 2.18018C4.71007 2.18018 4.82007 2.18018 4.82007 2.18018" stroke="#010101" stroke-width="0.25" stroke-linecap="round" stroke-linejoin="round"/>
<path d="M3.89001 2.09009C3.89001 2.09009 3.89001 2.09009 3.89001 2.08009C3.89001 2.08009 3.89001 2.08009 3.89001 2.06009C3.89001 2.06009 3.89001 2.05009 3.89001 2.04009C3.89001 2.04009 3.89001 2.03009 3.89001 2.02009L3.89001 2.00009C3.89001 1.98009 3.89001 1.96009 3.88001 1.94009C3.88001 1.91009 3.88001 1.88009 3.87001 1.86009C3.87001 1.83009 3.87001 1.80009 3.86001 1.77009C3.86001 1.74009 3.86001 1.71009 3.85001 1.69009C3.85001 1.66009 3.85001 1.64009 3.84001 1.61009C3.84001 1.58009 3.83001 1.55009 3.82001 1.51009C3.82001 1.49009 3.82001 1.46009 3.81001 1.44009" stroke="#010101" stroke-width="0.25" stroke-linecap="round" stroke-linejoin="round"/>
<path d="M3.70007 1.42017C3.70007 1.42017 3.69007 1.37017 3.68007 1.35017C3.68007 1.32017 3.66007 1.30017 3.64007 1.27017C3.64007 1.26017 3.62007 1.24017 3.61007 1.23017C3.61007 1.22017 3.59007 1.20017 3.58007 1.19017C3.56007 1.17017 3.54007 1.14017 3.51007 1.12017C3.49007 1.10017 3.46007 1.08017 3.44007 1.06017C3.42007 1.04017 3.39007 1.03017 3.37007 1.02017C3.32007 1.00017 3.28007 0.990166 3.24007 0.990166" stroke="#010101" stroke-width="0.25" stroke-linecap="round" stroke-linejoin="round"/>
<path d="M3.56009 1.08003C3.62009 1.14003 3.68009 1.21003 3.72009 1.28003" stroke="#010101" stroke-width="0.25" stroke-linecap="round" stroke-linejoin="round"/>
<path d="M5.23999 2.15018C5.09999 2.16018 4.94999 2.17018 4.80999 2.18018" stroke="#010101" stroke-width="0.25" stroke-linecap="round" stroke-linejoin="round"/>
<path d="M3.71001 1.28018C3.71001 1.28018 3.75001 1.38018 3.76001 1.43018" stroke="#010101" stroke-width="0.25" stroke-linecap="round" stroke-linejoin="round"/>
<path d="M4.35999 2.18018C4.21999 2.18018 4.06999 2.17018 3.92999 2.15018" stroke="#010101" stroke-width="0.25" stroke-linecap="round" stroke-linejoin="round"/>
<path d="M5.97998 0.91C5.87998 0.91 5.78998 0.94 5.70998 1" stroke="#010101" stroke-width="0.25" stroke-linecap="round" stroke-linejoin="round"/>
<path d="M5.36002 1.67017C5.36002 1.67017 5.36002 1.62017 5.37002 1.59017C5.37002 1.53017 5.39002 1.48017 5.40002 1.43017" stroke="#010101" stroke-width="0.25" stroke-linecap="round" stroke-linejoin="round"/>
<path d="M3.18005 0.910156C2.84005 0.910156 2.51005 0.910156 2.17005 0.910156" stroke="#010101" stroke-width="0.25" stroke-linecap="round" stroke-linejoin="round"/>
<path d="M2.27002 1C2.27002 1 2.18002 0.97 2.17002 0.92" stroke="#010101" stroke-width="0.25" stroke-linecap="round" stroke-linejoin="round"/>
<path d="M5.91998 1C5.91998 1 5.97998 0.96 5.97998 0.91" stroke="#010101" stroke-width="0.25" stroke-linecap="round" stroke-linejoin="round"/>
<path d="M3.45007 1.40015C3.45007 1.30015 3.45007 1.25015 3.45007 1.25015" stroke="#010101" stroke-width="0.25" stroke-linecap="round" stroke-linejoin="round"/>
<path d="M6.98999 0.92C6.98999 0.92 6.93999 1 6.88999 1" stroke="#010101" stroke-width="0.25" stroke-linecap="round" stroke-linejoin="round"/>
<path d="M5.97999 0.910156C6.31999 0.910156 6.64999 0.910156 6.98999 0.910156" stroke="#010101" stroke-width="0.25" stroke-linecap="round" stroke-linejoin="round"/>
<path d="M3.45007 2.09009C3.45007 2.09009 3.45007 1.88009 3.45007 1.67009" stroke="#010101" stroke-width="0.25" stroke-linecap="round" stroke-linejoin="round"/>
<path d="M3.70001 1.42006C3.70001 1.42006 3.74001 1.44006 3.76001 1.43006" stroke="#010101" stroke-width="0.25" stroke-linecap="round" stroke-linejoin="round"/>
<path d="M3.23999 1C3.23999 1 3.17999 0.96 3.17999 0.91" stroke="#010101" stroke-width="0.25" stroke-linecap="round" stroke-linejoin="round"/>
<path d="M5.72009 2.09009C5.72009 2.09009 5.72009 1.88009 5.72009 1.67009" stroke="#010101" stroke-width="0.25" stroke-linecap="round" stroke-linejoin="round"/>
<path d="M3.45007 1.67017L3.45007 1.46017" stroke="#010101" stroke-width="0.25" stroke-linecap="round" stroke-linejoin="round"/>
<path d="M3.18007 0.91C3.28007 0.91 3.37007 0.94 3.45007 1" stroke="#010101" stroke-width="0.25" stroke-linecap="round" stroke-linejoin="round"/>
<path d="M4.58 0.380205L4.75 0.460205" stroke="#010101" stroke-width="0.25" stroke-linecap="round" stroke-linejoin="round"/>
<path d="M6.05005 1.07007C6.05005 1.07007 6.04005 1.07007 6.03005 1.07007" stroke="#010101" stroke-width="0.25" stroke-linecap="round" stroke-linejoin="round"/>
</g>
<defs>
<clipPath id="clip0_1331_4206">
<rect width="9.17" height="4.5" fill="white" transform="translate(9.17004 4.5) rotate(180)"/>
</clipPath>
</defs>
</svg>
