<svg width="7" height="9" viewBox="0 0 7 9" fill="none" xmlns="http://www.w3.org/2000/svg">
<path d="M1.5 4C1.9 2.8 3 2.16667 3.5 2H4.5L6.5 4C6.9 5.2 6.66667 6.5 6.5 7C5.5 7.83333 3.2 9.1 2 7.5C0.5 5.5 1 5.5 1.5 4Z" fill="white"/>
<path d="M6 0H1.5L2 1.5H6V0Z" fill="white"/>
<path d="M1.50133 0.320147C1.50133 0.320147 1.45133 0.260147 1.45133 0.220147C1.45133 0.190147 1.45133 0.160146 1.45133 0.130146L3.13133 0.130146C5.32133 0.130146 6.51133 0.130146 6.45133 0.130146C6.45133 0.160146 6.45133 0.190146 6.45133 0.220146C6.45133 0.260146 6.42133 0.300147 6.40133 0.320147C6.35133 0.370147 6.28133 0.400146 6.21133 0.400147L1.71133 0.400147C1.64133 0.400147 1.57133 0.370147 1.52133 0.320147" stroke="#010101" stroke-width="0.25" stroke-linecap="round" stroke-linejoin="round"/>
<path d="M3.28125 2.68004C3.22125 2.71004 3.17125 2.75004 3.12125 2.79004" stroke="#010101" stroke-width="0.25" stroke-linecap="round" stroke-linejoin="round"/>
<path d="M4.5813 2.66992C4.5813 2.66992 4.5713 2.66992 4.5613 2.66992" stroke="#010101" stroke-width="0.25" stroke-linecap="round" stroke-linejoin="round"/>
<path d="M4.73134 4.83008C4.73134 4.83008 4.74134 4.82008 4.75134 4.81008" stroke="#010101" stroke-width="0.25" stroke-linecap="round" stroke-linejoin="round"/>
<path d="M4.68127 1.38993L4.68127 2.42993C4.68127 2.52993 4.68127 2.64993 4.68127 2.63993C4.68127 2.65993 4.66127 2.67993 4.64127 2.67993L4.59127 2.67993" stroke="#010101" stroke-width="0.25" stroke-linecap="round" stroke-linejoin="round"/>
<path d="M1.54126 3.89998C1.54126 3.89998 1.50126 3.94998 1.48126 3.97998" stroke="#010101" stroke-width="0.25" stroke-linecap="round" stroke-linejoin="round"/>
<path d="M2.34129 1.51008C2.34129 1.51008 2.44129 1.51008 2.53129 1.51008C2.62129 1.51008 2.73129 1.51008 2.72129 1.51008C2.72129 1.53008 2.70129 1.56008 2.69129 1.58008C2.69129 1.58008 2.61129 1.58008 2.53129 1.58008C2.45129 1.58008 2.37129 1.58008 2.37129 1.58008C2.35129 1.56008 2.34129 1.54008 2.34129 1.51008Z" stroke="#010101" stroke-width="0.25" stroke-linecap="round" stroke-linejoin="round"/>
<path d="M6.19135 0.960127C6.25135 0.960127 5.17135 0.960127 3.21135 0.960128L1.70135 0.960128C1.70135 1.01013 1.71135 1.07013 1.73135 1.12013C1.74135 1.18013 1.78135 1.23013 1.82135 1.26013C1.90135 1.33013 2.01135 1.38013 2.12135 1.38013C2.03135 1.38013 3.32135 1.38013 5.14135 1.38013L5.76135 1.38013C5.87135 1.38013 5.98135 1.33013 6.06135 1.26013C6.11135 1.22013 6.14135 1.17013 6.15135 1.12013C6.17135 1.07013 6.18135 1.02013 6.18135 0.960127" stroke="#010101" stroke-width="0.25" stroke-linecap="round" stroke-linejoin="round"/>
<path d="M5.15125 1.51001L5.15125 1.38001" stroke="#010101" stroke-width="0.25" stroke-linecap="round" stroke-linejoin="round"/>
<path d="M4.68127 2.41992C4.68127 2.41992 4.62127 2.41992 4.56127 2.41992" stroke="#010101" stroke-width="0.25" stroke-linecap="round" stroke-linejoin="round"/>
<path d="M4.64136 2.66992L4.64136 1.37992" stroke="#010101" stroke-width="0.25" stroke-linecap="round" stroke-linejoin="round"/>
<path d="M5.53125 1.39002L5.53125 1.52002" stroke="#010101" stroke-width="0.25" stroke-linecap="round" stroke-linejoin="round"/>
<path d="M6.19128 0.399961L6.19128 0.959961" stroke="#010101" stroke-width="0.25" stroke-linecap="round" stroke-linejoin="round"/>
<path d="M2.34131 1.51001L2.34131 1.38001" stroke="#010101" stroke-width="0.25" stroke-linecap="round" stroke-linejoin="round"/>
<path d="M3.12131 2.78998C3.01131 2.86998 2.91131 2.96998 2.82131 3.08998C2.70131 3.24998 2.63131 3.44998 2.60131 3.64998C2.57131 3.84998 2.60131 4.03998 2.66131 4.21998C2.75131 4.46998 2.93131 4.68998 3.16131 4.84998C3.40131 5.00998 3.69131 5.08998 3.95131 5.07998C4.21131 5.07998 4.50131 4.98998 4.73131 4.82998C4.96131 4.66998 5.13131 4.44998 5.21131 4.19998C5.30131 3.94998 5.30131 3.67998 5.21131 3.41998C5.13131 3.16998 4.95131 2.92998 4.74131 2.77998C4.68131 2.73998 4.61131 2.69998 4.55131 2.65998" stroke="#010101" stroke-width="0.25" stroke-linecap="round" stroke-linejoin="round"/>
<path d="M1.69128 0.959961L1.69128 0.399961" stroke="#010101" stroke-width="0.25" stroke-linecap="round" stroke-linejoin="round"/>
<path d="M4.07134 1.87005C4.07134 1.87005 4.07134 1.87005 4.06134 1.87005M4.06134 1.87005C4.06134 1.87005 4.05134 1.87005 4.04134 1.87005C4.04134 1.87005 4.05134 1.87005 4.06134 1.87005ZM4.06134 1.87005C4.07134 1.87005 4.09134 1.88005 4.12134 1.90005C4.09134 1.91005 4.08134 1.92005 4.06134 1.93005M4.06134 1.93005C4.06134 1.93005 4.05134 1.93005 4.04134 1.93005C4.04134 1.93005 4.05134 1.93005 4.06134 1.93005ZM4.06134 1.93005C4.07134 1.93005 4.09134 1.94005 4.12134 1.96005C4.08134 1.98005 4.07134 1.98005 4.06134 1.99005M4.06134 1.99005C4.06134 1.99005 4.05134 1.99005 4.04134 1.99005C4.04134 1.99005 4.05134 1.99005 4.06134 1.99005ZM4.06134 1.99005C4.07134 1.99005 4.09134 2.00005 4.12134 2.02005C4.09134 2.03005 4.08134 2.04005 4.06134 2.05005M4.06134 2.05005C4.06134 2.05005 4.05134 2.05005 4.04134 2.05005C4.04134 2.05005 4.05134 2.05005 4.06134 2.05005ZM4.06134 2.05005C4.07134 2.05005 4.09134 2.06005 4.12134 2.08005C4.09134 2.10005 4.07134 2.10005 4.06134 2.11005M4.06134 2.11005C4.06134 2.11005 4.05134 2.11005 4.04134 2.11005C4.04134 2.11005 4.05134 2.11005 4.06134 2.11005ZM4.06134 2.11005C4.07134 2.11005 4.09134 2.12005 4.12134 2.14005C4.09134 2.15005 4.08134 2.16005 4.06134 2.17005M4.06134 2.17005C4.06134 2.17005 4.05134 2.17005 4.04134 2.17005C4.04134 2.17005 4.05134 2.17005 4.06134 2.17005ZM4.06134 2.17005C4.07134 2.17005 4.09134 2.18005 4.12134 2.20005C4.09134 2.22005 4.07134 2.22005 4.06134 2.23005M4.06134 2.23005C4.06134 2.23005 4.05134 2.23005 4.04134 2.23005C4.04134 2.23005 4.05134 2.23005 4.06134 2.23005ZM4.06134 2.23005C4.07134 2.23005 4.09134 2.24005 4.12134 2.26005C4.09134 2.27005 4.08134 2.28005 4.06134 2.29005M4.06134 2.29005C4.06134 2.29005 4.05134 2.29005 4.04134 2.29005C4.04134 2.29005 4.05134 2.29005 4.06134 2.29005ZM4.06134 2.29005C4.07134 2.29005 4.09134 2.30005 4.12134 2.32005C4.08134 2.34005 4.07134 2.34005 4.06134 2.35005M4.06134 2.35005C4.06134 2.35005 4.05134 2.35005 4.04134 2.35005C4.04134 2.35005 4.05134 2.35005 4.06134 2.35005ZM4.06134 2.35005C4.07134 2.35005 4.09134 2.36005 4.12134 2.38005C4.09134 2.39005 4.08134 2.40005 4.06134 2.41005M4.06134 2.41005C4.06134 2.41005 4.05134 2.41005 4.04134 2.41005C4.04134 2.41005 4.05134 2.41005 4.06134 2.41005ZM4.06134 2.41005C4.07134 2.41005 4.09134 2.42005 4.12134 2.44005C4.09134 2.45005 4.08134 2.46005 4.06134 2.47005M4.06134 2.47005C4.06134 2.47005 4.05134 2.47005 4.04134 2.47005C4.04134 2.47005 4.05134 2.47005 4.06134 2.47005ZM4.06134 2.47005C4.07134 2.47005 4.09134 2.48005 4.12134 2.50005C4.09134 2.51005 4.08134 2.52005 4.06134 2.53005M4.06134 2.53005C4.06134 2.53005 4.05134 2.53005 4.04134 2.53005C4.04134 2.53005 4.05134 2.53005 4.06134 2.53005ZM4.06134 2.53005C4.07134 2.53005 4.09134 2.54005 4.12134 2.56005C4.09134 2.57005 4.08134 2.58005 4.06134 2.59005M4.06134 2.59005C4.06134 2.59005 4.05134 2.59005 4.04134 2.59005C4.04134 2.59005 4.05134 2.59005 4.06134 2.59005ZM4.06134 2.59005C4.07134 2.59005 4.09134 2.60005 4.12134 2.62005C4.09134 2.63005 4.08134 2.64005 4.06134 2.65005M4.06134 2.65005C4.06134 2.65005 4.05134 2.65005 4.04134 2.65005C4.04134 2.65005 4.05134 2.65005 4.06134 2.65005ZM4.06134 2.65005C4.07134 2.65005 4.09134 2.66005 4.12134 2.68005C4.09134 2.69005 4.08134 2.70005 4.06134 2.71005M4.06134 2.71005C4.06134 2.71005 4.05134 2.71005 4.04134 2.71005C4.04134 2.71005 4.05134 2.71005 4.06134 2.71005ZM4.06134 2.71005C4.07134 2.71005 4.09134 2.72005 4.12134 2.74005C4.09134 2.75005 4.08134 2.76005 4.06134 2.77005M4.06134 2.77005C4.06134 2.77005 4.05134 2.77005 4.04134 2.77005C4.04134 2.77005 4.05134 2.77005 4.06134 2.77005ZM4.06134 2.77005C4.07134 2.77005 4.09134 2.78005 4.12134 2.80005C4.12134 2.80005 4.11134 2.80005 4.10134 2.80005C4.10134 2.80005 4.10134 2.80005 4.08134 2.80005" stroke="#010101" stroke-width="0.25" stroke-linecap="round" stroke-linejoin="round"/>
<path d="M2.73132 1.39002L2.73132 1.52002" stroke="#010101" stroke-width="0.25" stroke-linecap="round" stroke-linejoin="round"/>
<path d="M3.56128 2.41993C3.44128 2.47993 3.34128 2.57993 3.27128 2.68993C3.16128 2.87993 3.14128 3.11993 3.22128 3.32993C3.34128 3.62993 3.63128 3.81993 3.94128 3.80993C4.09128 3.80993 4.25128 3.75993 4.38128 3.66993C4.51128 3.57993 4.60128 3.44993 4.65128 3.31993C4.67128 3.25993 4.68128 3.20993 4.69128 3.14993C4.69128 3.08993 4.69128 3.02993 4.68128 2.95993C4.66128 2.86993 4.62128 2.78993 4.56128 2.72993" stroke="#010101" stroke-width="0.25" stroke-linecap="round" stroke-linejoin="round"/>
<path d="M5.15135 1.51008C5.15135 1.51008 5.25135 1.51008 5.34135 1.51008C5.43135 1.51008 5.54135 1.51008 5.53135 1.51008C5.53135 1.53008 5.51135 1.56008 5.50135 1.58008C5.50135 1.58008 5.42135 1.58008 5.34135 1.58008C5.26135 1.58008 5.18135 1.58008 5.18135 1.58008C5.16135 1.56008 5.15135 1.54008 5.15135 1.51008Z" stroke="#010101" stroke-width="0.25" stroke-linecap="round" stroke-linejoin="round"/>
<path d="M4.6813 2.23995C5.1113 2.38995 5.4713 2.66995 5.7313 3.03995C5.9513 3.34995 6.1713 3.65995 6.3813 3.96995C6.4513 4.06995 6.5113 4.16995 6.5613 4.27995C6.7513 4.64995 6.8613 5.09995 6.8513 5.52995C6.8513 5.95995 6.7313 6.37995 6.5313 6.74995C6.4013 6.98995 6.2313 7.20995 6.0313 7.40995C5.8213 7.60995 5.5813 7.78995 5.3113 7.91995C4.8913 8.12995 4.4313 8.24995 3.9713 8.24995C3.4613 8.25995 2.9113 8.12995 2.4413 7.85995C1.9713 7.59995 1.5813 7.19995 1.3413 6.76995C1.3213 6.73995 1.3113 6.70995 1.2913 6.67995C0.841301 5.80995 0.9213 4.76995 1.4713 3.95995C1.6813 3.64995 1.9013 3.33995 2.1213 3.02995C2.4513 2.54995 2.9713 2.22995 3.5413 2.12995" stroke="#010101" stroke-width="0.25" stroke-linecap="round" stroke-linejoin="round"/>
<path d="M4.0413 2.96997L4.0613 2.96997M4.0613 2.96997C4.0613 2.96997 4.0713 2.96997 4.0813 2.96997C4.0813 2.96997 4.0713 2.96997 4.0613 2.96997ZM4.0613 2.96997C4.0513 2.96997 4.0313 2.95997 4.0013 2.93997C4.0013 2.93997 4.0113 2.93997 4.0213 2.93997C4.0313 2.93997 4.0513 2.92997 4.0613 2.91997M4.0613 2.91997C4.0613 2.91997 4.0713 2.91997 4.0813 2.91997C4.0813 2.91997 4.0713 2.91997 4.0613 2.91997ZM4.0613 2.91997C4.0513 2.91997 4.0313 2.90997 4.0013 2.88997C4.0013 2.88997 4.0113 2.88997 4.0213 2.88997C4.0313 2.88997 4.0513 2.87997 4.0613 2.86997M4.0613 2.86997C4.0613 2.86997 4.0713 2.86997 4.0813 2.86997C4.0813 2.86997 4.0713 2.86997 4.0613 2.86997ZM4.0613 2.86997C4.0513 2.86997 4.0313 2.85997 4.0013 2.83997C4.0013 2.83997 4.0113 2.83997 4.0213 2.83997C4.0313 2.83997 4.0513 2.82997 4.0613 2.81997M4.0613 2.81997C4.0613 2.81997 4.0713 2.81997 4.0813 2.81997C4.0813 2.81997 4.0713 2.81997 4.0613 2.81997ZM4.0613 2.81997C4.0513 2.81997 4.0313 2.80997 4.0013 2.78997C4.0013 2.78997 4.0113 2.78997 4.0213 2.78997C4.0313 2.78997 4.0513 2.77997 4.0613 2.76997M4.0613 2.76997C4.0613 2.76997 4.0713 2.76997 4.0813 2.76997C4.0813 2.76997 4.0713 2.76997 4.0613 2.76997ZM4.0613 2.76997C4.0513 2.76997 4.0313 2.75997 4.0013 2.73997C4.0013 2.73997 4.0113 2.73997 4.0213 2.73997C4.0313 2.73997 4.0513 2.72997 4.0613 2.71997M4.0613 2.71997C4.0613 2.71997 4.0713 2.71997 4.0813 2.71997C4.0813 2.71997 4.0713 2.71997 4.0613 2.71997ZM4.0613 2.71997C4.0513 2.71997 4.0313 2.70997 4.0013 2.68997C4.0013 2.68997 4.0113 2.68997 4.0213 2.68997C4.0313 2.68997 4.0513 2.67997 4.0613 2.66997M4.0613 2.66997C4.0613 2.66997 4.0713 2.66997 4.0813 2.66997C4.0813 2.66997 4.0713 2.66997 4.0613 2.66997ZM4.0613 2.66997C4.0513 2.66997 4.0313 2.65997 4.0013 2.63997C4.0013 2.63997 4.0113 2.63997 4.0213 2.63997C4.0313 2.63997 4.0513 2.62997 4.0613 2.61997M4.0613 2.61997C4.0613 2.61997 4.0713 2.61997 4.0813 2.61997C4.0813 2.61997 4.0713 2.61997 4.0613 2.61997ZM4.0613 2.61997C4.0513 2.61997 4.0313 2.60997 4.0013 2.58997C4.0013 2.58997 4.0113 2.58997 4.0213 2.58997C4.0313 2.58997 4.0513 2.57997 4.0613 2.56997M4.0613 2.56997C4.0613 2.56997 4.0713 2.56997 4.0813 2.56997C4.0813 2.56997 4.0713 2.56997 4.0613 2.56997ZM4.0613 2.56997C4.0513 2.56997 4.0313 2.55997 4.0013 2.53997C4.0013 2.53997 4.0113 2.53997 4.0213 2.53997C4.0313 2.53997 4.0513 2.52997 4.0613 2.51997M4.0613 2.51997C4.0613 2.51997 4.0713 2.51997 4.0813 2.51997C4.0813 2.51997 4.0713 2.51997 4.0613 2.51997ZM4.0613 2.51997C4.0513 2.51997 4.0313 2.50997 4.0013 2.48997C4.0013 2.48997 4.0113 2.48997 4.0213 2.48997C4.0313 2.48997 4.0513 2.47997 4.0613 2.46997M4.0613 2.46997C4.0613 2.46997 4.0713 2.46997 4.0813 2.46997C4.0813 2.46997 4.0713 2.46997 4.0613 2.46997ZM4.0613 2.46997C4.0513 2.46997 4.0313 2.45997 4.0013 2.43997C4.0013 2.43997 4.0113 2.43997 4.0213 2.43997C4.0313 2.43997 4.0513 2.42997 4.0613 2.41997M4.0613 2.41997C4.0613 2.41997 4.0713 2.41997 4.0813 2.41997C4.0813 2.41997 4.0713 2.41997 4.0613 2.41997ZM4.0613 2.41997C4.0513 2.41997 4.0313 2.40997 4.0013 2.38997C4.0013 2.38997 4.0113 2.38997 4.0213 2.38997C4.0313 2.38997 4.0513 2.37997 4.0613 2.36997M4.0613 2.36997C4.0613 2.36997 4.0713 2.36997 4.0813 2.36997C4.0813 2.36997 4.0713 2.36997 4.0613 2.36997ZM4.0613 2.36997C4.0513 2.36997 4.0313 2.35997 4.0013 2.33997C4.0013 2.33997 4.0113 2.33997 4.0213 2.33997C4.0313 2.33997 4.0513 2.32997 4.0613 2.31997M4.0613 2.31997C4.0613 2.31997 4.0713 2.31997 4.0813 2.31997C4.0813 2.31997 4.0713 2.31997 4.0613 2.31997ZM4.0613 2.31997C4.0513 2.31997 4.0313 2.30997 4.0013 2.28997C4.0013 2.28997 4.0113 2.28997 4.0213 2.28997C4.0313 2.28997 4.0513 2.27997 4.0613 2.26997M4.0613 2.26997C4.0613 2.26997 4.0713 2.26997 4.0813 2.26997C4.0813 2.26997 4.0713 2.26997 4.0613 2.26997ZM4.0613 2.26997C4.0513 2.26997 4.0313 2.25997 4.0013 2.23997C4.0013 2.23997 4.0113 2.23997 4.0213 2.23997C4.0313 2.23997 4.0513 2.22997 4.0613 2.21997M4.0613 2.21997C4.0613 2.21997 4.0713 2.21997 4.0813 2.21997C4.0813 2.21997 4.0713 2.21997 4.0613 2.21997ZM4.0613 2.21997C4.0513 2.21997 4.0313 2.20997 4.0013 2.18997C4.0013 2.18997 4.0113 2.18997 4.0213 2.18997C4.0213 2.18997 4.0213 2.18997 4.0313 2.18997" stroke="#010101" stroke-width="0.25" stroke-linecap="round" stroke-linejoin="round"/>
<path d="M4.56128 2.04C4.54128 1.99 4.50128 1.94 4.45128 1.91C4.41128 1.89 4.36128 1.87 4.31128 1.88C4.26128 1.88 4.19128 1.88 4.12128 1.88C3.93128 1.88 3.86128 1.88 3.81128 1.88C3.76128 1.88 3.71128 1.88 3.67128 1.91C3.62128 1.94 3.58128 1.99 3.56128 2.04C3.56128 2.01 3.56128 2.34 3.56128 2.7C3.56128 2.76 3.56128 2.82 3.56128 2.81C3.58128 2.87 3.62128 2.91 3.67128 2.94C3.71128 2.96 3.76128 2.98 3.81128 2.97C3.85128 2.97 3.91128 2.97 3.96128 2.97C3.97128 2.97 3.99128 2.97 4.01128 2.97L4.31128 2.97C4.31128 2.97 4.41128 2.97 4.45128 2.94C4.50128 2.91 4.54128 2.86 4.56128 2.81L4.56128 1.39" stroke="#010101" stroke-width="0.25" stroke-linecap="round" stroke-linejoin="round"/>
<path d="M3.56126 2.72009C3.50126 2.92009 3.61126 3.14009 3.82126 3.20009C4.01126 3.26009 4.21126 3.16009 4.29126 2.98009" stroke="#010101" stroke-width="0.25" stroke-linecap="round" stroke-linejoin="round"/>
<path d="M4.5813 1.38993L4.5813 2.67993" stroke="#010101" stroke-width="0.25" stroke-linecap="round" stroke-linejoin="round"/>
</svg>
