<?xml version="1.0" encoding="UTF-8"?>
<svg id="Layer_1" data-name="Layer 1" xmlns="http://www.w3.org/2000/svg" width="151.04" height="52.92" viewBox="0 0 151.04 52.92">
  <defs>
    <style>
      .cls-1 {
        fill: #fff;
      }

      .cls-2 {
        fill: none;
        stroke: #010101;
        stroke-miterlimit: 10;
        stroke-width: .25px;
      }
    </style>
  </defs>
  <g id="Default">
    <path class="cls-1" d="m2.52,52.79V9.52l-1.91-.52V1l-.48-.13V.12l150.79,40.84v.75l-.48-.13v8l-1.91-.52v3.73H2.52Z"/>
  </g>
  <g id="Make2D">
    <g id="Make2D::Visible">
      <g id="Make2D::Visible::Curves">
        <path class="cls-2" d="m.61,9l149.51,40.49"/>
        <path class="cls-2" d="m.12.12l150.79,40.84"/>
        <path class="cls-2" d="m7.02,52.79h137"/>
        <path class="cls-2" d="m7.02,10.74v42.05"/>
        <path class="cls-2" d="m.12.87l150.79,40.84"/>
        <path class="cls-2" d="m144.02,47.84v4.95"/>
        <path class="cls-2" d="m7.02,52.79H2.52"/>
        <path class="cls-2" d="m148.52,52.79h-4.5"/>
        <path class="cls-2" d="m.12.87V.12"/>
        <path class="cls-2" d="m150.92,41.71v-.75"/>
        <path class="cls-2" d="m148.52,49.06v3.73"/>
        <path class="cls-2" d="m150.43,41.58v8"/>
        <path class="cls-2" d="m150.11,49.49l.32.09"/>
        <path class="cls-2" d="m2.52,9.52v43.27"/>
        <path class="cls-2" d="m.61,1v8"/>
      </g>
      <g id="Make2D::Visible::SceneSilhouetteCurves">
        <path class="cls-2" d="m.61,1v8"/>
        <path class="cls-2" d="m150.11,49.49l.32.09"/>
        <path class="cls-2" d="m.12.87V.12"/>
        <path class="cls-2" d="m.12.12l150.79,40.84"/>
        <path class="cls-2" d="m7.02,52.79H2.52"/>
        <path class="cls-2" d="m.12.87l150.79,40.84"/>
        <path class="cls-2" d="m.61,9l149.51,40.49"/>
        <path class="cls-2" d="m2.52,9.52v43.27"/>
        <path class="cls-2" d="m7.02,52.79h137"/>
        <path class="cls-2" d="m150.92,41.71v-.75"/>
        <path class="cls-2" d="m148.52,49.06v3.73"/>
        <path class="cls-2" d="m150.43,41.58v8"/>
        <path class="cls-2" d="m148.52,52.79h-4.5"/>
      </g>
    </g>
  </g>
</svg>