<svg width="152" height="78" viewBox="0 0 152 78" fill="none" xmlns="http://www.w3.org/2000/svg">
<g clip-path="url(#clip0_897_403)">
<rect y="0.75" width="4" height="77.25" fill="white"/>
<rect x="4" y="9" width="144" height="69" fill="white"/>
<rect x="148" width="4" height="78" fill="white"/>
<path d="M0.130005 0.703125H4.12344" stroke="black" stroke-width="0.25" stroke-linecap="round" stroke-linejoin="round"/>
<path d="M4.12323 0.703125V77.903" stroke="black" stroke-width="0.25" stroke-linecap="round" stroke-linejoin="round"/>
<path d="M4.12344 77.9028H0.130005" stroke="black" stroke-width="0.25" stroke-linecap="round" stroke-linejoin="round"/>
<path d="M0.130005 77.903V0.703125" stroke="black" stroke-width="0.25" stroke-linecap="round" stroke-linejoin="round"/>
<path d="M147.877 0.0898438H151.87" stroke="black" stroke-width="0.25" stroke-linecap="round" stroke-linejoin="round"/>
<path d="M151.87 0.0898438V77.9029" stroke="black" stroke-width="0.25" stroke-linecap="round" stroke-linejoin="round"/>
<path d="M151.87 77.9028H147.877" stroke="black" stroke-width="0.25" stroke-linecap="round" stroke-linejoin="round"/>
<path d="M147.877 77.9029V0.0898438" stroke="black" stroke-width="0.25" stroke-linecap="round" stroke-linejoin="round"/>
<path d="M147.877 8.94336V11.9344" stroke="black" stroke-width="0.25" stroke-linecap="round" stroke-linejoin="round"/>
<path d="M147.877 11.9346H4.12323" stroke="black" stroke-width="0.25" stroke-linecap="round" stroke-linejoin="round"/>
<path d="M4.12323 11.9344V8.94336" stroke="black" stroke-width="0.25" stroke-linecap="round" stroke-linejoin="round"/>
<path d="M4.12323 8.94336H147.877" stroke="black" stroke-width="0.25" stroke-linecap="round" stroke-linejoin="round"/>
<path d="M4.11322 11.9346H147.877" stroke="black" stroke-width="0.25" stroke-linecap="round" stroke-linejoin="round"/>
<path d="M147.877 11.9346V77.1552" stroke="black" stroke-width="0.25" stroke-linecap="round" stroke-linejoin="round"/>
<path d="M147.877 77.155H4.11322" stroke="black" stroke-width="0.25" stroke-linecap="round" stroke-linejoin="round"/>
<path d="M4.11322 77.1552V11.9346" stroke="black" stroke-width="0.25" stroke-linecap="round" stroke-linejoin="round"/>
<path d="M0.119995 77.155V77.9028" stroke="black" stroke-width="0.25" stroke-linecap="round" stroke-linejoin="round"/>
<path d="M0.119995 77.9028H151.87" stroke="black" stroke-width="0.25" stroke-linecap="round" stroke-linejoin="round"/>
<path d="M151.87 77.9028V77.155" stroke="black" stroke-width="0.25" stroke-linecap="round" stroke-linejoin="round"/>
<path d="M151.87 77.155H0.119995" stroke="black" stroke-width="0.25" stroke-linecap="round" stroke-linejoin="round"/>
</g>
<defs>
<clipPath id="clip0_897_403">
<rect width="152" height="78" fill="white"/>
</clipPath>
</defs>
</svg>
