<svg width="44" height="96" viewBox="0 0 44 96" fill="none" xmlns="http://www.w3.org/2000/svg">
<g clip-path="url(#clip0_1338_1508)">
<rect width="43.48" height="95.32" fill="white"/>
<path d="M3.63 14.09H39.85" stroke="black" stroke-width="0.25" stroke-linecap="round" stroke-linejoin="round"/>
<path d="M39.85 14.09V93.7" stroke="black" stroke-width="0.25" stroke-linecap="round" stroke-linejoin="round"/>
<path d="M39.85 93.7H3.63" stroke="black" stroke-width="0.25" stroke-linecap="round" stroke-linejoin="round"/>
<path d="M3.63 93.7V14.09" stroke="black" stroke-width="0.25" stroke-linecap="round" stroke-linejoin="round"/>
<path d="M43.35 14.09H39.85" stroke="black" stroke-width="0.25" stroke-linecap="round" stroke-linejoin="round"/>
<path d="M39.85 14.09V94.2" stroke="black" stroke-width="0.25" stroke-linecap="round" stroke-linejoin="round"/>
<path d="M39.85 94.2H43.35" stroke="black" stroke-width="0.25" stroke-linecap="round" stroke-linejoin="round"/>
<path d="M43.35 94.2V14.09" stroke="black" stroke-width="0.25" stroke-linecap="round" stroke-linejoin="round"/>
<path d="M3.63 14.09H0.130005" stroke="black" stroke-width="0.25" stroke-linecap="round" stroke-linejoin="round"/>
<path d="M0.130005 14.09V94.2" stroke="black" stroke-width="0.25" stroke-linecap="round" stroke-linejoin="round"/>
<path d="M0.130005 94.2H3.63" stroke="black" stroke-width="0.25" stroke-linecap="round" stroke-linejoin="round"/>
<path d="M3.63 94.2V14.09" stroke="black" stroke-width="0.25" stroke-linecap="round" stroke-linejoin="round"/>
<path d="M43.35 13.11H0.130005" stroke="black" stroke-width="0.25" stroke-linecap="round" stroke-linejoin="round"/>
<path d="M0.130005 13.11V14.09" stroke="black" stroke-width="0.25" stroke-linecap="round" stroke-linejoin="round"/>
<path d="M0.130005 14.09H43.35" stroke="black" stroke-width="0.25" stroke-linecap="round" stroke-linejoin="round"/>
<path d="M43.35 14.09V13.11" stroke="black" stroke-width="0.25" stroke-linecap="round" stroke-linejoin="round"/>
<path d="M39.85 93.7H3.63" stroke="black" stroke-width="0.25" stroke-linecap="round" stroke-linejoin="round"/>
<path d="M3.63 93.7V94.2" stroke="black" stroke-width="0.25" stroke-linecap="round" stroke-linejoin="round"/>
<path d="M3.63 94.2H39.85" stroke="black" stroke-width="0.25" stroke-linecap="round" stroke-linejoin="round"/>
<path d="M39.85 94.2V93.7" stroke="black" stroke-width="0.25" stroke-linecap="round" stroke-linejoin="round"/>
<path d="M43.35 94.2V95.2" stroke="black" stroke-width="0.25" stroke-linecap="round" stroke-linejoin="round"/>
<path d="M43.35 95.2H0.119995" stroke="black" stroke-width="0.25" stroke-linecap="round" stroke-linejoin="round"/>
<path d="M0.119995 95.2V94.2" stroke="black" stroke-width="0.25" stroke-linecap="round" stroke-linejoin="round"/>
<path d="M0.119995 94.2H43.35" stroke="black" stroke-width="0.25" stroke-linecap="round" stroke-linejoin="round"/>
<path d="M43.35 0.119995L0.130005 0.129995" stroke="black" stroke-width="0.25" stroke-linecap="round" stroke-linejoin="round"/>
<path d="M0.130005 0.130005V11.61" stroke="black" stroke-width="0.25" stroke-linecap="round" stroke-linejoin="round"/>
<path d="M0.130005 11.61H43.35" stroke="black" stroke-width="0.25" stroke-linecap="round" stroke-linejoin="round"/>
<path d="M43.35 11.61V0.119995" stroke="black" stroke-width="0.25" stroke-linecap="round" stroke-linejoin="round"/>
<path d="M43.35 11.61H0.130005" stroke="black" stroke-width="0.25" stroke-linecap="round" stroke-linejoin="round"/>
<path d="M0.130005 11.61V13.11" stroke="black" stroke-width="0.25" stroke-linecap="round" stroke-linejoin="round"/>
<path d="M0.130005 13.11H43.35" stroke="black" stroke-width="0.25" stroke-linecap="round" stroke-linejoin="round"/>
<path d="M43.35 13.11V11.61" stroke="black" stroke-width="0.25" stroke-linecap="round" stroke-linejoin="round"/>
<path d="M39.77 14.34H3.70999" stroke="black" stroke-width="0.25" stroke-linecap="round" stroke-linejoin="round"/>
<path d="M3.70999 14.34V93.95" stroke="black" stroke-width="0.25" stroke-linecap="round" stroke-linejoin="round"/>
<path d="M3.70999 93.95H39.77" stroke="black" stroke-width="0.25" stroke-linecap="round" stroke-linejoin="round"/>
<path d="M39.77 93.95V14.34" stroke="black" stroke-width="0.25" stroke-linecap="round" stroke-linejoin="round"/>
<path d="M3.90999 83.63H3.35999" stroke="black" stroke-width="0.25" stroke-linecap="round" stroke-linejoin="round"/>
<path d="M3.35999 83.63V88.03" stroke="black" stroke-width="0.25" stroke-linecap="round" stroke-linejoin="round"/>
<path d="M3.35999 88.03H3.90999" stroke="black" stroke-width="0.25" stroke-linecap="round" stroke-linejoin="round"/>
<path d="M3.91 88.03V83.63" stroke="black" stroke-width="0.25" stroke-linecap="round" stroke-linejoin="round"/>
<path d="M3.35999 84.59H3.90999" stroke="black" stroke-width="0.25" stroke-linecap="round" stroke-linejoin="round"/>
<path d="M3.91 84.59V84.28" stroke="black" stroke-width="0.25" stroke-linecap="round" stroke-linejoin="round"/>
<path d="M3.90999 84.28H3.35999" stroke="black" stroke-width="0.25" stroke-linecap="round" stroke-linejoin="round"/>
<path d="M3.35999 84.28V84.59" stroke="black" stroke-width="0.25" stroke-linecap="round" stroke-linejoin="round"/>
<path d="M3.35999 85.4399H3.90999" stroke="black" stroke-width="0.25" stroke-linecap="round" stroke-linejoin="round"/>
<path d="M3.91 85.4399V86.2199" stroke="black" stroke-width="0.25" stroke-linecap="round" stroke-linejoin="round"/>
<path d="M3.90999 86.22H3.35999" stroke="black" stroke-width="0.25" stroke-linecap="round" stroke-linejoin="round"/>
<path d="M3.35999 86.2199V85.4399" stroke="black" stroke-width="0.25" stroke-linecap="round" stroke-linejoin="round"/>
<path d="M3.35999 87.0699H3.90999" stroke="black" stroke-width="0.25" stroke-linecap="round" stroke-linejoin="round"/>
<path d="M3.91 87.0699V87.3799" stroke="black" stroke-width="0.25" stroke-linecap="round" stroke-linejoin="round"/>
<path d="M3.90999 87.38H3.35999" stroke="black" stroke-width="0.25" stroke-linecap="round" stroke-linejoin="round"/>
<path d="M3.35999 87.3799V87.0699" stroke="black" stroke-width="0.25" stroke-linecap="round" stroke-linejoin="round"/>
<path d="M3.90999 83.49H3.35999" stroke="black" stroke-width="0.25" stroke-linecap="round" stroke-linejoin="round"/>
<path d="M3.35999 83.49V83.63" stroke="black" stroke-width="0.25" stroke-linecap="round" stroke-linejoin="round"/>
<path d="M3.35999 83.63H3.90999" stroke="black" stroke-width="0.25" stroke-linecap="round" stroke-linejoin="round"/>
<path d="M3.91 83.63V83.49" stroke="black" stroke-width="0.25" stroke-linecap="round" stroke-linejoin="round"/>
<path d="M3.90999 88.03H3.35999" stroke="black" stroke-width="0.25" stroke-linecap="round" stroke-linejoin="round"/>
<path d="M3.35999 88.03V88.17" stroke="black" stroke-width="0.25" stroke-linecap="round" stroke-linejoin="round"/>
<path d="M3.35999 88.17H3.90999" stroke="black" stroke-width="0.25" stroke-linecap="round" stroke-linejoin="round"/>
<path d="M3.91 88.17V88.03" stroke="black" stroke-width="0.25" stroke-linecap="round" stroke-linejoin="round"/>
<path d="M3.90999 51.9399H3.35999" stroke="black" stroke-width="0.25" stroke-linecap="round" stroke-linejoin="round"/>
<path d="M3.35999 51.9399V56.3499" stroke="black" stroke-width="0.25" stroke-linecap="round" stroke-linejoin="round"/>
<path d="M3.35999 56.35H3.90999" stroke="black" stroke-width="0.25" stroke-linecap="round" stroke-linejoin="round"/>
<path d="M3.91 56.3499V51.9399" stroke="black" stroke-width="0.25" stroke-linecap="round" stroke-linejoin="round"/>
<path d="M3.35999 52.91H3.90999" stroke="black" stroke-width="0.25" stroke-linecap="round" stroke-linejoin="round"/>
<path d="M3.91 52.91V52.6" stroke="black" stroke-width="0.25" stroke-linecap="round" stroke-linejoin="round"/>
<path d="M3.90999 52.6H3.35999" stroke="black" stroke-width="0.25" stroke-linecap="round" stroke-linejoin="round"/>
<path d="M3.35999 52.6V52.91" stroke="black" stroke-width="0.25" stroke-linecap="round" stroke-linejoin="round"/>
<path d="M3.35999 53.76H3.90999" stroke="black" stroke-width="0.25" stroke-linecap="round" stroke-linejoin="round"/>
<path d="M3.91 53.76V54.53" stroke="black" stroke-width="0.25" stroke-linecap="round" stroke-linejoin="round"/>
<path d="M3.90999 54.53H3.35999" stroke="black" stroke-width="0.25" stroke-linecap="round" stroke-linejoin="round"/>
<path d="M3.35999 54.53V53.76" stroke="black" stroke-width="0.25" stroke-linecap="round" stroke-linejoin="round"/>
<path d="M3.35999 55.38H3.90999" stroke="black" stroke-width="0.25" stroke-linecap="round" stroke-linejoin="round"/>
<path d="M3.91 55.38V55.69" stroke="black" stroke-width="0.25" stroke-linecap="round" stroke-linejoin="round"/>
<path d="M3.90999 55.6899H3.35999" stroke="black" stroke-width="0.25" stroke-linecap="round" stroke-linejoin="round"/>
<path d="M3.35999 55.69V55.38" stroke="black" stroke-width="0.25" stroke-linecap="round" stroke-linejoin="round"/>
<path d="M3.90999 51.8101H3.35999" stroke="black" stroke-width="0.25" stroke-linecap="round" stroke-linejoin="round"/>
<path d="M3.35999 51.8101V51.9401" stroke="black" stroke-width="0.25" stroke-linecap="round" stroke-linejoin="round"/>
<path d="M3.35999 51.9399H3.90999" stroke="black" stroke-width="0.25" stroke-linecap="round" stroke-linejoin="round"/>
<path d="M3.91 51.9401V51.8101" stroke="black" stroke-width="0.25" stroke-linecap="round" stroke-linejoin="round"/>
<path d="M3.90999 56.35H3.35999" stroke="black" stroke-width="0.25" stroke-linecap="round" stroke-linejoin="round"/>
<path d="M3.35999 56.35V56.48" stroke="black" stroke-width="0.25" stroke-linecap="round" stroke-linejoin="round"/>
<path d="M3.35999 56.48H3.90999" stroke="black" stroke-width="0.25" stroke-linecap="round" stroke-linejoin="round"/>
<path d="M3.91 56.48V56.35" stroke="black" stroke-width="0.25" stroke-linecap="round" stroke-linejoin="round"/>
<path d="M3.90999 20.4399H3.35999" stroke="black" stroke-width="0.25" stroke-linecap="round" stroke-linejoin="round"/>
<path d="M3.35999 20.4399V24.8499" stroke="black" stroke-width="0.25" stroke-linecap="round" stroke-linejoin="round"/>
<path d="M3.35999 24.85H3.90999" stroke="black" stroke-width="0.25" stroke-linecap="round" stroke-linejoin="round"/>
<path d="M3.91 24.8499V20.4399" stroke="black" stroke-width="0.25" stroke-linecap="round" stroke-linejoin="round"/>
<path d="M3.35999 21.41H3.90999" stroke="black" stroke-width="0.25" stroke-linecap="round" stroke-linejoin="round"/>
<path d="M3.91 21.41V21.1" stroke="black" stroke-width="0.25" stroke-linecap="round" stroke-linejoin="round"/>
<path d="M3.90999 21.1H3.35999" stroke="black" stroke-width="0.25" stroke-linecap="round" stroke-linejoin="round"/>
<path d="M3.35999 21.1V21.41" stroke="black" stroke-width="0.25" stroke-linecap="round" stroke-linejoin="round"/>
<path d="M3.35999 22.26H3.90999" stroke="black" stroke-width="0.25" stroke-linecap="round" stroke-linejoin="round"/>
<path d="M3.91 22.26V23.04" stroke="black" stroke-width="0.25" stroke-linecap="round" stroke-linejoin="round"/>
<path d="M3.90999 23.04H3.35999" stroke="black" stroke-width="0.25" stroke-linecap="round" stroke-linejoin="round"/>
<path d="M3.35999 23.04V22.26" stroke="black" stroke-width="0.25" stroke-linecap="round" stroke-linejoin="round"/>
<path d="M3.35999 23.89H3.90999" stroke="black" stroke-width="0.25" stroke-linecap="round" stroke-linejoin="round"/>
<path d="M3.91 23.89V24.2" stroke="black" stroke-width="0.25" stroke-linecap="round" stroke-linejoin="round"/>
<path d="M3.90999 24.2H3.35999" stroke="black" stroke-width="0.25" stroke-linecap="round" stroke-linejoin="round"/>
<path d="M3.35999 24.2V23.89" stroke="black" stroke-width="0.25" stroke-linecap="round" stroke-linejoin="round"/>
<path d="M3.90999 20.3099H3.35999" stroke="black" stroke-width="0.25" stroke-linecap="round" stroke-linejoin="round"/>
<path d="M3.35999 20.3099V20.4399" stroke="black" stroke-width="0.25" stroke-linecap="round" stroke-linejoin="round"/>
<path d="M3.35999 20.4399H3.90999" stroke="black" stroke-width="0.25" stroke-linecap="round" stroke-linejoin="round"/>
<path d="M3.91 20.4399V20.3099" stroke="black" stroke-width="0.25" stroke-linecap="round" stroke-linejoin="round"/>
<path d="M3.90999 24.85H3.35999" stroke="black" stroke-width="0.25" stroke-linecap="round" stroke-linejoin="round"/>
<path d="M3.35999 24.85V24.99" stroke="black" stroke-width="0.25" stroke-linecap="round" stroke-linejoin="round"/>
<path d="M3.35999 24.99H3.90999" stroke="black" stroke-width="0.25" stroke-linecap="round" stroke-linejoin="round"/>
<path d="M3.91 24.99V24.85" stroke="black" stroke-width="0.25" stroke-linecap="round" stroke-linejoin="round"/>
<path d="M8.98999 15.89V46.38" stroke="black" stroke-width="0.25" stroke-linecap="round" stroke-linejoin="round"/>
<path d="M8.98999 46.38C8.98999 46.66 9.20999 46.88 9.48999 46.88" stroke="black" stroke-width="0.25" stroke-linecap="round" stroke-linejoin="round"/>
<path d="M9.48999 46.88H33.99" stroke="black" stroke-width="0.25" stroke-linecap="round" stroke-linejoin="round"/>
<path d="M33.99 46.88C34.27 46.88 34.49 46.66 34.49 46.38" stroke="black" stroke-width="0.25" stroke-linecap="round" stroke-linejoin="round"/>
<path d="M34.49 46.38V15.89" stroke="black" stroke-width="0.25" stroke-linecap="round" stroke-linejoin="round"/>
<path d="M34.49 15.89C34.49 15.61 34.27 15.39 33.99 15.39" stroke="black" stroke-width="0.25" stroke-linecap="round" stroke-linejoin="round"/>
<path d="M33.99 15.39H9.48999" stroke="black" stroke-width="0.25" stroke-linecap="round" stroke-linejoin="round"/>
<path d="M9.48999 15.39C9.20999 15.39 8.98999 15.61 8.98999 15.89" stroke="black" stroke-width="0.25" stroke-linecap="round" stroke-linejoin="round"/>
<path d="M10.24 16.64H33.24" stroke="black" stroke-width="0.25" stroke-linecap="round" stroke-linejoin="round"/>
<path d="M33.24 16.64V45.63" stroke="black" stroke-width="0.25" stroke-linecap="round" stroke-linejoin="round"/>
<path d="M33.24 45.63H10.24" stroke="black" stroke-width="0.25" stroke-linecap="round" stroke-linejoin="round"/>
<path d="M10.24 45.63V16.64" stroke="black" stroke-width="0.25" stroke-linecap="round" stroke-linejoin="round"/>
<path d="M10.74 17.14H32.74" stroke="black" stroke-width="0.25" stroke-linecap="round" stroke-linejoin="round"/>
<path d="M32.74 17.14V45.13" stroke="black" stroke-width="0.25" stroke-linecap="round" stroke-linejoin="round"/>
<path d="M32.74 45.13H10.74" stroke="black" stroke-width="0.25" stroke-linecap="round" stroke-linejoin="round"/>
<path d="M10.74 45.13V17.14" stroke="black" stroke-width="0.25" stroke-linecap="round" stroke-linejoin="round"/>
<path d="M12.03 22.54L16.03 18.5" stroke="black" stroke-width="0.25" stroke-linecap="round" stroke-linejoin="round"/>
<path d="M12.05 21.13L13.67 19.5" stroke="black" stroke-width="0.25" stroke-linecap="round" stroke-linejoin="round"/>
<path d="M14.39 21.2099L16.01 19.5699" stroke="black" stroke-width="0.25" stroke-linecap="round" stroke-linejoin="round"/>
<path d="M16.03 18.5L12.03 22.54" stroke="black" stroke-width="0.25" stroke-linecap="round" stroke-linejoin="round"/>
<path d="M13.67 19.5L12.05 21.13" stroke="black" stroke-width="0.25" stroke-linecap="round" stroke-linejoin="round"/>
<path d="M16.01 19.5699L14.39 21.2099" stroke="black" stroke-width="0.25" stroke-linecap="round" stroke-linejoin="round"/>
<rect x="39.8524" y="43" width="3" height="7" fill="white"/>
<path d="M35.6035 54.5064C35.8885 55.3037 36.7842 55.7223 37.5986 55.4433C38.4129 55.1642 38.8405 54.2872 38.5554 53.4899C38.2704 52.6925 37.3746 52.274 36.5603 52.553C36.1124 52.7025 35.7663 53.0513 35.6035 53.4899" stroke="black" stroke-width="0.25" stroke-linecap="round" stroke-linejoin="round"/>
<path d="M37.0693 54.5064C37.3543 54.5064 37.5884 54.2772 37.5884 53.9982C37.5884 53.7191 37.3543 53.4899 37.0693 53.4899" stroke="black" stroke-width="0.25" stroke-linecap="round" stroke-linejoin="round"/>
<path d="M37.0693 54.5063H32.0204" stroke="black" stroke-width="0.25" stroke-linecap="round" stroke-linejoin="round"/>
<path d="M32.02 54.5065C32.02 54.5065 32 54.5065 32 54.4865" stroke="black" stroke-width="0.25" stroke-linecap="round" stroke-linejoin="round"/>
<path d="M32 54.4865V53.5198" stroke="black" stroke-width="0.25" stroke-linecap="round" stroke-linejoin="round"/>
<path d="M32 53.5199C32 53.5199 32 53.4799 32.02 53.4799" stroke="black" stroke-width="0.25" stroke-linecap="round" stroke-linejoin="round"/>
<path d="M32.0204 53.4799H37.0693" stroke="black" stroke-width="0.25" stroke-linecap="round" stroke-linejoin="round"/>
<path d="M32.794 54.5064V53.4799" stroke="black" stroke-width="0.25" stroke-linecap="round" stroke-linejoin="round"/>
<path d="M37.0693 54.3868C37.2885 54.3868 37.4663 54.2127 37.4663 53.9981C37.4663 53.7834 37.2885 53.6094 37.0693 53.6094C36.85 53.6094 36.6723 53.7834 36.6723 53.9981C36.6723 54.2127 36.85 54.3868 37.0693 54.3868Z" stroke="black" stroke-width="0.25" stroke-linecap="round" stroke-linejoin="round"/>
<path d="M37.0387 53.6792C36.8657 53.6991 36.7334 53.8486 36.7537 54.0181C36.7741 54.1875 36.9268 54.317 37.0998 54.2971C37.2729 54.2772 37.4052 54.1277 37.3848 53.9583C37.3747 53.8088 37.2525 53.6892 37.0998 53.6792" stroke="black" stroke-width="0.25" stroke-linecap="round" stroke-linejoin="round"/>
<path d="M37.0998 54.3071C37.2729 54.2871 37.4052 54.1377 37.3848 53.9682C37.3645 53.7988 37.2118 53.6692 37.0387 53.6892C36.8657 53.7091 36.7334 53.8586 36.7537 54.028C36.7639 54.1775 36.8861 54.2971 37.0387 54.3071" stroke="black" stroke-width="0.25" stroke-linecap="round" stroke-linejoin="round"/>
<ellipse cx="37.0387" cy="53.5999" rx="0.127241" ry="0.125" fill="black"/>
<path d="M37.0387 53.6792V54.3071" stroke="black" stroke-width="0.25" stroke-linecap="round" stroke-linejoin="round"/>
<ellipse cx="37.0387" cy="54.3872" rx="0.127241" ry="0.125" fill="black"/>
<ellipse cx="37.0998" cy="53.5999" rx="0.127241" ry="0.125" fill="black"/>
<path d="M37.0998 53.6792V54.3071" stroke="black" stroke-width="0.25" stroke-linecap="round" stroke-linejoin="round"/>
<ellipse cx="37.0998" cy="54.3872" rx="0.127241" ry="0.125" fill="black"/>
<path d="M35.634 49.7823H36.5399" stroke="black" stroke-width="0.25" stroke-linecap="round" stroke-linejoin="round"/>
<path d="M37.946 49.8022V50.2607" stroke="black" stroke-width="0.25" stroke-linecap="round" stroke-linejoin="round"/>
<path d="M37.946 50.2607H42.7302" stroke="black" stroke-width="0.25" stroke-linecap="round" stroke-linejoin="round"/>
<path d="M42.7303 50.2607V43.3141" stroke="black" stroke-width="0.25" stroke-linecap="round" stroke-linejoin="round"/>
<path d="M42.7302 43.3141H37.946" stroke="black" stroke-width="0.25" stroke-linecap="round" stroke-linejoin="round"/>
<path d="M37.946 43.3141V48.2275" stroke="black" stroke-width="0.25" stroke-linecap="round" stroke-linejoin="round"/>
<path d="M34.7688 49.7823C34.5753 49.7823 34.4227 49.6328 34.4125 49.4435" stroke="black" stroke-width="0.25" stroke-linecap="round" stroke-linejoin="round"/>
<path d="M34.4125 49.4434V44.0117" stroke="black" stroke-width="0.25" stroke-linecap="round" stroke-linejoin="round"/>
<path d="M34.4125 44.0117C34.4125 43.8223 34.5652 43.6729 34.7586 43.6729" stroke="black" stroke-width="0.25" stroke-linecap="round" stroke-linejoin="round"/>
<path d="M34.8039 43.6729L41.8039 43.6729" stroke="black" stroke-width="0.25" stroke-linecap="round" stroke-linejoin="round"/>
<path d="M41.8039 43.6729C41.9973 43.6729 42.15 43.8223 42.15 44.0117" stroke="black" stroke-width="0.25" stroke-linecap="round" stroke-linejoin="round"/>
<path d="M42.15 44.0117V46.5731" stroke="black" stroke-width="0.25" stroke-linecap="round" stroke-linejoin="round"/>
<path d="M42.1498 46.5731L42.1398 49.4235" stroke="black" stroke-width="0.25" stroke-linecap="round" stroke-linejoin="round"/>
<path d="M42.1398 49.4236C42.1398 49.6229 41.9668 49.7824 41.753 49.7824" stroke="black" stroke-width="0.25" stroke-linecap="round" stroke-linejoin="round"/>
<path d="M41.7632 49.7923L34.5869 49.7823" stroke="black" stroke-width="0.25" stroke-linecap="round" stroke-linejoin="round"/>
<path d="M36.5399 49.7823H34.728" stroke="black" stroke-width="0.25" stroke-linecap="round" stroke-linejoin="round"/>
<path d="M34.728 49.7823H36.5399" stroke="black" stroke-width="0.25" stroke-linecap="round" stroke-linejoin="round"/>
<path d="M34.5869 49.7827C34.7497 49.8127 34.9228 49.7727 35.0449 49.6727" stroke="black" stroke-width="0.25" stroke-linecap="round" stroke-linejoin="round"/>
<path d="M35.0449 49.6727C35.5946 49.2441 36.1341 48.7159 36.3886 48.1478" stroke="black" stroke-width="0.25" stroke-linecap="round" stroke-linejoin="round"/>
<path d="M36.3886 48.1479C36.5413 47.8887 36.8365 47.7193 37.152 47.7094" stroke="black" stroke-width="0.25" stroke-linecap="round" stroke-linejoin="round"/>
<path d="M37.152 47.7094C37.4777 47.7094 37.7729 47.8588 37.9358 48.108" stroke="black" stroke-width="0.25" stroke-linecap="round" stroke-linejoin="round"/>
<path d="M37.9358 48.1079C38.1292 48.4069 38.4855 48.6461 38.9232 48.7856" stroke="black" stroke-width="0.25" stroke-linecap="round" stroke-linejoin="round"/>
<path d="M38.9232 48.7857C39.6765 48.9451 40.4501 48.5863 40.8063 47.9186" stroke="black" stroke-width="0.25" stroke-linecap="round" stroke-linejoin="round"/>
<path d="M40.8165 47.9186C40.8878 47.2608 41.4782 46.7127 42.15 46.5731" stroke="black" stroke-width="0.25" stroke-linecap="round" stroke-linejoin="round"/>
<path d="M42.15 46.5731V44.0117" stroke="black" stroke-width="0.25" stroke-linecap="round" stroke-linejoin="round"/>
<path d="M42.15 44.0117C42.15 43.8223 41.9973 43.6729 41.8039 43.6729" stroke="black" stroke-width="0.25" stroke-linecap="round" stroke-linejoin="round"/>
<path d="M41.8039 43.6729L34.8039 43.6729" stroke="black" stroke-width="0.25" stroke-linecap="round" stroke-linejoin="round"/>
<path d="M34.7586 43.6729C34.5652 43.6729 34.4125 43.8223 34.4125 44.0117" stroke="black" stroke-width="0.25" stroke-linecap="round" stroke-linejoin="round"/>
<path d="M34.4125 44.0117V49.4434" stroke="black" stroke-width="0.25" stroke-linecap="round" stroke-linejoin="round"/>
<path d="M34.4125 49.4435C34.4125 49.6328 34.5753 49.7823 34.7688 49.7823" stroke="black" stroke-width="0.25" stroke-linecap="round" stroke-linejoin="round"/>
<path d="M35.6035 53.4799V54.5064" stroke="black" stroke-width="0.25" stroke-linecap="round" stroke-linejoin="round"/>
<path d="M37.0693 53.4799V54.5064" stroke="black" stroke-width="0.25" stroke-linecap="round" stroke-linejoin="round"/>
<path d="M37.0693 53.4799V54.5064" stroke="black" stroke-width="0.25" stroke-linecap="round" stroke-linejoin="round"/>
<path d="M32.794 53.4799V54.5064" stroke="black" stroke-width="0.25" stroke-linecap="round" stroke-linejoin="round"/>
<path d="M37.1001 53.6792H37.0387" stroke="black" stroke-width="0.25" stroke-linecap="round" stroke-linejoin="round"/>
<path d="M37.0387 54.3071H37.1001" stroke="black" stroke-width="0.25" stroke-linecap="round" stroke-linejoin="round"/>
<ellipse cx="37.0387" cy="53.5999" rx="0.127241" ry="0.125" fill="black"/>
<path d="M37.0387 54.3071V53.6792" stroke="black" stroke-width="0.25" stroke-linecap="round" stroke-linejoin="round"/>
<ellipse cx="37.0387" cy="54.3872" rx="0.127241" ry="0.125" fill="black"/>
<ellipse cx="37.0998" cy="53.5999" rx="0.127241" ry="0.125" fill="black"/>
<path d="M37.0998 54.3071V53.6792" stroke="black" stroke-width="0.25" stroke-linecap="round" stroke-linejoin="round"/>
<ellipse cx="37.0998" cy="54.3872" rx="0.127241" ry="0.125" fill="black"/>
<path d="M36.5399 49.7823H35.634" stroke="black" stroke-width="0.25" stroke-linecap="round" stroke-linejoin="round"/>
<path d="M37.946 48.2275V49.8022" stroke="black" stroke-width="0.25" stroke-linecap="round" stroke-linejoin="round"/>
<path d="M34.728 49.7823H34.768" stroke="black" stroke-width="0.25" stroke-linecap="round" stroke-linejoin="round"/>
<path d="M34.768 49.7823H34.728" stroke="black" stroke-width="0.25" stroke-linecap="round" stroke-linejoin="round"/>
</g>
<defs>
<clipPath id="clip0_1338_1508">
<rect width="43.48" height="95.32" fill="white"/>
</clipPath>
</defs>
</svg>
