<svg width="96" height="102" viewBox="0 0 96 102" fill="none" xmlns="http://www.w3.org/2000/svg">
<g clip-path="url(#clip0_592_3683)">
<path opacity="0.5" d="M6.41602 97.2712H0.130859V101.871H6.41602V97.2712Z" fill="white"/>
<path opacity="0.5" d="M95.2186 97.2712H88.9434V101.871H95.2186V97.2712Z" fill="white"/>
<path opacity="0.5" d="M6.41602 0.128906H0.130859V4.72877H6.41602V0.128906Z" fill="white"/>
<path opacity="0.5" fillRule="evenodd" clip-rule="evenodd" d="M88.7145 101.425H88.9426H88.7145L88.6055 98.8475H81.4777L81.3686 101.425H81.1406V98.5005H88.9426V101.425H88.7145Z" fill="white"/>
<path opacity="0.5" fillRule="evenodd" clip-rule="evenodd" d="M13.9901 101.425H14.2082H13.9901L13.8711 98.8475H6.74331L6.63426 101.425H6.40625V98.5005H14.2082V101.425H13.9901Z" fill="white"/>
<path opacity="0.5" d="M15.1097 2.81543H10.8965V96.0222H15.1097V2.81543Z" fill="#E5E5E5"/>
<path opacity="0.5" d="M25.0121 2.81543H20.7988V96.0222H25.0121V2.81543Z" fill="#E5E5E5"/>
<path opacity="0.5" d="M34.9261 2.81543H30.7129V96.0222H34.9261V2.81543Z" fill="#E5E5E5"/>
<path opacity="0.5" d="M44.8285 2.81543H40.6152V96.0222H44.8285V2.81543Z" fill="#E5E5E5"/>
<path opacity="0.5" d="M54.7347 2.81543H50.5215V96.0222H54.7347V2.81543Z" fill="#E5E5E5"/>
<path opacity="0.5" d="M64.6468 2.81543H60.4336V96.0222H64.6468V2.81543Z" fill="#E5E5E5"/>
<path opacity="0.5" d="M74.5492 2.81543H70.3359V96.0222H74.5492V2.81543Z" fill="#E5E5E5"/>
<path opacity="0.5" d="M84.4632 2.81543H80.25V96.0222H84.4632V2.81543Z" fill="#E5E5E5"/>
<path opacity="0.5" d="M6.41602 97.2712H0.130859V101.871H6.41602V97.2712Z" stroke="#0E040F" stroke-width="0.257751" stroke-linecap="round" stroke-linejoin="round"/>
<path opacity="0.5" d="M95.2186 97.2712H88.9434V101.871H95.2186V97.2712Z" stroke="#070207" stroke-width="0.257751" stroke-linecap="round" stroke-linejoin="round"/>
<path opacity="0.5" d="M6.41602 0.128906H0.130859V4.72877H6.41602V0.128906Z" stroke="#100411" stroke-width="0.257751" stroke-linecap="round" stroke-linejoin="round"/>
<path opacity="0.5" d="M14.2051 101.425H81.369" stroke="black" stroke-width="0.257751" stroke-linecap="round" stroke-linejoin="round"/>
<path opacity="0.5" d="M0.285156 4.72876V97.2713" stroke="black" stroke-width="0.257751" stroke-linecap="round" stroke-linejoin="round"/>
<path opacity="0.5" d="M6.40625 4.72876V97.2713" stroke="black" stroke-width="0.257751" stroke-linecap="round" stroke-linejoin="round"/>
<path opacity="0.5" d="M2.36133 100.553V98.5103C2.87683 98.0444 3.66991 98.0444 4.18541 98.5103V100.553C3.66991 101.018 2.87683 101.018 2.36133 100.553Z" stroke="black" stroke-width="0.257751" stroke-linecap="round" stroke-linejoin="round"/>
<path opacity="0.5" d="M88.9434 4.72876V97.2713" stroke="black" stroke-width="0.257751" stroke-linecap="round" stroke-linejoin="round"/>
<path opacity="0.5" d="M92.9785 98.5103V100.553C92.4531 101.018 91.6699 101.018 91.1445 100.553V98.5103C91.6699 98.0444 92.4531 98.0444 92.9785 98.5103Z" stroke="black" stroke-width="0.257751" stroke-linecap="round" stroke-linejoin="round"/>
<path opacity="0.5" d="M6.74331 98.8475L6.63426 101.425H6.40625" stroke="black" stroke-width="0.257751" stroke-linecap="round" stroke-linejoin="round"/>
<path opacity="0.5" d="M4.16212 1.21932V3.64813C3.63671 4.11407 2.85354 4.11407 2.32812 3.64813V1.21932C2.85354 0.753389 3.63671 0.753389 4.16212 1.21932Z" stroke="black" stroke-width="0.257751" stroke-linecap="round" stroke-linejoin="round"/>
<path opacity="0.5" d="M88.9461 2.81543H6.40625" stroke="black" stroke-width="0.257751" stroke-linecap="round" stroke-linejoin="round"/>
<path opacity="0.5" d="M6.40625 0.47583H88.9461" stroke="black" stroke-width="0.257751" stroke-linecap="round" stroke-linejoin="round"/>
<path opacity="0.5" d="M88.7145 101.425H88.9426H88.7145ZM88.7145 101.425L88.6055 98.8475H81.4777L81.3686 101.425H81.1406V98.5005H88.9426V101.425" stroke="black" stroke-width="0.257751" stroke-linecap="round" stroke-linejoin="round"/>
<path opacity="0.5" d="M13.9901 101.425H14.2082H13.9901ZM13.9901 101.425L13.8711 98.8475H6.74331L6.63426 101.425H6.40625V98.5005H14.2082V101.425" stroke="black" stroke-width="0.257751" stroke-linecap="round" stroke-linejoin="round"/>
<path opacity="0.5" d="M24.1387 96.0222H24.9318" stroke="black" stroke-width="0.257751" stroke-linecap="round" stroke-linejoin="round"/>
<path opacity="0.5" d="M6.40625 96.0222H13.0582H25.8268H32.4788H35.7403H38.6053H88.9461" stroke="black" stroke-width="0.257751" stroke-linecap="round" stroke-linejoin="round"/>
<path opacity="0.5" d="M95.0215 97.2713V4.72876" stroke="black" stroke-width="0.257751" stroke-linecap="round" stroke-linejoin="round"/>
<path opacity="0.5" d="M7.17773 2.81543V96.0222V94.4757" stroke="black" stroke-width="0.257751" stroke-linecap="round" stroke-linejoin="round"/>
<path opacity="0.5" d="M10.1504 96.0222V2.81543" stroke="black" stroke-width="0.257751" stroke-linecap="round" stroke-linejoin="round"/>
<path opacity="0.5" d="M15.8516 96.0222V2.81543" stroke="black" stroke-width="0.257751" stroke-linecap="round" stroke-linejoin="round"/>
<path opacity="0.5" d="M25.7559 96.0222V2.81543" stroke="black" stroke-width="0.257751" stroke-linecap="round" stroke-linejoin="round"/>
<path opacity="0.5" d="M29.9688 96.0222V2.81543" stroke="black" stroke-width="0.257751" stroke-linecap="round" stroke-linejoin="round"/>
<path opacity="0.5" d="M35.6582 96.0222V2.81543" stroke="black" stroke-width="0.257751" stroke-linecap="round" stroke-linejoin="round"/>
<path opacity="0.5" d="M20.0566 96.0222V2.81543" stroke="black" stroke-width="0.257751" stroke-linecap="round" stroke-linejoin="round"/>
<path opacity="0.5" d="M45.5742 96.0222V2.81543" stroke="black" stroke-width="0.257751" stroke-linecap="round" stroke-linejoin="round"/>
<path opacity="0.5" d="M49.7754 96.0222V2.81543" stroke="black" stroke-width="0.257751" stroke-linecap="round" stroke-linejoin="round"/>
<path opacity="0.5" d="M55.4766 96.0222V2.81543" stroke="black" stroke-width="0.257751" stroke-linecap="round" stroke-linejoin="round"/>
<path opacity="0.5" d="M39.8516 96.0222V2.81543" stroke="black" stroke-width="0.257751" stroke-linecap="round" stroke-linejoin="round"/>
<path opacity="0.5" d="M59.6914 96.0222V2.81543" stroke="black" stroke-width="0.257751" stroke-linecap="round" stroke-linejoin="round"/>
<path opacity="0.5" d="M65.3789 96.0222V2.81543" stroke="black" stroke-width="0.257751" stroke-linecap="round" stroke-linejoin="round"/>
<path opacity="0.5" d="M75.291 96.0222V2.81543" stroke="black" stroke-width="0.257751" stroke-linecap="round" stroke-linejoin="round"/>
<path opacity="0.5" d="M79.4961 96.0222V2.81543" stroke="black" stroke-width="0.257751" stroke-linecap="round" stroke-linejoin="round"/>
<path opacity="0.5" d="M85.1973 96.0222V2.81543" stroke="black" stroke-width="0.257751" stroke-linecap="round" stroke-linejoin="round"/>
<path opacity="0.5" d="M69.5918 96.0222V2.81543" stroke="black" stroke-width="0.257751" stroke-linecap="round" stroke-linejoin="round"/>
<path opacity="0.5" d="M88.1699 96.0222V2.81543" stroke="black" stroke-width="0.257751" stroke-linecap="round" stroke-linejoin="round"/>
<path opacity="0.5" d="M15.1097 2.81543H10.8965V96.0222H15.1097V2.81543Z" stroke="black" stroke-width="0.257751" stroke-linecap="round" stroke-linejoin="round"/>
<path opacity="0.5" d="M25.0121 2.81543H20.7988V96.0222H25.0121V2.81543Z" stroke="black" stroke-width="0.257751" stroke-linecap="round" stroke-linejoin="round"/>
<path opacity="0.5" d="M34.9261 2.81543H30.7129V96.0222H34.9261V2.81543Z" stroke="black" stroke-width="0.257751" stroke-linecap="round" stroke-linejoin="round"/>
<path opacity="0.5" d="M44.8285 2.81543H40.6152V96.0222H44.8285V2.81543Z" stroke="black" stroke-width="0.257751" stroke-linecap="round" stroke-linejoin="round"/>
<path opacity="0.5" d="M54.7347 2.81543H50.5215V96.0222H54.7347V2.81543Z" stroke="black" stroke-width="0.257751" stroke-linecap="round" stroke-linejoin="round"/>
<path opacity="0.5" d="M64.6468 2.81543H60.4336V96.0222H64.6468V2.81543Z" stroke="black" stroke-width="0.257751" stroke-linecap="round" stroke-linejoin="round"/>
<path opacity="0.5" d="M74.5492 2.81543H70.3359V96.0222H74.5492V2.81543Z" stroke="black" stroke-width="0.257751" stroke-linecap="round" stroke-linejoin="round"/>
<path opacity="0.5" d="M84.4632 2.81543H80.25V96.0222H84.4632V2.81543Z" stroke="black" stroke-width="0.257751" stroke-linecap="round" stroke-linejoin="round"/>
<path opacity="0.5" d="M91.1836 3.64813V1.21932C91.6991 0.753389 92.4922 0.753389 93.0077 1.21932V3.64813C92.4922 4.11407 91.6991 4.11407 91.1836 3.64813Z" stroke="black" stroke-width="0.257751" stroke-linecap="round" stroke-linejoin="round"/>
<path opacity="0.5" d="M95.2186 0.128906H88.9434V4.72877H95.2186V0.128906Z" stroke="black" stroke-width="0.257751" stroke-linecap="round" stroke-linejoin="round"/>
</g>
<defs>
<clipPath id="clip0_592_3683">
<rect width="95.348" height="102" fill="white"/>
</clipPath>
</defs>
</svg>
