<svg width="238" height="102" viewBox="0 0 238 102" fill="none" xmlns="http://www.w3.org/2000/svg">
<g clip-path="url(#clip0_592_5223)">
<path opacity="0.5" d="M237.496 8.67419L235.939 8.67664L235.944 11.8686L237.501 11.8661L237.496 8.67419Z" fill="white"/>
<path opacity="0.5" d="M237.552 35.8596H235.996V39.0516H237.552V35.8596Z" fill="white"/>
<path opacity="0.5" d="M237.56 63.0769L235.994 63.0793L235.999 66.2713L237.565 66.2688L237.56 63.0769Z" fill="white"/>
<path opacity="0.5" d="M237.593 90.2882L236.027 90.2906L236.032 93.4826L237.598 93.4801L237.593 90.2882Z" fill="white"/>
<path opacity="0.5" d="M15.2099 4.38904H12.4668V95.5791H15.2099V4.38904Z" fill="#E5E5E5"/>
<path opacity="0.5" d="M26.1025 4.38904H23.3594V95.5791H26.1025V4.38904Z" fill="#E5E5E5"/>
<path opacity="0.5" d="M36.997 4.38904H34.2539V95.5791H36.997V4.38904Z" fill="#E5E5E5"/>
<path opacity="0.5" d="M47.8896 4.38904H45.1465V95.5791H47.8896V4.38904Z" fill="#E5E5E5"/>
<path opacity="0.5" d="M58.7704 4.38904H56.0273V95.5791H58.7704V4.38904Z" fill="#E5E5E5"/>
<path opacity="0.5" d="M69.665 4.38904H66.9219V95.5791H69.665V4.38904Z" fill="#E5E5E5"/>
<path opacity="0.5" d="M80.5575 4.38904H77.8145V95.5791H80.5575V4.38904Z" fill="#E5E5E5"/>
<path opacity="0.5" d="M91.4501 4.38904H88.707V95.5791H91.4501V4.38904Z" fill="#E5E5E5"/>
<path opacity="0.5" d="M102.343 4.38904H99.5996V95.5791H102.343V4.38904Z" fill="#E5E5E5"/>
<path opacity="0.5" d="M113.224 4.38904H110.441V95.5791H113.224V4.38904Z" fill="#E5E5E5"/>
<path opacity="0.5" d="M124.117 4.38904H121.334V95.5791H124.117V4.38904Z" fill="#E5E5E5"/>
<path opacity="0.5" d="M135.01 4.38904H132.227V95.5791H135.01V4.38904Z" fill="#E5E5E5"/>
<path opacity="0.5" d="M145.903 4.38904H143.16V95.5791H145.903V4.38904Z" fill="#E5E5E5"/>
<path opacity="0.5" d="M156.795 4.38904H154.012V95.5791H156.795V4.38904Z" fill="#E5E5E5"/>
<path opacity="0.5" d="M167.678 4.38904H164.895V95.5791H167.678V4.38904Z" fill="#E5E5E5"/>
<path opacity="0.5" d="M178.568 4.38904H175.785V95.5791H178.568V4.38904Z" fill="#E5E5E5"/>
<path opacity="0.5" d="M189.462 4.38904H186.719V95.5791H189.462V4.38904Z" fill="#E5E5E5"/>
<path opacity="0.5" d="M200.394 4.38904H197.611V95.5791H200.394V4.38904Z" fill="#E5E5E5"/>
<path opacity="0.5" d="M211.287 4.38904H208.504V95.5791H211.287V4.38904Z" fill="#E5E5E5"/>
<path opacity="0.5" d="M222.179 4.38904H219.396V95.5791H222.179V4.38904Z" fill="#E5E5E5"/>
<path opacity="0.5" d="M7.41211 95.5792H230.919V97.3647" stroke="black" stroke-width="0.259346" stroke-linecap="round" stroke-linejoin="round"/>
<path opacity="0.5" d="M237.83 97.2449H230.928V101.873H237.83V97.2449Z" stroke="black" stroke-width="0.259346" stroke-linecap="round" stroke-linejoin="round"/>
<path opacity="0.5" d="M235.456 100.547V98.4918C234.937 98.0229 234.149 98.0229 233.641 98.4918V100.547C234.159 101.015 234.947 101.015 235.456 100.547Z" stroke="black" stroke-width="0.259346" stroke-linecap="round" stroke-linejoin="round"/>
<path opacity="0.5" d="M237.869 0.129761H230.887V4.75809H237.869V0.129761Z" stroke="black" stroke-width="0.259346" stroke-linecap="round" stroke-linejoin="round"/>
<path opacity="0.5" d="M235.466 3.55112V1.50628C234.938 1.03746 234.15 1.03746 233.621 1.50628V3.5611C234.15 4.02991 234.938 4.02991 235.466 3.5611V3.55112Z" stroke="black" stroke-width="0.259346" stroke-linecap="round" stroke-linejoin="round"/>
<path opacity="0.5" d="M7.03125 1.78561H226.438L226.588 1.77563L226.727 1.78561H230.887" stroke="black" stroke-width="0.259346" stroke-linecap="round" stroke-linejoin="round"/>
<path opacity="0.5" d="M7.03125 4.38904H230.887" stroke="black" stroke-width="0.259346" stroke-linecap="round" stroke-linejoin="round"/>
<path opacity="0.5" d="M18.0645 1.77556H18.9023C18.9622 1.77556 19.0121 1.74564 19.042 1.69576L19.4909 0.8479" stroke="black" stroke-width="0.259346" stroke-linecap="round" stroke-linejoin="round"/>
<path opacity="0.5" d="M19.4805 0.838179C19.5105 0.788179 19.5605 0.758179 19.6205 0.758179" stroke="black" stroke-width="0.259346" stroke-linecap="round" stroke-linejoin="round"/>
<path opacity="0.5" d="M19.6191 0.758179H23.0006" stroke="black" stroke-width="0.259346" stroke-linecap="round" stroke-linejoin="round"/>
<path opacity="0.5" d="M23.002 0.758179C23.062 0.758179 23.122 0.788179 23.142 0.838179" stroke="black" stroke-width="0.259346" stroke-linecap="round" stroke-linejoin="round"/>
<path opacity="0.5" d="M23.1426 0.837891L23.5815 1.68575C23.6114 1.73563 23.6613 1.76555 23.7211 1.76555H25.4069" stroke="black" stroke-width="0.259346" stroke-linecap="round" stroke-linejoin="round"/>
<path opacity="0.5" d="M25.416 1.7758C25.476 1.7758 25.526 1.7458 25.556 1.6958" stroke="black" stroke-width="0.259346" stroke-linecap="round" stroke-linejoin="round"/>
<path opacity="0.5" d="M25.5547 1.69585L25.9936 0.847987C26.0235 0.798113 26.0734 0.768188 26.1332 0.768188H29.5147" stroke="black" stroke-width="0.259346" stroke-linecap="round" stroke-linejoin="round"/>
<path opacity="0.5" d="M29.5156 0.758179C29.5756 0.758179 29.6356 0.788179 29.6556 0.838179" stroke="black" stroke-width="0.259346" stroke-linecap="round" stroke-linejoin="round"/>
<path opacity="0.5" d="M29.6543 0.837891L30.0932 1.68575C30.1231 1.73563 30.173 1.77553 30.2328 1.76555H31.9186" stroke="black" stroke-width="0.259346" stroke-linecap="round" stroke-linejoin="round"/>
<path opacity="0.5" d="M31.9297 1.77568C31.9897 1.77568 32.0497 1.74568 32.0697 1.69568" stroke="black" stroke-width="0.259346" stroke-linecap="round" stroke-linejoin="round"/>
<path opacity="0.5" d="M32.0684 1.69585L32.5073 0.847987C32.5372 0.798113 32.587 0.768188 32.6469 0.768188H36.0284C36.0882 0.768188 36.1381 0.798113 36.168 0.847987L36.6069 1.69585C36.6368 1.74572 36.6867 1.77565 36.7466 1.77565H38.4323" stroke="black" stroke-width="0.259346" stroke-linecap="round" stroke-linejoin="round"/>
<path opacity="0.5" d="M38.4336 1.7758C38.4936 1.7758 38.5536 1.7458 38.5736 1.6958" stroke="black" stroke-width="0.259346" stroke-linecap="round" stroke-linejoin="round"/>
<path opacity="0.5" d="M38.584 1.69585L39.0229 0.847987C39.0528 0.798113 39.1027 0.768188 39.1625 0.768188H42.544C42.6039 0.768188 42.6537 0.798113 42.6836 0.847987L43.1225 1.69585C43.1525 1.74572 43.2023 1.78562 43.2622 1.77565H44.9579C45.0178 1.77565 45.0676 1.74572 45.0976 1.69585L45.5365 0.847987C45.5664 0.798113 45.6163 0.768188 45.6761 0.768188H49.0576C49.1174 0.768188 49.1673 0.798113 49.1972 0.847987L49.6361 1.69585C49.666 1.74572 49.7159 1.78562 49.7758 1.77565H51.4715C51.5313 1.77565 51.5812 1.74572 51.6111 1.69585L52.05 0.847987C52.08 0.798113 52.1298 0.768188 52.1897 0.768188H55.5712C55.631 0.768188 55.6809 0.798113 55.7108 0.847987L56.1497 1.69585C56.1796 1.74572 56.2295 1.77565 56.2893 1.77565H57.9851C58.0449 1.77565 58.0948 1.74572 58.1247 1.69585L58.5636 0.847987C58.5935 0.798113 58.6434 0.768188 58.7033 0.768188H62.0847C62.1446 0.768188 62.1945 0.798113 62.2244 0.847987L62.6633 1.69585" stroke="black" stroke-width="0.259346" stroke-linecap="round" stroke-linejoin="round"/>
<path opacity="0.5" d="M62.6602 1.6958C62.6902 1.7458 62.7402 1.7758 62.8002 1.7758" stroke="black" stroke-width="0.259346" stroke-linecap="round" stroke-linejoin="round"/>
<path opacity="0.5" d="M62.8008 1.77565H64.4865C64.5464 1.77565 64.5963 1.74572 64.6262 1.69585L65.0651 0.847987C65.095 0.798113 65.1449 0.768188 65.2047 0.768188H68.5862C68.646 0.768188 68.6959 0.798113 68.7258 0.847987L69.1647 1.69585" stroke="black" stroke-width="0.259346" stroke-linecap="round" stroke-linejoin="round"/>
<path opacity="0.5" d="M69.166 1.6958C69.196 1.7458 69.246 1.7758 69.306 1.7758" stroke="black" stroke-width="0.259346" stroke-linecap="round" stroke-linejoin="round"/>
<path opacity="0.5" d="M69.3125 1.77568H70.9983C71.0581 1.77568 71.108 1.74576 71.1379 1.69589L71.5768 0.848022" stroke="black" stroke-width="0.259346" stroke-linecap="round" stroke-linejoin="round"/>
<path opacity="0.5" d="M71.5801 0.838179C71.6101 0.788179 71.6601 0.758179 71.7201 0.758179" stroke="black" stroke-width="0.259346" stroke-linecap="round" stroke-linejoin="round"/>
<path opacity="0.5" d="M71.7188 0.758179H75.1002C75.1601 0.758179 75.2099 0.788103 75.2399 0.837978L75.6788 1.68584" stroke="black" stroke-width="0.259346" stroke-linecap="round" stroke-linejoin="round"/>
<path opacity="0.5" d="M75.6797 1.6958C75.7097 1.7458 75.7597 1.7758 75.8197 1.7758" stroke="black" stroke-width="0.259346" stroke-linecap="round" stroke-linejoin="round"/>
<path opacity="0.5" d="M75.8203 1.77568H77.5061C77.5659 1.77568 77.6158 1.74576 77.6457 1.69589L78.0846 0.848022" stroke="black" stroke-width="0.259346" stroke-linecap="round" stroke-linejoin="round"/>
<path opacity="0.5" d="M78.0938 0.838179C78.1237 0.788179 78.1737 0.758179 78.2337 0.758179" stroke="black" stroke-width="0.259346" stroke-linecap="round" stroke-linejoin="round"/>
<path opacity="0.5" d="M78.2324 0.758179H81.6139C81.6737 0.758179 81.7236 0.788103 81.7535 0.837978L82.2024 1.68584C82.2323 1.73571 82.2822 1.77561 82.3421 1.76564H84.0278C84.0877 1.76564 84.1375 1.73571 84.1675 1.68584L84.6064 0.837978" stroke="black" stroke-width="0.259346" stroke-linecap="round" stroke-linejoin="round"/>
<path opacity="0.5" d="M84.6055 0.838179C84.6355 0.788179 84.6855 0.758179 84.7455 0.758179" stroke="black" stroke-width="0.259346" stroke-linecap="round" stroke-linejoin="round"/>
<path opacity="0.5" d="M84.7461 0.758179H88.1276C88.1874 0.758179 88.2373 0.788103 88.2672 0.837978L88.7161 1.68584C88.746 1.73571 88.7959 1.76564 88.8557 1.76564H90.5415C90.6013 1.76564 90.6512 1.73571 90.6811 1.68584L91.13 0.837978C91.1599 0.788103 91.2098 0.758179 91.2696 0.758179H94.6511" stroke="black" stroke-width="0.259346" stroke-linecap="round" stroke-linejoin="round"/>
<path opacity="0.5" d="M94.6406 0.758179C94.7006 0.758179 94.7606 0.788179 94.7806 0.838179" stroke="black" stroke-width="0.259346" stroke-linecap="round" stroke-linejoin="round"/>
<path opacity="0.5" d="M94.7812 0.837978L95.2201 1.68584C95.2501 1.73571 95.2999 1.76564 95.3598 1.76564H97.0455C97.1054 1.76564 97.1553 1.73571 97.1852 1.68584L97.6341 0.837978C97.664 0.788103 97.7139 0.758179 97.7737 0.758179H101.155" stroke="black" stroke-width="0.259346" stroke-linecap="round" stroke-linejoin="round"/>
<path opacity="0.5" d="M101.145 0.758179C101.205 0.758179 101.265 0.788179 101.285 0.838179" stroke="black" stroke-width="0.259346" stroke-linecap="round" stroke-linejoin="round"/>
<path opacity="0.5" d="M101.295 0.837891L101.734 1.68575C101.764 1.73563 101.814 1.77553 101.873 1.76555H103.559" stroke="black" stroke-width="0.259346" stroke-linecap="round" stroke-linejoin="round"/>
<path opacity="0.5" d="M103.559 1.7758C103.619 1.7758 103.679 1.7458 103.699 1.6958" stroke="black" stroke-width="0.259346" stroke-linecap="round" stroke-linejoin="round"/>
<path opacity="0.5" d="M103.699 1.69585L104.138 0.847987C104.168 0.798113 104.218 0.768188 104.278 0.768188H107.659" stroke="black" stroke-width="0.259346" stroke-linecap="round" stroke-linejoin="round"/>
<path opacity="0.5" d="M107.658 0.758179C107.718 0.758179 107.778 0.788179 107.798 0.838179" stroke="black" stroke-width="0.259346" stroke-linecap="round" stroke-linejoin="round"/>
<path opacity="0.5" d="M107.797 0.837891L108.236 1.68575C108.266 1.73563 108.316 1.76555 108.375 1.76555H110.061" stroke="black" stroke-width="0.259346" stroke-linecap="round" stroke-linejoin="round"/>
<path opacity="0.5" d="M110.072 1.7758C110.132 1.7758 110.192 1.7458 110.212 1.6958" stroke="black" stroke-width="0.259346" stroke-linecap="round" stroke-linejoin="round"/>
<path opacity="0.5" d="M110.211 1.69573L110.65 0.837891" stroke="black" stroke-width="0.259346" stroke-linecap="round" stroke-linejoin="round"/>
<path opacity="0.5" d="M110.652 0.838179C110.682 0.788179 110.732 0.758179 110.792 0.758179" stroke="black" stroke-width="0.259346" stroke-linecap="round" stroke-linejoin="round"/>
<path opacity="0.5" d="M110.789 0.758179H114.171C114.23 0.758179 114.28 0.788103 114.31 0.837978L114.749 1.68584C114.779 1.73571 114.829 1.76564 114.889 1.76564H116.574" stroke="black" stroke-width="0.259346" stroke-linecap="round" stroke-linejoin="round"/>
<path opacity="0.5" d="M116.584 1.7758C116.644 1.7758 116.704 1.7458 116.724 1.6958" stroke="black" stroke-width="0.259346" stroke-linecap="round" stroke-linejoin="round"/>
<path opacity="0.5" d="M116.727 1.69585L117.165 0.847987C117.195 0.798113 117.245 0.768188 117.305 0.768188H120.687C120.746 0.768188 120.796 0.798113 120.826 0.847987L121.265 1.69585C121.295 1.74572 121.345 1.78562 121.405 1.77565H123.101C123.16 1.77565 123.21 1.74572 123.24 1.69585L123.679 0.847987C123.709 0.798113 123.759 0.768188 123.819 0.768188H127.2C127.26 0.768188 127.31 0.798113 127.34 0.847987L127.779 1.69585C127.809 1.74572 127.859 1.78562 127.918 1.77565H129.614C129.674 1.77565 129.724 1.74572 129.754 1.69585L130.193 0.847987C130.223 0.798113 130.272 0.768188 130.332 0.768188H133.714C133.774 0.768188 133.823 0.798113 133.853 0.847987L134.292 1.69585C134.322 1.74572 134.372 1.77565 134.432 1.77565H136.128C136.188 1.77565 136.237 1.74572 136.267 1.69585L136.706 0.847987C136.736 0.798113 136.786 0.768188 136.846 0.768188H140.227C140.287 0.768188 140.337 0.798113 140.367 0.847987L140.806 1.69585" stroke="black" stroke-width="0.259346" stroke-linecap="round" stroke-linejoin="round"/>
<path opacity="0.5" d="M140.805 1.6958C140.835 1.7458 140.885 1.7758 140.945 1.7758" stroke="black" stroke-width="0.259346" stroke-linecap="round" stroke-linejoin="round"/>
<path opacity="0.5" d="M140.943 1.77565H142.629C142.689 1.77565 142.739 1.74572 142.769 1.69585L143.208 0.847987C143.238 0.798113 143.287 0.768188 143.347 0.768188H146.729C146.789 0.768188 146.839 0.798113 146.868 0.847987L147.307 1.69585" stroke="black" stroke-width="0.259346" stroke-linecap="round" stroke-linejoin="round"/>
<path opacity="0.5" d="M147.318 1.6958C147.348 1.7458 147.398 1.7758 147.458 1.7758" stroke="black" stroke-width="0.259346" stroke-linecap="round" stroke-linejoin="round"/>
<path opacity="0.5" d="M147.457 1.77556H149.143C149.203 1.77556 149.253 1.74564 149.282 1.69576L149.721 0.8479" stroke="black" stroke-width="0.259346" stroke-linecap="round" stroke-linejoin="round"/>
<path opacity="0.5" d="M149.723 0.838179C149.753 0.788179 149.803 0.758179 149.863 0.758179" stroke="black" stroke-width="0.259346" stroke-linecap="round" stroke-linejoin="round"/>
<path opacity="0.5" d="M149.871 0.758179H153.253C153.312 0.758179 153.362 0.788103 153.392 0.837978L153.831 1.68584" stroke="black" stroke-width="0.259346" stroke-linecap="round" stroke-linejoin="round"/>
<path opacity="0.5" d="M153.822 1.6958C153.852 1.7458 153.902 1.7758 153.962 1.7758" stroke="black" stroke-width="0.259346" stroke-linecap="round" stroke-linejoin="round"/>
<path opacity="0.5" d="M153.973 1.77568H155.658C155.718 1.77568 155.768 1.74576 155.798 1.69589L156.237 0.848022" stroke="black" stroke-width="0.259346" stroke-linecap="round" stroke-linejoin="round"/>
<path opacity="0.5" d="M156.236 0.838179C156.266 0.788179 156.316 0.758179 156.376 0.758179" stroke="black" stroke-width="0.259346" stroke-linecap="round" stroke-linejoin="round"/>
<path opacity="0.5" d="M156.387 0.758179H159.768C159.828 0.758179 159.878 0.788103 159.908 0.837978L160.357 1.68584C160.387 1.73571 160.437 1.77561 160.496 1.76564H162.182C162.242 1.76564 162.292 1.73571 162.322 1.68584L162.761 0.837978" stroke="black" stroke-width="0.259346" stroke-linecap="round" stroke-linejoin="round"/>
<path opacity="0.5" d="M162.748 0.838179C162.778 0.788179 162.828 0.758179 162.888 0.758179" stroke="black" stroke-width="0.259346" stroke-linecap="round" stroke-linejoin="round"/>
<path opacity="0.5" d="M162.889 0.758179H166.27C166.33 0.758179 166.38 0.788103 166.41 0.837978L166.859 1.68584C166.889 1.73571 166.938 1.76564 166.998 1.76564H168.684C168.744 1.76564 168.794 1.73571 168.824 1.68584L169.273 0.837978C169.302 0.788103 169.352 0.758179 169.412 0.758179H172.794" stroke="black" stroke-width="0.259346" stroke-linecap="round" stroke-linejoin="round"/>
<path opacity="0.5" d="M172.783 0.758179C172.843 0.758179 172.903 0.788179 172.923 0.838179" stroke="black" stroke-width="0.259346" stroke-linecap="round" stroke-linejoin="round"/>
<path opacity="0.5" d="M172.924 0.837891L173.363 1.68575C173.393 1.73563 173.443 1.76555 173.502 1.76555H175.188" stroke="black" stroke-width="0.259346" stroke-linecap="round" stroke-linejoin="round"/>
<path opacity="0.5" d="M175.188 1.7758C175.247 1.7758 175.297 1.7458 175.327 1.6958" stroke="black" stroke-width="0.259346" stroke-linecap="round" stroke-linejoin="round"/>
<path opacity="0.5" d="M175.338 1.69585L175.777 0.847987C175.807 0.798113 175.857 0.768188 175.916 0.768188H179.298" stroke="black" stroke-width="0.259346" stroke-linecap="round" stroke-linejoin="round"/>
<path opacity="0.5" d="M179.297 0.758179C179.357 0.758179 179.417 0.788179 179.437 0.838179" stroke="black" stroke-width="0.259346" stroke-linecap="round" stroke-linejoin="round"/>
<path opacity="0.5" d="M179.438 0.837891L179.876 1.68575C179.906 1.73563 179.956 1.76555 180.016 1.76555H181.702" stroke="black" stroke-width="0.259346" stroke-linecap="round" stroke-linejoin="round"/>
<path opacity="0.5" d="M181.701 1.7758C181.761 1.7758 181.821 1.7458 181.841 1.6958" stroke="black" stroke-width="0.259346" stroke-linecap="round" stroke-linejoin="round"/>
<path opacity="0.5" d="M181.852 1.69585L182.29 0.847987C182.32 0.798113 182.37 0.768188 182.43 0.768188H185.812" stroke="black" stroke-width="0.259346" stroke-linecap="round" stroke-linejoin="round"/>
<path opacity="0.5" d="M185.803 0.758179C185.863 0.758179 185.923 0.788179 185.943 0.838179" stroke="black" stroke-width="0.259346" stroke-linecap="round" stroke-linejoin="round"/>
<path opacity="0.5" d="M185.949 0.837891L186.388 1.68575C186.418 1.73563 186.468 1.76555 186.528 1.76555H188.214" stroke="black" stroke-width="0.259346" stroke-linecap="round" stroke-linejoin="round"/>
<path opacity="0.5" d="M188.215 1.7758C188.275 1.7758 188.335 1.7458 188.355 1.6958" stroke="black" stroke-width="0.259346" stroke-linecap="round" stroke-linejoin="round"/>
<path opacity="0.5" d="M188.354 1.69585L188.792 0.847987C188.822 0.798113 188.872 0.768188 188.932 0.768188H192.314C192.373 0.768188 192.423 0.798113 192.453 0.847987L192.892 1.69585C192.922 1.74572 192.972 1.78562 193.032 1.77565H194.727C194.787 1.77565 194.837 1.74572 194.867 1.69585L195.306 0.847987C195.336 0.798113 195.386 0.768188 195.446 0.768188H198.827C198.887 0.768188 198.937 0.798113 198.967 0.847987L199.406 1.69585C199.436 1.74572 199.485 1.78562 199.545 1.77565H201.241" stroke="black" stroke-width="0.259346" stroke-linecap="round" stroke-linejoin="round"/>
<path opacity="0.5" d="M201.242 1.7758C201.302 1.7758 201.352 1.7458 201.382 1.6958" stroke="black" stroke-width="0.259346" stroke-linecap="round" stroke-linejoin="round"/>
<path opacity="0.5" d="M201.381 1.69573L201.82 0.837891" stroke="black" stroke-width="0.259346" stroke-linecap="round" stroke-linejoin="round"/>
<path opacity="0.5" d="M201.82 0.838179C201.85 0.788179 201.9 0.758179 201.96 0.758179" stroke="black" stroke-width="0.259346" stroke-linecap="round" stroke-linejoin="round"/>
<path opacity="0.5" d="M201.961 0.758179H205.342C205.402 0.758179 205.452 0.788103 205.482 0.837978L205.921 1.68584C205.951 1.73571 206.001 1.77561 206.061 1.76564H207.756C207.816 1.76564 207.866 1.73571 207.896 1.68584L208.335 0.837978C208.365 0.788103 208.415 0.758179 208.475 0.758179H211.856" stroke="black" stroke-width="0.259346" stroke-linecap="round" stroke-linejoin="round"/>
<path opacity="0.5" d="M211.854 0.758179C211.914 0.758179 211.974 0.788179 211.994 0.838179" stroke="black" stroke-width="0.259346" stroke-linecap="round" stroke-linejoin="round"/>
<path opacity="0.5" d="M211.996 0.837891L212.435 1.69573" stroke="black" stroke-width="0.259346" stroke-linecap="round" stroke-linejoin="round"/>
<path opacity="0.5" d="M212.434 1.6958C212.464 1.7458 212.514 1.7758 212.584 1.7758" stroke="black" stroke-width="0.259346" stroke-linecap="round" stroke-linejoin="round"/>
<path opacity="0.5" d="M212.582 1.77565H214.268C214.328 1.77565 214.378 1.74572 214.407 1.69585L214.846 0.847987C214.876 0.798113 214.926 0.768188 214.986 0.768188H218.367C218.427 0.768188 218.477 0.798113 218.507 0.847987L218.946 1.69585" stroke="black" stroke-width="0.259346" stroke-linecap="round" stroke-linejoin="round"/>
<path opacity="0.5" d="M218.947 1.6958C218.977 1.7458 219.027 1.7758 219.087 1.7758" stroke="black" stroke-width="0.259346" stroke-linecap="round" stroke-linejoin="round"/>
<path opacity="0.5" d="M219.088 1.77563H219.936H220.774" stroke="black" stroke-width="0.259346" stroke-linecap="round" stroke-linejoin="round"/>
<path opacity="0.5" d="M220.771 1.7758C220.831 1.7758 220.891 1.7458 220.911 1.6958" stroke="black" stroke-width="0.259346" stroke-linecap="round" stroke-linejoin="round"/>
<path opacity="0.5" d="M220.922 1.69573L221.361 0.837891" stroke="black" stroke-width="0.259346" stroke-linecap="round" stroke-linejoin="round"/>
<path opacity="0.5" d="M221.361 0.838179C221.391 0.788179 221.441 0.758179 221.511 0.758179" stroke="black" stroke-width="0.259346" stroke-linecap="round" stroke-linejoin="round"/>
<path opacity="0.5" d="M221.5 0.758179H224.881C224.941 0.758179 224.991 0.788103 225.021 0.837978L225.46 1.68584" stroke="black" stroke-width="0.259346" stroke-linecap="round" stroke-linejoin="round"/>
<path opacity="0.5" d="M225.461 1.6958C225.491 1.7458 225.541 1.7758 225.601 1.7758" stroke="black" stroke-width="0.259346" stroke-linecap="round" stroke-linejoin="round"/>
<path opacity="0.5" d="M225.6 1.77563H226.447" stroke="black" stroke-width="0.259346" stroke-linecap="round" stroke-linejoin="round"/>
<path opacity="0.5" d="M228.803 95.5791L228.902 4.38904" stroke="black" stroke-width="0.259346" stroke-linecap="round" stroke-linejoin="round"/>
<path opacity="0.5" d="M7.41111 4.75818H0.289062V97.1752H7.41111V4.75818Z" stroke="#090A06" stroke-width="0.259346" stroke-linecap="round" stroke-linejoin="round"/>
<path opacity="0.5" d="M237.602 4.75806V97.2449" stroke="#07070A" stroke-width="0.259346" stroke-linecap="round" stroke-linejoin="round"/>
<path opacity="0.5" d="M230.927 101.464H7.03125" stroke="black" stroke-width="0.259346" stroke-linecap="round" stroke-linejoin="round"/>
<path opacity="0.5" d="M7.41211 95.5792V96.5767H230.919" stroke="black" stroke-width="0.259346" stroke-linecap="round" stroke-linejoin="round"/>
<path opacity="0.5" d="M237.496 8.67419L235.939 8.67664L235.944 11.8686L237.501 11.8661L237.496 8.67419Z" stroke="black" stroke-width="0.259346" stroke-linecap="round" stroke-linejoin="round"/>
<path opacity="0.5" d="M236.733 11.8503L236.723 8.65833" stroke="black" stroke-width="0.259346" stroke-linecap="round" stroke-linejoin="round"/>
<path opacity="0.5" d="M237.552 35.8596H235.996V39.0516H237.552V35.8596Z" stroke="black" stroke-width="0.259346" stroke-linecap="round" stroke-linejoin="round"/>
<path opacity="0.5" d="M236.764 35.8596L236.774 39.0516" stroke="black" stroke-width="0.259346" stroke-linecap="round" stroke-linejoin="round"/>
<path opacity="0.5" d="M237.56 63.0769L235.994 63.0793L235.999 66.2713L237.565 66.2688L237.56 63.0769Z" stroke="black" stroke-width="0.259346" stroke-linecap="round" stroke-linejoin="round"/>
<path opacity="0.5" d="M236.783 63.061V66.263" stroke="black" stroke-width="0.259346" stroke-linecap="round" stroke-linejoin="round"/>
<path opacity="0.5" d="M237.593 90.2882L236.027 90.2906L236.032 93.4826L237.598 93.4801L237.593 90.2882Z" stroke="black" stroke-width="0.259346" stroke-linecap="round" stroke-linejoin="round"/>
<path opacity="0.5" d="M236.822 90.2625V93.4644" stroke="black" stroke-width="0.259346" stroke-linecap="round" stroke-linejoin="round"/>
<path opacity="0.5" d="M216.734 95.5293V4.38904" stroke="black" stroke-width="0.259346" stroke-linecap="round" stroke-linejoin="round"/>
<path opacity="0.5" d="M213.91 95.5293V4.38904" stroke="black" stroke-width="0.259346" stroke-linecap="round" stroke-linejoin="round"/>
<path opacity="0.5" d="M205.842 95.5293V4.38904" stroke="black" stroke-width="0.259346" stroke-linecap="round" stroke-linejoin="round"/>
<path opacity="0.5" d="M203.018 95.5293V4.38904" stroke="black" stroke-width="0.259346" stroke-linecap="round" stroke-linejoin="round"/>
<path opacity="0.5" d="M194.949 95.5293V4.38904" stroke="black" stroke-width="0.259346" stroke-linecap="round" stroke-linejoin="round"/>
<path opacity="0.5" d="M192.125 95.5293V4.38904" stroke="black" stroke-width="0.259346" stroke-linecap="round" stroke-linejoin="round"/>
<path opacity="0.5" d="M184.057 95.5293V4.38904" stroke="black" stroke-width="0.259346" stroke-linecap="round" stroke-linejoin="round"/>
<path opacity="0.5" d="M181.232 95.5293V4.38904" stroke="black" stroke-width="0.259346" stroke-linecap="round" stroke-linejoin="round"/>
<path opacity="0.5" d="M173.174 95.5293V4.38904" stroke="black" stroke-width="0.259346" stroke-linecap="round" stroke-linejoin="round"/>
<path opacity="0.5" d="M170.342 95.5293V4.38904" stroke="black" stroke-width="0.259346" stroke-linecap="round" stroke-linejoin="round"/>
<path opacity="0.5" d="M162.279 95.5293V4.38904" stroke="black" stroke-width="0.259346" stroke-linecap="round" stroke-linejoin="round"/>
<path opacity="0.5" d="M159.449 95.5293V4.38904" stroke="black" stroke-width="0.259346" stroke-linecap="round" stroke-linejoin="round"/>
<path opacity="0.5" d="M151.387 95.5293V4.38904" stroke="black" stroke-width="0.259346" stroke-linecap="round" stroke-linejoin="round"/>
<path opacity="0.5" d="M148.566 95.5293V4.38904" stroke="black" stroke-width="0.259346" stroke-linecap="round" stroke-linejoin="round"/>
<path opacity="0.5" d="M140.496 95.5293V4.38904" stroke="black" stroke-width="0.259346" stroke-linecap="round" stroke-linejoin="round"/>
<path opacity="0.5" d="M137.674 95.5293V4.38904" stroke="black" stroke-width="0.259346" stroke-linecap="round" stroke-linejoin="round"/>
<path opacity="0.5" d="M129.604 95.5293V4.38904" stroke="black" stroke-width="0.259346" stroke-linecap="round" stroke-linejoin="round"/>
<path opacity="0.5" d="M126.781 95.5293V4.38904" stroke="black" stroke-width="0.259346" stroke-linecap="round" stroke-linejoin="round"/>
<path opacity="0.5" d="M118.721 95.5293V4.38904" stroke="black" stroke-width="0.259346" stroke-linecap="round" stroke-linejoin="round"/>
<path opacity="0.5" d="M115.889 95.5293V4.38904" stroke="black" stroke-width="0.259346" stroke-linecap="round" stroke-linejoin="round"/>
<path opacity="0.5" d="M107.828 95.5293V4.38904" stroke="black" stroke-width="0.259346" stroke-linecap="round" stroke-linejoin="round"/>
<path opacity="0.5" d="M104.996 95.5293V4.38904" stroke="black" stroke-width="0.259346" stroke-linecap="round" stroke-linejoin="round"/>
<path opacity="0.5" d="M96.9355 95.5293V4.38904" stroke="black" stroke-width="0.259346" stroke-linecap="round" stroke-linejoin="round"/>
<path opacity="0.5" d="M94.1113 95.5293V4.38904" stroke="black" stroke-width="0.259346" stroke-linecap="round" stroke-linejoin="round"/>
<path opacity="0.5" d="M86.043 95.5293V4.38904" stroke="black" stroke-width="0.259346" stroke-linecap="round" stroke-linejoin="round"/>
<path opacity="0.5" d="M83.2207 95.5293V4.38904" stroke="black" stroke-width="0.259346" stroke-linecap="round" stroke-linejoin="round"/>
<path opacity="0.5" d="M75.1504 95.5293V4.38904" stroke="black" stroke-width="0.259346" stroke-linecap="round" stroke-linejoin="round"/>
<path opacity="0.5" d="M72.3281 95.5294V4.38916" stroke="black" stroke-width="0.259346" stroke-linecap="round" stroke-linejoin="round"/>
<path opacity="0.5" d="M64.2559 95.5293V4.38904" stroke="black" stroke-width="0.259346" stroke-linecap="round" stroke-linejoin="round"/>
<path opacity="0.5" d="M61.4355 95.5293V4.38904" stroke="black" stroke-width="0.259346" stroke-linecap="round" stroke-linejoin="round"/>
<path opacity="0.5" d="M53.375 95.5293V4.38904" stroke="black" stroke-width="0.259346" stroke-linecap="round" stroke-linejoin="round"/>
<path opacity="0.5" d="M50.541 95.5293V4.38904" stroke="black" stroke-width="0.259346" stroke-linecap="round" stroke-linejoin="round"/>
<path opacity="0.5" d="M42.4844 95.5293V4.38904" stroke="black" stroke-width="0.259346" stroke-linecap="round" stroke-linejoin="round"/>
<path opacity="0.5" d="M39.6602 95.5293V4.38904" stroke="black" stroke-width="0.259346" stroke-linecap="round" stroke-linejoin="round"/>
<path opacity="0.5" d="M31.5898 95.5293V4.38904" stroke="black" stroke-width="0.259346" stroke-linecap="round" stroke-linejoin="round"/>
<path opacity="0.5" d="M28.7676 95.5293V4.38904" stroke="black" stroke-width="0.259346" stroke-linecap="round" stroke-linejoin="round"/>
<path opacity="0.5" d="M20.6973 95.5293V4.38904" stroke="black" stroke-width="0.259346" stroke-linecap="round" stroke-linejoin="round"/>
<path opacity="0.5" d="M17.873 95.5293V4.38904" stroke="black" stroke-width="0.259346" stroke-linecap="round" stroke-linejoin="round"/>
<path opacity="0.5" d="M9.80469 95.5293V4.38904" stroke="black" stroke-width="0.259346" stroke-linecap="round" stroke-linejoin="round"/>
<path opacity="0.5" d="M224.793 95.5293V4.38904" stroke="black" stroke-width="0.259346" stroke-linecap="round" stroke-linejoin="round"/>
<path opacity="0.5" d="M227.457 95.5293V4.38904" stroke="black" stroke-width="0.259346" stroke-linecap="round" stroke-linejoin="round"/>
<path opacity="0.5" d="M15.2099 4.38904H12.4668V95.5791H15.2099V4.38904Z" stroke="black" stroke-width="0.259346" stroke-linecap="round" stroke-linejoin="round"/>
<path opacity="0.5" d="M26.1025 4.38904H23.3594V95.5791H26.1025V4.38904Z" stroke="black" stroke-width="0.259346" stroke-linecap="round" stroke-linejoin="round"/>
<path opacity="0.5" d="M36.997 4.38904H34.2539V95.5791H36.997V4.38904Z" stroke="black" stroke-width="0.259346" stroke-linecap="round" stroke-linejoin="round"/>
<path opacity="0.5" d="M47.8896 4.38904H45.1465V95.5791H47.8896V4.38904Z" stroke="black" stroke-width="0.259346" stroke-linecap="round" stroke-linejoin="round"/>
<path opacity="0.5" d="M58.7704 4.38904H56.0273V95.5791H58.7704V4.38904Z" stroke="black" stroke-width="0.259346" stroke-linecap="round" stroke-linejoin="round"/>
<path opacity="0.5" d="M69.665 4.38904H66.9219V95.5791H69.665V4.38904Z" stroke="black" stroke-width="0.259346" stroke-linecap="round" stroke-linejoin="round"/>
<path opacity="0.5" d="M80.5575 4.38904H77.8145V95.5791H80.5575V4.38904Z" stroke="black" stroke-width="0.259346" stroke-linecap="round" stroke-linejoin="round"/>
<path opacity="0.5" d="M91.4501 4.38904H88.707V95.5791H91.4501V4.38904Z" stroke="black" stroke-width="0.259346" stroke-linecap="round" stroke-linejoin="round"/>
<path opacity="0.5" d="M102.343 4.38904H99.5996V95.5791H102.343V4.38904Z" stroke="black" stroke-width="0.259346" stroke-linecap="round" stroke-linejoin="round"/>
<path opacity="0.5" d="M113.224 4.38904H110.441V95.5791H113.224V4.38904Z" stroke="black" stroke-width="0.259346" stroke-linecap="round" stroke-linejoin="round"/>
<path opacity="0.5" d="M124.117 4.38904H121.334V95.5791H124.117V4.38904Z" stroke="black" stroke-width="0.259346" stroke-linecap="round" stroke-linejoin="round"/>
<path opacity="0.5" d="M135.01 4.38904H132.227V95.5791H135.01V4.38904Z" stroke="black" stroke-width="0.259346" stroke-linecap="round" stroke-linejoin="round"/>
<path opacity="0.5" d="M145.903 4.38904H143.16V95.5791H145.903V4.38904Z" stroke="black" stroke-width="0.259346" stroke-linecap="round" stroke-linejoin="round"/>
<path opacity="0.5" d="M156.795 4.38904H154.012V95.5791H156.795V4.38904Z" stroke="black" stroke-width="0.259346" stroke-linecap="round" stroke-linejoin="round"/>
<path opacity="0.5" d="M167.678 4.38904H164.895V95.5791H167.678V4.38904Z" stroke="black" stroke-width="0.259346" stroke-linecap="round" stroke-linejoin="round"/>
<path opacity="0.5" d="M178.568 4.38904H175.785V95.5791H178.568V4.38904Z" stroke="black" stroke-width="0.259346" stroke-linecap="round" stroke-linejoin="round"/>
<path opacity="0.5" d="M189.462 4.38904H186.719V95.5791H189.462V4.38904Z" stroke="black" stroke-width="0.259346" stroke-linecap="round" stroke-linejoin="round"/>
<path opacity="0.5" d="M200.394 4.38904H197.611V95.5791H200.394V4.38904Z" stroke="black" stroke-width="0.259346" stroke-linecap="round" stroke-linejoin="round"/>
<path opacity="0.5" d="M211.287 4.38904H208.504V95.5791H211.287V4.38904Z" stroke="black" stroke-width="0.259346" stroke-linecap="round" stroke-linejoin="round"/>
<path opacity="0.5" d="M222.179 4.38904H219.396V95.5791H222.179V4.38904Z" stroke="black" stroke-width="0.259346" stroke-linecap="round" stroke-linejoin="round"/>
<path opacity="0.5" d="M166.121 101.464V97.5043H151.986V101.464" stroke="black" stroke-width="0.259346" stroke-linecap="round" stroke-linejoin="round"/>
<path opacity="0.5" d="M71.6191 101.464V97.5342H85.7435V101.464" stroke="black" stroke-width="0.259346" stroke-linecap="round" stroke-linejoin="round"/>
<path opacity="0.5" d="M162.201 6.70312H159.527V13.6556H162.201V6.70312Z" stroke="black" stroke-width="0.259346" stroke-linecap="round" stroke-linejoin="round"/>
<path opacity="0.5" d="M161.722 7.48132H160.006" stroke="black" stroke-width="0.259346" stroke-linecap="round" stroke-linejoin="round"/>
<path opacity="0.5" d="M160.006 7.4812C159.876 7.4812 159.766 7.6012 159.766 7.7512" stroke="black" stroke-width="0.259346" stroke-linecap="round" stroke-linejoin="round"/>
<path opacity="0.5" d="M159.766 7.75049V12.8476" stroke="black" stroke-width="0.259346" stroke-linecap="round" stroke-linejoin="round"/>
<path opacity="0.5" d="M159.766 12.8477C159.766 12.9977 159.876 13.1177 160.006 13.1177" stroke="black" stroke-width="0.259346" stroke-linecap="round" stroke-linejoin="round"/>
<path opacity="0.5" d="M160.006 13.1171H161.722" stroke="black" stroke-width="0.259346" stroke-linecap="round" stroke-linejoin="round"/>
<path opacity="0.5" d="M161.723 13.1177C161.853 13.1177 161.963 12.9977 161.963 12.8477" stroke="black" stroke-width="0.259346" stroke-linecap="round" stroke-linejoin="round"/>
<path opacity="0.5" d="M161.961 12.8478V7.75061" stroke="black" stroke-width="0.259346" stroke-linecap="round" stroke-linejoin="round"/>
<path opacity="0.5" d="M161.963 7.75132C161.963 7.60132 161.853 7.48132 161.723 7.48132" stroke="black" stroke-width="0.259346" stroke-linecap="round" stroke-linejoin="round"/>
<path opacity="0.5" d="M161.96 11.5011H159.766" stroke="black" stroke-width="0.259346" stroke-linecap="round" stroke-linejoin="round"/>
<path opacity="0.5" d="M161.633 7.05225C161.633 7.13225 161.693 7.19225 161.753 7.19225" stroke="black" stroke-width="0.259346" stroke-linecap="round" stroke-linejoin="round"/>
<path opacity="0.5" d="M161.752 7.19225C161.822 7.19225 161.872 7.13225 161.872 7.05225" stroke="black" stroke-width="0.259346" stroke-linecap="round" stroke-linejoin="round"/>
<path opacity="0.5" d="M161.882 7.05272C161.882 6.97272 161.822 6.91272 161.762 6.91272" stroke="black" stroke-width="0.259346" stroke-linecap="round" stroke-linejoin="round"/>
<path opacity="0.5" d="M161.753 6.91272C161.683 6.91272 161.633 6.97272 161.633 7.05272" stroke="black" stroke-width="0.259346" stroke-linecap="round" stroke-linejoin="round"/>
<path opacity="0.5" d="M160.732 13.3864C160.732 13.4664 160.792 13.5264 160.852 13.5264" stroke="black" stroke-width="0.259346" stroke-linecap="round" stroke-linejoin="round"/>
<path opacity="0.5" d="M160.865 13.5264C160.935 13.5264 160.985 13.4664 160.985 13.3864" stroke="black" stroke-width="0.259346" stroke-linecap="round" stroke-linejoin="round"/>
<path opacity="0.5" d="M160.985 13.3868C160.985 13.3068 160.925 13.2468 160.865 13.2468" stroke="black" stroke-width="0.259346" stroke-linecap="round" stroke-linejoin="round"/>
<path opacity="0.5" d="M160.862 13.2468C160.792 13.2468 160.742 13.3068 160.742 13.3868" stroke="black" stroke-width="0.259346" stroke-linecap="round" stroke-linejoin="round"/>
<path opacity="0.5" d="M159.836 7.05225C159.836 7.13225 159.896 7.19225 159.956 7.19225" stroke="black" stroke-width="0.259346" stroke-linecap="round" stroke-linejoin="round"/>
<path opacity="0.5" d="M159.965 7.19225C160.035 7.19225 160.085 7.13225 160.085 7.05225" stroke="black" stroke-width="0.259346" stroke-linecap="round" stroke-linejoin="round"/>
<path opacity="0.5" d="M160.085 7.05272C160.085 6.97272 160.025 6.91272 159.965 6.91272" stroke="black" stroke-width="0.259346" stroke-linecap="round" stroke-linejoin="round"/>
<path opacity="0.5" d="M159.966 6.9126C159.896 6.9126 159.846 6.9726 159.846 7.0526" stroke="black" stroke-width="0.259346" stroke-linecap="round" stroke-linejoin="round"/>
<path opacity="0.5" d="M205.761 6.70312H203.088V13.6556H205.761V6.70312Z" stroke="black" stroke-width="0.259346" stroke-linecap="round" stroke-linejoin="round"/>
<path opacity="0.5" d="M205.282 7.48132H203.566" stroke="black" stroke-width="0.259346" stroke-linecap="round" stroke-linejoin="round"/>
<path opacity="0.5" d="M203.568 7.4812C203.438 7.4812 203.328 7.6012 203.328 7.7512" stroke="black" stroke-width="0.259346" stroke-linecap="round" stroke-linejoin="round"/>
<path opacity="0.5" d="M203.328 7.75049V12.8476" stroke="black" stroke-width="0.259346" stroke-linecap="round" stroke-linejoin="round"/>
<path opacity="0.5" d="M203.328 12.8477C203.328 12.9977 203.438 13.1177 203.568 13.1177" stroke="black" stroke-width="0.259346" stroke-linecap="round" stroke-linejoin="round"/>
<path opacity="0.5" d="M203.566 13.1171H205.282" stroke="black" stroke-width="0.259346" stroke-linecap="round" stroke-linejoin="round"/>
<path opacity="0.5" d="M205.281 13.1177C205.411 13.1177 205.521 12.9977 205.521 12.8477" stroke="black" stroke-width="0.259346" stroke-linecap="round" stroke-linejoin="round"/>
<path opacity="0.5" d="M205.521 12.8478V7.75061" stroke="black" stroke-width="0.259346" stroke-linecap="round" stroke-linejoin="round"/>
<path opacity="0.5" d="M205.521 7.7512C205.521 7.6012 205.411 7.4812 205.281 7.4812" stroke="black" stroke-width="0.259346" stroke-linecap="round" stroke-linejoin="round"/>
<path opacity="0.5" d="M205.523 11.5011H203.328" stroke="black" stroke-width="0.259346" stroke-linecap="round" stroke-linejoin="round"/>
<path opacity="0.5" d="M205.193 7.05225C205.193 7.13225 205.243 7.19225 205.313 7.19225" stroke="black" stroke-width="0.259346" stroke-linecap="round" stroke-linejoin="round"/>
<path opacity="0.5" d="M205.311 7.19225C205.381 7.19225 205.441 7.13225 205.441 7.05225" stroke="black" stroke-width="0.259346" stroke-linecap="round" stroke-linejoin="round"/>
<path opacity="0.5" d="M205.441 7.05272C205.441 6.97272 205.381 6.91272 205.311 6.91272" stroke="black" stroke-width="0.259346" stroke-linecap="round" stroke-linejoin="round"/>
<path opacity="0.5" d="M205.313 6.91272C205.243 6.91272 205.193 6.97272 205.193 7.05272" stroke="black" stroke-width="0.259346" stroke-linecap="round" stroke-linejoin="round"/>
<path opacity="0.5" d="M204.305 13.3864C204.305 13.4664 204.365 13.5264 204.435 13.5264" stroke="black" stroke-width="0.259346" stroke-linecap="round" stroke-linejoin="round"/>
<path opacity="0.5" d="M204.426 13.5264C204.496 13.5264 204.546 13.4664 204.546 13.3864" stroke="black" stroke-width="0.259346" stroke-linecap="round" stroke-linejoin="round"/>
<path opacity="0.5" d="M204.546 13.3868C204.546 13.3068 204.496 13.2468 204.426 13.2468" stroke="black" stroke-width="0.259346" stroke-linecap="round" stroke-linejoin="round"/>
<path opacity="0.5" d="M204.425 13.2468C204.355 13.2468 204.295 13.3068 204.295 13.3868" stroke="black" stroke-width="0.259346" stroke-linecap="round" stroke-linejoin="round"/>
<path opacity="0.5" d="M203.396 7.05225C203.396 7.13225 203.456 7.19225 203.526 7.19225" stroke="black" stroke-width="0.259346" stroke-linecap="round" stroke-linejoin="round"/>
<path opacity="0.5" d="M203.527 7.19225C203.597 7.19225 203.647 7.13225 203.647 7.05225" stroke="black" stroke-width="0.259346" stroke-linecap="round" stroke-linejoin="round"/>
<path opacity="0.5" d="M203.647 7.05272C203.647 6.97272 203.597 6.91272 203.527 6.91272" stroke="black" stroke-width="0.259346" stroke-linecap="round" stroke-linejoin="round"/>
<path opacity="0.5" d="M203.526 6.91272C203.456 6.91272 203.396 6.97272 203.396 7.05272" stroke="black" stroke-width="0.259346" stroke-linecap="round" stroke-linejoin="round"/>
<path opacity="0.5" d="M75.0697 6.70312H72.3965V13.6556H75.0697V6.70312Z" stroke="black" stroke-width="0.259346" stroke-linecap="round" stroke-linejoin="round"/>
<path opacity="0.5" d="M74.5907 7.4812H72.875" stroke="black" stroke-width="0.259346" stroke-linecap="round" stroke-linejoin="round"/>
<path opacity="0.5" d="M72.8767 7.48132C72.7467 7.48132 72.6367 7.60132 72.6367 7.75132" stroke="black" stroke-width="0.259346" stroke-linecap="round" stroke-linejoin="round"/>
<path opacity="0.5" d="M72.6465 7.75061V12.8478" stroke="black" stroke-width="0.259346" stroke-linecap="round" stroke-linejoin="round"/>
<path opacity="0.5" d="M72.6465 12.8477C72.6465 12.9977 72.7565 13.1177 72.8865 13.1177" stroke="black" stroke-width="0.259346" stroke-linecap="round" stroke-linejoin="round"/>
<path opacity="0.5" d="M72.875 13.1171H74.5907" stroke="black" stroke-width="0.259346" stroke-linecap="round" stroke-linejoin="round"/>
<path opacity="0.5" d="M74.5918 13.1177C74.7218 13.1177 74.8318 12.9977 74.8318 12.8477" stroke="black" stroke-width="0.259346" stroke-linecap="round" stroke-linejoin="round"/>
<path opacity="0.5" d="M74.832 12.8478V7.75061" stroke="black" stroke-width="0.259346" stroke-linecap="round" stroke-linejoin="round"/>
<path opacity="0.5" d="M74.8318 7.75132C74.8318 7.60132 74.7218 7.48132 74.5918 7.48132" stroke="black" stroke-width="0.259346" stroke-linecap="round" stroke-linejoin="round"/>
<path opacity="0.5" d="M74.831 11.5012H72.6465" stroke="black" stroke-width="0.259346" stroke-linecap="round" stroke-linejoin="round"/>
<path opacity="0.5" d="M74.502 7.05225C74.502 7.13225 74.5619 7.19225 74.6219 7.19225" stroke="black" stroke-width="0.259346" stroke-linecap="round" stroke-linejoin="round"/>
<path opacity="0.5" d="M74.6309 7.19225C74.7009 7.19225 74.7509 7.13225 74.7509 7.05225" stroke="black" stroke-width="0.259346" stroke-linecap="round" stroke-linejoin="round"/>
<path opacity="0.5" d="M74.7509 7.0526C74.7509 6.9726 74.6909 6.9126 74.6309 6.9126" stroke="black" stroke-width="0.259346" stroke-linecap="round" stroke-linejoin="round"/>
<path opacity="0.5" d="M74.6317 6.91272C74.5617 6.91272 74.5117 6.97272 74.5117 7.05272" stroke="black" stroke-width="0.259346" stroke-linecap="round" stroke-linejoin="round"/>
<path opacity="0.5" d="M73.6133 13.3864C73.6133 13.4664 73.6733 13.5264 73.7333 13.5264" stroke="black" stroke-width="0.259346" stroke-linecap="round" stroke-linejoin="round"/>
<path opacity="0.5" d="M73.7324 13.5264C73.8024 13.5264 73.8524 13.4664 73.8524 13.3864" stroke="black" stroke-width="0.259346" stroke-linecap="round" stroke-linejoin="round"/>
<path opacity="0.5" d="M73.8641 13.3868C73.8641 13.3068 73.8041 13.2468 73.7441 13.2468" stroke="black" stroke-width="0.259346" stroke-linecap="round" stroke-linejoin="round"/>
<path opacity="0.5" d="M73.7333 13.2467C73.6633 13.2467 73.6133 13.3067 73.6133 13.3867" stroke="black" stroke-width="0.259346" stroke-linecap="round" stroke-linejoin="round"/>
<path opacity="0.5" d="M72.7168 7.05225C72.7168 7.13225 72.7768 7.19225 72.8368 7.19225" stroke="black" stroke-width="0.259346" stroke-linecap="round" stroke-linejoin="round"/>
<path opacity="0.5" d="M72.8359 7.19225C72.9059 7.19225 72.9559 7.13225 72.9559 7.05225" stroke="black" stroke-width="0.259346" stroke-linecap="round" stroke-linejoin="round"/>
<path opacity="0.5" d="M72.9657 7.05272C72.9657 6.97272 72.9057 6.91272 72.8457 6.91272" stroke="black" stroke-width="0.259346" stroke-linecap="round" stroke-linejoin="round"/>
<path opacity="0.5" d="M72.8368 6.91272C72.7668 6.91272 72.7168 6.97272 72.7168 7.05272" stroke="black" stroke-width="0.259346" stroke-linecap="round" stroke-linejoin="round"/>
<path opacity="0.5" d="M31.5092 6.70312H28.8359V13.6556H31.5092V6.70312Z" stroke="black" stroke-width="0.259346" stroke-linecap="round" stroke-linejoin="round"/>
<path opacity="0.5" d="M31.0321 7.48132H29.3164" stroke="black" stroke-width="0.259346" stroke-linecap="round" stroke-linejoin="round"/>
<path opacity="0.5" d="M29.3162 7.48132C29.1862 7.48132 29.0762 7.60132 29.0762 7.75132" stroke="black" stroke-width="0.259346" stroke-linecap="round" stroke-linejoin="round"/>
<path opacity="0.5" d="M29.0859 7.75061V12.8478" stroke="black" stroke-width="0.259346" stroke-linecap="round" stroke-linejoin="round"/>
<path opacity="0.5" d="M29.0859 12.8477C29.0859 12.9977 29.1959 13.1177 29.3259 13.1177" stroke="black" stroke-width="0.259346" stroke-linecap="round" stroke-linejoin="round"/>
<path opacity="0.5" d="M29.3164 13.1171H31.0321" stroke="black" stroke-width="0.259346" stroke-linecap="round" stroke-linejoin="round"/>
<path opacity="0.5" d="M31.0312 13.1177C31.1612 13.1177 31.2712 12.9977 31.2712 12.8477" stroke="black" stroke-width="0.259346" stroke-linecap="round" stroke-linejoin="round"/>
<path opacity="0.5" d="M31.2695 12.8478V7.75061" stroke="black" stroke-width="0.259346" stroke-linecap="round" stroke-linejoin="round"/>
<path opacity="0.5" d="M31.2712 7.7512C31.2712 7.6012 31.1612 7.4812 31.0312 7.4812" stroke="black" stroke-width="0.259346" stroke-linecap="round" stroke-linejoin="round"/>
<path opacity="0.5" d="M31.2704 11.5012H29.0859" stroke="black" stroke-width="0.259346" stroke-linecap="round" stroke-linejoin="round"/>
<path opacity="0.5" d="M30.9512 7.05225C30.9512 7.13225 31.0112 7.19225 31.0712 7.19225" stroke="black" stroke-width="0.259346" stroke-linecap="round" stroke-linejoin="round"/>
<path opacity="0.5" d="M31.0703 7.19225C31.1403 7.19225 31.1903 7.13225 31.1903 7.05225" stroke="black" stroke-width="0.259346" stroke-linecap="round" stroke-linejoin="round"/>
<path opacity="0.5" d="M31.1903 7.05272C31.1903 6.97272 31.1303 6.91272 31.0703 6.91272" stroke="black" stroke-width="0.259346" stroke-linecap="round" stroke-linejoin="round"/>
<path opacity="0.5" d="M31.0712 6.91272C31.0012 6.91272 30.9512 6.97272 30.9512 7.05272" stroke="black" stroke-width="0.259346" stroke-linecap="round" stroke-linejoin="round"/>
<path opacity="0.5" d="M30.0547 13.3864C30.0547 13.4664 30.1147 13.5264 30.1747 13.5264" stroke="black" stroke-width="0.259346" stroke-linecap="round" stroke-linejoin="round"/>
<path opacity="0.5" d="M30.1719 13.5264C30.2419 13.5264 30.2919 13.4664 30.2919 13.3864" stroke="black" stroke-width="0.259346" stroke-linecap="round" stroke-linejoin="round"/>
<path opacity="0.5" d="M30.3036 13.3867C30.3036 13.3067 30.2436 13.2467 30.1836 13.2467" stroke="black" stroke-width="0.259346" stroke-linecap="round" stroke-linejoin="round"/>
<path opacity="0.5" d="M30.1747 13.2468C30.1047 13.2468 30.0547 13.3068 30.0547 13.3868" stroke="black" stroke-width="0.259346" stroke-linecap="round" stroke-linejoin="round"/>
<path opacity="0.5" d="M29.1562 7.05225C29.1562 7.13225 29.2163 7.19225 29.2763 7.19225" stroke="black" stroke-width="0.259346" stroke-linecap="round" stroke-linejoin="round"/>
<path opacity="0.5" d="M29.2773 7.19225C29.3473 7.19225 29.3973 7.13225 29.3973 7.05225" stroke="black" stroke-width="0.259346" stroke-linecap="round" stroke-linejoin="round"/>
<path opacity="0.5" d="M29.4071 7.05272C29.4071 6.97272 29.3471 6.91272 29.2871 6.91272" stroke="black" stroke-width="0.259346" stroke-linecap="round" stroke-linejoin="round"/>
<path opacity="0.5" d="M29.2763 6.91272C29.2063 6.91272 29.1562 6.97272 29.1562 7.05272" stroke="black" stroke-width="0.259346" stroke-linecap="round" stroke-linejoin="round"/>
<path opacity="0.5" d="M7.0315 0.129761H0.128906V4.75809H7.0315V0.129761Z" stroke="black" stroke-width="0.259346" stroke-linecap="round" stroke-linejoin="round"/>
<path opacity="0.5" d="M4.63769 3.43134V1.37652C4.119 0.907698 3.33098 0.907698 2.82227 1.37652V3.43134C3.34096 3.90015 4.12897 3.90015 4.63769 3.43134Z" stroke="black" stroke-width="0.259346" stroke-linecap="round" stroke-linejoin="round"/>
<path opacity="0.5" d="M7.0315 97.1752H0.128906V101.804H7.0315V97.1752Z" stroke="black" stroke-width="0.259346" stroke-linecap="round" stroke-linejoin="round"/>
<path opacity="0.5" d="M4.63769 100.477V98.4219C4.119 97.9531 3.33098 97.9531 2.82227 98.4219V100.477C3.34096 100.946 4.12897 100.946 4.63769 100.477Z" stroke="black" stroke-width="0.259346" stroke-linecap="round" stroke-linejoin="round"/>
<path opacity="0.5" d="M230.889 4.75806L230.919 97.3646" stroke="black" stroke-width="0.708215" stroke-linecap="round" stroke-linejoin="round"/>
</g>
<defs>
<clipPath id="clip0_592_5223">
<rect width="238" height="102.003" fill="white"/>
</clipPath>
</defs>
</svg>
