<?xml version="1.0" encoding="UTF-8"?>
<svg id="Layer_1" data-name="Layer 1" xmlns="http://www.w3.org/2000/svg" width="21.13" height="15.56" viewBox="0 0 21.13 15.56">
  <defs>
    <style>
      .cls-1 {
        fill: #fff;
      }

      .cls-2 {
        fill: none;
        stroke: #010101;
        stroke-miterlimit: 10;
        stroke-width: .25px;
      }
    </style>
  </defs>
  <g id="Default">
    <path class="cls-1" d="m18,15.23s-.02.05-.05.07h-.04s0,.08,0,.08c0,.02-.01.03-.03.03H.48s-.03-.01-.03-.03h-.1v-.16h-.06s-.05-.04-.05-.07v-.03s.01-.03.01-.03v-.06s.01-.05.04-.07h.06V.49h-.06s-.05-.04-.05-.07v-.03s.01-.03.01-.03v-.06s.01-.05.04-.07h.06v-.08h.1s.01-.03.03-.03h17.4s.03.01.03.03v.34h.94s.03.03.03.03l.02.04.02-.03.02-.02h.05s.36,0,.36,0l.18.04.15.06.13.09.13.16.13.27.12.35.09.37.07.39.06.42.03.39h.08v-.34s0-.03.02-.03h.1s.02.02.02.03v.39s0,.03-.02.03h-.2s.01.55.01.55v.46s0,.25,0,.25l.03.12.13.22.03.2v.07s.05,0,.05,0h.05s0,.02,0,.02v.04s0,.05,0,.05v.07s0,.04,0,.04v.04s0,.09,0,.09v.11s-.02.06-.02.06v.02s-.02.04-.02.04l-.02.07-.02.06v.18s0,.35,0,.35v.39s0,.43,0,.43v.46s0,.48,0,.48v.5s0,.51,0,.51v4s0,.3,0,.3l-.02.32-.13.54-.08.27-.14.22-.23.13-.27.06-.5.02h-.2s-.08-.04-.08-.04l-.06-.05-.04-.12v-.02s-.03-.13-.03-.13v.23l-.03.14-.04.08-.06.05-.08.04-.12.03h-.18s-.41.01-.41.01v.02s-.01.03-.01.03v.06Z"/>
  </g>
  <g id="Make2D">
    <g id="Make2D::Visible">
      <g id="Make2D::Visible::SceneSilhouetteCurves">
        <path class="cls-2" d="m20.49,4.41h0s0,0,0,0"/>
        <path class="cls-2" d="m20.78,5.05h0s0-.01,0-.01h0s0,.01,0,.01Z"/>
      </g>
      <g id="Make2D::Visible::Curves">
        <path class="cls-2" d="m17.86,14.11h.52l.09-.02.08-.05.05-.08.02-.09-.02-.09-.05-.08-.08-.05-.09-.02h-.52"/>
        <path class="cls-2" d="m18.91.83v-.04s-.03-.03-.03-.03l-.03-.02h-.04s0-.11,0-.11v-.07s0-.04,0-.04h0"/>
        <path class="cls-2" d="m17.86,13.8h.55s.02.02.02.02l.02.02v.03s0,.03,0,.03l-.02.02-.02.02h-.03s-.52,0-.52,0"/>
        <path class="cls-2" d="m20.44,4.25h0"/>
        <path class="cls-2" d="m18.92.76h0s.01-.02.01-.02h.04s0-.09,0-.09v-.07s0-.06,0-.06v-.03"/>
        <path class="cls-2" d="m18.91.58v-.02s.02-.03.02-.03"/>
        <path class="cls-2" d="m18.97.73h.3s.14.05.14.05l.12.06.11.08.11.15.11.27.1.34.14.74.05.4.04.46v.98s.01.24.01.24l.03.12.11.22.02.2v.66s0,3.32,0,3.32v4.17s-.02.31-.02.31l-.11.52-.07.26-.11.21-.19.12-.23.06-.41.02h-.16s-.06-.04-.06-.04l-.05-.05-.03-.12-.02-.34v-2.08s0-8.83,0-8.83V1.22s0-.3,0-.3v-.04s0-.09,0-.09v-.04s0-.04,0-.04v-.03s0-.03,0-.03v-.03s0-.04,0-.04v-.02s0-.03,0-.03l.02-.02h.05s.36,0,.36,0l.18.04.15.06.13.09.13.16.14.28.12.35.1.37.07.39.06.42.04.48v.55s.01.46.01.46v.25s.04.12.04.12l.13.23.03.21v.25s0,.43,0,.43v.3s0,.35,0,.35v.39s0,.43,0,.43v.46s0,.49,0,.49v.5s0,.51,0,.51v4s0,.3,0,.3l-.02.32-.13.54-.08.27-.14.22-.23.13-.28.06-.51.02h-.2s-.08-.04-.08-.04l-.06-.05-.04-.12v-.02s-.01-.21-.01-.21"/>
        <path class="cls-2" d="m.37,1.31h17.5"/>
        <path class="cls-2" d="m.37,14.26h17.5"/>
        <path class="cls-2" d="m.34,14.55V1.23"/>
        <circle class="cls-2" cx="15.04" cy="14.84" r=".17"/>
        <circle class="cls-2" cx="3.19" cy="14.84" r=".17"/>
        <circle class="cls-2" cx="15.04" cy=".94" r=".17"/>
        <circle class="cls-2" cx="3.19" cy=".94" r=".17"/>
        <circle class="cls-2" cx="5.11" cy="12.02" r=".1"/>
        <circle class="cls-2" cx="13.12" cy="12.02" r=".1"/>
        <path class="cls-2" d="m20.48,3.13h.2s.02-.02.02-.03v-.39s0-.03-.02-.03h-.1s-.02.02-.02.03v.34h-.08"/>
        <path class="cls-2" d="m20.49,4.41h0s0,0,0,0"/>
        <path class="cls-2" d="m18.91,14.55l-.03.14-.04.08-.06.05-.08.04-.12.03h-.17"/>
        <path class="cls-2" d="m.41,14.34s0-.02,0-.03c0,0-.02-.02-.03-.03,0,0,0-.02,0-.03V1.31s0-.02.01-.03c.01,0,.04-.02.03-.04"/>
        <path class="cls-2" d="m20.02,1h0s0,0,0,0h0"/>
        <path class="cls-2" d="m17.83,14.55v-.2s0-.02,0-.03c0,0,.02-.02.03-.03,0,0,0-.02,0-.03V1.31s0-.02-.01-.03c-.01,0-.04-.02-.03-.04"/>
        <path class="cls-2" d="m18.91,14.13v.65l-.03.14-.04.08-.06.05-.08.04-.12.03h-.18s-.41.01-.41.01"/>
        <path class="cls-2" d="m.34,15.4v-.86h17.55v.86s0,.03-.03.03H.37s-.03-.01-.03-.03h-.1V.16h.1"/>
        <path class="cls-2" d="m20.69,5.02h.05s.05,0,.05,0v.02s0,.04,0,.04v.05s0,.07,0,.07v.04s0,.04,0,.04v.09s0,.11,0,.11l-.02.06v.02s-.02.04-.02.04l-.02.07-.02.06"/>
        <path class="cls-2" d="m20.69,5.47h.04s.04.02.04.02"/>
        <path class="cls-2" d="m17.87.12H.37s-.03.01-.03.03H.34v1.08h17.56V.16s-.01-.03-.03-.03h0"/>
        <path class="cls-2" d="m8.76,8.55c0-.27,0-.54,0-.82,0-.27,0-.56,0-.8,0-.01,0-.02,0-.03,0,0,0-.01,0-.01,0,0-.01-.01-.03-.01-.01,0-.04,0-.06,0-.02,0-.05,0-.06,0-.02,0-.02,0-.03.01,0,0,0,0,0,.01,0,0,0,.02,0,.03,0,.29,0,.61,0,.92,0,.31,0,.62,0,.94,0,0,0,.02.01.03,0,0,0,0,.01,0,0,0,.02,0,.03,0,.16,0,.36,0,.55,0,.09,0,.18,0,.28,0s.2,0,.27,0c.01,0,.02,0,.03,0,0,0,.01,0,.01,0,0,0,.01-.01.01-.03,0-.01,0-.03,0-.05s0-.03,0-.05c0-.02,0-.02-.01-.03,0,0,0,0-.01,0,0,0-.02,0-.03,0-.12,0-.27,0-.41,0-.07,0-.14,0-.21,0-.07,0-.14,0-.21,0-.01,0-.03,0-.04,0-.01,0-.02-.01-.03-.02-.02-.02-.03-.05-.03-.07Z"/>
        <path class="cls-2" d="m17.9.5h.95s.03.03.03.03l.02.04"/>
        <path class="cls-2" d="m8.81,8.55s0,.02.01.03c0,0,.03,0,.05,0,.11,0,.27,0,.41,0,.07,0,.14,0,.21,0,.07,0,.14,0,.21,0,.01,0,.03,0,.04,0,.01,0,.02.01.03.02.02.02.03.04.03.07,0,.02,0,.03,0,.05s0,.03,0,.05c0,.03-.01.05-.03.07,0,0-.02.02-.03.02-.01,0-.02,0-.04,0-.09,0-.18,0-.28,0-.09,0-.19,0-.28,0-.09,0-.19,0-.28,0s-.19,0-.28,0c-.01,0-.03,0-.04,0-.01,0-.02-.01-.03-.02-.02-.02-.03-.05-.03-.07,0-.31,0-.62,0-.94,0-.16,0-.31,0-.47,0-.16,0-.31,0-.47,0-.01,0-.03,0-.04,0-.01.01-.02.02-.03.02-.02.04-.03.07-.03.02,0,.04,0,.06,0,.02,0,.04,0,.06,0,.03,0,.05.01.07.03,0,0,.02.02.02.03,0,.01,0,.03,0,.04,0,.13,0,.27,0,.41,0,.14,0,.27,0,.41,0,.27,0,.55,0,.82Z"/>
        <path class="cls-2" d="m.41,14.55v-.2h17.42"/>
        <path class="cls-2" d="m17.9,14.9h.51v.06s0,.05,0,.05v.08s0,.04,0,.04h0"/>
        <path class="cls-2" d="m18.81.73h-.84"/>
      </g>
    </g>
  </g>
  <g id="Default-2" data-name="Default">
    <path class="cls-2" d="m17.93.7v.26"/>
    <path class="cls-2" d="m17.9.7h.04s.05.04.05.07v.03s-.01,0-.01,0v.07h.01v.03s-.02.05-.05.07h-.04"/>
    <path class="cls-2" d="m.18.49V.24"/>
    <path class="cls-2" d="m.24.49h-.06s-.05-.04-.05-.07v-.03s.01,0,.01,0v-.07h-.01s0-.03,0-.03c0-.03.02-.05.05-.07h.06"/>
    <path class="cls-2" d="m.24,14.99h-.06s-.05.04-.05.07v.03s.01,0,.01,0v.07h-.01s0,.03,0,.03c0,.03.02.05.05.07h.06"/>
    <path class="cls-2" d="m.18,14.99v.26"/>
    <path class="cls-2" d="m17.93,15.07v.26"/>
    <path class="cls-2" d="m17.9,15.07h.04s.05.04.05.07v.03h-.01v.07h.01v.03s-.02.05-.05.07h-.04"/>
  </g>
  <g id="Make2D-2" data-name="Make2D">
    <g id="Make2D::Visible-2" data-name="Make2D::Visible">
      <g id="Make2D::Visible::SceneSilhouetteCurves-2" data-name="Make2D::Visible::SceneSilhouetteCurves">
        <path class="cls-1" d="m20.78,5.04h0s0-.01,0-.01h0s0,.01,0,.01Z"/>
      </g>
      <g id="Make2D::Visible::Curves-2" data-name="Make2D::Visible::Curves">
        <path class="cls-1" d="m20.03,1h0s0,0,0,0h0"/>
      </g>
    </g>
  </g>
</svg>