<svg width="23" height="16" viewBox="0 0 23 16" fill="none" xmlns="http://www.w3.org/2000/svg">
<path d="M1.5 6L1 5.5V10.5H1.5H2L2.5 10V8.5H6H8.5L10 8L11 7L11.5 5.5L12 3L13 2H13.5L14.5 3V4V6L14 6.5L13 10L12.5 10.5L10 11L8 15H22L20.5 11L17.5 10.5L17 9.5L16.5 6.5L15.5 6V4.5V3L15 2L14.5 1.5L13.5 1H12.5L11.5 2L11 3L10.5 6L9.5 7L8.5 7.5H2.5V6H2H1.5Z" fill="white"/>
<path d="M1.27002 5.94263H1.83002C1.83002 5.94263 1.83002 6.11263 1.83002 6.36263V10.4426H1.27002" stroke="#010101" stroke-width="0.25" stroke-linecap="round" stroke-linejoin="round"/>
<path d="M12.76 10.4526C12.85 10.2626 12.91 10.1426 12.94 10.0826C12.97 10.0226 12.97 10.0026 13 9.95256C13 9.94256 13.01 9.92256 13.03 9.90256C13.04 9.88256 13.06 9.87256 13.08 9.86256C13.1 9.85256 13.12 9.85256 13.15 9.84256C13.17 9.84256 13.19 9.83256 13.21 9.82256C13.24 9.81256 13.24 9.80256 13.25 9.79256C13.25 9.78256 13.27 9.75256 13.28 9.71256C13.3 9.62256 13.34 9.46256 13.37 9.31256C13.47 8.80256 13.53 8.44256 13.6 8.09256C13.67 7.73256 13.73 7.38256 13.83 6.87256C13.86 6.72256 13.89 6.56256 13.9 6.47256C13.92 6.39256 13.92 6.38256 13.94 6.34256C13.94 6.33256 13.96 6.32256 13.98 6.30256C14 6.29256 14.03 6.27256 14.06 6.26256C14.18 6.22256 14.28 6.20256 14.4 6.18256C14.48 6.18256 14.57 6.16256 14.62 6.15256C14.63 6.15256 14.65 6.14256 14.65 6.12256C14.63 6.12256 14.9 6.12256 15.15 6.12256C15.4 6.12256 15.67 6.12256 15.65 6.12256C15.65 6.14256 15.67 6.15256 15.68 6.15256C15.73 6.16256 15.82 6.17256 15.9 6.18256C16.03 6.19256 16.13 6.21256 16.24 6.26256C16.27 6.27256 16.3 6.28256 16.32 6.30256C16.34 6.31256 16.35 6.33256 16.36 6.34256C16.39 6.38256 16.39 6.39256 16.4 6.47256C16.42 6.55256 16.45 6.72256 16.47 6.87256C16.57 7.38256 16.63 7.74256 16.7 8.09256C16.77 8.45256 16.83 8.80256 16.93 9.31256C16.96 9.46256 16.99 9.63256 17.02 9.71256C17.03 9.75256 17.04 9.78256 17.05 9.79256C17.05 9.80256 17.05 9.81256 17.09 9.82256C17.1 9.82256 17.12 9.83256 17.15 9.84256C17.17 9.84256 17.2 9.84256 17.22 9.86256C17.24 9.87256 17.26 9.89256 17.27 9.90256C17.28 9.92256 17.29 9.93256 17.3 9.95256C17.32 10.0126 17.33 10.0226 17.36 10.0826C17.39 10.1526 17.44 10.2626 17.54 10.4526" stroke="#010101" stroke-width="0.25" stroke-linecap="round" stroke-linejoin="round"/>
<path d="M15.1201 14.9027C11.6801 14.9027 7.77005 14.9027 8.12005 14.9027C8.15005 14.7427 8.16005 14.7027 8.20005 14.6427C8.22005 14.6127 8.25005 14.5827 8.28005 14.5527C8.31005 14.5227 8.35005 14.5027 8.37005 14.4827C8.38005 14.4727 8.39005 14.4627 8.40005 14.4527C8.44005 14.4027 8.49005 14.2827 8.54005 14.1627C8.72005 13.7327 8.91005 13.2827 9.10005 12.8227C9.28005 12.3927 9.45005 11.9427 9.61005 11.5427C9.63005 11.4827 9.66005 11.4127 9.67005 11.3727C9.69005 11.3327 9.69005 11.3027 9.72005 11.2627C9.74005 11.2227 9.78005 11.1627 9.83005 11.1227C9.88005 11.0727 9.94005 11.0427 10.0101 11.0127C10.1001 10.9727 10.2101 10.9427 10.3101 10.9127C10.4301 10.8827 10.5401 10.8527 10.6601 10.8327C10.8401 10.7927 11.0201 10.7627 11.1701 10.7327C11.5801 10.6627 11.7901 10.6327 12.7701 10.4727C12.6501 10.4727 13.9701 10.4727 15.1301 10.4727C16.2901 10.4727 17.6101 10.4727 17.4901 10.4727C18.4701 10.6327 18.6801 10.6627 19.0901 10.7327C19.2401 10.7627 19.4201 10.7927 19.6001 10.8327C19.7101 10.8527 19.8301 10.8827 19.9501 10.9127C20.0501 10.9427 20.1501 10.9727 20.2501 11.0127C20.3101 11.0427 20.3701 11.0727 20.4301 11.1227C20.4701 11.1627 20.5101 11.2227 20.5401 11.2627C20.5701 11.3027 20.5701 11.3327 20.5901 11.3727C20.6101 11.4127 20.6301 11.4827 20.6501 11.5427C20.8101 11.9527 20.9801 12.3927 21.1601 12.8227C21.3501 13.2827 21.5401 13.7327 21.7201 14.1627C21.7701 14.2827 21.8201 14.4027 21.8601 14.4527C21.8601 14.4627 21.8701 14.4727 21.8901 14.4827C21.9101 14.5027 21.9501 14.5227 21.9801 14.5527C22.0101 14.5827 22.0401 14.6227 22.0601 14.6427C22.1001 14.7027 22.1101 14.7327 22.1401 14.9027C22.4901 14.9027 18.5801 14.9027 15.1401 14.9027H15.1201Z" stroke="#010101" stroke-width="0.25" stroke-linecap="round" stroke-linejoin="round"/>
<path d="M2.25 7.6926C2.72 7.6926 3.19 7.6926 3.66 7.6926C4.08 7.6926 4.49 7.6926 4.91 7.6926C5.27 7.6926 5.63 7.6926 5.99 7.6726C6.3 7.6726 6.61 7.6526 6.91 7.6426C7.17 7.6326 7.43 7.6126 7.69 7.5926C7.91 7.5726 8.12 7.5526 8.34 7.5126C8.52 7.4826 8.69 7.4526 8.87 7.4026C9.01 7.3626 9.15 7.3226 9.29 7.2626C9.4 7.2126 9.51 7.1626 9.61 7.0926C9.7 7.0326 9.78 6.9726 9.85 6.9026C9.98 6.7726 10.09 6.6226 10.18 6.4626C10.26 6.3026 10.33 6.1426 10.38 5.9726C10.43 5.8026 10.47 5.6226 10.51 5.4526C10.54 5.2726 10.57 5.0926 10.6 4.9126C10.62 4.7426 10.65 4.5726 10.67 4.4026C10.69 4.2426 10.71 4.0826 10.74 3.9126C10.76 3.7726 10.78 3.6226 10.81 3.4826C10.84 3.3426 10.87 3.2026 10.91 3.0626C10.95 2.9226 10.99 2.7826 11.05 2.6426C11.1 2.5026 11.17 2.3626 11.24 2.2226C11.31 2.0826 11.4 1.9526 11.49 1.8226C11.59 1.6926 11.7 1.5726 11.82 1.4726C11.95 1.3626 12.09 1.2726 12.24 1.2026C12.4 1.1326 12.56 1.0726 12.73 1.0426C12.9 1.0126 13.07 0.992601 13.24 1.0026C13.41 1.0026 13.58 1.0326 13.74 1.0726C13.91 1.1126 14.07 1.1726 14.22 1.2526C14.37 1.3326 14.52 1.4326 14.64 1.5526C14.76 1.6726 14.87 1.7926 14.97 1.9326C15.06 2.0626 15.14 2.2126 15.21 2.3526C15.28 2.5026 15.34 2.6526 15.38 2.8026C15.43 2.9526 15.47 3.1026 15.5 3.2626C15.53 3.4126 15.55 3.5726 15.57 3.7226C15.59 3.8826 15.6 4.0426 15.6 4.2026C15.6 4.3826 15.61 4.5626 15.61 4.7326C15.61 4.9426 15.61 5.1526 15.61 5.3626C15.61 5.6126 15.61 5.8726 15.61 6.1226" stroke="#010101" stroke-width="0.25" stroke-linecap="round" stroke-linejoin="round"/>
<path d="M14.62 6.10263C14.62 5.85263 14.62 5.60263 14.62 5.35263C14.62 5.15263 14.62 4.95263 14.62 4.75263C14.62 4.59263 14.62 4.43263 14.62 4.27263C14.62 4.14263 14.61 4.01263 14.6 3.87263C14.59 3.75263 14.57 3.63263 14.55 3.51263C14.53 3.39263 14.5 3.28263 14.47 3.16263C14.44 3.05263 14.41 2.95263 14.37 2.85263C14.33 2.76263 14.29 2.67263 14.25 2.58263C14.21 2.50263 14.16 2.42263 14.11 2.35263C14.06 2.28263 13.99 2.22263 13.92 2.16263C13.84 2.11263 13.75 2.06263 13.66 2.03263C13.57 2.00263 13.47 1.97263 13.37 1.96263C13.28 1.95263 13.18 1.94263 13.08 1.95263C12.99 1.95263 12.9 1.96263 12.82 1.99263C12.73 2.01263 12.65 2.05263 12.58 2.10263C12.5 2.16263 12.42 2.23263 12.36 2.30263C12.29 2.39263 12.23 2.48263 12.17 2.58263C12.11 2.68263 12.06 2.79263 12.02 2.90263C11.98 3.01263 11.94 3.13263 11.9 3.25263C11.87 3.37263 11.84 3.50263 11.81 3.62263C11.78 3.75263 11.76 3.89263 11.74 4.03263C11.72 4.19263 11.69 4.36263 11.67 4.53263C11.65 4.71263 11.62 4.89263 11.59 5.07263C11.56 5.28263 11.52 5.48263 11.48 5.69263C11.43 5.92263 11.37 6.15263 11.3 6.37263C11.22 6.62263 11.11 6.85263 10.97 7.07263C10.82 7.31263 10.63 7.53263 10.42 7.72263C10.3 7.82263 10.18 7.91263 10.04 7.99263C9.90002 8.07263 9.75002 8.15263 9.59002 8.21263C9.42002 8.28263 9.25002 8.33263 9.07002 8.37263C8.87002 8.42263 8.67002 8.46263 8.47002 8.49263C8.24002 8.52263 8.01002 8.55263 7.77002 8.57263C7.50002 8.59263 7.23002 8.61263 6.96002 8.62263C6.64002 8.64263 6.33002 8.65263 6.02002 8.65263C5.66002 8.65263 5.29002 8.66263 4.93002 8.67263C4.51002 8.67263 4.09002 8.67263 3.68002 8.67263C3.21002 8.67263 2.74002 8.67263 2.27002 8.67263" stroke="#010101" stroke-width="0.25" stroke-linecap="round" stroke-linejoin="round"/>
<path d="M2.38 7.99268C2.38 7.99268 2.43 8.00268 2.45 8.02268C2.45 8.02268 2.45 8.10268 2.45 8.18268C2.45 8.26268 2.45 8.34268 2.45 8.34268C2.43 8.36268 2.41 8.37268 2.38 8.37268" stroke="#010101" stroke-width="0.25" stroke-linecap="round" stroke-linejoin="round"/>
<path d="M2.25 7.99268H2.38C2.38 7.99268 2.38 8.08268 2.38 8.18268C2.38 8.28268 2.38 8.38268 2.38 8.37268H2.25" stroke="#010101" stroke-width="0.25" stroke-linecap="round" stroke-linejoin="round"/>
<path d="M1.27 10.4426V5.95262V5.93262C1.27 5.92262 1.27 5.92262 1.27 5.91262C1.27 5.88262 1.26 5.85262 1.25 5.82262C1.25 5.79262 1.24 5.78262 1.17 5.72262C1.17 5.72262 1.15 5.71262 1.14 5.70262C1.13 5.70262 1.11 5.69262 1.09 5.68262C1.06 5.68262 1.03 5.68262 1 5.68262C1 5.68262 1 5.87262 1 6.14262V10.6826C1 10.6826 1.06 10.6826 1.09 10.6826C1.13 10.6826 1.17 10.6526 1.19 10.6326C1.24 10.5826 1.26 10.5126 1.27 10.4426Z" stroke="#010101" stroke-width="0.25" stroke-linecap="round" stroke-linejoin="round"/>
<path d="M1.82996 5.94263C1.88996 5.94263 1.93996 5.96263 1.98996 5.97263C2.01996 5.97263 2.03996 5.99263 2.05996 6.00263C2.07996 6.01263 2.09996 6.04263 2.11996 6.06263C2.19996 6.14263 2.23996 6.24263 2.24996 6.37263C2.24996 6.37263 2.24996 6.51263 2.24996 6.71263V10.0226C2.24996 10.1526 2.18996 10.2526 2.11996 10.3326C2.09996 10.3526 2.07996 10.3726 2.05996 10.3926C2.03996 10.4026 2.01996 10.4126 1.98996 10.4226C1.93996 10.4326 1.88996 10.4526 1.82996 10.4526" stroke="#010101" stroke-width="0.25" stroke-linecap="round" stroke-linejoin="round"/>
<path d="M13.23 9.7627H17.01" stroke="#010101" stroke-width="0.25" stroke-linecap="round" stroke-linejoin="round"/>
<path d="M8.40002 14.4526H21.84" stroke="#010101" stroke-width="0.25" stroke-linecap="round" stroke-linejoin="round"/>
</svg>
