<svg width="5" height="6" viewBox="0 0 5 6" fill="none" xmlns="http://www.w3.org/2000/svg">
<g clip-path="url(#clip0_1315_1819)">
<path d="M1 0.5H0V5.5L1.5 5L2 2H2.5V2.5C2.9 2.9 3.66667 3.33333 4 3.5L4.5 0L3.5 0.5C2.7 0.5 2.5 1.16667 2.5 1.5H2L1 0.5Z" fill="white"/>
<path d="M0.619995 0.189941H0.709995" stroke="#010101" stroke-width="0.25" stroke-linecap="round" stroke-linejoin="round"/>
<path d="M0.48999 0.209961H0.62999" stroke="#010101" stroke-width="0.25" stroke-linecap="round" stroke-linejoin="round"/>
<path d="M0.449951 0.189941H0.499951" stroke="#010101" stroke-width="0.25" stroke-linecap="round" stroke-linejoin="round"/>
<path d="M1.40002 4.65994C1.40002 4.65994 1.43002 4.63994 1.45002 4.62994C1.49002 4.59994 1.53002 4.55994 1.56002 4.51994C1.59002 4.46994 1.62002 4.41994 1.64002 4.35994C1.67002 4.28994 1.69002 4.20994 1.72002 4.13994C1.72002 4.11994 1.73002 4.09994 1.74002 4.07994C1.78002 3.96994 1.81002 3.84994 1.84002 3.71994C1.88002 3.54994 1.92002 3.35994 1.95002 3.18994" stroke="#010101" stroke-width="0.25" stroke-linecap="round" stroke-linejoin="round"/>
<path d="M0.52002 0.149902H0.63002" stroke="#010101" stroke-width="0.25" stroke-linecap="round" stroke-linejoin="round"/>
<path d="M0.469971 0.149902H0.519971" stroke="#010101" stroke-width="0.25" stroke-linecap="round" stroke-linejoin="round"/>
<path d="M2.46997 2.18978C2.46997 2.18978 2.46997 1.97978 2.46997 1.76978" stroke="#010101" stroke-width="0.25" stroke-linecap="round" stroke-linejoin="round"/>
<path d="M0.51001 0.189941H0.63001" stroke="#010101" stroke-width="0.25" stroke-linecap="round" stroke-linejoin="round"/>
<path d="M1.67004 1.35986H2.47004" stroke="#010101" stroke-width="0.25" stroke-linecap="round" stroke-linejoin="round"/>
<path d="M1.23999 2.77979C1.23999 2.77979 1.25999 2.77979 1.25999 2.79979" stroke="#010101" stroke-width="0.25" stroke-linecap="round" stroke-linejoin="round"/>
<path d="M1.06995 3.15981V3.05981" stroke="#010101" stroke-width="0.25" stroke-linecap="round" stroke-linejoin="round"/>
<path d="M0.640015 0.319824H0.790015" stroke="#010101" stroke-width="0.25" stroke-linecap="round" stroke-linejoin="round"/>
<path d="M0.459961 0.319824H0.639961" stroke="#010101" stroke-width="0.25" stroke-linecap="round" stroke-linejoin="round"/>
<path d="M0.380005 0.319824H0.460005" stroke="#010101" stroke-width="0.25" stroke-linecap="round" stroke-linejoin="round"/>
<path d="M0.820024 0.349854H0.650024" stroke="#010101" stroke-width="0.25" stroke-linecap="round" stroke-linejoin="round"/>
<path d="M0.649941 0.349854H0.439941" stroke="#010101" stroke-width="0.25" stroke-linecap="round" stroke-linejoin="round"/>
<path d="M0.439976 0.349854H0.349976" stroke="#010101" stroke-width="0.25" stroke-linecap="round" stroke-linejoin="round"/>
<path d="M2.46997 1.77985V1.34985" stroke="#010101" stroke-width="0.25" stroke-linecap="round" stroke-linejoin="round"/>
<path d="M1.35001 2.94995C1.35001 2.94995 1.32001 2.99995 1.26001 3.01995" stroke="#010101" stroke-width="0.25" stroke-linecap="round" stroke-linejoin="round"/>
<path d="M1.35001 2.93987C1.35001 2.93987 1.32001 2.88987 1.26001 2.86987" stroke="#010101" stroke-width="0.25" stroke-linecap="round" stroke-linejoin="round"/>
<path d="M2.65002 2.43986V1.12986V1.10986" stroke="#010101" stroke-width="0.25" stroke-linecap="round" stroke-linejoin="round"/>
<path d="M0.619995 0.149902H0.699995" stroke="#010101" stroke-width="0.25" stroke-linecap="round" stroke-linejoin="round"/>
<path d="M1.25 1.77979C1.25 1.77979 1.46 1.77979 1.67 1.77979" stroke="#010101" stroke-width="0.25" stroke-linecap="round" stroke-linejoin="round"/>
<path d="M0.819946 0.509766C0.819946 0.509766 0.859946 0.509766 0.889946 0.509766C0.959946 0.509766 1.01995 0.529766 1.08995 0.539766C1.15995 0.559766 1.23995 0.579766 1.30995 0.599766C1.36995 0.619766 1.42995 0.639766 1.48995 0.649766C1.54995 0.669766 1.59995 0.689766 1.65995 0.709766C1.70995 0.729766 1.75995 0.739766 1.80995 0.759766C1.84995 0.779766 1.88995 0.799766 1.92995 0.819766C1.95995 0.839766 1.99995 0.859766 2.01995 0.879766C2.02995 0.889766 2.03995 0.899766 2.04995 0.919766C2.05995 0.939766 2.06995 0.949766 2.07995 0.969766C2.12995 1.06977 2.13995 1.20977 2.15995 1.35977" stroke="#010101" stroke-width="0.25" stroke-linecap="round" stroke-linejoin="round"/>
<path d="M2.10994 1.3598C2.10994 1.3598 2.10994 1.3298 2.10994 1.3198C2.10994 1.2798 2.08994 1.2398 2.07994 1.1998C2.07994 1.1698 2.05994 1.1498 2.03994 1.1198C2.02994 1.0998 2.00994 1.0798 1.98994 1.0598C1.96994 1.0398 1.94994 1.0198 1.92994 1.0098C1.86994 0.969805 1.81994 0.939805 1.75994 0.909805C1.70994 0.889805 1.64994 0.859805 1.59994 0.849805C1.53994 0.829805 1.48994 0.819805 1.43994 0.799805" stroke="#010101" stroke-width="0.25" stroke-linecap="round" stroke-linejoin="round"/>
<path d="M1.25999 3.08984C1.25999 3.08984 1.25999 3.10984 1.23999 3.10984" stroke="#010101" stroke-width="0.25" stroke-linecap="round" stroke-linejoin="round"/>
<path d="M2.17004 2.03979C2.17004 2.03979 2.17004 1.91979 2.17004 1.81979V1.77979" stroke="#010101" stroke-width="0.25" stroke-linecap="round" stroke-linejoin="round"/>
<path d="M0.130005 0.439941C0.130005 0.439941 0.160005 0.439941 0.180005 0.439941C0.200005 0.439941 0.210005 0.439941 0.230005 0.439941C0.230005 0.439941 0.230005 0.439941 0.240005 0.439941C0.240005 0.439941 0.240005 0.439941 0.250005 0.449941C0.250005 0.449941 0.250005 0.469941 0.260005 0.479941C0.260005 0.479941 0.260005 0.489941 0.270005 0.499941C0.270005 0.499941 0.270005 0.499941 0.280005 0.499941C0.300005 0.499941 0.320005 0.499941 0.340005 0.499941" stroke="#010101" stroke-width="0.25" stroke-linecap="round" stroke-linejoin="round"/>
<path d="M2.17 2.03979C2.17 2.16979 2.16 2.2998 2.15 2.4298C2.13 2.6998 2.11 2.95979 2.07 3.21979C2.07 3.27979 2.05 3.3498 2.04 3.4098C2.03 3.4598 2.02 3.51979 2.01 3.56979C1.98 3.70979 1.95 3.84979 1.92 3.98979C1.88 4.12979 1.84 4.2598 1.8 4.3998C1.76 4.5498 1.72 4.6998 1.65 4.8398C1.61 4.9298 1.55 5.01979 1.48 5.07979C1.43 5.12979 1.37 5.1598 1.3 5.1898C1.23 5.2198 1.15 5.24979 1.08 5.26979C1.01 5.28979 0.949995 5.30979 0.879995 5.32979C0.779995 5.35979 0.689995 5.37979 0.589995 5.38979C0.549995 5.38979 0.509995 5.39979 0.469995 5.40979C0.429995 5.40979 0.389995 5.41979 0.349995 5.42979C0.319995 5.42979 0.299995 5.42979 0.269995 5.42979C0.269995 5.42979 0.269995 5.42979 0.259995 5.42979C0.259995 5.42979 0.259995 5.42979 0.249995 5.42979C0.249995 5.42979 0.249995 5.42979 0.239995 5.42979C0.239995 5.42979 0.239995 5.42979 0.229995 5.42979C0.229995 5.42979 0.229995 5.42979 0.219995 5.42979C0.199995 5.42979 0.189995 5.42979 0.169995 5.42979C0.149995 5.42979 0.139995 5.42979 0.119995 5.42979" stroke="#010101" stroke-width="0.25" stroke-linecap="round" stroke-linejoin="round"/>
<path d="M0.910034 0.959814C0.910034 0.899814 0.940034 0.839814 1.00003 0.809814" stroke="#010101" stroke-width="0.25" stroke-linecap="round" stroke-linejoin="round"/>
<path d="M1.08 0.779785C1.08 0.779785 1.03 0.799785 1 0.809785" stroke="#010101" stroke-width="0.25" stroke-linecap="round" stroke-linejoin="round"/>
<path d="M1.07996 0.77989C1.07996 0.77989 1.17996 0.75989 1.23996 0.76989C1.26996 0.76989 1.29996 0.76989 1.32996 0.77989C1.35996 0.77989 1.38996 0.78989 1.41996 0.79989" stroke="#010101" stroke-width="0.25" stroke-linecap="round" stroke-linejoin="round"/>
<path d="M0.920044 4.25977C0.920044 4.33977 0.920044 4.40977 0.920044 4.48977C0.920044 4.51977 0.920044 4.54977 0.920044 4.57977C0.920044 4.61977 0.930044 4.65977 0.950044 4.68977C0.960044 4.70977 0.970044 4.73977 0.990044 4.75977" stroke="#010101" stroke-width="0.25" stroke-linecap="round" stroke-linejoin="round"/>
<path d="M1 4.75977C1 4.75977 1.04 4.79977 1.07 4.81977" stroke="#010101" stroke-width="0.25" stroke-linecap="round" stroke-linejoin="round"/>
<path d="M0.910034 0.959961C0.910034 1.07996 0.910034 1.21996 0.910034 1.37996C0.910034 1.67996 0.910034 2.03996 0.910034 2.41996C0.910034 2.78996 0.910034 3.17996 0.910034 3.54996C0.910034 3.79996 0.910034 4.03996 0.910034 4.25996" stroke="#010101" stroke-width="0.25" stroke-linecap="round" stroke-linejoin="round"/>
<path d="M2.04004 3.20979C2.06004 3.10979 2.07004 2.99979 2.09004 2.88979C2.12004 2.64979 2.13004 2.41979 2.14004 2.17979C2.14004 2.04979 2.14004 1.90979 2.14004 1.77979" stroke="#010101" stroke-width="0.25" stroke-linecap="round" stroke-linejoin="round"/>
<path d="M1.45996 4.79996C1.45996 4.79996 1.49996 4.77996 1.51996 4.75996C1.56996 4.71996 1.60996 4.66996 1.64996 4.60996C1.68996 4.54996 1.70996 4.48996 1.73996 4.42996C1.76996 4.34996 1.78996 4.26996 1.81996 4.18996C1.81996 4.16996 1.82996 4.14996 1.83996 4.11996C1.87996 3.99996 1.90996 3.86996 1.94996 3.74996C1.96996 3.65996 1.98996 3.56996 2.00996 3.47996C2.02996 3.38996 2.03996 3.29996 2.05996 3.20996" stroke="#010101" stroke-width="0.25" stroke-linecap="round" stroke-linejoin="round"/>
<path d="M0.130005 0.439993C0.130005 0.339993 0.130005 1.63999 0.130005 2.93999C0.130005 4.23999 0.130005 5.53999 0.130005 5.44999" stroke="#010101" stroke-width="0.25" stroke-linecap="round" stroke-linejoin="round"/>
<path d="M4.15005 3.26994C4.15005 3.26994 4.15005 3.26994 4.15005 3.27994V3.29994C4.15005 3.32994 4.15005 3.33994 4.15005 3.34994C4.15005 3.34994 4.13005 3.34994 4.09005 3.34994C4.05005 3.34994 3.97005 3.33994 3.92005 3.32994C3.91005 3.32994 3.89005 3.32994 3.88005 3.32994C3.87005 3.32994 3.85005 3.32994 3.84005 3.32994C3.82005 3.32994 3.82005 3.29994 3.81005 3.28994C3.81005 3.25994 3.80005 3.23994 3.78005 3.21994C3.78005 3.21994 3.76005 3.19994 3.75005 3.18994C3.71005 3.15994 3.65005 3.14994 3.60005 3.12994C3.47005 3.09994 3.36005 3.04994 3.24005 3.00994C3.17005 2.97994 3.10005 2.95994 3.03005 2.91994C2.95005 2.87994 2.87005 2.83994 2.82005 2.78994C2.78005 2.74994 2.76005 2.70994 2.74005 2.66994C2.71005 2.60994 2.68005 2.54994 2.68005 2.48994C2.68005 2.47994 2.68005 2.46994 2.68005 2.44994C2.68005 2.44994 2.68005 2.44994 2.68005 2.43994" stroke="#010101" stroke-width="0.25" stroke-linecap="round" stroke-linejoin="round"/>
<path d="M0.630005 0.209961H0.740005" stroke="#010101" stroke-width="0.25" stroke-linecap="round" stroke-linejoin="round"/>
<path d="M1.25 1.77986C1.25 1.54986 1.44 1.35986 1.67 1.35986" stroke="#010101" stroke-width="0.25" stroke-linecap="round" stroke-linejoin="round"/>
<path d="M1.25 1.77979C1.25 2.00979 1.44 2.19979 1.67 2.19979" stroke="#010101" stroke-width="0.25" stroke-linecap="round" stroke-linejoin="round"/>
<path d="M0.420044 0.319971V0.219971" stroke="#010101" stroke-width="0.25" stroke-linecap="round" stroke-linejoin="round"/>
<path d="M0.609985 0.129883H0.669985" stroke="#010101" stroke-width="0.25" stroke-linecap="round" stroke-linejoin="round"/>
<path d="M0.540039 0.129883H0.620039" stroke="#010101" stroke-width="0.25" stroke-linecap="round" stroke-linejoin="round"/>
<path d="M0.5 0.129883H0.53" stroke="#010101" stroke-width="0.25" stroke-linecap="round" stroke-linejoin="round"/>
<path d="M0.73999 0.219971V0.319971" stroke="#010101" stroke-width="0.25" stroke-linecap="round" stroke-linejoin="round"/>
<path d="M0.709961 0.159912V0.189912" stroke="#010101" stroke-width="0.25" stroke-linecap="round" stroke-linejoin="round"/>
<path d="M0.459961 0.159912V0.189912" stroke="#010101" stroke-width="0.25" stroke-linecap="round" stroke-linejoin="round"/>
<path d="M2.28003 2.18994H2.46003" stroke="#010101" stroke-width="0.25" stroke-linecap="round" stroke-linejoin="round"/>
<path d="M2.28003 2.18978C2.28003 2.18978 2.28003 1.97978 2.28003 1.76978" stroke="#010101" stroke-width="0.25" stroke-linecap="round" stroke-linejoin="round"/>
<path d="M1.35001 2.9398C1.35001 2.9398 1.32001 2.8398 1.26001 2.7998" stroke="#010101" stroke-width="0.25" stroke-linecap="round" stroke-linejoin="round"/>
<path d="M1.26001 3.08995C1.32001 3.03995 1.35001 2.98995 1.35001 2.94995" stroke="#010101" stroke-width="0.25" stroke-linecap="round" stroke-linejoin="round"/>
<path d="M1.67004 2.18978C1.90004 2.18978 2.09004 1.99978 2.09004 1.76978" stroke="#010101" stroke-width="0.25" stroke-linecap="round" stroke-linejoin="round"/>
<path d="M1.67004 1.77981C1.67004 1.57981 1.67004 1.33981 1.67004 1.35981" stroke="#010101" stroke-width="0.25" stroke-linecap="round" stroke-linejoin="round"/>
<path d="M1.06995 3.04984V2.83984" stroke="#010101" stroke-width="0.25" stroke-linecap="round" stroke-linejoin="round"/>
<path d="M1.08995 3.10986C1.08995 3.10986 1.06995 3.10986 1.06995 3.12986" stroke="#010101" stroke-width="0.25" stroke-linecap="round" stroke-linejoin="round"/>
<path d="M1.06995 2.75977C1.06995 2.75977 1.06995 2.77977 1.08995 2.77977" stroke="#010101" stroke-width="0.25" stroke-linecap="round" stroke-linejoin="round"/>
<path d="M1.08997 3.10986H1.23997" stroke="#010101" stroke-width="0.25" stroke-linecap="round" stroke-linejoin="round"/>
<path d="M1.23997 2.77979H1.08997" stroke="#010101" stroke-width="0.25" stroke-linecap="round" stroke-linejoin="round"/>
<path d="M0.369995 0.349834V0.329834" stroke="#010101" stroke-width="0.25" stroke-linecap="round" stroke-linejoin="round"/>
<path d="M1.05994 4.8198C1.07994 4.8298 1.10994 4.8398 1.13994 4.8498C1.16994 4.8498 1.19994 4.8498 1.22994 4.8498C1.25994 4.8498 1.29994 4.8498 1.32994 4.8398C1.35994 4.8398 1.39994 4.8198 1.43994 4.7998" stroke="#010101" stroke-width="0.25" stroke-linecap="round" stroke-linejoin="round"/>
<path d="M0.790039 0.329834V0.349834" stroke="#010101" stroke-width="0.25" stroke-linecap="round" stroke-linejoin="round"/>
<path d="M0.819946 0.359863V0.509863" stroke="#010101" stroke-width="0.25" stroke-linecap="round" stroke-linejoin="round"/>
<path d="M0.339966 0.359863V0.519863" stroke="#010101" stroke-width="0.25" stroke-linecap="round" stroke-linejoin="round"/>
<path d="M1.67004 1.77979H2.28004" stroke="#010101" stroke-width="0.25" stroke-linecap="round" stroke-linejoin="round"/>
<path d="M2.28003 1.77979H2.46003" stroke="#010101" stroke-width="0.25" stroke-linecap="round" stroke-linejoin="round"/>
<path d="M2.65002 1.09992C2.65002 1.09992 2.65002 1.09992 2.65002 1.08992C2.65002 1.07992 2.65002 1.06992 2.65002 1.04992C2.65002 0.989922 2.68002 0.929922 2.71002 0.869922C2.73002 0.829922 2.76002 0.789922 2.79002 0.749922C2.84002 0.699922 2.92002 0.649922 3.00002 0.619922C3.07002 0.589922 3.14002 0.559922 3.21002 0.529922C3.33002 0.489922 3.44002 0.439922 3.57002 0.409922C3.62002 0.399922 3.68002 0.379922 3.72002 0.349922C3.73002 0.349922 3.74002 0.329922 3.75002 0.319922C3.77002 0.299922 3.77002 0.269922 3.78002 0.249922C3.78002 0.229922 3.79002 0.219922 3.81002 0.209922C3.82002 0.209922 3.84002 0.209922 3.85002 0.209922C3.86002 0.209922 3.88002 0.209922 3.89002 0.209922C3.95002 0.209922 4.00002 0.199922 4.06002 0.189922C4.11002 0.189922 4.16002 0.179922 4.20002 0.169922" stroke="#010101" stroke-width="0.25" stroke-linecap="round" stroke-linejoin="round"/>
<path d="M4.21997 0.159803C4.21997 0.159803 4.33997 0.149803 4.35997 0.179803C4.35997 0.179803 4.35997 0.189803 4.35997 0.199803" stroke="#010101" stroke-width="0.25" stroke-linecap="round" stroke-linejoin="round"/>
<path d="M4.37 0.199951C4.37 0.199951 4.37 0.199951 4.37 0.209951C4.37 0.209951 4.37 0.219951 4.37 0.229951C4.37 0.229951 4.37 0.249951 4.37 0.259951C4.37 0.269951 4.37 0.289951 4.37 0.309951C4.37 0.329951 4.37 0.349951 4.37 0.389951" stroke="#010101" stroke-width="0.25" stroke-linecap="round" stroke-linejoin="round"/>
<path d="M4.36003 0.399902C4.36003 0.399902 4.36003 0.499902 4.35003 0.569902C4.35003 0.639902 4.34003 0.719902 4.33003 0.809902C4.33003 0.889902 4.32003 0.979902 4.31003 1.0699C4.31003 1.1599 4.30003 1.2399 4.29003 1.3299C4.29003 1.4199 4.28003 1.4999 4.27003 1.5899C4.27003 1.6799 4.26003 1.7599 4.25003 1.8499C4.25003 1.9399 4.24003 2.0199 4.23003 2.1099C4.23003 2.1999 4.22003 2.2799 4.21003 2.3699C4.21003 2.4599 4.20003 2.5399 4.19003 2.6299C4.19003 2.7099 4.18003 2.7999 4.17003 2.8699C4.17003 2.9399 4.16003 3.0099 4.16003 3.0599C4.16003 3.1099 4.16003 3.1499 4.16003 3.1699C4.16003 3.1899 4.16003 3.2099 4.16003 3.2199C4.16003 3.2299 4.16003 3.2399 4.16003 3.2499C4.16003 3.2499 4.16003 3.2599 4.16003 3.2699" stroke="#010101" stroke-width="0.25" stroke-linecap="round" stroke-linejoin="round"/>
<path d="M1.26001 3.01978V3.05978" stroke="#010101" stroke-width="0.25" stroke-linecap="round" stroke-linejoin="round"/>
<path d="M1.26001 3.05981V3.09981" stroke="#010101" stroke-width="0.25" stroke-linecap="round" stroke-linejoin="round"/>
<path d="M1.26001 2.86983V2.82983" stroke="#010101" stroke-width="0.25" stroke-linecap="round" stroke-linejoin="round"/>
<path d="M1.26001 2.8398V2.7998" stroke="#010101" stroke-width="0.25" stroke-linecap="round" stroke-linejoin="round"/>
<path d="M1.26001 3.01995V2.94995" stroke="#010101" stroke-width="0.25" stroke-linecap="round" stroke-linejoin="round"/>
<path d="M1.26001 2.94988V2.87988" stroke="#010101" stroke-width="0.25" stroke-linecap="round" stroke-linejoin="round"/>
<path d="M0.430054 0.209961H0.490054" stroke="#010101" stroke-width="0.25" stroke-linecap="round" stroke-linejoin="round"/>
<path d="M1.93994 3.18996C2.00994 2.77996 2.03994 2.36996 2.03994 1.95996" stroke="#010101" stroke-width="0.25" stroke-linecap="round" stroke-linejoin="round"/>
<path d="M1.03003 4.59985C1.03003 4.59985 1.05003 4.62985 1.06003 4.63985C1.07003 4.65985 1.09003 4.66985 1.11003 4.67985C1.13003 4.67985 1.15003 4.69985 1.17003 4.69985C1.19003 4.69985 1.22003 4.69985 1.24003 4.69985C1.29003 4.69985 1.34003 4.67985 1.39003 4.65985" stroke="#010101" stroke-width="0.25" stroke-linecap="round" stroke-linejoin="round"/>
<path d="M2.46997 1.34979C2.46997 1.34979 2.51997 1.31979 2.54997 1.30979C2.55997 1.30979 2.57997 1.28979 2.58997 1.28979C2.60997 1.28979 2.62997 1.28979 2.64997 1.28979" stroke="#010101" stroke-width="0.25" stroke-linecap="round" stroke-linejoin="round"/>
<path d="M2.64997 2.24994C2.64997 2.24994 2.60997 2.24994 2.58997 2.24994C2.57997 2.24994 2.55997 2.23994 2.54997 2.22994C2.51997 2.20994 2.49997 2.19994 2.46997 2.18994" stroke="#010101" stroke-width="0.25" stroke-linecap="round" stroke-linejoin="round"/>
<path d="M1 4.20996C1 4.27996 1 4.34996 1 4.41996C1 4.44996 1 4.47996 1 4.49996C1 4.52996 1.01 4.56996 1.03 4.59996" stroke="#010101" stroke-width="0.25" stroke-linecap="round" stroke-linejoin="round"/>
<path d="M1 2.65991V1.04991C1 1.04991 1 0.979912 1.03 0.959912C1.03 0.949912 1.05 0.939912 1.07 0.929912C1.09 0.929912 1.1 0.919912 1.12 0.909912C1.14 0.909912 1.16 0.909912 1.18 0.909912C1.19 0.909912 1.2 0.909912 1.22 0.909912C1.23 0.909912 1.24 0.909912 1.26 0.909912C1.28 0.909912 1.31 0.909912 1.33 0.909912C1.35 0.909912 1.38 0.919912 1.4 0.929912C1.42 0.929912 1.44 0.939912 1.47 0.949912C1.5 0.949912 1.53 0.969912 1.56 0.969912C1.59 0.969912 1.61 0.979912 1.64 0.989912C1.67 0.989912 1.69 1.00991 1.72 1.01991C1.75 1.02991 1.77 1.03991 1.8 1.04991C1.83 1.05991 1.85 1.07991 1.88 1.08991C1.9 1.09991 1.91 1.10991 1.93 1.12991C1.93 1.12991 1.94 1.13991 1.95 1.14991C1.95 1.14991 1.96 1.15991 1.97 1.16991C1.97 1.16991 1.98 1.18991 1.99 1.19991C1.99 1.19991 1.99 1.21991 2 1.22991C2.01 1.25991 2.02 1.28991 2.03 1.32991C2.03 1.32991 2.03 1.33991 2.03 1.34991" stroke="#010101" stroke-width="0.25" stroke-linecap="round" stroke-linejoin="round"/>
<path d="M1 3.22998V4.20998" stroke="#010101" stroke-width="0.25" stroke-linecap="round" stroke-linejoin="round"/>
<path d="M1.05994 2.71997C1.05994 2.71997 1.05994 2.71997 1.05994 2.72997" stroke="#010101" stroke-width="0.25" stroke-linecap="round" stroke-linejoin="round"/>
<path d="M1 2.65991L1.06 2.71991" stroke="#010101" stroke-width="0.25" stroke-linecap="round" stroke-linejoin="round"/>
<path d="M1.06995 3.15991V3.16991" stroke="#010101" stroke-width="0.25" stroke-linecap="round" stroke-linejoin="round"/>
<path d="M1.06 3.16992L1 3.22992" stroke="#010101" stroke-width="0.25" stroke-linecap="round" stroke-linejoin="round"/>
<path d="M0.490054 0.319824H0.430054" stroke="#010101" stroke-width="0.25" stroke-linecap="round" stroke-linejoin="round"/>
<path d="M0.740005 0.319824H0.630005" stroke="#010101" stroke-width="0.25" stroke-linecap="round" stroke-linejoin="round"/>
<path d="M0.62999 0.319824H0.48999" stroke="#010101" stroke-width="0.25" stroke-linecap="round" stroke-linejoin="round"/>
<path d="M1.06995 2.83999V2.73999" stroke="#010101" stroke-width="0.25" stroke-linecap="round" stroke-linejoin="round"/>
<path d="M1 2.65991V3.22991" stroke="#010101" stroke-width="0.25" stroke-linecap="round" stroke-linejoin="round"/>
<path d="M0.339966 0.519775H0.819966" stroke="#010101" stroke-width="0.25" stroke-linecap="round" stroke-linejoin="round"/>
</g>
<defs>
<clipPath id="clip0_1315_1819">
<rect width="4.5" height="5.58" fill="white"/>
</clipPath>
</defs>
</svg>
