<svg width="10" height="13" viewBox="0 0 10 13" fill="none" xmlns="http://www.w3.org/2000/svg">
<path d="M2 0.5H1V5H2L2.5 3H3L3.5 4C3.1 4 3.33333 6.33333 3.5 7.5L3 8.5L3.5 12.5H4L9 11V10.5L7 7L6 6.5L4 3.5L3.5 2L2.5 2.5L2 0.5Z" fill="white"/>
<path d="M2.93998 3.04989C2.93998 3.04989 3.02998 3.09989 3.07998 3.10989C3.19998 3.10989 3.29998 3.03989 3.41998 2.99989C3.54998 2.95989 3.65998 2.94989 3.74998 2.89989C3.76998 2.88989 3.77998 2.87989 3.78998 2.86989C3.81998 2.83989 3.82998 2.78989 3.83998 2.74989C3.85998 2.64989 3.84998 2.54989 3.81998 2.44989C3.74998 2.26989 3.59998 2.13989 3.41998 2.09989C3.39998 2.09989 3.37998 2.09989 3.36998 2.09989C3.36998 2.09989 3.35998 2.09989 3.34998 2.09989C3.04998 2.07989 2.77998 2.29989 2.75998 2.60989C2.74998 2.78989 2.81998 2.95989 2.94998 3.06989" stroke="#010101" stroke-width="0.25" stroke-linecap="round" stroke-linejoin="round"/>
<path d="M2.80001 2.87988H2.26001" stroke="#010101" stroke-width="0.25" stroke-linecap="round" stroke-linejoin="round"/>
<path d="M4.64999 4.36987C4.64999 4.36987 4.67999 4.37987 4.68999 4.37987L5.95999 6.26987C6.11999 6.50987 6.14999 6.54987 6.16999 6.57987C6.18999 6.60987 6.20999 6.63987 6.22999 6.65987C6.24999 6.67987 6.26999 6.69987 6.28999 6.70987C6.32999 6.73987 6.38999 6.74987 6.43999 6.76987C6.50999 6.78987 6.57999 6.80987 6.64999 6.81987C6.71999 6.83987 6.77999 6.84987 6.85999 6.87987C6.89999 6.88987 6.92999 6.89987 6.95999 6.91987C6.97999 6.92987 6.99999 6.93987 7.00999 6.95987C7.02999 6.98987 7.04999 7.01987 7.06999 7.04987C7.08999 7.07987 7.10999 7.11987 7.12999 7.14987C7.32999 7.49987 7.37999 7.58987 7.63999 8.05987C7.89999 8.51987 8.36999 9.35987 9.13999 10.7399C9.14999 10.7499 9.11999 10.7899 9.08999 10.7999C9.08999 10.7999 9.06999 10.7999 9.05999 10.8099C9.05999 10.8099 9.04999 10.8099 9.03999 10.8099C9.02999 10.8099 9.00999 10.8199 8.97999 10.8299C8.94999 10.8299 8.91999 10.8499 8.87999 10.8599C8.74999 10.8999 8.54999 10.9699 8.29999 11.0599C7.80999 11.2299 7.12999 11.4599 6.41999 11.6999C5.09999 12.1499 3.58999 12.6599 3.69999 12.6199C3.68999 12.6199 3.67999 12.6199 3.66999 12.6199C3.63999 12.6299 3.60999 12.6199 3.58999 12.5999C3.35999 11.0399 3.22999 10.0899 3.14999 9.55987C3.07999 9.02987 3.05999 8.92987 3.00999 8.52987C3.00999 8.48987 2.99999 8.44987 2.98999 8.40987C2.98999 8.36987 2.98999 8.33987 2.98999 8.29987C2.98999 8.27987 2.98999 8.26987 2.99999 8.23987C3.00999 8.21987 3.02999 8.17987 3.05999 8.14987C3.10999 8.07987 3.14999 8.02987 3.19999 7.96987C3.23999 7.91987 3.28999 7.85987 3.32999 7.79987C3.35999 7.75987 3.39999 7.70987 3.40999 7.65987C3.41999 7.62987 3.42999 7.60987 3.42999 7.57987C3.42999 7.54987 3.42999 7.51987 3.42999 7.47987C3.42999 7.43987 3.42999 7.38987 3.40999 7.10987L3.25999 4.83987L3.27999 4.80987" stroke="#010101" stroke-width="0.25" stroke-linecap="round" stroke-linejoin="round"/>
<path d="M3.20003 4.73C3.21003 4.48 3.27003 4.24 3.36003 4.01C3.35003 4.01 3.54003 3.95 3.72003 3.89C3.91003 3.83 4.10003 3.76 4.08003 3.77C4.29003 3.9 4.48003 4.06 4.64003 4.25C4.67003 4.25 4.29003 4.37 3.92003 4.5C3.55003 4.63 3.17003 4.75 3.20003 4.75V4.73Z" stroke="#010101" stroke-width="0.25" stroke-linecap="round" stroke-linejoin="round"/>
<path d="M2.38 2.81994V2.43994" stroke="#010101" stroke-width="0.25" stroke-linecap="round" stroke-linejoin="round"/>
<path d="M2.26001 2.37988H2.80001" stroke="#010101" stroke-width="0.25" stroke-linecap="round" stroke-linejoin="round"/>
<path d="M4.64996 4.23999C4.65996 4.31999 4.66996 4.32999 4.66996 4.34999C4.66996 4.34999 4.66996 4.35999 4.64996 4.36999C4.67996 4.36999 4.31996 4.47999 3.96996 4.59999C3.61996 4.71999 3.25996 4.83999 3.28996 4.82999C3.26996 4.82999 3.26996 4.82999 3.25996 4.82999C3.24996 4.81999 3.23996 4.79999 3.20996 4.72999" stroke="#010101" stroke-width="0.25" stroke-linecap="round" stroke-linejoin="round"/>
<path d="M3.51001 2.11987C3.63001 2.16987 3.73001 2.25987 3.79001 2.37987" stroke="#010101" stroke-width="0.25" stroke-linecap="round" stroke-linejoin="round"/>
<path d="M1.83002 4.87988H1.27002V0.379883H1.83002" stroke="#010101" stroke-width="0.25" stroke-linecap="round" stroke-linejoin="round"/>
<path d="M3.35997 4.00993C3.25997 3.79993 3.15997 3.59993 3.06997 3.39993C2.98997 3.23993 2.91997 3.08993 2.83997 2.92993" stroke="#010101" stroke-width="0.25" stroke-linecap="round" stroke-linejoin="round"/>
<path d="M3.42004 2.08984C3.42004 2.08984 3.46004 2.09984 3.49004 2.10984" stroke="#010101" stroke-width="0.25" stroke-linecap="round" stroke-linejoin="round"/>
<path d="M3.84998 2.61987C3.91998 2.99987 3.99998 3.37987 4.08998 3.75987" stroke="#010101" stroke-width="0.25" stroke-linecap="round" stroke-linejoin="round"/>
<path d="M1.27 4.87984C1.27 4.94984 1.24 5.01984 1.19 5.06984C1.16 5.09984 1.13 5.11984 1.09 5.11984C1.06 5.11984 1.03 5.11984 1 5.11984C1 5.07984 1 4.72984 1 4.09984V0.589844" stroke="#010101" stroke-width="0.25" stroke-linecap="round" stroke-linejoin="round"/>
<path d="M1.27 0.379893C1.27 0.309893 1.24 0.239893 1.19 0.189893C1.16 0.159893 1.13 0.139893 1.09 0.139893C1.06 0.139893 1.03 0.139893 1 0.139893C1 0.139893 1 0.329893 1 0.599893" stroke="#010101" stroke-width="0.25" stroke-linecap="round" stroke-linejoin="round"/>
<path d="M1.82996 4.87984V3.36983C1.82996 1.38983 1.82996 0.319835 1.82996 0.379835C1.88996 0.379835 1.93996 0.399835 1.98996 0.409835C2.01996 0.409835 2.03996 0.429835 2.05996 0.439835C2.07996 0.449835 2.09996 0.479835 2.11996 0.499835C2.19996 0.579835 2.24996 0.679835 2.24996 0.809835C2.24996 0.759835 2.24996 1.62984 2.24996 3.23984V4.45984C2.24996 4.58984 2.18996 4.68983 2.11996 4.76983C2.09996 4.78983 2.07996 4.80983 2.05996 4.82983C2.03996 4.83983 2.01996 4.84984 1.98996 4.85984C1.93996 4.86984 1.88996 4.88983 1.82996 4.88983V4.87984Z" stroke="#010101" stroke-width="0.25" stroke-linecap="round" stroke-linejoin="round"/>
<path d="M2.26001 2.43994H2.39001C2.39001 2.43994 2.44001 2.44994 2.46001 2.46994C2.46001 2.46994 2.46001 2.54994 2.46001 2.62994C2.46001 2.70994 2.46001 2.78994 2.46001 2.78994C2.44001 2.80994 2.42001 2.81994 2.39001 2.81994H2.26001" stroke="#010101" stroke-width="0.25" stroke-linecap="round" stroke-linejoin="round"/>
<path d="M3.46997 2.96989C3.46997 2.96989 3.43997 2.97989 3.42997 2.98989C3.22997 3.05989 3.00997 2.94989 2.93997 2.75989C2.86997 2.57989 2.94997 2.37989 3.12997 2.28989C3.31997 2.18989 3.54997 2.26989 3.64997 2.45989C3.64997 2.46989 3.65997 2.48989 3.66997 2.50989C3.72997 2.68989 3.64997 2.88989 3.47997 2.97989" stroke="#010101" stroke-width="0.25" stroke-linecap="round" stroke-linejoin="round"/>
</svg>
