<?xml version="1.0" encoding="UTF-8"?>
<svg id="Layer_2" data-name="Layer 2" xmlns="http://www.w3.org/2000/svg" viewBox="0 0 124.25 90.25">
  <defs>
    <style>
      .cls-1 {
        fill: none;
        stroke: #000;
        stroke-linecap: round;
        stroke-linejoin: round;
        stroke-width: .25px;
      }
    </style>
  </defs>
  <g id="Default">
    <g id="LINE">
      <line class="cls-1" x1="2.13" y1="2.13" x2="2.12" y2="90.13"/>
    </g>
    <g id="LINE-2" data-name="LINE">
      <line class="cls-1" x1="2.12" y1="90.13" x2=".12" y2="90.13"/>
    </g>
    <g id="LINE-3" data-name="LINE">
      <line class="cls-1" x1=".12" y1="90.13" x2=".12" y2=".12"/>
    </g>
    <g id="LINE-4" data-name="LINE">
      <line class="cls-1" x1=".12" y1=".12" x2="2.13" y2="2.13"/>
    </g>
    <g id="LINE-5" data-name="LINE">
      <line class="cls-1" x1="124.12" y1=".13" x2="124.12" y2="90.13"/>
    </g>
    <g id="LINE-6" data-name="LINE">
      <line class="cls-1" x1="124.12" y1="90.13" x2="122.13" y2="90.13"/>
    </g>
    <g id="LINE-7" data-name="LINE">
      <line class="cls-1" x1="122.13" y1="90.13" x2="122.13" y2="2.13"/>
    </g>
    <g id="LINE-8" data-name="LINE">
      <line class="cls-1" x1="122.13" y1="2.13" x2="124.12" y2=".13"/>
    </g>
    <g id="LINE-9" data-name="LINE">
      <line class="cls-1" x1="113.96" y1="2.13" x2="122.13" y2="2.13"/>
    </g>
    <g id="LINE-10" data-name="LINE">
      <line class="cls-1" x1="122.13" y1="2.13" x2="122.13" y2="90.13"/>
    </g>
    <g id="LINE-11" data-name="LINE">
      <line class="cls-1" x1="122.13" y1="90.13" x2="2.13" y2="90.13"/>
    </g>
    <g id="LINE-12" data-name="LINE">
      <line class="cls-1" x1="2.13" y1="90.13" x2="2.13" y2="2.13"/>
    </g>
    <g id="LINE-13" data-name="LINE">
      <line class="cls-1" x1="2.13" y1="2.13" x2="113.96" y2="2.13"/>
    </g>
    <g id="LINE-14" data-name="LINE">
      <line class="cls-1" x1="112.17" y1=".13" x2=".12" y2=".12"/>
    </g>
    <g id="LINE-15" data-name="LINE">
      <line class="cls-1" x1=".12" y1=".12" x2="2.12" y2="2.13"/>
    </g>
    <g id="LINE-16" data-name="LINE">
      <line class="cls-1" x1="2.12" y1="2.13" x2="112.87" y2="2.13"/>
    </g>
    <g id="LINE-17" data-name="LINE">
      <line class="cls-1" x1="112.87" y1="2.13" x2="122.13" y2="2.13"/>
    </g>
    <g id="LINE-18" data-name="LINE">
      <line class="cls-1" x1="122.13" y1="2.13" x2="124.12" y2=".13"/>
    </g>
    <g id="LINE-19" data-name="LINE">
      <line class="cls-1" x1="124.12" y1=".13" x2="112.17" y2=".13"/>
    </g>
  </g>
</svg>