<svg width="88" height="95" viewBox="0 0 88 95" fill="none" xmlns="http://www.w3.org/2000/svg">
<g clip-path="url(#clip0_422_805)">
<rect width="87.9946" height="94.9314" fill="white"/>
<path d="M44.0027 0.0527344H0.0536499V94.9473H44.0027V0.0527344Z" stroke="black" stroke-width="0.2" stroke-miterlimit="10"/>
<path d="M3.61636 11.5711H0.0536499V93.9505H3.61636V11.5711Z" stroke="black" stroke-width="0.2" stroke-miterlimit="10"/>
<path d="M40.44 11.5711H3.61636V12.6312H40.44V11.5711Z" stroke="black" stroke-width="0.2" stroke-miterlimit="10"/>
<path d="M40.44 92.8851H3.61636V93.9452H40.44V92.8851Z" stroke="black" stroke-width="0.2" stroke-miterlimit="10"/>
<path d="M40.3166 50.7936V12.7472H3.73441V92.69H40.3166V50.7936Z" stroke="black" stroke-width="0.2" stroke-miterlimit="10"/>
<path d="M44.0027 11.5711H0.0536499" stroke="black" stroke-width="0.2" stroke-miterlimit="10"/>
<path d="M0.0536499 11.5711V93.9505" stroke="black" stroke-width="0.2" stroke-miterlimit="10"/>
<path d="M40.44 12.6312H3.61636" stroke="black" stroke-width="0.2" stroke-miterlimit="10"/>
<path d="M3.61636 11.5711V21.2752" stroke="black" stroke-width="0.2" stroke-miterlimit="10"/>
<path d="M3.61636 92.8851H40.44" stroke="black" stroke-width="0.2" stroke-miterlimit="10"/>
<path d="M3.73441 12.7472V21.2752" stroke="black" stroke-width="0.2" stroke-miterlimit="10"/>
<path d="M40.4598 12.8646H4.04599" stroke="black" stroke-width="0.2" stroke-miterlimit="10"/>
<path d="M3.73441 92.69H40.3166" stroke="black" stroke-width="0.2" stroke-miterlimit="10"/>
<path d="M3.61636 86.2663V93.9505" stroke="black" stroke-width="0.2" stroke-miterlimit="10"/>
<path d="M3.73441 86.2663V92.69" stroke="black" stroke-width="0.2" stroke-miterlimit="10"/>
<path d="M3.61636 53.689V81.5461" stroke="black" stroke-width="0.2" stroke-miterlimit="10"/>
<path d="M3.73441 53.689V81.5461" stroke="black" stroke-width="0.2" stroke-miterlimit="10"/>
<path d="M3.61636 25.9954V48.9688" stroke="black" stroke-width="0.2" stroke-miterlimit="10"/>
<path d="M3.73441 25.9954V48.9688" stroke="black" stroke-width="0.2" stroke-miterlimit="10"/>
<path d="M3.97049 21.3912H3.41248V25.8741H3.97049V21.3912Z" stroke="black" stroke-width="0.2" stroke-miterlimit="10"/>
<path d="M3.97049 22.061H3.41248" stroke="black" stroke-width="0.2" stroke-miterlimit="10"/>
<path d="M3.41248 22.3774H3.97049" stroke="black" stroke-width="0.2" stroke-miterlimit="10"/>
<path d="M3.97049 23.2424H3.41248" stroke="black" stroke-width="0.2" stroke-miterlimit="10"/>
<path d="M3.41248 24.0282H3.97049" stroke="black" stroke-width="0.2" stroke-miterlimit="10"/>
<path d="M3.97049 24.8931H3.41248" stroke="black" stroke-width="0.2" stroke-miterlimit="10"/>
<path d="M3.41248 25.2096H3.97049" stroke="black" stroke-width="0.2" stroke-miterlimit="10"/>
<path d="M3.97049 21.2752H3.41248" stroke="black" stroke-width="0.2" stroke-miterlimit="10"/>
<path d="M3.97049 25.9954H3.41248" stroke="black" stroke-width="0.2" stroke-miterlimit="10"/>
<path d="M3.97049 49.0848H3.41248V53.5677H3.97049V49.0848Z" stroke="black" stroke-width="0.2" stroke-miterlimit="10"/>
<path d="M3.97049 49.7546H3.41248" stroke="black" stroke-width="0.2" stroke-miterlimit="10"/>
<path d="M3.41248 50.0658H3.97049" stroke="black" stroke-width="0.2" stroke-miterlimit="10"/>
<path d="M3.97049 50.936H3.41248" stroke="black" stroke-width="0.2" stroke-miterlimit="10"/>
<path d="M3.41248 51.7218H3.97049" stroke="black" stroke-width="0.2" stroke-miterlimit="10"/>
<path d="M3.97049 52.5867H3.41248" stroke="black" stroke-width="0.2" stroke-miterlimit="10"/>
<path d="M3.41248 52.9032H3.97049" stroke="black" stroke-width="0.2" stroke-miterlimit="10"/>
<path d="M3.97049 48.9688H3.41248" stroke="black" stroke-width="0.2" stroke-miterlimit="10"/>
<path d="M3.97049 53.689H3.41248" stroke="black" stroke-width="0.2" stroke-miterlimit="10"/>
<path d="M3.97049 81.6674H3.41248V86.1503H3.97049V81.6674Z" stroke="black" stroke-width="0.2" stroke-miterlimit="10"/>
<path d="M3.97049 82.3319H3.41248" stroke="black" stroke-width="0.2" stroke-miterlimit="10"/>
<path d="M3.41248 82.6483H3.97049" stroke="black" stroke-width="0.2" stroke-miterlimit="10"/>
<path d="M3.97049 83.5133H3.41248" stroke="black" stroke-width="0.2" stroke-miterlimit="10"/>
<path d="M3.41248 84.2991H3.97049" stroke="black" stroke-width="0.2" stroke-miterlimit="10"/>
<path d="M3.97049 85.1693H3.41248" stroke="black" stroke-width="0.2" stroke-miterlimit="10"/>
<path d="M3.41248 85.4805H3.97049" stroke="black" stroke-width="0.2" stroke-miterlimit="10"/>
<path d="M3.97049 81.5461H3.41248" stroke="black" stroke-width="0.2" stroke-miterlimit="10"/>
<path d="M3.97049 86.2663H3.41248" stroke="black" stroke-width="0.2" stroke-miterlimit="10"/>
<path d="M44.0027 93.9504V94.9472H0.0536499V93.9504H44.0027Z" stroke="black" stroke-width="0.2" stroke-miterlimit="10"/>
<path d="M37.3709 53.1511H38.1972C38.3474 53.1616 38.4708 53.2776 38.4815 53.4253C38.4976 53.573 38.4011 53.7101 38.2562 53.747H37.3977" stroke="black" stroke-width="0.2" stroke-miterlimit="10"/>
<path d="M37.3655 53.1511C37.3762 53.1089 37.387 53.072 37.4031 53.035" stroke="black" stroke-width="0.2" stroke-miterlimit="10"/>
<path d="M37.4031 53.747H34.0335L33.4648 53.6204V53.304L34.1086 53.1511H37.3709" stroke="black" stroke-width="0.2" stroke-miterlimit="10"/>
<path d="M37.3977 53.747C37.4299 53.8314 37.4728 53.9052 37.5265 53.9791C37.7089 54.2217 38.004 54.3799 38.3367 54.3799C38.8893 54.3799 39.3347 53.9369 39.3347 53.3989C39.3347 52.861 38.884 52.418 38.3367 52.418C38.004 52.418 37.7089 52.5762 37.5265 52.8241C37.4782 52.8874 37.4353 52.9612 37.4031 53.0403" stroke="black" stroke-width="0.2" stroke-miterlimit="10"/>
<path d="M44.0027 52.0014V11.5711H40.44V93.9505H44.0027V52.0014Z" stroke="black" stroke-width="0.2" stroke-miterlimit="10"/>
<path d="M44.0027 0.0527344H0.0536499V10.4266H44.0027V0.0527344Z" stroke="black" stroke-width="0.2" stroke-miterlimit="10"/>
<path d="M44.0027 10.4266H0.0536499V11.5658H44.0027V10.4266Z" stroke="black" stroke-width="0.2" stroke-miterlimit="10"/>
<path d="M87.9517 0H44.0027V94.8945H87.9517V0Z" stroke="black" stroke-width="0.2" stroke-miterlimit="10"/>
<path d="M87.9463 11.5184H84.3836V93.8978H87.9463V11.5184Z" stroke="black" stroke-width="0.2" stroke-miterlimit="10"/>
<path d="M84.3836 11.5184H47.56V12.5784H84.3836V11.5184Z" stroke="black" stroke-width="0.2" stroke-miterlimit="10"/>
<path d="M84.3836 92.8324H47.56V93.8925H84.3836V92.8324Z" stroke="black" stroke-width="0.2" stroke-miterlimit="10"/>
<path d="M47.6834 50.7409V12.6945H84.2656V92.6373H47.6834V50.7409Z" stroke="black" stroke-width="0.2" stroke-miterlimit="10"/>
<path d="M44.0027 11.5184H87.9463" stroke="black" stroke-width="0.2" stroke-miterlimit="10"/>
<path d="M87.9464 11.5184V93.8978" stroke="black" stroke-width="0.2" stroke-miterlimit="10"/>
<path d="M47.56 12.5784H84.3836" stroke="black" stroke-width="0.2" stroke-miterlimit="10"/>
<path d="M84.3836 11.5184V21.2225" stroke="black" stroke-width="0.2" stroke-miterlimit="10"/>
<path d="M84.3836 92.8324H47.56" stroke="black" stroke-width="0.2" stroke-miterlimit="10"/>
<path d="M84.2656 12.6945V21.2225" stroke="black" stroke-width="0.2" stroke-miterlimit="10"/>
<path d="M47.6834 12.6945H84.2656" stroke="black" stroke-width="0.2" stroke-miterlimit="10"/>
<path d="M84.2656 92.6373H47.6834" stroke="black" stroke-width="0.2" stroke-miterlimit="10"/>
<path d="M84.3836 86.2136V93.8977" stroke="black" stroke-width="0.2" stroke-miterlimit="10"/>
<path d="M84.2656 86.2136V92.6373" stroke="black" stroke-width="0.2" stroke-miterlimit="10"/>
<path d="M84.3836 53.6363V81.4934" stroke="black" stroke-width="0.2" stroke-miterlimit="10"/>
<path d="M84.2656 53.6363V81.4934" stroke="black" stroke-width="0.2" stroke-miterlimit="10"/>
<path d="M84.3836 25.9426V48.916" stroke="black" stroke-width="0.2" stroke-miterlimit="10"/>
<path d="M84.2656 25.9426V48.916" stroke="black" stroke-width="0.2" stroke-miterlimit="10"/>
<path d="M84.5875 21.3385H84.0295V25.8214H84.5875V21.3385Z" stroke="black" stroke-width="0.2" stroke-miterlimit="10"/>
<path d="M84.0295 22.0083H84.5929" stroke="black" stroke-width="0.2" stroke-miterlimit="10"/>
<path d="M84.5929 22.3247H84.0295" stroke="black" stroke-width="0.2" stroke-miterlimit="10"/>
<path d="M84.0295 23.1896H84.5929" stroke="black" stroke-width="0.2" stroke-miterlimit="10"/>
<path d="M84.5929 23.9755H84.0295" stroke="black" stroke-width="0.2" stroke-miterlimit="10"/>
<path d="M84.0295 24.8404H84.5929" stroke="black" stroke-width="0.2" stroke-miterlimit="10"/>
<path d="M84.5929 25.1569H84.0295" stroke="black" stroke-width="0.2" stroke-miterlimit="10"/>
<path d="M84.0295 21.2225H84.5929" stroke="black" stroke-width="0.2" stroke-miterlimit="10"/>
<path d="M84.0295 25.9426H84.5929" stroke="black" stroke-width="0.2" stroke-miterlimit="10"/>
<path d="M84.5875 49.0321H84.0295V53.515H84.5875V49.0321Z" stroke="black" stroke-width="0.2" stroke-miterlimit="10"/>
<path d="M84.0295 49.7019H84.5929" stroke="black" stroke-width="0.2" stroke-miterlimit="10"/>
<path d="M84.5929 50.0131H84.0295" stroke="black" stroke-width="0.2" stroke-miterlimit="10"/>
<path d="M84.0295 50.8832H84.5929" stroke="black" stroke-width="0.2" stroke-miterlimit="10"/>
<path d="M84.5929 51.6691H84.0295" stroke="black" stroke-width="0.2" stroke-miterlimit="10"/>
<path d="M84.0295 52.534H84.5929" stroke="black" stroke-width="0.2" stroke-miterlimit="10"/>
<path d="M84.5929 52.8505H84.0295" stroke="black" stroke-width="0.2" stroke-miterlimit="10"/>
<path d="M84.0295 48.9161H84.5929" stroke="black" stroke-width="0.2" stroke-miterlimit="10"/>
<path d="M84.0295 53.6363H84.5929" stroke="black" stroke-width="0.2" stroke-miterlimit="10"/>
<path d="M84.5875 81.6147H84.0295V86.0976H84.5875V81.6147Z" stroke="black" stroke-width="0.2" stroke-miterlimit="10"/>
<path d="M84.0295 82.2792H84.5929" stroke="black" stroke-width="0.2" stroke-miterlimit="10"/>
<path d="M84.5929 82.5956H84.0295" stroke="black" stroke-width="0.2" stroke-miterlimit="10"/>
<path d="M84.0295 83.4606H84.5929" stroke="black" stroke-width="0.2" stroke-miterlimit="10"/>
<path d="M84.5929 84.2463H84.0295" stroke="black" stroke-width="0.2" stroke-miterlimit="10"/>
<path d="M84.0295 85.1166H84.5929" stroke="black" stroke-width="0.2" stroke-miterlimit="10"/>
<path d="M84.5929 85.4277H84.0295" stroke="black" stroke-width="0.2" stroke-miterlimit="10"/>
<path d="M84.0295 81.4933H84.5929" stroke="black" stroke-width="0.2" stroke-miterlimit="10"/>
<path d="M84.0295 86.2136H84.5929" stroke="black" stroke-width="0.2" stroke-miterlimit="10"/>
<path d="M44.0027 93.8977V94.8945H87.9463V93.8977H44.0027Z" stroke="black" stroke-width="0.2" stroke-miterlimit="10"/>
<path d="M50.6291 53.0983H49.8028C49.6526 53.1089 49.5292 53.2249 49.5184 53.3726C49.5023 53.5202 49.5989 53.6574 49.7438 53.6943H50.6023" stroke="black" stroke-width="0.2" stroke-miterlimit="10"/>
<path d="M50.6345 53.0983C50.6238 53.0561 50.613 53.0192 50.5969 52.9823" stroke="black" stroke-width="0.2" stroke-miterlimit="10"/>
<path d="M50.5969 53.6943H53.9665L54.5352 53.5677V53.2513L53.8914 53.0983H50.6291" stroke="black" stroke-width="0.2" stroke-miterlimit="10"/>
<path d="M50.6023 53.6943C50.5701 53.7787 50.5272 53.8525 50.4735 53.9263C50.2911 54.1689 49.996 54.3272 49.6633 54.3272C49.1107 54.3272 48.6653 53.8841 48.6653 53.3462C48.6653 52.8082 49.116 52.3652 49.6633 52.3652C49.996 52.3652 50.2911 52.5235 50.4735 52.7713C50.5218 52.8346 50.5647 52.9085 50.5969 52.9876" stroke="black" stroke-width="0.2" stroke-miterlimit="10"/>
<path d="M44.0027 51.9486V11.5184H47.56V93.8978H44.0027V51.9486Z" stroke="black" stroke-width="0.2" stroke-miterlimit="10"/>
<path d="M87.9517 0H44.0027V10.3739H87.9517V0Z" stroke="black" stroke-width="0.2" stroke-miterlimit="10"/>
<path d="M87.9517 10.3739H44.0027V11.5131H87.9517V10.3739Z" stroke="black" stroke-width="0.2" stroke-miterlimit="10"/>
</g>
<defs>
<clipPath id="clip0_422_805">
<rect width="88" height="95" fill="white"/>
</clipPath>
</defs>
</svg>
