<svg width="84" height="93" viewBox="0 0 84 93" fill="none" xmlns="http://www.w3.org/2000/svg">
<g clip-path="url(#clip0_40_8655)">
<rect width="83.9949" height="92.9329" fill="white"/>
<path d="M42.0026 0.0516357H0.0512085V92.9484H42.0026V0.0516357Z" stroke="black" stroke-width="0.2" stroke-miterlimit="10"/>
<path d="M3.45198 11.3275H0.0512085V91.9726H3.45198V11.3275Z" stroke="black" stroke-width="0.2" stroke-miterlimit="10"/>
<path d="M38.6018 11.3275H3.45197V12.3652H38.6018V11.3275Z" stroke="black" stroke-width="0.2" stroke-miterlimit="10"/>
<path d="M38.6018 90.9297H3.45197V91.9674H38.6018V90.9297Z" stroke="black" stroke-width="0.2" stroke-miterlimit="10"/>
<path d="M38.484 49.7242V12.4788H3.56467V90.7386H38.484V49.7242Z" stroke="black" stroke-width="0.2" stroke-miterlimit="10"/>
<path d="M42.0026 11.3275H0.0512085" stroke="black" stroke-width="0.2" stroke-miterlimit="10"/>
<path d="M0.0512085 11.3275V91.9726" stroke="black" stroke-width="0.2" stroke-miterlimit="10"/>
<path d="M38.6018 12.3652H3.45197" stroke="black" stroke-width="0.2" stroke-miterlimit="10"/>
<path d="M3.45197 11.3275V20.8273" stroke="black" stroke-width="0.2" stroke-miterlimit="10"/>
<path d="M3.45197 90.9297H38.6018" stroke="black" stroke-width="0.2" stroke-miterlimit="10"/>
<path d="M3.56467 12.4788V20.8273" stroke="black" stroke-width="0.2" stroke-miterlimit="10"/>
<path d="M38.6207 12.5938H3.86206" stroke="black" stroke-width="0.2" stroke-miterlimit="10"/>
<path d="M3.56467 90.7386H38.484" stroke="black" stroke-width="0.2" stroke-miterlimit="10"/>
<path d="M3.45197 84.4502V91.9726" stroke="black" stroke-width="0.2" stroke-miterlimit="10"/>
<path d="M3.56467 84.4502V90.7386" stroke="black" stroke-width="0.2" stroke-miterlimit="10"/>
<path d="M3.45197 52.5587V79.8293" stroke="black" stroke-width="0.2" stroke-miterlimit="10"/>
<path d="M3.56467 52.5587V79.8293" stroke="black" stroke-width="0.2" stroke-miterlimit="10"/>
<path d="M3.45197 25.4481V47.9379" stroke="black" stroke-width="0.2" stroke-miterlimit="10"/>
<path d="M3.56467 25.4481V47.9379" stroke="black" stroke-width="0.2" stroke-miterlimit="10"/>
<path d="M3.79001 20.9409H3.25735V25.3294H3.79001V20.9409Z" stroke="black" stroke-width="0.2" stroke-miterlimit="10"/>
<path d="M3.79001 21.5966H3.25735" stroke="black" stroke-width="0.2" stroke-miterlimit="10"/>
<path d="M3.25735 21.9063H3.79001" stroke="black" stroke-width="0.2" stroke-miterlimit="10"/>
<path d="M3.79001 22.7531H3.25735" stroke="black" stroke-width="0.2" stroke-miterlimit="10"/>
<path d="M3.25735 23.5223H3.79001" stroke="black" stroke-width="0.2" stroke-miterlimit="10"/>
<path d="M3.79001 24.3691H3.25735" stroke="black" stroke-width="0.2" stroke-miterlimit="10"/>
<path d="M3.25735 24.6789H3.79001" stroke="black" stroke-width="0.2" stroke-miterlimit="10"/>
<path d="M3.79001 20.8273H3.25735" stroke="black" stroke-width="0.2" stroke-miterlimit="10"/>
<path d="M3.79001 25.4481H3.25735" stroke="black" stroke-width="0.2" stroke-miterlimit="10"/>
<path d="M3.79001 48.0515H3.25735V52.4399H3.79001V48.0515Z" stroke="black" stroke-width="0.2" stroke-miterlimit="10"/>
<path d="M3.79001 48.7072H3.25735" stroke="black" stroke-width="0.2" stroke-miterlimit="10"/>
<path d="M3.25735 49.0118H3.79001" stroke="black" stroke-width="0.2" stroke-miterlimit="10"/>
<path d="M3.79001 49.8636H3.25735" stroke="black" stroke-width="0.2" stroke-miterlimit="10"/>
<path d="M3.25735 50.6329H3.79001" stroke="black" stroke-width="0.2" stroke-miterlimit="10"/>
<path d="M3.79001 51.4797H3.25735" stroke="black" stroke-width="0.2" stroke-miterlimit="10"/>
<path d="M3.25735 51.7894H3.79001" stroke="black" stroke-width="0.2" stroke-miterlimit="10"/>
<path d="M3.79001 47.9379H3.25735" stroke="black" stroke-width="0.2" stroke-miterlimit="10"/>
<path d="M3.79001 52.5587H3.25735" stroke="black" stroke-width="0.2" stroke-miterlimit="10"/>
<path d="M3.79001 79.9481H3.25735V84.3366H3.79001V79.9481Z" stroke="black" stroke-width="0.2" stroke-miterlimit="10"/>
<path d="M3.79001 80.5986H3.25735" stroke="black" stroke-width="0.2" stroke-miterlimit="10"/>
<path d="M3.25735 80.9084H3.79001" stroke="black" stroke-width="0.2" stroke-miterlimit="10"/>
<path d="M3.79001 81.7551H3.25735" stroke="black" stroke-width="0.2" stroke-miterlimit="10"/>
<path d="M3.25735 82.5244H3.79001" stroke="black" stroke-width="0.2" stroke-miterlimit="10"/>
<path d="M3.79001 83.3763H3.25735" stroke="black" stroke-width="0.2" stroke-miterlimit="10"/>
<path d="M3.25735 83.6809H3.79001" stroke="black" stroke-width="0.2" stroke-miterlimit="10"/>
<path d="M3.79001 79.8293H3.25735" stroke="black" stroke-width="0.2" stroke-miterlimit="10"/>
<path d="M3.79001 84.4502H3.25735" stroke="black" stroke-width="0.2" stroke-miterlimit="10"/>
<path d="M42.0026 91.9726V92.9484H0.0512085V91.9726H42.0026Z" stroke="black" stroke-width="0.2" stroke-miterlimit="10"/>
<path d="M35.6722 52.0321H36.4609C36.6043 52.0424 36.7221 52.156 36.7324 52.3006C36.7478 52.4451 36.6556 52.5794 36.5173 52.6155H35.6978" stroke="black" stroke-width="0.2" stroke-miterlimit="10"/>
<path d="M35.6671 52.0321C35.6773 51.9908 35.6876 51.9547 35.7029 51.9185" stroke="black" stroke-width="0.2" stroke-miterlimit="10"/>
<path d="M35.7029 52.6155H32.4866L31.9437 52.4916V52.1818L32.5583 52.0321H35.6722" stroke="black" stroke-width="0.2" stroke-miterlimit="10"/>
<path d="M35.6978 52.6155C35.7285 52.6981 35.7695 52.7704 35.8207 52.8427C35.9949 53.0802 36.2766 53.2351 36.5941 53.2351C37.1216 53.2351 37.5467 52.8014 37.5467 52.2748C37.5467 51.7481 37.1165 51.3145 36.5941 51.3145C36.2766 51.3145 35.9949 51.4693 35.8207 51.712C35.7746 51.774 35.7337 51.8462 35.7029 51.9237" stroke="black" stroke-width="0.2" stroke-miterlimit="10"/>
<path d="M42.0025 50.9066V11.3275H38.6018V91.9726H42.0025V50.9066Z" stroke="black" stroke-width="0.2" stroke-miterlimit="10"/>
<path d="M42.0026 0.0516357H0.0512085V10.2071H42.0026V0.0516357Z" stroke="black" stroke-width="0.2" stroke-miterlimit="10"/>
<path d="M42.0026 10.2071H0.0512085V11.3223H42.0026V10.2071Z" stroke="black" stroke-width="0.2" stroke-miterlimit="10"/>
<path d="M83.9539 0H42.0026V92.8967H83.9539V0Z" stroke="black" stroke-width="0.2" stroke-miterlimit="10"/>
<path d="M83.9488 11.2758H80.548V91.9209H83.9488V11.2758Z" stroke="black" stroke-width="0.2" stroke-miterlimit="10"/>
<path d="M80.548 11.2758H45.3982V12.3136H80.548V11.2758Z" stroke="black" stroke-width="0.2" stroke-miterlimit="10"/>
<path d="M80.548 90.878H45.3982V91.9158H80.548V90.878Z" stroke="black" stroke-width="0.2" stroke-miterlimit="10"/>
<path d="M45.516 49.6726V12.4272H80.4354V90.687H45.516V49.6726Z" stroke="black" stroke-width="0.2" stroke-miterlimit="10"/>
<path d="M42.0026 11.2758H83.9488" stroke="black" stroke-width="0.2" stroke-miterlimit="10"/>
<path d="M83.9488 11.2758V91.9209" stroke="black" stroke-width="0.2" stroke-miterlimit="10"/>
<path d="M45.3982 12.3136H80.548" stroke="black" stroke-width="0.2" stroke-miterlimit="10"/>
<path d="M80.548 11.2758V20.7757" stroke="black" stroke-width="0.2" stroke-miterlimit="10"/>
<path d="M80.548 90.878H45.3982" stroke="black" stroke-width="0.2" stroke-miterlimit="10"/>
<path d="M80.4353 12.4272V20.7757" stroke="black" stroke-width="0.2" stroke-miterlimit="10"/>
<path d="M45.516 12.4272H80.4354" stroke="black" stroke-width="0.2" stroke-miterlimit="10"/>
<path d="M80.4354 90.687H45.516" stroke="black" stroke-width="0.2" stroke-miterlimit="10"/>
<path d="M80.548 84.3986V91.921" stroke="black" stroke-width="0.2" stroke-miterlimit="10"/>
<path d="M80.4353 84.3986V90.687" stroke="black" stroke-width="0.2" stroke-miterlimit="10"/>
<path d="M80.548 52.5071V79.7777" stroke="black" stroke-width="0.2" stroke-miterlimit="10"/>
<path d="M80.4353 52.5071V79.7777" stroke="black" stroke-width="0.2" stroke-miterlimit="10"/>
<path d="M80.548 25.3965V47.8862" stroke="black" stroke-width="0.2" stroke-miterlimit="10"/>
<path d="M80.4353 25.3965V47.8862" stroke="black" stroke-width="0.2" stroke-miterlimit="10"/>
<path d="M80.7426 20.8893H80.21V25.2777H80.7426V20.8893Z" stroke="black" stroke-width="0.2" stroke-miterlimit="10"/>
<path d="M80.21 21.545H80.7478" stroke="black" stroke-width="0.2" stroke-miterlimit="10"/>
<path d="M80.7478 21.8547H80.21" stroke="black" stroke-width="0.2" stroke-miterlimit="10"/>
<path d="M80.21 22.7014H80.7478" stroke="black" stroke-width="0.2" stroke-miterlimit="10"/>
<path d="M80.7478 23.4707H80.21" stroke="black" stroke-width="0.2" stroke-miterlimit="10"/>
<path d="M80.21 24.3174H80.7478" stroke="black" stroke-width="0.2" stroke-miterlimit="10"/>
<path d="M80.7478 24.6272H80.21" stroke="black" stroke-width="0.2" stroke-miterlimit="10"/>
<path d="M80.21 20.7757H80.7478" stroke="black" stroke-width="0.2" stroke-miterlimit="10"/>
<path d="M80.21 25.3965H80.7478" stroke="black" stroke-width="0.2" stroke-miterlimit="10"/>
<path d="M80.7426 47.9998H80.21V52.3883H80.7426V47.9998Z" stroke="black" stroke-width="0.2" stroke-miterlimit="10"/>
<path d="M80.21 48.6555H80.7478" stroke="black" stroke-width="0.2" stroke-miterlimit="10"/>
<path d="M80.7478 48.9601H80.21" stroke="black" stroke-width="0.2" stroke-miterlimit="10"/>
<path d="M80.21 49.812H80.7478" stroke="black" stroke-width="0.2" stroke-miterlimit="10"/>
<path d="M80.7478 50.5813H80.21" stroke="black" stroke-width="0.2" stroke-miterlimit="10"/>
<path d="M80.21 51.428H80.7478" stroke="black" stroke-width="0.2" stroke-miterlimit="10"/>
<path d="M80.7478 51.7378H80.21" stroke="black" stroke-width="0.2" stroke-miterlimit="10"/>
<path d="M80.21 47.8863H80.7478" stroke="black" stroke-width="0.2" stroke-miterlimit="10"/>
<path d="M80.21 52.5071H80.7478" stroke="black" stroke-width="0.2" stroke-miterlimit="10"/>
<path d="M80.7426 79.8965H80.21V84.285H80.7426V79.8965Z" stroke="black" stroke-width="0.2" stroke-miterlimit="10"/>
<path d="M80.21 80.547H80.7478" stroke="black" stroke-width="0.2" stroke-miterlimit="10"/>
<path d="M80.7478 80.8568H80.21" stroke="black" stroke-width="0.2" stroke-miterlimit="10"/>
<path d="M80.21 81.7035H80.7478" stroke="black" stroke-width="0.2" stroke-miterlimit="10"/>
<path d="M80.7478 82.4727H80.21" stroke="black" stroke-width="0.2" stroke-miterlimit="10"/>
<path d="M80.21 83.3246H80.7478" stroke="black" stroke-width="0.2" stroke-miterlimit="10"/>
<path d="M80.7478 83.6293H80.21" stroke="black" stroke-width="0.2" stroke-miterlimit="10"/>
<path d="M80.21 79.7777H80.7478" stroke="black" stroke-width="0.2" stroke-miterlimit="10"/>
<path d="M80.21 84.3986H80.7478" stroke="black" stroke-width="0.2" stroke-miterlimit="10"/>
<path d="M42.0026 91.9209V92.8967H83.9488V91.9209H42.0026Z" stroke="black" stroke-width="0.2" stroke-miterlimit="10"/>
<path d="M48.3278 51.9805H47.539C47.3956 51.9908 47.2778 52.1044 47.2676 52.2489C47.2522 52.3935 47.3444 52.5277 47.4827 52.5639H48.3022" stroke="black" stroke-width="0.2" stroke-miterlimit="10"/>
<path d="M48.3329 51.9805C48.3227 51.9392 48.3124 51.903 48.2971 51.8669" stroke="black" stroke-width="0.2" stroke-miterlimit="10"/>
<path d="M48.2971 52.5639H51.5134L52.0563 52.44V52.1302L51.4417 51.9805H48.3278" stroke="black" stroke-width="0.2" stroke-miterlimit="10"/>
<path d="M48.3022 52.5639C48.2715 52.6465 48.2305 52.7188 48.1793 52.791C48.0051 53.0285 47.7234 53.1834 47.4059 53.1834C46.8784 53.1834 46.4533 52.7497 46.4533 52.2231C46.4533 51.6965 46.8835 51.2628 47.4059 51.2628C47.7234 51.2628 48.0051 51.4177 48.1793 51.6604C48.2254 51.7223 48.2663 51.7946 48.2971 51.872" stroke="black" stroke-width="0.2" stroke-miterlimit="10"/>
<path d="M42.0026 50.8549V11.2758H45.3982V91.9209H42.0026V50.8549Z" stroke="black" stroke-width="0.2" stroke-miterlimit="10"/>
<path d="M83.9539 0H42.0026V10.1555H83.9539V0Z" stroke="black" stroke-width="0.2" stroke-miterlimit="10"/>
<path d="M83.9539 10.1555H42.0026V11.2707H83.9539V10.1555Z" stroke="black" stroke-width="0.2" stroke-miterlimit="10"/>
</g>
<defs>
<clipPath id="clip0_40_8655">
<rect width="84" height="93" fill="white"/>
</clipPath>
</defs>
</svg>
