<svg width="66" height="83" viewBox="0 0 66 83" fill="none" xmlns="http://www.w3.org/2000/svg">
<g clip-path="url(#clip0_480_759)">
<path d="M66 35.4C66 51 66 66.7 66 82.3C66 82.7 65.9 82.8 65.5 82.8C43.9 82.8 22.2 82.8 0.599976 82.8C0.199976 82.8 0.0999756 82.7 0.0999756 82.3C0.0999756 51 0.0999756 19.7 0.0999756 -11.5C0.0999756 -11.9 0.199976 -12.1 0.699976 -12.1C1.29998 -12 1.89998 -12.1 2.49998 -12.1C2.89998 -12.1 2.89998 -11.9 2.89998 -11.7C2.89998 -8.00001 2.89998 -4.30001 2.89998 -0.600013C2.89998 -1.27554e-05 2.89998 -1.23978e-05 3.49998 -1.23978e-05C23.3 -1.23978e-05 43.1 -1.23978e-05 62.9 -1.23978e-05C63.5 -1.23978e-05 63.5 -1.27554e-05 63.5 -0.600013C63.5 -4.30001 63.5 -8.00001 63.5 -11.7C63.5 -12.1 63.6 -12.2 64 -12.2C64.7 -12.2 65.3 -12.2 66 -12.2C66.2 -12.2 66.3 -12.1 66.3 -11.9C66.3 -11.8 66.3 -11.7 66.3 -11.6C66 4.19999 66 19.8 66 35.4Z" fill="black"/>
<path d="M2.49998 2.49998C2.59998 2.69998 2.59998 2.79998 2.59998 2.99998C2.59998 29.4 2.59998 55.9 2.59998 82.3C2.59998 82.7 2.49998 82.8 2.09998 82.8C1.59998 82.8 0.999976 82.8 0.499976 82.8C0.199976 82.8 0.0999756 82.7 0.0999756 82.4C0.0999756 82.3 0.0999756 82.3 0.0999756 82.2C0.0999756 55.1 0.0999756 27.9 0.0999756 0.799976C0.0999756 0.0999756 0.0999756 0.0999756 0.799976 0.0999756C21.4 0.0999756 42 0.0999756 62.6 0.0999756C63.6 0.0999756 64.5 0.0999756 65.5 0.0999756C65.8 0.0999756 66 0.199976 65.9 0.499976C65.9 0.599976 65.9 0.599976 65.9 0.699976C65.9 27.9 65.9 55 65.9 82.2C65.9 82.8 65.9 82.8 65.3 82.8C64.8 82.8 64.3 82.8 63.8 82.8C63.6 82.8 63.5 82.7 63.5 82.5C63.5 82.4 63.5 82.2 63.5 82.1C63.5 55.7 63.5 29.4 63.5 2.99998C63.5 2.39998 63.5 2.39998 62.9 2.39998C43.8 2.39998 24.7 2.39998 5.59998 2.39998C4.59998 2.49998 3.59998 2.49998 2.49998 2.49998Z" fill="white"/>
<path d="M3.09998 42.9C3.09998 29.8 3.09998 16.7 3.09998 3.7C3.09998 3 3.09998 3 3.79998 3C23.3 3 42.9 3 62.4 3C62.9 3 62.9 3.2 62.9 3.6C62.9 29.9 62.9 56.1 62.9 82.4C62.9 82.8 62.8 82.9 62.4 82.9C42.8 82.9 23.2 82.9 3.59998 82.9C3.09998 82.9 3.09998 82.7 3.09998 82.3C3.09998 69.1 3.09998 56 3.09998 42.9Z" fill="white"/>
<path d="M2.69998 -5.90002C2.69998 -4.00002 2.69998 -2.20002 2.69998 -0.300025C2.69998 -2.49743e-05 2.59998 0.0999756 2.29998 0.0999756C1.69998 0.0999756 1.09998 0.0999756 0.499976 0.0999756C0.199976 0.0999756 0.0999756 -2.44081e-05 0.0999756 -0.400024C0.0999756 -3.70002 0.0999756 -6.90002 0.0999756 -10.2C0.0999756 -10.7 0.0999756 -11.2 0.0999756 -11.6C0.0999756 -11.9 0.199976 -11.9 0.499976 -11.9C1.09998 -11.9 1.69998 -11.9 2.29998 -11.9C2.59998 -11.9 2.69998 -11.8 2.69998 -11.5C2.69998 -9.70002 2.69998 -7.80002 2.69998 -5.90002Z" fill="white"/>
<path d="M63.2999 2.70001C63.2999 2.90001 63.2999 3.00001 63.2999 3.20001C63.2999 29.6 63.2999 55.9 63.2999 82.3C63.2999 82.5 63.3 82.6 63.2 82.9C63.2 82.6 63.2 82.5 63.2 82.3C63.2 56 63.2 29.6 63.2 3.30001C63.3 3.10001 63.1999 2.90001 63.2999 2.70001Z" fill="white"/>
<path d="M63.3 2.69996C62.5 2.69996 61.7 2.69996 60.9 2.69996C61.8 2.69996 62.5 2.59996 63.3 2.69996Z" fill="white"/>
<path d="M61.7 43C61.7 55.7 61.7 68.4 61.7 81.1C61.7 81.5 61.6 81.6 61.2 81.6C42.4 81.6 23.7 81.6 4.89999 81.6C4.49999 81.6 4.29999 81.5 4.29999 81C4.29999 55.6 4.29999 30.1 4.29999 4.70001C4.29999 4.20001 4.39999 4.20001 4.89999 4.20001C23.7 4.20001 42.4 4.20001 61.2 4.20001C61.6 4.20001 61.7 4.30001 61.7 4.70001C61.7 17.5 61.7 30.2 61.7 43Z" fill="black"/>
<path d="M34.7 42.9C34.7 31.2 34.7 19.6 34.7 7.89996C34.7 7.49996 34.8 7.39996 35.2 7.39996C42.8 7.39996 50.5 7.39996 58.1 7.39996C58.5 7.39996 58.6 7.49996 58.6 7.89996C58.6 31.2 58.6 54.6 58.6 77.9C58.6 78.3 58.5 78.4 58.1 78.4C50.4 78.4 42.8 78.4 35.1 78.4C34.7 78.4 34.6 78.3 34.6 77.9C34.7 66.3 34.7 54.6 34.7 42.9Z" fill="white"/>
<path d="M4.39996 42.9C4.39996 30.2 4.39996 17.6 4.39996 4.89999C4.39996 4.29999 4.39996 4.29999 4.99996 4.29999C14.6 4.29999 24.2 4.29999 33.9 4.29999C34.5 4.29999 34.5 4.29999 34.5 4.89999C34.5 30.2 34.5 55.6 34.5 80.9C34.5 81.5 34.5 81.5 33.9 81.5C24.3 81.5 14.6 81.5 4.99996 81.5C4.39996 81.5 4.39996 81.5 4.39996 80.9C4.39996 68.3 4.39996 55.6 4.39996 42.9Z" fill="white"/>
<path d="M61.6 43C61.6 55.6 61.6 68.3 61.6 80.9C61.6 81.5 61.6 81.5 61 81.5C52.3 81.5 43.7 81.5 35 81.5C34.5 81.5 34.5 81.4 34.5 81C34.5 80.3 34.5 79.6 34.5 78.9C34.5 78.6 34.6 78.5 34.9 78.5C41 78.5 47.1 78.5 53.2 78.5C54.8 78.5 56.5 78.5 58.1 78.5C58.5 78.5 58.6 78.4 58.6 78C58.6 64.5 58.6 51 58.6 37.5C58.6 27.6 58.6 17.7 58.6 7.80001C58.6 7.40001 58.5 7.30001 58.1 7.30001C50.4 7.30001 42.7 7.30001 35 7.30001C34.6 7.30001 34.5 7.20001 34.5 6.80001C34.5 6.10001 34.5 5.40001 34.5 4.70001C34.5 4.30001 34.6 4.20001 35 4.20001C37.2 4.20001 39.4 4.20001 41.6 4.20001C48.1 4.20001 54.5 4.20001 61 4.20001C61.6 4.20001 61.6 4.20001 61.6 4.80001C61.6 17.6 61.6 30.3 61.6 43Z" fill="white"/>
<path d="M7.39999 42.9C7.39999 31.2 7.39999 19.5 7.39999 7.89996C7.39999 7.49996 7.49999 7.39996 7.89999 7.39996C15.6 7.39996 23.3 7.39996 30.9 7.39996C31.3 7.39996 31.4 7.49996 31.4 7.89996C31.4 31.3 31.4 54.7 31.4 78.1C31.4 78.5 31.3 78.6 30.9 78.6C23.2 78.6 15.5 78.6 7.79999 78.6C7.39999 78.6 7.29999 78.5 7.29999 78.1C7.39999 66.3 7.39999 54.6 7.39999 42.9Z" fill="black"/>
<path d="M5.09998 44.6C5.09998 43.4 5.09998 42.2 5.09998 41C5.09998 40.7 5.19998 40.6 5.49998 40.7C5.79998 40.7 6.09998 40.7 6.39998 40.7C6.69998 40.7 6.79998 40.8 6.79998 41.1C6.79998 42.7 6.79998 44.3 6.79998 45.9C6.79998 46.7 6.79998 47.6 6.79998 48.4C6.79998 48.7 6.69998 48.7 6.49998 48.7C6.09998 48.7 5.59998 48.8 5.29998 48.6C4.99998 48.4 5.19998 47.8 5.19998 47.4C5.09998 46.5 5.09998 45.5 5.09998 44.6Z" fill="black"/>
<path d="M31.4 43C31.4 54.7 31.4 66.3 31.4 78C31.4 78.4 31.3 78.5 30.9 78.5C23.3 78.5 15.6 78.5 8 78.5C7.6 78.5 7.5 78.4 7.5 78C7.5 54.7 7.5 31.3 7.5 8C7.5 7.6 7.6 7.5 8 7.5C15.6 7.5 23.3 7.5 30.9 7.5C31.4 7.5 31.4 7.6 31.4 8C31.4 19.6 31.4 31.3 31.4 43Z" fill="white"/>
<path d="M5.19998 41C5.29998 40.9 5.09998 40.8 5.29998 40.8C5.39998 40.8 5.39998 40.8 5.49998 40.8C6.59998 40.8 6.59998 40.8 6.59998 41.9C6.59998 44 6.59998 46.1 6.59998 48.1C6.59998 48.5 6.49998 48.6 6.09998 48.6C5.09998 48.6 5.09998 48.6 5.09998 47.6C5.09998 45.5 5.09998 43.5 5.09998 41.4C5.19998 41.2 5.09998 41.1 5.19998 41C5.49998 41.1 5.39998 41.3 5.39998 41.5C5.39998 43.2 5.39998 44.8 5.39998 46.5C5.39998 47 5.49998 47.4 5.59998 47.8C5.59998 48 5.69998 48.1 5.89998 48.1C6.09998 48.1 6.09998 48 6.09998 47.8C6.09998 47.4 6.29998 46.9 6.29998 46.5C6.29998 45.4 6.29998 44.4 6.29998 43.3C6.29998 42.8 6.19998 42.2 6.09998 41.7C6.09998 41.5 5.99998 41.4 5.89998 41.3C5.69998 41.2 5.49998 41 5.19998 41Z" fill="white"/>
<path d="M5.19995 41C6.39995 40.9 6.39995 40.9 6.39995 42.1C6.39995 44.1 6.39995 46.1 6.39995 48C6.39995 48.3 6.29995 48.5 5.99995 48.4C5.29995 48.4 5.29995 48.4 5.29995 47.7C5.29995 45.6 5.29995 43.5 5.29995 41.5C5.39995 41.3 5.39995 41.1 5.19995 41Z" fill="black"/>
<path d="M6.39996 44.7C6.39996 45.8 6.39996 46.9 6.39996 47.9C6.39996 48.3 6.19996 48.3 5.99996 48.2C5.79996 48.2 5.49996 48.3 5.49996 47.9C5.49996 45.7 5.49996 43.5 5.49996 41.3C5.39996 40.9 5.69996 41 5.99996 41C6.19996 41 6.49996 41 6.39996 41.3C6.39996 42.5 6.39996 43.6 6.39996 44.7Z" fill="white"/>
</g>
<defs>
<clipPath id="clip0_480_759">
<rect width="66" height="83" fill="white"/>
</clipPath>
</defs>
</svg>
