<svg width="66" height="95" viewBox="0 0 66 95" fill="none" xmlns="http://www.w3.org/2000/svg">
<g clip-path="url(#clip0_470_1486)">
<path d="M66.01 47.49C66.01 63.14 66.01 78.79 66.02 94.44C66.02 94.87 65.92 94.97 65.49 94.97C43.85 94.96 22.2 94.96 0.559978 94.97C0.109978 94.97 0.039978 94.84 0.039978 94.43C0.049978 63.15 0.049978 31.86 0.039978 0.580015C0.039978 0.150015 0.119978 -0.0199849 0.589978 0.0200151C1.19998 0.0700151 1.81998 0.0600151 2.42998 0.0200151C2.79998 1.50749e-05 2.78998 0.180015 2.78998 0.450015C2.77998 4.15002 2.78998 7.85002 2.78998 11.54C2.78998 12.1 2.78998 12.1 3.35998 12.1C23.15 12.1 42.94 12.1 62.72 12.1C63.28 12.1 63.28 12.1 63.28 11.53C63.28 7.85001 63.29 4.16002 63.27 0.480015C63.27 0.100015 63.37 1.50749e-05 63.74 0.0200151C64.4 0.0500151 65.05 0.0400151 65.71 0.0200151C65.95 0.0100151 66.06 0.0800151 66.02 0.330015C66.01 0.440015 66.02 0.560015 66.02 0.670015C66.01 16.28 66.01 31.89 66.01 47.49Z" fill="black"/>
<path d="M2.54999 14.51C2.64999 14.71 2.61999 14.88 2.61999 15.05C2.61999 41.49 2.61999 67.94 2.62999 94.38C2.62999 94.75 2.55999 94.91 2.14999 94.88C1.60999 94.84 1.05999 94.85 0.519989 94.88C0.179989 94.9 0.0899895 94.77 0.129989 94.47C0.139989 94.4 0.129989 94.33 0.129989 94.26C0.129989 67.13 0.129989 40 0.129989 12.87C0.129989 12.2 0.129989 12.2 0.799989 12.2C21.41 12.2 42.02 12.2 62.62 12.2C63.58 12.2 64.54 12.21 65.51 12.19C65.82 12.18 65.97 12.28 65.93 12.61C65.92 12.68 65.93 12.75 65.93 12.82C65.93 39.98 65.93 67.14 65.93 94.3C65.93 94.88 65.93 94.88 65.33 94.88C64.83 94.88 64.33 94.87 63.83 94.89C63.58 94.9 63.5 94.81 63.52 94.57C63.53 94.44 63.52 94.31 63.52 94.18C63.52 67.82 63.52 41.46 63.52 15.1C63.52 14.51 63.52 14.51 62.93 14.51C43.82 14.51 24.71 14.51 5.59999 14.51C4.60999 14.51 3.60999 14.51 2.54999 14.51Z" fill="white"/>
<path d="M3.13 54.95C3.13 41.87 3.13 28.79 3.13 15.71C3.13 15.02 3.13 15.02 3.79 15.02C23.32 15.02 42.85 15.02 62.38 15.01C62.85 15.01 62.93 15.17 62.93 15.57C62.92 41.84 62.92 68.11 62.93 94.38C62.93 94.74 62.84 94.87 62.45 94.87C42.83 94.86 23.22 94.86 3.6 94.87C3.12 94.87 3.12 94.65 3.12 94.3C3.13 81.19 3.13 68.07 3.13 54.95Z" fill="white"/>
<path d="M2.7 6.16004C2.7 8.01004 2.69 9.87004 2.71 11.72C2.71 12.05 2.62 12.13 2.3 12.12C1.72 12.09 1.13 12.09 0.549995 12.12C0.219995 12.14 0.119995 12.04 0.119995 11.7C0.129995 8.43004 0.129995 5.17004 0.129995 1.90004C0.129995 1.41004 0.149995 0.930039 0.119995 0.450039C0.119995 0.170039 0.209995 0.100039 0.469995 0.110039C1.08 0.130039 1.7 0.130039 2.31 0.110039C2.63 0.100039 2.72 0.190039 2.71 0.510039C2.7 2.39004 2.7 4.27004 2.7 6.16004Z" fill="white"/>
<path d="M63.36 6.11004C63.36 4.24004 63.37 2.37004 63.35 0.500039C63.35 0.180039 63.44 0.0900387 63.75 0.100039C64.33 0.130039 64.92 0.130039 65.5 0.100039C65.83 0.0900387 65.93 0.180039 65.93 0.520039C65.92 3.60004 65.92 6.68004 65.92 9.76004C65.92 10.43 65.91 11.1 65.93 11.77C65.94 12.04 65.85 12.11 65.59 12.1C64.98 12.08 64.36 12.08 63.75 12.1C63.43 12.11 63.34 12.03 63.34 11.7C63.37 9.85004 63.36 7.98004 63.36 6.11004Z" fill="white"/>
<path d="M63.33 14.74C63.34 14.9 63.36 15.05 63.36 15.21C63.36 41.57 63.36 67.93 63.36 94.29C63.36 94.45 63.4 94.62 63.28 94.87C63.28 94.61 63.28 94.44 63.28 94.27C63.28 67.94 63.28 41.61 63.28 15.28C63.28 15.1 63.22 14.91 63.33 14.74Z" fill="white"/>
<path d="M60.69 14.74C42.26 14.74 23.82 14.74 5.38995 14.74C5.38995 14.73 5.38995 14.72 5.38995 14.71C23.82 14.71 42.26 14.71 60.69 14.71C60.69 14.72 60.69 14.73 60.69 14.74Z" fill="white"/>
<path d="M5.08996 14.74C4.35996 14.74 3.62996 14.74 2.89996 14.74C2.89996 14.73 2.89996 14.72 2.89996 14.71C3.62996 14.71 4.35996 14.71 5.08996 14.71C5.08996 14.72 5.08996 14.73 5.08996 14.74Z" fill="white"/>
<path d="M63.33 14.74C62.54 14.74 61.75 14.74 60.96 14.74C61.75 14.72 62.54 14.6 63.33 14.74Z" fill="white"/>
<path d="M61.73 55.04C61.73 67.75 61.73 80.45 61.74 93.16C61.74 93.6 61.62 93.69 61.2 93.69C42.43 93.68 23.65 93.68 4.88001 93.69C4.44001 93.69 4.32001 93.59 4.32001 93.14C4.33001 67.71 4.33001 42.28 4.32001 16.85C4.32001 16.39 4.45001 16.3 4.88001 16.3C23.65 16.31 42.43 16.31 61.2 16.3C61.62 16.3 61.74 16.39 61.74 16.83C61.73 29.56 61.73 42.3 61.73 55.04Z" fill="black"/>
<path d="M34.66 54.98C34.66 43.32 34.66 31.65 34.65 19.99C34.65 19.59 34.73 19.47 35.15 19.47C42.79 19.48 50.43 19.48 58.06 19.47C58.49 19.47 58.56 19.59 58.56 19.99C58.55 43.33 58.55 66.68 58.56 90.02C58.56 90.4 58.48 90.52 58.08 90.52C50.43 90.51 42.78 90.51 35.12 90.52C34.71 90.52 34.64 90.4 34.64 90.02C34.66 78.34 34.66 66.66 34.66 54.98Z" fill="white"/>
<path d="M4.41998 54.99C4.41998 42.32 4.41998 29.66 4.41998 16.99C4.41998 16.39 4.41998 16.39 5.02998 16.39C14.65 16.39 24.28 16.39 33.9 16.39C34.49 16.39 34.49 16.39 34.49 16.97C34.49 42.32 34.49 67.66 34.49 93.01C34.49 93.59 34.49 93.59 33.9 93.59C24.26 93.59 14.62 93.59 4.98998 93.59C4.41998 93.59 4.41998 93.59 4.41998 93.03C4.41998 80.35 4.41998 67.67 4.41998 54.99Z" fill="white"/>
<path d="M61.64 55.02C61.64 67.67 61.64 80.32 61.64 92.97C61.64 93.58 61.64 93.58 61.04 93.58C52.39 93.58 43.73 93.58 35.08 93.59C34.63 93.59 34.54 93.46 34.56 93.05C34.59 92.37 34.59 91.68 34.56 90.99C34.54 90.64 34.67 90.57 34.99 90.57C41.09 90.58 47.18 90.58 53.28 90.58C54.91 90.58 56.54 90.57 58.16 90.59C58.56 90.6 58.65 90.48 58.65 90.1C58.64 76.59 58.64 63.08 58.64 49.58C58.64 39.68 58.64 29.79 58.65 19.89C58.65 19.48 58.56 19.37 58.14 19.37C50.44 19.38 42.75 19.38 35.05 19.39C34.67 19.39 34.53 19.32 34.55 18.91C34.59 18.23 34.59 17.54 34.55 16.85C34.53 16.43 34.68 16.37 35.05 16.37C37.25 16.39 39.45 16.38 41.65 16.38C48.12 16.38 54.59 16.38 61.05 16.38C61.63 16.38 61.63 16.38 61.63 16.97C61.64 29.66 61.64 42.34 61.64 55.02Z" fill="white"/>
<path d="M7.41997 54.95C7.41997 43.27 7.41997 31.59 7.40997 19.91C7.40997 19.47 7.52997 19.38 7.94997 19.38C15.63 19.39 23.31 19.39 30.99 19.38C31.4 19.38 31.5 19.47 31.5 19.89C31.49 43.29 31.49 66.69 31.5 90.09C31.5 90.51 31.39 90.6 30.98 90.6C23.29 90.59 15.59 90.59 7.89997 90.6C7.50997 90.6 7.40997 90.51 7.40997 90.11C7.41997 78.39 7.41997 66.67 7.41997 54.95Z" fill="black"/>
<path d="M5.09995 56.66C5.09995 55.46 5.10995 54.26 5.08995 53.07C5.08995 52.78 5.17995 52.7 5.44995 52.72C5.74995 52.74 6.04995 52.74 6.34995 52.72C6.64995 52.69 6.73995 52.79 6.72995 53.1C6.70995 54.68 6.71995 56.26 6.71995 57.85C6.71995 58.69 6.70995 59.53 6.72995 60.37C6.73995 60.64 6.64995 60.72 6.38995 60.7C5.97995 60.67 5.44995 60.83 5.18995 60.63C4.90995 60.41 5.10995 59.86 5.09995 59.45C5.08995 58.52 5.09995 57.59 5.09995 56.66Z" fill="black"/>
<path d="M31.4 55C31.4 66.66 31.4 78.33 31.41 89.99C31.41 90.39 31.33 90.51 30.9 90.51C23.26 90.5 15.62 90.5 7.98999 90.51C7.55999 90.51 7.48999 90.39 7.48999 89.99C7.49999 66.66 7.49999 43.33 7.48999 20C7.48999 19.58 7.56999 19.46 8.01999 19.46C15.64 19.48 23.27 19.48 30.89 19.46C31.34 19.46 31.41 19.59 31.41 20C31.4 31.67 31.4 43.34 31.4 55Z" fill="white"/>
<path d="M5.23998 53.01C5.28998 52.95 5.16998 52.83 5.31998 52.81C5.38998 52.8 5.45998 52.81 5.52998 52.81C6.63998 52.79 6.63998 52.79 6.63998 53.89C6.63998 55.97 6.62998 58.05 6.64998 60.13C6.64998 60.51 6.52998 60.62 6.15998 60.61C5.18998 60.59 5.17998 60.61 5.17998 59.64C5.17998 57.57 5.17998 55.51 5.17998 53.44C5.17998 53.29 5.11998 53.13 5.23998 52.99C5.53998 53.07 5.46998 53.31 5.46998 53.52C5.46998 55.17 5.47998 56.83 5.46998 58.48C5.46998 58.93 5.59998 59.35 5.63998 59.79C5.64998 59.94 5.73998 60.06 5.91998 60.05C6.06998 60.04 6.14998 59.92 6.15998 59.79C6.19998 59.35 6.32998 58.92 6.32998 58.48C6.31998 57.41 6.30998 56.34 6.32998 55.27C6.33998 54.72 6.22998 54.19 6.16998 53.66C6.14998 53.49 6.08998 53.33 5.91998 53.3C5.67998 53.26 5.48998 53.07 5.23998 53.01Z" fill="white"/>
<path d="M5.23999 53.01C6.46999 52.88 6.46999 52.88 6.46999 54.07C6.46999 56.05 6.45999 58.03 6.47999 60.01C6.47999 60.33 6.41999 60.46 6.06999 60.44C5.35999 60.41 5.35999 60.44 5.35999 59.71C5.35999 57.63 5.35999 55.55 5.35999 53.47C5.35999 53.31 5.40999 53.12 5.24999 52.99C5.24999 53 5.23999 53.01 5.23999 53.01Z" fill="black"/>
<path d="M6.39 56.75C6.39 57.83 6.37 58.92 6.4 60C6.41 60.4 6.19 60.36 5.95 60.34C5.73 60.32 5.44 60.47 5.44 60.01C5.46 57.8 5.46 55.59 5.44 53.38C5.44 52.92 5.74 53.08 5.95 53.06C6.2 53.04 6.41 53.02 6.4 53.41C6.37 54.53 6.39 55.64 6.39 56.75Z" fill="white"/>
</g>
<defs>
<clipPath id="clip0_470_1486">
<rect width="66" height="95" fill="white"/>
</clipPath>
</defs>
</svg>
