<svg width="72" height="80" viewBox="0 0 72 80" fill="none" xmlns="http://www.w3.org/2000/svg">
<g clip-path="url(#clip0_469_946)">
<rect width="72" height="80" fill="white"/>
<path d="M0 0.0200195C24 0.0200195 48 0.0200195 72 0.0200195C72 26.68 72 53.33 72 80C48 80 24 80 0 80C0 53.34 0 26.68 0 0.0200195ZM69.77 2.21002C69.59 2.20002 69.4 2.19002 69.22 2.19002C47.14 2.19002 25.07 2.19002 2.99 2.19002C2.81 2.19002 2.62 2.19002 2.44 2.19002C2.44 2.20002 2.44 2.21002 2.44 2.21002C2.49 2.21002 2.53 2.21002 2.58 2.21002C24.97 2.21002 47.37 2.21002 69.77 2.21002C69.76 2.38002 69.74 2.55002 69.74 2.73002C69.74 28.26 69.74 53.79 69.74 79.32C69.74 79.46 69.74 79.6 69.74 79.74C69.75 79.74 69.76 79.74 69.78 79.74C69.78 79.63 69.78 79.51 69.78 79.4C69.78 53.81 69.78 28.22 69.78 2.64002C69.78 2.49002 69.77 2.35002 69.77 2.21002ZM69.97 2.00002C69.85 1.99002 69.72 1.96002 69.6 1.96002C47.22 1.96002 24.85 1.96002 2.47 1.96002C2.37 1.96002 2.27 1.96002 2.16 1.96002C2.16 1.98002 2.16 2.01002 2.16 2.03002C2.27 2.03002 2.39 2.03002 2.5 2.03002C24.85 2.03002 47.21 2.03002 69.56 2.03002C69.7 2.03002 69.83 2.01002 69.97 2.00002C69.96 2.13002 69.94 2.27002 69.94 2.41002C69.94 28.09 69.94 53.76 69.94 79.44C69.94 79.56 69.94 79.67 69.94 79.79C69.96 79.79 69.98 79.79 70.01 79.79C70.01 79.68 70.01 79.56 70.01 79.45C70.01 53.77 70.01 28.1 70.01 2.42002C70 2.27002 69.98 2.14002 69.97 2.00002ZM69.45 2.37002C69.34 2.35002 69.24 2.31002 69.13 2.31002C47.04 2.31002 24.95 2.31002 2.87 2.31002C2.76 2.31002 2.66 2.35002 2.55 2.37002C2.47 2.36002 2.38 2.34002 2.28 2.32002C2.28 2.48002 2.28 2.61002 2.28 2.75002C2.28 8.02002 2.28 13.29 2.28 18.56C2.28 38.82 2.28 59.08 2.28 79.35C2.28 79.5 2.32 79.65 2.34 79.81C2.47 79.83 2.6 79.87 2.73 79.87C24.91 79.87 47.08 79.87 69.26 79.87C69.36 79.87 69.47 79.87 69.57 79.86C69.58 79.86 69.58 79.78 69.59 79.74C69.61 79.61 69.65 79.48 69.65 79.35C69.65 53.8 69.65 28.24 69.65 2.69002C69.65 2.58002 69.65 2.47002 69.65 2.36002C69.56 2.36002 69.51 2.37002 69.45 2.37002ZM71.66 0.29002C71.55 0.27002 71.45 0.23002 71.34 0.23002C47.78 0.23002 24.22 0.23002 0.66 0.23002C0.55 0.23002 0.45 0.27002 0.34 0.29002C0.08 0.32002 0.22 0.52002 0.22 0.63002C0.21 26.9 0.21 53.16 0.21 79.43C0.21 79.57 0.21 79.7 0.21 79.85C0.75 79.85 1.26 79.85 1.79 79.85C1.79 79.67 1.79 79.51 1.79 79.35C1.79 53.65 1.79 27.95 1.79 2.24002C1.79 2.08002 1.79 1.92002 1.8 1.76002C1.97 1.78002 2.13 1.82002 2.3 1.82002C24.75 1.82002 47.2 1.82002 69.65 1.82002C69.81 1.82002 69.97 1.82002 70.13 1.82002C70.13 1.98002 70.14 2.14002 70.14 2.30002C70.14 27.99 70.14 53.69 70.14 79.38C70.14 79.54 70.14 79.69 70.14 79.84C70.69 79.84 71.19 79.84 71.72 79.84C71.72 79.67 71.72 79.53 71.72 79.38C71.72 72.2 71.72 65.01 71.72 57.83C71.72 38.8 71.72 19.77 71.72 0.75002C71.72 0.60002 71.68 0.45002 71.66 0.29002ZM1.95 79.77C1.96 79.77 1.97 79.76 1.98 79.76C1.98 53.86 1.98 27.95 1.98 2.05002C1.97 2.05002 1.96 2.05002 1.95 2.05002C1.95 27.96 1.95 53.86 1.95 79.77ZM2.12 2.18002C2.11 2.18002 2.1 2.18002 2.09 2.18002C2.09 28.05 2.09 53.92 2.09 79.79C2.1 79.79 2.11 79.79 2.12 79.79C2.12 53.92 2.12 28.05 2.12 2.18002Z" fill="white"/>
<path d="M69.77 2.21002C69.59 2.20002 69.4 2.19002 69.22 2.19002C47.14 2.19002 25.07 2.19002 2.99 2.19002C2.81 2.19002 2.62 2.19002 2.44 2.19002C2.44 2.20002 2.44 2.21002 2.44 2.21002C2.49 2.21002 2.53 2.21002 2.58 2.21002C24.97 2.21002 47.37 2.21002 69.77 2.21002ZM69.77 2.21002C69.76 2.38002 69.74 2.55002 69.74 2.73002C69.74 28.26 69.74 53.79 69.74 79.32C69.74 79.46 69.74 79.6 69.74 79.74C69.75 79.74 69.76 79.74 69.78 79.74C69.78 79.63 69.78 79.51 69.78 79.4C69.78 53.81 69.78 28.22 69.78 2.64002C69.78 2.49002 69.77 2.35002 69.77 2.21002ZM69.97 2.00002C69.85 1.99002 69.72 1.96002 69.6 1.96002C47.22 1.96002 24.85 1.96002 2.47 1.96002C2.37 1.96002 2.27 1.96002 2.16 1.96002C2.16 1.98002 2.16 2.01002 2.16 2.03002C2.27 2.03002 2.39 2.03002 2.5 2.03002C24.85 2.03002 47.21 2.03002 69.56 2.03002C69.7 2.03002 69.83 2.01002 69.97 2.00002ZM69.97 2.00002C69.96 2.13002 69.94 2.27002 69.94 2.41002C69.94 28.09 69.94 53.76 69.94 79.44C69.94 79.56 69.94 79.67 69.94 79.79C69.96 79.79 69.98 79.79 70.01 79.79C70.01 79.68 70.01 79.56 70.01 79.45C70.01 53.77 70.01 28.1 70.01 2.42002C70 2.27002 69.98 2.14002 69.97 2.00002ZM0 0.0200195C24 0.0200195 48 0.0200195 72 0.0200195C72 26.68 72 53.33 72 80C48 80 24 80 0 80C0 53.34 0 26.68 0 0.0200195ZM69.45 2.37002C69.34 2.35002 69.24 2.31002 69.13 2.31002C47.04 2.31002 24.95 2.31002 2.87 2.31002C2.76 2.31002 2.66 2.35002 2.55 2.37002C2.47 2.36002 2.38 2.34002 2.28 2.32002C2.28 2.48002 2.28 2.61002 2.28 2.75002C2.28 8.02002 2.28 13.29 2.28 18.56C2.28 38.82 2.28 59.08 2.28 79.35C2.28 79.5 2.32 79.65 2.34 79.81C2.47 79.83 2.6 79.87 2.73 79.87C24.91 79.87 47.08 79.87 69.26 79.87C69.36 79.87 69.47 79.87 69.57 79.86C69.58 79.86 69.58 79.78 69.59 79.74C69.61 79.61 69.65 79.48 69.65 79.35C69.65 53.8 69.65 28.24 69.65 2.69002C69.65 2.58002 69.65 2.47002 69.65 2.36002C69.56 2.36002 69.51 2.37002 69.45 2.37002ZM71.66 0.29002C71.55 0.27002 71.45 0.23002 71.34 0.23002C47.78 0.23002 24.22 0.23002 0.66 0.23002C0.55 0.23002 0.45 0.27002 0.34 0.29002C0.08 0.32002 0.22 0.52002 0.22 0.63002C0.21 26.9 0.21 53.16 0.21 79.43C0.21 79.57 0.21 79.7 0.21 79.85C0.75 79.85 1.26 79.85 1.79 79.85C1.79 79.67 1.79 79.51 1.79 79.35C1.79 53.65 1.79 27.95 1.79 2.24002C1.79 2.08002 1.79 1.92002 1.8 1.76002C1.97 1.78002 2.13 1.82002 2.3 1.82002C24.75 1.82002 47.2 1.82002 69.65 1.82002C69.81 1.82002 69.97 1.82002 70.13 1.82002C70.13 1.98002 70.14 2.14002 70.14 2.30002C70.14 27.99 70.14 53.69 70.14 79.38C70.14 79.54 70.14 79.69 70.14 79.84C70.69 79.84 71.19 79.84 71.72 79.84C71.72 79.67 71.72 79.53 71.72 79.38C71.72 72.2 71.72 65.01 71.72 57.83C71.72 38.8 71.72 19.77 71.72 0.75002C71.72 0.60002 71.68 0.45002 71.66 0.29002ZM1.95 79.77C1.96 79.77 1.97 79.76 1.98 79.76C1.98 53.86 1.98 27.95 1.98 2.05002C1.97 2.05002 1.96 2.05002 1.95 2.05002C1.95 27.96 1.95 53.86 1.95 79.77ZM2.12 2.18002C2.11 2.18002 2.1 2.18002 2.09 2.18002C2.09 28.05 2.09 53.92 2.09 79.79C2.1 79.79 2.11 79.79 2.12 79.79C2.12 53.92 2.12 28.05 2.12 2.18002Z" stroke="black" stroke-width="0.1" stroke-miterlimit="10" stroke-linejoin="round"/>
<path d="M1.8 1.75004C1.8 1.91004 1.79 2.07004 1.79 2.23004C1.79 27.93 1.79 53.63 1.79 79.34C1.79 79.5 1.79 79.66 1.79 79.84C1.26 79.84 0.75 79.84 0.21 79.84C0.21 79.69 0.21 79.56 0.21 79.42C0.21 53.15 0.21 26.89 0.22 0.620039C0.22 0.510039 0.0800001 0.310039 0.35 0.290039C0.83 0.780039 1.31 1.27004 1.8 1.75004Z" fill="white" stroke="black" stroke-width="0.1" stroke-miterlimit="10" stroke-linejoin="round"/>
<path d="M71.66 0.290039C71.68 0.440039 71.72 0.590039 71.72 0.750039C71.72 19.78 71.72 38.81 71.72 57.83C71.72 65.01 71.72 72.2 71.72 79.38C71.72 79.53 71.72 79.67 71.72 79.84C71.19 79.84 70.69 79.84 70.14 79.84C70.14 79.69 70.14 79.53 70.14 79.38C70.14 53.69 70.14 27.99 70.14 2.30004C70.14 2.14004 70.14 1.98004 70.13 1.82004C70.65 1.31004 71.15 0.800039 71.66 0.290039Z" fill="white" stroke="black" stroke-width="0.1" stroke-miterlimit="10" stroke-linejoin="round"/>
<path d="M69.59 79.74C69.58 79.78 69.58 79.86 69.57 79.86C69.47 79.87 69.36 79.87 69.26 79.87C47.08 79.87 24.91 79.87 2.73003 79.87C2.60003 79.87 2.47003 79.83 2.34003 79.81C2.62003 79.32 2.89003 78.84 3.17003 78.35C3.34003 78.33 3.50003 78.29 3.67003 78.29C25.2 78.29 46.73 78.29 68.27 78.29C68.43 78.29 68.59 78.29 68.75 78.28C69.04 78.76 69.31 79.25 69.59 79.74Z" fill="white" stroke="black" stroke-width="0.1" stroke-miterlimit="10" stroke-linejoin="round"/>
<path d="M3.17998 78.34C2.89998 78.83 2.62998 79.31 2.34998 79.8C2.32998 79.65 2.28998 79.5 2.28998 79.34C2.28998 59.08 2.28998 38.82 2.28998 18.55C2.28998 13.28 2.28998 8.01 2.28998 2.74C2.28998 2.6 2.28998 2.46 2.28998 2.31C2.38998 2.33 2.47998 2.34 2.55998 2.36C2.76998 2.45 2.97998 2.55 3.17998 2.64C3.14998 6.3 3.11998 9.95 3.10998 13.6C3.10998 14.91 3.16998 16.22 3.16998 17.53C3.14998 24.88 3.11998 32.23 3.10998 39.58C3.10998 40.95 3.16998 42.31 3.16998 43.68C3.14998 51.08 3.11998 58.47 3.10998 65.87C3.10998 67.34 3.16998 68.81 3.16998 70.28C3.17998 72.97 3.17998 75.66 3.17998 78.34Z" fill="white" stroke="black" stroke-width="0.1" stroke-miterlimit="10" stroke-linejoin="round"/>
<path d="M69.59 79.74C69.31 79.25 69.04 78.77 68.76 78.28C68.78 75.18 68.82 72.09 68.83 68.99C68.83 67.66 68.77 66.32 68.77 64.99C68.79 57.59 68.82 50.2 68.83 42.8C68.83 41.42 68.77 40.04 68.77 38.66C68.79 31.21 68.82 23.75 68.83 16.3C68.83 14.97 68.77 13.63 68.77 12.3C68.76 9.08005 68.76 5.87005 68.76 2.65005C68.99 2.56005 69.22 2.46005 69.46 2.37005C69.52 2.37005 69.57 2.36005 69.66 2.36005C69.66 2.47005 69.66 2.58005 69.66 2.69005C69.66 28.24 69.66 53.8 69.66 79.35C69.65 79.48 69.61 79.61 69.59 79.74Z" fill="white" stroke="black" stroke-width="0.1" stroke-miterlimit="10" stroke-linejoin="round"/>
<path d="M69.45 2.37C69.22 2.46 68.99 2.56 68.75 2.65C68.66 2.65 68.57 2.65 68.47 2.65C46.81 2.65 25.14 2.65 3.47999 2.65C3.37999 2.65 3.26999 2.65 3.16999 2.66C2.96999 2.56 2.75999 2.47 2.54999 2.37C2.65999 2.35 2.75999 2.31 2.86999 2.31C24.96 2.31 47.05 2.31 69.13 2.31C69.24 2.31 69.35 2.35 69.45 2.37Z" fill="white" stroke="black" stroke-width="0.1" stroke-miterlimit="10" stroke-linejoin="round"/>
<path d="M1.95001 79.77C1.95001 53.86 1.95001 27.96 1.95001 2.05005C1.96001 2.05005 1.97001 2.05005 1.98001 2.05005C1.98001 27.95 1.98001 53.86 1.98001 79.76C1.97001 79.76 1.96001 79.77 1.95001 79.77Z" fill="white" stroke="black" stroke-width="0.1" stroke-miterlimit="10" stroke-linejoin="round"/>
<path d="M2.12003 2.17999C2.12003 28.05 2.12003 53.92 2.12003 79.79C2.11003 79.79 2.10003 79.79 2.09003 79.79C2.09003 53.92 2.09003 28.05 2.09003 2.17999C2.10003 2.17999 2.11003 2.17999 2.12003 2.17999Z" fill="white" stroke="black" stroke-width="0.1" stroke-miterlimit="10" stroke-linejoin="round"/>
<path d="M69.77 2.21C47.37 2.21 24.97 2.21 2.56999 2.21C2.51999 2.21 2.47999 2.21 2.42999 2.21C2.42999 2.2 2.42999 2.19 2.42999 2.19C2.60999 2.19 2.79999 2.19 2.97999 2.19C25.06 2.19 47.13 2.19 69.21 2.19C69.4 2.19 69.59 2.2 69.77 2.21Z" fill="white" stroke="black" stroke-width="0.1" stroke-miterlimit="10" stroke-linejoin="round"/>
<path d="M3.18001 2.65001C3.28001 2.65001 3.39001 2.64001 3.49001 2.64001C25.15 2.64001 46.82 2.64001 68.48 2.64001C68.57 2.64001 68.66 2.64001 68.76 2.64001C68.76 5.86001 68.76 9.07001 68.77 12.29C68.77 13.62 68.83 14.96 68.83 16.29C68.81 23.74 68.78 31.2 68.77 38.65C68.77 40.03 68.83 41.41 68.83 42.79C68.81 50.19 68.78 57.58 68.77 64.98C68.77 66.31 68.83 67.65 68.83 68.98C68.82 72.08 68.79 75.17 68.76 78.27C68.6 78.27 68.44 78.28 68.28 78.28C46.75 78.28 25.22 78.28 3.68001 78.28C3.51001 78.28 3.35001 78.32 3.18001 78.34C3.18001 75.65 3.19001 72.97 3.17001 70.28C3.16001 68.81 3.10001 67.34 3.11001 65.87C3.12001 58.47 3.16001 51.08 3.17001 43.68C3.17001 42.31 3.11001 40.95 3.11001 39.58C3.13001 32.23 3.16001 24.88 3.17001 17.53C3.17001 16.22 3.10001 14.91 3.11001 13.6C3.12001 9.95001 3.15001 6.30001 3.18001 2.65001ZM35.28 77.45C35.3 77.3 35.34 77.15 35.34 76.99C35.34 52.55 35.34 28.1 35.34 3.66001C35.34 3.54001 35.35 3.43001 35.33 3.32001C35.32 3.27001 35.25 3.24001 35.2 3.20001C35.25 3.10001 35.3 3.01001 35.38 2.86001C35.23 2.86001 35.17 2.86001 35.12 2.86001C24.7 2.86001 14.28 2.86001 3.87001 2.86001C3.78001 2.86001 3.68001 2.90001 3.59001 2.92001C3.57001 3.05001 3.53001 3.18001 3.53001 3.31001C3.55001 6.72001 3.58001 10.13 3.59001 13.53C3.59001 14.91 3.53001 16.29 3.53001 17.67C3.55001 25.09 3.58001 32.51 3.59001 39.93C3.59001 41.18 3.53001 42.43 3.53001 43.69C3.55001 51.09 3.58001 58.48 3.59001 65.88C3.59001 67.19 3.53001 68.5 3.53001 69.81C3.52001 72.39 3.53001 74.97 3.53001 77.56C3.53001 77.67 3.57001 77.77 3.59001 77.88C3.57001 78.18 3.81001 78 3.89001 78C14.25 78 24.61 78 34.97 78C35.09 78 35.21 78 35.38 78C35.34 77.78 35.31 77.62 35.28 77.45ZM36.52 77.59C36.49 77.72 36.47 77.84 36.44 78C36.58 78 36.67 78 36.76 78C47.19 78 57.61 78 68.04 78C68.15 78 68.25 77.96 68.36 77.94C68.38 77.81 68.42 77.68 68.42 77.55C68.4 74.67 68.37 71.79 68.36 68.91C68.36 67.6 68.42 66.29 68.42 64.98C68.4 57.5 68.37 50.02 68.36 42.54C68.36 41.25 68.42 39.97 68.42 38.68C68.4 31.15 68.37 23.63 68.36 16.1C68.36 14.85 68.41 13.6 68.42 12.34C68.43 11.6 68.42 10.86 68.42 10.13C68.42 7.84001 68.42 5.54001 68.41 3.25001C68.41 3.14001 68.33 3.03001 68.28 2.93001C68.15 2.91001 68.02 2.87001 67.89 2.87001C57.54 2.87001 47.19 2.87001 36.84 2.87001C36.72 2.87001 36.59 2.87001 36.39 2.87001C36.48 3.00001 36.53 3.07001 36.58 3.14001C36.54 3.25001 36.45 3.36001 36.45 3.46001C36.44 28.06 36.44 52.67 36.45 77.27C36.46 77.38 36.5 77.48 36.52 77.59ZM36.35 77.99C36.35 52.93 36.35 27.9 36.35 2.88001C36.03 2.88001 35.74 2.88001 35.44 2.88001C35.44 27.93 35.44 52.96 35.44 77.99C35.76 77.99 36.04 77.99 36.35 77.99Z" fill="white" stroke="black" stroke-width="0.1" stroke-miterlimit="10" stroke-linejoin="round"/>
<path d="M68.28 2.92004C68.32 3.03004 68.41 3.14004 68.41 3.24004C68.42 5.53004 68.42 7.83004 68.42 10.12C68.42 10.86 68.43 11.6 68.42 12.33C68.4 13.58 68.35 14.84 68.36 16.09C68.38 23.62 68.41 31.14 68.42 38.67C68.42 39.96 68.36 41.24 68.36 42.53C68.38 50.01 68.41 57.49 68.42 64.97C68.42 66.28 68.36 67.59 68.36 68.9C68.37 71.78 68.4 74.66 68.42 77.54C68.42 77.67 68.38 77.8 68.36 77.93C68.19 77.7 68.02 77.47 67.85 77.24C66.48 75.3 65.1 73.36 63.73 71.42C63.71 71.23 63.67 71.04 63.67 70.85C63.67 49.62 63.67 28.38 63.67 7.15004C63.67 6.99004 63.67 6.83004 63.66 6.67004C63.75 6.62004 63.84 6.57004 63.92 6.51004C64.86 5.75004 65.8 5.00004 66.74 4.24004C67.25 3.80004 67.76 3.36004 68.28 2.92004Z" fill="white" stroke="black" stroke-width="0.1" stroke-miterlimit="10" stroke-linejoin="round"/>
<path d="M3.59002 77.87C3.57002 77.76 3.53002 77.66 3.53002 77.55C3.53002 74.97 3.52002 72.39 3.53002 69.8C3.54002 68.49 3.60002 67.18 3.59002 65.87C3.57002 58.47 3.54002 51.08 3.53002 43.68C3.53002 42.43 3.59002 41.18 3.59002 39.92C3.57002 32.5 3.54002 25.08 3.53002 17.66C3.53002 16.28 3.59002 14.9 3.59002 13.52C3.58002 10.13 3.55002 6.72004 3.53002 3.31004C3.53002 3.18004 3.57002 3.05004 3.59002 2.92004C3.63002 2.97004 3.67002 3.03004 3.73002 3.07004C4.63002 3.78004 5.53002 4.49004 6.43002 5.20004C7.04002 5.70004 7.67002 6.18004 8.29002 6.67004C8.29002 6.83004 8.28002 6.99004 8.28002 7.15004C8.28002 28.38 8.28002 49.62 8.28002 70.85C8.28002 71.04 8.24002 71.23 8.22002 71.42C8.17002 71.5 8.13002 71.58 8.08002 71.66C7.04002 73.12 5.99002 74.58 4.94002 76.04C4.50002 76.65 4.04002 77.26 3.59002 77.87Z" fill="white" stroke="black" stroke-width="0.1" stroke-miterlimit="10" stroke-linejoin="round"/>
<path d="M36.52 77.59C36.5 77.48 36.46 77.38 36.46 77.27C36.46 52.67 36.46 28.06 36.46 3.46001C36.46 3.35001 36.54 3.24001 36.59 3.14001C36.67 3.22001 36.74 3.32001 36.83 3.39001C37.6 4.01001 38.37 4.62001 39.14 5.23001C39.76 5.72001 40.39 6.19001 41.02 6.67001C41.02 6.83001 41.01 6.99001 41.01 7.15001C41.01 28.38 41.01 49.62 41.01 70.85C41.01 71.04 40.97 71.23 40.95 71.42C40.9 71.5 40.86 71.58 40.81 71.66C40.11 72.64 39.4 73.62 38.7 74.6C37.96 75.6 37.24 76.59 36.52 77.59Z" fill="white" stroke="black" stroke-width="0.1" stroke-miterlimit="10" stroke-linejoin="round"/>
<path d="M35.21 3.20001C35.25 3.24001 35.33 3.27001 35.34 3.32001C35.36 3.43001 35.35 3.55001 35.35 3.66001C35.35 28.1 35.35 52.55 35.35 76.99C35.35 77.14 35.31 77.29 35.29 77.45C35.23 77.37 35.16 77.29 35.1 77.2C33.71 75.25 32.32 73.3 30.93 71.35C30.93 71.2 30.93 71.05 30.93 70.9C30.93 60.45 30.93 50.01 30.93 39.56C30.93 39.42 30.93 39.27 30.93 39.13C31.25 39.13 31.53 39.13 31.83 39.13C31.83 39.43 31.83 39.71 31.83 39.98C32.66 39.98 33.44 39.98 34.22 39.98C34.22 39.17 34.22 38.39 34.22 37.6C33.41 37.6 32.63 37.6 31.8 37.6C31.8 37.9 31.8 38.18 31.8 38.46C31.49 38.46 31.22 38.46 30.92 38.46C30.92 38.29 30.92 38.14 30.92 38C30.92 27.7 30.92 17.41 30.92 7.11001C30.92 6.96001 30.92 6.81001 30.91 6.66001C31.85 5.92001 32.79 5.18001 33.72 4.43001C34.23 4.04001 34.72 3.61001 35.21 3.20001Z" fill="white" stroke="black" stroke-width="0.1" stroke-miterlimit="10" stroke-linejoin="round"/>
<path d="M36.52 77.59C37.24 76.6 37.97 75.6 38.69 74.6C39.4 73.62 40.1 72.64 40.8 71.66C40.85 71.59 40.89 71.5 40.94 71.42C41.07 71.4 41.21 71.36 41.34 71.36C48.67 71.36 56 71.36 63.32 71.36C63.45 71.36 63.59 71.4 63.72 71.42C65.09 73.36 66.47 75.3 67.84 77.24C68.01 77.47 68.18 77.7 68.35 77.93C68.24 77.96 68.14 78 68.03 78C57.6 78 47.18 78 36.75 78C36.66 78 36.57 78 36.43 78C36.47 77.84 36.49 77.72 36.52 77.59Z" fill="white" stroke="black" stroke-width="0.1" stroke-miterlimit="10" stroke-linejoin="round"/>
<path d="M30.93 71.36C32.32 73.31 33.71 75.26 35.1 77.21C35.16 77.29 35.23 77.37 35.29 77.46C35.32 77.63 35.35 77.79 35.38 78.01C35.21 78.01 35.09 78.01 34.97 78.01C24.61 78.01 14.25 78.01 3.88998 78C3.80998 78 3.57998 78.18 3.58998 77.88C4.03998 77.27 4.49998 76.67 4.93998 76.05C5.98998 74.59 7.02998 73.13 8.07998 71.67C8.12998 71.6 8.16998 71.51 8.21998 71.43C8.35998 71.41 8.50998 71.37 8.64998 71.37C14.28 71.37 19.92 71.37 25.55 71.37C27.34 71.36 29.13 71.36 30.93 71.36Z" fill="white" stroke="black" stroke-width="0.1" stroke-miterlimit="10" stroke-linejoin="round"/>
<path d="M41.01 6.67005C40.38 6.19005 39.75 5.71005 39.13 5.23005C38.36 4.61005 37.59 4.00005 36.82 3.38005C36.73 3.31005 36.66 3.22005 36.58 3.13005C36.53 3.06005 36.48 2.99005 36.39 2.86005C36.59 2.86005 36.72 2.86005 36.84 2.86005C47.19 2.86005 57.54 2.86005 67.89 2.86005C68.02 2.86005 68.15 2.90005 68.28 2.92005C67.76 3.36005 67.25 3.80005 66.73 4.23005C65.8 4.99005 64.85 5.75005 63.91 6.50005C63.83 6.56005 63.74 6.61005 63.65 6.66005C56.1 6.67005 48.56 6.67005 41.01 6.67005Z" fill="white" stroke="black" stroke-width="0.1" stroke-miterlimit="10" stroke-linejoin="round"/>
<path d="M35.21 3.20005C34.72 3.61005 34.23 4.04005 33.73 4.44005C32.8 5.19005 31.86 5.93005 30.92 6.67005C23.37 6.67005 15.83 6.67005 8.28002 6.67005C7.67002 6.18005 7.04002 5.70005 6.42002 5.21005C5.52002 4.50005 4.62002 3.79005 3.72002 3.08005C3.67002 3.04005 3.63002 2.98005 3.58002 2.93005C3.68002 2.90005 3.78002 2.86005 3.87002 2.86005C14.29 2.86005 24.71 2.86005 35.12 2.86005C35.18 2.86005 35.23 2.86005 35.38 2.86005C35.31 3.01005 35.26 3.10005 35.21 3.20005Z" fill="white" stroke="black" stroke-width="0.1" stroke-miterlimit="10" stroke-linejoin="round"/>
<path d="M36.35 77.99C36.04 77.99 35.75 77.99 35.44 77.99C35.44 52.95 35.44 27.93 35.44 2.88C35.74 2.88 36.03 2.88 36.35 2.88C36.35 27.9 36.35 52.93 36.35 77.99Z" fill="white" stroke="black" stroke-width="0.1" stroke-miterlimit="10" stroke-linejoin="round"/>
<path d="M41.01 6.67004C48.56 6.67004 56.1 6.67004 63.65 6.67004C63.65 6.83004 63.66 6.99004 63.66 7.15004C63.66 28.38 63.66 49.62 63.66 70.85C63.66 71.04 63.7 71.23 63.72 71.42C63.59 71.4 63.45 71.36 63.32 71.36C55.99 71.36 48.66 71.36 41.34 71.36C41.21 71.36 41.07 71.4 40.94 71.42C40.96 71.23 41 71.04 41 70.85C41 49.62 41 28.38 41 7.15004C41.01 6.99004 41.01 6.83004 41.01 6.67004ZM63.52 71.15C63.54 71.04 63.58 70.94 63.58 70.83C63.58 49.59 63.58 28.35 63.58 7.11004C63.58 7.00004 63.54 6.90004 63.52 6.79004C63.41 6.77004 63.31 6.73004 63.2 6.73004C55.96 6.73004 48.71 6.73004 41.47 6.73004C41.36 6.73004 41.26 6.77004 41.15 6.79004C41.13 6.90004 41.09 7.00004 41.09 7.11004C41.09 28.35 41.09 49.59 41.09 70.83C41.09 70.94 41.13 71.04 41.15 71.15C41.13 71.45 41.37 71.27 41.45 71.27C48.71 71.28 55.97 71.28 63.23 71.28C63.32 71.28 63.41 71.28 63.51 71.27C63.51 71.28 63.51 71.2 63.52 71.15Z" fill="white" stroke="black" stroke-width="0.1" stroke-miterlimit="10" stroke-linejoin="round"/>
<path d="M8.28999 6.67004C15.84 6.67004 23.38 6.67004 30.93 6.67004C30.93 6.82004 30.94 6.97004 30.94 7.12004C30.94 17.42 30.94 27.71 30.94 38.01C30.94 38.16 30.94 38.31 30.94 38.47C31.24 38.47 31.51 38.47 31.82 38.47C31.82 38.2 31.82 37.92 31.82 37.61C32.64 37.61 33.43 37.61 34.24 37.61C34.24 38.4 34.24 39.18 34.24 39.99C33.46 39.99 32.68 39.99 31.85 39.99C31.85 39.72 31.85 39.44 31.85 39.14C31.54 39.14 31.27 39.14 30.95 39.14C30.95 39.28 30.95 39.42 30.95 39.57C30.95 50.02 30.95 60.46 30.95 70.91C30.95 71.06 30.95 71.21 30.95 71.36C29.16 71.36 27.36 71.37 25.57 71.37C19.94 71.37 14.3 71.37 8.66999 71.37C8.52999 71.37 8.37999 71.41 8.23999 71.43C8.25999 71.24 8.29999 71.05 8.29999 70.86C8.29999 49.63 8.29999 28.39 8.29999 7.16004C8.27999 6.99004 8.28999 6.83004 8.28999 6.67004ZM30.58 7.01004C30.56 7.17004 30.52 7.32004 30.52 7.48004C30.52 17.67 30.52 27.86 30.52 38.05C30.52 38.15 30.52 38.26 30.52 38.36C30.52 38.39 30.54 38.42 30.55 38.46C30.65 38.46 30.74 38.46 30.86 38.46C30.86 38.35 30.86 38.26 30.86 38.17C30.86 27.82 30.86 17.46 30.86 7.11004C30.86 7.00004 30.82 6.90004 30.8 6.79004C30.69 6.77004 30.59 6.73004 30.48 6.73004C23.24 6.73004 15.99 6.73004 8.74999 6.73004C8.63999 6.73004 8.53999 6.77004 8.42999 6.79004C8.39999 6.90004 8.35999 7.01004 8.35999 7.12004C8.35999 28.36 8.35999 49.6 8.35999 70.84C8.35999 70.95 8.39999 71.05 8.41999 71.16C8.39999 71.46 8.63999 71.28 8.71999 71.28C15.98 71.29 23.24 71.29 30.5 71.29C30.59 71.29 30.68 71.29 30.78 71.28C30.79 71.28 30.8 71.2 30.8 71.16C30.82 71.04 30.86 70.92 30.86 70.81C30.86 60.38 30.86 49.94 30.86 39.51C30.86 39.39 30.86 39.26 30.86 39.14C30.73 39.14 30.64 39.14 30.53 39.14C30.52 39.25 30.52 39.36 30.52 39.46C30.52 49.84 30.52 60.21 30.52 70.59C30.52 70.71 30.56 70.83 30.58 70.95C27.21 70.95 23.84 70.96 20.47 70.96C16.52 70.96 12.58 70.96 8.62999 70.95C8.62999 70.86 8.62999 70.77 8.62999 70.67C8.62999 49.56 8.62999 28.44 8.62999 7.33004C8.62999 7.23004 8.62999 7.12004 8.63999 7.02004C15.95 7.01004 23.26 7.01004 30.58 7.01004ZM30.43 7.11004C23.17 7.11004 15.94 7.11004 8.70999 7.11004C8.70999 28.37 8.70999 49.61 8.70999 70.85C15.96 70.85 23.18 70.85 30.41 70.85C30.41 60.26 30.41 49.69 30.41 39.1C29.88 39.1 29.38 39.1 28.88 39.1C28.81 38.49 28.81 38.49 29.38 38.49C29.73 38.49 30.08 38.49 30.44 38.49C30.43 28 30.43 17.57 30.43 7.11004ZM31.92 37.67C31.92 37.96 31.92 38.22 31.92 38.49C32.31 38.49 32.68 38.5 33.05 38.49C33.28 38.48 33.35 38.57 33.35 38.8C33.35 39.03 33.29 39.14 33.04 39.13C32.67 39.11 32.29 39.13 31.91 39.13C31.91 39.43 31.91 39.67 31.91 39.93C32.67 39.93 33.41 39.93 34.14 39.93C34.14 39.17 34.14 38.43 34.14 37.68C33.39 37.67 32.67 37.67 31.92 37.67ZM28.98 38.81C28.99 38.84 29 38.86 29.01 38.89C30.24 38.89 31.47 38.89 32.71 38.89C32.72 38.86 32.73 38.84 32.74 38.81C32.67 38.78 32.6 38.71 32.53 38.71C31.42 38.7 30.3 38.7 29.19 38.71C29.12 38.71 29.05 38.77 28.98 38.81ZM29.11 38.99C29.11 39 29.11 39.01 29.11 39.02C30.28 39.02 31.45 39.02 32.62 39.02C32.62 39.01 32.62 39 32.62 38.99C31.44 38.99 30.27 38.99 29.11 38.99Z" fill="white" stroke="black" stroke-width="0.1" stroke-miterlimit="10" stroke-linejoin="round"/>
<path d="M41.14 71.15C41.12 71.04 41.08 70.94 41.08 70.83C41.08 49.59 41.08 28.35 41.08 7.11004C41.08 7.00004 41.12 6.90004 41.14 6.79004C41.21 6.86004 41.28 6.93004 41.35 7.00004C41.35 7.12004 41.34 7.23004 41.34 7.35004C41.34 28.44 41.34 49.53 41.34 70.62C41.34 70.72 41.34 70.83 41.34 70.93C41.28 71.01 41.21 71.08 41.14 71.15Z" fill="white" stroke="black" stroke-width="0.1" stroke-miterlimit="10" stroke-linejoin="round"/>
<path d="M63.51 6.80005C63.53 6.91005 63.57 7.01005 63.57 7.12005C63.57 28.36 63.57 49.6 63.57 70.84C63.57 70.95 63.53 71.05 63.51 71.16C63.44 71.09 63.37 71.02 63.3 70.95C63.3 70.87 63.3 70.79 63.3 70.71C63.3 49.57 63.3 28.44 63.3 7.30005C63.3 7.21005 63.3 7.12005 63.29 7.02005C63.37 6.94005 63.44 6.87005 63.51 6.80005Z" fill="white" stroke="black" stroke-width="0.1" stroke-miterlimit="10" stroke-linejoin="round"/>
<path d="M63.3 70.94C63.37 71.01 63.44 71.08 63.51 71.15C63.5 71.19 63.5 71.27 63.49 71.27C63.4 71.28 63.31 71.28 63.21 71.28C55.95 71.28 48.69 71.28 41.43 71.27C41.35 71.27 41.12 71.45 41.13 71.15C41.2 71.08 41.27 71.01 41.34 70.94C45.95 70.94 50.57 70.95 55.18 70.95C57.9 70.95 60.6 70.94 63.3 70.94Z" fill="white" stroke="black" stroke-width="0.1" stroke-miterlimit="10" stroke-linejoin="round"/>
<path d="M63.51 6.79999C63.44 6.86999 63.37 6.93999 63.3 7.00999C55.98 7.00999 48.67 7.00999 41.35 7.00999C41.28 6.93999 41.21 6.86999 41.14 6.79999C41.25 6.77999 41.35 6.73999 41.46 6.73999C48.7 6.73999 55.95 6.73999 63.19 6.73999C63.3 6.73999 63.41 6.77999 63.51 6.79999Z" fill="white" stroke="black" stroke-width="0.1" stroke-miterlimit="10" stroke-linejoin="round"/>
<path d="M30.43 7.11005C30.43 17.57 30.43 28 30.43 38.49C30.08 38.49 29.73 38.49 29.37 38.49C28.81 38.49 28.81 38.49 28.87 39.1C29.37 39.1 29.87 39.1 30.4 39.1C30.4 49.69 30.4 60.26 30.4 70.85C23.18 70.85 15.95 70.85 8.70001 70.85C8.70001 49.61 8.70001 28.37 8.70001 7.11005C15.95 7.11005 23.17 7.11005 30.43 7.11005Z" fill="white" stroke="black" stroke-width="0.1" stroke-miterlimit="10" stroke-linejoin="round"/>
<path d="M8.62998 7.01004C8.62998 7.11004 8.61998 7.22004 8.61998 7.32004C8.61998 28.43 8.61998 49.55 8.61998 70.66C8.61998 70.75 8.61998 70.84 8.61998 70.94C8.54998 71.01 8.47998 71.08 8.40998 71.15C8.38998 71.04 8.34998 70.94 8.34998 70.83C8.34998 49.59 8.34998 28.35 8.34998 7.11004C8.34998 7.00004 8.38998 6.90004 8.40998 6.79004C8.48998 6.87004 8.55998 6.94004 8.62998 7.01004Z" fill="white" stroke="black" stroke-width="0.1" stroke-miterlimit="10" stroke-linejoin="round"/>
<path d="M30.58 70.94C30.56 70.82 30.52 70.7 30.52 70.58C30.52 60.2 30.52 49.83 30.52 39.45C30.52 39.35 30.53 39.25 30.53 39.13C30.64 39.13 30.72 39.13 30.86 39.13C30.86 39.25 30.86 39.38 30.86 39.5C30.86 49.93 30.86 60.37 30.86 70.8C30.86 70.92 30.82 71.04 30.8 71.15C30.72 71.08 30.65 71.01 30.58 70.94Z" fill="white" stroke="black" stroke-width="0.1" stroke-miterlimit="10" stroke-linejoin="round"/>
<path d="M30.79 6.80005C30.81 6.91005 30.85 7.01005 30.85 7.12005C30.85 17.47 30.85 27.83 30.85 38.18C30.85 38.27 30.85 38.3601 30.85 38.4701C30.73 38.4701 30.64 38.4701 30.54 38.4701C30.53 38.4301 30.52 38.4 30.51 38.37C30.51 38.27 30.51 38.1601 30.51 38.0601C30.51 27.8701 30.51 17.68 30.51 7.49005C30.51 7.33005 30.55 7.18005 30.57 7.02005C30.65 6.94005 30.72 6.87005 30.79 6.80005Z" fill="white" stroke="black" stroke-width="0.1" stroke-miterlimit="10" stroke-linejoin="round"/>
<path d="M30.58 70.94C30.65 71.01 30.72 71.08 30.79 71.15C30.78 71.19 30.78 71.27 30.77 71.27C30.68 71.28 30.59 71.28 30.49 71.28C23.23 71.28 15.97 71.28 8.70998 71.27C8.62998 71.27 8.39998 71.45 8.40998 71.15C8.47998 71.08 8.54998 71.01 8.61998 70.94C12.57 70.94 16.51 70.95 20.46 70.95C23.84 70.95 27.21 70.94 30.58 70.94Z" fill="white" stroke="black" stroke-width="0.1" stroke-miterlimit="10" stroke-linejoin="round"/>
<path d="M30.79 6.79999C30.72 6.86999 30.65 6.93999 30.58 7.00999C23.26 7.00999 15.95 7.00999 8.62998 7.00999C8.55998 6.93999 8.48998 6.86999 8.41998 6.79999C8.52998 6.77999 8.62998 6.73999 8.73998 6.73999C15.98 6.73999 23.23 6.73999 30.47 6.73999C30.58 6.73999 30.69 6.77999 30.79 6.79999Z" fill="white" stroke="black" stroke-width="0.1" stroke-miterlimit="10" stroke-linejoin="round"/>
<path d="M31.92 37.67C32.67 37.67 33.39 37.67 34.14 37.67C34.14 38.41 34.14 39.15 34.14 39.92C33.41 39.92 32.67 39.92 31.91 39.92C31.91 39.66 31.91 39.41 31.91 39.12C32.29 39.12 32.66 39.11 33.04 39.12C33.29 39.13 33.35 39.02 33.35 38.79C33.35 38.57 33.28 38.48 33.05 38.48C32.68 38.49 32.32 38.48 31.92 38.48C31.92 38.22 31.92 37.96 31.92 37.67Z" fill="white" stroke="black" stroke-width="0.1" stroke-miterlimit="10" stroke-linejoin="round"/>
<path d="M28.98 38.81C29.05 38.78 29.12 38.71 29.19 38.71C30.3 38.7 31.42 38.7 32.53 38.71C32.6 38.71 32.67 38.77 32.74 38.81C32.73 38.84 32.72 38.86 32.71 38.89C31.48 38.89 30.25 38.89 29.01 38.89C29 38.86 28.99 38.83 28.98 38.81Z" fill="white" stroke="black" stroke-width="0.1" stroke-miterlimit="10" stroke-linejoin="round"/>
<path d="M29.11 38.99C30.28 38.99 31.45 38.99 32.62 38.99C32.62 39 32.62 39.01 32.62 39.02C31.45 39.02 30.28 39.02 29.11 39.02C29.11 39.01 29.11 39 29.11 38.99Z" fill="white" stroke="black" stroke-width="0.1" stroke-miterlimit="10" stroke-linejoin="round"/>
<path d="M41.36 7.01001C48.68 7.01001 55.99 7.01001 63.31 7.01001C63.31 7.10001 63.32 7.19001 63.32 7.29001C63.32 28.43 63.32 49.56 63.32 70.7C63.32 70.78 63.32 70.86 63.32 70.94C60.62 70.94 57.91 70.95 55.21 70.95C50.6 70.95 45.98 70.95 41.37 70.94C41.37 70.84 41.37 70.73 41.37 70.63C41.37 49.54 41.37 28.45 41.37 7.36001C41.35 7.24001 41.35 7.13001 41.36 7.01001ZM63.21 70.87C63.21 49.59 63.21 28.35 63.21 7.11001C55.94 7.11001 48.7 7.11001 41.45 7.11001C41.45 28.38 41.45 49.62 41.45 70.87C48.71 70.87 55.95 70.87 63.21 70.87Z" fill="white" stroke="black" stroke-width="0.1" stroke-miterlimit="10" stroke-linejoin="round"/>
<path d="M63.21 70.87C55.95 70.87 48.71 70.87 41.45 70.87C41.45 49.62 41.45 28.37 41.45 7.11005C48.7 7.11005 55.94 7.11005 63.21 7.11005C63.21 28.34 63.21 49.59 63.21 70.87Z" fill="white" stroke="black" stroke-width="0.1" stroke-miterlimit="10" stroke-linejoin="round"/>
</g>
<defs>
<clipPath id="clip0_469_946">
<rect width="72" height="80" fill="white"/>
</clipPath>
</defs>
</svg>
