<svg width="44" height="95" viewBox="0 0 44 95" fill="none" xmlns="http://www.w3.org/2000/svg">
<g clip-path="url(#clip0_469_932)">
<path d="M4.06998 14.83L0.47998 12.81H43.54L40.12 14.83H4.06998Z" fill="white"/>
<path d="M43.09 12.93L40.09 14.7H4.14L0.96 12.93H43.09ZM44 12.68H0L4.07 14.95H40.15L44 12.68Z" fill="#231F20"/>
<path d="M4.07 14.88V93.97H0L0.14 12.68L4.07 14.88Z" fill="white" stroke="#231F20" stroke-width="0.25" stroke-miterlimit="10"/>
<path d="M40.16 14.88V93.97H44L43.87 12.68L40.16 14.88Z" fill="white" stroke="#231F20" stroke-width="0.25" stroke-miterlimit="10"/>
<path d="M40.15 14.95H4.07001V93.97H40.15V14.95Z" fill="white" stroke="#231F20" stroke-width="0.2" stroke-miterlimit="10" stroke-linecap="round" stroke-linejoin="round"/>
<path d="M42.58 53.34H37.93V51.22H43.24V52.68C43.24 53.04 42.94 53.34 42.58 53.34Z" fill="white" stroke="#231F20" stroke-width="0.2" stroke-miterlimit="10"/>
<path d="M35.74 52.94C35.73 53.16 35.91 53.35 36.13 53.35H37.92C37.92 53.35 38.5 53.52 38.91 53.07C39.32 52.63 39.98 52.3 40.56 52.44C41.14 52.58 42.02 53.07 42.62 52.77C43.23 52.47 43.34 52.41 43.34 52.41V49.45C43.34 49.23 43.17 49.06 42.95 49.06H36.28C36.07 49.06 35.9 49.22 35.89 49.43L35.74 52.94Z" fill="white" stroke="#231F20" stroke-width="0.2" stroke-miterlimit="10"/>
<path d="M38.08 54.42H35.74V56.76H38.08V54.42Z" fill="white" stroke="#231F20" stroke-width="0.2" stroke-miterlimit="10"/>
<path d="M37.21 55.22H32.7V55.85H37.21V55.22Z" fill="white" stroke="#231F20" stroke-width="0.2" stroke-miterlimit="10" stroke-linecap="round" stroke-linejoin="round"/>
<path d="M43.91 11.98H0.22998V12.68H43.91V11.98Z" fill="white" stroke="#231F20" stroke-width="0.25" stroke-miterlimit="10"/>
<path d="M43.91 0.130005H0.150024V11.98H43.91V0.130005Z" fill="white" stroke="#231F20" stroke-width="0.25" stroke-miterlimit="10"/>
<path d="M44 93.92H0.140015V95H44V93.92Z" fill="white" stroke="#231F20" stroke-width="0.25" stroke-miterlimit="10"/>
</g>
<defs>
<clipPath id="clip0_469_932">
<rect width="44" height="95" fill="white"/>
</clipPath>
</defs>
</svg>
