<svg width="152" height="95" viewBox="0 0 152 95" fill="none" xmlns="http://www.w3.org/2000/svg">
<g clip-path="url(#clip0_476_187)">
<path d="M75.95 95.18C50.82 95.18 25.68 95.18 0.550012 95.18C-0.0399877 95.18 -0.0399878 95.18 -0.0399878 94.58C-0.0399878 63.29 -0.0399878 32.01 -0.0499878 0.719974C-0.0499878 0.269974 0.0400122 0.0999743 0.530012 0.119974C1.57001 0.159974 2.62001 0.139974 3.67001 0.129974C3.94001 0.129974 4.07001 0.169974 4.07001 0.489974C4.07001 1.40997 4.08001 1.40997 4.98001 1.40997C52.31 1.40997 99.63 1.40997 146.96 1.40997C147.07 1.40997 147.17 1.40997 147.28 1.40997C147.87 1.40997 147.87 1.40997 147.87 0.799974C147.87 0.709974 147.88 0.619974 147.87 0.529974C147.82 0.209974 147.95 0.119974 148.27 0.129974C149.39 0.149974 150.51 0.139974 151.64 0.129974C151.89 0.129974 152.01 0.189974 151.98 0.459974C151.97 0.559974 151.98 0.669974 151.98 0.779974C151.98 32.04 151.98 63.29 151.98 94.54C151.98 95.18 151.98 95.18 151.33 95.18C126.19 95.18 101.07 95.18 75.95 95.18Z" fill="black"/>
<path d="M75.91 10.4999C52.14 10.4999 28.37 10.4999 4.6 10.4999C3.96 10.4999 3.96 10.4999 3.96 11.1599C3.96 38.8399 3.96 66.5199 3.96 94.1999C3.96 94.8199 3.96 94.8199 3.33 94.8199C2.36 94.8199 1.39 94.8099 0.419998 94.8299C0.119998 94.8399 0.00999831 94.7399 0.0499983 94.4499C0.0599983 94.3499 0.0499983 94.2399 0.0499983 94.1299C0.0499983 63.0699 0.0499983 32.0099 0.0499983 0.949945C0.0499983 0.839945 0.0599983 0.739945 0.0499983 0.629945C-1.68849e-06 0.299945 0.119998 0.209945 0.439998 0.209945C1.47 0.229945 2.5 0.229945 3.53 0.209945C3.86 0.199945 3.97 0.279945 3.96 0.629945C3.94 2.64995 3.96 4.65995 3.94 6.67995C3.94 7.09995 4.02 7.23995 4.47 7.22995C7.55 7.20995 10.62 7.21995 13.7 7.21995C58.18 7.21995 102.66 7.21995 147.14 7.21995C147.28 7.21995 147.42 7.19995 147.55 7.21995C147.88 7.26995 147.95 7.11995 147.94 6.80995C147.93 4.75995 147.94 2.71995 147.92 0.669945C147.92 0.279945 148.03 0.189945 148.4 0.199945C149.43 0.229945 150.46 0.219945 151.49 0.199945C151.78 0.199945 151.88 0.279945 151.84 0.559945C151.83 0.659945 151.84 0.769945 151.84 0.879945C151.84 31.9699 151.84 63.0599 151.84 94.1499C151.84 94.7999 151.84 94.7999 151.19 94.7999C150.22 94.7999 149.25 94.7899 148.28 94.8099C148.01 94.8099 147.88 94.7499 147.92 94.4599C147.94 94.3399 147.92 94.2199 147.92 94.0999C147.92 66.4799 147.92 38.8599 147.92 11.2399C147.92 11.0999 147.91 10.9699 147.92 10.8299C147.95 10.5799 147.87 10.4599 147.6 10.4899C147.47 10.5099 147.33 10.4899 147.19 10.4899C123.45 10.4999 99.68 10.4999 75.91 10.4999Z" fill="white"/>
<path d="M75.95 5.58997C99.72 5.58997 123.49 5.58997 147.26 5.58997C147.86 5.58997 147.86 5.58997 147.86 6.18997C147.86 7.13997 147.86 7.13997 146.93 7.13997C99.56 7.13997 52.19 7.13997 4.82 7.13997C4.7 7.13997 4.58 7.12997 4.46 7.13997C4.14 7.18997 4.05 7.05997 4.06 6.73997C4.07 5.58997 4.05 5.58997 5.21 5.58997C28.78 5.58997 52.36 5.58997 75.95 5.58997Z" fill="white"/>
<path d="M75.95 93.36C99.72 93.36 123.49 93.36 147.25 93.36C147.95 93.36 147.85 93.26 147.85 93.95C147.86 94.81 147.85 94.81 147.01 94.81C99.63 94.81 52.24 94.81 4.86001 94.81C4.74001 94.81 4.62001 94.8 4.50001 94.81C4.15001 94.86 4.04001 94.74 4.04001 94.37C4.06001 93.35 4.04001 93.35 5.05001 93.35C28.69 93.36 52.32 93.36 75.95 93.36Z" fill="white"/>
<path d="M75.91 58.98C52.17 58.98 28.43 58.98 4.70001 58.97C4.49001 58.97 4.16001 59.11 4.09001 58.86C4.00001 58.52 4.06001 58.14 4.07001 57.78C4.07001 57.7 4.19001 57.71 4.26001 57.71C4.41001 57.71 4.56001 57.71 4.71001 57.71C52.2 57.71 99.69 57.71 147.18 57.71C147.29 57.71 147.39 57.72 147.5 57.71C147.79 57.67 147.85 57.8 147.85 58.07C147.86 58.99 147.87 58.99 146.97 58.99C123.29 58.98 99.6 58.98 75.91 58.98Z" fill="white"/>
<path d="M75.95 73.89C99.7 73.89 123.46 73.89 147.21 73.9C147.42 73.9 147.76 73.77 147.82 74C147.91 74.34 147.85 74.72 147.83 75.08C147.83 75.16 147.72 75.16 147.64 75.16C147.49 75.16 147.34 75.16 147.19 75.16C99.7 75.16 52.21 75.16 4.72001 75.16C4.63001 75.16 4.54001 75.15 4.45001 75.16C4.13001 75.21 4.04001 75.08 4.04001 74.76C4.05001 73.88 4.04001 73.88 4.92001 73.88C28.6 73.89 52.28 73.89 75.95 73.89Z" fill="white"/>
<path d="M75.95 38.42C99.7 38.42 123.46 38.42 147.21 38.43C147.42 38.43 147.76 38.3 147.82 38.53C147.91 38.87 147.85 39.25 147.84 39.61C147.84 39.69 147.73 39.69 147.65 39.69C147.5 39.69 147.35 39.69 147.2 39.69C99.71 39.69 52.22 39.69 4.73002 39.69C4.64002 39.69 4.55002 39.68 4.46002 39.69C4.14002 39.74 4.05002 39.61 4.05002 39.29C4.06002 38.41 4.05002 38.41 4.93002 38.41C28.6 38.42 52.28 38.42 75.95 38.42Z" fill="white"/>
<path d="M76 28.78C99.75 28.78 123.51 28.78 147.26 28.79C147.45 28.79 147.76 28.66 147.83 28.89C147.91 29.2 147.86 29.55 147.84 29.88C147.84 29.96 147.72 29.96 147.65 29.96C147.5 29.96 147.35 29.96 147.2 29.96C99.71 29.96 52.22 29.96 4.73 29.96C4.62 29.96 4.52 29.95 4.41 29.96C4.12 30 4.06 29.88 4.06 29.6C4.06 28.77 4.05 28.77 4.89 28.77C28.59 28.78 52.3 28.78 76 28.78Z" fill="white"/>
<path d="M76.01 41.7C99.76 41.7 123.52 41.7 147.27 41.71C147.46 41.71 147.77 41.57 147.83 41.82C147.91 42.13 147.86 42.48 147.84 42.81C147.84 42.89 147.72 42.88 147.65 42.89C147.5 42.89 147.35 42.89 147.2 42.89C99.71 42.89 52.22 42.89 4.73 42.89C4.62 42.89 4.52 42.88 4.41 42.89C4.12 42.93 4.06 42.8 4.06 42.53C4.06 41.7 4.05 41.7 4.85 41.7C28.56 41.7 52.28 41.7 76.01 41.7Z" fill="white"/>
<path d="M75.98 64.25C99.72 64.25 123.46 64.25 147.19 64.25C147.41 64.25 147.75 64.13 147.82 64.33C147.92 64.63 147.85 64.99 147.85 65.32C147.85 65.41 147.75 65.42 147.68 65.42C147.54 65.42 147.41 65.42 147.27 65.42C99.73 65.42 52.2 65.42 4.66001 65.41C4.47001 65.41 4.15001 65.54 4.09001 65.31C4.00001 65.02 4.06001 64.67 4.07001 64.33C4.07001 64.25 4.18001 64.25 4.26001 64.25C4.41001 64.25 4.56001 64.25 4.71001 64.25C28.47 64.25 52.22 64.25 75.98 64.25Z" fill="white"/>
<path d="M75.95 31.96C99.72 31.96 123.49 31.96 147.25 31.97C147.44 31.97 147.76 31.84 147.82 32.07C147.9 32.38 147.85 32.73 147.83 33.06C147.83 33.14 147.72 33.14 147.64 33.14C147.47 33.14 147.31 33.14 147.14 33.14C99.69 33.14 52.25 33.14 4.80001 33.14C4.55001 33.14 4.18001 33.27 4.08001 33.05C3.96001 32.79 4.04001 32.43 4.04001 32.11C4.04001 31.99 4.12001 31.96 4.22001 31.96C4.37001 31.96 4.52001 31.96 4.67001 31.96C28.45 31.96 52.2 31.96 75.95 31.96Z" fill="white"/>
<path d="M75.96 91.27C52.19 91.27 28.42 91.27 4.66001 91.26C4.47001 91.26 4.16001 91.39 4.09001 91.16C4.00001 90.85 4.06001 90.5 4.07001 90.16C4.07001 90.08 4.19001 90.08 4.26001 90.08C4.41001 90.08 4.56001 90.08 4.71001 90.08C52.2 90.08 99.69 90.08 147.18 90.08C147.27 90.08 147.36 90.09 147.45 90.08C147.77 90.03 147.86 90.16 147.85 90.48C147.84 91.26 147.85 91.26 147.06 91.26C123.37 91.27 99.66 91.27 75.96 91.27Z" fill="white"/>
<path d="M76 86.9C99.75 86.9 123.51 86.9 147.26 86.91C147.45 86.91 147.76 86.78 147.83 87.01C147.91 87.32 147.86 87.67 147.84 88C147.84 88.08 147.72 88.08 147.65 88.08C147.5 88.08 147.35 88.08 147.2 88.08C99.71 88.08 52.22 88.08 4.73002 88.08C4.62002 88.08 4.52002 88.07 4.41002 88.08C4.11002 88.13 4.05002 88 4.05002 87.73C4.05002 86.9 4.04002 86.9 4.84002 86.9C28.56 86.9 52.28 86.9 76 86.9Z" fill="white"/>
<path d="M76.01 83.63C99.76 83.63 123.52 83.63 147.27 83.64C147.46 83.64 147.77 83.5 147.83 83.75C147.91 84.06 147.86 84.41 147.84 84.74C147.84 84.81 147.72 84.81 147.65 84.81C147.5 84.81 147.35 84.81 147.2 84.81C99.71 84.81 52.22 84.81 4.73 84.81C4.62 84.81 4.52 84.8 4.41 84.81C4.12 84.85 4.06 84.72 4.06 84.45C4.06 83.63 4.05 83.63 4.85 83.63C28.56 83.63 52.28 83.63 76.01 83.63Z" fill="white"/>
<path d="M76.01 19.0499C99.76 19.0499 123.52 19.0499 147.27 19.0599C147.46 19.0599 147.77 18.9199 147.83 19.1699C147.91 19.4799 147.86 19.8299 147.84 20.1599C147.84 20.2399 147.72 20.2299 147.65 20.2399C147.5 20.2399 147.35 20.2399 147.2 20.2399C99.71 20.2399 52.22 20.2399 4.73 20.2399C4.62 20.2399 4.52 20.2299 4.41 20.2399C4.12 20.2799 4.06 20.1499 4.06 19.8799C4.06 19.0499 4.05 19.0499 4.85 19.0499C28.56 19.0499 52.28 19.0499 76.01 19.0499Z" fill="white"/>
<path d="M75.9 62.1599C52.15 62.1599 28.39 62.1599 4.64001 62.1499C4.45001 62.1499 4.14001 62.2899 4.08001 62.0399C4.00001 61.7299 4.06001 61.3899 4.08001 61.0499C4.08001 60.9799 4.20001 60.9799 4.28001 60.9799C4.43001 60.9799 4.58001 60.9799 4.73001 60.9799C52.22 60.9799 99.71 60.9799 147.2 60.9799C147.31 60.9799 147.41 60.9899 147.52 60.9799C147.81 60.9399 147.87 61.0699 147.87 61.3399C147.87 62.1599 147.88 62.1599 147.08 62.1599C123.35 62.1599 99.63 62.1599 75.9 62.1599Z" fill="white"/>
<path d="M75.96 13.77C52.19 13.77 28.42 13.77 4.66001 13.76C4.47001 13.76 4.15001 13.89 4.09001 13.66C4.00001 13.36 4.06001 13.01 4.07001 12.67C4.07001 12.59 4.18001 12.59 4.26001 12.59C4.41001 12.59 4.56001 12.59 4.71001 12.59C52.2 12.59 99.69 12.59 147.18 12.59C147.27 12.59 147.36 12.6 147.45 12.59C147.77 12.54 147.86 12.67 147.85 12.99C147.84 13.78 147.85 13.78 147.06 13.78C123.37 13.77 99.67 13.77 75.96 13.77Z" fill="white"/>
<path d="M76.01 35.24C99.76 35.24 123.52 35.24 147.27 35.25C147.46 35.25 147.77 35.11 147.83 35.36C147.91 35.67 147.85 36.0199 147.84 36.3499C147.84 36.4199 147.72 36.4199 147.64 36.4199C147.49 36.4199 147.34 36.4199 147.19 36.4199C99.7 36.4199 52.21 36.4199 4.72002 36.4199C4.61002 36.4199 4.51002 36.4099 4.40002 36.4199C4.11002 36.4599 4.05002 36.33 4.05002 36.06C4.05002 35.24 4.04002 35.24 4.84002 35.24C28.56 35.24 52.28 35.24 76.01 35.24Z" fill="white"/>
<path d="M76.01 80.44C99.76 80.44 123.52 80.44 147.27 80.45C147.46 80.45 147.77 80.31 147.83 80.56C147.91 80.87 147.85 81.22 147.84 81.55C147.84 81.62 147.72 81.62 147.64 81.62C147.49 81.62 147.34 81.62 147.19 81.62C99.7 81.62 52.21 81.62 4.72002 81.62C4.61002 81.62 4.51002 81.61 4.40002 81.62C4.11002 81.66 4.05002 81.53 4.05002 81.26C4.05002 80.44 4.04002 80.44 4.84002 80.44C28.56 80.44 52.28 80.44 76.01 80.44Z" fill="white"/>
<path d="M75.95 16.9599C52.18 16.9599 28.41 16.96 4.65002 16.95C4.46002 16.95 4.15002 17.08 4.08002 16.85C4.00002 16.53 4.06002 16.19 4.07002 15.85C4.07002 15.77 4.19002 15.77 4.26002 15.77C4.41002 15.77 4.56002 15.77 4.71002 15.77C52.2 15.77 99.69 15.77 147.18 15.77C147.29 15.77 147.39 15.78 147.5 15.77C147.79 15.73 147.85 15.8499 147.85 16.1299C147.85 16.9599 147.86 16.9599 147.02 16.9599C123.34 16.9599 99.65 16.9599 75.95 16.9599Z" fill="white"/>
<path d="M75.91 78.35C52.16 78.35 28.4 78.3499 4.65001 78.3399C4.46001 78.3399 4.15001 78.48 4.09001 78.23C4.00001 77.92 4.06001 77.5799 4.07001 77.2399C4.07001 77.1699 4.19001 77.17 4.26001 77.17C4.41001 77.17 4.56001 77.17 4.71001 77.17C52.2 77.17 99.69 77.17 147.18 77.17C147.29 77.17 147.39 77.18 147.5 77.17C147.79 77.13 147.85 77.26 147.85 77.53C147.85 78.35 147.86 78.35 147.06 78.35C123.35 78.35 99.63 78.35 75.91 78.35Z" fill="white"/>
<path d="M75.91 46.15C52.16 46.15 28.4 46.15 4.65002 46.14C4.46002 46.14 4.15002 46.27 4.08002 46.04C4.00002 45.73 4.06002 45.38 4.07002 45.05C4.07002 44.97 4.19002 44.97 4.26002 44.97C4.41002 44.97 4.56002 44.97 4.71002 44.97C52.2 44.97 99.69 44.97 147.18 44.97C147.29 44.97 147.39 44.98 147.5 44.97C147.79 44.93 147.85 45.05 147.85 45.33C147.85 46.16 147.86 46.16 147.02 46.16C123.32 46.15 99.62 46.15 75.91 46.15Z" fill="white"/>
<path d="M75.9 55.7C52.15 55.7 28.39 55.7 4.64001 55.69C4.45001 55.69 4.14001 55.83 4.08001 55.58C4.00001 55.28 4.06001 54.93 4.08001 54.59C4.08001 54.52 4.20001 54.52 4.28001 54.52C4.43001 54.52 4.58001 54.52 4.73001 54.52C52.22 54.52 99.71 54.52 147.2 54.52C147.31 54.52 147.41 54.53 147.52 54.52C147.81 54.48 147.87 54.62 147.87 54.88C147.87 55.7 147.88 55.7 147.08 55.7C123.35 55.7 99.63 55.7 75.9 55.7Z" fill="white"/>
<path d="M76 70.71C99.75 70.71 123.51 70.71 147.26 70.72C147.45 70.72 147.76 70.59 147.82 70.83C147.9 71.14 147.85 71.49 147.83 71.82C147.83 71.9 147.71 71.9 147.64 71.9C147.49 71.9 147.34 71.9 147.19 71.9C99.7 71.9 52.21 71.9 4.72002 71.9C4.61002 71.9 4.51002 71.89 4.40002 71.9C4.11002 71.94 4.05002 71.81 4.05002 71.54C4.05002 70.71 4.04002 70.71 4.84002 70.71C28.56 70.71 52.28 70.71 76 70.71Z" fill="white"/>
<path d="M75.9 23.51C52.15 23.51 28.39 23.51 4.64002 23.5C4.45002 23.5 4.14002 23.64 4.08002 23.39C4.00002 23.08 4.06002 22.73 4.07002 22.4C4.07002 22.33 4.19002 22.33 4.27002 22.33C4.42002 22.33 4.57002 22.33 4.72002 22.33C52.21 22.33 99.7 22.33 147.19 22.33C147.3 22.33 147.4 22.34 147.51 22.33C147.8 22.29 147.86 22.42 147.86 22.69C147.86 23.51 147.87 23.51 147.07 23.51C123.35 23.51 99.63 23.51 75.9 23.51Z" fill="white"/>
<path d="M76.01 67.44C99.76 67.44 123.52 67.44 147.27 67.45C147.46 67.45 147.77 67.31 147.83 67.56C147.91 67.87 147.86 68.22 147.84 68.55C147.84 68.62 147.72 68.62 147.65 68.62C147.5 68.62 147.35 68.62 147.2 68.62C99.71 68.62 52.22 68.62 4.73 68.62C4.62 68.62 4.52 68.61 4.41 68.62C4.12 68.66 4.06 68.53 4.06 68.26C4.06 67.44 4.05 67.44 4.85 67.44C28.56 67.44 52.28 67.44 76.01 67.44Z" fill="white"/>
<path d="M75.96 26.69C52.19 26.69 28.42 26.69 4.66001 26.68C4.46001 26.68 4.15001 26.81 4.09001 26.58C4.00001 26.28 4.06001 25.93 4.07001 25.59C4.07001 25.51 4.18001 25.51 4.26001 25.5C4.43001 25.5 4.59001 25.5 4.76001 25.5C52.21 25.5 99.65 25.5 147.1 25.5C147.35 25.5 147.72 25.37 147.82 25.58C147.94 25.84 147.86 26.2 147.86 26.52C147.86 26.64 147.78 26.67 147.68 26.67C147.53 26.67 147.38 26.67 147.23 26.67C123.47 26.69 99.72 26.69 75.96 26.69Z" fill="white"/>
<path d="M75.95 51.25C99.72 51.25 123.49 51.25 147.25 51.26C147.44 51.26 147.76 51.13 147.82 51.36C147.9 51.67 147.85 52.02 147.83 52.35C147.83 52.43 147.72 52.43 147.64 52.43C147.49 52.43 147.34 52.43 147.19 52.43C99.73 52.43 52.27 52.43 4.81002 52.43C4.56002 52.43 4.19002 52.56 4.09002 52.35C3.97002 52.09 4.05002 51.73 4.05002 51.41C4.05002 51.29 4.13002 51.26 4.23002 51.26C4.38002 51.26 4.53002 51.26 4.68002 51.26C28.45 51.25 52.2 51.25 75.95 51.25Z" fill="white"/>
<path d="M75.91 49.34C52.16 49.34 28.4 49.34 4.65001 49.33C4.46001 49.33 4.15001 49.47 4.09001 49.22C4.00001 48.91 4.06001 48.56 4.07001 48.23C4.07001 48.15 4.19001 48.16 4.26001 48.16C4.41001 48.16 4.56001 48.16 4.71001 48.16C52.2 48.16 99.69 48.16 147.18 48.16C147.29 48.16 147.39 48.17 147.5 48.16C147.79 48.12 147.85 48.25 147.85 48.52C147.85 49.35 147.86 49.35 147.06 49.35C123.35 49.34 99.63 49.34 75.91 49.34Z" fill="white"/>
<path d="M75.95 82.62C99.75 82.62 123.55 82.62 147.35 82.61C147.7 82.61 147.89 82.63 147.88 83.08C147.87 83.48 147.73 83.53 147.38 83.53C136.22 83.52 125.07 83.52 113.91 83.52C77.47 83.52 41.03 83.52 4.58001 83.53C4.21001 83.53 4.03001 83.5 4.03001 83.04C4.02001 82.53 4.30001 82.61 4.60001 82.61C28.38 82.63 52.17 82.62 75.95 82.62Z" fill="white"/>
<path d="M75.96 86.81C52.16 86.81 28.36 86.81 4.56 86.81C4.22 86.81 4.01 86.81 4.03 86.35C4.05 85.96 4.16 85.89 4.52 85.89C52.13 85.9 99.75 85.9 147.36 85.9C147.8 85.9 148.02 86.27 147.85 86.7C147.8 86.81 147.72 86.81 147.63 86.81C147.49 86.81 147.36 86.81 147.22 86.81C123.47 86.81 99.72 86.81 75.96 86.81Z" fill="white"/>
<path d="M76 88.17C99.77 88.17 123.54 88.17 147.31 88.17C147.62 88.17 147.88 88.11 147.88 88.61C147.87 89.04 147.73 89.09 147.36 89.09C99.76 89.08 52.16 89.08 4.56001 89.08C4.11001 89.08 3.88001 88.7 4.07001 88.28C4.12001 88.17 4.20001 88.17 4.29001 88.17C4.44001 88.17 4.59001 88.17 4.74001 88.17C28.49 88.17 52.25 88.17 76 88.17Z" fill="white"/>
<path d="M75.96 93.27C52.16 93.27 28.36 93.27 4.56 93.28C4.2 93.28 4.03 93.25 4.04 92.81C4.05 92.4 4.2 92.36 4.54 92.36C21.02 92.37 37.5 92.37 53.97 92.37C85.09 92.37 116.21 92.37 147.33 92.37C147.6 92.37 147.89 92.28 147.88 92.77C147.87 93.17 147.78 93.29 147.36 93.29C123.55 93.27 99.76 93.27 75.96 93.27Z" fill="white"/>
<path d="M75.91 11.5C52.14 11.5 28.37 11.5 4.6 11.5C4.29 11.5 4.03 11.56 4.03 11.06C4.04 10.63 4.18 10.58 4.55 10.58C52.15 10.59 99.75 10.59 147.35 10.59C147.8 10.59 148.03 10.97 147.84 11.39C147.79 11.5 147.71 11.5 147.62 11.5C147.47 11.5 147.32 11.5 147.17 11.5C123.42 11.5 99.66 11.5 75.91 11.5Z" fill="white"/>
<path d="M75.95 11.59C99.75 11.59 123.55 11.59 147.35 11.58C147.7 11.58 147.89 11.6 147.88 12.05C147.87 12.45 147.73 12.5 147.38 12.5C136.16 12.49 124.94 12.49 113.73 12.49C77.35 12.49 40.97 12.49 4.59001 12.5C4.22001 12.5 4.04001 12.47 4.04001 12.01C4.02001 11.5 4.30001 11.59 4.60001 11.59C28.38 11.59 52.17 11.59 75.95 11.59Z" fill="white"/>
<path d="M75.95 13.86C99.74 13.86 123.52 13.86 147.31 13.86C147.62 13.86 147.89 13.8 147.88 14.29C147.87 14.71 147.74 14.78 147.36 14.78C99.76 14.77 52.16 14.77 4.56 14.77C4.1 14.77 3.88 14.41 4.07 13.98C4.12 13.87 4.2 13.87 4.29 13.87C4.44 13.87 4.59 13.87 4.74 13.87C28.47 13.86 52.21 13.86 75.95 13.86Z" fill="white"/>
<path d="M75.98 18.05C99.75 18.05 123.52 18.05 147.29 18.05C147.85 18.05 148.01 18.27 147.86 18.81C147.83 18.92 147.77 18.96 147.67 18.96C147.55 18.96 147.43 18.96 147.31 18.96C99.74 18.96 52.17 18.96 4.60001 18.96C4.31001 18.96 4.02001 19.05 4.03001 18.54C4.04001 18.09 4.20001 18.04 4.58001 18.04C28.38 18.05 52.18 18.05 75.98 18.05Z" fill="white"/>
<path d="M75.91 21.23C52.14 21.23 28.37 21.23 4.6 21.23C4.29 21.23 4.03 21.29 4.03 20.79C4.04 20.36 4.18 20.31 4.55 20.31C52.15 20.32 99.75 20.32 147.35 20.32C147.8 20.32 148.03 20.7 147.84 21.12C147.79 21.23 147.71 21.23 147.62 21.23C147.47 21.23 147.32 21.23 147.17 21.23C123.42 21.23 99.66 21.23 75.91 21.23Z" fill="white"/>
<path d="M75.96 25.4199C52.16 25.4199 28.36 25.4199 4.56001 25.4299C4.21001 25.4299 4.02001 25.4099 4.03001 24.9599C4.04001 24.5599 4.18001 24.5099 4.53001 24.5099C15.55 24.5199 26.57 24.5199 37.59 24.5199C74.17 24.5199 110.75 24.5199 147.33 24.5099C147.7 24.5099 147.88 24.5399 147.88 24.9999C147.89 25.5099 147.61 25.4299 147.31 25.4299C123.53 25.4199 99.74 25.4199 75.96 25.4199Z" fill="white"/>
<path d="M76 26.78C99.77 26.78 123.54 26.78 147.31 26.78C147.62 26.78 147.88 26.72 147.88 27.22C147.87 27.65 147.73 27.7 147.36 27.7C99.76 27.69 52.16 27.69 4.56001 27.69C4.11001 27.69 3.88001 27.31 4.07001 26.89C4.12001 26.78 4.20001 26.78 4.29001 26.78C4.44001 26.78 4.59001 26.78 4.74001 26.78C28.49 26.78 52.25 26.78 76 26.78Z" fill="white"/>
<path d="M75.97 28.69C52.17 28.69 28.37 28.69 4.57 28.69C4.28 28.69 4.02 28.76 4.03 28.28C4.04 27.86 4.16 27.77 4.56 27.77C52.14 27.78 99.73 27.78 147.31 27.78C147.81 27.78 148.03 28.11 147.85 28.57C147.8 28.69 147.72 28.68 147.64 28.68C147.5 28.68 147.37 28.68 147.23 28.68C123.48 28.69 99.72 28.69 75.97 28.69Z" fill="white"/>
<path d="M75.96 30.96C52.17 30.96 28.39 30.96 4.60002 30.96C4.29002 30.96 4.02002 31.02 4.03002 30.53C4.04002 30.11 4.17002 30.04 4.55002 30.04C52.15 30.05 99.75 30.05 147.35 30.05C147.81 30.05 148.03 30.42 147.84 30.84C147.79 30.95 147.71 30.95 147.62 30.95C147.47 30.95 147.32 30.95 147.17 30.95C123.44 30.96 99.7 30.96 75.96 30.96Z" fill="white"/>
<path d="M76 36.51C99.77 36.51 123.54 36.51 147.31 36.51C147.62 36.51 147.88 36.45 147.88 36.95C147.87 37.38 147.73 37.43 147.36 37.43C99.76 37.42 52.16 37.42 4.56001 37.42C4.11001 37.42 3.88001 37.04 4.07001 36.62C4.12001 36.51 4.20001 36.51 4.29001 36.51C4.44001 36.51 4.59001 36.51 4.74001 36.51C28.49 36.51 52.25 36.51 76 36.51Z" fill="white"/>
<path d="M75.96 41.5999C52.16 41.5999 28.36 41.5999 4.56001 41.6099C4.21001 41.6099 4.02001 41.5899 4.03001 41.1399C4.04001 40.7399 4.18001 40.6899 4.53001 40.6899C15.64 40.6999 26.75 40.6999 37.86 40.6999C74.35 40.6999 110.84 40.6999 147.32 40.6899C147.69 40.6899 147.87 40.7199 147.87 41.1799C147.88 41.6899 147.6 41.6099 147.3 41.6099C123.53 41.5999 99.74 41.5999 75.96 41.5999Z" fill="white"/>
<path d="M76 42.97C99.77 42.97 123.54 42.97 147.31 42.97C147.62 42.97 147.89 42.91 147.88 43.4C147.87 43.83 147.73 43.88 147.36 43.88C99.76 43.87 52.16 43.87 4.56001 43.87C4.11001 43.87 3.88001 43.5 4.07001 43.07C4.12001 42.96 4.20001 42.96 4.29001 42.96C4.44001 42.96 4.59001 42.96 4.74001 42.96C28.49 42.97 52.25 42.97 76 42.97Z" fill="white"/>
<path d="M75.96 35.15C52.16 35.15 28.36 35.15 4.56001 35.16C4.21001 35.16 4.02001 35.14 4.03001 34.69C4.04001 34.29 4.18001 34.24 4.53001 34.24C16.79 34.25 29.06 34.25 41.32 34.25C76.66 34.25 111.99 34.25 147.33 34.25C147.64 34.25 147.9 34.2 147.88 34.69C147.87 35.12 147.72 35.17 147.36 35.16C123.56 35.15 99.76 35.15 75.96 35.15Z" fill="white"/>
<path d="M76 47.15C99.78 47.15 123.57 47.15 147.35 47.14C147.71 47.14 147.86 47.18 147.87 47.61C147.88 48.1 147.63 48.05 147.32 48.05C127.23 48.05 107.15 48.05 87.06 48.05C59.56 48.05 32.06 48.05 4.57 48.05C4.29 48.05 4.01 48.14 4.03 47.65C4.04 47.24 4.14 47.13 4.56 47.13C28.37 47.15 52.19 47.15 76 47.15Z" fill="white"/>
<path d="M75.95 53.52C99.75 53.52 123.55 53.5199 147.35 53.5099C147.7 53.5099 147.89 53.5299 147.88 53.9799C147.87 54.3799 147.73 54.43 147.38 54.43C134.96 54.42 122.55 54.4199 110.13 54.4199C74.95 54.4199 39.76 54.4199 4.58001 54.4199C4.27001 54.4199 4.01001 54.4699 4.03001 53.9799C4.04001 53.5499 4.19001 53.5099 4.55001 53.5099C28.35 53.5199 52.15 53.52 75.95 53.52Z" fill="white"/>
<path d="M75.92 56.7C52.15 56.7 28.38 56.7 4.61 56.7C4.36 56.7 4.04 56.84 4.03 56.33C4.03 55.89 4.15 55.79 4.58 55.79C52.15 55.8 99.72 55.8 147.29 55.8C147.84 55.8 147.98 55.99 147.85 56.54C147.82 56.68 147.75 56.71 147.63 56.71C147.48 56.71 147.33 56.71 147.18 56.71C123.43 56.7 99.68 56.7 75.92 56.7Z" fill="white"/>
<path d="M75.93 60.8899C52.16 60.8899 28.39 60.8899 4.62 60.8899C4.07 60.8899 3.9 60.66 4.05 60.13C4.08 60.02 4.14 59.99 4.24 59.99C4.36 59.99 4.48 59.99 4.6 59.99C52.17 59.99 99.74 59.99 147.31 59.99C147.6 59.99 147.89 59.8999 147.88 60.4099C147.87 60.8699 147.7 60.9 147.33 60.9C123.53 60.89 99.73 60.8899 75.93 60.8899Z" fill="white"/>
<path d="M75.96 62.25C99.75 62.25 123.53 62.25 147.32 62.25C147.63 62.25 147.9 62.19 147.89 62.68C147.88 63.11 147.74 63.16 147.37 63.16C99.77 63.15 52.17 63.15 4.57002 63.15C4.12002 63.15 3.89002 62.78 4.08002 62.35C4.13002 62.24 4.21002 62.24 4.30002 62.24C4.45002 62.24 4.60002 62.24 4.75002 62.24C28.48 62.25 52.22 62.25 75.96 62.25Z" fill="white"/>
<path d="M75.94 66.44C52.26 66.44 28.58 66.44 4.90002 66.44C4.78002 66.44 4.66002 66.44 4.54002 66.44C4.12002 66.44 3.87002 66 4.07002 65.63C4.11002 65.55 4.18002 65.54 4.26002 65.54C4.41002 65.54 4.56002 65.54 4.71002 65.54C52.2 65.54 99.7 65.54 147.19 65.54C147.28 65.54 147.37 65.55 147.46 65.54C147.85 65.47 147.86 65.7 147.86 65.99C147.86 66.27 147.87 66.52 147.47 66.45C147.34 66.43 147.2 66.45 147.06 66.45C123.36 66.44 99.65 66.44 75.94 66.44Z" fill="white"/>
<path d="M76.01 69.71C99.78 69.71 123.55 69.71 147.32 69.71C147.62 69.71 147.9 69.63 147.89 70.14C147.88 70.6 147.71 70.63 147.34 70.63C126.09 70.62 104.83 70.62 83.58 70.62C57.25 70.62 30.92 70.62 4.59002 70.62C4.31002 70.62 4.03002 70.7 4.05002 70.22C4.06002 69.81 4.16002 69.7 4.58002 69.7C28.38 69.71 52.19 69.71 76.01 69.71Z" fill="white"/>
<path d="M75.95 71.98C99.74 71.98 123.52 71.98 147.31 71.98C147.62 71.98 147.89 71.92 147.88 72.41C147.87 72.83 147.74 72.9 147.36 72.9C99.76 72.89 52.16 72.89 4.56 72.89C4.1 72.89 3.88 72.52 4.07 72.1C4.12 71.99 4.2 71.99 4.29 71.99C4.44 71.99 4.59 71.99 4.74 71.99C28.47 71.98 52.21 71.98 75.95 71.98Z" fill="white"/>
<path d="M75.95 85.81C52.16 85.81 28.38 85.81 4.59 85.81C4.32 85.81 4.02 85.91 4.03 85.42C4.04 85.02 4.13 84.89 4.55 84.89C52.15 84.9 99.75 84.9 147.35 84.9C147.79 84.9 148.03 85.29 147.83 85.7C147.78 85.81 147.69 85.8 147.61 85.81C147.46 85.81 147.31 85.81 147.16 85.81C123.43 85.81 99.69 85.81 75.95 85.81Z" fill="white"/>
<path d="M75.93 77.0799C52.16 77.0799 28.39 77.0799 4.62002 77.0799C4.06002 77.0799 3.90002 76.8599 4.05002 76.3199C4.08002 76.2099 4.14002 76.1699 4.24002 76.1699C4.36002 76.1699 4.48002 76.1699 4.60002 76.1699C52.17 76.1699 99.74 76.1699 147.31 76.1699C147.6 76.1699 147.89 76.0799 147.88 76.5899C147.87 77.0399 147.71 77.0899 147.33 77.0899C123.53 77.0799 99.73 77.0799 75.93 77.0799Z" fill="white"/>
<path d="M76 78.44C99.77 78.44 123.54 78.44 147.31 78.44C147.62 78.44 147.88 78.38 147.88 78.88C147.87 79.31 147.73 79.36 147.36 79.36C99.76 79.35 52.16 79.35 4.56001 79.35C4.11001 79.35 3.88001 78.97 4.07001 78.55C4.12001 78.44 4.20001 78.44 4.29001 78.44C4.44001 78.44 4.59001 78.44 4.74001 78.44C28.49 78.44 52.25 78.44 76 78.44Z" fill="white"/>
<path d="M75.96 47.06C52.17 47.06 28.39 47.06 4.60001 47.05C4.40001 47.05 4.06001 47.24 4.04001 46.76C4.03001 46.36 4.11001 46.23 4.55001 46.23C52.15 46.24 99.75 46.24 147.35 46.24C147.88 46.24 147.9 46.27 147.86 46.81C147.85 47.02 147.76 47.07 147.58 47.06C147.43 47.05 147.28 47.06 147.13 47.06C123.41 47.06 99.68 47.06 75.96 47.06Z" fill="white"/>
<path d="M75.95 14.8599C99.75 14.8599 123.55 14.8599 147.35 14.8599C147.57 14.8599 147.87 14.7199 147.87 15.1799C147.87 15.5599 147.79 15.6799 147.38 15.6799C99.77 15.6699 52.15 15.6699 4.54002 15.6699C4.07002 15.6699 3.93002 15.4799 4.05002 14.9999C4.08002 14.8899 4.13002 14.8499 4.23002 14.8499C4.38002 14.8499 4.53002 14.8499 4.68002 14.8499C28.44 14.8599 52.2 14.8599 75.95 14.8599Z" fill="white"/>
<path d="M75.95 79.44C99.75 79.44 123.55 79.44 147.35 79.44C147.57 79.44 147.87 79.3 147.87 79.76C147.87 80.14 147.8 80.26 147.38 80.26C137.39 80.25 127.4 80.25 117.41 80.25C79.8 80.25 42.19 80.25 4.58001 80.25C4.35001 80.25 4.04001 80.4 4.03001 79.91C4.02001 79.48 4.18001 79.43 4.55001 79.43C28.35 79.44 52.15 79.44 75.95 79.44Z" fill="white"/>
<path d="M75.95 64.07C52.17 64.07 28.38 64.07 4.6 64.06C4.38 64.06 4.05 64.23 4.04 63.73C4.03 63.32 4.15 63.24 4.54 63.24C52.15 63.25 99.77 63.25 147.38 63.25C147.83 63.25 147.99 63.48 147.86 63.93C147.83 64.05 147.76 64.07 147.67 64.07C147.52 64.07 147.37 64.07 147.22 64.07C123.46 64.07 99.7 64.07 75.95 64.07Z" fill="white"/>
<path d="M76.01 31.05C99.78 31.05 123.55 31.05 147.32 31.06C147.54 31.06 147.88 30.89 147.88 31.39C147.88 31.79 147.78 31.88 147.38 31.88C99.77 31.87 52.15 31.87 4.54001 31.87C4.08001 31.87 3.93001 31.65 4.06001 31.19C4.09001 31.08 4.15001 31.05 4.25001 31.05C4.40001 31.05 4.55001 31.05 4.70001 31.05C28.47 31.05 52.24 31.05 76.01 31.05Z" fill="white"/>
<path d="M76 52.61C99.77 52.61 123.54 52.61 147.31 52.62C147.51 52.62 147.85 52.43 147.87 52.91C147.88 53.31 147.79 53.44 147.36 53.44C99.76 53.43 52.16 53.43 4.56001 53.44C4.12001 53.44 4.02001 53.3 4.05001 52.91C4.07001 52.66 4.16001 52.6 4.38001 52.61C4.52001 52.62 4.65001 52.61 4.79001 52.61C28.52 52.61 52.26 52.61 76 52.61Z" fill="white"/>
<path d="M76.01 66.53C99.78 66.53 123.55 66.53 147.32 66.54C147.54 66.54 147.88 66.37 147.88 66.87C147.88 67.27 147.78 67.36 147.38 67.36C99.77 67.35 52.15 67.35 4.54001 67.35C4.08001 67.35 3.93001 67.13 4.06001 66.67C4.09001 66.56 4.15001 66.53 4.25001 66.53C4.40001 66.53 4.55001 66.53 4.70001 66.53C28.47 66.53 52.24 66.53 76.01 66.53Z" fill="white"/>
<path d="M75.96 24.41C52.17 24.41 28.39 24.41 4.60001 24.4C4.40001 24.4 4.06001 24.59 4.04001 24.11C4.03001 23.71 4.11001 23.58 4.55001 23.58C52.15 23.59 99.75 23.59 147.35 23.59C147.88 23.59 147.9 23.62 147.86 24.16C147.85 24.37 147.76 24.42 147.58 24.41C147.43 24.4 147.28 24.41 147.13 24.41C123.41 24.41 99.68 24.41 75.96 24.41Z" fill="white"/>
<path d="M75.92 69.62C52.15 69.62 28.38 69.62 4.61 69.61C4.39 69.61 4.05 69.78 4.04 69.28C4.03 68.87 4.15 68.78 4.55 68.78C52.15 68.79 99.75 68.79 147.35 68.78C147.77 68.78 147.91 68.89 147.87 69.3C147.85 69.54 147.78 69.63 147.55 69.61C147.41 69.6 147.28 69.61 147.14 69.61C123.4 69.62 99.66 69.62 75.92 69.62Z" fill="white"/>
<path d="M75.93 44.79C52.15 44.79 28.36 44.79 4.58 44.79C4.31 44.79 4.04 44.88 4.03 44.39C4.03 43.88 4.31 43.97 4.6 43.97C51.61 43.97 98.62 43.97 145.62 43.97C146.24 43.97 146.86 43.99 147.48 43.96C147.84 43.94 147.86 44.11 147.85 44.39C147.85 44.65 147.84 44.85 147.5 44.79C147.38 44.77 147.26 44.79 147.14 44.79C123.41 44.79 99.67 44.79 75.93 44.79Z" fill="white"/>
<path d="M75.93 22.1399C52.15 22.1399 28.36 22.1399 4.58 22.1399C4.34 22.1399 4.03 22.2699 4.04 21.7899C4.05 21.4199 4.13 21.3199 4.52 21.3199C52.15 21.3299 99.78 21.3299 147.41 21.3299C147.84 21.3299 148.01 21.6099 147.86 22.0299C147.82 22.1499 147.74 22.1499 147.65 22.1499C147.51 22.1499 147.38 22.1499 147.24 22.1499C123.47 22.1399 99.7 22.1399 75.93 22.1399Z" fill="white"/>
<path d="M75.98 37.51C99.76 37.51 123.55 37.51 147.33 37.51C147.6 37.51 147.87 37.42 147.88 37.91C147.89 38.42 147.6 38.33 147.31 38.33C102.95 38.33 58.6 38.33 14.24 38.33C10.98 38.33 7.72003 38.33 4.46003 38.33C4.33003 38.33 4.11003 38.42 4.07003 38.23C4.02003 38.03 4.05003 37.81 4.07003 37.6C4.08003 37.52 4.18003 37.52 4.26003 37.52C4.40003 37.52 4.53003 37.52 4.67003 37.52C28.44 37.51 52.21 37.51 75.98 37.51Z" fill="white"/>
<path d="M75.95 49.43C99.74 49.43 123.52 49.43 147.31 49.44C147.51 49.44 147.85 49.25 147.87 49.73C147.89 50.12 147.8 50.27 147.36 50.27C99.76 50.26 52.16 50.26 4.56002 50.26C4.03002 50.26 4.01002 50.23 4.05002 49.69C4.06002 49.48 4.15002 49.43 4.33002 49.44C4.48002 49.45 4.63002 49.44 4.78002 49.44C28.51 49.43 52.23 49.43 75.95 49.43Z" fill="white"/>
<path d="M75.91 76.08C52.14 76.08 28.37 76.08 4.6 76.07C4.4 76.07 4.06 76.26 4.04 75.78C4.03 75.38 4.12 75.25 4.55 75.25C52.15 75.26 99.75 75.26 147.35 75.25C147.79 75.25 147.89 75.39 147.86 75.78C147.84 75.98 147.8 76.09 147.58 76.08C147.43 76.07 147.28 76.08 147.13 76.08C123.39 76.08 99.65 76.08 75.91 76.08Z" fill="white"/>
<path d="M75.93 57.61C52.15 57.61 28.36 57.61 4.58001 57.61C4.31001 57.61 4.03001 57.71 4.03001 57.21C4.02001 56.7 4.30001 56.79 4.60001 56.79C48.02 56.79 91.43 56.79 134.85 56.79C139.02 56.79 143.19 56.79 147.36 56.79C147.9 56.79 147.93 56.84 147.87 57.39C147.85 57.54 147.82 57.62 147.66 57.61C147.52 57.6 147.39 57.61 147.25 57.61C123.47 57.61 99.7 57.61 75.93 57.61Z" fill="white"/>
<path d="M75.92 17.96C52.15 17.96 28.38 17.96 4.61 17.95C4.39 17.95 4.05 18.12 4.04 17.62C4.03 17.21 4.15 17.12 4.55 17.12C52.15 17.13 99.75 17.13 147.35 17.12C147.77 17.12 147.91 17.23 147.87 17.64C147.85 17.88 147.78 17.97 147.55 17.95C147.4 17.94 147.25 17.95 147.1 17.95C123.37 17.96 99.64 17.96 75.92 17.96Z" fill="white"/>
<path d="M75.92 82.53C52.15 82.53 28.38 82.53 4.61 82.52C4.39 82.52 4.05 82.69 4.04 82.19C4.03 81.78 4.15 81.69 4.55 81.69C52.15 81.7 99.75 81.7 147.35 81.69C147.77 81.69 147.91 81.8 147.87 82.21C147.85 82.45 147.78 82.54 147.55 82.52C147.41 82.51 147.28 82.52 147.14 82.52C123.4 82.53 99.66 82.53 75.92 82.53Z" fill="white"/>
<path d="M76 59.0699C99.77 59.0699 123.54 59.0699 147.31 59.0799C147.51 59.0799 147.85 58.8899 147.87 59.3699C147.88 59.7699 147.79 59.8999 147.36 59.8999C99.76 59.8899 52.16 59.8899 4.56001 59.8999C4.12001 59.8999 4.02001 59.7599 4.05001 59.3599C4.07001 59.1599 4.11001 59.0499 4.33001 59.0599C4.48001 59.0699 4.63001 59.0599 4.78001 59.0599C28.52 59.0699 52.26 59.0699 76 59.0699Z" fill="white"/>
<path d="M75.98 72.98C99.76 72.98 123.55 72.98 147.33 72.98C147.57 72.98 147.88 72.84 147.87 73.33C147.86 73.7 147.78 73.8 147.39 73.8C99.77 73.8 52.14 73.8 4.51003 73.8C4.08003 73.8 3.91003 73.52 4.05003 73.1C4.09003 72.98 4.17003 72.98 4.26003 72.98C4.40003 72.98 4.53003 72.98 4.67003 72.98C28.44 72.98 52.21 72.98 75.98 72.98Z" fill="white"/>
<path d="M75.91 51.16C52.13 51.16 28.34 51.16 4.56001 51.16C4.34001 51.16 4.04001 51.29 4.04001 50.83C4.04001 50.43 4.13001 50.33 4.54001 50.33C52.15 50.34 99.77 50.34 147.38 50.34C147.84 50.34 147.99 50.55 147.86 51.01C147.83 51.12 147.77 51.15 147.67 51.15C147.52 51.15 147.37 51.15 147.22 51.15C123.45 51.16 99.68 51.16 75.91 51.16Z" fill="white"/>
<path d="M75.96 33.33C99.75 33.33 123.53 33.33 147.32 33.34C147.52 33.34 147.86 33.15 147.88 33.63C147.89 34.03 147.81 34.16 147.37 34.16C99.77 34.15 52.17 34.15 4.57002 34.16C4.13002 34.16 4.03002 34.02 4.06002 33.63C4.08002 33.38 4.17002 33.32 4.39002 33.33C4.54002 33.34 4.69002 33.33 4.84002 33.33C28.54 33.33 52.25 33.33 75.96 33.33Z" fill="white"/>
<path d="M76.01 89.1699C99.78 89.1699 123.55 89.17 147.32 89.18C147.54 89.18 147.88 89.01 147.88 89.51C147.88 89.91 147.78 90 147.38 90C99.77 89.99 52.15 89.9899 4.54001 89.9899C4.08001 89.9899 3.93001 89.7699 4.06001 89.3099C4.09001 89.1999 4.15001 89.1699 4.25001 89.1699C4.40001 89.1699 4.55001 89.1699 4.70001 89.1699C28.47 89.1699 52.24 89.1699 76.01 89.1699Z" fill="white"/>
<path d="M75.96 92.27C52.17 92.27 28.39 92.27 4.60001 92.26C4.40001 92.26 4.06001 92.45 4.04001 91.97C4.03001 91.57 4.11001 91.44 4.55001 91.44C52.15 91.45 99.75 91.45 147.35 91.44C147.79 91.44 147.89 91.58 147.86 91.97C147.84 92.22 147.75 92.28 147.53 92.27C147.39 92.26 147.26 92.27 147.12 92.27C123.41 92.27 99.68 92.27 75.96 92.27Z" fill="white"/>
<path d="M75.91 40.6C52.14 40.6 28.37 40.6 4.6 40.59C4.4 40.59 4.06 40.78 4.04 40.3C4.03 39.9 4.12 39.77 4.55 39.77C52.15 39.78 99.75 39.78 147.35 39.77C147.79 39.77 147.89 39.91 147.86 40.3C147.84 40.5 147.8 40.61 147.58 40.6C147.43 40.59 147.28 40.6 147.13 40.6C123.39 40.6 99.65 40.6 75.91 40.6Z" fill="white"/>
<path d="M76 4.86C99.78 4.86 123.57 4.86 147.35 4.86C147.67 4.86 147.93 4.84 147.86 5.29C147.84 5.44 147.8 5.51 147.64 5.5C147.52 5.49 147.4 5.5 147.28 5.5C99.73 5.5 52.17 5.5 4.62001 5.49C4.44001 5.49 4.18001 5.64 4.06001 5.37C3.93001 5.06 4.08001 4.87 4.42001 4.86C4.54001 4.86 4.66001 4.86 4.78001 4.86C28.53 4.86 52.27 4.86 76 4.86Z" fill="white"/>
<path d="M75.91 3.85996C52.13 3.85996 28.34 3.85996 4.56001 3.85996C4.25001 3.85996 3.98001 3.87996 4.05001 3.42996C4.07001 3.27996 4.11001 3.20996 4.27001 3.21996C4.39001 3.22996 4.51001 3.21996 4.63001 3.21996C52.18 3.21996 99.74 3.21996 147.29 3.22996C147.47 3.22996 147.73 3.08996 147.85 3.34996C147.98 3.65996 147.83 3.84996 147.49 3.85996C147.37 3.85996 147.25 3.85996 147.13 3.85996C123.39 3.85996 99.65 3.85996 75.91 3.85996Z" fill="white"/>
<path d="M75.96 2.58996C52.16 2.58996 28.36 2.58996 4.56003 2.58996C4.34003 2.57996 4.00003 2.71996 4.05003 2.25996C4.06003 2.10996 4.10003 2.02996 4.26003 2.03996C4.38003 2.04996 4.50003 2.03996 4.62003 2.03996C52.17 2.03996 99.73 2.03996 147.28 2.03996C147.4 2.03996 147.52 2.04996 147.64 2.03996C147.88 2.02996 147.84 2.19996 147.85 2.34996C147.86 2.51996 147.8 2.59996 147.62 2.58996C147.48 2.57996 147.35 2.58996 147.21 2.58996C123.47 2.58996 99.71 2.58996 75.96 2.58996Z" fill="white"/>
<path d="M75.91 4.77C52.16 4.77 28.4 4.77 4.65001 4.76C4.45001 4.76 4.06001 5 4.07001 4.53C4.08001 4.13 4.44001 4.32 4.63001 4.32C52.18 4.31 99.74 4.31 147.29 4.31C147.38 4.31 147.47 4.31 147.56 4.31C147.71 4.31 147.86 4.29 147.86 4.53C147.86 4.75 147.75 4.78 147.58 4.77C147.44 4.76 147.31 4.77 147.17 4.77C123.42 4.77 99.66 4.77 75.91 4.77Z" fill="white"/>
<path d="M75.96 4.21999C52.19 4.21999 28.42 4.21999 4.65002 4.20999C4.46002 4.20999 4.09002 4.35999 4.10002 4.06999C4.10002 3.81999 4.48002 3.94999 4.67002 3.94999C52.2 3.93999 99.72 3.93999 147.25 3.94999C147.45 3.94999 147.83 3.82999 147.82 4.06999C147.81 4.38999 147.43 4.20999 147.22 4.20999C123.47 4.21999 99.71 4.21999 75.96 4.21999Z" fill="white"/>
<path d="M75.91 1.76997C52.16 1.76997 28.4 1.76997 4.65003 1.75997C4.46003 1.75997 4.10003 1.90997 4.09003 1.61997C4.09003 1.36997 4.44003 1.49997 4.62003 1.49997C52.17 1.48997 99.73 1.48997 147.28 1.49997C147.46 1.49997 147.82 1.36997 147.81 1.61997C147.8 1.90997 147.44 1.75997 147.25 1.75997C123.48 1.76997 99.69 1.76997 75.91 1.76997Z" fill="white"/>
<path d="M0.0800171 94.95C50.67 94.95 101.25 94.95 151.84 94.95C151.84 94.98 151.84 95.01 151.84 95.04C101.25 95.04 50.67 95.04 0.0800171 95.04C0.0800171 95.01 0.0800171 94.98 0.0800171 94.95Z" fill="white"/>
<path d="M147.83 2.81998C99.91 2.81998 51.99 2.81998 4.07001 2.81998C4.07001 2.78998 4.07001 2.75998 4.07001 2.72998C51.99 2.72998 99.91 2.72998 147.83 2.72998C147.83 2.75998 147.83 2.78998 147.83 2.81998Z" fill="white"/>
<path d="M147.83 3.08995C99.91 3.08995 52 3.08995 4.08002 3.08995C4.08002 3.05995 4.08002 3.03995 4.08002 3.00995C52 3.00995 99.91 3.00995 147.83 3.00995C147.83 3.02995 147.83 3.05995 147.83 3.08995Z" fill="white"/>
<path d="M4.16 1.87994C52.03 1.87994 99.89 1.87994 147.76 1.87994C147.76 1.88994 147.76 1.90994 147.76 1.91994C99.89 1.91994 52.03 1.91994 4.16 1.91994C4.16 1.90994 4.16 1.89994 4.16 1.87994Z" fill="white"/>
<path d="M0.770023 91.44C0.770023 91.92 0.780023 92.41 0.780023 92.89C0.780023 93.14 0.800023 93.37 1.16002 93.24C1.23002 93.21 1.30002 93.27 1.29002 93.31C1.18002 93.79 1.55002 93.59 1.73002 93.6C2.05002 93.63 2.36002 93.62 2.68002 93.6C2.88002 93.59 3.16002 93.71 3.17002 93.32C3.17002 93.24 3.36002 93.18 3.47002 93.24C3.58002 93.3 3.49002 93.4 3.46002 93.48C3.40002 93.68 3.28002 93.74 3.06002 93.73C2.55002 93.7 2.03002 93.72 1.52002 93.72C1.40002 93.72 1.23002 93.7 1.18002 93.77C0.880023 94.11 0.710023 93.65 0.710023 93.62C0.710023 92.9 0.570023 92.17 0.770023 91.44Z" fill="white"/>
<path d="M0.780018 91.45C0.760018 91.31 0.950018 91.23 0.880018 91.08C0.840018 90.99 0.780018 90.91 0.940018 90.9C1.03002 90.9 1.15002 90.9 1.17002 91C1.20002 91.17 1.12002 91.34 1.12002 91.53C1.13002 91.58 0.890018 91.52 0.780018 91.45Z" fill="white"/>
</g>
<defs>
<clipPath id="clip0_476_187">
<rect width="152" height="95" fill="white"/>
</clipPath>
</defs>
</svg>
