<svg width="128" height="95" viewBox="0 0 128 95" fill="none" xmlns="http://www.w3.org/2000/svg">
<g clip-path="url(#clip0_476_94)">
<path d="M63.92 94.93C42.84 94.93 21.77 94.93 0.689996 94.93C0.0999964 94.93 0.0999963 94.93 0.0999963 94.33C0.0999963 63.1 0.0999963 31.88 0.0899963 0.650028C0.0899963 0.200028 0.169996 0.030028 0.659996 0.050028C1.71 0.090028 2.76 0.070028 3.8 0.050028C4.07 0.050028 4.2 0.080028 4.2 0.410028C4.2 1.33003 4.21 1.33003 5.15 1.33003C44.47 1.33003 83.79 1.33003 123.12 1.33003C123.76 1.33003 123.76 1.33003 123.76 0.680028C123.76 0.060028 123.76 0.060028 124.38 0.060028C125.42 0.060028 126.47 0.070028 127.51 0.060028C127.76 0.060028 127.88 0.110028 127.85 0.380028C127.84 0.470028 127.85 0.560028 127.85 0.650028C127.85 31.88 127.85 63.1 127.85 94.33C127.85 94.93 127.85 94.93 127.25 94.93C106.14 94.93 85.03 94.93 63.92 94.93Z" fill="black"/>
<path d="M63.97 10.41C44.21 10.41 24.45 10.41 4.69 10.41C4.1 10.41 4.1 10.41 4.1 11.02C4.1 38.66 4.1 66.31 4.1 93.95C4.1 94.57 4.1 94.57 3.47 94.57C2.5 94.57 1.53 94.56 0.559998 94.58C0.259998 94.59 0.149998 94.49 0.189998 94.2C0.199998 94.11 0.189998 94.02 0.189998 93.93C0.189998 62.88 0.189998 31.84 0.189998 0.790009C0.189998 0.170009 0.189998 0.170009 0.809998 0.170009C1.75 0.170009 2.69 0.190009 3.62 0.160009C4 0.130009 4.11 0.220009 4.11 0.610009C4.09 2.59001 4.11 4.57001 4.09 6.56001C4.08 7.01001 4.18 7.16001 4.67 7.16001C15.25 7.14001 25.82 7.15001 36.4 7.15001C65.33 7.15001 94.26 7.15001 123.19 7.15001C123.85 7.15001 123.85 7.15001 123.85 6.47001C123.85 4.52001 123.86 2.57001 123.84 0.610009C123.84 0.220009 123.95 0.130009 124.32 0.140009C125.35 0.170009 126.38 0.160009 127.41 0.140009C127.69 0.140009 127.8 0.220009 127.76 0.500009C127.75 0.600009 127.76 0.710009 127.76 0.820009C127.76 31.85 127.76 62.88 127.76 93.92C127.76 94.57 127.76 94.57 127.12 94.57C126.15 94.57 125.18 94.56 124.21 94.58C123.94 94.58 123.81 94.52 123.85 94.23C123.87 94.1 123.85 93.96 123.85 93.82C123.85 66.25 123.85 38.69 123.85 11.12C123.85 11 123.84 10.88 123.85 10.76C123.88 10.51 123.8 10.39 123.53 10.42C123.4 10.44 123.26 10.42 123.12 10.42C103.4 10.41 83.69 10.41 63.97 10.41Z" fill="white"/>
<path d="M63.99 5.51C83.72 5.51 103.45 5.51 123.18 5.5C123.66 5.5 123.78 5.62 123.76 6.09C123.72 7.05 123.75 7.05 122.79 7.05C83.47 7.05 44.15 7.05 4.81999 7.05C4.17999 7.05 4.17999 7.05 4.17999 6.4C4.17999 5.5 4.17999 5.5 5.06999 5.5C24.72 5.51 44.35 5.51 63.99 5.51Z" fill="white"/>
<path d="M63.97 94.56C44.24 94.56 24.51 94.56 4.77999 94.56C4.08999 94.56 4.18999 94.66 4.18999 93.96C4.17999 93.11 4.18999 93.11 5.03999 93.11C44.36 93.11 83.68 93.11 123 93.11C123.14 93.11 123.27 93.13 123.41 93.11C123.7 93.07 123.76 93.2 123.76 93.47C123.77 94.57 123.78 94.57 122.7 94.57C103.12 94.56 83.54 94.56 63.97 94.56Z" fill="white"/>
<path d="M64.02 57.52C83.72 57.52 103.42 57.52 123.11 57.53C123.32 57.53 123.65 57.39 123.72 57.63C123.81 57.97 123.75 58.35 123.73 58.71C123.73 58.79 123.61 58.79 123.54 58.79C123.39 58.79 123.24 58.79 123.09 58.79C83.68 58.79 44.27 58.79 4.85999 58.79C4.74999 58.79 4.64999 58.78 4.53999 58.79C4.24999 58.83 4.18999 58.71 4.18999 58.43C4.17999 57.51 4.16999 57.51 5.06999 57.51C24.71 57.52 44.36 57.52 64.02 57.52Z" fill="white"/>
<path d="M64.02 73.68C83.72 73.68 103.42 73.68 123.11 73.69C123.32 73.69 123.65 73.55 123.72 73.8C123.81 74.14 123.75 74.52 123.73 74.88C123.73 74.96 123.61 74.96 123.54 74.96C123.39 74.96 123.24 74.96 123.09 74.96C83.68 74.96 44.27 74.96 4.86 74.96C4.75 74.96 4.65 74.95 4.54 74.96C4.25 75 4.18 74.87 4.18 74.6C4.17 73.68 4.16 73.68 5.06 73.68C24.71 73.68 44.37 73.68 64.02 73.68Z" fill="white"/>
<path d="M63.98 39.55C44.27 39.55 24.55 39.55 4.84 39.54C4.63 39.54 4.29 39.67 4.23 39.44C4.14 39.1 4.2 38.72 4.21 38.36C4.21 38.28 4.32 38.28 4.4 38.27C4.52 38.27 4.64 38.27 4.76 38.27C44.23 38.27 83.7 38.27 123.18 38.28C123.37 38.28 123.68 38.14 123.73 38.4C123.8 38.75 123.75 39.12 123.73 39.48C123.73 39.55 123.61 39.55 123.53 39.55C123.39 39.55 123.26 39.55 123.12 39.55C103.4 39.55 83.69 39.55 63.98 39.55Z" fill="white"/>
<path d="M63.98 29.84C44.25 29.84 24.52 29.84 4.78999 29.83C4.58999 29.83 4.27999 29.96 4.21999 29.73C4.13999 29.42 4.18999 29.07 4.20999 28.74C4.20999 28.66 4.31999 28.66 4.39999 28.65C4.54999 28.65 4.69999 28.65 4.84999 28.65C44.26 28.65 83.67 28.65 123.08 28.65C123.3 28.65 123.64 28.53 123.71 28.73C123.81 29.03 123.75 29.39 123.74 29.72C123.74 29.84 123.61 29.82 123.53 29.83C123.39 29.83 123.26 29.83 123.12 29.83C103.4 29.84 83.69 29.84 63.98 29.84Z" fill="white"/>
<path d="M63.99 52.26C44.23 52.26 24.47 52.26 4.71 52.26C4.54 52.26 4.26 52.36 4.22 52.17C4.14 51.84 4.15 51.48 4.23 51.14C4.24 51.11 4.36 51.09 4.43 51.08C4.58 51.07 4.73 51.08 4.88 51.08C44.25 51.08 83.61 51.08 122.98 51.08C123.75 51.08 123.94 51.33 123.75 52.1C123.72 52.24 123.64 52.26 123.53 52.26C123.39 52.26 123.26 52.26 123.12 52.26C103.41 52.26 83.7 52.26 63.99 52.26Z" fill="white"/>
<path d="M63.92 91.02C44.21 91.02 24.49 91.02 4.77999 91.01C4.58999 91.01 4.27999 91.14 4.21999 90.9C4.13999 90.59 4.18999 90.24 4.20999 89.91C4.20999 89.83 4.32999 89.83 4.39999 89.83C4.54999 89.83 4.69999 89.83 4.84999 89.83C44.26 89.83 83.67 89.83 123.08 89.83C123.19 89.83 123.29 89.84 123.4 89.83C123.69 89.79 123.75 89.92 123.75 90.19C123.75 91.02 123.76 91.02 122.96 91.02C103.29 91.02 83.61 91.02 63.92 91.02Z" fill="white"/>
<path d="M63.96 87.85C44.23 87.85 24.5 87.85 4.77 87.84C4.58 87.84 4.27 87.98 4.21 87.73C4.13 87.42 4.19 87.07 4.2 86.74C4.2 86.67 4.32 86.67 4.4 86.67C4.55 86.67 4.7 86.67 4.85 86.67C44.26 86.67 83.67 86.67 123.08 86.67C123.19 86.67 123.29 86.68 123.4 86.67C123.69 86.63 123.75 86.77 123.75 87.03C123.75 87.85 123.76 87.85 122.96 87.85C103.3 87.85 83.63 87.85 63.96 87.85Z" fill="white"/>
<path d="M63.99 83.4C83.73 83.4 103.48 83.4 123.22 83.41C123.39 83.41 123.68 83.28 123.72 83.53C123.78 83.85 123.73 84.19 123.71 84.52C123.71 84.54 123.58 84.57 123.51 84.58C123.39 84.59 123.27 84.58 123.15 84.58C83.69 84.58 44.24 84.58 4.78 84.57C4.59 84.57 4.28 84.7 4.21 84.47C4.13 84.16 4.18 83.81 4.2 83.48C4.2 83.4 4.32 83.4 4.39 83.4C4.54 83.4 4.69 83.4 4.84 83.4C24.57 83.4 44.28 83.4 63.99 83.4Z" fill="white"/>
<path d="M63.97 81.4C44.24 81.4 24.51 81.4 4.77999 81.39C4.58999 81.39 4.27999 81.52 4.21999 81.29C4.13999 80.98 4.18999 80.63 4.20999 80.3C4.20999 80.22 4.32999 80.22 4.39999 80.22C4.54999 80.22 4.69999 80.22 4.84999 80.22C44.26 80.22 83.67 80.22 123.08 80.22C123.19 80.22 123.29 80.23 123.4 80.22C123.69 80.18 123.75 80.3 123.75 80.58C123.75 81.41 123.76 81.41 122.92 81.41C103.27 81.4 83.62 81.4 63.97 81.4Z" fill="white"/>
<path d="M63.95 78.13C44.21 78.13 24.46 78.13 4.72 78.12C4.55 78.12 4.26 78.25 4.21 78C4.15 77.68 4.2 77.34 4.22 77.01C4.22 76.99 4.35 76.96 4.42 76.95C4.54 76.94 4.66 76.95 4.78 76.95C44.24 76.95 83.69 76.95 123.15 76.96C123.34 76.96 123.65 76.83 123.72 77.06C123.8 77.37 123.75 77.72 123.73 78.05C123.73 78.13 123.62 78.13 123.54 78.13C123.39 78.13 123.24 78.13 123.09 78.13C103.38 78.13 83.66 78.13 63.95 78.13Z" fill="white"/>
<path d="M63.98 18.94C83.71 18.94 103.44 18.94 123.17 18.95C123.36 18.95 123.67 18.81 123.73 19.06C123.81 19.37 123.75 19.72 123.73 20.05C123.73 20.12 123.61 20.12 123.53 20.12C123.39 20.12 123.26 20.12 123.12 20.12C83.68 20.12 44.24 20.12 4.79 20.12C4.68 20.12 4.58 20.11 4.47 20.12C4.26 20.14 4.19 20.07 4.17 19.85C4.12 18.94 4.11 18.94 5.01 18.94C24.68 18.94 44.33 18.94 63.98 18.94Z" fill="white"/>
<path d="M64.02 31.83C83.73 31.83 103.45 31.83 123.16 31.84C123.35 31.84 123.66 31.7 123.72 31.95C123.8 32.26 123.74 32.61 123.73 32.94C123.73 33.01 123.61 33.01 123.53 33.01C123.38 33.01 123.23 33.01 123.08 33.01C83.67 33.01 44.26 33.01 4.85 33.01C4.74 33.01 4.64 33 4.53 33.01C4.24 33.05 4.18 32.91 4.18 32.65C4.18 31.83 4.17 31.83 4.97 31.83C24.66 31.83 44.34 31.83 64.02 31.83Z" fill="white"/>
<path d="M63.93 13.68C44.22 13.68 24.5 13.68 4.78999 13.67C4.59999 13.67 4.28999 13.8 4.21999 13.57C4.13999 13.26 4.18999 12.91 4.20999 12.58C4.20999 12.5 4.32999 12.5 4.39999 12.5C4.54999 12.5 4.69999 12.5 4.84999 12.5C44.26 12.5 83.67 12.5 123.08 12.5C123.17 12.5 123.26 12.51 123.35 12.5C123.67 12.45 123.76 12.58 123.75 12.9C123.74 13.68 123.75 13.68 122.96 13.68C103.29 13.68 83.61 13.68 63.93 13.68Z" fill="white"/>
<path d="M64.01 44.8101C83.72 44.8101 103.44 44.81 123.15 44.82C123.34 44.82 123.66 44.69 123.72 44.92C123.8 45.23 123.75 45.58 123.73 45.91C123.73 45.99 123.62 45.9901 123.54 45.9901C123.39 45.9901 123.24 45.9901 123.09 45.9901C83.71 45.9901 44.33 45.9901 4.94999 45.9901C4.69999 45.9901 4.32999 46.12 4.22999 45.91C4.10999 45.65 4.18999 45.2901 4.18999 44.9701C4.18999 44.8501 4.26999 44.82 4.36999 44.82C4.51999 44.82 4.66999 44.82 4.81999 44.82C24.55 44.81 44.28 44.8101 64.01 44.8101Z" fill="white"/>
<path d="M63.98 16.85C44.25 16.85 24.52 16.85 4.78999 16.84C4.59999 16.84 4.27999 16.97 4.21999 16.74C4.13999 16.43 4.18999 16.08 4.20999 15.75C4.20999 15.67 4.31999 15.67 4.39999 15.67C4.54999 15.67 4.69999 15.67 4.84999 15.67C44.26 15.67 83.67 15.67 123.08 15.67C123.3 15.67 123.64 15.55 123.71 15.75C123.81 16.05 123.75 16.41 123.74 16.74C123.74 16.86 123.61 16.84 123.53 16.85C123.39 16.85 123.26 16.85 123.12 16.85C103.4 16.85 83.69 16.85 63.98 16.85Z" fill="white"/>
<path d="M63.99 71.69C44.23 71.69 24.47 71.69 4.71 71.68C4.54 71.68 4.25 71.82 4.21 71.56C4.15 71.24 4.2 70.9 4.22 70.57C4.22 70.55 4.35 70.52 4.42 70.51C4.54 70.5 4.66 70.51 4.78 70.51C44.24 70.51 83.69 70.51 123.15 70.52C123.34 70.52 123.65 70.39 123.71 70.62C123.79 70.93 123.74 71.28 123.72 71.61C123.72 71.69 123.6 71.69 123.53 71.69C123.38 71.69 123.23 71.69 123.08 71.69C103.39 71.69 83.69 71.69 63.99 71.69Z" fill="white"/>
<path d="M63.98 49.17C44.25 49.17 24.52 49.17 4.78999 49.16C4.59999 49.16 4.27999 49.29 4.21999 49.06C4.13999 48.75 4.18999 48.4 4.20999 48.07C4.20999 47.99 4.31999 47.99 4.39999 47.99C4.54999 47.99 4.69999 47.99 4.84999 47.99C44.23 47.99 83.61 47.99 122.99 47.99C123.24 47.99 123.61 47.86 123.71 48.07C123.83 48.33 123.75 48.69 123.75 49.01C123.75 49.13 123.67 49.16 123.57 49.16C123.42 49.16 123.27 49.16 123.12 49.16C103.4 49.17 83.69 49.17 63.98 49.17Z" fill="white"/>
<path d="M64.02 67.24C83.73 67.24 103.45 67.24 123.16 67.25C123.35 67.25 123.66 67.11 123.72 67.36C123.8 67.67 123.75 68.02 123.73 68.35C123.73 68.42 123.61 68.42 123.54 68.42C123.39 68.42 123.24 68.42 123.09 68.42C83.68 68.42 44.27 68.42 4.85999 68.42C4.74999 68.42 4.64999 68.41 4.53999 68.42C4.24999 68.46 4.18999 68.33 4.18999 68.06C4.18999 67.24 4.17999 67.24 4.97999 67.24C24.66 67.24 44.34 67.24 64.02 67.24Z" fill="white"/>
<path d="M64.02 35.1C83.73 35.1 103.45 35.1 123.16 35.11C123.35 35.11 123.66 34.97 123.72 35.22C123.8 35.53 123.74 35.88 123.73 36.21C123.73 36.28 123.61 36.28 123.53 36.28C123.38 36.28 123.23 36.28 123.08 36.28C83.67 36.28 44.26 36.28 4.85 36.28C4.74 36.28 4.64 36.27 4.53 36.28C4.24 36.32 4.18 36.18 4.18 35.92C4.18 35.1 4.17 35.1 4.97 35.1C24.66 35.1 44.34 35.1 64.02 35.1Z" fill="white"/>
<path d="M63.97 64.06C83.7 64.06 103.43 64.06 123.16 64.07C123.35 64.07 123.67 63.94 123.73 64.17C123.81 64.48 123.76 64.8301 123.74 65.1601C123.74 65.2401 123.63 65.24 123.55 65.24C123.4 65.24 123.25 65.24 123.1 65.24C83.72 65.24 44.34 65.24 4.96 65.24C4.71 65.24 4.34 65.3701 4.24 65.1501C4.12 64.8901 4.2 64.53 4.2 64.21C4.2 64.09 4.28 64.06 4.38 64.06C4.53 64.06 4.68 64.06 4.83 64.06C24.54 64.06 44.26 64.06 63.97 64.06Z" fill="white"/>
<path d="M63.98 23.39C44.25 23.39 24.52 23.39 4.78999 23.38C4.59999 23.38 4.27999 23.51 4.21999 23.28C4.13999 22.97 4.18999 22.62 4.20999 22.29C4.20999 22.21 4.31999 22.21 4.39999 22.21C4.54999 22.21 4.69999 22.21 4.84999 22.21C44.26 22.21 83.67 22.21 123.08 22.21C123.3 22.21 123.64 22.09 123.71 22.29C123.81 22.59 123.75 22.95 123.74 23.28C123.74 23.4 123.61 23.38 123.53 23.39C123.39 23.39 123.26 23.39 123.12 23.39C103.4 23.39 83.69 23.39 63.98 23.39Z" fill="white"/>
<path d="M63.98 61.97C44.25 61.97 24.52 61.97 4.78999 61.96C4.58999 61.96 4.27999 62.09 4.21999 61.86C4.13999 61.55 4.18999 61.2 4.20999 60.87C4.20999 60.79 4.31999 60.78 4.39999 60.78C4.54999 60.78 4.69999 60.78 4.84999 60.78C44.26 60.78 83.67 60.78 123.08 60.78C123.3 60.78 123.64 60.66 123.71 60.86C123.81 61.16 123.75 61.52 123.74 61.85C123.74 61.97 123.61 61.96 123.53 61.96C123.39 61.96 123.26 61.96 123.12 61.96C103.4 61.97 83.69 61.97 63.98 61.97Z" fill="white"/>
<path d="M63.98 42.73C44.25 42.73 24.52 42.73 4.78999 42.72C4.58999 42.72 4.27999 42.85 4.21999 42.62C4.13999 42.31 4.18999 41.96 4.20999 41.63C4.20999 41.55 4.31999 41.54 4.39999 41.54C4.54999 41.54 4.69999 41.54 4.84999 41.54C44.26 41.54 83.67 41.54 123.08 41.54C123.3 41.54 123.64 41.42 123.71 41.62C123.81 41.92 123.75 42.28 123.74 42.61C123.74 42.73 123.61 42.72 123.53 42.72C123.39 42.72 123.26 42.72 123.12 42.72C103.4 42.73 83.69 42.73 63.98 42.73Z" fill="white"/>
<path d="M63.96 25.39C83.69 25.39 103.42 25.39 123.15 25.4C123.35 25.4 123.66 25.27 123.72 25.5C123.8 25.81 123.75 26.16 123.73 26.49C123.73 26.57 123.62 26.58 123.54 26.58C123.39 26.58 123.24 26.58 123.09 26.58C83.68 26.58 44.27 26.58 4.86 26.58C4.64 26.58 4.3 26.7 4.23 26.5C4.13 26.2 4.19 25.84 4.2 25.51C4.2 25.39 4.33 25.4 4.41 25.4C4.55 25.4 4.68 25.4 4.82 25.4C24.54 25.39 44.25 25.39 63.96 25.39Z" fill="white"/>
<path d="M63.98 55.53C44.25 55.53 24.52 55.53 4.78999 55.52C4.58999 55.52 4.27999 55.65 4.21999 55.42C4.13999 55.11 4.18999 54.76 4.20999 54.43C4.20999 54.35 4.31999 54.35 4.39999 54.34C4.54999 54.34 4.69999 54.34 4.84999 54.34C44.26 54.34 83.67 54.34 123.08 54.34C123.3 54.34 123.64 54.22 123.71 54.42C123.81 54.72 123.75 55.08 123.74 55.41C123.74 55.53 123.61 55.52 123.53 55.52C123.39 55.52 123.26 55.52 123.12 55.52C103.4 55.53 83.69 55.53 63.98 55.53Z" fill="white"/>
<path d="M64.02 87.9401C83.75 87.9401 103.48 87.9401 123.21 87.9401C123.52 87.9401 123.78 87.88 123.77 88.38C123.76 88.81 123.62 88.8601 123.25 88.8601C83.73 88.8501 44.21 88.85 4.69 88.85C4.24 88.85 4.01 88.4701 4.2 88.0501C4.25 87.9401 4.33 87.9401 4.42 87.9401C4.57 87.9401 4.72 87.9401 4.87 87.9401C24.59 87.9401 44.3 87.9401 64.02 87.9401Z" fill="white"/>
<path d="M63.98 93.02C44.24 93.02 24.49 93.02 4.74999 93.02C4.20999 93.02 4.02999 92.76 4.18999 92.25C4.22999 92.13 4.28999 92.12 4.37999 92.11C4.49999 92.11 4.61999 92.11 4.73999 92.11C44.23 92.11 83.72 92.11 123.21 92.11C123.71 92.11 123.92 92.44 123.75 92.9C123.7 93.02 123.62 93.01 123.54 93.01C123.4 93.01 123.27 93.01 123.13 93.01C103.41 93.02 83.7 93.02 63.98 93.02Z" fill="white"/>
<path d="M63.97 10.5C83.72 10.5 103.46 10.5 123.21 10.5C123.52 10.5 123.79 10.44 123.78 10.93C123.77 11.35 123.64 11.41 123.26 11.41C83.74 11.4 44.22 11.4 4.69999 11.4C4.24999 11.4 4.01999 11.03 4.20999 10.61C4.25999 10.5 4.33999 10.5 4.42999 10.5C4.57999 10.5 4.72999 10.5 4.87999 10.5C24.57 10.5 44.27 10.5 63.97 10.5Z" fill="white"/>
<path d="M63.97 12.4101C44.21 12.4101 24.45 12.4101 4.69 12.4201C4.32 12.4201 4.18 12.3701 4.17 11.9401C4.15 11.4401 4.42 11.5001 4.72 11.5001C35.04 11.5001 65.36 11.5001 95.68 11.5001C104.86 11.5001 114.05 11.5001 123.23 11.5001C123.69 11.5001 123.94 11.9001 123.74 12.3101C123.7 12.3901 123.63 12.4001 123.56 12.4101C123.42 12.4101 123.29 12.4101 123.15 12.4101C103.43 12.4101 83.7 12.4101 63.97 12.4101Z" fill="white"/>
<path d="M63.97 13.77C83.72 13.77 103.46 13.77 123.21 13.77C123.52 13.77 123.79 13.71 123.78 14.2C123.77 14.62 123.64 14.68 123.26 14.68C83.74 14.67 44.22 14.67 4.69999 14.67C4.24999 14.67 4.01999 14.3 4.20999 13.88C4.25999 13.77 4.33999 13.77 4.42999 13.77C4.57999 13.77 4.72999 13.77 4.87999 13.77C24.57 13.77 44.27 13.77 63.97 13.77Z" fill="white"/>
<path d="M63.97 17.9401C83.73 17.9401 103.49 17.9401 123.25 17.9301C123.66 17.9301 123.76 18.0401 123.77 18.4501C123.79 18.9401 123.5 18.8501 123.23 18.8501C103.35 18.8501 83.47 18.8501 63.59 18.8501C44 18.8501 24.4 18.8501 4.81 18.8501C4.12 18.8501 4.13 18.8501 4.19 18.1801C4.2 18.0101 4.24 17.9301 4.42 17.9401C4.56 17.9501 4.69 17.9401 4.83 17.9401C24.54 17.9401 44.25 17.9401 63.97 17.9401Z" fill="white"/>
<path d="M63.97 21.12C44.22 21.12 24.48 21.12 4.73 21.12C4.43 21.12 4.15 21.18 4.16 20.69C4.17 20.27 4.3 20.2 4.68 20.2C44.2 20.21 83.72 20.21 123.24 20.21C123.7 20.21 123.92 20.57 123.73 21C123.68 21.11 123.6 21.11 123.51 21.11C123.36 21.11 123.21 21.11 123.06 21.11C103.37 21.12 83.67 21.12 63.97 21.12Z" fill="white"/>
<path d="M64.02 24.39C83.76 24.39 103.51 24.39 123.25 24.38C123.62 24.38 123.76 24.43 123.77 24.86C123.79 25.36 123.52 25.3 123.22 25.3C93.11 25.3 63 25.3 32.89 25.3C23.49 25.3 14.1 25.3 4.7 25.3C4.24 25.3 3.99 24.9 4.19 24.49C4.23 24.41 4.3 24.4 4.37 24.39C4.51 24.39 4.64 24.39 4.78 24.39C24.53 24.39 44.28 24.39 64.02 24.39Z" fill="white"/>
<path d="M63.97 26.66C83.72 26.66 103.46 26.66 123.21 26.66C123.51 26.66 123.79 26.59 123.78 27.09C123.77 27.51 123.64 27.58 123.26 27.58C83.74 27.57 44.22 27.57 4.7 27.57C4.24 27.57 4.02 27.21 4.21 26.78C4.26 26.67 4.34 26.67 4.43 26.67C4.58 26.67 4.73 26.67 4.88 26.67C24.57 26.66 44.27 26.66 63.97 26.66Z" fill="white"/>
<path d="M63.92 28.56C44.18 28.56 24.43 28.56 4.69 28.57C4.32 28.57 4.18 28.52 4.17 28.09C4.15 27.59 4.42 27.65 4.72 27.65C34.8 27.65 64.88 27.65 94.95 27.65C104.38 27.65 113.8 27.65 123.23 27.65C123.69 27.65 123.94 28.05 123.74 28.46C123.7 28.54 123.63 28.55 123.56 28.56C123.42 28.56 123.29 28.56 123.15 28.56C103.41 28.56 83.67 28.56 63.92 28.56Z" fill="white"/>
<path d="M63.92 30.83C44.19 30.83 24.46 30.83 4.73 30.83C4.42 30.83 4.16 30.89 4.16 30.4C4.17 29.97 4.31 29.92 4.68 29.92C44.2 29.93 83.72 29.93 123.24 29.93C123.69 29.93 123.92 30.31 123.73 30.73C123.68 30.84 123.6 30.84 123.51 30.84C123.36 30.84 123.21 30.84 123.06 30.84C103.35 30.83 83.64 30.83 63.92 30.83Z" fill="white"/>
<path d="M63.99 35.01C44.25 35.01 24.5 35.01 4.76 35.01C4.22 35.01 4.04 34.77 4.19 34.24C4.22 34.13 4.28 34.1 4.38 34.1C4.5 34.1 4.62 34.1 4.74 34.1C44.23 34.1 83.72 34.1 123.21 34.1C123.51 34.1 123.78 34.02 123.78 34.53C123.77 34.99 123.59 35.02 123.23 35.02C103.48 35.01 83.73 35.01 63.99 35.01Z" fill="white"/>
<path d="M63.93 37.28C44.2 37.28 24.47 37.28 4.73999 37.28C4.42999 37.28 4.15999 37.34 4.16999 36.85C4.17999 36.42 4.31999 36.37 4.68999 36.37C44.21 36.38 83.73 36.38 123.25 36.38C123.7 36.38 123.93 36.75 123.74 37.17C123.69 37.28 123.61 37.28 123.52 37.28C123.37 37.28 123.22 37.28 123.07 37.28C103.36 37.28 83.64 37.28 63.93 37.28Z" fill="white"/>
<path d="M63.95 41.46C44.22 41.46 24.49 41.46 4.75999 41.46C4.20999 41.46 4.03999 41.23 4.18999 40.7C4.21999 40.59 4.27999 40.56 4.37999 40.56C4.49999 40.56 4.61999 40.56 4.73999 40.56C44.23 40.56 83.72 40.56 123.21 40.56C123.5 40.56 123.79 40.47 123.78 40.98C123.77 41.43 123.61 41.47 123.23 41.47C103.47 41.45 83.71 41.46 63.95 41.46Z" fill="white"/>
<path d="M63.92 43.73C44.19 43.73 24.46 43.73 4.73 43.73C4.42 43.73 4.16 43.79 4.16 43.3C4.17 42.87 4.31 42.82 4.68 42.82C44.2 42.83 83.72 42.83 123.24 42.83C123.69 42.83 123.92 43.2 123.73 43.62C123.68 43.73 123.6 43.73 123.51 43.73C123.36 43.73 123.21 43.73 123.06 43.73C103.36 43.73 83.64 43.73 63.92 43.73Z" fill="white"/>
<path d="M63.92 83.31C44.18 83.31 24.43 83.31 4.69 83.32C4.32 83.32 4.18 83.27 4.17 82.84C4.16 82.34 4.41999 82.4 4.71999 82.4C34.59 82.4 64.45 82.4 94.32 82.4C103.96 82.4 113.6 82.4 123.23 82.4C123.69 82.4 123.94 82.8 123.74 83.21C123.7 83.3 123.63 83.3 123.56 83.31C123.42 83.31 123.29 83.31 123.15 83.31C103.41 83.31 83.67 83.31 63.92 83.31Z" fill="white"/>
<path d="M63.92 47.9C44.18 47.9 24.43 47.9 4.69 47.91C4.32 47.91 4.18 47.87 4.17 47.43C4.16 46.94 4.41 46.99 4.72 46.99C34.01 46.99 63.3 46.99 92.59 46.99C102.8 46.99 113.02 46.99 123.23 46.99C123.69 46.99 123.94 47.39 123.74 47.8C123.7 47.89 123.63 47.89 123.56 47.9C123.42 47.9 123.29 47.9 123.15 47.9C103.41 47.9 83.67 47.9 63.92 47.9Z" fill="white"/>
<path d="M63.98 53.35C83.71 53.35 103.44 53.35 123.17 53.35C123.78 53.35 123.84 53.43 123.75 54.06C123.73 54.22 123.67 54.27 123.52 54.26C123.43 54.26 123.34 54.26 123.25 54.26C83.73 54.26 44.21 54.26 4.68999 54.27C4.28999 54.27 4.16999 54.18 4.15999 53.76C4.14999 53.29 4.40999 53.35 4.69999 53.35C24.47 53.35 44.23 53.35 63.98 53.35Z" fill="white"/>
<path d="M63.92 56.53C44.19 56.53 24.46 56.53 4.73 56.53C4.42 56.53 4.16 56.59 4.16 56.1C4.17 55.67 4.31 55.62 4.68 55.62C44.2 55.63 83.72 55.63 123.24 55.63C123.69 55.63 123.92 56 123.73 56.43C123.68 56.54 123.6 56.54 123.51 56.54C123.36 56.54 123.21 56.54 123.06 56.54C103.35 56.53 83.64 56.53 63.92 56.53Z" fill="white"/>
<path d="M63.95 60.7C44.22 60.7 24.49 60.7 4.76 60.7C4.2 60.7 4.04 60.48 4.19 59.94C4.22 59.83 4.28 59.79 4.38 59.79C4.5 59.79 4.62 59.79 4.74 59.79C44.23 59.79 83.72 59.79 123.21 59.79C123.5 59.79 123.79 59.7 123.78 60.21C123.77 60.66 123.61 60.71 123.23 60.71C103.47 60.7 83.71 60.7 63.95 60.7Z" fill="white"/>
<path d="M63.95 62.9701C44.2 62.9701 24.46 62.9701 4.70999 62.9701C4.37999 62.9701 4.13999 62.9901 4.15999 62.5201C4.17999 62.1301 4.28999 62.0601 4.64999 62.0601C44.19 62.0701 83.72 62.0701 123.26 62.0701C123.68 62.0701 123.93 62.5101 123.73 62.8801C123.67 62.9801 123.58 62.9701 123.5 62.9701C123.35 62.9701 123.2 62.9701 123.05 62.9701C103.35 62.9701 83.65 62.9701 63.95 62.9701Z" fill="white"/>
<path d="M63.97 65.33C83.72 65.33 103.46 65.33 123.21 65.33C123.52 65.33 123.79 65.27 123.78 65.76C123.77 66.18 123.64 66.24 123.26 66.24C83.74 66.23 44.22 66.23 4.69999 66.23C4.24999 66.23 4.01999 65.86 4.20999 65.44C4.25999 65.33 4.33999 65.33 4.42999 65.33C4.57999 65.33 4.72999 65.33 4.87999 65.33C24.57 65.33 44.27 65.33 63.97 65.33Z" fill="white"/>
<path d="M63.97 69.51C83.73 69.51 103.49 69.51 123.25 69.5C123.66 69.5 123.76 69.61 123.78 70.02C123.79 70.5 123.52 70.42 123.24 70.42C104.24 70.42 85.23 70.42 66.23 70.42C45.76 70.42 25.29 70.42 4.82 70.42C4.13 70.42 4.14 70.42 4.19 69.75C4.2 69.58 4.24 69.5 4.42 69.51C4.56 69.52 4.69 69.51 4.83 69.51C24.54 69.51 44.25 69.51 63.97 69.51Z" fill="white"/>
<path d="M63.92 72.68C44.19 72.68 24.46 72.68 4.73 72.68C4.42 72.68 4.16 72.74 4.16 72.25C4.17 71.82 4.31 71.77 4.68 71.77C44.2 71.78 83.72 71.78 123.24 71.78C123.69 71.78 123.92 72.16 123.73 72.58C123.68 72.69 123.6 72.69 123.51 72.69C123.36 72.69 123.21 72.69 123.06 72.69C103.35 72.68 83.64 72.68 63.92 72.68Z" fill="white"/>
<path d="M63.92 76.86C44.18 76.86 24.43 76.86 4.69 76.87C4.32 76.87 4.18 76.82 4.17 76.39C4.15 75.89 4.42 75.95 4.72 75.95C34.92 75.95 65.12 75.95 95.32 75.95C104.62 75.95 113.93 75.95 123.23 75.95C123.69 75.95 123.94 76.35 123.74 76.76C123.7 76.84 123.63 76.85 123.56 76.86C123.42 76.86 123.29 76.86 123.15 76.86C103.41 76.86 83.67 76.86 63.92 76.86Z" fill="white"/>
<path d="M63.94 79.13C44.21 79.13 24.48 79.13 4.74999 79.13C4.49999 79.13 4.17999 79.27 4.17999 78.76C4.17999 78.32 4.29999 78.22 4.72999 78.22C44.22 78.23 83.71 78.23 123.2 78.23C123.75 78.23 123.89 78.42 123.76 78.97C123.73 79.11 123.66 79.14 123.54 79.14C123.39 79.14 123.24 79.14 123.09 79.14C103.37 79.13 83.65 79.13 63.94 79.13Z" fill="white"/>
<path d="M63.97 85.58C44.22 85.58 24.48 85.58 4.73 85.58C4.42 85.58 4.15 85.64 4.16 85.15C4.17 84.73 4.3 84.66 4.68 84.66C44.2 84.67 83.72 84.67 123.24 84.67C123.7 84.67 123.92 85.03 123.73 85.46C123.68 85.57 123.6 85.57 123.51 85.57C123.36 85.57 123.21 85.57 123.06 85.57C103.37 85.58 83.67 85.58 63.97 85.58Z" fill="white"/>
<path d="M63.97 86.57C44.21 86.57 24.45 86.57 4.69 86.58C4.28 86.58 4.18 86.48 4.16 86.06C4.15 85.58 4.42 85.66 4.7 85.66C23.64 85.66 42.59 85.66 61.53 85.66C82.06 85.66 102.59 85.66 123.12 85.66C123.81 85.66 123.8 85.66 123.75 86.33C123.74 86.5 123.7 86.58 123.52 86.57C123.38 86.56 123.25 86.57 123.11 86.57C103.4 86.57 83.69 86.57 63.97 86.57Z" fill="white"/>
<path d="M63.95 44.6301C44.21 44.6301 24.46 44.6301 4.72 44.6301C4.48 44.6301 4.17 44.7701 4.18 44.2801C4.19 43.9101 4.27 43.8101 4.65 43.8101C44.2 43.8201 83.75 43.8201 123.3 43.8201C123.73 43.8201 123.9 44.0901 123.76 44.5101C123.72 44.6301 123.65 44.6301 123.55 44.6301C123.41 44.6301 123.28 44.6301 123.14 44.6301C103.41 44.6301 83.68 44.6301 63.95 44.6301Z" fill="white"/>
<path d="M64.02 23.48C83.75 23.48 103.48 23.48 123.21 23.49C123.41 23.49 123.75 23.3 123.77 23.78C123.78 24.18 123.69 24.31 123.26 24.31C83.74 24.3 44.22 24.3 4.7 24.31C4.26 24.31 4.16 24.17 4.19 23.78C4.21 23.53 4.3 23.47 4.52 23.48C4.66 23.49 4.79 23.48 4.93 23.48C24.62 23.48 44.32 23.48 64.02 23.48Z" fill="white"/>
<path d="M63.98 50.99C44.22 50.99 24.46 50.99 4.69999 50.99C4.44999 50.99 4.17999 51.1 4.15999 50.63C4.14999 50.17 4.35999 50.17 4.68999 50.17C44.21 50.17 83.73 50.17 123.25 50.17C123.74 50.17 123.85 50.34 123.75 50.83C123.72 50.98 123.64 50.99 123.53 50.99C123.39 50.99 123.26 50.99 123.12 50.99C103.41 50.99 83.7 50.99 63.98 50.99Z" fill="white"/>
<path d="M63.95 63.8801C44.21 63.8801 24.46 63.8801 4.72 63.8801C4.48 63.8801 4.17 64.0201 4.18 63.5301C4.19 63.1601 4.27 63.0601 4.65 63.0601C44.2 63.0701 83.75 63.0701 123.3 63.0701C123.73 63.0701 123.9 63.3401 123.76 63.7601C123.72 63.8801 123.65 63.8801 123.55 63.8801C123.41 63.8801 123.28 63.8801 123.14 63.8801C103.41 63.8801 83.68 63.8801 63.95 63.8801Z" fill="white"/>
<path d="M63.95 22.03C44.21 22.03 24.46 22.03 4.71999 22.03C4.48999 22.03 4.16999 22.17 4.17999 21.68C4.18999 21.31 4.26999 21.2 4.64999 21.2C44.2 21.21 83.75 21.21 123.3 21.21C123.73 21.21 123.9 21.48 123.76 21.9C123.72 22.02 123.65 22.02 123.56 22.02C123.42 22.02 123.29 22.02 123.15 22.02C103.41 22.03 83.68 22.03 63.95 22.03Z" fill="white"/>
<path d="M63.96 40.46C44.21 40.46 24.47 40.46 4.72 40.46C4.44 40.46 4.17 40.54 4.17 40.06C4.17 39.55 4.47 39.64 4.75 39.64C38.05 39.64 71.36 39.64 104.66 39.64C110.86 39.64 117.07 39.64 123.27 39.63C123.68 39.63 123.8 39.74 123.77 40.13C123.75 40.39 123.67 40.48 123.42 40.46C123.29 40.45 123.15 40.46 123.01 40.46C103.33 40.46 83.64 40.46 63.96 40.46Z" fill="white"/>
<path d="M63.92 67.15C44.18 67.15 24.43 67.15 4.69 67.15C4.47 67.15 4.18 67.28 4.17 66.82C4.17 66.42 4.27 66.32 4.67 66.32C44.2 66.33 83.74 66.33 123.27 66.33C123.73 66.33 123.88 66.54 123.75 67C123.72 67.11 123.66 67.14 123.56 67.14C123.42 67.14 123.29 67.14 123.15 67.14C103.41 67.15 83.67 67.15 63.92 67.15Z" fill="white"/>
<path d="M63.93 69.42C44.2 69.42 24.47 69.42 4.73999 69.41C4.51999 69.41 4.17999 69.58 4.16999 69.09C4.15999 68.68 4.27999 68.6 4.67999 68.6C44.2 68.61 83.72 68.61 123.24 68.6C123.66 68.6 123.8 68.71 123.76 69.12C123.74 69.36 123.67 69.45 123.44 69.43C123.31 69.42 123.17 69.43 123.03 69.43C103.33 69.42 83.63 69.42 63.93 69.42Z" fill="white"/>
<path d="M63.97 53.2601C44.22 53.2601 24.48 53.2601 4.73 53.2501C4.53 53.2501 4.19 53.4401 4.17 52.9601C4.16 52.5601 4.24 52.4301 4.68 52.4301C44.2 52.4401 83.72 52.4401 123.24 52.4301C123.68 52.4301 123.78 52.5701 123.75 52.9601C123.73 53.2101 123.64 53.2701 123.42 53.2601C123.28 53.2501 123.15 53.2601 123.01 53.2601C103.34 53.2601 83.66 53.2601 63.97 53.2601Z" fill="white"/>
<path d="M63.92 17.85C44.19 17.85 24.46 17.85 4.73 17.84C4.53 17.84 4.19 18.03 4.17 17.55C4.16 17.15 4.25 17.02 4.68 17.02C44.2 17.03 83.72 17.03 123.24 17.02C123.68 17.02 123.78 17.16 123.75 17.55C123.73 17.75 123.7 17.86 123.47 17.85C123.32 17.84 123.17 17.85 123.02 17.85C103.33 17.85 83.63 17.85 63.92 17.85Z" fill="white"/>
<path d="M63.97 46.9C44.22 46.9 24.48 46.9 4.73 46.89C4.53 46.89 4.19 47.08 4.17 46.6C4.16 46.2 4.24 46.07 4.68 46.07C44.2 46.08 83.72 46.08 123.24 46.07C123.68 46.07 123.78 46.21 123.75 46.6C123.73 46.85 123.64 46.91 123.42 46.9C123.28 46.89 123.15 46.9 123.01 46.9C103.34 46.9 83.66 46.9 63.97 46.9Z" fill="white"/>
<path d="M63.97 73.59C44.21 73.59 24.45 73.59 4.69 73.59C4.47 73.59 4.17 73.73 4.17 73.27C4.17 72.88 4.25 72.77 4.66 72.77C44.19 72.78 83.73 72.78 123.26 72.78C123.73 72.78 123.87 72.98 123.74 73.45C123.71 73.56 123.66 73.6 123.56 73.6C123.41 73.6 123.26 73.6 123.11 73.6C103.4 73.59 83.69 73.59 63.97 73.59Z" fill="white"/>
<path d="M63.99 14.77C83.73 14.77 103.48 14.77 123.22 14.77C123.46 14.77 123.77 14.64 123.76 15.12C123.75 15.49 123.67 15.59 123.29 15.59C83.74 15.58 44.19 15.58 4.63999 15.58C4.20999 15.58 4.03999 15.3 4.18999 14.89C4.22999 14.77 4.30999 14.77 4.39999 14.77C4.53999 14.77 4.66999 14.77 4.80999 14.77C24.54 14.77 44.27 14.77 63.99 14.77Z" fill="white"/>
<path d="M63.97 75.0501C83.72 75.0501 103.46 75.05 123.21 75.06C123.41 75.06 123.75 74.87 123.77 75.35C123.79 75.74 123.7 75.88 123.26 75.88C83.74 75.87 44.22 75.87 4.69999 75.87C4.16999 75.87 4.15999 75.8401 4.18999 75.3001C4.19999 75.0901 4.28999 75.0401 4.46999 75.0501C4.61999 75.0601 4.76999 75.0501 4.91999 75.0501C24.6 75.0501 44.28 75.0501 63.97 75.0501Z" fill="white"/>
<path d="M63.96 38.19C44.2 38.19 24.44 38.19 4.68 38.19C4.45 38.19 4.17 38.31 4.17 37.86C4.17 37.45 4.28 37.37 4.67 37.37C44.2 37.38 83.74 37.38 123.27 37.38C123.72 37.38 123.88 37.61 123.74 38.06C123.71 38.17 123.64 38.2 123.55 38.2C123.41 38.2 123.28 38.2 123.14 38.2C103.42 38.19 83.69 38.19 63.96 38.19Z" fill="white"/>
<path d="M63.97 80.04C44.21 80.04 24.45 80.04 4.69 80.04C4.47 80.04 4.17 80.18 4.17 79.72C4.17 79.33 4.25 79.22 4.66 79.22C44.19 79.23 83.73 79.23 123.26 79.23C123.73 79.23 123.87 79.43 123.74 79.9C123.71 80.01 123.65 80.05 123.55 80.05C123.4 80.05 123.25 80.05 123.1 80.05C103.4 80.04 83.69 80.04 63.97 80.04Z" fill="white"/>
<path d="M64.02 81.49C83.75 81.49 103.48 81.49 123.21 81.5C123.41 81.5 123.75 81.31 123.77 81.79C123.78 82.19 123.69 82.32 123.26 82.32C83.74 82.31 44.22 82.31 4.7 82.32C4.26 82.32 4.16 82.18 4.19 81.79C4.21 81.54 4.3 81.48 4.52 81.49C4.66 81.5 4.79 81.49 4.93 81.49C24.62 81.49 44.32 81.49 64.02 81.49Z" fill="white"/>
<path d="M63.92 34.0101C44.19 34.0101 24.46 34.0101 4.73 34.0001C4.53 34.0001 4.19 34.1901 4.17 33.7101C4.16 33.3101 4.25 33.1801 4.68 33.1801C44.2 33.1901 83.72 33.1901 123.24 33.1801C123.68 33.1801 123.78 33.3201 123.75 33.7101C123.73 33.9101 123.69 34.0201 123.47 34.0101C123.32 34.0001 123.17 34.0101 123.02 34.0101C103.32 34.0101 83.62 34.0101 63.92 34.0101Z" fill="white"/>
<path d="M63.95 57.43C44.21 57.43 24.46 57.43 4.71999 57.43C4.44999 57.43 4.14999 57.54 4.16999 57.04C4.17999 56.66 4.30999 56.61 4.63999 56.61C44.19 56.62 83.74 56.62 123.29 56.62C123.73 56.62 123.89 56.88 123.75 57.31C123.71 57.43 123.64 57.44 123.55 57.44C123.41 57.44 123.28 57.44 123.14 57.44C103.41 57.43 83.68 57.43 63.95 57.43Z" fill="white"/>
<path d="M63.95 31.74C44.21 31.74 24.46 31.74 4.72 31.74C4.48 31.74 4.17 31.88 4.18 31.39C4.19 31.02 4.27 30.92 4.65 30.92C44.2 30.93 83.75 30.93 123.3 30.93C123.73 30.93 123.9 31.21 123.75 31.62C123.71 31.74 123.63 31.74 123.54 31.74C123.4 31.74 123.27 31.74 123.13 31.74C103.41 31.74 83.68 31.74 63.95 31.74Z" fill="white"/>
<path d="M64.02 58.89C83.75 58.89 103.48 58.89 123.21 58.9C123.41 58.9 123.75 58.71 123.77 59.19C123.78 59.59 123.69 59.72 123.26 59.72C83.74 59.71 44.22 59.71 4.7 59.72C4.26 59.72 4.16 59.58 4.19 59.19C4.21 58.99 4.24 58.88 4.47 58.89C4.62 58.9 4.77 58.89 4.92 58.89C24.62 58.89 44.32 58.89 64.02 58.89Z" fill="white"/>
<path d="M63.92 89.7501C44.18 89.7501 24.43 89.7501 4.69 89.7501C4.47 89.7501 4.18 89.8801 4.17 89.4201C4.17 89.0201 4.27 88.9301 4.67 88.9301C44.2 88.9401 83.74 88.9401 123.27 88.9401C123.73 88.9401 123.88 89.1601 123.75 89.6101C123.72 89.7201 123.66 89.7501 123.56 89.7501C123.42 89.7501 123.29 89.7501 123.15 89.7501C103.41 89.7501 83.67 89.7501 63.92 89.7501Z" fill="white"/>
<path d="M63.97 91.2C83.72 91.2 103.46 91.2 123.21 91.21C123.41 91.21 123.75 91.02 123.77 91.5C123.78 91.89 123.7 92.03 123.26 92.03C83.74 92.02 44.22 92.02 4.69999 92.02C4.16999 92.02 4.15999 91.99 4.18999 91.45C4.19999 91.24 4.28999 91.19 4.46999 91.2C4.61999 91.21 4.76999 91.2 4.91999 91.2C24.6 91.2 44.28 91.2 63.97 91.2Z" fill="white"/>
<path d="M63.93 50.08C44.2 50.08 24.47 50.08 4.73999 50.07C4.51999 50.07 4.17999 50.24 4.16999 49.75C4.15999 49.34 4.27999 49.25 4.67999 49.25C44.2 49.26 83.72 49.26 123.24 49.25C123.66 49.25 123.8 49.36 123.76 49.77C123.74 50.01 123.67 50.1 123.44 50.08C123.29 50.07 123.14 50.08 122.99 50.08C103.3 50.08 83.62 50.08 63.93 50.08Z" fill="white"/>
<path d="M63.92 5.41002C44.18 5.41002 24.43 5.41002 4.69 5.41002C4.38 5.41002 4.11 5.43002 4.18 4.98002C4.21 4.84002 4.24 4.77002 4.4 4.78002C4.52 4.79002 4.64 4.78002 4.76 4.78002C44.23 4.78002 83.71 4.78002 123.18 4.79002C123.36 4.79002 123.62 4.65002 123.74 4.91002C123.87 5.22002 123.72 5.41002 123.38 5.42002C123.26 5.42002 123.14 5.42002 123.02 5.42002C103.32 5.41002 83.62 5.41002 63.92 5.41002Z" fill="white"/>
<path d="M64.02 3.15004C83.76 3.15004 103.51 3.15004 123.25 3.15004C123.56 3.15004 123.83 3.13004 123.76 3.58004C123.74 3.73004 123.7 3.80004 123.55 3.79004C123.43 3.78004 123.31 3.79004 123.19 3.79004C83.72 3.79004 44.24 3.79004 4.77 3.78004C4.59 3.78004 4.33 3.92004 4.21 3.66004C4.08 3.36004 4.23 3.16004 4.57 3.15004C4.69 3.15004 4.81 3.15004 4.93 3.15004C24.62 3.15004 44.32 3.15004 64.02 3.15004Z" fill="white"/>
<path d="M64.02 1.97001C83.76 1.97001 103.51 1.97001 123.25 1.97001C123.47 1.97001 123.81 1.83001 123.76 2.30001C123.74 2.45001 123.7 2.52001 123.55 2.51001C123.43 2.50001 123.31 2.51001 123.19 2.51001C83.72 2.51001 44.24 2.51001 4.76999 2.51001C4.65999 2.51001 4.55999 2.50001 4.44999 2.51001C4.24999 2.53001 4.18999 2.44001 4.18999 2.25001C4.19999 2.08001 4.19999 1.95001 4.42999 1.97001C4.56999 1.98001 4.69999 1.97001 4.83999 1.97001C24.56 1.97001 44.29 1.97001 64.02 1.97001Z" fill="white"/>
<path d="M63.95 4.69001C44.25 4.69001 24.55 4.69001 4.84999 4.69001C4.72999 4.69001 4.60999 4.69001 4.48999 4.69001C4.33999 4.69001 4.18999 4.72001 4.18999 4.47001C4.18999 4.25001 4.29999 4.22001 4.46999 4.23001C4.55999 4.24001 4.64999 4.23001 4.73999 4.23001C44.23 4.23001 83.72 4.23001 123.21 4.23001C123.27 4.23001 123.33 4.23001 123.39 4.23001C123.55 4.24001 123.77 4.16001 123.76 4.47001C123.75 4.75001 123.56 4.67001 123.41 4.68001C123.29 4.69001 123.17 4.68001 123.05 4.68001C103.35 4.69001 83.65 4.69001 63.95 4.69001Z" fill="white"/>
<path d="M63.97 1.42004C83.7 1.42004 103.43 1.42004 123.16 1.43004C123.35 1.43004 123.72 1.28004 123.72 1.57004C123.72 1.82004 123.35 1.69004 123.15 1.69004C83.7 1.69004 44.25 1.69004 4.81 1.69004C4.61 1.69004 4.23 1.81004 4.23 1.58004C4.24 1.26004 4.62 1.44004 4.82 1.44004C24.54 1.42004 44.25 1.42004 63.97 1.42004Z" fill="white"/>
<path d="M63.99 3.87004C83.72 3.87004 103.45 3.87004 123.18 3.88004C123.36 3.88004 123.7 3.75004 123.71 4.00004C123.72 4.27004 123.38 4.14004 123.2 4.14004C83.71 4.15004 44.22 4.15004 4.73 4.14004C4.56 4.14004 4.21 4.27004 4.22 4.00004C4.23 3.75004 4.57 3.88004 4.75 3.88004C24.5 3.87004 44.25 3.87004 63.99 3.87004Z" fill="white"/>
<path d="M0.219994 94.6901C42.72 94.6901 85.22 94.6901 127.73 94.6901C127.73 94.7201 127.73 94.7501 127.73 94.7801C85.23 94.7801 42.73 94.7801 0.219994 94.7801C0.219994 94.7601 0.219994 94.7301 0.219994 94.6901Z" fill="white"/>
<path d="M123.72 3.01004C83.88 3.01004 44.05 3.01004 4.21 3.01004C4.21 2.98004 4.21 2.95004 4.21 2.92004C44.05 2.92004 83.88 2.92004 123.72 2.92004C123.72 2.95004 123.72 2.98004 123.72 3.01004Z" fill="white"/>
<path d="M123.73 2.74002C83.89 2.74002 44.05 2.74002 4.21 2.74002C4.21 2.71002 4.21 2.68002 4.21 2.65002C44.05 2.65002 83.89 2.65002 123.73 2.65002C123.73 2.68002 123.73 2.71002 123.73 2.74002Z" fill="white"/>
<path d="M4.28999 1.81C44.07 1.81 83.86 1.81 123.64 1.81C123.64 1.82 123.64 1.84 123.64 1.85C83.86 1.85 44.07 1.85 4.28999 1.85C4.28999 1.84 4.28999 1.82 4.28999 1.81Z" fill="white"/>
</g>
<defs>
<clipPath id="clip0_476_94">
<rect width="128" height="95" fill="white"/>
</clipPath>
</defs>
</svg>
