<svg width="80" height="95" viewBox="0 0 80 95" fill="none" xmlns="http://www.w3.org/2000/svg">
<g clip-path="url(#clip0_476_551)">
<path d="M0.179997 94.79C-3.02494e-06 94.64 0.099997 94.43 0.099997 94.26C0.089997 67.38 0.099997 40.51 0.099997 13.63C0.099997 9.28999 0.109997 4.95999 0.089997 0.619985C0.089997 0.199985 0.209997 0.109985 0.609997 0.119985C1.7 0.149985 2.79 0.139985 3.88 0.119985C4.16 0.119985 4.23 0.199985 4.23 0.469985C4.23 1.37999 4.25 1.37999 5.17 1.37999C28.53 1.37999 51.89 1.37999 75.25 1.37999C75.84 1.37999 75.84 1.37999 75.84 0.779985C75.84 0.689985 75.85 0.599985 75.84 0.509985C75.79 0.189985 75.92 0.109985 76.23 0.109985C77.35 0.129985 78.47 0.129985 79.59 0.109985C79.87 0.109985 80.01 0.169985 79.97 0.479985C79.96 0.569985 79.97 0.659985 79.97 0.749985C79.97 31.9 79.97 63.05 79.96 94.21C79.96 94.4 80.07 94.62 79.87 94.79C79.84 94.78 79.81 94.78 79.78 94.77C79.56 94.74 79.33 94.75 79.11 94.75C53.06 94.75 27 94.75 0.949997 94.75C0.729997 94.75 0.499997 94.74 0.279997 94.77C0.239997 94.78 0.209997 94.79 0.179997 94.79Z" fill="black"/>
<path d="M79.87 94.79C79.77 94.97 79.6 94.88 79.47 94.88C53.18 94.88 26.88 94.88 0.589993 94.88C0.459993 94.88 0.289993 94.97 0.189993 94.79L0.179993 94.8C0.389993 94.64 0.639993 94.71 0.879993 94.71C15.14 94.71 29.4 94.71 43.67 94.71C55.51 94.71 67.35 94.71 79.19 94.71C79.42 94.71 79.67 94.64 79.89 94.8L79.87 94.79Z" fill="black"/>
<path d="M0.180004 47.37C0.180004 31.85 0.180004 16.32 0.180004 0.799959C0.180004 0.219959 0.180004 0.219959 0.780004 0.219959C1.77 0.219959 2.75 0.229959 3.74 0.209959C4.06 0.199959 4.13 0.309959 4.13 0.609959C4.12 2.65996 4.13 4.70996 4.11 6.75996C4.11 7.13996 4.21 7.21996 4.58 7.21996C28.2 7.20996 51.81 7.20996 75.43 7.21996C75.82 7.21996 75.93 7.12996 75.92 6.72996C75.9 4.69996 75.92 2.65996 75.9 0.629959C75.9 0.299959 75.97 0.189959 76.32 0.199959C77.38 0.219959 78.44 0.219959 79.51 0.199959C79.77 0.199959 79.91 0.249959 79.87 0.539959C79.85 0.639959 79.87 0.749959 79.87 0.849959C79.87 31.85 79.87 62.86 79.87 93.86C79.87 94.51 79.87 94.51 79.2 94.51C78.24 94.51 77.29 94.49 76.33 94.52C75.98 94.53 75.91 94.42 75.92 94.09C75.93 91.46 75.93 88.83 75.93 86.19C75.93 61.14 75.93 36.09 75.93 11.03C75.93 10.42 75.93 10.42 75.31 10.42C51.78 10.42 28.26 10.42 4.73 10.42C4.04 10.42 4.14 10.32 4.14 11.01C4.14 38.63 4.14 66.26 4.14 93.88C4.14 94.5 4.14 94.5 3.53 94.5C2.56 94.5 1.59 94.49 0.610004 94.51C0.290004 94.52 0.150004 94.45 0.180004 94.1C0.210004 93.68 0.190004 93.26 0.190004 92.84C0.180004 77.7 0.180004 62.54 0.180004 47.37Z" fill="white"/>
<path d="M39.98 7.11997C28.24 7.11997 16.5 7.11997 4.76 7.12997C4.3 7.12997 4.19 7.00997 4.21 6.56997C4.24 5.59997 4.22 5.59997 5.19 5.59997C28.55 5.59997 51.91 5.59997 75.26 5.58997C75.73 5.58997 75.85 5.70997 75.84 6.16997C75.8 7.11997 75.83 7.11997 74.88 7.11997C63.25 7.11997 51.61 7.11997 39.98 7.11997Z" fill="white"/>
<path d="M40.03 94.53C28.28 94.53 16.52 94.53 4.76999 94.54C4.31999 94.54 4.18999 94.44 4.20999 93.98C4.24999 93.09 4.21999 93.09 5.09999 93.09C28.47 93.09 51.84 93.09 75.21 93.09C75.83 93.09 75.83 93.09 75.83 93.7C75.83 94.52 75.83 94.52 75.02 94.52C63.36 94.53 51.69 94.53 40.03 94.53Z" fill="white"/>
<path d="M40.05 76.94C51.8 76.94 63.56 76.94 75.31 76.95C75.48 76.95 75.76 76.82 75.81 77.07C75.87 77.38 75.82 77.72 75.8 78.05C75.8 78.07 75.67 78.1 75.6 78.11C75.48 78.12 75.36 78.11 75.24 78.11C51.76 78.11 28.29 78.11 4.81 78.1C4.62 78.1 4.31 78.23 4.25 78C4.17 77.69 4.22 77.35 4.24 77.02C4.24 76.94 4.35 76.94 4.43 76.94C4.56 76.94 4.7 76.94 4.83 76.94C16.57 76.94 28.31 76.94 40.05 76.94Z" fill="white"/>
<path d="M40.05 73.71C51.8 73.71 63.56 73.71 75.31 73.72C75.48 73.72 75.76 73.59 75.81 73.84C75.87 74.15 75.82 74.49 75.8 74.82C75.8 74.84 75.67 74.87 75.6 74.88C75.48 74.89 75.36 74.88 75.24 74.88C51.76 74.88 28.29 74.88 4.81 74.87C4.62 74.87 4.31 75 4.25 74.77C4.17 74.46 4.22 74.12 4.24 73.79C4.24 73.71 4.35 73.71 4.43 73.71C4.56 73.71 4.7 73.71 4.83 73.71C16.57 73.71 28.31 73.71 40.05 73.71Z" fill="white"/>
<path d="M40.03 84.57C28.29 84.57 16.55 84.57 4.81999 84.56C4.62999 84.56 4.31999 84.69 4.25999 84.46C4.17999 84.15 4.22999 83.81 4.24999 83.48C4.24999 83.4 4.35999 83.4 4.43999 83.4C4.58999 83.4 4.73999 83.4 4.88999 83.4C28.32 83.4 51.75 83.4 75.18 83.4C75.39 83.4 75.73 83.28 75.8 83.48C75.9 83.78 75.84 84.13 75.82 84.46C75.82 84.58 75.69 84.56 75.61 84.56C75.48 84.56 75.34 84.56 75.21 84.56C63.47 84.57 51.75 84.57 40.03 84.57Z" fill="white"/>
<path d="M40 71.65C28.25 71.65 16.49 71.65 4.74 71.64C4.57 71.64 4.29 71.77 4.24 71.52C4.18 71.21 4.23 70.87 4.25 70.54C4.25 70.52 4.38 70.49 4.45 70.48C4.57 70.47 4.69 70.48 4.81 70.48C28.29 70.48 51.76 70.48 75.24 70.49C75.43 70.49 75.74 70.36 75.8 70.59C75.88 70.9 75.83 71.24 75.81 71.57C75.81 71.65 75.7 71.65 75.62 71.65C75.49 71.65 75.35 71.65 75.22 71.65C63.48 71.65 51.74 71.65 40 71.65Z" fill="white"/>
<path d="M40.02 68.42C28.28 68.42 16.54 68.42 4.81 68.41C4.62 68.41 4.31 68.54 4.25 68.31C4.17 68 4.23 67.65 4.24 67.33C4.24 67.25 4.35 67.25 4.43 67.25C4.58 67.25 4.73 67.25 4.88 67.25C28.31 67.25 51.74 67.25 75.17 67.25C75.38 67.25 75.72 67.13 75.79 67.33C75.89 67.63 75.83 67.98 75.81 68.31C75.81 68.42 75.68 68.41 75.59 68.41C75.46 68.41 75.32 68.41 75.19 68.41C63.47 68.42 51.75 68.42 40.02 68.42Z" fill="white"/>
<path d="M39.98 65.18C28.26 65.18 16.53 65.18 4.81 65.17C4.62 65.17 4.31 65.3 4.25 65.07C4.17 64.76 4.22 64.42 4.24 64.09C4.24 64.01 4.35 64.01 4.43 64.01C4.58 64.01 4.73 64.01 4.88 64.01C28.31 64.01 51.74 64.01 75.17 64.01C75.38 64.01 75.72 63.89 75.79 64.09C75.89 64.39 75.83 64.74 75.81 65.07C75.81 65.18 75.68 65.17 75.59 65.17C75.46 65.17 75.32 65.17 75.19 65.17C63.45 65.18 51.72 65.18 39.98 65.18Z" fill="white"/>
<path d="M39.98 61.95C28.26 61.95 16.53 61.95 4.81 61.94C4.62 61.94 4.32 62.07 4.25 61.83C4.17 61.52 4.23 61.18 4.24 60.85C4.24 60.78 4.36 60.78 4.43 60.78C4.56 60.78 4.7 60.78 4.83 60.78C28.29 60.78 51.75 60.78 75.21 60.78C75.41 60.78 75.72 60.66 75.78 60.87C75.87 61.17 75.81 61.52 75.8 61.85C75.8 61.94 75.7 61.94 75.62 61.94C75.49 61.94 75.35 61.94 75.22 61.94C63.48 61.95 51.73 61.95 39.98 61.95Z" fill="white"/>
<path d="M40 55.49C28.25 55.49 16.49 55.49 4.74 55.48C4.57 55.48 4.29 55.61 4.24 55.36C4.18 55.05 4.23 54.71 4.25 54.38C4.25 54.36 4.38 54.33 4.45 54.32C4.57 54.31 4.69 54.32 4.81 54.32C28.29 54.32 51.76 54.32 75.24 54.33C75.43 54.33 75.74 54.2 75.8 54.43C75.88 54.74 75.83 55.08 75.81 55.41C75.81 55.49 75.7 55.49 75.62 55.49C75.49 55.49 75.35 55.49 75.22 55.49C63.48 55.49 51.74 55.49 40 55.49Z" fill="white"/>
<path d="M40.07 18.97C51.79 18.97 63.52 18.97 75.24 18.98C75.43 18.98 75.74 18.85 75.8 19.08C75.88 19.39 75.83 19.73 75.81 20.06C75.81 20.14 75.69 20.13 75.62 20.13C75.49 20.13 75.35 20.13 75.22 20.13C51.76 20.13 28.3 20.13 4.84 20.13C4.64 20.13 4.33 20.25 4.27 20.04C4.18 19.74 4.24 19.39 4.25 19.06C4.25 18.97 4.35 18.97 4.42 18.96C4.55 18.96 4.69 18.96 4.82 18.96C16.57 18.97 28.32 18.97 40.07 18.97Z" fill="white"/>
<path d="M40.08 51.1C51.8 51.1 63.53 51.1 75.25 51.11C75.44 51.11 75.74 50.97 75.8 51.22C75.88 51.53 75.82 51.87 75.81 52.2C75.81 52.27 75.69 52.27 75.62 52.27C75.49 52.27 75.35 52.27 75.22 52.27C51.76 52.27 28.3 52.27 4.84 52.27C4.64 52.27 4.33 52.39 4.27 52.18C4.18 51.88 4.24 51.53 4.25 51.2C4.25 51.11 4.35 51.11 4.43 51.11C4.56 51.11 4.7 51.11 4.83 51.11C16.57 51.1 28.32 51.1 40.08 51.1Z" fill="white"/>
<path d="M39.98 39.52C28.26 39.52 16.53 39.52 4.81 39.51C4.62 39.51 4.31 39.64 4.25 39.41C4.17 39.1 4.22 38.76 4.24 38.43C4.24 38.35 4.36 38.36 4.43 38.36C4.58 38.36 4.73 38.36 4.88 38.36C28.31 38.36 51.74 38.36 75.17 38.36C75.38 38.36 75.72 38.23 75.79 38.45C75.89 38.75 75.82 39.1 75.81 39.43C75.81 39.52 75.71 39.52 75.64 39.53C75.51 39.53 75.37 39.53 75.24 39.53C63.48 39.52 51.73 39.52 39.98 39.52Z" fill="white"/>
<path d="M40.02 12.51C51.76 12.51 63.5 12.51 75.23 12.52C75.42 12.52 75.73 12.39 75.79 12.62C75.87 12.93 75.82 13.27 75.8 13.6C75.8 13.68 75.69 13.68 75.61 13.68C75.46 13.68 75.31 13.68 75.16 13.68C51.73 13.68 28.3 13.68 4.87 13.68C4.66 13.68 4.32 13.8 4.25 13.6C4.15 13.3 4.21 12.95 4.23 12.62C4.23 12.5 4.36 12.52 4.44 12.52C4.57 12.52 4.71 12.52 4.84 12.52C16.58 12.51 28.3 12.51 40.02 12.51Z" fill="white"/>
<path d="M40.08 25.43C51.8 25.43 63.53 25.43 75.25 25.44C75.44 25.44 75.74 25.3 75.8 25.55C75.88 25.86 75.82 26.2 75.81 26.53C75.81 26.6 75.69 26.6 75.62 26.6C75.49 26.6 75.35 26.6 75.22 26.6C51.76 26.6 28.3 26.6 4.84 26.6C4.64 26.6 4.33 26.72 4.27 26.51C4.18 26.21 4.24 25.86 4.25 25.53C4.25 25.44 4.35 25.44 4.43 25.44C4.56 25.44 4.7 25.44 4.83 25.44C16.57 25.43 28.32 25.43 40.08 25.43Z" fill="white"/>
<path d="M40.02 57.56C51.76 57.56 63.5 57.56 75.23 57.57C75.42 57.57 75.73 57.44 75.79 57.67C75.87 57.98 75.82 58.32 75.8 58.65C75.8 58.73 75.69 58.73 75.61 58.73C75.46 58.73 75.31 58.73 75.16 58.73C51.73 58.73 28.3 58.73 4.87 58.73C4.66 58.73 4.32 58.85 4.25 58.65C4.15 58.35 4.21 58 4.23 57.67C4.23 57.55 4.36 57.57 4.44 57.57C4.57 57.57 4.71 57.57 4.84 57.57C16.58 57.56 28.3 57.56 40.02 57.56Z" fill="white"/>
<path d="M40.02 15.74C51.76 15.74 63.5 15.74 75.23 15.75C75.42 15.75 75.73 15.62 75.79 15.85C75.87 16.16 75.82 16.5 75.8 16.83C75.8 16.91 75.69 16.91 75.62 16.91C75.47 16.91 75.32 16.91 75.17 16.91C51.74 16.91 28.31 16.91 4.87999 16.91C4.65999 16.91 4.31999 17.03 4.25999 16.83C4.15999 16.54 4.21999 16.18 4.22999 15.85C4.22999 15.73 4.34999 15.75 4.43999 15.74C4.56999 15.74 4.70999 15.74 4.83999 15.74C16.57 15.74 28.3 15.74 40.02 15.74Z" fill="white"/>
<path d="M40.05 35.12C51.8 35.12 63.56 35.12 75.31 35.13C75.48 35.13 75.76 35 75.81 35.25C75.87 35.56 75.82 35.9 75.8 36.23C75.8 36.25 75.67 36.28 75.6 36.29C75.48 36.3 75.36 36.29 75.24 36.29C51.76 36.29 28.29 36.29 4.81 36.28C4.62 36.28 4.31 36.41 4.25 36.18C4.17 35.87 4.22 35.53 4.24 35.2C4.24 35.12 4.35 35.12 4.43 35.12C4.56 35.12 4.7 35.12 4.83 35.12C16.57 35.12 28.31 35.12 40.05 35.12Z" fill="white"/>
<path d="M40.03 29.83C28.29 29.83 16.55 29.83 4.81999 29.82C4.62999 29.82 4.31999 29.95 4.25999 29.72C4.17999 29.41 4.22999 29.07 4.24999 28.74C4.24999 28.66 4.35999 28.66 4.43999 28.66C4.58999 28.66 4.73999 28.66 4.88999 28.66C28.32 28.66 51.75 28.66 75.18 28.66C75.39 28.66 75.73 28.54 75.8 28.74C75.9 29.04 75.84 29.39 75.82 29.72C75.82 29.84 75.69 29.82 75.61 29.82C75.48 29.82 75.34 29.82 75.21 29.82C63.47 29.83 51.75 29.83 40.03 29.83Z" fill="white"/>
<path d="M39.98 49.21C28.26 49.21 16.53 49.21 4.81 49.2C4.62 49.2 4.32 49.33 4.25 49.09C4.17 48.78 4.23 48.44 4.24 48.11C4.24 48.04 4.36 48.04 4.43 48.04C4.56 48.04 4.7 48.04 4.83 48.04C28.29 48.04 51.75 48.04 75.21 48.04C75.41 48.04 75.72 47.92 75.78 48.13C75.87 48.43 75.81 48.78 75.8 49.11C75.8 49.2 75.7 49.2 75.62 49.2C75.49 49.2 75.35 49.2 75.22 49.2C63.48 49.21 51.73 49.21 39.98 49.21Z" fill="white"/>
<path d="M40 42.75C28.25 42.75 16.49 42.75 4.74 42.74C4.57 42.74 4.29 42.87 4.24 42.62C4.18 42.31 4.23 41.97 4.25 41.64C4.25 41.62 4.38 41.59 4.45 41.58C4.57 41.57 4.69 41.58 4.81 41.58C28.29 41.58 51.76 41.58 75.24 41.59C75.43 41.59 75.74 41.46 75.8 41.69C75.88 42 75.83 42.34 75.81 42.67C75.81 42.75 75.7 42.75 75.62 42.75C75.49 42.75 75.35 42.75 75.22 42.75C63.48 42.75 51.74 42.75 40 42.75Z" fill="white"/>
<path d="M40.07 44.81C51.79 44.81 63.52 44.81 75.24 44.82C75.43 44.82 75.73 44.69 75.8 44.93C75.88 45.24 75.82 45.58 75.81 45.91C75.81 45.98 75.69 45.98 75.62 45.98C75.49 45.98 75.35 45.98 75.22 45.98C51.76 45.98 28.3 45.98 4.84 45.98C4.64 45.98 4.33 46.1 4.27 45.89C4.18 45.59 4.24 45.24 4.25 44.91C4.25 44.82 4.35 44.82 4.43 44.82C4.56 44.82 4.7 44.82 4.83 44.82C16.57 44.81 28.32 44.81 40.07 44.81Z" fill="white"/>
<path d="M39.98 23.37C28.26 23.37 16.53 23.37 4.81 23.36C4.62 23.36 4.31 23.49 4.25 23.26C4.17 22.95 4.22 22.61 4.24 22.28C4.24 22.2 4.35 22.2 4.43 22.2C4.58 22.2 4.73 22.2 4.88 22.2C28.31 22.2 51.74 22.2 75.17 22.2C75.38 22.2 75.72 22.08 75.79 22.28C75.89 22.58 75.83 22.93 75.81 23.26C75.81 23.37 75.68 23.36 75.59 23.36C75.46 23.36 75.32 23.36 75.19 23.36C63.46 23.37 51.72 23.37 39.98 23.37Z" fill="white"/>
<path d="M40.08 31.89C51.8 31.89 63.53 31.89 75.25 31.9C75.44 31.9 75.74 31.76 75.8 32.01C75.88 32.32 75.82 32.66 75.81 32.99C75.81 33.06 75.69 33.06 75.62 33.06C75.49 33.06 75.35 33.06 75.22 33.06C51.76 33.06 28.3 33.06 4.84 33.06C4.64 33.06 4.33 33.18 4.27 32.97C4.18 32.67 4.24 32.32 4.25 31.99C4.25 31.9 4.35 31.9 4.43 31.9C4.56 31.9 4.7 31.9 4.83 31.9C16.57 31.89 28.32 31.89 40.08 31.89Z" fill="white"/>
<path d="M39.97 81.34C28.25 81.34 16.52 81.34 4.8 81.33C4.61 81.33 4.30999 81.46 4.23999 81.22C4.15999 80.91 4.21999 80.57 4.22999 80.24C4.22999 80.17 4.34999 80.17 4.41999 80.17C4.54999 80.17 4.69 80.17 4.82 80.17C28.28 80.17 51.74 80.17 75.2 80.17C75.4 80.17 75.71 80.05 75.77 80.26C75.86 80.56 75.8 80.91 75.79 81.24C75.79 81.33 75.69 81.33 75.61 81.33C75.48 81.33 75.34 81.33 75.21 81.33C63.48 81.34 51.73 81.34 39.97 81.34Z" fill="white"/>
<path d="M40.02 87.8C28.28 87.8 16.54 87.8 4.81 87.79C4.62 87.79 4.31 87.92 4.25 87.69C4.17 87.38 4.22 87.04 4.24 86.71C4.24 86.63 4.35 86.63 4.43 86.63C4.58 86.63 4.73 86.63 4.88 86.63C28.31 86.63 51.74 86.63 75.17 86.63C75.38 86.63 75.72 86.51 75.79 86.71C75.89 87.01 75.83 87.36 75.81 87.69C75.81 87.8 75.68 87.79 75.59 87.79C75.46 87.79 75.32 87.79 75.19 87.79C63.47 87.8 51.75 87.8 40.02 87.8Z" fill="white"/>
<path d="M40.03 91.03C28.29 91.03 16.55 91.03 4.81999 91.02C4.62999 91.02 4.31999 91.15 4.25999 90.92C4.17999 90.61 4.22999 90.27 4.24999 89.94C4.24999 89.86 4.35999 89.86 4.43999 89.86C4.58999 89.86 4.73999 89.86 4.88999 89.86C28.32 89.86 51.75 89.86 75.18 89.86C75.39 89.86 75.73 89.74 75.8 89.94C75.9 90.24 75.84 90.59 75.82 90.92C75.82 91.03 75.69 91.02 75.61 91.02C75.48 91.02 75.34 91.02 75.21 91.02C63.47 91.03 51.75 91.03 40.03 91.03Z" fill="white"/>
<path d="M40.05 17.98C51.8 17.98 63.56 17.98 75.31 17.98C75.78 17.98 76.02 18.36 75.82 18.78C75.78 18.87 75.72 18.88 75.64 18.88C75.54 18.88 75.43 18.88 75.33 18.88C51.79 18.88 28.25 18.88 4.72 18.89C4.37 18.89 4.19 18.86 4.2 18.42C4.21 18.02 4.35 17.98 4.69 17.98C16.48 17.98 28.26 17.98 40.05 17.98Z" fill="white"/>
<path d="M40.02 20.23C51.79 20.23 63.56 20.23 75.33 20.22C75.7 20.22 75.86 20.27 75.84 20.7C75.83 21.07 75.71 21.13 75.37 21.13C51.8 21.12 28.23 21.12 4.66 21.13C4.27 21.13 4.21 21.01 4.19 20.65C4.17 20.22 4.38 20.22 4.7 20.22C16.48 20.23 28.25 20.23 40.02 20.23Z" fill="white"/>
<path d="M40.07 21.21C51.81 21.21 63.55 21.21 75.29 21.21C75.79 21.21 76 21.52 75.83 21.99C75.79 22.11 75.71 22.11 75.62 22.11C75.5 22.11 75.38 22.11 75.26 22.11C51.77 22.11 28.27 22.11 4.78 22.11C4.24 22.11 4.07 21.87 4.22 21.35C4.25 21.24 4.31 21.21 4.41 21.21C4.54 21.21 4.68 21.21 4.81 21.21C16.57 21.21 28.32 21.21 40.07 21.21Z" fill="white"/>
<path d="M39.98 24.35C28.23 24.35 16.47 24.35 4.72 24.36C4.35 24.36 4.2 24.3 4.21 23.88C4.22 23.5 4.35 23.45 4.68 23.45C8.01 23.46 11.35 23.46 14.68 23.46C34.88 23.46 55.09 23.46 75.29 23.46C75.59 23.46 75.86 23.4 75.85 23.89C75.84 24.31 75.7 24.37 75.33 24.37C63.55 24.35 51.76 24.35 39.98 24.35Z" fill="white"/>
<path d="M40.02 24.44C51.77 24.44 63.53 24.44 75.28 24.44C75.79 24.44 75.99 24.72 75.82 25.21C75.78 25.32 75.71 25.33 75.62 25.33C75.5 25.33 75.38 25.33 75.26 25.33C51.77 25.33 28.27 25.33 4.77999 25.33C4.14999 25.33 4.14999 25.33 4.20999 24.67C4.21999 24.51 4.25999 24.42 4.43999 24.43C4.56999 24.44 4.70999 24.43 4.83999 24.43C16.57 24.44 28.3 24.44 40.02 24.44Z" fill="white"/>
<path d="M40.03 27.58C28.28 27.58 16.52 27.58 4.76999 27.59C4.35999 27.59 4.17999 27.53 4.20999 27.07C4.22999 26.75 4.32999 26.68 4.62999 26.68C6.94999 26.69 9.26999 26.69 11.58 26.69C32.82 26.69 54.05 26.69 75.29 26.69C75.59 26.69 75.86 26.63 75.85 27.12C75.84 27.54 75.71 27.6 75.34 27.6C63.57 27.58 51.8 27.58 40.03 27.58Z" fill="white"/>
<path d="M40.05 27.67C51.8 27.67 63.56 27.67 75.31 27.67C75.78 27.67 76.02 28.05 75.82 28.47C75.78 28.56 75.72 28.57 75.64 28.57C75.54 28.57 75.43 28.57 75.33 28.57C51.79 28.57 28.25 28.57 4.72 28.58C4.37 28.58 4.19 28.55 4.2 28.11C4.21 27.71 4.35 27.67 4.69 27.67C16.48 27.67 28.26 27.67 40.05 27.67Z" fill="white"/>
<path d="M39.98 30.81C28.23 30.81 16.47 30.81 4.72 30.82C4.35 30.82 4.2 30.76 4.21 30.34C4.22 29.96 4.35 29.91 4.68 29.91C8.04 29.92 11.41 29.92 14.77 29.92C34.94 29.92 55.12 29.92 75.29 29.92C75.59 29.92 75.86 29.86 75.85 30.35C75.84 30.77 75.7 30.83 75.33 30.83C63.55 30.81 51.76 30.81 39.98 30.81Z" fill="white"/>
<path d="M39.98 31.8C28.24 31.8 16.5 31.8 4.76 31.8C4.26 31.8 4.05 31.49 4.22 31.02C4.26 30.9 4.34 30.91 4.43 30.9C4.55 30.9 4.67 30.9 4.79 30.9C28.28 30.9 51.78 30.9 75.27 30.9C75.81 30.9 75.98 31.14 75.83 31.66C75.8 31.77 75.74 31.8 75.64 31.8C75.51 31.8 75.37 31.8 75.24 31.8C63.48 31.8 51.73 31.8 39.98 31.8Z" fill="white"/>
<path d="M39.98 34.05C28.23 34.05 16.47 34.05 4.72 34.06C4.35 34.06 4.2 34 4.21 33.58C4.22 33.2 4.35 33.15 4.68 33.15C7.75 33.16 10.81 33.16 13.88 33.16C34.35 33.16 54.83 33.16 75.3 33.16C75.6 33.16 75.87 33.1 75.86 33.59C75.85 34.01 75.71 34.07 75.34 34.07C63.55 34.04 51.76 34.05 39.98 34.05Z" fill="white"/>
<path d="M39.98 37.28C28.23 37.28 16.47 37.28 4.72 37.29C4.35 37.29 4.2 37.23 4.21 36.81C4.22 36.43 4.35 36.38 4.68 36.38C7.72 36.39 10.75 36.39 13.79 36.39C34.29 36.39 54.8 36.39 75.3 36.39C75.6 36.39 75.87 36.33 75.86 36.82C75.85 37.24 75.71 37.3 75.34 37.3C63.55 37.27 51.76 37.28 39.98 37.28Z" fill="white"/>
<path d="M40 38.26C28.25 38.26 16.49 38.26 4.74 38.26C4.28 38.26 4.03 37.88 4.23 37.46C4.27 37.37 4.33 37.36 4.41 37.36C4.53 37.36 4.65 37.36 4.77 37.36C28.29 37.36 51.82 37.36 75.34 37.35C75.7 37.35 75.87 37.38 75.86 37.82C75.85 38.23 75.7 38.26 75.36 38.26C63.57 38.26 51.79 38.26 40 38.26Z" fill="white"/>
<path d="M40.03 40.51C28.28 40.51 16.52 40.51 4.76999 40.52C4.35999 40.52 4.17999 40.46 4.20999 40C4.22999 39.68 4.32999 39.61 4.62999 39.61C6.91999 39.62 9.20999 39.62 11.49 39.62C32.76 39.62 54.02 39.62 75.29 39.62C75.59 39.62 75.86 39.56 75.85 40.05C75.84 40.47 75.71 40.53 75.34 40.53C63.57 40.5 51.8 40.51 40.03 40.51Z" fill="white"/>
<path d="M40 41.49C28.25 41.49 16.49 41.49 4.74 41.49C4.28 41.49 4.03 41.11 4.23 40.69C4.27 40.6 4.33 40.59 4.41 40.59C4.51 40.59 4.62 40.59 4.72 40.59C28.26 40.59 51.8 40.59 75.33 40.58C75.68 40.58 75.86 40.61 75.85 41.05C75.84 41.45 75.7 41.49 75.35 41.49C63.57 41.49 51.79 41.49 40 41.49Z" fill="white"/>
<path d="M40.02 42.84C51.77 42.84 63.53 42.84 75.28 42.83C75.69 42.83 75.87 42.9 75.84 43.36C75.82 43.69 75.72 43.75 75.42 43.75C72.68 43.74 69.95 43.74 67.21 43.74C46.39 43.74 25.57 43.74 4.75999 43.74C4.45999 43.74 4.18999 43.8 4.19999 43.31C4.20999 42.89 4.34999 42.83 4.71999 42.83C16.49 42.84 28.26 42.84 40.02 42.84Z" fill="white"/>
<path d="M40.07 43.83C51.81 43.83 63.55 43.83 75.29 43.83C75.79 43.83 76 44.14 75.82 44.61C75.78 44.73 75.7 44.72 75.61 44.73C75.49 44.73 75.37 44.73 75.25 44.73C51.76 44.73 28.26 44.73 4.76999 44.73C4.22999 44.73 4.05999 44.49 4.20999 43.97C4.23999 43.86 4.29999 43.83 4.39999 43.83C4.52999 43.83 4.66999 43.83 4.79999 43.83C16.57 43.83 28.32 43.83 40.07 43.83Z" fill="white"/>
<path d="M40.05 34.13C51.8 34.13 63.56 34.13 75.31 34.13C75.77 34.13 76.02 34.51 75.82 34.93C75.78 35.02 75.72 35.03 75.64 35.03C75.52 35.03 75.4 35.03 75.28 35.03C51.76 35.03 28.23 35.03 4.70999 35.04C4.34999 35.04 4.17999 35.01 4.18999 34.57C4.19999 34.16 4.33999 34.13 4.68999 34.13C16.48 34.14 28.26 34.13 40.05 34.13Z" fill="white"/>
<path d="M39.98 54.24C28.24 54.24 16.5 54.24 4.75999 54.24C4.25999 54.24 4.04999 53.93 4.22999 53.46C4.26999 53.34 4.34999 53.35 4.43999 53.34C4.55999 53.34 4.67999 53.34 4.79999 53.34C28.29 53.34 51.79 53.34 75.28 53.34C75.82 53.34 75.99 53.58 75.84 54.1C75.81 54.21 75.75 54.24 75.65 54.24C75.52 54.24 75.38 54.24 75.25 54.24C63.48 54.24 51.73 54.24 39.98 54.24Z" fill="white"/>
<path d="M40.02 56.57C51.77 56.57 63.53 56.57 75.28 56.57C75.79 56.57 75.99 56.86 75.82 57.34C75.78 57.46 75.71 57.46 75.62 57.46C75.5 57.46 75.38 57.46 75.26 57.46C51.77 57.46 28.27 57.46 4.77999 57.46C4.14999 57.46 4.14999 57.46 4.20999 56.8C4.21999 56.64 4.25999 56.55 4.43999 56.56C4.56999 56.57 4.70999 56.56 4.83999 56.56C16.57 56.57 28.3 56.57 40.02 56.57Z" fill="white"/>
<path d="M40.07 46.07C51.82 46.07 63.58 46.07 75.33 46.06C75.7 46.06 75.85 46.12 75.84 46.54C75.83 46.92 75.7 46.97 75.37 46.97C72.33 46.96 69.3 46.96 66.26 46.96C45.76 46.96 25.25 46.96 4.75 46.96C4.45 46.96 4.18 47.02 4.19 46.53C4.2 46.11 4.34 46.05 4.71 46.05C16.5 46.07 28.29 46.07 40.07 46.07Z" fill="white"/>
<path d="M40.02 58.81C51.77 58.81 63.53 58.81 75.28 58.8C75.69 58.8 75.87 58.87 75.84 59.33C75.82 59.66 75.72 59.72 75.42 59.72C72.98 59.71 70.54 59.71 68.11 59.71C46.99 59.71 25.88 59.71 4.75999 59.71C4.45999 59.71 4.18999 59.77 4.19999 59.28C4.20999 58.86 4.33999 58.8 4.70999 58.8C16.48 58.81 28.25 58.81 40.02 58.81Z" fill="white"/>
<path d="M40.02 59.8C51.77 59.8 63.53 59.8 75.28 59.8C75.79 59.8 75.99 60.08 75.82 60.57C75.78 60.68 75.71 60.69 75.62 60.69C75.5 60.69 75.38 60.69 75.26 60.69C51.77 60.69 28.27 60.69 4.77999 60.69C4.14999 60.69 4.14999 60.69 4.20999 60.03C4.21999 59.87 4.25999 59.78 4.43999 59.79C4.56999 59.8 4.70999 59.79 4.83999 59.79C16.57 59.8 28.3 59.8 40.02 59.8Z" fill="white"/>
<path d="M40.02 62.04C51.79 62.04 63.56 62.04 75.33 62.03C75.7 62.03 75.86 62.08 75.84 62.51C75.83 62.88 75.71 62.94 75.37 62.94C51.8 62.93 28.23 62.93 4.66 62.94C4.27 62.94 4.21 62.82 4.19 62.46C4.17 62.03 4.38 62.03 4.7 62.03C16.48 62.04 28.25 62.04 40.02 62.04Z" fill="white"/>
<path d="M40.05 63.03C51.8 63.03 63.56 63.03 75.31 63.03C75.78 63.03 76.02 63.41 75.82 63.83C75.78 63.92 75.72 63.93 75.64 63.93C75.54 63.93 75.43 63.93 75.33 63.93C51.79 63.93 28.25 63.93 4.72 63.94C4.37 63.94 4.19 63.91 4.2 63.47C4.21 63.07 4.35 63.03 4.69 63.03C16.48 63.03 28.26 63.03 40.05 63.03Z" fill="white"/>
<path d="M40.03 66.17C28.26 66.17 16.49 66.17 4.71999 66.18C4.34999 66.18 4.18999 66.13 4.20999 65.7C4.21999 65.33 4.33999 65.27 4.67999 65.27C28.25 65.28 51.82 65.28 75.39 65.27C75.78 65.27 75.84 65.39 75.86 65.75C75.88 66.18 75.67 66.18 75.35 66.18C63.57 66.17 51.8 66.17 40.03 66.17Z" fill="white"/>
<path d="M39.98 67.16C28.24 67.16 16.5 67.16 4.75999 67.16C4.25999 67.16 4.04999 66.85 4.22999 66.38C4.26999 66.26 4.34999 66.27 4.43999 66.26C4.55999 66.26 4.67999 66.26 4.79999 66.26C28.29 66.26 51.79 66.26 75.28 66.26C75.82 66.26 75.99 66.5 75.84 67.02C75.81 67.13 75.75 67.16 75.65 67.16C75.52 67.16 75.38 67.16 75.25 67.16C63.48 67.16 51.73 67.16 39.98 67.16Z" fill="white"/>
<path d="M39.98 69.4C28.23 69.4 16.47 69.4 4.72 69.41C4.35 69.41 4.2 69.35 4.21 68.93C4.22 68.55 4.35 68.5 4.68 68.5C8.01 68.51 11.35 68.51 14.68 68.51C34.88 68.51 55.09 68.51 75.29 68.51C75.59 68.51 75.86 68.45 75.85 68.94C75.84 69.36 75.7 69.42 75.33 69.42C63.55 69.4 51.76 69.4 39.98 69.4Z" fill="white"/>
<path d="M40.05 69.49C51.8 69.49 63.56 69.49 75.31 69.49C75.78 69.49 76.02 69.86 75.82 70.29C75.78 70.38 75.72 70.39 75.64 70.39C75.54 70.39 75.43 70.39 75.33 70.39C51.79 70.39 28.25 70.39 4.72 70.4C4.37 70.4 4.19 70.38 4.2 69.93C4.21 69.53 4.35 69.48 4.69 69.48C16.48 69.49 28.26 69.49 40.05 69.49Z" fill="white"/>
<path d="M40.04 73.62C28.29 73.62 16.53 73.62 4.78 73.62C4.25 73.62 4.07 73.37 4.22 72.86C4.25 72.75 4.32 72.73 4.41 72.73C4.53 72.73 4.65 72.73 4.77 72.73C28.28 72.73 51.79 72.73 75.29 72.73C75.78 72.73 76 73.05 75.82 73.51C75.78 73.63 75.7 73.62 75.61 73.62C75.48 73.62 75.34 73.62 75.21 73.62C63.49 73.62 51.76 73.62 40.04 73.62Z" fill="white"/>
<path d="M40.02 74.97C51.77 74.97 63.53 74.97 75.28 74.96C75.69 74.96 75.87 75.03 75.84 75.49C75.82 75.82 75.72 75.88 75.42 75.88C72.86 75.87 70.31 75.87 67.75 75.87C46.75 75.87 25.76 75.87 4.75999 75.87C4.45999 75.87 4.18999 75.93 4.19999 75.44C4.20999 75.02 4.33999 74.96 4.70999 74.96C16.49 74.97 28.25 74.97 40.02 74.97Z" fill="white"/>
<path d="M40 76.85C28.25 76.85 16.49 76.85 4.73999 76.85C4.26999 76.85 4.02999 76.47 4.22999 76.05C4.26999 75.96 4.32999 75.95 4.40999 75.95C4.50999 75.95 4.61999 75.95 4.71999 75.95C28.26 75.95 51.8 75.95 75.33 75.94C75.68 75.94 75.86 75.97 75.85 76.41C75.84 76.81 75.7 76.85 75.36 76.85C63.57 76.85 51.79 76.85 40 76.85Z" fill="white"/>
<path d="M40.02 78.2C51.77 78.2 63.53 78.2 75.28 78.19C75.69 78.19 75.87 78.25 75.84 78.71C75.82 79.03 75.72 79.1 75.42 79.1C73.04 79.09 70.66 79.09 68.29 79.09C47.11 79.09 25.94 79.09 4.75999 79.09C4.45999 79.09 4.18999 79.15 4.19999 78.66C4.20999 78.24 4.33999 78.18 4.70999 78.18C16.48 78.2 28.25 78.2 40.02 78.2Z" fill="white"/>
<path d="M39.98 80.08C28.24 80.08 16.5 80.08 4.76001 80.08C4.25001 80.08 4.05 79.78 4.22 79.3C4.26 79.18 4.34 79.18 4.42 79.18C4.54 79.18 4.66001 79.18 4.78001 79.18C28.27 79.18 51.77 79.18 75.26 79.18C75.81 79.18 75.97 79.41 75.82 79.93C75.79 80.04 75.73 80.07 75.63 80.07C75.5 80.07 75.36 80.07 75.23 80.07C63.49 80.08 51.73 80.08 39.98 80.08Z" fill="white"/>
<path d="M40 12.42C28.25 12.42 16.49 12.42 4.74 12.42C4.28 12.42 4.03 12.04 4.23 11.62C4.27 11.53 4.33 11.52 4.41 11.52C4.53 11.52 4.65 11.52 4.77 11.52C28.29 11.52 51.82 11.52 75.34 11.51C75.7 11.51 75.87 11.54 75.86 11.98C75.85 12.39 75.7 12.42 75.36 12.42C63.57 12.42 51.79 12.42 40 12.42Z" fill="white"/>
<path d="M40.07 81.43C51.81 81.43 63.55 81.43 75.29 81.42C75.7 81.42 75.87 81.49 75.84 81.95C75.82 82.28 75.71 82.34 75.42 82.34C72.41 82.33 69.41 82.33 66.4 82.33C45.85 82.33 25.3 82.33 4.75 82.33C4.45 82.33 4.18 82.39 4.19 81.9C4.2 81.48 4.34 81.42 4.71 81.42C16.5 81.43 28.29 81.43 40.07 81.43Z" fill="white"/>
<path d="M40.07 82.41C51.81 82.41 63.55 82.41 75.29 82.41C75.79 82.41 76 82.72 75.83 83.19C75.79 83.31 75.71 83.31 75.62 83.31C75.5 83.31 75.38 83.31 75.26 83.31C51.77 83.31 28.27 83.31 4.78 83.31C4.24 83.31 4.07 83.07 4.22 82.55C4.25 82.44 4.31 82.41 4.41 82.41C4.54 82.41 4.68 82.41 4.81 82.41C16.57 82.41 28.32 82.41 40.07 82.41Z" fill="white"/>
<path d="M40.03 72.63C28.26 72.63 16.49 72.63 4.71999 72.64C4.34999 72.64 4.18999 72.59 4.20999 72.16C4.21999 71.79 4.33999 71.73 4.67999 71.73C28.25 71.74 51.82 71.74 75.39 71.73C75.78 71.73 75.84 71.85 75.86 72.21C75.88 72.64 75.67 72.64 75.35 72.64C63.57 72.63 51.8 72.63 40.03 72.63Z" fill="white"/>
<path d="M40.07 84.66C51.81 84.66 63.55 84.66 75.29 84.65C75.7 84.65 75.87 84.72 75.85 85.18C75.83 85.51 75.72 85.57 75.43 85.57C72.51 85.56 69.6 85.56 66.68 85.56C46.04 85.56 25.4 85.56 4.77 85.56C4.47 85.56 4.2 85.62 4.21 85.13C4.22 84.71 4.36 84.65 4.73 84.65C16.5 84.66 28.29 84.66 40.07 84.66Z" fill="white"/>
<path d="M40.05 85.65C51.8 85.65 63.56 85.65 75.31 85.65C75.78 85.65 76.02 86.03 75.82 86.45C75.78 86.54 75.72 86.55 75.64 86.55C75.54 86.55 75.43 86.55 75.33 86.55C51.79 86.55 28.25 86.55 4.72 86.56C4.37 86.56 4.19 86.53 4.2 86.09C4.21 85.69 4.35 85.64 4.69 85.65C16.48 85.65 28.26 85.65 40.05 85.65Z" fill="white"/>
<path d="M40.07 13.76C51.81 13.76 63.55 13.76 75.29 13.75C75.7 13.75 75.88 13.82 75.85 14.28C75.83 14.61 75.73 14.67 75.43 14.67C72.66 14.66 69.9 14.66 67.13 14.66C46.34 14.66 25.55 14.66 4.77 14.66C4.47 14.66 4.2 14.72 4.21 14.23C4.22 13.81 4.36 13.75 4.73 13.75C16.5 13.77 28.29 13.76 40.07 13.76Z" fill="white"/>
<path d="M40.02 87.89C51.77 87.89 63.53 87.89 75.28 87.88C75.69 87.88 75.87 87.95 75.84 88.41C75.82 88.74 75.72 88.8 75.42 88.8C72.95 88.79 70.48 88.79 68.02 88.79C46.93 88.79 25.85 88.79 4.75999 88.79C4.45999 88.79 4.18999 88.85 4.19999 88.36C4.20999 87.94 4.33999 87.88 4.70999 87.88C16.48 87.89 28.25 87.89 40.02 87.89Z" fill="white"/>
<path d="M40.05 88.88C51.8 88.88 63.56 88.88 75.31 88.88C75.77 88.88 76.02 89.26 75.82 89.68C75.78 89.77 75.72 89.78 75.64 89.78C75.52 89.78 75.4 89.78 75.28 89.78C51.76 89.78 28.23 89.78 4.70999 89.79C4.34999 89.79 4.17999 89.76 4.18999 89.32C4.19999 88.91 4.33999 88.88 4.68999 88.88C16.48 88.88 28.26 88.88 40.05 88.88Z" fill="white"/>
<path d="M40.05 14.75C51.8 14.75 63.56 14.75 75.31 14.75C75.77 14.75 76.02 15.13 75.82 15.55C75.78 15.64 75.72 15.65 75.64 15.65C75.54 15.65 75.43 15.65 75.33 15.65C51.79 15.65 28.25 15.65 4.72 15.66C4.37 15.66 4.19 15.63 4.2 15.19C4.21 14.79 4.35 14.75 4.7 14.75C16.48 14.75 28.26 14.75 40.05 14.75Z" fill="white"/>
<path d="M39.98 92.02C28.24 92.02 16.5 92.02 4.76 92.03C4.35 92.03 4.17 91.96 4.2 91.5C4.22 91.17 4.32 91.11 4.62 91.11C7.42 91.12 10.21 91.12 13.01 91.12C33.77 91.12 54.53 91.12 75.28 91.12C75.58 91.12 75.85 91.06 75.84 91.55C75.83 91.97 75.69 92.03 75.32 92.03C63.55 92.02 51.76 92.02 39.98 92.02Z" fill="white"/>
<path d="M39.98 17.89C28.23 17.89 16.47 17.89 4.72 17.9C4.35 17.9 4.2 17.84 4.21 17.42C4.22 17.04 4.35 16.99 4.68 16.99C8.04 17 11.41 17 14.77 17C34.94 17 55.12 17 75.29 17C75.59 17 75.86 16.94 75.85 17.43C75.84 17.85 75.7 17.91 75.33 17.91C63.55 17.89 51.76 17.89 39.98 17.89Z" fill="white"/>
<path d="M39.98 53.25C28.23 53.25 16.47 53.25 4.71999 53.25C4.44999 53.25 4.19999 53.32 4.20999 52.87C4.21999 52.5 4.34999 52.44 4.67999 52.44C28.25 52.45 51.82 52.45 75.39 52.44C75.72 52.44 75.85 52.5 75.86 52.87C75.86 53.26 75.67 53.25 75.39 53.25C63.58 53.25 51.78 53.25 39.98 53.25Z" fill="white"/>
<path d="M40.02 47.06C51.79 47.06 63.56 47.06 75.33 47.05C75.74 47.05 75.87 47.15 75.84 47.56C75.82 47.83 75.72 47.87 75.49 47.87C74.83 47.86 74.17 47.87 73.52 47.87C50.6 47.87 27.67 47.87 4.75 47.87C4.52 47.87 4.22 48.01 4.21 47.53C4.2 47.1 4.36 47.06 4.72 47.06C16.48 47.06 28.25 47.06 40.02 47.06Z" fill="white"/>
<path d="M40.03 56.48C28.26 56.48 16.49 56.48 4.72 56.48C4.46 56.48 4.19 56.55 4.21 56.1C4.22 55.73 4.34 55.67 4.68 55.67C28.25 55.68 51.82 55.68 75.39 55.67C75.72 55.67 75.85 55.72 75.86 56.1C75.86 56.49 75.67 56.49 75.39 56.49C63.6 56.48 51.81 56.48 40.03 56.48Z" fill="white"/>
<path d="M39.98 50.11C28.23 50.11 16.47 50.11 4.71999 50.11C4.48999 50.11 4.20999 50.22 4.20999 49.77C4.20999 49.41 4.28999 49.29 4.67999 49.29C28.25 49.3 51.82 49.3 75.39 49.3C75.67 49.3 75.86 49.3 75.86 49.69C75.86 50.07 75.72 50.12 75.39 50.12C63.58 50.11 51.78 50.11 39.98 50.11Z" fill="white"/>
<path d="M40.02 50.2C51.79 50.2 63.56 50.2 75.33 50.19C75.74 50.19 75.87 50.29 75.84 50.7C75.82 50.97 75.72 51.01 75.49 51.01C74.71 51 73.93 51.01 73.16 51.01C50.35 51.01 27.55 51.01 4.73999 51.01C4.50999 51.01 4.20999 51.15 4.19999 50.67C4.18999 50.24 4.35 50.2 4.71 50.2C16.48 50.2 28.25 50.2 40.02 50.2Z" fill="white"/>
<path d="M39.98 11.43C28.23 11.43 16.47 11.43 4.71999 11.43C4.44999 11.43 4.19999 11.5 4.20999 11.05C4.21999 10.67 4.34999 10.62 4.67999 10.62C28.25 10.63 51.82 10.63 75.39 10.62C75.72 10.62 75.85 10.68 75.85 11.05C75.85 11.44 75.66 11.43 75.38 11.43C63.58 11.43 51.78 11.43 39.98 11.43Z" fill="white"/>
<path d="M40.02 92.11C51.79 92.11 63.56 92.11 75.33 92.1C75.74 92.1 75.87 92.2 75.84 92.61C75.82 92.88 75.72 92.92 75.49 92.92C74.82 92.91 74.14 92.92 73.47 92.92C50.56 92.92 27.65 92.92 4.73999 92.92C4.50999 92.92 4.20999 93.06 4.19999 92.58C4.18999 92.15 4.35 92.11 4.71 92.11C16.48 92.11 28.25 92.11 40.02 92.11Z" fill="white"/>
<path d="M40.02 3.17001C51.79 3.17001 63.56 3.17001 75.33 3.18001C75.52 3.18001 75.83 3.01001 75.84 3.45001C75.85 3.80001 75.76 3.90001 75.4 3.90001C72.36 3.88001 69.33 3.89001 66.29 3.89001C45.77 3.89001 25.26 3.89001 4.73999 3.88001C4.53999 3.88001 4.22999 4.05001 4.19999 3.59001C4.17999 3.15001 4.39999 3.17001 4.70999 3.17001C16.49 3.18001 28.25 3.17001 40.02 3.17001Z" fill="white"/>
<path d="M39.98 5.50997C28.23 5.50997 16.47 5.50997 4.72 5.49997C4.53 5.49997 4.22 5.66997 4.21 5.21997C4.2 4.87997 4.3 4.77997 4.65 4.77997C9.45 4.78997 14.25 4.78997 19.05 4.78997C37.8 4.78997 56.56 4.78997 75.31 4.79997C75.51 4.79997 75.82 4.62997 75.84 5.09997C75.86 5.54997 75.63 5.51997 75.33 5.51997C63.55 5.50997 51.76 5.50997 39.98 5.50997Z" fill="white"/>
<path d="M39.98 2.55C28.27 2.55 16.56 2.55 4.84999 2.55C4.72999 2.55 4.60999 2.54 4.48999 2.55C4.26999 2.57 4.20999 2.48 4.20999 2.27C4.20999 2.08 4.26999 1.99 4.46999 2.01C4.55999 2.02 4.64999 2.01 4.73999 2.01C28.26 2.01 51.79 2.01 75.31 2.01C75.4 2.01 75.49 2.02 75.58 2.01C75.78 1.99 75.84 2.08 75.83 2.27C75.82 2.44 75.82 2.57 75.6 2.55C75.47 2.54 75.33 2.55 75.2 2.55C63.46 2.55 51.72 2.55 39.98 2.55Z" fill="white"/>
<path d="M40.02 4.24996C51.74 4.24996 63.47 4.24996 75.19 4.24996C75.32 4.24996 75.46 4.25996 75.59 4.24996C75.76 4.23996 75.82 4.30996 75.82 4.47996C75.82 4.66996 75.72 4.69996 75.57 4.69996C75.5 4.69996 75.42 4.69996 75.35 4.69996C51.8 4.69996 28.24 4.69996 4.69 4.69996C4.59 4.69996 4.48 4.69996 4.38 4.69996C4.2 4.69996 4.22 4.55996 4.22 4.44996C4.21 4.30996 4.27 4.24996 4.4 4.24996C4.53 4.24996 4.67 4.24996 4.8 4.24996C16.55 4.24996 28.28 4.24996 40.02 4.24996Z" fill="white"/>
<path d="M40 1.74001C28.25 1.74001 16.49 1.74001 4.74 1.73001C4.57 1.73001 4.26 1.86001 4.25 1.61001C4.24 1.33001 4.56 1.48001 4.72 1.48001C28.26 1.47001 51.8 1.47001 75.33 1.47001C75.36 1.47001 75.39 1.46001 75.42 1.47001C75.55 1.52001 75.81 1.35001 75.81 1.61001C75.81 1.83001 75.58 1.71001 75.45 1.73001C75.35 1.75001 75.24 1.73001 75.14 1.73001C63.42 1.74001 51.71 1.74001 40 1.74001Z" fill="white"/>
<path d="M79.87 94.8C79.74 94.8 79.6 94.79 79.47 94.79C53.17 94.79 26.88 94.79 0.579993 94.79C0.449993 94.79 0.309993 94.79 0.179993 94.8C0.189993 94.71 0.199993 94.62 0.319993 94.62C0.449993 94.62 0.589993 94.62 0.719993 94.62C26.92 94.62 53.12 94.62 79.33 94.63C79.5 94.63 79.8 94.44 79.87 94.8Z" fill="white"/>
<path d="M75.8 3.03996C51.95 3.03996 28.1 3.03996 4.25 3.03996C4.25 3.00996 4.25 2.97996 4.25 2.95996C28.1 2.95996 51.95 2.95996 75.8 2.95996C75.8 2.98996 75.8 3.00996 75.8 3.03996Z" fill="white"/>
<path d="M75.8 2.78C51.95 2.78 28.09 2.78 4.23999 2.78C4.23999 2.75 4.23999 2.72 4.23999 2.69C28.09 2.69 51.95 2.69 75.8 2.69C75.8 2.72 75.8 2.75 75.8 2.78Z" fill="white"/>
<path d="M4.23999 4.01996C28.09 4.01996 51.95 4.01996 75.8 4.01996C75.8 4.04996 75.8 4.07996 75.8 4.10996C51.95 4.10996 28.09 4.10996 4.23999 4.10996C4.23999 4.07996 4.23999 4.04996 4.23999 4.01996Z" fill="white"/>
<path d="M75.73 1.89999C51.93 1.89999 28.13 1.89999 4.33 1.89999C4.33 1.88999 4.33 1.86999 4.33 1.85999C28.13 1.85999 51.93 1.85999 75.73 1.85999C75.73 1.86999 75.73 1.87999 75.73 1.89999Z" fill="white"/>
</g>
<defs>
<clipPath id="clip0_476_551">
<rect width="80" height="95" fill="white"/>
</clipPath>
</defs>
</svg>
