<svg width="104" height="95" viewBox="0 0 104 95" fill="none" xmlns="http://www.w3.org/2000/svg">
<g clip-path="url(#clip0_476_374)">
<path d="M51.96 95.01C34.83 95.01 17.7 95.01 0.58001 95.02C0.13001 95.02 0.0100098 94.92 0.0100098 94.46C0.0200098 63.21 0.0200098 31.95 0.0100098 0.700004C0.0100098 0.230004 0.13001 0.130004 0.58001 0.140004C1.62001 0.170004 2.67001 0.160004 3.71001 0.140004C4.03001 0.130004 4.12001 0.220004 4.11001 0.540004C4.09001 1.33 4.11001 1.33 4.92001 1.33C36.34 1.33 67.77 1.33 99.19 1.33C99.79 1.33 99.82 1.33 99.78 0.730004C99.75 0.270004 99.87 0.110004 100.36 0.130004C101.39 0.170004 102.42 0.160004 103.45 0.130004C103.83 0.120004 103.93 0.250004 103.88 0.590004C103.87 0.650004 103.88 0.710004 103.88 0.770004C103.88 31.98 103.88 63.19 103.88 94.4C103.88 95.01 103.88 95.01 103.29 95.01C86.19 95.01 69.08 95.01 51.96 95.01Z" fill="black"/>
<path d="M51.96 7.23998C67.74 7.23998 83.52 7.23998 99.3 7.24998C99.75 7.24998 99.91 7.15998 99.9 6.66998C99.87 4.68998 99.9 2.69998 99.88 0.719983C99.88 0.359983 99.94 0.219983 100.34 0.229983C101.35 0.259983 102.37 0.259983 103.38 0.229983C103.73 0.219983 103.85 0.329983 103.79 0.659983C103.78 0.719983 103.79 0.779983 103.79 0.839983C103.79 31.93 103.79 63.02 103.79 94.11C103.79 94.73 103.79 94.73 103.16 94.73C102.18 94.73 101.19 94.72 100.21 94.74C99.95 94.74 99.85 94.67 99.88 94.41C99.9 94.28 99.88 94.14 99.88 94C99.88 66.35 99.88 38.69 99.88 11.04C99.88 10.41 99.88 10.41 99.26 10.41C67.73 10.41 36.2 10.41 4.66001 10.41C4.01001 10.41 4.01001 10.41 4.01001 11.05C4.01001 38.73 4.01001 66.42 4.01001 94.1C4.01001 94.74 4.01001 94.74 3.36001 94.74C2.41001 94.74 1.45001 94.73 0.50001 94.75C0.17001 94.76 0.0600101 94.65 0.11001 94.34C0.12001 94.27 0.11001 94.19 0.11001 94.11C0.11001 63.03 0.11001 31.96 0.11001 0.879983C0.11001 0.239983 0.11001 0.239983 0.76001 0.239983C1.71001 0.239983 2.67001 0.249983 3.62001 0.229983C3.94001 0.219983 4.03001 0.309983 4.03001 0.629983C4.02001 2.64998 4.04001 4.65998 4.01001 6.66998C4.01001 7.11998 4.10001 7.24998 4.57001 7.24998C20.37 7.22998 36.17 7.23998 51.96 7.23998Z" fill="white"/>
<path d="M52.01 93.2C67.74 93.2 83.48 93.2 99.21 93.2C99.9 93.2 99.8 93.1 99.8 93.8C99.81 94.74 99.8 94.74 98.86 94.74C67.53 94.74 36.2 94.74 4.87 94.74C4.73 94.74 4.6 94.72 4.46 94.74C4.17 94.78 4.11 94.65 4.11 94.38C4.1 93.19 4.09 93.19 5.26 93.19C20.84 93.2 36.43 93.2 52.01 93.2Z" fill="white"/>
<path d="M51.94 7.13998C36.19 7.13998 20.44 7.13998 4.69001 7.14998C4.22001 7.14998 4.08001 7.02998 4.10001 6.55998C4.14001 5.59998 4.11001 5.59998 5.07001 5.59998C36.43 5.59998 67.79 5.59998 99.16 5.59998C99.8 5.59998 99.8 5.59998 99.8 6.24998C99.8 7.14998 99.8 7.14998 98.91 7.14998C83.26 7.13998 67.6 7.13998 51.94 7.13998Z" fill="white"/>
<path d="M51.96 77.02C67.71 77.02 83.46 77.02 99.21 77.02C99.91 77.02 99.8 76.92 99.81 77.62C99.81 77.76 99.8 77.89 99.81 78.03C99.82 78.22 99.76 78.31 99.55 78.3C99.43 78.29 99.31 78.3 99.19 78.3C67.71 78.3 36.23 78.3 4.74 78.3C4.11999 78.3 4.12 78.3 4.12 77.68C4.12 77.03 4.12 77.03 4.76 77.03C20.49 77.02 36.22 77.02 51.96 77.02Z" fill="white"/>
<path d="M51.96 55.67C36.21 55.67 20.46 55.67 4.71002 55.67C4.01002 55.67 4.12002 55.77 4.11002 55.07C4.11002 54.93 4.12002 54.8 4.11002 54.66C4.10002 54.47 4.16002 54.38 4.37002 54.39C4.49002 54.4 4.61002 54.39 4.73002 54.39C36.21 54.39 67.69 54.39 99.18 54.39C99.8 54.39 99.8 54.39 99.8 55.01C99.8 55.66 99.8 55.66 99.16 55.66C83.43 55.67 67.7 55.67 51.96 55.67Z" fill="white"/>
<path d="M51.96 62.12C36.21 62.12 20.46 62.12 4.71 62.11C4.52 62.11 4.21 62.24 4.14 62.01C4.06 61.7 4.11 61.35 4.13 61.02C4.13 60.94 4.24 60.94 4.32 60.94C4.47 60.94 4.62 60.94 4.77 60.94C36.22 60.94 67.67 60.94 99.13 60.94C99.22 60.94 99.31 60.95 99.4 60.94C99.72 60.89 99.81 61.02 99.8 61.34C99.79 62.12 99.8 62.12 99.01 62.12C83.34 62.12 67.65 62.12 51.96 62.12Z" fill="white"/>
<path d="M51.91 33.13C36.18 33.13 20.44 33.13 4.71 33.12C4.52 33.12 4.21 33.26 4.15 33.01C4.07 32.7 4.13 32.35 4.14 32.02C4.14 31.95 4.26 31.95 4.34 31.95C4.49 31.95 4.64 31.95 4.79 31.95C36.24 31.95 67.69 31.95 99.15 31.95C99.26 31.95 99.36 31.96 99.47 31.95C99.76 31.91 99.82 32.04 99.82 32.31C99.82 33.13 99.83 33.13 99.03 33.13C83.31 33.13 67.61 33.13 51.91 33.13Z" fill="white"/>
<path d="M51.91 58.85C36.18 58.85 20.44 58.85 4.71001 58.84C4.52001 58.84 4.21001 58.98 4.15001 58.73C4.07001 58.42 4.12001 58.07 4.14001 57.74C4.14001 57.66 4.26001 57.67 4.33001 57.67C4.48001 57.67 4.63001 57.67 4.78001 57.67C36.23 57.67 67.68 57.67 99.14 57.67C99.25 57.67 99.35 57.68 99.46 57.67C99.75 57.63 99.81 57.76 99.81 58.03C99.81 58.85 99.82 58.85 99.02 58.85C83.31 58.85 67.61 58.85 51.91 58.85Z" fill="white"/>
<path d="M51.91 46.04C36.18 46.04 20.44 46.04 4.71001 46.03C4.52001 46.03 4.21001 46.17 4.15001 45.92C4.07001 45.61 4.12001 45.26 4.14001 44.93C4.14001 44.86 4.26001 44.86 4.33001 44.86C4.48001 44.86 4.63001 44.86 4.78001 44.86C36.23 44.86 67.68 44.86 99.14 44.86C99.25 44.86 99.35 44.87 99.46 44.86C99.75 44.82 99.81 44.95 99.81 45.22C99.81 46.04 99.82 46.04 99.02 46.04C83.31 46.04 67.61 46.04 51.91 46.04Z" fill="white"/>
<path d="M51.91 52.4C36.18 52.4 20.44 52.4 4.71001 52.39C4.52001 52.39 4.21001 52.53 4.15001 52.28C4.07001 51.97 4.12001 51.62 4.14001 51.29C4.14001 51.21 4.26001 51.22 4.33001 51.22C4.48001 51.22 4.63001 51.22 4.78001 51.22C36.23 51.22 67.68 51.22 99.14 51.22C99.25 51.22 99.35 51.23 99.46 51.22C99.75 51.18 99.81 51.31 99.81 51.58C99.81 52.4 99.82 52.4 99.02 52.4C83.32 52.4 67.61 52.4 51.91 52.4Z" fill="white"/>
<path d="M51.96 48.13C67.71 48.13 83.46 48.13 99.21 48.14C99.4 48.14 99.72 48.01 99.78 48.24C99.86 48.55 99.81 48.9 99.79 49.23C99.79 49.31 99.68 49.31 99.6 49.31C99.45 49.31 99.3 49.31 99.15 49.31C67.7 49.31 36.25 49.31 4.79 49.31C4.57 49.31 4.23 49.43 4.16 49.23C4.06 48.93 4.12 48.57 4.14 48.24C4.14 48.12 4.27 48.14 4.36 48.14C4.5 48.14 4.63 48.14 4.77 48.14C20.49 48.13 36.22 48.13 51.96 48.13Z" fill="white"/>
<path d="M51.96 36.4C36.21 36.4 20.46 36.4 4.71001 36.39C4.52001 36.39 4.21001 36.52 4.15001 36.29C4.07001 35.98 4.12001 35.63 4.14001 35.3C4.14001 35.22 4.26001 35.22 4.33001 35.22C4.48001 35.22 4.63001 35.22 4.78001 35.22C36.23 35.22 67.68 35.22 99.14 35.22C99.25 35.22 99.35 35.23 99.46 35.22C99.75 35.18 99.81 35.3 99.81 35.58C99.81 36.41 99.82 36.41 98.98 36.41C83.3 36.4 67.63 36.4 51.96 36.4Z" fill="white"/>
<path d="M51.96 65.3C36.21 65.3 20.46 65.3 4.71 65.29C4.52 65.29 4.2 65.42 4.14 65.19C4.06 64.88 4.11 64.53 4.13 64.2C4.13 64.12 4.24 64.12 4.32 64.12C4.47 64.12 4.62 64.12 4.77 64.12C36.22 64.12 67.67 64.12 99.13 64.12C99.35 64.12 99.69 64 99.76 64.2C99.86 64.5 99.8 64.86 99.78 65.19C99.78 65.31 99.65 65.29 99.56 65.29C99.42 65.29 99.29 65.29 99.15 65.29C83.43 65.3 67.7 65.3 51.96 65.3Z" fill="white"/>
<path d="M51.96 67.39C67.71 67.39 83.46 67.39 99.21 67.4C99.4 67.4 99.72 67.27 99.78 67.5C99.86 67.81 99.81 68.16 99.79 68.49C99.79 68.57 99.68 68.57 99.6 68.57C99.45 68.57 99.3 68.57 99.15 68.57C67.7 68.57 36.25 68.57 4.79 68.57C4.57 68.57 4.23 68.69 4.16 68.49C4.06 68.19 4.12 67.83 4.14 67.5C4.14 67.38 4.27 67.4 4.36 67.4C4.5 67.4 4.63 67.4 4.77 67.4C20.49 67.39 36.22 67.39 51.96 67.39Z" fill="white"/>
<path d="M52.01 12.6C67.74 12.6 83.48 12.6 99.21 12.61C99.4 12.61 99.71 12.47 99.77 12.72C99.85 13.03 99.79 13.38 99.78 13.71C99.78 13.78 99.66 13.78 99.58 13.78C99.43 13.78 99.28 13.78 99.13 13.78C67.68 13.78 36.23 13.78 4.77001 13.78C4.66001 13.78 4.56001 13.77 4.45001 13.78C4.16001 13.82 4.10001 13.69 4.10001 13.42C4.10001 12.6 4.09001 12.6 4.89001 12.6C20.6 12.6 36.31 12.6 52.01 12.6Z" fill="white"/>
<path d="M51.91 39.58C36.18 39.58 20.44 39.58 4.71001 39.57C4.52001 39.57 4.21001 39.7 4.15001 39.47C4.07001 39.16 4.12001 38.81 4.14001 38.48C4.14001 38.4 4.26001 38.4 4.33001 38.4C4.48001 38.4 4.63001 38.4 4.78001 38.4C36.23 38.4 67.68 38.4 99.14 38.4C99.25 38.4 99.35 38.41 99.46 38.4C99.75 38.36 99.81 38.48 99.81 38.76C99.81 39.59 99.82 39.59 99.02 39.59C83.32 39.58 67.61 39.58 51.91 39.58Z" fill="white"/>
<path d="M51.91 71.75C36.18 71.75 20.44 71.75 4.71001 71.74C4.52001 71.74 4.21001 71.88 4.15001 71.63C4.07001 71.32 4.12001 70.97 4.14001 70.64C4.14001 70.57 4.26001 70.57 4.34001 70.57C4.48001 70.57 4.61001 70.57 4.75001 70.57C36.23 70.57 67.71 70.57 99.2 70.57C99.4 70.57 99.72 70.45 99.78 70.66C99.87 70.97 99.81 71.32 99.8 71.65C99.8 71.74 99.7 71.74 99.62 71.75C99.48 71.75 99.35 71.75 99.21 71.75C83.44 71.75 67.67 71.75 51.91 71.75Z" fill="white"/>
<path d="M51.95 15.78C67.7 15.78 83.45 15.78 99.2 15.79C99.4 15.79 99.71 15.66 99.77 15.89C99.85 16.2 99.8 16.55 99.78 16.88C99.78 16.96 99.67 16.96 99.59 16.97C99.44 16.97 99.29 16.97 99.14 16.97C67.69 16.97 36.24 16.97 4.78001 16.97C4.56001 16.97 4.22001 17.09 4.15001 16.89C4.05001 16.59 4.11001 16.23 4.12001 15.9C4.12001 15.78 4.25001 15.79 4.33001 15.79C4.47001 15.79 4.60001 15.79 4.74001 15.79C20.49 15.78 36.22 15.78 51.95 15.78Z" fill="white"/>
<path d="M51.95 73.84C67.7 73.84 83.45 73.84 99.2 73.85C99.4 73.85 99.71 73.72 99.77 73.95C99.85 74.26 99.8 74.61 99.78 74.94C99.78 75.02 99.67 75.02 99.59 75.02C99.44 75.02 99.29 75.02 99.14 75.02C67.69 75.02 36.24 75.02 4.78001 75.02C4.56001 75.02 4.22001 75.14 4.15001 74.94C4.05001 74.64 4.11001 74.28 4.12001 73.95C4.12001 73.83 4.25001 73.85 4.33001 73.84C4.47001 73.84 4.60001 73.84 4.74001 73.84C20.49 73.84 36.22 73.84 51.95 73.84Z" fill="white"/>
<path d="M51.94 81.47C36.18 81.47 20.41 81.47 4.65 81.46C4.48 81.46 4.19 81.59 4.14 81.34C4.08 81.02 4.13 80.68 4.15 80.35C4.15 80.33 4.28 80.3 4.35 80.29C4.47 80.28 4.59 80.29 4.71 80.29C36.21 80.29 67.7 80.29 99.2 80.3C99.39 80.3 99.7 80.17 99.77 80.4C99.85 80.71 99.8 81.06 99.78 81.39C99.78 81.47 99.67 81.47 99.59 81.47C99.45 81.47 99.32 81.47 99.18 81.47C83.43 81.47 67.69 81.47 51.94 81.47Z" fill="white"/>
<path d="M51.91 20.23C36.18 20.23 20.44 20.23 4.71 20.22C4.52 20.22 4.21 20.36 4.15 20.11C4.07 19.8 4.13 19.45 4.14 19.12C4.14 19.05 4.26 19.05 4.34 19.05C4.49 19.05 4.64 19.05 4.79 19.05C36.24 19.05 67.69 19.05 99.15 19.05C99.26 19.05 99.36 19.06 99.47 19.05C99.76 19.01 99.82 19.14 99.82 19.41C99.82 20.23 99.83 20.23 99.03 20.23C83.31 20.23 67.61 20.23 51.91 20.23Z" fill="white"/>
<path d="M51.95 87.92C36.2 87.92 20.45 87.92 4.70002 87.91C4.51002 87.91 4.20002 88.05 4.14002 87.8C4.06002 87.49 4.12002 87.14 4.13002 86.81C4.13002 86.74 4.25002 86.74 4.33002 86.74C4.48002 86.74 4.63002 86.74 4.78002 86.74C36.23 86.74 67.68 86.74 99.14 86.74C99.25 86.74 99.35 86.75 99.46 86.74C99.75 86.7 99.81 86.84 99.81 87.1C99.81 87.92 99.82 87.92 99.02 87.92C83.33 87.92 67.64 87.92 51.95 87.92Z" fill="white"/>
<path d="M52.01 28.68C67.74 28.68 83.48 28.68 99.21 28.69C99.4 28.69 99.71 28.56 99.77 28.79C99.85 29.1 99.8 29.45 99.78 29.78C99.78 29.86 99.66 29.86 99.59 29.86C99.44 29.86 99.29 29.86 99.14 29.86C67.69 29.86 36.24 29.86 4.78002 29.86C4.67002 29.86 4.57002 29.85 4.46002 29.86C4.17002 29.9 4.11002 29.78 4.11002 29.5C4.11002 28.67 4.10002 28.67 4.90002 28.67C20.6 28.68 36.3 28.68 52.01 28.68Z" fill="white"/>
<path d="M51.96 22.23C67.71 22.23 83.46 22.23 99.21 22.24C99.4 22.24 99.72 22.11 99.78 22.34C99.86 22.65 99.81 23 99.79 23.33C99.79 23.41 99.68 23.41 99.6 23.41C99.45 23.41 99.3 23.41 99.15 23.41C67.7 23.41 36.25 23.41 4.79 23.41C4.57 23.41 4.23 23.53 4.16 23.33C4.06 23.03 4.12 22.67 4.14 22.34C4.14 22.22 4.27 22.24 4.36 22.24C4.5 22.24 4.63 22.24 4.77 22.24C20.49 22.23 36.22 22.23 51.96 22.23Z" fill="white"/>
<path d="M52.01 90.01C67.74 90.01 83.48 90.01 99.21 90.02C99.4 90.02 99.71 89.88 99.77 90.13C99.85 90.44 99.8 90.79 99.78 91.12C99.78 91.2 99.66 91.2 99.59 91.2C99.44 91.2 99.29 91.2 99.14 91.2C67.69 91.2 36.24 91.2 4.78002 91.2C4.67002 91.2 4.57002 91.19 4.46002 91.2C4.17002 91.24 4.11002 91.11 4.11002 90.84C4.11002 90.01 4.10002 90.01 4.90002 90.01C20.6 90.01 36.3 90.01 52.01 90.01Z" fill="white"/>
<path d="M51.95 25.5C67.7 25.5 83.45 25.5 99.2 25.51C99.39 25.51 99.71 25.38 99.77 25.61C99.85 25.92 99.8 26.27 99.78 26.6C99.78 26.68 99.67 26.68 99.59 26.68C99.44 26.68 99.29 26.68 99.14 26.68C67.69 26.68 36.24 26.68 4.78001 26.68C4.56001 26.68 4.22001 26.8 4.15001 26.6C4.05001 26.3 4.11001 25.94 4.12001 25.61C4.12001 25.49 4.25001 25.51 4.33001 25.5C4.47001 25.5 4.60001 25.5 4.74001 25.5C20.49 25.5 36.22 25.5 51.95 25.5Z" fill="white"/>
<path d="M51.96 42.85C36.21 42.85 20.46 42.85 4.71 42.84C4.52 42.84 4.2 42.97 4.14 42.74C4.06 42.43 4.11 42.08 4.13 41.75C4.13 41.67 4.24 41.67 4.32 41.67C4.47 41.67 4.62 41.67 4.77 41.67C36.22 41.67 67.67 41.67 99.13 41.67C99.35 41.67 99.69 41.55 99.76 41.75C99.86 42.05 99.8 42.41 99.78 42.74C99.78 42.86 99.65 42.84 99.56 42.84C99.42 42.84 99.29 42.84 99.15 42.84C83.43 42.85 67.69 42.85 51.96 42.85Z" fill="white"/>
<path d="M51.91 84.74C36.18 84.74 20.44 84.74 4.71001 84.73C4.52001 84.73 4.21001 84.86 4.15001 84.62C4.07001 84.31 4.12001 83.96 4.14001 83.63C4.14001 83.55 4.26001 83.55 4.33001 83.55C4.48001 83.55 4.63001 83.55 4.78001 83.55C36.23 83.55 67.68 83.55 99.14 83.55C99.25 83.55 99.35 83.56 99.46 83.55C99.75 83.51 99.81 83.64 99.81 83.91C99.81 84.74 99.82 84.74 99.02 84.74C83.32 84.74 67.61 84.74 51.91 84.74Z" fill="white"/>
<path d="M51.96 58.94C67.73 58.94 83.49 58.94 99.26 58.94C99.56 58.94 99.83 58.88 99.83 59.37C99.83 59.85 99.62 59.85 99.26 59.85C77.1 59.84 54.95 59.85 32.79 59.85C23.42 59.85 14.04 59.85 4.67001 59.85C4.14001 59.85 3.98001 59.63 4.12001 59.1C4.16001 58.96 4.24001 58.94 4.35001 58.94C4.50001 58.94 4.65001 58.94 4.80001 58.94C20.52 58.94 36.24 58.94 51.96 58.94Z" fill="white"/>
<path d="M51.97 57.58C36.21 57.58 20.44 57.58 4.67999 57.58C4.13999 57.58 3.95999 57.33 4.11999 56.81C4.14999 56.7 4.21999 56.67 4.30999 56.67C4.42999 56.67 4.54999 56.67 4.66999 56.67C36.2 56.67 67.73 56.67 99.26 56.67C99.76 56.67 99.97 57 99.8 57.46C99.75 57.58 99.67 57.57 99.59 57.57C99.45 57.57 99.32 57.57 99.18 57.57C83.44 57.58 67.71 57.58 51.97 57.58Z" fill="white"/>
<path d="M51.91 48.03C36.16 48.03 20.41 48.03 4.66 48.03C4.15 48.03 3.94 47.73 4.11 47.24C4.15 47.12 4.23 47.12 4.32 47.12C4.44 47.12 4.56 47.12 4.68 47.12C36.19 47.12 67.71 47.12 99.22 47.12C99.77 47.12 99.94 47.35 99.79 47.88C99.76 47.99 99.7 48.02 99.6 48.02C99.46 48.02 99.33 48.02 99.19 48.02C83.44 48.03 67.68 48.03 51.91 48.03Z" fill="white"/>
<path d="M52.01 10.6C67.76 10.6 83.51 10.6 99.26 10.6C99.57 10.6 99.83 10.54 99.83 11.04C99.82 11.47 99.68 11.52 99.31 11.52C67.75 11.51 36.19 11.51 4.63002 11.51C4.18002 11.51 3.95002 11.13 4.14002 10.71C4.19002 10.6 4.27002 10.6 4.36002 10.6C4.51002 10.6 4.66002 10.6 4.81002 10.6C20.54 10.6 36.27 10.6 52.01 10.6Z" fill="white"/>
<path d="M51.98 37.4C67.73 37.4 83.48 37.4 99.23 37.4C99.78 37.4 99.95 37.63 99.8 38.16C99.77 38.27 99.71 38.3 99.61 38.3C99.49 38.3 99.37 38.3 99.25 38.3C67.72 38.3 36.19 38.3 4.66 38.3C4.31 38.3 4.07 38.32 4.09 37.83C4.11 37.42 4.25 37.38 4.59 37.38C20.39 37.4 36.19 37.4 51.98 37.4Z" fill="white"/>
<path d="M51.94 15.69C36.18 15.69 20.41 15.69 4.65001 15.69C4.16001 15.69 3.93001 15.34 4.12001 14.89C4.16001 14.8 4.22001 14.78 4.29001 14.78C4.40001 14.78 4.50001 14.78 4.61001 14.78C36.17 14.78 67.73 14.78 99.29 14.77C99.69 14.77 99.81 14.86 99.82 15.28C99.83 15.75 99.57 15.69 99.28 15.69C83.5 15.69 67.72 15.69 51.94 15.69Z" fill="white"/>
<path d="M52 17.05C67.77 17.05 83.53 17.05 99.3 17.04C99.66 17.04 99.82 17.07 99.83 17.51C99.84 18 99.58 17.95 99.27 17.95C81.25 17.95 63.23 17.95 45.2 17.95C31.68 17.95 18.15 17.95 4.63001 17.96C4.27001 17.96 4.11001 17.93 4.10001 17.49C4.08001 17 4.35001 17.05 4.65001 17.05C20.43 17.05 36.22 17.05 52 17.05Z" fill="white"/>
<path d="M51.95 18.05C67.71 18.05 83.48 18.05 99.24 18.05C99.76 18.05 99.96 18.34 99.79 18.83C99.75 18.95 99.68 18.96 99.59 18.96C99.47 18.96 99.35 18.96 99.23 18.96C67.72 18.96 36.2 18.96 4.69001 18.96C4.05001 18.96 4.05001 18.96 4.11001 18.29C4.12001 18.12 4.16001 18.03 4.34001 18.05C4.48001 18.06 4.61001 18.05 4.75001 18.05C20.49 18.05 36.22 18.05 51.95 18.05Z" fill="white"/>
<path d="M52.01 20.32C67.76 20.32 83.51 20.32 99.26 20.32C99.57 20.32 99.83 20.26 99.83 20.76C99.82 21.19 99.68 21.24 99.31 21.24C67.75 21.23 36.19 21.23 4.63002 21.23C4.18002 21.23 3.95002 20.85 4.14002 20.43C4.19002 20.32 4.27002 20.32 4.36002 20.32C4.51002 20.32 4.66002 20.32 4.81002 20.32C20.54 20.32 36.27 20.32 52.01 20.32Z" fill="white"/>
<path d="M52.01 40.67C67.76 40.67 83.51 40.67 99.26 40.67C99.77 40.67 99.98 40.98 99.8 41.46C99.76 41.58 99.68 41.58 99.59 41.58C99.47 41.58 99.35 41.58 99.23 41.58C67.72 41.58 36.2 41.58 4.69001 41.58C4.14001 41.58 3.97001 41.34 4.12001 40.81C4.15001 40.7 4.21001 40.67 4.31001 40.67C4.45001 40.67 4.58001 40.67 4.72001 40.67C20.48 40.67 36.24 40.67 52.01 40.67Z" fill="white"/>
<path d="M52.01 66.39C67.76 66.39 83.51 66.39 99.26 66.39C99.77 66.39 99.98 66.7 99.8 67.18C99.76 67.3 99.68 67.3 99.59 67.3C99.47 67.3 99.35 67.3 99.23 67.3C67.72 67.3 36.2 67.3 4.69001 67.3C4.14001 67.3 3.97001 67.07 4.12001 66.54C4.15001 66.43 4.21001 66.4 4.31001 66.4C4.45001 66.4 4.58001 66.4 4.72001 66.4C20.48 66.39 36.24 66.39 52.01 66.39Z" fill="white"/>
<path d="M52.01 30.95C67.76 30.95 83.51 30.95 99.26 30.95C99.77 30.95 99.98 31.26 99.8 31.74C99.76 31.86 99.68 31.86 99.59 31.86C99.47 31.86 99.35 31.86 99.23 31.86C67.72 31.86 36.2 31.86 4.69001 31.86C4.14001 31.86 3.97001 31.62 4.12001 31.1C4.15001 30.99 4.21001 30.96 4.31001 30.96C4.45001 30.96 4.58001 30.96 4.72001 30.96C20.48 30.95 36.24 30.95 52.01 30.95Z" fill="white"/>
<path d="M51.96 69.57C36.19 69.57 20.43 69.57 4.66 69.57C4.36 69.57 4.09 69.63 4.09 69.14C4.09 68.66 4.3 68.66 4.66 68.66C26.77 68.67 48.88 68.66 70.99 68.66C80.41 68.66 89.83 68.66 99.25 68.66C99.78 68.66 99.94 68.88 99.8 69.41C99.76 69.55 99.68 69.57 99.57 69.57C99.42 69.57 99.27 69.57 99.12 69.57C83.4 69.57 67.68 69.57 51.96 69.57Z" fill="white"/>
<path d="M51.93 43.85C36.16 43.85 20.4 43.85 4.63 43.85C4.29 43.85 4.07 43.85 4.09 43.39C4.11 42.99 4.23 42.93 4.59 42.93C13.9 42.94 23.22 42.94 32.53 42.94C54.76 42.94 76.99 42.94 99.23 42.94C99.51 42.94 99.82 42.83 99.82 43.35C99.82 43.8 99.66 43.85 99.27 43.85C83.49 43.85 67.71 43.85 51.93 43.85Z" fill="white"/>
<path d="M51.96 26.77C67.73 26.77 83.49 26.77 99.26 26.77C99.57 26.77 99.84 26.71 99.83 27.2C99.82 27.63 99.68 27.68 99.31 27.68C67.75 27.67 36.19 27.67 4.63002 27.67C4.18002 27.67 3.95002 27.3 4.14002 26.87C4.19002 26.76 4.27002 26.76 4.36002 26.76C4.51002 26.76 4.66002 26.76 4.81002 26.76C20.52 26.77 36.24 26.77 51.96 26.77Z" fill="white"/>
<path d="M52 39.67C67.75 39.67 83.5 39.67 99.25 39.67C99.56 39.67 99.83 39.61 99.82 40.1C99.81 40.53 99.67 40.58 99.3 40.58C67.74 40.57 36.18 40.57 4.62001 40.57C4.17001 40.57 3.94001 40.2 4.13001 39.77C4.18001 39.66 4.26001 39.66 4.35001 39.66C4.50001 39.66 4.65001 39.66 4.80001 39.66C20.53 39.67 36.27 39.67 52 39.67Z" fill="white"/>
<path d="M51.96 76.02C36.19 76.02 20.43 76.02 4.66001 76.03C4.25001 76.03 4.06001 75.97 4.10001 75.5C4.12001 75.17 4.22001 75.07 4.53001 75.11C4.65001 75.13 4.77001 75.11 4.89001 75.11C36.27 75.11 67.65 75.11 99.03 75.11C99.12 75.11 99.21 75.11 99.3 75.11C99.76 75.11 99.98 75.48 99.79 75.9C99.74 76.01 99.66 76.01 99.57 76.01C99.42 76.01 99.27 76.01 99.12 76.01C83.4 76.02 67.68 76.02 51.96 76.02Z" fill="white"/>
<path d="M51.91 25.41C36.16 25.41 20.41 25.41 4.66001 25.41C4.15001 25.41 3.94001 25.1 4.12001 24.62C4.16001 24.5 4.24001 24.5 4.33001 24.5C4.45001 24.5 4.57001 24.5 4.69001 24.5C36.2 24.5 67.72 24.5 99.23 24.5C99.78 24.5 99.95 24.74 99.8 25.27C99.77 25.38 99.71 25.41 99.61 25.41C99.47 25.41 99.34 25.41 99.2 25.41C83.44 25.41 67.67 25.41 51.91 25.41Z" fill="white"/>
<path d="M51.96 80.2C36.2 80.2 20.43 80.2 4.67002 80.2C4.15002 80.2 3.95002 79.91 4.12002 79.42C4.16002 79.3 4.23002 79.3 4.32002 79.29C4.44002 79.29 4.56002 79.29 4.68002 79.29C36.19 79.29 67.71 79.29 99.22 79.29C99.86 79.29 99.86 79.29 99.8 79.96C99.79 80.13 99.75 80.22 99.57 80.2C99.43 80.19 99.3 80.2 99.16 80.2C83.43 80.2 67.7 80.2 51.96 80.2Z" fill="white"/>
<path d="M51.96 64.03C36.2 64.03 20.43 64.03 4.67002 64.03C4.15002 64.03 3.95002 63.74 4.12002 63.25C4.16002 63.13 4.23002 63.13 4.32002 63.12C4.44002 63.12 4.56002 63.12 4.68002 63.12C36.19 63.12 67.71 63.12 99.22 63.12C99.86 63.12 99.86 63.12 99.8 63.79C99.79 63.96 99.75 64.04 99.57 64.03C99.43 64.02 99.3 64.03 99.16 64.03C83.43 64.03 67.7 64.03 51.96 64.03Z" fill="white"/>
<path d="M51.96 82.47C36.19 82.47 20.43 82.47 4.66002 82.47C4.35002 82.47 4.08002 82.53 4.09002 82.04C4.10002 81.61 4.24002 81.56 4.61002 81.56C36.17 81.57 67.73 81.57 99.29 81.57C99.74 81.57 99.97 81.94 99.78 82.37C99.73 82.48 99.65 82.48 99.56 82.48C99.41 82.48 99.26 82.48 99.11 82.48C83.4 82.47 67.68 82.47 51.96 82.47Z" fill="white"/>
<path d="M51.96 53.4C36.19 53.4 20.43 53.4 4.66 53.4C4.35 53.4 4.09 53.46 4.09 52.97C4.09 52.49 4.3 52.49 4.66 52.49C27.16 52.5 49.67 52.49 72.17 52.49C81.2 52.49 90.22 52.49 99.25 52.49C99.78 52.49 99.94 52.71 99.8 53.24C99.76 53.38 99.68 53.4 99.57 53.4C99.42 53.4 99.27 53.4 99.12 53.4C83.4 53.4 67.68 53.4 51.96 53.4Z" fill="white"/>
<path d="M51.91 86.65C36.16 86.65 20.41 86.65 4.66 86.65C4.15 86.65 3.94 86.35 4.11 85.86C4.15 85.74 4.23 85.74 4.32 85.74C4.44 85.74 4.56 85.74 4.68 85.74C36.19 85.74 67.71 85.74 99.22 85.74C99.77 85.74 99.94 85.97 99.79 86.5C99.76 86.61 99.7 86.64 99.6 86.64C99.46 86.64 99.33 86.64 99.19 86.64C83.44 86.65 67.68 86.65 51.91 86.65Z" fill="white"/>
<path d="M51.92 34.13C36.17 34.13 20.42 34.13 4.67001 34.13C4.37001 34.13 4.10001 34.2 4.10001 33.7C4.10001 33.22 4.31001 33.21 4.66001 33.21C25.74 33.22 46.82 33.22 67.9 33.22C78.36 33.22 88.83 33.22 99.29 33.21C99.66 33.21 99.81 33.26 99.82 33.69C99.83 34.18 99.57 34.13 99.26 34.13C83.48 34.13 67.7 34.13 51.92 34.13Z" fill="white"/>
<path d="M51.96 88.02C67.73 88.02 83.49 88.02 99.26 88.02C99.57 88.02 99.83 87.96 99.83 88.45C99.83 88.93 99.62 88.93 99.26 88.93C76.94 88.92 54.61 88.93 32.29 88.93C23.08 88.93 13.87 88.93 4.67001 88.93C4.14001 88.93 3.98001 88.71 4.12001 88.18C4.16001 88.04 4.24001 88.02 4.35001 88.02C4.50001 88.02 4.65001 88.02 4.80001 88.02C20.52 88.02 36.24 88.02 51.96 88.02Z" fill="white"/>
<path d="M51.98 89.02C67.73 89.02 83.48 89.02 99.23 89.02C99.79 89.02 99.95 89.24 99.8 89.78C99.77 89.89 99.71 89.93 99.61 89.93C99.49 89.93 99.37 89.93 99.25 89.93C67.72 89.93 36.19 89.93 4.66002 89.93C4.32002 89.93 4.07002 89.96 4.09002 89.46C4.11002 89.05 4.24002 89.01 4.59002 89.01C20.39 89.02 36.19 89.02 51.98 89.02Z" fill="white"/>
<path d="M51.96 65.39C67.73 65.39 83.49 65.39 99.26 65.38C99.74 65.38 99.85 65.52 99.82 65.96C99.8 66.25 99.7 66.33 99.44 66.3C99.32 66.29 99.2 66.3 99.08 66.3C67.67 66.3 36.26 66.3 4.85001 66.3C4.77001 66.3 4.70001 66.3 4.62001 66.3C4.17001 66.3 3.94001 65.93 4.13001 65.51C4.18001 65.4 4.26001 65.4 4.35001 65.4C4.50001 65.4 4.65001 65.4 4.80001 65.4C20.52 65.39 36.24 65.39 51.96 65.39Z" fill="white"/>
<path d="M51.92 92.2C36.15 92.2 20.39 92.2 4.62 92.21C4.27 92.21 4.09 92.18 4.09 91.74C4.08 91.25 4.34 91.3 4.65 91.3C20.92 91.3 37.18 91.3 53.45 91.3C68.73 91.3 84.01 91.3 99.29 91.29C99.64 91.29 99.82 91.32 99.82 91.76C99.83 92.25 99.57 92.2 99.26 92.2C83.49 92.2 67.7 92.2 51.92 92.2Z" fill="white"/>
<path d="M51.96 73.75C36.2 73.75 20.43 73.75 4.67002 73.75C4.16002 73.75 3.95002 73.44 4.13002 72.96C4.17002 72.84 4.25002 72.84 4.34002 72.84C4.46002 72.84 4.58002 72.84 4.70002 72.84C36.21 72.84 67.73 72.84 99.24 72.84C99.79 72.84 99.96 73.07 99.81 73.6C99.78 73.71 99.72 73.74 99.62 73.74C99.48 73.74 99.35 73.74 99.21 73.74C83.46 73.75 67.71 73.75 51.96 73.75Z" fill="white"/>
<path d="M51.98 70.48C36.2 70.48 20.42 70.48 4.64 70.48C4.4 70.48 4.09 70.61 4.1 70.13C4.11 69.75 4.2 69.66 4.58 69.66C36.17 69.67 67.76 69.67 99.35 69.67C99.77 69.67 99.95 69.96 99.8 70.37C99.76 70.49 99.68 70.49 99.59 70.49C99.45 70.49 99.32 70.49 99.18 70.49C83.45 70.48 67.71 70.48 51.98 70.48Z" fill="white"/>
<path d="M51.91 37.31C36.16 37.31 20.41 37.31 4.66 37.3C4.46 37.3 4.12 37.49 4.1 37.01C4.09 36.61 4.18 36.48 4.61 36.48C36.17 36.49 67.73 36.49 99.3 36.48C99.74 36.48 99.84 36.62 99.81 37.01C99.79 37.21 99.75 37.33 99.53 37.31C99.39 37.3 99.26 37.31 99.12 37.31C83.38 37.31 67.65 37.31 51.91 37.31Z" fill="white"/>
<path d="M52 71.93C67.77 71.93 83.53 71.93 99.3 71.93C99.56 71.93 99.82 71.85 99.83 72.31C99.85 72.8 99.58 72.75 99.27 72.75C81.01 72.75 62.74 72.75 44.48 72.75C31.2 72.75 17.92 72.75 4.63001 72.75C4.37001 72.75 4.11001 72.83 4.10001 72.37C4.08001 71.88 4.35001 71.93 4.66001 71.93C20.43 71.93 36.21 71.93 52 71.93Z" fill="white"/>
<path d="M51.94 44.76C36.16 44.76 20.38 44.76 4.6 44.76C4.36 44.76 4.09 44.85 4.1 44.41C4.11 44.04 4.19 43.93 4.57 43.93C36.16 43.94 67.75 43.94 99.34 43.94C99.77 43.94 99.94 44.21 99.8 44.63C99.76 44.75 99.69 44.75 99.6 44.75C99.46 44.75 99.33 44.75 99.19 44.75C83.44 44.76 67.69 44.76 51.94 44.76Z" fill="white"/>
<path d="M51.96 35.04C36.18 35.04 20.4 35.04 4.62001 35.05C4.20001 35.05 4.06001 34.95 4.10001 34.53C4.12001 34.31 4.16001 34.19 4.41001 34.22C4.51001 34.23 4.62001 34.22 4.73001 34.22C36.24 34.22 67.76 34.22 99.27 34.22C99.5 34.22 99.81 34.08 99.82 34.57C99.83 35.01 99.66 35.05 99.3 35.05C83.52 35.04 67.74 35.04 51.96 35.04Z" fill="white"/>
<path d="M51.94 50.22C36.17 50.22 20.41 50.22 4.64001 50.21C4.43001 50.21 4.11001 50.36 4.10001 49.9C4.09001 49.52 4.17001 49.39 4.59001 49.39C36.17 49.4 67.74 49.4 99.32 49.4C99.77 49.4 99.94 49.66 99.79 50.08C99.75 50.19 99.68 50.21 99.59 50.21C99.44 50.21 99.29 50.21 99.14 50.21C83.41 50.22 67.67 50.22 51.94 50.22Z" fill="white"/>
<path d="M51.94 76.93C36.18 76.93 20.41 76.93 4.65001 76.93C4.07001 76.93 4.08001 76.93 4.11001 76.36C4.12001 76.15 4.20001 76.1 4.39001 76.11C4.47001 76.12 4.54001 76.11 4.62001 76.11C36.18 76.11 67.74 76.11 99.3 76.11C99.64 76.11 99.84 76.11 99.83 76.57C99.82 77.05 99.54 76.93 99.29 76.93C83.5 76.93 67.72 76.93 51.94 76.93Z" fill="white"/>
<path d="M52.01 50.31C67.77 50.31 83.54 50.31 99.3 50.31C99.62 50.31 99.84 50.3 99.82 50.74C99.8 51.05 99.73 51.19 99.41 51.13C99.37 51.12 99.32 51.13 99.27 51.13C67.73 51.13 36.18 51.13 4.64002 51.13C4.40002 51.13 4.11002 51.26 4.10002 50.78C4.09002 50.33 4.28002 50.31 4.63002 50.31C20.42 50.31 36.21 50.31 52.01 50.31Z" fill="white"/>
<path d="M51.92 79.2C36.15 79.2 20.39 79.2 4.62 79.2C4.36 79.2 4.1 79.28 4.09 78.82C4.07 78.33 4.34 78.38 4.65 78.38C22.61 78.38 40.57 78.38 58.54 78.38C72.12 78.38 85.71 78.38 99.29 78.38C99.55 78.38 99.81 78.3 99.82 78.76C99.84 79.25 99.57 79.2 99.26 79.2C83.48 79.2 67.7 79.2 51.92 79.2Z" fill="white"/>
<path d="M51.91 54.3C36.15 54.3 20.38 54.3 4.62 54.3C4.3 54.3 4.08 54.32 4.11 53.87C4.13 53.56 4.2 53.42 4.52 53.48C4.56 53.49 4.61 53.48 4.66 53.48C36.2 53.48 67.75 53.48 99.29 53.48C99.53 53.48 99.82 53.36 99.83 53.83C99.84 54.28 99.65 54.3 99.3 54.3C83.5 54.3 67.7 54.3 51.91 54.3Z" fill="white"/>
<path d="M51.92 56.58C36.15 56.58 20.39 56.58 4.62 56.58C4.36 56.58 4.1 56.66 4.09 56.2C4.07 55.71 4.34 55.76 4.65 55.76C22.82 55.76 41 55.76 59.17 55.76C72.54 55.76 85.92 55.76 99.29 55.76C99.55 55.76 99.81 55.68 99.82 56.14C99.84 56.63 99.57 56.58 99.26 56.58C83.48 56.58 67.7 56.58 51.92 56.58Z" fill="white"/>
<path d="M52 46.22C67.75 46.22 83.5 46.22 99.25 46.23C99.47 46.23 99.8 46.06 99.82 46.56C99.84 47.04 99.63 47.05 99.26 47.05C79.36 47.04 59.46 47.04 39.56 47.04C27.91 47.04 16.27 47.04 4.62 47.04C4.36 47.04 4.11 47.12 4.09 46.66C4.08 46.16 4.34 46.22 4.65 46.22C20.44 46.22 36.22 46.22 52 46.22Z" fill="white"/>
<path d="M52.01 82.56C67.77 82.56 83.54 82.56 99.3 82.56C99.61 82.56 99.85 82.54 99.82 82.99C99.8 83.3 99.73 83.44 99.41 83.39C99.37 83.38 99.32 83.39 99.27 83.39C67.73 83.39 36.18 83.39 4.64 83.39C4.4 83.39 4.11 83.52 4.1 83.04C4.09 82.59 4.27 82.57 4.63 82.57C20.42 82.56 36.21 82.56 52.01 82.56Z" fill="white"/>
<path d="M51.91 60.76C36.15 60.76 20.38 60.76 4.62 60.76C4.3 60.76 4.08 60.78 4.11 60.33C4.13 60.02 4.2 59.88 4.52 59.94C4.56 59.95 4.61 59.94 4.66 59.94C36.2 59.94 67.75 59.94 99.29 59.94C99.53 59.94 99.82 59.82 99.83 60.29C99.84 60.74 99.65 60.76 99.3 60.76C83.5 60.75 67.7 60.76 51.91 60.76Z" fill="white"/>
<path d="M51.96 84.84C67.73 84.84 83.49 84.84 99.26 84.85C99.46 84.85 99.8 84.66 99.82 85.14C99.84 85.53 99.75 85.68 99.31 85.68C67.75 85.67 36.19 85.67 4.62002 85.67C4.09002 85.67 4.07002 85.64 4.11002 85.1C4.12002 84.9 4.20002 84.84 4.39002 84.85C4.53002 84.86 4.66002 84.85 4.80002 84.85C20.52 84.84 36.24 84.84 51.96 84.84Z" fill="white"/>
<path d="M51.92 63.03C36.15 63.03 20.39 63.03 4.62 63.03C4.36 63.03 4.1 63.11 4.09 62.65C4.07 62.16 4.34 62.21 4.65 62.21C22.82 62.21 41 62.21 59.17 62.21C72.54 62.21 85.92 62.21 99.29 62.21C99.55 62.21 99.81 62.13 99.82 62.59C99.84 63.08 99.57 63.03 99.26 63.03C83.48 63.03 67.7 63.03 51.92 63.03Z" fill="white"/>
<path d="M51.96 12.41C36.18 12.41 20.4 12.41 4.62002 12.42C4.20002 12.42 4.07002 12.31 4.11002 11.9C4.13002 11.67 4.17002 11.56 4.42002 11.59C4.52002 11.6 4.63002 11.59 4.74002 11.59C36.25 11.59 67.77 11.59 99.28 11.59C99.52 11.59 99.82 11.45 99.83 11.94C99.84 12.38 99.67 12.41 99.31 12.41C83.52 12.41 67.74 12.41 51.96 12.41Z" fill="white"/>
<path d="M51.96 13.87C67.73 13.87 83.49 13.87 99.26 13.88C99.46 13.88 99.8 13.69 99.82 14.17C99.83 14.57 99.75 14.7 99.31 14.7C67.75 14.69 36.19 14.69 4.62001 14.7C4.18001 14.7 4.08001 14.56 4.11001 14.17C4.13001 13.92 4.22001 13.86 4.44001 13.87C4.58001 13.88 4.71001 13.87 4.85001 13.87C20.55 13.87 36.25 13.87 51.96 13.87Z" fill="white"/>
<path d="M51.96 21.32C67.74 21.32 83.52 21.32 99.3 21.31C99.72 21.31 99.86 21.42 99.82 21.83C99.8 22.05 99.76 22.17 99.51 22.14C99.41 22.13 99.3 22.14 99.19 22.14C67.68 22.14 36.16 22.14 4.65 22.14C4.42 22.14 4.11 22.28 4.1 21.79C4.09 21.35 4.26 21.32 4.62 21.32C20.4 21.32 36.18 21.32 51.96 21.32Z" fill="white"/>
<path d="M51.92 24.41C36.17 24.41 20.42 24.41 4.67001 24.4C4.44001 24.4 4.13001 24.56 4.10001 24.07C4.08001 23.59 4.30001 23.58 4.66001 23.58C26.14 23.59 47.61 23.59 69.09 23.59C79.16 23.59 89.23 23.59 99.3 23.59C99.53 23.59 99.81 23.47 99.82 23.92C99.83 24.34 99.69 24.41 99.31 24.41C89.66 24.4 80.02 24.4 70.37 24.4C64.21 24.41 58.07 24.41 51.92 24.41Z" fill="white"/>
<path d="M51.96 28.59C36.18 28.59 20.4 28.59 4.62001 28.6C4.20001 28.6 4.06001 28.5 4.10001 28.08C4.12001 27.86 4.16001 27.74 4.41001 27.77C4.51001 27.78 4.62001 27.77 4.73001 27.77C36.24 27.77 67.76 27.77 99.27 27.77C99.5 27.77 99.81 27.63 99.82 28.12C99.83 28.56 99.66 28.6 99.3 28.6C83.52 28.59 67.74 28.59 51.96 28.59Z" fill="white"/>
<path d="M51.94 93.1C36.16 93.1 20.38 93.1 4.6 93.1C4.36 93.1 4.09 93.19 4.1 92.75C4.11 92.38 4.19 92.27 4.57 92.27C36.16 92.28 67.75 92.28 99.34 92.28C99.77 92.28 99.94 92.55 99.8 92.97C99.76 93.09 99.69 93.09 99.6 93.09C99.46 93.09 99.33 93.09 99.19 93.09C83.44 93.1 67.69 93.1 51.94 93.1Z" fill="white"/>
<path d="M52.01 30.04C67.76 30.04 83.51 30.04 99.26 30.05C99.46 30.05 99.8 29.86 99.82 30.34C99.83 30.74 99.74 30.87 99.31 30.87C67.75 30.86 36.19 30.86 4.62001 30.87C4.18001 30.87 4.08001 30.73 4.11001 30.33C4.13001 30.13 4.17001 30.02 4.39001 30.04C4.53001 30.05 4.66001 30.04 4.80001 30.04C20.53 30.04 36.27 30.04 52.01 30.04Z" fill="white"/>
<path d="M51.97 5.51003C36.19 5.51003 20.41 5.51003 4.63001 5.51003C4.38001 5.51003 4.07001 5.63003 4.10001 5.15003C4.12001 4.84003 4.21001 4.75003 4.49001 4.79003C4.55001 4.80003 4.61001 4.79003 4.67001 4.79003C36.2 4.79003 67.73 4.79003 99.26 4.78003C99.62 4.78003 99.88 4.78003 99.81 5.26003C99.78 5.46003 99.72 5.52003 99.54 5.51003C99.4 5.50003 99.27 5.51003 99.13 5.51003C83.41 5.51003 67.69 5.51003 51.97 5.51003Z" fill="white"/>
<path d="M51.94 3.87001C36.17 3.87001 20.41 3.87001 4.64 3.86001C4.47 3.87001 4.23 4.00001 4.12 3.75001C4 3.44001 4.14 3.24001 4.48 3.24001C4.54 3.24001 4.6 3.24001 4.66 3.24001C36.19 3.24001 67.72 3.24001 99.25 3.24001C99.54 3.24001 99.89 3.15001 99.8 3.66001C99.78 3.80001 99.75 3.88001 99.59 3.88001C99.45 3.87001 99.32 3.88001 99.18 3.88001C83.44 3.87001 67.69 3.87001 51.94 3.87001Z" fill="white"/>
<path d="M52.01 2.06C67.74 2.06 83.48 2.06 99.21 2.06C99.35 2.06 99.48 2.06 99.62 2.06C99.8 2.05 99.81 2.17 99.8 2.3C99.79 2.42 99.86 2.59 99.63 2.6C99.51 2.6 99.39 2.6 99.27 2.6C67.73 2.6 36.18 2.6 4.64002 2.59C4.43002 2.59 4.08003 2.76 4.11003 2.28C4.12003 2.1 4.18002 2.03 4.35002 2.05C4.49002 2.06 4.62003 2.05 4.76003 2.05C20.51 2.06 36.26 2.06 52.01 2.06Z" fill="white"/>
<path d="M51.96 1.77998C36.21 1.77998 20.46 1.77998 4.71001 1.76998C4.52001 1.76998 4.14001 1.95998 4.14001 1.57998C4.14001 1.24998 4.50001 1.41998 4.69001 1.41998C36.2 1.40998 67.72 1.40998 99.23 1.41998C99.41 1.41998 99.77 1.23998 99.78 1.57998C99.79 1.95998 99.42 1.75998 99.25 1.75998C83.48 1.77998 67.72 1.77998 51.96 1.77998Z" fill="white"/>
<path d="M51.96 4.69003C36.2 4.69003 20.43 4.69003 4.67001 4.68003C4.49001 4.68003 4.13001 4.88003 4.14001 4.50003C4.15001 4.16003 4.50001 4.34003 4.68001 4.34003C36.19 4.33003 67.71 4.33003 99.22 4.34003C99.4 4.34003 99.76 4.17003 99.77 4.50003C99.77 4.88003 99.4 4.69003 99.2 4.69003C83.46 4.69003 67.71 4.69003 51.96 4.69003Z" fill="white"/>
<path d="M51.91 3.15003C36.18 3.15003 20.44 3.15003 4.71 3.14003C4.52 3.14003 4.16 3.29003 4.16 3.00003C4.16 2.75003 4.51 2.89003 4.7 2.89003C36.21 2.88003 67.73 2.88003 99.24 2.89003C99.42 2.89003 99.77 2.76003 99.77 3.01003C99.78 3.27003 99.43 3.15003 99.25 3.15003C83.47 3.15003 67.69 3.15003 51.91 3.15003Z" fill="white"/>
<path d="M51.97 4.23999C36.2 4.23999 20.44 4.24 4.67002 4.23C4.49002 4.23 4.15002 4.36 4.15002 4.1C4.15002 3.84 4.49002 3.97 4.67002 3.97C36.2 3.96 67.73 3.96 99.26 3.97C99.43 3.97 99.77 3.82 99.76 4.12C99.76 4.35 99.43 4.23 99.26 4.23C83.5 4.24 67.74 4.23999 51.97 4.23999Z" fill="white"/>
<path d="M103.68 94.9C69.19 94.9 34.71 94.9 0.220001 94.9C0.220001 94.88 0.220001 94.87 0.220001 94.85C34.71 94.85 69.2 94.85 103.69 94.85C103.68 94.87 103.68 94.88 103.68 94.9Z" fill="white"/>
<path d="M4.22 2.72003C36.04 2.72003 67.86 2.72003 99.67 2.72003C99.67 2.73003 99.67 2.74003 99.67 2.75003C67.85 2.75003 36.03 2.75003 4.22 2.75003C4.22 2.74003 4.22 2.73003 4.22 2.72003Z" fill="white"/>
</g>
<defs>
<clipPath id="clip0_476_374">
<rect width="104" height="95" fill="white"/>
</clipPath>
</defs>
</svg>
