<svg width="188" height="95" viewBox="0 0 188 95" fill="none" xmlns="http://www.w3.org/2000/svg">
<g clip-path="url(#clip0_476_282)">
<path d="M93.87 95.19C62.74 95.19 31.6 95.19 0.470006 95.19C-0.149994 95.19 -0.149994 95.19 -0.149994 94.56C-0.149994 63.25 -0.149994 31.94 -0.149994 0.629993C-0.149994 0.0199934 -0.149994 0.0199934 0.450006 0.0199934C1.47001 0.00999345 2.50001 0.00999345 3.53001 -6.55092e-06C3.80001 -6.55092e-06 3.92001 0.0399934 3.92001 0.349993C3.92001 1.23999 3.93001 1.23999 4.80001 1.23999C64.22 1.23999 123.65 1.23999 183.07 1.23999C183.16 1.23999 183.25 1.23999 183.34 1.23999C183.92 1.23999 183.92 1.23999 183.92 0.649993C183.92 0.559993 183.93 0.469993 183.92 0.379993C183.87 0.0699934 183.99 -0.0200066 184.3 -0.0100066C185.42 0.00999345 186.54 -6.55057e-06 187.66 -0.0100066C187.9 -0.0100066 188.02 0.0399934 187.99 0.309993C187.98 0.399993 187.99 0.489993 187.99 0.579993C187.99 31.92 187.99 63.26 187.99 94.6C187.99 95.18 187.99 95.18 187.41 95.18C156.22 95.19 125.05 95.19 93.87 95.19Z" fill="black"/>
<path d="M93.92 7.08001C123.74 7.08001 153.57 7.08001 183.39 7.08001C184.01 7.08001 184.01 7.08001 184.01 6.44001C184.01 4.46001 184.02 2.49001 184 0.510009C184 0.160009 184.1 0.0700086 184.44 0.0800086C185.47 0.100009 186.5 0.100009 187.53 0.0800086C187.82 0.0800086 187.94 0.160009 187.89 0.450009C187.88 0.540009 187.89 0.630009 187.89 0.720009C187.89 31.91 187.89 63.11 187.89 94.3C187.89 94.92 187.89 94.92 187.29 94.92C186.35 94.92 185.4 94.9 184.46 94.93C184.05 94.95 183.94 94.8 183.99 94.43C184.01 94.31 183.99 94.19 183.99 94.08C183.99 66.38 183.99 38.68 183.99 10.98C183.99 10.35 183.99 10.35 183.36 10.35C123.74 10.35 64.13 10.35 4.51002 10.35C4.38002 10.35 4.24002 10.36 4.11002 10.35C3.88002 10.34 3.79002 10.45 3.80002 10.67C3.81002 10.8 3.80002 10.94 3.80002 11.07C3.80002 38.81 3.80002 66.56 3.80002 94.3C3.80002 94.91 3.80002 94.91 3.20002 94.91C2.21002 94.91 1.23002 94.9 0.240018 94.91C1.75089e-05 94.91 -0.119982 94.86 -0.0899825 94.59C-0.0799825 94.49 -0.0899825 94.38 -0.0899825 94.28C-0.0899825 63.09 -0.0899825 31.89 -0.0899825 0.700009C-0.0899825 0.0800086 -0.0899825 0.0800086 0.540018 0.0800086C1.50002 0.0800086 2.45002 0.0900086 3.41002 0.0700086C3.72002 0.0600086 3.80002 0.160009 3.80002 0.470009C3.82002 2.50001 3.84002 4.52001 3.81002 6.54001C3.80002 6.98001 3.91002 7.09001 4.36002 7.09001C34.21 7.08001 64.07 7.08001 93.92 7.08001Z" fill="white"/>
<path d="M93.94 5.48999C123.73 5.48999 153.53 5.48999 183.32 5.48999C183.92 5.48999 183.92 5.48999 183.92 6.09999C183.92 6.99999 183.92 6.99999 183.03 6.99999C123.55 6.99999 64.06 6.99999 4.58 6.99999C3.91 6.99999 3.91 6.99999 3.91 6.32999C3.91 5.49999 3.91 5.49999 4.73 5.49999C34.47 5.48999 64.2 5.48999 93.94 5.48999Z" fill="white"/>
<path d="M93.96 93.42C123.74 93.42 153.52 93.42 183.29 93.42C183.91 93.42 183.91 93.42 183.91 94.05C183.91 94.92 183.91 94.92 183.04 94.92C123.57 94.92 64.1 94.92 4.64 94.92C4.51 94.92 4.37 94.91 4.24 94.92C3.96 94.96 3.9 94.84 3.9 94.57C3.89 93.41 3.88 93.41 5.02 93.41C34.67 93.42 64.32 93.42 93.96 93.42Z" fill="white"/>
<path d="M93.91 83.69C123.7 83.69 153.5 83.69 183.29 83.7C183.49 83.7 183.82 83.57 183.89 83.8C183.98 84.13 183.92 84.5 183.91 84.85C183.91 84.93 183.8 84.93 183.73 84.93C183.58 84.93 183.44 84.93 183.29 84.93C123.72 84.93 64.15 84.93 4.58001 84.93C4.49001 84.93 4.40001 84.92 4.32001 84.93C4.01001 84.98 3.92001 84.86 3.92001 84.55C3.93001 83.69 3.92001 83.69 4.77001 83.69C34.47 83.69 64.19 83.69 93.91 83.69Z" fill="white"/>
<path d="M93.92 81.65C64.13 81.65 34.33 81.65 4.54002 81.64C4.34002 81.64 4.01002 81.77 3.95002 81.54C3.86002 81.21 3.92002 80.84 3.94002 80.49C3.94002 80.41 4.05002 80.41 4.12002 80.41C4.27002 80.41 4.41002 80.41 4.56002 80.41C64.13 80.41 123.7 80.41 183.27 80.41C183.36 80.41 183.45 80.42 183.53 80.41C183.84 80.36 183.93 80.49 183.92 80.8C183.91 81.65 183.92 81.65 183.07 81.65C153.36 81.65 123.64 81.65 93.92 81.65Z" fill="white"/>
<path d="M93.94 73.96C123.75 73.96 153.56 73.96 183.36 73.97C183.54 73.97 183.84 73.83 183.9 74.09C183.97 74.43 183.91 74.79 183.89 75.14C183.89 75.16 183.77 75.19 183.7 75.2C183.55 75.21 183.41 75.2 183.26 75.2C123.7 75.2 64.15 75.2 4.59 75.2C3.92 75.2 3.95 75.2 3.91 74.53C3.88 74.07 4.01 73.95 4.48 73.95C34.29 73.96 64.11 73.96 93.94 73.96Z" fill="white"/>
<path d="M93.92 71.92C64.13 71.92 34.33 71.92 4.54002 71.91C4.34002 71.91 4.01002 72.04 3.94002 71.81C3.85002 71.48 3.91002 71.11 3.92002 70.76C3.92002 70.68 4.03002 70.68 4.10002 70.68C4.25002 70.68 4.39002 70.68 4.54002 70.68C64.11 70.68 123.68 70.68 183.25 70.68C183.34 70.68 183.43 70.69 183.51 70.68C183.82 70.63 183.91 70.75 183.91 71.07C183.9 71.93 183.91 71.93 183.06 71.93C153.36 71.92 123.64 71.92 93.92 71.92Z" fill="white"/>
<path d="M93.91 64.23C123.7 64.23 153.5 64.23 183.29 64.24C183.49 64.24 183.82 64.11 183.88 64.34C183.97 64.67 183.91 65.04 183.89 65.39C183.89 65.47 183.78 65.47 183.71 65.47C183.56 65.47 183.42 65.47 183.27 65.47C123.7 65.47 64.13 65.47 4.56001 65.47C4.47001 65.47 4.38001 65.46 4.30001 65.47C3.99001 65.52 3.90001 65.4 3.91001 65.08C3.92001 64.23 3.91001 64.23 4.76001 64.23C34.47 64.23 64.19 64.23 93.91 64.23Z" fill="white"/>
<path d="M93.87 29.91C64.09 29.91 34.31 29.91 4.54002 29.9C4.34002 29.9 4.01002 30.04 3.95002 29.8C3.86002 29.47 3.92002 29.1 3.94002 28.75C3.94002 28.68 4.06002 28.68 4.13002 28.68C4.28002 28.68 4.42002 28.68 4.57002 28.68C64.14 28.68 123.71 28.68 183.28 28.68C183.38 28.68 183.49 28.69 183.59 28.68C183.87 28.64 183.93 28.77 183.93 29.03C183.94 29.92 183.95 29.92 183.07 29.92C153.34 29.91 123.6 29.91 93.87 29.91Z" fill="white"/>
<path d="M93.92 62.19C64.13 62.19 34.33 62.19 4.54002 62.18C4.34002 62.18 4.01002 62.31 3.95002 62.08C3.86002 61.75 3.92002 61.38 3.94002 61.03C3.94002 60.95 4.05002 60.95 4.13002 60.95C4.28002 60.95 4.42002 60.95 4.57002 60.95C64.14 60.95 123.71 60.95 183.28 60.95C183.38 60.95 183.49 60.96 183.59 60.95C183.87 60.91 183.93 61.03 183.93 61.3C183.93 62.19 183.95 62.19 183.08 62.19C153.35 62.19 123.63 62.19 93.92 62.19Z" fill="white"/>
<path d="M93.97 38.4C123.75 38.4 153.53 38.4 183.31 38.41C183.51 38.41 183.84 38.27 183.9 38.52C183.98 38.85 183.93 39.22 183.91 39.57C183.91 39.64 183.79 39.64 183.72 39.64C183.57 39.64 183.43 39.64 183.28 39.64C123.71 39.64 64.14 39.64 4.57001 39.64C4.47001 39.64 4.36001 39.63 4.26001 39.64C3.98001 39.68 3.92001 39.55 3.92001 39.29C3.90001 38.4 3.89001 38.4 4.76001 38.4C34.5 38.4 64.23 38.4 93.97 38.4Z" fill="white"/>
<path d="M93.89 16.9C64.14 16.9 34.39 16.9 4.63999 16.9C4.50999 16.9 4.36999 16.89 4.23999 16.9C3.95999 16.94 3.89999 16.82 3.88999 16.55C3.88999 15.66 3.86999 15.66 4.73999 15.66C64.24 15.66 123.74 15.66 183.23 15.66C183.9 15.66 183.87 15.66 183.91 16.33C183.94 16.79 183.8 16.9 183.34 16.9C153.54 16.9 123.72 16.9 93.89 16.9Z" fill="white"/>
<path d="M93.96 48.13C123.74 48.13 153.52 48.13 183.3 48.14C183.5 48.14 183.83 48 183.89 48.24C183.98 48.57 183.92 48.94 183.9 49.29C183.9 49.36 183.78 49.36 183.71 49.36C183.56 49.36 183.42 49.36 183.27 49.36C123.7 49.36 64.13 49.36 4.56002 49.36C4.46002 49.36 4.35002 49.35 4.25002 49.36C3.97002 49.4 3.91002 49.27 3.91002 49.01C3.90002 48.12 3.89002 48.12 4.77002 48.12C34.5 48.13 64.23 48.13 93.96 48.13Z" fill="white"/>
<path d="M93.92 20.17C64.13 20.17 34.33 20.17 4.54002 20.16C4.34002 20.16 4.01002 20.29 3.95002 20.06C3.86002 19.73 3.92002 19.36 3.94002 19.01C3.94002 18.93 4.05002 18.93 4.12002 18.93C4.27002 18.93 4.41002 18.93 4.56002 18.93C64.13 18.93 123.7 18.93 183.27 18.93C183.36 18.93 183.45 18.94 183.53 18.93C183.84 18.88 183.93 19.01 183.92 19.32C183.91 20.17 183.92 20.17 183.07 20.17C153.36 20.17 123.64 20.17 93.92 20.17Z" fill="white"/>
<path d="M93.96 51.22C123.74 51.22 153.52 51.22 183.3 51.23C183.5 51.23 183.83 51.1 183.89 51.33C183.98 51.66 183.92 52.03 183.9 52.38C183.9 52.45 183.79 52.45 183.71 52.45C183.56 52.45 183.42 52.45 183.27 52.45C123.7 52.45 64.13 52.45 4.56002 52.45C4.46002 52.45 4.35002 52.44 4.25002 52.45C3.97002 52.49 3.91002 52.36 3.91002 52.1C3.90002 51.21 3.89002 51.21 4.77002 51.21C34.5 51.22 64.23 51.22 93.96 51.22Z" fill="white"/>
<path d="M93.91 54.5C123.7 54.5 153.5 54.5 183.29 54.51C183.49 54.51 183.82 54.38 183.88 54.61C183.97 54.94 183.91 55.31 183.89 55.66C183.89 55.74 183.78 55.74 183.71 55.74C183.56 55.74 183.42 55.74 183.27 55.74C123.7 55.74 64.13 55.74 4.56001 55.74C4.47001 55.74 4.38001 55.73 4.30001 55.74C3.99001 55.79 3.90001 55.66 3.91001 55.35C3.92001 54.5 3.91001 54.5 4.76001 54.5C34.48 54.5 64.19 54.5 93.91 54.5Z" fill="white"/>
<path d="M93.96 35.12C123.74 35.12 153.52 35.12 183.3 35.13C183.5 35.13 183.83 35 183.89 35.23C183.98 35.56 183.92 35.93 183.9 36.28C183.9 36.35 183.79 36.35 183.71 36.35C183.56 36.35 183.42 36.35 183.27 36.35C123.7 36.35 64.13 36.35 4.56002 36.35C4.46002 36.35 4.35002 36.34 4.25002 36.35C3.97002 36.39 3.91002 36.26 3.91002 36C3.90002 35.11 3.89002 35.11 4.77002 35.11C34.5 35.12 64.23 35.12 93.96 35.12Z" fill="white"/>
<path d="M93.92 26.63C64.13 26.63 34.33 26.63 4.54002 26.62C4.34002 26.62 4.01002 26.75 3.95002 26.52C3.86002 26.19 3.92002 25.82 3.94002 25.47C3.94002 25.39 4.05002 25.39 4.12002 25.39C4.27002 25.39 4.41002 25.39 4.56002 25.39C64.13 25.39 123.7 25.39 183.27 25.39C183.36 25.39 183.45 25.4 183.53 25.39C183.84 25.34 183.93 25.47 183.92 25.78C183.91 26.63 183.92 26.63 183.07 26.63C153.36 26.63 123.64 26.63 93.92 26.63Z" fill="white"/>
<path d="M93.91 44.85C123.7 44.85 153.5 44.85 183.29 44.86C183.49 44.86 183.82 44.73 183.89 44.96C183.98 45.29 183.92 45.66 183.91 46.01C183.91 46.09 183.8 46.09 183.73 46.09C183.58 46.09 183.44 46.09 183.29 46.09C123.72 46.09 64.15 46.09 4.58 46.09C4.51 46.09 4.43 46.08 4.36 46.09C4 46.15 3.89 46.02 3.9 45.67C3.92 44.86 3.9 44.86 4.71 44.86C34.44 44.85 64.18 44.85 93.91 44.85Z" fill="white"/>
<path d="M93.92 91.38C64.13 91.38 34.33 91.38 4.54002 91.37C4.34002 91.37 4.01002 91.5 3.95002 91.27C3.86002 90.94 3.92002 90.57 3.94002 90.22C3.94002 90.14 4.05002 90.14 4.12002 90.14C4.27002 90.14 4.41002 90.14 4.56002 90.14C64.13 90.14 123.7 90.14 183.27 90.14C183.36 90.14 183.45 90.15 183.53 90.14C183.84 90.09 183.93 90.21 183.92 90.53C183.91 91.38 183.92 91.38 183.07 91.38C153.36 91.38 123.64 91.38 93.92 91.38Z" fill="white"/>
<path d="M93.91 86.96C123.72 86.96 153.53 86.96 183.33 86.97C183.52 86.97 183.82 86.84 183.88 87.07C183.96 87.37 183.91 87.71 183.89 88.04C183.89 88.12 183.78 88.12 183.71 88.12C183.55 88.12 183.39 88.12 183.22 88.12C123.69 88.12 64.17 88.12 4.63999 88.12C4.39999 88.12 4.03999 88.25 3.93999 88.04C3.81999 87.78 3.89999 87.43 3.89999 87.12C3.89999 87.01 3.97999 86.98 4.07999 86.97C4.22999 86.97 4.36999 86.97 4.51999 86.97C34.33 86.96 64.12 86.96 93.91 86.96Z" fill="white"/>
<path d="M93.96 77.23C123.75 77.23 153.55 77.23 183.34 77.24C183.53 77.24 183.83 77.11 183.89 77.34C183.97 77.64 183.92 77.98 183.9 78.31C183.9 78.39 183.79 78.38 183.71 78.38C183.56 78.38 183.42 78.38 183.27 78.38C123.7 78.38 64.13 78.38 4.56001 78.38C4.46001 78.38 4.35001 78.37 4.25001 78.38C3.97001 78.42 3.91001 78.3 3.91001 78.03C3.91001 77.23 3.90001 77.23 4.68001 77.23C34.44 77.23 64.2 77.23 93.96 77.23Z" fill="white"/>
<path d="M93.87 68.65C64.08 68.65 34.28 68.65 4.49001 68.64C4.30001 68.64 4.00001 68.77 3.94001 68.54C3.86001 68.24 3.92001 67.9 3.93001 67.57C3.93001 67.5 4.05001 67.5 4.12001 67.5C4.27001 67.5 4.41001 67.5 4.56001 67.5C64.13 67.5 123.7 67.5 183.27 67.5C183.37 67.5 183.48 67.51 183.58 67.5C183.86 67.46 183.92 67.59 183.92 67.85C183.92 68.65 183.93 68.65 183.15 68.65C153.39 68.65 123.63 68.65 93.87 68.65Z" fill="white"/>
<path d="M93.92 42.82C64.11 42.82 34.3 42.82 4.5 42.81C4.31 42.81 4.01 42.94 3.95 42.71C3.87 42.41 3.92 42.07 3.94 41.74C3.94 41.66 4.05 41.66 4.12 41.66C4.28 41.66 4.44 41.66 4.61 41.66C64.14 41.66 123.66 41.66 183.19 41.66C183.43 41.66 183.79 41.53 183.89 41.74C184.01 42 183.93 42.35 183.93 42.66C183.93 42.77 183.85 42.81 183.75 42.81C183.6 42.81 183.46 42.81 183.31 42.81C153.51 42.82 123.71 42.82 93.92 42.82Z" fill="white"/>
<path d="M93.92 13.63C64.11 13.63 34.3 13.63 4.5 13.62C4.31 13.62 4.01 13.75 3.95 13.52C3.87 13.22 3.92 12.88 3.94 12.55C3.94 12.47 4.05 12.47 4.12 12.47C4.28 12.47 4.44 12.47 4.61 12.47C64.14 12.47 123.66 12.47 183.19 12.47C183.43 12.47 183.79 12.34 183.89 12.55C184.01 12.81 183.93 13.16 183.93 13.47C183.93 13.58 183.85 13.62 183.76 13.62C183.61 13.62 183.47 13.62 183.32 13.62C153.51 13.63 123.71 13.63 93.92 13.63Z" fill="white"/>
<path d="M93.91 31.94C123.72 31.94 153.53 31.94 183.33 31.95C183.52 31.95 183.82 31.82 183.88 32.05C183.96 32.35 183.91 32.69 183.89 33.02C183.89 33.1 183.78 33.1 183.71 33.1C183.55 33.1 183.39 33.1 183.22 33.1C123.69 33.1 64.17 33.1 4.63999 33.1C4.39999 33.1 4.03999 33.23 3.93999 33.02C3.81999 32.76 3.89999 32.41 3.89999 32.1C3.89999 31.99 3.97999 31.96 4.07999 31.95C4.22999 31.95 4.36999 31.95 4.51999 31.95C34.33 31.94 64.12 31.94 93.91 31.94Z" fill="white"/>
<path d="M93.86 58.92C64.1 58.92 34.33 58.92 4.57 58.92C4.36 58.92 4.02 59.03 3.95 58.85C3.85 58.56 3.91 58.21 3.91 57.89C3.91 57.77 4.03 57.78 4.11 57.78C4.23 57.78 4.35 57.78 4.46 57.78C64.09 57.78 123.72 57.78 183.35 57.78C183.53 57.78 183.82 57.67 183.87 57.87C183.95 58.19 183.94 58.54 183.86 58.87C183.85 58.9 183.73 58.92 183.66 58.92C183.51 58.93 183.37 58.92 183.22 58.92C153.45 58.92 123.66 58.92 93.86 58.92Z" fill="white"/>
<path d="M93.87 23.36C64.08 23.36 34.28 23.36 4.49002 23.35C4.30002 23.35 4.00002 23.48 3.94002 23.25C3.86002 22.95 3.91002 22.61 3.93002 22.28C3.93002 22.21 4.04002 22.21 4.12002 22.21C4.27002 22.21 4.41002 22.21 4.56002 22.21C64.13 22.21 123.7 22.21 183.27 22.21C183.37 22.21 183.48 22.22 183.58 22.21C183.86 22.17 183.92 22.29 183.92 22.56C183.92 23.36 183.93 23.36 183.15 23.36C153.4 23.36 123.63 23.36 93.87 23.36Z" fill="white"/>
<path d="M93.91 14.69C123.73 14.69 153.56 14.69 183.38 14.69C183.71 14.69 183.96 14.65 183.94 15.14C183.92 15.53 183.8 15.58 183.46 15.58C174.03 15.57 164.61 15.57 155.18 15.57C105.02 15.57 54.86 15.57 4.69002 15.57C4.60002 15.57 4.51002 15.57 4.42002 15.57C3.95002 15.57 3.73002 15.21 3.91002 14.79C3.96002 14.68 4.04002 14.69 4.12002 14.69C4.27002 14.69 4.41002 14.69 4.56002 14.69C34.35 14.69 64.13 14.69 93.91 14.69Z" fill="white"/>
<path d="M93.91 16.99C123.65 16.99 153.38 16.99 183.12 16.99C183.22 16.99 183.33 16.99 183.43 16.99C183.87 16.99 184.09 17.34 183.91 17.76C183.86 17.87 183.78 17.87 183.7 17.87C183.58 17.87 183.46 17.87 183.35 17.87C123.73 17.87 64.11 17.87 4.49001 17.87C4.20001 17.87 3.90001 17.99 3.89001 17.45C3.88001 16.93 4.15001 16.98 4.49001 16.98C34.3 16.99 64.1 16.99 93.91 16.99Z" fill="white"/>
<path d="M93.96 17.96C123.77 17.96 153.58 17.96 183.39 17.96C183.68 17.96 183.95 17.88 183.94 18.37C183.93 18.82 183.76 18.85 183.4 18.85C152.16 18.84 120.93 18.84 89.69 18.84C61.27 18.84 32.84 18.84 4.41999 18.85C4.04999 18.85 3.89999 18.8 3.88999 18.36C3.87999 17.86 4.16999 17.95 4.44999 17.95C34.29 17.96 64.13 17.96 93.96 17.96Z" fill="white"/>
<path d="M93.96 20.26C123.68 20.26 153.4 20.26 183.12 20.26C183.22 20.26 183.33 20.26 183.43 20.26C183.87 20.26 184.09 20.63 183.91 21.04C183.86 21.15 183.78 21.14 183.7 21.15C183.58 21.15 183.46 21.15 183.35 21.15C123.73 21.15 64.11 21.15 4.48999 21.15C4.23999 21.15 3.89999 21.31 3.89999 20.78C3.89999 20.33 4.04999 20.26 4.44999 20.26C34.28 20.26 64.12 20.26 93.96 20.26Z" fill="white"/>
<path d="M93.87 22.12C64.06 22.12 34.25 22.12 4.44 22.13C3.98 22.13 3.87 22.01 3.89 21.57C3.9 21.25 4.03 21.23 4.29 21.23C7.09 21.24 9.89 21.23 12.68 21.23C69.48 21.23 126.29 21.23 183.09 21.23C183.21 21.23 183.33 21.23 183.44 21.23C183.85 21.23 184.08 21.63 183.9 22.02C183.86 22.1 183.8 22.11 183.72 22.11C183.57 22.11 183.43 22.11 183.28 22.11C153.49 22.12 123.68 22.12 93.87 22.12Z" fill="white"/>
<path d="M93.92 25.31C64.1 25.31 34.27 25.31 4.44999 25.32C3.99999 25.32 3.85999 25.22 3.89999 24.77C3.91999 24.51 3.95999 24.38 4.24999 24.42C4.37999 24.44 4.50999 24.42 4.64999 24.42C64.16 24.42 123.68 24.42 183.19 24.42C183.26 24.42 183.34 24.42 183.41 24.42C183.87 24.42 184.1 24.78 183.92 25.2C183.87 25.31 183.79 25.3 183.7 25.3C183.55 25.3 183.41 25.3 183.26 25.3C153.48 25.31 123.7 25.31 93.92 25.31Z" fill="white"/>
<path d="M93.92 27.61C64.18 27.61 34.45 27.61 4.71 27.61C4.61 27.61 4.5 27.61 4.4 27.61C3.96 27.61 3.74 27.25 3.92 26.84C3.97 26.73 4.05 26.73 4.13 26.73C4.25 26.73 4.37 26.73 4.48 26.73C64.1 26.73 123.72 26.73 183.34 26.73C183.63 26.73 183.93 26.62 183.94 27.15C183.95 27.67 183.67 27.62 183.34 27.62C153.54 27.61 123.73 27.61 93.92 27.61Z" fill="white"/>
<path d="M93.92 28.58C64.1 28.58 34.27 28.58 4.44999 28.59C3.99999 28.59 3.85999 28.49 3.89999 28.04C3.91999 27.78 3.95999 27.65 4.24999 27.69C4.37999 27.71 4.50999 27.69 4.64999 27.69C64.16 27.69 123.68 27.69 183.19 27.69C183.26 27.69 183.34 27.69 183.41 27.69C183.87 27.69 184.1 28.05 183.92 28.47C183.87 28.58 183.79 28.57 183.7 28.57C183.55 28.57 183.41 28.57 183.26 28.57C153.48 28.58 123.7 28.58 93.92 28.58Z" fill="white"/>
<path d="M93.92 30.88C64.18 30.88 34.45 30.88 4.71 30.88C4.61 30.88 4.5 30.88 4.4 30.88C3.96 30.88 3.74 30.52 3.92 30.11C3.97 30 4.05 30 4.13 30C4.25 30 4.37 30 4.48 30C64.1 30 123.72 30 183.34 30C183.59 30 183.93 29.84 183.94 30.37C183.94 30.82 183.8 30.89 183.39 30.89C153.57 30.88 123.74 30.88 93.92 30.88Z" fill="white"/>
<path d="M93.87 31.85C64.06 31.85 34.25 31.85 4.44 31.86C3.98 31.86 3.87 31.74 3.89 31.3C3.9 30.98 4.03 30.96 4.29 30.96C7.09 30.97 9.89 30.96 12.68 30.96C69.47 30.96 126.26 30.96 183.05 30.96C183.18 30.96 183.32 30.96 183.45 30.96C183.86 30.96 184.09 31.36 183.91 31.75C183.87 31.83 183.81 31.84 183.73 31.84C183.58 31.84 183.44 31.84 183.29 31.84C153.49 31.85 123.68 31.85 93.87 31.85Z" fill="white"/>
<path d="M93.91 36.45C123.65 36.45 153.38 36.45 183.12 36.45C183.22 36.45 183.33 36.45 183.43 36.45C183.87 36.45 184.09 36.8 183.91 37.22C183.86 37.33 183.78 37.33 183.7 37.33C183.58 37.33 183.46 37.33 183.35 37.33C123.73 37.33 64.11 37.33 4.49001 37.33C4.20001 37.33 3.90001 37.45 3.89001 36.91C3.88001 36.39 4.15001 36.44 4.49001 36.44C34.3 36.45 64.1 36.45 93.91 36.45Z" fill="white"/>
<path d="M93.91 37.42C123.73 37.42 153.56 37.42 183.38 37.42C183.71 37.42 183.96 37.38 183.94 37.87C183.92 38.26 183.8 38.31 183.46 38.31C174.08 38.3 164.7 38.3 155.32 38.3C105.11 38.3 54.91 38.3 4.7 38.3C4.61 38.3 4.52 38.3 4.43 38.3C3.96 38.3 3.74 37.94 3.92 37.52C3.97 37.41 4.05 37.42 4.13 37.42C4.28 37.42 4.42 37.42 4.57 37.42C34.35 37.42 64.13 37.42 93.91 37.42Z" fill="white"/>
<path d="M93.92 40.61C64.18 40.61 34.45 40.61 4.71 40.61C4.61 40.61 4.5 40.61 4.4 40.61C3.96 40.61 3.74 40.25 3.92 39.84C3.97 39.73 4.05 39.73 4.13 39.73C4.25 39.73 4.37 39.73 4.48 39.73C64.1 39.73 123.72 39.73 183.34 39.73C183.59 39.73 183.93 39.57 183.93 40.1C183.93 40.55 183.79 40.62 183.38 40.62C153.57 40.61 123.74 40.61 93.92 40.61Z" fill="white"/>
<path d="M93.9 41.58C64.08 41.58 34.25 41.58 4.42999 41.58C4.13999 41.58 3.86999 41.65 3.88999 41.16C3.89999 40.75 4.02999 40.69 4.38999 40.69C64.07 40.7 123.74 40.7 183.42 40.7C183.89 40.7 184.07 40.98 183.92 41.46C183.88 41.57 183.82 41.59 183.73 41.59C183.58 41.59 183.44 41.59 183.29 41.59C153.49 41.58 123.7 41.58 93.9 41.58Z" fill="white"/>
<path d="M93.92 44.77C64.1 44.77 34.27 44.77 4.44999 44.78C3.99999 44.78 3.85999 44.68 3.89999 44.23C3.91999 43.97 3.95999 43.84 4.24999 43.88C4.37999 43.9 4.50999 43.88 4.64999 43.88C64.16 43.88 123.68 43.88 183.19 43.88C183.26 43.88 183.34 43.88 183.41 43.88C183.87 43.88 184.1 44.24 183.92 44.66C183.87 44.77 183.79 44.76 183.7 44.76C183.55 44.76 183.41 44.76 183.26 44.76C153.48 44.77 123.7 44.77 93.92 44.77Z" fill="white"/>
<path d="M93.89 35.04C64.07 35.04 34.24 35.04 4.42002 35.04C4.11002 35.04 3.87002 35.08 3.89002 34.61C3.90002 34.18 4.05002 34.15 4.40002 34.15C64.08 34.16 123.75 34.16 183.43 34.16C183.89 34.16 184.08 34.47 183.92 34.92C183.88 35.03 183.81 35.04 183.72 35.04C183.57 35.04 183.43 35.04 183.28 35.04C153.48 35.04 123.69 35.04 93.89 35.04Z" fill="white"/>
<path d="M93.87 48.04C64.06 48.04 34.25 48.04 4.44001 48.04C4.15001 48.04 3.88001 48.12 3.89001 47.63C3.90001 47.18 4.07001 47.15 4.43001 47.15C64.09 47.16 123.75 47.16 183.41 47.16C183.86 47.16 184.1 47.55 183.91 47.95C183.87 48.03 183.81 48.04 183.73 48.04C183.58 48.04 183.44 48.04 183.29 48.04C153.49 48.04 123.68 48.04 93.87 48.04Z" fill="white"/>
<path d="M93.92 53.43C64.18 53.43 34.45 53.43 4.71 53.43C4.61 53.43 4.5 53.43 4.4 53.43C3.96 53.43 3.74 53.07 3.92 52.66C3.97 52.55 4.05 52.55 4.13 52.55C4.25 52.55 4.37 52.55 4.48 52.55C64.1 52.55 123.72 52.55 183.34 52.55C183.59 52.55 183.93 52.39 183.94 52.92C183.94 53.37 183.8 53.44 183.39 53.44C153.57 53.43 123.74 53.43 93.92 53.43Z" fill="white"/>
<path d="M93.87 54.41C64.06 54.41 34.25 54.41 4.44001 54.41C4.15001 54.41 3.88001 54.49 3.89001 54C3.90001 53.55 4.07001 53.52 4.43001 53.52C64.09 53.53 123.75 53.53 183.42 53.53C183.87 53.53 184.11 53.92 183.92 54.32C183.88 54.4 183.82 54.41 183.74 54.41C183.59 54.41 183.45 54.41 183.3 54.41C153.49 54.41 123.68 54.41 93.87 54.41Z" fill="white"/>
<path d="M93.92 56.71C64.18 56.71 34.45 56.71 4.71 56.71C4.61 56.71 4.5 56.71 4.4 56.71C3.96 56.71 3.74 56.35 3.92 55.94C3.97 55.83 4.05 55.83 4.13 55.83C4.25 55.83 4.37 55.83 4.48 55.83C64.1 55.83 123.72 55.83 183.34 55.83C183.59 55.83 183.93 55.67 183.93 56.2C183.93 56.65 183.79 56.72 183.38 56.72C153.57 56.71 123.74 56.71 93.92 56.71Z" fill="white"/>
<path d="M93.87 47.07C64.15 47.07 34.43 47.07 4.71 47.07C4.61 47.07 4.5 47.07 4.4 47.07C3.96 47.07 3.74 46.71 3.92 46.29C3.97 46.18 4.05 46.19 4.13 46.18C4.25 46.18 4.37 46.18 4.48 46.18C64.1 46.18 123.72 46.18 183.34 46.18C183.59 46.18 183.93 46.02 183.93 46.55C183.93 47 183.78 47.07 183.38 47.07C153.55 47.07 123.71 47.07 93.87 47.07Z" fill="white"/>
<path d="M93.9 59.89C64.16 59.89 34.43 59.89 4.69002 59.89C4.56002 59.89 4.42002 59.87 4.29002 59.89C3.91002 59.95 3.90002 59.73 3.90002 59.45C3.90002 59.18 3.89002 58.94 4.28002 59C4.38002 59.02 4.49002 59 4.59002 59C64.14 59 123.68 59 183.23 59C183.29 59 183.35 59 183.41 59C183.89 59 184.08 59.28 183.92 59.75C183.88 59.86 183.82 59.88 183.73 59.88C183.57 59.88 183.41 59.88 183.24 59.88C153.46 59.89 123.68 59.89 93.9 59.89Z" fill="white"/>
<path d="M93.92 60.87C64.1 60.87 34.27 60.87 4.45 60.88C4 60.88 3.88 60.77 3.9 60.33C3.92 60.01 4.04 59.98 4.3 59.98C6.52 59.99 8.75 59.98 10.97 59.98C68.35 59.98 125.73 59.98 183.11 59.98C183.23 59.98 183.35 59.98 183.46 59.98C183.88 59.98 184.1 60.37 183.92 60.77C183.87 60.88 183.79 60.87 183.7 60.87C183.55 60.87 183.41 60.87 183.26 60.87C153.47 60.87 123.7 60.87 93.92 60.87Z" fill="white"/>
<path d="M93.88 63.17C64.07 63.17 34.26 63.17 4.45001 63.17C4.20001 63.17 3.89001 63.3 3.89001 62.81C3.89001 62.38 4.00001 62.28 4.43001 62.28C64.08 62.29 123.73 62.29 183.38 62.29C183.92 62.29 184.05 62.47 183.92 63.01C183.89 63.14 183.82 63.17 183.71 63.17C183.55 63.17 183.39 63.17 183.22 63.17C153.44 63.17 123.66 63.17 93.88 63.17Z" fill="white"/>
<path d="M93.94 63.25C123.76 63.25 153.59 63.25 183.41 63.25C183.71 63.25 183.96 63.2 183.95 63.68C183.94 64.1 183.79 64.14 183.44 64.14C123.76 64.14 64.08 64.14 4.40001 64.14C3.94001 64.14 3.75001 63.84 3.91001 63.38C3.95001 63.27 4.02001 63.26 4.11001 63.26C4.26001 63.26 4.40001 63.26 4.55001 63.26C34.35 63.25 64.14 63.25 93.94 63.25Z" fill="white"/>
<path d="M93.96 65.55C123.68 65.55 153.4 65.55 183.12 65.55C183.22 65.55 183.33 65.55 183.43 65.55C183.87 65.55 184.09 65.91 183.91 66.33C183.86 66.44 183.78 66.43 183.7 66.44C183.58 66.44 183.46 66.44 183.35 66.44C123.73 66.44 64.11 66.44 4.48999 66.44C4.23999 66.44 3.89999 66.6 3.89999 66.07C3.89999 65.62 4.04999 65.55 4.44999 65.55C34.28 65.55 64.12 65.55 93.96 65.55Z" fill="white"/>
<path d="M93.87 69.62C64.15 69.62 34.43 69.62 4.71 69.62C4.61 69.62 4.5 69.62 4.4 69.62C3.96 69.62 3.74 69.25 3.92 68.84C3.97 68.73 4.05 68.74 4.13 68.73C4.25 68.73 4.37 68.73 4.48 68.73C64.1 68.73 123.72 68.73 183.34 68.73C183.59 68.73 183.93 68.57 183.93 69.1C183.93 69.55 183.78 69.62 183.38 69.62C153.55 69.62 123.71 69.62 93.87 69.62Z" fill="white"/>
<path d="M93.96 69.71C123.77 69.71 153.58 69.71 183.39 69.71C183.68 69.71 183.95 69.63 183.94 70.12C183.93 70.57 183.76 70.6 183.4 70.6C152.19 70.59 120.98 70.59 89.78 70.59C61.33 70.59 32.87 70.59 4.41999 70.6C4.04999 70.6 3.89999 70.55 3.88999 70.11C3.87999 69.61 4.16999 69.7 4.44999 69.7C34.29 69.71 64.13 69.71 93.96 69.71Z" fill="white"/>
<path d="M93.96 72.01C123.68 72.01 153.4 72.01 183.12 72.01C183.22 72.01 183.33 72.01 183.43 72.01C183.87 72.01 184.09 72.38 183.91 72.79C183.86 72.9 183.78 72.89 183.7 72.9C183.58 72.9 183.46 72.9 183.35 72.9C123.73 72.9 64.11 72.9 4.48999 72.9C4.23999 72.9 3.89999 73.06 3.89999 72.53C3.89999 72.08 4.04999 72.01 4.44999 72.02C34.28 72.01 64.12 72.01 93.96 72.01Z" fill="white"/>
<path d="M93.93 73.87C64.09 73.87 34.25 73.87 4.42001 73.87C4.15001 73.87 3.88001 73.95 3.89001 73.48C3.90001 73.08 4.00001 72.98 4.40001 72.98C64.08 72.99 123.75 72.99 183.43 72.99C183.88 72.99 184.07 73.31 183.91 73.76C183.87 73.87 183.79 73.87 183.71 73.87C183.56 73.87 183.42 73.87 183.27 73.87C153.49 73.87 123.71 73.87 93.93 73.87Z" fill="white"/>
<path d="M93.88 76.17C64.07 76.17 34.26 76.17 4.45001 76.17C4.20001 76.17 3.89001 76.3 3.89001 75.81C3.89001 75.38 4.00001 75.28 4.43001 75.28C64.08 75.29 123.73 75.29 183.38 75.29C183.92 75.29 184.05 75.47 183.92 76.01C183.89 76.14 183.82 76.17 183.71 76.17C183.56 76.17 183.42 76.17 183.27 76.17C153.47 76.17 123.68 76.17 93.88 76.17Z" fill="white"/>
<path d="M93.88 79.35C64.07 79.35 34.26 79.35 4.45001 79.35C4.20001 79.35 3.89001 79.48 3.89001 78.99C3.89001 78.56 4.01001 78.46 4.43001 78.46C64.08 78.47 123.73 78.47 183.38 78.47C183.92 78.47 184.05 78.65 183.92 79.19C183.89 79.32 183.82 79.35 183.71 79.35C183.55 79.35 183.39 79.35 183.22 79.35C153.44 79.35 123.66 79.35 93.88 79.35Z" fill="white"/>
<path d="M93.93 80.33C64.09 80.33 34.25 80.33 4.42001 80.33C4.14001 80.33 3.89001 80.39 3.90001 79.93C3.91001 79.52 4.03001 79.43 4.42001 79.43C64.08 79.44 123.74 79.44 183.41 79.44C183.89 79.44 184.1 79.76 183.93 80.21C183.89 80.32 183.81 80.32 183.72 80.32C183.57 80.32 183.43 80.32 183.28 80.32C153.49 80.33 123.71 80.33 93.93 80.33Z" fill="white"/>
<path d="M93.91 81.74C123.65 81.74 153.38 81.74 183.12 81.74C183.22 81.74 183.33 81.74 183.43 81.74C183.87 81.74 184.09 82.09 183.91 82.51C183.86 82.62 183.78 82.62 183.7 82.62C183.58 82.62 183.46 82.62 183.35 82.62C123.73 82.62 64.11 82.62 4.49001 82.62C4.20001 82.62 3.89001 82.74 3.89001 82.2C3.88001 81.68 4.15001 81.73 4.49001 81.73C34.3 81.74 64.1 81.74 93.91 81.74Z" fill="white"/>
<path d="M93.87 83.6C64.06 83.6 34.25 83.6 4.44001 83.6C4.15001 83.6 3.88001 83.68 3.89001 83.19C3.90001 82.74 4.07001 82.71 4.43001 82.71C64.09 82.72 123.75 82.72 183.41 82.72C183.86 82.72 184.1 83.11 183.91 83.51C183.87 83.59 183.81 83.6 183.73 83.6C183.58 83.6 183.44 83.6 183.29 83.6C153.49 83.6 123.68 83.6 93.87 83.6Z" fill="white"/>
<path d="M93.96 85.01C123.68 85.01 153.4 85.01 183.12 85.01C183.22 85.01 183.33 85.01 183.43 85.01C183.87 85.01 184.09 85.38 183.91 85.79C183.86 85.9 183.78 85.89 183.7 85.9C183.58 85.9 183.46 85.9 183.35 85.9C123.73 85.9 64.11 85.9 4.48999 85.9C4.23999 85.9 3.89999 86.06 3.89999 85.53C3.89999 85.08 4.04999 85.01 4.44999 85.01C34.28 85.02 64.12 85.01 93.96 85.01Z" fill="white"/>
<path d="M93.92 89.08C64.18 89.08 34.45 89.08 4.71 89.08C4.61 89.08 4.5 89.08 4.4 89.08C3.96 89.08 3.74 88.73 3.92 88.31C3.97 88.2 4.05 88.2 4.13 88.2C4.25 88.2 4.37 88.2 4.48 88.2C64.1 88.2 123.72 88.2 183.34 88.2C183.63 88.2 183.94 88.08 183.94 88.62C183.95 89.14 183.68 89.09 183.34 89.09C153.54 89.08 123.73 89.08 93.92 89.08Z" fill="white"/>
<path d="M93.91 89.17C123.73 89.17 153.56 89.17 183.38 89.17C183.71 89.17 183.96 89.13 183.94 89.62C183.92 90.01 183.8 90.06 183.46 90.06C169.76 90.05 156.07 90.05 142.37 90.05C96.48 90.05 50.59 90.05 4.7 90.05C4.61 90.05 4.52 90.05 4.43 90.05C3.96 90.05 3.74 89.69 3.92 89.27C3.97 89.16 4.05 89.17 4.13 89.17C4.28 89.17 4.42 89.17 4.57 89.17C34.35 89.17 64.13 89.17 93.91 89.17Z" fill="white"/>
<path d="M93.87 11.42C64.15 11.42 34.43 11.42 4.71 11.42C4.61 11.42 4.5 11.42 4.4 11.42C3.96 11.42 3.74 11.05 3.92 10.64C3.97 10.53 4.05 10.54 4.13 10.53C4.25 10.53 4.37 10.53 4.48 10.53C64.1 10.53 123.72 10.53 183.34 10.53C183.59 10.53 183.93 10.37 183.93 10.9C183.93 11.35 183.78 11.42 183.38 11.42C153.55 11.42 123.71 11.42 93.87 11.42Z" fill="white"/>
<path d="M93.92 92.36C64.18 92.36 34.45 92.36 4.71 92.36C4.61 92.36 4.5 92.36 4.4 92.36C3.96 92.36 3.74 92 3.92 91.59C3.97 91.48 4.05 91.48 4.13 91.48C4.25 91.48 4.37 91.48 4.48 91.48C64.1 91.48 123.72 91.48 183.34 91.48C183.59 91.48 183.93 91.32 183.93 91.85C183.93 92.3 183.79 92.37 183.38 92.37C153.57 92.36 123.74 92.36 93.92 92.36Z" fill="white"/>
<path d="M93.87 93.33C64.06 93.33 34.25 93.33 4.44002 93.33C4.15002 93.33 3.87002 93.41 3.89002 92.92C3.91002 92.53 3.99002 92.44 4.38002 92.44C12.35 92.45 20.32 92.45 28.28 92.45C79.9 92.45 131.52 92.45 183.14 92.45C183.24 92.45 183.35 92.45 183.45 92.45C183.86 92.45 184.09 92.86 183.91 93.24C183.87 93.32 183.81 93.33 183.73 93.33C183.58 93.33 183.44 93.33 183.29 93.33C153.49 93.33 123.68 93.33 93.87 93.33Z" fill="white"/>
<path d="M93.91 11.51C123.73 11.51 153.56 11.51 183.38 11.51C183.66 11.51 183.95 11.42 183.94 11.92C183.93 12.35 183.78 12.41 183.41 12.41C165.21 12.4 147 12.4 128.8 12.4C87.43 12.4 46.06 12.4 4.69002 12.4C4.60002 12.4 4.51002 12.4 4.42002 12.4C3.96002 12.4 3.73002 12.04 3.91002 11.62C3.96002 11.51 4.04002 11.52 4.13002 11.52C4.28002 11.52 4.42002 11.52 4.57002 11.52C34.35 11.51 64.13 11.51 93.91 11.51Z" fill="white"/>
<path d="M93.88 24.33C64.07 24.33 34.26 24.33 4.45002 24.33C4.20002 24.33 3.91002 24.46 3.89002 23.97C3.87002 23.44 4.18002 23.54 4.48002 23.54C50.31 23.54 96.15 23.54 141.98 23.54C155.79 23.54 169.61 23.54 183.42 23.54C183.67 23.54 183.92 23.46 183.94 23.91C183.96 24.39 183.7 24.34 183.4 24.34C165.11 24.34 146.82 24.34 128.52 24.34C116.97 24.33 105.43 24.33 93.88 24.33Z" fill="white"/>
<path d="M93.9 77.05C64.08 77.05 34.25 77.05 4.43001 77.05C4.17001 77.05 3.90001 77.15 3.89001 76.67C3.88001 76.17 4.15001 76.26 4.44001 76.26C30.45 76.26 56.46 76.26 82.47 76.26C116.11 76.26 149.75 76.26 183.38 76.27C183.59 76.27 183.92 76.09 183.93 76.58C183.94 77.02 183.78 77.07 183.41 77.07C153.57 77.05 123.74 77.05 93.9 77.05Z" fill="white"/>
<path d="M93.9 51.14C64.08 51.14 34.25 51.14 4.43001 51.14C4.17001 51.14 3.90001 51.23 3.90001 50.76C3.89001 50.26 4.17001 50.35 4.45001 50.35C33.14 50.35 61.83 50.35 90.52 50.35C121.48 50.35 152.44 50.35 183.39 50.36C183.6 50.36 183.92 50.18 183.94 50.67C183.96 51.11 183.78 51.15 183.41 51.15C153.57 51.13 123.73 51.14 93.9 51.14Z" fill="white"/>
<path d="M93.89 57.59C64.07 57.59 34.24 57.59 4.42001 57.59C4.15001 57.59 3.89001 57.68 3.89001 57.2C3.89001 56.7 4.16001 56.79 4.44001 56.79C35.46 56.79 66.47 56.79 97.49 56.79C126.12 56.79 154.75 56.79 183.38 56.8C183.59 56.8 183.91 56.62 183.93 57.11C183.95 57.55 183.77 57.59 183.4 57.59C153.57 57.59 123.73 57.59 93.89 57.59Z" fill="white"/>
<path d="M93.87 67.32C64.06 67.32 34.25 67.32 4.44001 67.31C4.23001 67.31 3.90001 67.49 3.89001 67C3.89001 66.62 3.98001 66.52 4.37001 66.52C64.06 66.53 123.75 66.53 183.44 66.53C183.89 66.53 184.03 66.73 183.91 67.18C183.88 67.29 183.82 67.32 183.73 67.32C183.58 67.32 183.44 67.32 183.29 67.32C153.49 67.32 123.68 67.32 93.87 67.32Z" fill="white"/>
<path d="M93.87 86.78C64.06 86.78 34.25 86.78 4.43999 86.77C4.22999 86.77 3.89999 86.94 3.89999 86.45C3.89999 86.06 3.99999 85.97 4.38999 85.97C64.08 85.98 123.77 85.98 183.46 85.98C183.91 85.98 184.05 86.19 183.92 86.64C183.89 86.75 183.83 86.78 183.74 86.78C183.59 86.78 183.45 86.78 183.3 86.78C153.49 86.78 123.68 86.78 93.87 86.78Z" fill="white"/>
<path d="M93.92 33.27C123.66 33.27 153.39 33.27 183.13 33.27C183.26 33.27 183.4 33.29 183.53 33.27C183.88 33.22 183.94 33.38 183.94 33.69C183.94 34.02 183.82 34.11 183.53 34.07C183.43 34.06 183.32 34.07 183.22 34.07C123.69 34.07 64.16 34.07 4.63 34.07C4.53 34.07 4.42 34.06 4.32 34.07C3.97 34.13 3.91 33.96 3.91 33.65C3.91 33.32 4.03 33.23 4.32 33.27C4.45 33.29 4.58 33.27 4.72 33.27C34.44 33.27 64.18 33.27 93.92 33.27Z" fill="white"/>
<path d="M93.96 43C123.68 43 153.4 43 183.12 43C183.25 43 183.39 43.02 183.52 43C183.87 42.95 183.93 43.11 183.93 43.42C183.93 43.75 183.81 43.83 183.52 43.8C183.4 43.79 183.28 43.8 183.17 43.8C123.67 43.8 64.17 43.8 4.67001 43.8C4.58001 43.8 4.49001 43.79 4.41001 43.8C4.09001 43.83 3.91001 43.8 3.90001 43.38C3.89001 42.93 4.14001 43 4.40001 43C29.48 43 54.56 43 79.65 43C84.42 43 89.19 43 93.96 43Z" fill="white"/>
<path d="M93.92 49.45C123.66 49.45 153.39 49.45 183.13 49.45C183.26 49.45 183.4 49.47 183.53 49.45C183.87 49.4 183.94 49.55 183.94 49.87C183.94 50.2 183.82 50.29 183.53 50.25C183.41 50.24 183.29 50.25 183.18 50.25C123.68 50.25 64.18 50.25 4.68 50.25C4.59 50.25 4.5 50.24 4.42 50.25C4.11 50.28 3.91 50.26 3.91 49.83C3.91 49.39 4.15 49.45 4.42 49.45C26.66 49.45 48.9 49.45 71.14 49.45C78.72 49.45 86.32 49.45 93.92 49.45Z" fill="white"/>
<path d="M93.92 14.6C64.18 14.6 34.45 14.6 4.70999 14.6C4.57999 14.6 4.43999 14.58 4.30999 14.6C3.96999 14.65 3.89999 14.5 3.89999 14.18C3.89999 13.86 4.00999 13.76 4.30999 13.8C4.40999 13.81 4.51999 13.8 4.61999 13.8C64.15 13.8 123.68 13.8 183.21 13.8C183.31 13.8 183.42 13.81 183.52 13.8C183.86 13.74 183.93 13.9 183.93 14.22C183.93 14.54 183.82 14.64 183.52 14.6C183.39 14.58 183.26 14.6 183.12 14.6C153.39 14.6 123.65 14.6 93.92 14.6Z" fill="white"/>
<path d="M93.94 4.69002C123.76 4.69002 153.59 4.69002 183.41 4.70002C183.61 4.70002 183.91 4.53002 183.94 4.99002C183.97 5.49002 183.68 5.40002 183.39 5.40002C138.38 5.40002 93.37 5.40002 48.37 5.40002C33.72 5.40002 19.06 5.40002 4.41001 5.40002C4.20001 5.40002 3.89001 5.53002 3.91001 5.08002C3.92001 4.78002 3.99001 4.64002 4.30001 4.69002C4.42001 4.71002 4.54001 4.69002 4.65001 4.69002C34.41 4.69002 64.17 4.69002 93.94 4.69002Z" fill="white"/>
<path d="M93.91 3.10002C123.73 3.10002 153.56 3.10002 183.38 3.11002C183.56 3.11002 183.81 2.98002 183.91 3.25002C184.03 3.57002 183.9 3.72002 183.54 3.73002C183.44 3.73002 183.33 3.73002 183.23 3.73002C123.69 3.73002 64.14 3.73002 4.6 3.73002C4.45 3.73002 4.3 3.72002 4.16 3.73002C3.92 3.75002 3.91 3.61002 3.91 3.43002C3.91 3.23002 3.91 3.07002 4.18 3.10002C4.31 3.12002 4.44 3.10002 4.58 3.10002C34.35 3.10002 64.13 3.10002 93.91 3.10002Z" fill="white"/>
<path d="M93.96 1.94997C123.72 1.94997 153.49 1.94997 183.25 1.94997C183.4 1.94997 183.55 1.95997 183.69 1.94997C183.91 1.92997 183.92 2.06997 183.91 2.22997C183.91 2.37997 183.9 2.49997 183.7 2.47997C183.6 2.46997 183.49 2.47997 183.39 2.47997C123.73 2.47997 64.07 2.47997 4.40002 2.47997C4.31002 2.47997 4.22002 2.46997 4.14002 2.47997C3.96002 2.49997 3.90002 2.40997 3.91002 2.22997C3.91002 2.05997 3.93002 1.93997 4.14002 1.94997C4.29002 1.95997 4.43002 1.94997 4.58002 1.94997C34.37 1.94997 64.17 1.94997 93.96 1.94997Z" fill="white"/>
<path d="M93.87 4.60999C64.09 4.60999 34.31 4.60999 4.53002 4.59999C4.33002 4.59999 3.92002 4.84999 3.93002 4.37999C3.94002 3.96999 4.32002 4.17999 4.52002 4.17999C64.12 4.16999 123.73 4.16999 183.33 4.17999C183.53 4.17999 183.9 3.96999 183.91 4.37999C183.92 4.81999 183.53 4.59999 183.34 4.59999C153.52 4.60999 123.69 4.60999 93.87 4.60999Z" fill="white"/>
<path d="M93.96 1.33002C123.74 1.33002 153.52 1.33002 183.3 1.34002C183.5 1.34002 183.89 1.15002 183.89 1.52002C183.89 1.86002 183.51 1.67002 183.32 1.67002C123.72 1.68002 64.12 1.68002 4.51001 1.67002C4.32001 1.67002 3.95001 1.86002 3.94001 1.51002C3.93001 1.15002 4.31001 1.34002 4.49001 1.34002C34.32 1.33002 64.14 1.33002 93.96 1.33002Z" fill="white"/>
<path d="M93.91 2.74997C123.7 2.74997 153.5 2.74997 183.29 2.74997C183.44 2.74997 183.58 2.74997 183.73 2.74997C183.82 2.74997 183.91 2.75997 183.91 2.88997C183.9 3.01997 183.81 3.00997 183.72 3.00997C183.62 3.00997 183.51 3.00997 183.41 3.00997C123.75 3.00997 64.09 3.00997 4.43001 2.99997C4.26001 2.99997 3.95001 3.11997 3.95001 2.88997C3.95001 2.60997 4.27001 2.74997 4.44001 2.74997C34.26 2.74997 64.09 2.74997 93.91 2.74997Z" fill="white"/>
<path d="M93.94 3.80998C123.74 3.80998 153.53 3.80998 183.33 3.81998C183.52 3.81998 183.88 3.68998 183.89 3.93998C183.9 4.21998 183.54 4.07998 183.35 4.07998C123.73 4.08998 64.11 4.08998 4.49001 4.07998C4.31001 4.07998 3.95001 4.22998 3.95001 3.94998C3.95001 3.69998 4.31001 3.82998 4.51001 3.82998C34.32 3.80998 64.13 3.80998 93.94 3.80998Z" fill="white"/>
<path d="M4.03002 2.59998C63.96 2.59998 123.89 2.59998 183.82 2.59998C183.82 2.60998 183.82 2.62998 183.82 2.63998C123.89 2.63998 63.96 2.63998 4.02002 2.63998C4.03002 2.62998 4.03002 2.60998 4.03002 2.59998Z" fill="white"/>
</g>
<defs>
<clipPath id="clip0_476_282">
<rect width="188" height="95" fill="white"/>
</clipPath>
</defs>
</svg>
