<svg width="88" height="95" viewBox="0 0 88 95" fill="none" xmlns="http://www.w3.org/2000/svg">
<g clip-path="url(#clip0_476_645)">
<path d="M0.199991 94.82C-0.0100085 94.68 0.0999914 94.47 0.0999914 94.3C0.0999914 83.17 0.0999914 72.03 0.0999914 60.9C0.0999914 40.83 0.0999914 20.76 0.0999914 0.689982C0.0999914 0.0999816 0.0999915 0.0999816 0.689991 0.0999816C1.73999 0.0999816 2.78999 0.109982 3.82999 0.0899816C4.13999 0.0799816 4.23999 0.159982 4.22999 0.479982C4.21999 1.34998 4.22999 1.34998 5.11999 1.34998C31.18 1.34998 57.23 1.34998 83.29 1.34998C83.88 1.34998 83.88 1.34998 83.88 0.749982C83.88 0.619982 83.89 0.479982 83.88 0.349982C83.86 0.159982 83.94 0.0899816 84.13 0.0899816C85.31 0.0999816 86.49 0.0999816 87.68 0.0899816C87.84 0.0899816 87.93 0.129982 87.92 0.319982C87.91 0.439982 87.92 0.559982 87.92 0.679982C87.92 31.9 87.92 63.12 87.92 94.34C87.92 94.93 87.92 94.93 87.32 94.93C58.47 94.93 29.61 94.93 0.759991 94.92C0.579991 94.92 0.339991 95.05 0.189991 94.82C0.429991 94.7 0.689991 94.75 0.939991 94.75C29.5 94.75 58.05 94.75 86.61 94.75C58.06 94.75 29.51 94.75 0.949991 94.75C0.699991 94.75 0.439991 94.68 0.199991 94.82Z" fill="black"/>
<path d="M87.83 47.37C87.83 62.91 87.83 78.44 87.83 93.98C87.83 94.56 87.83 94.56 87.23 94.56C86.27 94.56 85.31 94.55 84.36 94.57C84.04 94.58 83.93 94.47 83.97 94.16C83.99 94.04 83.97 93.92 83.97 93.8C83.97 66.22 83.97 38.63 83.97 11.05C83.97 10.41 83.97 10.41 83.33 10.41C57.14 10.41 30.95 10.41 4.75999 10.41C4.13999 10.41 4.13999 10.41 4.13999 11.02C4.13999 38.65 4.13999 66.28 4.13999 93.9C4.13999 94.54 4.13999 94.54 3.50999 94.54C2.53999 94.54 1.55999 94.53 0.589986 94.55C0.289986 94.56 0.139986 94.49 0.189986 94.16C0.209986 94.06 0.189986 93.95 0.189986 93.85C0.189986 62.85 0.189986 31.86 0.189986 0.859955C0.189986 0.739955 0.199986 0.619955 0.189986 0.499955C0.149986 0.209955 0.289987 0.149955 0.549987 0.159955C1.62999 0.169955 2.70999 0.179955 3.77999 0.159955C4.07999 0.149955 4.14999 0.259955 4.14999 0.539955C4.13999 2.60995 4.14999 4.66995 4.13999 6.73995C4.13999 7.09995 4.23999 7.17995 4.58999 7.17995C30.9 7.16995 57.21 7.16995 83.52 7.17995C83.89 7.17995 83.99 7.08995 83.99 6.70995C83.97 4.65995 83.99 2.60995 83.97 0.559955C83.97 0.249955 84.04 0.149955 84.36 0.159955C85.41 0.179955 86.46 0.169955 87.5 0.159955C87.74 0.159955 87.87 0.209955 87.83 0.479955C87.81 0.599955 87.83 0.719955 87.83 0.839955C87.83 16.36 87.83 31.87 87.83 47.37Z" fill="white"/>
<path d="M44.03 7.10001C30.94 7.10001 17.84 7.10001 4.74998 7.11001C4.31998 7.11001 4.19998 7.01001 4.20998 6.57001C4.23998 5.57001 4.21998 5.57001 5.20998 5.57001C31.23 5.57001 57.26 5.57001 83.28 5.57001C83.87 5.57001 83.87 5.57001 83.87 6.16001C83.87 7.09001 83.87 7.09001 82.95 7.09001C69.98 7.10001 57.01 7.10001 44.03 7.10001Z" fill="white"/>
<path d="M44.05 93.13C57.14 93.13 70.24 93.13 83.33 93.12C83.78 93.12 83.91 93.23 83.89 93.68C83.85 94.57 83.88 94.57 83 94.57C56.95 94.57 30.9 94.57 4.84998 94.57C4.22998 94.57 4.22998 94.57 4.22998 93.95C4.22998 93.13 4.22998 93.13 5.03998 93.13C18.04 93.13 31.05 93.13 44.05 93.13Z" fill="white"/>
<path d="M44.1 76.9599C57.16 76.9599 70.23 76.96 83.29 76.97C83.48 76.97 83.79 76.84 83.85 77.07C83.93 77.38 83.88 77.72 83.86 78.05C83.86 78.13 83.75 78.1299 83.67 78.1299C83.52 78.1299 83.37 78.1299 83.22 78.1299C57.11 78.1299 31 78.1299 4.88999 78.1299C4.67999 78.1299 4.33999 78.25 4.26999 78.05C4.16999 77.75 4.22999 77.4 4.24999 77.07C4.24999 76.96 4.37999 76.97 4.46999 76.97C4.59999 76.97 4.73999 76.97 4.86999 76.97C17.94 76.96 31.02 76.9599 44.1 76.9599Z" fill="white"/>
<path d="M44 74.9C30.94 74.9 17.87 74.9 4.81 74.89C4.62 74.89 4.32 75.03 4.25 74.78C4.17 74.47 4.23 74.13 4.24 73.8C4.24 73.73 4.36 73.73 4.43 73.73C4.56 73.73 4.7 73.73 4.83 73.73C30.97 73.73 57.11 73.73 83.25 73.73C83.45 73.73 83.76 73.61 83.82 73.82C83.91 74.12 83.85 74.47 83.84 74.8C83.84 74.89 83.74 74.89 83.66 74.89C83.53 74.89 83.39 74.89 83.26 74.89C70.19 74.9 57.1 74.9 44 74.9Z" fill="white"/>
<path d="M44.05 70.5C57.13 70.5 70.21 70.5 83.28 70.51C83.47 70.51 83.78 70.38 83.84 70.61C83.92 70.92 83.87 71.26 83.85 71.59C83.85 71.67 83.74 71.67 83.66 71.67C83.51 71.67 83.36 71.67 83.21 71.67C57.1 71.67 30.99 71.67 4.87998 71.67C4.66998 71.67 4.32998 71.79 4.25998 71.59C4.15998 71.29 4.21998 70.94 4.23998 70.61C4.23998 70.49 4.36998 70.51 4.44998 70.51C4.57998 70.51 4.71998 70.51 4.84998 70.51C17.92 70.5 30.99 70.5 44.05 70.5Z" fill="white"/>
<path d="M44.06 68.43C30.98 68.43 17.9 68.43 4.83 68.42C4.64 68.42 4.33 68.55 4.27 68.32C4.19 68.01 4.24 67.67 4.26 67.34C4.26 67.26 4.37 67.26 4.45 67.26C4.6 67.26 4.75 67.26 4.9 67.26C31.01 67.26 57.12 67.26 83.23 67.26C83.44 67.26 83.78 67.14 83.85 67.34C83.95 67.64 83.89 67.99 83.87 68.32C83.87 68.44 83.74 68.42 83.66 68.42C83.53 68.42 83.39 68.42 83.26 68.42C70.18 68.43 57.12 68.43 44.06 68.43Z" fill="white"/>
<path d="M44.06 65.2C30.98 65.2 17.9 65.2 4.83 65.19C4.64 65.19 4.33 65.32 4.27 65.09C4.19 64.78 4.24 64.44 4.26 64.11C4.26 64.03 4.37 64.03 4.44 64.03C4.59 64.03 4.74 64.03 4.89 64.03C31 64.03 57.11 64.03 83.22 64.03C83.44 64.03 83.78 63.91 83.84 64.11C83.94 64.41 83.88 64.76 83.87 65.09C83.87 65.21 83.75 65.19 83.66 65.2C83.53 65.2 83.39 65.2 83.26 65.2C70.19 65.2 57.12 65.2 44.06 65.2Z" fill="white"/>
<path d="M44.05 61.97C30.97 61.97 17.89 61.97 4.81999 61.96C4.62999 61.96 4.31999 62.09 4.25999 61.86C4.17999 61.55 4.22999 61.21 4.24999 60.88C4.24999 60.8 4.35999 60.8 4.43999 60.8C4.58999 60.8 4.73999 60.8 4.88999 60.8C31 60.8 57.11 60.8 83.22 60.8C83.43 60.8 83.77 60.68 83.84 60.88C83.94 61.18 83.88 61.53 83.86 61.86C83.86 61.97 83.73 61.96 83.64 61.96C83.51 61.96 83.37 61.96 83.24 61.96C70.18 61.97 57.12 61.97 44.05 61.97Z" fill="white"/>
<path d="M44.05 58.73C30.97 58.73 17.89 58.73 4.81999 58.72C4.62999 58.72 4.31999 58.85 4.25999 58.62C4.17999 58.31 4.22999 57.97 4.24999 57.64C4.24999 57.56 4.35999 57.56 4.43999 57.56C4.58999 57.56 4.73999 57.56 4.88999 57.56C31 57.56 57.11 57.56 83.22 57.56C83.43 57.56 83.77 57.44 83.84 57.64C83.94 57.94 83.88 58.29 83.86 58.62C83.86 58.73 83.73 58.72 83.64 58.72C83.51 58.72 83.37 58.72 83.24 58.72C70.18 58.73 57.11 58.73 44.05 58.73Z" fill="white"/>
<path d="M44.1 54.33C57.16 54.33 70.23 54.33 83.29 54.34C83.48 54.34 83.79 54.21 83.85 54.44C83.93 54.75 83.88 55.09 83.86 55.42C83.86 55.5 83.74 55.5 83.67 55.5C83.52 55.5 83.37 55.5 83.22 55.5C57.11 55.5 31 55.5 4.88999 55.5C4.67999 55.5 4.33999 55.62 4.26999 55.41C4.16999 55.11 4.22999 54.76 4.24999 54.43C4.25999 54.32 4.37999 54.33 4.46999 54.33C4.59999 54.33 4.73999 54.33 4.86999 54.33C17.94 54.33 31.02 54.33 44.1 54.33Z" fill="white"/>
<path d="M44.06 18.95C57.14 18.95 70.22 18.95 83.29 18.96C83.48 18.96 83.78 18.82 83.84 19.07C83.91 19.38 83.86 19.72 83.84 20.05C83.84 20.12 83.72 20.12 83.65 20.12C83.52 20.12 83.38 20.12 83.25 20.12C57.11 20.12 30.97 20.12 4.82999 20.11C4.63999 20.11 4.31999 20.23 4.25999 20.02C4.16999 19.72 4.22999 19.37 4.23999 19.04C4.23999 18.96 4.34999 18.95 4.41999 18.95C4.54999 18.95 4.68999 18.95 4.81999 18.95C17.91 18.95 30.99 18.95 44.06 18.95Z" fill="white"/>
<path d="M44.06 52.27C30.98 52.27 17.9 52.27 4.83 52.26C4.64 52.26 4.33 52.39 4.27 52.16C4.19 51.85 4.24 51.51 4.26 51.18C4.26 51.1 4.37 51.1 4.45 51.1C4.6 51.1 4.75 51.1 4.9 51.1C31.01 51.1 57.12 51.1 83.23 51.1C83.44 51.1 83.78 50.98 83.85 51.18C83.95 51.48 83.89 51.83 83.88 52.16C83.88 52.28 83.75 52.26 83.67 52.26C83.54 52.26 83.4 52.26 83.27 52.26C70.18 52.27 57.12 52.27 44.06 52.27Z" fill="white"/>
<path d="M44.1 38.35C57.16 38.35 70.23 38.35 83.29 38.36C83.48 38.36 83.78 38.22 83.85 38.47C83.93 38.78 83.87 39.12 83.86 39.45C83.86 39.52 83.74 39.52 83.67 39.52C83.54 39.52 83.4 39.52 83.27 39.52C57.13 39.52 30.99 39.52 4.84998 39.52C4.64998 39.52 4.33998 39.64 4.27998 39.43C4.18998 39.13 4.24998 38.78 4.25998 38.45C4.25998 38.36 4.35998 38.36 4.43998 38.36C4.56998 38.36 4.70998 38.36 4.83998 38.36C17.92 38.35 31.01 38.35 44.1 38.35Z" fill="white"/>
<path d="M44.05 12.49C57.13 12.49 70.21 12.49 83.28 12.5C83.47 12.5 83.78 12.37 83.84 12.6C83.92 12.91 83.87 13.25 83.85 13.58C83.85 13.66 83.74 13.66 83.66 13.66C83.51 13.66 83.36 13.66 83.21 13.66C57.1 13.66 30.99 13.66 4.87998 13.66C4.66998 13.66 4.32998 13.78 4.25998 13.58C4.15998 13.28 4.21998 12.93 4.23998 12.6C4.23998 12.48 4.36998 12.5 4.44998 12.5C4.57998 12.5 4.71998 12.5 4.84998 12.5C17.92 12.49 30.99 12.49 44.05 12.49Z" fill="white"/>
<path d="M44.1 31.88C57.16 31.88 70.23 31.88 83.29 31.89C83.48 31.89 83.79 31.76 83.85 31.99C83.93 32.3 83.88 32.64 83.86 32.97C83.86 33.05 83.74 33.05 83.67 33.05C83.52 33.05 83.37 33.05 83.22 33.05C57.11 33.05 31 33.05 4.88999 33.05C4.67999 33.05 4.33999 33.17 4.26999 32.96C4.16999 32.66 4.22999 32.31 4.24999 31.98C4.25999 31.87 4.37999 31.88 4.46999 31.88C4.59999 31.88 4.73999 31.88 4.86999 31.88C17.94 31.88 31.02 31.88 44.1 31.88Z" fill="white"/>
<path d="M44.04 26.59C30.95 26.59 17.85 26.59 4.75999 26.58C4.58999 26.58 4.29999 26.71 4.25999 26.46C4.19999 26.15 4.23999 25.81 4.25999 25.48C4.25999 25.41 4.37999 25.42 4.45999 25.41C4.57999 25.41 4.69999 25.41 4.81999 25.41C30.98 25.41 57.13 25.41 83.29 25.42C83.48 25.42 83.79 25.29 83.85 25.52C83.93 25.83 83.88 26.17 83.86 26.5C83.86 26.58 83.75 26.58 83.68 26.58C83.55 26.58 83.41 26.58 83.28 26.58C70.19 26.59 57.12 26.59 44.04 26.59Z" fill="white"/>
<path d="M44.05 16.89C30.97 16.89 17.89 16.89 4.81999 16.88C4.62999 16.88 4.31999 17.01 4.25999 16.78C4.17999 16.47 4.22999 16.13 4.24999 15.8C4.24999 15.72 4.35999 15.72 4.43999 15.72C4.58999 15.72 4.73999 15.72 4.88999 15.72C31 15.72 57.11 15.72 83.22 15.72C83.43 15.72 83.77 15.6 83.84 15.8C83.94 16.1 83.88 16.45 83.86 16.78C83.86 16.89 83.73 16.88 83.64 16.88C83.51 16.88 83.37 16.88 83.24 16.88C70.18 16.89 57.11 16.89 44.05 16.89Z" fill="white"/>
<path d="M44.06 45.98C30.98 45.98 17.9 45.98 4.83 45.97C4.64 45.97 4.33 46.1 4.27 45.87C4.19 45.56 4.24 45.22 4.26 44.89C4.26 44.81 4.37 44.81 4.45 44.81C4.6 44.81 4.75 44.81 4.9 44.81C31.01 44.81 57.12 44.81 83.23 44.81C83.44 44.81 83.78 44.69 83.85 44.89C83.95 45.19 83.89 45.54 83.87 45.87C83.87 45.99 83.74 45.97 83.66 45.97C83.53 45.97 83.39 45.97 83.26 45.97C70.18 45.98 57.12 45.98 44.06 45.98Z" fill="white"/>
<path d="M44 42.75C30.94 42.75 17.87 42.75 4.80998 42.74C4.61998 42.74 4.31998 42.88 4.25998 42.63C4.17998 42.32 4.23998 41.98 4.24998 41.65C4.24998 41.58 4.36998 41.58 4.43998 41.58C4.56998 41.58 4.70998 41.58 4.83998 41.58C30.98 41.58 57.12 41.58 83.26 41.58C83.46 41.58 83.77 41.46 83.83 41.67C83.92 41.97 83.86 42.32 83.85 42.65C83.85 42.74 83.75 42.74 83.67 42.74C83.54 42.74 83.4 42.74 83.27 42.74C70.19 42.75 57.09 42.75 44 42.75Z" fill="white"/>
<path d="M44.1 48.0499C57.16 48.0499 70.23 48.05 83.29 48.06C83.48 48.06 83.78 47.9199 83.85 48.1699C83.93 48.4799 83.87 48.82 83.86 49.15C83.86 49.22 83.74 49.2199 83.67 49.2199C83.54 49.2199 83.4 49.2199 83.27 49.2199C57.13 49.2199 30.99 49.2199 4.84998 49.2199C4.64998 49.2199 4.33998 49.3399 4.27998 49.1299C4.18998 48.8299 4.24998 48.48 4.25998 48.15C4.25998 48.06 4.35998 48.06 4.43998 48.06C4.56998 48.06 4.70998 48.06 4.83998 48.06C17.92 48.05 31.01 48.0499 44.1 48.0499Z" fill="white"/>
<path d="M44.05 29.82C30.97 29.82 17.89 29.82 4.81999 29.81C4.62999 29.81 4.31999 29.94 4.25999 29.71C4.17999 29.4 4.22999 29.06 4.24999 28.73C4.24999 28.65 4.35999 28.65 4.43999 28.65C4.58999 28.65 4.73999 28.65 4.88999 28.65C31 28.65 57.11 28.65 83.22 28.65C83.43 28.65 83.77 28.53 83.84 28.73C83.94 29.03 83.88 29.38 83.86 29.71C83.86 29.82 83.73 29.81 83.65 29.81C83.52 29.81 83.38 29.81 83.25 29.81C70.18 29.82 57.12 29.82 44.05 29.82Z" fill="white"/>
<path d="M44.04 36.2799C30.96 36.2799 17.88 36.28 4.80999 36.27C4.61999 36.27 4.31999 36.4099 4.25999 36.1599C4.18999 35.8499 4.23999 35.51 4.25999 35.18C4.25999 35.11 4.37999 35.11 4.44999 35.11C4.56999 35.11 4.68999 35.11 4.80999 35.11C30.97 35.11 57.12 35.1099 83.28 35.1199C83.47 35.1199 83.79 34.9999 83.85 35.2099C83.94 35.5099 83.88 35.8599 83.87 36.1899C83.87 36.2699 83.76 36.2799 83.69 36.2799C83.56 36.2799 83.42 36.2799 83.29 36.2799C70.2 36.2799 57.12 36.2799 44.04 36.2799Z" fill="white"/>
<path d="M44.1 22.19C57.16 22.19 70.23 22.19 83.29 22.2C83.48 22.2 83.78 22.06 83.85 22.31C83.93 22.62 83.87 22.96 83.86 23.29C83.86 23.36 83.74 23.36 83.67 23.36C83.54 23.36 83.4 23.36 83.27 23.36C57.13 23.36 30.99 23.36 4.84998 23.36C4.64998 23.36 4.33998 23.48 4.27998 23.27C4.18998 22.97 4.24998 22.62 4.25998 22.29C4.25998 22.2 4.35998 22.2 4.43998 22.2C4.56998 22.2 4.70998 22.2 4.83998 22.2C17.92 22.19 31.01 22.19 44.1 22.19Z" fill="white"/>
<path d="M44.03 81.36C30.94 81.36 17.84 81.36 4.74998 81.35C4.57998 81.35 4.29998 81.48 4.24998 81.23C4.18998 80.92 4.23998 80.58 4.25998 80.25C4.25998 80.23 4.38998 80.2 4.45998 80.19C4.57998 80.18 4.69998 80.19 4.81998 80.19C30.98 80.19 57.13 80.19 83.29 80.2C83.48 80.2 83.79 80.07 83.85 80.3C83.93 80.61 83.88 80.95 83.86 81.28C83.86 81.36 83.75 81.36 83.67 81.36C83.54 81.36 83.4 81.36 83.27 81.36C70.19 81.36 57.11 81.36 44.03 81.36Z" fill="white"/>
<path d="M44 84.6C30.94 84.6 17.87 84.6 4.81 84.59C4.62 84.59 4.32 84.73 4.25 84.48C4.17 84.17 4.23 83.83 4.24 83.5C4.24 83.43 4.36 83.43 4.43 83.43C4.56 83.43 4.7 83.43 4.83 83.43C30.97 83.43 57.11 83.43 83.25 83.43C83.45 83.43 83.76 83.31 83.82 83.52C83.91 83.82 83.85 84.17 83.84 84.5C83.84 84.59 83.74 84.59 83.66 84.59C83.53 84.59 83.39 84.59 83.26 84.59C70.19 84.6 57.1 84.6 44 84.6Z" fill="white"/>
<path d="M44.02 87.83C30.93 87.83 17.83 87.83 4.73999 87.83C4.56999 87.83 4.29999 87.93 4.25999 87.74C4.18999 87.41 4.18999 87.06 4.26999 86.72C4.27999 86.69 4.39999 86.67 4.46999 86.67C4.59999 86.66 4.73999 86.67 4.86999 86.67C30.98 86.67 57.09 86.67 83.2 86.67C83.42 86.67 83.76 86.55 83.82 86.74C83.92 87.03 83.86 87.39 83.85 87.72C83.85 87.84 83.73 87.83 83.64 87.83C83.51 87.83 83.37 87.83 83.24 87.83C70.18 87.83 57.1 87.83 44.02 87.83Z" fill="white"/>
<path d="M44.1 89.89C57.16 89.89 70.23 89.89 83.29 89.9C83.48 89.9 83.78 89.77 83.85 90.01C83.93 90.32 83.87 90.66 83.86 90.99C83.86 91.06 83.74 91.06 83.67 91.06C83.54 91.06 83.4 91.06 83.27 91.06C57.13 91.06 30.99 91.06 4.84998 91.06C4.64998 91.06 4.33998 91.18 4.27998 90.97C4.18998 90.67 4.24998 90.32 4.25998 89.99C4.25998 89.9 4.35998 89.9 4.43998 89.9C4.56998 89.9 4.70998 89.9 4.83998 89.9C17.92 89.89 31.01 89.89 44.1 89.89Z" fill="white"/>
<path d="M44.05 20.2099C57.16 20.2099 70.27 20.21 83.38 20.2C83.75 20.2 83.91 20.25 83.9 20.68C83.89 21.05 83.77 21.11 83.43 21.11C57.18 21.1 30.93 21.1 4.67999 21.11C4.28999 21.11 4.22999 20.9899 4.20999 20.6299C4.18999 20.1999 4.39999 20.2 4.71999 20.2C17.83 20.21 30.94 20.2099 44.05 20.2099Z" fill="white"/>
<path d="M44.07 22.1C30.98 22.1 17.88 22.1 4.78999 22.1C4.24999 22.1 4.07999 21.86 4.22999 21.34C4.25999 21.23 4.31999 21.2 4.41999 21.2C4.53999 21.2 4.65999 21.2 4.77999 21.2C30.97 21.2 57.16 21.2 83.34 21.2C83.63 21.2 83.92 21.12 83.9 21.62C83.88 22.01 83.79 22.11 83.4 22.11C70.29 22.09 57.18 22.1 44.07 22.1Z" fill="white"/>
<path d="M44.05 23.44C57.14 23.44 70.24 23.44 83.33 23.43C83.8 23.43 83.91 23.57 83.88 24C83.86 24.29 83.77 24.37 83.51 24.34C83.45 24.33 83.39 24.34 83.33 24.34C57.14 24.34 30.95 24.34 4.75998 24.34C4.45998 24.34 4.18998 24.4 4.19998 23.91C4.20998 23.49 4.33998 23.43 4.70998 23.43C17.83 23.44 30.94 23.44 44.05 23.44Z" fill="white"/>
<path d="M44.05 24.43C57.14 24.43 70.24 24.43 83.33 24.43C83.84 24.43 84.04 24.72 83.87 25.2C83.83 25.32 83.76 25.32 83.67 25.32C83.55 25.32 83.43 25.32 83.31 25.32C57.14 25.32 30.96 25.32 4.79 25.32C4.16 25.32 4.16 25.32 4.22 24.66C4.23 24.5 4.27 24.41 4.45 24.42C4.58 24.43 4.72 24.42 4.85 24.42C17.92 24.43 30.99 24.43 44.05 24.43Z" fill="white"/>
<path d="M44.04 27.57C30.95 27.57 17.85 27.57 4.75998 27.57C4.44998 27.57 4.18998 27.61 4.21998 27.13C4.23998 26.75 4.33998 26.67 4.69998 26.67C30.93 26.68 57.17 26.68 83.4 26.68C83.82 26.68 84.07 27.1 83.87 27.48C83.82 27.58 83.73 27.57 83.64 27.58C83.51 27.58 83.37 27.58 83.24 27.58C70.17 27.57 57.1 27.57 44.04 27.57Z" fill="white"/>
<path d="M44 28.56C30.92 28.56 17.84 28.56 4.75999 28.56C4.25999 28.56 4.04998 28.25 4.21998 27.78C4.25998 27.66 4.33998 27.67 4.42998 27.66C4.54998 27.66 4.66998 27.66 4.78998 27.66C30.96 27.66 57.14 27.66 83.31 27.66C83.85 27.66 84.02 27.9 83.87 28.42C83.84 28.53 83.78 28.56 83.68 28.56C83.55 28.56 83.41 28.56 83.28 28.56C70.19 28.56 57.1 28.56 44 28.56Z" fill="white"/>
<path d="M44.05 29.91C57.14 29.91 70.24 29.91 83.33 29.9C83.8 29.9 83.91 30.04 83.88 30.47C83.86 30.76 83.77 30.84 83.51 30.81C83.41 30.8 83.3 30.81 83.2 30.81C57.06 30.81 30.91 30.81 4.76999 30.81C4.46999 30.81 4.19999 30.87 4.20999 30.38C4.21999 29.96 4.34999 29.9 4.71999 29.9C17.83 29.91 30.94 29.91 44.05 29.91Z" fill="white"/>
<path d="M44.01 31.79C30.93 31.79 17.85 31.79 4.76999 31.79C4.26999 31.79 4.05999 31.49 4.22999 31.01C4.26999 30.89 4.34999 30.89 4.43999 30.89C4.55999 30.89 4.67999 30.89 4.79999 30.89C30.97 30.89 57.15 30.89 83.32 30.89C83.86 30.89 84.03 31.12 83.88 31.65C83.85 31.76 83.79 31.79 83.69 31.79C83.56 31.79 83.42 31.79 83.29 31.79C70.19 31.79 57.1 31.79 44.01 31.79Z" fill="white"/>
<path d="M44.1 34.13C57.18 34.13 70.26 34.13 83.34 34.13C83.84 34.13 84.05 34.44 83.88 34.91C83.84 35.03 83.76 35.02 83.67 35.03C83.55 35.03 83.43 35.03 83.31 35.03C57.14 35.03 30.96 35.03 4.78999 35.03C4.24999 35.03 4.07999 34.79 4.22999 34.27C4.25999 34.16 4.31999 34.13 4.41999 34.13C4.54999 34.13 4.68999 34.13 4.81999 34.13C17.91 34.13 31.01 34.13 44.1 34.13Z" fill="white"/>
<path d="M44.05 37.27C30.94 37.27 17.83 37.27 4.72 37.28C4.35 37.28 4.19001 37.23 4.21001 36.8C4.22001 36.43 4.34 36.37 4.68 36.37C30.93 36.38 57.18 36.38 83.43 36.37C83.82 36.37 83.88 36.49 83.9 36.85C83.92 37.28 83.71 37.28 83.39 37.28C70.27 37.27 57.16 37.27 44.05 37.27Z" fill="white"/>
<path d="M44.07 38.26C30.98 38.26 17.88 38.26 4.79 38.26C4.26 38.26 4.08 38 4.24 37.5C4.28 37.39 4.34 37.37 4.43 37.37C4.55 37.37 4.67 37.37 4.79 37.37C30.98 37.37 57.17 37.37 83.35 37.37C83.84 37.37 84.06 37.7 83.88 38.16C83.83 38.28 83.75 38.27 83.67 38.27C83.54 38.27 83.4 38.27 83.27 38.27C70.19 38.26 57.13 38.26 44.07 38.26Z" fill="white"/>
<path d="M44.05 39.61C57.16 39.61 70.27 39.61 83.38 39.6C83.75 39.6 83.91 39.65 83.9 40.08C83.89 40.45 83.77 40.51 83.43 40.51C57.18 40.5 30.93 40.5 4.67998 40.51C4.28998 40.51 4.22998 40.39 4.20998 40.03C4.19998 39.61 4.39998 39.6 4.71998 39.6C17.83 39.61 30.94 39.61 44.05 39.61Z" fill="white"/>
<path d="M44.05 41.49C30.96 41.49 17.86 41.49 4.76999 41.49C4.26999 41.49 4.05999 41.18 4.23999 40.71C4.27999 40.59 4.35999 40.6 4.44999 40.59C4.56999 40.59 4.68999 40.59 4.80999 40.59C30.98 40.59 57.16 40.59 83.33 40.59C83.87 40.59 84.04 40.83 83.89 41.35C83.86 41.46 83.8 41.49 83.7 41.49C83.57 41.49 83.43 41.49 83.3 41.49C70.21 41.49 57.13 41.49 44.05 41.49Z" fill="white"/>
<path d="M44.1 42.84C57.18 42.84 70.26 42.84 83.34 42.83C83.76 42.83 83.92 42.9 83.89 43.36C83.87 43.69 83.76 43.75 83.47 43.74C82.62 43.72 81.76 43.73 80.91 43.73C55.53 43.73 30.15 43.73 4.77 43.73C4.46 43.73 4.2 43.79 4.21 43.3C4.22 42.88 4.36 42.82 4.73 42.82C17.85 42.84 30.98 42.84 44.1 42.84Z" fill="white"/>
<path d="M44.06 44.73C30.97 44.73 17.87 44.73 4.77999 44.73C4.26999 44.73 4.06999 44.45 4.23999 43.96C4.27999 43.84 4.34999 43.84 4.43999 43.84C4.55999 43.84 4.67999 43.84 4.79999 43.84C30.97 43.84 57.15 43.84 83.32 43.84C83.95 43.84 83.95 43.84 83.89 44.5C83.88 44.66 83.84 44.75 83.66 44.74C83.53 44.73 83.39 44.74 83.26 44.74C70.19 44.73 57.12 44.73 44.06 44.73Z" fill="white"/>
<path d="M44.1 33.14C57.18 33.14 70.26 33.14 83.34 33.13C83.76 33.13 83.92 33.2 83.89 33.66C83.87 33.99 83.76 34.05 83.47 34.04C82.62 34.02 81.76 34.03 80.91 34.03C55.53 34.03 30.15 34.03 4.77 34.03C4.46 34.03 4.2 34.09 4.21 33.6C4.22 33.18 4.36 33.12 4.73 33.12C17.85 33.14 30.98 33.14 44.1 33.14Z" fill="white"/>
<path d="M44.06 46.97C30.95 46.97 17.84 46.97 4.73 46.98C4.36 46.98 4.2 46.93 4.21 46.5C4.22 46.13 4.34 46.07 4.68 46.07C30.93 46.08 57.18 46.08 83.43 46.07C83.82 46.07 83.88 46.19 83.9 46.55C83.92 46.98 83.71 46.98 83.39 46.98C70.27 46.97 57.16 46.97 44.06 46.97Z" fill="white"/>
<path d="M44.03 54.24C30.94 54.24 17.84 54.24 4.74998 54.24C4.28998 54.24 4.03998 53.86 4.23998 53.44C4.27998 53.35 4.33998 53.34 4.41998 53.34C4.53998 53.34 4.65998 53.34 4.77998 53.34C30.97 53.34 57.16 53.34 83.34 53.34C83.63 53.34 83.93 53.25 83.9 53.76C83.88 54.15 83.8 54.25 83.4 54.25C70.28 54.24 57.15 54.24 44.03 54.24Z" fill="white"/>
<path d="M44.1 56.58C57.18 56.58 70.26 56.58 83.34 56.58C83.84 56.58 84.05 56.88 83.88 57.36C83.84 57.48 83.76 57.48 83.67 57.48C83.55 57.48 83.43 57.48 83.31 57.48C57.14 57.48 30.96 57.48 4.78999 57.48C4.24999 57.48 4.07999 57.25 4.22999 56.72C4.25999 56.61 4.31999 56.58 4.41999 56.58C4.54999 56.58 4.68999 56.58 4.81999 56.58C17.91 56.58 31.01 56.58 44.1 56.58Z" fill="white"/>
<path d="M44.1 58.82C57.18 58.82 70.26 58.82 83.34 58.81C83.82 58.81 83.92 58.95 83.89 59.38C83.87 59.67 83.77 59.74 83.52 59.72C83.25 59.7 82.98 59.72 82.71 59.72C56.73 59.72 30.75 59.72 4.76999 59.72C4.46999 59.72 4.19999 59.78 4.20999 59.29C4.21999 58.87 4.35999 58.81 4.72999 58.81C17.85 58.83 30.97 58.82 44.1 58.82Z" fill="white"/>
<path d="M44.07 60.71C30.98 60.71 17.88 60.71 4.78998 60.71C4.25998 60.71 4.07998 60.46 4.22998 59.95C4.25998 59.84 4.32998 59.82 4.41998 59.82C4.53998 59.82 4.65998 59.82 4.77998 59.82C30.97 59.82 57.16 59.82 83.34 59.82C83.83 59.82 84.05 60.14 83.87 60.6C83.83 60.72 83.75 60.71 83.66 60.71C83.53 60.71 83.39 60.71 83.26 60.71C70.2 60.71 57.13 60.71 44.07 60.71Z" fill="white"/>
<path d="M44.1 62.06C57.18 62.06 70.26 62.06 83.34 62.05C83.82 62.05 83.92 62.19 83.89 62.62C83.87 62.91 83.77 62.98 83.52 62.96C83.28 62.94 83.04 62.96 82.8 62.96C56.79 62.96 30.78 62.96 4.76999 62.96C4.46999 62.96 4.19999 63.02 4.20999 62.53C4.21999 62.11 4.35999 62.05 4.72999 62.05C17.85 62.06 30.97 62.06 44.1 62.06Z" fill="white"/>
<path d="M44.01 63.94C30.93 63.94 17.85 63.94 4.76999 63.94C4.26999 63.94 4.05999 63.64 4.22999 63.16C4.26999 63.04 4.34999 63.04 4.43999 63.04C4.55999 63.04 4.67999 63.04 4.79999 63.04C30.97 63.04 57.15 63.04 83.32 63.04C83.86 63.04 84.03 63.27 83.88 63.8C83.85 63.91 83.79 63.94 83.69 63.94C83.56 63.94 83.42 63.94 83.29 63.94C70.19 63.94 57.1 63.94 44.01 63.94Z" fill="white"/>
<path d="M44.01 66.19C30.93 66.19 17.85 66.19 4.76998 66.2C4.28998 66.2 4.18998 66.06 4.21998 65.63C4.23998 65.34 4.33998 65.28 4.58998 65.29C4.89998 65.31 5.21998 65.29 5.52998 65.29C31.47 65.29 57.4 65.29 83.34 65.29C83.64 65.29 83.91 65.23 83.9 65.72C83.89 66.14 83.75 66.2 83.38 66.2C70.26 66.19 57.13 66.19 44.01 66.19Z" fill="white"/>
<path d="M44.1 66.28C57.18 66.28 70.26 66.28 83.34 66.28C83.84 66.28 84.05 66.59 83.88 67.06C83.84 67.18 83.76 67.17 83.67 67.18C83.55 67.18 83.43 67.18 83.31 67.18C57.14 67.18 30.96 67.18 4.78999 67.18C4.24999 67.18 4.07999 66.94 4.22999 66.42C4.25999 66.31 4.31999 66.28 4.41999 66.28C4.54999 66.28 4.68999 66.28 4.81999 66.28C17.91 66.28 31.01 66.28 44.1 66.28Z" fill="white"/>
<path d="M44.06 69.42C30.95 69.42 17.84 69.42 4.73 69.43C4.31 69.43 4.22 69.31 4.21 68.91C4.2 68.42 4.49 68.52 4.76 68.52C29.44 68.52 54.12 68.52 78.79 68.52C80.32 68.52 81.84 68.53 83.37 68.51C83.73 68.51 83.9 68.55 83.89 68.98C83.88 69.4 83.71 69.42 83.38 69.42C72.05 69.41 60.72 69.41 49.39 69.41C47.62 69.42 45.84 69.42 44.06 69.42Z" fill="white"/>
<path d="M44 70.41C30.92 70.41 17.84 70.41 4.75999 70.41C4.25999 70.41 4.04998 70.1 4.21998 69.63C4.25998 69.51 4.33998 69.51 4.42998 69.51C4.54998 69.51 4.66998 69.51 4.78998 69.51C30.96 69.51 57.14 69.51 83.31 69.51C83.85 69.51 84.02 69.75 83.87 70.27C83.84 70.38 83.78 70.41 83.68 70.41C83.55 70.41 83.41 70.41 83.28 70.41C70.19 70.41 57.1 70.41 44 70.41Z" fill="white"/>
<path d="M44.02 72.65C30.93 72.65 17.83 72.65 4.73998 72.66C4.32998 72.66 4.22998 72.55 4.21998 72.14C4.20998 71.65 4.49998 71.75 4.76998 71.75C27.89 71.75 51.01 71.75 74.14 71.75C77.21 71.75 80.28 71.75 83.34 71.75C83.68 71.75 83.91 71.73 83.91 72.22C83.91 72.71 83.66 72.66 83.36 72.66C70.24 72.65 57.13 72.65 44.02 72.65Z" fill="white"/>
<path d="M44.06 73.64C30.97 73.64 17.87 73.64 4.77999 73.64C4.26999 73.64 4.06999 73.36 4.23999 72.87C4.27999 72.75 4.34999 72.75 4.43999 72.75C4.55999 72.75 4.67999 72.75 4.79999 72.75C30.97 72.75 57.15 72.75 83.32 72.75C83.95 72.75 83.95 72.75 83.89 73.41C83.88 73.57 83.84 73.66 83.66 73.65C83.53 73.64 83.39 73.65 83.26 73.65C70.18 73.64 57.12 73.64 44.06 73.64Z" fill="white"/>
<path d="M44.1 74.99C57.18 74.99 70.26 74.99 83.34 74.98C83.75 74.98 83.92 75.05 83.89 75.51C83.87 75.84 83.76 75.91 83.47 75.9C82.95 75.88 82.42 75.89 81.9 75.89C56.19 75.89 30.48 75.89 4.76999 75.89C4.46999 75.89 4.19999 75.95 4.20999 75.46C4.21999 75.04 4.35999 74.98 4.72999 74.98C17.85 74.99 30.97 74.99 44.1 74.99Z" fill="white"/>
<path d="M44.05 75.98C57.14 75.98 70.24 75.98 83.33 75.98C83.84 75.98 84.04 76.26 83.88 76.75C83.84 76.87 83.77 76.87 83.68 76.88C83.56 76.88 83.44 76.88 83.32 76.88C57.15 76.88 30.97 76.88 4.79998 76.88C4.16998 76.88 4.16998 76.88 4.22998 76.22C4.23998 76.06 4.27998 75.97 4.45998 75.98C4.58998 75.99 4.72998 75.98 4.85998 75.98C17.92 75.98 30.98 75.98 44.05 75.98Z" fill="white"/>
<path d="M44.05 79.12C30.96 79.12 17.86 79.12 4.76999 79.13C4.29999 79.13 4.17999 78.99 4.21999 78.56C4.23999 78.32 4.27999 78.19 4.54999 78.22C4.60999 78.23 4.66999 78.22 4.72999 78.22C30.95 78.22 57.17 78.22 83.39 78.22C83.84 78.22 84.06 78.59 83.88 79.01C83.83 79.12 83.75 79.12 83.66 79.12C83.51 79.12 83.36 79.12 83.21 79.12C70.15 79.12 57.1 79.12 44.05 79.12Z" fill="white"/>
<path d="M44.06 80.11C30.97 80.11 17.87 80.11 4.77999 80.11C4.26999 80.11 4.06999 79.83 4.23999 79.34C4.27999 79.22 4.34999 79.22 4.43999 79.22C4.55999 79.22 4.67999 79.22 4.79999 79.22C30.97 79.22 57.15 79.22 83.32 79.22C83.95 79.22 83.95 79.22 83.89 79.88C83.88 80.04 83.84 80.13 83.66 80.12C83.53 80.11 83.39 80.12 83.26 80.12C70.19 80.11 57.12 80.11 44.06 80.11Z" fill="white"/>
<path d="M44.1 11.5C57.18 11.5 70.26 11.5 83.34 11.5C83.84 11.5 84.05 11.81 83.88 12.28C83.84 12.4 83.76 12.39 83.67 12.4C83.55 12.4 83.43 12.4 83.31 12.4C57.14 12.4 30.96 12.4 4.78999 12.4C4.24999 12.4 4.07999 12.16 4.22999 11.64C4.25999 11.53 4.31999 11.5 4.41999 11.5C4.54999 11.5 4.68999 11.5 4.81999 11.5C17.91 11.5 31.01 11.5 44.1 11.5Z" fill="white"/>
<path d="M44.03 82.35C30.94 82.35 17.84 82.35 4.75 82.35C4.43 82.35 4.19 82.37 4.21 81.9C4.23 81.52 4.34 81.44 4.7 81.44C30.93 81.45 57.17 81.45 83.4 81.45C83.82 81.45 84.06 81.89 83.86 82.25C83.82 82.33 83.75 82.34 83.67 82.34C83.52 82.34 83.37 82.34 83.22 82.34C70.16 82.35 57.1 82.35 44.03 82.35Z" fill="white"/>
<path d="M44 83.34C30.92 83.34 17.84 83.34 4.75999 83.34C4.25999 83.34 4.04998 83.03 4.21998 82.56C4.25998 82.44 4.33998 82.45 4.42998 82.44C4.54998 82.44 4.66998 82.44 4.78998 82.44C30.96 82.44 57.14 82.44 83.31 82.44C83.85 82.44 84.02 82.68 83.87 83.2C83.84 83.31 83.78 83.34 83.68 83.34C83.55 83.34 83.41 83.34 83.28 83.34C70.19 83.34 57.1 83.34 44 83.34Z" fill="white"/>
<path d="M44.05 14.64C30.96 14.64 17.86 14.64 4.77 14.65C4.41 14.65 4.2 14.64 4.22 14.17C4.24 13.79 4.37 13.74 4.7 13.74C30.95 13.75 57.2 13.75 83.45 13.74C83.79 13.74 83.91 13.81 83.91 14.18C83.91 14.55 83.82 14.65 83.44 14.65C70.3 14.64 57.17 14.64 44.05 14.64Z" fill="white"/>
<path d="M44.01 85.58C30.93 85.58 17.85 85.58 4.77 85.59C4.36 85.59 4.19 85.52 4.22 85.06C4.24 84.73 4.35 84.67 4.64 84.68C5.31 84.7 5.99 84.69 6.66 84.69C32.22 84.69 57.78 84.69 83.34 84.69C83.64 84.69 83.91 84.63 83.9 85.12C83.89 85.54 83.75 85.6 83.38 85.6C70.26 85.58 57.13 85.58 44.01 85.58Z" fill="white"/>
<path d="M44.01 86.57C30.93 86.57 17.85 86.57 4.76998 86.57C4.24998 86.57 4.05998 86.29 4.21998 85.8C4.25998 85.69 4.32999 85.68 4.41999 85.67C4.53999 85.67 4.65999 85.67 4.77999 85.67C30.95 85.67 57.13 85.67 83.3 85.67C83.93 85.67 83.93 85.67 83.87 86.33C83.86 86.49 83.82 86.58 83.64 86.57C83.51 86.56 83.37 86.57 83.24 86.57C70.17 86.57 57.09 86.57 44.01 86.57Z" fill="white"/>
<path d="M44.1 14.73C57.18 14.73 70.26 14.73 83.34 14.73C83.84 14.73 84.05 15.03 83.88 15.51C83.84 15.63 83.76 15.63 83.67 15.63C83.55 15.63 83.43 15.63 83.31 15.63C57.14 15.63 30.96 15.63 4.78999 15.63C4.24999 15.63 4.07999 15.4 4.22999 14.87C4.25999 14.76 4.31999 14.73 4.41999 14.73C4.54999 14.73 4.68999 14.73 4.81999 14.73C17.91 14.73 31.01 14.73 44.1 14.73Z" fill="white"/>
<path d="M44.02 88.82C30.93 88.82 17.83 88.82 4.74001 88.83C4.39001 88.83 4.22001 88.8 4.21001 88.36C4.20001 87.88 4.45001 87.92 4.76001 87.92C25.83 87.92 46.9 87.92 67.97 87.92C73.1 87.92 78.24 87.92 83.37 87.92C83.84 87.92 84.04 88.25 83.87 88.7C83.83 88.81 83.75 88.82 83.66 88.82C83.51 88.82 83.36 88.82 83.21 88.82C70.15 88.82 57.08 88.82 44.02 88.82Z" fill="white"/>
<path d="M44.1 88.91C57.18 88.91 70.26 88.91 83.34 88.91C83.84 88.91 84.05 89.21 83.88 89.69C83.84 89.81 83.76 89.81 83.67 89.81C83.55 89.81 83.43 89.81 83.31 89.81C57.14 89.81 30.96 89.81 4.78999 89.81C4.24999 89.81 4.07999 89.58 4.22999 89.05C4.25999 88.94 4.31999 88.91 4.41999 88.91C4.54999 88.91 4.68999 88.91 4.81999 88.91C17.91 88.91 31.01 88.91 44.1 88.91Z" fill="white"/>
<path d="M44.05 17.88C30.96 17.88 17.86 17.88 4.76998 17.89C4.34998 17.89 4.18998 17.81 4.21998 17.36C4.23998 17.03 4.34998 16.98 4.63998 16.98C6.20998 16.99 7.77998 16.99 9.34998 16.99C34.01 16.99 58.68 16.99 83.34 16.99C83.65 16.99 83.9 16.94 83.9 17.42C83.89 17.85 83.74 17.89 83.38 17.89C70.27 17.87 57.16 17.88 44.05 17.88Z" fill="white"/>
<path d="M44.04 92.05C30.95 92.05 17.85 92.05 4.75999 92.05C4.44999 92.05 4.17999 92.09 4.20999 91.61C4.22999 91.24 4.31999 91.14 4.68999 91.14C30.92 91.15 57.16 91.15 83.39 91.15C83.82 91.15 84.06 91.56 83.86 91.95C83.81 92.05 83.72 92.05 83.63 92.05C83.5 92.05 83.36 92.05 83.23 92.05C70.17 92.05 57.11 92.05 44.04 92.05Z" fill="white"/>
<path d="M44.03 18.86C30.94 18.86 17.84 18.86 4.74998 18.86C4.28998 18.86 4.03998 18.48 4.23998 18.06C4.27998 17.97 4.33998 17.96 4.41998 17.96C4.53998 17.96 4.65998 17.96 4.77998 17.96C30.97 17.96 57.16 17.96 83.34 17.96C83.68 17.96 83.92 17.93 83.9 18.43C83.88 18.83 83.74 18.87 83.4 18.87C70.28 18.86 57.15 18.86 44.03 18.86Z" fill="white"/>
<path d="M44.05 11.41C30.94 11.41 17.83 11.41 4.71999 11.41C4.48999 11.41 4.20999 11.52 4.20999 11.07C4.20999 10.71 4.28999 10.59 4.67999 10.59C30.93 10.6 57.18 10.6 83.43 10.6C83.71 10.6 83.9 10.6 83.89 10.99C83.89 11.37 83.75 11.42 83.42 11.42C70.3 11.41 57.18 11.41 44.05 11.41Z" fill="white"/>
<path d="M44.05 53.2599C30.94 53.2599 17.83 53.2599 4.72 53.2599C4.46 53.2599 4.19 53.33 4.21 52.88C4.22 52.51 4.34 52.45 4.68 52.45C30.93 52.46 57.18 52.4599 83.43 52.4599C83.84 52.4599 84.03 52.77 83.87 53.15C83.82 53.26 83.74 53.2599 83.65 53.2599C83.52 53.2599 83.38 53.2599 83.25 53.2599C70.18 53.2599 57.12 53.2599 44.05 53.2599Z" fill="white"/>
<path d="M44.05 47.87C30.94 47.87 17.83 47.87 4.72 47.88C4.31 47.88 4.18 47.77 4.21 47.37C4.23 47.09 4.33 47.06 4.56 47.06C5.5 47.07 6.45 47.06 7.39 47.06C32.71 47.06 58.03 47.06 83.35 47.06C83.58 47.06 83.88 46.92 83.89 47.4C83.9 47.84 83.73 47.87 83.37 47.87C70.27 47.87 57.16 47.87 44.05 47.87Z" fill="white"/>
<path d="M44.05 55.68C57.16 55.68 70.27 55.68 83.38 55.68C83.64 55.68 83.91 55.61 83.89 56.06C83.88 56.43 83.76 56.49 83.42 56.49C57.17 56.48 30.92 56.48 4.66998 56.48C4.25998 56.48 4.06998 56.17 4.22998 55.79C4.27998 55.68 4.35998 55.68 4.44998 55.68C4.59998 55.68 4.74998 55.68 4.89998 55.68C17.95 55.68 31 55.68 44.05 55.68Z" fill="white"/>
<path d="M44.1 49.31C57.19 49.31 70.29 49.31 83.38 49.31C83.65 49.31 83.91 49.24 83.89 49.69C83.88 50.06 83.75 50.12 83.42 50.12C57.17 50.11 30.92 50.11 4.66998 50.12C4.33998 50.12 4.20998 50.06 4.19998 49.69C4.19998 49.24 4.45998 49.3 4.71998 49.3C17.85 49.31 30.97 49.31 44.1 49.31Z" fill="white"/>
<path d="M44.05 50.2C57.16 50.2 70.27 50.2 83.38 50.19C83.85 50.19 83.93 50.35 83.89 50.75C83.87 50.93 83.84 51.03 83.64 51.01C83.55 51 83.46 51.01 83.37 51.01C57.17 51.01 30.96 51.01 4.75999 51.01C4.52999 51.01 4.22999 51.16 4.21999 50.67C4.19999 50.24 4.35999 50.2 4.71999 50.2C17.83 50.2 30.94 50.2 44.05 50.2Z" fill="white"/>
<path d="M44.03 92.95C30.92 92.95 17.81 92.95 4.69998 92.96C4.28998 92.96 4.18998 92.85 4.20998 92.47C4.22998 92.22 4.27998 92.11 4.53998 92.14C4.60998 92.15 4.68998 92.14 4.75998 92.14C30.95 92.14 57.14 92.14 83.32 92.15C83.54 92.15 83.87 91.97 83.88 92.47C83.88 92.86 83.79 92.96 83.39 92.96C70.28 92.95 57.15 92.95 44.03 92.95Z" fill="white"/>
<path d="M44.03 5.47998C30.92 5.47998 17.81 5.47998 4.69999 5.47998C4.45999 5.47998 4.20999 5.56998 4.20999 5.12998C4.19999 4.66998 4.46999 4.76998 4.72999 4.76998C17.67 4.76998 30.62 4.76998 43.56 4.76998C56.83 4.76998 70.11 4.76998 83.38 4.77998C83.57 4.77998 83.87 4.60998 83.89 5.04998C83.91 5.45998 83.74 5.49998 83.4 5.49998C70.28 5.47998 57.15 5.47998 44.03 5.47998Z" fill="white"/>
<path d="M44.1 3.15001C57.19 3.15001 70.29 3.15001 83.38 3.15001C83.6 3.15001 83.9 3.02001 83.89 3.48001C83.88 3.79001 83.8 3.88001 83.49 3.88001C80.32 3.87001 77.14 3.87001 73.97 3.87001C50.89 3.87001 27.82 3.87001 4.74 3.86001C4.54 3.86001 4.23 4.03001 4.21 3.56001C4.19 3.11001 4.43 3.15001 4.73 3.15001C17.85 3.15001 30.98 3.15001 44.1 3.15001Z" fill="white"/>
<path d="M44.05 2.51997C30.94 2.51997 17.83 2.51997 4.71999 2.51997C4.49999 2.51997 4.16999 2.64997 4.21999 2.18997C4.23999 2.03997 4.28999 1.97997 4.43999 1.97997C4.55999 1.98997 4.67999 1.97997 4.79999 1.97997C30.97 1.97997 57.15 1.97997 83.32 1.97997C83.44 1.97997 83.56 1.98997 83.68 1.97997C83.88 1.96997 83.88 2.09997 83.88 2.23997C83.88 2.36997 83.9 2.51997 83.69 2.50997C83.56 2.50997 83.42 2.50997 83.29 2.50997C70.21 2.51997 57.13 2.51997 44.05 2.51997Z" fill="white"/>
<path d="M44.05 4.22997C57.13 4.22997 70.21 4.22997 83.29 4.22997C83.44 4.22997 83.59 4.22997 83.74 4.22997C83.89 4.22997 83.88 4.34997 83.89 4.44997C83.89 4.55997 83.89 4.66997 83.74 4.66997C83.64 4.66997 83.53 4.66997 83.43 4.66997C57.2 4.66997 30.96 4.66997 4.73 4.66997C4.63 4.66997 4.52 4.66997 4.42 4.66997C4.24 4.66997 4.26 4.53997 4.25 4.41997C4.25 4.28997 4.29 4.21997 4.43 4.21997C4.56 4.21997 4.7 4.21997 4.83 4.21997C17.89 4.22997 30.97 4.22997 44.05 4.22997Z" fill="white"/>
<path d="M44.06 1.71001C30.97 1.71001 17.87 1.71001 4.77999 1.70001C4.59999 1.70001 4.25999 1.83001 4.26999 1.57001C4.27999 1.32001 4.60999 1.45001 4.78999 1.45001C30.96 1.44001 57.14 1.44001 83.31 1.45001C83.49 1.45001 83.84 1.32001 83.84 1.56001C83.84 1.86001 83.48 1.70001 83.3 1.70001C70.22 1.71001 57.14 1.71001 44.06 1.71001Z" fill="white"/>
<path d="M0.200001 94.82C0.190001 94.74 0.190001 94.66 0.290001 94.66C0.440001 94.65 0.590001 94.65 0.740001 94.65C29.58 94.65 58.42 94.65 87.26 94.65C87.44 94.65 87.64 94.61 87.82 94.7C87.78 94.88 87.65 94.82 87.56 94.82C87.43 94.83 87.29 94.82 87.16 94.82C58.37 94.82 29.57 94.82 0.780001 94.82C0.590001 94.82 0.390001 94.81 0.200001 94.8C0.190001 94.81 0.200001 94.82 0.200001 94.82Z" fill="white"/>
<path d="M83.85 3.02C57.32 3.02 30.79 3.02 4.25998 3.02C4.25998 2.99 4.25998 2.97 4.25998 2.94C30.79 2.94 57.32 2.94 83.85 2.94C83.85 2.96 83.85 2.99 83.85 3.02Z" fill="white"/>
<path d="M83.85 2.74997C57.32 2.74997 30.78 2.74997 4.25 2.74997C4.25 2.71997 4.25 2.68997 4.25 2.65997C30.78 2.65997 57.32 2.65997 83.85 2.65997C83.85 2.68997 83.85 2.71997 83.85 2.74997Z" fill="white"/>
<path d="M83.86 4.09C57.32 4.09 30.79 4.09 4.25 4.09C4.25 4.06 4.25 4.03 4.25 4C30.79 4 57.32 4 83.86 4C83.86 4.04 83.86 4.07 83.86 4.09Z" fill="white"/>
<path d="M4.32999 1.82001C30.81 1.82001 57.29 1.82001 83.77 1.82001C83.77 1.83001 83.77 1.85001 83.77 1.86001C57.29 1.86001 30.81 1.86001 4.32999 1.86001C4.32999 1.85001 4.32999 1.84001 4.32999 1.82001Z" fill="white"/>
</g>
<defs>
<clipPath id="clip0_476_645">
<rect width="88" height="95" fill="white"/>
</clipPath>
</defs>
</svg>
