<svg width="88" height="95" viewBox="0 0 88 95" fill="none" xmlns="http://www.w3.org/2000/svg">
<g clip-path="url(#clip0_476_466)">
<path d="M0.269986 94.62C0.0299863 94.37 0.149986 94.05 0.149986 93.77C0.139986 62.91 0.139986 32.05 0.149986 1.17999C0.149986 0.889993 -0.0400137 0.519993 0.319986 0.289993C0.369986 0.319993 0.419986 0.349993 0.469986 0.389993C0.739986 0.679993 0.739986 1.04999 0.749986 1.39999C0.779986 2.02999 0.769986 2.64999 0.769986 3.27999C0.769986 32.6 0.769986 61.91 0.769986 91.23C0.769986 91.74 0.729986 92.25 0.809986 92.75C0.939986 93.57 1.40999 93.91 2.34999 93.89C3.22999 93.87 3.65999 93.53 3.77999 92.73C3.84999 92.26 3.81999 91.78 3.81999 91.3C3.81999 69.18 3.81999 47.06 3.81999 24.93C3.81999 24.3 3.79999 23.68 3.85999 23.05C3.89999 22.69 3.94999 22.32 4.41999 22.26C4.63999 22.58 4.95999 22.71 5.33999 22.74C5.69999 22.77 6.05999 22.77 6.40999 22.77C31.5 22.77 56.58 22.77 81.67 22.77C56.85 22.77 32.04 22.77 7.21999 22.77C6.61999 22.77 6.02999 22.78 5.42999 22.75C5.05999 22.73 4.71999 22.67 4.46999 22.35C4.37999 21.86 4.74999 21.83 5.06999 21.77C5.50999 21.69 5.95999 21.71 6.40999 21.71C31.64 21.71 56.87 21.71 82.1 21.71C84.43 21.71 84.44 21.72 84.44 24.05C84.44 46.42 84.44 68.78 84.44 91.15C84.44 91.63 84.42 92.11 84.46 92.58C84.54 93.49 84.96 93.88 85.83 93.9C86.74 93.92 87.2 93.51 87.29 92.58C87.33 92.22 87.31 91.86 87.31 91.51C87.31 62.07 87.31 32.63 87.31 3.17999C87.31 2.96999 87.31 2.75999 87.31 2.54999C87.28 1.23999 86.89 0.749993 85.85 0.769993C84.85 0.779993 84.46 1.24999 84.45 2.51999C84.43 4.93999 84.45 7.35999 84.44 9.77999C84.44 12.44 84.46 15.1 84.42 17.75C84.41 18.22 84.55 18.82 83.83 18.97C83.19 17.98 82.28 17.75 81.14 17.75C56.48 17.77 31.83 17.77 7.16999 17.77C6.74999 17.77 6.32999 17.73 5.92999 17.86C5.80999 17.9 5.69999 17.96 5.67999 18.09C5.64999 18.28 5.79999 18.35 5.93999 18.4C6.34999 18.53 6.76999 18.49 7.17999 18.49C18.11 18.49 29.03 18.49 39.96 18.49C53.93 18.49 67.9 18.49 81.87 18.5C82.53 18.5 83.27 18.3 83.8 18.92C83.83 19.38 83.49 19.44 83.16 19.5C82.72 19.57 82.27 19.55 81.82 19.55C56.59 19.55 31.36 19.55 6.11999 19.55C3.81999 19.55 3.80999 19.53 3.80999 17.28C3.81999 12.19 3.80999 7.10999 3.82999 2.03999C3.82999 1.47999 3.72999 0.899993 4.10999 0.399993C4.15999 0.369993 4.20999 0.329993 4.25999 0.299993C4.59999 0.499993 4.42999 0.839993 4.42999 1.09999C4.43999 3.75999 4.45999 6.41999 4.41999 9.06999C4.41999 9.72999 4.54999 9.96999 5.28999 9.96999C31.18 9.94999 57.06 9.94999 82.95 9.96999C83.64 9.96999 83.85 9.80999 83.84 9.08999C83.8 6.36999 83.84 3.65999 83.81 0.939993C83.8 0.299993 83.92 0.0299935 84.63 0.0799935C85.52 0.149993 86.42 0.129993 87.32 0.0899935C87.85 0.0699935 88.02 0.259993 87.96 0.759993C87.94 0.939993 87.96 1.11999 87.96 1.29999C87.96 32.12 87.96 62.93 87.98 93.75C87.98 94.64 87.82 94.93 86.85 94.93C58.36 94.9 29.88 94.91 1.38999 94.9C1.00999 94.9 0.529986 95.13 0.269986 94.62C0.629986 94.67 0.989986 94.64 1.33999 94.64C29.52 94.64 57.7 94.64 85.88 94.64C57.58 94.64 29.29 94.64 0.989986 94.64C0.739986 94.63 0.499986 94.64 0.269986 94.62Z" fill="black"/>
<path d="M0.329998 0.290006C1.42 -0.139994 2.55 0.200006 3.66 0.110006C3.86 0.0900059 4.14 -0.0199941 4.26 0.290006L4.28 0.260006C4.09 0.460006 3.9 0.660006 3.61 0.650006C2.5 0.620006 1.33 1.07001 0.309998 0.270006L0.329998 0.290006Z" fill="black"/>
<path d="M0.309984 0.270035C1.62998 0.270035 2.94998 0.270035 4.27998 0.270035C4.27998 6.30003 4.28998 12.33 4.24998 18.37C4.23998 19.19 4.66998 19.11 5.18998 19.11C16.3 19.11 27.41 19.11 38.51 19.11C53.26 19.11 68.01 19.11 82.76 19.1C83.13 19.1 83.53 19.26 83.86 18.94L83.84 18.96C84.16 18.67 84 18.29 84 17.95C84.01 12.37 84.02 6.78003 83.99 1.20003C83.99 0.440035 84.19 0.210035 84.93 0.280035C85.7 0.350035 86.48 0.310035 87.26 0.290035C87.65 0.280035 87.81 0.420035 87.78 0.810035C87.76 1.02003 87.78 1.23003 87.78 1.44003C87.78 32.05 87.78 62.65 87.8 93.26C87.8 94.21 87.54 94.5 86.63 94.4C85.81 94.31 84.7 94.66 84.21 94.24C83.64 93.75 84.03 92.62 84.03 91.76C84 68.93 84 46.12 84.02 23.3C84.02 22.41 83.86 22.11 82.89 22.11C57.09 22.14 31.3 22.13 5.49998 22.15C5.15998 22.15 4.72998 21.91 4.46998 22.36L4.48998 22.34C4.03998 22.6 4.27998 23.03 4.27998 23.37C4.25998 46.64 4.25998 69.9 4.25998 93.16C4.25998 94.36 4.25998 94.36 3.09998 94.36C2.40998 94.36 1.71998 94.32 1.03998 94.37C0.419984 94.42 0.249984 94.16 0.319984 93.6C0.349984 93.36 0.319984 93.12 0.319984 92.88C0.319984 62.42 0.319984 31.97 0.319984 1.51003C0.319984 1.10003 0.309984 0.690035 0.309984 0.270035Z" fill="white"/>
<path d="M83.86 18.92C57.7 18.92 31.54 18.91 5.37999 18.93C4.67999 18.93 4.39999 18.83 4.40999 18.03C4.41999 17.11 4.98999 17.32 5.48999 17.32C31.17 17.32 56.85 17.31 82.53 17.32C83.94 17.32 83.81 17.04 83.83 18.58C83.83 18.7 83.83 18.82 83.84 18.94C83.84 18.95 83.86 18.92 83.86 18.92Z" fill="white"/>
<path d="M44.04 94.36C31.14 94.36 18.24 94.36 5.34997 94.35C4.96997 94.35 4.41997 94.6 4.42997 93.8C4.43997 93.26 4.56997 93.05 5.12997 93.1C5.71997 93.15 6.31997 93.11 6.91997 93.11C32.24 93.11 57.56 93.11 82.88 93.12C83.23 93.12 83.79 92.81 83.85 93.62C83.91 94.44 83.45 94.36 82.92 94.36C69.96 94.36 57 94.36 44.04 94.36Z" fill="white"/>
<path d="M44.23 33.97C57.04 33.97 69.85 33.97 82.66 33.97C82.9 33.97 83.14 33.99 83.38 33.97C83.83 33.93 83.84 34.21 83.84 34.54C83.84 34.84 83.81 35.08 83.42 35.05C83.21 35.04 83 35.05 82.79 35.05C57.02 35.05 31.26 35.05 5.49 35.05C5.28 35.05 5.07 35.04 4.86 35.05C4.46 35.08 4.44 34.82 4.45 34.53C4.46 34.26 4.4 33.96 4.82 33.98C5.06 33.99 5.3 33.98 5.54 33.98C18.43 33.97 31.33 33.97 44.23 33.97Z" fill="white"/>
<path d="M44.13 46.87C57.06 46.87 69.99 46.87 82.92 46.88C83.22 46.88 83.66 46.68 83.79 47.07C83.91 47.45 84.04 48.03 83.25 47.94C83.13 47.93 83.01 47.94 82.89 47.94C57.06 47.94 31.24 47.94 5.40997 47.94C5.19997 47.94 4.98997 47.94 4.77997 47.94C4.33997 47.93 4.46997 47.59 4.44997 47.35C4.42997 47.09 4.44997 46.86 4.80997 46.87C5.07997 46.88 5.34997 46.87 5.61997 46.87C18.45 46.87 31.29 46.87 44.13 46.87Z" fill="white"/>
<path d="M44.11 63.9C31.27 63.9 18.43 63.9 5.58999 63.9C5.31999 63.9 5.04999 63.9 4.77999 63.9C4.33999 63.89 4.45999 63.56 4.43999 63.32C4.41999 63.07 4.42999 62.83 4.78999 62.84C4.99999 62.85 5.20999 62.84 5.41999 62.84C31.22 62.84 57.01 62.84 82.81 62.84C83.05 62.84 83.29 62.84 83.53 62.85C83.9 62.87 83.82 63.16 83.82 63.38C83.82 63.61 83.89 63.89 83.52 63.9C83.25 63.91 82.98 63.91 82.71 63.91C69.84 63.9 56.97 63.9 44.11 63.9Z" fill="white"/>
<path d="M44.13 37.19C57.06 37.19 69.99 37.19 82.92 37.2C83.22 37.2 83.66 37 83.79 37.39C83.91 37.77 84.03 38.34 83.25 38.26C83.13 38.25 83.01 38.26 82.89 38.26C57.06 38.26 31.24 38.26 5.40997 38.26C5.19997 38.26 4.98998 38.26 4.77998 38.25C4.33998 38.24 4.46997 37.9 4.44997 37.66C4.42997 37.4 4.45997 37.18 4.80997 37.18C5.07997 37.19 5.34997 37.18 5.61997 37.18C18.45 37.19 31.29 37.19 44.13 37.19Z" fill="white"/>
<path d="M44.04 60.85C31.23 60.85 18.42 60.85 5.61 60.85C5.34 60.85 5.07 60.84 4.8 60.85C4.45 60.86 4.42 60.63 4.44 60.37C4.46 60.13 4.33 59.79 4.77 59.78C5.01 59.77 5.25 59.77 5.49 59.77C31.26 59.77 57.02 59.77 82.79 59.77C83 59.77 83.21 59.78 83.42 59.77C83.82 59.75 83.83 60 83.83 60.29C83.82 60.56 83.87 60.85 83.45 60.84C83.21 60.83 82.97 60.84 82.73 60.84C69.83 60.85 56.94 60.85 44.04 60.85Z" fill="white"/>
<path d="M44.04 57.6201C31.23 57.6201 18.42 57.6201 5.61 57.6201C5.34 57.6201 5.07 57.6101 4.8 57.6201C4.45 57.6301 4.42 57.4001 4.44 57.1401C4.46 56.9001 4.33 56.5601 4.77 56.5501C5.01 56.5401 5.25 56.5401 5.49 56.5401C31.26 56.5401 57.02 56.5401 82.79 56.5401C83 56.5401 83.21 56.5501 83.42 56.5401C83.82 56.5201 83.83 56.7701 83.83 57.0601C83.82 57.3301 83.87 57.6201 83.45 57.6101C83.21 57.6001 82.97 57.6101 82.73 57.6101C69.83 57.6201 56.94 57.6201 44.04 57.6201Z" fill="white"/>
<path d="M44.14 41.5C31.21 41.5 18.28 41.5 5.35 41.49C5.05 41.49 4.61 41.69 4.48 41.3C4.36 40.92 4.23 40.34 5.02 40.43C5.14 40.44 5.26 40.43 5.38 40.43C31.21 40.43 57.03 40.43 82.86 40.43C83.07 40.43 83.28 40.43 83.49 40.44C83.93 40.45 83.8 40.79 83.82 41.03C83.84 41.29 83.81 41.52 83.46 41.51C83.19 41.5 82.92 41.51 82.65 41.51C69.82 41.5 56.98 41.5 44.14 41.5Z" fill="white"/>
<path d="M44.13 91.8501C57.06 91.8501 69.99 91.8501 82.92 91.8601C83.22 91.8601 83.66 91.6601 83.78 92.0601C83.9 92.4501 84.02 93.0101 83.24 92.9301C83.09 92.9101 82.94 92.9301 82.79 92.9301C57.02 92.9301 31.26 92.9301 5.48997 92.9301C5.27997 92.9301 5.06997 92.9201 4.85997 92.9301C4.37997 92.9601 4.45997 92.6301 4.43997 92.3301C4.41997 91.9901 4.53997 91.8301 4.89997 91.8501C5.13997 91.8701 5.37997 91.8501 5.61997 91.8501C18.45 91.8501 31.29 91.8501 44.13 91.8501Z" fill="white"/>
<path d="M44.04 89.7C31.23 89.7 18.42 89.7 5.60999 89.7C5.36999 89.7 5.12999 89.68 4.88999 89.7C4.43999 89.74 4.42999 89.46 4.42999 89.13C4.42999 88.83 4.45999 88.59 4.84999 88.62C5.05999 88.63 5.26999 88.62 5.47999 88.62C31.25 88.62 57.01 88.62 82.78 88.62C82.96 88.62 83.14 88.63 83.32 88.62C83.72 88.58 83.84 88.76 83.83 89.14C83.82 89.48 83.8 89.74 83.36 89.7C83.12 89.68 82.88 89.7 82.64 89.7C69.78 89.7 56.91 89.7 44.04 89.7Z" fill="white"/>
<path d="M44.14 86.48C31.21 86.48 18.28 86.48 5.35 86.47C5.05 86.47 4.61 86.67 4.48 86.28C4.36 85.9 4.24 85.32 5.02 85.41C5.14 85.42 5.26 85.41 5.38 85.41C31.21 85.41 57.03 85.41 82.86 85.41C83.07 85.41 83.28 85.41 83.49 85.42C83.93 85.43 83.8 85.77 83.82 86.01C83.84 86.27 83.81 86.5 83.46 86.49C83.19 86.48 82.92 86.49 82.65 86.49C69.82 86.48 56.98 86.48 44.14 86.48Z" fill="white"/>
<path d="M44.04 83.2501C31.23 83.2501 18.42 83.2501 5.61 83.2501C5.34 83.2501 5.07 83.2401 4.8 83.2501C4.45 83.2601 4.42 83.0301 4.44 82.7701C4.46 82.5301 4.33 82.1901 4.77 82.1801C5.01 82.1701 5.25 82.1701 5.49 82.1701C31.26 82.1701 57.02 82.1701 82.79 82.1701C83 82.1701 83.21 82.1801 83.42 82.1701C83.82 82.1501 83.83 82.4001 83.83 82.6901C83.82 82.9601 83.87 83.2501 83.45 83.2401C83.21 83.2301 82.97 83.2401 82.73 83.2401C69.83 83.2501 56.94 83.2501 44.04 83.2501Z" fill="white"/>
<path d="M44.23 50.1001C57.13 50.1001 70.03 50.1001 82.93 50.1101C83.22 50.1101 83.67 49.9101 83.79 50.3101C83.91 50.7001 84.01 51.2601 83.24 51.1801C83.09 51.1601 82.94 51.1801 82.79 51.1801C57.02 51.1801 31.26 51.1801 5.48998 51.1801C5.30998 51.1801 5.12998 51.1701 4.94998 51.1801C4.55998 51.2201 4.42998 51.0401 4.43998 50.6601C4.44998 50.3301 4.46998 50.0601 4.90998 50.1001C5.14998 50.1201 5.38998 50.1001 5.62998 50.1001C18.49 50.1001 31.36 50.1001 44.23 50.1001Z" fill="white"/>
<path d="M44.23 78.95C57.04 78.95 69.85 78.95 82.66 78.95C82.9 78.95 83.14 78.97 83.38 78.95C83.83 78.91 83.84 79.19 83.84 79.52C83.84 79.82 83.81 80.06 83.42 80.03C83.21 80.02 83 80.03 82.79 80.03C57.02 80.03 31.26 80.03 5.49 80.03C5.28 80.03 5.07 80.02 4.86 80.03C4.46 80.06 4.44 79.8 4.45 79.51C4.46 79.24 4.4 78.94 4.82 78.96C5.06 78.97 5.3 78.96 5.54 78.96C18.43 78.95 31.33 78.95 44.23 78.95Z" fill="white"/>
<path d="M44.14 25.37C31.21 25.37 18.28 25.37 5.34998 25.36C5.04998 25.36 4.60998 25.56 4.48998 25.16C4.36998 24.77 4.24998 24.21 5.02998 24.29C5.17998 24.31 5.32998 24.29 5.47998 24.29C31.25 24.29 57.01 24.29 82.78 24.29C82.99 24.29 83.2 24.3 83.41 24.29C83.89 24.26 83.81 24.6 83.83 24.89C83.85 25.23 83.73 25.39 83.37 25.37C83.13 25.35 82.89 25.37 82.65 25.37C69.82 25.37 56.98 25.37 44.14 25.37Z" fill="white"/>
<path d="M44.14 76.8C31.21 76.8 18.28 76.8 5.35 76.79C5.05 76.79 4.61 76.99 4.48 76.59C4.36 76.21 4.24 75.64 5.02 75.72C5.14 75.73 5.26 75.72 5.38 75.72C31.21 75.72 57.03 75.72 82.86 75.72C83.07 75.72 83.28 75.72 83.49 75.73C83.93 75.74 83.8 76.08 83.82 76.32C83.84 76.58 83.81 76.8 83.46 76.8C83.19 76.79 82.92 76.8 82.65 76.8C69.82 76.8 56.98 76.8 44.14 76.8Z" fill="white"/>
<path d="M44.13 72.5C57.06 72.5 69.99 72.5 82.92 72.51C83.22 72.51 83.66 72.31 83.78 72.71C83.9 73.1 84.02 73.66 83.24 73.58C83.09 73.56 82.94 73.58 82.79 73.58C57.02 73.58 31.26 73.58 5.48997 73.58C5.27997 73.58 5.06997 73.57 4.85997 73.58C4.37997 73.61 4.45997 73.27 4.43997 72.98C4.41997 72.64 4.53997 72.48 4.89997 72.5C5.13997 72.52 5.37997 72.5 5.61997 72.5C18.45 72.5 31.29 72.5 44.13 72.5Z" fill="white"/>
<path d="M44.14 28.59C31.21 28.59 18.28 28.59 5.35 28.58C5.05 28.58 4.61 28.78 4.48 28.39C4.36 28.01 4.24 27.43 5.02 27.52C5.14 27.53 5.26 27.52 5.38 27.52C31.21 27.52 57.03 27.52 82.86 27.52C83.07 27.52 83.28 27.52 83.49 27.53C83.93 27.54 83.8 27.88 83.82 28.12C83.84 28.38 83.81 28.61 83.46 28.6C83.19 28.59 82.92 28.6 82.65 28.6C69.82 28.59 56.98 28.59 44.14 28.59Z" fill="white"/>
<path d="M44.13 53.32C57.06 53.32 69.99 53.32 82.92 53.33C83.22 53.33 83.66 53.13 83.79 53.52C83.91 53.9 84.03 54.48 83.25 54.39C83.13 54.38 83.01 54.39 82.89 54.39C57.06 54.39 31.24 54.39 5.40997 54.39C5.19997 54.39 4.98998 54.39 4.77998 54.38C4.33998 54.37 4.46997 54.03 4.44997 53.79C4.42997 53.53 4.45997 53.3 4.80997 53.31C5.07997 53.32 5.34997 53.31 5.61997 53.31C18.45 53.32 31.29 53.32 44.13 53.32Z" fill="white"/>
<path d="M44.04 70.35C31.23 70.35 18.42 70.35 5.60999 70.35C5.36999 70.35 5.12999 70.33 4.88999 70.35C4.43999 70.39 4.42999 70.11 4.42999 69.78C4.42999 69.48 4.45999 69.24 4.84999 69.27C5.05999 69.28 5.26999 69.27 5.47999 69.27C31.25 69.27 57.01 69.27 82.78 69.27C82.99 69.27 83.2 69.28 83.41 69.27C83.81 69.25 83.83 69.5 83.82 69.79C83.81 70.06 83.87 70.35 83.44 70.34C83.2 70.33 82.96 70.34 82.72 70.34C69.84 70.35 56.94 70.35 44.04 70.35Z" fill="white"/>
<path d="M44.14 31.82C31.21 31.82 18.28 31.82 5.35 31.81C5.05 31.81 4.61 32.01 4.48 31.61C4.36 31.23 4.24 30.66 5.02 30.74C5.14 30.75 5.26 30.74 5.38 30.74C31.21 30.74 57.03 30.74 82.86 30.74C83.07 30.74 83.28 30.74 83.49 30.75C83.93 30.76 83.8 31.1 83.82 31.34C83.84 31.6 83.81 31.82 83.46 31.81C83.19 31.8 82.92 31.81 82.65 31.81C69.82 31.82 56.98 31.82 44.14 31.82Z" fill="white"/>
<path d="M44.13 43.65C57.06 43.65 69.99 43.65 82.92 43.66C83.22 43.66 83.66 43.46 83.79 43.85C83.91 44.23 84.03 44.81 83.25 44.72C83.13 44.71 83.01 44.72 82.89 44.72C57.06 44.72 31.24 44.72 5.40997 44.72C5.19997 44.72 4.98998 44.72 4.77998 44.71C4.33998 44.7 4.46997 44.36 4.44997 44.12C4.42997 43.86 4.45997 43.63 4.80997 43.64C5.07997 43.65 5.34997 43.64 5.61997 43.64C18.45 43.65 31.29 43.65 44.13 43.65Z" fill="white"/>
<path d="M44.13 66.05C57.06 66.05 69.99 66.05 82.92 66.06C83.21 66.06 83.66 65.86 83.78 66.26C83.9 66.65 84.01 67.21 83.23 67.13C83.08 67.11 82.93 67.13 82.78 67.13C57.01 67.13 31.25 67.13 5.48 67.13C5.33 67.13 5.18 67.12 5.03 67.13C4.65 67.16 4.43 67.09 4.42 66.61C4.41 66.08 4.66 66.01 5.07 66.05C5.28 66.07 5.49 66.05 5.7 66.05C18.52 66.05 31.33 66.05 44.13 66.05Z" fill="white"/>
<path d="M44.24 73.75C57.08 73.75 69.91 73.75 82.75 73.75C83.02 73.75 83.29 73.75 83.56 73.77C83.8 73.78 83.83 73.96 83.83 74.15C83.82 74.35 83.89 74.6 83.58 74.63C83.34 74.65 83.1 74.65 82.86 74.65C57.04 74.65 31.22 74.65 5.39998 74.65C5.18998 74.65 4.97998 74.65 4.76998 74.64C4.47998 74.63 4.44998 74.43 4.44998 74.21C4.44998 73.99 4.44998 73.78 4.74998 73.77C5.01998 73.76 5.28998 73.76 5.55998 73.76C18.45 73.75 31.34 73.75 44.24 73.75Z" fill="white"/>
<path d="M44.23 76.98C57.04 76.98 69.84 76.98 82.65 76.98C82.92 76.98 83.19 76.99 83.46 76.98C83.8 76.97 83.83 77.19 83.83 77.45C83.83 77.69 83.77 77.86 83.49 77.86C83.28 77.86 83.07 77.87 82.86 77.87C57.04 77.87 31.22 77.87 5.39997 77.87C5.21997 77.87 5.03997 77.86 4.85997 77.87C4.54997 77.88 4.43997 77.74 4.43997 77.44C4.43997 77.16 4.49997 76.97 4.82997 76.98C5.09997 76.99 5.36997 76.98 5.63997 76.98C18.5 76.98 31.37 76.98 44.23 76.98Z" fill="white"/>
<path d="M44.24 80.2C57.05 80.2 69.85 80.2 82.66 80.2C82.93 80.2 83.2 80.21 83.47 80.2C83.82 80.2 83.83 80.43 83.83 80.68C83.83 80.93 83.76 81.08 83.48 81.08C83.24 81.08 83 81.09 82.76 81.09C57 81.09 31.24 81.09 5.47998 81.09C5.23998 81.09 4.99998 81.09 4.75998 81.08C4.46998 81.07 4.44998 80.87 4.44998 80.65C4.44998 80.43 4.45998 80.22 4.74998 80.21C5.01998 80.2 5.28998 80.2 5.55998 80.2C18.45 80.2 31.35 80.2 44.24 80.2Z" fill="white"/>
<path d="M44.15 84.3301C31.28 84.3301 18.42 84.3301 5.54997 84.3301C5.27997 84.3301 5.00997 84.3301 4.73997 84.3201C4.43997 84.3101 4.43997 84.0901 4.43997 83.8801C4.43997 83.6601 4.45997 83.4501 4.74997 83.4501C4.98997 83.4401 5.22997 83.4401 5.46997 83.4401C31.23 83.4401 56.99 83.4401 82.75 83.4401C82.99 83.4401 83.23 83.4501 83.47 83.4501C83.75 83.4501 83.82 83.6101 83.82 83.8501C83.82 84.1101 83.81 84.3401 83.46 84.3301C83.19 84.3301 82.92 84.3301 82.65 84.3301C69.82 84.3301 56.99 84.3301 44.15 84.3301Z" fill="white"/>
<path d="M44.12 86.65C56.99 86.65 69.85 86.65 82.72 86.65C82.99 86.65 83.26 86.65 83.53 86.66C83.83 86.67 83.83 86.89 83.83 87.1C83.83 87.32 83.81 87.53 83.52 87.53C83.28 87.54 83.04 87.54 82.8 87.54C57.04 87.54 31.28 87.54 5.51998 87.54C5.27998 87.54 5.03998 87.53 4.79998 87.53C4.51998 87.53 4.44998 87.37 4.44998 87.13C4.44998 86.87 4.45998 86.64 4.80998 86.65C5.07998 86.65 5.34998 86.65 5.61998 86.65C18.45 86.65 31.28 86.65 44.12 86.65Z" fill="white"/>
<path d="M44.03 90.78C31.22 90.78 18.42 90.78 5.60997 90.78C5.33997 90.78 5.06997 90.77 4.79997 90.78C4.45997 90.79 4.43997 90.56 4.43997 90.3C4.43997 90.06 4.50997 89.89 4.77997 89.89C4.98997 89.89 5.19997 89.88 5.40997 89.88C31.23 89.88 57.05 89.88 82.87 89.88C83.08 89.88 83.29 89.88 83.5 89.89C83.79 89.9 83.82 90.09 83.82 90.32C83.82 90.53 83.82 90.75 83.52 90.76C83.25 90.77 82.98 90.77 82.71 90.77C69.82 90.78 56.93 90.78 44.03 90.78Z" fill="white"/>
<path d="M44.13 25.55C56.97 25.55 69.8 25.55 82.64 25.55C82.88 25.55 83.12 25.56 83.36 25.55C83.7 25.53 83.84 25.66 83.84 26.02C83.84 26.4 83.63 26.46 83.33 26.45C83.18 26.44 83.03 26.45 82.88 26.45C57.06 26.45 31.24 26.45 5.41998 26.45C5.20998 26.45 4.99998 26.45 4.78998 26.44C4.50998 26.44 4.45998 26.26 4.44998 26.03C4.44998 25.76 4.47998 25.55 4.81998 25.56C5.08998 25.57 5.35998 25.56 5.62998 25.56C18.46 25.55 31.3 25.55 44.13 25.55Z" fill="white"/>
<path d="M4.46998 22.36C4.79998 22.35 5.11998 22.32 5.44998 22.32C31.18 22.32 56.91 22.32 82.65 22.34C83.04 22.34 83.82 21.9 83.8 22.79C83.78 23.56 83.07 23.19 82.69 23.19C56.96 23.21 31.23 23.21 5.48998 23.21C4.88998 23.21 4.20998 23.33 4.48998 22.34L4.46998 22.36Z" fill="white"/>
<path d="M44.14 29.67C31.3 29.67 18.47 29.67 5.62999 29.67C5.35999 29.67 5.08999 29.66 4.81999 29.67C4.48999 29.68 4.42999 29.49 4.42999 29.21C4.42999 28.91 4.53999 28.77 4.84999 28.78C5.05999 28.79 5.26999 28.78 5.47999 28.78C31.24 28.78 57 28.78 82.76 28.78C83 28.78 83.24 28.78 83.48 28.79C83.76 28.79 83.82 28.96 83.82 29.2C83.82 29.46 83.79 29.68 83.45 29.67C83.18 29.67 82.91 29.67 82.64 29.67C69.81 29.67 56.98 29.67 44.14 29.67Z" fill="white"/>
<path d="M44.12 32C56.96 32 69.79 32 82.63 32C82.9 32 83.17 32.01 83.44 32C83.76 31.99 83.83 32.18 83.83 32.46C83.83 32.75 83.73 32.91 83.42 32.9C83.21 32.89 83 32.9 82.79 32.9C57.03 32.9 31.27 32.9 5.50998 32.9C5.26998 32.9 5.02998 32.89 4.78998 32.89C4.50998 32.89 4.44998 32.72 4.44998 32.48C4.44998 32.22 4.46998 32 4.80998 32C5.07998 32 5.34998 32 5.61998 32C18.45 32 31.29 32 44.12 32Z" fill="white"/>
<path d="M44.13 35.22C56.97 35.22 69.8 35.22 82.64 35.22C82.88 35.22 83.12 35.23 83.36 35.22C83.7 35.2 83.84 35.34 83.83 35.69C83.83 36.08 83.62 36.13 83.32 36.12C83.17 36.11 83.02 36.12 82.87 36.12C57.05 36.12 31.23 36.12 5.40999 36.12C5.22999 36.12 5.04999 36.11 4.86999 36.12C4.56999 36.13 4.44999 36 4.43999 35.7C4.42999 35.35 4.55999 35.21 4.90999 35.23C5.14999 35.24 5.38999 35.23 5.62999 35.23C18.46 35.22 31.3 35.22 44.13 35.22Z" fill="white"/>
<path d="M44.15 42.5701C31.28 42.5701 18.42 42.5701 5.54997 42.5701C5.27997 42.5701 5.00997 42.5701 4.73997 42.5601C4.43997 42.5501 4.43997 42.3301 4.43997 42.1201C4.43997 41.9001 4.46997 41.7001 4.75997 41.6901C4.99997 41.6901 5.23997 41.6801 5.47997 41.6801C31.24 41.6801 57 41.6801 82.76 41.6801C83 41.6801 83.24 41.6901 83.48 41.6901C83.76 41.6901 83.82 41.8501 83.82 42.1001C83.82 42.3601 83.8 42.5801 83.46 42.5801C83.19 42.5801 82.92 42.5801 82.65 42.5801C69.82 42.5701 56.98 42.5701 44.15 42.5701Z" fill="white"/>
<path d="M44.13 45.8C31.29 45.8 18.46 45.8 5.61997 45.8C5.34997 45.8 5.07997 45.79 4.80997 45.8C4.46997 45.81 4.43997 45.59 4.43997 45.32C4.43997 45.08 4.49997 44.91 4.77997 44.91C4.98997 44.91 5.19997 44.9 5.40997 44.9C31.23 44.9 57.05 44.9 82.87 44.9C83.05 44.9 83.23 44.91 83.41 44.9C83.72 44.89 83.83 45.04 83.82 45.33C83.82 45.61 83.76 45.8 83.43 45.79C83.16 45.78 82.89 45.79 82.62 45.79C69.8 45.8 56.96 45.8 44.13 45.8Z" fill="white"/>
<path d="M44.04 49.02C31.23 49.02 18.43 49.02 5.61997 49.02C5.34997 49.02 5.07997 49.01 4.80997 49.02C4.46997 49.03 4.43997 48.81 4.43997 48.54C4.43997 48.3 4.49997 48.13 4.77997 48.13C4.98997 48.13 5.19997 48.12 5.40997 48.12C31.23 48.12 57.05 48.12 82.87 48.12C83.05 48.12 83.23 48.13 83.41 48.12C83.72 48.11 83.83 48.26 83.82 48.55C83.82 48.83 83.76 49.01 83.43 49.01C83.16 49 82.89 49.01 82.62 49.01C69.77 49.02 56.9 49.02 44.04 49.02Z" fill="white"/>
<path d="M44.04 39.35C31.23 39.35 18.43 39.35 5.61997 39.35C5.37997 39.35 5.13997 39.34 4.89997 39.35C4.55997 39.37 4.41997 39.22 4.42997 38.88C4.43997 38.57 4.55997 38.45 4.85997 38.46C5.03997 38.47 5.21997 38.46 5.39997 38.46C31.22 38.46 57.04 38.46 82.86 38.46C83.01 38.46 83.16 38.47 83.31 38.46C83.61 38.45 83.82 38.5 83.82 38.89C83.82 39.24 83.68 39.37 83.34 39.36C83.1 39.35 82.86 39.36 82.62 39.36C69.77 39.35 56.91 39.35 44.04 39.35Z" fill="white"/>
<path d="M44.15 52.25C31.28 52.25 18.42 52.25 5.54997 52.25C5.27997 52.25 5.00997 52.25 4.73997 52.24C4.43997 52.23 4.43997 52.01 4.43997 51.8C4.43997 51.58 4.45997 51.37 4.74997 51.37C4.98997 51.36 5.22997 51.36 5.46997 51.36C31.23 51.36 56.99 51.36 82.75 51.36C82.99 51.36 83.23 51.37 83.47 51.37C83.82 51.37 83.81 51.61 83.82 51.86C83.83 52.11 83.73 52.25 83.46 52.25C83.19 52.25 82.92 52.25 82.65 52.25C69.82 52.25 56.99 52.25 44.15 52.25Z" fill="white"/>
<path d="M44.04 55.47C31.23 55.47 18.43 55.47 5.61999 55.47C5.34999 55.47 5.07999 55.46 4.80999 55.47C4.46999 55.48 4.43999 55.26 4.44999 55C4.44999 54.76 4.50999 54.59 4.78999 54.59C4.99999 54.59 5.20999 54.58 5.41999 54.58C31.24 54.58 57.06 54.58 82.88 54.58C83.06 54.58 83.24 54.59 83.42 54.58C83.73 54.57 83.84 54.71 83.84 55.01C83.84 55.29 83.78 55.48 83.45 55.47C83.18 55.46 82.91 55.47 82.64 55.47C69.77 55.47 56.9 55.47 44.04 55.47Z" fill="white"/>
<path d="M44.12 57.8C56.96 57.8 69.79 57.8 82.63 57.8C82.9 57.8 83.17 57.81 83.44 57.8C83.77 57.79 83.83 57.98 83.83 58.26C83.83 58.56 83.73 58.71 83.42 58.69C83.21 58.68 83 58.69 82.79 58.69C57.03 58.69 31.27 58.69 5.50998 58.69C5.26998 58.69 5.02998 58.68 4.78998 58.68C4.50998 58.68 4.44998 58.51 4.44998 58.27C4.44998 58.01 4.46998 57.79 4.81998 57.79C5.08998 57.79 5.35998 57.79 5.62998 57.79C18.45 57.8 31.29 57.8 44.12 57.8Z" fill="white"/>
<path d="M44.12 64.08C56.99 64.08 69.85 64.08 82.72 64.08C82.99 64.08 83.26 64.08 83.53 64.09C83.83 64.1 83.83 64.31 83.83 64.53C83.83 64.75 83.81 64.96 83.52 64.96C83.28 64.97 83.04 64.97 82.8 64.97C57.04 64.97 31.28 64.97 5.51999 64.97C5.27999 64.97 5.03999 64.96 4.79999 64.96C4.44999 64.96 4.45999 64.72 4.44999 64.47C4.43999 64.22 4.53999 64.08 4.80999 64.08C5.07999 64.08 5.34999 64.08 5.61999 64.08C18.45 64.08 31.28 64.08 44.12 64.08Z" fill="white"/>
<path d="M44.14 68.2001C31.3 68.2001 18.47 68.2001 5.62999 68.2001C5.38999 68.2001 5.14999 68.1901 4.90999 68.2001C4.56999 68.2201 4.42999 68.0901 4.42999 67.7301C4.42999 67.3501 4.63999 67.2901 4.93999 67.3001C5.08999 67.3101 5.23999 67.3001 5.38999 67.3001C31.21 67.3001 57.03 67.3001 82.85 67.3001C83.06 67.3001 83.27 67.3001 83.48 67.3101C83.76 67.3101 83.81 67.4901 83.82 67.7201C83.82 67.9901 83.79 68.2001 83.45 68.1901C83.18 68.1801 82.91 68.1901 82.64 68.1901C69.81 68.2001 56.98 68.2001 44.14 68.2001Z" fill="white"/>
<path d="M44.13 70.53C56.97 70.53 69.8 70.53 82.64 70.53C82.91 70.53 83.18 70.54 83.45 70.53C83.78 70.52 83.84 70.71 83.84 70.99C83.84 71.29 83.73 71.43 83.43 71.42C83.22 71.41 83.01 71.42 82.8 71.42C57.04 71.42 31.28 71.42 5.51997 71.42C5.27997 71.42 5.03997 71.42 4.79997 71.41C4.44997 71.41 4.46997 71.16 4.45997 70.91C4.44997 70.65 4.55997 70.52 4.82997 70.52C5.09997 70.52 5.36997 70.52 5.63997 70.52C18.45 70.53 31.29 70.53 44.13 70.53Z" fill="white"/>
<path d="M44.13 13.36C56.97 13.36 69.81 13.36 82.65 13.36C82.89 13.36 83.13 13.36 83.37 13.36C83.63 13.36 83.84 13.38 83.82 13.74C83.81 14.11 83.56 14.07 83.33 14.08C83.18 14.08 83.03 14.08 82.88 14.08C57.05 14.08 31.22 14.08 5.37997 14.08C5.19997 14.08 5.01997 14.08 4.83997 14.08C4.60997 14.08 4.43997 14.04 4.42997 13.75C4.41997 13.4 4.60997 13.36 4.87997 13.37C5.11997 13.38 5.35997 13.37 5.59997 13.37C18.45 13.36 31.29 13.36 44.13 13.36Z" fill="white"/>
<path d="M44.18 78.05C56.99 78.05 69.8 78.05 82.61 78.05C82.82 78.05 83.03 78.04 83.24 78.05C83.48 78.07 83.8 77.94 83.82 78.38C83.84 78.82 83.54 78.75 83.28 78.76C83.13 78.76 82.98 78.76 82.83 78.76C57.03 78.76 31.23 78.76 5.42 78.76C5.33 78.76 5.24 78.78 5.15 78.76C4.88 78.7 4.41 78.97 4.44 78.38C4.47 77.82 4.93 78.11 5.2 78.05C5.4 78.01 5.62 78.04 5.83 78.04C18.62 78.05 31.4 78.05 44.18 78.05Z" fill="white"/>
<path d="M44.09 53.14C31.28 53.14 18.47 53.14 5.65997 53.14C5.41997 53.14 5.17997 53.14 4.93997 53.14C4.70997 53.13 4.45997 53.18 4.43997 52.81C4.41997 52.37 4.71997 52.44 4.97997 52.43C5.12997 52.43 5.27997 52.43 5.42997 52.43C31.23 52.43 57.03 52.43 82.84 52.43C83.02 52.43 83.2 52.43 83.38 52.43C83.64 52.42 83.84 52.46 83.83 52.81C83.82 53.18 83.57 53.14 83.34 53.15C83.1 53.16 82.86 53.15 82.62 53.15C69.77 53.14 56.93 53.14 44.09 53.14Z" fill="white"/>
<path d="M44.18 11.75C56.99 11.75 69.8 11.75 82.61 11.75C82.85 11.75 83.09 11.75 83.33 11.75C83.56 11.76 83.81 11.71 83.83 12.09C83.84 12.44 83.64 12.47 83.38 12.47C83.2 12.47 83.02 12.47 82.84 12.47C57.04 12.47 31.24 12.47 5.43999 12.47C5.31999 12.47 5.19999 12.48 5.07999 12.47C4.81999 12.44 4.43999 12.61 4.44999 12.09C4.46999 11.64 4.79999 11.78 5.02999 11.76C5.23999 11.74 5.44999 11.76 5.65999 11.76C18.5 11.75 31.34 11.75 44.18 11.75Z" fill="white"/>
<path d="M44.04 37.02C31.23 37.02 18.42 37.02 5.60997 37.02C5.39997 37.02 5.18997 37.02 4.97997 37.02C4.71997 37.01 4.41997 37.08 4.43997 36.64C4.44997 36.27 4.69997 36.31 4.93997 36.31C5.08997 36.3 5.23997 36.31 5.38997 36.31C31.22 36.31 57.05 36.31 82.89 36.31C83.01 36.31 83.13 36.3 83.25 36.31C83.49 36.34 83.81 36.2 83.83 36.64C83.85 37.08 83.55 37.01 83.29 37.02C83.08 37.03 82.87 37.02 82.66 37.02C69.79 37.02 56.92 37.02 44.04 37.02Z" fill="white"/>
<path d="M44.14 43.47C31.3 43.47 18.46 43.47 5.61997 43.47C5.37997 43.47 5.13997 43.47 4.89997 43.47C4.63997 43.47 4.43997 43.44 4.44997 43.09C4.45997 42.72 4.70997 42.76 4.93997 42.75C5.08997 42.75 5.23997 42.75 5.38997 42.75C31.22 42.75 57.05 42.75 82.89 42.75C83.07 42.75 83.25 42.75 83.43 42.75C83.66 42.75 83.83 42.79 83.84 43.08C83.85 43.43 83.66 43.47 83.39 43.46C83.15 43.45 82.91 43.46 82.67 43.46C69.82 43.47 56.98 43.47 44.14 43.47Z" fill="white"/>
<path d="M44.18 65.15C56.99 65.15 69.8 65.15 82.61 65.15C82.82 65.15 83.03 65.14 83.24 65.15C83.48 65.17 83.8 65.04 83.82 65.48C83.84 65.92 83.54 65.85 83.28 65.86C83.13 65.86 82.98 65.86 82.83 65.86C57.03 65.86 31.23 65.86 5.42 65.86C5.27 65.86 5.12 65.86 4.97 65.86C4.71 65.85 4.41 65.92 4.43 65.48C4.45 65.03 4.78 65.17 5.01 65.15C5.22 65.13 5.43 65.15 5.64 65.15C18.5 65.15 31.34 65.15 44.18 65.15Z" fill="white"/>
<path d="M44.14 33.79C31.3 33.79 18.46 33.79 5.61998 33.79C5.40998 33.79 5.19998 33.79 4.98998 33.79C4.72998 33.78 4.42998 33.85 4.44998 33.41C4.46998 32.96 4.79998 33.1 5.02998 33.08C5.14998 33.07 5.26998 33.08 5.38998 33.08C31.22 33.08 57.05 33.08 82.89 33.08C83.01 33.08 83.13 33.07 83.25 33.08C83.49 33.11 83.82 32.97 83.83 33.41C83.85 33.93 83.47 33.76 83.2 33.79C82.99 33.81 82.78 33.79 82.57 33.79C69.76 33.79 56.95 33.79 44.14 33.79Z" fill="white"/>
<path d="M44.2 45.98C57.04 45.98 69.88 45.98 82.72 45.98C82.96 45.98 83.2 45.98 83.44 45.98C83.68 45.98 83.83 46.05 83.83 46.33C83.83 46.61 83.7 46.7 83.45 46.69C83.24 46.69 83.03 46.69 82.82 46.69C57.02 46.69 31.22 46.69 5.40999 46.69C5.19999 46.69 4.99 46.68 4.78 46.69C4.5 46.7 4.42999 46.54 4.43999 46.29C4.44999 46.06 4.55999 45.98 4.76999 45.98C5.00999 45.98 5.24999 45.98 5.48999 45.98C18.4 45.98 31.3 45.98 44.2 45.98Z" fill="white"/>
<path d="M44.04 69.09C31.23 69.09 18.42 69.09 5.60998 69.09C5.36998 69.09 5.12998 69.08 4.88998 69.09C4.61998 69.1 4.42998 69.05 4.43998 68.71C4.44998 68.41 4.61998 68.38 4.84998 68.38C5.02998 68.38 5.20998 68.38 5.38998 68.38C31.22 68.38 57.05 68.38 82.89 68.38C83.04 68.38 83.19 68.38 83.34 68.38C83.57 68.39 83.82 68.34 83.83 68.72C83.84 69.07 83.64 69.1 83.38 69.1C83.14 69.1 82.9 69.1 82.66 69.1C69.79 69.09 56.91 69.09 44.04 69.09Z" fill="white"/>
<path d="M44.09 30.56C31.28 30.56 18.47 30.56 5.65998 30.56C5.44998 30.56 5.23998 30.57 5.02998 30.56C4.78998 30.54 4.45998 30.68 4.44998 30.23C4.42998 29.71 4.80998 29.88 5.07998 29.85C5.19998 29.84 5.31998 29.85 5.43998 29.85C31.24 29.85 57.04 29.85 82.85 29.85C83.03 29.85 83.21 29.85 83.39 29.85C83.65 29.84 83.85 29.88 83.84 30.23C83.83 30.6 83.58 30.56 83.35 30.57C83.11 30.58 82.87 30.57 82.63 30.57C69.77 30.56 56.93 30.56 44.09 30.56Z" fill="white"/>
<path d="M44.16 55.65C57.03 55.65 69.9 55.65 82.77 55.65C83.01 55.65 83.25 55.65 83.49 55.65C83.7 55.65 83.81 55.74 83.82 55.97C83.83 56.22 83.76 56.37 83.48 56.36C83.27 56.35 83.06 56.36 82.85 56.36C57.05 56.36 31.25 56.36 5.43997 56.36C5.19997 56.36 4.95997 56.36 4.71997 56.35C4.47997 56.35 4.43997 56.2 4.43997 55.99C4.43997 55.78 4.50997 55.65 4.73997 55.65C5.00997 55.65 5.27997 55.64 5.54997 55.64C18.42 55.65 31.29 55.65 44.16 55.65Z" fill="white"/>
<path d="M44.09 72.32C31.28 72.32 18.47 72.32 5.65998 72.32C5.44998 72.32 5.23998 72.33 5.02998 72.32C4.78998 72.3 4.46998 72.43 4.44998 71.99C4.42998 71.55 4.72998 71.62 4.98998 71.61C5.13998 71.61 5.28998 71.61 5.43998 71.61C31.24 71.61 57.04 71.61 82.85 71.61C83 71.61 83.15 71.61 83.3 71.61C83.56 71.62 83.86 71.55 83.84 71.99C83.82 72.44 83.49 72.3 83.26 72.32C83.05 72.34 82.84 72.32 82.63 72.32C69.77 72.32 56.93 72.32 44.09 72.32Z" fill="white"/>
<path d="M44.14 27.34C31.3 27.34 18.46 27.34 5.61999 27.34C5.37999 27.34 5.13999 27.34 4.89999 27.34C4.63999 27.34 4.42999 27.32 4.44999 26.96C4.45999 26.59 4.70999 26.63 4.93999 26.62C5.08999 26.62 5.23999 26.62 5.38999 26.62C31.22 26.62 57.05 26.62 82.89 26.62C83.07 26.62 83.25 26.62 83.43 26.62C83.66 26.62 83.83 26.66 83.84 26.95C83.85 27.3 83.66 27.34 83.39 27.33C83.15 27.32 82.91 27.33 82.67 27.33C69.82 27.34 56.98 27.34 44.14 27.34Z" fill="white"/>
<path d="M44.14 40.2401C31.3 40.2401 18.46 40.2401 5.61998 40.2401C5.40998 40.2401 5.19998 40.2401 4.98998 40.2401C4.72998 40.2301 4.42998 40.3001 4.44998 39.8601C4.46998 39.4101 4.79998 39.5501 5.02998 39.5301C5.14998 39.5201 5.26998 39.5301 5.38998 39.5301C31.22 39.5301 57.05 39.5301 82.89 39.5301C83.01 39.5301 83.13 39.5201 83.25 39.5301C83.49 39.5601 83.82 39.4201 83.83 39.8601C83.85 40.3801 83.47 40.2101 83.2 40.2401C82.99 40.2601 82.78 40.2401 82.57 40.2401C69.76 40.2401 56.95 40.2401 44.14 40.2401Z" fill="white"/>
<path d="M44.14 75.5401C31.3 75.5401 18.46 75.5401 5.61999 75.5401C5.37999 75.5401 5.13999 75.5401 4.89999 75.5401C4.63999 75.5401 4.42999 75.5201 4.44999 75.1601C4.45999 74.7901 4.70999 74.8301 4.93999 74.8201C5.08999 74.8201 5.23999 74.8201 5.38999 74.8201C31.22 74.8201 57.05 74.8201 82.89 74.8201C83.07 74.8201 83.25 74.8201 83.43 74.8201C83.66 74.8201 83.83 74.8601 83.84 75.1501C83.85 75.5001 83.66 75.5401 83.39 75.5301C83.15 75.5201 82.91 75.5301 82.67 75.5301C69.82 75.5401 56.98 75.5401 44.14 75.5401Z" fill="white"/>
<path d="M44.14 24.11C31.3 24.11 18.46 24.11 5.61997 24.11C5.37997 24.11 5.13997 24.11 4.89997 24.11C4.63997 24.11 4.43997 24.09 4.44997 23.73C4.45997 23.36 4.70997 23.4 4.93997 23.39C5.08997 23.39 5.23997 23.39 5.38997 23.39C31.22 23.39 57.05 23.39 82.89 23.39C83.07 23.39 83.25 23.39 83.43 23.39C83.66 23.39 83.83 23.43 83.84 23.72C83.85 24.07 83.66 24.11 83.39 24.1C83.15 24.09 82.91 24.1 82.67 24.1C69.82 24.11 56.98 24.11 44.14 24.11Z" fill="white"/>
<path d="M44.04 59.6C31.23 59.6 18.42 59.6 5.60998 59.6C5.36998 59.6 5.12998 59.59 4.88998 59.6C4.61998 59.61 4.42998 59.57 4.43998 59.22C4.44998 58.92 4.61998 58.89 4.84998 58.89C5.02998 58.89 5.20998 58.89 5.38998 58.89C31.22 58.89 57.05 58.89 82.89 58.89C83.04 58.89 83.19 58.89 83.34 58.89C83.57 58.9 83.82 58.85 83.83 59.23C83.84 59.58 83.64 59.61 83.38 59.61C83.14 59.61 82.9 59.61 82.66 59.61C69.79 59.6 56.91 59.6 44.04 59.6Z" fill="white"/>
<path d="M44.23 81.28C57.04 81.28 69.85 81.28 82.66 81.28C82.9 81.28 83.14 81.29 83.38 81.28C83.65 81.27 83.84 81.31 83.83 81.66C83.82 81.96 83.65 81.99 83.42 81.99C83.24 81.99 83.06 81.99 82.88 81.99C57.05 81.99 31.22 81.99 5.38 81.99C5.23 81.99 5.08 81.99 4.93 81.99C4.7 81.98 4.45 82.03 4.44 81.65C4.43 81.3 4.63 81.27 4.89 81.27C5.13 81.27 5.37 81.27 5.61 81.27C18.48 81.28 31.36 81.28 44.23 81.28Z" fill="white"/>
<path d="M44.23 49.2C57.04 49.2 69.85 49.2 82.66 49.2C82.9 49.2 83.14 49.21 83.38 49.2C83.65 49.19 83.84 49.24 83.83 49.58C83.82 49.88 83.65 49.91 83.42 49.91C83.24 49.91 83.06 49.91 82.88 49.91C57.05 49.91 31.22 49.91 5.37998 49.91C5.22998 49.91 5.07998 49.91 4.92998 49.91C4.69998 49.9 4.44998 49.95 4.43998 49.57C4.42998 49.23 4.63998 49.2 4.89998 49.2C5.13998 49.2 5.37998 49.2 5.61998 49.2C18.49 49.2 31.36 49.2 44.23 49.2Z" fill="white"/>
<path d="M44.09 85.22C31.28 85.22 18.47 85.22 5.65999 85.22C5.41999 85.22 5.17999 85.22 4.93999 85.22C4.70999 85.21 4.45999 85.26 4.44999 84.88C4.42999 84.53 4.62999 84.5 4.89999 84.5C5.07999 84.5 5.25999 84.5 5.43999 84.5C31.24 84.5 57.04 84.5 82.85 84.5C83 84.5 83.15 84.5 83.3 84.5C83.56 84.51 83.86 84.45 83.84 84.88C83.83 85.25 83.57 85.21 83.34 85.21C83.1 85.22 82.86 85.21 82.62 85.21C69.77 85.22 56.93 85.22 44.09 85.22Z" fill="white"/>
<path d="M44.04 61.75C31.26 61.75 18.49 61.75 5.71 61.75C5.47 61.75 5.23 61.75 4.99 61.75C4.73 61.74 4.43 61.8 4.44 61.37C4.46 61 4.72 61.05 4.95 61.04C5.16 61.03 5.37 61.04 5.58 61.04C31.28 61.04 56.98 61.04 82.68 61.06C83.05 61.06 83.74 60.72 83.76 61.38C83.78 62.11 83.06 61.73 82.71 61.73C69.83 61.75 56.94 61.75 44.04 61.75Z" fill="white"/>
<path d="M44.09 88.45C31.28 88.45 18.47 88.45 5.65997 88.45C5.41997 88.45 5.17997 88.45 4.93997 88.45C4.70997 88.44 4.45997 88.49 4.44997 88.11C4.43997 87.76 4.63997 87.72 4.89997 87.73C5.07997 87.73 5.25997 87.73 5.43997 87.73C31.24 87.73 57.04 87.73 82.85 87.73C82.97 87.73 83.09 87.72 83.21 87.73C83.47 87.76 83.85 87.59 83.84 88.11C83.82 88.56 83.49 88.42 83.26 88.44C83.05 88.46 82.84 88.44 82.63 88.44C69.77 88.45 56.93 88.45 44.09 88.45Z" fill="white"/>
<path d="M44.23 15.33C57.01 15.33 69.79 15.33 82.57 15.33C82.81 15.33 83.05 15.33 83.29 15.33C83.55 15.34 83.85 15.28 83.83 15.71C83.82 16.08 83.56 16.03 83.33 16.04C83.18 16.05 83.03 16.04 82.88 16.04C57.05 16.04 31.23 16.04 5.39999 16.04C5.27999 16.04 5.15999 16.05 5.03999 16.04C4.79999 16.01 4.46999 16.15 4.44999 15.71C4.42999 15.27 4.73999 15.34 4.98999 15.33C5.22999 15.32 5.46999 15.33 5.70999 15.33C18.55 15.33 31.39 15.33 44.23 15.33Z" fill="white"/>
<path d="M44.14 62.64C31.3 62.64 18.46 62.64 5.61999 62.64C5.37999 62.64 5.13999 62.64 4.89999 62.64C4.63999 62.64 4.42999 62.62 4.44999 62.26C4.45999 61.89 4.70999 61.93 4.93999 61.92C5.08999 61.92 5.23999 61.92 5.38999 61.92C31.22 61.92 57.05 61.92 82.89 61.92C83.07 61.92 83.25 61.92 83.43 61.92C83.66 61.92 83.83 61.96 83.84 62.25C83.85 62.6 83.66 62.64 83.39 62.63C83.15 62.62 82.91 62.63 82.67 62.63C69.82 62.64 56.98 62.64 44.14 62.64Z" fill="white"/>
<path d="M44.09 91.67C31.28 91.67 18.47 91.67 5.65998 91.67C5.44998 91.67 5.23998 91.68 5.02998 91.67C4.78998 91.65 4.46998 91.78 4.44998 91.34C4.42998 90.9 4.72998 90.97 4.98998 90.96C5.13998 90.96 5.28998 90.96 5.43998 90.96C31.24 90.96 57.04 90.96 82.85 90.96C83 90.96 83.15 90.96 83.3 90.96C83.56 90.97 83.86 90.9 83.84 91.34C83.82 91.79 83.49 91.65 83.26 91.67C83.05 91.69 82.84 91.67 82.63 91.67C69.77 91.67 56.93 91.67 44.09 91.67Z" fill="white"/>
<path d="M44.09 17.12C31.19 17.12 18.29 17.12 5.38999 17.11C5.07999 17.11 4.51999 17.35 4.49999 16.87C4.47999 16.31 5.05999 16.6 5.33999 16.6C31.2 16.58 57.07 16.58 82.93 16.58C83.05 16.58 83.17 16.57 83.29 16.58C83.5 16.61 83.84 16.47 83.81 16.87C83.78 17.24 83.46 17.09 83.25 17.11C83.04 17.13 82.83 17.12 82.62 17.12C69.77 17.12 56.93 17.12 44.09 17.12Z" fill="white"/>
<path d="M44.18 14.62C57.05 14.62 69.92 14.62 82.79 14.63C83.12 14.63 83.74 14.36 83.76 14.86C83.78 15.43 83.15 15.14 82.84 15.14C57.04 15.16 31.24 15.16 5.42999 15.16C5.27999 15.16 5.12999 15.18 4.97999 15.16C4.76999 15.13 4.42999 15.27 4.45999 14.88C4.47999 14.51 4.80999 14.66 5.01999 14.64C5.22999 14.62 5.43999 14.63 5.64999 14.63C18.5 14.62 31.34 14.62 44.18 14.62Z" fill="white"/>
<path d="M83.78 10.95C57.35 10.95 30.92 10.95 4.48999 10.95C4.48999 10.89 4.48999 10.83 4.48999 10.77C30.92 10.77 57.35 10.77 83.78 10.77C83.78 10.83 83.78 10.89 83.78 10.95Z" fill="white"/>
<path d="M4.48999 12.91C30.92 12.91 57.35 12.91 83.78 12.91C83.78 12.97 83.78 13.03 83.78 13.09C57.35 13.09 30.92 13.09 4.48999 13.09C4.48999 13.03 4.48999 12.97 4.48999 12.91Z" fill="white"/>
<path d="M0.269978 94.62C0.589978 94.59 0.919978 94.54 1.23998 94.54C29.73 94.54 58.22 94.54 86.71 94.54C87 94.54 87.29 94.54 87.57 94.54C87.57 94.6 87.57 94.66 87.57 94.72C87.25 94.72 86.93 94.72 86.61 94.72C58.21 94.72 29.81 94.72 1.40998 94.72C1.02998 94.72 0.629978 94.82 0.269978 94.61C0.259978 94.61 0.269978 94.62 0.269978 94.62Z" fill="white"/>
<path d="M83.62 11.34C57.31 11.34 31 11.34 4.67999 11.34C4.67999 11.32 4.67999 11.29 4.67999 11.27C30.99 11.27 57.3 11.27 83.62 11.27C83.62 11.29 83.62 11.32 83.62 11.34Z" fill="white"/>
<path d="M4.65997 10.19C30.97 10.19 57.27 10.19 83.58 10.19C83.58 10.21 83.58 10.23 83.58 10.26C57.27 10.26 30.97 10.26 4.65997 10.26C4.65997 10.23 4.65997 10.21 4.65997 10.19Z" fill="white"/>
<path d="M83.58 16.38C57.28 16.38 30.99 16.38 4.68997 16.38C4.68997 16.35 4.68997 16.32 4.68997 16.29C31 16.29 57.3 16.29 83.61 16.29C83.6 16.32 83.59 16.35 83.58 16.38Z" fill="white"/>
<path d="M4.68997 14.31C31 14.31 57.31 14.31 83.62 14.31C83.62 14.34 83.62 14.37 83.62 14.4C57.3 14.4 30.98 14.4 4.65997 14.4C4.66997 14.37 4.67997 14.34 4.68997 14.31Z" fill="white"/>
</g>
<defs>
<clipPath id="clip0_476_466">
<rect width="88" height="95" fill="white"/>
</clipPath>
</defs>
</svg>
