<svg width="44" height="95" viewBox="0 0 44 95" fill="none" xmlns="http://www.w3.org/2000/svg">
<g clip-path="url(#clip0_422_973)">
<rect width="82" height="180" transform="matrix(-1 0 0 1 44 0)" fill="white"/>
<path d="M0.0535812 0.0527344H43.9464V94.9473H0.0535812V0.0527344Z" stroke="black" stroke-width="0.2" stroke-miterlimit="10"/>
<path d="M40.3883 11.5711H43.9464V93.9505H40.3883V11.5711Z" stroke="black" stroke-width="0.2" stroke-miterlimit="10"/>
<path d="M3.61172 11.5711H40.3882V12.6312H3.61172V11.5711Z" stroke="black" stroke-width="0.2" stroke-miterlimit="10"/>
<path d="M3.61172 92.8851H40.3882V93.9452H3.61172V92.8851Z" stroke="black" stroke-width="0.2" stroke-miterlimit="10"/>
<path d="M3.73497 50.7936V12.7472H40.2704V92.69H3.73497V50.7936Z" stroke="black" stroke-width="0.2" stroke-miterlimit="10"/>
<path d="M0.0535794 11.5711H43.9464" stroke="black" stroke-width="0.2" stroke-miterlimit="10"/>
<path d="M43.9464 11.5711V93.9505" stroke="black" stroke-width="0.2" stroke-miterlimit="10"/>
<path d="M3.61172 12.6312H40.3882" stroke="black" stroke-width="0.2" stroke-miterlimit="10"/>
<path d="M40.3882 11.5711V21.2752" stroke="black" stroke-width="0.2" stroke-miterlimit="10"/>
<path d="M40.3882 92.8851H3.61172" stroke="black" stroke-width="0.2" stroke-miterlimit="10"/>
<path d="M40.2704 12.7472V21.2752" stroke="black" stroke-width="0.2" stroke-miterlimit="10"/>
<path d="M3.73497 12.7472H40.2704" stroke="black" stroke-width="0.2" stroke-miterlimit="10"/>
<path d="M40.2704 92.69H3.73497" stroke="black" stroke-width="0.2" stroke-miterlimit="10"/>
<path d="M40.3882 86.2663V93.9505" stroke="black" stroke-width="0.2" stroke-miterlimit="10"/>
<path d="M40.2704 86.2663V92.69" stroke="black" stroke-width="0.2" stroke-miterlimit="10"/>
<path d="M40.3882 53.689V81.5461" stroke="black" stroke-width="0.2" stroke-miterlimit="10"/>
<path d="M40.2704 53.689V81.5461" stroke="black" stroke-width="0.2" stroke-miterlimit="10"/>
<path d="M40.3882 25.9954V48.9688" stroke="black" stroke-width="0.2" stroke-miterlimit="10"/>
<path d="M40.2704 25.9954V48.9688" stroke="black" stroke-width="0.2" stroke-miterlimit="10"/>
<path d="M40.0346 21.3912H40.5919V25.8741H40.0346V21.3912Z" stroke="black" stroke-width="0.2" stroke-miterlimit="10"/>
<path d="M40.0346 22.061H40.5919" stroke="black" stroke-width="0.2" stroke-miterlimit="10"/>
<path d="M40.5919 22.3774H40.0346" stroke="black" stroke-width="0.2" stroke-miterlimit="10"/>
<path d="M40.0346 23.2424H40.5919" stroke="black" stroke-width="0.2" stroke-miterlimit="10"/>
<path d="M40.5919 24.0282H40.0346" stroke="black" stroke-width="0.2" stroke-miterlimit="10"/>
<path d="M40.0346 24.8931H40.5919" stroke="black" stroke-width="0.2" stroke-miterlimit="10"/>
<path d="M40.5919 25.2096H40.0346" stroke="black" stroke-width="0.2" stroke-miterlimit="10"/>
<path d="M40.0346 21.2752H40.5919" stroke="black" stroke-width="0.2" stroke-miterlimit="10"/>
<path d="M40.0346 25.9954H40.5919" stroke="black" stroke-width="0.2" stroke-miterlimit="10"/>
<path d="M40.0346 49.0848H40.5919V53.5677H40.0346V49.0848Z" stroke="black" stroke-width="0.2" stroke-miterlimit="10"/>
<path d="M40.0346 49.7546H40.5919" stroke="black" stroke-width="0.2" stroke-miterlimit="10"/>
<path d="M40.5919 50.0658H40.0346" stroke="black" stroke-width="0.2" stroke-miterlimit="10"/>
<path d="M40.0346 50.936H40.5919" stroke="black" stroke-width="0.2" stroke-miterlimit="10"/>
<path d="M40.5919 51.7218H40.0346" stroke="black" stroke-width="0.2" stroke-miterlimit="10"/>
<path d="M40.0346 52.5867H40.5919" stroke="black" stroke-width="0.2" stroke-miterlimit="10"/>
<path d="M40.5919 52.9032H40.0346" stroke="black" stroke-width="0.2" stroke-miterlimit="10"/>
<path d="M40.0346 48.9688H40.5919" stroke="black" stroke-width="0.2" stroke-miterlimit="10"/>
<path d="M40.0346 53.689H40.5919" stroke="black" stroke-width="0.2" stroke-miterlimit="10"/>
<path d="M40.0346 81.6674H40.5919V86.1503H40.0346V81.6674Z" stroke="black" stroke-width="0.2" stroke-miterlimit="10"/>
<path d="M40.0346 82.3319H40.5919" stroke="black" stroke-width="0.2" stroke-miterlimit="10"/>
<path d="M40.5919 82.6484H40.0346" stroke="black" stroke-width="0.2" stroke-miterlimit="10"/>
<path d="M40.0346 83.5133H40.5919" stroke="black" stroke-width="0.2" stroke-miterlimit="10"/>
<path d="M40.5919 84.2991H40.0346" stroke="black" stroke-width="0.2" stroke-miterlimit="10"/>
<path d="M40.0346 85.1693H40.5919" stroke="black" stroke-width="0.2" stroke-miterlimit="10"/>
<path d="M40.5919 85.4805H40.0346" stroke="black" stroke-width="0.2" stroke-miterlimit="10"/>
<path d="M40.0346 81.5461H40.5919" stroke="black" stroke-width="0.2" stroke-miterlimit="10"/>
<path d="M40.0346 86.2663H40.5919" stroke="black" stroke-width="0.2" stroke-miterlimit="10"/>
<path d="M0.0535794 93.9504V94.9472H43.9464V93.9504H0.0535794Z" stroke="black" stroke-width="0.2" stroke-miterlimit="10"/>
<path d="M6.67688 53.1511H5.85164C5.7016 53.1616 5.57835 53.2776 5.56764 53.4253C5.55156 53.573 5.64802 53.7101 5.7927 53.747H6.65009" stroke="black" stroke-width="0.2" stroke-miterlimit="10"/>
<path d="M6.68225 53.1511C6.67153 53.1089 6.66082 53.072 6.64474 53.035" stroke="black" stroke-width="0.2" stroke-miterlimit="10"/>
<path d="M6.64474 53.747H10.01L10.578 53.6204V53.304L9.93496 53.1511H6.67689" stroke="black" stroke-width="0.2" stroke-miterlimit="10"/>
<path d="M6.65009 53.747C6.61793 53.8314 6.57506 53.9052 6.52147 53.9791C6.33928 54.2217 6.04456 54.3799 5.71232 54.3799C5.16038 54.3799 4.71561 53.9369 4.71561 53.3989C4.71561 52.861 5.16574 52.418 5.71232 52.418C6.04456 52.418 6.33928 52.5762 6.52147 52.8241C6.5697 52.8874 6.61257 52.9612 6.64473 53.0403" stroke="black" stroke-width="0.2" stroke-miterlimit="10"/>
<path d="M0.0536021 52.0013V11.5711H3.61176V93.9505H0.0536021V52.0013Z" stroke="black" stroke-width="0.2" stroke-miterlimit="10"/>
<path d="M0.0535812 0.0527344H43.9464V10.4266H0.0535812V0.0527344Z" stroke="black" stroke-width="0.2" stroke-miterlimit="10"/>
<path d="M0.0535812 10.4266H43.9464V11.5658H0.0535812V10.4266Z" stroke="black" stroke-width="0.2" stroke-miterlimit="10"/>
</g>
<defs>
<clipPath id="clip0_422_973">
<rect width="44" height="95" fill="white" transform="matrix(-1 0 0 1 44 0)"/>
</clipPath>
</defs>
</svg>
