<svg width="42" height="93" viewBox="0 0 42 93" fill="none" xmlns="http://www.w3.org/2000/svg">
<g clip-path="url(#clip0_107_2363)">
<rect width="82" height="180" transform="matrix(-1 0 0 1 42 0)" fill="white"/>
<path d="M0.0511551 0.0516357H41.9489V92.9484H0.0511551V0.0516357Z" stroke="black" stroke-width="0.2" stroke-miterlimit="10"/>
<path d="M38.5524 11.3275H41.9489V91.9726H38.5524V11.3275Z" stroke="black" stroke-width="0.2" stroke-miterlimit="10"/>
<path d="M3.44757 11.3275H38.5524V12.3652H3.44757V11.3275Z" stroke="black" stroke-width="0.2" stroke-miterlimit="10"/>
<path d="M3.44757 90.9297H38.5524V91.9674H3.44757V90.9297Z" stroke="black" stroke-width="0.2" stroke-miterlimit="10"/>
<path d="M3.56523 49.7243V12.4788H38.4399V90.7386H3.56523V49.7243Z" stroke="black" stroke-width="0.2" stroke-miterlimit="10"/>
<path d="M0.0511533 11.3275H41.9489" stroke="black" stroke-width="0.2" stroke-miterlimit="10"/>
<path d="M41.9489 11.3275V91.9726" stroke="black" stroke-width="0.2" stroke-miterlimit="10"/>
<path d="M3.44757 12.3652H38.5524" stroke="black" stroke-width="0.2" stroke-miterlimit="10"/>
<path d="M38.5524 11.3275V20.8273" stroke="black" stroke-width="0.2" stroke-miterlimit="10"/>
<path d="M38.5524 90.9297H3.44757" stroke="black" stroke-width="0.2" stroke-miterlimit="10"/>
<path d="M38.4399 12.4788V20.8273" stroke="black" stroke-width="0.2" stroke-miterlimit="10"/>
<path d="M3.56523 12.4788H38.4399" stroke="black" stroke-width="0.2" stroke-miterlimit="10"/>
<path d="M38.4399 90.7386H3.56523" stroke="black" stroke-width="0.2" stroke-miterlimit="10"/>
<path d="M38.5524 84.4502V91.9726" stroke="black" stroke-width="0.2" stroke-miterlimit="10"/>
<path d="M38.4399 84.4502V90.7386" stroke="black" stroke-width="0.2" stroke-miterlimit="10"/>
<path d="M38.5524 52.5587V79.8293" stroke="black" stroke-width="0.2" stroke-miterlimit="10"/>
<path d="M38.4399 52.5587V79.8293" stroke="black" stroke-width="0.2" stroke-miterlimit="10"/>
<path d="M38.5524 25.4481V47.9379" stroke="black" stroke-width="0.2" stroke-miterlimit="10"/>
<path d="M38.4399 25.4481V47.9379" stroke="black" stroke-width="0.2" stroke-miterlimit="10"/>
<path d="M38.2148 20.9409H38.7468V25.3294H38.2148V20.9409Z" stroke="black" stroke-width="0.2" stroke-miterlimit="10"/>
<path d="M38.2148 21.5966H38.7468" stroke="black" stroke-width="0.2" stroke-miterlimit="10"/>
<path d="M38.7468 21.9063H38.2148" stroke="black" stroke-width="0.2" stroke-miterlimit="10"/>
<path d="M38.2148 22.7531H38.7468" stroke="black" stroke-width="0.2" stroke-miterlimit="10"/>
<path d="M38.7468 23.5223H38.2148" stroke="black" stroke-width="0.2" stroke-miterlimit="10"/>
<path d="M38.2148 24.3691H38.7468" stroke="black" stroke-width="0.2" stroke-miterlimit="10"/>
<path d="M38.7468 24.6788H38.2148" stroke="black" stroke-width="0.2" stroke-miterlimit="10"/>
<path d="M38.2148 20.8273H38.7468" stroke="black" stroke-width="0.2" stroke-miterlimit="10"/>
<path d="M38.2148 25.4481H38.7468" stroke="black" stroke-width="0.2" stroke-miterlimit="10"/>
<path d="M38.2148 48.0515H38.7468V52.4399H38.2148V48.0515Z" stroke="black" stroke-width="0.2" stroke-miterlimit="10"/>
<path d="M38.2148 48.7072H38.7468" stroke="black" stroke-width="0.2" stroke-miterlimit="10"/>
<path d="M38.7468 49.0118H38.2148" stroke="black" stroke-width="0.2" stroke-miterlimit="10"/>
<path d="M38.2148 49.8636H38.7468" stroke="black" stroke-width="0.2" stroke-miterlimit="10"/>
<path d="M38.7468 50.6329H38.2148" stroke="black" stroke-width="0.2" stroke-miterlimit="10"/>
<path d="M38.2148 51.4796H38.7468" stroke="black" stroke-width="0.2" stroke-miterlimit="10"/>
<path d="M38.7468 51.7894H38.2148" stroke="black" stroke-width="0.2" stroke-miterlimit="10"/>
<path d="M38.2148 47.9379H38.7468" stroke="black" stroke-width="0.2" stroke-miterlimit="10"/>
<path d="M38.2148 52.5587H38.7468" stroke="black" stroke-width="0.2" stroke-miterlimit="10"/>
<path d="M38.2148 79.9481H38.7468V84.3366H38.2148V79.9481Z" stroke="black" stroke-width="0.2" stroke-miterlimit="10"/>
<path d="M38.2148 80.5986H38.7468" stroke="black" stroke-width="0.2" stroke-miterlimit="10"/>
<path d="M38.7468 80.9084H38.2148" stroke="black" stroke-width="0.2" stroke-miterlimit="10"/>
<path d="M38.2148 81.7551H38.7468" stroke="black" stroke-width="0.2" stroke-miterlimit="10"/>
<path d="M38.7468 82.5244H38.2148" stroke="black" stroke-width="0.2" stroke-miterlimit="10"/>
<path d="M38.2148 83.3763H38.7468" stroke="black" stroke-width="0.2" stroke-miterlimit="10"/>
<path d="M38.7468 83.6809H38.2148" stroke="black" stroke-width="0.2" stroke-miterlimit="10"/>
<path d="M38.2148 79.8293H38.7468" stroke="black" stroke-width="0.2" stroke-miterlimit="10"/>
<path d="M38.2148 84.4502H38.7468" stroke="black" stroke-width="0.2" stroke-miterlimit="10"/>
<path d="M0.0511533 91.9726V92.9484H41.9489V91.9726H0.0511533Z" stroke="black" stroke-width="0.2" stroke-miterlimit="10"/>
<path d="M6.37341 52.0321H5.58569C5.44247 52.0424 5.32482 52.156 5.31459 52.3005C5.29924 52.4451 5.39132 52.5793 5.52942 52.6155H6.34784" stroke="black" stroke-width="0.2" stroke-miterlimit="10"/>
<path d="M6.37854 52.0321C6.36831 51.9908 6.35808 51.9547 6.34273 51.9185" stroke="black" stroke-width="0.2" stroke-miterlimit="10"/>
<path d="M6.34269 52.6155H9.55497L10.0972 52.4916V52.1818L9.48336 52.0321H6.37338" stroke="black" stroke-width="0.2" stroke-miterlimit="10"/>
<path d="M6.34784 52.6155C6.31715 52.6981 6.27623 52.7704 6.22507 52.8427C6.05116 53.0802 5.76983 53.2351 5.4527 53.2351C4.92584 53.2351 4.50129 52.8014 4.50129 52.2748C4.50129 51.7481 4.93096 51.3145 5.4527 51.3145C5.76983 51.3145 6.05116 51.4693 6.22507 51.712C6.27111 51.774 6.31203 51.8462 6.34272 51.9237" stroke="black" stroke-width="0.2" stroke-miterlimit="10"/>
<path d="M0.0511517 50.9066V11.3275H3.44757V91.9726H0.0511517V50.9066Z" stroke="black" stroke-width="0.2" stroke-miterlimit="10"/>
<path d="M0.0511551 0.0516357H41.9489V10.2071H0.0511551V0.0516357Z" stroke="black" stroke-width="0.2" stroke-miterlimit="10"/>
<path d="M0.0511551 10.2071H41.9489V11.3223H0.0511551V10.2071Z" stroke="black" stroke-width="0.2" stroke-miterlimit="10"/>
</g>
<defs>
<clipPath id="clip0_107_2363">
<rect width="42" height="93" fill="white" transform="matrix(-1 0 0 1 42 0)"/>
</clipPath>
</defs>
</svg>
