<svg width="44" height="93" viewBox="0 0 44 93" fill="none" xmlns="http://www.w3.org/2000/svg">
<g clip-path="url(#clip0_40_8426)">
<path d="M40.1351 92.0552V2.61761" stroke="black" stroke-width="0.2" stroke-miterlimit="10"/>
<path d="M37.3343 92.0552V2.61761" stroke="black" stroke-width="0.2" stroke-miterlimit="10"/>
<path d="M29.3385 92.0552V2.61761" stroke="black" stroke-width="0.2" stroke-miterlimit="10"/>
<path d="M26.5377 92.0552V2.61761" stroke="black" stroke-width="0.2" stroke-miterlimit="10"/>
<path d="M18.542 92.0552V2.61761" stroke="black" stroke-width="0.2" stroke-miterlimit="10"/>
<path d="M15.7411 92.0552V2.61761" stroke="black" stroke-width="0.2" stroke-miterlimit="10"/>
<path d="M7.74538 92.0552V2.61761" stroke="black" stroke-width="0.2" stroke-miterlimit="10"/>
<path d="M4.94452 92.0552V2.61761" stroke="black" stroke-width="0.2" stroke-miterlimit="10"/>
<path d="M42.816 92.1016V2.61761" stroke="black" stroke-width="0.2" stroke-miterlimit="10"/>
<path d="M32.0194 2.61761H34.7368V92.1016H32.0194V2.61761Z" fill="#E5E5E5"/>
<path d="M32.0194 2.61761H34.7368V92.1016H32.0194V2.61761Z" stroke="black" stroke-width="0.2" stroke-miterlimit="10"/>
<path d="M21.2229 2.61761H23.9403V92.1016H21.2229V2.61761Z" fill="#E5E5E5"/>
<path d="M21.2229 2.61761H23.9403V92.1016H21.2229V2.61761Z" stroke="black" stroke-width="0.2" stroke-miterlimit="10"/>
<path d="M10.4263 2.61761H13.1854V92.1016H10.4263V2.61761Z" fill="#E5E5E5"/>
<path d="M10.4263 2.61761H13.1854V92.1016H10.4263V2.61761Z" stroke="black" stroke-width="0.2" stroke-miterlimit="10"/>
<path d="M2.38881 2.61761V92.1016" stroke="black" stroke-width="0.2" stroke-miterlimit="10"/>
<path d="M1.2257 0.0516357H43.9478V92.9484H1.2257V0.0516357Z" fill="white"/>
<path d="M1.2257 0.0516357H43.9478V92.9484H1.2257V0.0516357Z" stroke="black" stroke-width="0.2" stroke-miterlimit="10"/>
<path d="M40.4846 11.3275H43.9478V91.9726H40.4846V11.3275Z" fill="white"/>
<path d="M40.4846 11.3275H43.9478V91.9726H40.4846V11.3275Z" stroke="black" stroke-width="0.2" stroke-miterlimit="10"/>
<path d="M4.68895 11.3275H40.4846V12.3652H4.68895V11.3275Z" fill="white"/>
<path d="M4.68895 11.3275H40.4846V12.3652H4.68895V11.3275Z" stroke="black" stroke-width="0.2" stroke-miterlimit="10"/>
<path d="M4.68895 90.9297H40.4846V91.9674H4.68895V90.9297Z" fill="white"/>
<path d="M4.68895 90.9297H40.4846V91.9674H4.68895V90.9297Z" stroke="black" stroke-width="0.2" stroke-miterlimit="10"/>
<path d="M4.80891 49.7243V12.4788H40.3698V90.7386H4.80891V49.7243Z" fill="white"/>
<path d="M4.80891 49.7243V12.4788H40.3698V90.7386H4.80891V49.7243Z" stroke="black" stroke-width="0.2" stroke-miterlimit="10"/>
<path d="M1.2257 11.3275H43.9478" stroke="black" stroke-width="0.2" stroke-miterlimit="10"/>
<path d="M43.9478 11.3275V91.9726" stroke="black" stroke-width="0.2" stroke-miterlimit="10"/>
<path d="M4.68895 12.3652H40.4846" stroke="black" stroke-width="0.2" stroke-miterlimit="10"/>
<path d="M40.4846 11.3275V20.8273" stroke="black" stroke-width="0.2" stroke-miterlimit="10"/>
<path d="M40.4846 90.9297H4.68895" stroke="black" stroke-width="0.2" stroke-miterlimit="10"/>
<path d="M40.3698 12.4788V20.8273" stroke="black" stroke-width="0.2" stroke-miterlimit="10"/>
<path d="M4.80891 12.4788H40.3698" stroke="black" stroke-width="0.2" stroke-miterlimit="10"/>
<path d="M40.3698 90.7386H4.80891" stroke="black" stroke-width="0.2" stroke-miterlimit="10"/>
<path d="M40.4846 84.4502V91.9726" stroke="black" stroke-width="0.2" stroke-miterlimit="10"/>
<path d="M40.3698 84.4502V90.7386" stroke="black" stroke-width="0.2" stroke-miterlimit="10"/>
<path d="M40.4846 52.5587V79.8293" stroke="black" stroke-width="0.2" stroke-miterlimit="10"/>
<path d="M40.3698 52.5587V79.8293" stroke="black" stroke-width="0.2" stroke-miterlimit="10"/>
<path d="M40.4846 25.4481V47.9379" stroke="black" stroke-width="0.2" stroke-miterlimit="10"/>
<path d="M40.3698 25.4481V47.9379" stroke="black" stroke-width="0.2" stroke-miterlimit="10"/>
<path d="M40.1403 20.9409H40.6828V25.3294H40.1403V20.9409Z" stroke="black" stroke-width="0.2" stroke-miterlimit="10"/>
<path d="M40.1403 21.5966H40.6828" stroke="black" stroke-width="0.2" stroke-miterlimit="10"/>
<path d="M40.6828 21.9063H40.1403" stroke="black" stroke-width="0.2" stroke-miterlimit="10"/>
<path d="M40.1403 22.7531H40.6828" stroke="black" stroke-width="0.2" stroke-miterlimit="10"/>
<path d="M40.6828 23.5223H40.1403" stroke="black" stroke-width="0.2" stroke-miterlimit="10"/>
<path d="M40.1403 24.3691H40.6828" stroke="black" stroke-width="0.2" stroke-miterlimit="10"/>
<path d="M40.6828 24.6788H40.1403" stroke="black" stroke-width="0.2" stroke-miterlimit="10"/>
<path d="M40.1403 20.8273H40.6828" stroke="black" stroke-width="0.2" stroke-miterlimit="10"/>
<path d="M40.1403 25.4481H40.6828" stroke="black" stroke-width="0.2" stroke-miterlimit="10"/>
<path d="M40.1403 48.0515H40.6828V52.4399H40.1403V48.0515Z" stroke="black" stroke-width="0.2" stroke-miterlimit="10"/>
<path d="M40.1403 48.7072H40.6828" stroke="black" stroke-width="0.2" stroke-miterlimit="10"/>
<path d="M40.6828 49.0118H40.1403" stroke="black" stroke-width="0.2" stroke-miterlimit="10"/>
<path d="M40.1403 49.8636H40.6828" stroke="black" stroke-width="0.2" stroke-miterlimit="10"/>
<path d="M40.6828 50.6329H40.1403" stroke="black" stroke-width="0.2" stroke-miterlimit="10"/>
<path d="M40.1403 51.4796H40.6828" stroke="black" stroke-width="0.2" stroke-miterlimit="10"/>
<path d="M40.6828 51.7894H40.1403" stroke="black" stroke-width="0.2" stroke-miterlimit="10"/>
<path d="M40.1403 47.9379H40.6828" stroke="black" stroke-width="0.2" stroke-miterlimit="10"/>
<path d="M40.1403 52.5587H40.6828" stroke="black" stroke-width="0.2" stroke-miterlimit="10"/>
<path d="M40.1403 79.9481H40.6828V84.3366H40.1403V79.9481Z" stroke="black" stroke-width="0.2" stroke-miterlimit="10"/>
<path d="M40.1403 80.5986H40.6828" stroke="black" stroke-width="0.2" stroke-miterlimit="10"/>
<path d="M40.6828 80.9084H40.1403" stroke="black" stroke-width="0.2" stroke-miterlimit="10"/>
<path d="M40.1403 81.7551H40.6828" stroke="black" stroke-width="0.2" stroke-miterlimit="10"/>
<path d="M40.6828 82.5244H40.1403" stroke="black" stroke-width="0.2" stroke-miterlimit="10"/>
<path d="M40.1403 83.3763H40.6828" stroke="black" stroke-width="0.2" stroke-miterlimit="10"/>
<path d="M40.6828 83.6809H40.1403" stroke="black" stroke-width="0.2" stroke-miterlimit="10"/>
<path d="M40.1403 79.8293H40.6828" stroke="black" stroke-width="0.2" stroke-miterlimit="10"/>
<path d="M40.1403 84.4502H40.6828" stroke="black" stroke-width="0.2" stroke-miterlimit="10"/>
<path d="M1.2257 91.9726V92.9484H43.9478V91.9726H1.2257Z" fill="white"/>
<path d="M1.2257 91.9726V92.9484H43.9478V91.9726H1.2257Z" stroke="black" stroke-width="0.2" stroke-miterlimit="10"/>
<path d="M7.67236 52.0321H6.86914C6.7231 52.0424 6.60314 52.156 6.5927 52.3005C6.57706 52.4451 6.67094 52.5793 6.81177 52.6155H7.64629" stroke="black" stroke-width="0.2" stroke-miterlimit="10"/>
<path d="M7.67758 52.0321C7.66715 51.9908 7.65672 51.9547 7.64107 51.9185" stroke="black" stroke-width="0.2" stroke-miterlimit="10"/>
<path d="M7.64107 52.6155H10.9166L11.4694 52.4916V52.1818L10.8435 52.0321H7.67236" stroke="black" stroke-width="0.2" stroke-miterlimit="10"/>
<path d="M7.64627 52.6155C7.61498 52.6981 7.57325 52.7704 7.52109 52.8427C7.34375 53.0802 7.05689 53.2351 6.73352 53.2351C6.19629 53.2351 5.76339 52.8014 5.76339 52.2748C5.76339 51.7481 6.20151 51.3145 6.73352 51.3145C7.05689 51.3145 7.34375 51.4693 7.52109 51.712C7.56803 51.774 7.60976 51.8462 7.64105 51.9237" stroke="black" stroke-width="0.2" stroke-miterlimit="10"/>
<path d="M1.2257 50.9066V11.3275H4.68895V91.9726H1.2257V50.9066Z" stroke="black" stroke-width="0.2" stroke-miterlimit="10"/>
<path d="M1.2257 0.0516357H43.9478V10.2071H1.2257V0.0516357Z" fill="white"/>
<path d="M1.2257 0.0516357H43.9478V10.2071H1.2257V0.0516357Z" stroke="black" stroke-width="0.2" stroke-miterlimit="10"/>
<path d="M1.2257 10.2071H43.9478V11.3223H1.2257V10.2071Z" fill="white"/>
<path d="M1.2257 10.2071H43.9478V11.3223H1.2257V10.2071Z" stroke="black" stroke-width="0.2" stroke-miterlimit="10"/>
<path d="M3.88573 49.0789V49.5539H0.0521574V42.7285H3.88573V49.0789Z" fill="white"/>
<path d="M3.88573 49.0789V49.5539H0.0521574V42.7285H3.88573V49.0789Z" stroke="black" stroke-width="0.2" stroke-miterlimit="10"/>
<path d="M8.83546 49.0789H0.980554C0.782356 49.084 0.615454 48.924 0.615454 48.7278V45.9243H8.83546V49.0789Z" fill="white"/>
<path d="M8.83546 49.0789H0.980554C0.782356 49.084 0.615454 48.924 0.615454 48.7278V45.9243H8.83546V49.0789Z" stroke="black" stroke-width="0.2" stroke-miterlimit="10"/>
<path d="M9.71692 49.0841H7.954C7.79753 49.1099 7.63063 49.0686 7.50545 48.9705C6.97344 48.5471 6.45187 48.036 6.20152 47.4732C6.05547 47.2151 5.77383 47.0499 5.46088 47.0447C5.14794 47.0395 4.85586 47.1893 4.69938 47.4371C4.51683 47.7365 4.16738 47.9689 3.73968 48.1031C3.00426 48.258 2.25842 47.9121 1.90896 47.2512C1.84116 46.6007 1.26221 46.0637 0.610239 45.9295V43.4151C0.610239 43.2293 0.761495 43.0796 0.944046 43.0796H9.68041C9.86296 43.0796 10.0142 43.2293 10.0142 43.4151V48.7536C10.009 48.9395 9.85775 49.0892 9.6752 49.0892" fill="white"/>
<path d="M9.71692 49.0841H7.954C7.79753 49.1099 7.63063 49.0686 7.50545 48.9705C6.97344 48.5471 6.45187 48.036 6.20152 47.4732C6.05547 47.2151 5.77383 47.0499 5.46088 47.0447C5.14794 47.0395 4.85586 47.1893 4.69938 47.4371C4.51683 47.7365 4.16738 47.9689 3.73968 48.1031C3.00426 48.258 2.25842 47.9121 1.90896 47.2512C1.84116 46.6007 1.26221 46.0637 0.610239 45.9295V43.4151C0.610239 43.2293 0.761495 43.0796 0.944046 43.0796H9.68041C9.86296 43.0796 10.0142 43.2293 10.0142 43.4151V48.7536C10.009 48.9395 9.85775 49.0892 9.6752 49.0892" stroke="black" stroke-width="0.2" stroke-miterlimit="10"/>
</g>
<defs>
<clipPath id="clip0_40_8426">
<rect width="44" height="93" fill="white" transform="matrix(-1 0 0 1 44 0)"/>
</clipPath>
</defs>
</svg>
