<svg width="44" height="95" viewBox="0 0 44 95" fill="none" xmlns="http://www.w3.org/2000/svg">
<g clip-path="url(#clip0_469_917)">
<path d="M3.84001 14.83L0.450012 12.81H43.52L39.89 14.83H3.84001Z" fill="white"/>
<path d="M43.04 12.93L39.86 14.7H3.91L0.91 12.93H43.04ZM44 12.68H0L3.84 14.95H39.92L44 12.68Z" fill="#231F20"/>
<path d="M39.93 14.88V93.97H44L43.86 12.68L39.93 14.88Z" fill="white" stroke="#231F20" stroke-width="0.25" stroke-miterlimit="10"/>
<path d="M3.84 14.88V93.97H0L0.13 12.68L3.84 14.88Z" fill="white" stroke="#231F20" stroke-width="0.25" stroke-miterlimit="10"/>
<path d="M3.85073 93.9766H39.9307L39.9307 14.9566H3.85073L3.85073 93.9766Z" fill="white" stroke="#231F20" stroke-width="0.2" stroke-miterlimit="10" stroke-linecap="round" stroke-linejoin="round"/>
<path d="M1.42001 53.34H6.07001V51.22H0.76001V52.68C0.76001 53.04 1.06001 53.34 1.42001 53.34Z" fill="white" stroke="#231F20" stroke-width="0.2" stroke-miterlimit="10"/>
<path d="M8.26002 52.94C8.27002 53.16 8.09002 53.35 7.87002 53.35H6.07002C6.07002 53.35 5.49002 53.52 5.08002 53.07C4.67002 52.63 4.01002 52.3 3.43002 52.44C2.85002 52.58 1.97002 53.07 1.37002 52.77C0.760024 52.47 0.650024 52.41 0.650024 52.41V49.45C0.650024 49.23 0.820024 49.06 1.04002 49.06H7.71002C7.92002 49.06 8.09002 49.22 8.10002 49.43L8.26002 52.94Z" fill="white" stroke="#231F20" stroke-width="0.2" stroke-miterlimit="10"/>
<path d="M5.92038 56.7683H8.26038V54.4283H5.92038V56.7683Z" fill="white" stroke="#231F20" stroke-width="0.2" stroke-miterlimit="10"/>
<path d="M6.7917 55.8534H11.3017V55.2234H6.7917V55.8534Z" fill="white" stroke="#231F20" stroke-width="0.2" stroke-miterlimit="10" stroke-linecap="round" stroke-linejoin="round"/>
<path d="M0.0831833 12.6851L43.7632 12.6851V11.9851L0.0831833 11.9851V12.6851Z" fill="white" stroke="#231F20" stroke-width="0.25" stroke-miterlimit="10"/>
<path d="M0.0858269 11.9847L43.8458 11.9847V0.134681L0.0858269 0.134681V11.9847Z" fill="white" stroke="#231F20" stroke-width="0.25" stroke-miterlimit="10"/>
<path d="M0.00242615 94.9974H43.8624V93.9174H0.00242615V94.9974Z" fill="white" stroke="#231F20" stroke-width="0.25" stroke-miterlimit="10"/>
</g>
<defs>
<clipPath id="clip0_469_917">
<rect width="44" height="95" fill="white"/>
</clipPath>
</defs>
</svg>
