<svg width="42" height="93" viewBox="0 0 42 93" fill="none" xmlns="http://www.w3.org/2000/svg">
<g clip-path="url(#clip0_40_8767)">
<rect width="82" height="180" fill="white"/>
<path d="M41.9488 0.0516357H0.0511475V92.9484H41.9488V0.0516357Z" stroke="black" stroke-width="0.2" stroke-miterlimit="10"/>
<path d="M3.44757 11.3275H0.0511475V91.9726H3.44757V11.3275Z" stroke="black" stroke-width="0.2" stroke-miterlimit="10"/>
<path d="M38.5524 11.3275H3.44757V12.3652H38.5524V11.3275Z" stroke="black" stroke-width="0.2" stroke-miterlimit="10"/>
<path d="M38.5524 90.9297H3.44757V91.9674H38.5524V90.9297Z" stroke="black" stroke-width="0.2" stroke-miterlimit="10"/>
<path d="M38.4348 49.7243V12.4788H3.56012V90.7386H38.4348V49.7243Z" stroke="black" stroke-width="0.2" stroke-miterlimit="10"/>
<path d="M41.9488 11.3275H0.0511475" stroke="black" stroke-width="0.2" stroke-miterlimit="10"/>
<path d="M0.0511475 11.3275V91.9726" stroke="black" stroke-width="0.2" stroke-miterlimit="10"/>
<path d="M38.5524 12.3652H3.44757" stroke="black" stroke-width="0.2" stroke-miterlimit="10"/>
<path d="M3.44757 11.3275V20.8273" stroke="black" stroke-width="0.2" stroke-miterlimit="10"/>
<path d="M3.44757 90.9297H38.5524" stroke="black" stroke-width="0.2" stroke-miterlimit="10"/>
<path d="M3.56012 12.4788V20.8273" stroke="black" stroke-width="0.2" stroke-miterlimit="10"/>
<path d="M38.4348 12.4788H3.56012" stroke="black" stroke-width="0.2" stroke-miterlimit="10"/>
<path d="M3.56012 90.7386H38.4348" stroke="black" stroke-width="0.2" stroke-miterlimit="10"/>
<path d="M3.44757 84.4502V91.9726" stroke="black" stroke-width="0.2" stroke-miterlimit="10"/>
<path d="M3.56012 84.4502V90.7386" stroke="black" stroke-width="0.2" stroke-miterlimit="10"/>
<path d="M3.44757 52.5587V79.8293" stroke="black" stroke-width="0.2" stroke-miterlimit="10"/>
<path d="M3.56012 52.5587V79.8293" stroke="black" stroke-width="0.2" stroke-miterlimit="10"/>
<path d="M3.44757 25.4481V47.9379" stroke="black" stroke-width="0.2" stroke-miterlimit="10"/>
<path d="M3.56012 25.4481V47.9379" stroke="black" stroke-width="0.2" stroke-miterlimit="10"/>
<path d="M3.78514 20.9409H3.25317V25.3294H3.78514V20.9409Z" stroke="black" stroke-width="0.2" stroke-miterlimit="10"/>
<path d="M3.78514 21.5966H3.25317" stroke="black" stroke-width="0.2" stroke-miterlimit="10"/>
<path d="M3.25317 21.9063H3.78514" stroke="black" stroke-width="0.2" stroke-miterlimit="10"/>
<path d="M3.78514 22.7531H3.25317" stroke="black" stroke-width="0.2" stroke-miterlimit="10"/>
<path d="M3.25317 23.5223H3.78514" stroke="black" stroke-width="0.2" stroke-miterlimit="10"/>
<path d="M3.78514 24.3691H3.25317" stroke="black" stroke-width="0.2" stroke-miterlimit="10"/>
<path d="M3.25317 24.6788H3.78514" stroke="black" stroke-width="0.2" stroke-miterlimit="10"/>
<path d="M3.78514 20.8273H3.25317" stroke="black" stroke-width="0.2" stroke-miterlimit="10"/>
<path d="M3.78514 25.4481H3.25317" stroke="black" stroke-width="0.2" stroke-miterlimit="10"/>
<path d="M3.78514 48.0515H3.25317V52.4399H3.78514V48.0515Z" stroke="black" stroke-width="0.2" stroke-miterlimit="10"/>
<path d="M3.78514 48.7072H3.25317" stroke="black" stroke-width="0.2" stroke-miterlimit="10"/>
<path d="M3.25317 49.0118H3.78514" stroke="black" stroke-width="0.2" stroke-miterlimit="10"/>
<path d="M3.78514 49.8636H3.25317" stroke="black" stroke-width="0.2" stroke-miterlimit="10"/>
<path d="M3.25317 50.6329H3.78514" stroke="black" stroke-width="0.2" stroke-miterlimit="10"/>
<path d="M3.78514 51.4796H3.25317" stroke="black" stroke-width="0.2" stroke-miterlimit="10"/>
<path d="M3.25317 51.7894H3.78514" stroke="black" stroke-width="0.2" stroke-miterlimit="10"/>
<path d="M3.78514 47.9379H3.25317" stroke="black" stroke-width="0.2" stroke-miterlimit="10"/>
<path d="M3.78514 52.5587H3.25317" stroke="black" stroke-width="0.2" stroke-miterlimit="10"/>
<path d="M3.78514 79.9481H3.25317V84.3366H3.78514V79.9481Z" stroke="black" stroke-width="0.2" stroke-miterlimit="10"/>
<path d="M3.78514 80.5986H3.25317" stroke="black" stroke-width="0.2" stroke-miterlimit="10"/>
<path d="M3.25317 80.9084H3.78514" stroke="black" stroke-width="0.2" stroke-miterlimit="10"/>
<path d="M3.78514 81.7551H3.25317" stroke="black" stroke-width="0.2" stroke-miterlimit="10"/>
<path d="M3.25317 82.5244H3.78514" stroke="black" stroke-width="0.2" stroke-miterlimit="10"/>
<path d="M3.78514 83.3763H3.25317" stroke="black" stroke-width="0.2" stroke-miterlimit="10"/>
<path d="M3.25317 83.6809H3.78514" stroke="black" stroke-width="0.2" stroke-miterlimit="10"/>
<path d="M3.78514 79.8293H3.25317" stroke="black" stroke-width="0.2" stroke-miterlimit="10"/>
<path d="M3.78514 84.4502H3.25317" stroke="black" stroke-width="0.2" stroke-miterlimit="10"/>
<path d="M41.9488 91.9726V92.9484H0.0511475V91.9726H41.9488Z" stroke="black" stroke-width="0.2" stroke-miterlimit="10"/>
<path d="M35.6266 52.0321H36.4143C36.5575 52.0424 36.6752 52.156 36.6854 52.3005C36.7008 52.4451 36.6087 52.5793 36.4706 52.6155H35.6522" stroke="black" stroke-width="0.2" stroke-miterlimit="10"/>
<path d="M35.6215 52.0321C35.6317 51.9908 35.6419 51.9547 35.6573 51.9185" stroke="black" stroke-width="0.2" stroke-miterlimit="10"/>
<path d="M35.6573 52.6155H32.445L31.9028 52.4916V52.1818L32.5166 52.0321H35.6266" stroke="black" stroke-width="0.2" stroke-miterlimit="10"/>
<path d="M35.6522 52.6155C35.6829 52.6981 35.7238 52.7704 35.7749 52.8427C35.9488 53.0802 36.2302 53.2351 36.5473 53.2351C37.0742 53.2351 37.4987 52.8014 37.4987 52.2748C37.4987 51.7481 37.069 51.3145 36.5473 51.3145C36.2302 51.3145 35.9488 51.4693 35.7749 51.712C35.7289 51.774 35.688 51.8462 35.6573 51.9237" stroke="black" stroke-width="0.2" stroke-miterlimit="10"/>
<path d="M41.9488 50.9066V11.3275H38.5524V91.9726H41.9488V50.9066Z" stroke="black" stroke-width="0.2" stroke-miterlimit="10"/>
<path d="M41.9488 0.0516357H0.0511475V10.2071H41.9488V0.0516357Z" stroke="black" stroke-width="0.2" stroke-miterlimit="10"/>
<path d="M41.9488 10.2071H0.0511475V11.3223H41.9488V10.2071Z" stroke="black" stroke-width="0.2" stroke-miterlimit="10"/>
</g>
<defs>
<clipPath id="clip0_40_8767">
<rect width="42" height="93" fill="white"/>
</clipPath>
</defs>
</svg>
