<svg width="44" height="93" viewBox="0 0 44 93" fill="none" xmlns="http://www.w3.org/2000/svg">
<g clip-path="url(#clip0_40_8341)">
<path d="M3.86487 92.0552V2.61761" stroke="black" stroke-width="0.2" stroke-miterlimit="10"/>
<path d="M6.66571 92.0552V2.61761" stroke="black" stroke-width="0.2" stroke-miterlimit="10"/>
<path d="M14.6615 92.0552V2.61761" stroke="black" stroke-width="0.2" stroke-miterlimit="10"/>
<path d="M17.4623 92.0552V2.61761" stroke="black" stroke-width="0.2" stroke-miterlimit="10"/>
<path d="M25.458 92.0552V2.61761" stroke="black" stroke-width="0.2" stroke-miterlimit="10"/>
<path d="M28.2589 92.0552V2.61761" stroke="black" stroke-width="0.2" stroke-miterlimit="10"/>
<path d="M36.2546 92.0552V2.61761" stroke="black" stroke-width="0.2" stroke-miterlimit="10"/>
<path d="M39.0555 92.0552V2.61761" stroke="black" stroke-width="0.2" stroke-miterlimit="10"/>
<path d="M1.18398 92.1016V2.61761" stroke="black" stroke-width="0.2" stroke-miterlimit="10"/>
<path d="M11.9806 2.61761H9.26315V92.1016H11.9806V2.61761Z" fill="#E5E5E5"/>
<path d="M11.9806 2.61761H9.26315V92.1016H11.9806V2.61761Z" stroke="black" stroke-width="0.2" stroke-miterlimit="10"/>
<path d="M22.7771 2.61761H20.0597V92.1016H22.7771V2.61761Z" fill="#E5E5E5"/>
<path d="M22.7771 2.61761H20.0597V92.1016H22.7771V2.61761Z" stroke="black" stroke-width="0.2" stroke-miterlimit="10"/>
<path d="M33.5737 2.61761H30.8146V92.1016H33.5737V2.61761Z" fill="#E5E5E5"/>
<path d="M33.5737 2.61761H30.8146V92.1016H33.5737V2.61761Z" stroke="black" stroke-width="0.2" stroke-miterlimit="10"/>
<path d="M41.6112 2.61761V92.1016" stroke="black" stroke-width="0.2" stroke-miterlimit="10"/>
<path d="M42.7743 0.0516357H0.0521545V92.9484H42.7743V0.0516357Z" fill="white"/>
<path d="M42.7743 0.0516357H0.0521545V92.9484H42.7743V0.0516357Z" stroke="black" stroke-width="0.2" stroke-miterlimit="10"/>
<path d="M3.51541 11.3275H0.0521545V91.9726H3.51541V11.3275Z" fill="white"/>
<path d="M3.51541 11.3275H0.0521545V91.9726H3.51541V11.3275Z" stroke="black" stroke-width="0.2" stroke-miterlimit="10"/>
<path d="M39.3111 11.3275H3.51541V12.3652H39.3111V11.3275Z" fill="white"/>
<path d="M39.3111 11.3275H3.51541V12.3652H39.3111V11.3275Z" stroke="black" stroke-width="0.2" stroke-miterlimit="10"/>
<path d="M39.3111 90.9297H3.51541V91.9674H39.3111V90.9297Z" fill="white"/>
<path d="M39.3111 90.9297H3.51541V91.9674H39.3111V90.9297Z" stroke="black" stroke-width="0.2" stroke-miterlimit="10"/>
<path d="M39.1911 49.7243V12.4788H3.63016V90.7386H39.1911V49.7243Z" fill="white"/>
<path d="M39.1911 49.7243V12.4788H3.63016V90.7386H39.1911V49.7243Z" stroke="black" stroke-width="0.2" stroke-miterlimit="10"/>
<path d="M42.7743 11.3275H0.0521545" stroke="black" stroke-width="0.2" stroke-miterlimit="10"/>
<path d="M0.0521545 11.3275V91.9726" stroke="black" stroke-width="0.2" stroke-miterlimit="10"/>
<path d="M39.3111 12.3652H3.51541" stroke="black" stroke-width="0.2" stroke-miterlimit="10"/>
<path d="M3.51541 11.3275V20.8273" stroke="black" stroke-width="0.2" stroke-miterlimit="10"/>
<path d="M3.51541 90.9297H39.3111" stroke="black" stroke-width="0.2" stroke-miterlimit="10"/>
<path d="M3.63016 12.4788V20.8273" stroke="black" stroke-width="0.2" stroke-miterlimit="10"/>
<path d="M39.1911 12.4788H3.63016" stroke="black" stroke-width="0.2" stroke-miterlimit="10"/>
<path d="M3.63016 90.7386H39.1911" stroke="black" stroke-width="0.2" stroke-miterlimit="10"/>
<path d="M3.51541 84.4502V91.9726" stroke="black" stroke-width="0.2" stroke-miterlimit="10"/>
<path d="M3.63016 84.4502V90.7386" stroke="black" stroke-width="0.2" stroke-miterlimit="10"/>
<path d="M3.51541 52.5587V79.8293" stroke="black" stroke-width="0.2" stroke-miterlimit="10"/>
<path d="M3.63016 52.5587V79.8293" stroke="black" stroke-width="0.2" stroke-miterlimit="10"/>
<path d="M3.51541 25.4481V47.9379" stroke="black" stroke-width="0.2" stroke-miterlimit="10"/>
<path d="M3.63016 25.4481V47.9379" stroke="black" stroke-width="0.2" stroke-miterlimit="10"/>
<path d="M3.85965 20.9409H3.31721V25.3294H3.85965V20.9409Z" stroke="black" stroke-width="0.2" stroke-miterlimit="10"/>
<path d="M3.85965 21.5966H3.31721" stroke="black" stroke-width="0.2" stroke-miterlimit="10"/>
<path d="M3.31721 21.9063H3.85965" stroke="black" stroke-width="0.2" stroke-miterlimit="10"/>
<path d="M3.85965 22.7531H3.31721" stroke="black" stroke-width="0.2" stroke-miterlimit="10"/>
<path d="M3.31721 23.5223H3.85965" stroke="black" stroke-width="0.2" stroke-miterlimit="10"/>
<path d="M3.85965 24.3691H3.31721" stroke="black" stroke-width="0.2" stroke-miterlimit="10"/>
<path d="M3.31721 24.6788H3.85965" stroke="black" stroke-width="0.2" stroke-miterlimit="10"/>
<path d="M3.85965 20.8273H3.31721" stroke="black" stroke-width="0.2" stroke-miterlimit="10"/>
<path d="M3.85965 25.4481H3.31721" stroke="black" stroke-width="0.2" stroke-miterlimit="10"/>
<path d="M3.85965 48.0515H3.31721V52.4399H3.85965V48.0515Z" stroke="black" stroke-width="0.2" stroke-miterlimit="10"/>
<path d="M3.85965 48.7072H3.31721" stroke="black" stroke-width="0.2" stroke-miterlimit="10"/>
<path d="M3.31721 49.0118H3.85965" stroke="black" stroke-width="0.2" stroke-miterlimit="10"/>
<path d="M3.85965 49.8636H3.31721" stroke="black" stroke-width="0.2" stroke-miterlimit="10"/>
<path d="M3.31721 50.6329H3.85965" stroke="black" stroke-width="0.2" stroke-miterlimit="10"/>
<path d="M3.85965 51.4796H3.31721" stroke="black" stroke-width="0.2" stroke-miterlimit="10"/>
<path d="M3.31721 51.7894H3.85965" stroke="black" stroke-width="0.2" stroke-miterlimit="10"/>
<path d="M3.85965 47.9379H3.31721" stroke="black" stroke-width="0.2" stroke-miterlimit="10"/>
<path d="M3.85965 52.5587H3.31721" stroke="black" stroke-width="0.2" stroke-miterlimit="10"/>
<path d="M3.85965 79.9481H3.31721V84.3366H3.85965V79.9481Z" stroke="black" stroke-width="0.2" stroke-miterlimit="10"/>
<path d="M3.85965 80.5986H3.31721" stroke="black" stroke-width="0.2" stroke-miterlimit="10"/>
<path d="M3.31721 80.9084H3.85965" stroke="black" stroke-width="0.2" stroke-miterlimit="10"/>
<path d="M3.85965 81.7551H3.31721" stroke="black" stroke-width="0.2" stroke-miterlimit="10"/>
<path d="M3.31721 82.5244H3.85965" stroke="black" stroke-width="0.2" stroke-miterlimit="10"/>
<path d="M3.85965 83.3763H3.31721" stroke="black" stroke-width="0.2" stroke-miterlimit="10"/>
<path d="M3.31721 83.6809H3.85965" stroke="black" stroke-width="0.2" stroke-miterlimit="10"/>
<path d="M3.85965 79.8293H3.31721" stroke="black" stroke-width="0.2" stroke-miterlimit="10"/>
<path d="M3.85965 84.4502H3.31721" stroke="black" stroke-width="0.2" stroke-miterlimit="10"/>
<path d="M42.7743 91.9726V92.9484H0.0521545V91.9726H42.7743Z" fill="white"/>
<path d="M42.7743 91.9726V92.9484H0.0521545V91.9726H42.7743Z" stroke="black" stroke-width="0.2" stroke-miterlimit="10"/>
<path d="M36.3276 52.0321H37.1309C37.2769 52.0424 37.3969 52.156 37.4073 52.3005C37.4229 52.4451 37.3291 52.5793 37.1882 52.6155H36.3537" stroke="black" stroke-width="0.2" stroke-miterlimit="10"/>
<path d="M36.3224 52.0321C36.3328 51.9908 36.3433 51.9547 36.3589 51.9185" stroke="black" stroke-width="0.2" stroke-miterlimit="10"/>
<path d="M36.3589 52.6155H33.0834L32.5306 52.4916V52.1818L33.1565 52.0321H36.3276" stroke="black" stroke-width="0.2" stroke-miterlimit="10"/>
<path d="M36.3537 52.6155C36.385 52.6981 36.4268 52.7704 36.4789 52.8427C36.6562 53.0802 36.9431 53.2351 37.2665 53.2351C37.8037 53.2351 38.2366 52.8014 38.2366 52.2748C38.2366 51.7481 37.7985 51.3145 37.2665 51.3145C36.9431 51.3145 36.6562 51.4693 36.4789 51.712C36.432 51.774 36.3902 51.8462 36.3589 51.9237" stroke="black" stroke-width="0.2" stroke-miterlimit="10"/>
<path d="M42.7743 50.9066V11.3275H39.3111V91.9726H42.7743V50.9066Z" stroke="black" stroke-width="0.2" stroke-miterlimit="10"/>
<path d="M42.7743 0.0516357H0.0521545V10.2071H42.7743V0.0516357Z" fill="white"/>
<path d="M42.7743 0.0516357H0.0521545V10.2071H42.7743V0.0516357Z" stroke="black" stroke-width="0.2" stroke-miterlimit="10"/>
<path d="M42.7743 10.2071H0.0521545V11.3223H42.7743V10.2071Z" fill="white"/>
<path d="M42.7743 10.2071H0.0521545V11.3223H42.7743V10.2071Z" stroke="black" stroke-width="0.2" stroke-miterlimit="10"/>
<path d="M40.1143 49.0789V49.5539H43.9478V42.7285H40.1143V49.0789Z" fill="white"/>
<path d="M40.1143 49.0789V49.5539H43.9478V42.7285H40.1143V49.0789Z" stroke="black" stroke-width="0.2" stroke-miterlimit="10"/>
<path d="M35.1645 49.0789H43.0194C43.2176 49.084 43.3845 48.924 43.3845 48.7278V45.9243H35.1645V49.0789Z" fill="white"/>
<path d="M35.1645 49.0789H43.0194C43.2176 49.084 43.3845 48.924 43.3845 48.7278V45.9243H35.1645V49.0789Z" stroke="black" stroke-width="0.2" stroke-miterlimit="10"/>
<path d="M34.2831 49.0841H36.046C36.2025 49.1099 36.3694 49.0686 36.4945 48.9705C37.0266 48.5471 37.5481 48.036 37.7985 47.4732C37.9445 47.2151 38.2262 47.0499 38.5391 47.0447C38.8521 47.0395 39.1441 47.1893 39.3006 47.4371C39.4832 47.7365 39.8326 47.9689 40.2603 48.1031C40.9957 48.258 41.7416 47.9121 42.091 47.2512C42.1588 46.6007 42.7378 46.0637 43.3898 45.9295V43.4151C43.3898 43.2293 43.2385 43.0796 43.056 43.0796H34.3196C34.137 43.0796 33.9858 43.2293 33.9858 43.4151V48.7536C33.991 48.9395 34.1422 49.0892 34.3248 49.0892" fill="white"/>
<path d="M34.2831 49.0841H36.046C36.2025 49.1099 36.3694 49.0686 36.4945 48.9705C37.0266 48.5471 37.5481 48.036 37.7985 47.4732C37.9445 47.2151 38.2262 47.0499 38.5391 47.0447C38.8521 47.0395 39.1441 47.1893 39.3006 47.4371C39.4832 47.7365 39.8326 47.9689 40.2603 48.1031C40.9957 48.258 41.7416 47.9121 42.091 47.2512C42.1588 46.6007 42.7378 46.0637 43.3898 45.9295V43.4151C43.3898 43.2293 43.2385 43.0796 43.056 43.0796H34.3196C34.137 43.0796 33.9858 43.2293 33.9858 43.4151V48.7536C33.991 48.9395 34.1422 49.0892 34.3248 49.0892" stroke="black" stroke-width="0.2" stroke-miterlimit="10"/>
</g>
<defs>
<clipPath id="clip0_40_8341">
<rect width="44" height="93" fill="white"/>
</clipPath>
</defs>
</svg>
