<svg width="44" height="95" viewBox="0 0 44 95" fill="none" xmlns="http://www.w3.org/2000/svg">
<g clip-path="url(#clip0_424_64)">
<rect width="44" height="95" fill="white"/>
<path d="M43.9464 0.0527344H0.0535889V94.9473H43.9464V0.0527344Z" stroke="black" stroke-width="0.2" stroke-miterlimit="10"/>
<path d="M3.61174 11.5711H0.0535889V93.9505H3.61174V11.5711Z" stroke="black" stroke-width="0.2" stroke-miterlimit="10"/>
<path d="M40.3883 11.5711H3.61174V12.6312H40.3883V11.5711Z" stroke="black" stroke-width="0.2" stroke-miterlimit="10"/>
<path d="M40.3883 92.8851H3.61174V93.9452H40.3883V92.8851Z" stroke="black" stroke-width="0.2" stroke-miterlimit="10"/>
<path d="M40.265 50.7936V12.7472H3.72963V92.69H40.265V50.7936Z" stroke="black" stroke-width="0.2" stroke-miterlimit="10"/>
<path d="M43.9464 11.5711H0.0535889" stroke="black" stroke-width="0.2" stroke-miterlimit="10"/>
<path d="M0.0535889 11.5711V93.9505" stroke="black" stroke-width="0.2" stroke-miterlimit="10"/>
<path d="M40.3883 12.6312H3.61174" stroke="black" stroke-width="0.2" stroke-miterlimit="10"/>
<path d="M3.61174 11.5711V21.2752" stroke="black" stroke-width="0.2" stroke-miterlimit="10"/>
<path d="M3.61174 92.8851H40.3883" stroke="black" stroke-width="0.2" stroke-miterlimit="10"/>
<path d="M3.72963 12.7472V21.2752" stroke="black" stroke-width="0.2" stroke-miterlimit="10"/>
<path d="M40.265 12.7472H3.72963" stroke="black" stroke-width="0.2" stroke-miterlimit="10"/>
<path d="M3.72963 92.69H40.265" stroke="black" stroke-width="0.2" stroke-miterlimit="10"/>
<path d="M3.61174 86.2663V93.9505" stroke="black" stroke-width="0.2" stroke-miterlimit="10"/>
<path d="M3.72963 86.2663V92.69" stroke="black" stroke-width="0.2" stroke-miterlimit="10"/>
<path d="M3.61174 53.689V81.5461" stroke="black" stroke-width="0.2" stroke-miterlimit="10"/>
<path d="M3.72963 53.689V81.5461" stroke="black" stroke-width="0.2" stroke-miterlimit="10"/>
<path d="M3.61174 25.9954V48.9688" stroke="black" stroke-width="0.2" stroke-miterlimit="10"/>
<path d="M3.72963 25.9954V48.9688" stroke="black" stroke-width="0.2" stroke-miterlimit="10"/>
<path d="M3.96541 21.3912H3.40811V25.8741H3.96541V21.3912Z" stroke="black" stroke-width="0.2" stroke-miterlimit="10"/>
<path d="M3.96541 22.061H3.40811" stroke="black" stroke-width="0.2" stroke-miterlimit="10"/>
<path d="M3.40811 22.3774H3.96541" stroke="black" stroke-width="0.2" stroke-miterlimit="10"/>
<path d="M3.96541 23.2424H3.40811" stroke="black" stroke-width="0.2" stroke-miterlimit="10"/>
<path d="M3.40811 24.0282H3.96541" stroke="black" stroke-width="0.2" stroke-miterlimit="10"/>
<path d="M3.96541 24.8931H3.40811" stroke="black" stroke-width="0.2" stroke-miterlimit="10"/>
<path d="M3.40811 25.2096H3.96541" stroke="black" stroke-width="0.2" stroke-miterlimit="10"/>
<path d="M3.96541 21.2752H3.40811" stroke="black" stroke-width="0.2" stroke-miterlimit="10"/>
<path d="M3.96541 25.9954H3.40811" stroke="black" stroke-width="0.2" stroke-miterlimit="10"/>
<path d="M3.96541 49.0848H3.40811V53.5677H3.96541V49.0848Z" stroke="black" stroke-width="0.2" stroke-miterlimit="10"/>
<path d="M3.96541 49.7546H3.40811" stroke="black" stroke-width="0.2" stroke-miterlimit="10"/>
<path d="M3.40811 50.0658H3.96541" stroke="black" stroke-width="0.2" stroke-miterlimit="10"/>
<path d="M3.96541 50.936H3.40811" stroke="black" stroke-width="0.2" stroke-miterlimit="10"/>
<path d="M3.40811 51.7218H3.96541" stroke="black" stroke-width="0.2" stroke-miterlimit="10"/>
<path d="M3.96541 52.5867H3.40811" stroke="black" stroke-width="0.2" stroke-miterlimit="10"/>
<path d="M3.40811 52.9032H3.96541" stroke="black" stroke-width="0.2" stroke-miterlimit="10"/>
<path d="M3.96541 48.9688H3.40811" stroke="black" stroke-width="0.2" stroke-miterlimit="10"/>
<path d="M3.96541 53.689H3.40811" stroke="black" stroke-width="0.2" stroke-miterlimit="10"/>
<path d="M3.96541 81.6674H3.40811V86.1503H3.96541V81.6674Z" stroke="black" stroke-width="0.2" stroke-miterlimit="10"/>
<path d="M3.96541 82.3319H3.40811" stroke="black" stroke-width="0.2" stroke-miterlimit="10"/>
<path d="M3.40811 82.6484H3.96541" stroke="black" stroke-width="0.2" stroke-miterlimit="10"/>
<path d="M3.96541 83.5133H3.40811" stroke="black" stroke-width="0.2" stroke-miterlimit="10"/>
<path d="M3.40811 84.2991H3.96541" stroke="black" stroke-width="0.2" stroke-miterlimit="10"/>
<path d="M3.96541 85.1693H3.40811" stroke="black" stroke-width="0.2" stroke-miterlimit="10"/>
<path d="M3.40811 85.4805H3.96541" stroke="black" stroke-width="0.2" stroke-miterlimit="10"/>
<path d="M3.96541 81.5461H3.40811" stroke="black" stroke-width="0.2" stroke-miterlimit="10"/>
<path d="M3.96541 86.2663H3.40811" stroke="black" stroke-width="0.2" stroke-miterlimit="10"/>
<path d="M43.9464 93.9504V94.9472H0.0535889V93.9504H43.9464Z" stroke="black" stroke-width="0.2" stroke-miterlimit="10"/>
<path d="M37.3231 53.1511H38.1483C38.2984 53.1616 38.4216 53.2776 38.4323 53.4253C38.4484 53.573 38.352 53.7101 38.2073 53.747H37.3499" stroke="black" stroke-width="0.2" stroke-miterlimit="10"/>
<path d="M37.3177 53.1511C37.3287 53.1089 37.3397 53.072 37.3561 53.035" stroke="black" stroke-width="0.2" stroke-miterlimit="10"/>
<path d="M37.3553 53.747H33.99L33.422 53.6204V53.304L34.065 53.1511H37.3231" stroke="black" stroke-width="0.2" stroke-miterlimit="10"/>
<path d="M37.3499 53.747C37.3821 53.8314 37.4249 53.9052 37.4785 53.9791C37.6607 54.2217 37.9554 54.3799 38.2877 54.3799C38.8396 54.3799 39.2844 53.9369 39.2844 53.3989C39.2844 52.861 38.8342 52.418 38.2877 52.418C37.9554 52.418 37.6607 52.5762 37.4785 52.8241C37.4303 52.8874 37.3874 52.9612 37.3553 53.0403" stroke="black" stroke-width="0.2" stroke-miterlimit="10"/>
<path d="M43.9464 52.0013V11.5711H40.3883V93.9505H43.9464V52.0013Z" stroke="black" stroke-width="0.2" stroke-miterlimit="10"/>
<path d="M43.9464 0.0527344H0.0535889V10.4266H43.9464V0.0527344Z" stroke="black" stroke-width="0.2" stroke-miterlimit="10"/>
<path d="M43.9464 10.4266H0.0535889V11.5658H43.9464V10.4266Z" stroke="black" stroke-width="0.2" stroke-miterlimit="10"/>
<path d="M40.1285 50.1343V50.6195H43.9621V43.6473H40.1285V50.1343Z" fill="white"/>
<path d="M40.1285 50.1343V50.6195H43.9621V43.6473H40.1285V50.1343Z" stroke="black" stroke-width="0.2" stroke-miterlimit="10"/>
<path d="M35.1788 50.1343H43.0337C43.2319 50.1396 43.3988 49.9761 43.3988 49.7757V46.9119H35.1788V50.1343Z" fill="white"/>
<path d="M35.1788 50.1343H43.0337C43.2319 50.1396 43.3988 49.9761 43.3988 49.7757V46.9119H35.1788V50.1343Z" stroke="black" stroke-width="0.2" stroke-miterlimit="10"/>
<path d="M34.2973 50.1396H36.0602C36.2167 50.166 36.3836 50.1238 36.5088 50.0236C37.0408 49.5911 37.5624 49.069 37.8127 48.4941C37.9587 48.2304 38.2404 48.0617 38.5533 48.0564C38.8663 48.0511 39.1584 48.2041 39.3148 48.4572C39.4974 48.7631 39.8468 49.0004 40.2745 49.1376C41.01 49.2958 41.7558 48.9424 42.1053 48.2673C42.1731 47.6028 42.752 47.0543 43.404 46.9172V44.3488C43.404 44.1589 43.2527 44.006 43.0702 44.006H34.3338C34.1513 44.006 34 44.1589 34 44.3488V49.8021C34.0052 49.9919 34.1565 50.1449 34.339 50.1449" fill="white"/>
<path d="M34.2973 50.1396H36.0602C36.2167 50.166 36.3836 50.1238 36.5088 50.0236C37.0408 49.5911 37.5624 49.069 37.8127 48.4941C37.9587 48.2304 38.2404 48.0617 38.5533 48.0564C38.8663 48.0511 39.1584 48.2041 39.3148 48.4572C39.4974 48.7631 39.8468 49.0004 40.2745 49.1376C41.01 49.2958 41.7558 48.9424 42.1053 48.2673C42.1731 47.6028 42.752 47.0543 43.404 46.9172V44.3488C43.404 44.1589 43.2527 44.006 43.0702 44.006H34.3338C34.1513 44.006 34 44.1589 34 44.3488V49.8021C34.0052 49.9919 34.1565 50.1449 34.339 50.1449" stroke="black" stroke-width="0.2" stroke-miterlimit="10"/>
</g>
<defs>
<clipPath id="clip0_424_64">
<rect width="44" height="95" fill="white"/>
</clipPath>
</defs>
</svg>
