<svg width="44" height="95" viewBox="0 0 44 95" fill="none" xmlns="http://www.w3.org/2000/svg">
<g clip-path="url(#clip0_422_917)">
<rect width="82" height="180" fill="white"/>
<path d="M43.9464 0.0527344H0.0535889V94.9473H43.9464V0.0527344Z" stroke="black" stroke-width="0.2" stroke-miterlimit="10"/>
<path d="M3.61174 11.5711H0.0535889V93.9505H3.61174V11.5711Z" stroke="black" stroke-width="0.2" stroke-miterlimit="10"/>
<path d="M40.3883 11.5711H3.61176V12.6312H40.3883V11.5711Z" stroke="black" stroke-width="0.2" stroke-miterlimit="10"/>
<path d="M40.3883 92.8851H3.61176V93.9452H40.3883V92.8851Z" stroke="black" stroke-width="0.2" stroke-miterlimit="10"/>
<path d="M40.265 50.7936V12.7472H3.72961V92.69H40.265V50.7936Z" stroke="black" stroke-width="0.2" stroke-miterlimit="10"/>
<path d="M43.9464 11.5711H0.0535889" stroke="black" stroke-width="0.2" stroke-miterlimit="10"/>
<path d="M0.0535889 11.5711V93.9505" stroke="black" stroke-width="0.2" stroke-miterlimit="10"/>
<path d="M40.3883 12.6312H3.61176" stroke="black" stroke-width="0.2" stroke-miterlimit="10"/>
<path d="M3.61176 11.5711V21.2752" stroke="black" stroke-width="0.2" stroke-miterlimit="10"/>
<path d="M3.61176 92.8851H40.3883" stroke="black" stroke-width="0.2" stroke-miterlimit="10"/>
<path d="M3.72961 12.7472V21.2752" stroke="black" stroke-width="0.2" stroke-miterlimit="10"/>
<path d="M40.265 12.7472H3.72961" stroke="black" stroke-width="0.2" stroke-miterlimit="10"/>
<path d="M3.72961 92.69H40.265" stroke="black" stroke-width="0.2" stroke-miterlimit="10"/>
<path d="M3.61176 86.2663V93.9505" stroke="black" stroke-width="0.2" stroke-miterlimit="10"/>
<path d="M3.72961 86.2663V92.69" stroke="black" stroke-width="0.2" stroke-miterlimit="10"/>
<path d="M3.61176 53.689V81.5461" stroke="black" stroke-width="0.2" stroke-miterlimit="10"/>
<path d="M3.72961 53.689V81.5461" stroke="black" stroke-width="0.2" stroke-miterlimit="10"/>
<path d="M3.61176 25.9954V48.9688" stroke="black" stroke-width="0.2" stroke-miterlimit="10"/>
<path d="M3.72961 25.9954V48.9688" stroke="black" stroke-width="0.2" stroke-miterlimit="10"/>
<path d="M3.96538 21.3912H3.40808V25.8741H3.96538V21.3912Z" stroke="black" stroke-width="0.2" stroke-miterlimit="10"/>
<path d="M3.96538 22.061H3.40808" stroke="black" stroke-width="0.2" stroke-miterlimit="10"/>
<path d="M3.40808 22.3774H3.96538" stroke="black" stroke-width="0.2" stroke-miterlimit="10"/>
<path d="M3.96538 23.2424H3.40808" stroke="black" stroke-width="0.2" stroke-miterlimit="10"/>
<path d="M3.40808 24.0282H3.96538" stroke="black" stroke-width="0.2" stroke-miterlimit="10"/>
<path d="M3.96538 24.8931H3.40808" stroke="black" stroke-width="0.2" stroke-miterlimit="10"/>
<path d="M3.40808 25.2096H3.96538" stroke="black" stroke-width="0.2" stroke-miterlimit="10"/>
<path d="M3.96538 21.2752H3.40808" stroke="black" stroke-width="0.2" stroke-miterlimit="10"/>
<path d="M3.96538 25.9954H3.40808" stroke="black" stroke-width="0.2" stroke-miterlimit="10"/>
<path d="M3.96538 49.0848H3.40808V53.5677H3.96538V49.0848Z" stroke="black" stroke-width="0.2" stroke-miterlimit="10"/>
<path d="M3.96538 49.7546H3.40808" stroke="black" stroke-width="0.2" stroke-miterlimit="10"/>
<path d="M3.40808 50.0658H3.96538" stroke="black" stroke-width="0.2" stroke-miterlimit="10"/>
<path d="M3.96538 50.936H3.40808" stroke="black" stroke-width="0.2" stroke-miterlimit="10"/>
<path d="M3.40808 51.7218H3.96538" stroke="black" stroke-width="0.2" stroke-miterlimit="10"/>
<path d="M3.96538 52.5867H3.40808" stroke="black" stroke-width="0.2" stroke-miterlimit="10"/>
<path d="M3.40808 52.9032H3.96538" stroke="black" stroke-width="0.2" stroke-miterlimit="10"/>
<path d="M3.96538 48.9688H3.40808" stroke="black" stroke-width="0.2" stroke-miterlimit="10"/>
<path d="M3.96538 53.689H3.40808" stroke="black" stroke-width="0.2" stroke-miterlimit="10"/>
<path d="M3.96538 81.6674H3.40808V86.1503H3.96538V81.6674Z" stroke="black" stroke-width="0.2" stroke-miterlimit="10"/>
<path d="M3.96538 82.3319H3.40808" stroke="black" stroke-width="0.2" stroke-miterlimit="10"/>
<path d="M3.40808 82.6484H3.96538" stroke="black" stroke-width="0.2" stroke-miterlimit="10"/>
<path d="M3.96538 83.5133H3.40808" stroke="black" stroke-width="0.2" stroke-miterlimit="10"/>
<path d="M3.40808 84.2991H3.96538" stroke="black" stroke-width="0.2" stroke-miterlimit="10"/>
<path d="M3.96538 85.1693H3.40808" stroke="black" stroke-width="0.2" stroke-miterlimit="10"/>
<path d="M3.40808 85.4805H3.96538" stroke="black" stroke-width="0.2" stroke-miterlimit="10"/>
<path d="M3.96538 81.5461H3.40808" stroke="black" stroke-width="0.2" stroke-miterlimit="10"/>
<path d="M3.96538 86.2663H3.40808" stroke="black" stroke-width="0.2" stroke-miterlimit="10"/>
<path d="M43.9464 93.9504V94.9472H0.0535889V93.9504H43.9464Z" stroke="black" stroke-width="0.2" stroke-miterlimit="10"/>
<path d="M37.3231 53.1511H38.1484C38.2984 53.1616 38.4216 53.2776 38.4324 53.4253C38.4484 53.573 38.352 53.7101 38.2073 53.747H37.3499" stroke="black" stroke-width="0.2" stroke-miterlimit="10"/>
<path d="M37.3177 53.1511C37.3287 53.1089 37.3397 53.072 37.3561 53.035" stroke="black" stroke-width="0.2" stroke-miterlimit="10"/>
<path d="M37.3553 53.747H33.99L33.422 53.6204V53.304L34.065 53.1511H37.3231" stroke="black" stroke-width="0.2" stroke-miterlimit="10"/>
<path d="M37.3499 53.747C37.3821 53.8314 37.4249 53.9052 37.4785 53.9791C37.6607 54.2217 37.9554 54.3799 38.2877 54.3799C38.8396 54.3799 39.2844 53.9369 39.2844 53.3989C39.2844 52.861 38.8343 52.418 38.2877 52.418C37.9554 52.418 37.6607 52.5762 37.4785 52.8241C37.4303 52.8874 37.3874 52.9612 37.3553 53.0403" stroke="black" stroke-width="0.2" stroke-miterlimit="10"/>
<path d="M43.9464 52.0013V11.5711H40.3882V93.9505H43.9464V52.0013Z" stroke="black" stroke-width="0.2" stroke-miterlimit="10"/>
<path d="M43.9464 0.0527344H0.0535889V10.4266H43.9464V0.0527344Z" stroke="black" stroke-width="0.2" stroke-miterlimit="10"/>
<path d="M43.9464 10.4266H0.0535889V11.5658H43.9464V10.4266Z" stroke="black" stroke-width="0.2" stroke-miterlimit="10"/>
</g>
<defs>
<clipPath id="clip0_422_917">
<rect width="44" height="95" fill="white"/>
</clipPath>
</defs>
</svg>
