<svg width="102" height="93" viewBox="0 0 102 93" fill="none" xmlns="http://www.w3.org/2000/svg">
<g clip-path="url(#clip0_40_8631)">
<path d="M4.13318 0.0675049H1.43808V90.0662H4.13318V0.0675049Z" fill="#E5E5E5"/>
<path d="M4.13318 0.0675049H1.43808V90.0662H4.13318V0.0675049Z" stroke="black" stroke-width="0.2" stroke-miterlimit="10"/>
<path d="M12.1461 90.0662H14.8412" stroke="black" stroke-width="0.2" stroke-miterlimit="10"/>
<path d="M22.854 90.0662H25.5491" stroke="black" stroke-width="0.2" stroke-miterlimit="10"/>
<path d="M33.562 90.0662H36.2571" stroke="black" stroke-width="0.2" stroke-miterlimit="10"/>
<path d="M44.2286 90.0662H46.9651" stroke="black" stroke-width="0.2" stroke-miterlimit="10"/>
<path d="M54.9366 90.0662H57.6731" stroke="black" stroke-width="0.2" stroke-miterlimit="10"/>
<path d="M65.6446 90.0662H68.3811" stroke="black" stroke-width="0.2" stroke-miterlimit="10"/>
<path d="M76.394 90.0662H79.0891" stroke="black" stroke-width="0.2" stroke-miterlimit="10"/>
<path d="M87.0606 90.0662H89.797" stroke="black" stroke-width="0.2" stroke-miterlimit="10"/>
<path d="M100.505 0.0675049H97.7685V90.0662H100.505V0.0675049Z" fill="#E5E5E5"/>
<path d="M100.505 0.0675049H97.7685V90.0662H100.505V0.0675049Z" stroke="black" stroke-width="0.2" stroke-miterlimit="10"/>
<path d="M3.97281 0.0519409H0.0517273V89.9987H3.97281V0.0519409Z" fill="white"/>
<path d="M3.97281 0.0519409H0.0517273V89.9987H3.97281V0.0519409Z" stroke="black" stroke-width="0.2" stroke-miterlimit="10"/>
<path d="M101.948 0.0519409H98.0272V90.0298H101.948V0.0519409Z" fill="white"/>
<path d="M101.948 0.0519409H98.0272V90.0298H101.948V0.0519409Z" stroke="black" stroke-width="0.2" stroke-miterlimit="10"/>
<path d="M98.0323 11.3199H3.97282V15.256H98.0323V11.3199Z" fill="white"/>
<path d="M98.0323 11.3199H3.97282V15.256H98.0323V11.3199Z" stroke="black" stroke-width="0.2" stroke-miterlimit="10"/>
<path d="M98.0323 15.256H3.97282V89.9987H98.0323V15.256Z" fill="white"/>
<path d="M98.0323 15.256H3.97282V89.9987H98.0323V15.256Z" stroke="black" stroke-width="0.2" stroke-miterlimit="10"/>
<path d="M101.948 89.9987H0.0517273V92.9481H101.948V89.9987Z" fill="white"/>
<path d="M101.948 89.9987H0.0517273V92.9481H101.948V89.9987Z" stroke="black" stroke-width="0.2" stroke-miterlimit="10"/>
</g>
<defs>
<clipPath id="clip0_40_8631">
<rect width="102" height="93" fill="white"/>
</clipPath>
</defs>
</svg>
