<svg width="102" height="95" viewBox="0 0 102 95" fill="none" xmlns="http://www.w3.org/2000/svg">
<g clip-path="url(#clip0_422_781)">
<path d="M4.13318 0.0689697H1.43808V92.0031H4.13318V0.0689697Z" fill="#E5E5E5"/>
<path d="M4.13318 0.0689697H1.43808V92.0031H4.13318V0.0689697Z" stroke="black" stroke-width="0.2" stroke-miterlimit="10"/>
<path d="M12.1461 92.0031H14.8412" stroke="black" stroke-width="0.2" stroke-miterlimit="10"/>
<path d="M22.854 92.0031H25.5491" stroke="black" stroke-width="0.2" stroke-miterlimit="10"/>
<path d="M33.562 92.0031H36.2571" stroke="black" stroke-width="0.2" stroke-miterlimit="10"/>
<path d="M44.2286 92.0031H46.9651" stroke="black" stroke-width="0.2" stroke-miterlimit="10"/>
<path d="M54.9366 92.0031H57.6731" stroke="black" stroke-width="0.2" stroke-miterlimit="10"/>
<path d="M65.6446 92.0031H68.3811" stroke="black" stroke-width="0.2" stroke-miterlimit="10"/>
<path d="M76.394 92.0031H79.0891" stroke="black" stroke-width="0.2" stroke-miterlimit="10"/>
<path d="M87.0606 92.0031H89.797" stroke="black" stroke-width="0.2" stroke-miterlimit="10"/>
<path d="M100.505 0.0689697H97.7685V92.0031H100.505V0.0689697Z" fill="#E5E5E5"/>
<path d="M100.505 0.0689697H97.7685V92.0031H100.505V0.0689697Z" stroke="black" stroke-width="0.2" stroke-miterlimit="10"/>
<path d="M3.97281 0.0530396H0.0517273V91.9341H3.97281V0.0530396Z" fill="white"/>
<path d="M3.97281 0.0530396H0.0517273V91.9341H3.97281V0.0530396Z" stroke="black" stroke-width="0.2" stroke-miterlimit="10"/>
<path d="M101.948 0.0530396H98.0272V91.9659H101.948V0.0530396Z" fill="white"/>
<path d="M101.948 0.0530396H98.0272V91.9659H101.948V0.0530396Z" stroke="black" stroke-width="0.2" stroke-miterlimit="10"/>
<path d="M98.0323 11.5634H3.97282V15.584H98.0323V11.5634Z" fill="white"/>
<path d="M98.0323 11.5634H3.97282V15.584H98.0323V11.5634Z" stroke="black" stroke-width="0.2" stroke-miterlimit="10"/>
<path d="M98.0323 15.584H3.97282V91.9341H98.0323V15.584Z" fill="white"/>
<path d="M98.0323 15.584H3.97282V91.9341H98.0323V15.584Z" stroke="black" stroke-width="0.2" stroke-miterlimit="10"/>
<path d="M101.948 91.9341H0.0517273V94.947H101.948V91.9341Z" fill="white"/>
<path d="M101.948 91.9341H0.0517273V94.947H101.948V91.9341Z" stroke="black" stroke-width="0.2" stroke-miterlimit="10"/>
</g>
<defs>
<clipPath id="clip0_422_781">
<rect width="102" height="95" fill="white"/>
</clipPath>
</defs>
</svg>
