<svg width="88" height="95" viewBox="0 0 88 95" fill="none" xmlns="http://www.w3.org/2000/svg">
<g clip-path="url(#clip0_422_1029)">
<rect width="87.9946" height="94.9314" fill="white"/>
<path d="M47.222 0.0527344H0.0536499V94.9473H47.222V0.0527344Z" stroke="black" stroke-width="0.2" stroke-miterlimit="10"/>
<path d="M3.61636 11.5711H0.0536499V93.9505H3.61636V11.5711Z" stroke="black" stroke-width="0.2" stroke-miterlimit="10"/>
<path d="M43.6593 11.5711H3.61636V12.6312H43.6593V11.5711Z" stroke="black" stroke-width="0.2" stroke-miterlimit="10"/>
<path d="M43.6593 92.8851H3.61636V93.9452H43.6593V92.8851Z" stroke="black" stroke-width="0.2" stroke-miterlimit="10"/>
<path d="M43.5359 50.7936V12.7472H3.73441V92.69H43.5359V50.7936Z" stroke="black" stroke-width="0.2" stroke-miterlimit="10"/>
<path d="M47.222 11.5711H0.0536499" stroke="black" stroke-width="0.2" stroke-miterlimit="10"/>
<path d="M0.0536499 11.5711V93.9505" stroke="black" stroke-width="0.2" stroke-miterlimit="10"/>
<path d="M43.6593 12.6312H3.61636" stroke="black" stroke-width="0.2" stroke-miterlimit="10"/>
<path d="M3.61636 11.5711V21.2752" stroke="black" stroke-width="0.2" stroke-miterlimit="10"/>
<path d="M3.61636 92.8851H43.6593" stroke="black" stroke-width="0.2" stroke-miterlimit="10"/>
<path d="M3.73441 12.7472V21.2752" stroke="black" stroke-width="0.2" stroke-miterlimit="10"/>
<path d="M43.5359 12.7472H3.73441" stroke="black" stroke-width="0.2" stroke-miterlimit="10"/>
<path d="M3.73441 92.69H43.5359" stroke="black" stroke-width="0.2" stroke-miterlimit="10"/>
<path d="M3.61636 86.2663V93.9505" stroke="black" stroke-width="0.2" stroke-miterlimit="10"/>
<path d="M3.73441 86.2663V92.69" stroke="black" stroke-width="0.2" stroke-miterlimit="10"/>
<path d="M3.61636 53.689V81.5461" stroke="black" stroke-width="0.2" stroke-miterlimit="10"/>
<path d="M3.73441 53.689V81.5461" stroke="black" stroke-width="0.2" stroke-miterlimit="10"/>
<path d="M3.61636 25.9954V48.9688" stroke="black" stroke-width="0.2" stroke-miterlimit="10"/>
<path d="M3.73441 25.9954V48.9688" stroke="black" stroke-width="0.2" stroke-miterlimit="10"/>
<path d="M47.222 93.9504V94.9472H0.0536499V93.9504H47.222Z" stroke="black" stroke-width="0.2" stroke-miterlimit="10"/>
<path d="M40.8692 52.0804V51.2682C40.8799 51.1206 40.998 50.9993 41.1482 50.9887C41.2984 50.9729 41.438 51.0678 41.4755 51.2102V52.0541" stroke="black" stroke-width="0.2" stroke-miterlimit="10"/>
<path d="M41.4701 52.0488V55.3608L41.3414 55.9199H41.0248L40.8692 55.287V52.0804" stroke="black" stroke-width="0.2" stroke-miterlimit="10"/>
<path d="M47.222 52.0014V11.5711H43.6593V93.9505H47.222V52.0014Z" stroke="black" stroke-width="0.2" stroke-miterlimit="10"/>
<path d="M47.222 0.0527344H0.0536499V10.4266H47.222V0.0527344Z" stroke="black" stroke-width="0.2" stroke-miterlimit="10"/>
<path d="M47.222 10.4266H0.0536499V11.5658H47.222V10.4266Z" stroke="black" stroke-width="0.2" stroke-miterlimit="10"/>
<path d="M87.9517 0.0527344H47.222V94.9473H87.9517V0.0527344Z" stroke="black" stroke-width="0.2" stroke-miterlimit="10"/>
<path d="M87.9464 11.5711H84.3837V93.9505H87.9464V11.5711Z" stroke="black" stroke-width="0.2" stroke-miterlimit="10"/>
<path d="M84.389 11.5711H47.222V12.6312H84.389V11.5711Z" stroke="black" stroke-width="0.2" stroke-miterlimit="10"/>
<path d="M84.389 92.8851H47.222V93.9452H84.389V92.8851Z" stroke="black" stroke-width="0.2" stroke-miterlimit="10"/>
<path d="M47.3401 50.7936V12.7472H84.2656V92.69H47.3401V50.7936Z" stroke="black" stroke-width="0.2" stroke-miterlimit="10"/>
<path d="M43.6593 11.5711H84.3837" stroke="black" stroke-width="0.2" stroke-miterlimit="10"/>
<path d="M87.9464 11.5711V93.9505" stroke="black" stroke-width="0.2" stroke-miterlimit="10"/>
<path d="M47.222 12.6312H84.3837" stroke="black" stroke-width="0.2" stroke-miterlimit="10"/>
<path d="M84.3837 11.5711V21.2752" stroke="black" stroke-width="0.2" stroke-miterlimit="10"/>
<path d="M84.3837 92.8851H47.222" stroke="black" stroke-width="0.2" stroke-miterlimit="10"/>
<path d="M84.2656 12.7472V21.2752" stroke="black" stroke-width="0.2" stroke-miterlimit="10"/>
<path d="M47.3401 12.7472H84.2656" stroke="black" stroke-width="0.2" stroke-miterlimit="10"/>
<path d="M84.2656 92.69H47.3401" stroke="black" stroke-width="0.2" stroke-miterlimit="10"/>
<path d="M84.3837 86.2663V93.9505" stroke="black" stroke-width="0.2" stroke-miterlimit="10"/>
<path d="M84.2656 86.2663V92.69" stroke="black" stroke-width="0.2" stroke-miterlimit="10"/>
<path d="M84.3837 53.689V81.5461" stroke="black" stroke-width="0.2" stroke-miterlimit="10"/>
<path d="M84.2656 53.689V81.5461" stroke="black" stroke-width="0.2" stroke-miterlimit="10"/>
<path d="M84.3837 25.9954V48.9688" stroke="black" stroke-width="0.2" stroke-miterlimit="10"/>
<path d="M84.2656 25.9954V48.9688" stroke="black" stroke-width="0.2" stroke-miterlimit="10"/>
<path d="M47.222 93.9504V94.9472H87.9464V93.9504H43.6593" stroke="black" stroke-width="0.2" stroke-miterlimit="10"/>
<path d="M47.222 52.0014V11.5711V93.9505V52.0014Z" stroke="black" stroke-width="0.2" stroke-miterlimit="10"/>
<path d="M87.9517 0.0527344H47.222V10.4266H87.9517V0.0527344Z" stroke="black" stroke-width="0.2" stroke-miterlimit="10"/>
<path d="M87.9517 10.4266H47.222V11.5658H87.9517V10.4266Z" stroke="black" stroke-width="0.2" stroke-miterlimit="10"/>
</g>
<defs>
<clipPath id="clip0_422_1029">
<rect width="88" height="95" fill="white"/>
</clipPath>
</defs>
</svg>
