<svg width="72" height="80" viewBox="0 0 72 80" fill="none" xmlns="http://www.w3.org/2000/svg">
<g clip-path="url(#clip0_470_1507)">
<path d="M71.97 40.04C71.97 53.18 71.97 66.32 71.98 79.45C71.98 79.84 71.89 79.95 71.49 79.95C47.86 79.94 24.23 79.94 0.599985 79.95C0.189985 79.95 0.109985 79.83 0.109985 79.45C0.109985 53.17 0.109985 26.9 0.109985 0.619985C0.109985 0.109985 0.109985 0.109985 0.609985 0.109985C24.23 0.109985 47.84 0.109985 71.46 0.109985C71.96 0.109985 71.96 0.109985 71.96 0.619985C71.97 13.76 71.97 26.9 71.97 40.04Z" fill="black"/>
<path d="M71.89 40.02C71.89 53.13 71.89 66.24 71.89 79.36C71.89 79.94 71.97 79.86 71.38 79.86C71.05 79.86 70.63 80 70.42 79.8C70.22 79.59 70.36 79.17 70.36 78.84C70.36 53.34 70.36 27.85 70.36 2.34999C70.36 1.79999 70.36 1.79999 69.82 1.79999C47.3 1.79999 24.78 1.79999 2.26001 1.79999C1.73001 1.79999 1.73001 1.79999 1.73001 2.31999C1.73001 27.96 1.73001 53.59 1.73001 79.23C1.73001 79.35 1.72001 79.46 1.73001 79.57C1.76001 79.82 1.65001 79.88 1.43001 79.86C1.04001 79.84 0.52001 79.99 0.28001 79.79C0.0300097 79.58 0.20001 79.05 0.20001 78.66C0.20001 52.68 0.20001 26.7 0.20001 0.709993C0.20001 0.179993 0.20001 0.179993 0.72001 0.179993C24.27 0.179993 47.83 0.179993 71.38 0.179993C71.89 0.179993 71.89 0.179993 71.89 0.679993C71.89 13.8 71.89 26.91 71.89 40.02Z" fill="white"/>
<path d="M69.82 41.1C69.82 53.82 69.82 66.53 69.82 79.25C69.82 79.86 69.82 79.86 69.18 79.86C67.9 79.86 66.62 79.86 65.35 79.86C44.52 79.86 23.69 79.86 2.85996 79.86C2.26996 79.86 2.26996 79.86 2.26996 79.25C2.26996 53.78 2.26996 28.31 2.26996 2.84C2.26996 2.25 2.26996 2.25 2.84996 2.25C24.98 2.25 47.12 2.25 69.25 2.25C69.83 2.25 69.83 2.25 69.83 2.83C69.82 15.6 69.82 28.35 69.82 41.1Z" fill="white"/>
<path d="M1.93001 2.04998C1.93001 27.96 1.93001 53.86 1.93001 79.77C1.92001 79.77 1.90001 79.77 1.89001 79.77C1.89001 53.86 1.89001 27.95 1.89001 2.03998C1.91001 2.04998 1.92001 2.04998 1.93001 2.04998Z" fill="#DFDFDF"/>
<path d="M2.07999 2.06C2.08999 2.21 2.10999 2.36 2.10999 2.52C2.10999 28.14 2.10999 53.77 2.10999 79.39C2.10999 79.52 2.10999 79.64 2.10999 79.77C2.07999 79.77 2.05999 79.77 2.02999 79.77C2.02999 79.64 2.02999 79.52 2.02999 79.39C2.02999 53.78 2.02999 28.17 2.02999 2.56C2.02999 2.39 1.99999 2.22 2.07999 2.06Z" fill="#F3F3F3"/>
<path d="M70 2.07996C70.09 2.20996 70.05 2.34996 70.05 2.48996C70.05 28.13 70.05 53.76 70.05 79.4C70.05 79.52 70.08 79.65 70.01 79.78C69.94 79.64 69.97 79.5 69.97 79.36C69.97 53.75 69.97 28.14 69.97 2.52996C69.97 2.37996 70 2.22996 70 2.07996Z" fill="white"/>
<path d="M70.01 2.07996C69.84 2.08996 69.68 2.10996 69.52 2.10996C47.21 2.10996 24.89 2.10996 2.57997 2.10996C2.41997 2.10996 2.24997 2.14996 2.08997 2.05996C2.21997 2.04996 2.35997 2.02996 2.49997 2.02996C24.85 2.02996 47.2 2.02996 69.55 2.02996C69.7 2.02996 69.86 1.97996 70.01 2.07996Z" fill="white"/>
<path d="M68.59 78.69C68.38 78.61 68.18 78.64 68 78.64C46.67 78.64 25.34 78.64 4.00999 78.64C3.48999 78.64 3.48999 78.64 3.48999 78.11C3.48999 53.41 3.48999 28.7 3.48999 3.99997C3.48999 3.48997 3.48999 3.48997 3.98999 3.48997C25.36 3.48997 46.73 3.48997 68.09 3.48997C68.67 3.48997 68.59 3.40997 68.59 3.99997C68.59 28.74 68.59 53.48 68.59 78.22C68.59 78.36 68.59 78.5 68.59 78.69Z" fill="black"/>
<path d="M65.45 41.07C65.45 52.39 65.45 63.71 65.46 75.04C65.46 75.4 65.39 75.5 65.01 75.5C56.03 75.49 47.04 75.49 38.06 75.5C37.68 75.5 37.61 75.39 37.61 75.03C37.62 52.39 37.62 29.74 37.61 7.1C37.61 6.73 37.68 6.62 38.08 6.62C47.05 6.63 56.02 6.63 64.99 6.62C65.39 6.62 65.46 6.74 65.46 7.11C65.45 18.43 65.45 29.75 65.45 41.07Z" fill="white"/>
<path d="M37.46 41.07C37.46 53.38 37.46 65.68 37.46 77.99C37.46 78.56 37.46 78.56 36.9 78.56C25.97 78.56 15.05 78.56 4.12 78.56C3.56 78.56 3.56 78.56 3.56 77.99C3.56 53.36 3.56 28.74 3.56 4.11C3.56 3.56 3.56 3.56 4.1 3.56C15.04 3.56 25.98 3.56 36.92 3.56C37.46 3.56 37.46 3.56 37.46 4.11C37.46 16.43 37.46 28.75 37.46 41.07Z" fill="white"/>
<path d="M65.53 75.62C65.53 75.43 65.53 75.27 65.53 75.12C65.53 52.44 65.53 29.75 65.53 7.07C65.53 6.55 65.53 6.55 65 6.55C56 6.55 47.01 6.55 38.01 6.56C37.61 6.56 37.52 6.45 37.54 6.08C37.57 5.35 37.56 4.62 37.54 3.9C37.53 3.63 37.62 3.56 37.88 3.56C39.71 3.57 41.54 3.57 43.36 3.57C51.58 3.57 59.8 3.57 68.01 3.57C68.52 3.57 68.52 3.57 68.52 4.07C68.52 28.76 68.52 53.45 68.53 78.14C68.53 78.52 68.38 78.56 68.08 78.56C58.01 78.56 47.94 78.56 37.87 78.56C37.59 78.56 37.53 78.47 37.54 78.21C37.56 77.46 37.56 76.7 37.54 75.95C37.53 75.64 37.64 75.56 37.94 75.56C40.43 75.57 42.92 75.57 45.42 75.57C51.95 75.57 58.48 75.57 65.01 75.57C65.16 75.57 65.33 75.54 65.53 75.62Z" fill="white"/>
<path d="M6.55998 41.02C6.55998 29.7 6.55998 18.38 6.55998 7.04998C6.55998 6.54998 6.55998 6.54998 7.06998 6.54998C16.05 6.54998 25.04 6.54998 34.02 6.53998C34.39 6.53998 34.48 6.62998 34.48 6.99998C34.47 29.71 34.47 52.42 34.48 75.12C34.48 75.5 34.37 75.57 34.01 75.57C25.01 75.56 16.02 75.56 7.01998 75.57C6.62998 75.57 6.53998 75.48 6.53998 75.09C6.55998 63.74 6.55998 52.38 6.55998 41.02Z" fill="black"/>
<path d="M4.18 40.62C4.18 39.42 4.19 38.22 4.17 37.02C4.17 36.75 4.24 36.66 4.51 36.68C4.83 36.7 5.15 36.71 5.47 36.68C5.78 36.65 5.88 36.75 5.87 37.07C5.85 39.07 5.86 41.08 5.86 43.08C5.86 43.5 5.85 43.92 5.86 44.34C5.87 44.57 5.77 44.66 5.54 44.65C5.23 44.64 4.93 44.63 4.62 44.65C4.27 44.68 4.15 44.57 4.16 44.21C4.19 43.02 4.18 41.82 4.18 40.62Z" fill="black"/>
<path d="M6.62999 41.02C6.62999 29.72 6.62999 18.43 6.62999 7.13C6.62999 6.63 6.62999 6.63 7.13999 6.63C16.07 6.63 25.01 6.63 33.94 6.62C34.31 6.62 34.4 6.71 34.4 7.08C34.39 29.74 34.39 52.39 34.4 75.05C34.4 75.43 34.29 75.5 33.93 75.5C24.98 75.49 16.04 75.49 7.08999 75.5C6.69999 75.5 6.60999 75.4 6.60999 75.02C6.62999 63.69 6.62999 52.35 6.62999 41.02Z" fill="white"/>
<path d="M5.79 40.68C5.79 41.86 5.78 43.03 5.8 44.21C5.8 44.52 5.7 44.6 5.4 44.6C4.26 44.6 4.26 44.61 4.26 43.46C4.26 41.38 4.27 39.3 4.25 37.21C4.25 36.85 4.36 36.73 4.71 36.76C4.94 36.78 5.17 36.78 5.4 36.76C5.7 36.73 5.8 36.84 5.8 37.15C5.78 38.33 5.79 39.5 5.79 40.68Z" fill="white"/>
<path d="M4.42999 36.93C4.82999 36.93 5.19999 36.93 5.55999 36.93C5.55999 37.11 5.55999 37.27 5.55999 37.44C5.55999 39.61 5.54999 41.78 5.56999 43.95C5.56999 44.25 5.52999 44.38 5.17999 44.36C4.48999 44.33 4.48999 44.35 4.48999 43.65C4.48999 41.57 4.48999 39.49 4.48999 37.41C4.47999 37.26 4.50999 37.11 4.42999 36.93Z" fill="black"/>
<path d="M4.55999 40.64C4.55999 39.54 4.56999 38.45 4.54999 37.35C4.54999 37.07 4.61999 36.95 4.90999 36.99C4.96999 37 5.03999 37 5.09999 36.99C5.38999 36.95 5.48999 37.04 5.48999 37.36C5.46999 38.38 5.47999 39.4 5.47999 40.42C5.47999 41.58 5.46999 42.74 5.48999 43.9C5.48999 44.2 5.41999 44.29 5.10999 44.28C4.55999 44.26 4.55999 44.28 4.55999 43.73C4.55999 42.71 4.55999 41.68 4.55999 40.64Z" fill="white"/>
</g>
<defs>
<clipPath id="clip0_470_1507">
<rect width="72" height="80" fill="white"/>
</clipPath>
</defs>
</svg>
