<svg width="84" height="93" viewBox="0 0 84 93" fill="none" xmlns="http://www.w3.org/2000/svg">
<g clip-path="url(#clip0_40_8879)">
<rect width="83.9949" height="92.9329" fill="white"/>
<path d="M45.0755 0.0516357H0.0512085V92.9484H45.0755V0.0516357Z" stroke="black" stroke-width="0.2" stroke-miterlimit="10"/>
<path d="M3.45198 11.3275H0.0512085V91.9726H3.45198V11.3275Z" stroke="black" stroke-width="0.2" stroke-miterlimit="10"/>
<path d="M41.6748 11.3275H3.45197V12.3652H41.6748V11.3275Z" stroke="black" stroke-width="0.2" stroke-miterlimit="10"/>
<path d="M41.6748 90.9297H3.45197V91.9674H41.6748V90.9297Z" stroke="black" stroke-width="0.2" stroke-miterlimit="10"/>
<path d="M41.557 49.7243V12.4788H3.56467V90.7386H41.557V49.7243Z" stroke="black" stroke-width="0.2" stroke-miterlimit="10"/>
<path d="M45.0755 11.3275H0.0512085" stroke="black" stroke-width="0.2" stroke-miterlimit="10"/>
<path d="M0.0512085 11.3275V91.9726" stroke="black" stroke-width="0.2" stroke-miterlimit="10"/>
<path d="M41.6748 12.3652H3.45197" stroke="black" stroke-width="0.2" stroke-miterlimit="10"/>
<path d="M3.45197 11.3275V20.8273" stroke="black" stroke-width="0.2" stroke-miterlimit="10"/>
<path d="M3.45197 90.9297H41.6748" stroke="black" stroke-width="0.2" stroke-miterlimit="10"/>
<path d="M3.56467 12.4788V20.8273" stroke="black" stroke-width="0.2" stroke-miterlimit="10"/>
<path d="M41.557 12.4788H3.56467" stroke="black" stroke-width="0.2" stroke-miterlimit="10"/>
<path d="M3.56467 90.7386H41.557" stroke="black" stroke-width="0.2" stroke-miterlimit="10"/>
<path d="M3.45197 84.4502V91.9726" stroke="black" stroke-width="0.2" stroke-miterlimit="10"/>
<path d="M3.56467 84.4502V90.7386" stroke="black" stroke-width="0.2" stroke-miterlimit="10"/>
<path d="M3.45197 52.5587V79.8293" stroke="black" stroke-width="0.2" stroke-miterlimit="10"/>
<path d="M3.56467 52.5587V79.8293" stroke="black" stroke-width="0.2" stroke-miterlimit="10"/>
<path d="M3.45197 25.4481V47.9379" stroke="black" stroke-width="0.2" stroke-miterlimit="10"/>
<path d="M3.56467 25.4481V47.9379" stroke="black" stroke-width="0.2" stroke-miterlimit="10"/>
<path d="M45.0755 91.9726V92.9484H0.0512085V91.9726H45.0755Z" stroke="black" stroke-width="0.2" stroke-miterlimit="10"/>
<path d="M39.0115 50.984V50.1889C39.0217 50.0444 39.1344 49.9256 39.2778 49.9153C39.4212 49.8998 39.5544 49.9927 39.5903 50.1321V50.9582" stroke="black" stroke-width="0.2" stroke-miterlimit="10"/>
<path d="M39.5851 50.953V54.1954L39.4622 54.7426H39.16L39.0115 54.1231V50.984" stroke="black" stroke-width="0.2" stroke-miterlimit="10"/>
<path d="M45.0755 50.9066V11.3275H41.6748V91.9726H45.0755V50.9066Z" stroke="black" stroke-width="0.2" stroke-miterlimit="10"/>
<path d="M45.0755 0.0516357H0.0512085V10.2071H45.0755V0.0516357Z" stroke="black" stroke-width="0.2" stroke-miterlimit="10"/>
<path d="M45.0755 10.2071H0.0512085V11.3223H45.0755V10.2071Z" stroke="black" stroke-width="0.2" stroke-miterlimit="10"/>
<path d="M83.9539 0.0516357H45.0755V92.9484H83.9539V0.0516357Z" stroke="black" stroke-width="0.2" stroke-miterlimit="10"/>
<path d="M83.9488 11.3275H80.548V91.9726H83.9488V11.3275Z" stroke="black" stroke-width="0.2" stroke-miterlimit="10"/>
<path d="M80.5531 11.3275H45.0755V12.3652H80.5531V11.3275Z" stroke="black" stroke-width="0.2" stroke-miterlimit="10"/>
<path d="M80.5531 90.9297H45.0755V91.9674H80.5531V90.9297Z" stroke="black" stroke-width="0.2" stroke-miterlimit="10"/>
<path d="M45.1882 49.7243V12.4788H80.4354V90.7386H45.1882V49.7243Z" stroke="black" stroke-width="0.2" stroke-miterlimit="10"/>
<path d="M41.6748 11.3275H80.548" stroke="black" stroke-width="0.2" stroke-miterlimit="10"/>
<path d="M83.9488 11.3275V91.9726" stroke="black" stroke-width="0.2" stroke-miterlimit="10"/>
<path d="M45.0755 12.3652H80.548" stroke="black" stroke-width="0.2" stroke-miterlimit="10"/>
<path d="M80.548 11.3275V20.8273" stroke="black" stroke-width="0.2" stroke-miterlimit="10"/>
<path d="M80.548 90.9297H45.0755" stroke="black" stroke-width="0.2" stroke-miterlimit="10"/>
<path d="M80.4353 12.4788V20.8273" stroke="black" stroke-width="0.2" stroke-miterlimit="10"/>
<path d="M45.1882 12.4788H80.4354" stroke="black" stroke-width="0.2" stroke-miterlimit="10"/>
<path d="M80.4354 90.7386H45.1882" stroke="black" stroke-width="0.2" stroke-miterlimit="10"/>
<path d="M80.548 84.4502V91.9726" stroke="black" stroke-width="0.2" stroke-miterlimit="10"/>
<path d="M80.4353 84.4502V90.7386" stroke="black" stroke-width="0.2" stroke-miterlimit="10"/>
<path d="M80.548 52.5587V79.8293" stroke="black" stroke-width="0.2" stroke-miterlimit="10"/>
<path d="M80.4353 52.5587V79.8293" stroke="black" stroke-width="0.2" stroke-miterlimit="10"/>
<path d="M80.548 25.4481V47.9379" stroke="black" stroke-width="0.2" stroke-miterlimit="10"/>
<path d="M80.4353 25.4481V47.9379" stroke="black" stroke-width="0.2" stroke-miterlimit="10"/>
<path d="M45.0755 91.9726V92.9484H83.9488V91.9726H41.6748" stroke="black" stroke-width="0.2" stroke-miterlimit="10"/>
<path d="M45.0755 50.9066V11.3275V91.9726V50.9066Z" stroke="black" stroke-width="0.2" stroke-miterlimit="10"/>
<path d="M83.9539 0.0516357H45.0755V10.2071H83.9539V0.0516357Z" stroke="black" stroke-width="0.2" stroke-miterlimit="10"/>
<path d="M83.9539 10.2071H45.0755V11.3223H83.9539V10.2071Z" stroke="black" stroke-width="0.2" stroke-miterlimit="10"/>
</g>
<defs>
<clipPath id="clip0_40_8879">
<rect width="84" height="93" fill="white"/>
</clipPath>
</defs>
</svg>
