<svg width="55" height="42" viewBox="0 0 55 42" fill="none" xmlns="http://www.w3.org/2000/svg">
<g clip-path="url(#clip0_470_1081)">
<path d="M54.89 42C36.64 42 18.38 42 0.130005 42C0.360005 41.79 0.580005 41.58 0.810005 41.38C1.38 40.88 1.95 40.39 2.52 39.89C2.8 39.65 3.07 39.4 3.34 39.15C3.42 39.15 3.49 39.15 3.57 39.15C19.5 39.15 35.43 39.15 51.36 39.15C51.44 39.15 51.51 39.15 51.59 39.15C51.61 39.17 51.62 39.2 51.64 39.22C52.48 39.93 53.32 40.64 54.15 41.35C54.41 41.56 54.65 41.78 54.89 42Z" fill="white" stroke="#231F20" stroke-width="0.2" stroke-miterlimit="10"/>
<path d="M3.22998 0.0400391C19.49 0.0400391 35.75 0.0400391 52.01 0.0400391C51.93 0.570039 51.86 1.10004 51.78 1.63004C51.72 2.01004 51.66 2.39004 51.6 2.77004C51.58 2.84004 51.56 2.90004 51.53 2.96004C35.49 2.96004 19.45 2.96004 3.38998 2.96004C3.38998 2.87004 3.38998 2.79004 3.38998 2.71004C3.37998 2.56004 3.35998 2.41004 3.34998 2.27004C3.30998 1.53004 3.26998 0.780039 3.22998 0.0400391Z" fill="white" stroke="#231F20" stroke-width="0.2" stroke-miterlimit="10"/>
<path d="M54.89 42.0001C54.64 41.7801 54.4 41.5601 54.15 41.3401C53.31 40.6301 52.47 39.9201 51.64 39.2101C51.62 39.1901 51.61 39.1701 51.59 39.1401C51.59 39.0401 51.59 38.9501 51.59 38.8501C51.59 27.0001 51.59 15.1501 51.59 3.30007C51.59 3.21007 51.59 3.11007 51.59 3.00007C52.73 3.00007 53.85 0.0700684 54.97 0.0700684C54.97 10.2601 54.97 26.1301 54.96 41.8001C54.97 41.8701 55.07 42.0001 54.89 42.0001Z" fill="white" stroke="#231F20" stroke-width="0.2" stroke-miterlimit="10"/>
<path d="M3.35 3.01009C3.35 3.14009 3.35 3.23009 3.35 3.33009C3.35 15.1701 3.35 27.0201 3.35 38.8601C3.35 38.9601 3.35 39.0501 3.35 39.1501C3.08 39.4001 2.8 39.6501 2.53 39.8901C1.96 40.3901 1.39 40.8801 0.819998 41.3801C0.589998 41.5801 0.359998 41.7901 0.139998 42.0001C0.0699979 42.0001 -0.0200021 42.0301 0.0199979 41.9001C0.0299979 41.8701 0.0199979 41.8501 0.0199979 41.8201C0.0199979 28.8901 0.0199979 13.0201 0.0199979 0.0900879" fill="white"/>
<path d="M3.35 3.01009C3.35 3.14009 3.35 3.23009 3.35 3.33009C3.35 15.1701 3.35 27.0201 3.35 38.8601C3.35 38.9601 3.35 39.0501 3.35 39.1501C3.08 39.4001 2.8 39.6501 2.53 39.8901C1.96 40.3901 1.39 40.8801 0.819998 41.3801C0.589998 41.5801 0.359998 41.7901 0.139998 42.0001C0.0699979 42.0001 -0.0200021 42.0301 0.0199979 41.9001C0.0299979 41.8701 0.0199979 41.8501 0.0199979 41.8201C0.0199979 28.8901 0.0199979 13.0201 0.0199979 0.0900879" stroke="#231F20" stroke-width="0.2" stroke-miterlimit="10"/>
<path d="M51.52 39.07C51.43 39.08 51.34 39.11 51.25 39.11C39.43 39.11 27.61 39.11 15.79 39.11C11.75 39.11 7.71 39.11 3.67 39.11C3.59 39.11 3.52 39.09 3.44 39.07C3.95 38.56 4.46 38.05 4.97 37.54C5.05 37.54 5.12 37.54 5.2 37.54C20.06 37.54 34.92 37.54 49.78 37.54C49.86 37.54 49.93 37.54 50.01 37.54C50.5 38.05 51.01 38.56 51.52 39.07Z" fill="white" stroke="#231F20" stroke-width="0.2" stroke-miterlimit="10"/>
<path d="M3.46997 3.05001C3.55997 3.04001 3.64997 3.01001 3.73997 3.01001C19.33 3.01001 34.92 3.01001 50.52 3.01001C50.77 3.01001 51.03 3.01001 51.28 3.01001C51.34 3.01001 51.41 3.03001 51.47 3.05001C50.97 3.55001 50.48 4.04001 49.98 4.54001C49.88 4.55001 49.78 4.58001 49.68 4.58001C34.88 4.58001 20.08 4.58001 5.27997 4.58001C5.17997 4.58001 5.08997 4.58001 4.98997 4.58001C4.48997 4.07001 3.97997 3.56001 3.46997 3.05001Z" fill="white" stroke="#231F20" stroke-width="0.2" stroke-miterlimit="10"/>
<path d="M3.46997 3.05004C3.97997 3.56004 4.48997 4.07004 4.99997 4.58004C4.99997 4.68004 4.99997 4.77004 4.99997 4.87004C4.99997 15.67 4.99997 26.47 4.99997 37.27C4.99997 37.36 4.97997 37.46 4.95997 37.55C4.44997 38.06 3.93997 38.57 3.42997 39.08C3.41997 39.02 3.38997 38.95 3.38997 38.89C3.38997 27 3.38997 15.11 3.38997 3.22004C3.39997 3.16004 3.30997 3.03004 3.46997 3.05004Z" fill="white" stroke="#231F20" stroke-width="0.2" stroke-miterlimit="10"/>
<path d="M49.98 4.54005C50.48 4.04005 50.97 3.55005 51.47 3.05005C51.5 3.05005 51.54 3.06005 51.54 3.06005C51.55 3.12005 51.55 3.18005 51.55 3.25005C51.55 15.11 51.55 26.9801 51.55 38.84C51.55 38.92 51.53 38.99 51.51 39.07C51 38.56 50.49 38.0501 49.98 37.5401C49.98 37.4901 49.98 37.4401 49.98 37.4001C49.98 26.5001 49.98 15.6 49.98 4.71005C49.99 4.65005 49.99 4.59005 49.98 4.54005Z" fill="white" stroke="#231F20" stroke-width="0.2" stroke-miterlimit="10"/>
<path d="M49.98 4.54004C49.98 4.59004 49.98 4.65004 49.98 4.70004C49.98 15.6 49.98 26.5 49.98 37.39C49.98 37.44 49.98 37.49 49.98 37.53C49.9 37.53 49.83 37.53 49.75 37.53C34.89 37.53 20.03 37.53 5.17 37.53C5.09 37.53 5.02 37.53 4.94 37.53C4.97 37.45 5 37.35 5 37.26C5 26.46 5 15.66 5 4.86004C5 4.76004 5 4.67004 5 4.57004C5.1 4.57004 5.19 4.57004 5.29 4.57004C20.09 4.57004 34.89 4.57004 49.69 4.57004C49.79 4.57004 49.89 4.55004 49.98 4.54004ZM5.08 37.42C5.06 37.58 5.19 37.5 5.24 37.5C12.62 37.5 19.99 37.5 27.37 37.5C27.43 37.5 27.5 37.48 27.56 37.46C27.57 37.38 27.6 37.31 27.6 37.23C27.6 26.44 27.6 15.65 27.6 4.86004C27.6 4.80004 27.6 4.74004 27.59 4.67004C27.59 4.66004 27.54 4.66004 27.52 4.66004C27.46 4.65004 27.39 4.62004 27.33 4.62004C19.98 4.62004 12.63 4.62004 5.28 4.62004C5.22 4.62004 5.15 4.64004 5.09 4.66004C5.07 4.72004 5.04 4.78004 5.04 4.85004C5.04 15.64 5.04 26.44 5.04 37.23C5.04 37.29 5.07 37.36 5.08 37.42ZM49.91 37.46C49.92 37.38 49.95 37.31 49.95 37.23C49.95 26.44 49.95 15.65 49.95 4.86004C49.95 4.80004 49.95 4.74004 49.94 4.67004C49.94 4.66004 49.89 4.66004 49.87 4.66004C49.8 4.65004 49.73 4.62004 49.66 4.62004C42.4 4.62004 35.13 4.62004 27.87 4.62004C27.8 4.62004 27.73 4.62004 27.66 4.62004C27.66 5.03004 27.66 5.42004 27.66 5.81004C27.76 5.81004 27.85 5.81004 27.94 5.81004C32.38 5.81004 36.82 5.81004 41.26 5.81004C43.75 5.81004 46.24 5.81004 48.72 5.81004C48.72 5.89004 48.72 5.96004 48.72 6.04004C48.72 16.04 48.72 26.05 48.72 36.05C48.72 36.12 48.72 36.19 48.72 36.26C48.63 36.26 48.54 36.26 48.45 36.26C41.61 36.26 34.76 36.26 27.92 36.26C27.83 36.26 27.75 36.26 27.66 36.26C27.66 36.69 27.66 37.08 27.66 37.5C27.73 37.5 27.79 37.5 27.85 37.5C35.14 37.5 42.43 37.5 49.72 37.5C49.78 37.5 49.84 37.47 49.91 37.46ZM27.64 36.21C34.66 36.21 41.66 36.21 48.65 36.21C48.65 26.09 48.65 15.98 48.65 5.88004C41.64 5.88004 34.64 5.88004 27.64 5.88004C27.64 15.99 27.64 26.09 27.64 36.21Z" fill="white" stroke="#231F20" stroke-width="0.2" stroke-miterlimit="10"/>
<path d="M27.64 36.21C27.64 26.09 27.64 15.99 27.64 5.88C34.64 5.88 41.64 5.88 48.65 5.88C48.65 15.99 48.65 26.09 48.65 36.21C41.66 36.21 34.66 36.21 27.64 36.21Z" fill="white" stroke="#231F20" stroke-width="0.2" stroke-miterlimit="10"/>
<path d="M27.51 4.66003C27.54 4.66003 27.58 4.67003 27.58 4.67003C27.59 4.73003 27.59 4.79003 27.59 4.86003C27.59 15.65 27.59 26.44 27.59 37.23C27.59 37.31 27.57 37.38 27.55 37.46C27.15 37.06 26.75 36.66 26.35 36.26C26.35 36.21 26.35 36.16 26.35 36.12C26.35 26.07 26.35 16.03 26.35 5.98003C26.35 5.93003 26.35 5.87003 26.35 5.82003C26.74 5.43003 27.13 5.04003 27.51 4.66003Z" fill="white" stroke="#231F20" stroke-width="0.2" stroke-miterlimit="10"/>
<path d="M48.71 36.26C48.71 36.19 48.71 36.12 48.71 36.05C48.71 26.05 48.71 16.04 48.71 6.04002C48.71 5.96002 48.71 5.89002 48.71 5.81002C49.1 5.42002 49.48 5.04002 49.87 4.65002C49.9 4.65002 49.94 4.66002 49.94 4.66002C49.95 4.72002 49.95 4.78002 49.95 4.85002C49.95 15.64 49.95 26.43 49.95 37.22C49.95 37.3 49.93 37.37 49.91 37.45C49.51 37.06 49.11 36.66 48.71 36.26Z" fill="white" stroke="#231F20" stroke-width="0.2" stroke-miterlimit="10"/>
<path d="M5.07998 37.42C5.06998 37.36 5.03998 37.29 5.03998 37.23C5.03998 26.44 5.03998 15.64 5.03998 4.85003C5.03998 4.79003 5.05998 4.72003 5.07998 4.66003C5.46998 5.05003 5.84998 5.43003 6.23998 5.82003C6.23998 5.91003 6.23998 6.00003 6.23998 6.09003C6.23998 16.07 6.23998 26.04 6.23998 36.02C6.23998 36.1 6.23998 36.18 6.23998 36.27C5.84998 36.65 5.45998 37.03 5.07998 37.42Z" fill="white" stroke="#231F20" stroke-width="0.2" stroke-miterlimit="10"/>
<path d="M48.71 36.26C49.11 36.66 49.51 37.06 49.91 37.46C49.85 37.47 49.78 37.5 49.72 37.5C42.43 37.5 35.14 37.5 27.85 37.5C27.79 37.5 27.73 37.5 27.66 37.5C27.66 37.09 27.66 36.69 27.66 36.26C27.74 36.26 27.83 36.26 27.92 36.26C34.76 36.26 41.61 36.26 48.45 36.26C48.53 36.26 48.62 36.26 48.71 36.26Z" fill="white" stroke="#231F20" stroke-width="0.2" stroke-miterlimit="10"/>
<path d="M5.08002 37.42C5.47002 37.03 5.85002 36.65 6.24002 36.26C6.29002 36.26 6.35002 36.26 6.40002 36.26C13 36.26 19.59 36.26 26.19 36.26C26.24 36.26 26.3 36.26 26.35 36.26C26.75 36.66 27.15 37.06 27.55 37.46C27.49 37.47 27.42 37.5 27.36 37.5C19.98 37.5 12.61 37.5 5.23002 37.5C5.19002 37.5 5.06002 37.58 5.08002 37.42Z" fill="white" stroke="#231F20" stroke-width="0.2" stroke-miterlimit="10"/>
<path d="M49.86 4.65998C49.47 5.04998 49.09 5.42998 48.7 5.81998C46.21 5.81998 43.72 5.81998 41.24 5.81998C36.8 5.81998 32.36 5.81998 27.92 5.81998C27.83 5.81998 27.74 5.81998 27.64 5.81998C27.64 5.41998 27.64 5.03998 27.64 4.62998C27.71 4.62998 27.78 4.62998 27.85 4.62998C35.11 4.62998 42.38 4.62998 49.64 4.62998C49.72 4.61998 49.79 4.63998 49.86 4.65998Z" fill="white" stroke="#231F20" stroke-width="0.2" stroke-miterlimit="10"/>
<path d="M6.24002 5.82C5.85002 5.43 5.47002 5.04 5.08002 4.66C5.14002 4.65 5.21002 4.62 5.27002 4.62C12.62 4.62 19.97 4.62 27.32 4.62C27.38 4.62 27.45 4.64 27.51 4.66C27.12 5.05 26.74 5.43 26.35 5.82C22.54 5.82 18.74 5.82 14.93 5.82C12.04 5.81 9.14002 5.81 6.24002 5.82Z" fill="white" stroke="#231F20" stroke-width="0.2" stroke-miterlimit="10"/>
<path d="M6.23999 5.82007C9.13999 5.82007 12.04 5.82007 14.94 5.82007C18.75 5.82007 22.55 5.82007 26.36 5.82007C26.36 5.87007 26.36 5.93007 26.36 5.98007C26.36 16.0301 26.36 26.0701 26.36 36.1201C26.36 36.1701 26.36 36.2201 26.36 36.2601C26.31 36.2601 26.25 36.2601 26.2 36.2601C19.6 36.2601 13.01 36.2601 6.40999 36.2601C6.35999 36.2601 6.29999 36.2601 6.24999 36.2601C6.24999 36.1801 6.24999 36.1001 6.24999 36.0101C6.24999 26.0301 6.24999 16.0601 6.24999 6.08007C6.22999 5.99007 6.23999 5.90007 6.23999 5.82007ZM6.28999 5.86007C6.28999 15.9901 6.28999 26.1001 6.28999 36.2101C12.97 36.2101 19.63 36.2101 26.3 36.2101C26.3 26.0901 26.3 15.9801 26.3 5.86007C19.63 5.86007 12.97 5.86007 6.28999 5.86007Z" fill="white" stroke="#231F20" stroke-width="0.2" stroke-miterlimit="10"/>
<path d="M6.28998 5.85999C12.96 5.85999 19.62 5.85999 26.3 5.85999C26.3 15.97 26.3 26.09 26.3 36.21C19.64 36.21 12.97 36.21 6.28998 36.21C6.28998 26.1 6.28998 15.99 6.28998 5.85999Z" fill="white" stroke="#231F20" stroke-width="0.2" stroke-miterlimit="10"/>
<path d="M0.130005 0.0800781C18.38 0.0800781 36.64 0.0800781 54.89 0.0800781C54.66 0.290078 54.44 0.500078 54.21 0.700078C53.64 1.20008 53.07 1.69008 52.5 2.19008C52.22 2.43008 51.95 2.68008 51.68 2.93008C51.6 2.93008 51.53 2.93008 51.45 2.93008C35.52 2.93008 19.59 2.93008 3.66001 2.93008C3.58001 2.93008 3.51001 2.93008 3.43001 2.93008C3.42001 2.91008 3.4 2.88008 3.38 2.86008C2.54 2.15008 1.71 1.44008 0.870005 0.730078C0.620005 0.520078 0.380005 0.300078 0.130005 0.0800781Z" fill="white" stroke="#231F20" stroke-width="0.2" stroke-miterlimit="10"/>
</g>
<defs>
<clipPath id="clip0_470_1081">
<rect width="55" height="42" fill="white"/>
</clipPath>
</defs>
</svg>
