<svg width="48" height="36" viewBox="0 0 48 36" fill="none" xmlns="http://www.w3.org/2000/svg">
<g clip-path="url(#clip0_40_8511)">
<path d="M47.9532 0.0451355H0.046814V35.9549H47.9532V0.0451355Z" fill="white"/>
<path d="M47.9532 0.0451355H0.046814V35.9549H47.9532V0.0451355Z" stroke="black" stroke-width="0.2" stroke-miterlimit="10"/>
<path d="M2.70618 33.3873V2.60818" stroke="black" stroke-width="0.2" stroke-miterlimit="10"/>
<path d="M45.2891 2.60818V33.3873" stroke="black" stroke-width="0.2" stroke-miterlimit="10"/>
<path d="M0.046814 33.3873V2.60818" stroke="black" stroke-width="0.2" stroke-miterlimit="10"/>
<path d="M47.9532 2.60818V33.3873" stroke="black" stroke-width="0.2" stroke-miterlimit="10"/>
<path d="M0.046814 2.60818H47.9532" stroke="black" stroke-width="0.2" stroke-miterlimit="10"/>
<path d="M0.046814 33.3873H47.9532" stroke="black" stroke-width="0.2" stroke-miterlimit="10"/>
<path d="M0.046814 0.0451355H47.9532" stroke="black" stroke-width="0.2" stroke-miterlimit="10"/>
<path d="M0.046814 35.9549H47.9532" stroke="black" stroke-width="0.2" stroke-miterlimit="10"/>
<path d="M0.046814 35.9549V33.3873" stroke="black" stroke-width="0.2" stroke-miterlimit="10"/>
<path d="M47.9532 35.9549V33.3873" stroke="black" stroke-width="0.2" stroke-miterlimit="10"/>
<path d="M0.046814 2.60818V0.0451355" stroke="black" stroke-width="0.2" stroke-miterlimit="10"/>
<path d="M47.9532 2.60818V0.0451355" stroke="black" stroke-width="0.2" stroke-miterlimit="10"/>
<path d="M4.2887 10.9742L11.3866 4.13336" stroke="black" stroke-width="0.2" stroke-miterlimit="10"/>
<path d="M6.99963 10.1665L10.5486 6.74606" stroke="black" stroke-width="0.2" stroke-miterlimit="10"/>
<path d="M5.12683 8.36151L8.6758 4.9411" stroke="black" stroke-width="0.2" stroke-miterlimit="10"/>
</g>
<defs>
<clipPath id="clip0_40_8511">
<rect width="48" height="36" fill="white"/>
</clipPath>
</defs>
</svg>
