<svg width="55" height="42" viewBox="0 0 55 42" fill="none" xmlns="http://www.w3.org/2000/svg">
<g clip-path="url(#clip0_470_985)">
<path d="M55 41.91C54.99 41.93 54.98 41.98 54.96 41.98C54.92 41.99 54.87 41.98 54.83 41.98C36.61 41.98 18.39 41.98 0.16 41.97C0.12 41.97 0 42.07 0 41.91C0.37 41.59 0.75 41.27 1.12 40.95C1.63 40.51 2.14 40.08 2.64 39.64C2.87 39.44 3.1 39.23 3.32 39.02C3.39 39.02 3.46 39.02 3.52 39.02C19.46 39.02 35.4 39.02 51.34 39.02C51.41 39.02 51.48 39.02 51.54 39.02C51.84 39.29 52.14 39.56 52.45 39.82C53.15 40.41 53.85 41.01 54.55 41.6C54.7 41.71 54.86 41.8 55 41.91Z" fill="white" stroke="#231F20" stroke-width="0.2" stroke-miterlimit="10"/>
<path d="M3.37 -0.0200195C19.42 -0.0200195 35.47 -0.0200195 51.53 -0.0200195C51.53 0.93998 51.53 1.89998 51.53 2.84998C35.46 2.84998 19.43 2.84998 3.37 2.84998C3.37 1.88998 3.37 0.93998 3.37 -0.0200195Z" fill="white" stroke="#231F20" stroke-width="0.2" stroke-miterlimit="10"/>
<path d="M55 41.91C54.86 41.81 54.7 41.72 54.57 41.6C53.87 41.01 53.17 40.42 52.47 39.82C52.16 39.56 51.86 39.28 51.56 39.02C51.56 38.93 51.56 38.85 51.56 38.76C51.56 26.9 51.56 15.03 51.56 3.17002C51.56 3.09002 51.56 3.00002 51.56 2.90002C52.72 2.90002 53.86 2.90002 55 2.90002C55 15.9 55 28.9 55 41.91Z" fill="white" stroke="#231F20" stroke-width="0.2" stroke-miterlimit="10"/>
<path d="M3.33 39.02C3.1 39.23 2.88 39.43 2.65 39.64C2.14 40.08 1.64 40.52 1.13 40.95C0.75 41.27 0.37 41.59 0 41.91C0 28.91 0 15.91 0 2.91003C1.11 2.91003 2.21 2.91003 3.33 2.91003C3.33 3.02003 3.33 3.11003 3.33 3.20003C3.33 15.06 3.33 26.91 3.33 38.77C3.33 38.85 3.33 38.93 3.33 39.02Z" fill="white" stroke="#231F20" stroke-width="0.2" stroke-miterlimit="10"/>
<path d="M51.56 -0.0200195C52.7 -0.0200195 53.85 -0.0200195 55 -0.0200195C55 0.93998 55 1.89998 55 2.85998C53.86 2.85998 52.72 2.85998 51.56 2.85998C51.56 1.88998 51.56 0.93998 51.56 -0.0200195Z" fill="white" stroke="#231F20" stroke-width="0.2" stroke-miterlimit="10"/>
<path d="M0 2.86999C0 1.90999 0 0.94999 0 -0.0100098C1.11 -0.0100098 2.22 -0.0100098 3.33 -0.0100098C3.33 0.94999 3.33 1.89999 3.33 2.86999C2.2 2.86999 1.1 2.86999 0 2.86999Z" fill="white" stroke="#231F20" stroke-width="0.2" stroke-miterlimit="10"/>
<path d="M0 2.86999C1.1 2.86999 2.2 2.86999 3.33 2.86999C3.33 1.89999 3.33 0.93999 3.33 -0.0100098C3.34 -0.0100098 3.35 -0.0100098 3.37 -0.0100098C3.37 0.93999 3.37 1.89999 3.37 2.85999C19.42 2.85999 35.46 2.85999 51.53 2.85999C51.53 1.89999 51.53 0.94999 51.53 -0.0100098C51.54 -0.0100098 51.55 -0.0100098 51.57 -0.0100098C51.57 0.93999 51.57 1.89999 51.57 2.86999C52.73 2.86999 53.87 2.86999 55.01 2.86999C55.01 2.87999 55.01 2.88999 55.01 2.90999C53.87 2.90999 52.73 2.90999 51.57 2.90999C51.57 3.00999 51.57 3.08999 51.57 3.17999C51.57 15.04 51.57 26.91 51.57 38.77C51.57 38.86 51.57 38.94 51.57 39.03C51.5 39.03 51.43 39.03 51.37 39.03C35.43 39.03 19.49 39.03 3.55 39.03C3.48 39.03 3.41 39.03 3.35 39.03C3.35 38.94 3.35 38.86 3.35 38.77C3.35 26.91 3.35 15.06 3.35 3.19999C3.35 3.10999 3.35 3.02999 3.35 2.90999C2.23 2.90999 1.13 2.90999 0.02 2.90999C0 2.88999 0 2.87999 0 2.86999ZM51.49 38.95C51.5 38.89 51.52 38.84 51.52 38.78C51.52 26.89 51.52 15 51.52 3.10999C51.52 3.04999 51.5 2.99999 51.49 2.93999C51.42 2.92999 51.35 2.90999 51.28 2.90999C47.83 2.90999 44.38 2.90999 40.92 2.90999C28.49 2.90999 16.07 2.90999 3.64 2.90999C3.56 2.90999 3.48 2.92999 3.4 2.93999C3.39 2.98999 3.37 3.04999 3.37 3.10999C3.37 15 3.37 26.89 3.37 38.78C3.37 38.84 3.39 38.89 3.4 38.95C3.48 38.96 3.55 38.98 3.63 38.98C10.31 38.98 16.98 38.98 23.66 38.98C32.86 38.98 42.07 38.98 51.27 38.98C51.34 38.98 51.41 38.96 51.49 38.95Z" fill="white" stroke="#231F20" stroke-width="0.2" stroke-miterlimit="10"/>
<path d="M3.40002 2.94003C3.48002 2.93003 3.56002 2.91003 3.64002 2.91003C16.07 2.91003 28.49 2.91003 40.92 2.91003C44.37 2.91003 47.82 2.91003 51.28 2.91003C51.35 2.91003 51.42 2.93003 51.49 2.94003C50.97 3.46003 50.45 3.98003 49.93 4.50003C49.87 4.50003 49.82 4.50003 49.76 4.50003C34.88 4.50003 20 4.50003 5.12002 4.50003C5.06002 4.50003 5.01002 4.50003 4.95002 4.50003C4.44002 3.97003 3.92002 3.46003 3.40002 2.94003Z" fill="white" stroke="#231F20" stroke-width="0.2" stroke-miterlimit="10"/>
<path d="M51.49 38.95C51.41 38.96 51.34 38.98 51.26 38.98C42.06 38.98 32.85 38.98 23.65 38.98C16.97 38.98 10.3 38.98 3.62001 38.98C3.54001 38.98 3.47001 38.96 3.39001 38.95C3.91001 38.43 4.43001 37.91 4.95001 37.39C5.02001 37.39 5.09001 37.39 5.15001 37.39C20.01 37.39 34.86 37.39 49.72 37.39C49.79 37.39 49.86 37.39 49.92 37.39C50.45 37.91 50.97 38.43 51.49 38.95Z" fill="white" stroke="#231F20" stroke-width="0.2" stroke-miterlimit="10"/>
<path d="M4.96 37.3899C4.44 37.9099 3.92 38.4299 3.4 38.9499C3.39 38.8899 3.37 38.8399 3.37 38.7799C3.37 26.8899 3.37 14.9999 3.37 3.10994C3.37 3.04994 3.39 2.99994 3.4 2.93994C3.92 3.45994 4.44 3.97994 4.96 4.49994C4.96 4.56994 4.96 4.63994 4.96 4.69994C4.96 15.5399 4.96 26.3699 4.96 37.2099C4.96 37.2699 4.96 37.3299 4.96 37.3899Z" fill="white" stroke="#231F20" stroke-width="0.2" stroke-miterlimit="10"/>
<path d="M51.49 38.9499C50.97 38.4299 50.45 37.9099 49.93 37.3899C49.93 35.2199 49.93 33.0399 49.93 30.8699C50 30.8599 50.06 30.8399 50.11 30.8299C50.11 29.5499 50.11 28.2799 50.11 27.0099C50.05 27.0099 50 26.9999 49.94 26.9899C49.94 22.6299 49.94 18.2799 49.94 13.9199C50.13 13.9599 50.12 13.8299 50.12 13.7099C50.12 12.5599 50.12 11.4099 50.12 10.2499C50.12 10.1999 50.12 10.1399 50.11 10.0799C50.05 10.0699 50 10.0699 49.93 10.0599C49.93 8.18993 49.93 6.33993 49.93 4.48993C50.45 3.96993 50.97 3.44993 51.49 2.92993C51.5 2.98993 51.52 3.03993 51.52 3.09993C51.52 14.9899 51.52 26.8799 51.52 38.7699C51.52 38.8399 51.5 38.8899 51.49 38.9499Z" fill="white" stroke="#231F20" stroke-width="0.2" stroke-miterlimit="10"/>
<path d="M49.93 4.48999C49.93 6.33999 49.93 8.19999 49.93 10.06C50 10.07 50.05 10.07 50.11 10.08C50.11 10.14 50.12 10.2 50.12 10.25C50.12 11.4 50.12 12.55 50.12 13.71C50.12 13.83 50.14 13.96 49.94 13.92C49.94 18.29 49.94 22.63 49.94 26.99C50 27 50.05 27 50.11 27.01C50.11 28.28 50.11 29.55 50.11 30.83C50.06 30.84 50 30.85 49.93 30.87C49.93 33.05 49.93 35.22 49.93 37.39C49.86 37.39 49.79 37.39 49.73 37.39C34.87 37.39 20.02 37.39 5.16002 37.39C5.09002 37.39 5.02002 37.39 4.96002 37.39C4.96002 37.33 4.96002 37.27 4.96002 37.21C4.96002 26.37 4.96002 15.54 4.96002 4.69999C4.96002 4.62999 4.96002 4.55999 4.96002 4.49999C5.02002 4.49999 5.07002 4.49999 5.13002 4.49999C20.01 4.49999 34.89 4.49999 49.77 4.49999C49.82 4.48999 49.88 4.48999 49.93 4.48999ZM49.86 37.32C49.87 37.26 49.89 37.19 49.89 37.13C49.89 35.1 49.89 33.08 49.89 31.05C49.89 30.98 49.89 30.92 49.89 30.85C49.81 30.85 49.75 30.85 49.68 30.85C49.68 30.9 49.67 30.94 49.67 30.98C49.67 32.98 49.67 34.98 49.67 36.98C49.67 37.04 49.69 37.1 49.7 37.16C49.62 37.17 49.53 37.2 49.45 37.2C42.24 37.2 35.04 37.2 27.83 37.2C27.75 37.2 27.67 37.2 27.59 37.2C27.54 37.4 27.68 37.34 27.76 37.34C35.06 37.34 42.36 37.34 49.65 37.34C49.74 37.36 49.8 37.33 49.86 37.32ZM5.03002 37.32C5.09002 37.33 5.14002 37.35 5.20002 37.35C12.57 37.35 19.94 37.35 27.31 37.35C27.37 37.35 27.42 37.35 27.48 37.35C27.48 37.32 27.49 37.29 27.49 37.27C27.39 37.25 27.29 37.21 27.19 37.21C19.9 37.21 12.61 37.21 5.32002 37.21C5.25002 37.21 5.18002 37.23 5.11002 37.24C5.10002 37.15 5.07002 37.06 5.07002 36.97C5.07002 26.3 5.07002 15.62 5.07002 4.94999C5.07002 4.90999 5.06002 4.85999 5.07002 4.81999C5.09002 4.76999 5.12002 4.71999 5.14002 4.66999C5.22002 4.68999 5.30002 4.70999 5.37002 4.70999C12.62 4.70999 19.87 4.70999 27.12 4.70999C27.17 4.70999 27.22 4.71999 27.27 4.70999C27.35 4.67999 27.42 4.61999 27.49 4.57999C27.48 4.55999 27.47 4.54999 27.46 4.52999C27.41 4.52999 27.36 4.52999 27.31 4.52999C19.94 4.52999 12.56 4.52999 5.19002 4.52999C5.13002 4.52999 5.08002 4.54999 5.02002 4.55999C5.02002 4.61999 5.00002 4.67999 5.00002 4.72999C5.00002 15.54 5.00002 26.34 5.00002 37.15C5.00002 37.21 5.02002 37.27 5.03002 37.32ZM49.71 4.71999C49.7 4.79999 49.68 4.86999 49.68 4.94999C49.68 6.58999 49.68 8.21999 49.68 9.85999C49.68 9.92999 49.68 9.98999 49.68 10.06C49.76 10.06 49.82 10.06 49.89 10.06C49.89 10.02 49.9 9.99999 49.9 9.97999C49.9 8.21999 49.9 6.45999 49.9 4.69999C49.9 4.65999 49.88 4.60999 49.87 4.56999C49.8 4.55999 49.73 4.53999 49.66 4.53999C42.38 4.53999 35.1 4.53999 27.82 4.53999C27.75 4.53999 27.69 4.53999 27.61 4.53999C27.61 4.60999 27.61 4.65999 27.61 4.71999C27.7 4.71999 27.78 4.71999 27.86 4.71999C34.3 4.71999 40.73 4.71999 47.17 4.71999C48.01 4.70999 48.86 4.70999 49.71 4.71999ZM49.6 37.14C49.61 37.09 49.63 37.04 49.63 36.99C49.63 35 49.63 33.01 49.63 31.02C49.63 30.95 49.57 30.88 49.54 30.81C49.52 30.82 49.51 30.82 49.49 30.83C49.49 29.57 49.49 28.31 49.49 27.04C49.51 27.04 49.52 27.05 49.54 27.05C49.57 26.98 49.63 26.91 49.63 26.84C49.63 22.59 49.63 18.34 49.63 14.09C49.63 14.02 49.57 13.95 49.54 13.88C49.52 13.89 49.51 13.89 49.49 13.9C49.49 12.63 49.49 11.37 49.49 10.1C49.51 10.11 49.53 10.11 49.55 10.12C49.58 10.06 49.62 9.99999 49.62 9.93999C49.62 8.26999 49.62 6.59999 49.62 4.92999C49.62 4.88999 49.6 4.83999 49.59 4.79999C49.53 4.78999 49.46 4.76999 49.4 4.76999C48.13 4.76999 46.86 4.76999 45.59 4.76999C32.18 4.76999 18.78 4.76999 5.37002 4.76999C5.29002 4.76999 5.21002 4.78999 5.13002 4.79999C5.13002 4.83999 5.11002 4.89999 5.11002 4.95999C5.11002 15.63 5.11002 26.3 5.11002 36.97C5.11002 37.03 5.13002 37.08 5.14002 37.14C5.22002 37.15 5.29002 37.17 5.37002 37.17C9.73002 37.17 14.1 37.17 18.46 37.17C28.77 37.17 39.07 37.17 49.38 37.17C49.45 37.17 49.53 37.15 49.6 37.14ZM49.69 13.93C49.69 18.3 49.69 22.65 49.69 27C49.76 27 49.82 27 49.89 27C49.89 22.64 49.89 18.29 49.89 13.93C49.82 13.93 49.76 13.93 49.69 13.93ZM49.69 13.87C49.7 13.87 49.71 13.87 49.72 13.87C49.72 13.25 49.72 12.63 49.72 12.01C49.71 12.01 49.7 12.01 49.69 12.01C49.69 12.63 49.69 13.25 49.69 13.87ZM49.69 28.92C49.7 28.92 49.71 28.92 49.72 28.92C49.72 28.3 49.72 27.68 49.72 27.06C49.71 27.06 49.7 27.06 49.69 27.06C49.69 27.68 49.69 28.3 49.69 28.92ZM49.92 27.05C49.91 27.05 49.9 27.05 49.88 27.05C49.88 27.67 49.88 28.29 49.88 28.91C49.89 28.91 49.9 28.91 49.92 28.91C49.92 28.3 49.92 27.68 49.92 27.05ZM49.88 13.87C49.89 13.87 49.9 13.87 49.92 13.87C49.92 13.25 49.92 12.63 49.92 12.01C49.91 12.01 49.9 12.01 49.88 12.01C49.88 12.63 49.88 13.25 49.88 13.87ZM49.88 11.95C49.89 11.95 49.9 11.95 49.92 11.95C49.92 11.34 49.92 10.73 49.92 10.12C49.91 10.12 49.9 10.12 49.88 10.12C49.88 10.73 49.88 11.34 49.88 11.95ZM49.69 11.95C49.7 11.95 49.71 11.95 49.72 11.95C49.72 11.34 49.72 10.74 49.72 10.13C49.71 10.13 49.7 10.13 49.69 10.13C49.69 10.73 49.69 11.34 49.69 11.95ZM49.69 30.8C49.7 30.8 49.71 30.8 49.72 30.8C49.72 30.19 49.72 29.59 49.72 28.98C49.71 28.98 49.7 28.98 49.69 28.98C49.69 29.59 49.69 30.19 49.69 30.8ZM49.92 28.98C49.91 28.98 49.9 28.98 49.88 28.98C49.88 29.59 49.88 30.2 49.88 30.81C49.89 30.81 49.9 30.81 49.92 30.81C49.92 30.2 49.92 29.59 49.92 28.98ZM49.81 12.05C49.8 12.05 49.8 12.05 49.79 12.05C49.79 12.64 49.79 13.24 49.79 13.83C49.8 13.83 49.8 13.83 49.81 13.83C49.81 13.24 49.81 12.64 49.81 12.05ZM49.98 13.84C49.99 13.84 49.99 13.84 50 13.84C50 13.24 50 12.64 50 12.04C49.99 12.04 49.99 12.04 49.98 12.04C49.98 12.64 49.98 13.24 49.98 13.84ZM49.62 27.11C49.61 27.7 49.61 28.28 49.61 28.87H49.62C49.62 28.28 49.62 27.69 49.62 27.11ZM49.79 28.88C49.8 28.88 49.8 28.88 49.81 28.88C49.81 28.29 49.81 27.69 49.81 27.1C49.8 27.1 49.8 27.1 49.79 27.1C49.79 27.69 49.79 28.29 49.79 28.88ZM49.98 28.88C49.99 28.88 49.99 28.88 50 28.88C50 28.28 50 27.68 50 27.09C49.99 27.09 49.99 27.09 49.98 27.09C49.98 27.69 49.98 28.29 49.98 28.88ZM49.61 13.81H49.62C49.62 13.23 49.62 12.65 49.62 12.07H49.61C49.61 12.65 49.61 13.23 49.61 13.81ZM49.8 11.9C49.81 11.91 49.81 11.91 49.82 11.92C49.82 11.33 49.82 10.75 49.82 10.16C49.81 10.16 49.81 10.16 49.8 10.16C49.8 10.74 49.8 11.32 49.8 11.9ZM49.81 29.01C49.8 29.01 49.8 29.01 49.79 29.01C49.79 29.6 49.79 30.18 49.79 30.77C49.8 30.77 49.8 30.77 49.81 30.77C49.81 30.18 49.81 29.6 49.81 29.01ZM50 29.01C49.99 29.01 49.99 29.01 49.98 29.01C49.98 29.6 49.98 30.18 49.98 30.77C49.99 30.77 49.99 30.77 50 30.77C50 30.18 50 29.6 50 29.01ZM49.62 10.17H49.61C49.61 10.75 49.61 11.32 49.61 11.9H49.62C49.62 11.32 49.62 10.75 49.62 10.17ZM49.98 11.92C49.99 11.92 49.99 11.92 50 11.92C50 11.33 50 10.75 50 10.16C49.99 10.16 49.99 10.16 49.98 10.16C49.98 10.74 49.98 11.33 49.98 11.92ZM49.62 29.03H49.61C49.61 29.61 49.61 30.18 49.61 30.76H49.62C49.62 30.18 49.62 29.6 49.62 29.03Z" fill="white" stroke="#231F20" stroke-width="0.2" stroke-miterlimit="10"/>
<path d="M5.14001 4.79C5.22001 4.78 5.30001 4.75 5.38001 4.75C18.79 4.75 32.19 4.75 45.6 4.75C46.87 4.75 48.14 4.75 49.41 4.75C49.47 4.75 49.54 4.77 49.6 4.78C49.59 4.81 49.58 4.84 49.56 4.86C49.18 5.25 48.79 5.65 48.41 6.04C48.35 6.04 48.3 6.04 48.24 6.04C34.37 6.04 20.5 6.04 6.63001 6.04C6.57001 6.04 6.52001 6.04 6.46001 6.04C6.03001 5.63 5.59001 5.21 5.14001 4.79Z" fill="white" stroke="#231F20" stroke-width="0.2" stroke-miterlimit="10"/>
<path d="M49.6 37.14C49.52 37.15 49.45 37.17 49.37 37.17C39.06 37.17 28.76 37.17 18.45 37.17C14.09 37.17 9.72001 37.17 5.36 37.17C5.28 37.17 5.21 37.15 5.13 37.14C5.24 37.04 5.36 36.94 5.47 36.84C5.8 36.52 6.13 36.2 6.46 35.88C6.53 35.88 6.6 35.88 6.66 35.88C20.51 35.88 34.35 35.88 48.2 35.88C48.27 35.88 48.34 35.88 48.4 35.88C48.5 36 48.6 36.11 48.7 36.22C49.01 36.53 49.31 36.83 49.6 37.14Z" fill="white" stroke="#231F20" stroke-width="0.2" stroke-miterlimit="10"/>
<path d="M6.46999 35.88C6.13998 36.2 5.80999 36.52 5.47999 36.84C5.36999 36.95 5.24999 37.04 5.13999 37.14C5.12999 37.08 5.10999 37.03 5.10999 36.97C5.10999 26.3 5.10999 15.63 5.10999 4.96004C5.10999 4.90004 5.12999 4.85004 5.13999 4.79004C5.57999 5.21004 6.02999 5.63004 6.46999 6.05004C6.46999 6.11004 6.46999 6.17004 6.46999 6.23004C6.46999 16.06 6.46999 25.88 6.46999 35.71C6.46999 35.77 6.46999 35.82 6.46999 35.88Z" fill="white" stroke="#231F20" stroke-width="0.2" stroke-miterlimit="10"/>
<path d="M49.6 37.1399C49.31 36.8399 49.01 36.5299 48.72 36.2299C48.61 36.1199 48.52 35.9999 48.42 35.8899C48.42 35.8499 48.42 35.7999 48.42 35.7599C48.42 25.9099 48.42 16.0599 48.42 6.20993C48.42 6.15993 48.42 6.10993 48.42 6.05993C48.8 5.66993 49.19 5.27993 49.57 4.87993C49.59 4.85993 49.6 4.82993 49.61 4.79993C49.62 4.83993 49.64 4.88993 49.64 4.92993C49.64 6.59993 49.64 8.26993 49.64 9.93993C49.64 9.99993 49.59 10.0599 49.57 10.1199C49.55 10.1099 49.53 10.1099 49.51 10.0999C49.51 11.3699 49.51 12.6299 49.51 13.8999C49.53 13.8899 49.54 13.8899 49.56 13.8799C49.59 13.9499 49.65 14.0199 49.65 14.0899C49.65 18.3399 49.65 22.5899 49.65 26.8399C49.65 26.9099 49.59 26.9799 49.56 27.0499C49.54 27.0499 49.53 27.0399 49.51 27.0399C49.51 28.2999 49.51 29.5599 49.51 30.8299C49.53 30.8199 49.54 30.8199 49.56 30.8099C49.59 30.8799 49.65 30.9499 49.65 31.0199C49.65 33.0099 49.65 34.9999 49.65 36.9899C49.63 37.0399 49.61 37.0899 49.6 37.1399Z" fill="white" stroke="#231F20" stroke-width="0.2" stroke-miterlimit="10"/>
<path d="M5.03003 4.56003C5.09003 4.55003 5.14003 4.53003 5.20003 4.53003C12.57 4.53003 19.95 4.53003 27.32 4.53003C27.37 4.53003 27.42 4.53003 27.47 4.53003C27.48 4.55003 27.49 4.56003 27.5 4.58003C27.43 4.62003 27.36 4.68003 27.28 4.71003C27.24 4.73003 27.18 4.71003 27.13 4.71003C19.88 4.71003 12.63 4.71003 5.38003 4.71003C5.30003 4.71003 5.23003 4.69003 5.15003 4.68003C5.11003 4.64003 5.07003 4.60003 5.03003 4.56003Z" fill="white" stroke="#231F20" stroke-width="0.2" stroke-miterlimit="10"/>
<path d="M49.71 4.72004C48.86 4.72004 48.01 4.72004 47.16 4.72004C40.72 4.72004 34.29 4.72004 27.85 4.72004C27.77 4.72004 27.69 4.72004 27.6 4.72004C27.6 4.65004 27.6 4.60004 27.6 4.54004C27.68 4.54004 27.74 4.54004 27.81 4.54004C35.09 4.54004 42.37 4.54004 49.65 4.54004C49.72 4.54004 49.79 4.56004 49.86 4.57004C49.81 4.61004 49.76 4.67004 49.71 4.72004Z" fill="white" stroke="#231F20" stroke-width="0.2" stroke-miterlimit="10"/>
<path d="M5.11003 37.25C5.18003 37.24 5.25003 37.22 5.32003 37.22C12.61 37.22 19.9 37.22 27.19 37.22C27.29 37.22 27.39 37.26 27.49 37.28C27.49 37.31 27.48 37.34 27.48 37.36C27.42 37.36 27.37 37.36 27.31 37.36C19.94 37.36 12.57 37.36 5.20003 37.36C5.14003 37.36 5.09003 37.34 5.03003 37.33C5.05003 37.3 5.08003 37.27 5.11003 37.25Z" fill="white" stroke="#231F20" stroke-width="0.2" stroke-miterlimit="10"/>
<path d="M49.86 37.3199C49.8 37.3299 49.73 37.3499 49.67 37.3499C42.37 37.3499 35.07 37.3499 27.78 37.3499C27.7 37.3499 27.56 37.3999 27.61 37.2099C27.69 37.2099 27.77 37.2099 27.85 37.2099C35.06 37.2099 42.26 37.2099 49.47 37.2099C49.55 37.2099 49.64 37.1799 49.72 37.1699C49.76 37.2199 49.81 37.2699 49.86 37.3199Z" fill="white" stroke="#231F20" stroke-width="0.2" stroke-miterlimit="10"/>
<path d="M49.69 13.9299C49.76 13.9299 49.82 13.9299 49.89 13.9299C49.89 18.2899 49.89 22.6399 49.89 26.9999C49.82 26.9999 49.76 26.9999 49.69 26.9999C49.69 22.6499 49.69 18.2999 49.69 13.9299Z" fill="white" stroke="#231F20" stroke-width="0.2" stroke-miterlimit="10"/>
<path d="M5.11 37.2499C5.08 37.2799 5.06 37.2999 5.03 37.3299C5.02 37.2699 5 37.2099 5 37.1499C5 26.3399 5 15.5399 5 4.72994C5 4.66994 5.02 4.61994 5.03 4.55994C5.07 4.59994 5.11 4.63994 5.14 4.67994C5.11 4.72994 5.08 4.77994 5.07 4.82994C5.06 4.86994 5.07 4.91994 5.07 4.95994C5.07 15.6299 5.07 26.3099 5.07 36.9799C5.07 37.0699 5.09 37.1599 5.11 37.2499Z" fill="white" stroke="#231F20" stroke-width="0.2" stroke-miterlimit="10"/>
<path d="M49.86 37.32C49.81 37.27 49.76 37.22 49.71 37.17C49.7 37.11 49.68 37.05 49.68 36.99C49.68 34.99 49.68 32.99 49.68 30.99C49.68 30.95 49.68 30.91 49.69 30.86C49.76 30.86 49.82 30.86 49.9 30.86C49.9 30.93 49.9 30.99 49.9 31.06C49.9 33.09 49.9 35.11 49.9 37.14C49.89 37.2 49.87 37.26 49.86 37.32Z" fill="white" stroke="#231F20" stroke-width="0.2" stroke-miterlimit="10"/>
<path d="M49.71 4.71995C49.76 4.66995 49.81 4.61995 49.86 4.56995C49.87 4.60995 49.89 4.65995 49.89 4.69995C49.89 6.45995 49.89 8.21995 49.89 9.97995C49.89 9.99995 49.89 10.0299 49.88 10.0599C49.81 10.0599 49.75 10.0599 49.67 10.0599C49.67 9.98995 49.67 9.91995 49.67 9.85995C49.67 8.21995 49.67 6.58995 49.67 4.94995C49.68 4.86995 49.7 4.78995 49.71 4.71995Z" fill="white" stroke="#231F20" stroke-width="0.2" stroke-miterlimit="10"/>
<path d="M49.69 13.87C49.69 13.25 49.69 12.63 49.69 12.01C49.7 12.01 49.71 12.01 49.72 12.01C49.72 12.63 49.72 13.25 49.72 13.87C49.71 13.87 49.7 13.87 49.69 13.87Z" fill="white" stroke="#231F20" stroke-width="0.2" stroke-miterlimit="10"/>
<path d="M49.69 28.9199C49.69 28.2999 49.69 27.6799 49.69 27.0599C49.7 27.0599 49.71 27.0599 49.72 27.0599C49.72 27.6799 49.72 28.2999 49.72 28.9199C49.71 28.9199 49.7 28.9199 49.69 28.9199Z" fill="white" stroke="#231F20" stroke-width="0.2" stroke-miterlimit="10"/>
<path d="M49.92 27.0499C49.92 27.6699 49.92 28.2899 49.92 28.9099C49.91 28.9099 49.9 28.9099 49.88 28.9099C49.88 28.2899 49.88 27.6699 49.88 27.0499C49.89 27.0499 49.9 27.0499 49.92 27.0499Z" fill="white" stroke="#231F20" stroke-width="0.2" stroke-miterlimit="10"/>
<path d="M49.88 13.87C49.88 13.25 49.88 12.63 49.88 12.01C49.89 12.01 49.9 12.01 49.92 12.01C49.92 12.63 49.92 13.25 49.92 13.87C49.9 13.87 49.89 13.87 49.88 13.87Z" fill="white" stroke="#231F20" stroke-width="0.2" stroke-miterlimit="10"/>
<path d="M49.88 11.95C49.88 11.34 49.88 10.73 49.88 10.12C49.89 10.12 49.9 10.12 49.92 10.12C49.92 10.73 49.92 11.34 49.92 11.95C49.9 11.95 49.89 11.95 49.88 11.95Z" fill="white" stroke="#231F20" stroke-width="0.2" stroke-miterlimit="10"/>
<path d="M49.69 11.95C49.69 11.34 49.69 10.74 49.69 10.13C49.7 10.13 49.71 10.13 49.72 10.13C49.72 10.74 49.72 11.34 49.72 11.95C49.71 11.95 49.7 11.95 49.69 11.95Z" fill="white" stroke="#231F20" stroke-width="0.2" stroke-miterlimit="10"/>
<path d="M49.69 30.8C49.69 30.19 49.69 29.59 49.69 28.98C49.7 28.98 49.71 28.98 49.72 28.98C49.72 29.59 49.72 30.19 49.72 30.8C49.71 30.8 49.7 30.8 49.69 30.8Z" fill="white" stroke="#231F20" stroke-width="0.2" stroke-miterlimit="10"/>
<path d="M49.92 28.98C49.92 29.59 49.92 30.2 49.92 30.81C49.91 30.81 49.9 30.81 49.88 30.81C49.88 30.2 49.88 29.59 49.88 28.98C49.89 28.98 49.9 28.98 49.92 28.98Z" fill="white" stroke="#231F20" stroke-width="0.2" stroke-miterlimit="10"/>
<path d="M49.81 12.0499C49.81 12.6399 49.81 13.2399 49.81 13.8299C49.8 13.8299 49.8 13.8299 49.79 13.8299C49.79 13.2399 49.79 12.6399 49.79 12.0499C49.8 12.0499 49.81 12.0499 49.81 12.0499Z" fill="white" stroke="#231F20" stroke-width="0.2" stroke-miterlimit="10"/>
<path d="M49.98 13.84C49.98 13.24 49.98 12.64 49.98 12.04C49.99 12.04 49.99 12.04 50 12.04C50 12.64 50 13.24 50 13.84C49.99 13.84 49.99 13.84 49.98 13.84Z" fill="white" stroke="#231F20" stroke-width="0.2" stroke-miterlimit="10"/>
<path d="M49.62 27.11C49.62 27.7 49.62 28.28 49.62 28.87H49.61C49.61 28.28 49.61 27.69 49.62 27.11Z" fill="white" stroke="#231F20" stroke-width="0.2" stroke-miterlimit="10"/>
<path d="M49.79 28.88C49.79 28.29 49.79 27.69 49.79 27.1C49.8 27.1 49.8 27.1 49.81 27.1C49.81 27.69 49.81 28.29 49.81 28.88C49.8 28.88 49.8 28.88 49.79 28.88Z" fill="white" stroke="#231F20" stroke-width="0.2" stroke-miterlimit="10"/>
<path d="M49.98 28.88C49.98 28.28 49.98 27.68 49.98 27.09C49.99 27.09 49.99 27.09 50 27.09C50 27.69 50 28.29 50 28.88C49.99 28.88 49.99 28.88 49.98 28.88Z" fill="white" stroke="#231F20" stroke-width="0.2" stroke-miterlimit="10"/>
<path d="M49.61 13.8099C49.61 13.2299 49.61 12.6499 49.61 12.0599H49.62C49.62 12.6399 49.62 13.2199 49.62 13.7999C49.62 13.8099 49.61 13.8099 49.61 13.8099Z" fill="white" stroke="#231F20" stroke-width="0.2" stroke-miterlimit="10"/>
<path d="M49.8 11.9C49.8 11.32 49.8 10.74 49.8 10.16C49.81 10.16 49.81 10.16 49.82 10.16C49.82 10.75 49.82 11.33 49.82 11.92C49.81 11.91 49.8 11.9 49.8 11.9Z" fill="white" stroke="#231F20" stroke-width="0.2" stroke-miterlimit="10"/>
<path d="M49.81 29.01C49.81 29.6 49.81 30.18 49.81 30.77C49.8 30.77 49.8 30.77 49.79 30.77C49.79 30.18 49.79 29.6 49.79 29.01C49.8 29.01 49.81 29.01 49.81 29.01Z" fill="white" stroke="#231F20" stroke-width="0.2" stroke-miterlimit="10"/>
<path d="M50 29.01C50 29.6 50 30.18 50 30.77C49.99 30.77 49.99 30.77 49.98 30.77C49.98 30.18 49.98 29.6 49.98 29.01C49.99 29.01 49.99 29.01 50 29.01Z" fill="white" stroke="#231F20" stroke-width="0.2" stroke-miterlimit="10"/>
<path d="M49.62 10.1699C49.62 10.7499 49.62 11.3199 49.62 11.8999H49.61C49.61 11.3199 49.61 10.7499 49.61 10.1699C49.62 10.1699 49.62 10.1699 49.62 10.1699Z" fill="white" stroke="#231F20" stroke-width="0.2" stroke-miterlimit="10"/>
<path d="M49.98 11.92C49.98 11.33 49.98 10.75 49.98 10.16C49.99 10.16 49.99 10.16 50 10.16C50 10.75 50 11.33 50 11.92C49.99 11.92 49.99 11.92 49.98 11.92Z" fill="white" stroke="#231F20" stroke-width="0.2" stroke-miterlimit="10"/>
<path d="M49.62 29.03C49.62 29.61 49.62 30.18 49.62 30.76H49.61C49.61 30.18 49.61 29.61 49.61 29.03C49.62 29.03 49.62 29.03 49.62 29.03Z" fill="white" stroke="#231F20" stroke-width="0.2" stroke-miterlimit="10"/>
<path d="M48.41 6.04998C48.41 6.09998 48.41 6.14998 48.41 6.19998C48.41 16.05 48.41 25.9 48.41 35.75C48.41 35.79 48.41 35.84 48.41 35.88C48.34 35.88 48.27 35.88 48.21 35.88C34.36 35.88 20.52 35.88 6.66997 35.88C6.59997 35.88 6.52997 35.88 6.46997 35.88C6.46997 35.82 6.46997 35.77 6.46997 35.71C6.46997 25.88 6.46997 16.06 6.46997 6.22998C6.46997 6.16998 6.46997 6.10998 6.46997 6.04998C6.52997 6.04998 6.57997 6.04998 6.63997 6.04998C20.51 6.04998 34.38 6.04998 48.25 6.04998C48.3 6.03998 48.36 6.04998 48.41 6.04998ZM6.51997 35.83C20.48 35.83 34.43 35.83 48.37 35.83C48.37 25.91 48.37 16.01 48.37 6.09998C34.41 6.09998 20.47 6.09998 6.51997 6.09998C6.51997 16.01 6.51997 25.91 6.51997 35.83Z" fill="white" stroke="#231F20" stroke-width="0.2" stroke-miterlimit="10"/>
<path d="M6.52002 35.83C6.52002 25.92 6.52002 16.01 6.52002 6.09998C20.47 6.09998 34.42 6.09998 48.37 6.09998C48.37 16.01 48.37 25.91 48.37 35.83C34.42 35.83 20.48 35.83 6.52002 35.83Z" fill="white" stroke="#231F20" stroke-width="0.2" stroke-miterlimit="10"/>
</g>
<defs>
<clipPath id="clip0_470_985">
<rect width="55" height="42" fill="white"/>
</clipPath>
</defs>
</svg>
