<svg width="48" height="36" viewBox="0 0 48 36" fill="none" xmlns="http://www.w3.org/2000/svg">
<g clip-path="url(#clip0_60_13552)">
<path d="M47.9532 0.045105H0.046814V35.9549H47.9532V0.045105Z" fill="white"/>
<path fill-rule="evenodd" clip-rule="evenodd" d="M4.34308 32.4096L3.24396 33.0323L4.34308 33.6549L5.44219 33.0323L4.34308 32.4096ZM4.34308 32.1633L2.8092 33.0323L4.34308 33.9012L5.87695 33.0323L4.34308 32.1633Z" fill="#D9D9D9"/>
<path fill-rule="evenodd" clip-rule="evenodd" d="M4.34308 29.2509L3.24396 29.8736L4.34308 30.4962L5.44219 29.8736L4.34308 29.2509ZM4.34308 29.0046L2.8092 29.8736L4.34308 30.7425L5.87695 29.8736L4.34308 29.0046Z" fill="#D9D9D9"/>
<path fill-rule="evenodd" clip-rule="evenodd" d="M4.34308 26.0922L3.24396 26.7149L4.34308 27.3375L5.44219 26.7149L4.34308 26.0922ZM4.34308 25.8459L2.8092 26.7149L4.34308 27.5838L5.87695 26.7149L4.34308 25.8459Z" fill="#D9D9D9"/>
<path fill-rule="evenodd" clip-rule="evenodd" d="M4.34308 22.9335L3.24396 23.5562L4.34308 24.1788L5.44219 23.5562L4.34308 22.9335ZM4.34308 22.6873L2.8092 23.5562L4.34308 24.4251L5.87695 23.5562L4.34308 22.6873Z" fill="#D9D9D9"/>
<path fill-rule="evenodd" clip-rule="evenodd" d="M4.34308 19.7749L3.24396 20.3975L4.34308 21.0202L5.44219 20.3975L4.34308 19.7749ZM4.34308 19.5286L2.8092 20.3975L4.34308 21.2664L5.87695 20.3975L4.34308 19.5286Z" fill="#D9D9D9"/>
<path fill-rule="evenodd" clip-rule="evenodd" d="M4.34308 16.6162L3.24396 17.2388L4.34308 17.8615L5.44219 17.2388L4.34308 16.6162ZM4.34308 16.3699L2.8092 17.2388L4.34308 18.1078L5.87695 17.2388L4.34308 16.3699Z" fill="#D9D9D9"/>
<path fill-rule="evenodd" clip-rule="evenodd" d="M4.34308 13.4575L3.24396 14.0801L4.34308 14.7028L5.44219 14.0801L4.34308 13.4575ZM4.34308 13.2112L2.8092 14.0801L4.34308 14.9491L5.87695 14.0801L4.34308 13.2112Z" fill="#D9D9D9"/>
<path fill-rule="evenodd" clip-rule="evenodd" d="M4.34308 10.2988L3.24396 10.9214L4.34308 11.5441L5.44219 10.9214L4.34308 10.2988ZM4.34308 10.0525L2.8092 10.9214L4.34308 11.7904L5.87695 10.9214L4.34308 10.0525Z" fill="#D9D9D9"/>
<path fill-rule="evenodd" clip-rule="evenodd" d="M4.34308 7.14009L3.24396 7.76274L4.34308 8.38539L5.44219 7.76274L4.34308 7.14009ZM4.34308 6.8938L2.8092 7.76274L4.34308 8.63168L5.87695 7.76274L4.34308 6.8938Z" fill="#D9D9D9"/>
<path fill-rule="evenodd" clip-rule="evenodd" d="M4.34308 3.9814L3.24396 4.60405L4.34308 5.2267L5.44219 4.60405L4.34308 3.9814ZM4.34308 3.73511L2.8092 4.60405L4.34308 5.47299L5.87695 4.60405L4.34308 3.73511Z" fill="#D9D9D9"/>
<path fill-rule="evenodd" clip-rule="evenodd" d="M14.7707 32.4096L13.6716 33.0323L14.7707 33.6549L15.8699 33.0323L14.7707 32.4096ZM14.7707 32.1633L13.2369 33.0323L14.7707 33.9012L16.3046 33.0323L14.7707 32.1633Z" fill="#D9D9D9"/>
<path fill-rule="evenodd" clip-rule="evenodd" d="M14.7707 29.2509L13.6716 29.8736L14.7707 30.4962L15.8699 29.8736L14.7707 29.2509ZM14.7707 29.0046L13.2369 29.8736L14.7707 30.7425L16.3046 29.8736L14.7707 29.0046Z" fill="#D9D9D9"/>
<path fill-rule="evenodd" clip-rule="evenodd" d="M14.7707 26.0922L13.6716 26.7149L14.7707 27.3375L15.8699 26.7149L14.7707 26.0922ZM14.7707 25.8459L13.2369 26.7149L14.7707 27.5838L16.3046 26.7149L14.7707 25.8459Z" fill="#D9D9D9"/>
<path fill-rule="evenodd" clip-rule="evenodd" d="M14.7707 22.9335L13.6716 23.5562L14.7707 24.1788L15.8699 23.5562L14.7707 22.9335ZM14.7707 22.6873L13.2369 23.5562L14.7707 24.4251L16.3046 23.5562L14.7707 22.6873Z" fill="#D9D9D9"/>
<path fill-rule="evenodd" clip-rule="evenodd" d="M14.7707 19.7749L13.6716 20.3975L14.7707 21.0202L15.8699 20.3975L14.7707 19.7749ZM14.7707 19.5286L13.2369 20.3975L14.7707 21.2664L16.3046 20.3975L14.7707 19.5286Z" fill="#D9D9D9"/>
<path fill-rule="evenodd" clip-rule="evenodd" d="M14.7707 16.6162L13.6716 17.2388L14.7707 17.8615L15.8699 17.2388L14.7707 16.6162ZM14.7707 16.3699L13.2369 17.2388L14.7707 18.1078L16.3046 17.2388L14.7707 16.3699Z" fill="#D9D9D9"/>
<path fill-rule="evenodd" clip-rule="evenodd" d="M14.7707 13.4575L13.6716 14.0801L14.7707 14.7028L15.8699 14.0801L14.7707 13.4575ZM14.7707 13.2112L13.2369 14.0801L14.7707 14.9491L16.3046 14.0801L14.7707 13.2112Z" fill="#D9D9D9"/>
<path fill-rule="evenodd" clip-rule="evenodd" d="M14.7707 10.2988L13.6716 10.9214L14.7707 11.5441L15.8699 10.9214L14.7707 10.2988ZM14.7707 10.0525L13.2369 10.9214L14.7707 11.7904L16.3046 10.9214L14.7707 10.0525Z" fill="#D9D9D9"/>
<path fill-rule="evenodd" clip-rule="evenodd" d="M14.7707 7.14009L13.6716 7.76274L14.7707 8.38539L15.8699 7.76274L14.7707 7.14009ZM14.7707 6.8938L13.2369 7.76274L14.7707 8.63168L16.3046 7.76274L14.7707 6.8938Z" fill="#D9D9D9"/>
<path fill-rule="evenodd" clip-rule="evenodd" d="M14.7707 3.9814L13.6716 4.60405L14.7707 5.2267L15.8699 4.60405L14.7707 3.9814ZM14.7707 3.73511L13.2369 4.60405L14.7707 5.47299L16.3046 4.60405L14.7707 3.73511Z" fill="#D9D9D9"/>
<path fill-rule="evenodd" clip-rule="evenodd" d="M25.1984 32.4096L24.0993 33.0323L25.1984 33.6549L26.2975 33.0323L25.1984 32.4096ZM25.1984 32.1633L23.6646 33.0323L25.1984 33.9012L26.7323 33.0323L25.1984 32.1633Z" fill="#D9D9D9"/>
<path fill-rule="evenodd" clip-rule="evenodd" d="M25.1984 29.2509L24.0993 29.8736L25.1984 30.4962L26.2975 29.8736L25.1984 29.2509ZM25.1984 29.0046L23.6646 29.8736L25.1984 30.7425L26.7323 29.8736L25.1984 29.0046Z" fill="#D9D9D9"/>
<path fill-rule="evenodd" clip-rule="evenodd" d="M25.1984 26.0922L24.0993 26.7149L25.1984 27.3375L26.2975 26.7149L25.1984 26.0922ZM25.1984 25.8459L23.6646 26.7149L25.1984 27.5838L26.7323 26.7149L25.1984 25.8459Z" fill="#D9D9D9"/>
<path fill-rule="evenodd" clip-rule="evenodd" d="M25.1984 22.9335L24.0993 23.5562L25.1984 24.1788L26.2975 23.5562L25.1984 22.9335ZM25.1984 22.6873L23.6646 23.5562L25.1984 24.4251L26.7323 23.5562L25.1984 22.6873Z" fill="#D9D9D9"/>
<path fill-rule="evenodd" clip-rule="evenodd" d="M25.1984 19.7749L24.0993 20.3975L25.1984 21.0202L26.2975 20.3975L25.1984 19.7749ZM25.1984 19.5286L23.6646 20.3975L25.1984 21.2664L26.7323 20.3975L25.1984 19.5286Z" fill="#D9D9D9"/>
<path fill-rule="evenodd" clip-rule="evenodd" d="M25.1984 16.6162L24.0993 17.2388L25.1984 17.8615L26.2975 17.2388L25.1984 16.6162ZM25.1984 16.3699L23.6646 17.2388L25.1984 18.1078L26.7323 17.2388L25.1984 16.3699Z" fill="#D9D9D9"/>
<path fill-rule="evenodd" clip-rule="evenodd" d="M25.1984 13.4575L24.0993 14.0801L25.1984 14.7028L26.2975 14.0801L25.1984 13.4575ZM25.1984 13.2112L23.6646 14.0801L25.1984 14.9491L26.7323 14.0801L25.1984 13.2112Z" fill="#D9D9D9"/>
<path fill-rule="evenodd" clip-rule="evenodd" d="M25.1984 10.2988L24.0993 10.9214L25.1984 11.5441L26.2975 10.9214L25.1984 10.2988ZM25.1984 10.0525L23.6646 10.9214L25.1984 11.7904L26.7323 10.9214L25.1984 10.0525Z" fill="#D9D9D9"/>
<path fill-rule="evenodd" clip-rule="evenodd" d="M25.1984 7.14009L24.0993 7.76274L25.1984 8.38539L26.2975 7.76274L25.1984 7.14009ZM25.1984 6.8938L23.6646 7.76274L25.1984 8.63168L26.7323 7.76274L25.1984 6.8938Z" fill="#D9D9D9"/>
<path fill-rule="evenodd" clip-rule="evenodd" d="M25.1984 3.9814L24.0993 4.60405L25.1984 5.2267L26.2975 4.60405L25.1984 3.9814ZM25.1984 3.73511L23.6646 4.60405L25.1984 5.47299L26.7323 4.60405L25.1984 3.73511Z" fill="#D9D9D9"/>
<path fill-rule="evenodd" clip-rule="evenodd" d="M35.6261 32.4096L34.527 33.0323L35.6261 33.6549L36.7252 33.0323L35.6261 32.4096ZM35.6261 32.1633L34.0922 33.0323L35.6261 33.9012L37.16 33.0323L35.6261 32.1633Z" fill="#D9D9D9"/>
<path fill-rule="evenodd" clip-rule="evenodd" d="M35.6261 29.2509L34.527 29.8736L35.6261 30.4962L36.7252 29.8736L35.6261 29.2509ZM35.6261 29.0046L34.0922 29.8736L35.6261 30.7425L37.16 29.8736L35.6261 29.0046Z" fill="#D9D9D9"/>
<path fill-rule="evenodd" clip-rule="evenodd" d="M35.6261 26.0922L34.527 26.7149L35.6261 27.3375L36.7252 26.7149L35.6261 26.0922ZM35.6261 25.8459L34.0922 26.7149L35.6261 27.5838L37.16 26.7149L35.6261 25.8459Z" fill="#D9D9D9"/>
<path fill-rule="evenodd" clip-rule="evenodd" d="M35.6261 22.9335L34.527 23.5562L35.6261 24.1788L36.7252 23.5562L35.6261 22.9335ZM35.6261 22.6873L34.0922 23.5562L35.6261 24.4251L37.16 23.5562L35.6261 22.6873Z" fill="#D9D9D9"/>
<path fill-rule="evenodd" clip-rule="evenodd" d="M35.6261 19.7749L34.527 20.3975L35.6261 21.0202L36.7252 20.3975L35.6261 19.7749ZM35.6261 19.5286L34.0922 20.3975L35.6261 21.2664L37.16 20.3975L35.6261 19.5286Z" fill="#D9D9D9"/>
<path fill-rule="evenodd" clip-rule="evenodd" d="M35.6261 16.6162L34.527 17.2388L35.6261 17.8615L36.7252 17.2388L35.6261 16.6162ZM35.6261 16.3699L34.0922 17.2388L35.6261 18.1078L37.16 17.2388L35.6261 16.3699Z" fill="#D9D9D9"/>
<path fill-rule="evenodd" clip-rule="evenodd" d="M35.6261 13.4575L34.527 14.0801L35.6261 14.7028L36.7252 14.0801L35.6261 13.4575ZM35.6261 13.2112L34.0922 14.0801L35.6261 14.9491L37.16 14.0801L35.6261 13.2112Z" fill="#D9D9D9"/>
<path fill-rule="evenodd" clip-rule="evenodd" d="M35.6261 10.2988L34.527 10.9214L35.6261 11.5441L36.7252 10.9214L35.6261 10.2988ZM35.6261 10.0525L34.0922 10.9214L35.6261 11.7904L37.16 10.9214L35.6261 10.0525Z" fill="#D9D9D9"/>
<path fill-rule="evenodd" clip-rule="evenodd" d="M35.6261 7.14009L34.527 7.76274L35.6261 8.38539L36.7252 7.76274L35.6261 7.14009ZM35.6261 6.8938L34.0922 7.76274L35.6261 8.63168L37.16 7.76274L35.6261 6.8938Z" fill="#D9D9D9"/>
<path fill-rule="evenodd" clip-rule="evenodd" d="M35.6261 3.9814L34.527 4.60405L35.6261 5.2267L36.7252 4.60405L35.6261 3.9814ZM35.6261 3.73511L34.0922 4.60405L35.6261 5.47299L37.16 4.60405L35.6261 3.73511Z" fill="#D9D9D9"/>
<path fill-rule="evenodd" clip-rule="evenodd" d="M9.56463 32.4096L8.46552 33.0323L9.56463 33.6549L10.6637 33.0323L9.56463 32.4096ZM9.56463 32.1633L8.03076 33.0323L9.56463 33.9012L11.0985 33.0323L9.56463 32.1633Z" fill="#D9D9D9"/>
<path fill-rule="evenodd" clip-rule="evenodd" d="M9.56463 29.2509L8.46552 29.8736L9.56463 30.4962L10.6637 29.8736L9.56463 29.2509ZM9.56463 29.0046L8.03076 29.8736L9.56463 30.7425L11.0985 29.8736L9.56463 29.0046Z" fill="#D9D9D9"/>
<path fill-rule="evenodd" clip-rule="evenodd" d="M9.56463 26.0922L8.46552 26.7149L9.56463 27.3375L10.6637 26.7149L9.56463 26.0922ZM9.56463 25.8459L8.03076 26.7149L9.56463 27.5838L11.0985 26.7149L9.56463 25.8459Z" fill="#D9D9D9"/>
<path fill-rule="evenodd" clip-rule="evenodd" d="M9.56463 22.9335L8.46552 23.5562L9.56463 24.1788L10.6637 23.5562L9.56463 22.9335ZM9.56463 22.6873L8.03076 23.5562L9.56463 24.4251L11.0985 23.5562L9.56463 22.6873Z" fill="#D9D9D9"/>
<path fill-rule="evenodd" clip-rule="evenodd" d="M9.56463 19.7749L8.46552 20.3975L9.56463 21.0202L10.6637 20.3975L9.56463 19.7749ZM9.56463 19.5286L8.03076 20.3975L9.56463 21.2664L11.0985 20.3975L9.56463 19.5286Z" fill="#D9D9D9"/>
<path fill-rule="evenodd" clip-rule="evenodd" d="M9.56463 16.6162L8.46552 17.2388L9.56463 17.8615L10.6637 17.2388L9.56463 16.6162ZM9.56463 16.3699L8.03076 17.2388L9.56463 18.1078L11.0985 17.2388L9.56463 16.3699Z" fill="#D9D9D9"/>
<path fill-rule="evenodd" clip-rule="evenodd" d="M9.56463 13.4575L8.46552 14.0801L9.56463 14.7028L10.6637 14.0801L9.56463 13.4575ZM9.56463 13.2112L8.03076 14.0801L9.56463 14.9491L11.0985 14.0801L9.56463 13.2112Z" fill="#D9D9D9"/>
<path fill-rule="evenodd" clip-rule="evenodd" d="M9.56463 10.2988L8.46552 10.9214L9.56463 11.5441L10.6637 10.9214L9.56463 10.2988ZM9.56463 10.0525L8.03076 10.9214L9.56463 11.7904L11.0985 10.9214L9.56463 10.0525Z" fill="#D9D9D9"/>
<path fill-rule="evenodd" clip-rule="evenodd" d="M9.56463 7.14009L8.46552 7.76274L9.56463 8.38539L10.6637 7.76274L9.56463 7.14009ZM9.56463 6.8938L8.03076 7.76274L9.56463 8.63168L11.0985 7.76274L9.56463 6.8938Z" fill="#D9D9D9"/>
<path fill-rule="evenodd" clip-rule="evenodd" d="M9.56463 3.9814L8.46552 4.60405L9.56463 5.2267L10.6637 4.60405L9.56463 3.9814ZM9.56463 3.73511L8.03076 4.60405L9.56463 5.47299L11.0985 4.60405L9.56463 3.73511Z" fill="#D9D9D9"/>
<path fill-rule="evenodd" clip-rule="evenodd" d="M19.9922 32.4096L18.8931 33.0323L19.9922 33.6549L21.0914 33.0323L19.9922 32.4096ZM19.9922 32.1633L18.4584 33.0323L19.9922 33.9012L21.5261 33.0323L19.9922 32.1633Z" fill="#D9D9D9"/>
<path fill-rule="evenodd" clip-rule="evenodd" d="M19.9922 29.2509L18.8931 29.8736L19.9922 30.4962L21.0914 29.8736L19.9922 29.2509ZM19.9922 29.0046L18.4584 29.8736L19.9922 30.7425L21.5261 29.8736L19.9922 29.0046Z" fill="#D9D9D9"/>
<path fill-rule="evenodd" clip-rule="evenodd" d="M19.9922 26.0922L18.8931 26.7149L19.9922 27.3375L21.0914 26.7149L19.9922 26.0922ZM19.9922 25.8459L18.4584 26.7149L19.9922 27.5838L21.5261 26.7149L19.9922 25.8459Z" fill="#D9D9D9"/>
<path fill-rule="evenodd" clip-rule="evenodd" d="M19.9922 22.9335L18.8931 23.5562L19.9922 24.1788L21.0914 23.5562L19.9922 22.9335ZM19.9922 22.6873L18.4584 23.5562L19.9922 24.4251L21.5261 23.5562L19.9922 22.6873Z" fill="#D9D9D9"/>
<path fill-rule="evenodd" clip-rule="evenodd" d="M19.9922 19.7749L18.8931 20.3975L19.9922 21.0202L21.0914 20.3975L19.9922 19.7749ZM19.9922 19.5286L18.4584 20.3975L19.9922 21.2664L21.5261 20.3975L19.9922 19.5286Z" fill="#D9D9D9"/>
<path fill-rule="evenodd" clip-rule="evenodd" d="M19.9922 16.6162L18.8931 17.2388L19.9922 17.8615L21.0914 17.2388L19.9922 16.6162ZM19.9922 16.3699L18.4584 17.2388L19.9922 18.1078L21.5261 17.2388L19.9922 16.3699Z" fill="#D9D9D9"/>
<path fill-rule="evenodd" clip-rule="evenodd" d="M19.9922 13.4575L18.8931 14.0801L19.9922 14.7028L21.0914 14.0801L19.9922 13.4575ZM19.9922 13.2112L18.4584 14.0801L19.9922 14.9491L21.5261 14.0801L19.9922 13.2112Z" fill="#D9D9D9"/>
<path fill-rule="evenodd" clip-rule="evenodd" d="M19.9922 10.2988L18.8931 10.9214L19.9922 11.5441L21.0914 10.9214L19.9922 10.2988ZM19.9922 10.0525L18.4584 10.9214L19.9922 11.7904L21.5261 10.9214L19.9922 10.0525Z" fill="#D9D9D9"/>
<path fill-rule="evenodd" clip-rule="evenodd" d="M19.9922 7.14009L18.8931 7.76274L19.9922 8.38539L21.0914 7.76274L19.9922 7.14009ZM19.9922 6.8938L18.4584 7.76274L19.9922 8.63168L21.5261 7.76274L19.9922 6.8938Z" fill="#D9D9D9"/>
<path fill-rule="evenodd" clip-rule="evenodd" d="M19.9922 3.9814L18.8931 4.60405L19.9922 5.2267L21.0914 4.60405L19.9922 3.9814ZM19.9922 3.73511L18.4584 4.60405L19.9922 5.47299L21.5261 4.60405L19.9922 3.73511Z" fill="#D9D9D9"/>
<path fill-rule="evenodd" clip-rule="evenodd" d="M30.42 32.4096L29.3209 33.0323L30.42 33.6549L31.5191 33.0323L30.42 32.4096ZM30.42 32.1633L28.8861 33.0323L30.42 33.9012L31.9539 33.0323L30.42 32.1633Z" fill="#D9D9D9"/>
<path fill-rule="evenodd" clip-rule="evenodd" d="M30.42 29.2509L29.3209 29.8736L30.42 30.4962L31.5191 29.8736L30.42 29.2509ZM30.42 29.0046L28.8861 29.8736L30.42 30.7425L31.9539 29.8736L30.42 29.0046Z" fill="#D9D9D9"/>
<path fill-rule="evenodd" clip-rule="evenodd" d="M30.42 26.0922L29.3209 26.7149L30.42 27.3375L31.5191 26.7149L30.42 26.0922ZM30.42 25.8459L28.8861 26.7149L30.42 27.5838L31.9539 26.7149L30.42 25.8459Z" fill="#D9D9D9"/>
<path fill-rule="evenodd" clip-rule="evenodd" d="M30.42 22.9335L29.3209 23.5562L30.42 24.1788L31.5191 23.5562L30.42 22.9335ZM30.42 22.6873L28.8861 23.5562L30.42 24.4251L31.9539 23.5562L30.42 22.6873Z" fill="#D9D9D9"/>
<path fill-rule="evenodd" clip-rule="evenodd" d="M30.42 19.7749L29.3209 20.3975L30.42 21.0202L31.5191 20.3975L30.42 19.7749ZM30.42 19.5286L28.8861 20.3975L30.42 21.2664L31.9539 20.3975L30.42 19.5286Z" fill="#D9D9D9"/>
<path fill-rule="evenodd" clip-rule="evenodd" d="M30.42 16.6162L29.3209 17.2388L30.42 17.8615L31.5191 17.2388L30.42 16.6162ZM30.42 16.3699L28.8861 17.2388L30.42 18.1078L31.9539 17.2388L30.42 16.3699Z" fill="#D9D9D9"/>
<path fill-rule="evenodd" clip-rule="evenodd" d="M30.42 13.4575L29.3209 14.0801L30.42 14.7028L31.5191 14.0801L30.42 13.4575ZM30.42 13.2112L28.8861 14.0801L30.42 14.9491L31.9539 14.0801L30.42 13.2112Z" fill="#D9D9D9"/>
<path fill-rule="evenodd" clip-rule="evenodd" d="M30.42 10.2988L29.3209 10.9214L30.42 11.5441L31.5191 10.9214L30.42 10.2988ZM30.42 10.0525L28.8861 10.9214L30.42 11.7904L31.9539 10.9214L30.42 10.0525Z" fill="#D9D9D9"/>
<path fill-rule="evenodd" clip-rule="evenodd" d="M30.42 7.14009L29.3209 7.76274L30.42 8.38539L31.5191 7.76274L30.42 7.14009ZM30.42 6.8938L28.8861 7.76274L30.42 8.63168L31.9539 7.76274L30.42 6.8938Z" fill="#D9D9D9"/>
<path fill-rule="evenodd" clip-rule="evenodd" d="M30.42 3.9814L29.3209 4.60405L30.42 5.2267L31.5191 4.60405L30.42 3.9814ZM30.42 3.73511L28.8861 4.60405L30.42 5.47299L31.9539 4.60405L30.42 3.73511Z" fill="#D9D9D9"/>
<path fill-rule="evenodd" clip-rule="evenodd" d="M40.8476 32.4096L39.7485 33.0323L40.8476 33.6549L41.9467 33.0323L40.8476 32.4096ZM40.8476 32.1633L39.3137 33.0323L40.8476 33.9012L42.3815 33.0323L40.8476 32.1633Z" fill="#D9D9D9"/>
<path fill-rule="evenodd" clip-rule="evenodd" d="M40.8476 29.2509L39.7485 29.8736L40.8476 30.4962L41.9467 29.8736L40.8476 29.2509ZM40.8476 29.0046L39.3137 29.8736L40.8476 30.7425L42.3815 29.8736L40.8476 29.0046Z" fill="#D9D9D9"/>
<path fill-rule="evenodd" clip-rule="evenodd" d="M40.8476 26.0922L39.7485 26.7149L40.8476 27.3375L41.9467 26.7149L40.8476 26.0922ZM40.8476 25.8459L39.3137 26.7149L40.8476 27.5838L42.3815 26.7149L40.8476 25.8459Z" fill="#D9D9D9"/>
<path fill-rule="evenodd" clip-rule="evenodd" d="M40.8476 22.9335L39.7485 23.5562L40.8476 24.1788L41.9467 23.5562L40.8476 22.9335ZM40.8476 22.6873L39.3137 23.5562L40.8476 24.4251L42.3815 23.5562L40.8476 22.6873Z" fill="#D9D9D9"/>
<path fill-rule="evenodd" clip-rule="evenodd" d="M40.8476 19.7749L39.7485 20.3975L40.8476 21.0202L41.9467 20.3975L40.8476 19.7749ZM40.8476 19.5286L39.3137 20.3975L40.8476 21.2664L42.3815 20.3975L40.8476 19.5286Z" fill="#D9D9D9"/>
<path fill-rule="evenodd" clip-rule="evenodd" d="M40.8476 16.6162L39.7485 17.2388L40.8476 17.8615L41.9467 17.2388L40.8476 16.6162ZM40.8476 16.3699L39.3137 17.2388L40.8476 18.1078L42.3815 17.2388L40.8476 16.3699Z" fill="#D9D9D9"/>
<path fill-rule="evenodd" clip-rule="evenodd" d="M40.8476 13.4575L39.7485 14.0801L40.8476 14.7028L41.9467 14.0801L40.8476 13.4575ZM40.8476 13.2112L39.3137 14.0801L40.8476 14.9491L42.3815 14.0801L40.8476 13.2112Z" fill="#D9D9D9"/>
<path fill-rule="evenodd" clip-rule="evenodd" d="M40.8476 10.2988L39.7485 10.9214L40.8476 11.5441L41.9467 10.9214L40.8476 10.2988ZM40.8476 10.0525L39.3137 10.9214L40.8476 11.7904L42.3815 10.9214L40.8476 10.0525Z" fill="#D9D9D9"/>
<path fill-rule="evenodd" clip-rule="evenodd" d="M40.8476 7.14009L39.7485 7.76274L40.8476 8.38539L41.9467 7.76274L40.8476 7.14009ZM40.8476 6.8938L39.3137 7.76274L40.8476 8.63168L42.3815 7.76274L40.8476 6.8938Z" fill="#D9D9D9"/>
<path fill-rule="evenodd" clip-rule="evenodd" d="M40.8476 3.9814L39.7485 4.60405L40.8476 5.2267L41.9467 4.60405L40.8476 3.9814ZM40.8476 3.73511L39.3137 4.60405L40.8476 5.47299L42.3815 4.60405L40.8476 3.73511Z" fill="#D9D9D9"/>
<path fill-rule="evenodd" clip-rule="evenodd" d="M4.34308 30.9307L3.24396 31.5533L4.34308 32.176L5.44219 31.5533L4.34308 30.9307ZM4.34308 30.6844L2.8092 31.5533L4.34308 32.4223L5.87695 31.5533L4.34308 30.6844Z" fill="#D9D9D9"/>
<path fill-rule="evenodd" clip-rule="evenodd" d="M4.34308 27.772L3.24396 28.3946L4.34308 29.0173L5.44219 28.3946L4.34308 27.772ZM4.34308 27.5257L2.8092 28.3946L4.34308 29.2636L5.87695 28.3946L4.34308 27.5257Z" fill="#D9D9D9"/>
<path fill-rule="evenodd" clip-rule="evenodd" d="M4.34308 24.6133L3.24396 25.2359L4.34308 25.8586L5.44219 25.2359L4.34308 24.6133ZM4.34308 24.367L2.8092 25.2359L4.34308 26.1049L5.87695 25.2359L4.34308 24.367Z" fill="#D9D9D9"/>
<path fill-rule="evenodd" clip-rule="evenodd" d="M4.34308 21.4546L3.24396 22.0773L4.34308 22.6999L5.44219 22.0773L4.34308 21.4546ZM4.34308 21.2083L2.8092 22.0773L4.34308 22.9462L5.87695 22.0773L4.34308 21.2083Z" fill="#D9D9D9"/>
<path fill-rule="evenodd" clip-rule="evenodd" d="M4.34308 18.2959L3.24396 18.9186L4.34308 19.5412L5.44219 18.9186L4.34308 18.2959ZM4.34308 18.0496L2.8092 18.9186L4.34308 19.7875L5.87695 18.9186L4.34308 18.0496Z" fill="#D9D9D9"/>
<path fill-rule="evenodd" clip-rule="evenodd" d="M4.34308 15.1372L3.24396 15.7599L4.34308 16.3825L5.44219 15.7599L4.34308 15.1372ZM4.34308 14.8909L2.8092 15.7599L4.34308 16.6288L5.87695 15.7599L4.34308 14.8909Z" fill="#D9D9D9"/>
<path fill-rule="evenodd" clip-rule="evenodd" d="M4.34308 11.9785L3.24396 12.6012L4.34308 13.2238L5.44219 12.6012L4.34308 11.9785ZM4.34308 11.7322L2.8092 12.6012L4.34308 13.4701L5.87695 12.6012L4.34308 11.7322Z" fill="#D9D9D9"/>
<path fill-rule="evenodd" clip-rule="evenodd" d="M4.34308 8.81987L3.24396 9.44252L4.34308 10.0652L5.44219 9.44252L4.34308 8.81987ZM4.34308 8.57358L2.8092 9.44252L4.34308 10.3115L5.87695 9.44252L4.34308 8.57358Z" fill="#D9D9D9"/>
<path fill-rule="evenodd" clip-rule="evenodd" d="M4.34308 5.66118L3.24396 6.28383L4.34308 6.90648L5.44219 6.28383L4.34308 5.66118ZM4.34308 5.41489L2.8092 6.28383L4.34308 7.15277L5.87695 6.28383L4.34308 5.41489Z" fill="#D9D9D9"/>
<path fill-rule="evenodd" clip-rule="evenodd" d="M4.34308 2.50249L3.24396 3.12514L4.34308 3.74779L5.44219 3.12514L4.34308 2.50249ZM4.34308 2.2562L2.8092 3.12514L4.34308 3.99408L5.87695 3.12514L4.34308 2.2562Z" fill="#D9D9D9"/>
<path fill-rule="evenodd" clip-rule="evenodd" d="M14.7707 30.9307L13.6716 31.5533L14.7707 32.176L15.8699 31.5533L14.7707 30.9307ZM14.7707 30.6844L13.2369 31.5533L14.7707 32.4223L16.3046 31.5533L14.7707 30.6844Z" fill="#D9D9D9"/>
<path fill-rule="evenodd" clip-rule="evenodd" d="M14.7707 27.772L13.6716 28.3946L14.7707 29.0173L15.8699 28.3946L14.7707 27.772ZM14.7707 27.5257L13.2369 28.3946L14.7707 29.2636L16.3046 28.3946L14.7707 27.5257Z" fill="#D9D9D9"/>
<path fill-rule="evenodd" clip-rule="evenodd" d="M14.7707 24.6133L13.6716 25.2359L14.7707 25.8586L15.8699 25.2359L14.7707 24.6133ZM14.7707 24.367L13.2369 25.2359L14.7707 26.1049L16.3046 25.2359L14.7707 24.367Z" fill="#D9D9D9"/>
<path fill-rule="evenodd" clip-rule="evenodd" d="M14.7707 21.4546L13.6716 22.0773L14.7707 22.6999L15.8699 22.0773L14.7707 21.4546ZM14.7707 21.2083L13.2369 22.0773L14.7707 22.9462L16.3046 22.0773L14.7707 21.2083Z" fill="#D9D9D9"/>
<path fill-rule="evenodd" clip-rule="evenodd" d="M14.7707 18.2959L13.6716 18.9186L14.7707 19.5412L15.8699 18.9186L14.7707 18.2959ZM14.7707 18.0496L13.2369 18.9186L14.7707 19.7875L16.3046 18.9186L14.7707 18.0496Z" fill="#D9D9D9"/>
<path fill-rule="evenodd" clip-rule="evenodd" d="M14.7707 15.1372L13.6716 15.7599L14.7707 16.3825L15.8699 15.7599L14.7707 15.1372ZM14.7707 14.8909L13.2369 15.7599L14.7707 16.6288L16.3046 15.7599L14.7707 14.8909Z" fill="#D9D9D9"/>
<path fill-rule="evenodd" clip-rule="evenodd" d="M14.7707 11.9785L13.6716 12.6012L14.7707 13.2238L15.8699 12.6012L14.7707 11.9785ZM14.7707 11.7322L13.2369 12.6012L14.7707 13.4701L16.3046 12.6012L14.7707 11.7322Z" fill="#D9D9D9"/>
<path fill-rule="evenodd" clip-rule="evenodd" d="M14.7707 8.81987L13.6716 9.44252L14.7707 10.0652L15.8699 9.44252L14.7707 8.81987ZM14.7707 8.57358L13.2369 9.44252L14.7707 10.3115L16.3046 9.44252L14.7707 8.57358Z" fill="#D9D9D9"/>
<path fill-rule="evenodd" clip-rule="evenodd" d="M14.7707 5.66118L13.6716 6.28383L14.7707 6.90648L15.8699 6.28383L14.7707 5.66118ZM14.7707 5.41489L13.2369 6.28383L14.7707 7.15277L16.3046 6.28383L14.7707 5.41489Z" fill="#D9D9D9"/>
<path fill-rule="evenodd" clip-rule="evenodd" d="M14.7707 2.50249L13.6716 3.12514L14.7707 3.74779L15.8699 3.12514L14.7707 2.50249ZM14.7707 2.2562L13.2369 3.12514L14.7707 3.99408L16.3046 3.12514L14.7707 2.2562Z" fill="#D9D9D9"/>
<path fill-rule="evenodd" clip-rule="evenodd" d="M25.1984 30.9307L24.0993 31.5533L25.1984 32.176L26.2975 31.5533L25.1984 30.9307ZM25.1984 30.6844L23.6646 31.5533L25.1984 32.4223L26.7323 31.5533L25.1984 30.6844Z" fill="#D9D9D9"/>
<path fill-rule="evenodd" clip-rule="evenodd" d="M25.1984 27.772L24.0993 28.3946L25.1984 29.0173L26.2975 28.3946L25.1984 27.772ZM25.1984 27.5257L23.6646 28.3946L25.1984 29.2636L26.7323 28.3946L25.1984 27.5257Z" fill="#D9D9D9"/>
<path fill-rule="evenodd" clip-rule="evenodd" d="M25.1984 24.6133L24.0993 25.2359L25.1984 25.8586L26.2975 25.2359L25.1984 24.6133ZM25.1984 24.367L23.6646 25.2359L25.1984 26.1049L26.7323 25.2359L25.1984 24.367Z" fill="#D9D9D9"/>
<path fill-rule="evenodd" clip-rule="evenodd" d="M25.1984 21.4546L24.0993 22.0773L25.1984 22.6999L26.2975 22.0773L25.1984 21.4546ZM25.1984 21.2083L23.6646 22.0773L25.1984 22.9462L26.7323 22.0773L25.1984 21.2083Z" fill="#D9D9D9"/>
<path fill-rule="evenodd" clip-rule="evenodd" d="M25.1984 18.2959L24.0993 18.9186L25.1984 19.5412L26.2975 18.9186L25.1984 18.2959ZM25.1984 18.0496L23.6646 18.9186L25.1984 19.7875L26.7323 18.9186L25.1984 18.0496Z" fill="#D9D9D9"/>
<path fill-rule="evenodd" clip-rule="evenodd" d="M25.1984 15.1372L24.0993 15.7599L25.1984 16.3825L26.2975 15.7599L25.1984 15.1372ZM25.1984 14.8909L23.6646 15.7599L25.1984 16.6288L26.7323 15.7599L25.1984 14.8909Z" fill="#D9D9D9"/>
<path fill-rule="evenodd" clip-rule="evenodd" d="M25.1984 11.9785L24.0993 12.6012L25.1984 13.2238L26.2975 12.6012L25.1984 11.9785ZM25.1984 11.7322L23.6646 12.6012L25.1984 13.4701L26.7323 12.6012L25.1984 11.7322Z" fill="#D9D9D9"/>
<path fill-rule="evenodd" clip-rule="evenodd" d="M25.1984 8.81987L24.0993 9.44252L25.1984 10.0652L26.2975 9.44252L25.1984 8.81987ZM25.1984 8.57358L23.6646 9.44252L25.1984 10.3115L26.7323 9.44252L25.1984 8.57358Z" fill="#D9D9D9"/>
<path fill-rule="evenodd" clip-rule="evenodd" d="M25.1984 5.66118L24.0993 6.28383L25.1984 6.90648L26.2975 6.28383L25.1984 5.66118ZM25.1984 5.41489L23.6646 6.28383L25.1984 7.15277L26.7323 6.28383L25.1984 5.41489Z" fill="#D9D9D9"/>
<path fill-rule="evenodd" clip-rule="evenodd" d="M25.1984 2.50249L24.0993 3.12514L25.1984 3.74779L26.2975 3.12514L25.1984 2.50249ZM25.1984 2.2562L23.6646 3.12514L25.1984 3.99408L26.7323 3.12514L25.1984 2.2562Z" fill="#D9D9D9"/>
<path fill-rule="evenodd" clip-rule="evenodd" d="M35.6261 30.9307L34.527 31.5533L35.6261 32.176L36.7252 31.5533L35.6261 30.9307ZM35.6261 30.6844L34.0922 31.5533L35.6261 32.4223L37.16 31.5533L35.6261 30.6844Z" fill="#D9D9D9"/>
<path fill-rule="evenodd" clip-rule="evenodd" d="M35.6261 27.772L34.527 28.3946L35.6261 29.0173L36.7252 28.3946L35.6261 27.772ZM35.6261 27.5257L34.0922 28.3946L35.6261 29.2636L37.16 28.3946L35.6261 27.5257Z" fill="#D9D9D9"/>
<path fill-rule="evenodd" clip-rule="evenodd" d="M35.6261 24.6133L34.527 25.2359L35.6261 25.8586L36.7252 25.2359L35.6261 24.6133ZM35.6261 24.367L34.0922 25.2359L35.6261 26.1049L37.16 25.2359L35.6261 24.367Z" fill="#D9D9D9"/>
<path fill-rule="evenodd" clip-rule="evenodd" d="M35.6261 21.4546L34.527 22.0773L35.6261 22.6999L36.7252 22.0773L35.6261 21.4546ZM35.6261 21.2083L34.0922 22.0773L35.6261 22.9462L37.16 22.0773L35.6261 21.2083Z" fill="#D9D9D9"/>
<path fill-rule="evenodd" clip-rule="evenodd" d="M35.6261 18.2959L34.527 18.9186L35.6261 19.5412L36.7252 18.9186L35.6261 18.2959ZM35.6261 18.0496L34.0922 18.9186L35.6261 19.7875L37.16 18.9186L35.6261 18.0496Z" fill="#D9D9D9"/>
<path fill-rule="evenodd" clip-rule="evenodd" d="M35.6261 15.1372L34.527 15.7599L35.6261 16.3825L36.7252 15.7599L35.6261 15.1372ZM35.6261 14.8909L34.0922 15.7599L35.6261 16.6288L37.16 15.7599L35.6261 14.8909Z" fill="#D9D9D9"/>
<path fill-rule="evenodd" clip-rule="evenodd" d="M35.6261 11.9785L34.527 12.6012L35.6261 13.2238L36.7252 12.6012L35.6261 11.9785ZM35.6261 11.7322L34.0922 12.6012L35.6261 13.4701L37.16 12.6012L35.6261 11.7322Z" fill="#D9D9D9"/>
<path fill-rule="evenodd" clip-rule="evenodd" d="M35.6261 8.81987L34.527 9.44252L35.6261 10.0652L36.7252 9.44252L35.6261 8.81987ZM35.6261 8.57358L34.0922 9.44252L35.6261 10.3115L37.16 9.44252L35.6261 8.57358Z" fill="#D9D9D9"/>
<path fill-rule="evenodd" clip-rule="evenodd" d="M35.6261 5.66118L34.527 6.28383L35.6261 6.90648L36.7252 6.28383L35.6261 5.66118ZM35.6261 5.41489L34.0922 6.28383L35.6261 7.15277L37.16 6.28383L35.6261 5.41489Z" fill="#D9D9D9"/>
<path fill-rule="evenodd" clip-rule="evenodd" d="M35.6261 2.50249L34.527 3.12514L35.6261 3.74779L36.7252 3.12514L35.6261 2.50249ZM35.6261 2.2562L34.0922 3.12514L35.6261 3.99408L37.16 3.12514L35.6261 2.2562Z" fill="#D9D9D9"/>
<path fill-rule="evenodd" clip-rule="evenodd" d="M9.56463 30.9307L8.46552 31.5533L9.56463 32.176L10.6637 31.5533L9.56463 30.9307ZM9.56463 30.6844L8.03076 31.5533L9.56463 32.4223L11.0985 31.5533L9.56463 30.6844Z" fill="#D9D9D9"/>
<path fill-rule="evenodd" clip-rule="evenodd" d="M9.56463 27.772L8.46552 28.3946L9.56463 29.0173L10.6637 28.3946L9.56463 27.772ZM9.56463 27.5257L8.03076 28.3946L9.56463 29.2636L11.0985 28.3946L9.56463 27.5257Z" fill="#D9D9D9"/>
<path fill-rule="evenodd" clip-rule="evenodd" d="M9.56463 24.6133L8.46552 25.2359L9.56463 25.8586L10.6637 25.2359L9.56463 24.6133ZM9.56463 24.367L8.03076 25.2359L9.56463 26.1049L11.0985 25.2359L9.56463 24.367Z" fill="#D9D9D9"/>
<path fill-rule="evenodd" clip-rule="evenodd" d="M9.56463 21.4546L8.46552 22.0773L9.56463 22.6999L10.6637 22.0773L9.56463 21.4546ZM9.56463 21.2083L8.03076 22.0773L9.56463 22.9462L11.0985 22.0773L9.56463 21.2083Z" fill="#D9D9D9"/>
<path fill-rule="evenodd" clip-rule="evenodd" d="M9.56463 18.2959L8.46552 18.9186L9.56463 19.5412L10.6637 18.9186L9.56463 18.2959ZM9.56463 18.0496L8.03076 18.9186L9.56463 19.7875L11.0985 18.9186L9.56463 18.0496Z" fill="#D9D9D9"/>
<path fill-rule="evenodd" clip-rule="evenodd" d="M9.56463 15.1372L8.46552 15.7599L9.56463 16.3825L10.6637 15.7599L9.56463 15.1372ZM9.56463 14.8909L8.03076 15.7599L9.56463 16.6288L11.0985 15.7599L9.56463 14.8909Z" fill="#D9D9D9"/>
<path fill-rule="evenodd" clip-rule="evenodd" d="M9.56463 11.9785L8.46552 12.6012L9.56463 13.2238L10.6637 12.6012L9.56463 11.9785ZM9.56463 11.7322L8.03076 12.6012L9.56463 13.4701L11.0985 12.6012L9.56463 11.7322Z" fill="#D9D9D9"/>
<path fill-rule="evenodd" clip-rule="evenodd" d="M9.56463 8.81987L8.46552 9.44252L9.56463 10.0652L10.6637 9.44252L9.56463 8.81987ZM9.56463 8.57358L8.03076 9.44252L9.56463 10.3115L11.0985 9.44252L9.56463 8.57358Z" fill="#D9D9D9"/>
<path fill-rule="evenodd" clip-rule="evenodd" d="M9.56463 5.66118L8.46552 6.28383L9.56463 6.90648L10.6637 6.28383L9.56463 5.66118ZM9.56463 5.41489L8.03076 6.28383L9.56463 7.15277L11.0985 6.28383L9.56463 5.41489Z" fill="#D9D9D9"/>
<path fill-rule="evenodd" clip-rule="evenodd" d="M9.56463 2.50249L8.46552 3.12514L9.56463 3.74779L10.6637 3.12514L9.56463 2.50249ZM9.56463 2.2562L8.03076 3.12514L9.56463 3.99408L11.0985 3.12514L9.56463 2.2562Z" fill="#D9D9D9"/>
<path fill-rule="evenodd" clip-rule="evenodd" d="M19.9922 30.9307L18.8931 31.5533L19.9922 32.176L21.0914 31.5533L19.9922 30.9307ZM19.9922 30.6844L18.4584 31.5533L19.9922 32.4223L21.5261 31.5533L19.9922 30.6844Z" fill="#D9D9D9"/>
<path fill-rule="evenodd" clip-rule="evenodd" d="M19.9922 27.772L18.8931 28.3946L19.9922 29.0173L21.0914 28.3946L19.9922 27.772ZM19.9922 27.5257L18.4584 28.3946L19.9922 29.2636L21.5261 28.3946L19.9922 27.5257Z" fill="#D9D9D9"/>
<path fill-rule="evenodd" clip-rule="evenodd" d="M19.9922 24.6133L18.8931 25.2359L19.9922 25.8586L21.0914 25.2359L19.9922 24.6133ZM19.9922 24.367L18.4584 25.2359L19.9922 26.1049L21.5261 25.2359L19.9922 24.367Z" fill="#D9D9D9"/>
<path fill-rule="evenodd" clip-rule="evenodd" d="M19.9922 21.4546L18.8931 22.0773L19.9922 22.6999L21.0914 22.0773L19.9922 21.4546ZM19.9922 21.2083L18.4584 22.0773L19.9922 22.9462L21.5261 22.0773L19.9922 21.2083Z" fill="#D9D9D9"/>
<path fill-rule="evenodd" clip-rule="evenodd" d="M19.9922 18.2959L18.8931 18.9186L19.9922 19.5412L21.0914 18.9186L19.9922 18.2959ZM19.9922 18.0496L18.4584 18.9186L19.9922 19.7875L21.5261 18.9186L19.9922 18.0496Z" fill="#D9D9D9"/>
<path fill-rule="evenodd" clip-rule="evenodd" d="M19.9922 15.1372L18.8931 15.7599L19.9922 16.3825L21.0914 15.7599L19.9922 15.1372ZM19.9922 14.8909L18.4584 15.7599L19.9922 16.6288L21.5261 15.7599L19.9922 14.8909Z" fill="#D9D9D9"/>
<path fill-rule="evenodd" clip-rule="evenodd" d="M19.9922 11.9785L18.8931 12.6012L19.9922 13.2238L21.0914 12.6012L19.9922 11.9785ZM19.9922 11.7322L18.4584 12.6012L19.9922 13.4701L21.5261 12.6012L19.9922 11.7322Z" fill="#D9D9D9"/>
<path fill-rule="evenodd" clip-rule="evenodd" d="M19.9922 8.81987L18.8931 9.44252L19.9922 10.0652L21.0914 9.44252L19.9922 8.81987ZM19.9922 8.57358L18.4584 9.44252L19.9922 10.3115L21.5261 9.44252L19.9922 8.57358Z" fill="#D9D9D9"/>
<path fill-rule="evenodd" clip-rule="evenodd" d="M19.9922 5.66118L18.8931 6.28383L19.9922 6.90648L21.0914 6.28383L19.9922 5.66118ZM19.9922 5.41489L18.4584 6.28383L19.9922 7.15277L21.5261 6.28383L19.9922 5.41489Z" fill="#D9D9D9"/>
<path fill-rule="evenodd" clip-rule="evenodd" d="M19.9922 2.50249L18.8931 3.12514L19.9922 3.74779L21.0914 3.12514L19.9922 2.50249ZM19.9922 2.2562L18.4584 3.12514L19.9922 3.99408L21.5261 3.12514L19.9922 2.2562Z" fill="#D9D9D9"/>
<path fill-rule="evenodd" clip-rule="evenodd" d="M30.42 30.9307L29.3209 31.5533L30.42 32.176L31.5191 31.5533L30.42 30.9307ZM30.42 30.6844L28.8861 31.5533L30.42 32.4223L31.9539 31.5533L30.42 30.6844Z" fill="#D9D9D9"/>
<path fill-rule="evenodd" clip-rule="evenodd" d="M30.42 27.772L29.3209 28.3946L30.42 29.0173L31.5191 28.3946L30.42 27.772ZM30.42 27.5257L28.8861 28.3946L30.42 29.2636L31.9539 28.3946L30.42 27.5257Z" fill="#D9D9D9"/>
<path fill-rule="evenodd" clip-rule="evenodd" d="M30.42 24.6133L29.3209 25.2359L30.42 25.8586L31.5191 25.2359L30.42 24.6133ZM30.42 24.367L28.8861 25.2359L30.42 26.1049L31.9539 25.2359L30.42 24.367Z" fill="#D9D9D9"/>
<path fill-rule="evenodd" clip-rule="evenodd" d="M30.42 21.4546L29.3209 22.0773L30.42 22.6999L31.5191 22.0773L30.42 21.4546ZM30.42 21.2083L28.8861 22.0773L30.42 22.9462L31.9539 22.0773L30.42 21.2083Z" fill="#D9D9D9"/>
<path fill-rule="evenodd" clip-rule="evenodd" d="M30.42 18.2959L29.3209 18.9186L30.42 19.5412L31.5191 18.9186L30.42 18.2959ZM30.42 18.0496L28.8861 18.9186L30.42 19.7875L31.9539 18.9186L30.42 18.0496Z" fill="#D9D9D9"/>
<path fill-rule="evenodd" clip-rule="evenodd" d="M30.42 15.1372L29.3209 15.7599L30.42 16.3825L31.5191 15.7599L30.42 15.1372ZM30.42 14.8909L28.8861 15.7599L30.42 16.6288L31.9539 15.7599L30.42 14.8909Z" fill="#D9D9D9"/>
<path fill-rule="evenodd" clip-rule="evenodd" d="M30.42 11.9785L29.3209 12.6012L30.42 13.2238L31.5191 12.6012L30.42 11.9785ZM30.42 11.7322L28.8861 12.6012L30.42 13.4701L31.9539 12.6012L30.42 11.7322Z" fill="#D9D9D9"/>
<path fill-rule="evenodd" clip-rule="evenodd" d="M30.42 8.81987L29.3209 9.44252L30.42 10.0652L31.5191 9.44252L30.42 8.81987ZM30.42 8.57358L28.8861 9.44252L30.42 10.3115L31.9539 9.44252L30.42 8.57358Z" fill="#D9D9D9"/>
<path fill-rule="evenodd" clip-rule="evenodd" d="M30.42 5.66118L29.3209 6.28383L30.42 6.90648L31.5191 6.28383L30.42 5.66118ZM30.42 5.41489L28.8861 6.28383L30.42 7.15277L31.9539 6.28383L30.42 5.41489Z" fill="#D9D9D9"/>
<path fill-rule="evenodd" clip-rule="evenodd" d="M30.42 2.50249L29.3209 3.12514L30.42 3.74779L31.5191 3.12514L30.42 2.50249ZM30.42 2.2562L28.8861 3.12514L30.42 3.99408L31.9539 3.12514L30.42 2.2562Z" fill="#D9D9D9"/>
<path fill-rule="evenodd" clip-rule="evenodd" d="M40.8476 30.9307L39.7485 31.5533L40.8476 32.176L41.9467 31.5533L40.8476 30.9307ZM40.8476 30.6844L39.3137 31.5533L40.8476 32.4223L42.3815 31.5533L40.8476 30.6844Z" fill="#D9D9D9"/>
<path fill-rule="evenodd" clip-rule="evenodd" d="M40.8476 27.772L39.7485 28.3946L40.8476 29.0173L41.9467 28.3946L40.8476 27.772ZM40.8476 27.5257L39.3137 28.3946L40.8476 29.2636L42.3815 28.3946L40.8476 27.5257Z" fill="#D9D9D9"/>
<path fill-rule="evenodd" clip-rule="evenodd" d="M40.8476 24.6133L39.7485 25.2359L40.8476 25.8586L41.9467 25.2359L40.8476 24.6133ZM40.8476 24.367L39.3137 25.2359L40.8476 26.1049L42.3815 25.2359L40.8476 24.367Z" fill="#D9D9D9"/>
<path fill-rule="evenodd" clip-rule="evenodd" d="M40.8476 21.4546L39.7485 22.0773L40.8476 22.6999L41.9467 22.0773L40.8476 21.4546ZM40.8476 21.2083L39.3137 22.0773L40.8476 22.9462L42.3815 22.0773L40.8476 21.2083Z" fill="#D9D9D9"/>
<path fill-rule="evenodd" clip-rule="evenodd" d="M40.8476 18.2959L39.7485 18.9186L40.8476 19.5412L41.9467 18.9186L40.8476 18.2959ZM40.8476 18.0496L39.3137 18.9186L40.8476 19.7875L42.3815 18.9186L40.8476 18.0496Z" fill="#D9D9D9"/>
<path fill-rule="evenodd" clip-rule="evenodd" d="M40.8476 15.1372L39.7485 15.7599L40.8476 16.3825L41.9467 15.7599L40.8476 15.1372ZM40.8476 14.8909L39.3137 15.7599L40.8476 16.6288L42.3815 15.7599L40.8476 14.8909Z" fill="#D9D9D9"/>
<path fill-rule="evenodd" clip-rule="evenodd" d="M40.8476 11.9785L39.7485 12.6012L40.8476 13.2238L41.9467 12.6012L40.8476 11.9785ZM40.8476 11.7322L39.3137 12.6012L40.8476 13.4701L42.3815 12.6012L40.8476 11.7322Z" fill="#D9D9D9"/>
<path fill-rule="evenodd" clip-rule="evenodd" d="M40.8476 8.81987L39.7485 9.44252L40.8476 10.0652L41.9467 9.44252L40.8476 8.81987ZM40.8476 8.57358L39.3137 9.44252L40.8476 10.3115L42.3815 9.44252L40.8476 8.57358Z" fill="#D9D9D9"/>
<path fill-rule="evenodd" clip-rule="evenodd" d="M40.8476 5.66118L39.7485 6.28383L40.8476 6.90648L41.9467 6.28383L40.8476 5.66118ZM40.8476 5.41489L39.3137 6.28383L40.8476 7.15277L42.3815 6.28383L40.8476 5.41489Z" fill="#D9D9D9"/>
<path fill-rule="evenodd" clip-rule="evenodd" d="M40.8476 2.50249L39.7485 3.12514L40.8476 3.74779L41.9467 3.12514L40.8476 2.50249ZM40.8476 2.2562L39.3137 3.12514L40.8476 3.99408L42.3815 3.12514L40.8476 2.2562Z" fill="#D9D9D9"/>
<path fill-rule="evenodd" clip-rule="evenodd" d="M6.96154 32.4096L5.86243 33.0323L6.96154 33.6549L8.06066 33.0323L6.96154 32.4096ZM6.96154 32.1633L5.42767 33.0323L6.96154 33.9012L8.49542 33.0323L6.96154 32.1633Z" fill="#D9D9D9"/>
<path fill-rule="evenodd" clip-rule="evenodd" d="M6.96154 29.2509L5.86243 29.8736L6.96154 30.4962L8.06066 29.8736L6.96154 29.2509ZM6.96154 29.0046L5.42767 29.8736L6.96154 30.7425L8.49542 29.8736L6.96154 29.0046Z" fill="#D9D9D9"/>
<path fill-rule="evenodd" clip-rule="evenodd" d="M6.96154 26.0922L5.86243 26.7149L6.96154 27.3375L8.06066 26.7149L6.96154 26.0922ZM6.96154 25.8459L5.42767 26.7149L6.96154 27.5838L8.49542 26.7149L6.96154 25.8459Z" fill="#D9D9D9"/>
<path fill-rule="evenodd" clip-rule="evenodd" d="M6.96154 22.9335L5.86243 23.5562L6.96154 24.1788L8.06066 23.5562L6.96154 22.9335ZM6.96154 22.6873L5.42767 23.5562L6.96154 24.4251L8.49542 23.5562L6.96154 22.6873Z" fill="#D9D9D9"/>
<path fill-rule="evenodd" clip-rule="evenodd" d="M6.96154 19.7749L5.86243 20.3975L6.96154 21.0202L8.06066 20.3975L6.96154 19.7749ZM6.96154 19.5286L5.42767 20.3975L6.96154 21.2664L8.49542 20.3975L6.96154 19.5286Z" fill="#D9D9D9"/>
<path fill-rule="evenodd" clip-rule="evenodd" d="M6.96154 16.6162L5.86243 17.2388L6.96154 17.8615L8.06066 17.2388L6.96154 16.6162ZM6.96154 16.3699L5.42767 17.2388L6.96154 18.1078L8.49542 17.2388L6.96154 16.3699Z" fill="#D9D9D9"/>
<path fill-rule="evenodd" clip-rule="evenodd" d="M6.96154 13.4575L5.86243 14.0801L6.96154 14.7028L8.06066 14.0801L6.96154 13.4575ZM6.96154 13.2112L5.42767 14.0801L6.96154 14.9491L8.49542 14.0801L6.96154 13.2112Z" fill="#D9D9D9"/>
<path fill-rule="evenodd" clip-rule="evenodd" d="M6.96154 10.2988L5.86243 10.9214L6.96154 11.5441L8.06066 10.9214L6.96154 10.2988ZM6.96154 10.0525L5.42767 10.9214L6.96154 11.7904L8.49542 10.9214L6.96154 10.0525Z" fill="#D9D9D9"/>
<path fill-rule="evenodd" clip-rule="evenodd" d="M6.96154 7.14009L5.86243 7.76274L6.96154 8.38539L8.06066 7.76274L6.96154 7.14009ZM6.96154 6.8938L5.42767 7.76274L6.96154 8.63168L8.49542 7.76274L6.96154 6.8938Z" fill="#D9D9D9"/>
<path fill-rule="evenodd" clip-rule="evenodd" d="M6.96154 3.9814L5.86243 4.60405L6.96154 5.2267L8.06066 4.60405L6.96154 3.9814ZM6.96154 3.73511L5.42767 4.60405L6.96154 5.47299L8.49542 4.60405L6.96154 3.73511Z" fill="#D9D9D9"/>
<path fill-rule="evenodd" clip-rule="evenodd" d="M17.3892 32.4096L16.2901 33.0323L17.3892 33.6549L18.4883 33.0323L17.3892 32.4096ZM17.3892 32.1633L15.8553 33.0323L17.3892 33.9012L18.9231 33.0323L17.3892 32.1633Z" fill="#D9D9D9"/>
<path fill-rule="evenodd" clip-rule="evenodd" d="M17.3892 29.2509L16.2901 29.8736L17.3892 30.4962L18.4883 29.8736L17.3892 29.2509ZM17.3892 29.0046L15.8553 29.8736L17.3892 30.7425L18.9231 29.8736L17.3892 29.0046Z" fill="#D9D9D9"/>
<path fill-rule="evenodd" clip-rule="evenodd" d="M17.3892 26.0922L16.2901 26.7149L17.3892 27.3375L18.4883 26.7149L17.3892 26.0922ZM17.3892 25.8459L15.8553 26.7149L17.3892 27.5838L18.9231 26.7149L17.3892 25.8459Z" fill="#D9D9D9"/>
<path fill-rule="evenodd" clip-rule="evenodd" d="M17.3892 22.9335L16.2901 23.5562L17.3892 24.1788L18.4883 23.5562L17.3892 22.9335ZM17.3892 22.6873L15.8553 23.5562L17.3892 24.4251L18.9231 23.5562L17.3892 22.6873Z" fill="#D9D9D9"/>
<path fill-rule="evenodd" clip-rule="evenodd" d="M17.3892 19.7749L16.2901 20.3975L17.3892 21.0202L18.4883 20.3975L17.3892 19.7749ZM17.3892 19.5286L15.8553 20.3975L17.3892 21.2664L18.9231 20.3975L17.3892 19.5286Z" fill="#D9D9D9"/>
<path fill-rule="evenodd" clip-rule="evenodd" d="M17.3892 16.6162L16.2901 17.2388L17.3892 17.8615L18.4883 17.2388L17.3892 16.6162ZM17.3892 16.3699L15.8553 17.2388L17.3892 18.1078L18.9231 17.2388L17.3892 16.3699Z" fill="#D9D9D9"/>
<path fill-rule="evenodd" clip-rule="evenodd" d="M17.3892 13.4575L16.2901 14.0801L17.3892 14.7028L18.4883 14.0801L17.3892 13.4575ZM17.3892 13.2112L15.8553 14.0801L17.3892 14.9491L18.9231 14.0801L17.3892 13.2112Z" fill="#D9D9D9"/>
<path fill-rule="evenodd" clip-rule="evenodd" d="M17.3892 10.2988L16.2901 10.9214L17.3892 11.5441L18.4883 10.9214L17.3892 10.2988ZM17.3892 10.0525L15.8553 10.9214L17.3892 11.7904L18.9231 10.9214L17.3892 10.0525Z" fill="#D9D9D9"/>
<path fill-rule="evenodd" clip-rule="evenodd" d="M17.3892 7.14009L16.2901 7.76274L17.3892 8.38539L18.4883 7.76274L17.3892 7.14009ZM17.3892 6.8938L15.8553 7.76274L17.3892 8.63168L18.9231 7.76274L17.3892 6.8938Z" fill="#D9D9D9"/>
<path fill-rule="evenodd" clip-rule="evenodd" d="M17.3892 3.9814L16.2901 4.60405L17.3892 5.2267L18.4883 4.60405L17.3892 3.9814ZM17.3892 3.73511L15.8553 4.60405L17.3892 5.47299L18.9231 4.60405L17.3892 3.73511Z" fill="#D9D9D9"/>
<path fill-rule="evenodd" clip-rule="evenodd" d="M27.8169 32.4096L26.7178 33.0323L27.8169 33.6549L28.916 33.0323L27.8169 32.4096ZM27.8169 32.1633L26.283 33.0323L27.8169 33.9012L29.3508 33.0323L27.8169 32.1633Z" fill="#D9D9D9"/>
<path fill-rule="evenodd" clip-rule="evenodd" d="M27.8169 29.2509L26.7178 29.8736L27.8169 30.4962L28.916 29.8736L27.8169 29.2509ZM27.8169 29.0046L26.283 29.8736L27.8169 30.7425L29.3508 29.8736L27.8169 29.0046Z" fill="#D9D9D9"/>
<path fill-rule="evenodd" clip-rule="evenodd" d="M27.8169 26.0922L26.7178 26.7149L27.8169 27.3375L28.916 26.7149L27.8169 26.0922ZM27.8169 25.8459L26.283 26.7149L27.8169 27.5838L29.3508 26.7149L27.8169 25.8459Z" fill="#D9D9D9"/>
<path fill-rule="evenodd" clip-rule="evenodd" d="M27.8169 22.9335L26.7178 23.5562L27.8169 24.1788L28.916 23.5562L27.8169 22.9335ZM27.8169 22.6873L26.283 23.5562L27.8169 24.4251L29.3508 23.5562L27.8169 22.6873Z" fill="#D9D9D9"/>
<path fill-rule="evenodd" clip-rule="evenodd" d="M27.8169 19.7749L26.7178 20.3975L27.8169 21.0202L28.916 20.3975L27.8169 19.7749ZM27.8169 19.5286L26.283 20.3975L27.8169 21.2664L29.3508 20.3975L27.8169 19.5286Z" fill="#D9D9D9"/>
<path fill-rule="evenodd" clip-rule="evenodd" d="M27.8169 16.6162L26.7178 17.2388L27.8169 17.8615L28.916 17.2388L27.8169 16.6162ZM27.8169 16.3699L26.283 17.2388L27.8169 18.1078L29.3508 17.2388L27.8169 16.3699Z" fill="#D9D9D9"/>
<path fill-rule="evenodd" clip-rule="evenodd" d="M27.8169 13.4575L26.7178 14.0801L27.8169 14.7028L28.916 14.0801L27.8169 13.4575ZM27.8169 13.2112L26.283 14.0801L27.8169 14.9491L29.3508 14.0801L27.8169 13.2112Z" fill="#D9D9D9"/>
<path fill-rule="evenodd" clip-rule="evenodd" d="M27.8169 10.2988L26.7178 10.9214L27.8169 11.5441L28.916 10.9214L27.8169 10.2988ZM27.8169 10.0525L26.283 10.9214L27.8169 11.7904L29.3508 10.9214L27.8169 10.0525Z" fill="#D9D9D9"/>
<path fill-rule="evenodd" clip-rule="evenodd" d="M27.8169 7.14009L26.7178 7.76274L27.8169 8.38539L28.916 7.76274L27.8169 7.14009ZM27.8169 6.8938L26.283 7.76274L27.8169 8.63168L29.3508 7.76274L27.8169 6.8938Z" fill="#D9D9D9"/>
<path fill-rule="evenodd" clip-rule="evenodd" d="M27.8169 3.9814L26.7178 4.60405L27.8169 5.2267L28.916 4.60405L27.8169 3.9814ZM27.8169 3.73511L26.283 4.60405L27.8169 5.47299L29.3508 4.60405L27.8169 3.73511Z" fill="#D9D9D9"/>
<path fill-rule="evenodd" clip-rule="evenodd" d="M38.2446 32.4096L37.1455 33.0323L38.2446 33.6549L39.3437 33.0323L38.2446 32.4096ZM38.2446 32.1633L36.7108 33.0323L38.2446 33.9012L39.7785 33.0323L38.2446 32.1633Z" fill="#D9D9D9"/>
<path fill-rule="evenodd" clip-rule="evenodd" d="M38.2446 29.2509L37.1455 29.8736L38.2446 30.4962L39.3437 29.8736L38.2446 29.2509ZM38.2446 29.0046L36.7108 29.8736L38.2446 30.7425L39.7785 29.8736L38.2446 29.0046Z" fill="#D9D9D9"/>
<path fill-rule="evenodd" clip-rule="evenodd" d="M38.2446 26.0922L37.1455 26.7149L38.2446 27.3375L39.3437 26.7149L38.2446 26.0922ZM38.2446 25.8459L36.7108 26.7149L38.2446 27.5838L39.7785 26.7149L38.2446 25.8459Z" fill="#D9D9D9"/>
<path fill-rule="evenodd" clip-rule="evenodd" d="M38.2446 22.9335L37.1455 23.5562L38.2446 24.1788L39.3437 23.5562L38.2446 22.9335ZM38.2446 22.6873L36.7108 23.5562L38.2446 24.4251L39.7785 23.5562L38.2446 22.6873Z" fill="#D9D9D9"/>
<path fill-rule="evenodd" clip-rule="evenodd" d="M38.2446 19.7749L37.1455 20.3975L38.2446 21.0202L39.3437 20.3975L38.2446 19.7749ZM38.2446 19.5286L36.7108 20.3975L38.2446 21.2664L39.7785 20.3975L38.2446 19.5286Z" fill="#D9D9D9"/>
<path fill-rule="evenodd" clip-rule="evenodd" d="M38.2446 16.6162L37.1455 17.2388L38.2446 17.8615L39.3437 17.2388L38.2446 16.6162ZM38.2446 16.3699L36.7108 17.2388L38.2446 18.1078L39.7785 17.2388L38.2446 16.3699Z" fill="#D9D9D9"/>
<path fill-rule="evenodd" clip-rule="evenodd" d="M38.2446 13.4575L37.1455 14.0801L38.2446 14.7028L39.3437 14.0801L38.2446 13.4575ZM38.2446 13.2112L36.7108 14.0801L38.2446 14.9491L39.7785 14.0801L38.2446 13.2112Z" fill="#D9D9D9"/>
<path fill-rule="evenodd" clip-rule="evenodd" d="M38.2446 10.2988L37.1455 10.9214L38.2446 11.5441L39.3437 10.9214L38.2446 10.2988ZM38.2446 10.0525L36.7108 10.9214L38.2446 11.7904L39.7785 10.9214L38.2446 10.0525Z" fill="#D9D9D9"/>
<path fill-rule="evenodd" clip-rule="evenodd" d="M38.2446 7.14009L37.1455 7.76274L38.2446 8.38539L39.3437 7.76274L38.2446 7.14009ZM38.2446 6.8938L36.7108 7.76274L38.2446 8.63168L39.7785 7.76274L38.2446 6.8938Z" fill="#D9D9D9"/>
<path fill-rule="evenodd" clip-rule="evenodd" d="M38.2446 3.9814L37.1455 4.60405L38.2446 5.2267L39.3437 4.60405L38.2446 3.9814ZM38.2446 3.73511L36.7108 4.60405L38.2446 5.47299L39.7785 4.60405L38.2446 3.73511Z" fill="#D9D9D9"/>
<path fill-rule="evenodd" clip-rule="evenodd" d="M12.1831 32.4096L11.084 33.0323L12.1831 33.6549L13.2822 33.0323L12.1831 32.4096ZM12.1831 32.1633L10.6492 33.0323L12.1831 33.9012L13.717 33.0323L12.1831 32.1633Z" fill="#D9D9D9"/>
<path fill-rule="evenodd" clip-rule="evenodd" d="M12.1831 29.2509L11.084 29.8736L12.1831 30.4962L13.2822 29.8736L12.1831 29.2509ZM12.1831 29.0046L10.6492 29.8736L12.1831 30.7425L13.717 29.8736L12.1831 29.0046Z" fill="#D9D9D9"/>
<path fill-rule="evenodd" clip-rule="evenodd" d="M12.1831 26.0922L11.084 26.7149L12.1831 27.3375L13.2822 26.7149L12.1831 26.0922ZM12.1831 25.8459L10.6492 26.7149L12.1831 27.5838L13.717 26.7149L12.1831 25.8459Z" fill="#D9D9D9"/>
<path fill-rule="evenodd" clip-rule="evenodd" d="M12.1831 22.9335L11.084 23.5562L12.1831 24.1788L13.2822 23.5562L12.1831 22.9335ZM12.1831 22.6873L10.6492 23.5562L12.1831 24.4251L13.717 23.5562L12.1831 22.6873Z" fill="#D9D9D9"/>
<path fill-rule="evenodd" clip-rule="evenodd" d="M12.1831 19.7749L11.084 20.3975L12.1831 21.0202L13.2822 20.3975L12.1831 19.7749ZM12.1831 19.5286L10.6492 20.3975L12.1831 21.2664L13.717 20.3975L12.1831 19.5286Z" fill="#D9D9D9"/>
<path fill-rule="evenodd" clip-rule="evenodd" d="M12.1831 16.6162L11.084 17.2388L12.1831 17.8615L13.2822 17.2388L12.1831 16.6162ZM12.1831 16.3699L10.6492 17.2388L12.1831 18.1078L13.717 17.2388L12.1831 16.3699Z" fill="#D9D9D9"/>
<path fill-rule="evenodd" clip-rule="evenodd" d="M12.1831 13.4575L11.084 14.0801L12.1831 14.7028L13.2822 14.0801L12.1831 13.4575ZM12.1831 13.2112L10.6492 14.0801L12.1831 14.9491L13.717 14.0801L12.1831 13.2112Z" fill="#D9D9D9"/>
<path fill-rule="evenodd" clip-rule="evenodd" d="M12.1831 10.2988L11.084 10.9214L12.1831 11.5441L13.2822 10.9214L12.1831 10.2988ZM12.1831 10.0525L10.6492 10.9214L12.1831 11.7904L13.717 10.9214L12.1831 10.0525Z" fill="#D9D9D9"/>
<path fill-rule="evenodd" clip-rule="evenodd" d="M12.1831 7.14009L11.084 7.76274L12.1831 8.38539L13.2822 7.76274L12.1831 7.14009ZM12.1831 6.8938L10.6492 7.76274L12.1831 8.63168L13.717 7.76274L12.1831 6.8938Z" fill="#D9D9D9"/>
<path fill-rule="evenodd" clip-rule="evenodd" d="M12.1831 3.9814L11.084 4.60405L12.1831 5.2267L13.2822 4.60405L12.1831 3.9814ZM12.1831 3.73511L10.6492 4.60405L12.1831 5.47299L13.717 4.60405L12.1831 3.73511Z" fill="#D9D9D9"/>
<path fill-rule="evenodd" clip-rule="evenodd" d="M22.6108 32.4096L21.5117 33.0323L22.6108 33.6549L23.7099 33.0323L22.6108 32.4096ZM22.6108 32.1633L21.0769 33.0323L22.6108 33.9012L24.1446 33.0323L22.6108 32.1633Z" fill="#D9D9D9"/>
<path fill-rule="evenodd" clip-rule="evenodd" d="M22.6108 29.2509L21.5117 29.8736L22.6108 30.4962L23.7099 29.8736L22.6108 29.2509ZM22.6108 29.0046L21.0769 29.8736L22.6108 30.7425L24.1446 29.8736L22.6108 29.0046Z" fill="#D9D9D9"/>
<path fill-rule="evenodd" clip-rule="evenodd" d="M22.6108 26.0922L21.5117 26.7149L22.6108 27.3375L23.7099 26.7149L22.6108 26.0922ZM22.6108 25.8459L21.0769 26.7149L22.6108 27.5838L24.1446 26.7149L22.6108 25.8459Z" fill="#D9D9D9"/>
<path fill-rule="evenodd" clip-rule="evenodd" d="M22.6108 22.9335L21.5117 23.5562L22.6108 24.1788L23.7099 23.5562L22.6108 22.9335ZM22.6108 22.6873L21.0769 23.5562L22.6108 24.4251L24.1446 23.5562L22.6108 22.6873Z" fill="#D9D9D9"/>
<path fill-rule="evenodd" clip-rule="evenodd" d="M22.6108 19.7749L21.5117 20.3975L22.6108 21.0202L23.7099 20.3975L22.6108 19.7749ZM22.6108 19.5286L21.0769 20.3975L22.6108 21.2664L24.1446 20.3975L22.6108 19.5286Z" fill="#D9D9D9"/>
<path fill-rule="evenodd" clip-rule="evenodd" d="M22.6108 16.6162L21.5117 17.2388L22.6108 17.8615L23.7099 17.2388L22.6108 16.6162ZM22.6108 16.3699L21.0769 17.2388L22.6108 18.1078L24.1446 17.2388L22.6108 16.3699Z" fill="#D9D9D9"/>
<path fill-rule="evenodd" clip-rule="evenodd" d="M22.6108 13.4575L21.5117 14.0801L22.6108 14.7028L23.7099 14.0801L22.6108 13.4575ZM22.6108 13.2112L21.0769 14.0801L22.6108 14.9491L24.1446 14.0801L22.6108 13.2112Z" fill="#D9D9D9"/>
<path fill-rule="evenodd" clip-rule="evenodd" d="M22.6108 10.2988L21.5117 10.9214L22.6108 11.5441L23.7099 10.9214L22.6108 10.2988ZM22.6108 10.0525L21.0769 10.9214L22.6108 11.7904L24.1446 10.9214L22.6108 10.0525Z" fill="#D9D9D9"/>
<path fill-rule="evenodd" clip-rule="evenodd" d="M22.6108 7.14009L21.5117 7.76274L22.6108 8.38539L23.7099 7.76274L22.6108 7.14009ZM22.6108 6.8938L21.0769 7.76274L22.6108 8.63168L24.1446 7.76274L22.6108 6.8938Z" fill="#D9D9D9"/>
<path fill-rule="evenodd" clip-rule="evenodd" d="M22.6108 3.9814L21.5117 4.60405L22.6108 5.2267L23.7099 4.60405L22.6108 3.9814ZM22.6108 3.73511L21.0769 4.60405L22.6108 5.47299L24.1446 4.60405L22.6108 3.73511Z" fill="#D9D9D9"/>
<path fill-rule="evenodd" clip-rule="evenodd" d="M33.0384 32.4096L31.9393 33.0323L33.0384 33.6549L34.1376 33.0323L33.0384 32.4096ZM33.0384 32.1633L31.5046 33.0323L33.0384 33.9012L34.5723 33.0323L33.0384 32.1633Z" fill="#D9D9D9"/>
<path fill-rule="evenodd" clip-rule="evenodd" d="M33.0384 29.2509L31.9393 29.8736L33.0384 30.4962L34.1376 29.8736L33.0384 29.2509ZM33.0384 29.0046L31.5046 29.8736L33.0384 30.7425L34.5723 29.8736L33.0384 29.0046Z" fill="#D9D9D9"/>
<path fill-rule="evenodd" clip-rule="evenodd" d="M33.0384 26.0922L31.9393 26.7149L33.0384 27.3375L34.1376 26.7149L33.0384 26.0922ZM33.0384 25.8459L31.5046 26.7149L33.0384 27.5838L34.5723 26.7149L33.0384 25.8459Z" fill="#D9D9D9"/>
<path fill-rule="evenodd" clip-rule="evenodd" d="M33.0384 22.9335L31.9393 23.5562L33.0384 24.1788L34.1376 23.5562L33.0384 22.9335ZM33.0384 22.6873L31.5046 23.5562L33.0384 24.4251L34.5723 23.5562L33.0384 22.6873Z" fill="#D9D9D9"/>
<path fill-rule="evenodd" clip-rule="evenodd" d="M33.0384 19.7749L31.9393 20.3975L33.0384 21.0202L34.1376 20.3975L33.0384 19.7749ZM33.0384 19.5286L31.5046 20.3975L33.0384 21.2664L34.5723 20.3975L33.0384 19.5286Z" fill="#D9D9D9"/>
<path fill-rule="evenodd" clip-rule="evenodd" d="M33.0384 16.6162L31.9393 17.2388L33.0384 17.8615L34.1376 17.2388L33.0384 16.6162ZM33.0384 16.3699L31.5046 17.2388L33.0384 18.1078L34.5723 17.2388L33.0384 16.3699Z" fill="#D9D9D9"/>
<path fill-rule="evenodd" clip-rule="evenodd" d="M33.0384 13.4575L31.9393 14.0801L33.0384 14.7028L34.1376 14.0801L33.0384 13.4575ZM33.0384 13.2112L31.5046 14.0801L33.0384 14.9491L34.5723 14.0801L33.0384 13.2112Z" fill="#D9D9D9"/>
<path fill-rule="evenodd" clip-rule="evenodd" d="M33.0384 10.2988L31.9393 10.9214L33.0384 11.5441L34.1376 10.9214L33.0384 10.2988ZM33.0384 10.0525L31.5046 10.9214L33.0384 11.7904L34.5723 10.9214L33.0384 10.0525Z" fill="#D9D9D9"/>
<path fill-rule="evenodd" clip-rule="evenodd" d="M33.0384 7.14009L31.9393 7.76274L33.0384 8.38539L34.1376 7.76274L33.0384 7.14009ZM33.0384 6.8938L31.5046 7.76274L33.0384 8.63168L34.5723 7.76274L33.0384 6.8938Z" fill="#D9D9D9"/>
<path fill-rule="evenodd" clip-rule="evenodd" d="M33.0384 3.9814L31.9393 4.60405L33.0384 5.2267L34.1376 4.60405L33.0384 3.9814ZM33.0384 3.73511L31.5046 4.60405L33.0384 5.47299L34.5723 4.60405L33.0384 3.73511Z" fill="#D9D9D9"/>
<path fill-rule="evenodd" clip-rule="evenodd" d="M43.4661 32.4096L42.367 33.0323L43.4661 33.6549L44.5652 33.0323L43.4661 32.4096ZM43.4661 32.1633L41.9323 33.0323L43.4661 33.9012L45 33.0323L43.4661 32.1633Z" fill="#D9D9D9"/>
<path fill-rule="evenodd" clip-rule="evenodd" d="M43.4661 29.2509L42.367 29.8736L43.4661 30.4962L44.5652 29.8736L43.4661 29.2509ZM43.4661 29.0046L41.9323 29.8736L43.4661 30.7425L45 29.8736L43.4661 29.0046Z" fill="#D9D9D9"/>
<path fill-rule="evenodd" clip-rule="evenodd" d="M43.4661 26.0922L42.367 26.7149L43.4661 27.3375L44.5652 26.7149L43.4661 26.0922ZM43.4661 25.8459L41.9323 26.7149L43.4661 27.5838L45 26.7149L43.4661 25.8459Z" fill="#D9D9D9"/>
<path fill-rule="evenodd" clip-rule="evenodd" d="M43.4661 22.9335L42.367 23.5562L43.4661 24.1788L44.5652 23.5562L43.4661 22.9335ZM43.4661 22.6873L41.9323 23.5562L43.4661 24.4251L45 23.5562L43.4661 22.6873Z" fill="#D9D9D9"/>
<path fill-rule="evenodd" clip-rule="evenodd" d="M43.4661 19.7749L42.367 20.3975L43.4661 21.0202L44.5652 20.3975L43.4661 19.7749ZM43.4661 19.5286L41.9323 20.3975L43.4661 21.2664L45 20.3975L43.4661 19.5286Z" fill="#D9D9D9"/>
<path fill-rule="evenodd" clip-rule="evenodd" d="M43.4661 16.6162L42.367 17.2388L43.4661 17.8615L44.5652 17.2388L43.4661 16.6162ZM43.4661 16.3699L41.9323 17.2388L43.4661 18.1078L45 17.2388L43.4661 16.3699Z" fill="#D9D9D9"/>
<path fill-rule="evenodd" clip-rule="evenodd" d="M43.4661 13.4575L42.367 14.0801L43.4661 14.7028L44.5652 14.0801L43.4661 13.4575ZM43.4661 13.2112L41.9323 14.0801L43.4661 14.9491L45 14.0801L43.4661 13.2112Z" fill="#D9D9D9"/>
<path fill-rule="evenodd" clip-rule="evenodd" d="M43.4661 10.2988L42.367 10.9214L43.4661 11.5441L44.5652 10.9214L43.4661 10.2988ZM43.4661 10.0525L41.9323 10.9214L43.4661 11.7904L45 10.9214L43.4661 10.0525Z" fill="#D9D9D9"/>
<path fill-rule="evenodd" clip-rule="evenodd" d="M43.4661 7.14009L42.367 7.76274L43.4661 8.38539L44.5652 7.76274L43.4661 7.14009ZM43.4661 6.8938L41.9323 7.76274L43.4661 8.63168L45 7.76274L43.4661 6.8938Z" fill="#D9D9D9"/>
<path fill-rule="evenodd" clip-rule="evenodd" d="M43.4661 3.9814L42.367 4.60405L43.4661 5.2267L44.5652 4.60405L43.4661 3.9814ZM43.4661 3.73511L41.9323 4.60405L43.4661 5.47299L45 4.60405L43.4661 3.73511Z" fill="#D9D9D9"/>
<path fill-rule="evenodd" clip-rule="evenodd" d="M6.96154 30.9307L5.86243 31.5533L6.96154 32.176L8.06066 31.5533L6.96154 30.9307ZM6.96154 30.6844L5.42767 31.5533L6.96154 32.4223L8.49542 31.5533L6.96154 30.6844Z" fill="#D9D9D9"/>
<path fill-rule="evenodd" clip-rule="evenodd" d="M6.96154 27.772L5.86243 28.3946L6.96154 29.0173L8.06066 28.3946L6.96154 27.772ZM6.96154 27.5257L5.42767 28.3946L6.96154 29.2636L8.49542 28.3946L6.96154 27.5257Z" fill="#D9D9D9"/>
<path fill-rule="evenodd" clip-rule="evenodd" d="M6.96154 24.6133L5.86243 25.2359L6.96154 25.8586L8.06066 25.2359L6.96154 24.6133ZM6.96154 24.367L5.42767 25.2359L6.96154 26.1049L8.49542 25.2359L6.96154 24.367Z" fill="#D9D9D9"/>
<path fill-rule="evenodd" clip-rule="evenodd" d="M6.96154 21.4546L5.86243 22.0773L6.96154 22.6999L8.06066 22.0773L6.96154 21.4546ZM6.96154 21.2083L5.42767 22.0773L6.96154 22.9462L8.49542 22.0773L6.96154 21.2083Z" fill="#D9D9D9"/>
<path fill-rule="evenodd" clip-rule="evenodd" d="M6.96154 18.2959L5.86243 18.9186L6.96154 19.5412L8.06066 18.9186L6.96154 18.2959ZM6.96154 18.0496L5.42767 18.9186L6.96154 19.7875L8.49542 18.9186L6.96154 18.0496Z" fill="#D9D9D9"/>
<path fill-rule="evenodd" clip-rule="evenodd" d="M6.96154 15.1372L5.86243 15.7599L6.96154 16.3825L8.06066 15.7599L6.96154 15.1372ZM6.96154 14.8909L5.42767 15.7599L6.96154 16.6288L8.49542 15.7599L6.96154 14.8909Z" fill="#D9D9D9"/>
<path fill-rule="evenodd" clip-rule="evenodd" d="M6.96154 11.9785L5.86243 12.6012L6.96154 13.2238L8.06066 12.6012L6.96154 11.9785ZM6.96154 11.7322L5.42767 12.6012L6.96154 13.4701L8.49542 12.6012L6.96154 11.7322Z" fill="#D9D9D9"/>
<path fill-rule="evenodd" clip-rule="evenodd" d="M6.96154 8.81987L5.86243 9.44252L6.96154 10.0652L8.06066 9.44252L6.96154 8.81987ZM6.96154 8.57358L5.42767 9.44252L6.96154 10.3115L8.49542 9.44252L6.96154 8.57358Z" fill="#D9D9D9"/>
<path fill-rule="evenodd" clip-rule="evenodd" d="M6.96154 5.66118L5.86243 6.28383L6.96154 6.90648L8.06066 6.28383L6.96154 5.66118ZM6.96154 5.41489L5.42767 6.28383L6.96154 7.15277L8.49542 6.28383L6.96154 5.41489Z" fill="#D9D9D9"/>
<path fill-rule="evenodd" clip-rule="evenodd" d="M6.96154 2.50249L5.86243 3.12514L6.96154 3.74779L8.06066 3.12514L6.96154 2.50249ZM6.96154 2.2562L5.42767 3.12514L6.96154 3.99408L8.49542 3.12514L6.96154 2.2562Z" fill="#D9D9D9"/>
<path fill-rule="evenodd" clip-rule="evenodd" d="M17.3892 30.9307L16.2901 31.5533L17.3892 32.176L18.4883 31.5533L17.3892 30.9307ZM17.3892 30.6844L15.8553 31.5533L17.3892 32.4223L18.9231 31.5533L17.3892 30.6844Z" fill="#D9D9D9"/>
<path fill-rule="evenodd" clip-rule="evenodd" d="M17.3892 27.772L16.2901 28.3946L17.3892 29.0173L18.4883 28.3946L17.3892 27.772ZM17.3892 27.5257L15.8553 28.3946L17.3892 29.2636L18.9231 28.3946L17.3892 27.5257Z" fill="#D9D9D9"/>
<path fill-rule="evenodd" clip-rule="evenodd" d="M17.3892 24.6133L16.2901 25.2359L17.3892 25.8586L18.4883 25.2359L17.3892 24.6133ZM17.3892 24.367L15.8553 25.2359L17.3892 26.1049L18.9231 25.2359L17.3892 24.367Z" fill="#D9D9D9"/>
<path fill-rule="evenodd" clip-rule="evenodd" d="M17.3892 21.4546L16.2901 22.0773L17.3892 22.6999L18.4883 22.0773L17.3892 21.4546ZM17.3892 21.2083L15.8553 22.0773L17.3892 22.9462L18.9231 22.0773L17.3892 21.2083Z" fill="#D9D9D9"/>
<path fill-rule="evenodd" clip-rule="evenodd" d="M17.3892 18.2959L16.2901 18.9186L17.3892 19.5412L18.4883 18.9186L17.3892 18.2959ZM17.3892 18.0496L15.8553 18.9186L17.3892 19.7875L18.9231 18.9186L17.3892 18.0496Z" fill="#D9D9D9"/>
<path fill-rule="evenodd" clip-rule="evenodd" d="M17.3892 15.1372L16.2901 15.7599L17.3892 16.3825L18.4883 15.7599L17.3892 15.1372ZM17.3892 14.8909L15.8553 15.7599L17.3892 16.6288L18.9231 15.7599L17.3892 14.8909Z" fill="#D9D9D9"/>
<path fill-rule="evenodd" clip-rule="evenodd" d="M17.3892 11.9785L16.2901 12.6012L17.3892 13.2238L18.4883 12.6012L17.3892 11.9785ZM17.3892 11.7322L15.8553 12.6012L17.3892 13.4701L18.9231 12.6012L17.3892 11.7322Z" fill="#D9D9D9"/>
<path fill-rule="evenodd" clip-rule="evenodd" d="M17.3892 8.81987L16.2901 9.44252L17.3892 10.0652L18.4883 9.44252L17.3892 8.81987ZM17.3892 8.57358L15.8553 9.44252L17.3892 10.3115L18.9231 9.44252L17.3892 8.57358Z" fill="#D9D9D9"/>
<path fill-rule="evenodd" clip-rule="evenodd" d="M17.3892 5.66118L16.2901 6.28383L17.3892 6.90648L18.4883 6.28383L17.3892 5.66118ZM17.3892 5.41489L15.8553 6.28383L17.3892 7.15277L18.9231 6.28383L17.3892 5.41489Z" fill="#D9D9D9"/>
<path fill-rule="evenodd" clip-rule="evenodd" d="M17.3892 2.50249L16.2901 3.12514L17.3892 3.74779L18.4883 3.12514L17.3892 2.50249ZM17.3892 2.2562L15.8553 3.12514L17.3892 3.99408L18.9231 3.12514L17.3892 2.2562Z" fill="#D9D9D9"/>
<path fill-rule="evenodd" clip-rule="evenodd" d="M27.8169 30.9307L26.7178 31.5533L27.8169 32.176L28.916 31.5533L27.8169 30.9307ZM27.8169 30.6844L26.283 31.5533L27.8169 32.4223L29.3508 31.5533L27.8169 30.6844Z" fill="#D9D9D9"/>
<path fill-rule="evenodd" clip-rule="evenodd" d="M27.8169 27.772L26.7178 28.3946L27.8169 29.0173L28.916 28.3946L27.8169 27.772ZM27.8169 27.5257L26.283 28.3946L27.8169 29.2636L29.3508 28.3946L27.8169 27.5257Z" fill="#D9D9D9"/>
<path fill-rule="evenodd" clip-rule="evenodd" d="M27.8169 24.6133L26.7178 25.2359L27.8169 25.8586L28.916 25.2359L27.8169 24.6133ZM27.8169 24.367L26.283 25.2359L27.8169 26.1049L29.3508 25.2359L27.8169 24.367Z" fill="#D9D9D9"/>
<path fill-rule="evenodd" clip-rule="evenodd" d="M27.8169 21.4546L26.7178 22.0773L27.8169 22.6999L28.916 22.0773L27.8169 21.4546ZM27.8169 21.2083L26.283 22.0773L27.8169 22.9462L29.3508 22.0773L27.8169 21.2083Z" fill="#D9D9D9"/>
<path fill-rule="evenodd" clip-rule="evenodd" d="M27.8169 18.2959L26.7178 18.9186L27.8169 19.5412L28.916 18.9186L27.8169 18.2959ZM27.8169 18.0496L26.283 18.9186L27.8169 19.7875L29.3508 18.9186L27.8169 18.0496Z" fill="#D9D9D9"/>
<path fill-rule="evenodd" clip-rule="evenodd" d="M27.8169 15.1372L26.7178 15.7599L27.8169 16.3825L28.916 15.7599L27.8169 15.1372ZM27.8169 14.8909L26.283 15.7599L27.8169 16.6288L29.3508 15.7599L27.8169 14.8909Z" fill="#D9D9D9"/>
<path fill-rule="evenodd" clip-rule="evenodd" d="M27.8169 11.9785L26.7178 12.6012L27.8169 13.2238L28.916 12.6012L27.8169 11.9785ZM27.8169 11.7322L26.283 12.6012L27.8169 13.4701L29.3508 12.6012L27.8169 11.7322Z" fill="#D9D9D9"/>
<path fill-rule="evenodd" clip-rule="evenodd" d="M27.8169 8.81987L26.7178 9.44252L27.8169 10.0652L28.916 9.44252L27.8169 8.81987ZM27.8169 8.57358L26.283 9.44252L27.8169 10.3115L29.3508 9.44252L27.8169 8.57358Z" fill="#D9D9D9"/>
<path fill-rule="evenodd" clip-rule="evenodd" d="M27.8169 5.66118L26.7178 6.28383L27.8169 6.90648L28.916 6.28383L27.8169 5.66118ZM27.8169 5.41489L26.283 6.28383L27.8169 7.15277L29.3508 6.28383L27.8169 5.41489Z" fill="#D9D9D9"/>
<path fill-rule="evenodd" clip-rule="evenodd" d="M27.8169 2.50249L26.7178 3.12514L27.8169 3.74779L28.916 3.12514L27.8169 2.50249ZM27.8169 2.2562L26.283 3.12514L27.8169 3.99408L29.3508 3.12514L27.8169 2.2562Z" fill="#D9D9D9"/>
<path fill-rule="evenodd" clip-rule="evenodd" d="M38.2446 30.9307L37.1455 31.5533L38.2446 32.176L39.3437 31.5533L38.2446 30.9307ZM38.2446 30.6844L36.7108 31.5533L38.2446 32.4223L39.7785 31.5533L38.2446 30.6844Z" fill="#D9D9D9"/>
<path fill-rule="evenodd" clip-rule="evenodd" d="M38.2446 27.772L37.1455 28.3946L38.2446 29.0173L39.3437 28.3946L38.2446 27.772ZM38.2446 27.5257L36.7108 28.3946L38.2446 29.2636L39.7785 28.3946L38.2446 27.5257Z" fill="#D9D9D9"/>
<path fill-rule="evenodd" clip-rule="evenodd" d="M38.2446 24.6133L37.1455 25.2359L38.2446 25.8586L39.3437 25.2359L38.2446 24.6133ZM38.2446 24.367L36.7108 25.2359L38.2446 26.1049L39.7785 25.2359L38.2446 24.367Z" fill="#D9D9D9"/>
<path fill-rule="evenodd" clip-rule="evenodd" d="M38.2446 21.4546L37.1455 22.0773L38.2446 22.6999L39.3437 22.0773L38.2446 21.4546ZM38.2446 21.2083L36.7108 22.0773L38.2446 22.9462L39.7785 22.0773L38.2446 21.2083Z" fill="#D9D9D9"/>
<path fill-rule="evenodd" clip-rule="evenodd" d="M38.2446 18.2959L37.1455 18.9186L38.2446 19.5412L39.3437 18.9186L38.2446 18.2959ZM38.2446 18.0496L36.7108 18.9186L38.2446 19.7875L39.7785 18.9186L38.2446 18.0496Z" fill="#D9D9D9"/>
<path fill-rule="evenodd" clip-rule="evenodd" d="M38.2446 15.1372L37.1455 15.7599L38.2446 16.3825L39.3437 15.7599L38.2446 15.1372ZM38.2446 14.8909L36.7108 15.7599L38.2446 16.6288L39.7785 15.7599L38.2446 14.8909Z" fill="#D9D9D9"/>
<path fill-rule="evenodd" clip-rule="evenodd" d="M38.2446 11.9785L37.1455 12.6012L38.2446 13.2238L39.3437 12.6012L38.2446 11.9785ZM38.2446 11.7322L36.7108 12.6012L38.2446 13.4701L39.7785 12.6012L38.2446 11.7322Z" fill="#D9D9D9"/>
<path fill-rule="evenodd" clip-rule="evenodd" d="M38.2446 8.81987L37.1455 9.44252L38.2446 10.0652L39.3437 9.44252L38.2446 8.81987ZM38.2446 8.57358L36.7108 9.44252L38.2446 10.3115L39.7785 9.44252L38.2446 8.57358Z" fill="#D9D9D9"/>
<path fill-rule="evenodd" clip-rule="evenodd" d="M38.2446 5.66118L37.1455 6.28383L38.2446 6.90648L39.3437 6.28383L38.2446 5.66118ZM38.2446 5.41489L36.7108 6.28383L38.2446 7.15277L39.7785 6.28383L38.2446 5.41489Z" fill="#D9D9D9"/>
<path fill-rule="evenodd" clip-rule="evenodd" d="M38.2446 2.50249L37.1455 3.12514L38.2446 3.74779L39.3437 3.12514L38.2446 2.50249ZM38.2446 2.2562L36.7108 3.12514L38.2446 3.99408L39.7785 3.12514L38.2446 2.2562Z" fill="#D9D9D9"/>
<path fill-rule="evenodd" clip-rule="evenodd" d="M12.1831 30.9307L11.084 31.5533L12.1831 32.176L13.2822 31.5533L12.1831 30.9307ZM12.1831 30.6844L10.6492 31.5533L12.1831 32.4223L13.717 31.5533L12.1831 30.6844Z" fill="#D9D9D9"/>
<path fill-rule="evenodd" clip-rule="evenodd" d="M12.1831 27.772L11.084 28.3946L12.1831 29.0173L13.2822 28.3946L12.1831 27.772ZM12.1831 27.5257L10.6492 28.3946L12.1831 29.2636L13.717 28.3946L12.1831 27.5257Z" fill="#D9D9D9"/>
<path fill-rule="evenodd" clip-rule="evenodd" d="M12.1831 24.6133L11.084 25.2359L12.1831 25.8586L13.2822 25.2359L12.1831 24.6133ZM12.1831 24.367L10.6492 25.2359L12.1831 26.1049L13.717 25.2359L12.1831 24.367Z" fill="#D9D9D9"/>
<path fill-rule="evenodd" clip-rule="evenodd" d="M12.1831 21.4546L11.084 22.0773L12.1831 22.6999L13.2822 22.0773L12.1831 21.4546ZM12.1831 21.2083L10.6492 22.0773L12.1831 22.9462L13.717 22.0773L12.1831 21.2083Z" fill="#D9D9D9"/>
<path fill-rule="evenodd" clip-rule="evenodd" d="M12.1831 18.2959L11.084 18.9186L12.1831 19.5412L13.2822 18.9186L12.1831 18.2959ZM12.1831 18.0496L10.6492 18.9186L12.1831 19.7875L13.717 18.9186L12.1831 18.0496Z" fill="#D9D9D9"/>
<path fill-rule="evenodd" clip-rule="evenodd" d="M12.1831 15.1372L11.084 15.7599L12.1831 16.3825L13.2822 15.7599L12.1831 15.1372ZM12.1831 14.8909L10.6492 15.7599L12.1831 16.6288L13.717 15.7599L12.1831 14.8909Z" fill="#D9D9D9"/>
<path fill-rule="evenodd" clip-rule="evenodd" d="M12.1831 11.9785L11.084 12.6012L12.1831 13.2238L13.2822 12.6012L12.1831 11.9785ZM12.1831 11.7322L10.6492 12.6012L12.1831 13.4701L13.717 12.6012L12.1831 11.7322Z" fill="#D9D9D9"/>
<path fill-rule="evenodd" clip-rule="evenodd" d="M12.1831 8.81987L11.084 9.44252L12.1831 10.0652L13.2822 9.44252L12.1831 8.81987ZM12.1831 8.57358L10.6492 9.44252L12.1831 10.3115L13.717 9.44252L12.1831 8.57358Z" fill="#D9D9D9"/>
<path fill-rule="evenodd" clip-rule="evenodd" d="M12.1831 5.66118L11.084 6.28383L12.1831 6.90648L13.2822 6.28383L12.1831 5.66118ZM12.1831 5.41489L10.6492 6.28383L12.1831 7.15277L13.717 6.28383L12.1831 5.41489Z" fill="#D9D9D9"/>
<path fill-rule="evenodd" clip-rule="evenodd" d="M12.1831 2.50249L11.084 3.12514L12.1831 3.74779L13.2822 3.12514L12.1831 2.50249ZM12.1831 2.2562L10.6492 3.12514L12.1831 3.99408L13.717 3.12514L12.1831 2.2562Z" fill="#D9D9D9"/>
<path fill-rule="evenodd" clip-rule="evenodd" d="M22.6108 30.9307L21.5117 31.5533L22.6108 32.176L23.7099 31.5533L22.6108 30.9307ZM22.6108 30.6844L21.0769 31.5533L22.6108 32.4223L24.1446 31.5533L22.6108 30.6844Z" fill="#D9D9D9"/>
<path fill-rule="evenodd" clip-rule="evenodd" d="M22.6108 27.772L21.5117 28.3946L22.6108 29.0173L23.7099 28.3946L22.6108 27.772ZM22.6108 27.5257L21.0769 28.3946L22.6108 29.2636L24.1446 28.3946L22.6108 27.5257Z" fill="#D9D9D9"/>
<path fill-rule="evenodd" clip-rule="evenodd" d="M22.6108 24.6133L21.5117 25.2359L22.6108 25.8586L23.7099 25.2359L22.6108 24.6133ZM22.6108 24.367L21.0769 25.2359L22.6108 26.1049L24.1446 25.2359L22.6108 24.367Z" fill="#D9D9D9"/>
<path fill-rule="evenodd" clip-rule="evenodd" d="M22.6108 21.4546L21.5117 22.0773L22.6108 22.6999L23.7099 22.0773L22.6108 21.4546ZM22.6108 21.2083L21.0769 22.0773L22.6108 22.9462L24.1446 22.0773L22.6108 21.2083Z" fill="#D9D9D9"/>
<path fill-rule="evenodd" clip-rule="evenodd" d="M22.6108 18.2959L21.5117 18.9186L22.6108 19.5412L23.7099 18.9186L22.6108 18.2959ZM22.6108 18.0496L21.0769 18.9186L22.6108 19.7875L24.1446 18.9186L22.6108 18.0496Z" fill="#D9D9D9"/>
<path fill-rule="evenodd" clip-rule="evenodd" d="M22.6108 15.1372L21.5117 15.7599L22.6108 16.3825L23.7099 15.7599L22.6108 15.1372ZM22.6108 14.8909L21.0769 15.7599L22.6108 16.6288L24.1446 15.7599L22.6108 14.8909Z" fill="#D9D9D9"/>
<path fill-rule="evenodd" clip-rule="evenodd" d="M22.6108 11.9785L21.5117 12.6012L22.6108 13.2238L23.7099 12.6012L22.6108 11.9785ZM22.6108 11.7322L21.0769 12.6012L22.6108 13.4701L24.1446 12.6012L22.6108 11.7322Z" fill="#D9D9D9"/>
<path fill-rule="evenodd" clip-rule="evenodd" d="M22.6108 8.81987L21.5117 9.44252L22.6108 10.0652L23.7099 9.44252L22.6108 8.81987ZM22.6108 8.57358L21.0769 9.44252L22.6108 10.3115L24.1446 9.44252L22.6108 8.57358Z" fill="#D9D9D9"/>
<path fill-rule="evenodd" clip-rule="evenodd" d="M22.6108 5.66118L21.5117 6.28383L22.6108 6.90648L23.7099 6.28383L22.6108 5.66118ZM22.6108 5.41489L21.0769 6.28383L22.6108 7.15277L24.1446 6.28383L22.6108 5.41489Z" fill="#D9D9D9"/>
<path fill-rule="evenodd" clip-rule="evenodd" d="M22.6108 2.50249L21.5117 3.12514L22.6108 3.74779L23.7099 3.12514L22.6108 2.50249ZM22.6108 2.2562L21.0769 3.12514L22.6108 3.99408L24.1446 3.12514L22.6108 2.2562Z" fill="#D9D9D9"/>
<path fill-rule="evenodd" clip-rule="evenodd" d="M33.0384 30.9307L31.9393 31.5533L33.0384 32.176L34.1376 31.5533L33.0384 30.9307ZM33.0384 30.6844L31.5046 31.5533L33.0384 32.4223L34.5723 31.5533L33.0384 30.6844Z" fill="#D9D9D9"/>
<path fill-rule="evenodd" clip-rule="evenodd" d="M33.0384 27.772L31.9393 28.3946L33.0384 29.0173L34.1376 28.3946L33.0384 27.772ZM33.0384 27.5257L31.5046 28.3946L33.0384 29.2636L34.5723 28.3946L33.0384 27.5257Z" fill="#D9D9D9"/>
<path fill-rule="evenodd" clip-rule="evenodd" d="M33.0384 24.6133L31.9393 25.2359L33.0384 25.8586L34.1376 25.2359L33.0384 24.6133ZM33.0384 24.367L31.5046 25.2359L33.0384 26.1049L34.5723 25.2359L33.0384 24.367Z" fill="#D9D9D9"/>
<path fill-rule="evenodd" clip-rule="evenodd" d="M33.0384 21.4546L31.9393 22.0773L33.0384 22.6999L34.1376 22.0773L33.0384 21.4546ZM33.0384 21.2083L31.5046 22.0773L33.0384 22.9462L34.5723 22.0773L33.0384 21.2083Z" fill="#D9D9D9"/>
<path fill-rule="evenodd" clip-rule="evenodd" d="M33.0384 18.2959L31.9393 18.9186L33.0384 19.5412L34.1376 18.9186L33.0384 18.2959ZM33.0384 18.0496L31.5046 18.9186L33.0384 19.7875L34.5723 18.9186L33.0384 18.0496Z" fill="#D9D9D9"/>
<path fill-rule="evenodd" clip-rule="evenodd" d="M33.0384 15.1372L31.9393 15.7599L33.0384 16.3825L34.1376 15.7599L33.0384 15.1372ZM33.0384 14.8909L31.5046 15.7599L33.0384 16.6288L34.5723 15.7599L33.0384 14.8909Z" fill="#D9D9D9"/>
<path fill-rule="evenodd" clip-rule="evenodd" d="M33.0384 11.9785L31.9393 12.6012L33.0384 13.2238L34.1376 12.6012L33.0384 11.9785ZM33.0384 11.7322L31.5046 12.6012L33.0384 13.4701L34.5723 12.6012L33.0384 11.7322Z" fill="#D9D9D9"/>
<path fill-rule="evenodd" clip-rule="evenodd" d="M33.0384 8.81987L31.9393 9.44252L33.0384 10.0652L34.1376 9.44252L33.0384 8.81987ZM33.0384 8.57358L31.5046 9.44252L33.0384 10.3115L34.5723 9.44252L33.0384 8.57358Z" fill="#D9D9D9"/>
<path fill-rule="evenodd" clip-rule="evenodd" d="M33.0384 5.66118L31.9393 6.28383L33.0384 6.90648L34.1376 6.28383L33.0384 5.66118ZM33.0384 5.41489L31.5046 6.28383L33.0384 7.15277L34.5723 6.28383L33.0384 5.41489Z" fill="#D9D9D9"/>
<path fill-rule="evenodd" clip-rule="evenodd" d="M33.0384 2.50249L31.9393 3.12514L33.0384 3.74779L34.1376 3.12514L33.0384 2.50249ZM33.0384 2.2562L31.5046 3.12514L33.0384 3.99408L34.5723 3.12514L33.0384 2.2562Z" fill="#D9D9D9"/>
<path fill-rule="evenodd" clip-rule="evenodd" d="M43.4661 30.9307L42.367 31.5533L43.4661 32.176L44.5652 31.5533L43.4661 30.9307ZM43.4661 30.6844L41.9323 31.5533L43.4661 32.4223L45 31.5533L43.4661 30.6844Z" fill="#D9D9D9"/>
<path fill-rule="evenodd" clip-rule="evenodd" d="M43.4661 27.772L42.367 28.3946L43.4661 29.0173L44.5652 28.3946L43.4661 27.772ZM43.4661 27.5257L41.9323 28.3946L43.4661 29.2636L45 28.3946L43.4661 27.5257Z" fill="#D9D9D9"/>
<path fill-rule="evenodd" clip-rule="evenodd" d="M43.4661 24.6133L42.367 25.2359L43.4661 25.8586L44.5652 25.2359L43.4661 24.6133ZM43.4661 24.367L41.9323 25.2359L43.4661 26.1049L45 25.2359L43.4661 24.367Z" fill="#D9D9D9"/>
<path fill-rule="evenodd" clip-rule="evenodd" d="M43.4661 21.4546L42.367 22.0773L43.4661 22.6999L44.5652 22.0773L43.4661 21.4546ZM43.4661 21.2083L41.9323 22.0773L43.4661 22.9462L45 22.0773L43.4661 21.2083Z" fill="#D9D9D9"/>
<path fill-rule="evenodd" clip-rule="evenodd" d="M43.4661 18.2959L42.367 18.9186L43.4661 19.5412L44.5652 18.9186L43.4661 18.2959ZM43.4661 18.0496L41.9323 18.9186L43.4661 19.7875L45 18.9186L43.4661 18.0496Z" fill="#D9D9D9"/>
<path fill-rule="evenodd" clip-rule="evenodd" d="M43.4661 15.1372L42.367 15.7599L43.4661 16.3825L44.5652 15.7599L43.4661 15.1372ZM43.4661 14.8909L41.9323 15.7599L43.4661 16.6288L45 15.7599L43.4661 14.8909Z" fill="#D9D9D9"/>
<path fill-rule="evenodd" clip-rule="evenodd" d="M43.4661 11.9785L42.367 12.6012L43.4661 13.2238L44.5652 12.6012L43.4661 11.9785ZM43.4661 11.7322L41.9323 12.6012L43.4661 13.4701L45 12.6012L43.4661 11.7322Z" fill="#D9D9D9"/>
<path fill-rule="evenodd" clip-rule="evenodd" d="M43.4661 8.81987L42.367 9.44252L43.4661 10.0652L44.5652 9.44252L43.4661 8.81987ZM43.4661 8.57358L41.9323 9.44252L43.4661 10.3115L45 9.44252L43.4661 8.57358Z" fill="#D9D9D9"/>
<path fill-rule="evenodd" clip-rule="evenodd" d="M43.4661 5.66118L42.367 6.28383L43.4661 6.90648L44.5652 6.28383L43.4661 5.66118ZM43.4661 5.41489L41.9323 6.28383L43.4661 7.15277L45 6.28383L43.4661 5.41489Z" fill="#D9D9D9"/>
<path fill-rule="evenodd" clip-rule="evenodd" d="M43.4661 2.50249L42.367 3.12514L43.4661 3.74779L44.5652 3.12514L43.4661 2.50249ZM43.4661 2.2562L41.9323 3.12514L43.4661 3.99408L45 3.12514L43.4661 2.2562Z" fill="#D9D9D9"/>
<path d="M47.7565 0H0V2.70745H47.7565V0Z" fill="white"/>
<path d="M47.7565 33.3918H0V36.0993H47.7565V33.3918Z" fill="white"/>
<path d="M2.80921 0H0V36.0993H2.80921V0Z" fill="white"/>
<path d="M47.9532 0.0451355H0.046814V35.9549H47.9532V0.0451355Z" stroke="black" stroke-width="0.2" stroke-miterlimit="10"/>
<path d="M2.70618 33.3873V2.60818" stroke="black" stroke-width="0.2" stroke-miterlimit="10"/>
<path d="M45.2891 2.60818V33.3873" stroke="black" stroke-width="0.2" stroke-miterlimit="10"/>
<path d="M0.046814 33.3873V2.60818" stroke="black" stroke-width="0.2" stroke-miterlimit="10"/>
<path d="M47.9532 2.60818V33.3873" stroke="black" stroke-width="0.2" stroke-miterlimit="10"/>
<path d="M0.046814 2.60818H47.9532" stroke="black" stroke-width="0.2" stroke-miterlimit="10"/>
<path d="M0.046814 33.3873H47.9532" stroke="black" stroke-width="0.2" stroke-miterlimit="10"/>
<path d="M0.046814 0.0451355H47.9532" stroke="black" stroke-width="0.2" stroke-miterlimit="10"/>
<path d="M0.046814 35.9549H47.9532" stroke="black" stroke-width="0.2" stroke-miterlimit="10"/>
<path d="M0.046814 35.9549V33.3873" stroke="black" stroke-width="0.2" stroke-miterlimit="10"/>
<path d="M47.9532 35.9549V33.3873" stroke="black" stroke-width="0.2" stroke-miterlimit="10"/>
<path d="M0.046814 2.60818V0.0451355" stroke="black" stroke-width="0.2" stroke-miterlimit="10"/>
<path d="M47.9532 2.60818V0.0451355" stroke="black" stroke-width="0.2" stroke-miterlimit="10"/>
</g>
<defs>
<clipPath id="clip0_60_13552">
<rect width="48" height="36" fill="white"/>
</clipPath>
</defs>
</svg>
