<?xml version="1.0" encoding="UTF-8"?>
<svg id="Layer_1" data-name="Layer 1" xmlns="http://www.w3.org/2000/svg" width="38.31" height="3.48" viewBox="0 0 38.31 3.48">
  <defs>
    <style>
      .cls-1 {
        fill: #fff;
      }

      .cls-2 {
        fill: none;
        stroke: #010101;
        stroke-linecap: round;
        stroke-linejoin: round;
        stroke-width: .25px;
      }
    </style>
  </defs>
  <g id="Make2D">
    <g id="Make2D::Visible">
      <g id="Make2D::Visible::Curves">
        <path class="cls-1" d="m1.08,1.77s0,0,0,0c0,0,0,0,0-.01,0,0,0-.04,0-.08s0-.08,0-.08c0,0,0,0,0-.01,0,0,0,0,0,0h.05v-.27h.03V.41s.03,0,.03,0h.07s0-.07,0-.07v-.04s0-.04,0-.04V.11h35.77v.31s.01,0,.01,0h.08v.9h.03v.27h.05s0,0,0,0c0,0,0,0,0,.01,0,0,0,.04,0,.08s0,.08,0,.08c0,0,0,0,0,.01,0,0,0,0,0,0h-.05v.74c.33.23.67.47,1,.7v.15H.12v-.15c.33-.23.67-.47,1-.7v-.74h-.05Z"/>
      </g>
    </g>
  </g>
  <g id="Make2D-2" data-name="Make2D">
    <g id="Make2D::Visible-2" data-name="Make2D::Visible">
      <g id="Make2D::Visible::Curves-2" data-name="Make2D::Visible::Curves">
        <path class="cls-2" d="m28.13,2.73h8.87"/>
        <path class="cls-2" d="m37.06,2.5v.16h0"/>
        <path class="cls-2" d="m37.07,2.43h-.01s0,.07,0,.07"/>
        <path class="cls-2" d="m37.15,2.43h-.08"/>
        <path class="cls-2" d="m1.31,2.73h8.87"/>
        <path class="cls-2" d="m37.05,2.42h.02"/>
        <path class="cls-2" d="m10.43,2.73h17.45"/>
        <path class="cls-2" d="m37.18,1.33v1.18"/>
        <path class="cls-2" d="m1.12,1.78h-.05"/>
        <path class="cls-2" d="m1.26,2.66h0v-.16"/>
        <path class="cls-2" d="m37.23,1.78h-.05"/>
        <path class="cls-2" d="m37.18,1.6h.05"/>
        <path class="cls-2" d="m1.24,2.43h.01s0,.07,0,.07"/>
        <path class="cls-2" d="m28.09,2.42h8.97s0,.07,0,.07"/>
        <path class="cls-2" d="m1.08,1.6h.05"/>
        <path class="cls-2" d="m28.03,2.12h-.04"/>
        <path class="cls-2" d="m27.88,2.93s-.01,0-.02,0c0,0,0-.01,0-.02"/>
        <path class="cls-2" d="m27.97,2.13s0-.02.02-.02"/>
        <path class="cls-2" d="m28.03,2.12s.02,0,.02.02"/>
        <path class="cls-2" d="m27.88,2.93h.25"/>
        <path class="cls-2" d="m28.15,2.9s0,.01,0,.02c0,0,0,0-.02,0"/>
        <path class="cls-2" d="m1.07,1.61s0,.04,0,.07,0,.08,0,.07"/>
        <path class="cls-2" d="m1.07,1.61s0,0,0-.01c0,0,0,0,0,0"/>
        <path class="cls-2" d="m1.08,1.78s0,0,0,0c0,0,0,0,0-.01"/>
        <path class="cls-2" d="m37.07.43h.08"/>
        <path class="cls-2" d="m1.24,2.43h-.08"/>
        <path class="cls-2" d="m37.06.12v.23"/>
        <path class="cls-2" d="m1.16,2.43v-.65"/>
        <path class="cls-2" d="m37.06.12H1.26"/>
        <path class="cls-2" d="m1.46,2.93h8.72"/>
        <path class="cls-2" d="m37.16,2.53h-.1"/>
        <path class="cls-2" d="m1.16.43h.08"/>
        <path class="cls-2" d="m37.24,1.61s0,.04,0,.07,0,.08,0,.07"/>
        <path class="cls-2" d="m37.23,1.6s0,0,0,0c0,0,0,0,0,.01"/>
        <path class="cls-2" d="m37.24,1.76s0,0,0,.01c0,0,0,0,0,0"/>
        <path class="cls-2" d="m19.48,2.9v-.09"/>
        <path class="cls-2" d="m19.44,2.78h-.58"/>
        <path class="cls-2" d="m18.86,2.93s-.03-.01-.03-.03"/>
        <path class="cls-2" d="m19.47,2.9s-.01.03-.03.03"/>
        <path class="cls-2" d="m18.86,2.78s-.03.01-.03.03"/>
        <path class="cls-2" d="m19.47,2.81s-.01-.03-.03-.03"/>
        <path class="cls-2" d="m18.83,2.81v.09"/>
        <path class="cls-2" d="m19.44,2.93h-.58"/>
        <path class="cls-2" d="m37.15,1.78v.65"/>
        <path class="cls-2" d="m19.44,2.93h8.43"/>
        <path class="cls-2" d="m1.25,2.53h-.1"/>
        <path class="cls-2" d="m37.05.43h.02"/>
        <path class="cls-2" d="m1.12,2.51h.03"/>
        <path class="cls-2" d="m.15,3.23v.1"/>
        <path class="cls-2" d="m38.15,3.33v-.1"/>
        <path class="cls-2" d="m37.16,1.33h.03"/>
        <path class="cls-2" d="m1.12,1.33h.03"/>
        <path class="cls-2" d="m1.18,3.35h35.94"/>
        <path class="cls-2" d="m1.12,2.51c-.33.23-.67.47-1,.7"/>
        <path class="cls-2" d="m38.18,3.21c-.33-.23-.67-.47-1-.7"/>
        <path class="cls-2" d="m.12,3.21v.15"/>
        <path class="cls-2" d="m38.18,3.35v-.15"/>
        <path class="cls-2" d="m37.05,2.42v-1s0-1,0-1"/>
        <path class="cls-2" d="m1.26,2.42h8.97"/>
        <path class="cls-2" d="m1.26.43v1s0,1,0,1"/>
        <path class="cls-2" d="m28.13,2.93h8.72"/>
        <path class="cls-2" d="m10.33,2.12h-.04"/>
        <path class="cls-2" d="m10.18,2.93s-.01,0-.02,0c0,0,0-.01,0-.02"/>
        <path class="cls-2" d="m10.27,2.13s0-.02.02-.02"/>
        <path class="cls-2" d="m10.33,2.12s.02,0,.02.02"/>
        <path class="cls-2" d="m10.18,2.93h.25"/>
        <path class="cls-2" d="m10.45,2.9s0,.01,0,.02c0,0,0,0-.02,0"/>
        <path class="cls-2" d="m10.43,2.93h8.43"/>
        <path class="cls-2" d="m10.39,2.42h2.8s11.93,0,11.93,0h2.8"/>
        <path class="cls-2" d="m27.86,2.9l.11-.77"/>
        <path class="cls-2" d="m28.04,2.13l.11.77"/>
        <path class="cls-2" d="m37.07.43h-.01s0-.07,0-.07"/>
        <path class="cls-2" d="m1.24.43h.01s0-.07,0-.07"/>
        <path class="cls-2" d="m1.26.36v-.23"/>
        <path class="cls-2" d="m1.25.43h0s0,0,0,0Z"/>
        <path class="cls-2" d="m1.26.43h11.93s11.93,0,11.93,0h11.93s0-.07,0-.07"/>
        <path class="cls-2" d="m1.24.43h.02s0-.07,0-.07"/>
        <path class="cls-2" d="m1.24,2.43h.02s0,.07,0,.07"/>
        <path class="cls-2" d="m1.46,2.93l-.3.4"/>
        <path class="cls-2" d="m37.16,3.33l-.3-.4"/>
        <path class="cls-2" d="m1.15,2.53l-1,.7"/>
        <path class="cls-2" d="m38.15,3.23l-1-.7"/>
        <path class="cls-2" d="m38.15,3.33h-1"/>
        <path class="cls-2" d="m1.15,3.33H.15"/>
        <path class="cls-2" d="m38.18,3.35h-1.06"/>
        <path class="cls-2" d="m1.18,3.35H.12"/>
        <path class="cls-2" d="m10.16,2.9l.11-.77"/>
        <path class="cls-2" d="m10.34,2.13l.11.77"/>
        <path class="cls-2" d="m37.15.43v1.17"/>
        <path class="cls-2" d="m1.16,1.6V.43"/>
        <path class="cls-2" d="m1.46,2.93l-.3-.4"/>
        <path class="cls-2" d="m37.16,2.53l-.3.4"/>
        <path class="cls-2" d="m1.15,2.53v-1.2"/>
        <path class="cls-2" d="m37.16,1.33v1.2"/>
        <path class="cls-2" d="m1.12,2.51v-1.18"/>
      </g>
    </g>
  </g>
</svg>