<svg width="44" height="36" viewBox="0 0 44 36" fill="none" xmlns="http://www.w3.org/2000/svg">
<g clip-path="url(#clip0_1665_4240)">
<path d="M41.0499 32.0499L40.2699 35.5099" stroke="black" stroke-width="0.25" stroke-linecap="round" stroke-linejoin="round"/>
<path d="M2.31995 32.0499L3.09995 35.4999" stroke="black" stroke-width="0.25" stroke-linecap="round" stroke-linejoin="round"/>
<path d="M13.88 6.04981L14.14 6.30981" stroke="black" stroke-width="0.25" stroke-linecap="round" stroke-linejoin="round"/>
<path d="M18.7299 6.3999L17.95 5.6199" stroke="black" stroke-width="0.25" stroke-linecap="round" stroke-linejoin="round"/>
<path d="M18.7299 6.3999L17.95 5.6199" stroke="black" stroke-width="0.25" stroke-linecap="round" stroke-linejoin="round"/>
<path d="M17.42 9.09985L15.25 6.92985" stroke="black" stroke-width="0.25" stroke-linecap="round" stroke-linejoin="round"/>
<path d="M15.25 6.92985L17.42 9.09985" stroke="black" stroke-width="0.25" stroke-linecap="round" stroke-linejoin="round"/>
<path d="M39.96 31.5399L40.02 31.5999" stroke="black" stroke-width="0.25" stroke-linecap="round" stroke-linejoin="round"/>
<path d="M12.9299 12.2098L12.1499 11.4298" stroke="black" stroke-width="0.25" stroke-linecap="round" stroke-linejoin="round"/>
<path d="M12.9299 12.2098L12.1499 11.4298" stroke="black" stroke-width="0.25" stroke-linecap="round" stroke-linejoin="round"/>
<path d="M15.63 10.8999L13.45 8.7299" stroke="black" stroke-width="0.25" stroke-linecap="round" stroke-linejoin="round"/>
<path d="M13.45 8.7299L15.63 10.8999" stroke="black" stroke-width="0.25" stroke-linecap="round" stroke-linejoin="round"/>
<path d="M14.1099 6.32988L3.66992 31.9999" stroke="black" stroke-width="0.25" stroke-linecap="round" stroke-linejoin="round"/>
<path d="M40.66 35.6099L2.60999 35.6099L2.60999 31.6899L40.66 31.6899L40.66 35.6099Z" fill="white"/>
<path d="M43.32 31.9699L0.0500488 31.9698" stroke="black" stroke-width="0.25" stroke-linecap="round" stroke-linejoin="round"/>
<path d="M0.0500488 31.9698L0.0500489 31.7198" stroke="black" stroke-width="0.25" stroke-linecap="round" stroke-linejoin="round"/>
<path d="M0.0500488 31.7198L43.32 31.7199" stroke="black" stroke-width="0.25" stroke-linecap="round" stroke-linejoin="round"/>
<path d="M43.3201 31.7198L43.3201 31.9698" stroke="black" stroke-width="0.25" stroke-linecap="round" stroke-linejoin="round"/>
<path d="M39.82 34.1399L3.55005 34.1399" stroke="black" stroke-width="0.25" stroke-linecap="round" stroke-linejoin="round"/>
<path d="M3.55005 34.1399L3.55005 31.9699" stroke="black" stroke-width="0.25" stroke-linecap="round" stroke-linejoin="round"/>
<path d="M3.55005 31.9698L39.82 31.9699" stroke="black" stroke-width="0.25" stroke-linecap="round" stroke-linejoin="round"/>
<path d="M39.8201 31.9699L39.8201 34.1399" stroke="black" stroke-width="0.25" stroke-linecap="round" stroke-linejoin="round"/>
<path d="M43.3201 31.9698L39.8201 31.9698" stroke="black" stroke-width="0.25" stroke-linecap="round" stroke-linejoin="round"/>
<path d="M39.8201 31.9699L39.8201 34.1399" stroke="black" stroke-width="0.25" stroke-linecap="round" stroke-linejoin="round"/>
<path d="M39.8201 34.1399L39.1101 34.1399" stroke="black" stroke-width="0.25" stroke-linecap="round" stroke-linejoin="round"/>
<path d="M39.1101 34.1399L39.1101 35.6099" stroke="black" stroke-width="0.25" stroke-linecap="round" stroke-linejoin="round"/>
<path d="M39.1101 35.6099L40.7401 35.6099" stroke="black" stroke-width="0.25" stroke-linecap="round" stroke-linejoin="round"/>
<path d="M40.74 35.6099L40.74 34.8499" stroke="black" stroke-width="0.25" stroke-linecap="round" stroke-linejoin="round"/>
<path d="M40.7401 34.8499L40.7401 32.0499" stroke="black" stroke-width="0.25" stroke-linecap="round" stroke-linejoin="round"/>
<path d="M40.7401 32.0499L43.3201 32.0499" stroke="black" stroke-width="0.25" stroke-linecap="round" stroke-linejoin="round"/>
<path d="M43.3201 32.0499L43.3201 31.9699" stroke="black" stroke-width="0.25" stroke-linecap="round" stroke-linejoin="round"/>
<path d="M40.27 35.5099L40.66 35.5099" stroke="black" stroke-width="0.25" stroke-linecap="round" stroke-linejoin="round"/>
<path d="M40.66 35.5099L40.66 32.0499" stroke="black" stroke-width="0.25" stroke-linecap="round" stroke-linejoin="round"/>
<path d="M40.66 32.0499L41.05 32.0499" stroke="black" stroke-width="0.25" stroke-linecap="round" stroke-linejoin="round"/>
<path d="M0.0500488 31.9698L3.55005 31.9698" stroke="black" stroke-width="0.25" stroke-linecap="round" stroke-linejoin="round"/>
<path d="M3.55005 31.9699L3.55005 34.1399" stroke="black" stroke-width="0.25" stroke-linecap="round" stroke-linejoin="round"/>
<path d="M3.55005 34.1399L4.26005 34.1399" stroke="black" stroke-width="0.25" stroke-linecap="round" stroke-linejoin="round"/>
<path d="M4.26001 34.1399L4.26001 35.6099" stroke="black" stroke-width="0.25" stroke-linecap="round" stroke-linejoin="round"/>
<path d="M4.26 35.6099L2.63 35.6099" stroke="black" stroke-width="0.25" stroke-linecap="round" stroke-linejoin="round"/>
<path d="M2.63 35.6099L2.63001 34.8499" stroke="black" stroke-width="0.25" stroke-linecap="round" stroke-linejoin="round"/>
<path d="M2.63 34.8499L2.63001 32.0499" stroke="black" stroke-width="0.25" stroke-linecap="round" stroke-linejoin="round"/>
<path d="M2.63005 32.0498L0.0500488 32.0498" stroke="black" stroke-width="0.25" stroke-linecap="round" stroke-linejoin="round"/>
<path d="M0.0500488 32.0498L0.0500488 31.9698" stroke="black" stroke-width="0.25" stroke-linecap="round" stroke-linejoin="round"/>
<path d="M3.10008 35.4999L2.71008 35.4999" stroke="black" stroke-width="0.25" stroke-linecap="round" stroke-linejoin="round"/>
<path d="M2.71008 35.4999L2.71008 32.0499" stroke="black" stroke-width="0.25" stroke-linecap="round" stroke-linejoin="round"/>
<path d="M2.71007 32.0498L2.32007 32.0498" stroke="black" stroke-width="0.25" stroke-linecap="round" stroke-linejoin="round"/>
<path d="M39.11 35.6099L4.26001 35.6099" stroke="black" stroke-width="0.25" stroke-linecap="round" stroke-linejoin="round"/>
<path d="M4.26001 35.6099L4.26001 34.1399" stroke="black" stroke-width="0.25" stroke-linecap="round" stroke-linejoin="round"/>
<path d="M4.26001 34.1399L39.11 34.1399" stroke="black" stroke-width="0.25" stroke-linecap="round" stroke-linejoin="round"/>
<path d="M39.1101 34.1399L39.1101 35.6099" stroke="black" stroke-width="0.25" stroke-linecap="round" stroke-linejoin="round"/>
<path d="M14.14 6.30986C14.14 6.30986 14.16 6.34986 14.14 6.35986" stroke="black" stroke-width="0.25" stroke-linecap="round" stroke-linejoin="round"/>
<path d="M14.14 6.35986L12.89 7.60986" stroke="black" stroke-width="0.25" stroke-linecap="round" stroke-linejoin="round"/>
<path d="M12.89 7.60987L38.38 33.1199" stroke="black" stroke-width="0.25" stroke-linecap="round" stroke-linejoin="round"/>
<path d="M38.38 33.1199L39.63 31.8799" stroke="black" stroke-width="0.25" stroke-linecap="round" stroke-linejoin="round"/>
<path d="M39.63 31.8799L14.25 6.48988" stroke="black" stroke-width="0.25" stroke-linecap="round" stroke-linejoin="round"/>
<path d="M14.25 6.48987C14.25 6.48987 14.22 6.40987 14.25 6.36987" stroke="black" stroke-width="0.25" stroke-linecap="round" stroke-linejoin="round"/>
<path d="M14.26 6.36987C14.26 6.36987 14.28 6.31987 14.26 6.29987" stroke="black" stroke-width="0.25" stroke-linecap="round" stroke-linejoin="round"/>
<path d="M14.2601 6.2998L13.9401 5.98981" stroke="black" stroke-width="0.25" stroke-linecap="round" stroke-linejoin="round"/>
<path d="M13.9401 5.98987C13.9401 5.98987 13.8701 5.95987 13.8501 5.98987" stroke="black" stroke-width="0.25" stroke-linecap="round" stroke-linejoin="round"/>
<path d="M13.8501 5.97982C13.8501 5.97982 13.8301 6.04982 13.8501 6.06982" stroke="black" stroke-width="0.25" stroke-linecap="round" stroke-linejoin="round"/>
<path d="M13.8501 6.07981L14.0801 6.30981" stroke="black" stroke-width="0.25" stroke-linecap="round" stroke-linejoin="round"/>
<path d="M14.0801 6.30982L14.1001 6.31982" stroke="black" stroke-width="0.25" stroke-linecap="round" stroke-linejoin="round"/>
<path d="M14.1001 6.31982C14.1001 6.31982 14.1201 6.31982 14.1301 6.31982" stroke="black" stroke-width="0.25" stroke-linecap="round" stroke-linejoin="round"/>
<path d="M14.13 6.31982C14.13 6.31982 14.13 6.29982 14.13 6.28982" stroke="black" stroke-width="0.25" stroke-linecap="round" stroke-linejoin="round"/>
<path d="M14.13 6.28992L13.88 6.04992" stroke="black" stroke-width="0.25" stroke-linecap="round" stroke-linejoin="round"/>
<path d="M17.9501 5.6199L18.7301 6.3999" stroke="black" stroke-width="0.25" stroke-linecap="round" stroke-linejoin="round"/>
<path d="M17.9501 5.6199L18.7301 6.3999" stroke="black" stroke-width="0.25" stroke-linecap="round" stroke-linejoin="round"/>
<path d="M18.7601 7.03984L17.3401 8.45984" stroke="black" stroke-width="0.25" stroke-linecap="round" stroke-linejoin="round"/>
<path d="M17.34 8.45984L17 8.12984" stroke="black" stroke-width="0.25" stroke-linecap="round" stroke-linejoin="round"/>
<path d="M17 8.12988L18.42 6.70988" stroke="black" stroke-width="0.25" stroke-linecap="round" stroke-linejoin="round"/>
<path d="M18.42 6.70992L18.76 7.03992" stroke="black" stroke-width="0.25" stroke-linecap="round" stroke-linejoin="round"/>
<path d="M15.25 6.92985L16.23 7.34985" stroke="black" stroke-width="0.25" stroke-linecap="round" stroke-linejoin="round"/>
<path d="M16.2301 7.34988L17.0001 8.12988" stroke="black" stroke-width="0.25" stroke-linecap="round" stroke-linejoin="round"/>
<path d="M17 8.12985L17.42 9.09985" stroke="black" stroke-width="0.25" stroke-linecap="round" stroke-linejoin="round"/>
<path d="M20.4501 9.97986L20.8401 9.11986" stroke="black" stroke-width="0.25" stroke-linecap="round" stroke-linejoin="round"/>
<path d="M20.84 9.11987L18.42 6.70987" stroke="black" stroke-width="0.25" stroke-linecap="round" stroke-linejoin="round"/>
<path d="M18.42 6.70988L17 8.12988" stroke="black" stroke-width="0.25" stroke-linecap="round" stroke-linejoin="round"/>
<path d="M17.0001 8.12988L16.2301 7.34988" stroke="black" stroke-width="0.25" stroke-linecap="round" stroke-linejoin="round"/>
<path d="M16.2301 7.34985L17.9501 5.61985" stroke="black" stroke-width="0.25" stroke-linecap="round" stroke-linejoin="round"/>
<path d="M17.9501 5.61986L21.3101 8.97986" stroke="black" stroke-width="0.25" stroke-linecap="round" stroke-linejoin="round"/>
<path d="M21.3101 8.97989L20.5901 10.2599" stroke="black" stroke-width="0.25" stroke-linecap="round" stroke-linejoin="round"/>
<path d="M20.59 10.2599L20.39 10.0699" stroke="black" stroke-width="0.25" stroke-linecap="round" stroke-linejoin="round"/>
<path d="M20.39 10.0698L20.45 9.97982" stroke="black" stroke-width="0.25" stroke-linecap="round" stroke-linejoin="round"/>
<path d="M17.42 9.09985L15.25 6.92985" stroke="black" stroke-width="0.25" stroke-linecap="round" stroke-linejoin="round"/>
<path d="M17.42 9.09985L15.25 6.92985" stroke="black" stroke-width="0.25" stroke-linecap="round" stroke-linejoin="round"/>
<path d="M15.2501 6.92984L14.9701 7.20984" stroke="black" stroke-width="0.25" stroke-linecap="round" stroke-linejoin="round"/>
<path d="M14.9701 7.20988L17.1401 9.37988" stroke="black" stroke-width="0.25" stroke-linecap="round" stroke-linejoin="round"/>
<path d="M17.14 9.37988L17.42 9.09988" stroke="black" stroke-width="0.25" stroke-linecap="round" stroke-linejoin="round"/>
<path d="M40.0201 31.5999C40.0201 31.5999 39.9901 31.5599 39.9601 31.5399" stroke="black" stroke-width="0.25" stroke-linecap="round" stroke-linejoin="round"/>
<path d="M40.0201 31.5998C40.1001 31.6998 40.0801 31.8498 39.9801 31.9298" stroke="black" stroke-width="0.25" stroke-linecap="round" stroke-linejoin="round"/>
<path d="M39.98 31.9298C39.88 32.0098 39.74 32.0098 39.65 31.9198" stroke="black" stroke-width="0.25" stroke-linecap="round" stroke-linejoin="round"/>
<path d="M39.64 31.9199C39.58 31.8599 39.55 31.7699 39.57 31.6899" stroke="black" stroke-width="0.25" stroke-linecap="round" stroke-linejoin="round"/>
<path d="M39.5801 31.6898C39.5801 31.6898 39.6001 31.6398 39.6101 31.6198" stroke="black" stroke-width="0.25" stroke-linecap="round" stroke-linejoin="round"/>
<path d="M39.6101 31.6099C39.6101 31.6099 39.6201 31.5899 39.6301 31.5799" stroke="black" stroke-width="0.25" stroke-linecap="round" stroke-linejoin="round"/>
<path d="M39.63 31.5898C39.71 31.4898 39.86 31.4698 39.96 31.5498" stroke="black" stroke-width="0.25" stroke-linecap="round" stroke-linejoin="round"/>
<path d="M39.9601 31.5499C39.9601 31.5499 40.0001 31.5799 40.0201 31.5999" stroke="black" stroke-width="0.25" stroke-linecap="round" stroke-linejoin="round"/>
<path d="M12.15 11.4298L12.93 12.2098" stroke="black" stroke-width="0.25" stroke-linecap="round" stroke-linejoin="round"/>
<path d="M12.15 11.4298L12.93 12.2098" stroke="black" stroke-width="0.25" stroke-linecap="round" stroke-linejoin="round"/>
<path d="M13.5701 12.2399L14.9801 10.8199" stroke="black" stroke-width="0.25" stroke-linecap="round" stroke-linejoin="round"/>
<path d="M14.98 10.8198L14.65 10.4798" stroke="black" stroke-width="0.25" stroke-linecap="round" stroke-linejoin="round"/>
<path d="M14.6501 10.4799L13.2301 11.8999" stroke="black" stroke-width="0.25" stroke-linecap="round" stroke-linejoin="round"/>
<path d="M13.2301 11.8999L13.5701 12.2399" stroke="black" stroke-width="0.25" stroke-linecap="round" stroke-linejoin="round"/>
<path d="M13.4501 8.72983L13.8701 9.69983" stroke="black" stroke-width="0.25" stroke-linecap="round" stroke-linejoin="round"/>
<path d="M13.87 9.69986L14.65 10.4799" stroke="black" stroke-width="0.25" stroke-linecap="round" stroke-linejoin="round"/>
<path d="M14.65 10.4799L15.63 10.8999" stroke="black" stroke-width="0.25" stroke-linecap="round" stroke-linejoin="round"/>
<path d="M16.5 13.9298L15.65 14.3098" stroke="black" stroke-width="0.25" stroke-linecap="round" stroke-linejoin="round"/>
<path d="M15.6501 14.3098L13.2301 11.8998" stroke="black" stroke-width="0.25" stroke-linecap="round" stroke-linejoin="round"/>
<path d="M13.2301 11.8999L14.6501 10.4799" stroke="black" stroke-width="0.25" stroke-linecap="round" stroke-linejoin="round"/>
<path d="M14.65 10.4799L13.87 9.69986" stroke="black" stroke-width="0.25" stroke-linecap="round" stroke-linejoin="round"/>
<path d="M13.87 9.69981L12.15 11.4298" stroke="black" stroke-width="0.25" stroke-linecap="round" stroke-linejoin="round"/>
<path d="M12.15 11.4299L15.51 14.7899" stroke="black" stroke-width="0.25" stroke-linecap="round" stroke-linejoin="round"/>
<path d="M15.51 14.7899L16.79 14.0599" stroke="black" stroke-width="0.25" stroke-linecap="round" stroke-linejoin="round"/>
<path d="M16.7901 14.0598L16.6001 13.8698" stroke="black" stroke-width="0.25" stroke-linecap="round" stroke-linejoin="round"/>
<path d="M16.6 13.8698L16.5 13.9298" stroke="black" stroke-width="0.25" stroke-linecap="round" stroke-linejoin="round"/>
<path d="M15.6301 10.8999L13.4501 8.7299" stroke="black" stroke-width="0.25" stroke-linecap="round" stroke-linejoin="round"/>
<path d="M15.6301 10.8999L13.4501 8.7299" stroke="black" stroke-width="0.25" stroke-linecap="round" stroke-linejoin="round"/>
<path d="M13.4501 8.72986L13.7301 8.44986" stroke="black" stroke-width="0.25" stroke-linecap="round" stroke-linejoin="round"/>
<path d="M13.7301 8.44987L15.9001 10.6199" stroke="black" stroke-width="0.25" stroke-linecap="round" stroke-linejoin="round"/>
<path d="M15.9 10.6199L15.63 10.8999" stroke="black" stroke-width="0.25" stroke-linecap="round" stroke-linejoin="round"/>
<path d="M17.7 9.59985L10.28 2.17985" stroke="black" stroke-width="0.25" stroke-linecap="round" stroke-linejoin="round"/>
<path d="M10.28 2.17981L12.4 0.0498089" stroke="black" stroke-width="0.25" stroke-linecap="round" stroke-linejoin="round"/>
<path d="M12.4 0.0498581L19.83 7.47986" stroke="black" stroke-width="0.25" stroke-linecap="round" stroke-linejoin="round"/>
<path d="M19.8301 7.47985L17.7001 9.59985" stroke="black" stroke-width="0.25" stroke-linecap="round" stroke-linejoin="round"/>
<path d="M17.5001 9.74988L16.0801 8.32988" stroke="black" stroke-width="0.25" stroke-linecap="round" stroke-linejoin="round"/>
<path d="M16.0801 8.32983L16.2601 8.14983" stroke="black" stroke-width="0.25" stroke-linecap="round" stroke-linejoin="round"/>
<path d="M16.26 8.14982L17.67 9.56982" stroke="black" stroke-width="0.25" stroke-linecap="round" stroke-linejoin="round"/>
<path d="M17.67 9.56988L17.5 9.74988" stroke="black" stroke-width="0.25" stroke-linecap="round" stroke-linejoin="round"/>
<path d="M3.67003 31.9999C3.60003 22.3999 7.36003 13.1599 14.11 6.32988" stroke="black" stroke-width="0.25" stroke-linecap="round" stroke-linejoin="round"/>
</g>
<defs>
<clipPath id="clip0_1665_4240">
<rect width="43.37" height="35.66" fill="white" transform="matrix(1 1.74846e-07 1.74846e-07 -1 0 35.6599)"/>
</clipPath>
</defs>
</svg>
