<svg width="44" height="30" viewBox="0 0 44 30" fill="none" xmlns="http://www.w3.org/2000/svg">
<g clip-path="url(#clip0_1665_4106)">
<path d="M41.0499 26.13L40.2699 29.59" stroke="black" stroke-width="0.25" stroke-linecap="round" stroke-linejoin="round"/>
<path d="M2.31995 26.13L3.09995 29.58" stroke="black" stroke-width="0.25" stroke-linecap="round" stroke-linejoin="round"/>
<path d="M13.88 0.130014L14.14 0.390015" stroke="black" stroke-width="0.25" stroke-linecap="round" stroke-linejoin="round"/>
<path d="M39.96 25.6201L40.02 25.6801" stroke="black" stroke-width="0.25" stroke-linecap="round" stroke-linejoin="round"/>
<path d="M14.1099 0.409958L3.66992 26.08" stroke="black" stroke-width="0.25" stroke-linecap="round" stroke-linejoin="round"/>
<path d="M40.66 29.74L2.63 29.74L2.63001 25.85L40.66 25.85L40.66 29.74Z" fill="white"/>
<path d="M43.32 26.0499L0.0500488 26.0499" stroke="black" stroke-width="0.25" stroke-linecap="round" stroke-linejoin="round"/>
<path d="M0.0500488 26.0499L0.0500489 25.7999" stroke="black" stroke-width="0.25" stroke-linecap="round" stroke-linejoin="round"/>
<path d="M0.0500488 25.7999L43.32 25.7999" stroke="black" stroke-width="0.25" stroke-linecap="round" stroke-linejoin="round"/>
<path d="M43.3201 25.7999L43.3201 26.0499" stroke="black" stroke-width="0.25" stroke-linecap="round" stroke-linejoin="round"/>
<path d="M39.82 28.22L3.55005 28.22" stroke="black" stroke-width="0.25" stroke-linecap="round" stroke-linejoin="round"/>
<path d="M3.55005 28.22L3.55005 26.05" stroke="black" stroke-width="0.25" stroke-linecap="round" stroke-linejoin="round"/>
<path d="M3.55005 26.0499L39.82 26.0499" stroke="black" stroke-width="0.25" stroke-linecap="round" stroke-linejoin="round"/>
<path d="M39.8201 26.05L39.8201 28.22" stroke="black" stroke-width="0.25" stroke-linecap="round" stroke-linejoin="round"/>
<path d="M43.3201 26.0499L39.8201 26.0499" stroke="black" stroke-width="0.25" stroke-linecap="round" stroke-linejoin="round"/>
<path d="M39.8201 26.05L39.8201 28.22" stroke="black" stroke-width="0.25" stroke-linecap="round" stroke-linejoin="round"/>
<path d="M39.8201 28.22L39.1101 28.22" stroke="black" stroke-width="0.25" stroke-linecap="round" stroke-linejoin="round"/>
<path d="M39.1101 28.2199L39.1101 29.6899" stroke="black" stroke-width="0.25" stroke-linecap="round" stroke-linejoin="round"/>
<path d="M39.1101 29.6899L40.7401 29.6899" stroke="black" stroke-width="0.25" stroke-linecap="round" stroke-linejoin="round"/>
<path d="M40.74 29.6899L40.74 28.9299" stroke="black" stroke-width="0.25" stroke-linecap="round" stroke-linejoin="round"/>
<path d="M40.7401 28.9299L40.7401 26.1299" stroke="black" stroke-width="0.25" stroke-linecap="round" stroke-linejoin="round"/>
<path d="M40.7401 26.13L43.3201 26.13" stroke="black" stroke-width="0.25" stroke-linecap="round" stroke-linejoin="round"/>
<path d="M43.3201 26.13L43.3201 26.05" stroke="black" stroke-width="0.25" stroke-linecap="round" stroke-linejoin="round"/>
<path d="M40.27 29.59L40.66 29.59" stroke="black" stroke-width="0.25" stroke-linecap="round" stroke-linejoin="round"/>
<path d="M40.66 29.59L40.66 26.13" stroke="black" stroke-width="0.25" stroke-linecap="round" stroke-linejoin="round"/>
<path d="M40.66 26.13L41.05 26.13" stroke="black" stroke-width="0.25" stroke-linecap="round" stroke-linejoin="round"/>
<path d="M0.0500488 26.0499L3.55005 26.0499" stroke="black" stroke-width="0.25" stroke-linecap="round" stroke-linejoin="round"/>
<path d="M3.55005 26.05L3.55005 28.22" stroke="black" stroke-width="0.25" stroke-linecap="round" stroke-linejoin="round"/>
<path d="M3.55005 28.22L4.26005 28.22" stroke="black" stroke-width="0.25" stroke-linecap="round" stroke-linejoin="round"/>
<path d="M4.26001 28.2199L4.26001 29.6899" stroke="black" stroke-width="0.25" stroke-linecap="round" stroke-linejoin="round"/>
<path d="M4.26 29.6899L2.63 29.6899" stroke="black" stroke-width="0.25" stroke-linecap="round" stroke-linejoin="round"/>
<path d="M2.63 29.6899L2.63001 28.9299" stroke="black" stroke-width="0.25" stroke-linecap="round" stroke-linejoin="round"/>
<path d="M2.63 28.9299L2.63001 26.1299" stroke="black" stroke-width="0.25" stroke-linecap="round" stroke-linejoin="round"/>
<path d="M2.63005 26.1299L0.0500488 26.1299" stroke="black" stroke-width="0.25" stroke-linecap="round" stroke-linejoin="round"/>
<path d="M0.0500488 26.1299L0.0500488 26.0499" stroke="black" stroke-width="0.25" stroke-linecap="round" stroke-linejoin="round"/>
<path d="M3.10008 29.58L2.71008 29.58" stroke="black" stroke-width="0.25" stroke-linecap="round" stroke-linejoin="round"/>
<path d="M2.71008 29.58L2.71008 26.13" stroke="black" stroke-width="0.25" stroke-linecap="round" stroke-linejoin="round"/>
<path d="M2.71007 26.1299L2.32007 26.1299" stroke="black" stroke-width="0.25" stroke-linecap="round" stroke-linejoin="round"/>
<path d="M39.11 29.6899L4.26001 29.6899" stroke="black" stroke-width="0.25" stroke-linecap="round" stroke-linejoin="round"/>
<path d="M4.26001 29.6899L4.26001 28.2199" stroke="black" stroke-width="0.25" stroke-linecap="round" stroke-linejoin="round"/>
<path d="M4.26001 28.22L39.11 28.22" stroke="black" stroke-width="0.25" stroke-linecap="round" stroke-linejoin="round"/>
<path d="M39.1101 28.2199L39.1101 29.6899" stroke="black" stroke-width="0.25" stroke-linecap="round" stroke-linejoin="round"/>
<path d="M14.14 0.38994C14.14 0.38994 14.16 0.429941 14.14 0.439941" stroke="black" stroke-width="0.25" stroke-linecap="round" stroke-linejoin="round"/>
<path d="M14.14 0.439942L12.89 1.68994" stroke="black" stroke-width="0.25" stroke-linecap="round" stroke-linejoin="round"/>
<path d="M12.89 1.68995L38.38 27.2" stroke="black" stroke-width="0.25" stroke-linecap="round" stroke-linejoin="round"/>
<path d="M38.38 27.2L39.63 25.96" stroke="black" stroke-width="0.25" stroke-linecap="round" stroke-linejoin="round"/>
<path d="M39.63 25.96L14.25 0.569962" stroke="black" stroke-width="0.25" stroke-linecap="round" stroke-linejoin="round"/>
<path d="M14.25 0.569946C14.25 0.569946 14.22 0.489945 14.25 0.449945" stroke="black" stroke-width="0.25" stroke-linecap="round" stroke-linejoin="round"/>
<path d="M14.26 0.449951C14.26 0.449951 14.28 0.399951 14.26 0.379951" stroke="black" stroke-width="0.25" stroke-linecap="round" stroke-linejoin="round"/>
<path d="M14.2601 0.379883L13.9401 0.0698833" stroke="black" stroke-width="0.25" stroke-linecap="round" stroke-linejoin="round"/>
<path d="M13.9401 0.0699463C13.9401 0.0699463 13.8701 0.0399463 13.8501 0.0699463" stroke="black" stroke-width="0.25" stroke-linecap="round" stroke-linejoin="round"/>
<path d="M13.8501 0.0599022C13.8501 0.0599022 13.8301 0.129902 13.8501 0.149902" stroke="black" stroke-width="0.25" stroke-linecap="round" stroke-linejoin="round"/>
<path d="M13.8501 0.159893L14.0801 0.389893" stroke="black" stroke-width="0.25" stroke-linecap="round" stroke-linejoin="round"/>
<path d="M14.0801 0.389902L14.1001 0.399902" stroke="black" stroke-width="0.25" stroke-linecap="round" stroke-linejoin="round"/>
<path d="M14.1001 0.399902C14.1001 0.399902 14.1201 0.399902 14.1301 0.399902" stroke="black" stroke-width="0.25" stroke-linecap="round" stroke-linejoin="round"/>
<path d="M14.13 0.399902C14.13 0.399902 14.13 0.379902 14.13 0.369902" stroke="black" stroke-width="0.25" stroke-linecap="round" stroke-linejoin="round"/>
<path d="M14.13 0.369995L13.88 0.129995" stroke="black" stroke-width="0.25" stroke-linecap="round" stroke-linejoin="round"/>
<path d="M40.0201 25.6799C40.0201 25.6799 39.9901 25.6399 39.9601 25.6199" stroke="black" stroke-width="0.25" stroke-linecap="round" stroke-linejoin="round"/>
<path d="M40.0201 25.6799C40.1001 25.7799 40.0801 25.9299 39.9801 26.0099" stroke="black" stroke-width="0.25" stroke-linecap="round" stroke-linejoin="round"/>
<path d="M39.98 26.0099C39.88 26.0899 39.74 26.0899 39.65 25.9999" stroke="black" stroke-width="0.25" stroke-linecap="round" stroke-linejoin="round"/>
<path d="M39.64 26C39.58 25.94 39.55 25.85 39.57 25.77" stroke="black" stroke-width="0.25" stroke-linecap="round" stroke-linejoin="round"/>
<path d="M39.5801 25.7699C39.5801 25.7699 39.6001 25.7199 39.6101 25.6999" stroke="black" stroke-width="0.25" stroke-linecap="round" stroke-linejoin="round"/>
<path d="M39.6101 25.6899C39.6101 25.6899 39.6201 25.6699 39.6301 25.6599" stroke="black" stroke-width="0.25" stroke-linecap="round" stroke-linejoin="round"/>
<path d="M39.63 25.6699C39.71 25.5699 39.86 25.5499 39.96 25.6299" stroke="black" stroke-width="0.25" stroke-linecap="round" stroke-linejoin="round"/>
<path d="M39.9601 25.6299C39.9601 25.6299 40.0001 25.6599 40.0201 25.6799" stroke="black" stroke-width="0.25" stroke-linecap="round" stroke-linejoin="round"/>
<path d="M3.67003 26.08C3.60003 16.48 7.36003 7.23996 14.11 0.409958" stroke="black" stroke-width="0.25" stroke-linecap="round" stroke-linejoin="round"/>
</g>
<defs>
<clipPath id="clip0_1665_4106">
<rect width="43.37" height="29.74" fill="white" transform="matrix(1 1.74846e-07 1.74846e-07 -1 0 29.74)"/>
</clipPath>
</defs>
</svg>
