<svg width="44" height="30" viewBox="0 0 44 30" fill="none" xmlns="http://www.w3.org/2000/svg">
<path d="M0.0500069 26.0499L43.32 26.0499" stroke="black" stroke-width="0.25" stroke-linecap="round" stroke-linejoin="round"/>
<path d="M43.32 26.0499L43.32 25.7999" stroke="black" stroke-width="0.25" stroke-linecap="round" stroke-linejoin="round"/>
<path d="M43.32 25.7999L0.0500069 25.7999" stroke="black" stroke-width="0.25" stroke-linecap="round" stroke-linejoin="round"/>
<path d="M0.0499878 25.7999L0.0499878 26.0499" stroke="black" stroke-width="0.25" stroke-linecap="round" stroke-linejoin="round"/>
<path d="M3.55001 28.22L39.82 28.22" stroke="black" stroke-width="0.25" stroke-linecap="round" stroke-linejoin="round"/>
<path d="M39.82 28.22L39.82 26.05" stroke="black" stroke-width="0.25" stroke-linecap="round" stroke-linejoin="round"/>
<path d="M39.82 26.0499L3.55001 26.0499" stroke="black" stroke-width="0.25" stroke-linecap="round" stroke-linejoin="round"/>
<path d="M3.54999 26.05L3.54999 28.22" stroke="black" stroke-width="0.25" stroke-linecap="round" stroke-linejoin="round"/>
<path d="M0.0499878 26.0499L3.54999 26.0499" stroke="black" stroke-width="0.25" stroke-linecap="round" stroke-linejoin="round"/>
<path d="M3.54999 26.05L3.54999 28.22" stroke="black" stroke-width="0.25" stroke-linecap="round" stroke-linejoin="round"/>
<path d="M3.55001 28.22L4.26001 28.22" stroke="black" stroke-width="0.25" stroke-linecap="round" stroke-linejoin="round"/>
<path d="M4.26001 28.2199L4.26001 29.6899" stroke="black" stroke-width="0.25" stroke-linecap="round" stroke-linejoin="round"/>
<path d="M4.26001 29.6899L2.63001 29.6899" stroke="black" stroke-width="0.25" stroke-linecap="round" stroke-linejoin="round"/>
<path d="M2.63 29.6899L2.63 28.9299" stroke="black" stroke-width="0.25" stroke-linecap="round" stroke-linejoin="round"/>
<path d="M2.63 28.9299L2.63 26.1299" stroke="black" stroke-width="0.25" stroke-linecap="round" stroke-linejoin="round"/>
<path d="M2.63 26.13L0.0500069 26.13" stroke="black" stroke-width="0.25" stroke-linecap="round" stroke-linejoin="round"/>
<path d="M0.0499878 26.13L0.0499878 26.05" stroke="black" stroke-width="0.25" stroke-linecap="round" stroke-linejoin="round"/>
<path d="M3.09998 29.59L2.70998 29.59" stroke="black" stroke-width="0.25" stroke-linecap="round" stroke-linejoin="round"/>
<path d="M2.71002 29.59L2.71002 26.13" stroke="black" stroke-width="0.25" stroke-linecap="round" stroke-linejoin="round"/>
<path d="M2.71002 26.13L2.32002 26.13" stroke="black" stroke-width="0.25" stroke-linecap="round" stroke-linejoin="round"/>
<path d="M43.32 26.0499L39.82 26.0499" stroke="black" stroke-width="0.25" stroke-linecap="round" stroke-linejoin="round"/>
<path d="M39.82 26.05L39.82 28.22" stroke="black" stroke-width="0.25" stroke-linecap="round" stroke-linejoin="round"/>
<path d="M39.82 28.22L39.11 28.22" stroke="black" stroke-width="0.25" stroke-linecap="round" stroke-linejoin="round"/>
<path d="M39.11 28.2199L39.11 29.6899" stroke="black" stroke-width="0.25" stroke-linecap="round" stroke-linejoin="round"/>
<path d="M39.11 29.6899L40.74 29.6899" stroke="black" stroke-width="0.25" stroke-linecap="round" stroke-linejoin="round"/>
<path d="M40.74 29.6899L40.74 28.9299" stroke="black" stroke-width="0.25" stroke-linecap="round" stroke-linejoin="round"/>
<path d="M40.74 28.9299L40.74 26.1299" stroke="black" stroke-width="0.25" stroke-linecap="round" stroke-linejoin="round"/>
<path d="M40.74 26.1299L43.32 26.1299" stroke="black" stroke-width="0.25" stroke-linecap="round" stroke-linejoin="round"/>
<path d="M43.32 26.1299L43.32 26.0499" stroke="black" stroke-width="0.25" stroke-linecap="round" stroke-linejoin="round"/>
<path d="M40.27 29.58L40.66 29.58" stroke="black" stroke-width="0.25" stroke-linecap="round" stroke-linejoin="round"/>
<path d="M40.66 29.58L40.66 26.13" stroke="black" stroke-width="0.25" stroke-linecap="round" stroke-linejoin="round"/>
<path d="M40.66 26.1299L41.05 26.1299" stroke="black" stroke-width="0.25" stroke-linecap="round" stroke-linejoin="round"/>
<path d="M4.25999 29.6899L39.11 29.6899" stroke="black" stroke-width="0.25" stroke-linecap="round" stroke-linejoin="round"/>
<path d="M39.11 29.6899L39.11 28.2199" stroke="black" stroke-width="0.25" stroke-linecap="round" stroke-linejoin="round"/>
<path d="M39.11 28.22L4.25999 28.22" stroke="black" stroke-width="0.25" stroke-linecap="round" stroke-linejoin="round"/>
<path d="M4.26001 28.2199L4.26001 29.6899" stroke="black" stroke-width="0.25" stroke-linecap="round" stroke-linejoin="round"/>
<path d="M29.23 0.38994C29.23 0.38994 29.21 0.429941 29.23 0.439941" stroke="black" stroke-width="0.25" stroke-linecap="round" stroke-linejoin="round"/>
<path d="M29.23 0.439942L30.48 1.68994" stroke="black" stroke-width="0.25" stroke-linecap="round" stroke-linejoin="round"/>
<path d="M30.48 1.68995L4.98998 27.2" stroke="black" stroke-width="0.25" stroke-linecap="round" stroke-linejoin="round"/>
<path d="M4.98999 27.2L3.73999 25.96" stroke="black" stroke-width="0.25" stroke-linecap="round" stroke-linejoin="round"/>
<path d="M3.73999 25.96L29.12 0.569962" stroke="black" stroke-width="0.25" stroke-linecap="round" stroke-linejoin="round"/>
<path d="M29.12 0.569946C29.12 0.569946 29.15 0.489945 29.12 0.449945" stroke="black" stroke-width="0.25" stroke-linecap="round" stroke-linejoin="round"/>
<path d="M29.11 0.449951C29.11 0.449951 29.09 0.399951 29.11 0.379951" stroke="black" stroke-width="0.25" stroke-linecap="round" stroke-linejoin="round"/>
<path d="M29.11 0.379883L29.43 0.0698833" stroke="black" stroke-width="0.25" stroke-linecap="round" stroke-linejoin="round"/>
<path d="M29.43 0.0699463C29.43 0.0699463 29.5 0.0399463 29.52 0.0699463" stroke="black" stroke-width="0.25" stroke-linecap="round" stroke-linejoin="round"/>
<path d="M29.52 0.0599022C29.52 0.0599022 29.54 0.129902 29.52 0.149902" stroke="black" stroke-width="0.25" stroke-linecap="round" stroke-linejoin="round"/>
<path d="M29.52 0.159893L29.29 0.389893" stroke="black" stroke-width="0.25" stroke-linecap="round" stroke-linejoin="round"/>
<path d="M29.29 0.389902L29.27 0.399902" stroke="black" stroke-width="0.25" stroke-linecap="round" stroke-linejoin="round"/>
<path d="M29.27 0.399902C29.27 0.399902 29.25 0.399902 29.24 0.399902" stroke="black" stroke-width="0.25" stroke-linecap="round" stroke-linejoin="round"/>
<path d="M29.24 0.399902C29.24 0.399902 29.24 0.379902 29.24 0.369902" stroke="black" stroke-width="0.25" stroke-linecap="round" stroke-linejoin="round"/>
<path d="M29.24 0.369995L29.49 0.129995" stroke="black" stroke-width="0.25" stroke-linecap="round" stroke-linejoin="round"/>
<path d="M3.35003 25.6799C3.35003 25.6799 3.38003 25.6399 3.41003 25.6199" stroke="black" stroke-width="0.25" stroke-linecap="round" stroke-linejoin="round"/>
<path d="M3.35001 25.6799C3.27001 25.7799 3.29001 25.9299 3.39001 26.0099" stroke="black" stroke-width="0.25" stroke-linecap="round" stroke-linejoin="round"/>
<path d="M3.39003 26.0099C3.49003 26.0899 3.63003 26.0899 3.72003 25.9999" stroke="black" stroke-width="0.25" stroke-linecap="round" stroke-linejoin="round"/>
<path d="M3.72998 26C3.78998 25.94 3.81998 25.85 3.79998 25.77" stroke="black" stroke-width="0.25" stroke-linecap="round" stroke-linejoin="round"/>
<path d="M3.78998 25.7699C3.78998 25.7699 3.76998 25.7199 3.75998 25.6999" stroke="black" stroke-width="0.25" stroke-linecap="round" stroke-linejoin="round"/>
<path d="M3.76001 25.6899C3.76001 25.6899 3.75001 25.6699 3.74001 25.6599" stroke="black" stroke-width="0.25" stroke-linecap="round" stroke-linejoin="round"/>
<path d="M3.73999 25.6699C3.65999 25.5699 3.50999 25.5499 3.40999 25.6299" stroke="black" stroke-width="0.25" stroke-linecap="round" stroke-linejoin="round"/>
<path d="M3.41003 25.6299C3.41003 25.6299 3.37003 25.6599 3.35003 25.6799" stroke="black" stroke-width="0.25" stroke-linecap="round" stroke-linejoin="round"/>
<path d="M39.7 26.08C39.77 16.48 36.01 7.23996 29.26 0.409957" stroke="black" stroke-width="0.25" stroke-linecap="round" stroke-linejoin="round"/>
</svg>
