<svg width="133" height="22" viewBox="0 0 133 22" fill="none" xmlns="http://www.w3.org/2000/svg">
<g clip-path="url(#clip0_1665_5185)">
<path d="M130.81 16.65L128.81 16.65L128.81 12.86L127.78 12.86L127.78 21.11L4.81991 21.11L4.81991 12.86L3.80991 12.86L3.80991 16.66L1.80991 16.66L1.80991 12.86L0.0499122 12.86L0.0499124 11.36L1.80991 11.36L1.80991 2.15998L2.36991 2.15998L2.36991 1.81997L4.36991 1.81998L4.36991 0.0699751L128.37 0.069986L128.37 1.81999L130.37 1.81999L130.37 2.15999L130.81 2.15999L130.81 11.34L132.65 11.34L132.65 12.86L130.81 12.86L130.81 16.65Z" fill="white"/>
<path d="M6.36987 4.26001L2.86987 2.13001" stroke="black" stroke-width="0.25" stroke-linecap="round" stroke-linejoin="round"/>
<path d="M4.7699 12.84L4.7699 12.09" stroke="black" stroke-width="0.25" stroke-linecap="round" stroke-linejoin="round"/>
<path d="M4.83985 3.85997L127.85 3.85999" stroke="black" stroke-width="0.25" stroke-linecap="round" stroke-linejoin="round"/>
<path d="M4.83994 4.58996L127.82 21.09" stroke="black" stroke-width="0.25" stroke-linecap="round" stroke-linejoin="round"/>
<path d="M126.37 4.26001L129.87 2.13001" stroke="black" stroke-width="0.25" stroke-linecap="round" stroke-linejoin="round"/>
<path d="M132.65 12.84L132.65 12.09" stroke="black" stroke-width="0.25" stroke-linecap="round" stroke-linejoin="round"/>
<path d="M128.37 0.0499268L126.37 0.0499266" stroke="black" stroke-width="0.25" stroke-linecap="round" stroke-linejoin="round"/>
<path d="M126.37 0.0499268L126.37 2.04993" stroke="black" stroke-width="0.25" stroke-linecap="round" stroke-linejoin="round"/>
<path d="M126.37 2.04993L128.37 2.04993" stroke="black" stroke-width="0.25" stroke-linecap="round" stroke-linejoin="round"/>
<path d="M128.37 2.04993L128.37 0.0499268" stroke="black" stroke-width="0.25" stroke-linecap="round" stroke-linejoin="round"/>
<path d="M6.36987 0.0499268L4.36987 0.0499266" stroke="black" stroke-width="0.25" stroke-linecap="round" stroke-linejoin="round"/>
<path d="M4.36987 0.0499268L4.36987 2.04993" stroke="black" stroke-width="0.25" stroke-linecap="round" stroke-linejoin="round"/>
<path d="M4.36987 2.04993L6.36987 2.04993" stroke="black" stroke-width="0.25" stroke-linecap="round" stroke-linejoin="round"/>
<path d="M6.36987 2.04993L6.36987 0.0499268" stroke="black" stroke-width="0.25" stroke-linecap="round" stroke-linejoin="round"/>
<path d="M126.37 0.0499268L6.36987 0.0499163" stroke="black" stroke-width="0.25" stroke-linecap="round" stroke-linejoin="round"/>
<path d="M6.36987 0.0499268L6.36987 2.04993" stroke="black" stroke-width="0.25" stroke-linecap="round" stroke-linejoin="round"/>
<path d="M6.36987 2.04992L126.37 2.04993" stroke="black" stroke-width="0.25" stroke-linecap="round" stroke-linejoin="round"/>
<path d="M126.37 2.04993L126.37 0.0499268" stroke="black" stroke-width="0.25" stroke-linecap="round" stroke-linejoin="round"/>
<path d="M4.83985 3.08997L4.83984 21.09" stroke="black" stroke-width="0.25" stroke-linecap="round" stroke-linejoin="round"/>
<path d="M4.83996 21.09L127.83 21.09" stroke="black" stroke-width="0.25" stroke-linecap="round" stroke-linejoin="round"/>
<path d="M127.83 21.09L127.83 3.08997" stroke="black" stroke-width="0.25" stroke-linecap="round" stroke-linejoin="round"/>
<path d="M127.83 3.08997L4.83996 3.08996" stroke="black" stroke-width="0.25" stroke-linecap="round" stroke-linejoin="round"/>
<path d="M2.86987 2.13L6.36987 2.13" stroke="black" stroke-width="0.25" stroke-linecap="round" stroke-linejoin="round"/>
<path d="M6.36987 2.13001L6.36987 2.76001" stroke="black" stroke-width="0.25" stroke-linecap="round" stroke-linejoin="round"/>
<path d="M6.36987 2.76001L4.36987 2.76001" stroke="black" stroke-width="0.25" stroke-linecap="round" stroke-linejoin="round"/>
<path d="M4.36987 2.76001L4.36987 4.26001" stroke="black" stroke-width="0.25" stroke-linecap="round" stroke-linejoin="round"/>
<path d="M4.36987 4.26001L6.36987 4.26001" stroke="black" stroke-width="0.25" stroke-linecap="round" stroke-linejoin="round"/>
<path d="M4.75996 3.08998C4.71578 3.08998 4.67996 3.26011 4.67996 3.46998C4.67996 3.67984 4.71578 3.84998 4.75996 3.84998C4.80415 3.84998 4.83997 3.67984 4.83997 3.46998C4.83997 3.26011 4.80415 3.08998 4.75996 3.08998Z" stroke="black" stroke-width="0.25" stroke-linecap="round" stroke-linejoin="round"/>
<path d="M1.80994 2.14001L1.80994 16.64" stroke="black" stroke-width="0.25" stroke-linecap="round" stroke-linejoin="round"/>
<path d="M1.80994 16.64L3.80994 16.64" stroke="black" stroke-width="0.25" stroke-linecap="round" stroke-linejoin="round"/>
<path d="M3.80994 16.64L3.80994 2.14001" stroke="black" stroke-width="0.25" stroke-linecap="round" stroke-linejoin="round"/>
<path d="M3.80994 2.14001L1.80994 2.14001" stroke="black" stroke-width="0.25" stroke-linecap="round" stroke-linejoin="round"/>
<path d="M4.7699 12.09L4.7699 12.84" stroke="black" stroke-width="0.25" stroke-linecap="round" stroke-linejoin="round"/>
<path d="M4.7699 12.84L0.0499039 12.84" stroke="black" stroke-width="0.25" stroke-linecap="round" stroke-linejoin="round"/>
<path d="M0.0499268 12.84L0.0499269 11.34" stroke="black" stroke-width="0.25" stroke-linecap="round" stroke-linejoin="round"/>
<path d="M0.0499039 11.34L4.7699 11.34" stroke="black" stroke-width="0.25" stroke-linecap="round" stroke-linejoin="round"/>
<path d="M4.7699 11.34L4.7699 12.84" stroke="black" stroke-width="0.25" stroke-linecap="round" stroke-linejoin="round"/>
<path d="M127.85 3.85999L4.83985 3.85997" stroke="black" stroke-width="0.25" stroke-linecap="round" stroke-linejoin="round"/>
<path d="M127.82 21.09L127.82 19.59" stroke="black" stroke-width="0.25" stroke-linecap="round" stroke-linejoin="round"/>
<path d="M127.82 19.59L4.83994 19.59" stroke="black" stroke-width="0.25" stroke-linecap="round" stroke-linejoin="round"/>
<path d="M4.83997 19.59L4.83997 18.09" stroke="black" stroke-width="0.25" stroke-linecap="round" stroke-linejoin="round"/>
<path d="M4.83994 18.09L127.82 18.09" stroke="black" stroke-width="0.25" stroke-linecap="round" stroke-linejoin="round"/>
<path d="M127.82 18.09L127.82 16.59" stroke="black" stroke-width="0.25" stroke-linecap="round" stroke-linejoin="round"/>
<path d="M127.82 16.59L4.83994 16.59" stroke="black" stroke-width="0.25" stroke-linecap="round" stroke-linejoin="round"/>
<path d="M4.83997 16.59L4.83997 15.09" stroke="black" stroke-width="0.25" stroke-linecap="round" stroke-linejoin="round"/>
<path d="M4.83994 15.09L127.82 15.09" stroke="black" stroke-width="0.25" stroke-linecap="round" stroke-linejoin="round"/>
<path d="M127.82 15.09L127.82 13.59" stroke="black" stroke-width="0.25" stroke-linecap="round" stroke-linejoin="round"/>
<path d="M127.82 13.59L4.83994 13.59" stroke="black" stroke-width="0.25" stroke-linecap="round" stroke-linejoin="round"/>
<path d="M4.83997 13.59L4.83997 12.09" stroke="black" stroke-width="0.25" stroke-linecap="round" stroke-linejoin="round"/>
<path d="M4.83994 12.09L127.82 12.09" stroke="black" stroke-width="0.25" stroke-linecap="round" stroke-linejoin="round"/>
<path d="M127.82 12.09L127.82 10.59" stroke="black" stroke-width="0.25" stroke-linecap="round" stroke-linejoin="round"/>
<path d="M127.82 10.59L4.83994 10.59" stroke="black" stroke-width="0.25" stroke-linecap="round" stroke-linejoin="round"/>
<path d="M4.83997 10.59L4.83997 9.08997" stroke="black" stroke-width="0.25" stroke-linecap="round" stroke-linejoin="round"/>
<path d="M4.83994 9.08996L127.82 9.08997" stroke="black" stroke-width="0.25" stroke-linecap="round" stroke-linejoin="round"/>
<path d="M127.82 9.08997L127.82 7.58997" stroke="black" stroke-width="0.25" stroke-linecap="round" stroke-linejoin="round"/>
<path d="M127.82 7.58997L4.83994 7.58996" stroke="black" stroke-width="0.25" stroke-linecap="round" stroke-linejoin="round"/>
<path d="M4.83997 7.58997L4.83997 6.08997" stroke="black" stroke-width="0.25" stroke-linecap="round" stroke-linejoin="round"/>
<path d="M4.83994 6.08996L127.82 6.08997" stroke="black" stroke-width="0.25" stroke-linecap="round" stroke-linejoin="round"/>
<path d="M127.82 6.08997L127.82 4.58997" stroke="black" stroke-width="0.25" stroke-linecap="round" stroke-linejoin="round"/>
<path d="M127.82 4.58997L4.83994 4.58996" stroke="black" stroke-width="0.25" stroke-linecap="round" stroke-linejoin="round"/>
<path d="M129.87 2.13L126.37 2.13" stroke="black" stroke-width="0.25" stroke-linecap="round" stroke-linejoin="round"/>
<path d="M126.37 2.13001L126.37 2.76001" stroke="black" stroke-width="0.25" stroke-linecap="round" stroke-linejoin="round"/>
<path d="M126.37 2.76001L128.37 2.76001" stroke="black" stroke-width="0.25" stroke-linecap="round" stroke-linejoin="round"/>
<path d="M128.37 2.76001L128.37 4.26001" stroke="black" stroke-width="0.25" stroke-linecap="round" stroke-linejoin="round"/>
<path d="M128.37 4.26001L126.37 4.26001" stroke="black" stroke-width="0.25" stroke-linecap="round" stroke-linejoin="round"/>
<path d="M128.81 2.13L128.81 16.63" stroke="black" stroke-width="0.25" stroke-linecap="round" stroke-linejoin="round"/>
<path d="M128.81 16.63L130.81 16.63" stroke="black" stroke-width="0.25" stroke-linecap="round" stroke-linejoin="round"/>
<path d="M130.81 16.63L130.81 2.13" stroke="black" stroke-width="0.25" stroke-linecap="round" stroke-linejoin="round"/>
<path d="M130.81 2.13L128.81 2.13" stroke="black" stroke-width="0.25" stroke-linecap="round" stroke-linejoin="round"/>
<path d="M132.65 12.09L132.65 12.84" stroke="black" stroke-width="0.25" stroke-linecap="round" stroke-linejoin="round"/>
<path d="M132.65 12.84L127.93 12.84" stroke="black" stroke-width="0.25" stroke-linecap="round" stroke-linejoin="round"/>
<path d="M127.93 12.84L127.93 11.34" stroke="black" stroke-width="0.25" stroke-linecap="round" stroke-linejoin="round"/>
<path d="M127.93 11.34L132.65 11.34" stroke="black" stroke-width="0.25" stroke-linecap="round" stroke-linejoin="round"/>
<path d="M132.65 11.34L132.65 12.84" stroke="black" stroke-width="0.25" stroke-linecap="round" stroke-linejoin="round"/>
<path d="M127.85 3.08998C127.806 3.08998 127.77 3.26011 127.77 3.46998C127.77 3.67984 127.806 3.84998 127.85 3.84998C127.894 3.84998 127.93 3.67984 127.93 3.46998C127.93 3.26011 127.894 3.08998 127.85 3.08998Z" stroke="black" stroke-width="0.25" stroke-linecap="round" stroke-linejoin="round"/>
<path d="M130.37 1.79993L128.37 1.79993" stroke="black" stroke-width="0.25" stroke-linecap="round" stroke-linejoin="round"/>
<path d="M128.37 1.79993L128.37 2.04993" stroke="black" stroke-width="0.25" stroke-linecap="round" stroke-linejoin="round"/>
<path d="M128.37 2.04993L130.37 2.04993" stroke="black" stroke-width="0.25" stroke-linecap="round" stroke-linejoin="round"/>
<path d="M130.37 2.04993L130.37 1.79993" stroke="black" stroke-width="0.25" stroke-linecap="round" stroke-linejoin="round"/>
<path d="M4.36987 1.79993L2.36987 1.79993" stroke="black" stroke-width="0.25" stroke-linecap="round" stroke-linejoin="round"/>
<path d="M2.36987 1.79993L2.36987 2.04993" stroke="black" stroke-width="0.25" stroke-linecap="round" stroke-linejoin="round"/>
<path d="M2.36987 2.04993L4.36987 2.04993" stroke="black" stroke-width="0.25" stroke-linecap="round" stroke-linejoin="round"/>
<path d="M4.36987 2.04993L4.36987 1.79993" stroke="black" stroke-width="0.25" stroke-linecap="round" stroke-linejoin="round"/>
</g>
<defs>
<clipPath id="clip0_1665_5185">
<rect width="132.7" height="21.14" fill="white" transform="translate(132.7 21.14) rotate(-180)"/>
</clipPath>
</defs>
</svg>
