<svg width="109" height="22" viewBox="0 0 109 22" fill="none" xmlns="http://www.w3.org/2000/svg">
<g clip-path="url(#clip0_1665_5014)">
<path d="M106.81 16.63L104.81 16.63L104.81 12.84L103.78 12.84L103.78 21.09L4.81997 21.09L4.81997 12.84L3.80997 12.84L3.80997 16.64L1.80997 16.64L1.80997 12.84L0.0499656 12.84L0.0499658 11.34L1.80997 11.34L1.80997 2.13996L2.36997 2.13996L2.36997 1.79996L4.36997 1.79996L4.36997 0.0499558L104.37 0.0499645L104.37 1.79996L106.37 1.79996L106.37 2.13996L106.81 2.13996L106.81 11.32L108.65 11.32L108.65 12.84L106.81 12.84L106.81 16.63Z" fill="white"/>
<path d="M6.37 4.26001L2.87 2.13001" stroke="black" stroke-width="0.25" stroke-linecap="round" stroke-linejoin="round"/>
<path d="M4.76996 12.84L4.76996 12.09" stroke="black" stroke-width="0.25" stroke-linecap="round" stroke-linejoin="round"/>
<path d="M4.75997 3.85998L103.85 3.85999" stroke="black" stroke-width="0.25" stroke-linecap="round" stroke-linejoin="round"/>
<path d="M4.75994 4.58996L103.82 21.09" stroke="black" stroke-width="0.25" stroke-linecap="round" stroke-linejoin="round"/>
<path d="M102.37 4.26001L105.87 2.13001" stroke="black" stroke-width="0.25" stroke-linecap="round" stroke-linejoin="round"/>
<path d="M108.65 12.84L108.65 12.09" stroke="black" stroke-width="0.25" stroke-linecap="round" stroke-linejoin="round"/>
<path d="M104.37 0.0499268L102.37 0.0499266" stroke="black" stroke-width="0.25" stroke-linecap="round" stroke-linejoin="round"/>
<path d="M102.37 0.0499268L102.37 2.04993" stroke="black" stroke-width="0.25" stroke-linecap="round" stroke-linejoin="round"/>
<path d="M102.37 2.04993L104.37 2.04993" stroke="black" stroke-width="0.25" stroke-linecap="round" stroke-linejoin="round"/>
<path d="M104.37 2.04993L104.37 0.0499268" stroke="black" stroke-width="0.25" stroke-linecap="round" stroke-linejoin="round"/>
<path d="M6.37 0.0499268L4.37 0.0499266" stroke="black" stroke-width="0.25" stroke-linecap="round" stroke-linejoin="round"/>
<path d="M4.37 0.0499268L4.37 2.04993" stroke="black" stroke-width="0.25" stroke-linecap="round" stroke-linejoin="round"/>
<path d="M4.37 2.04993L6.37 2.04993" stroke="black" stroke-width="0.25" stroke-linecap="round" stroke-linejoin="round"/>
<path d="M6.37 2.04993L6.37 0.0499268" stroke="black" stroke-width="0.25" stroke-linecap="round" stroke-linejoin="round"/>
<path d="M102.37 0.0499268L6.37 0.0499184" stroke="black" stroke-width="0.25" stroke-linecap="round" stroke-linejoin="round"/>
<path d="M6.37 0.0499268L6.37 2.04993" stroke="black" stroke-width="0.25" stroke-linecap="round" stroke-linejoin="round"/>
<path d="M6.37 2.04992L102.37 2.04993" stroke="black" stroke-width="0.25" stroke-linecap="round" stroke-linejoin="round"/>
<path d="M102.37 2.04993L102.37 0.0499268" stroke="black" stroke-width="0.25" stroke-linecap="round" stroke-linejoin="round"/>
<path d="M4.75995 3.08997L4.75995 21.09" stroke="black" stroke-width="0.25" stroke-linecap="round" stroke-linejoin="round"/>
<path d="M4.75996 21.09L103.83 21.09" stroke="black" stroke-width="0.25" stroke-linecap="round" stroke-linejoin="round"/>
<path d="M103.83 21.09L103.83 3.08997" stroke="black" stroke-width="0.25" stroke-linecap="round" stroke-linejoin="round"/>
<path d="M103.83 3.08997L4.75996 3.08996" stroke="black" stroke-width="0.25" stroke-linecap="round" stroke-linejoin="round"/>
<path d="M2.87 2.13L6.37 2.13" stroke="black" stroke-width="0.25" stroke-linecap="round" stroke-linejoin="round"/>
<path d="M6.37 2.13001L6.37 2.76001" stroke="black" stroke-width="0.25" stroke-linecap="round" stroke-linejoin="round"/>
<path d="M6.37 2.76001L4.37 2.76001" stroke="black" stroke-width="0.25" stroke-linecap="round" stroke-linejoin="round"/>
<path d="M4.37 2.76001L4.37 4.26001" stroke="black" stroke-width="0.25" stroke-linecap="round" stroke-linejoin="round"/>
<path d="M4.37 4.26001L6.37 4.26001" stroke="black" stroke-width="0.25" stroke-linecap="round" stroke-linejoin="round"/>
<path d="M4.75996 3.08998C4.71578 3.08998 4.67997 3.26011 4.67997 3.46998C4.67997 3.67984 4.71578 3.84998 4.75996 3.84998C4.80415 3.84998 4.83997 3.67984 4.83997 3.46998C4.83997 3.26011 4.80415 3.08998 4.75996 3.08998Z" stroke="black" stroke-width="0.25" stroke-linecap="round" stroke-linejoin="round"/>
<path d="M1.81 2.14001L1.81 16.64" stroke="black" stroke-width="0.25" stroke-linecap="round" stroke-linejoin="round"/>
<path d="M1.81 16.64L3.81 16.64" stroke="black" stroke-width="0.25" stroke-linecap="round" stroke-linejoin="round"/>
<path d="M3.81 16.64L3.81 2.14001" stroke="black" stroke-width="0.25" stroke-linecap="round" stroke-linejoin="round"/>
<path d="M3.81 2.14001L1.81 2.14001" stroke="black" stroke-width="0.25" stroke-linecap="round" stroke-linejoin="round"/>
<path d="M4.76996 12.09L4.76996 12.84" stroke="black" stroke-width="0.25" stroke-linecap="round" stroke-linejoin="round"/>
<path d="M4.76996 12.84L0.0499573 12.84" stroke="black" stroke-width="0.25" stroke-linecap="round" stroke-linejoin="round"/>
<path d="M0.0499878 12.84L0.0499879 11.34" stroke="black" stroke-width="0.25" stroke-linecap="round" stroke-linejoin="round"/>
<path d="M0.0499573 11.34L4.76996 11.34" stroke="black" stroke-width="0.25" stroke-linecap="round" stroke-linejoin="round"/>
<path d="M4.76996 11.34L4.76996 12.84" stroke="black" stroke-width="0.25" stroke-linecap="round" stroke-linejoin="round"/>
<path d="M103.85 3.85999L4.75997 3.85998" stroke="black" stroke-width="0.25" stroke-linecap="round" stroke-linejoin="round"/>
<path d="M103.82 21.09L103.82 19.59" stroke="black" stroke-width="0.25" stroke-linecap="round" stroke-linejoin="round"/>
<path d="M103.82 19.59L4.75994 19.59" stroke="black" stroke-width="0.25" stroke-linecap="round" stroke-linejoin="round"/>
<path d="M4.75995 19.59L4.75995 18.09" stroke="black" stroke-width="0.25" stroke-linecap="round" stroke-linejoin="round"/>
<path d="M4.75994 18.09L103.82 18.09" stroke="black" stroke-width="0.25" stroke-linecap="round" stroke-linejoin="round"/>
<path d="M103.82 18.09L103.82 16.59" stroke="black" stroke-width="0.25" stroke-linecap="round" stroke-linejoin="round"/>
<path d="M103.82 16.59L4.75994 16.59" stroke="black" stroke-width="0.25" stroke-linecap="round" stroke-linejoin="round"/>
<path d="M4.75995 16.59L4.75995 15.09" stroke="black" stroke-width="0.25" stroke-linecap="round" stroke-linejoin="round"/>
<path d="M4.75994 15.09L103.82 15.09" stroke="black" stroke-width="0.25" stroke-linecap="round" stroke-linejoin="round"/>
<path d="M103.82 15.09L103.82 13.59" stroke="black" stroke-width="0.25" stroke-linecap="round" stroke-linejoin="round"/>
<path d="M103.82 13.59L4.75994 13.59" stroke="black" stroke-width="0.25" stroke-linecap="round" stroke-linejoin="round"/>
<path d="M4.75995 13.59L4.75995 12.09" stroke="black" stroke-width="0.25" stroke-linecap="round" stroke-linejoin="round"/>
<path d="M4.75994 12.09L103.82 12.09" stroke="black" stroke-width="0.25" stroke-linecap="round" stroke-linejoin="round"/>
<path d="M103.82 12.09L103.82 10.59" stroke="black" stroke-width="0.25" stroke-linecap="round" stroke-linejoin="round"/>
<path d="M103.82 10.59L4.75994 10.59" stroke="black" stroke-width="0.25" stroke-linecap="round" stroke-linejoin="round"/>
<path d="M4.75995 10.59L4.75995 9.08997" stroke="black" stroke-width="0.25" stroke-linecap="round" stroke-linejoin="round"/>
<path d="M4.75994 9.08996L103.82 9.08997" stroke="black" stroke-width="0.25" stroke-linecap="round" stroke-linejoin="round"/>
<path d="M103.82 9.08997L103.82 7.58997" stroke="black" stroke-width="0.25" stroke-linecap="round" stroke-linejoin="round"/>
<path d="M103.82 7.58997L4.75994 7.58996" stroke="black" stroke-width="0.25" stroke-linecap="round" stroke-linejoin="round"/>
<path d="M4.75995 7.58997L4.75995 6.08997" stroke="black" stroke-width="0.25" stroke-linecap="round" stroke-linejoin="round"/>
<path d="M4.75994 6.08996L103.82 6.08997" stroke="black" stroke-width="0.25" stroke-linecap="round" stroke-linejoin="round"/>
<path d="M103.82 6.08997L103.82 4.58997" stroke="black" stroke-width="0.25" stroke-linecap="round" stroke-linejoin="round"/>
<path d="M103.82 4.58997L4.75994 4.58996" stroke="black" stroke-width="0.25" stroke-linecap="round" stroke-linejoin="round"/>
<path d="M105.87 2.13L102.37 2.13" stroke="black" stroke-width="0.25" stroke-linecap="round" stroke-linejoin="round"/>
<path d="M102.37 2.13001L102.37 2.76001" stroke="black" stroke-width="0.25" stroke-linecap="round" stroke-linejoin="round"/>
<path d="M102.37 2.76001L104.37 2.76001" stroke="black" stroke-width="0.25" stroke-linecap="round" stroke-linejoin="round"/>
<path d="M104.37 2.76001L104.37 4.26001" stroke="black" stroke-width="0.25" stroke-linecap="round" stroke-linejoin="round"/>
<path d="M104.37 4.26001L102.37 4.26001" stroke="black" stroke-width="0.25" stroke-linecap="round" stroke-linejoin="round"/>
<path d="M104.81 2.13L104.81 16.63" stroke="black" stroke-width="0.25" stroke-linecap="round" stroke-linejoin="round"/>
<path d="M104.81 16.63L106.81 16.63" stroke="black" stroke-width="0.25" stroke-linecap="round" stroke-linejoin="round"/>
<path d="M106.81 16.63L106.81 2.13" stroke="black" stroke-width="0.25" stroke-linecap="round" stroke-linejoin="round"/>
<path d="M106.81 2.13L104.81 2.13" stroke="black" stroke-width="0.25" stroke-linecap="round" stroke-linejoin="round"/>
<path d="M108.65 12.09L108.65 12.84" stroke="black" stroke-width="0.25" stroke-linecap="round" stroke-linejoin="round"/>
<path d="M108.65 12.84L103.93 12.84" stroke="black" stroke-width="0.25" stroke-linecap="round" stroke-linejoin="round"/>
<path d="M103.93 12.84L103.93 11.34" stroke="black" stroke-width="0.25" stroke-linecap="round" stroke-linejoin="round"/>
<path d="M103.93 11.34L108.65 11.34" stroke="black" stroke-width="0.25" stroke-linecap="round" stroke-linejoin="round"/>
<path d="M108.65 11.34L108.65 12.84" stroke="black" stroke-width="0.25" stroke-linecap="round" stroke-linejoin="round"/>
<path d="M103.85 3.08998C103.806 3.08998 103.77 3.26011 103.77 3.46998C103.77 3.67984 103.806 3.84998 103.85 3.84998C103.894 3.84998 103.93 3.67984 103.93 3.46998C103.93 3.26011 103.894 3.08998 103.85 3.08998Z" stroke="black" stroke-width="0.25" stroke-linecap="round" stroke-linejoin="round"/>
<path d="M106.37 1.79993L104.37 1.79993" stroke="black" stroke-width="0.25" stroke-linecap="round" stroke-linejoin="round"/>
<path d="M104.37 1.79993L104.37 2.04993" stroke="black" stroke-width="0.25" stroke-linecap="round" stroke-linejoin="round"/>
<path d="M104.37 2.04993L106.37 2.04993" stroke="black" stroke-width="0.25" stroke-linecap="round" stroke-linejoin="round"/>
<path d="M106.37 2.04993L106.37 1.79993" stroke="black" stroke-width="0.25" stroke-linecap="round" stroke-linejoin="round"/>
<path d="M4.37 1.79993L2.37 1.79993" stroke="black" stroke-width="0.25" stroke-linecap="round" stroke-linejoin="round"/>
<path d="M2.37 1.79993L2.37 2.04993" stroke="black" stroke-width="0.25" stroke-linecap="round" stroke-linejoin="round"/>
<path d="M2.37 2.04993L4.37 2.04993" stroke="black" stroke-width="0.25" stroke-linecap="round" stroke-linejoin="round"/>
<path d="M4.37 2.04993L4.37 1.79993" stroke="black" stroke-width="0.25" stroke-linecap="round" stroke-linejoin="round"/>
</g>
<defs>
<clipPath id="clip0_1665_5014">
<rect width="108.7" height="21.14" fill="white" transform="translate(108.7 21.14) rotate(-180)"/>
</clipPath>
</defs>
</svg>
