<svg width="193" height="22" viewBox="0 0 193 22" fill="none" xmlns="http://www.w3.org/2000/svg">
<g clip-path="url(#clip0_1665_5527)">
<path d="M190.81 16.65L188.81 16.65L188.81 12.86L187.78 12.86L187.78 21.11L4.7899 21.11L4.7899 12.86L3.7899 12.86L3.7899 16.66L1.7899 16.66L1.7899 12.86L0.0299079 12.86L0.0299081 11.36L1.7899 11.36L1.7899 2.15997L2.33991 2.15997L2.33991 1.81997L4.33991 1.81997L4.33991 0.0699699L188.37 0.069986L188.37 1.81999L190.37 1.81999L190.37 2.15999L190.81 2.15999L190.81 11.34L192.65 11.34L192.65 12.86L190.81 12.86L190.81 16.65Z" fill="white"/>
<path d="M6.36987 4.2699L2.86987 2.1399" stroke="black" stroke-width="0.25" stroke-linecap="round" stroke-linejoin="round"/>
<path d="M4.7699 12.85L4.7699 12.1" stroke="black" stroke-width="0.25" stroke-linecap="round" stroke-linejoin="round"/>
<path d="M4.83986 3.85997L187.85 3.85999" stroke="black" stroke-width="0.25" stroke-linecap="round" stroke-linejoin="round"/>
<path d="M4.83992 4.58995L187.8 21.09" stroke="black" stroke-width="0.25" stroke-linecap="round" stroke-linejoin="round"/>
<path d="M186.37 4.26001L189.87 2.13001" stroke="black" stroke-width="0.25" stroke-linecap="round" stroke-linejoin="round"/>
<path d="M192.65 12.84L192.65 12.09" stroke="black" stroke-width="0.25" stroke-linecap="round" stroke-linejoin="round"/>
<path d="M188.37 0.0499268L186.37 0.0499266" stroke="black" stroke-width="0.25" stroke-linecap="round" stroke-linejoin="round"/>
<path d="M186.37 0.0499268L186.37 2.04993" stroke="black" stroke-width="0.25" stroke-linecap="round" stroke-linejoin="round"/>
<path d="M186.37 2.04993L188.37 2.04993" stroke="black" stroke-width="0.25" stroke-linecap="round" stroke-linejoin="round"/>
<path d="M188.37 2.04993L188.37 0.0499268" stroke="black" stroke-width="0.25" stroke-linecap="round" stroke-linejoin="round"/>
<path d="M6.36987 0.0499268L3.90988 0.0499265" stroke="black" stroke-width="0.25" stroke-linecap="round" stroke-linejoin="round"/>
<path d="M3.90991 0.0499268L3.90991 2.04993" stroke="black" stroke-width="0.25" stroke-linecap="round" stroke-linejoin="round"/>
<path d="M3.90988 2.04993L6.36987 2.04993" stroke="black" stroke-width="0.25" stroke-linecap="round" stroke-linejoin="round"/>
<path d="M6.36987 2.04993L6.36987 0.0499268" stroke="black" stroke-width="0.25" stroke-linecap="round" stroke-linejoin="round"/>
<path d="M186.37 0.0499268L6.36987 0.049911" stroke="black" stroke-width="0.25" stroke-linecap="round" stroke-linejoin="round"/>
<path d="M6.36987 0.0499268L6.36987 2.04993" stroke="black" stroke-width="0.25" stroke-linecap="round" stroke-linejoin="round"/>
<path d="M6.36987 2.04991L186.37 2.04993" stroke="black" stroke-width="0.25" stroke-linecap="round" stroke-linejoin="round"/>
<path d="M186.37 2.04993L186.37 0.0499268" stroke="black" stroke-width="0.25" stroke-linecap="round" stroke-linejoin="round"/>
<path d="M4.83985 3.08997L4.83984 21.09" stroke="black" stroke-width="0.25" stroke-linecap="round" stroke-linejoin="round"/>
<path d="M4.83994 21.0899L187.81 21.09" stroke="black" stroke-width="0.25" stroke-linecap="round" stroke-linejoin="round"/>
<path d="M187.81 21.09L187.81 3.08997" stroke="black" stroke-width="0.25" stroke-linecap="round" stroke-linejoin="round"/>
<path d="M187.81 3.08997L4.83994 3.08995" stroke="black" stroke-width="0.25" stroke-linecap="round" stroke-linejoin="round"/>
<path d="M2.86987 2.13989L6.36987 2.13989" stroke="black" stroke-width="0.25" stroke-linecap="round" stroke-linejoin="round"/>
<path d="M6.36987 2.1399L6.36987 2.7699" stroke="black" stroke-width="0.25" stroke-linecap="round" stroke-linejoin="round"/>
<path d="M6.36987 2.7699L4.36987 2.7699" stroke="black" stroke-width="0.25" stroke-linecap="round" stroke-linejoin="round"/>
<path d="M4.36987 2.7699L4.36987 4.2699" stroke="black" stroke-width="0.25" stroke-linecap="round" stroke-linejoin="round"/>
<path d="M4.36987 4.2699L6.36987 4.2699" stroke="black" stroke-width="0.25" stroke-linecap="round" stroke-linejoin="round"/>
<path d="M4.76987 3.09999C4.72568 3.09999 4.68987 3.27012 4.68987 3.47999C4.68987 3.68985 4.72568 3.85999 4.76987 3.85999C4.81405 3.85999 4.84985 3.68985 4.84985 3.47999C4.84985 3.27012 4.81405 3.09999 4.76987 3.09999Z" stroke="black" stroke-width="0.25" stroke-linecap="round" stroke-linejoin="round"/>
<path d="M1.80994 2.1499L1.80994 16.6499" stroke="black" stroke-width="0.25" stroke-linecap="round" stroke-linejoin="round"/>
<path d="M1.80994 16.6499L3.80994 16.6499" stroke="black" stroke-width="0.25" stroke-linecap="round" stroke-linejoin="round"/>
<path d="M3.80994 16.6499L3.80994 2.1499" stroke="black" stroke-width="0.25" stroke-linecap="round" stroke-linejoin="round"/>
<path d="M3.80994 2.1499L1.80994 2.1499" stroke="black" stroke-width="0.25" stroke-linecap="round" stroke-linejoin="round"/>
<path d="M4.7699 12.1L4.7699 12.85" stroke="black" stroke-width="0.25" stroke-linecap="round" stroke-linejoin="round"/>
<path d="M4.7699 12.85L0.0498962 12.85" stroke="black" stroke-width="0.25" stroke-linecap="round" stroke-linejoin="round"/>
<path d="M0.0499268 12.85L0.0499269 11.35" stroke="black" stroke-width="0.25" stroke-linecap="round" stroke-linejoin="round"/>
<path d="M0.0498962 11.35L4.7699 11.35" stroke="black" stroke-width="0.25" stroke-linecap="round" stroke-linejoin="round"/>
<path d="M4.7699 11.35L4.7699 12.85" stroke="black" stroke-width="0.25" stroke-linecap="round" stroke-linejoin="round"/>
<path d="M187.85 3.85999L4.83986 3.85997" stroke="black" stroke-width="0.25" stroke-linecap="round" stroke-linejoin="round"/>
<path d="M187.8 21.09L187.8 19.59" stroke="black" stroke-width="0.25" stroke-linecap="round" stroke-linejoin="round"/>
<path d="M187.8 19.59L4.83992 19.5899" stroke="black" stroke-width="0.25" stroke-linecap="round" stroke-linejoin="round"/>
<path d="M4.83997 19.59L4.83997 18.09" stroke="black" stroke-width="0.25" stroke-linecap="round" stroke-linejoin="round"/>
<path d="M4.83992 18.0899L187.8 18.09" stroke="black" stroke-width="0.25" stroke-linecap="round" stroke-linejoin="round"/>
<path d="M187.8 18.09L187.8 16.59" stroke="black" stroke-width="0.25" stroke-linecap="round" stroke-linejoin="round"/>
<path d="M187.8 16.59L4.83992 16.5899" stroke="black" stroke-width="0.25" stroke-linecap="round" stroke-linejoin="round"/>
<path d="M4.83997 16.59L4.83997 15.09" stroke="black" stroke-width="0.25" stroke-linecap="round" stroke-linejoin="round"/>
<path d="M4.83992 15.0899L187.8 15.09" stroke="black" stroke-width="0.25" stroke-linecap="round" stroke-linejoin="round"/>
<path d="M187.8 15.09L187.8 13.59" stroke="black" stroke-width="0.25" stroke-linecap="round" stroke-linejoin="round"/>
<path d="M187.8 13.59L4.83992 13.5899" stroke="black" stroke-width="0.25" stroke-linecap="round" stroke-linejoin="round"/>
<path d="M4.83997 13.59L4.83997 12.09" stroke="black" stroke-width="0.25" stroke-linecap="round" stroke-linejoin="round"/>
<path d="M4.83992 12.0899L187.8 12.09" stroke="black" stroke-width="0.25" stroke-linecap="round" stroke-linejoin="round"/>
<path d="M187.8 12.09L187.8 10.59" stroke="black" stroke-width="0.25" stroke-linecap="round" stroke-linejoin="round"/>
<path d="M187.8 10.59L4.84991 10.5899" stroke="black" stroke-width="0.25" stroke-linecap="round" stroke-linejoin="round"/>
<path d="M4.84985 10.59L4.84985 9.08997" stroke="black" stroke-width="0.25" stroke-linecap="round" stroke-linejoin="round"/>
<path d="M4.84991 9.08995L187.8 9.08997" stroke="black" stroke-width="0.25" stroke-linecap="round" stroke-linejoin="round"/>
<path d="M187.8 9.08997L187.8 7.58997" stroke="black" stroke-width="0.25" stroke-linecap="round" stroke-linejoin="round"/>
<path d="M187.8 7.58997L4.83992 7.58995" stroke="black" stroke-width="0.25" stroke-linecap="round" stroke-linejoin="round"/>
<path d="M4.83997 7.58997L4.83997 6.08997" stroke="black" stroke-width="0.25" stroke-linecap="round" stroke-linejoin="round"/>
<path d="M4.83992 6.08995L187.8 6.08997" stroke="black" stroke-width="0.25" stroke-linecap="round" stroke-linejoin="round"/>
<path d="M187.8 6.08997L187.8 4.58997" stroke="black" stroke-width="0.25" stroke-linecap="round" stroke-linejoin="round"/>
<path d="M187.8 4.58997L4.83992 4.58995" stroke="black" stroke-width="0.25" stroke-linecap="round" stroke-linejoin="round"/>
<path d="M189.87 2.13L186.37 2.13" stroke="black" stroke-width="0.25" stroke-linecap="round" stroke-linejoin="round"/>
<path d="M186.37 2.13001L186.37 2.76001" stroke="black" stroke-width="0.25" stroke-linecap="round" stroke-linejoin="round"/>
<path d="M186.37 2.76001L188.37 2.76001" stroke="black" stroke-width="0.25" stroke-linecap="round" stroke-linejoin="round"/>
<path d="M188.37 2.76001L188.37 4.26001" stroke="black" stroke-width="0.25" stroke-linecap="round" stroke-linejoin="round"/>
<path d="M188.37 4.26001L186.37 4.26001" stroke="black" stroke-width="0.25" stroke-linecap="round" stroke-linejoin="round"/>
<path d="M188.81 2.13L188.81 16.63" stroke="black" stroke-width="0.25" stroke-linecap="round" stroke-linejoin="round"/>
<path d="M188.81 16.63L190.81 16.63" stroke="black" stroke-width="0.25" stroke-linecap="round" stroke-linejoin="round"/>
<path d="M190.81 16.63L190.81 2.13" stroke="black" stroke-width="0.25" stroke-linecap="round" stroke-linejoin="round"/>
<path d="M190.81 2.13L188.81 2.13" stroke="black" stroke-width="0.25" stroke-linecap="round" stroke-linejoin="round"/>
<path d="M192.65 12.09L192.65 12.84" stroke="black" stroke-width="0.25" stroke-linecap="round" stroke-linejoin="round"/>
<path d="M192.65 12.84L187.93 12.84" stroke="black" stroke-width="0.25" stroke-linecap="round" stroke-linejoin="round"/>
<path d="M187.93 12.84L187.93 11.34" stroke="black" stroke-width="0.25" stroke-linecap="round" stroke-linejoin="round"/>
<path d="M187.93 11.34L192.65 11.34" stroke="black" stroke-width="0.25" stroke-linecap="round" stroke-linejoin="round"/>
<path d="M192.65 11.34L192.65 12.84" stroke="black" stroke-width="0.25" stroke-linecap="round" stroke-linejoin="round"/>
<path d="M187.85 3.08998C187.806 3.08998 187.77 3.26011 187.77 3.46998C187.77 3.67984 187.806 3.84998 187.85 3.84998C187.894 3.84998 187.93 3.67984 187.93 3.46998C187.93 3.26011 187.894 3.08998 187.85 3.08998Z" stroke="black" stroke-width="0.25" stroke-linecap="round" stroke-linejoin="round"/>
<path d="M190.37 1.79993L188.37 1.79993" stroke="black" stroke-width="0.25" stroke-linecap="round" stroke-linejoin="round"/>
<path d="M188.37 1.79993L188.37 2.04993" stroke="black" stroke-width="0.25" stroke-linecap="round" stroke-linejoin="round"/>
<path d="M188.37 2.04993L190.37 2.04993" stroke="black" stroke-width="0.25" stroke-linecap="round" stroke-linejoin="round"/>
<path d="M190.37 2.04993L190.37 1.79993" stroke="black" stroke-width="0.25" stroke-linecap="round" stroke-linejoin="round"/>
<path d="M3.90991 1.79993L1.4599 1.79993" stroke="black" stroke-width="0.25" stroke-linecap="round" stroke-linejoin="round"/>
<path d="M1.45996 1.79993L1.45996 2.04993" stroke="black" stroke-width="0.25" stroke-linecap="round" stroke-linejoin="round"/>
<path d="M1.4599 2.04993L3.90991 2.04993" stroke="black" stroke-width="0.25" stroke-linecap="round" stroke-linejoin="round"/>
<path d="M3.90991 2.04993L3.90991 1.79993" stroke="black" stroke-width="0.25" stroke-linecap="round" stroke-linejoin="round"/>
</g>
<defs>
<clipPath id="clip0_1665_5527">
<rect width="192.7" height="21.14" fill="white" transform="translate(192.7 21.14) rotate(-180)"/>
</clipPath>
</defs>
</svg>
