<svg width="77" height="8" viewBox="0 0 77 8" fill="none" xmlns="http://www.w3.org/2000/svg">
<g clip-path="url(#clip0_1665_4771)">
<path d="M76.5499 5.04986L74.5499 5.04986L74.5499 6.54986L74.0499 6.54986L74.0499 7.60986L2.04993 7.60986L2.04993 5.04986L0.049927 5.04986L0.0499274 0.0498567L76.5499 0.0498633L76.5499 5.04986Z" fill="white"/>
<path d="M74.5499 6.5498L2.04993 6.5498" stroke="black" stroke-width="0.25" stroke-linecap="round" stroke-linejoin="round"/>
<path d="M2.04993 6.5498L2.04993 3.0498" stroke="black" stroke-width="0.25" stroke-linecap="round" stroke-linejoin="round"/>
<path d="M2.04993 3.0498L74.5499 3.0498" stroke="black" stroke-width="0.25" stroke-linecap="round" stroke-linejoin="round"/>
<path d="M74.5499 3.0498L74.5499 6.5498" stroke="black" stroke-width="0.25" stroke-linecap="round" stroke-linejoin="round"/>
<path d="M74.0499 7.60986L2.04993 7.60986" stroke="black" stroke-width="0.25" stroke-linecap="round" stroke-linejoin="round"/>
<path d="M2.04993 7.60986L2.04993 3.04986" stroke="black" stroke-width="0.25" stroke-linecap="round" stroke-linejoin="round"/>
<path d="M2.04993 3.0498L74.0499 3.0498" stroke="black" stroke-width="0.25" stroke-linecap="round" stroke-linejoin="round"/>
<path d="M74.0499 3.04986L74.0499 7.60986" stroke="black" stroke-width="0.25" stroke-linecap="round" stroke-linejoin="round"/>
<path d="M74.2999 3.0498C74.1619 3.0498 74.0499 3.16173 74.0499 3.2998C74.0499 3.43788 74.1619 3.5498 74.2999 3.5498C74.438 3.5498 74.5499 3.43788 74.5499 3.2998C74.5499 3.16173 74.438 3.0498 74.2999 3.0498Z" stroke="black" stroke-width="0.25" stroke-linecap="round" stroke-linejoin="round"/>
<path d="M2.29993 3.0498C2.16186 3.0498 2.04993 3.16173 2.04993 3.2998C2.04993 3.43788 2.16186 3.5498 2.29993 3.5498C2.438 3.5498 2.54993 3.43788 2.54993 3.2998C2.54993 3.16173 2.438 3.0498 2.29993 3.0498Z" stroke="black" stroke-width="0.25" stroke-linecap="round" stroke-linejoin="round"/>
<path d="M74.0499 4.2998L2.54993 4.2998" stroke="black" stroke-width="0.25" stroke-linecap="round" stroke-linejoin="round"/>
<path d="M2.54993 4.2998L2.54993 3.0498" stroke="black" stroke-width="0.25" stroke-linecap="round" stroke-linejoin="round"/>
<path d="M2.54993 3.0498L74.0499 3.0498" stroke="black" stroke-width="0.25" stroke-linecap="round" stroke-linejoin="round"/>
<path d="M74.0499 3.0498L74.0499 4.2998" stroke="black" stroke-width="0.25" stroke-linecap="round" stroke-linejoin="round"/>
<path d="M72.4899 6.7998L38.5799 6.7998" stroke="black" stroke-width="0.25" stroke-linecap="round" stroke-linejoin="round"/>
<path d="M38.58 6.7998L38.58 5.5498" stroke="black" stroke-width="0.25" stroke-linecap="round" stroke-linejoin="round"/>
<path d="M38.5799 5.5498L72.4899 5.5498" stroke="black" stroke-width="0.25" stroke-linecap="round" stroke-linejoin="round"/>
<path d="M72.4899 5.5498L72.4899 6.7998" stroke="black" stroke-width="0.25" stroke-linecap="round" stroke-linejoin="round"/>
<path d="M42.1699 5.5498L4.10992 5.5498" stroke="black" stroke-width="0.25" stroke-linecap="round" stroke-linejoin="round"/>
<path d="M4.10999 5.5498L4.10999 4.2998" stroke="black" stroke-width="0.25" stroke-linecap="round" stroke-linejoin="round"/>
<path d="M4.10992 4.2998L42.1699 4.2998" stroke="black" stroke-width="0.25" stroke-linecap="round" stroke-linejoin="round"/>
<path d="M42.1699 4.2998L42.1699 5.5498" stroke="black" stroke-width="0.25" stroke-linecap="round" stroke-linejoin="round"/>
<path d="M76.5499 5.0498L74.5499 5.0498" stroke="black" stroke-width="0.25" stroke-linecap="round" stroke-linejoin="round"/>
<path d="M74.5499 5.0498L74.5499 3.0498" stroke="black" stroke-width="0.25" stroke-linecap="round" stroke-linejoin="round"/>
<path d="M74.5499 3.0498L76.5499 3.0498" stroke="black" stroke-width="0.25" stroke-linecap="round" stroke-linejoin="round"/>
<path d="M76.5499 3.0498L76.5499 5.0498" stroke="black" stroke-width="0.25" stroke-linecap="round" stroke-linejoin="round"/>
<path d="M2.04993 5.0498L0.0499268 5.0498" stroke="black" stroke-width="0.25" stroke-linecap="round" stroke-linejoin="round"/>
<path d="M0.0499268 5.0498L0.0499269 3.0498" stroke="black" stroke-width="0.25" stroke-linecap="round" stroke-linejoin="round"/>
<path d="M0.0499268 3.0498L2.04993 3.0498" stroke="black" stroke-width="0.25" stroke-linecap="round" stroke-linejoin="round"/>
<path d="M2.04993 3.0498L2.04993 5.0498" stroke="black" stroke-width="0.25" stroke-linecap="round" stroke-linejoin="round"/>
<path d="M76.5499 3.0498L0.0499268 3.0498" stroke="black" stroke-width="0.25" stroke-linecap="round" stroke-linejoin="round"/>
<path d="M0.0499268 3.0498L0.049927 0.0498047" stroke="black" stroke-width="0.25" stroke-linecap="round" stroke-linejoin="round"/>
<path d="M0.0499268 0.049798L76.5499 0.0498047" stroke="black" stroke-width="0.25" stroke-linecap="round" stroke-linejoin="round"/>
<path d="M76.5499 0.0498047L76.5499 3.0498" stroke="black" stroke-width="0.25" stroke-linecap="round" stroke-linejoin="round"/>
</g>
<defs>
<clipPath id="clip0_1665_4771">
<rect width="76.6" height="7.66" fill="white" transform="translate(76.6 7.65991) rotate(-180)"/>
</clipPath>
</defs>
</svg>
