<svg width="105" height="101" viewBox="0 0 105 101" fill="none" xmlns="http://www.w3.org/2000/svg">
<g clip-path="url(#clip0_1452_784)">
<path d="M0.119995 100.12V0.120117H104.12V100.12H0.119995Z" fill="white"/>
<path d="M4.13 99.8601V4.12012" stroke="#010101" stroke-width="0.25" stroke-miterlimit="10"/>
<path d="M100.12 100.12V4.12012" stroke="#010101" stroke-width="0.25" stroke-miterlimit="10"/>
<path d="M4.13 4.87012H100.13" stroke="#010101" stroke-width="0.25" stroke-miterlimit="10"/>
<path d="M4.13 5.86011H100.13" stroke="#010101" stroke-width="0.25" stroke-miterlimit="10"/>
<path d="M4.13 6.86011H100.13" stroke="#010101" stroke-width="0.25" stroke-miterlimit="10"/>
<path d="M4.13 7.86011H100.13" stroke="#010101" stroke-width="0.25" stroke-miterlimit="10"/>
<path d="M4.13 8.86011H100.13" stroke="#010101" stroke-width="0.25" stroke-miterlimit="10"/>
<path d="M4.13 9.87012H100.13" stroke="#010101" stroke-width="0.25" stroke-miterlimit="10"/>
<path d="M4.13 10.8601H100.13" stroke="#010101" stroke-width="0.25" stroke-miterlimit="10"/>
<path d="M4.13 11.8601H100.13" stroke="#010101" stroke-width="0.25" stroke-miterlimit="10"/>
<path d="M4.13 12.8601H100.14" stroke="#010101" stroke-width="0.25" stroke-miterlimit="10"/>
<path d="M4.13 13.8601H100.13" stroke="#010101" stroke-width="0.25" stroke-miterlimit="10"/>
<path d="M4.13 14.8601H100.13" stroke="#010101" stroke-width="0.25" stroke-miterlimit="10"/>
<path d="M4.13 15.8601H100.13" stroke="#010101" stroke-width="0.25" stroke-miterlimit="10"/>
<path d="M4.13 16.8601H100.13" stroke="#010101" stroke-width="0.25" stroke-miterlimit="10"/>
<path d="M4.13 17.8601H100.13" stroke="#010101" stroke-width="0.25" stroke-miterlimit="10"/>
<path d="M4.13 18.8601H100.13" stroke="#010101" stroke-width="0.25" stroke-miterlimit="10"/>
<path d="M4.13 19.8601H100.13" stroke="#010101" stroke-width="0.25" stroke-miterlimit="10"/>
<path d="M4.13 20.8601H100.13" stroke="#010101" stroke-width="0.25" stroke-miterlimit="10"/>
<path d="M4.13 21.8601H100.13" stroke="#010101" stroke-width="0.25" stroke-miterlimit="10"/>
<path d="M4.13 22.8601H100.14" stroke="#010101" stroke-width="0.25" stroke-miterlimit="10"/>
<path d="M4.13 23.8601H100.13" stroke="#010101" stroke-width="0.25" stroke-miterlimit="10"/>
<path d="M4.13 24.8701H100.13" stroke="#010101" stroke-width="0.25" stroke-miterlimit="10"/>
<path d="M4.13 25.8601H100.13" stroke="#010101" stroke-width="0.25" stroke-miterlimit="10"/>
<path d="M4.13 26.8601H100.13" stroke="#010101" stroke-width="0.25" stroke-miterlimit="10"/>
<path d="M4.13 27.8701H100.13" stroke="#010101" stroke-width="0.25" stroke-miterlimit="10"/>
<path d="M4.13 28.8601H100.13" stroke="#010101" stroke-width="0.25" stroke-miterlimit="10"/>
<path d="M4.13 29.8701H100.13" stroke="#010101" stroke-width="0.25" stroke-miterlimit="10"/>
<path d="M4.13 30.8601H100.13" stroke="#010101" stroke-width="0.25" stroke-miterlimit="10"/>
<path d="M4.13 31.8601H100.13" stroke="#010101" stroke-width="0.25" stroke-miterlimit="10"/>
<path d="M4.13 32.8701H100.14" stroke="#010101" stroke-width="0.25" stroke-miterlimit="10"/>
<path d="M4.13 33.8601H100.13" stroke="#010101" stroke-width="0.25" stroke-miterlimit="10"/>
<path d="M4.13 34.8601H100.13" stroke="#010101" stroke-width="0.25" stroke-miterlimit="10"/>
<path d="M4.13 35.8701H100.13" stroke="#010101" stroke-width="0.25" stroke-miterlimit="10"/>
<path d="M4.13 36.8601H100.13" stroke="#010101" stroke-width="0.25" stroke-miterlimit="10"/>
<path d="M4.13 37.8701H100.13" stroke="#010101" stroke-width="0.25" stroke-miterlimit="10"/>
<path d="M4.13 38.8601H100.13" stroke="#010101" stroke-width="0.25" stroke-miterlimit="10"/>
<path d="M4.13 39.8601H100.13" stroke="#010101" stroke-width="0.25" stroke-miterlimit="10"/>
<path d="M4.13 40.8701H100.13" stroke="#010101" stroke-width="0.25" stroke-miterlimit="10"/>
<path d="M4.13 41.8601H100.13" stroke="#010101" stroke-width="0.25" stroke-miterlimit="10"/>
<path d="M4.13 42.8601H100.14" stroke="#010101" stroke-width="0.25" stroke-miterlimit="10"/>
<path d="M4.13 43.8701H100.13" stroke="#010101" stroke-width="0.25" stroke-miterlimit="10"/>
<path d="M4.13 44.8601H100.13" stroke="#010101" stroke-width="0.25" stroke-miterlimit="10"/>
<path d="M4.13 45.8601H100.13" stroke="#010101" stroke-width="0.25" stroke-miterlimit="10"/>
<path d="M4.13 46.8701H100.13" stroke="#010101" stroke-width="0.25" stroke-miterlimit="10"/>
<path d="M4.13 47.8601H100.13" stroke="#010101" stroke-width="0.25" stroke-miterlimit="10"/>
<path d="M4.13 48.8601H100.13" stroke="#010101" stroke-width="0.25" stroke-miterlimit="10"/>
<path d="M4.13 49.8601H100.13" stroke="#010101" stroke-width="0.25" stroke-miterlimit="10"/>
<path d="M4.13 50.8601H100.13" stroke="#010101" stroke-width="0.25" stroke-miterlimit="10"/>
<path d="M4.13 51.8701H100.13" stroke="#010101" stroke-width="0.25" stroke-miterlimit="10"/>
<path d="M4.13 52.8701H100.14" stroke="#010101" stroke-width="0.25" stroke-miterlimit="10"/>
<path d="M4.13 53.8601H100.13" stroke="#010101" stroke-width="0.25" stroke-miterlimit="10"/>
<path d="M4.13 54.8701H100.13" stroke="#010101" stroke-width="0.25" stroke-miterlimit="10"/>
<path d="M4.13 55.8601H100.13" stroke="#010101" stroke-width="0.25" stroke-miterlimit="10"/>
<path d="M4.13 56.8601H100.13" stroke="#010101" stroke-width="0.25" stroke-miterlimit="10"/>
<path d="M4.13 57.8601H100.13" stroke="#010101" stroke-width="0.25" stroke-miterlimit="10"/>
<path d="M4.13 58.8601H100.13" stroke="#010101" stroke-width="0.25" stroke-miterlimit="10"/>
<path d="M4.13 59.8701H100.13" stroke="#010101" stroke-width="0.25" stroke-miterlimit="10"/>
<path d="M4.13 60.8601H100.13" stroke="#010101" stroke-width="0.25" stroke-miterlimit="10"/>
<path d="M4.13 61.8601H100.13" stroke="#010101" stroke-width="0.25" stroke-miterlimit="10"/>
<path d="M4.13 62.8701H100.14" stroke="#010101" stroke-width="0.25" stroke-miterlimit="10"/>
<path d="M4.13 63.8601H100.13" stroke="#010101" stroke-width="0.25" stroke-miterlimit="10"/>
<path d="M4.13 64.8601H100.13" stroke="#010101" stroke-width="0.25" stroke-miterlimit="10"/>
<path d="M4.13 65.8701H100.13" stroke="#010101" stroke-width="0.25" stroke-miterlimit="10"/>
<path d="M4.13 66.8601H100.13" stroke="#010101" stroke-width="0.25" stroke-miterlimit="10"/>
<path d="M4.13 67.8701H100.13" stroke="#010101" stroke-width="0.25" stroke-miterlimit="10"/>
<path d="M4.13 68.8701H100.13" stroke="#010101" stroke-width="0.25" stroke-miterlimit="10"/>
<path d="M4.13 69.8601H100.13" stroke="#010101" stroke-width="0.25" stroke-miterlimit="10"/>
<path d="M4.13 70.8701H100.13" stroke="#010101" stroke-width="0.25" stroke-miterlimit="10"/>
<path d="M4.13 71.8601H100.13" stroke="#010101" stroke-width="0.25" stroke-miterlimit="10"/>
<path d="M4.13 72.8601H100.14" stroke="#010101" stroke-width="0.25" stroke-miterlimit="10"/>
<path d="M4.13 73.8701H100.13" stroke="#010101" stroke-width="0.25" stroke-miterlimit="10"/>
<path d="M4.13 74.8601H100.13" stroke="#010101" stroke-width="0.25" stroke-miterlimit="10"/>
<path d="M4.13 75.8601H100.13" stroke="#010101" stroke-width="0.25" stroke-miterlimit="10"/>
<path d="M4.13 76.8701H100.13" stroke="#010101" stroke-width="0.25" stroke-miterlimit="10"/>
<path d="M4.13 77.8601H100.13" stroke="#010101" stroke-width="0.25" stroke-miterlimit="10"/>
<path d="M4.13 78.8601H100.13" stroke="#010101" stroke-width="0.25" stroke-miterlimit="10"/>
<path d="M4.13 79.8601H100.13" stroke="#010101" stroke-width="0.25" stroke-miterlimit="10"/>
<path d="M4.13 80.8601H100.13" stroke="#010101" stroke-width="0.25" stroke-miterlimit="10"/>
<path d="M4.13 81.8601H100.13" stroke="#010101" stroke-width="0.25" stroke-miterlimit="10"/>
<path d="M4.13 82.8601H100.14" stroke="#010101" stroke-width="0.25" stroke-miterlimit="10"/>
<path d="M4.13 83.8601H100.13" stroke="#010101" stroke-width="0.25" stroke-miterlimit="10"/>
<path d="M4.13 84.8601H100.13" stroke="#010101" stroke-width="0.25" stroke-miterlimit="10"/>
<path d="M4.13 85.8601H100.13" stroke="#010101" stroke-width="0.25" stroke-miterlimit="10"/>
<path d="M4.13 86.8601H100.13" stroke="#010101" stroke-width="0.25" stroke-miterlimit="10"/>
<path d="M4.13 87.8601H100.13" stroke="#010101" stroke-width="0.25" stroke-miterlimit="10"/>
<path d="M4.13 88.8601H100.13" stroke="#010101" stroke-width="0.25" stroke-miterlimit="10"/>
<path d="M4.13 89.8601H100.13" stroke="#010101" stroke-width="0.25" stroke-miterlimit="10"/>
<path d="M4.13 90.8701H100.13" stroke="#010101" stroke-width="0.25" stroke-miterlimit="10"/>
<path d="M4.13 91.8601H100.13" stroke="#010101" stroke-width="0.25" stroke-miterlimit="10"/>
<path d="M4.13 92.8601H100.14" stroke="#010101" stroke-width="0.25" stroke-miterlimit="10"/>
<path d="M4.13 93.8601H100.13" stroke="#010101" stroke-width="0.25" stroke-miterlimit="10"/>
<path d="M4.13 94.8601H100.13" stroke="#010101" stroke-width="0.25" stroke-miterlimit="10"/>
<path d="M4.13 95.8601H100.13" stroke="#010101" stroke-width="0.25" stroke-miterlimit="10"/>
<path d="M4.13 96.8601H100.13" stroke="#010101" stroke-width="0.25" stroke-miterlimit="10"/>
<path d="M4.13 97.8601H100.13" stroke="#010101" stroke-width="0.25" stroke-miterlimit="10"/>
<path d="M4.13 98.8701H100.13" stroke="#010101" stroke-width="0.25" stroke-miterlimit="10"/>
<path d="M4.13 100.12V99.8601" stroke="#010101" stroke-width="0.25" stroke-miterlimit="10"/>
<path d="M4.13 99.8601H100.13" stroke="#010101" stroke-width="0.25" stroke-miterlimit="10"/>
<path d="M4.13 100.12H100.13" stroke="#010101" stroke-width="0.25" stroke-miterlimit="10"/>
<path d="M4.13 100.12H100.13" stroke="#010101" stroke-width="0.25" stroke-miterlimit="10"/>
<path d="M4.13 100.12H0.119995" stroke="#010101" stroke-width="0.25" stroke-miterlimit="10"/>
<path d="M4.13 100.12H0.119995" stroke="#010101" stroke-width="0.25" stroke-miterlimit="10"/>
<path d="M0.119995 0.120117H4.12" stroke="#010101" stroke-width="0.25" stroke-miterlimit="10"/>
<path d="M0.119995 0.120117H4.12" stroke="#010101" stroke-width="0.25" stroke-miterlimit="10"/>
<path d="M0.119995 100.12V0.120117" stroke="#010101" stroke-width="0.25" stroke-miterlimit="10"/>
<path d="M0.119995 100.12V0.120117" stroke="#010101" stroke-width="0.25" stroke-miterlimit="10"/>
<path d="M104.12 100.12V0.120117" stroke="#010101" stroke-width="0.25" stroke-miterlimit="10"/>
<path d="M104.12 100.12V0.120117" stroke="#010101" stroke-width="0.25" stroke-miterlimit="10"/>
<path d="M104.12 100.12H100.12" stroke="#010101" stroke-width="0.25" stroke-miterlimit="10"/>
<path d="M104.12 100.12H100.12" stroke="#010101" stroke-width="0.25" stroke-miterlimit="10"/>
<path d="M100.12 0.120117H104.12" stroke="#010101" stroke-width="0.25" stroke-miterlimit="10"/>
<path d="M100.12 0.120117H104.12" stroke="#010101" stroke-width="0.25" stroke-miterlimit="10"/>
<path d="M4.13 0.120117H100.13" stroke="#010101" stroke-width="0.25" stroke-miterlimit="10"/>
<path d="M4.13 4.12012H100.13" stroke="#010101" stroke-width="0.25" stroke-miterlimit="10"/>
</g>
<defs>
<clipPath id="clip0_1452_784">
<rect width="104.25" height="100.25" fill="white"/>
</clipPath>
</defs>
</svg>
