<svg width="42" height="83" viewBox="0 0 42 83" fill="none" xmlns="http://www.w3.org/2000/svg">
<g clip-path="url(#clip0_1313_527)">
<path d="M41.13 0H0V82.69H41.13V0Z" fill="white"/>
<path d="M3.15001 13.0598C3.15001 13.0598 3.15001 13.0698 3.15001 13.0798C3.15001 13.0798 3.15001 13.0898 3.14001 13.0898" stroke="#010101" stroke-width="0.25" stroke-linecap="round" stroke-linejoin="round"/>
<path d="M2.31 70.0398C2.31 70.0398 2.31 70.0298 2.31 70.0198C2.31 70.0198 2.31 70.0098 2.32 70.0098" stroke="#010101" stroke-width="0.25" stroke-linecap="round" stroke-linejoin="round"/>
<path d="M35.33 34.47C35.49 34.47 35.64 34.55 35.71 34.7" stroke="#010101" stroke-width="0.25" stroke-linecap="round" stroke-linejoin="round"/>
<path d="M2.33001 9.85983C2.33001 9.85983 2.33001 9.85983 2.32001 9.84983C2.32001 9.84983 2.32001 9.83983 2.32001 9.82983" stroke="#010101" stroke-width="0.25" stroke-linecap="round" stroke-linejoin="round"/>
<path d="M35.33 35.2698C35.54 35.2698 35.72 35.1098 35.72 34.8998C35.72 34.6898 35.56 34.5098 35.35 34.5098C35.35 34.5098 35.34 34.5098 35.33 34.5098" stroke="#010101" stroke-width="0.25" stroke-linecap="round" stroke-linejoin="round"/>
<path d="M35.24 34.5298C35.04 34.5898 34.92 34.7998 34.98 34.9998C35.01 35.1198 35.1 35.2098 35.22 35.2598" stroke="#010101" stroke-width="0.25" stroke-linecap="round" stroke-linejoin="round"/>
<path d="M3.14999 40.2199C3.14999 40.2199 3.14999 40.1999 3.13999 40.1899C3.13999 40.1899 3.11999 40.1799 3.10999 40.1799" stroke="#010101" stroke-width="0.25" stroke-linecap="round" stroke-linejoin="round"/>
<path d="M2.31 44.5999C2.31 44.5999 2.31 44.6199 2.32 44.6299C2.32 44.6299 2.34 44.6399 2.35 44.6399" stroke="#010101" stroke-width="0.25" stroke-linecap="round" stroke-linejoin="round"/>
<path d="M2.33001 69.8999C2.33001 69.8999 2.33001 69.8999 2.32001 69.8899C2.32001 69.8899 2.32001 69.8799 2.32001 69.8699" stroke="#010101" stroke-width="0.25" stroke-linecap="round" stroke-linejoin="round"/>
<path d="M2.31 13.23C2.31 13.23 2.31 13.22 2.31 13.21C2.31 13.21 2.31 13.2 2.32 13.2" stroke="#010101" stroke-width="0.25" stroke-linecap="round" stroke-linejoin="round"/>
<path d="M35.55 34.53C35.59 34.37 35.49 34.21 35.34 34.17C35.31 34.17 35.28 34.16 35.24 34.17" stroke="#010101" stroke-width="0.25" stroke-linecap="round" stroke-linejoin="round"/>
<path d="M31.3 41.7698H31.69" stroke="#010101" stroke-width="0.25" stroke-linecap="round" stroke-linejoin="round"/>
<path d="M31.27 41.7898C31.27 41.7898 31.27 41.7798 31.27 41.7698C31.27 41.7698 31.28 41.7698 31.29 41.7698" stroke="#010101" stroke-width="0.25" stroke-linecap="round" stroke-linejoin="round"/>
<path d="M35.62 35.26C36.27 35.06 36.63 34.38 36.44 33.74C36.25 33.1 35.56 32.73 34.92 32.92C34.27 33.12 33.91 33.8 34.1 34.44C34.25 34.93 34.68 35.27 35.19 35.31" stroke="#010101" stroke-width="0.25" stroke-linecap="round" stroke-linejoin="round"/>
<path d="M31.69 42.3298C31.69 42.3298 31.69 42.3198 31.69 42.3098" stroke="#010101" stroke-width="0.25" stroke-linecap="round" stroke-linejoin="round"/>
<path d="M34.94 34.7698C34.56 34.5898 34.41 34.1398 34.59 33.7598C34.77 33.3798 35.22 33.2298 35.6 33.4098C35.98 33.5898 36.13 34.0398 35.95 34.4198C35.9 34.5298 35.82 34.6198 35.72 34.6998" stroke="#010101" stroke-width="0.25" stroke-linecap="round" stroke-linejoin="round"/>
<path d="M31.69 42.3298H31.3" stroke="#010101" stroke-width="0.25" stroke-linecap="round" stroke-linejoin="round"/>
<path d="M3.14999 44.5999C3.14999 44.5999 3.14999 44.6199 3.13999 44.6299C3.13999 44.6299 3.11999 44.6399 3.10999 44.6399" stroke="#010101" stroke-width="0.25" stroke-linecap="round" stroke-linejoin="round"/>
<path d="M2.31 73.0898V70.0398" stroke="#010101" stroke-width="0.25" stroke-linecap="round" stroke-linejoin="round"/>
<path d="M2.33001 43.9699C2.33001 43.9699 2.33001 43.9699 2.32001 43.9599C2.32001 43.9599 2.32001 43.9499 2.32001 43.9399" stroke="#010101" stroke-width="0.25" stroke-linecap="round" stroke-linejoin="round"/>
<path d="M2.31 13.0598V10.0098" stroke="#010101" stroke-width="0.25" stroke-linecap="round" stroke-linejoin="round"/>
<path d="M2.33001 13.0898C2.33001 13.0898 2.33001 13.0898 2.32001 13.0798C2.32001 13.0798 2.32001 13.0698 2.32001 13.0598" stroke="#010101" stroke-width="0.25" stroke-linecap="round" stroke-linejoin="round"/>
<path d="M35.27 42.4598C35.52 42.4598 35.72 42.2598 35.72 42.0098C35.72 41.7598 35.52 41.5598 35.27 41.5598" stroke="#010101" stroke-width="0.25" stroke-linecap="round" stroke-linejoin="round"/>
<path d="M35.43 35.3098C35.43 35.3098 35.51 35.2998 35.55 35.2898" stroke="#010101" stroke-width="0.25" stroke-linecap="round" stroke-linejoin="round"/>
<path d="M35.04 34.6499C35.09 34.7099 35.16 34.7399 35.24 34.7499" stroke="#010101" stroke-width="0.25" stroke-linecap="round" stroke-linejoin="round"/>
<path d="M35.24 34.1599C35.08 34.1699 34.96 34.3199 34.97 34.4799C34.97 34.5299 34.99 34.5799 35.02 34.6199" stroke="#010101" stroke-width="0.25" stroke-linecap="round" stroke-linejoin="round"/>
<path d="M31.27 42.3098C31.27 42.3098 31.27 42.3198 31.27 42.3298C31.27 42.3298 31.28 42.3298 31.29 42.3298" stroke="#010101" stroke-width="0.25" stroke-linecap="round" stroke-linejoin="round"/>
<path d="M35 34.5898C35 34.5898 35.01 34.6098 35.02 34.6198" stroke="#010101" stroke-width="0.25" stroke-linecap="round" stroke-linejoin="round"/>
<path d="M31.69 42.3298L35.27 42.4598" stroke="#010101" stroke-width="0.25" stroke-linecap="round" stroke-linejoin="round"/>
<path d="M31.69 41.7898V42.3098" stroke="#010101" stroke-width="0.25" stroke-linecap="round" stroke-linejoin="round"/>
<path d="M31.27 42.3098V41.7898" stroke="#010101" stroke-width="0.25" stroke-linecap="round" stroke-linejoin="round"/>
<path d="M35.24 34.8498C35.15 34.8498 35.06 34.8298 34.98 34.7898" stroke="#010101" stroke-width="0.25" stroke-linecap="round" stroke-linejoin="round"/>
<path d="M35.68 34.72C35.58 34.79 35.46 34.83 35.33 34.84" stroke="#010101" stroke-width="0.25" stroke-linecap="round" stroke-linejoin="round"/>
<path d="M34.94 42.4498C35.18 42.6298 35.53 42.5798 35.71 42.3298C35.89 42.0898 35.84 41.7398 35.59 41.5598C35.39 41.4198 35.13 41.4198 34.93 41.5598" stroke="#010101" stroke-width="0.25" stroke-linecap="round" stroke-linejoin="round"/>
<path d="M3.14999 13.72C3.14999 13.72 3.14999 13.74 3.13999 13.75C3.13999 13.75 3.11999 13.76 3.10999 13.76" stroke="#010101" stroke-width="0.25" stroke-linecap="round" stroke-linejoin="round"/>
<path d="M3.15002 44.1099V44.5999" stroke="#010101" stroke-width="0.25" stroke-linecap="round" stroke-linejoin="round"/>
<path d="M2.31 13.72C2.31 13.72 2.31 13.74 2.32 13.75C2.32 13.75 2.34 13.76 2.35 13.76" stroke="#010101" stroke-width="0.25" stroke-linecap="round" stroke-linejoin="round"/>
<path d="M35.76 34.8298C35.8 35.0598 35.64 35.2798 35.41 35.3098C35.39 35.3098 35.37 35.3098 35.34 35.3098" stroke="#010101" stroke-width="0.25" stroke-linecap="round" stroke-linejoin="round"/>
<path d="M2.34998 69.3398C2.34998 69.3398 2.52998 69.3398 2.72998 69.3398C2.92998 69.3398 3.11998 69.3398 3.10998 69.3398" stroke="#010101" stroke-width="0.25" stroke-linecap="round" stroke-linejoin="round"/>
<path d="M3.15001 43.9399C3.15001 43.9399 3.15001 43.9499 3.15001 43.9599C3.15001 43.9699 3.15001 43.9699 3.14001 43.9699" stroke="#010101" stroke-width="0.25" stroke-linecap="round" stroke-linejoin="round"/>
<path d="M35.35 35.3198C35.35 35.3198 35.32 35.3198 35.31 35.3198" stroke="#010101" stroke-width="0.25" stroke-linecap="round" stroke-linejoin="round"/>
<path d="M3.12999 69.8999C3.12999 69.8999 3.08999 69.9499 3.09999 69.9799C3.09999 69.9899 3.11999 70.0099 3.12999 70.0099" stroke="#010101" stroke-width="0.25" stroke-linecap="round" stroke-linejoin="round"/>
<path d="M3.14999 69.3798C3.14999 69.3798 3.14999 69.3598 3.13999 69.3498C3.13999 69.3498 3.11999 69.3398 3.10999 69.3398" stroke="#010101" stroke-width="0.25" stroke-linecap="round" stroke-linejoin="round"/>
<path d="M2.31 73.27C2.31 73.27 2.31 73.26 2.31 73.25C2.31 73.25 2.31 73.24 2.32 73.24" stroke="#010101" stroke-width="0.25" stroke-linecap="round" stroke-linejoin="round"/>
<path d="M2.31 69.3798C2.31 69.3798 2.31 69.3598 2.32 69.3498C2.32 69.3498 2.34 69.3398 2.35 69.3398" stroke="#010101" stroke-width="0.25" stroke-linecap="round" stroke-linejoin="round"/>
<path d="M2.34998 44.6399C2.34998 44.6399 2.38998 44.6399 2.45998 44.6399H2.98998C3.05998 44.6399 3.09998 44.6399 3.09998 44.6399" stroke="#010101" stroke-width="0.25" stroke-linecap="round" stroke-linejoin="round"/>
<path d="M35.19 35.29C34.97 35.21 34.86 34.97 34.94 34.75C34.99 34.62 35.1 34.52 35.23 34.49" stroke="#010101" stroke-width="0.25" stroke-linecap="round" stroke-linejoin="round"/>
<path d="M3.12999 9.85986C3.12999 9.85986 3.08999 9.90986 3.09999 9.93986C3.09999 9.94986 3.11999 9.96986 3.12999 9.96986" stroke="#010101" stroke-width="0.25" stroke-linecap="round" stroke-linejoin="round"/>
<path d="M3.10999 73.7998C3.10999 73.7998 2.92999 73.7998 2.72999 73.7998C2.52999 73.7998 2.33999 73.7998 2.34999 73.7998" stroke="#010101" stroke-width="0.25" stroke-linecap="round" stroke-linejoin="round"/>
<path d="M3.10999 9.2998C3.10999 9.2998 2.92999 9.2998 2.72999 9.2998C2.52999 9.2998 2.33999 9.2998 2.34999 9.2998" stroke="#010101" stroke-width="0.25" stroke-linecap="round" stroke-linejoin="round"/>
<path d="M2.34998 13.7598C2.34998 13.7598 2.38998 13.7598 2.45998 13.7598H2.98998C3.05998 13.7598 3.09998 13.7598 3.09998 13.7598" stroke="#010101" stroke-width="0.25" stroke-linecap="round" stroke-linejoin="round"/>
<path d="M2.33002 13.1998C2.33002 13.1998 2.37002 13.1498 2.36002 13.1198C2.36002 13.1098 2.34002 13.0898 2.33002 13.0898" stroke="#010101" stroke-width="0.25" stroke-linecap="round" stroke-linejoin="round"/>
<path d="M3.10999 40.1799C3.10999 40.1799 2.92999 40.1799 2.72999 40.1799C2.52999 40.1799 2.33999 40.1799 2.34999 40.1799" stroke="#010101" stroke-width="0.25" stroke-linecap="round" stroke-linejoin="round"/>
<path d="M2.31 40.2199C2.31 40.2199 2.31 40.1999 2.32 40.1899C2.32 40.1899 2.34 40.1799 2.35 40.1799" stroke="#010101" stroke-width="0.25" stroke-linecap="round" stroke-linejoin="round"/>
<path d="M2.31 73.7598V73.2698" stroke="#010101" stroke-width="0.25" stroke-linecap="round" stroke-linejoin="round"/>
<path d="M3.15002 73.2698V73.7598" stroke="#010101" stroke-width="0.25" stroke-linecap="round" stroke-linejoin="round"/>
<path d="M2.33002 73.2399C2.33002 73.2399 2.37002 73.1899 2.36002 73.1599C2.36002 73.1499 2.34002 73.1299 2.33002 73.1299" stroke="#010101" stroke-width="0.25" stroke-linecap="round" stroke-linejoin="round"/>
<path d="M3.15001 73.0898C3.15001 73.0898 3.15001 73.0998 3.15001 73.1098C3.15001 73.1098 3.15001 73.1199 3.14001 73.1199" stroke="#010101" stroke-width="0.25" stroke-linecap="round" stroke-linejoin="round"/>
<path d="M3.12999 73.1199C3.12999 73.1199 3.08999 73.1699 3.09999 73.1999C3.09999 73.2099 3.11999 73.2299 3.12999 73.2299" stroke="#010101" stroke-width="0.25" stroke-linecap="round" stroke-linejoin="round"/>
<path d="M3.13 44.0798C3.13 44.0798 3.13 44.0798 3.14 44.0898C3.14 44.0898 3.14 44.0998 3.14 44.1098" stroke="#010101" stroke-width="0.25" stroke-linecap="round" stroke-linejoin="round"/>
<path d="M3.13 73.24C3.13 73.24 3.13 73.24 3.14 73.25C3.14 73.25 3.14 73.26 3.14 73.27" stroke="#010101" stroke-width="0.25" stroke-linecap="round" stroke-linejoin="round"/>
<path d="M2.31 44.1098C2.31 44.1098 2.31 44.0998 2.31 44.0898C2.31 44.0898 2.31 44.0798 2.32 44.0798" stroke="#010101" stroke-width="0.25" stroke-linecap="round" stroke-linejoin="round"/>
<path d="M3.13 70.0098C3.13 70.0098 3.13 70.0098 3.14 70.0198C3.14 70.0198 3.14 70.0298 3.14 70.0398" stroke="#010101" stroke-width="0.25" stroke-linecap="round" stroke-linejoin="round"/>
<path d="M3.15001 40.71C3.15001 40.71 3.15001 40.72 3.15001 40.73C3.15001 40.74 3.15001 40.74 3.14001 40.74" stroke="#010101" stroke-width="0.25" stroke-linecap="round" stroke-linejoin="round"/>
<path d="M3.15001 69.8699C3.15001 69.8699 3.15001 69.8799 3.15001 69.8899C3.15001 69.8899 3.15001 69.8999 3.14001 69.8999" stroke="#010101" stroke-width="0.25" stroke-linecap="round" stroke-linejoin="round"/>
<path d="M2.31 73.7598C2.31 73.7598 2.31 73.7798 2.32 73.7898C2.32 73.7898 2.34 73.7998 2.35 73.7998" stroke="#010101" stroke-width="0.25" stroke-linecap="round" stroke-linejoin="round"/>
<path d="M3.13 40.8499C3.13 40.8499 3.13 40.8499 3.14 40.8599C3.14 40.8599 3.14 40.8699 3.14 40.8799" stroke="#010101" stroke-width="0.25" stroke-linecap="round" stroke-linejoin="round"/>
<path d="M2.31 40.8799C2.31 40.8799 2.31 40.8699 2.31 40.8599C2.31 40.8599 2.31 40.8499 2.32 40.8499" stroke="#010101" stroke-width="0.25" stroke-linecap="round" stroke-linejoin="round"/>
<path d="M2.33002 40.85C2.33002 40.85 2.37002 40.8 2.36002 40.77C2.36002 40.76 2.34002 40.74 2.33002 40.74" stroke="#010101" stroke-width="0.25" stroke-linecap="round" stroke-linejoin="round"/>
<path d="M3.14999 73.7598C3.14999 73.7598 3.14999 73.7798 3.13999 73.7898C3.13999 73.7898 3.11999 73.7998 3.10999 73.7998" stroke="#010101" stroke-width="0.25" stroke-linecap="round" stroke-linejoin="round"/>
<path d="M3.12999 40.74C3.12999 40.74 3.08999 40.79 3.09999 40.82C3.09999 40.83 3.11999 40.85 3.12999 40.85" stroke="#010101" stroke-width="0.25" stroke-linecap="round" stroke-linejoin="round"/>
<path d="M3.15002 40.22V40.71" stroke="#010101" stroke-width="0.25" stroke-linecap="round" stroke-linejoin="round"/>
<path d="M3.15002 13.23V13.72" stroke="#010101" stroke-width="0.25" stroke-linecap="round" stroke-linejoin="round"/>
<path d="M2.31 40.71V40.22" stroke="#010101" stroke-width="0.25" stroke-linecap="round" stroke-linejoin="round"/>
<path d="M3.15002 40.8799V43.9299" stroke="#010101" stroke-width="0.25" stroke-linecap="round" stroke-linejoin="round"/>
<path d="M2.33002 44.08C2.33002 44.08 2.37002 44.03 2.36002 44C2.36002 43.99 2.34002 43.97 2.33002 43.97" stroke="#010101" stroke-width="0.25" stroke-linecap="round" stroke-linejoin="round"/>
<path d="M3.12999 43.97C3.12999 43.97 3.08999 44.02 3.09999 44.05C3.09999 44.06 3.11999 44.08 3.12999 44.08" stroke="#010101" stroke-width="0.25" stroke-linecap="round" stroke-linejoin="round"/>
<path d="M2.31 44.5999V44.1099" stroke="#010101" stroke-width="0.25" stroke-linecap="round" stroke-linejoin="round"/>
<path d="M3.15002 10.0098V13.0598" stroke="#010101" stroke-width="0.25" stroke-linecap="round" stroke-linejoin="round"/>
<path d="M3.15002 9.33984V9.82984" stroke="#010101" stroke-width="0.25" stroke-linecap="round" stroke-linejoin="round"/>
<path d="M2.33001 40.74C2.33001 40.74 2.33001 40.74 2.32001 40.73C2.32001 40.73 2.32001 40.72 2.32001 40.71" stroke="#010101" stroke-width="0.25" stroke-linecap="round" stroke-linejoin="round"/>
<path d="M2.33002 9.96986C2.33002 9.96986 2.37002 9.91986 2.36002 9.88986C2.36002 9.87986 2.34002 9.85986 2.33002 9.85986" stroke="#010101" stroke-width="0.25" stroke-linecap="round" stroke-linejoin="round"/>
<path d="M3.13 9.96997C3.13 9.96997 3.13 9.96997 3.14 9.97997C3.14 9.97997 3.14 9.98997 3.14 9.99997" stroke="#010101" stroke-width="0.25" stroke-linecap="round" stroke-linejoin="round"/>
<path d="M3.15001 9.82983C3.15001 9.82983 3.15001 9.83983 3.15001 9.84983C3.15001 9.84983 3.15001 9.85983 3.14001 9.85983" stroke="#010101" stroke-width="0.25" stroke-linecap="round" stroke-linejoin="round"/>
<path d="M3.13 13.2C3.13 13.2 3.13 13.2 3.14 13.21C3.15 13.22 3.14 13.22 3.14 13.23" stroke="#010101" stroke-width="0.25" stroke-linecap="round" stroke-linejoin="round"/>
<path d="M2.31 9.3398C2.31 9.3398 2.31 9.3198 2.32 9.3098C2.32 9.3098 2.34 9.2998 2.35 9.2998" stroke="#010101" stroke-width="0.25" stroke-linecap="round" stroke-linejoin="round"/>
<path d="M3.14999 9.3398C3.14999 9.3398 3.14999 9.3198 3.13999 9.3098C3.13999 9.3098 3.11999 9.2998 3.10999 9.2998" stroke="#010101" stroke-width="0.25" stroke-linecap="round" stroke-linejoin="round"/>
<path d="M2.31 69.8699V69.3799" stroke="#010101" stroke-width="0.25" stroke-linecap="round" stroke-linejoin="round"/>
<path d="M38.46 82.2598H2.67999" stroke="#010101" stroke-width="0.25" stroke-linecap="round" stroke-linejoin="round"/>
<path d="M38.57 82.1499C38.57 82.2099 38.52 82.2599 38.46 82.2599" stroke="#010101" stroke-width="0.25" stroke-linecap="round" stroke-linejoin="round"/>
<path d="M2.68001 82.2599C2.62001 82.2599 2.57001 82.2099 2.57001 82.1499" stroke="#010101" stroke-width="0.25" stroke-linecap="round" stroke-linejoin="round"/>
<path d="M35 35.47H34.95" stroke="#010101" stroke-width="0.25" stroke-linecap="round" stroke-linejoin="round"/>
<path d="M35.87 35.6599H35.82" stroke="#010101" stroke-width="0.25" stroke-linecap="round" stroke-linejoin="round"/>
<path d="M35.87 35.47V35.66" stroke="#010101" stroke-width="0.25" stroke-linecap="round" stroke-linejoin="round"/>
<path d="M35.05 35.4099H35" stroke="#010101" stroke-width="0.25" stroke-linecap="round" stroke-linejoin="round"/>
<path d="M35.05 35.4699V35.4099" stroke="#010101" stroke-width="0.25" stroke-linecap="round" stroke-linejoin="round"/>
<path d="M35.81 35.4099V35.4699" stroke="#010101" stroke-width="0.25" stroke-linecap="round" stroke-linejoin="round"/>
<path d="M35.5 35.1699L35.52 35.2299" stroke="#010101" stroke-width="0.25" stroke-linecap="round" stroke-linejoin="round"/>
<path d="M35.57 35.3398H35.55" stroke="#010101" stroke-width="0.25" stroke-linecap="round" stroke-linejoin="round"/>
<path d="M35.53 35.3499H35.51" stroke="#010101" stroke-width="0.25" stroke-linecap="round" stroke-linejoin="round"/>
<path d="M35.5 35.3599H35.48" stroke="#010101" stroke-width="0.25" stroke-linecap="round" stroke-linejoin="round"/>
<path d="M35.46 35.3599H35.44" stroke="#010101" stroke-width="0.25" stroke-linecap="round" stroke-linejoin="round"/>
<path d="M35.43 35.3599H35.41" stroke="#010101" stroke-width="0.25" stroke-linecap="round" stroke-linejoin="round"/>
<path d="M35.41 35.3599H35.39" stroke="#010101" stroke-width="0.25" stroke-linecap="round" stroke-linejoin="round"/>
<path d="M35.39 35.3599H35.37" stroke="#010101" stroke-width="0.25" stroke-linecap="round" stroke-linejoin="round"/>
<path d="M35.28 35.0898H35.33" stroke="#010101" stroke-width="0.25" stroke-linecap="round" stroke-linejoin="round"/>
<path d="M35.06 35.3398H35.11" stroke="#010101" stroke-width="0.25" stroke-linecap="round" stroke-linejoin="round"/>
<path d="M35.11 35.3398V35.3998" stroke="#010101" stroke-width="0.25" stroke-linecap="round" stroke-linejoin="round"/>
<path d="M35.76 35.4099V35.3499" stroke="#010101" stroke-width="0.25" stroke-linecap="round" stroke-linejoin="round"/>
<path d="M35.01 35.4099V35.4699" stroke="#010101" stroke-width="0.25" stroke-linecap="round" stroke-linejoin="round"/>
<path d="M35.06 35.72V35.78" stroke="#010101" stroke-width="0.25" stroke-linecap="round" stroke-linejoin="round"/>
<path d="M34.95 35.47V35.66" stroke="#010101" stroke-width="0.25" stroke-linecap="round" stroke-linejoin="round"/>
<path d="M35.24 34.35V34.22" stroke="#010101" stroke-width="0.25" stroke-linecap="round" stroke-linejoin="round"/>
<path d="M35.33 34.23V34.36" stroke="#010101" stroke-width="0.25" stroke-linecap="round" stroke-linejoin="round"/>
<path d="M35.01 35.6599V35.7199" stroke="#010101" stroke-width="0.25" stroke-linecap="round" stroke-linejoin="round"/>
<path d="M35.33 34.5999V34.7299" stroke="#010101" stroke-width="0.25" stroke-linecap="round" stroke-linejoin="round"/>
<path d="M35.24 34.7299V34.5999" stroke="#010101" stroke-width="0.25" stroke-linecap="round" stroke-linejoin="round"/>
<path d="M35.24 33.98H35.33" stroke="#010101" stroke-width="0.25" stroke-linecap="round" stroke-linejoin="round"/>
<path d="M35.33 34.98H35.24" stroke="#010101" stroke-width="0.25" stroke-linecap="round" stroke-linejoin="round"/>
<path d="M35.33 34.04V33.98" stroke="#010101" stroke-width="0.25" stroke-linecap="round" stroke-linejoin="round"/>
<path d="M35.33 34.9799V34.9199" stroke="#010101" stroke-width="0.25" stroke-linecap="round" stroke-linejoin="round"/>
<path d="M35.24 34.0398H35.33" stroke="#010101" stroke-width="0.25" stroke-linecap="round" stroke-linejoin="round"/>
<path d="M35.33 34.9099H35.24" stroke="#010101" stroke-width="0.25" stroke-linecap="round" stroke-linejoin="round"/>
<path d="M35.33 34.0998V34.0398" stroke="#010101" stroke-width="0.25" stroke-linecap="round" stroke-linejoin="round"/>
<path d="M35.33 34.9099V34.8499" stroke="#010101" stroke-width="0.25" stroke-linecap="round" stroke-linejoin="round"/>
<path d="M35.24 34.23H35.33" stroke="#010101" stroke-width="0.25" stroke-linecap="round" stroke-linejoin="round"/>
<path d="M35.24 34.3499H35.33" stroke="#010101" stroke-width="0.25" stroke-linecap="round" stroke-linejoin="round"/>
<path d="M35.24 34.5999H35.33" stroke="#010101" stroke-width="0.25" stroke-linecap="round" stroke-linejoin="round"/>
<path d="M35.24 34.73H35.33" stroke="#010101" stroke-width="0.25" stroke-linecap="round" stroke-linejoin="round"/>
<path d="M35.33 34.0999H35.24" stroke="#010101" stroke-width="0.25" stroke-linecap="round" stroke-linejoin="round"/>
<path d="M35.24 34.0398V34.0998" stroke="#010101" stroke-width="0.25" stroke-linecap="round" stroke-linejoin="round"/>
<path d="M35.24 34.8499V34.9099" stroke="#010101" stroke-width="0.25" stroke-linecap="round" stroke-linejoin="round"/>
<path d="M35.24 33.98V34.04" stroke="#010101" stroke-width="0.25" stroke-linecap="round" stroke-linejoin="round"/>
<path d="M35.24 34.9099V34.9699" stroke="#010101" stroke-width="0.25" stroke-linecap="round" stroke-linejoin="round"/>
<path d="M35.5 36.0898H35.56" stroke="#010101" stroke-width="0.25" stroke-linecap="round" stroke-linejoin="round"/>
<path d="M35.27 41.5498L31.69 41.7698" stroke="#010101" stroke-width="0.25" stroke-linecap="round" stroke-linejoin="round"/>
<path d="M35.6 36.0898V37.0898" stroke="#010101" stroke-width="0.25" stroke-linecap="round" stroke-linejoin="round"/>
<path d="M35.72 34.7C35.72 34.7 35.75 34.78 35.76 34.83" stroke="#010101" stroke-width="0.25" stroke-linecap="round" stroke-linejoin="round"/>
<path d="M35.4 34.7198C35.46 34.6898 35.51 34.6298 35.54 34.5698" stroke="#010101" stroke-width="0.25" stroke-linecap="round" stroke-linejoin="round"/>
<path d="M35.25 36.0898H35.22" stroke="#010101" stroke-width="0.25" stroke-linecap="round" stroke-linejoin="round"/>
<path d="M35.42 37.0898V36.0898" stroke="#010101" stroke-width="0.25" stroke-linecap="round" stroke-linejoin="round"/>
<path d="M35.58 35.1899L35.54 35.0999" stroke="#010101" stroke-width="0.25" stroke-linecap="round" stroke-linejoin="round"/>
<path d="M3.15002 69.3799V69.8699" stroke="#010101" stroke-width="0.25" stroke-linecap="round" stroke-linejoin="round"/>
<path d="M35.65 35.34L35.6 35.22" stroke="#010101" stroke-width="0.25" stroke-linecap="round" stroke-linejoin="round"/>
<path d="M2.33002 70.0099C2.33002 70.0099 2.37002 69.9599 2.36002 69.9299C2.36002 69.9199 2.34002 69.8999 2.33002 69.8999" stroke="#010101" stroke-width="0.25" stroke-linecap="round" stroke-linejoin="round"/>
<path d="M35.33 34.74C35.33 34.74 35.38 34.73 35.4 34.72" stroke="#010101" stroke-width="0.25" stroke-linecap="round" stroke-linejoin="round"/>
<path d="M3.15002 70.0398V73.0898" stroke="#010101" stroke-width="0.25" stroke-linecap="round" stroke-linejoin="round"/>
<path d="M2.33001 73.1199C2.33001 73.1199 2.33001 73.1198 2.32001 73.1098C2.32001 73.1098 2.32001 73.0998 2.32001 73.0898" stroke="#010101" stroke-width="0.25" stroke-linecap="round" stroke-linejoin="round"/>
<path d="M2.31 43.9399V40.8899" stroke="#010101" stroke-width="0.25" stroke-linecap="round" stroke-linejoin="round"/>
<path d="M2.31 13.72V13.23" stroke="#010101" stroke-width="0.25" stroke-linecap="round" stroke-linejoin="round"/>
<path d="M31.69 41.7898C31.69 41.7898 31.69 41.7798 31.69 41.7698" stroke="#010101" stroke-width="0.25" stroke-linecap="round" stroke-linejoin="round"/>
<path d="M3.12999 13.0898C3.12999 13.0898 3.08999 13.1398 3.09999 13.1698C3.09999 13.1798 3.11999 13.1998 3.12999 13.1998" stroke="#010101" stroke-width="0.25" stroke-linecap="round" stroke-linejoin="round"/>
<path d="M2.31 9.82984V9.33984" stroke="#010101" stroke-width="0.25" stroke-linecap="round" stroke-linejoin="round"/>
<path d="M2.31 10.01C2.31 10.01 2.31 9.99998 2.31 9.98998C2.31 9.98998 2.31 9.97998 2.32 9.97998" stroke="#010101" stroke-width="0.25" stroke-linecap="round" stroke-linejoin="round"/>
<path d="M33.71 42.38C33.92 43.24 34.79 43.77 35.65 43.56C36.51 43.35 37.04 42.48 36.83 41.62C36.62 40.76 35.75 40.23 34.89 40.44C34.3 40.58 33.84 41.05 33.7 41.64" stroke="#010101" stroke-width="0.25" stroke-linecap="round" stroke-linejoin="round"/>
<path d="M35.22 35.9099H35.17" stroke="#010101" stroke-width="0.25" stroke-linecap="round" stroke-linejoin="round"/>
<path d="M35.11 35.7798H35.16" stroke="#010101" stroke-width="0.25" stroke-linecap="round" stroke-linejoin="round"/>
<path d="M35.05 35.72H35.1" stroke="#010101" stroke-width="0.25" stroke-linecap="round" stroke-linejoin="round"/>
<path d="M35 35.47H35.05" stroke="#010101" stroke-width="0.25" stroke-linecap="round" stroke-linejoin="round"/>
<path d="M35.05 35.6599H35" stroke="#010101" stroke-width="0.25" stroke-linecap="round" stroke-linejoin="round"/>
<path d="M35.05 35.4099H35.1" stroke="#010101" stroke-width="0.25" stroke-linecap="round" stroke-linejoin="round"/>
<path d="M35.17 35.3398L35.28 35.0898" stroke="#010101" stroke-width="0.25" stroke-linecap="round" stroke-linejoin="round"/>
<path d="M35.22 35.3398H35.11" stroke="#010101" stroke-width="0.25" stroke-linecap="round" stroke-linejoin="round"/>
<path d="M35.5 37.1598L35.42 37.0898" stroke="#010101" stroke-width="0.25" stroke-linecap="round" stroke-linejoin="round"/>
<path d="M35.42 37.0898H35.38" stroke="#010101" stroke-width="0.25" stroke-linecap="round" stroke-linejoin="round"/>
<path d="M35.56 37.0998V36.0898" stroke="#010101" stroke-width="0.25" stroke-linecap="round" stroke-linejoin="round"/>
<path d="M35.5 36.0898V37.1498" stroke="#010101" stroke-width="0.25" stroke-linecap="round" stroke-linejoin="round"/>
<path d="M35.54 35.2598L35.57 35.3398" stroke="#010101" stroke-width="0.25" stroke-linecap="round" stroke-linejoin="round"/>
<path d="M35.55 35.3499H35.53" stroke="#010101" stroke-width="0.25" stroke-linecap="round" stroke-linejoin="round"/>
<path d="M35.29 35.3399L35.36 35.1699" stroke="#010101" stroke-width="0.25" stroke-linecap="round" stroke-linejoin="round"/>
<path d="M35.33 35.0898L35.22 35.3398" stroke="#010101" stroke-width="0.25" stroke-linecap="round" stroke-linejoin="round"/>
<path d="M35.37 35.1699H35.5" stroke="#010101" stroke-width="0.25" stroke-linecap="round" stroke-linejoin="round"/>
<path d="M35.24 34.8499H35.33" stroke="#010101" stroke-width="0.25" stroke-linecap="round" stroke-linejoin="round"/>
<path d="M35.33 34.73V34.86" stroke="#010101" stroke-width="0.25" stroke-linecap="round" stroke-linejoin="round"/>
<path d="M35.33 34.0999V34.2299" stroke="#010101" stroke-width="0.25" stroke-linecap="round" stroke-linejoin="round"/>
<path d="M35.33 34.3499V34.5999" stroke="#010101" stroke-width="0.25" stroke-linecap="round" stroke-linejoin="round"/>
<path d="M35.24 34.85V34.72" stroke="#010101" stroke-width="0.25" stroke-linecap="round" stroke-linejoin="round"/>
<path d="M35.24 34.5999V34.3499" stroke="#010101" stroke-width="0.25" stroke-linecap="round" stroke-linejoin="round"/>
<path d="M35.24 34.2299V34.0999" stroke="#010101" stroke-width="0.25" stroke-linecap="round" stroke-linejoin="round"/>
<path d="M35.22 36.0898V36.9698" stroke="#010101" stroke-width="0.25" stroke-linecap="round" stroke-linejoin="round"/>
<path d="M35.11 35.72V35.78" stroke="#010101" stroke-width="0.25" stroke-linecap="round" stroke-linejoin="round"/>
<path d="M35.05 35.6599V35.7199" stroke="#010101" stroke-width="0.25" stroke-linecap="round" stroke-linejoin="round"/>
<path d="M35 35.66V35.48" stroke="#010101" stroke-width="0.25" stroke-linecap="round" stroke-linejoin="round"/>
<path d="M35.06 35.3998V35.3398" stroke="#010101" stroke-width="0.25" stroke-linecap="round" stroke-linejoin="round"/>
<path d="M35.58 37.0999H35.56" stroke="#010101" stroke-width="0.25" stroke-linecap="round" stroke-linejoin="round"/>
<path d="M35.7 35.7798H35.75" stroke="#010101" stroke-width="0.25" stroke-linecap="round" stroke-linejoin="round"/>
<path d="M35.76 35.72H35.81" stroke="#010101" stroke-width="0.25" stroke-linecap="round" stroke-linejoin="round"/>
<path d="M35.81 35.47H35.86" stroke="#010101" stroke-width="0.25" stroke-linecap="round" stroke-linejoin="round"/>
<path d="M35.76 35.4099H35.81" stroke="#010101" stroke-width="0.25" stroke-linecap="round" stroke-linejoin="round"/>
<path d="M35.48 35.3599H35.46" stroke="#010101" stroke-width="0.25" stroke-linecap="round" stroke-linejoin="round"/>
<path d="M35.36 35.3599H35.34" stroke="#010101" stroke-width="0.25" stroke-linecap="round" stroke-linejoin="round"/>
<path d="M35.34 35.3499H35.32" stroke="#010101" stroke-width="0.25" stroke-linecap="round" stroke-linejoin="round"/>
<path d="M35.32 35.3499H35.3" stroke="#010101" stroke-width="0.25" stroke-linecap="round" stroke-linejoin="round"/>
<path d="M35.76 35.3398H35.65" stroke="#010101" stroke-width="0.25" stroke-linecap="round" stroke-linejoin="round"/>
<path d="M35.54 35.0898H35.32" stroke="#010101" stroke-width="0.25" stroke-linecap="round" stroke-linejoin="round"/>
<path d="M35.4 37.0798V37.1098" stroke="#010101" stroke-width="0.25" stroke-linecap="round" stroke-linejoin="round"/>
<path d="M35.38 37.08L35.24 36.97" stroke="#010101" stroke-width="0.25" stroke-linecap="round" stroke-linejoin="round"/>
<path d="M35.4 37.11L35.22 36.97" stroke="#010101" stroke-width="0.25" stroke-linecap="round" stroke-linejoin="round"/>
<path d="M35.22 36.97H35.24" stroke="#010101" stroke-width="0.25" stroke-linecap="round" stroke-linejoin="round"/>
<path d="M35.45 37.1299L35.47 37.1499" stroke="#010101" stroke-width="0.25" stroke-linecap="round" stroke-linejoin="round"/>
<path d="M35.4 37.1099H35.44" stroke="#010101" stroke-width="0.25" stroke-linecap="round" stroke-linejoin="round"/>
<path d="M35.44 37.1199V37.0999" stroke="#010101" stroke-width="0.25" stroke-linecap="round" stroke-linejoin="round"/>
<path d="M35.38 36.0898V37.0798" stroke="#010101" stroke-width="0.25" stroke-linecap="round" stroke-linejoin="round"/>
<path d="M35.25 36.9698V36.0898" stroke="#010101" stroke-width="0.25" stroke-linecap="round" stroke-linejoin="round"/>
<path d="M35.51 37.1198L35.55 37.0898" stroke="#010101" stroke-width="0.25" stroke-linecap="round" stroke-linejoin="round"/>
<path d="M35.47 37.1599H35.48" stroke="#010101" stroke-width="0.25" stroke-linecap="round" stroke-linejoin="round"/>
<path d="M35.5 37.1599H35.47" stroke="#010101" stroke-width="0.25" stroke-linecap="round" stroke-linejoin="round"/>
<path d="M35.56 37.0999L35.5 37.1499" stroke="#010101" stroke-width="0.25" stroke-linecap="round" stroke-linejoin="round"/>
<path d="M35.17 36.0899V35.8999" stroke="#010101" stroke-width="0.25" stroke-linecap="round" stroke-linejoin="round"/>
<path d="M35.17 36.0898H35.22" stroke="#010101" stroke-width="0.25" stroke-linecap="round" stroke-linejoin="round"/>
<path d="M35.12 35.9098V35.7798" stroke="#010101" stroke-width="0.25" stroke-linecap="round" stroke-linejoin="round"/>
<path d="M35.16 35.9099H35.11" stroke="#010101" stroke-width="0.25" stroke-linecap="round" stroke-linejoin="round"/>
<path d="M35.65 36.0898H35.6" stroke="#010101" stroke-width="0.25" stroke-linecap="round" stroke-linejoin="round"/>
<path d="M35.65 35.9099V36.0999" stroke="#010101" stroke-width="0.25" stroke-linecap="round" stroke-linejoin="round"/>
<path d="M35.7 35.9099H35.65" stroke="#010101" stroke-width="0.25" stroke-linecap="round" stroke-linejoin="round"/>
<path d="M35.7 35.7798V35.9098" stroke="#010101" stroke-width="0.25" stroke-linecap="round" stroke-linejoin="round"/>
<path d="M35.16 35.9098V35.7798" stroke="#010101" stroke-width="0.25" stroke-linecap="round" stroke-linejoin="round"/>
<path d="M35.22 36.0899V35.8999" stroke="#010101" stroke-width="0.25" stroke-linecap="round" stroke-linejoin="round"/>
<path d="M35.11 35.7798H35.06" stroke="#010101" stroke-width="0.25" stroke-linecap="round" stroke-linejoin="round"/>
<path d="M35.76 35.78V35.72" stroke="#010101" stroke-width="0.25" stroke-linecap="round" stroke-linejoin="round"/>
<path d="M35.05 35.72H35" stroke="#010101" stroke-width="0.25" stroke-linecap="round" stroke-linejoin="round"/>
<path d="M35.81 35.7199V35.6599" stroke="#010101" stroke-width="0.25" stroke-linecap="round" stroke-linejoin="round"/>
<path d="M34.95 35.6599H35" stroke="#010101" stroke-width="0.25" stroke-linecap="round" stroke-linejoin="round"/>
<path d="M2.57 82.5798C2.57 82.5798 2.52001 82.5798 2.47001 82.5798H0.230005C0.180005 82.5798 0.130005 82.5798 0.130005 82.5798" stroke="#010101" stroke-width="0.25" stroke-linecap="round" stroke-linejoin="round"/>
<path d="M3.34003 82.2598V82.5798" stroke="#010101" stroke-width="0.25" stroke-linecap="round" stroke-linejoin="round"/>
<path d="M37.8 82.2598V82.5798" stroke="#010101" stroke-width="0.25" stroke-linecap="round" stroke-linejoin="round"/>
<path d="M3.34001 82.5798C3.34001 82.5798 3.29001 82.5798 3.24001 82.5798H2.67001C2.62001 82.5798 2.57001 82.5798 2.57001 82.5798" stroke="#010101" stroke-width="0.25" stroke-linecap="round" stroke-linejoin="round"/>
<path d="M0.130005 82.5798V2.56982" stroke="#010101" stroke-width="0.25" stroke-linecap="round" stroke-linejoin="round"/>
<path d="M2.57001 0.129883H38.57" stroke="#010101" stroke-width="0.25" stroke-linecap="round" stroke-linejoin="round"/>
<path d="M0.130005 0.129883H2.58" stroke="#010101" stroke-width="0.25" stroke-linecap="round" stroke-linejoin="round"/>
<path d="M41.01 82.5798C41.01 82.5798 40.96 82.5798 40.91 82.5798H38.66C38.61 82.5798 38.56 82.5798 38.56 82.5798" stroke="#010101" stroke-width="0.25" stroke-linecap="round" stroke-linejoin="round"/>
<path d="M38.57 82.5798C38.57 82.5798 38.52 82.5798 38.47 82.5798H37.9C37.85 82.5798 37.8 82.5798 37.8 82.5798" stroke="#010101" stroke-width="0.25" stroke-linecap="round" stroke-linejoin="round"/>
<path d="M41.01 2.56982V82.5698" stroke="#010101" stroke-width="0.25" stroke-linecap="round" stroke-linejoin="round"/>
<path d="M41.01 0.129883V2.57988" stroke="#010101" stroke-width="0.25" stroke-linecap="round" stroke-linejoin="round"/>
<path d="M0.130005 2.56988V0.129883" stroke="#010101" stroke-width="0.25" stroke-linecap="round" stroke-linejoin="round"/>
<path d="M38.57 0.129883H41.02" stroke="#010101" stroke-width="0.25" stroke-linecap="round" stroke-linejoin="round"/>
<path d="M2.57001 2.56982V9.29982" stroke="#010101" stroke-width="0.25" stroke-linecap="round" stroke-linejoin="round"/>
<path d="M2.57001 13.7698V40.1798" stroke="#010101" stroke-width="0.25" stroke-linecap="round" stroke-linejoin="round"/>
<path d="M2.57001 44.6399V69.3299" stroke="#010101" stroke-width="0.25" stroke-linecap="round" stroke-linejoin="round"/>
<path d="M2.57001 73.7998V82.5798" stroke="#010101" stroke-width="0.25" stroke-linecap="round" stroke-linejoin="round"/>
<path d="M38.57 2.56982H2.57001" stroke="#010101" stroke-width="0.25" stroke-linecap="round" stroke-linejoin="round"/>
<path d="M38.57 82.5798V2.56982" stroke="#010101" stroke-width="0.25" stroke-linecap="round" stroke-linejoin="round"/>
<path d="M38.67 40.3999H38.69" stroke="#010101" stroke-width="0.25" stroke-linecap="round" stroke-linejoin="round"/>
<path d="M38.67 40.3999H38.63" stroke="#010101" stroke-width="0.25" stroke-linecap="round" stroke-linejoin="round"/>
<path d="M38.67 43.5198H38.63" stroke="#010101" stroke-width="0.25" stroke-linecap="round" stroke-linejoin="round"/>
<path d="M38.69 43.5198H38.67" stroke="#010101" stroke-width="0.25" stroke-linecap="round" stroke-linejoin="round"/>
<path d="M38.69 40.3999V43.5199" stroke="#010101" stroke-width="0.25" stroke-linecap="round" stroke-linejoin="round"/>
<path d="M38.61 40.3999H38.63" stroke="#010101" stroke-width="0.25" stroke-linecap="round" stroke-linejoin="round"/>
<path d="M38.61 43.5198H38.63" stroke="#010101" stroke-width="0.25" stroke-linecap="round" stroke-linejoin="round"/>
<path d="M38.61 40.3999V43.5199" stroke="#010101" stroke-width="0.25" stroke-linecap="round" stroke-linejoin="round"/>
<path d="M35.38 36.0898H35.42" stroke="#010101" stroke-width="0.25" stroke-linecap="round" stroke-linejoin="round"/>
</g>
<defs>
<clipPath id="clip0_1313_527">
<rect width="41.14" height="82.7" fill="white"/>
</clipPath>
</defs>
</svg>
