<svg width="42" height="83" viewBox="0 0 42 83" fill="none" xmlns="http://www.w3.org/2000/svg">
<g clip-path="url(#clip0_1314_1111)">
<path d="M41.13 0H0V82.68H41.13V0Z" fill="white"/>
<path d="M24.87 23.7301L24.47 23.3301" stroke="#010101" stroke-width="0.25" stroke-miterlimit="10"/>
<path d="M15.57 24.4302V14.4302" stroke="#010101" stroke-width="0.25" stroke-miterlimit="10"/>
<path d="M16.67 15.53V23.33" stroke="#010101" stroke-width="0.25" stroke-miterlimit="10"/>
<path d="M16.27 15.1301V23.7301" stroke="#010101" stroke-width="0.25" stroke-miterlimit="10"/>
<path d="M16.27 23.7302H24.87" stroke="#010101" stroke-width="0.25" stroke-miterlimit="10"/>
<path d="M25.57 24.4302H15.57" stroke="#010101" stroke-width="0.25" stroke-miterlimit="10"/>
<path d="M24.87 15.1301L24.47 15.5301" stroke="#010101" stroke-width="0.25" stroke-miterlimit="10"/>
<path d="M24.87 15.1301H16.27" stroke="#010101" stroke-width="0.25" stroke-miterlimit="10"/>
<path d="M25.57 14.4302V24.4302" stroke="#010101" stroke-width="0.25" stroke-miterlimit="10"/>
<path d="M15.57 14.4302H25.57" stroke="#010101" stroke-width="0.25" stroke-miterlimit="10"/>
<path d="M16.27 23.7301L16.67 23.3301" stroke="#010101" stroke-width="0.25" stroke-miterlimit="10"/>
<path d="M16.27 15.1301L16.67 15.5301" stroke="#010101" stroke-width="0.25" stroke-miterlimit="10"/>
<path d="M24.47 23.3301H16.67" stroke="#010101" stroke-width="0.25" stroke-miterlimit="10"/>
<path d="M24.47 23.33V15.53" stroke="#010101" stroke-width="0.25" stroke-miterlimit="10"/>
<path d="M16.67 15.53H24.47" stroke="#010101" stroke-width="0.25" stroke-miterlimit="10"/>
<path d="M24.87 23.7301V15.1301" stroke="#010101" stroke-width="0.25" stroke-miterlimit="10"/>
<path d="M9.84001 41.77H9.45001" stroke="#010101" stroke-width="0.25" stroke-miterlimit="10"/>
<path d="M5.86 42.3501C6.05882 42.3501 6.22 42.189 6.22 41.9901C6.22 41.7913 6.05882 41.6301 5.86 41.6301C5.66118 41.6301 5.5 41.7913 5.5 41.9901C5.5 42.189 5.66118 42.3501 5.86 42.3501Z" stroke="#010101" stroke-width="0.25" stroke-miterlimit="10"/>
<path d="M9.86999 42.3101V42.3201H9.85999" stroke="#010101" stroke-width="0.25" stroke-miterlimit="10"/>
<path d="M9.45001 41.79C9.45001 41.79 9.45001 41.78 9.45001 41.77" stroke="#010101" stroke-width="0.25" stroke-miterlimit="10"/>
<path d="M9.45001 41.79V42.31" stroke="#010101" stroke-width="0.25" stroke-miterlimit="10"/>
<path d="M9.45001 42.3301C9.45001 42.3301 9.45001 42.3201 9.45001 42.3101" stroke="#010101" stroke-width="0.25" stroke-miterlimit="10"/>
<path d="M5.85998 42.3701C6.06985 42.3701 6.23998 42.2 6.23998 41.9901C6.23998 41.7802 6.06985 41.6101 5.85998 41.6101C5.65011 41.6101 5.47998 41.7802 5.47998 41.9901C5.47998 42.2 5.65011 42.3701 5.85998 42.3701Z" stroke="#010101" stroke-width="0.25" stroke-miterlimit="10"/>
<path d="M9.87 41.79V42.31" stroke="#010101" stroke-width="0.25" stroke-miterlimit="10"/>
<path d="M5.96997 41.68C5.78997 41.62 5.59998 41.72 5.54998 41.9C5.48998 42.08 5.58997 42.27 5.76997 42.32C5.94997 42.38 6.13997 42.28 6.18997 42.1C6.22997 41.98 6.18997 41.85 6.09997 41.76" stroke="#010101" stroke-width="0.25" stroke-miterlimit="10"/>
<path d="M9.84998 41.77H9.85997C9.85997 41.77 9.85997 41.77 9.85997 41.78" stroke="#010101" stroke-width="0.25" stroke-miterlimit="10"/>
<path d="M9.45001 42.3301H9.84001" stroke="#010101" stroke-width="0.25" stroke-miterlimit="10"/>
<path d="M5.97003 41.6802C6.02003 41.7002 6.07003 41.7302 6.11003 41.7602" stroke="#010101" stroke-width="0.25" stroke-miterlimit="10"/>
<path d="M5.86998 42.4601C5.61998 42.4601 5.41998 42.2601 5.41998 42.0101C5.41998 41.7601 5.61998 41.5601 5.86998 41.5601" stroke="#010101" stroke-width="0.25" stroke-miterlimit="10"/>
<path d="M5.87 41.55L9.45 41.7701" stroke="#010101" stroke-width="0.25" stroke-miterlimit="10"/>
<path d="M9.45 42.3301L5.87 42.4601" stroke="#010101" stroke-width="0.25" stroke-miterlimit="10"/>
<path d="M7.42998 42.3802C7.21998 43.2402 6.34998 43.7702 5.48998 43.5602C4.62998 43.3502 4.09998 42.4802 4.30998 41.6202C4.51998 40.7602 5.38998 40.2302 6.24998 40.4402C6.83998 40.5802 7.29998 41.0502 7.43998 41.6402" stroke="#010101" stroke-width="0.25" stroke-miterlimit="10"/>
<path d="M6.20003 42.4501C5.96003 42.6301 5.61003 42.5801 5.43003 42.3301C5.25003 42.0901 5.30003 41.7401 5.55003 41.5601C5.75003 41.4201 6.02003 41.4201 6.21003 41.5601" stroke="#010101" stroke-width="0.25" stroke-miterlimit="10"/>
<path d="M38.83 43.9402C38.83 43.9402 38.83 43.9502 38.83 43.9602C38.83 43.9602 38.83 43.9702 38.82 43.9702" stroke="#010101" stroke-width="0.25" stroke-miterlimit="10"/>
<path d="M38.83 44.6001C38.83 44.6001 38.83 44.6201 38.82 44.6301C38.81 44.6401 38.8 44.6401 38.79 44.6401" stroke="#010101" stroke-width="0.25" stroke-miterlimit="10"/>
<path d="M38.83 40.7102C38.83 40.7102 38.83 40.7202 38.83 40.7302C38.83 40.7302 38.83 40.7402 38.82 40.7402" stroke="#010101" stroke-width="0.25" stroke-miterlimit="10"/>
<path d="M38.01 44.0802C38.01 44.0802 38.05 44.0302 38.04 44.0002C38.04 43.9902 38.02 43.9702 38.01 43.9702" stroke="#010101" stroke-width="0.25" stroke-miterlimit="10"/>
<path d="M38.81 40.7402C38.81 40.7402 38.77 40.7902 38.78 40.8202C38.78 40.8302 38.8 40.8502 38.81 40.8502" stroke="#010101" stroke-width="0.25" stroke-miterlimit="10"/>
<path d="M38.83 40.8801V43.9301" stroke="#010101" stroke-width="0.25" stroke-miterlimit="10"/>
<path d="M38.83 13.2302V13.7202" stroke="#010101" stroke-width="0.25" stroke-miterlimit="10"/>
<path d="M38.81 13.0901C38.81 13.0901 38.77 13.1401 38.78 13.1701C38.78 13.1801 38.8 13.2001 38.81 13.2001" stroke="#010101" stroke-width="0.25" stroke-miterlimit="10"/>
<path d="M38.83 10.01V13.06" stroke="#010101" stroke-width="0.25" stroke-miterlimit="10"/>
<path d="M38.83 9.34009V9.83009" stroke="#010101" stroke-width="0.25" stroke-miterlimit="10"/>
<path d="M38.81 9.86011C38.81 9.86011 38.77 9.91011 38.78 9.94011C38.78 9.95011 38.8 9.97011 38.81 9.97011" stroke="#010101" stroke-width="0.25" stroke-miterlimit="10"/>
<path d="M38.81 9.97021C38.81 9.97021 38.81 9.97021 38.82 9.98021C38.82 9.98021 38.82 9.99021 38.82 10.0002" stroke="#010101" stroke-width="0.25" stroke-miterlimit="10"/>
<path d="M38.83 9.83008C38.83 9.83008 38.83 9.84008 38.83 9.85008C38.83 9.85008 38.83 9.86008 38.82 9.86008" stroke="#010101" stroke-width="0.25" stroke-miterlimit="10"/>
<path d="M38.01 9.86008C38.01 9.86008 38.01 9.86008 38 9.85008C38 9.85008 38 9.84008 38 9.83008" stroke="#010101" stroke-width="0.25" stroke-miterlimit="10"/>
<path d="M38.81 13.2002C38.81 13.2002 38.81 13.2002 38.82 13.2102C38.82 13.2102 38.82 13.2202 38.82 13.2302" stroke="#010101" stroke-width="0.25" stroke-miterlimit="10"/>
<path d="M38.83 13.0601C38.83 13.0601 38.83 13.0701 38.83 13.0801C38.83 13.0801 38.83 13.0901 38.82 13.0901" stroke="#010101" stroke-width="0.25" stroke-miterlimit="10"/>
<path d="M38.01 13.0901C38.01 13.0901 38.01 13.0901 38 13.0801C38 13.0801 38 13.0701 38 13.0601" stroke="#010101" stroke-width="0.25" stroke-miterlimit="10"/>
<path d="M38.83 13.7202C38.83 13.7202 38.83 13.7402 38.82 13.7502C38.82 13.7502 38.8 13.7602 38.79 13.7602" stroke="#010101" stroke-width="0.25" stroke-miterlimit="10"/>
<path d="M38.83 9.34005C38.83 9.34005 38.83 9.32005 38.82 9.31005C38.81 9.30005 38.8 9.30005 38.79 9.30005" stroke="#010101" stroke-width="0.25" stroke-miterlimit="10"/>
<path d="M37.99 9.34005C37.99 9.34005 37.99 9.32005 38 9.31005C38.01 9.30005 38.02 9.30005 38.03 9.30005" stroke="#010101" stroke-width="0.25" stroke-miterlimit="10"/>
<path d="M38.83 69.3701V69.8601" stroke="#010101" stroke-width="0.25" stroke-miterlimit="10"/>
<path d="M38.01 70.0101C38.01 70.0101 38.05 69.9601 38.04 69.9301C38.04 69.9201 38.02 69.9001 38.01 69.9001" stroke="#010101" stroke-width="0.25" stroke-miterlimit="10"/>
<path d="M38.81 69.9001C38.81 69.9001 38.77 69.9501 38.78 69.9801C38.78 69.9901 38.8 70.0101 38.81 70.0101" stroke="#010101" stroke-width="0.25" stroke-miterlimit="10"/>
<path d="M38.83 70.04V73.09" stroke="#010101" stroke-width="0.25" stroke-miterlimit="10"/>
<path d="M38.83 73.27V73.76" stroke="#010101" stroke-width="0.25" stroke-miterlimit="10"/>
<path d="M37.99 73.76V73.27" stroke="#010101" stroke-width="0.25" stroke-miterlimit="10"/>
<path d="M38.01 73.2301C38.01 73.2301 38.05 73.1801 38.04 73.1501C38.04 73.1401 38.02 73.1201 38.01 73.1201" stroke="#010101" stroke-width="0.25" stroke-miterlimit="10"/>
<path d="M38.83 73.0901C38.83 73.0901 38.83 73.1001 38.83 73.1101C38.83 73.1101 38.83 73.1201 38.82 73.1201" stroke="#010101" stroke-width="0.25" stroke-miterlimit="10"/>
<path d="M38.01 73.1201C38.01 73.1201 38.01 73.1201 38 73.1101C38 73.1101 38 73.1001 38 73.0901" stroke="#010101" stroke-width="0.25" stroke-miterlimit="10"/>
<path d="M38.81 73.2302C38.81 73.2302 38.81 73.2302 38.82 73.2402C38.82 73.2402 38.82 73.2502 38.82 73.2602" stroke="#010101" stroke-width="0.25" stroke-miterlimit="10"/>
<path d="M38.83 69.8601C38.83 69.8601 38.83 69.8701 38.83 69.8801C38.83 69.8801 38.83 69.8901 38.82 69.8901" stroke="#010101" stroke-width="0.25" stroke-miterlimit="10"/>
<path d="M38.01 69.9001C38.01 69.9001 38.01 69.9001 38 69.8901C38 69.8901 38 69.8801 38 69.8701" stroke="#010101" stroke-width="0.25" stroke-miterlimit="10"/>
<path d="M38.81 70.01C38.81 70.01 38.81 70.01 38.82 70.02C38.82 70.02 38.82 70.03 38.82 70.04" stroke="#010101" stroke-width="0.25" stroke-miterlimit="10"/>
<path d="M38.83 69.3701C38.83 69.3701 38.83 69.3501 38.82 69.3401C38.81 69.3301 38.8 69.3301 38.79 69.3301" stroke="#010101" stroke-width="0.25" stroke-miterlimit="10"/>
<path d="M37.99 69.3701C37.99 69.3701 37.99 69.3501 38 69.3401C38.01 69.3301 38.02 69.3301 38.03 69.3301" stroke="#010101" stroke-width="0.25" stroke-miterlimit="10"/>
<path d="M38.83 73.76C38.83 73.76 38.83 73.78 38.82 73.79C38.81 73.8 38.8 73.8 38.79 73.8" stroke="#010101" stroke-width="0.25" stroke-miterlimit="10"/>
<path d="M38.83 44.1101V44.6001" stroke="#010101" stroke-width="0.25" stroke-miterlimit="10"/>
<path d="M38.81 43.9702C38.81 43.9702 38.77 44.0202 38.78 44.0502C38.78 44.0602 38.8 44.0802 38.81 44.0802" stroke="#010101" stroke-width="0.25" stroke-miterlimit="10"/>
<path d="M37.99 43.9401V40.8901" stroke="#010101" stroke-width="0.25" stroke-miterlimit="10"/>
<path d="M38.83 40.2202V40.7102" stroke="#010101" stroke-width="0.25" stroke-miterlimit="10"/>
<path d="M37.99 40.7102V40.2202" stroke="#010101" stroke-width="0.25" stroke-miterlimit="10"/>
<path d="M38.01 40.8502C38.01 40.8502 38.05 40.8002 38.04 40.7702C38.04 40.7602 38.02 40.7402 38.01 40.7402" stroke="#010101" stroke-width="0.25" stroke-miterlimit="10"/>
<path d="M38.81 40.8501C38.81 40.8501 38.81 40.8501 38.82 40.8601C38.82 40.8601 38.82 40.8701 38.82 40.8801" stroke="#010101" stroke-width="0.25" stroke-miterlimit="10"/>
<path d="M37.99 40.8801C37.99 40.8801 37.99 40.8701 37.99 40.8601C37.99 40.8601 37.99 40.8501 38 40.8501" stroke="#010101" stroke-width="0.25" stroke-miterlimit="10"/>
<path d="M38.01 40.7402C38.01 40.7402 38.01 40.7402 38 40.7302C38 40.7302 38 40.7202 38 40.7102" stroke="#010101" stroke-width="0.25" stroke-miterlimit="10"/>
<path d="M38.81 44.0801C38.81 44.0801 38.81 44.0801 38.82 44.0901C38.82 44.0901 38.82 44.1001 38.82 44.1101" stroke="#010101" stroke-width="0.25" stroke-miterlimit="10"/>
<path d="M37.99 44.1101C37.99 44.1101 37.99 44.1001 37.99 44.0901C37.99 44.0901 37.99 44.0801 38 44.0801" stroke="#010101" stroke-width="0.25" stroke-miterlimit="10"/>
<path d="M38.01 43.9702C38.01 43.9702 38.01 43.9702 38 43.9602C38 43.9602 38 43.9502 38 43.9402" stroke="#010101" stroke-width="0.25" stroke-miterlimit="10"/>
<path d="M37.99 44.6001C37.99 44.6001 37.99 44.6201 38 44.6301C38.01 44.6401 38.02 44.6401 38.03 44.6401" stroke="#010101" stroke-width="0.25" stroke-miterlimit="10"/>
<path d="M38.83 40.2202C38.83 40.2202 38.83 40.2002 38.82 40.1902C38.81 40.1802 38.8 40.1802 38.79 40.1802" stroke="#010101" stroke-width="0.25" stroke-miterlimit="10"/>
<path d="M37.99 40.2202C37.99 40.2202 37.99 40.2002 38 40.1902C38.01 40.1802 38.02 40.1802 38.03 40.1802" stroke="#010101" stroke-width="0.25" stroke-miterlimit="10"/>
<path d="M38.03 40.1802C38.03 40.1802 38.21 40.1802 38.41 40.1802C38.61 40.1802 38.8 40.1802 38.79 40.1802" stroke="#010101" stroke-width="0.25" stroke-miterlimit="10"/>
<path d="M38.79 13.76C38.79 13.76 38.75 13.76 38.68 13.76H38.15C38.08 13.76 38.04 13.76 38.04 13.76" stroke="#010101" stroke-width="0.25" stroke-miterlimit="10"/>
<path d="M38.03 73.8C38.03 73.8 38.21 73.8 38.41 73.8C38.61 73.8 38.8 73.8 38.79 73.8" stroke="#010101" stroke-width="0.25" stroke-miterlimit="10"/>
<path d="M38.79 44.6401C38.79 44.6401 38.75 44.6401 38.68 44.6401H38.15C38.08 44.6401 38.04 44.6401 38.04 44.6401" stroke="#010101" stroke-width="0.25" stroke-miterlimit="10"/>
<path d="M38.03 9.30005C38.03 9.30005 38.21 9.30005 38.41 9.30005C38.61 9.30005 38.8 9.30005 38.79 9.30005" stroke="#010101" stroke-width="0.25" stroke-miterlimit="10"/>
<path d="M38.79 69.3301C38.79 69.3301 38.61 69.3301 38.41 69.3301C38.21 69.3301 38.02 69.3301 38.03 69.3301" stroke="#010101" stroke-width="0.25" stroke-miterlimit="10"/>
<path d="M37.99 44.6001V44.1101" stroke="#010101" stroke-width="0.25" stroke-miterlimit="10"/>
<path d="M37.99 70.04C37.99 70.04 37.99 70.03 37.99 70.02C37.99 70.02 37.99 70.01 38 70.01" stroke="#010101" stroke-width="0.25" stroke-miterlimit="10"/>
<path d="M37.99 73.2702C37.99 73.2702 37.99 73.2602 37.99 73.2502C37.99 73.2502 37.99 73.2402 38 73.2402" stroke="#010101" stroke-width="0.25" stroke-miterlimit="10"/>
<path d="M37.99 73.76C37.99 73.76 37.99 73.78 38 73.79C38.01 73.8 38.02 73.8 38.03 73.8" stroke="#010101" stroke-width="0.25" stroke-miterlimit="10"/>
<path d="M38.81 73.1201C38.81 73.1201 38.77 73.1701 38.78 73.2001C38.78 73.2101 38.8 73.2301 38.81 73.2301" stroke="#010101" stroke-width="0.25" stroke-miterlimit="10"/>
<path d="M37.99 69.8601V69.3701" stroke="#010101" stroke-width="0.25" stroke-miterlimit="10"/>
<path d="M37.99 73.09V70.04" stroke="#010101" stroke-width="0.25" stroke-miterlimit="10"/>
<path d="M37.99 13.2302C37.99 13.2302 37.99 13.2202 37.99 13.2102C37.99 13.2102 37.99 13.2002 38 13.2002" stroke="#010101" stroke-width="0.25" stroke-miterlimit="10"/>
<path d="M37.99 13.7202C37.99 13.7202 37.99 13.7402 38 13.7502C38 13.7502 38.02 13.7602 38.03 13.7602" stroke="#010101" stroke-width="0.25" stroke-miterlimit="10"/>
<path d="M38.01 9.97011C38.01 9.97011 38.05 9.92011 38.04 9.89011C38.04 9.88011 38.02 9.86011 38.01 9.86011" stroke="#010101" stroke-width="0.25" stroke-miterlimit="10"/>
<path d="M37.99 9.83009V9.34009" stroke="#010101" stroke-width="0.25" stroke-miterlimit="10"/>
<path d="M37.99 13.06V10.01" stroke="#010101" stroke-width="0.25" stroke-miterlimit="10"/>
<path d="M37.99 10.0102C37.99 10.0102 37.99 10.0002 37.99 9.99022C37.99 9.99022 37.99 9.98022 38 9.98022" stroke="#010101" stroke-width="0.25" stroke-miterlimit="10"/>
<path d="M37.99 13.7202V13.2302" stroke="#010101" stroke-width="0.25" stroke-miterlimit="10"/>
<path d="M38.01 13.2001C38.01 13.2001 38.05 13.1501 38.04 13.1201C38.04 13.1101 38.02 13.0901 38.01 13.0901" stroke="#010101" stroke-width="0.25" stroke-miterlimit="10"/>
<path d="M38.57 82.1401C38.57 82.2001 38.52 82.2501 38.46 82.2501" stroke="#010101" stroke-width="0.25" stroke-miterlimit="10"/>
<path d="M2.68001 82.2501C2.62001 82.2501 2.57001 82.2001 2.57001 82.1401" stroke="#010101" stroke-width="0.25" stroke-miterlimit="10"/>
<path d="M38.46 82.25H2.67999" stroke="#010101" stroke-width="0.25" stroke-miterlimit="10"/>
<path d="M38.57 0.120117H41.02" stroke="#010101" stroke-width="0.25" stroke-miterlimit="10"/>
<path d="M41.01 0.120117V0.460117" stroke="#010101" stroke-width="0.25" stroke-miterlimit="10"/>
<path d="M41.01 0.460205V2.5702" stroke="#010101" stroke-width="0.25" stroke-miterlimit="10"/>
<path d="M38.57 9.30007V2.57007" stroke="#010101" stroke-width="0.25" stroke-miterlimit="10"/>
<path d="M38.57 40.18V13.76" stroke="#010101" stroke-width="0.25" stroke-miterlimit="10"/>
<path d="M38.57 82.58V73.8" stroke="#010101" stroke-width="0.25" stroke-miterlimit="10"/>
<path d="M38.57 69.3301V44.6401" stroke="#010101" stroke-width="0.25" stroke-miterlimit="10"/>
<path d="M2.53003 40.4001V43.5201" stroke="#010101" stroke-width="0.25" stroke-miterlimit="10"/>
<path d="M2.51001 40.4001V43.5201" stroke="#010101" stroke-width="0.25" stroke-miterlimit="10"/>
<path d="M2.45001 40.4001V43.5201" stroke="#010101" stroke-width="0.25" stroke-miterlimit="10"/>
<path d="M2.45001 43.52H2.47001" stroke="#010101" stroke-width="0.25" stroke-miterlimit="10"/>
<path d="M2.47003 43.52H2.51003" stroke="#010101" stroke-width="0.25" stroke-miterlimit="10"/>
<path d="M2.47003 43.5201V40.4001" stroke="#010101" stroke-width="0.25" stroke-miterlimit="10"/>
<path d="M2.47003 40.4001H2.51003" stroke="#010101" stroke-width="0.25" stroke-miterlimit="10"/>
<path d="M2.47001 40.4001H2.45001" stroke="#010101" stroke-width="0.25" stroke-miterlimit="10"/>
<path d="M2.53001 43.52H2.51001" stroke="#010101" stroke-width="0.25" stroke-miterlimit="10"/>
<path d="M2.53001 40.4001H2.51001" stroke="#010101" stroke-width="0.25" stroke-miterlimit="10"/>
<path d="M0.130005 0.120117H2.58" stroke="#010101" stroke-width="0.25" stroke-miterlimit="10"/>
<path d="M37.8 82.58V82.26" stroke="#010101" stroke-width="0.25" stroke-miterlimit="10"/>
<path d="M41.01 2.57007V82.5701" stroke="#010101" stroke-width="0.25" stroke-miterlimit="10"/>
<path d="M38.57 82.5801C38.57 82.5801 38.52 82.5801 38.47 82.5801H37.9C37.85 82.5801 37.8 82.5801 37.8 82.5801" stroke="#010101" stroke-width="0.25" stroke-miterlimit="10"/>
<path d="M41.01 82.5801C41.01 82.5801 40.96 82.5801 40.91 82.5801H38.66C38.61 82.5801 38.56 82.5801 38.56 82.5801" stroke="#010101" stroke-width="0.25" stroke-miterlimit="10"/>
<path d="M2.57001 0.120117H38.57" stroke="#010101" stroke-width="0.25" stroke-miterlimit="10"/>
<path d="M0.130005 82.5801V2.57007" stroke="#010101" stroke-width="0.25" stroke-miterlimit="10"/>
<path d="M3.34003 82.25V82.57" stroke="#010101" stroke-width="0.25" stroke-miterlimit="10"/>
<path d="M38.57 2.57007H2.57001" stroke="#010101" stroke-width="0.25" stroke-miterlimit="10"/>
<path d="M2.57001 2.57007V82.5701" stroke="#010101" stroke-width="0.25" stroke-miterlimit="10"/>
<path d="M3.34001 82.5801C3.34001 82.5801 3.29001 82.5801 3.24001 82.5801H2.67001C2.62001 82.5801 2.57001 82.5801 2.57001 82.5801" stroke="#010101" stroke-width="0.25" stroke-miterlimit="10"/>
<path d="M2.57 82.5801C2.57 82.5801 2.52001 82.5801 2.47001 82.5801H0.230005C0.180005 82.5801 0.130005 82.5801 0.130005 82.5801" stroke="#010101" stroke-width="0.25" stroke-miterlimit="10"/>
<path d="M0.130005 2.57012V0.120117" stroke="#010101" stroke-width="0.25" stroke-miterlimit="10"/>
</g>
<defs>
<clipPath id="clip0_1314_1111">
<rect width="41.14" height="82.7" fill="white"/>
</clipPath>
</defs>
</svg>
