<svg width="239" height="102" viewBox="0 0 239 102" fill="none" xmlns="http://www.w3.org/2000/svg">
<g clip-path="url(#clip0_592_4688)">
<path opacity="0.5" d="M2.06314 8.66284H0.498047V11.8528H2.06314V8.66284Z" fill="white"/>
<path opacity="0.5" d="M2.01431 35.8575H0.449219V39.0475H2.01431V35.8575Z" fill="white"/>
<path opacity="0.5" d="M2.00454 63.0623H0.439453V66.2522H2.00454V63.0623Z" fill="white"/>
<path opacity="0.5" d="M1.97525 90.2668H0.410156V93.4568H1.97525V90.2668Z" fill="white"/>
<path opacity="0.5" d="M18.5715 4.39624H15.8301V95.5802H18.5715V4.39624Z" fill="#E5E5E5"/>
<path opacity="0.5" d="M29.4582 4.39624H26.7168V95.5802H29.4582V4.39624Z" fill="#E5E5E5"/>
<path opacity="0.5" d="M40.3527 4.39624H37.6113V95.5802H40.3527V4.39624Z" fill="#E5E5E5"/>
<path opacity="0.5" d="M51.2394 4.39624H48.498V95.5802H51.2394V4.39624Z" fill="#E5E5E5"/>
<path opacity="0.5" d="M62.134 4.39624H59.3926V95.5802H62.134V4.39624Z" fill="#E5E5E5"/>
<path opacity="0.5" d="M83.9152 4.39624H81.1738V95.5802H83.9152V4.39624Z" fill="#E5E5E5"/>
<path opacity="0.5" d="M94.8019 4.39624H92.0605V95.5802H94.8019V4.39624Z" fill="#E5E5E5"/>
<path opacity="0.5" d="M105.696 4.39624H102.955V95.5802H105.696V4.39624Z" fill="#E5E5E5"/>
<path opacity="0.5" d="M116.584 4.39624H113.803V95.5802H116.584V4.39624Z" fill="#E5E5E5"/>
<path opacity="0.5" d="M127.479 4.39624H124.697V95.5802H127.479V4.39624Z" fill="#E5E5E5"/>
<path opacity="0.5" d="M138.365 4.39624H135.584V95.5802H138.365V4.39624Z" fill="#E5E5E5"/>
<path opacity="0.5" d="M149.261 4.39624H146.52V95.5802H149.261V4.39624Z" fill="#E5E5E5"/>
<path opacity="0.5" d="M160.147 4.39624H157.365V95.5802H160.147V4.39624Z" fill="#E5E5E5"/>
<path opacity="0.5" d="M181.93 4.39624H179.148V95.5802H181.93V4.39624Z" fill="#E5E5E5"/>
<path opacity="0.5" d="M192.823 4.39624H190.082V95.5802H192.823V4.39624Z" fill="#E5E5E5"/>
<path opacity="0.5" d="M203.75 4.39624H200.969V95.5802H203.75V4.39624Z" fill="#E5E5E5"/>
<path opacity="0.5" d="M214.645 4.39624H211.863V95.5802H214.645V4.39624Z" fill="#E5E5E5"/>
<path opacity="0.5" d="M225.531 4.39624H222.75V95.5802H225.531V4.39624Z" fill="#E5E5E5"/>
<path opacity="0.5" d="M7.08594 96.577H230.595V95.5801H7.08594V97.3645" stroke="black" stroke-width="0.259187" stroke-linecap="round" stroke-linejoin="round"/>
<path opacity="0.5" d="M7.06633 97.2449H0.167969V101.87H7.06633V97.2449Z" stroke="black" stroke-width="0.259187" stroke-linecap="round" stroke-linejoin="round"/>
<path opacity="0.5" d="M2.55273 100.545V98.491C3.07111 98.0225 3.85864 98.0225 4.37701 98.491V100.545C3.85864 101.013 3.07111 101.013 2.55273 100.545Z" stroke="black" stroke-width="0.259187" stroke-linecap="round" stroke-linejoin="round"/>
<path opacity="0.5" d="M7.11894 0.129517H0.130859V4.76497H7.11894V0.129517Z" stroke="black" stroke-width="0.259187" stroke-linecap="round" stroke-linejoin="round"/>
<path opacity="0.5" d="M2.54297 3.55876V1.50521C3.07131 1.03668 3.85884 1.03668 4.38718 1.50521V3.55876C3.85884 4.02729 3.07131 4.02729 2.54297 3.55876Z" stroke="black" stroke-width="0.259187" stroke-linecap="round" stroke-linejoin="round"/>
<path opacity="0.5" d="M230.975 1.7845H11.5634L11.4239 1.77454L11.2743 1.7845H7.10742" stroke="black" stroke-width="0.259187" stroke-linecap="round" stroke-linejoin="round"/>
<path opacity="0.5" d="M230.975 4.39624H7.10742" stroke="black" stroke-width="0.259187" stroke-linecap="round" stroke-linejoin="round"/>
<path opacity="0.5" d="M219.951 1.77438H219.114C219.054 1.77438 219.004 1.74448 218.974 1.69463L218.525 0.84729" stroke="black" stroke-width="0.259187" stroke-linecap="round" stroke-linejoin="round"/>
<path opacity="0.5" d="M218.525 0.837568C218.495 0.787568 218.445 0.757568 218.385 0.757568" stroke="black" stroke-width="0.259187" stroke-linecap="round" stroke-linejoin="round"/>
<path opacity="0.5" d="M218.383 0.757568H215.004" stroke="black" stroke-width="0.259187" stroke-linecap="round" stroke-linejoin="round"/>
<path opacity="0.5" d="M215.005 0.757568C214.945 0.757568 214.885 0.787568 214.865 0.837568" stroke="black" stroke-width="0.259187" stroke-linecap="round" stroke-linejoin="round"/>
<path opacity="0.5" d="M214.866 0.837402L214.428 1.68474C214.398 1.73459 214.348 1.77446 214.288 1.76449H212.604" stroke="black" stroke-width="0.259187" stroke-linecap="round" stroke-linejoin="round"/>
<path opacity="0.5" d="M212.591 1.7747C212.531 1.7747 212.481 1.7447 212.451 1.6947" stroke="black" stroke-width="0.259187" stroke-linecap="round" stroke-linejoin="round"/>
<path opacity="0.5" d="M212.454 1.69467L212.015 0.847328C211.985 0.797484 211.935 0.767578 211.875 0.767578H208.496" stroke="black" stroke-width="0.259187" stroke-linecap="round" stroke-linejoin="round"/>
<path opacity="0.5" d="M208.497 0.757568C208.437 0.757568 208.377 0.787568 208.357 0.837568" stroke="black" stroke-width="0.259187" stroke-linecap="round" stroke-linejoin="round"/>
<path opacity="0.5" d="M208.347 0.83728L207.908 1.68462C207.878 1.73447 207.829 1.77434 207.769 1.76437H206.084" stroke="black" stroke-width="0.259187" stroke-linecap="round" stroke-linejoin="round"/>
<path opacity="0.5" d="M206.083 1.7747C206.023 1.7747 205.963 1.7447 205.943 1.6947" stroke="black" stroke-width="0.259187" stroke-linecap="round" stroke-linejoin="round"/>
<path opacity="0.5" d="M205.944 1.69479L205.506 0.84745C205.476 0.797606 205.426 0.7677 205.366 0.7677H201.987C201.927 0.7677 201.877 0.797606 201.847 0.84745L201.408 1.69479C201.379 1.74464 201.329 1.77454 201.269 1.77454H199.574" stroke="black" stroke-width="0.259187" stroke-linecap="round" stroke-linejoin="round"/>
<path opacity="0.5" d="M199.574 1.7747C199.514 1.7747 199.454 1.7447 199.434 1.6947" stroke="black" stroke-width="0.259187" stroke-linecap="round" stroke-linejoin="round"/>
<path opacity="0.5" d="M199.424 1.69467L198.985 0.847328C198.955 0.797484 198.906 0.767578 198.846 0.767578H195.466C195.407 0.767578 195.357 0.797484 195.327 0.847328L194.888 1.69467C194.858 1.74451 194.808 1.78439 194.749 1.77442H193.054C192.994 1.77442 192.944 1.74451 192.914 1.69467L192.476 0.847328C192.446 0.797484 192.396 0.767578 192.336 0.767578H188.957C188.897 0.767578 188.847 0.797484 188.817 0.847328L188.379 1.69467C188.349 1.74451 188.299 1.78439 188.239 1.77442H186.544C186.485 1.77442 186.435 1.74451 186.405 1.69467L185.966 0.847328C185.936 0.797484 185.886 0.767578 185.827 0.767578H182.447" stroke="black" stroke-width="0.259187" stroke-linecap="round" stroke-linejoin="round"/>
<path opacity="0.5" d="M182.437 0.757568C182.377 0.757568 182.327 0.787568 182.297 0.837568" stroke="black" stroke-width="0.259187" stroke-linecap="round" stroke-linejoin="round"/>
<path opacity="0.5" d="M182.31 0.837318L181.871 1.68466C181.841 1.7345 181.791 1.76441 181.731 1.76441H180.037C179.977 1.76441 179.927 1.7345 179.897 1.68466L179.458 0.837318C179.429 0.787475 179.379 0.757568 179.319 0.757568H175.94C175.88 0.757568 175.83 0.787475 175.8 0.837318L175.361 1.68466" stroke="black" stroke-width="0.259187" stroke-linecap="round" stroke-linejoin="round"/>
<path opacity="0.5" d="M175.349 1.6947C175.319 1.7447 175.269 1.7747 175.209 1.7747" stroke="black" stroke-width="0.259187" stroke-linecap="round" stroke-linejoin="round"/>
<path opacity="0.5" d="M175.212 1.77454H173.527C173.467 1.77454 173.417 1.74464 173.387 1.69479L172.949 0.84745C172.919 0.797606 172.869 0.7677 172.809 0.7677H169.43C169.37 0.7677 169.32 0.797606 169.29 0.84745L168.852 1.69479" stroke="black" stroke-width="0.259187" stroke-linecap="round" stroke-linejoin="round"/>
<path opacity="0.5" d="M168.841 1.69458C168.811 1.74458 168.761 1.77458 168.701 1.77458" stroke="black" stroke-width="0.259187" stroke-linecap="round" stroke-linejoin="round"/>
<path opacity="0.5" d="M168.7 1.77438H167.016C166.956 1.77438 166.906 1.74448 166.876 1.69463L166.438 0.84729" stroke="black" stroke-width="0.259187" stroke-linecap="round" stroke-linejoin="round"/>
<path opacity="0.5" d="M166.429 0.83769C166.399 0.78769 166.349 0.75769 166.289 0.75769" stroke="black" stroke-width="0.259187" stroke-linecap="round" stroke-linejoin="round"/>
<path opacity="0.5" d="M166.29 0.757568H162.91C162.85 0.757568 162.801 0.787475 162.771 0.837318L162.332 1.68466" stroke="black" stroke-width="0.259187" stroke-linecap="round" stroke-linejoin="round"/>
<path opacity="0.5" d="M162.331 1.6947C162.301 1.7447 162.251 1.7747 162.191 1.7747" stroke="black" stroke-width="0.259187" stroke-linecap="round" stroke-linejoin="round"/>
<path opacity="0.5" d="M162.181 1.77438H160.496C160.436 1.77438 160.387 1.74448 160.357 1.69463L159.918 0.84729" stroke="black" stroke-width="0.259187" stroke-linecap="round" stroke-linejoin="round"/>
<path opacity="0.5" d="M159.919 0.837568C159.889 0.787568 159.839 0.757568 159.779 0.757568" stroke="black" stroke-width="0.259187" stroke-linecap="round" stroke-linejoin="round"/>
<path opacity="0.5" d="M159.768 0.757568H156.389C156.329 0.757568 156.279 0.787475 156.249 0.837318L155.801 1.68466C155.771 1.7345 155.721 1.77438 155.661 1.76441H153.977C153.917 1.76441 153.867 1.7345 153.837 1.68466L153.398 0.837318" stroke="black" stroke-width="0.259187" stroke-linecap="round" stroke-linejoin="round"/>
<path opacity="0.5" d="M153.4 0.837568C153.37 0.787568 153.32 0.757568 153.26 0.757568" stroke="black" stroke-width="0.259187" stroke-linecap="round" stroke-linejoin="round"/>
<path opacity="0.5" d="M153.258 0.757568H149.879C149.819 0.757568 149.769 0.787475 149.739 0.837318L149.291 1.68466C149.261 1.7345 149.211 1.77438 149.151 1.76441H147.466C147.407 1.76441 147.357 1.7345 147.327 1.68466L146.878 0.837318C146.848 0.787475 146.799 0.757568 146.739 0.757568H143.359" stroke="black" stroke-width="0.259187" stroke-linecap="round" stroke-linejoin="round"/>
<path opacity="0.5" d="M143.37 0.75769C143.31 0.75769 143.25 0.78769 143.23 0.83769" stroke="black" stroke-width="0.259187" stroke-linecap="round" stroke-linejoin="round"/>
<path opacity="0.5" d="M143.229 0.837318L142.791 1.68466C142.761 1.7345 142.711 1.77438 142.651 1.76441H140.967C140.907 1.76441 140.857 1.7345 140.827 1.68466L140.378 0.837318C140.348 0.787475 140.299 0.757568 140.239 0.757568H136.859" stroke="black" stroke-width="0.259187" stroke-linecap="round" stroke-linejoin="round"/>
<path opacity="0.5" d="M136.863 0.757568C136.803 0.757568 136.743 0.787568 136.723 0.837568" stroke="black" stroke-width="0.259187" stroke-linecap="round" stroke-linejoin="round"/>
<path opacity="0.5" d="M136.722 0.83728L136.283 1.68462C136.253 1.73447 136.204 1.77434 136.144 1.76437H134.459" stroke="black" stroke-width="0.259187" stroke-linecap="round" stroke-linejoin="round"/>
<path opacity="0.5" d="M134.451 1.7747C134.391 1.7747 134.331 1.7447 134.311 1.6947" stroke="black" stroke-width="0.259187" stroke-linecap="round" stroke-linejoin="round"/>
<path opacity="0.5" d="M134.307 1.69479L133.869 0.84745C133.839 0.797606 133.789 0.7677 133.729 0.7677H130.35" stroke="black" stroke-width="0.259187" stroke-linecap="round" stroke-linejoin="round"/>
<path opacity="0.5" d="M130.351 0.757568C130.291 0.757568 130.231 0.787568 130.211 0.837568" stroke="black" stroke-width="0.259187" stroke-linecap="round" stroke-linejoin="round"/>
<path opacity="0.5" d="M130.202 0.837402L129.764 1.68474C129.734 1.73459 129.684 1.77446 129.624 1.76449H127.939" stroke="black" stroke-width="0.259187" stroke-linecap="round" stroke-linejoin="round"/>
<path opacity="0.5" d="M127.937 1.7747C127.877 1.7747 127.817 1.7447 127.797 1.6947" stroke="black" stroke-width="0.259187" stroke-linecap="round" stroke-linejoin="round"/>
<path opacity="0.5" d="M127.79 1.69467L127.351 0.847328C127.321 0.797484 127.271 0.767578 127.212 0.767578H123.832C123.772 0.767578 123.722 0.797484 123.693 0.847328L123.254 1.69467C123.224 1.74451 123.174 1.78439 123.114 1.77442H121.43" stroke="black" stroke-width="0.259187" stroke-linecap="round" stroke-linejoin="round"/>
<path opacity="0.5" d="M121.419 1.7747C121.359 1.7747 121.299 1.7447 121.279 1.6947" stroke="black" stroke-width="0.259187" stroke-linecap="round" stroke-linejoin="round"/>
<path opacity="0.5" d="M121.279 1.69479L120.841 0.84745C120.811 0.797606 120.761 0.7677 120.701 0.7677H117.322C117.262 0.7677 117.212 0.797606 117.182 0.84745L116.744 1.69479C116.714 1.74464 116.664 1.78451 116.604 1.77454H114.909C114.85 1.77454 114.8 1.74464 114.77 1.69479L114.331 0.84745C114.301 0.797606 114.251 0.7677 114.192 0.7677H110.812C110.752 0.7677 110.703 0.797606 110.673 0.84745L110.234 1.69479C110.204 1.74464 110.154 1.78451 110.094 1.77454H108.4C108.34 1.77454 108.29 1.74464 108.26 1.69479L107.822 0.84745C107.792 0.797606 107.742 0.7677 107.682 0.7677H104.303C104.243 0.7677 104.193 0.797606 104.163 0.84745L103.724 1.69479C103.695 1.74464 103.645 1.78451 103.585 1.77454H102.738H101.89C101.83 1.77454 101.781 1.74464 101.751 1.69479L101.312 0.84745C101.282 0.797606 101.232 0.7677 101.172 0.7677H97.793C97.7332 0.7677 97.6834 0.797606 97.6535 0.84745L97.2148 1.69479" stroke="black" stroke-width="0.259187" stroke-linecap="round" stroke-linejoin="round"/>
<path opacity="0.5" d="M97.2045 1.69458C97.1745 1.74458 97.1245 1.77458 97.0645 1.77458" stroke="black" stroke-width="0.259187" stroke-linecap="round" stroke-linejoin="round"/>
<path opacity="0.5" d="M97.0671 1.77454H95.3824C95.3226 1.77454 95.2727 1.74464 95.2428 1.69479L94.8042 0.84745C94.7743 0.797606 94.7244 0.7677 94.6646 0.7677H91.2852C91.2254 0.7677 91.1756 0.797606 91.1457 0.84745L90.707 1.69479" stroke="black" stroke-width="0.259187" stroke-linecap="round" stroke-linejoin="round"/>
<path opacity="0.5" d="M90.6947 1.6947C90.6647 1.7447 90.6147 1.7747 90.5547 1.7747" stroke="black" stroke-width="0.259187" stroke-linecap="round" stroke-linejoin="round"/>
<path opacity="0.5" d="M90.5461 1.77438H88.8614C88.8016 1.77438 88.7517 1.74448 88.7218 1.69463L88.2832 0.84729" stroke="black" stroke-width="0.259187" stroke-linecap="round" stroke-linejoin="round"/>
<path opacity="0.5" d="M88.2845 0.837568C88.2545 0.787568 88.2045 0.757568 88.1445 0.757568" stroke="black" stroke-width="0.259187" stroke-linecap="round" stroke-linejoin="round"/>
<path opacity="0.5" d="M88.1334 0.757568H84.754C84.6941 0.757568 84.6443 0.787475 84.6144 0.837318L84.1758 1.68466" stroke="black" stroke-width="0.259187" stroke-linecap="round" stroke-linejoin="round"/>
<path opacity="0.5" d="M84.1771 1.69458C84.1471 1.74458 84.0971 1.77458 84.0371 1.77458" stroke="black" stroke-width="0.259187" stroke-linecap="round" stroke-linejoin="round"/>
<path opacity="0.5" d="M84.0344 1.77438H82.3497C82.2899 1.77438 82.24 1.74448 82.2101 1.69463L81.7715 0.84729" stroke="black" stroke-width="0.259187" stroke-linecap="round" stroke-linejoin="round"/>
<path opacity="0.5" d="M81.7748 0.837568C81.7448 0.787568 81.6948 0.757568 81.6348 0.757568" stroke="black" stroke-width="0.259187" stroke-linecap="round" stroke-linejoin="round"/>
<path opacity="0.5" d="M81.6239 0.75769H78.2445C78.1847 0.75769 78.1349 0.787597 78.105 0.83744L77.6564 1.68478C77.6265 1.73463 77.5766 1.7745 77.5168 1.76453H75.8321C75.7723 1.76453 75.7224 1.73463 75.6925 1.68478L75.2539 0.83744" stroke="black" stroke-width="0.259187" stroke-linecap="round" stroke-linejoin="round"/>
<path opacity="0.5" d="M75.2552 0.837568C75.2252 0.787568 75.1752 0.757568 75.1152 0.757568" stroke="black" stroke-width="0.259187" stroke-linecap="round" stroke-linejoin="round"/>
<path opacity="0.5" d="M75.1138 0.757568H71.7344C71.6746 0.757568 71.6247 0.787475 71.5948 0.837318L71.1462 1.68466C71.1163 1.7345 71.0665 1.77438 71.0067 1.76441H69.322C69.2621 1.76441 69.2123 1.7345 69.1824 1.68466L68.7338 0.837318C68.7039 0.787475 68.6541 0.757568 68.5942 0.757568H65.2148" stroke="black" stroke-width="0.259187" stroke-linecap="round" stroke-linejoin="round"/>
<path opacity="0.5" d="M65.2259 0.757568C65.1659 0.757568 65.1059 0.787568 65.0859 0.837568" stroke="black" stroke-width="0.259187" stroke-linecap="round" stroke-linejoin="round"/>
<path opacity="0.5" d="M65.0754 0.83728L64.6368 1.68462C64.6069 1.73447 64.557 1.76437 64.4972 1.76437H62.8125" stroke="black" stroke-width="0.259187" stroke-linecap="round" stroke-linejoin="round"/>
<path opacity="0.5" d="M62.8138 1.7747C62.7538 1.7747 62.7038 1.7447 62.6738 1.6947" stroke="black" stroke-width="0.259187" stroke-linecap="round" stroke-linejoin="round"/>
<path opacity="0.5" d="M62.6724 1.69479L62.2338 0.84745C62.2039 0.797606 62.1541 0.7677 62.0942 0.7677H58.7148" stroke="black" stroke-width="0.259187" stroke-linecap="round" stroke-linejoin="round"/>
<path opacity="0.5" d="M58.7162 0.75769C58.6562 0.75769 58.5962 0.78769 58.5762 0.83769" stroke="black" stroke-width="0.259187" stroke-linecap="round" stroke-linejoin="round"/>
<path opacity="0.5" d="M58.5656 0.837402L58.127 1.68474C58.0971 1.73459 58.0473 1.77446 57.9874 1.76449H56.3027" stroke="black" stroke-width="0.259187" stroke-linecap="round" stroke-linejoin="round"/>
<path opacity="0.5" d="M56.3041 1.7747C56.2441 1.7747 56.1841 1.7447 56.1641 1.6947" stroke="black" stroke-width="0.259187" stroke-linecap="round" stroke-linejoin="round"/>
<path opacity="0.5" d="M56.1529 1.69479L55.7143 0.84745C55.6844 0.797606 55.6345 0.7677 55.5747 0.7677H52.1953" stroke="black" stroke-width="0.259187" stroke-linecap="round" stroke-linejoin="round"/>
<path opacity="0.5" d="M52.1986 0.757568C52.1386 0.757568 52.0786 0.787568 52.0586 0.837568" stroke="black" stroke-width="0.259187" stroke-linecap="round" stroke-linejoin="round"/>
<path opacity="0.5" d="M52.0559 0.83728L51.6172 1.68462C51.5873 1.73447 51.5375 1.77434 51.4777 1.76437H49.793" stroke="black" stroke-width="0.259187" stroke-linecap="round" stroke-linejoin="round"/>
<path opacity="0.5" d="M49.7865 1.7747C49.7265 1.7747 49.6665 1.7447 49.6465 1.6947" stroke="black" stroke-width="0.259187" stroke-linecap="round" stroke-linejoin="round"/>
<path opacity="0.5" d="M49.6446 1.69467L49.206 0.847328C49.1761 0.797484 49.1262 0.767578 49.0664 0.767578H45.687C45.6272 0.767578 45.5773 0.797484 45.5474 0.847328L45.1088 1.69467C45.0789 1.74451 45.0291 1.78439 44.9692 1.77442H43.2746C43.2148 1.77442 43.1649 1.74451 43.135 1.69467L42.6964 0.847328C42.6665 0.797484 42.6166 0.767578 42.5568 0.767578H39.1774C39.1176 0.767578 39.0678 0.797484 39.0379 0.847328L38.5992 1.69467C38.5693 1.74451 38.5195 1.78439 38.4597 1.77442H36.765C36.7052 1.77442 36.6553 1.74451 36.6254 1.69467L36.1868 0.847328C36.1569 0.797484 36.1071 0.767578 36.0472 0.767578H32.6678C32.608 0.767578 32.5582 0.797484 32.5283 0.847328L32.0897 1.69467C32.0597 1.74451 32.0099 1.77442 31.9501 1.77442H30.2554C30.1956 1.77442 30.1458 1.74451 30.1158 1.69467L29.6772 0.847328C29.6473 0.797484 29.5975 0.767578 29.5377 0.767578H26.1583C26.0985 0.767578 26.0486 0.797484 26.0187 0.847328L25.5801 1.69467" stroke="black" stroke-width="0.259187" stroke-linecap="round" stroke-linejoin="round"/>
<path opacity="0.5" d="M25.5697 1.6947C25.5397 1.7447 25.4897 1.7747 25.4297 1.7747" stroke="black" stroke-width="0.259187" stroke-linecap="round" stroke-linejoin="round"/>
<path opacity="0.5" d="M25.4323 1.77454H23.7476C23.6878 1.77454 23.6379 1.74464 23.608 1.69479L23.1694 0.84745C23.1395 0.797606 23.0897 0.7677 23.0299 0.7677H19.6505C19.5906 0.7677 19.5408 0.797606 19.5109 0.84745L19.0723 1.69479" stroke="black" stroke-width="0.259187" stroke-linecap="round" stroke-linejoin="round"/>
<path opacity="0.5" d="M19.0599 1.6947C19.0299 1.7447 18.9799 1.7747 18.9199 1.7747" stroke="black" stroke-width="0.259187" stroke-linecap="round" stroke-linejoin="round"/>
<path opacity="0.5" d="M18.9108 1.77449H17.2261C17.1663 1.77449 17.1165 1.74459 17.0866 1.69474L16.6479 0.847401C16.618 0.797557 16.5682 0.757682 16.5084 0.767651H13.129C13.0692 0.767651 13.0193 0.797557 12.9894 0.847401L12.5508 1.69474" stroke="black" stroke-width="0.259187" stroke-linecap="round" stroke-linejoin="round"/>
<path opacity="0.5" d="M12.5404 1.69458C12.5104 1.74458 12.4604 1.77458 12.4004 1.77458" stroke="black" stroke-width="0.259187" stroke-linecap="round" stroke-linejoin="round"/>
<path opacity="0.5" d="M12.4018 1.77454H11.5645" stroke="black" stroke-width="0.259187" stroke-linecap="round" stroke-linejoin="round"/>
<path opacity="0.5" d="M9.19323 95.5802L9.10352 4.39624" stroke="black" stroke-width="0.259187" stroke-linecap="round" stroke-linejoin="round"/>
<path opacity="0.5" d="M237.713 4.75513H230.596V97.1752H237.713V4.75513Z" stroke="#090A06" stroke-width="0.259187" stroke-linecap="round" stroke-linejoin="round"/>
<path opacity="0.5" d="M0.400391 4.75513V97.245" stroke="#07070A" stroke-width="0.259187" stroke-linecap="round" stroke-linejoin="round"/>
<path opacity="0.5" d="M7.06641 101.462H230.974" stroke="black" stroke-width="0.259187" stroke-linecap="round" stroke-linejoin="round"/>
<path opacity="0.5" d="M2.06314 8.66284H0.498047V11.8528H2.06314V8.66284Z" stroke="black" stroke-width="0.259187" stroke-linecap="round" stroke-linejoin="round"/>
<path opacity="0.5" d="M1.27539 11.8527V8.66272" stroke="black" stroke-width="0.259187" stroke-linecap="round" stroke-linejoin="round"/>
<path opacity="0.5" d="M2.01431 35.8575H0.449219V39.0475H2.01431V35.8575Z" stroke="black" stroke-width="0.259187" stroke-linecap="round" stroke-linejoin="round"/>
<path opacity="0.5" d="M1.23633 35.8574V39.0574" stroke="black" stroke-width="0.259187" stroke-linecap="round" stroke-linejoin="round"/>
<path opacity="0.5" d="M2.00454 63.0623H0.439453V66.2522H2.00454V63.0623Z" stroke="black" stroke-width="0.259187" stroke-linecap="round" stroke-linejoin="round"/>
<path opacity="0.5" d="M1.22677 63.0621L1.2168 66.2621" stroke="black" stroke-width="0.259187" stroke-linecap="round" stroke-linejoin="round"/>
<path opacity="0.5" d="M1.97525 90.2668H0.410156V93.4568H1.97525V90.2668Z" stroke="black" stroke-width="0.259187" stroke-linecap="round" stroke-linejoin="round"/>
<path opacity="0.5" d="M1.18555 90.2668V93.4668" stroke="black" stroke-width="0.259187" stroke-linecap="round" stroke-linejoin="round"/>
<path opacity="0.5" d="M21.2734 95.5303V4.39624" stroke="black" stroke-width="0.259187" stroke-linecap="round" stroke-linejoin="round"/>
<path opacity="0.5" d="M24.0957 95.5303V4.39624" stroke="black" stroke-width="0.259187" stroke-linecap="round" stroke-linejoin="round"/>
<path opacity="0.5" d="M32.1699 95.5303V4.39624" stroke="black" stroke-width="0.259187" stroke-linecap="round" stroke-linejoin="round"/>
<path opacity="0.5" d="M34.9902 95.5303V4.39624" stroke="black" stroke-width="0.259187" stroke-linecap="round" stroke-linejoin="round"/>
<path opacity="0.5" d="M43.0547 95.5303V4.39624" stroke="black" stroke-width="0.259187" stroke-linecap="round" stroke-linejoin="round"/>
<path opacity="0.5" d="M45.877 95.5303V4.39624" stroke="black" stroke-width="0.259187" stroke-linecap="round" stroke-linejoin="round"/>
<path opacity="0.5" d="M53.9512 95.5303V4.39624" stroke="black" stroke-width="0.259187" stroke-linecap="round" stroke-linejoin="round"/>
<path opacity="0.5" d="M56.7715 95.5303V4.39624" stroke="black" stroke-width="0.259187" stroke-linecap="round" stroke-linejoin="round"/>
<path opacity="0.5" d="M64.8359 95.5303V4.39624" stroke="black" stroke-width="0.259187" stroke-linecap="round" stroke-linejoin="round"/>
<path opacity="0.5" d="M67.6699 95.5303V4.39624" stroke="black" stroke-width="0.259187" stroke-linecap="round" stroke-linejoin="round"/>
<path opacity="0.5" d="M75.7344 95.5303V4.39624" stroke="black" stroke-width="0.259187" stroke-linecap="round" stroke-linejoin="round"/>
<path opacity="0.5" d="M78.5547 95.5303V4.39624" stroke="black" stroke-width="0.259187" stroke-linecap="round" stroke-linejoin="round"/>
<path opacity="0.5" d="M86.6191 95.5303V4.39624" stroke="black" stroke-width="0.259187" stroke-linecap="round" stroke-linejoin="round"/>
<path opacity="0.5" d="M89.4414 95.5303V4.39624" stroke="black" stroke-width="0.259187" stroke-linecap="round" stroke-linejoin="round"/>
<path opacity="0.5" d="M97.5156 95.5303V4.39624" stroke="black" stroke-width="0.259187" stroke-linecap="round" stroke-linejoin="round"/>
<path opacity="0.5" d="M100.336 95.5303V4.39624" stroke="black" stroke-width="0.259187" stroke-linecap="round" stroke-linejoin="round"/>
<path opacity="0.5" d="M108.4 95.5303V4.39624" stroke="black" stroke-width="0.259187" stroke-linecap="round" stroke-linejoin="round"/>
<path opacity="0.5" d="M111.232 95.5303V4.39624" stroke="black" stroke-width="0.259187" stroke-linecap="round" stroke-linejoin="round"/>
<path opacity="0.5" d="M119.297 95.5303V4.39624" stroke="black" stroke-width="0.259187" stroke-linecap="round" stroke-linejoin="round"/>
<path opacity="0.5" d="M122.117 95.5303V4.39624" stroke="black" stroke-width="0.259187" stroke-linecap="round" stroke-linejoin="round"/>
<path opacity="0.5" d="M130.182 95.5303V4.39624" stroke="black" stroke-width="0.259187" stroke-linecap="round" stroke-linejoin="round"/>
<path opacity="0.5" d="M133.004 95.5303V4.39624" stroke="black" stroke-width="0.259187" stroke-linecap="round" stroke-linejoin="round"/>
<path opacity="0.5" d="M141.078 95.5303V4.39624" stroke="black" stroke-width="0.259187" stroke-linecap="round" stroke-linejoin="round"/>
<path opacity="0.5" d="M143.898 95.5303V4.39624" stroke="black" stroke-width="0.259187" stroke-linecap="round" stroke-linejoin="round"/>
<path opacity="0.5" d="M151.963 95.5303V4.39624" stroke="black" stroke-width="0.259187" stroke-linecap="round" stroke-linejoin="round"/>
<path opacity="0.5" d="M154.795 95.5303V4.39624" stroke="black" stroke-width="0.259187" stroke-linecap="round" stroke-linejoin="round"/>
<path opacity="0.5" d="M162.859 95.5303V4.39624" stroke="black" stroke-width="0.259187" stroke-linecap="round" stroke-linejoin="round"/>
<path opacity="0.5" d="M165.68 95.5303V4.39624" stroke="black" stroke-width="0.259187" stroke-linecap="round" stroke-linejoin="round"/>
<path opacity="0.5" d="M173.744 95.5303V4.39624" stroke="black" stroke-width="0.259187" stroke-linecap="round" stroke-linejoin="round"/>
<path opacity="0.5" d="M176.578 95.5303V4.39624" stroke="black" stroke-width="0.259187" stroke-linecap="round" stroke-linejoin="round"/>
<path opacity="0.5" d="M184.643 95.5303V4.39624" stroke="black" stroke-width="0.259187" stroke-linecap="round" stroke-linejoin="round"/>
<path opacity="0.5" d="M187.463 95.5303V4.39624" stroke="black" stroke-width="0.259187" stroke-linecap="round" stroke-linejoin="round"/>
<path opacity="0.5" d="M195.527 95.5303V4.39624" stroke="black" stroke-width="0.259187" stroke-linecap="round" stroke-linejoin="round"/>
<path opacity="0.5" d="M198.359 95.5303V4.39624" stroke="black" stroke-width="0.259187" stroke-linecap="round" stroke-linejoin="round"/>
<path opacity="0.5" d="M206.424 95.5303V4.39624" stroke="black" stroke-width="0.259187" stroke-linecap="round" stroke-linejoin="round"/>
<path opacity="0.5" d="M209.244 95.5303V4.39624" stroke="black" stroke-width="0.259187" stroke-linecap="round" stroke-linejoin="round"/>
<path opacity="0.5" d="M217.309 95.5303V4.39624" stroke="black" stroke-width="0.259187" stroke-linecap="round" stroke-linejoin="round"/>
<path opacity="0.5" d="M220.131 95.5303V4.39624" stroke="black" stroke-width="0.259187" stroke-linecap="round" stroke-linejoin="round"/>
<path opacity="0.5" d="M228.205 95.5303V4.39624" stroke="black" stroke-width="0.259187" stroke-linecap="round" stroke-linejoin="round"/>
<path opacity="0.5" d="M13.209 95.5303V4.39624" stroke="black" stroke-width="0.259187" stroke-linecap="round" stroke-linejoin="round"/>
<path opacity="0.5" d="M10.5469 95.5303V4.39624" stroke="black" stroke-width="0.259187" stroke-linecap="round" stroke-linejoin="round"/>
<path opacity="0.5" d="M18.5715 4.39624H15.8301V95.5802H18.5715V4.39624Z" stroke="black" stroke-width="0.259187" stroke-linecap="round" stroke-linejoin="round"/>
<path opacity="0.5" d="M29.4582 4.39624H26.7168V95.5802H29.4582V4.39624Z" stroke="black" stroke-width="0.259187" stroke-linecap="round" stroke-linejoin="round"/>
<path opacity="0.5" d="M40.3527 4.39624H37.6113V95.5802H40.3527V4.39624Z" stroke="black" stroke-width="0.259187" stroke-linecap="round" stroke-linejoin="round"/>
<path opacity="0.5" d="M51.2394 4.39624H48.498V95.5802H51.2394V4.39624Z" stroke="black" stroke-width="0.259187" stroke-linecap="round" stroke-linejoin="round"/>
<path opacity="0.5" d="M62.134 4.39624H59.3926V95.5802H62.134V4.39624Z" stroke="black" stroke-width="0.259187" stroke-linecap="round" stroke-linejoin="round"/>
<path opacity="0.5" d="M83.9152 4.39624H81.1738V95.5802H83.9152V4.39624Z" stroke="black" stroke-width="0.259187" stroke-linecap="round" stroke-linejoin="round"/>
<path opacity="0.5" d="M94.8019 4.39624H92.0605V95.5802H94.8019V4.39624Z" stroke="black" stroke-width="0.259187" stroke-linecap="round" stroke-linejoin="round"/>
<path opacity="0.5" d="M105.696 4.39624H102.955V95.5802H105.696V4.39624Z" stroke="black" stroke-width="0.259187" stroke-linecap="round" stroke-linejoin="round"/>
<path opacity="0.5" d="M116.584 4.39624H113.803V95.5802H116.584V4.39624Z" stroke="black" stroke-width="0.259187" stroke-linecap="round" stroke-linejoin="round"/>
<path opacity="0.5" d="M127.479 4.39624H124.697V95.5802H127.479V4.39624Z" stroke="black" stroke-width="0.259187" stroke-linecap="round" stroke-linejoin="round"/>
<path opacity="0.5" d="M138.365 4.39624H135.584V95.5802H138.365V4.39624Z" stroke="black" stroke-width="0.259187" stroke-linecap="round" stroke-linejoin="round"/>
<path opacity="0.5" d="M149.261 4.39624H146.52V95.5802H149.261V4.39624Z" stroke="black" stroke-width="0.259187" stroke-linecap="round" stroke-linejoin="round"/>
<path opacity="0.5" d="M160.147 4.39624H157.365V95.5802H160.147V4.39624Z" stroke="black" stroke-width="0.259187" stroke-linecap="round" stroke-linejoin="round"/>
<path opacity="0.5" d="M181.93 4.39624H179.148V95.5802H181.93V4.39624Z" stroke="black" stroke-width="0.259187" stroke-linecap="round" stroke-linejoin="round"/>
<path opacity="0.5" d="M192.823 4.39624H190.082V95.5802H192.823V4.39624Z" stroke="black" stroke-width="0.259187" stroke-linecap="round" stroke-linejoin="round"/>
<path opacity="0.5" d="M203.75 4.39624H200.969V95.5802H203.75V4.39624Z" stroke="black" stroke-width="0.259187" stroke-linecap="round" stroke-linejoin="round"/>
<path opacity="0.5" d="M214.645 4.39624H211.863V95.5802H214.645V4.39624Z" stroke="black" stroke-width="0.259187" stroke-linecap="round" stroke-linejoin="round"/>
<path opacity="0.5" d="M225.531 4.39624H222.75V95.5802H225.531V4.39624Z" stroke="black" stroke-width="0.259187" stroke-linecap="round" stroke-linejoin="round"/>
<path opacity="0.5" d="M165.841 101.462V97.6936H151.715V101.462" stroke="black" stroke-width="0.259187" stroke-linecap="round" stroke-linejoin="round"/>
<path opacity="0.5" d="M71.3379 101.462V97.7334H85.4636V101.462" stroke="black" stroke-width="0.259187" stroke-linecap="round" stroke-linejoin="round"/>
<path opacity="0.5" d="M165.592 6.70886H162.92V13.667H165.592V6.70886Z" stroke="black" stroke-width="0.259187" stroke-linecap="round" stroke-linejoin="round"/>
<path opacity="0.5" d="M165.111 7.48645H163.396" stroke="black" stroke-width="0.259187" stroke-linecap="round" stroke-linejoin="round"/>
<path opacity="0.5" d="M163.398 7.48657C163.268 7.48657 163.158 7.60657 163.158 7.75657" stroke="black" stroke-width="0.259187" stroke-linecap="round" stroke-linejoin="round"/>
<path opacity="0.5" d="M163.158 7.75574V12.8498" stroke="black" stroke-width="0.259187" stroke-linecap="round" stroke-linejoin="round"/>
<path opacity="0.5" d="M163.158 12.8497C163.158 12.9997 163.268 13.1197 163.398 13.1197" stroke="black" stroke-width="0.259187" stroke-linecap="round" stroke-linejoin="round"/>
<path opacity="0.5" d="M163.396 13.1189H165.111" stroke="black" stroke-width="0.259187" stroke-linecap="round" stroke-linejoin="round"/>
<path opacity="0.5" d="M165.113 13.1197C165.243 13.1197 165.353 12.9997 165.353 12.8497" stroke="black" stroke-width="0.259187" stroke-linecap="round" stroke-linejoin="round"/>
<path opacity="0.5" d="M165.352 12.8496V7.75562" stroke="black" stroke-width="0.259187" stroke-linecap="round" stroke-linejoin="round"/>
<path opacity="0.5" d="M165.353 7.75645C165.353 7.60645 165.243 7.48645 165.113 7.48645" stroke="black" stroke-width="0.259187" stroke-linecap="round" stroke-linejoin="round"/>
<path opacity="0.5" d="M165.351 11.5039H163.158" stroke="black" stroke-width="0.259187" stroke-linecap="round" stroke-linejoin="round"/>
<path opacity="0.5" d="M165.021 7.05786C165.021 7.13786 165.081 7.19786 165.141 7.19786" stroke="black" stroke-width="0.259187" stroke-linecap="round" stroke-linejoin="round"/>
<path opacity="0.5" d="M165.141 7.19774C165.211 7.19774 165.261 7.13774 165.261 7.05774" stroke="black" stroke-width="0.259187" stroke-linecap="round" stroke-linejoin="round"/>
<path opacity="0.5" d="M165.27 7.05821C165.27 6.97821 165.21 6.91821 165.15 6.91821" stroke="black" stroke-width="0.259187" stroke-linecap="round" stroke-linejoin="round"/>
<path opacity="0.5" d="M165.141 6.91821C165.071 6.91821 165.021 6.97821 165.021 7.05821" stroke="black" stroke-width="0.259187" stroke-linecap="round" stroke-linejoin="round"/>
<path opacity="0.5" d="M164.127 13.3881C164.127 13.4681 164.187 13.5281 164.247 13.5281" stroke="black" stroke-width="0.259187" stroke-linecap="round" stroke-linejoin="round"/>
<path opacity="0.5" d="M164.254 13.5281C164.324 13.5281 164.374 13.4681 164.374 13.3881" stroke="black" stroke-width="0.259187" stroke-linecap="round" stroke-linejoin="round"/>
<path opacity="0.5" d="M164.374 13.3884C164.374 13.3084 164.314 13.2484 164.254 13.2484" stroke="black" stroke-width="0.259187" stroke-linecap="round" stroke-linejoin="round"/>
<path opacity="0.5" d="M164.257 13.2484C164.187 13.2484 164.137 13.3084 164.137 13.3884" stroke="black" stroke-width="0.259187" stroke-linecap="round" stroke-linejoin="round"/>
<path opacity="0.5" d="M163.229 7.05774C163.229 7.13774 163.289 7.19774 163.349 7.19774" stroke="black" stroke-width="0.259187" stroke-linecap="round" stroke-linejoin="round"/>
<path opacity="0.5" d="M163.355 7.19774C163.425 7.19774 163.475 7.13774 163.475 7.05774" stroke="black" stroke-width="0.259187" stroke-linecap="round" stroke-linejoin="round"/>
<path opacity="0.5" d="M163.475 7.05821C163.475 6.97821 163.415 6.91821 163.355 6.91821" stroke="black" stroke-width="0.259187" stroke-linecap="round" stroke-linejoin="round"/>
<path opacity="0.5" d="M163.358 6.91821C163.288 6.91821 163.238 6.97821 163.238 7.05821" stroke="black" stroke-width="0.259187" stroke-linecap="round" stroke-linejoin="round"/>
<path opacity="0.5" d="M209.156 6.70886H206.484V13.667H209.156V6.70886Z" stroke="black" stroke-width="0.259187" stroke-linecap="round" stroke-linejoin="round"/>
<path opacity="0.5" d="M208.674 7.48645H206.959" stroke="black" stroke-width="0.259187" stroke-linecap="round" stroke-linejoin="round"/>
<path opacity="0.5" d="M206.961 7.48657C206.831 7.48657 206.721 7.60657 206.721 7.75657" stroke="black" stroke-width="0.259187" stroke-linecap="round" stroke-linejoin="round"/>
<path opacity="0.5" d="M206.721 7.75574V12.8498" stroke="black" stroke-width="0.259187" stroke-linecap="round" stroke-linejoin="round"/>
<path opacity="0.5" d="M206.721 12.8497C206.721 12.9997 206.831 13.1197 206.961 13.1197" stroke="black" stroke-width="0.259187" stroke-linecap="round" stroke-linejoin="round"/>
<path opacity="0.5" d="M206.959 13.1189H208.674" stroke="black" stroke-width="0.259187" stroke-linecap="round" stroke-linejoin="round"/>
<path opacity="0.5" d="M208.676 13.1197C208.806 13.1197 208.916 12.9997 208.916 12.8497" stroke="black" stroke-width="0.259187" stroke-linecap="round" stroke-linejoin="round"/>
<path opacity="0.5" d="M208.906 12.8496V7.75562" stroke="black" stroke-width="0.259187" stroke-linecap="round" stroke-linejoin="round"/>
<path opacity="0.5" d="M208.906 7.75645C208.906 7.60645 208.796 7.48645 208.666 7.48645" stroke="black" stroke-width="0.259187" stroke-linecap="round" stroke-linejoin="round"/>
<path opacity="0.5" d="M208.904 11.5039H206.721" stroke="black" stroke-width="0.259187" stroke-linecap="round" stroke-linejoin="round"/>
<path opacity="0.5" d="M208.586 7.05786C208.586 7.13786 208.646 7.19786 208.706 7.19786" stroke="black" stroke-width="0.259187" stroke-linecap="round" stroke-linejoin="round"/>
<path opacity="0.5" d="M208.705 7.19774C208.775 7.19774 208.825 7.13774 208.825 7.05774" stroke="black" stroke-width="0.259187" stroke-linecap="round" stroke-linejoin="round"/>
<path opacity="0.5" d="M208.835 7.05821C208.835 6.97821 208.775 6.91821 208.715 6.91821" stroke="black" stroke-width="0.259187" stroke-linecap="round" stroke-linejoin="round"/>
<path opacity="0.5" d="M208.706 6.91821C208.636 6.91821 208.586 6.97821 208.586 7.05821" stroke="black" stroke-width="0.259187" stroke-linecap="round" stroke-linejoin="round"/>
<path opacity="0.5" d="M207.689 13.3881C207.689 13.4681 207.749 13.5281 207.809 13.5281" stroke="black" stroke-width="0.259187" stroke-linecap="round" stroke-linejoin="round"/>
<path opacity="0.5" d="M207.818 13.5281C207.888 13.5281 207.938 13.4681 207.938 13.3881" stroke="black" stroke-width="0.259187" stroke-linecap="round" stroke-linejoin="round"/>
<path opacity="0.5" d="M207.938 13.3884C207.938 13.3084 207.878 13.2484 207.818 13.2484" stroke="black" stroke-width="0.259187" stroke-linecap="round" stroke-linejoin="round"/>
<path opacity="0.5" d="M207.819 13.2484C207.749 13.2484 207.699 13.3084 207.699 13.3884" stroke="black" stroke-width="0.259187" stroke-linecap="round" stroke-linejoin="round"/>
<path opacity="0.5" d="M206.791 7.05774C206.791 7.13774 206.851 7.19774 206.911 7.19774" stroke="black" stroke-width="0.259187" stroke-linecap="round" stroke-linejoin="round"/>
<path opacity="0.5" d="M206.92 7.19774C206.99 7.19774 207.04 7.13774 207.04 7.05774" stroke="black" stroke-width="0.259187" stroke-linecap="round" stroke-linejoin="round"/>
<path opacity="0.5" d="M207.04 7.05821C207.04 6.97821 206.98 6.91821 206.92 6.91821" stroke="black" stroke-width="0.259187" stroke-linecap="round" stroke-linejoin="round"/>
<path opacity="0.5" d="M206.921 6.91821C206.851 6.91821 206.801 6.97821 206.801 7.05821" stroke="black" stroke-width="0.259187" stroke-linecap="round" stroke-linejoin="round"/>
<path opacity="0.5" d="M78.4646 6.70886H75.793V13.667H78.4646V6.70886Z" stroke="black" stroke-width="0.259187" stroke-linecap="round" stroke-linejoin="round"/>
<path opacity="0.5" d="M77.9861 7.48645H76.2715" stroke="black" stroke-width="0.259187" stroke-linecap="round" stroke-linejoin="round"/>
<path opacity="0.5" d="M76.2713 7.48645C76.1413 7.48645 76.0312 7.60645 76.0312 7.75645" stroke="black" stroke-width="0.259187" stroke-linecap="round" stroke-linejoin="round"/>
<path opacity="0.5" d="M76.0312 7.75562V12.8496" stroke="black" stroke-width="0.259187" stroke-linecap="round" stroke-linejoin="round"/>
<path opacity="0.5" d="M76.0312 12.8497C76.0312 12.9997 76.1413 13.1197 76.2713 13.1197" stroke="black" stroke-width="0.259187" stroke-linecap="round" stroke-linejoin="round"/>
<path opacity="0.5" d="M76.2715 13.1189H77.9861" stroke="black" stroke-width="0.259187" stroke-linecap="round" stroke-linejoin="round"/>
<path opacity="0.5" d="M77.9844 13.1197C78.1144 13.1197 78.2244 12.9997 78.2244 12.8497" stroke="black" stroke-width="0.259187" stroke-linecap="round" stroke-linejoin="round"/>
<path opacity="0.5" d="M78.2266 12.8496V7.75562" stroke="black" stroke-width="0.259187" stroke-linecap="round" stroke-linejoin="round"/>
<path opacity="0.5" d="M78.2244 7.75645C78.2244 7.60645 78.1144 7.48645 77.9844 7.48645" stroke="black" stroke-width="0.259187" stroke-linecap="round" stroke-linejoin="round"/>
<path opacity="0.5" d="M78.2244 11.504H76.0312" stroke="black" stroke-width="0.259187" stroke-linecap="round" stroke-linejoin="round"/>
<path opacity="0.5" d="M77.8965 7.05786C77.8965 7.13786 77.9565 7.19786 78.0165 7.19786" stroke="black" stroke-width="0.259187" stroke-linecap="round" stroke-linejoin="round"/>
<path opacity="0.5" d="M78.0137 7.19774C78.0837 7.19774 78.1337 7.13774 78.1337 7.05774" stroke="black" stroke-width="0.259187" stroke-linecap="round" stroke-linejoin="round"/>
<path opacity="0.5" d="M78.1434 7.05821C78.1434 6.97821 78.0834 6.91821 78.0234 6.91821" stroke="black" stroke-width="0.259187" stroke-linecap="round" stroke-linejoin="round"/>
<path opacity="0.5" d="M78.0165 6.91821C77.9465 6.91821 77.8965 6.97821 77.8965 7.05821" stroke="black" stroke-width="0.259187" stroke-linecap="round" stroke-linejoin="round"/>
<path opacity="0.5" d="M77 13.3881C77 13.4681 77.06 13.5281 77.12 13.5281" stroke="black" stroke-width="0.259187" stroke-linecap="round" stroke-linejoin="round"/>
<path opacity="0.5" d="M77.127 13.5281C77.197 13.5281 77.2469 13.4681 77.2469 13.3881" stroke="black" stroke-width="0.259187" stroke-linecap="round" stroke-linejoin="round"/>
<path opacity="0.5" d="M77.2469 13.3885C77.2469 13.3085 77.187 13.2485 77.127 13.2485" stroke="black" stroke-width="0.259187" stroke-linecap="round" stroke-linejoin="round"/>
<path opacity="0.5" d="M77.1298 13.2484C77.0598 13.2484 77.0098 13.3084 77.0098 13.3884" stroke="black" stroke-width="0.259187" stroke-linecap="round" stroke-linejoin="round"/>
<path opacity="0.5" d="M76.1016 7.05774C76.1016 7.13774 76.1616 7.19774 76.2216 7.19774" stroke="black" stroke-width="0.259187" stroke-linecap="round" stroke-linejoin="round"/>
<path opacity="0.5" d="M76.2305 7.19774C76.3005 7.19774 76.3505 7.13774 76.3505 7.05774" stroke="black" stroke-width="0.259187" stroke-linecap="round" stroke-linejoin="round"/>
<path opacity="0.5" d="M76.3505 7.05821C76.3505 6.97821 76.2905 6.91821 76.2305 6.91821" stroke="black" stroke-width="0.259187" stroke-linecap="round" stroke-linejoin="round"/>
<path opacity="0.5" d="M76.2294 6.91821C76.1594 6.91821 76.1094 6.97821 76.1094 7.05821" stroke="black" stroke-width="0.259187" stroke-linecap="round" stroke-linejoin="round"/>
<path opacity="0.5" d="M34.9001 6.70886H32.2285V13.667H34.9001V6.70886Z" stroke="black" stroke-width="0.259187" stroke-linecap="round" stroke-linejoin="round"/>
<path opacity="0.5" d="M34.4236 7.48645H32.709" stroke="black" stroke-width="0.259187" stroke-linecap="round" stroke-linejoin="round"/>
<path opacity="0.5" d="M32.7088 7.48645C32.5788 7.48645 32.4688 7.60645 32.4688 7.75645" stroke="black" stroke-width="0.259187" stroke-linecap="round" stroke-linejoin="round"/>
<path opacity="0.5" d="M32.4688 7.75562V12.8496" stroke="black" stroke-width="0.259187" stroke-linecap="round" stroke-linejoin="round"/>
<path opacity="0.5" d="M32.4688 12.8497C32.4688 12.9997 32.5788 13.1197 32.7088 13.1197" stroke="black" stroke-width="0.259187" stroke-linecap="round" stroke-linejoin="round"/>
<path opacity="0.5" d="M32.709 13.1189H34.4236" stroke="black" stroke-width="0.259187" stroke-linecap="round" stroke-linejoin="round"/>
<path opacity="0.5" d="M34.4199 13.1197C34.5499 13.1197 34.6599 12.9997 34.6599 12.8497" stroke="black" stroke-width="0.259187" stroke-linecap="round" stroke-linejoin="round"/>
<path opacity="0.5" d="M34.6621 12.8496V7.75562" stroke="black" stroke-width="0.259187" stroke-linecap="round" stroke-linejoin="round"/>
<path opacity="0.5" d="M34.6599 7.75645C34.6599 7.60645 34.5499 7.48645 34.4199 7.48645" stroke="black" stroke-width="0.259187" stroke-linecap="round" stroke-linejoin="round"/>
<path opacity="0.5" d="M34.6619 11.504H32.4688" stroke="black" stroke-width="0.259187" stroke-linecap="round" stroke-linejoin="round"/>
<path opacity="0.5" d="M34.332 7.05774C34.332 7.13774 34.392 7.19774 34.452 7.19774" stroke="black" stroke-width="0.259187" stroke-linecap="round" stroke-linejoin="round"/>
<path opacity="0.5" d="M34.4609 7.19774C34.5309 7.19774 34.5809 7.13774 34.5809 7.05774" stroke="black" stroke-width="0.259187" stroke-linecap="round" stroke-linejoin="round"/>
<path opacity="0.5" d="M34.5809 7.05821C34.5809 6.97821 34.5209 6.91821 34.4609 6.91821" stroke="black" stroke-width="0.259187" stroke-linecap="round" stroke-linejoin="round"/>
<path opacity="0.5" d="M34.4618 6.91821C34.3918 6.91821 34.3418 6.97821 34.3418 7.05821" stroke="black" stroke-width="0.259187" stroke-linecap="round" stroke-linejoin="round"/>
<path opacity="0.5" d="M33.4473 13.3881C33.4473 13.4681 33.5073 13.5281 33.5673 13.5281" stroke="black" stroke-width="0.259187" stroke-linecap="round" stroke-linejoin="round"/>
<path opacity="0.5" d="M33.5645 13.5281C33.6345 13.5281 33.6845 13.4681 33.6845 13.3881" stroke="black" stroke-width="0.259187" stroke-linecap="round" stroke-linejoin="round"/>
<path opacity="0.5" d="M33.6845 13.3885C33.6845 13.3085 33.6245 13.2485 33.5645 13.2485" stroke="black" stroke-width="0.259187" stroke-linecap="round" stroke-linejoin="round"/>
<path opacity="0.5" d="M33.5673 13.2484C33.4973 13.2484 33.4473 13.3084 33.4473 13.3884" stroke="black" stroke-width="0.259187" stroke-linecap="round" stroke-linejoin="round"/>
<path opacity="0.5" d="M32.5469 7.05774C32.5469 7.13774 32.6069 7.19774 32.6669 7.19774" stroke="black" stroke-width="0.259187" stroke-linecap="round" stroke-linejoin="round"/>
<path opacity="0.5" d="M32.666 7.19774C32.736 7.19774 32.786 7.13774 32.786 7.05774" stroke="black" stroke-width="0.259187" stroke-linecap="round" stroke-linejoin="round"/>
<path opacity="0.5" d="M32.786 7.05821C32.786 6.97821 32.726 6.91821 32.666 6.91821" stroke="black" stroke-width="0.259187" stroke-linecap="round" stroke-linejoin="round"/>
<path opacity="0.5" d="M32.6669 6.91821C32.5969 6.91821 32.5469 6.97821 32.5469 7.05821" stroke="black" stroke-width="0.259187" stroke-linecap="round" stroke-linejoin="round"/>
<path opacity="0.5" d="M237.873 0.129639H230.975V4.7651H237.873V0.129639Z" stroke="black" stroke-width="0.259187" stroke-linecap="round" stroke-linejoin="round"/>
<path opacity="0.5" d="M235.49 3.42913V1.37557C234.972 0.907037 234.184 0.907037 233.666 1.37557V3.42913C234.184 3.89766 234.972 3.89766 235.49 3.42913Z" stroke="black" stroke-width="0.259187" stroke-linecap="round" stroke-linejoin="round"/>
<path opacity="0.5" d="M237.873 97.1752H230.975V101.811H237.873V97.1752Z" stroke="black" stroke-width="0.259187" stroke-linecap="round" stroke-linejoin="round"/>
<path opacity="0.5" d="M235.49 100.475V98.4211C234.972 97.9526 234.184 97.9526 233.666 98.4211V100.475C234.184 100.943 234.972 100.943 235.49 100.475Z" stroke="black" stroke-width="0.259187" stroke-linecap="round" stroke-linejoin="round"/>
<path opacity="0.5" d="M73.0207 4.39624H70.2793V95.5802H73.0207V4.39624Z" fill="#E5E5E5"/>
<path opacity="0.5" d="M73.0207 4.39624H70.2793V95.5802H73.0207V4.39624Z" stroke="black" stroke-width="0.259187" stroke-linecap="round" stroke-linejoin="round"/>
<path opacity="0.5" d="M171.041 4.39624H168.26V95.5802H171.041V4.39624Z" fill="#E5E5E5"/>
<path opacity="0.5" d="M171.041 4.39624H168.26V95.5802H171.041V4.39624Z" stroke="black" stroke-width="0.259187" stroke-linecap="round" stroke-linejoin="round"/>
</g>
<defs>
<clipPath id="clip0_592_4688">
<rect width="238.013" height="102" fill="white"/>
</clipPath>
</defs>
</svg>
