<svg width="375" height="6" viewBox="0 0 375 6" fill="none" xmlns="http://www.w3.org/2000/svg">
<path d="M0 0.5V1.5H0.125V2.5H0V3.5H0.125V4.5H0V5.5H0.125V5.875H0.5V6H1.5V5.875H2.5V6H3.5V5.875H4.5V6H5.5V5.875H6.5V6H7.5V5.875H8.5V6H9.5V5.875H10.5V6H11.5V5.875H12.5V6H13.5V5.875H14.5V6H15.5V5.875H16.5V6H17.5V5.875H18.5V6H19.5V5.875H20.5V6H21.5V5.875H22.5V6H23.5V5.875H24.5V6H25.5V5.875H26.5V6H27.5V5.875H28.5V6H29.5V5.875H30.5V6H31.5V5.875H32.5V6H33.5V5.875H34.5V6H35.5V5.875H36.5V6H37.5V5.875H38.5V6H39.5V5.875H40.5V6H41.5V5.875H42.5V6H43.5V5.875H44.5V6H45.5V5.875H46.5V6H47.5V5.875H48.5V6H49.5V5.875H49.875V5.5H50V4.5H49.875V3.5H50V2.5H49.875V1.5H50V0.5H49.875V0.125H49.5V0H48.5V0.125H47.5V0H46.5V0.125H45.5V0H44.5V0.125H43.5V0H42.5V0.125H41.5V0H40.5V0.125H39.5V0H38.5V0.125H37.5V0H36.5V0.125H35.5V0H34.5V0.125H33.5V0H32.5V0.125H31.5V0H30.5V0.125H29.5V0H28.5V0.125H27.5V0H26.5V0.125H25.5V0H24.5V0.125H23.5V0H22.5V0.125H21.5V0H20.5V0.125H19.5V0H18.5V0.125H17.5V0H16.5V0.125H15.5V0H14.5V0.125H13.5V0H12.5V0.125H11.5V0H10.5V0.125H9.5V0H8.5V0.125H7.5V0H6.5V0.125H5.5V0H4.5V0.125H3.5V0H2.5V0.125H1.5V0H0.5V0.125H0.125V0.5H0Z" fill="white" stroke="black" stroke-width="0.25" stroke-dasharray="1 1"/>
<path d="M130 0.5V1.5H130.125V2.5H130V3.5H130.125V4.5H130V5.5H130.125V5.875H130.5V6H131.5V5.875H132.5V6H133.5V5.875H134.5V6H135.5V5.875H136.5V6H137.5V5.875H138.5V6H139.5V5.875H140.5V6H141.5V5.875H142.5V6H143.5V5.875H144.5V6H145.5V5.875H146.5V6H147.5V5.875H148.5V6H149.5V5.875H150.5V6H151.5V5.875H152.5V6H153.5V5.875H154.5V6H155.5V5.875H156.5V6H157.5V5.875H158.5V6H159.5V5.875H160.5V6H161.5V5.875H162.5V6H163.5V5.875H164.5V6H165.5V5.875H166.5V6H167.5V5.875H168.5V6H169.5V5.875H170.5V6H171.5V5.875H172.5V6H173.5V5.875H174.5V6H175.5V5.875H176.5V6H177.5V5.875H178.5V6H179.5V5.875H179.875V5.5H180V4.5H179.875V3.5H180V2.5H179.875V1.5H180V0.5H179.875V0.125H179.5V0H178.5V0.125H177.5V0H176.5V0.125H175.5V0H174.5V0.125H173.5V0H172.5V0.125H171.5V0H170.5V0.125H169.5V0H168.5V0.125H167.5V0H166.5V0.125H165.5V0H164.5V0.125H163.5V0H162.5V0.125H161.5V0H160.5V0.125H159.5V0H158.5V0.125H157.5V0H156.5V0.125H155.5V0H154.5V0.125H153.5V0H152.5V0.125H151.5V0H150.5V0.125H149.5V0H148.5V0.125H147.5V0H146.5V0.125H145.5V0H144.5V0.125H143.5V0H142.5V0.125H141.5V0H140.5V0.125H139.5V0H138.5V0.125H137.5V0H136.5V0.125H135.5V0H134.5V0.125H133.5V0H132.5V0.125H131.5V0H130.5V0.125H130.125V0.5H130Z" fill="white" stroke="black" stroke-width="0.25" stroke-dasharray="1 1"/>
<path d="M65 0.5V1.5H65.125V2.5H65V3.5H65.125V4.5H65V5.5H65.125V5.875H65.5V6H66.5V5.875H67.5V6H68.5V5.875H69.5V6H70.5V5.875H71.5V6H72.5V5.875H73.5V6H74.5V5.875H75.5V6H76.5V5.875H77.5V6H78.5V5.875H79.5V6H80.5V5.875H81.5V6H82.5V5.875H83.5V6H84.5V5.875H85.5V6H86.5V5.875H87.5V6H88.5V5.875H89.5V6H90.5V5.875H91.5V6H92.5V5.875H93.5V6H94.5V5.875H95.5V6H96.5V5.875H97.5V6H98.5V5.875H99.5V6H100.5V5.875H101.5V6H102.5V5.875H103.5V6H104.5V5.875H105.5V6H106.5V5.875H107.5V6H108.5V5.875H109.5V6H110.5V5.875H111.5V6H112.5V5.875H113.5V6H114.5V5.875H114.875V5.5H115V4.5H114.875V3.5H115V2.5H114.875V1.5H115V0.5H114.875V0.125H114.5V0H113.5V0.125H112.5V0H111.5V0.125H110.5V0H109.5V0.125H108.5V0H107.5V0.125H106.5V0H105.5V0.125H104.5V0H103.5V0.125H102.5V0H101.5V0.125H100.5V0H99.5V0.125H98.5V0H97.5V0.125H96.5V0H95.5V0.125H94.5V0H93.5V0.125H92.5V0H91.5V0.125H90.5V0H89.5V0.125H88.5V0H87.5V0.125H86.5V0H85.5V0.125H84.5V0H83.5V0.125H82.5V0H81.5V0.125H80.5V0H79.5V0.125H78.5V0H77.5V0.125H76.5V0H75.5V0.125H74.5V0H73.5V0.125H72.5V0H71.5V0.125H70.5V0H69.5V0.125H68.5V0H67.5V0.125H66.5V0H65.5V0.125H65.125V0.5H65Z" fill="white" stroke="black" stroke-width="0.25" stroke-dasharray="1 1"/>
<path d="M195 0.5V1.5H195.125V2.5H195V3.5H195.125V4.5H195V5.5H195.125V5.875H195.5V6H196.5V5.875H197.5V6H198.5V5.875H199.5V6H200.5V5.875H201.5V6H202.5V5.875H203.5V6H204.5V5.875H205.5V6H206.5V5.875H207.5V6H208.5V5.875H209.5V6H210.5V5.875H211.5V6H212.5V5.875H213.5V6H214.5V5.875H215.5V6H216.5V5.875H217.5V6H218.5V5.875H219.5V6H220.5V5.875H221.5V6H222.5V5.875H223.5V6H224.5V5.875H225.5V6H226.5V5.875H227.5V6H228.5V5.875H229.5V6H230.5V5.875H231.5V6H232.5V5.875H233.5V6H234.5V5.875H235.5V6H236.5V5.875H237.5V6H238.5V5.875H239.5V6H240.5V5.875H241.5V6H242.5V5.875H243.5V6H244.5V5.875H244.875V5.5H245V4.5H244.875V3.5H245V2.5H244.875V1.5H245V0.5H244.875V0.125H244.5V0H243.5V0.125H242.5V0H241.5V0.125H240.5V0H239.5V0.125H238.5V0H237.5V0.125H236.5V0H235.5V0.125H234.5V0H233.5V0.125H232.5V0H231.5V0.125H230.5V0H229.5V0.125H228.5V0H227.5V0.125H226.5V0H225.5V0.125H224.5V0H223.5V0.125H222.5V0H221.5V0.125H220.5V0H219.5V0.125H218.5V0H217.5V0.125H216.5V0H215.5V0.125H214.5V0H213.5V0.125H212.5V0H211.5V0.125H210.5V0H209.5V0.125H208.5V0H207.5V0.125H206.5V0H205.5V0.125H204.5V0H203.5V0.125H202.5V0H201.5V0.125H200.5V0H199.5V0.125H198.5V0H197.5V0.125H196.5V0H195.5V0.125H195.125V0.5H195Z" fill="white" stroke="black" stroke-width="0.25" stroke-dasharray="1 1"/>
<path d="M325 0.5V1.5H325.125V2.5H325V3.5H325.125V4.5H325V5.5H325.125V5.875H325.5V6H326.5V5.875H327.5V6H328.5V5.875H329.5V6H330.5V5.875H331.5V6H332.5V5.875H333.5V6H334.5V5.875H335.5V6H336.5V5.875H337.5V6H338.5V5.875H339.5V6H340.5V5.875H341.5V6H342.5V5.875H343.5V6H344.5V5.875H345.5V6H346.5V5.875H347.5V6H348.5V5.875H349.5V6H350.5V5.875H351.5V6H352.5V5.875H353.5V6H354.5V5.875H355.5V6H356.5V5.875H357.5V6H358.5V5.875H359.5V6H360.5V5.875H361.5V6H362.5V5.875H363.5V6H364.5V5.875H365.5V6H366.5V5.875H367.5V6H368.5V5.875H369.5V6H370.5V5.875H371.5V6H372.5V5.875H373.5V6H374.5V5.875H374.875V5.5H375V4.5H374.875V3.5H375V2.5H374.875V1.5H375V0.5H374.875V0.125H374.5V0H373.5V0.125H372.5V0H371.5V0.125H370.5V0H369.5V0.125H368.5V0H367.5V0.125H366.5V0H365.5V0.125H364.5V0H363.5V0.125H362.5V0H361.5V0.125H360.5V0H359.5V0.125H358.5V0H357.5V0.125H356.5V0H355.5V0.125H354.5V0H353.5V0.125H352.5V0H351.5V0.125H350.5V0H349.5V0.125H348.5V0H347.5V0.125H346.5V0H345.5V0.125H344.5V0H343.5V0.125H342.5V0H341.5V0.125H340.5V0H339.5V0.125H338.5V0H337.5V0.125H336.5V0H335.5V0.125H334.5V0H333.5V0.125H332.5V0H331.5V0.125H330.5V0H329.5V0.125H328.5V0H327.5V0.125H326.5V0H325.5V0.125H325.125V0.5H325Z" fill="white" stroke="black" stroke-width="0.25" stroke-dasharray="1 1"/>
<path d="M260 0.5V1.5H260.125V2.5H260V3.5H260.125V4.5H260V5.5H260.125V5.875H260.5V6H261.5V5.875H262.5V6H263.5V5.875H264.5V6H265.5V5.875H266.5V6H267.5V5.875H268.5V6H269.5V5.875H270.5V6H271.5V5.875H272.5V6H273.5V5.875H274.5V6H275.5V5.875H276.5V6H277.5V5.875H278.5V6H279.5V5.875H280.5V6H281.5V5.875H282.5V6H283.5V5.875H284.5V6H285.5V5.875H286.5V6H287.5V5.875H288.5V6H289.5V5.875H290.5V6H291.5V5.875H292.5V6H293.5V5.875H294.5V6H295.5V5.875H296.5V6H297.5V5.875H298.5V6H299.5V5.875H300.5V6H301.5V5.875H302.5V6H303.5V5.875H304.5V6H305.5V5.875H306.5V6H307.5V5.875H308.5V6H309.5V5.875H309.875V5.5H310V4.5H309.875V3.5H310V2.5H309.875V1.5H310V0.5H309.875V0.125H309.5V0H308.5V0.125H307.5V0H306.5V0.125H305.5V0H304.5V0.125H303.5V0H302.5V0.125H301.5V0H300.5V0.125H299.5V0H298.5V0.125H297.5V0H296.5V0.125H295.5V0H294.5V0.125H293.5V0H292.5V0.125H291.5V0H290.5V0.125H289.5V0H288.5V0.125H287.5V0H286.5V0.125H285.5V0H284.5V0.125H283.5V0H282.5V0.125H281.5V0H280.5V0.125H279.5V0H278.5V0.125H277.5V0H276.5V0.125H275.5V0H274.5V0.125H273.5V0H272.5V0.125H271.5V0H270.5V0.125H269.5V0H268.5V0.125H267.5V0H266.5V0.125H265.5V0H264.5V0.125H263.5V0H262.5V0.125H261.5V0H260.5V0.125H260.125V0.5H260Z" fill="white" stroke="black" stroke-width="0.25" stroke-dasharray="1 1"/>
</svg>
