<svg width="12" height="12" viewBox="0 0 12 12" fill="none" xmlns="http://www.w3.org/2000/svg">
<g clip-path="url(#clip0_467_538)">
<path d="M0 11.96L1.62 10.39L10.28 10.35L11.92 11.94L12 11.96H0Z" fill="white"/>
<path d="M10.32 10.37C10.33 10.38 10.34 10.39 10.35 10.4C10.86 10.91 11.38 11.42 11.89 11.93H10.47H6.97H6.87H2.06H0.1C0.61 11.42 1.12 10.91 1.63 10.4C1.64 10.39 1.65 10.38 1.66 10.36H1.69H5.98H10.27L10.32 10.37ZM10.34 10.32C10.32 10.32 10.3 10.32 10.28 10.32C8.85 10.32 7.42 10.32 5.99 10.32C4.56 10.32 3.13 10.32 1.7 10.32C1.68 10.32 1.66 10.32 1.64 10.32C1.62 10.34 1.61 10.36 1.59 10.37C1.07 10.88 0.56 11.4 0.04 11.91C0.04 11.93 0.02 11.95 0 11.96C0 11.97 0 11.98 0 11.99C2.29 11.99 4.58 11.99 6.87 11.99C6.9 11.99 6.93 11.99 6.97 11.99C8.65 11.99 10.33 11.99 12 11.99C12 11.98 12 11.97 12 11.96C11.98 11.95 11.96 11.93 11.94 11.92C11.42 11.4 10.9 10.89 10.38 10.37C10.37 10.35 10.36 10.34 10.34 10.32Z" fill="#231F20"/>
<path d="M1.71002 1.64003L1.60002 1.58003L0.0800171 0.0700293L11.99 0.0300293L10.38 1.58003L10.27 1.64003H5.99002H1.71002Z" fill="white"/>
<path d="M11.88 0.05C11.37 0.55 10.87 1.06 10.36 1.56C10.35 1.57 10.33 1.58 10.32 1.59L10.31 1.6H10.3C10.29 1.6 10.28 1.61 10.27 1.61H5.99H1.71C1.7 1.61 1.69 1.61 1.68 1.6H1.67H1.66C1.64 1.59 1.63 1.57 1.62 1.56L0.84 0.78L0.1 0.05H11.88ZM0.03 0C0.02 0 0.02 0 0.01 0C0.01 0 0 0.02 0 0.03C0.02 0.05 0.04 0.07 0.07 0.09C0.58 0.59 1.08 1.1 1.59 1.6C1.6 1.62 1.62 1.63 1.65 1.65C1.67 1.65 1.69 1.66 1.72 1.66C3.15 1.66 4.57 1.66 6 1.66C7.43 1.66 8.85 1.66 10.28 1.66C10.3 1.66 10.32 1.65 10.35 1.65C10.37 1.63 10.39 1.61 10.41 1.6C10.92 1.09 11.43 0.58 11.94 0.08C11.96 0.06 11.98 0.03 12 0.01C8.01 0 4.03 0 0.06 0C0.05 0 0.04 0 0.03 0Z" fill="#231F20"/>
<path d="M10.4101 10.36L10.3701 1.69997L10.4201 1.61997L11.9501 0.0899658L11.9701 11.91L10.4101 10.36Z" fill="white"/>
<path d="M11.95 0.12999V11.86C11.44 11.35 10.93 10.84 10.42 10.33C10.41 10.32 10.4 10.31 10.39 10.3V10.27V1.69999V1.66999C10.41 1.65999 10.42 1.63999 10.43 1.62999C10.94 1.12999 11.45 0.62999 11.95 0.12999ZM11.99 -9.76585e-06C11.97 0.0199902 11.96 0.0499902 11.93 0.0699902C11.42 0.57999 10.91 1.08999 10.4 1.58999C10.38 1.60999 10.36 1.62999 10.34 1.63999C10.34 1.65999 10.34 1.66999 10.34 1.68999C10.34 4.54999 10.34 7.40999 10.34 10.26C10.34 10.27 10.34 10.29 10.34 10.3C10.35 10.32 10.37 10.33 10.38 10.35C10.9 10.87 11.42 11.38 11.94 11.9C11.96 11.92 11.98 11.93 12 11.94C12 7.96999 12 3.99999 12 0.0399902C12 0.0199902 12 0.00999023 12 -0.0100098C12 -9.76585e-06 11.99 -9.76585e-06 11.99 -9.76585e-06Z" fill="#231F20"/>
<path d="M0.0200195 0.0299683L1.53002 1.57997L1.61002 1.64997L1.62002 10.3L0.0300195 11.9L0.0200195 11.96V0.0299683Z" fill="white"/>
<path d="M0.05 0.139968L0.77 0.849968L1.55 1.62997C1.57 1.63997 1.58 1.65997 1.6 1.66997V1.72997V9.33997V9.99997V10.29C1.59 10.3 1.58 10.31 1.57 10.32C1.07 10.82 0.56 11.33 0.06 11.83V0.139968M0 0.0299683C0 3.99997 0 7.97997 0 11.96C0.02 11.94 0.04 11.93 0.05 11.91C0.57 11.4 1.08 10.88 1.6 10.37C1.62 10.35 1.63 10.34 1.65 10.32C1.65 9.99997 1.65 9.67997 1.65 9.34997C1.65 6.80997 1.65 4.26997 1.65 1.73997C1.65 1.70997 1.65 1.67997 1.65 1.64997C1.62 1.62997 1.6 1.61997 1.58 1.59997C1.07 1.09997 0.57 0.589968 0.06 0.0899683C0.04 0.0599683 0.02 0.0499683 0 0.0299683Z" fill="#231F20"/>
<path d="M0 11.99C2.29 11.99 4.58 11.99 6.87 11.99C8.58 11.99 10.29 11.99 12 11.99C12 11.99 12 12 11.99 12C11.97 12 11.96 12 11.94 12C7.98 12 4.02 12 0.05 12C0.04 12 0.02 11.99 0 11.99Z" fill="white"/>
<path d="M6.97 11.99C6.94 11.99 6.91 11.99 6.87 11.99C4.58 11.99 2.29 11.99 0 11.99C0.02 11.99 0.04 12 0.06 12C3.75 12 7.44 12 11.13 12C11.4 12 11.68 12 11.95 12C11.96 12 11.97 12 11.97 12C11.98 12 11.99 12 12 12C12 12 12 11.99 12.01 11.99C10.32 11.99 8.64 11.99 6.97 11.99Z" fill="#231F20"/>
<path d="M1.65002 10.32C1.65002 9.99996 1.65002 9.67996 1.65002 9.34996C1.65002 6.80996 1.65002 4.26996 1.65002 1.73996C1.65002 1.70996 1.65002 1.67996 1.65002 1.64996C1.67002 1.64996 1.69002 1.65996 1.72002 1.65996C4.57002 1.65996 7.43002 1.65996 10.28 1.65996C10.3 1.65996 10.32 1.64996 10.35 1.64996C10.35 1.66996 10.35 1.67996 10.35 1.69996C10.35 4.55996 10.35 7.40996 10.35 10.27C10.35 10.28 10.35 10.3 10.35 10.31C10.33 10.31 10.31 10.31 10.29 10.31C7.43002 10.31 4.57002 10.31 1.71002 10.31C1.68002 10.32 1.66002 10.32 1.65002 10.32ZM10.32 10.3C10.32 10.28 10.33 10.25 10.33 10.23C10.33 7.40996 10.33 4.57996 10.33 1.75996C10.33 1.73996 10.33 1.71996 10.33 1.69996C10.33 1.69996 10.32 1.69996 10.31 1.69996C10.29 1.69996 10.27 1.68996 10.25 1.68996C7.42002 1.68996 4.58002 1.68996 1.75002 1.68996C1.73002 1.68996 1.71002 1.69996 1.69002 1.69996C1.64002 1.69996 1.67002 1.72996 1.67002 1.74996C1.67002 4.57996 1.67002 7.41996 1.67002 10.25C1.67002 10.27 1.68002 10.29 1.68002 10.31C1.70002 10.31 1.72002 10.32 1.74002 10.32C4.58002 10.32 7.43003 10.32 10.27 10.32C10.28 10.31 10.3 10.3 10.32 10.3Z" fill="white"/>
<path d="M1.65001 1.64996C1.65001 1.67996 1.65001 1.70996 1.65001 1.73996C1.65001 4.27996 1.65001 6.81996 1.65001 9.34996C1.65001 9.66996 1.65001 9.98996 1.65001 10.32C1.67001 10.32 1.69001 10.32 1.71001 10.32C3.06001 10.32 4.41001 10.32 5.76002 10.32C7.27002 10.32 8.78001 10.32 10.29 10.32C10.31 10.32 10.33 10.32 10.35 10.32C10.35 10.31 10.35 10.29 10.35 10.28C10.35 7.41996 10.35 4.55996 10.35 1.70996C10.35 1.68996 10.35 1.67996 10.35 1.65996C10.33 1.65996 10.31 1.66996 10.28 1.66996C8.85001 1.66996 7.43001 1.66996 6.00001 1.66996C4.57001 1.66996 3.15001 1.66996 1.72001 1.66996C1.69001 1.66996 1.67001 1.65996 1.65001 1.64996ZM1.68001 1.68996C1.70001 1.68996 1.72001 1.67996 1.74001 1.67996C3.16001 1.67996 4.59002 1.67996 6.01002 1.67996C7.42001 1.67996 8.83001 1.67996 10.24 1.67996C10.26 1.67996 10.28 1.68996 10.3 1.68996C10.31 1.68996 10.32 1.68996 10.32 1.68996C10.32 1.70996 10.32 1.72996 10.32 1.74996C10.32 4.56996 10.32 7.39996 10.32 10.22C10.32 10.24 10.31 10.27 10.31 10.29C10.29 10.29 10.27 10.3 10.25 10.3C8.83001 10.3 7.41001 10.3 5.98001 10.3C4.55001 10.3 3.14001 10.3 1.71001 10.3C1.69001 10.3 1.67001 10.29 1.65001 10.29C1.65001 10.27 1.64001 10.25 1.64001 10.23C1.64001 7.39996 1.64001 4.55996 1.64001 1.72996C1.66001 1.72996 1.64001 1.68996 1.68001 1.68996Z" fill="#231F20"/>
<path d="M1.69 1.73999L1.78 1.81999L2.02 2.05999L2.01 9.92999L1.84 10.1L1.69 10.24V1.73999Z" fill="white"/>
<path d="M1.71003 1.79L1.77003 1.85L1.99003 2.07V2.13V9.15V9.68V9.92L1.71003 10.2C1.71003 7.39 1.71003 4.59 1.71003 1.79ZM1.68003 1.69C1.64003 1.69 1.66003 1.72 1.66003 1.74C1.66003 4.57 1.66003 7.41 1.66003 10.24C1.66003 10.26 1.67003 10.28 1.67003 10.3C1.79003 10.18 1.92003 10.06 2.04003 9.93C2.04003 9.67 2.04003 9.41 2.04003 9.15C2.04003 6.81 2.04003 4.47 2.04003 2.13C2.04003 2.1 2.04003 2.08 2.04003 2.05C1.92003 1.93 1.80003 1.81 1.68003 1.69Z" fill="#231F20"/>
<path d="M9.97003 9.91002V2.10002L10.32 1.71002L10.3 10.23L10.33 10.28L9.97003 9.91002Z" fill="white"/>
<path d="M10.28 1.79C10.28 4.59 10.28 7.39 10.28 10.19L10.17 10.08L10 9.91V9.89V2.1V2.07L10.22 1.85L10.28 1.79ZM10.3 1.69C10.18 1.81 10.06 1.93 9.94 2.04C9.94 2.06 9.94 2.07 9.94 2.09C9.94 4.69 9.94 7.28 9.94 9.88C9.94 9.89 9.94 9.91 9.94 9.92C10.06 10.04 10.19 10.16 10.31 10.29C10.31 10.27 10.32 10.24 10.32 10.22C10.32 7.4 10.32 4.57 10.32 1.75C10.32 1.73 10.32 1.71 10.32 1.69C10.33 1.69 10.31 1.69 10.3 1.69Z" fill="#231F20"/>
<path d="M10.26 10.28H1.72998L1.86998 10.13L2.05998 9.95001L9.88998 9.96001L10.3 10.31L10.26 10.28Z" fill="white"/>
<path d="M2.05998 9.97999H2.09998H6.20998H9.88998H9.92998L10.1 10.15L10.21 10.26H5.99998H1.78998L2.05998 9.97999ZM9.94998 9.92999C9.92998 9.92999 9.90998 9.92999 9.88998 9.92999C8.65998 9.92999 7.42998 9.92999 6.20998 9.92999C4.83998 9.92999 3.46998 9.92999 2.09998 9.92999C2.07998 9.92999 2.05998 9.92999 2.03998 9.92999C1.91998 10.05 1.78998 10.17 1.66998 10.3C1.68998 10.3 1.70998 10.31 1.72998 10.31C3.14998 10.31 4.56998 10.31 5.99998 10.31C7.42998 10.31 8.83998 10.31 10.27 10.31C10.29 10.31 10.31 10.3 10.33 10.3C10.19 10.17 10.07 10.05 9.94998 9.92999Z" fill="#231F20"/>
<path d="M1.89001 1.85998L1.70001 1.66998L5.99001 1.69998H10.25L9.94001 2.01998H2.04001L1.89001 1.85998Z" fill="white"/>
<path d="M6.02 1.72999H10.2L10.16 1.76999L9.93 1.98999H9.92H9.86H6.39H3.53H2.52L2.06 1.99999L1.84 1.76999L1.79 1.72999H6.02ZM6.02 1.67999C4.6 1.67999 3.17 1.67999 1.75 1.67999C1.73 1.67999 1.71 1.68999 1.69 1.68999C1.8 1.80999 1.92 1.92999 2.04 2.04999C2.54 2.04999 3.04 2.04999 3.53 2.04999C4.49 2.04999 5.44 2.04999 6.39 2.04999C7.55 2.04999 8.7 2.04999 9.86 2.04999C9.89 2.04999 9.91 2.04999 9.94 2.04999C10.06 1.92999 10.18 1.80999 10.3 1.69999C10.28 1.69999 10.26 1.68999 10.24 1.68999C8.84 1.67999 7.43 1.67999 6.02 1.67999Z" fill="#231F20"/>
<path d="M3.22999 9.38001L9.91999 9.40001V9.42001L3.22999 9.38001ZM8.74999 8.33001L3.47999 8.29001L9.90999 8.31001V8.33001H8.74999ZM8.75999 7.24001L3.22999 7.21001L9.89999 7.23001V7.25001L8.75999 7.24001ZM8.87999 6.16001L3.10999 6.12001L9.89999 6.14001V6.16001H8.87999ZM8.00999 5.07001L3.10999 5.04001L9.88999 5.06001V5.08001L8.00999 5.07001ZM8.98999 3.99001L3.37999 3.95001L9.87999 3.97001V3.99001H8.98999ZM8.98999 2.91001L3.25999 2.86001L9.87999 2.88001V2.90001L8.98999 2.91001ZM8.13999 2.07001H9.86999V2.08001L8.13999 2.07001Z" fill="white"/>
<path d="M6.21998 2.03998C5.31998 2.03998 4.42998 2.03998 3.52998 2.03998C3.02998 2.03998 2.52998 2.03998 2.03998 2.03998C2.03998 2.06998 2.03998 2.08998 2.03998 2.11998C2.03998 4.45998 2.03998 6.79998 2.03998 9.13998C2.03998 9.39998 2.03998 9.65998 2.03998 9.91998C2.05998 9.91998 2.07998 9.91998 2.09998 9.91998C3.39998 9.91998 4.69998 9.91998 5.99998 9.91998C7.29998 9.91998 8.59998 9.91998 9.89998 9.91998C9.91998 9.91998 9.93998 9.91998 9.95998 9.91998C9.95998 9.90998 9.95998 9.88998 9.95998 9.87998C9.95998 7.27998 9.95998 4.68998 9.95998 2.08998C9.95998 2.06998 9.95998 2.05998 9.95998 2.03998C9.92998 2.03998 9.90998 2.03998 9.87998 2.03998C8.64998 2.03998 7.43998 2.03998 6.21998 2.03998ZM2.04998 2.55998C2.04998 2.39998 2.04998 2.23998 2.04998 2.07998C4.66998 2.07998 7.29998 2.07998 9.92998 2.07998C9.92998 2.23998 9.92998 2.39998 9.92998 2.55998C7.30998 2.55998 4.67998 2.55998 2.04998 2.55998ZM2.04998 2.85998C2.04998 2.75998 2.04998 2.66998 2.04998 2.57998C4.67998 2.57998 7.29998 2.57998 9.92998 2.57998C9.92998 2.66998 9.92998 2.75998 9.92998 2.85998C7.30998 2.85998 4.67998 2.85998 2.04998 2.85998ZM2.06998 2.88998C2.06998 2.87998 2.06998 2.87998 2.06998 2.88998C4.67998 2.87998 7.29998 2.87998 9.91998 2.87998C9.91998 2.87998 9.91998 2.87998 9.91998 2.88998C7.29998 2.88998 4.67998 2.88998 2.06998 2.88998ZM2.04998 3.39998C2.04998 3.22998 2.04998 3.06998 2.04998 2.90998C4.67998 2.90998 7.29998 2.90998 9.92998 2.90998C9.92998 3.06998 9.92998 3.23998 9.92998 3.39998C7.30998 3.39998 4.67998 3.39998 2.04998 3.39998ZM2.04998 3.63998C2.04998 3.56998 2.04998 3.49998 2.04998 3.41998C4.66998 3.41998 7.29998 3.41998 9.92998 3.41998C9.92998 3.48998 9.92998 3.55998 9.92998 3.63998C7.30998 3.63998 4.67998 3.63998 2.04998 3.63998ZM2.04998 3.94998C2.04998 3.85998 2.04998 3.75998 2.04998 3.66998C4.66998 3.66998 7.29998 3.66998 9.92998 3.66998C9.92998 3.75998 9.92998 3.85998 9.92998 3.94998C7.30998 3.94998 4.67998 3.94998 2.04998 3.94998ZM2.06998 3.96998C4.67998 3.96998 7.29998 3.96998 9.91998 3.96998C9.91998 3.96998 9.91998 3.96998 9.91998 3.97998C7.29998 3.96998 4.67998 3.96998 2.06998 3.96998ZM2.04998 4.48998C2.04998 4.32998 2.04998 4.15998 2.04998 3.99998C4.66998 3.99998 7.29998 3.99998 9.92998 3.99998C9.92998 4.16998 9.92998 4.32998 9.92998 4.48998C7.30998 4.48998 4.67998 4.48998 2.04998 4.48998ZM2.04998 4.72998C2.04998 4.65998 2.04998 4.58998 2.04998 4.50998C4.66998 4.50998 7.29998 4.50998 9.92998 4.50998C9.92998 4.57998 9.92998 4.64998 9.92998 4.72998C7.30998 4.72998 4.67998 4.72998 2.04998 4.72998ZM2.04998 5.02998C2.04998 4.92998 2.04998 4.83998 2.04998 4.74998C4.67998 4.74998 7.29998 4.74998 9.92998 4.74998C9.92998 4.83998 9.92998 4.93998 9.92998 5.02998C7.30998 5.02998 4.67998 5.02998 2.04998 5.02998ZM2.06998 5.05998C4.67998 5.04998 7.29998 5.04998 9.91998 5.04998C9.91998 5.04998 9.91998 5.04998 9.91998 5.05998C7.29998 5.05998 4.67998 5.05998 2.06998 5.05998ZM2.05998 5.56998C2.05998 5.40998 2.05998 5.23998 2.05998 5.06998C4.68998 5.06998 7.30998 5.06998 9.93998 5.06998C9.93998 5.23998 9.93998 5.39998 9.93998 5.56998C7.30998 5.56998 4.67998 5.56998 2.05998 5.56998ZM2.05998 5.81998C2.05998 5.74998 2.05998 5.66998 2.05998 5.59998C4.67998 5.59998 7.30998 5.59998 9.93998 5.59998C9.93998 5.66998 9.93998 5.73998 9.93998 5.81998C7.29998 5.81998 4.67998 5.81998 2.05998 5.81998ZM2.04998 6.11998C2.04998 6.01998 2.04998 5.92998 2.04998 5.83998C4.67998 5.83998 7.29998 5.83998 9.92998 5.83998C9.92998 5.92998 9.92998 6.02998 9.92998 6.11998C7.30998 6.11998 4.67998 6.11998 2.04998 6.11998ZM2.06998 6.13998C4.67998 6.13998 7.29998 6.13998 9.91998 6.13998C9.91998 6.13998 9.91998 6.13998 9.91998 6.14998C7.29998 6.13998 4.67998 6.13998 2.06998 6.13998ZM2.04998 6.65998C2.04998 6.49998 2.04998 6.32998 2.04998 6.16998C4.66998 6.16998 7.29998 6.16998 9.92998 6.16998C9.92998 6.33998 9.92998 6.49998 9.92998 6.65998C7.30998 6.65998 4.67998 6.65998 2.04998 6.65998ZM2.04998 6.89998C2.04998 6.82998 2.04998 6.74998 2.04998 6.67998C4.67998 6.67998 7.29998 6.67998 9.92998 6.67998C9.92998 6.74998 9.92998 6.81998 9.92998 6.89998C7.30998 6.89998 4.67998 6.89998 2.04998 6.89998ZM2.04998 7.19998C2.04998 7.09998 2.04998 7.00998 2.04998 6.91998C4.66998 6.91998 7.29998 6.91998 9.92998 6.91998C9.92998 7.00998 9.92998 7.09998 9.92998 7.19998C7.30998 7.19998 4.67998 7.19998 2.04998 7.19998ZM2.06998 7.22998C4.67998 7.21998 7.29998 7.21998 9.91998 7.21998C9.91998 7.21998 9.91998 7.21998 9.91998 7.22998C7.29998 7.22998 4.67998 7.22998 2.06998 7.22998ZM2.04998 7.73998C2.04998 7.56998 2.04998 7.40998 2.04998 7.24998C4.67998 7.24998 7.29998 7.24998 9.92998 7.24998C9.92998 7.40998 9.92998 7.57998 9.92998 7.73998C7.30998 7.73998 4.67998 7.73998 2.04998 7.73998ZM2.04998 7.97998C2.04998 7.90998 2.04998 7.83998 2.04998 7.75998C4.67998 7.75998 7.29998 7.75998 9.92998 7.75998C9.92998 7.82998 9.92998 7.89998 9.92998 7.97998C7.30998 7.97998 4.67998 7.97998 2.04998 7.97998ZM2.04998 8.28998C2.04998 8.19998 2.04998 8.09998 2.04998 8.00998C4.67998 7.99998 7.29998 7.99998 9.92998 7.99998C9.92998 8.09998 9.92998 8.18998 9.92998 8.27998C7.30998 8.28998 4.67998 8.28998 2.04998 8.28998ZM2.06998 8.30998C4.67998 8.30998 7.29998 8.30998 9.91998 8.30998C9.91998 8.30998 9.91998 8.30998 9.91998 8.31998C7.29998 8.30998 4.67998 8.30998 2.06998 8.30998ZM2.04998 8.82998C2.04998 8.66998 2.04998 8.49998 2.04998 8.33998C4.66998 8.33998 7.29998 8.33998 9.92998 8.33998C9.92998 8.50998 9.92998 8.66998 9.92998 8.82998C7.30998 8.82998 4.67998 8.82998 2.04998 8.82998ZM2.04998 9.06998C2.04998 8.99998 2.04998 8.92998 2.04998 8.84998C4.67998 8.84998 7.29998 8.84998 9.92998 8.84998C9.92998 8.91998 9.92998 8.98998 9.92998 9.06998C7.30998 9.06998 4.67998 9.06998 2.04998 9.06998ZM2.04998 9.36998C2.04998 9.26998 2.04998 9.17998 2.04998 9.08998C4.67998 9.08998 7.29998 9.08998 9.92998 9.08998C9.92998 9.17998 9.92998 9.27998 9.92998 9.36998C7.30998 9.36998 4.67998 9.36998 2.04998 9.36998ZM2.06998 9.39998C4.67998 9.38998 7.29998 9.38998 9.91998 9.38998C9.91998 9.38998 9.91998 9.38998 9.91998 9.39998C7.29998 9.39998 4.67998 9.39998 2.06998 9.39998ZM2.04998 9.90998C2.04998 9.73998 2.04998 9.57998 2.04998 9.41998C4.67998 9.41998 7.29998 9.41998 9.92998 9.41998C9.92998 9.57998 9.92998 9.74998 9.92998 9.90998C7.30998 9.90998 4.67998 9.90998 2.04998 9.90998Z" fill="#231F20"/>
<path d="M2.04999 9.88998L2.07999 9.41998L9.92999 9.43998L9.90999 9.88998H2.04999Z" fill="white"/>
<path d="M9.87999 9.46998V9.85998H2.09999V9.46998H9.87999ZM9.92999 9.41998C7.29999 9.41998 4.67999 9.41998 2.04999 9.41998C2.04999 9.58998 2.04999 9.74998 2.04999 9.90998C4.67999 9.90998 7.30999 9.90998 9.92999 9.90998C9.92999 9.73998 9.92999 9.57998 9.92999 9.41998Z" fill="#231F20"/>
<path d="M2.04999 3.37997L2.07999 2.90997L9.92999 2.92997L9.90999 3.37997H2.04999Z" fill="white"/>
<path d="M9.87999 2.95997V3.34997H2.09999V2.95997H9.87999ZM9.92999 2.90997C7.29999 2.90997 4.67999 2.90997 2.04999 2.90997C2.04999 3.07997 2.04999 3.23997 2.04999 3.39997C4.67999 3.39997 7.30999 3.39997 9.92999 3.39997C9.92999 3.22997 9.92999 3.06997 9.92999 2.90997Z" fill="#231F20"/>
<path d="M2.06 5.55001L2.08 5.07001L9.93 5.10001L9.91 5.55001H2.06Z" fill="white"/>
<path d="M9.87999 5.12001V5.52001H2.10999V5.12001H9.87999ZM9.92999 5.07001C7.29999 5.07001 4.67999 5.07001 2.04999 5.07001C2.04999 5.24001 2.04999 5.41001 2.04999 5.57001C4.67999 5.57001 7.29999 5.57001 9.92999 5.57001C9.92999 5.41001 9.92999 5.24001 9.92999 5.07001Z" fill="#231F20"/>
<path d="M2.04999 6.62997L2.07999 6.15997L9.92999 6.18997L9.90999 6.62997H2.04999Z" fill="white"/>
<path d="M9.87999 6.20997V6.59997H2.09999V6.20997H9.87999ZM9.92999 6.15997C7.29999 6.15997 4.66999 6.15997 2.04999 6.15997C2.04999 6.32997 2.04999 6.48997 2.04999 6.64997C4.67999 6.64997 7.29999 6.64997 9.92999 6.64997C9.92999 6.48997 9.92999 6.32997 9.92999 6.15997Z" fill="#231F20"/>
<path d="M2.04999 7.72L2.07999 7.25L9.92999 7.27L9.90999 7.72H2.04999Z" fill="white"/>
<path d="M9.87999 7.3V7.69H2.09999V7.3H9.87999ZM9.92999 7.25C7.29999 7.25 4.67999 7.25 2.04999 7.25C2.04999 7.42 2.04999 7.58 2.04999 7.74C4.67999 7.74 7.30999 7.74 9.92999 7.74C9.92999 7.57 9.92999 7.41 9.92999 7.25Z" fill="#231F20"/>
<path d="M2.04999 4.45999L2.07999 3.98999L9.92999 4.01999L9.90999 4.45999H2.04999Z" fill="white"/>
<path d="M9.87999 4.03999V4.42999H2.09999V4.03999H9.87999ZM9.92999 3.98999C7.29999 3.98999 4.66999 3.98999 2.04999 3.98999C2.04999 4.15999 2.04999 4.31999 2.04999 4.47999C4.67999 4.47999 7.29999 4.47999 9.92999 4.47999C9.92999 4.31999 9.92999 4.15999 9.92999 3.98999Z" fill="#231F20"/>
<path d="M2.04999 8.80002L2.07999 8.33002L9.92999 8.36002L9.90999 8.80002H2.04999Z" fill="white"/>
<path d="M9.87999 8.38002V8.77002H2.09999V8.38002H9.87999ZM9.92999 8.33002C7.29999 8.33002 4.66999 8.33002 2.04999 8.33002C2.04999 8.50002 2.04999 8.66002 2.04999 8.82002C4.67999 8.82002 7.29999 8.82002 9.92999 8.82002C9.92999 8.66002 9.92999 8.50002 9.92999 8.33002Z" fill="#231F20"/>
<path d="M2.04999 2.53002L2.07999 2.08002L9.92999 2.10002L9.90999 2.53002H2.04999Z" fill="white"/>
<path d="M9.87999 2.13002V2.51002H2.09999V2.13002H9.87999ZM9.92999 2.08002C7.29999 2.08002 4.66999 2.08002 2.04999 2.08002C2.04999 2.24002 2.04999 2.40002 2.04999 2.56002C4.67999 2.56002 7.29999 2.56002 9.92999 2.56002C9.92999 2.39002 9.92999 2.24002 9.92999 2.08002Z" fill="#231F20"/>
<path d="M2.04999 2.84002L2.07999 2.58002L9.92999 2.60002L9.90999 2.84002H2.04999Z" fill="white"/>
<path d="M9.87999 2.63002V2.81002H2.09999V2.63002H9.87999ZM9.92999 2.58002C7.29999 2.58002 4.67999 2.58002 2.04999 2.58002C2.04999 2.67002 2.04999 2.77002 2.04999 2.86002C4.67999 2.86002 7.29999 2.86002 9.92999 2.86002C9.92999 2.76002 9.92999 2.67002 9.92999 2.58002Z" fill="#231F20"/>
<path d="M2.04999 3.91998L2.07999 3.66998L9.92999 3.68998L9.90999 3.91998H2.04999Z" fill="white"/>
<path d="M9.87999 3.70997V3.89997H2.09999V3.70997H9.87999ZM9.92999 3.65997C7.29999 3.65997 4.66999 3.65997 2.04999 3.65997C2.04999 3.75997 2.04999 3.84997 2.04999 3.93997C4.67999 3.93997 7.29999 3.93997 9.92999 3.93997C9.92999 3.84997 9.92999 3.75997 9.92999 3.65997Z" fill="#231F20"/>
<path d="M2.04999 5.01L2.07999 4.75L9.92999 4.77L9.90999 5.01H2.04999Z" fill="white"/>
<path d="M9.87999 4.8V4.98H2.09999V4.8H9.87999ZM9.92999 4.75C7.29999 4.75 4.67999 4.75 2.04999 4.75C2.04999 4.84 2.04999 4.94 2.04999 5.03C4.67999 5.03 7.29999 5.03 9.92999 5.03C9.92999 4.93 9.92999 4.84 9.92999 4.75Z" fill="#231F20"/>
<path d="M2.04999 7.17998L2.07999 6.91998L9.92999 6.94998L9.90999 7.17998H2.04999Z" fill="white"/>
<path d="M9.87999 6.96998V7.14998H2.09999V6.96998H9.87999ZM9.92999 6.91998C7.29999 6.91998 4.67999 6.91998 2.04999 6.91998C2.04999 7.01998 2.04999 7.10998 2.04999 7.19998C4.67999 7.19998 7.29999 7.19998 9.92999 7.19998C9.92999 7.09998 9.92999 7.00998 9.92999 6.91998Z" fill="#231F20"/>
<path d="M2.04999 6.09002L2.07999 5.83002L9.92999 5.86002L9.90999 6.09002H2.04999Z" fill="white"/>
<path d="M9.87999 5.88002V6.06002H2.09999V5.88002H9.87999ZM9.92999 5.83002C7.29999 5.83002 4.67999 5.83002 2.04999 5.83002C2.04999 5.92002 2.04999 6.02002 2.04999 6.11002C4.67999 6.11002 7.29999 6.11002 9.92999 6.11002C9.92999 6.02002 9.92999 5.93002 9.92999 5.83002Z" fill="#231F20"/>
<path d="M2.04999 8.26L2.07999 8L9.92999 8.03L9.90999 8.26H2.04999Z" fill="white"/>
<path d="M9.87999 8.05V8.23H2.09999V8.05H9.87999ZM9.92999 8C7.29999 8 4.67999 8 2.04999 8C2.04999 8.1 2.04999 8.19 2.04999 8.28C4.67999 8.28 7.29999 8.28 9.92999 8.28C9.92999 8.19 9.92999 8.1 9.92999 8Z" fill="#231F20"/>
<path d="M2.04999 9.34997L2.07999 9.08997L9.92999 9.10997L9.90999 9.34997H2.04999Z" fill="white"/>
<path d="M9.87999 9.13997V9.31997H2.09999V9.13997H9.87999ZM9.92999 9.08997C7.29999 9.08997 4.67999 9.08997 2.04999 9.08997C2.04999 9.17997 2.04999 9.27997 2.04999 9.36997C4.67999 9.36997 7.29999 9.36997 9.92999 9.36997C9.92999 9.26997 9.92999 9.17997 9.92999 9.08997Z" fill="#231F20"/>
<path d="M2.04999 3.61999L2.07999 3.42999L9.92999 3.44999L9.90999 3.61999H2.04999Z" fill="white"/>
<path d="M9.87999 3.47999V3.59999H2.09999V3.47999H9.87999ZM9.92999 3.42999C7.29999 3.42999 4.66999 3.42999 2.04999 3.42999C2.04999 3.50999 2.04999 3.57999 2.04999 3.64999C4.67999 3.64999 7.29999 3.64999 9.92999 3.64999C9.92999 3.56999 9.92999 3.49999 9.92999 3.42999Z" fill="#231F20"/>
<path d="M2.04999 4.70001L2.07999 4.51001L9.92999 4.54001L9.90999 4.70001H2.04999Z" fill="white"/>
<path d="M9.87999 4.56001V4.68001H2.09999V4.56001H9.87999ZM9.92999 4.51001C7.29999 4.51001 4.66999 4.51001 2.04999 4.51001C2.04999 4.59001 2.04999 4.66001 2.04999 4.73001C4.67999 4.73001 7.29999 4.73001 9.92999 4.73001C9.92999 4.65001 9.92999 4.58001 9.92999 4.51001Z" fill="#231F20"/>
<path d="M2.04999 6.86999L2.07999 6.67999L9.92999 6.69999L9.90999 6.86999H2.04999Z" fill="white"/>
<path d="M9.87999 6.72999V6.84999H2.09999V6.72999H9.87999ZM9.92999 6.67999C7.29999 6.67999 4.67999 6.67999 2.04999 6.67999C2.04999 6.74999 2.04999 6.81999 2.04999 6.89999C4.67999 6.89999 7.29999 6.89999 9.92999 6.89999C9.92999 6.81999 9.92999 6.74999 9.92999 6.67999Z" fill="#231F20"/>
<path d="M2.04999 7.96002L2.07999 7.77002L9.92999 7.79002L9.90999 7.96002H2.04999Z" fill="white"/>
<path d="M9.87999 7.82002V7.94002H2.09999V7.82002H9.87999ZM9.92999 7.77002C7.29999 7.77002 4.67999 7.77002 2.04999 7.77002C2.04999 7.84002 2.04999 7.91002 2.04999 7.99002C4.67999 7.99002 7.30999 7.99002 9.92999 7.99002C9.92999 7.91002 9.92999 7.84002 9.92999 7.77002Z" fill="#231F20"/>
<path d="M2.04999 9.03998L2.07999 8.84998L9.92999 8.87998L9.90999 9.03998H2.04999Z" fill="white"/>
<path d="M9.87999 8.89997V9.01998H2.09999V8.89997H9.87999ZM9.92999 8.84998C7.29999 8.84998 4.67999 8.84998 2.04999 8.84998C2.04999 8.91998 2.04999 8.98997 2.04999 9.06997C4.67999 9.06997 7.30999 9.06997 9.92999 9.06997C9.92999 8.98997 9.92999 8.91998 9.92999 8.84998Z" fill="#231F20"/>
<path d="M2.06 5.78997L2.08 5.58997L9.93 5.61997L9.91 5.78997H2.06Z" fill="white"/>
<path d="M9.87999 5.63997V5.75997H2.10999V5.63997H9.87999ZM9.92999 5.58997C7.29999 5.58997 4.67999 5.58997 2.04999 5.58997C2.04999 5.66997 2.04999 5.73997 2.04999 5.80997C4.67999 5.80997 7.29999 5.80997 9.92999 5.80997C9.92999 5.73997 9.92999 5.66997 9.92999 5.58997Z" fill="#231F20"/>
<path d="M9.92 2.89C7.3 2.89 4.68 2.89 2.06 2.89C2.06 2.89 2.06 2.89 2.06 2.88C4.68 2.88 7.3 2.88 9.92 2.89C9.92 2.88 9.92 2.88 9.92 2.89Z" fill="white"/>
<path d="M9.92 2.88C7.3 2.88 4.68 2.88 2.06 2.88C2.06 2.88 2.06 2.88 2.06 2.89C4.68 2.89 7.3 2.89 9.92 2.88Z" fill="#231F20"/>
<path d="M9.92 3.96996C7.3 3.96996 4.68 3.96996 2.06 3.96996C2.06 3.96996 2.06 3.96996 2.06 3.95996C4.68 3.96996 7.3 3.96996 9.92 3.96996Z" fill="white"/>
<path d="M9.92 3.96997C7.3 3.96997 4.68 3.96997 2.06 3.96997C2.06 3.96997 2.06 3.96997 2.06 3.97997C4.68 3.96997 7.3 3.96997 9.92 3.96997Z" fill="#231F20"/>
<path d="M9.92 7.22997C7.3 7.22997 4.68 7.22997 2.06 7.22997C2.06 7.22997 2.06 7.22997 2.06 7.21997C4.68 7.21997 7.3 7.21997 9.92 7.22997Z" fill="white"/>
<path d="M9.92 7.21997C7.3 7.21997 4.68 7.21997 2.06 7.21997C2.06 7.21997 2.06 7.21997 2.06 7.22997C4.68 7.22997 7.3 7.22997 9.92 7.21997Z" fill="#231F20"/>
<path d="M2.07001 8.31C4.69001 8.31 7.31001 8.31 9.93001 8.31C9.93001 8.31 9.93001 8.31 9.93001 8.32C7.30001 8.31 4.68001 8.31 2.07001 8.31Z" fill="white"/>
<path d="M9.92 8.31C7.3 8.31 4.68 8.31 2.06 8.31C2.06 8.31 2.06 8.31 2.06 8.32C4.68 8.31 7.3 8.31 9.92 8.31Z" fill="#231F20"/>
<path d="M2.07001 6.14001C4.69001 6.14001 7.31001 6.14001 9.93001 6.14001C9.93001 6.14001 9.93001 6.14001 9.93001 6.15001C7.30001 6.14001 4.68001 6.14001 2.07001 6.14001Z" fill="white"/>
<path d="M9.92 6.14001C7.3 6.14001 4.68 6.14001 2.06 6.14001C2.06 6.14001 2.06 6.14001 2.06 6.15001C4.68 6.14001 7.3 6.14001 9.92 6.14001Z" fill="#231F20"/>
<path d="M9.92 9.40001C7.3 9.40001 4.68 9.40001 2.06 9.40001C2.06 9.40001 2.06 9.40001 2.06 9.39001C4.68 9.39001 7.3 9.39001 9.92 9.40001Z" fill="white"/>
<path d="M9.92 9.39001C7.3 9.39001 4.68 9.39001 2.06 9.39001C2.06 9.39001 2.06 9.39001 2.06 9.40001C4.68 9.40001 7.3 9.40001 9.92 9.39001Z" fill="#231F20"/>
<path d="M2.07001 5.04999C4.69001 5.04999 7.31001 5.04999 9.93001 5.04999C9.93001 5.04999 9.93001 5.04999 9.93001 5.05999C7.30001 5.05999 4.68001 5.05999 2.07001 5.04999Z" fill="white"/>
<path d="M9.92 5.04999C7.3 5.04999 4.68 5.04999 2.06 5.04999C2.06 5.04999 2.06 5.04999 2.06 5.05999C4.68 5.05999 7.3 5.05999 9.92 5.04999Z" fill="#231F20"/>
</g>
<defs>
<clipPath id="clip0_467_538">
<rect width="12" height="12" fill="white"/>
</clipPath>
</defs>
</svg>
