<svg width="12" height="12" viewBox="0 0 12 12" fill="none" xmlns="http://www.w3.org/2000/svg">
<g clip-path="url(#clip0_40_8529)">
<path d="M11.9875 0.0124817H0.0124817V11.9875H11.9875V0.0124817Z" fill="white"/>
<path d="M11.9875 0.0124817H0.0124817V11.9875H11.9875V0.0124817Z" stroke="black" stroke-width="0.25" stroke-miterlimit="10"/>
<path d="M10.4907 1.50937H1.50937V10.4907H10.4907V1.50937Z" fill="white"/>
<path d="M10.4907 1.50937H1.50937V10.4907H10.4907V1.50937Z" stroke="black" stroke-width="0.25" stroke-miterlimit="10"/>
<path d="M10.4894 6H1.50937" stroke="black" stroke-width="0.25" stroke-miterlimit="10"/>
<path d="M10.4894 7.49689H1.50937" stroke="black" stroke-width="0.25" stroke-miterlimit="10"/>
<path d="M10.4894 8.99377H1.50937" stroke="black" stroke-width="0.25" stroke-miterlimit="10"/>
<path d="M10.4894 3.00623H1.50937" stroke="black" stroke-width="0.25" stroke-miterlimit="10"/>
<path d="M10.4894 4.50311H1.50937" stroke="black" stroke-width="0.25" stroke-miterlimit="10"/>
<path d="M10.4894 1.50936L11.9875 0.0124817" stroke="black" stroke-width="0.25" stroke-miterlimit="10"/>
<path d="M1.50936 1.50936L0.0124817 0.0124817" stroke="black" stroke-width="0.25" stroke-miterlimit="10"/>
<path d="M1.50936 10.4907L0.0124817 11.9875" stroke="black" stroke-width="0.25" stroke-miterlimit="10"/>
<path d="M10.4894 10.4907L11.9875 11.9875" stroke="black" stroke-width="0.25" stroke-miterlimit="10"/>
<path d="M10.4894 1.88358H1.50937" stroke="black" stroke-width="0.25" stroke-miterlimit="10"/>
<path d="M10.4907 1.50937H1.50937V1.88359H10.4907V1.50937Z" fill="#B8B8B8"/>
<path d="M10.4907 1.50937H1.50937V1.88359H10.4907V1.50937Z" stroke="#0D0D0D" stroke-width="0.25" stroke-miterlimit="10"/>
<path d="M10.4907 3.00623H1.50937V3.38045H10.4907V3.00623Z" fill="#B8B8B8"/>
<path d="M10.4907 3.00623H1.50937V3.38045H10.4907V3.00623Z" stroke="#0D0D0D" stroke-width="0.25" stroke-miterlimit="10"/>
<path d="M10.4907 4.50311H1.50937V4.87733H10.4907V4.50311Z" fill="#B8B8B8"/>
<path d="M10.4907 4.50311H1.50937V4.87733H10.4907V4.50311Z" stroke="#0D0D0D" stroke-width="0.25" stroke-miterlimit="10"/>
<path d="M10.4907 6H1.50937V6.37422H10.4907V6Z" fill="#B8B8B8"/>
<path d="M10.4907 6H1.50937V6.37422H10.4907V6Z" stroke="#0D0D0D" stroke-width="0.25" stroke-miterlimit="10"/>
<path d="M10.4907 7.49689H1.50937V7.87111H10.4907V7.49689Z" fill="#B8B8B8"/>
<path d="M10.4907 7.49689H1.50937V7.87111H10.4907V7.49689Z" stroke="#0D0D0D" stroke-width="0.25" stroke-miterlimit="10"/>
<path d="M10.4907 8.99377H1.50937V9.36799H10.4907V8.99377Z" fill="#B8B8B8"/>
<path d="M10.4907 8.99377H1.50937V9.36799H10.4907V8.99377Z" stroke="#0D0D0D" stroke-width="0.25" stroke-miterlimit="10"/>
</g>
<defs>
<clipPath id="clip0_40_8529">
<rect width="12" height="12" fill="white"/>
</clipPath>
</defs>
</svg>
