<svg width="20" height="20" viewBox="0 0 20 20" fill="none" xmlns="http://www.w3.org/2000/svg">
<g clip-path="url(#clip0_40_8931)">
<path d="M15.7847 7.70832V1.94189H13.5581L13.5623 7.70832H15.7847Z" fill="white"/>
<path d="M15.7847 7.70832V1.94189H13.5581L13.5623 7.70832H15.7847Z" stroke="black" stroke-width="0.25" stroke-miterlimit="10"/>
<path d="M15.3866 2.5878H13.9589C13.8525 2.5878 13.7627 2.68696 13.7627 2.80815V7.03347C13.7627 7.15466 13.8525 7.25382 13.9589 7.25382H15.3866C15.4944 7.25382 15.5829 7.15466 15.5829 7.03347V2.80815C15.5829 2.68696 15.4944 2.5878 15.3866 2.5878Z" fill="white"/>
<path d="M15.3866 2.5878H13.9589C13.8525 2.5878 13.7627 2.68696 13.7627 2.80815V7.03347C13.7627 7.15466 13.8525 7.25382 13.9589 7.25382H15.3866C15.4944 7.25382 15.5829 7.15466 15.5829 7.03347V2.80815C15.5829 2.68696 15.4944 2.5878 15.3866 2.5878Z" stroke="black" stroke-width="0.25" stroke-miterlimit="10"/>
<path d="M15.5829 5.91928H13.7627" stroke="black" stroke-width="0.25" stroke-miterlimit="10"/>
<path d="M15.312 2.2311C15.312 2.29446 15.3576 2.34541 15.4143 2.34541C15.4709 2.34541 15.5166 2.29446 15.5166 2.2311C15.5166 2.16775 15.4709 2.11542 15.4143 2.11542C15.3576 2.11542 15.312 2.16637 15.312 2.2311Z" fill="white"/>
<path d="M15.312 2.2311C15.312 2.29446 15.3576 2.34541 15.4143 2.34541C15.4709 2.34541 15.5166 2.29446 15.5166 2.2311C15.5166 2.16775 15.4709 2.11542 15.4143 2.11542C15.3576 2.11542 15.312 2.16637 15.312 2.2311Z" stroke="black" stroke-width="0.25" stroke-miterlimit="10"/>
<path d="M14.5698 7.4783C14.5698 7.54165 14.6154 7.59398 14.6721 7.59398C14.7288 7.59398 14.7744 7.54165 14.7744 7.4783C14.7744 7.41494 14.7288 7.36261 14.6721 7.36261C14.6154 7.36261 14.5698 7.41357 14.5698 7.4783Z" fill="white"/>
<path d="M14.5698 7.4783C14.5698 7.54165 14.6154 7.59398 14.6721 7.59398C14.7288 7.59398 14.7744 7.54165 14.7744 7.4783C14.7744 7.41494 14.7288 7.36261 14.6721 7.36261C14.6154 7.36261 14.5698 7.41357 14.5698 7.4783Z" stroke="black" stroke-width="0.25" stroke-miterlimit="10"/>
<path d="M13.8221 2.2311C13.8221 2.29446 13.8677 2.34541 13.9244 2.34541C13.9811 2.34541 14.0267 2.29446 14.0267 2.2311C14.0267 2.16775 13.9811 2.11542 13.9244 2.11542C13.8677 2.11542 13.8221 2.16637 13.8221 2.2311Z" fill="white"/>
<path d="M13.8221 2.2311C13.8221 2.29446 13.8677 2.34541 13.9244 2.34541C13.9811 2.34541 14.0267 2.29446 14.0267 2.2311C14.0267 2.16775 13.9811 2.11542 13.9244 2.11542C13.8677 2.11542 13.8221 2.16637 13.8221 2.2311Z" stroke="black" stroke-width="0.25" stroke-miterlimit="10"/>
<path d="M0.0843103 0.0840149H0.0138245V19.916L1.67231 18.3019V1.73668L0.0138245 0.0840149" fill="white"/>
<path d="M0.0843103 0.0840149H0.0138245V19.916L1.67231 18.3019V1.73668L0.0138245 0.0840149" stroke="black" stroke-width="0.25" stroke-miterlimit="10"/>
<path d="M0.0138245 0.0840017V0.0137634L19.9157 0.0151406L18.2959 1.66781L1.67231 1.66643L0.0138245 0.0137634" fill="white"/>
<path d="M0.0138245 0.0840017V0.0137634L19.9157 0.0151406L18.2959 1.66781L1.67231 1.66643L0.0138245 0.0137634" stroke="black" stroke-width="0.25" stroke-miterlimit="10"/>
<path d="M0.0138245 19.916V19.9862H19.9157L18.2959 18.3336H1.67231L0.0138245 19.9862" fill="white"/>
<path d="M0.0138245 19.916V19.9862H19.9157L18.2959 18.3336H1.67231L0.0138245 19.9862" stroke="black" stroke-width="0.25" stroke-miterlimit="10"/>
<path d="M19.9157 0.0151367H19.9862V19.8471L18.3277 18.2316V1.6678L19.9862 0.0151367" fill="white"/>
<path d="M19.9157 0.0151367H19.9862V19.8471L18.3277 18.2316V1.6678L19.9862 0.0151367" stroke="black" stroke-width="0.25" stroke-miterlimit="10"/>
<path d="M19.1859 0.816681H0.942566V18.996H19.1859V0.816681Z" fill="white"/>
<path d="M19.1859 0.816681H0.942566V18.996H19.1859V0.816681Z" stroke="black" stroke-width="0.25" stroke-miterlimit="10"/>
<path d="M18.1494 1.84961H1.97913V17.9631H18.1494V1.84961Z" fill="white"/>
<path d="M18.1494 1.84961H1.97913V17.9631H18.1494V1.84961Z" stroke="black" stroke-width="0.25" stroke-miterlimit="10"/>
<path d="M18.1494 1.84961H1.97913V2.26278H18.1494V1.84961Z" fill="#D6D6D6"/>
<path d="M18.1494 1.84961H1.97913V2.26278H18.1494V1.84961Z" stroke="black" stroke-width="0.25" stroke-miterlimit="10"/>
<path d="M18.1494 7.32269H1.97913V7.73586H18.1494V7.32269Z" fill="#EAEAEA"/>
<path d="M18.1494 7.32269H1.97913V7.73586H18.1494V7.32269Z" stroke="black" stroke-width="0.25" stroke-miterlimit="10"/>
<path d="M18.1494 4.58615H1.97913V4.99932H18.1494V4.58615Z" fill="#DDDDDD"/>
<path d="M18.1494 4.58615H1.97913V4.99932H18.1494V4.58615Z" stroke="black" stroke-width="0.25" stroke-miterlimit="10"/>
<path d="M18.1494 8.69165H1.97913V9.10482H18.1494V8.69165Z" fill="#EAEAEA"/>
<path d="M18.1494 8.69165H1.97913V9.10482H18.1494V8.69165Z" stroke="black" stroke-width="0.25" stroke-miterlimit="10"/>
<path d="M18.1494 11.4282H1.97913V11.8413H18.1494V11.4282Z" fill="#E0E0E0"/>
<path d="M18.1494 11.4282H1.97913V11.8413H18.1494V11.4282Z" stroke="black" stroke-width="0.25" stroke-miterlimit="10"/>
<path d="M18.1494 14.1647H1.97913V14.5779H18.1494V14.1647Z" fill="#D3D3D3"/>
<path d="M18.1494 14.1647H1.97913V14.5779H18.1494V14.1647Z" stroke="black" stroke-width="0.25" stroke-miterlimit="10"/>
<path d="M18.1494 5.95511H1.97913V6.36827H18.1494V5.95511Z" fill="#DDDDDD"/>
<path d="M18.1494 5.95511H1.97913V6.36827H18.1494V5.95511Z" stroke="black" stroke-width="0.25" stroke-miterlimit="10"/>
<path d="M18.1494 3.21857H1.97913V3.63173H18.1494V3.21857Z" fill="#DDDDDD"/>
<path d="M18.1494 3.21857H1.97913V3.63173H18.1494V3.21857Z" stroke="black" stroke-width="0.25" stroke-miterlimit="10"/>
<path d="M18.1494 10.0592H1.97913V10.4724H18.1494V10.0592Z" fill="#D8D8D8"/>
<path d="M18.1494 10.0592H1.97913V10.4724H18.1494V10.0592Z" stroke="black" stroke-width="0.25" stroke-miterlimit="10"/>
<path d="M18.1494 12.7958H1.97913V13.2089H18.1494V12.7958Z" fill="#D8D8D8"/>
<path d="M18.1494 12.7958H1.97913V13.2089H18.1494V12.7958Z" stroke="black" stroke-width="0.25" stroke-miterlimit="10"/>
<path d="M18.1494 15.5323H1.97913V15.9455H18.1494V15.5323Z" fill="#D6D6D6"/>
<path d="M18.1494 15.5323H1.97913V15.9455H18.1494V15.5323Z" stroke="black" stroke-width="0.25" stroke-miterlimit="10"/>
<path d="M18.1494 16.9012H1.97913V17.3144H18.1494V16.9012Z" fill="#DDDDDD"/>
<path d="M18.1494 16.9012H1.97913V17.3144H18.1494V16.9012Z" stroke="black" stroke-width="0.25" stroke-miterlimit="10"/>
</g>
<defs>
<clipPath id="clip0_40_8931">
<rect width="20" height="20" fill="white"/>
</clipPath>
</defs>
</svg>
