<svg width="20" height="20" viewBox="0 0 20 20" fill="none" xmlns="http://www.w3.org/2000/svg">
<g clip-path="url(#clip0_467_658)">
<path d="M19.88 19.85L18.42 18.39L18.38 18.2901V1.72005L19.91 0.140049L19.97 0.0500488L19.94 10.05L19.95 19.92L19.88 19.85Z" fill="white"/>
<path d="M19.89 0.240029C19.89 3.51003 19.89 6.78003 19.9 10.05C19.9 13.3 19.91 16.55 19.91 19.8L18.47 18.36C18.46 18.35 18.46 18.34 18.45 18.33V18.29V1.72003V1.69003C18.46 1.68003 18.47 1.68003 18.47 1.67003C18.94 1.19003 19.41 0.710029 19.89 0.240029ZM19.96 0.0300293C19.95 0.0300293 19.94 0.0300293 19.93 0.0300293C19.91 0.0600293 19.9 0.0900293 19.88 0.110029C19.39 0.610029 18.89 1.10003 18.39 1.60003C18.37 1.62003 18.35 1.63003 18.34 1.64003C18.34 1.67003 18.34 1.69003 18.34 1.72003C18.34 7.24003 18.34 12.77 18.34 18.29C18.34 18.31 18.34 18.34 18.34 18.36C18.36 18.38 18.37 18.4 18.39 18.42C18.88 18.91 19.36 19.39 19.85 19.88C19.88 19.91 19.92 19.94 19.95 19.97H19.96C19.97 19.97 19.98 19.97 19.99 19.97H20C20 13.34 19.99 6.74003 19.99 0.110029C19.99 0.100029 19.99 0.0800293 19.99 0.0700293C20 0.0300293 19.98 0.0300293 19.96 0.0300293Z" fill="#231F20"/>
<path d="M0.110046 0.0700073L19.93 0.0800073L18.35 1.56001L18.2 1.61001H1.78005L1.67005 1.62001L0.110046 0.0700073Z" fill="white"/>
<path d="M19.72 0.130029C19.25 0.600029 18.79 1.06003 18.32 1.53003C18.31 1.54003 18.3 1.54003 18.3 1.55003H18.28C18.25 1.55003 18.23 1.56003 18.2 1.56003H3.16002H1.78002H1.68002H1.67002C1.67002 1.56003 1.66002 1.56003 1.66002 1.55003C1.18002 1.08003 0.71002 0.600029 0.23002 0.130029H19.72ZM19.93 0.0300293C13.29 0.0300293 6.66002 0.0300293 0.0200195 0.0300293C0.0400195 0.0600293 0.0500195 0.0900293 0.0700195 0.110029C0.57002 0.620029 1.08002 1.12003 1.58002 1.62003C1.60002 1.64003 1.62002 1.65003 1.63002 1.66003C1.68002 1.66003 1.72002 1.66003 1.77002 1.66003C7.24002 1.66003 12.72 1.66003 18.19 1.66003C18.24 1.66003 18.28 1.65003 18.33 1.64003C18.35 1.63003 18.37 1.61003 18.38 1.60003C18.88 1.10003 19.37 0.610029 19.87 0.110029C19.9 0.0900293 19.91 0.0500293 19.93 0.0300293Z" fill="#231F20"/>
<path d="M0.0499878 0.120056L1.54999 1.66006L1.57999 1.76006V18.2501L1.36999 18.5301L1.03999 18.8701L0.609988 19.3001C0.379988 19.5901 0.339988 19.6301 0.0499878 19.8901V0.120056Z" fill="white"/>
<path d="M0.1 0.280029C0.57 0.750029 1.04 1.22003 1.52 1.70003C1.52 1.70003 1.53 1.70003 1.53 1.71003V1.76003V18.25V18.3L1.4 18.44C1.27 18.57 1.14 18.7 1.01 18.83C0.91 18.93 0.81 19.03 0.71 19.12L0.57 19.26C0.37 19.51 0.32 19.57 0.11 19.76C0.1 17.97 0.1 5.98003 0.1 0.280029ZM0.02 0.0300293C0.01 0.0600293 0 0.0900293 0 0.120029C0 6.15003 0 19.74 0 20C0.37 19.66 0.4 19.64 0.64 19.33C0.79 19.19 0.93 19.05 1.08 18.9C1.27 18.71 1.45 18.52 1.63 18.34C1.63 18.31 1.63 18.28 1.63 18.25C1.63 12.75 1.63 7.26003 1.63 1.76003C1.63 1.73003 1.63 1.69003 1.63 1.66003C1.62 1.65003 1.6 1.64003 1.59 1.62003C1.09 1.12003 0.58 0.610029 0.08 0.110029C0.05 0.0900293 0.04 0.0500293 0.02 0.0300293Z" fill="#231F20"/>
<path d="M0 19.95L0.18 19.89C0.36 19.71 0.56 19.52 0.68 19.37L1.11 18.95L1.66 18.39L18.3 18.4L19.81 19.92C19.81 19.92 19.83 19.94 19.85 19.95H0Z" fill="white"/>
<path d="M1.68 18.44H1.76H4.04H18.19C18.22 18.44 18.25 18.44 18.27 18.45H18.28C18.29 18.46 18.3 18.48 18.31 18.49L19.71 19.89C14.15 19.89 2.1 19.89 0.23 19.89C0.4 19.72 0.59 19.53 0.7 19.4L0.83 19.27C0.93 19.17 1.03 19.07 1.13 18.97C1.26 18.84 1.39 18.71 1.52 18.57L1.68 18.44ZM1.63 18.34C1.45 18.53 1.26 18.72 1.08 18.9C0.94 19.04 0.79 19.18 0.64 19.33C0.49 19.52 0.2 19.8 0 20C0.25 20 13.99 20 19.89 20C19.91 20 19.94 20 19.96 20C19.97 20 19.98 20 19.99 20C19.96 19.97 19.88 19.92 19.85 19.89C19.36 19.4 18.88 18.92 18.39 18.43C18.37 18.41 18.36 18.39 18.34 18.37C18.29 18.36 18.24 18.35 18.19 18.35C12.71 18.35 7.23 18.35 1.76 18.35C1.71 18.35 1.67 18.34 1.63 18.34Z" fill="#231F20"/>
<path d="M18.33 18.36C18.28 18.35 18.23 18.34 18.18 18.34C12.7 18.34 7.22 18.34 1.75 18.34C1.71 18.34 1.67 18.34 1.63 18.34C1.63 18.31 1.63 18.28 1.63 18.25C1.63 12.75 1.63 7.26001 1.63 1.76001C1.63 1.73001 1.63 1.69001 1.63 1.66001C1.68 1.66001 1.72 1.66001 1.77 1.66001C7.24 1.66001 12.72 1.66001 18.19 1.66001C18.24 1.66001 18.28 1.65001 18.33 1.64001C18.33 1.67001 18.33 1.69001 18.33 1.72001C18.33 7.24001 18.33 12.77 18.33 18.29C18.34 18.32 18.33 18.34 18.33 18.36ZM1.67 18.3C1.7 18.31 1.73 18.32 1.76 18.32C7.23 18.32 12.7 18.32 18.18 18.32C18.21 18.32 18.24 18.31 18.27 18.3C18.35 18.29 18.31 18.23 18.31 18.2C18.31 12.73 18.31 7.26001 18.31 1.79001C18.31 1.76001 18.31 1.73001 18.31 1.70001C18.31 1.70001 18.29 1.70001 18.27 1.69001C18.24 1.68001 18.21 1.67001 18.18 1.67001C12.71 1.67001 7.24 1.67001 1.76 1.67001C1.73 1.67001 1.7 1.68001 1.67 1.69001C1.67 1.73001 1.66 1.76001 1.66 1.79001C1.66 7.26001 1.66 12.74 1.66 18.21C1.66 18.24 1.67 18.27 1.67 18.3Z" fill="white"/>
<path d="M18.33 1.64001C18.28 1.65001 18.24 1.66001 18.19 1.66001C12.72 1.66001 7.24 1.66001 1.77 1.66001C1.72 1.66001 1.68 1.66001 1.63 1.66001C1.63 1.69001 1.63 1.73001 1.63 1.76001C1.63 7.26001 1.63 12.75 1.63 18.25C1.63 18.28 1.63 18.31 1.63 18.34C1.67 18.34 1.71 18.34 1.75 18.34C7.23 18.34 12.71 18.34 18.18 18.34C18.23 18.34 18.28 18.35 18.33 18.36C18.33 18.34 18.33 18.31 18.33 18.29C18.33 12.77 18.33 7.24001 18.33 1.72001C18.34 1.69001 18.33 1.67001 18.33 1.64001ZM9.97001 18.32C7.23001 18.32 4.5 18.32 1.76 18.32C1.73 18.32 1.7 18.31 1.67 18.3C1.66 18.27 1.65 18.24 1.65 18.21C1.65 12.74 1.65 7.26001 1.65 1.79001C1.65 1.76001 1.66 1.73001 1.67 1.70001C1.7 1.69001 1.74 1.68001 1.77 1.68001C4.51 1.68001 7.24 1.68001 9.98 1.68001C12.72 1.68001 15.45 1.68001 18.19 1.68001C18.22 1.68001 18.25 1.69001 18.28 1.70001C18.29 1.70001 18.32 1.70001 18.32 1.71001C18.32 1.74001 18.32 1.77001 18.32 1.80001C18.32 7.27001 18.32 12.74 18.32 18.21C18.32 18.24 18.36 18.3 18.28 18.31C18.25 18.32 18.22 18.33 18.19 18.33C15.45 18.32 12.71 18.32 9.97001 18.32Z" fill="#231F20"/>
<path d="M17.95 17.94L17.96 2.12003L18.29 1.72003V18.21V18.29L17.95 17.94Z" fill="white"/>
<path d="M18.26 1.78C18.26 1.79 18.26 1.79 18.26 1.8V2C18.26 7.4 18.26 12.81 18.26 18.21V18.22L18.14 18.1L17.98 17.94V17.89V2.13C17.98 2.11 17.98 2.09 17.98 2.07L18.14 1.91L18.26 1.78ZM18.27 1.7C18.16 1.81 18.04 1.93 17.93 2.04C17.93 2.07 17.93 2.09 17.93 2.12C17.93 7.37 17.93 12.63 17.93 17.88C17.93 17.9 17.93 17.93 17.93 17.95C18.04 18.06 18.16 18.18 18.27 18.29C18.35 18.28 18.31 18.22 18.31 18.19C18.31 12.72 18.31 7.25 18.31 1.78C18.31 1.75 18.31 1.72 18.31 1.69C18.31 1.7 18.29 1.7 18.27 1.7Z" fill="#231F20"/>
<path d="M2.1 2.02005L1.69 1.68005L9.97 1.71005H18.18L17.92 2.02005H2.1Z" fill="white"/>
<path d="M9.96998 1.73005H18.17L18.07 1.83005L17.91 1.99005H17.85H9.96998H2.08998H2.02998L1.87998 1.84005L1.77998 1.74005L9.96998 1.73005ZM9.96998 1.68005C7.22998 1.68005 4.49998 1.68005 1.75998 1.68005C1.72998 1.68005 1.69998 1.69005 1.66998 1.70005C1.78998 1.81005 1.89998 1.93005 2.01998 2.04005C2.04998 2.04005 2.06998 2.04005 2.09998 2.04005C4.72998 2.04005 7.34998 2.04005 9.97998 2.04005C12.61 2.04005 15.23 2.04005 17.86 2.04005C17.89 2.04005 17.91 2.04005 17.94 2.04005C18.05 1.93005 18.17 1.81005 18.28 1.70005C18.25 1.69005 18.22 1.68005 18.19 1.68005C15.45 1.68005 12.71 1.68005 9.96998 1.68005Z" fill="#231F20"/>
<path d="M1.67999 1.79004L1.76999 1.83004L1.99999 2.06004L1.98999 17.87L1.82999 18.11L1.68999 18.25L1.67999 1.79004Z" fill="white"/>
<path d="M1.70997 1.80001L1.86997 1.96001L1.96997 2.06001V2.07001C1.96997 2.09001 1.96997 2.12001 1.96997 2.14001V17.86V17.92V17.93L1.80997 18.1L1.70997 18.2C1.69997 12.74 1.69997 7.27001 1.70997 1.80001ZM1.66997 1.70001C1.66997 1.73001 1.65997 1.76001 1.65997 1.79001C1.65997 7.26001 1.65997 12.74 1.65997 18.21C1.65997 18.24 1.66997 18.27 1.67997 18.3C1.78997 18.19 1.90997 18.07 2.01997 17.96C2.01997 17.93 2.01997 17.9 2.01997 17.87C2.01997 12.63 2.01997 7.39001 2.01997 2.15001C2.01997 2.12001 2.01997 2.08001 2.01997 2.05001C1.89997 1.93001 1.78997 1.81001 1.66997 1.70001Z" fill="#231F20"/>
<path d="M9.97002 18.3H1.77002L1.86002 18.15L2.04002 17.98L2.12002 17.99H17.93L18.26 18.32L9.97002 18.3Z" fill="white"/>
<path d="M2.03999 18.01H2.04999C2.06999 18.01 2.09999 18.01 2.11999 18.01H9.97999H17.84C17.86 18.01 17.89 18.01 17.91 18.01H17.92L18.13 18.22L18.18 18.27H10.01H1.78999L1.89999 18.16L2.03999 18.01ZM2.01999 17.96C1.90999 18.07 1.78999 18.19 1.67999 18.3C1.70999 18.31 1.73999 18.32 1.76999 18.32C4.50999 18.32 7.25999 18.32 9.99999 18.32C12.73 18.32 15.46 18.32 18.18 18.32C18.21 18.32 18.24 18.31 18.27 18.3C18.16 18.19 18.04 18.07 17.93 17.96C17.9 17.96 17.86 17.96 17.83 17.96C15.21 17.96 12.59 17.96 9.96999 17.96C7.34999 17.96 4.72999 17.96 2.10999 17.96C2.07999 17.96 2.04999 17.96 2.01999 17.96Z" fill="#231F20"/>
<path d="M2.04004 17.4201V17.3901L17.9 17.4201V17.4501C17.91 17.4501 2.04004 17.4201 2.04004 17.4201ZM2.04004 17.1001V17.0701L17.9 17.1001V17.1301C17.9 17.1201 2.04004 17.1001 2.04004 17.1001ZM2.04004 16.6101V16.6001L17.9 16.6301V16.6401L2.04004 16.6101ZM2.04004 16.0901V16.0601L17.9 16.0901V16.1201L2.04004 16.0901ZM2.04004 15.7901V15.7601L17.9 15.7901V15.8201L2.04004 15.7901ZM2.04004 15.3001V15.2901L17.9 15.3201V15.3301L2.04004 15.3001ZM2.04004 14.7801V14.7501L17.89 14.7801V14.8101L2.04004 14.7801ZM2.04004 14.4501V14.4201L17.89 14.4501V14.4801C17.89 14.4801 2.04004 14.4501 2.04004 14.4501ZM2.04004 13.9701V13.9601L17.89 13.9901V14.0001L2.04004 13.9701ZM2.04004 13.4501V13.4201L17.89 13.4501V13.4801L2.04004 13.4501ZM2.04004 13.1401V13.1101L17.89 13.1401V13.1701L2.04004 13.1401ZM2.04004 12.6601V12.6501L17.89 12.6801V12.6901L2.04004 12.6601ZM2.04004 12.1301V12.1001L17.88 12.1301V12.1601C17.89 12.1601 2.04004 12.1301 2.04004 12.1301ZM2.04004 11.8101V11.7801L17.88 11.8101V11.8401C17.88 11.8301 2.04004 11.8101 2.04004 11.8101ZM2.04004 11.3301V11.3201L17.88 11.3501V11.3601L2.04004 11.3301ZM2.04004 10.8001V10.7701L17.88 10.7901V10.8201L2.04004 10.8001ZM2.04004 10.5001V10.4701L17.88 10.4901V10.5201L2.04004 10.5001ZM2.04004 10.0201V10.0001L17.88 10.0201V10.0301C17.88 10.0401 2.04004 10.0201 2.04004 10.0201ZM2.04004 9.49007V9.46007L17.87 9.48007V9.51007L2.04004 9.49007ZM2.04004 9.17007V9.16007L17.87 9.18007V9.19007C17.88 9.19007 2.04004 9.17007 2.04004 9.17007ZM2.04004 8.69007V8.67007L17.87 8.70007V8.71007C17.87 8.71007 2.04004 8.69007 2.04004 8.69007ZM2.04004 8.16007V8.15007L17.87 8.17007V8.18007C17.87 8.19007 2.04004 8.16007 2.04004 8.16007ZM2.04004 7.86007V7.83007L17.87 7.85007V7.88007L2.04004 7.86007ZM2.04004 7.37007V7.36007L17.87 7.38007V7.40007L2.04004 7.37007ZM2.04004 6.85007V6.82007L17.87 6.84007V6.87007L2.04004 6.85007ZM2.04004 6.52007L17.86 6.54007V6.55007C17.87 6.55007 2.04004 6.52007 2.04004 6.52007ZM2.04004 6.04007V6.03007L17.86 6.05007V6.06007L2.04004 6.04007ZM2.04004 5.52007L17.86 5.54007V5.55007L2.04004 5.52007ZM2.04004 5.21007V5.18007L17.86 5.20007V5.23007C17.86 5.24007 2.04004 5.21007 2.04004 5.21007ZM2.04004 4.73007V4.72007L17.86 4.74007V4.75007C17.86 4.76007 2.04004 4.73007 2.04004 4.73007ZM2.04004 4.21007V4.17007L17.86 4.20007V4.23007L2.04004 4.21007ZM2.04004 3.88007L17.86 3.90007V3.91007C17.86 3.91007 2.04004 3.88007 2.04004 3.88007ZM2.04004 3.42007V3.41007L17.85 3.43007V3.44007L2.04004 3.42007ZM2.04004 2.90007V2.86007L17.85 2.88007V2.91007L2.04004 2.90007ZM2.04004 2.57007V2.54007L17.85 2.56007V2.60007L2.04004 2.57007Z" fill="white"/>
<path d="M9.97001 2.04004C7.34001 2.04004 4.72001 2.04004 2.09001 2.04004C2.06001 2.04004 2.04001 2.04004 2.01001 2.04004C2.01001 2.07004 2.01001 2.11004 2.01001 2.14004C2.01001 7.38004 2.01001 12.62 2.01001 17.86C2.01001 17.89 2.01001 17.92 2.01001 17.95C2.04001 17.95 2.08001 17.95 2.11001 17.95C4.73001 17.95 7.35001 17.95 9.97001 17.95C12.59 17.95 15.21 17.95 17.83 17.95C17.86 17.95 17.9 17.95 17.93 17.95C17.93 17.93 17.93 17.9 17.93 17.88C17.93 12.63 17.93 7.37004 17.93 2.12004C17.93 2.09004 17.93 2.07004 17.93 2.04004C17.9 2.04004 17.88 2.04004 17.85 2.04004C15.22 2.04004 12.6 2.04004 9.97001 2.04004ZM2.04001 2.54004C2.04001 2.38004 2.04001 2.23004 2.04001 2.07004C7.33001 2.07004 12.61 2.07004 17.9 2.07004C17.9 2.22004 17.9 2.38004 17.9 2.54004C12.62 2.54004 7.34001 2.54004 2.04001 2.54004ZM2.05001 2.86004C2.05001 2.78004 2.05001 2.69004 2.05001 2.59004C7.33001 2.59004 12.62 2.59004 17.91 2.59004C17.91 2.68004 17.91 2.77004 17.91 2.86004C12.62 2.86004 7.34001 2.86004 2.05001 2.86004ZM2.04001 3.41004C2.04001 3.24004 2.04001 3.09004 2.04001 2.92004C7.33001 2.92004 12.61 2.92004 17.9 2.92004C17.9 3.08004 17.9 3.24004 17.9 3.41004C12.62 3.41004 7.33001 3.41004 2.04001 3.41004ZM2.04001 3.87004C2.04001 3.73004 2.04001 3.59004 2.04001 3.44004C7.32001 3.44004 12.61 3.44004 17.9 3.44004C17.9 3.58004 17.9 3.72004 17.9 3.87004C12.62 3.87004 7.34001 3.87004 2.04001 3.87004ZM2.04001 4.17004C2.04001 4.08004 2.04001 3.99004 2.04001 3.90004C7.33001 3.90004 12.61 3.90004 17.9 3.90004C17.9 3.99004 17.9 4.08004 17.9 4.17004C12.62 4.17004 7.34001 4.17004 2.04001 4.17004ZM2.04001 4.72004C2.04001 4.55004 2.04001 4.40004 2.04001 4.23004C7.33001 4.23004 12.61 4.23004 17.9 4.23004C17.9 4.39004 17.9 4.55004 17.9 4.72004C12.62 4.72004 7.34001 4.72004 2.04001 4.72004ZM2.04001 5.18004C2.04001 5.04004 2.04001 4.90004 2.04001 4.75004C7.32001 4.75004 12.61 4.75004 17.9 4.75004C17.9 4.90004 17.9 5.03004 17.9 5.18004C12.62 5.18004 7.33001 5.18004 2.04001 5.18004ZM2.04001 5.51004C2.04001 5.42004 2.04001 5.33004 2.04001 5.24004C7.32001 5.24004 12.61 5.24004 17.9 5.24004C17.9 5.32004 17.9 5.41004 17.9 5.51004C12.61 5.51004 7.33001 5.51004 2.04001 5.51004ZM2.04001 6.03004C2.04001 5.87004 2.04001 5.71004 2.04001 5.54004C7.33001 5.54004 12.61 5.54004 17.9 5.54004C17.9 5.70004 17.9 5.86004 17.9 6.03004C12.62 6.03004 7.34001 6.03004 2.04001 6.03004ZM2.04001 6.51004C2.04001 6.36004 2.04001 6.21004 2.04001 6.06004C7.33001 6.06004 12.61 6.06004 17.9 6.06004C17.9 6.21004 17.9 6.35004 17.9 6.51004C12.62 6.51004 7.34001 6.51004 2.04001 6.51004ZM2.04001 6.82004C2.04001 6.73004 2.04001 6.64004 2.04001 6.55004C7.33001 6.55004 12.61 6.55004 17.9 6.55004C17.9 6.64004 17.9 6.73004 17.9 6.82004C12.62 6.82004 7.34001 6.82004 2.04001 6.82004ZM2.04001 7.36004C2.04001 7.20004 2.04001 7.04004 2.04001 6.87004C7.32001 6.87004 12.61 6.87004 17.9 6.87004C17.9 7.04004 17.9 7.19004 17.9 7.36004C12.62 7.36004 7.33001 7.36004 2.04001 7.36004ZM2.04001 7.83004C2.04001 7.69004 2.04001 7.55004 2.04001 7.40004C7.32001 7.40004 12.61 7.40004 17.9 7.40004C17.9 7.55004 17.9 7.68004 17.9 7.83004C12.62 7.83004 7.33001 7.83004 2.04001 7.83004ZM2.04001 8.15004C2.04001 8.06004 2.04001 7.97004 2.04001 7.88004C7.33001 7.88004 12.61 7.88004 17.9 7.88004C17.9 7.97004 17.9 8.05004 17.9 8.15004C12.62 8.15004 7.34001 8.15004 2.04001 8.15004ZM2.04001 8.67004C2.04001 8.51004 2.04001 8.35004 2.04001 8.18004C7.32001 8.18004 12.61 8.18004 17.9 8.18004C17.9 8.35004 17.9 8.50004 17.9 8.67004C12.62 8.67004 7.34001 8.67004 2.04001 8.67004ZM2.04001 9.16004C2.04001 9.01004 2.04001 8.87004 2.04001 8.71004C7.32001 8.71004 12.61 8.71004 17.9 8.71004C17.9 8.86004 17.9 9.01004 17.9 9.16004C12.62 9.16004 7.34001 9.16004 2.04001 9.16004ZM2.04001 9.46004C2.04001 9.37004 2.04001 9.28004 2.04001 9.19004C7.33001 9.19004 12.61 9.19004 17.9 9.19004C17.9 9.28004 17.9 9.37004 17.9 9.46004C12.62 9.46004 7.33001 9.46004 2.04001 9.46004ZM2.04001 10C2.04001 9.83004 2.04001 9.68004 2.04001 9.51004C7.33001 9.51004 12.61 9.51004 17.9 9.51004C17.9 9.67004 17.9 9.83004 17.9 10C12.62 10 7.34001 10 2.04001 10ZM2.04001 10.47C2.04001 10.33 2.04001 10.19 2.04001 10.04C7.32001 10.04 12.61 10.04 17.9 10.04C17.9 10.19 17.9 10.32 17.9 10.47C12.62 10.47 7.33001 10.47 2.04001 10.47ZM2.04001 10.77C2.04001 10.69 2.04001 10.61 2.04001 10.52C7.33001 10.52 12.61 10.52 17.9 10.52C17.9 10.61 17.9 10.69 17.9 10.77C12.62 10.77 7.33001 10.77 2.04001 10.77ZM2.04001 11.32C2.04001 11.16 2.04001 11 2.04001 10.83C7.33001 10.83 12.61 10.83 17.9 10.83C17.9 10.99 17.9 11.15 17.9 11.32C12.62 11.32 7.34001 11.32 2.04001 11.32ZM2.04001 11.78C2.04001 11.64 2.04001 11.5 2.04001 11.35C7.33001 11.35 12.61 11.35 17.9 11.35C17.9 11.49 17.9 11.63 17.9 11.78C12.62 11.78 7.34001 11.78 2.04001 11.78ZM2.04001 12.1C2.04001 12.01 2.04001 11.92 2.04001 11.83C7.33001 11.83 12.61 11.83 17.9 11.83C17.9 11.92 17.9 12.01 17.9 12.1C12.62 12.1 7.34001 12.1 2.04001 12.1ZM2.04001 12.65C2.04001 12.49 2.04001 12.33 2.04001 12.16C7.32001 12.16 12.61 12.16 17.9 12.16C17.9 12.33 17.9 12.48 17.9 12.65C12.62 12.65 7.34001 12.65 2.04001 12.65ZM2.04001 13.11C2.04001 12.97 2.04001 12.83 2.04001 12.68C7.33001 12.68 12.61 12.68 17.9 12.68C17.9 12.82 17.9 12.96 17.9 13.11C12.62 13.11 7.34001 13.11 2.04001 13.11ZM2.04001 13.42C2.04001 13.34 2.04001 13.26 2.04001 13.17C7.32001 13.17 12.61 13.17 17.9 13.17C17.9 13.25 17.9 13.33 17.9 13.42C12.62 13.42 7.34001 13.42 2.04001 13.42ZM2.04001 13.96C2.04001 13.79 2.04001 13.64 2.04001 13.47C7.33001 13.47 12.61 13.47 17.9 13.47C17.9 13.63 17.9 13.79 17.9 13.96C12.62 13.96 7.33001 13.96 2.04001 13.96ZM2.04001 14.42C2.04001 14.28 2.04001 14.14 2.04001 13.99C7.33001 13.99 12.61 13.99 17.9 13.99C17.9 14.13 17.9 14.27 17.9 14.42C12.62 14.42 7.34001 14.42 2.04001 14.42ZM2.04001 14.75C2.04001 14.66 2.04001 14.57 2.04001 14.48C7.32001 14.48 12.61 14.48 17.9 14.48C17.9 14.57 17.9 14.66 17.9 14.75C12.62 14.75 7.33001 14.75 2.04001 14.75ZM2.04001 15.29C2.04001 15.12 2.04001 14.97 2.04001 14.8C7.33001 14.8 12.61 14.8 17.9 14.8C17.9 14.96 17.9 15.12 17.9 15.29C12.62 15.29 7.33001 15.29 2.04001 15.29ZM2.04001 15.75C2.04001 15.61 2.04001 15.47 2.04001 15.32C7.33001 15.32 12.61 15.32 17.9 15.32C17.9 15.46 17.9 15.6 17.9 15.75C12.62 15.75 7.34001 15.75 2.04001 15.75ZM2.04001 16.06C2.04001 15.97 2.04001 15.9 2.04001 15.81C7.33001 15.81 12.61 15.81 17.9 15.81C17.9 15.89 17.9 15.97 17.9 16.06C12.62 16.06 7.33001 16.06 2.04001 16.06ZM2.04001 16.6C2.04001 16.43 2.04001 16.28 2.04001 16.11C7.33001 16.11 12.61 16.11 17.9 16.11C17.9 16.27 17.9 16.43 17.9 16.6C12.62 16.6 7.34001 16.6 2.04001 16.6ZM2.04001 17.07C2.04001 16.92 2.04001 16.79 2.04001 16.64C7.33001 16.64 12.61 16.64 17.9 16.64C17.9 16.78 17.9 16.92 17.9 17.07C12.62 17.07 7.34001 17.07 2.04001 17.07ZM2.04001 17.39C2.04001 17.3 2.04001 17.22 2.04001 17.12C7.32001 17.12 12.61 17.12 17.9 17.12C17.9 17.21 17.9 17.3 17.9 17.39C12.62 17.39 7.33001 17.39 2.04001 17.39ZM2.04001 17.93C2.04001 17.77 2.04001 17.61 2.04001 17.44C7.32001 17.44 12.61 17.44 17.9 17.44C17.9 17.61 17.9 17.76 17.9 17.93C12.62 17.93 7.33001 17.93 2.04001 17.93Z" fill="#231F20"/>
<path d="M2.03998 11.29L2.06998 10.83L17.9 10.85L17.88 11.29H2.03998Z" fill="white"/>
<path d="M17.85 10.88V11.27H2.08998V10.88H17.85ZM17.9 10.83C12.61 10.83 7.31998 10.83 2.03998 10.83C2.03998 11 2.03998 11.15 2.03998 11.32C7.32998 11.32 12.62 11.32 17.9 11.32C17.9 11.15 17.9 10.99 17.9 10.83Z" fill="#231F20"/>
<path d="M2.03998 12.62L2.06998 12.16L17.91 12.18L17.88 12.62H2.03998Z" fill="white"/>
<path d="M17.86 12.21V12.6H2.08999V12.21H17.86ZM17.91 12.16C12.62 12.16 7.32999 12.16 2.04999 12.16C2.04999 12.33 2.04999 12.49 2.04999 12.65C7.33999 12.65 12.63 12.65 17.91 12.65C17.91 12.48 17.91 12.32 17.91 12.16Z" fill="#231F20"/>
<path d="M2.03998 9.98002L2.05998 9.52002L17.9 9.54002L17.88 9.98002H2.03998Z" fill="white"/>
<path d="M17.85 9.57002V9.96002H2.08998V9.57002H17.85ZM17.9 9.52002C12.61 9.52002 7.31998 9.52002 2.03998 9.52002C2.03998 9.69002 2.03998 9.84002 2.03998 10.01C7.32998 10.01 12.62 10.01 17.9 10.01C17.9 9.84002 17.9 9.68002 17.9 9.52002Z" fill="#231F20"/>
<path d="M2.03998 7.34006L2.06998 6.87006L17.91 6.90006L17.88 7.34006H2.03998Z" fill="white"/>
<path d="M17.86 6.92006V7.31006H2.08999V6.92006H17.86ZM17.91 6.87006C12.62 6.87006 7.32999 6.87006 2.04999 6.87006C2.04999 7.04006 2.04999 7.20006 2.04999 7.36006C7.33999 7.36006 12.63 7.36006 17.91 7.36006C17.91 7.20006 17.91 7.04006 17.91 6.87006Z" fill="#231F20"/>
<path d="M2.03998 13.93L2.06998 13.47L17.9 13.5L17.88 13.93H2.03998Z" fill="white"/>
<path d="M17.85 13.52V13.91H2.08998V13.52H17.85ZM17.9 13.47C12.61 13.47 7.31998 13.47 2.03998 13.47C2.03998 13.64 2.03998 13.79 2.03998 13.96C7.32998 13.96 12.62 13.96 17.9 13.96C17.9 13.79 17.9 13.63 17.9 13.47Z" fill="#231F20"/>
<path d="M2.03998 3.38004L2.06998 2.92004L17.9 2.94004L17.88 3.38004H2.03998Z" fill="white"/>
<path d="M17.85 2.97004V3.36004H2.08998V2.97004H17.85ZM17.9 2.92004C12.61 2.92004 7.31998 2.92004 2.03998 2.92004C2.03998 3.09004 2.03998 3.24004 2.03998 3.41004C7.32998 3.41004 12.62 3.41004 17.9 3.41004C17.9 3.24004 17.9 3.08004 17.9 2.92004Z" fill="#231F20"/>
<path d="M2.03998 15.26L2.06998 14.8L17.9 14.83L17.88 15.26H2.03998Z" fill="white"/>
<path d="M17.85 14.85V15.24H2.08998V14.85H17.85ZM17.9 14.8C12.61 14.8 7.31998 14.8 2.03998 14.8C2.03998 14.97 2.03998 15.12 2.03998 15.29C7.32998 15.29 12.62 15.29 17.9 15.29C17.9 15.12 17.9 14.96 17.9 14.8Z" fill="#231F20"/>
<path d="M2.03998 8.65L2.06998 8.19L17.91 8.21L17.88 8.65H2.03998Z" fill="white"/>
<path d="M17.86 8.24V8.63H2.08999V8.24H17.86ZM17.91 8.19C12.62 8.19 7.32999 8.19 2.04999 8.19C2.04999 8.36 2.04999 8.52 2.04999 8.68C7.33999 8.68 12.63 8.68 17.91 8.68C17.91 8.51 17.91 8.35 17.91 8.19Z" fill="#231F20"/>
<path d="M2.03998 4.69004L2.05998 4.23004L17.9 4.26004L17.88 4.69004H2.03998Z" fill="white"/>
<path d="M17.85 4.28004V4.67004H2.08998V4.28004H17.85ZM17.9 4.23004C12.61 4.23004 7.31998 4.23004 2.03998 4.23004C2.03998 4.40004 2.03998 4.55004 2.03998 4.72004C7.32998 4.72004 12.62 4.72004 17.9 4.72004C17.9 4.55004 17.9 4.39004 17.9 4.23004Z" fill="#231F20"/>
<path d="M2.03998 16.58L2.05998 16.11L17.9 16.14L17.88 16.58H2.03998Z" fill="white"/>
<path d="M17.85 16.16V16.55H2.08998V16.16H17.85ZM17.9 16.11C12.61 16.11 7.31998 16.11 2.03998 16.11C2.03998 16.28 2.03998 16.43 2.03998 16.6C7.32998 16.6 12.62 16.6 17.9 16.6C17.9 16.43 17.9 16.27 17.9 16.11Z" fill="#231F20"/>
<path d="M2.03998 17.91L2.06998 17.45L17.91 17.47L17.88 17.91H2.03998Z" fill="white"/>
<path d="M17.86 17.49V17.88H2.08999V17.49H17.86ZM17.91 17.44C12.62 17.44 7.32999 17.44 2.04999 17.44C2.04999 17.61 2.04999 17.77 2.04999 17.93C7.33999 17.93 12.63 17.93 17.91 17.93C17.91 17.77 17.91 17.61 17.91 17.44Z" fill="#231F20"/>
<path d="M2.03998 6.01004L2.06998 5.54004L17.9 5.57004L17.88 6.01004H2.03998Z" fill="white"/>
<path d="M17.85 5.59004V5.98004H2.08998V5.59004H17.85ZM17.9 5.54004C12.61 5.54004 7.31998 5.54004 2.03998 5.54004C2.03998 5.71004 2.03998 5.86004 2.03998 6.03004C7.32998 6.03004 12.62 6.03004 17.9 6.03004C17.9 5.86004 17.9 5.70004 17.9 5.54004Z" fill="#231F20"/>
<path d="M2.03998 2.52001L2.06998 2.07001L17.9 2.10001L17.88 2.52001H2.03998Z" fill="white"/>
<path d="M17.85 2.12001V2.49001H2.08998V2.12001H17.85ZM17.9 2.07001C12.61 2.07001 7.31998 2.07001 2.03998 2.07001C2.03998 2.23001 2.03998 2.38001 2.03998 2.54001C7.32998 2.54001 12.62 2.54001 17.9 2.54001C17.9 2.38001 17.9 2.23001 17.9 2.07001Z" fill="#231F20"/>
<path d="M2.03998 6.49001L2.06998 6.07001L17.9 6.09001L17.88 6.49001H2.03998Z" fill="white"/>
<path d="M17.85 6.12001V6.47001H2.08998V6.12001H17.85ZM17.9 6.07001C12.61 6.07001 7.31998 6.07001 2.03998 6.07001C2.03998 6.22001 2.03998 6.37001 2.03998 6.52001C7.32998 6.52001 12.62 6.52001 17.9 6.52001C17.9 6.36001 17.9 6.21001 17.9 6.07001Z" fill="#231F20"/>
<path d="M2.03998 9.13002L2.06998 8.71002L17.91 8.73002L17.88 9.13002H2.03998Z" fill="white"/>
<path d="M17.86 8.76002V9.11002H2.08999V8.76002H17.86ZM17.91 8.71002C12.62 8.71002 7.32999 8.71002 2.04999 8.71002C2.04999 8.86002 2.04999 9.01002 2.04999 9.16002C7.33999 9.16002 12.63 9.16002 17.91 9.16002C17.91 9.01002 17.91 8.86002 17.91 8.71002Z" fill="#231F20"/>
<path d="M2.03998 3.85L2.06998 3.44L17.91 3.47L17.88 3.85H2.03998Z" fill="white"/>
<path d="M17.86 3.49V3.82H2.08999V3.49H17.86ZM17.91 3.44C12.62 3.44 7.32999 3.44 2.04999 3.44C2.04999 3.59 2.04999 3.73 2.04999 3.87C7.33999 3.87 12.63 3.87 17.91 3.87C17.91 3.73 17.91 3.59 17.91 3.44Z" fill="#231F20"/>
<path d="M2.03998 5.16001L2.06998 4.76001L17.91 4.78001L17.88 5.16001H2.03998Z" fill="white"/>
<path d="M17.86 4.81001V5.14001H2.08999V4.81001H17.86ZM17.91 4.76001C12.62 4.76001 7.32999 4.76001 2.04999 4.76001C2.04999 4.91001 2.04999 5.05001 2.04999 5.19001C7.33999 5.19001 12.63 5.19001 17.91 5.19001C17.91 5.04001 17.91 4.90001 17.91 4.76001Z" fill="#231F20"/>
<path d="M2.03998 7.80002L2.06998 7.40002L17.91 7.42002L17.88 7.80002H2.03998Z" fill="white"/>
<path d="M17.86 7.45002V7.78002H2.08999V7.45002H17.86ZM17.91 7.40002C12.62 7.40002 7.32999 7.40002 2.04999 7.40002C2.04999 7.55002 2.04999 7.69002 2.04999 7.83002C7.33999 7.83002 12.63 7.83002 17.91 7.83002C17.91 7.68002 17.91 7.54002 17.91 7.40002Z" fill="#231F20"/>
<path d="M2.03998 13.0901L2.06998 12.6801L17.9 12.7101L17.88 13.0901H2.03998Z" fill="white"/>
<path d="M17.85 12.7301V13.0601H2.08998V12.7301H17.85ZM17.9 12.6801C12.61 12.6801 7.31998 12.6801 2.03998 12.6801C2.03998 12.8301 2.03998 12.9601 2.03998 13.1101C7.32998 13.1101 12.62 13.1101 17.9 13.1101C17.9 12.9601 17.9 12.8201 17.9 12.6801Z" fill="#231F20"/>
<path d="M2.03998 10.44L2.06998 10.04L17.91 10.07L17.88 10.44H2.03998Z" fill="white"/>
<path d="M17.86 10.09V10.42H2.08999V10.09H17.86ZM17.91 10.04C12.62 10.04 7.32999 10.04 2.04999 10.04C2.04999 10.19 2.04999 10.33 2.04999 10.47C7.33999 10.47 12.63 10.47 17.91 10.47C17.91 10.32 17.91 10.19 17.91 10.04Z" fill="#231F20"/>
<path d="M2.03998 14.4L2.06998 14L17.9 14.02L17.88 14.4H2.03998Z" fill="white"/>
<path d="M17.85 14.05V14.38H2.08998V14.05H17.85ZM17.9 14C12.61 14 7.31998 14 2.03998 14C2.03998 14.15 2.03998 14.28 2.03998 14.43C7.32998 14.43 12.62 14.43 17.9 14.43C17.9 14.27 17.9 14.14 17.9 14Z" fill="#231F20"/>
<path d="M2.03998 11.75L2.06998 11.35L17.9 11.38L17.88 11.75H2.03998Z" fill="white"/>
<path d="M17.85 11.4V11.73H2.08998V11.4H17.85ZM17.9 11.35C12.61 11.35 7.31998 11.35 2.03998 11.35C2.03998 11.49 2.03998 11.63 2.03998 11.78C7.32998 11.78 12.62 11.78 17.9 11.78C17.9 11.63 17.9 11.49 17.9 11.35Z" fill="#231F20"/>
<path d="M2.03998 15.73L2.06998 15.33L17.9 15.35L17.88 15.73H2.03998Z" fill="white"/>
<path d="M17.85 15.38V15.71H2.08998V15.38H17.85ZM17.9 15.33C12.61 15.33 7.31998 15.33 2.03998 15.33C2.03998 15.47 2.03998 15.61 2.03998 15.76C7.32998 15.76 12.62 15.76 17.9 15.76C17.9 15.61 17.9 15.47 17.9 15.33Z" fill="#231F20"/>
<path d="M2.03998 17.04L2.06998 16.64L17.9 16.66L17.88 17.04H2.03998Z" fill="white"/>
<path d="M17.85 16.69V17.02H2.08998V16.69H17.85ZM17.9 16.64C12.61 16.64 7.31998 16.64 2.03998 16.64C2.03998 16.78 2.03998 16.92 2.03998 17.07C7.32998 17.07 12.62 17.07 17.9 17.07C17.9 16.92 17.9 16.78 17.9 16.64Z" fill="#231F20"/>
<path d="M2.04999 2.84004L2.06999 2.60004L17.91 2.62004L17.89 2.84004H2.04999Z" fill="white"/>
<path d="M17.86 2.65004V2.82004H2.09999V2.65004H17.86ZM17.91 2.60004C12.62 2.60004 7.32999 2.60004 2.04999 2.60004C2.04999 2.69004 2.04999 2.78004 2.04999 2.87004C7.33999 2.87004 12.63 2.87004 17.91 2.87004C17.91 2.77004 17.91 2.69004 17.91 2.60004Z" fill="#231F20"/>
<path d="M2.03998 4.15003L2.06998 3.91003L17.91 3.93003L17.88 4.15003H2.03998Z" fill="white"/>
<path d="M17.86 3.96003V4.13003H2.08999V3.96003H17.86ZM17.91 3.91003C12.62 3.91003 7.33999 3.91003 2.04999 3.91003C2.04999 4.00003 2.04999 4.09003 2.04999 4.18003C7.33999 4.18003 12.63 4.18003 17.91 4.18003C17.91 4.08003 17.91 4.00003 17.91 3.91003Z" fill="#231F20"/>
<path d="M2.03998 5.48005L2.06998 5.24005L17.9 5.26005L17.88 5.48005H2.03998Z" fill="white"/>
<path d="M17.85 5.29005V5.46005H2.08998V5.29005H17.85ZM17.9 5.24005C12.61 5.24005 7.31998 5.24005 2.03998 5.24005C2.03998 5.33005 2.03998 5.42005 2.03998 5.51005C7.32998 5.51005 12.61 5.51005 17.9 5.51005C17.9 5.41005 17.9 5.32005 17.9 5.24005Z" fill="#231F20"/>
<path d="M2.03998 6.79005L2.06998 6.55005L17.91 6.57005L17.88 6.79005H2.03998Z" fill="white"/>
<path d="M17.86 6.60005V6.77005H2.08999V6.60005H17.86ZM17.91 6.55005C12.62 6.55005 7.33999 6.55005 2.04999 6.55005C2.04999 6.64005 2.04999 6.73005 2.04999 6.82005C7.33999 6.82005 12.63 6.82005 17.91 6.82005C17.91 6.72005 17.91 6.64005 17.91 6.55005Z" fill="#231F20"/>
<path d="M2.03998 8.12L2.06998 7.88L17.91 7.91L17.88 8.12H2.03998Z" fill="white"/>
<path d="M17.85 7.93V8.10001H2.08998V7.93H17.85ZM17.9 7.88C12.61 7.88 7.32998 7.88 2.03998 7.88C2.03998 7.97 2.03998 8.06 2.03998 8.15C7.32998 8.15 12.62 8.15 17.9 8.15C17.9 8.06 17.9 7.97 17.9 7.88Z" fill="#231F20"/>
<path d="M2.03998 14.72L2.06998 14.48L17.91 14.5L17.88 14.72H2.03998Z" fill="white"/>
<path d="M17.86 14.53V14.7H2.08999V14.53H17.86ZM17.91 14.48C12.62 14.48 7.32999 14.48 2.04999 14.48C2.04999 14.57 2.04999 14.66 2.04999 14.75C7.33999 14.75 12.62 14.75 17.91 14.75C17.91 14.66 17.91 14.57 17.91 14.48Z" fill="#231F20"/>
<path d="M2.03998 12.08L2.06998 11.83L17.91 11.86L17.88 12.08H2.03998Z" fill="white"/>
<path d="M17.86 11.88V12.05H2.08999V11.88H17.86ZM17.91 11.83C12.62 11.83 7.33999 11.83 2.04999 11.83C2.04999 11.92 2.04999 12.01 2.04999 12.1C7.33999 12.1 12.63 12.1 17.91 12.1C17.91 12.01 17.91 11.92 17.91 11.83Z" fill="#231F20"/>
<path d="M2.03998 17.3601L2.06998 17.1201L17.91 17.1501L17.88 17.3601H2.03998Z" fill="white"/>
<path d="M17.86 17.1701V17.3401H2.08999V17.1701H17.86ZM17.91 17.1201C12.61 17.1201 7.32999 17.1201 2.04999 17.1201C2.04999 17.2101 2.04999 17.3001 2.04999 17.3901C7.33999 17.3901 12.62 17.3901 17.91 17.3901C17.91 17.3001 17.91 17.2101 17.91 17.1201Z" fill="#231F20"/>
<path d="M2.03998 9.44L2.06998 9.19L17.91 9.22L17.88 9.44H2.03998Z" fill="white"/>
<path d="M17.86 9.24V9.41H2.08999V9.24H17.86ZM17.91 9.19C12.62 9.19 7.32999 9.19 2.04999 9.19C2.04999 9.28 2.04999 9.37 2.04999 9.46C7.33999 9.46 12.62 9.46 17.91 9.46C17.91 9.37 17.91 9.29 17.91 9.19Z" fill="#231F20"/>
<path d="M2.03998 10.75L2.06998 10.52L17.91 10.55L17.88 10.75H2.03998Z" fill="white"/>
<path d="M17.86 10.57V10.72H2.08999V10.57H17.86ZM17.91 10.52C12.62 10.52 7.32999 10.52 2.04999 10.52C2.04999 10.61 2.04999 10.69 2.04999 10.77C7.33999 10.77 12.62 10.77 17.91 10.77C17.91 10.69 17.91 10.61 17.91 10.52Z" fill="#231F20"/>
<path d="M2.03998 13.39L2.06998 13.17L17.9 13.19L17.88 13.39H2.03998Z" fill="white"/>
<path d="M17.85 13.22V13.37H2.08998V13.22H17.85ZM17.9 13.17C12.61 13.17 7.31998 13.17 2.03998 13.17C2.03998 13.26 2.03998 13.33 2.03998 13.42C7.32998 13.42 12.62 13.42 17.9 13.42C17.9 13.33 17.9 13.25 17.9 13.17Z" fill="#231F20"/>
<path d="M2.03998 16.0301L2.05998 15.8101L17.9 15.8401L17.88 16.0301H2.03998Z" fill="white"/>
<path d="M17.85 15.8601V16.0101H2.08998V15.8601H17.85ZM17.9 15.8101C12.61 15.8101 7.31998 15.8101 2.03998 15.8101C2.03998 15.8901 2.03998 15.9701 2.03998 16.0601C7.32998 16.0601 12.62 16.0601 17.9 16.0601C17.9 15.9701 17.9 15.8901 17.9 15.8101Z" fill="#231F20"/>
</g>
<defs>
<clipPath id="clip0_467_658">
<rect width="20" height="20" fill="white"/>
</clipPath>
</defs>
</svg>
