<svg width="24" height="24" viewBox="0 0 24 24" fill="none" xmlns="http://www.w3.org/2000/svg">
<g clip-path="url(#clip0_40_8556)">
<path d="M22.6327 2.37317H1.21231V2.71811H22.6327V2.37317Z" fill="#9B9B9B"/>
<path d="M22.6327 2.37317H1.21231V2.71811H22.6327V2.37317Z" stroke="black" stroke-width="0.25" stroke-miterlimit="10"/>
<path d="M22.6327 3.63794H1.21231V3.98288H22.6327V3.63794Z" fill="#9B9B9B"/>
<path d="M22.6327 3.63794H1.21231V3.98288H22.6327V3.63794Z" stroke="black" stroke-width="0.25" stroke-miterlimit="10"/>
<path d="M22.6327 4.90271H1.21231V5.24765H22.6327V4.90271Z" fill="#9B9B9B"/>
<path d="M22.6327 4.90271H1.21231V5.24765H22.6327V4.90271Z" stroke="black" stroke-width="0.25" stroke-miterlimit="10"/>
<path d="M22.6327 1.22339H1.21231V2.37318H22.6327V1.22339Z" fill="#E5E5E5"/>
<path d="M22.6327 1.22339H1.21231V2.37318H22.6327V1.22339Z" stroke="black" stroke-width="0.25" stroke-miterlimit="10"/>
<path d="M23.7721 23.7363V0.0735779L22.6328 1.21111V22.5988L23.7721 23.7363Z" fill="white"/>
<path d="M23.7721 23.7363V0.0735779L22.6328 1.21111V22.5988L23.7721 23.7363Z" stroke="black" stroke-width="0.25" stroke-miterlimit="10"/>
<path d="M23.7721 0.0735779H0.0729065L1.21229 1.22337H22.6327L23.7721 0.0735779Z" fill="white"/>
<path d="M23.7721 0.0735779H0.0729065L1.21229 1.22337H22.6327L23.7721 0.0735779Z" stroke="black" stroke-width="0.25" stroke-miterlimit="10"/>
<path d="M0.0729065 23.7593V0.0735779L1.21229 1.21264V22.6202L0.0729065 23.7593Z" fill="white"/>
<path d="M0.0729065 23.7593V0.0735779L1.21229 1.21264V22.6202L0.0729065 23.7593Z" stroke="black" stroke-width="0.25" stroke-miterlimit="10"/>
<path d="M23.7721 23.7593H0.0729065L1.21229 22.6095H22.6327L23.7721 23.7593Z" fill="white"/>
<path d="M23.7721 23.7593H0.0729065L1.21229 22.6095H22.6327L23.7721 23.7593Z" stroke="black" stroke-width="0.25" stroke-miterlimit="10"/>
<path d="M22.6327 6.16748H1.21231V6.51242H22.6327V6.16748Z" fill="#9B9B9B"/>
<path d="M22.6327 6.16748H1.21231V6.51242H22.6327V6.16748Z" stroke="black" stroke-width="0.25" stroke-miterlimit="10"/>
<path d="M22.6327 7.43225H1.21231V7.77719H22.6327V7.43225Z" fill="#9B9B9B"/>
<path d="M22.6327 7.43225H1.21231V7.77719H22.6327V7.43225Z" stroke="black" stroke-width="0.25" stroke-miterlimit="10"/>
<path d="M22.6327 8.69702H1.21231V9.04196H22.6327V8.69702Z" fill="#9B9B9B"/>
<path d="M22.6327 8.69702H1.21231V9.04196H22.6327V8.69702Z" stroke="black" stroke-width="0.25" stroke-miterlimit="10"/>
<path d="M22.6327 9.96179H1.21231V10.3067H22.6327V9.96179Z" fill="#9B9B9B"/>
<path d="M22.6327 9.96179H1.21231V10.3067H22.6327V9.96179Z" stroke="black" stroke-width="0.25" stroke-miterlimit="10"/>
<path d="M22.6327 11.2266H1.21231V11.5715H22.6327V11.2266Z" fill="#9B9B9B"/>
<path d="M22.6327 11.2266H1.21231V11.5715H22.6327V11.2266Z" stroke="black" stroke-width="0.25" stroke-miterlimit="10"/>
<path d="M22.6327 12.4913H1.21231V12.8363H22.6327V12.4913Z" fill="#9B9B9B"/>
<path d="M22.6327 12.4913H1.21231V12.8363H22.6327V12.4913Z" stroke="black" stroke-width="0.25" stroke-miterlimit="10"/>
<path d="M22.6327 13.7561H1.21231V14.101H22.6327V13.7561Z" fill="#9B9B9B"/>
<path d="M22.6327 13.7561H1.21231V14.101H22.6327V13.7561Z" stroke="black" stroke-width="0.25" stroke-miterlimit="10"/>
<path d="M22.6327 15.0209H1.21231V15.3658H22.6327V15.0209Z" fill="#9B9B9B"/>
<path d="M22.6327 15.0209H1.21231V15.3658H22.6327V15.0209Z" stroke="black" stroke-width="0.25" stroke-miterlimit="10"/>
<path d="M22.6327 16.2856H1.21231V16.6306H22.6327V16.2856Z" fill="#9B9B9B"/>
<path d="M22.6327 16.2856H1.21231V16.6306H22.6327V16.2856Z" stroke="black" stroke-width="0.25" stroke-miterlimit="10"/>
<path d="M22.6327 17.5504H1.21231V17.8954H22.6327V17.5504Z" fill="#9B9B9B"/>
<path d="M22.6327 17.5504H1.21231V17.8954H22.6327V17.5504Z" stroke="black" stroke-width="0.25" stroke-miterlimit="10"/>
<path d="M22.6327 18.8152H1.21231V19.1601H22.6327V18.8152Z" fill="#9B9B9B"/>
<path d="M22.6327 18.8152H1.21231V19.1601H22.6327V18.8152Z" stroke="black" stroke-width="0.25" stroke-miterlimit="10"/>
<path d="M22.6327 20.08H1.21231V20.4249H22.6327V20.08Z" fill="#9B9B9B"/>
<path d="M22.6327 20.08H1.21231V20.4249H22.6327V20.08Z" stroke="black" stroke-width="0.25" stroke-miterlimit="10"/>
<path d="M22.6327 21.3447H1.21231V21.6897H22.6327V21.3447Z" fill="#9B9B9B"/>
<path d="M22.6327 21.3447H1.21231V21.6897H22.6327V21.3447Z" stroke="black" stroke-width="0.25" stroke-miterlimit="10"/>
<path d="M22.6327 2.71811H1.21231V3.63794H22.6327V2.71811Z" fill="#E5E5E5"/>
<path d="M22.6327 2.71811H1.21231V3.63794H22.6327V2.71811Z" stroke="black" stroke-width="0.25" stroke-miterlimit="10"/>
<path d="M22.6327 3.98288H1.21231V4.90271H22.6327V3.98288Z" fill="#E5E5E5"/>
<path d="M22.6327 3.98288H1.21231V4.90271H22.6327V3.98288Z" stroke="black" stroke-width="0.25" stroke-miterlimit="10"/>
<path d="M22.6327 5.24765H1.21231V6.16748H22.6327V5.24765Z" fill="#E5E5E5"/>
<path d="M22.6327 5.24765H1.21231V6.16748H22.6327V5.24765Z" stroke="black" stroke-width="0.25" stroke-miterlimit="10"/>
<path d="M22.6327 6.51242H1.21231V7.43225H22.6327V6.51242Z" fill="#E5E5E5"/>
<path d="M22.6327 6.51242H1.21231V7.43225H22.6327V6.51242Z" stroke="black" stroke-width="0.25" stroke-miterlimit="10"/>
<path d="M22.6327 7.77722H1.21231V8.69706H22.6327V7.77722Z" fill="#E5E5E5"/>
<path d="M22.6327 7.77722H1.21231V8.69706H22.6327V7.77722Z" stroke="black" stroke-width="0.25" stroke-miterlimit="10"/>
<path d="M22.6327 9.04199H1.21231V9.96183H22.6327V9.04199Z" fill="#E5E5E5"/>
<path d="M22.6327 9.04199H1.21231V9.96183H22.6327V9.04199Z" stroke="black" stroke-width="0.25" stroke-miterlimit="10"/>
<path d="M22.6327 10.3068H1.21231V11.2266H22.6327V10.3068Z" fill="#E5E5E5"/>
<path d="M22.6327 10.3068H1.21231V11.2266H22.6327V10.3068Z" stroke="black" stroke-width="0.25" stroke-miterlimit="10"/>
<path d="M22.6327 11.5715H1.21231V12.4914H22.6327V11.5715Z" fill="#E5E5E5"/>
<path d="M22.6327 11.5715H1.21231V12.4914H22.6327V11.5715Z" stroke="black" stroke-width="0.25" stroke-miterlimit="10"/>
<path d="M22.6327 12.8363H1.21231V13.7561H22.6327V12.8363Z" fill="#E5E5E5"/>
<path d="M22.6327 12.8363H1.21231V13.7561H22.6327V12.8363Z" stroke="black" stroke-width="0.25" stroke-miterlimit="10"/>
<path d="M22.6327 14.1011H1.21231V15.0209H22.6327V14.1011Z" fill="#E5E5E5"/>
<path d="M22.6327 14.1011H1.21231V15.0209H22.6327V14.1011Z" stroke="black" stroke-width="0.25" stroke-miterlimit="10"/>
<path d="M22.6327 15.3658H1.21231V16.2857H22.6327V15.3658Z" fill="#E5E5E5"/>
<path d="M22.6327 15.3658H1.21231V16.2857H22.6327V15.3658Z" stroke="black" stroke-width="0.25" stroke-miterlimit="10"/>
<path d="M22.6327 16.6306H1.21231V17.5504H22.6327V16.6306Z" fill="#E5E5E5"/>
<path d="M22.6327 16.6306H1.21231V17.5504H22.6327V16.6306Z" stroke="black" stroke-width="0.25" stroke-miterlimit="10"/>
<path d="M22.6327 17.8954H1.21231V18.8152H22.6327V17.8954Z" fill="#E5E5E5"/>
<path d="M22.6327 17.8954H1.21231V18.8152H22.6327V17.8954Z" stroke="black" stroke-width="0.25" stroke-miterlimit="10"/>
<path d="M22.6327 19.1602H1.21231V20.08H22.6327V19.1602Z" fill="#E5E5E5"/>
<path d="M22.6327 19.1602H1.21231V20.08H22.6327V19.1602Z" stroke="black" stroke-width="0.25" stroke-miterlimit="10"/>
<path d="M22.6327 20.4249H1.21231V21.3448H22.6327V20.4249Z" fill="#E5E5E5"/>
<path d="M22.6327 20.4249H1.21231V21.3448H22.6327V20.4249Z" stroke="black" stroke-width="0.25" stroke-miterlimit="10"/>
<path d="M22.6327 21.6897H1.21231V22.6095H22.6327V21.6897Z" fill="#E5E5E5"/>
<path d="M22.6327 21.6897H1.21231V22.6095H22.6327V21.6897Z" stroke="black" stroke-width="0.25" stroke-miterlimit="10"/>
</g>
<defs>
<clipPath id="clip0_40_8556">
<rect width="24" height="24" fill="white"/>
</clipPath>
</defs>
</svg>
