<?xml version="1.0" encoding="UTF-8"?>
<svg id="Layer_2" data-name="Layer 2" xmlns="http://www.w3.org/2000/svg" viewBox="0 0 54.25 5.5">
  <defs>
    <style>
      .cls-1 {
        fill: none;
        stroke: #000;
        stroke-linecap: round;
        stroke-linejoin: round;
        stroke-width: .25px;
      }
    </style>
  </defs>
  <g id="Default">
    <g id="LINE">
      <line class="cls-1" x1=".12" y1="5.38" x2="3.13" y2="5.38"/>
    </g>
    <g id="LINE-2" data-name="LINE">
      <line class="cls-1" x1="3.13" y1="5.38" x2="3.13" y2="1.38"/>
    </g>
    <g id="LINE-3" data-name="LINE">
      <line class="cls-1" x1="3.13" y1="1.38" x2="2.88" y2="1.38"/>
    </g>
    <g id="LINE-4" data-name="LINE">
      <line class="cls-1" x1="2.88" y1="1.38" x2="2.88" y2="5.13"/>
    </g>
    <g id="LINE-5" data-name="LINE">
      <line class="cls-1" x1="2.88" y1="5.13" x2=".12" y2="5.13"/>
    </g>
    <g id="LINE-6" data-name="LINE">
      <line class="cls-1" x1=".12" y1="5.13" x2=".12" y2="5.38"/>
    </g>
    <g id="LINE-7" data-name="LINE">
      <line class="cls-1" x1="54.13" y1="5.38" x2="51.12" y2="5.38"/>
    </g>
    <g id="LINE-8" data-name="LINE">
      <line class="cls-1" x1="51.12" y1="5.38" x2="51.12" y2="1.38"/>
    </g>
    <g id="LINE-9" data-name="LINE">
      <line class="cls-1" x1="51.12" y1="1.38" x2="51.38" y2="1.38"/>
    </g>
    <g id="LINE-10" data-name="LINE">
      <line class="cls-1" x1="51.38" y1="1.38" x2="51.38" y2="5.13"/>
    </g>
    <g id="LINE-11" data-name="LINE">
      <line class="cls-1" x1="51.38" y1="5.13" x2="54.13" y2="5.13"/>
    </g>
    <g id="LINE-12" data-name="LINE">
      <line class="cls-1" x1="54.13" y1="5.13" x2="54.13" y2="5.38"/>
    </g>
    <g id="LINE-13" data-name="LINE">
      <line class="cls-1" x1="3.13" y1=".13" x2="51.13" y2=".13"/>
    </g>
    <g id="LINE-14" data-name="LINE">
      <line class="cls-1" x1="51.13" y1=".13" x2="51.13" y2="5.38"/>
    </g>
    <g id="LINE-15" data-name="LINE">
      <line class="cls-1" x1="51.13" y1="5.38" x2="3.13" y2="5.38"/>
    </g>
    <g id="LINE-16" data-name="LINE">
      <line class="cls-1" x1="3.13" y1="5.38" x2="3.13" y2=".13"/>
    </g>
    <g id="LINE-17" data-name="LINE">
      <line class="cls-1" x1="3.63" y1=".12" x2="50.63" y2=".12"/>
    </g>
    <g id="LINE-18" data-name="LINE">
      <line class="cls-1" x1="50.63" y1=".12" x2="50.63" y2="3.63"/>
    </g>
    <g id="LINE-19" data-name="LINE">
      <line class="cls-1" x1="50.63" y1="3.63" x2="3.63" y2="3.63"/>
    </g>
    <g id="LINE-20" data-name="LINE">
      <line class="cls-1" x1="3.63" y1="3.63" x2="3.63" y2=".12"/>
    </g>
    <g id="CIRCLE">
      <circle class="cls-1" cx="3.38" cy="3.38" r=".25"/>
    </g>
    <g id="CIRCLE-2" data-name="CIRCLE">
      <circle class="cls-1" cx="50.88" cy="3.38" r=".25"/>
    </g>
    <g id="LINE-21" data-name="LINE">
      <line class="cls-1" x1="3.63" y1="2.38" x2="50.63" y2="2.38"/>
    </g>
    <g id="LINE-22" data-name="LINE">
      <line class="cls-1" x1="50.63" y1="2.38" x2="50.63" y2="3.63"/>
    </g>
    <g id="LINE-23" data-name="LINE">
      <line class="cls-1" x1="50.63" y1="3.63" x2="3.63" y2="3.63"/>
    </g>
    <g id="LINE-24" data-name="LINE">
      <line class="cls-1" x1="3.63" y1="3.63" x2="3.63" y2="2.38"/>
    </g>
    <g id="LINE-25" data-name="LINE">
      <line class="cls-1" x1="3.63" y1="1.13" x2="25.63" y2="1.13"/>
    </g>
    <g id="LINE-26" data-name="LINE">
      <line class="cls-1" x1="25.63" y1="1.13" x2="25.63" y2="2.38"/>
    </g>
    <g id="LINE-27" data-name="LINE">
      <line class="cls-1" x1="25.63" y1="2.38" x2="3.63" y2="2.38"/>
    </g>
    <g id="LINE-28" data-name="LINE">
      <line class="cls-1" x1="3.63" y1="2.38" x2="3.63" y2="1.13"/>
    </g>
    <g id="LINE-29" data-name="LINE">
      <line class="cls-1" x1="25.63" y1="1.13" x2="50.63" y2="1.13"/>
    </g>
    <g id="LINE-30" data-name="LINE">
      <line class="cls-1" x1="50.63" y1="1.13" x2="50.63" y2="2.38"/>
    </g>
    <g id="LINE-31" data-name="LINE">
      <line class="cls-1" x1="50.63" y1="2.38" x2="25.63" y2="2.38"/>
    </g>
    <g id="LINE-32" data-name="LINE">
      <line class="cls-1" x1="25.63" y1="2.38" x2="25.63" y2="1.13"/>
    </g>
  </g>
</svg>