<?xml version="1.0" encoding="UTF-8"?>
<svg id="Layer_2" data-name="Layer 2" xmlns="http://www.w3.org/2000/svg" viewBox="0 0 23.25 17">
  <defs>
    <style>
      .cls-1 {
        fill: none;
        stroke: #000;
        stroke-linecap: round;
        stroke-linejoin: round;
        stroke-width: .25px;
      }
    </style>
  </defs>
  <g id="Default">
    <g id="LINE">
      <line class="cls-1" x1=".12" y1="1.62" x2="23.12" y2="1.62"/>
    </g>
    <g id="LINE-2" data-name="LINE">
      <line class="cls-1" x1="23.12" y1="1.62" x2="23.12" y2="16.88"/>
    </g>
    <g id="LINE-3" data-name="LINE">
      <line class="cls-1" x1="23.12" y1="16.88" x2=".12" y2="16.88"/>
    </g>
    <g id="LINE-4" data-name="LINE">
      <line class="cls-1" x1=".12" y1="16.88" x2=".12" y2="1.62"/>
    </g>
    <g id="LINE-5" data-name="LINE">
      <line class="cls-1" x1="1.63" y1="1.62" x2="21.62" y2="1.62"/>
    </g>
    <g id="LINE-6" data-name="LINE">
      <line class="cls-1" x1="21.62" y1="1.62" x2="21.62" y2="15.38"/>
    </g>
    <g id="LINE-7" data-name="LINE">
      <line class="cls-1" x1="21.62" y1="15.38" x2="1.63" y2="15.38"/>
    </g>
    <g id="LINE-8" data-name="LINE">
      <line class="cls-1" x1="1.63" y1="15.38" x2="1.63" y2="1.62"/>
    </g>
    <g id="LINE-9" data-name="LINE">
      <line class="cls-1" x1=".12" y1=".12" x2="23.12" y2=".12"/>
    </g>
    <g id="LINE-10" data-name="LINE">
      <line class="cls-1" x1="23.12" y1=".12" x2="23.12" y2="1.62"/>
    </g>
    <g id="LINE-11" data-name="LINE">
      <line class="cls-1" x1="23.12" y1="1.62" x2=".12" y2="1.62"/>
    </g>
    <g id="LINE-12" data-name="LINE">
      <line class="cls-1" x1=".12" y1="1.62" x2=".12" y2=".12"/>
    </g>
    <g id="LINE-13" data-name="LINE">
      <line class="cls-1" x1="2.37" y1="1.87" x2="20.87" y2="1.87"/>
    </g>
    <g id="LINE-14" data-name="LINE">
      <line class="cls-1" x1="20.87" y1="1.87" x2="20.87" y2="15.12"/>
    </g>
    <g id="LINE-15" data-name="LINE">
      <line class="cls-1" x1="20.87" y1="15.12" x2="2.37" y2="15.12"/>
    </g>
    <g id="LINE-16" data-name="LINE">
      <line class="cls-1" x1="2.37" y1="15.12" x2="2.37" y2="1.87"/>
    </g>
    <g id="LINE-17" data-name="LINE">
      <line class="cls-1" x1="3.37" y1="2.87" x2="19.87" y2="2.87"/>
    </g>
    <g id="LINE-18" data-name="LINE">
      <line class="cls-1" x1="19.87" y1="2.87" x2="19.87" y2="14.12"/>
    </g>
    <g id="LINE-19" data-name="LINE">
      <line class="cls-1" x1="19.87" y1="14.12" x2="3.37" y2="14.12"/>
    </g>
    <g id="LINE-20" data-name="LINE">
      <line class="cls-1" x1="3.37" y1="14.12" x2="3.37" y2="2.87"/>
    </g>
  </g>
</svg>