<?xml version="1.0" encoding="UTF-8"?>
<svg id="Layer_2" data-name="Layer 2" xmlns="http://www.w3.org/2000/svg" viewBox="0 0 8.25 8.25">
  <defs>
    <style>
      .cls-1 {
        fill: none;
        stroke: #000;
        stroke-linecap: round;
        stroke-linejoin: round;
        stroke-width: .25px;
      }
    </style>
  </defs>
  <g id="Default">
    <g id="LINE">
      <line class="cls-1" x1=".71" y1=".12" x2="7.54" y2=".12"/>
    </g>
    <g id="SPLINE">
      <path class="cls-1" d="M7.54.12c.32,0,.58.26.58.58"/>
    </g>
    <g id="LINE-2" data-name="LINE">
      <line class="cls-1" x1="8.13" y1=".71" x2="8.12" y2="7.54"/>
    </g>
    <g id="SPLINE-2" data-name="SPLINE">
      <path class="cls-1" d="M8.12,7.54c0,.32-.26.58-.58.58"/>
    </g>
    <g id="LINE-3" data-name="LINE">
      <line class="cls-1" x1="7.54" y1="8.12" x2=".71" y2="8.12"/>
    </g>
    <g id="SPLINE-3" data-name="SPLINE">
      <path class="cls-1" d="M.71,8.12c-.32,0-.58-.26-.58-.58"/>
    </g>
    <g id="LINE-4" data-name="LINE">
      <line class="cls-1" x1=".12" y1="7.54" x2=".12" y2=".71"/>
    </g>
    <g id="SPLINE-4" data-name="SPLINE">
      <path class="cls-1" d="M.12.71C.12.39.39.12.71.12"/>
    </g>
    <g id="CIRCLE">
      <circle class="cls-1" cx="7.48" cy=".74" r=".14"/>
    </g>
    <g id="CIRCLE-2" data-name="CIRCLE">
      <circle class="cls-1" cx="7.48" cy="7.49" r=".14"/>
    </g>
    <g id="CIRCLE-3" data-name="CIRCLE">
      <circle class="cls-1" cx=".76" cy=".74" r=".14"/>
    </g>
    <g id="CIRCLE-4" data-name="CIRCLE">
      <circle class="cls-1" cx=".76" cy="7.49" r=".14"/>
    </g>
  </g>
</svg>