<?xml version="1.0" encoding="UTF-8"?>
<svg id="Layer_2" data-name="Layer 2" xmlns="http://www.w3.org/2000/svg" viewBox="0 0 19.25 19.25">
  <defs>
    <style>
      .cls-1 {
        fill: none;
        stroke: #000;
        stroke-linecap: round;
        stroke-linejoin: round;
        stroke-width: .25px;
      }
    </style>
  </defs>
  <g id="Default">
    <g id="LINE">
      <line class="cls-1" x1="1.12" y1="1.12" x2="18.12" y2="1.12"/>
    </g>
    <g id="LINE-2" data-name="LINE">
      <line class="cls-1" x1="18.12" y1="1.12" x2="18.12" y2="18.12"/>
    </g>
    <g id="LINE-3" data-name="LINE">
      <line class="cls-1" x1="18.12" y1="18.12" x2="1.12" y2="18.12"/>
    </g>
    <g id="LINE-4" data-name="LINE">
      <line class="cls-1" x1="1.12" y1="18.12" x2="1.12" y2="1.12"/>
    </g>
    <g id="LINE-5" data-name="LINE">
      <line class="cls-1" x1="2.25" y1="2.25" x2="17" y2="2.25"/>
    </g>
    <g id="LINE-6" data-name="LINE">
      <line class="cls-1" x1="17" y1="2.25" x2="17" y2="17"/>
    </g>
    <g id="LINE-7" data-name="LINE">
      <line class="cls-1" x1="17" y1="17" x2="2.25" y2="17"/>
    </g>
    <g id="LINE-8" data-name="LINE">
      <line class="cls-1" x1="2.25" y1="17" x2="2.25" y2="2.25"/>
    </g>
    <g id="LINE-9" data-name="LINE">
      <line class="cls-1" x1="2.88" y1="2.87" x2="16.37" y2="2.87"/>
    </g>
    <g id="LINE-10" data-name="LINE">
      <line class="cls-1" x1="16.37" y1="2.87" x2="16.37" y2="16.37"/>
    </g>
    <g id="LINE-11" data-name="LINE">
      <line class="cls-1" x1="16.37" y1="16.37" x2="2.88" y2="16.37"/>
    </g>
    <g id="LINE-12" data-name="LINE">
      <line class="cls-1" x1="2.88" y1="16.37" x2="2.88" y2="2.87"/>
    </g>
    <g id="LINE-13" data-name="LINE">
      <line class="cls-1" x1="2.88" y1="5.94" x2="16.37" y2="5.94"/>
    </g>
    <g id="LINE-14" data-name="LINE">
      <line class="cls-1" x1="2.88" y1="9.62" x2="16.37" y2="9.62"/>
    </g>
    <g id="LINE-15" data-name="LINE">
      <line class="cls-1" x1="2.88" y1="13.31" x2="16.37" y2="13.31"/>
    </g>
    <g id="LINE-16" data-name="LINE">
      <line class="cls-1" x1=".12" y1=".12" x2="19.12" y2=".12"/>
    </g>
    <g id="LINE-17" data-name="LINE">
      <line class="cls-1" x1="19.12" y1=".12" x2="17.13" y2="2.13"/>
    </g>
    <g id="LINE-18" data-name="LINE">
      <line class="cls-1" x1="17.13" y1="2.13" x2="2.13" y2="2.13"/>
    </g>
    <g id="LINE-19" data-name="LINE">
      <line class="cls-1" x1="2.13" y1="2.13" x2=".12" y2=".12"/>
    </g>
    <g id="LINE-20" data-name="LINE">
      <line class="cls-1" x1="19.12" y1="19.13" x2="19.12" y2=".12"/>
    </g>
    <g id="LINE-21" data-name="LINE">
      <line class="cls-1" x1="19.12" y1=".12" x2="17.13" y2="2.13"/>
    </g>
    <g id="LINE-22" data-name="LINE">
      <line class="cls-1" x1="17.13" y1="2.13" x2="17.13" y2="17.13"/>
    </g>
    <g id="LINE-23" data-name="LINE">
      <line class="cls-1" x1="17.13" y1="17.13" x2="19.12" y2="19.13"/>
    </g>
    <g id="LINE-24" data-name="LINE">
      <line class="cls-1" x1=".12" y1="19.13" x2="19.12" y2="19.13"/>
    </g>
    <g id="LINE-25" data-name="LINE">
      <line class="cls-1" x1="19.12" y1="19.13" x2="17.13" y2="17.13"/>
    </g>
    <g id="LINE-26" data-name="LINE">
      <line class="cls-1" x1="17.13" y1="17.13" x2="2.13" y2="17.13"/>
    </g>
    <g id="LINE-27" data-name="LINE">
      <line class="cls-1" x1="2.13" y1="17.13" x2=".12" y2="19.13"/>
    </g>
    <g id="LINE-28" data-name="LINE">
      <line class="cls-1" x1="2.13" y1="2.13" x2="2.13" y2="17.13"/>
    </g>
    <g id="LINE-29" data-name="LINE">
      <line class="cls-1" x1="2.13" y1="17.13" x2=".12" y2="19.13"/>
    </g>
    <g id="LINE-30" data-name="LINE">
      <line class="cls-1" x1=".12" y1="19.13" x2=".12" y2=".12"/>
    </g>
    <g id="LINE-31" data-name="LINE">
      <line class="cls-1" x1=".12" y1=".12" x2="2.13" y2="2.13"/>
    </g>
    <g id="LINE-32" data-name="LINE">
      <line class="cls-1" x1="2.13" y1="2.13" x2="17.13" y2="2.13"/>
    </g>
    <g id="LINE-33" data-name="LINE">
      <line class="cls-1" x1="17.13" y1="2.13" x2="17.13" y2="17.13"/>
    </g>
    <g id="LINE-34" data-name="LINE">
      <line class="cls-1" x1="17.13" y1="17.13" x2="2.13" y2="17.13"/>
    </g>
    <g id="LINE-35" data-name="LINE">
      <line class="cls-1" x1="2.13" y1="17.13" x2="2.13" y2="2.13"/>
    </g>
  </g>
  <g id="_0" data-name="0">
    <g id="LINE-36" data-name="LINE">
      <line class="cls-1" x1="16.37" y1="5.94" x2="2.88" y2="5.94"/>
    </g>
    <g id="LINE-37" data-name="LINE">
      <line class="cls-1" x1="16.37" y1="9.62" x2="2.88" y2="9.62"/>
    </g>
    <g id="LINE-38" data-name="LINE">
      <line class="cls-1" x1="16.37" y1="13.31" x2="2.88" y2="13.31"/>
    </g>
  </g>
</svg>