<?xml version="1.0" encoding="UTF-8"?>
<svg id="Layer_2" data-name="Layer 2" xmlns="http://www.w3.org/2000/svg" viewBox="0 0 12.23 10.19">
  <defs>
    <style>
      .cls-1 {
        fill: none;
        stroke: #000;
        stroke-linecap: round;
        stroke-linejoin: round;
        stroke-width: .25px;
      }
    </style>
  </defs>
  <g id="Default">
    <g id="LINE">
      <line class="cls-1" x1="10.84" y1="8.11" x2="1.38" y2="8.11"/>
    </g>
    <g id="LINE-2" data-name="LINE">
      <line class="cls-1" x1="1.38" y1="8.11" x2="1.38" y2="10.07"/>
    </g>
    <g id="LINE-3" data-name="LINE">
      <line class="cls-1" x1="1.38" y1="10.07" x2="10.84" y2="10.07"/>
    </g>
    <g id="LINE-4" data-name="LINE">
      <line class="cls-1" x1="10.84" y1="10.07" x2="10.84" y2="8.11"/>
    </g>
    <g id="LINE-5" data-name="LINE">
      <line class="cls-1" x1="11.01" y1="7.87" x2="1.22" y2="7.87"/>
    </g>
    <g id="LINE-6" data-name="LINE">
      <line class="cls-1" x1="1.22" y1="7.87" x2="1.22" y2="8.11"/>
    </g>
    <g id="LINE-7" data-name="LINE">
      <line class="cls-1" x1="1.22" y1="8.11" x2="11.01" y2="8.11"/>
    </g>
    <g id="LINE-8" data-name="LINE">
      <line class="cls-1" x1="11.01" y1="8.11" x2="11.01" y2="7.87"/>
    </g>
    <g id="LINE-9" data-name="LINE">
      <line class="cls-1" x1="1.05" y1="7.63" x2="11.17" y2="7.63"/>
    </g>
    <g id="LINE-10" data-name="LINE">
      <line class="cls-1" x1="11.17" y1="7.63" x2="11.17" y2="7.87"/>
    </g>
    <g id="LINE-11" data-name="LINE">
      <line class="cls-1" x1="11.17" y1="7.87" x2="1.05" y2="7.87"/>
    </g>
    <g id="LINE-12" data-name="LINE">
      <line class="cls-1" x1="1.05" y1="7.87" x2="1.05" y2="7.63"/>
    </g>
    <g id="LINE-13" data-name="LINE">
      <line class="cls-1" x1="3.86" y1=".63" x2="8.36" y2=".63"/>
    </g>
    <g id="SPLINE">
      <path class="cls-1" d="M8.36.63C6.94-.04,5.29-.04,3.86.63"/>
    </g>
    <g id="LINE-14" data-name="LINE">
      <line class="cls-1" x1="1.05" y1="7.63" x2="11.17" y2="7.63"/>
    </g>
    <g id="SPLINE-2" data-name="SPLINE">
      <path class="cls-1" d="M11.17,7.63c.96-1.22,1.2-2.87.62-4.31"/>
    </g>
    <g id="SPLINE-3" data-name="SPLINE">
      <path class="cls-1" d="M11.79,3.31c-.58-1.44-1.88-2.47-3.42-2.69"/>
    </g>
    <g id="LINE-15" data-name="LINE">
      <line class="cls-1" x1="8.36" y1=".63" x2="3.86" y2=".63"/>
    </g>
    <g id="SPLINE-4" data-name="SPLINE">
      <path class="cls-1" d="M3.86.63C2.32.85,1.02,1.87.44,3.31"/>
    </g>
    <g id="SPLINE-5" data-name="SPLINE">
      <path class="cls-1" d="M.44,3.31c-.58,1.44-.34,3.09.62,4.31"/>
    </g>
    <g id="LINE-16" data-name="LINE">
      <line class="cls-1" x1="1.89" y1="7.63" x2="10.34" y2="7.63"/>
    </g>
    <g id="SPLINE-6" data-name="SPLINE">
      <path class="cls-1" d="M10.34,7.63c.8-1.22,1-2.87.51-4.31"/>
    </g>
    <g id="SPLINE-7" data-name="SPLINE">
      <path class="cls-1" d="M10.85,3.31c-.48-1.44-1.57-2.47-2.86-2.69"/>
    </g>
    <g id="LINE-17" data-name="LINE">
      <line class="cls-1" x1="7.99" y1=".63" x2="4.23" y2=".63"/>
    </g>
    <g id="SPLINE-8" data-name="SPLINE">
      <path class="cls-1" d="M4.23.63c-1.29.22-2.38,1.25-2.86,2.69"/>
    </g>
    <g id="SPLINE-9" data-name="SPLINE">
      <path class="cls-1" d="M1.38,3.31c-.48,1.44-.29,3.09.51,4.31"/>
    </g>
    <g id="LINE-18" data-name="LINE">
      <line class="cls-1" x1="2.73" y1="7.63" x2="9.49" y2="7.63"/>
    </g>
    <g id="SPLINE-10" data-name="SPLINE">
      <path class="cls-1" d="M9.49,7.63c.64-1.22.8-2.87.41-4.31"/>
    </g>
    <g id="SPLINE-11" data-name="SPLINE">
      <path class="cls-1" d="M9.9,3.31c-.39-1.44-1.26-2.47-2.29-2.69"/>
    </g>
    <g id="LINE-19" data-name="LINE">
      <line class="cls-1" x1="7.62" y1=".63" x2="4.61" y2=".63"/>
    </g>
    <g id="SPLINE-12" data-name="SPLINE">
      <path class="cls-1" d="M4.61.63c-1.03.22-1.9,1.25-2.29,2.69"/>
    </g>
    <g id="SPLINE-13" data-name="SPLINE">
      <path class="cls-1" d="M2.32,3.31c-.39,1.44-.23,3.09.41,4.31"/>
    </g>
    <g id="LINE-20" data-name="LINE">
      <line class="cls-1" x1="3.58" y1="7.63" x2="8.65" y2="7.63"/>
    </g>
    <g id="SPLINE-14" data-name="SPLINE">
      <path class="cls-1" d="M8.65,7.63c.48-1.22.6-2.87.31-4.31"/>
    </g>
    <g id="SPLINE-15" data-name="SPLINE">
      <path class="cls-1" d="M8.96,3.31c-.29-1.44-.94-2.47-1.72-2.69"/>
    </g>
    <g id="LINE-21" data-name="LINE">
      <line class="cls-1" x1="7.24" y1=".63" x2="4.99" y2=".63"/>
    </g>
    <g id="SPLINE-16" data-name="SPLINE">
      <path class="cls-1" d="M4.99.63c-.77.22-1.43,1.25-1.72,2.69"/>
    </g>
    <g id="SPLINE-17" data-name="SPLINE">
      <path class="cls-1" d="M3.27,3.31c-.29,1.44-.17,3.09.31,4.31"/>
    </g>
    <g id="LINE-22" data-name="LINE">
      <line class="cls-1" x1="4.42" y1="7.63" x2="7.8" y2="7.63"/>
    </g>
    <g id="SPLINE-18" data-name="SPLINE">
      <path class="cls-1" d="M7.8,7.63c.32-1.22.4-2.87.21-4.31"/>
    </g>
    <g id="SPLINE-19" data-name="SPLINE">
      <path class="cls-1" d="M8.01,3.31c-.19-1.44-.63-2.47-1.14-2.69"/>
    </g>
    <g id="LINE-23" data-name="LINE">
      <line class="cls-1" x1="6.86" y1=".63" x2="5.36" y2=".63"/>
    </g>
    <g id="SPLINE-20" data-name="SPLINE">
      <path class="cls-1" d="M5.36.63c-.51.22-.95,1.25-1.14,2.69"/>
    </g>
    <g id="SPLINE-21" data-name="SPLINE">
      <path class="cls-1" d="M4.22,3.31c-.19,1.44-.11,3.09.21,4.31"/>
    </g>
    <g id="LINE-24" data-name="LINE">
      <line class="cls-1" x1="5.27" y1="7.63" x2="6.96" y2="7.63"/>
    </g>
    <g id="SPLINE-22" data-name="SPLINE">
      <path class="cls-1" d="M6.96,7.63c.16-1.22.2-2.87.1-4.31"/>
    </g>
    <g id="SPLINE-23" data-name="SPLINE">
      <path class="cls-1" d="M7.06,3.31c-.1-1.44-.31-2.47-.57-2.69"/>
    </g>
    <g id="LINE-25" data-name="LINE">
      <line class="cls-1" x1="6.49" y1=".63" x2="5.74" y2=".63"/>
    </g>
    <g id="SPLINE-24" data-name="SPLINE">
      <path class="cls-1" d="M5.74.63c-.26.22-.48,1.25-.57,2.69"/>
    </g>
    <g id="SPLINE-25" data-name="SPLINE">
      <path class="cls-1" d="M5.17,3.31c-.1,1.44-.06,3.09.1,4.31"/>
    </g>
  </g>
</svg>