<svg width="50" height="6" viewBox="0 0 50 6" fill="none" xmlns="http://www.w3.org/2000/svg">
<path d="M0 0.5V1.5H0.125V2.5H0V3.5H0.125V4.5H0V5.5H0.125V5.875H0.5V6H1.5V5.875H2.5V6H3.5V5.875H4.5V6H5.5V5.875H6.5V6H7.5V5.875H8.5V6H9.5V5.875H10.5V6H11.5V5.875H12.5V6H13.5V5.875H14.5V6H15.5V5.875H16.5V6H17.5V5.875H18.5V6H19.5V5.875H20.5V6H21.5V5.875H22.5V6H23.5V5.875H24.5V6H25.5V5.875H26.5V6H27.5V5.875H28.5V6H29.5V5.875H30.5V6H31.5V5.875H32.5V6H33.5V5.875H34.5V6H35.5V5.875H36.5V6H37.5V5.875H38.5V6H39.5V5.875H40.5V6H41.5V5.875H42.5V6H43.5V5.875H44.5V6H45.5V5.875H46.5V6H47.5V5.875H48.5V6H49.5V5.875H49.875V5.5H50V4.5H49.875V3.5H50V2.5H49.875V1.5H50V0.5H49.875V0.125H49.5V0H48.5V0.125H47.5V0H46.5V0.125H45.5V0H44.5V0.125H43.5V0H42.5V0.125H41.5V0H40.5V0.125H39.5V0H38.5V0.125H37.5V0H36.5V0.125H35.5V0H34.5V0.125H33.5V0H32.5V0.125H31.5V0H30.5V0.125H29.5V0H28.5V0.125H27.5V0H26.5V0.125H25.5V0H24.5V0.125H23.5V0H22.5V0.125H21.5V0H20.5V0.125H19.5V0H18.5V0.125H17.5V0H16.5V0.125H15.5V0H14.5V0.125H13.5V0H12.5V0.125H11.5V0H10.5V0.125H9.5V0H8.5V0.125H7.5V0H6.5V0.125H5.5V0H4.5V0.125H3.5V0H2.5V0.125H1.5V0H0.5V0.125H0.125V0.5H0Z" fill="white" stroke="black" stroke-width="0.25" stroke-dasharray="1 1"/>
</svg>
