<svg width="118" height="103" viewBox="0 0 118 103" fill="none" xmlns="http://www.w3.org/2000/svg">
<g clip-path="url(#clip0_592_4265)">
<path opacity="0.5" d="M104.992 3.94067H102.248V95.2141H104.992V3.94067Z" fill="#E5E5E5"/>
<path opacity="0.5" d="M94.097 3.94067H91.3535V95.2141H94.097V3.94067Z" fill="#E5E5E5"/>
<path opacity="0.5" d="M83.1947 3.94067H80.4512V95.2141H83.1947V3.94067Z" fill="#E5E5E5"/>
<path opacity="0.5" d="M72.3001 3.94067H69.5566V95.2141H72.3001V3.94067Z" fill="#E5E5E5"/>
<path opacity="0.5" d="M61.3958 3.94067H58.6523V95.2141H61.3958V3.94067Z" fill="#E5E5E5"/>
<path opacity="0.5" d="M50.5013 3.94067H47.7578V95.2141H50.5013V3.94067Z" fill="#E5E5E5"/>
<path opacity="0.5" d="M39.6087 3.94067H36.8652V95.2141H39.6087V3.94067Z" fill="#E5E5E5"/>
<path opacity="0.5" d="M28.7044 3.94067H25.9609V95.2141H28.7044V3.94067Z" fill="#E5E5E5"/>
<path opacity="0.5" d="M17.8099 3.94067H15.0664V95.2141H17.8099V3.94067Z" fill="#E5E5E5"/>
<path opacity="0.5" d="M1.78699 8.65942H0.220703V11.8518H1.78699V8.65942Z" fill="white"/>
<path opacity="0.5" d="M1.74792 35.885H0.181641V39.0774H1.74792V35.885Z" fill="white"/>
<path opacity="0.5" d="M1.73621 63.1104H0.169922V66.3028H1.73621V63.1104Z" fill="white"/>
<path opacity="0.5" d="M1.69714 90.3257H0.130859V93.5181H1.69714V90.3257Z" fill="white"/>
<path opacity="0.5" d="M12.4023 95.214V3.94055" stroke="black" stroke-width="0.259385" stroke-linecap="round" stroke-linejoin="round"/>
<path opacity="0.5" d="M20.4746 95.2141V3.94067" stroke="black" stroke-width="0.259385" stroke-linecap="round" stroke-linejoin="round"/>
<path opacity="0.5" d="M23.2969 95.214V3.94055" stroke="black" stroke-width="0.259385" stroke-linecap="round" stroke-linejoin="round"/>
<path opacity="0.5" d="M31.3672 95.214V3.94055" stroke="black" stroke-width="0.259385" stroke-linecap="round" stroke-linejoin="round"/>
<path opacity="0.5" d="M34.2012 95.2141V3.94067" stroke="black" stroke-width="0.259385" stroke-linecap="round" stroke-linejoin="round"/>
<path opacity="0.5" d="M42.2617 95.2141V3.94067" stroke="black" stroke-width="0.259385" stroke-linecap="round" stroke-linejoin="round"/>
<path opacity="0.5" d="M45.0957 95.2141V3.94067" stroke="black" stroke-width="0.259385" stroke-linecap="round" stroke-linejoin="round"/>
<path opacity="0.5" d="M53.166 95.2141V3.94067" stroke="black" stroke-width="0.259385" stroke-linecap="round" stroke-linejoin="round"/>
<path opacity="0.5" d="M55.9883 95.214V3.94055" stroke="black" stroke-width="0.259385" stroke-linecap="round" stroke-linejoin="round"/>
<path opacity="0.5" d="M64.0605 95.2141V3.94067" stroke="black" stroke-width="0.259385" stroke-linecap="round" stroke-linejoin="round"/>
<path opacity="0.5" d="M66.8926 95.214V3.94055" stroke="black" stroke-width="0.259385" stroke-linecap="round" stroke-linejoin="round"/>
<path opacity="0.5" d="M74.9629 95.214V3.94055" stroke="black" stroke-width="0.259385" stroke-linecap="round" stroke-linejoin="round"/>
<path opacity="0.5" d="M77.7871 95.2141V3.94067" stroke="black" stroke-width="0.259385" stroke-linecap="round" stroke-linejoin="round"/>
<path opacity="0.5" d="M85.8574 95.214V3.94055" stroke="black" stroke-width="0.259385" stroke-linecap="round" stroke-linejoin="round"/>
<path opacity="0.5" d="M88.6914 95.2141V3.94067" stroke="black" stroke-width="0.259385" stroke-linecap="round" stroke-linejoin="round"/>
<path opacity="0.5" d="M96.7617 95.2141V3.94067" stroke="black" stroke-width="0.259385" stroke-linecap="round" stroke-linejoin="round"/>
<path opacity="0.5" d="M99.584 95.214V3.94055" stroke="black" stroke-width="0.259385" stroke-linecap="round" stroke-linejoin="round"/>
<path opacity="0.5" d="M104.992 3.94067H102.248V95.2141H104.992V3.94067Z" stroke="black" stroke-width="0.259385" stroke-linecap="round" stroke-linejoin="round"/>
<path opacity="0.5" d="M107.656 95.2141V3.94067" stroke="black" stroke-width="0.259385" stroke-linecap="round" stroke-linejoin="round"/>
<path opacity="0.5" d="M110.479 95.2141V3.94067" stroke="black" stroke-width="0.259385" stroke-linecap="round" stroke-linejoin="round"/>
<path opacity="0.5" d="M10.5879 95.2141V3.94067" stroke="black" stroke-width="0.259385" stroke-linecap="round" stroke-linejoin="round"/>
<path opacity="0.5" d="M9.30859 95.4634V3.94055" stroke="black" stroke-width="0.259385" stroke-linecap="round" stroke-linejoin="round"/>
<path opacity="0.5" d="M71.123 101.2V96.6407H85.2595V101.2" stroke="black" stroke-width="0.259385" stroke-linecap="round" stroke-linejoin="round"/>
<path opacity="0.5" d="M7.12426 97.2491H0.130859V101.878H7.12426V97.2491Z" stroke="black" stroke-width="0.259385" stroke-linecap="round" stroke-linejoin="round"/>
<path opacity="0.5" d="M2.54492 100.551V98.4963C3.07367 98.0274 3.8618 98.0274 4.38057 98.4963V100.551C3.85182 101.02 3.06369 101.02 2.54492 100.551Z" stroke="black" stroke-width="0.259385" stroke-linecap="round" stroke-linejoin="round"/>
<path opacity="0.5" d="M7.12426 0.129761H0.130859V4.76875H7.12426V0.129761Z" stroke="black" stroke-width="0.259385" stroke-linecap="round" stroke-linejoin="round"/>
<path opacity="0.5" d="M2.54492 3.56157V1.50645C3.07367 1.03756 3.8618 1.03756 4.38057 1.50645V3.56157C3.85182 4.03046 3.06369 4.03046 2.54492 3.56157Z" stroke="black" stroke-width="0.259385" stroke-linecap="round" stroke-linejoin="round"/>
<path opacity="0.5" d="M7.11523 3.94067H110.889" stroke="black" stroke-width="0.259385" stroke-linecap="round" stroke-linejoin="round"/>
<path opacity="0.5" d="M7.11523 1.69592H110.889" stroke="black" stroke-width="0.259385" stroke-linecap="round" stroke-linejoin="round"/>
<path opacity="0.5" d="M7.11523 101.2H110.889" stroke="black" stroke-width="0.259385" stroke-linecap="round" stroke-linejoin="round"/>
<path opacity="0.5" d="M110.889 95.2141H7.11523V97.2493" stroke="black" stroke-width="0.259385" stroke-linecap="round" stroke-linejoin="round"/>
<path opacity="0.5" d="M117.881 97.2493V4.75879" stroke="black" stroke-width="0.259385" stroke-linecap="round" stroke-linejoin="round"/>
<path opacity="0.5" d="M46.3318 101.2V96.6406H32.1953V101.2" stroke="black" stroke-width="0.259385" stroke-linecap="round" stroke-linejoin="round"/>
<path opacity="0.5" d="M117.882 97.2491H110.889V101.878H117.882V97.2491Z" stroke="black" stroke-width="0.259385" stroke-linecap="round" stroke-linejoin="round"/>
<path opacity="0.5" d="M113.621 100.551V98.4963C114.15 98.0274 114.938 98.0274 115.457 98.4963V100.551C114.928 101.02 114.14 101.02 113.621 100.551Z" stroke="black" stroke-width="0.259385" stroke-linecap="round" stroke-linejoin="round"/>
<path opacity="0.5" d="M117.882 0.129761H110.889V4.76875H117.882V0.129761Z" stroke="black" stroke-width="0.259385" stroke-linecap="round" stroke-linejoin="round"/>
<path opacity="0.5" d="M113.621 3.56157V1.50645C114.15 1.03756 114.938 1.03756 115.457 1.50645V3.56157C114.928 4.03046 114.14 4.03046 113.621 3.56157Z" stroke="black" stroke-width="0.259385" stroke-linecap="round" stroke-linejoin="round"/>
<path opacity="0.5" d="M92.0742 1.69592H92.9122H93.7602" stroke="black" stroke-width="0.259385" stroke-linecap="round" stroke-linejoin="round"/>
<path opacity="0.5" d="M93.7578 1.69621C93.8178 1.69621 93.8678 1.66621 93.8978 1.61621" stroke="black" stroke-width="0.259385" stroke-linecap="round" stroke-linejoin="round"/>
<path opacity="0.5" d="M93.8984 1.61614L94.3374 0.758179" stroke="black" stroke-width="0.259385" stroke-linecap="round" stroke-linejoin="round"/>
<path opacity="0.5" d="M94.3379 0.758467C94.3679 0.708467 94.4179 0.678467 94.4879 0.678467" stroke="black" stroke-width="0.259385" stroke-linecap="round" stroke-linejoin="round"/>
<path opacity="0.5" d="M94.4785 0.678467H97.8605" stroke="black" stroke-width="0.259385" stroke-linecap="round" stroke-linejoin="round"/>
<path opacity="0.5" d="M97.8594 0.678467C97.9194 0.678467 97.9794 0.708467 97.9994 0.758467" stroke="black" stroke-width="0.259385" stroke-linecap="round" stroke-linejoin="round"/>
<path opacity="0.5" d="M97.998 0.758179L98.447 1.61614" stroke="black" stroke-width="0.259385" stroke-linecap="round" stroke-linejoin="round"/>
<path opacity="0.5" d="M98.4492 1.61609C98.4792 1.66609 98.5292 1.69609 98.5892 1.69609" stroke="black" stroke-width="0.259385" stroke-linecap="round" stroke-linejoin="round"/>
<path opacity="0.5" d="M98.5781 1.69592H99.4261" stroke="black" stroke-width="0.259385" stroke-linecap="round" stroke-linejoin="round"/>
<path opacity="0.5" d="M85.5469 1.69592H86.3949H87.2428" stroke="black" stroke-width="0.259385" stroke-linecap="round" stroke-linejoin="round"/>
<path opacity="0.5" d="M87.2441 1.69621C87.2941 1.69621 87.3541 1.66621 87.3841 1.61621" stroke="black" stroke-width="0.259385" stroke-linecap="round" stroke-linejoin="round"/>
<path opacity="0.5" d="M87.3848 1.61626L87.8237 0.758301" stroke="black" stroke-width="0.259385" stroke-linecap="round" stroke-linejoin="round"/>
<path opacity="0.5" d="M87.8242 0.758467C87.8542 0.708467 87.9042 0.678467 87.9642 0.678467" stroke="black" stroke-width="0.259385" stroke-linecap="round" stroke-linejoin="round"/>
<path opacity="0.5" d="M87.9629 0.678467H91.3449" stroke="black" stroke-width="0.259385" stroke-linecap="round" stroke-linejoin="round"/>
<path opacity="0.5" d="M91.3438 0.678467C91.4037 0.678467 91.4537 0.708467 91.4837 0.758467" stroke="black" stroke-width="0.259385" stroke-linecap="round" stroke-linejoin="round"/>
<path opacity="0.5" d="M91.4844 0.758301L91.9233 1.61626" stroke="black" stroke-width="0.259385" stroke-linecap="round" stroke-linejoin="round"/>
<path opacity="0.5" d="M91.9238 1.61609C91.9538 1.66609 92.0038 1.69609 92.0738 1.69609" stroke="black" stroke-width="0.259385" stroke-linecap="round" stroke-linejoin="round"/>
<path opacity="0.5" d="M79.0332 1.69592H79.8812H80.7192" stroke="black" stroke-width="0.259385" stroke-linecap="round" stroke-linejoin="round"/>
<path opacity="0.5" d="M80.7188 1.69621C80.7787 1.69621 80.8387 1.66621 80.8587 1.61621" stroke="black" stroke-width="0.259385" stroke-linecap="round" stroke-linejoin="round"/>
<path opacity="0.5" d="M80.8594 1.61626L81.3083 0.758301" stroke="black" stroke-width="0.259385" stroke-linecap="round" stroke-linejoin="round"/>
<path opacity="0.5" d="M81.3086 0.758467C81.3386 0.708467 81.3886 0.678467 81.4486 0.678467" stroke="black" stroke-width="0.259385" stroke-linecap="round" stroke-linejoin="round"/>
<path opacity="0.5" d="M81.4473 0.678467H84.8292" stroke="black" stroke-width="0.259385" stroke-linecap="round" stroke-linejoin="round"/>
<path opacity="0.5" d="M84.8301 0.678467C84.8801 0.678467 84.9401 0.708467 84.9701 0.758467" stroke="black" stroke-width="0.259385" stroke-linecap="round" stroke-linejoin="round"/>
<path opacity="0.5" d="M84.9688 0.758301L85.4077 1.61626" stroke="black" stroke-width="0.259385" stroke-linecap="round" stroke-linejoin="round"/>
<path opacity="0.5" d="M85.4102 1.61609C85.4402 1.66609 85.4902 1.69609 85.5502 1.69609" stroke="black" stroke-width="0.259385" stroke-linecap="round" stroke-linejoin="round"/>
<path opacity="0.5" d="M72.5098 1.69592H73.3578H74.2057" stroke="black" stroke-width="0.259385" stroke-linecap="round" stroke-linejoin="round"/>
<path opacity="0.5" d="M74.2051 1.69609C74.2551 1.69609 74.3151 1.66609 74.3451 1.61609" stroke="black" stroke-width="0.259385" stroke-linecap="round" stroke-linejoin="round"/>
<path opacity="0.5" d="M74.3457 1.61626L74.7847 0.758301" stroke="black" stroke-width="0.259385" stroke-linecap="round" stroke-linejoin="round"/>
<path opacity="0.5" d="M74.7852 0.758467C74.8152 0.708467 74.8652 0.678467 74.9252 0.678467" stroke="black" stroke-width="0.259385" stroke-linecap="round" stroke-linejoin="round"/>
<path opacity="0.5" d="M74.9238 0.678467H78.3058" stroke="black" stroke-width="0.259385" stroke-linecap="round" stroke-linejoin="round"/>
<path opacity="0.5" d="M78.3047 0.678467C78.3647 0.678467 78.4247 0.708467 78.4447 0.758467" stroke="black" stroke-width="0.259385" stroke-linecap="round" stroke-linejoin="round"/>
<path opacity="0.5" d="M78.4453 0.758301L78.8943 1.61626" stroke="black" stroke-width="0.259385" stroke-linecap="round" stroke-linejoin="round"/>
<path opacity="0.5" d="M78.8945 1.61609C78.9245 1.66609 78.9745 1.69609 79.0345 1.69609" stroke="black" stroke-width="0.259385" stroke-linecap="round" stroke-linejoin="round"/>
<path opacity="0.5" d="M65.9941 1.69592H66.8421H67.6901" stroke="black" stroke-width="0.259385" stroke-linecap="round" stroke-linejoin="round"/>
<path opacity="0.5" d="M67.6914 1.69609C67.7514 1.69609 67.8114 1.66609 67.8314 1.61609" stroke="black" stroke-width="0.259385" stroke-linecap="round" stroke-linejoin="round"/>
<path opacity="0.5" d="M67.8301 1.61626L68.269 0.758301" stroke="black" stroke-width="0.259385" stroke-linecap="round" stroke-linejoin="round"/>
<path opacity="0.5" d="M68.2695 0.758467C68.2995 0.708467 68.3495 0.678467 68.4095 0.678467" stroke="black" stroke-width="0.259385" stroke-linecap="round" stroke-linejoin="round"/>
<path opacity="0.5" d="M68.4082 0.678467H71.7902" stroke="black" stroke-width="0.259385" stroke-linecap="round" stroke-linejoin="round"/>
<path opacity="0.5" d="M71.791 0.678467C71.841 0.678467 71.901 0.708467 71.931 0.758467" stroke="black" stroke-width="0.259385" stroke-linecap="round" stroke-linejoin="round"/>
<path opacity="0.5" d="M71.9316 0.758301L72.3706 1.61626" stroke="black" stroke-width="0.259385" stroke-linecap="round" stroke-linejoin="round"/>
<path opacity="0.5" d="M72.3691 1.61621C72.3991 1.66621 72.4491 1.69621 72.5091 1.69621" stroke="black" stroke-width="0.259385" stroke-linecap="round" stroke-linejoin="round"/>
<path opacity="0.5" d="M59.4805 1.69592H60.3285H61.1764" stroke="black" stroke-width="0.259385" stroke-linecap="round" stroke-linejoin="round"/>
<path opacity="0.5" d="M61.1758 1.69609C61.2358 1.69609 61.2858 1.66609 61.3158 1.61609" stroke="black" stroke-width="0.259385" stroke-linecap="round" stroke-linejoin="round"/>
<path opacity="0.5" d="M61.3145 1.61626L61.7534 0.758301" stroke="black" stroke-width="0.259385" stroke-linecap="round" stroke-linejoin="round"/>
<path opacity="0.5" d="M61.7539 0.758467C61.7839 0.708467 61.8339 0.678467 61.9039 0.678467" stroke="black" stroke-width="0.259385" stroke-linecap="round" stroke-linejoin="round"/>
<path opacity="0.5" d="M61.8945 0.678467H65.2765" stroke="black" stroke-width="0.259385" stroke-linecap="round" stroke-linejoin="round"/>
<path opacity="0.5" d="M65.2773 0.678467C65.3373 0.678467 65.3973 0.708467 65.4173 0.758467" stroke="black" stroke-width="0.259385" stroke-linecap="round" stroke-linejoin="round"/>
<path opacity="0.5" d="M65.4141 0.758301L65.863 1.61626" stroke="black" stroke-width="0.259385" stroke-linecap="round" stroke-linejoin="round"/>
<path opacity="0.5" d="M65.8652 1.61621C65.8952 1.66621 65.9452 1.69621 66.0052 1.69621" stroke="black" stroke-width="0.259385" stroke-linecap="round" stroke-linejoin="round"/>
<path opacity="0.5" d="M52.9668 1.69592H53.8148H54.6628" stroke="black" stroke-width="0.259385" stroke-linecap="round" stroke-linejoin="round"/>
<path opacity="0.5" d="M54.6602 1.69609C54.7202 1.69609 54.7702 1.66609 54.8002 1.61609" stroke="black" stroke-width="0.259385" stroke-linecap="round" stroke-linejoin="round"/>
<path opacity="0.5" d="M54.8027 1.61626L55.2417 0.758301" stroke="black" stroke-width="0.259385" stroke-linecap="round" stroke-linejoin="round"/>
<path opacity="0.5" d="M55.2402 0.758467C55.2702 0.708467 55.3202 0.678467 55.3802 0.678467" stroke="black" stroke-width="0.259385" stroke-linecap="round" stroke-linejoin="round"/>
<path opacity="0.5" d="M55.3809 0.678345H58.7628" stroke="black" stroke-width="0.259385" stroke-linecap="round" stroke-linejoin="round"/>
<path opacity="0.5" d="M58.7617 0.678467C58.8217 0.678467 58.8717 0.708467 58.9017 0.758467" stroke="black" stroke-width="0.259385" stroke-linecap="round" stroke-linejoin="round"/>
<path opacity="0.5" d="M58.9023 0.758301L59.3413 1.61626" stroke="black" stroke-width="0.259385" stroke-linecap="round" stroke-linejoin="round"/>
<path opacity="0.5" d="M59.3398 1.61621C59.3698 1.66621 59.4198 1.69621 59.4798 1.69621" stroke="black" stroke-width="0.259385" stroke-linecap="round" stroke-linejoin="round"/>
<path opacity="0.5" d="M46.4492 1.69592H47.2872H48.1352" stroke="black" stroke-width="0.259385" stroke-linecap="round" stroke-linejoin="round"/>
<path opacity="0.5" d="M48.1348 1.69609C48.1948 1.69609 48.2448 1.66609 48.2748 1.61609" stroke="black" stroke-width="0.259385" stroke-linecap="round" stroke-linejoin="round"/>
<path opacity="0.5" d="M48.2773 1.61626L48.7263 0.758301" stroke="black" stroke-width="0.259385" stroke-linecap="round" stroke-linejoin="round"/>
<path opacity="0.5" d="M48.7266 0.758467C48.7466 0.708467 48.8066 0.678467 48.8666 0.678467" stroke="black" stroke-width="0.259385" stroke-linecap="round" stroke-linejoin="round"/>
<path opacity="0.5" d="M48.8652 0.678467H52.2472" stroke="black" stroke-width="0.259385" stroke-linecap="round" stroke-linejoin="round"/>
<path opacity="0.5" d="M52.2461 0.678467C52.3061 0.678467 52.3561 0.708467 52.3861 0.758467" stroke="black" stroke-width="0.259385" stroke-linecap="round" stroke-linejoin="round"/>
<path opacity="0.5" d="M52.3887 0.758301L52.8276 1.61626" stroke="black" stroke-width="0.259385" stroke-linecap="round" stroke-linejoin="round"/>
<path opacity="0.5" d="M52.8262 1.61609C52.8562 1.66609 52.9062 1.69609 52.9662 1.69609" stroke="black" stroke-width="0.259385" stroke-linecap="round" stroke-linejoin="round"/>
<path opacity="0.5" d="M39.9277 1.69592H40.7757H41.6237" stroke="black" stroke-width="0.259385" stroke-linecap="round" stroke-linejoin="round"/>
<path opacity="0.5" d="M41.623 1.69609C41.683 1.69609 41.733 1.66609 41.763 1.61609" stroke="black" stroke-width="0.259385" stroke-linecap="round" stroke-linejoin="round"/>
<path opacity="0.5" d="M41.7637 1.61626L42.2026 0.758301" stroke="black" stroke-width="0.259385" stroke-linecap="round" stroke-linejoin="round"/>
<path opacity="0.5" d="M42.2012 0.758467C42.2312 0.708467 42.2812 0.678467 42.3412 0.678467" stroke="black" stroke-width="0.259385" stroke-linecap="round" stroke-linejoin="round"/>
<path opacity="0.5" d="M42.3398 0.678467H45.7218" stroke="black" stroke-width="0.259385" stroke-linecap="round" stroke-linejoin="round"/>
<path opacity="0.5" d="M45.7227 0.678467C45.7827 0.678467 45.8327 0.708467 45.8627 0.758467" stroke="black" stroke-width="0.259385" stroke-linecap="round" stroke-linejoin="round"/>
<path opacity="0.5" d="M45.8633 0.758301L46.3122 1.61626" stroke="black" stroke-width="0.259385" stroke-linecap="round" stroke-linejoin="round"/>
<path opacity="0.5" d="M46.3105 1.61621C46.3305 1.66621 46.3906 1.69621 46.4506 1.69621" stroke="black" stroke-width="0.259385" stroke-linecap="round" stroke-linejoin="round"/>
<path opacity="0.5" d="M33.4121 1.69592H34.2601H35.1081" stroke="black" stroke-width="0.259385" stroke-linecap="round" stroke-linejoin="round"/>
<path opacity="0.5" d="M35.1094 1.69609C35.1694 1.69609 35.2294 1.66609 35.2594 1.61609" stroke="black" stroke-width="0.259385" stroke-linecap="round" stroke-linejoin="round"/>
<path opacity="0.5" d="M35.248 1.61626L35.687 0.758301" stroke="black" stroke-width="0.259385" stroke-linecap="round" stroke-linejoin="round"/>
<path opacity="0.5" d="M35.6875 0.758345C35.7175 0.708345 35.7675 0.678345 35.8275 0.678345" stroke="black" stroke-width="0.259385" stroke-linecap="round" stroke-linejoin="round"/>
<path opacity="0.5" d="M35.8262 0.678467H39.2081" stroke="black" stroke-width="0.259385" stroke-linecap="round" stroke-linejoin="round"/>
<path opacity="0.5" d="M39.209 0.678467C39.269 0.678467 39.319 0.708467 39.349 0.758467" stroke="black" stroke-width="0.259385" stroke-linecap="round" stroke-linejoin="round"/>
<path opacity="0.5" d="M39.3496 0.758301L39.7886 1.61626" stroke="black" stroke-width="0.259385" stroke-linecap="round" stroke-linejoin="round"/>
<path opacity="0.5" d="M39.7871 1.61621C39.8171 1.66621 39.8671 1.69621 39.9271 1.69621" stroke="black" stroke-width="0.259385" stroke-linecap="round" stroke-linejoin="round"/>
<path opacity="0.5" d="M26.8984 1.69592H27.7464H28.5944" stroke="black" stroke-width="0.259385" stroke-linecap="round" stroke-linejoin="round"/>
<path opacity="0.5" d="M28.5938 1.69609C28.6537 1.69609 28.7037 1.66609 28.7337 1.61609" stroke="black" stroke-width="0.259385" stroke-linecap="round" stroke-linejoin="round"/>
<path opacity="0.5" d="M28.7227 1.61614L29.1716 0.758179" stroke="black" stroke-width="0.259385" stroke-linecap="round" stroke-linejoin="round"/>
<path opacity="0.5" d="M29.1699 0.758467C29.1999 0.708467 29.2499 0.678467 29.3199 0.678467" stroke="black" stroke-width="0.259385" stroke-linecap="round" stroke-linejoin="round"/>
<path opacity="0.5" d="M29.3125 0.678467H32.6945" stroke="black" stroke-width="0.259385" stroke-linecap="round" stroke-linejoin="round"/>
<path opacity="0.5" d="M32.6953 0.678467C32.7553 0.678467 32.8153 0.708467 32.8353 0.758467" stroke="black" stroke-width="0.259385" stroke-linecap="round" stroke-linejoin="round"/>
<path opacity="0.5" d="M32.832 0.758179L33.271 1.61614" stroke="black" stroke-width="0.259385" stroke-linecap="round" stroke-linejoin="round"/>
<path opacity="0.5" d="M33.2715 1.61609C33.3015 1.66609 33.3515 1.69609 33.4115 1.69609" stroke="black" stroke-width="0.259385" stroke-linecap="round" stroke-linejoin="round"/>
<path opacity="0.5" d="M21.2324 1.69592H22.0804" stroke="black" stroke-width="0.259385" stroke-linecap="round" stroke-linejoin="round"/>
<path opacity="0.5" d="M22.0801 1.69609C22.1401 1.69609 22.1901 1.66609 22.2201 1.61609" stroke="black" stroke-width="0.259385" stroke-linecap="round" stroke-linejoin="round"/>
<path opacity="0.5" d="M22.2188 1.61628L22.6577 0.768287C22.6876 0.718406 22.7375 0.688477 22.7974 0.688477H26.1794" stroke="black" stroke-width="0.259385" stroke-linecap="round" stroke-linejoin="round"/>
<path opacity="0.5" d="M26.1797 0.678467C26.2397 0.678467 26.2897 0.708467 26.3197 0.758467" stroke="black" stroke-width="0.259385" stroke-linecap="round" stroke-linejoin="round"/>
<path opacity="0.5" d="M26.3184 0.758179L26.7573 1.61614" stroke="black" stroke-width="0.259385" stroke-linecap="round" stroke-linejoin="round"/>
<path opacity="0.5" d="M26.7578 1.61609C26.7878 1.66609 26.8378 1.69609 26.8978 1.69609" stroke="black" stroke-width="0.259385" stroke-linecap="round" stroke-linejoin="round"/>
<path opacity="0.5" d="M7.11523 96.6407H110.889" stroke="black" stroke-width="0.259385" stroke-linecap="round" stroke-linejoin="round"/>
<path opacity="0.5" d="M110.889 97.2493V4.75879" stroke="black" stroke-width="0.259385" stroke-linecap="round" stroke-linejoin="round"/>
<path opacity="0.5" d="M96.832 6.04578H99.5057" stroke="black" stroke-width="0.259385" stroke-linecap="round" stroke-linejoin="round"/>
<path opacity="0.5" d="M96.832 5.99585V11.5527H99.4957V6.00583" stroke="black" stroke-width="0.259385" stroke-linecap="round" stroke-linejoin="round"/>
<path opacity="0.5" d="M97.3105 6.66431H99.0165" stroke="black" stroke-width="0.259385" stroke-linecap="round" stroke-linejoin="round"/>
<path opacity="0.5" d="M99.0156 6.66431C99.1456 6.66431 99.2556 6.75431 99.2556 6.87431" stroke="black" stroke-width="0.259385" stroke-linecap="round" stroke-linejoin="round"/>
<path opacity="0.5" d="M99.2559 6.87378V10.9142" stroke="black" stroke-width="0.259385" stroke-linecap="round" stroke-linejoin="round"/>
<path opacity="0.5" d="M99.2556 10.9142C99.2556 11.0342 99.1456 11.1242 99.0156 11.1242" stroke="black" stroke-width="0.259385" stroke-linecap="round" stroke-linejoin="round"/>
<path opacity="0.5" d="M99.0165 11.1237H97.3105" stroke="black" stroke-width="0.259385" stroke-linecap="round" stroke-linejoin="round"/>
<path opacity="0.5" d="M97.3103 11.1242C97.1803 11.1242 97.0703 11.0342 97.0703 10.9142" stroke="black" stroke-width="0.259385" stroke-linecap="round" stroke-linejoin="round"/>
<path opacity="0.5" d="M97.0703 10.9141V6.87366" stroke="black" stroke-width="0.259385" stroke-linecap="round" stroke-linejoin="round"/>
<path opacity="0.5" d="M97.0703 6.87431C97.0703 6.75431 97.1803 6.66431 97.3103 6.66431" stroke="black" stroke-width="0.259385" stroke-linecap="round" stroke-linejoin="round"/>
<path opacity="0.5" d="M97.0703 9.84668H99.2551" stroke="black" stroke-width="0.259385" stroke-linecap="round" stroke-linejoin="round"/>
<path opacity="0.5" d="M97.4012 6.31506C97.4012 6.37506 97.3412 6.42506 97.2812 6.42506" stroke="black" stroke-width="0.259385" stroke-linecap="round" stroke-linejoin="round"/>
<path opacity="0.5" d="M97.2704 6.42494C97.2004 6.42494 97.1504 6.37494 97.1504 6.31494" stroke="black" stroke-width="0.259385" stroke-linecap="round" stroke-linejoin="round"/>
<path opacity="0.5" d="M97.1504 6.3152C97.1504 6.2552 97.2004 6.2052 97.2704 6.2052" stroke="black" stroke-width="0.259385" stroke-linecap="round" stroke-linejoin="round"/>
<path opacity="0.5" d="M97.2695 6.20532C97.3395 6.20532 97.3895 6.25532 97.3895 6.31532" stroke="black" stroke-width="0.259385" stroke-linecap="round" stroke-linejoin="round"/>
<path opacity="0.5" d="M98.288 11.3331C98.288 11.3931 98.228 11.4431 98.168 11.4431" stroke="black" stroke-width="0.259385" stroke-linecap="round" stroke-linejoin="round"/>
<path opacity="0.5" d="M98.1688 11.4431C98.0988 11.4431 98.0488 11.3931 98.0488 11.3331" stroke="black" stroke-width="0.259385" stroke-linecap="round" stroke-linejoin="round"/>
<path opacity="0.5" d="M98.0391 11.3334C98.0391 11.2734 98.0991 11.2234 98.1591 11.2234" stroke="black" stroke-width="0.259385" stroke-linecap="round" stroke-linejoin="round"/>
<path opacity="0.5" d="M98.168 11.2234C98.238 11.2234 98.288 11.2734 98.288 11.3334" stroke="black" stroke-width="0.259385" stroke-linecap="round" stroke-linejoin="round"/>
<path opacity="0.5" d="M99.1864 6.31494C99.1864 6.37494 99.1264 6.42494 99.0664 6.42494" stroke="black" stroke-width="0.259385" stroke-linecap="round" stroke-linejoin="round"/>
<path opacity="0.5" d="M99.0673 6.42506C98.9973 6.42506 98.9473 6.37506 98.9473 6.31506" stroke="black" stroke-width="0.259385" stroke-linecap="round" stroke-linejoin="round"/>
<path opacity="0.5" d="M98.9355 6.31532C98.9355 6.25532 98.9955 6.20532 99.0555 6.20532" stroke="black" stroke-width="0.259385" stroke-linecap="round" stroke-linejoin="round"/>
<path opacity="0.5" d="M99.0664 6.20532C99.1364 6.20532 99.1864 6.25532 99.1864 6.31532" stroke="black" stroke-width="0.259385" stroke-linecap="round" stroke-linejoin="round"/>
<path opacity="0.5" d="M20.5527 6.16541H23.2264" stroke="black" stroke-width="0.259385" stroke-linecap="round" stroke-linejoin="round"/>
<path opacity="0.5" d="M20.5527 6.12549V11.6823H23.2164V6.12549" stroke="black" stroke-width="0.259385" stroke-linecap="round" stroke-linejoin="round"/>
<path opacity="0.5" d="M21.0312 6.78394H22.7372" stroke="black" stroke-width="0.259385" stroke-linecap="round" stroke-linejoin="round"/>
<path opacity="0.5" d="M22.7383 6.78394C22.8683 6.78394 22.9783 6.87394 22.9783 6.99394" stroke="black" stroke-width="0.259385" stroke-linecap="round" stroke-linejoin="round"/>
<path opacity="0.5" d="M22.9766 6.99341V11.0338" stroke="black" stroke-width="0.259385" stroke-linecap="round" stroke-linejoin="round"/>
<path opacity="0.5" d="M22.9783 11.0338C22.9783 11.1538 22.8683 11.2438 22.7383 11.2438" stroke="black" stroke-width="0.259385" stroke-linecap="round" stroke-linejoin="round"/>
<path opacity="0.5" d="M22.7372 11.2434H21.0312" stroke="black" stroke-width="0.259385" stroke-linecap="round" stroke-linejoin="round"/>
<path opacity="0.5" d="M21.033 11.2439C20.903 11.2439 20.793 11.1539 20.793 11.0339" stroke="black" stroke-width="0.259385" stroke-linecap="round" stroke-linejoin="round"/>
<path opacity="0.5" d="M20.793 11.0338V6.99341" stroke="black" stroke-width="0.259385" stroke-linecap="round" stroke-linejoin="round"/>
<path opacity="0.5" d="M20.793 6.99394C20.793 6.87394 20.903 6.78394 21.033 6.78394" stroke="black" stroke-width="0.259385" stroke-linecap="round" stroke-linejoin="round"/>
<path opacity="0.5" d="M20.793 9.96631H22.9778" stroke="black" stroke-width="0.259385" stroke-linecap="round" stroke-linejoin="round"/>
<path opacity="0.5" d="M21.122 6.44458C21.122 6.50458 21.062 6.55458 21.002 6.55458" stroke="black" stroke-width="0.259385" stroke-linecap="round" stroke-linejoin="round"/>
<path opacity="0.5" d="M20.9911 6.5547C20.9211 6.5547 20.8711 6.5047 20.8711 6.4447" stroke="black" stroke-width="0.259385" stroke-linecap="round" stroke-linejoin="round"/>
<path opacity="0.5" d="M20.8711 6.44496C20.8711 6.38496 20.9311 6.33496 20.9911 6.33496" stroke="black" stroke-width="0.259385" stroke-linecap="round" stroke-linejoin="round"/>
<path opacity="0.5" d="M20.9922 6.33496C21.0622 6.33496 21.1122 6.38496 21.1122 6.44496" stroke="black" stroke-width="0.259385" stroke-linecap="round" stroke-linejoin="round"/>
<path opacity="0.5" d="M22.0106 11.4628C22.0106 11.5228 21.9506 11.5728 21.8906 11.5728" stroke="black" stroke-width="0.259385" stroke-linecap="round" stroke-linejoin="round"/>
<path opacity="0.5" d="M21.8876 11.5728C21.8176 11.5728 21.7676 11.5228 21.7676 11.4628" stroke="black" stroke-width="0.259385" stroke-linecap="round" stroke-linejoin="round"/>
<path opacity="0.5" d="M21.7578 11.4631C21.7578 11.4031 21.8178 11.3531 21.8778 11.3531" stroke="black" stroke-width="0.259385" stroke-linecap="round" stroke-linejoin="round"/>
<path opacity="0.5" d="M21.8906 11.3531C21.9606 11.3531 22.0106 11.4031 22.0106 11.4631" stroke="black" stroke-width="0.259385" stroke-linecap="round" stroke-linejoin="round"/>
<path opacity="0.5" d="M22.9091 6.44458C22.9091 6.50458 22.8591 6.55458 22.7891 6.55458" stroke="black" stroke-width="0.259385" stroke-linecap="round" stroke-linejoin="round"/>
<path opacity="0.5" d="M22.788 6.55458C22.718 6.55458 22.668 6.50458 22.668 6.44458" stroke="black" stroke-width="0.259385" stroke-linecap="round" stroke-linejoin="round"/>
<path opacity="0.5" d="M22.6582 6.44496C22.6582 6.38496 22.7082 6.33496 22.7782 6.33496" stroke="black" stroke-width="0.259385" stroke-linecap="round" stroke-linejoin="round"/>
<path opacity="0.5" d="M22.7891 6.33496C22.8591 6.33496 22.9091 6.38496 22.9091 6.44496" stroke="black" stroke-width="0.259385" stroke-linecap="round" stroke-linejoin="round"/>
<path opacity="0.5" d="M94.097 3.94055H91.3535V95.214H94.097V3.94055Z" stroke="black" stroke-width="0.259385" stroke-linecap="round" stroke-linejoin="round"/>
<path opacity="0.5" d="M83.1947 3.94067H80.4512V95.2141H83.1947V3.94067Z" stroke="black" stroke-width="0.259385" stroke-linecap="round" stroke-linejoin="round"/>
<path opacity="0.5" d="M72.3001 3.94067H69.5566V95.2141H72.3001V3.94067Z" stroke="black" stroke-width="0.259385" stroke-linecap="round" stroke-linejoin="round"/>
<path opacity="0.5" d="M61.3958 3.94055H58.6523V95.214H61.3958V3.94055Z" stroke="black" stroke-width="0.259385" stroke-linecap="round" stroke-linejoin="round"/>
<path opacity="0.5" d="M50.5013 3.94055H47.7578V95.214H50.5013V3.94055Z" stroke="black" stroke-width="0.259385" stroke-linecap="round" stroke-linejoin="round"/>
<path opacity="0.5" d="M39.6087 3.94067H36.8652V95.2141H39.6087V3.94067Z" stroke="black" stroke-width="0.259385" stroke-linecap="round" stroke-linejoin="round"/>
<path opacity="0.5" d="M28.7044 3.94067H25.9609V95.2141H28.7044V3.94067Z" stroke="black" stroke-width="0.259385" stroke-linecap="round" stroke-linejoin="round"/>
<path opacity="0.5" d="M17.8099 3.94067H15.0664V95.2141H17.8099V3.94067Z" stroke="black" stroke-width="0.259385" stroke-linecap="round" stroke-linejoin="round"/>
<path opacity="0.5" d="M0.130859 4.75879V97.3092" stroke="#07070A" stroke-width="0.259385" stroke-linecap="round" stroke-linejoin="round"/>
<path opacity="0.5" d="M1.78699 8.65955H0.220703V11.852H1.78699V8.65955Z" stroke="black" stroke-width="0.259385" stroke-linecap="round" stroke-linejoin="round"/>
<path opacity="0.5" d="M0.998047 11.8618L1.00802 8.65942" stroke="black" stroke-width="0.259385" stroke-linecap="round" stroke-linejoin="round"/>
<path opacity="0.5" d="M1.74792 35.8849H0.181641V39.0773H1.74792V35.8849Z" stroke="black" stroke-width="0.259385" stroke-linecap="round" stroke-linejoin="round"/>
<path opacity="0.5" d="M0.958984 35.8849V39.0873" stroke="black" stroke-width="0.259385" stroke-linecap="round" stroke-linejoin="round"/>
<path opacity="0.5" d="M1.73621 63.1102H0.169922V66.3027H1.73621V63.1102Z" stroke="black" stroke-width="0.259385" stroke-linecap="round" stroke-linejoin="round"/>
<path opacity="0.5" d="M0.949219 63.1102V66.3027" stroke="black" stroke-width="0.259385" stroke-linecap="round" stroke-linejoin="round"/>
<path opacity="0.5" d="M1.69714 90.3257H0.130859V93.5181H1.69714V90.3257Z" stroke="black" stroke-width="0.259385" stroke-linecap="round" stroke-linejoin="round"/>
<path opacity="0.5" d="M0.908203 90.3257V93.5281" stroke="black" stroke-width="0.259385" stroke-linecap="round" stroke-linejoin="round"/>
</g>
<defs>
<clipPath id="clip0_592_4265">
<rect width="118" height="102.018" fill="white"/>
</clipPath>
</defs>
</svg>
