<svg width="57" height="58" viewBox="0 0 57 58" fill="none" xmlns="http://www.w3.org/2000/svg">
<g clip-path="url(#clip0_1601_2955)">
<path d="M0.120117 25.1201V57.8801H5.32012V56.1201H50.7201V57.8801H55.9201V25.1201H0.120117Z" fill="white"/>
<path d="M50.7302 25.1201V57.8801" stroke="#010101" stroke-width="0.25" stroke-miterlimit="10"/>
<path d="M0.120117 57.8901H5.32012" stroke="#010101" stroke-width="0.25" stroke-miterlimit="10"/>
<path d="M5.33008 57.8901V25.1201" stroke="#010101" stroke-width="0.25" stroke-miterlimit="10"/>
<path d="M5.33012 25.1201H0.120117" stroke="#010101" stroke-width="0.25" stroke-miterlimit="10"/>
<path d="M50.7301 25.1201H5.33008" stroke="#010101" stroke-width="0.25" stroke-miterlimit="10"/>
<path d="M5.33008 36.1201H50.7301" stroke="#010101" stroke-width="0.25" stroke-miterlimit="10"/>
<path d="M5.33008 46.1201H50.7301" stroke="#010101" stroke-width="0.25" stroke-miterlimit="10"/>
<path d="M0.120117 25.1201V57.8801" stroke="#010101" stroke-width="0.25" stroke-miterlimit="10"/>
<path d="M55.9202 57.8901V25.1201" stroke="#010101" stroke-width="0.25" stroke-miterlimit="10"/>
<path d="M50.7302 57.8901H55.9302" stroke="#010101" stroke-width="0.25" stroke-miterlimit="10"/>
<path d="M5.33008 56.1201H50.7301" stroke="#010101" stroke-width="0.25" stroke-miterlimit="10"/>
<path d="M55.9202 25.1201H50.7202" stroke="#010101" stroke-width="0.25" stroke-miterlimit="10"/>
<path d="M5.33008 57.8901V25.1201" stroke="#010101" stroke-width="0.25" stroke-miterlimit="10"/>
<path d="M5.33012 25.1201H0.120117" stroke="#010101" stroke-width="0.25" stroke-miterlimit="10"/>
<path d="M0.120117 25.1201V57.8801" stroke="#010101" stroke-width="0.25" stroke-miterlimit="10"/>
<path d="M0.120117 57.8901H5.32012" stroke="#010101" stroke-width="0.25" stroke-miterlimit="10"/>
<path d="M55.9202 57.8901V25.1201" stroke="#010101" stroke-width="0.25" stroke-miterlimit="10"/>
<path d="M50.7302 57.8901H55.9302" stroke="#010101" stroke-width="0.25" stroke-miterlimit="10"/>
<path d="M5.33008 56.1201H50.7301" stroke="#010101" stroke-width="0.25" stroke-miterlimit="10"/>
<path d="M50.7301 25.1201H5.33008" stroke="#010101" stroke-width="0.25" stroke-miterlimit="10"/>
<path d="M55.9202 25.1201H50.7202" stroke="#010101" stroke-width="0.25" stroke-miterlimit="10"/>
</g>
<g clip-path="url(#clip1_1601_2955)">
<path d="M7.12988 24.44H49.1299V23.44H47.3799V18.95H49.1299V18.45H46.8799V18.95H12.8799L39.4399 3.64996L39.5399 3.81996L40.0699 3.51996L40.6599 4.53996L37.7499 6.20996L38.0199 6.27996L41.3899 4.33996L41.2899 4.16996H41.2999L40.7099 3.13996L41.2199 2.83996L41.1199 2.66996L42.4699 1.88996L41.6599 0.489961L40.3099 1.26996L40.2099 1.09996L39.6899 1.39996L39.0099 0.209961L35.6399 2.14996L35.5699 2.41996L38.4799 0.749961L39.0699 1.76996L38.5399 2.06996L38.6399 2.23996L9.62988 18.95H9.37988V18.45H7.12988V18.95H8.87988V23.44H7.12988V24.44Z" fill="white"/>
<path d="M39.9198 3.56014L39.8198 3.39014" stroke="#010101" stroke-width="0.25" stroke-miterlimit="10"/>
<path d="M40.49 3.00021L40.59 3.17021L40.64 3.14021L40.54 2.97021" stroke="#010101" stroke-width="0.25" stroke-miterlimit="10"/>
<path d="M40.0598 3.24023L40.1598 3.41023L40.2098 3.38023L40.2598 3.35023L40.8498 4.37023L40.9498 4.54023" stroke="#010101" stroke-width="0.25" stroke-miterlimit="10"/>
<path d="M38.9099 1.81006L39.0099 1.98006" stroke="#010101" stroke-width="0.25" stroke-miterlimit="10"/>
<path d="M39.7698 3.41016L39.8698 3.58016" stroke="#010101" stroke-width="0.25" stroke-miterlimit="10"/>
<path d="M39.96 3.30002L40.06 3.47002L40.11 3.44002L40.01 3.27002" stroke="#010101" stroke-width="0.25" stroke-miterlimit="10"/>
<path d="M39.73 3.43994L39.83 3.60994" stroke="#010101" stroke-width="0.25" stroke-miterlimit="10"/>
<path d="M41.3298 4.32994L41.2298 4.15994L40.6398 3.13994L40.6898 3.10994L40.5898 2.93994" stroke="#010101" stroke-width="0.25" stroke-miterlimit="10"/>
<path d="M40.7499 4.43992L40.1599 3.41992L40.1099 3.44992L40.6999 4.46992" stroke="#010101" stroke-width="0.25" stroke-miterlimit="10"/>
<path d="M38.9599 2.00008L38.8599 1.83008" stroke="#010101" stroke-width="0.25" stroke-miterlimit="10"/>
<path d="M39.6899 3.45996L39.7899 3.62996" stroke="#010101" stroke-width="0.25" stroke-miterlimit="10"/>
<path d="M40.1699 3.18018L40.2699 3.35018L40.3199 3.32018L40.3699 3.29018L40.9599 4.31018H40.9799L40.9999 4.29018L40.4099 3.27018" stroke="#010101" stroke-width="0.25" stroke-miterlimit="10"/>
<path d="M40.2798 3.12012L40.3798 3.29012L40.4298 3.26012L40.4798 3.23012L41.0698 4.25012L41.1698 4.42012" stroke="#010101" stroke-width="0.25" stroke-miterlimit="10"/>
<path d="M39.3598 1.77996L39.2598 1.60996L38.6698 0.589961H38.6498L38.6298 0.609961L38.5298 0.439961L38.5498 0.429961H38.5698L38.5898 0.409961H38.6098L38.6298 0.389961H38.6498L38.6698 0.369961H38.6898L38.7098 0.349961H38.7298L38.7498 0.329961H38.7698L38.7898 0.309961H38.8098L38.8298 0.289961H38.8498L38.8698 0.269961H38.8898L38.9098 0.249961H38.9298L38.9398 0.229961H38.9498L38.9598 0.219961H38.9698L38.9798 0.209961L39.0798 0.379961H39.0698L39.6598 1.40996" stroke="#010101" stroke-width="0.25" stroke-miterlimit="10"/>
<path d="M38.5898 0.629941H38.5698L38.4698 0.469941L38.5598 0.639941L35.5598 2.36994L35.6298 2.09994L38.4698 0.459941H38.4898L38.5098 0.439941H38.5298" stroke="#010101" stroke-width="0.25" stroke-miterlimit="10"/>
<path d="M39.07 1.7202L38.48 0.700195" stroke="#010101" stroke-width="0.25" stroke-miterlimit="10"/>
<path d="M38.9198 2.03035L38.8198 1.86035" stroke="#010101" stroke-width="0.25" stroke-miterlimit="10"/>
<path d="M39.6199 3.5L39.7199 3.67" stroke="#010101" stroke-width="0.25" stroke-miterlimit="10"/>
<path d="M40.0898 3.45996L40.6798 4.47996L40.7798 4.64996" stroke="#010101" stroke-width="0.25" stroke-miterlimit="10"/>
<path d="M41.0999 2.65039L41.1999 2.82039" stroke="#010101" stroke-width="0.25" stroke-miterlimit="10"/>
<path d="M40.8199 4.62994L40.7199 4.45994L40.1299 3.43994" stroke="#010101" stroke-width="0.25" stroke-miterlimit="10"/>
<path d="M40.3499 3.30996L40.9399 4.32996H40.9199L40.8999 4.34996H40.8799L40.8599 4.36996H40.8399L40.8199 4.38996H40.7999L40.2099 3.37996L40.1099 3.20996" stroke="#010101" stroke-width="0.25" stroke-miterlimit="10"/>
<path d="M38.8798 2.05037L38.7798 1.88037" stroke="#010101" stroke-width="0.25" stroke-miterlimit="10"/>
<path d="M41.1798 2.82039L41.0798 2.65039" stroke="#010101" stroke-width="0.25" stroke-miterlimit="10"/>
<path d="M40.1399 3.43018L40.7299 4.45018L40.8299 4.62018" stroke="#010101" stroke-width="0.25" stroke-miterlimit="10"/>
<path d="M40.8999 4.58016L40.7999 4.41016H40.7799L40.7599 4.43016L40.1699 3.41016" stroke="#010101" stroke-width="0.25" stroke-miterlimit="10"/>
<path d="M40.6499 3.13037L41.2399 4.15037H41.2299L41.2199 4.17037L40.6299 3.15037" stroke="#010101" stroke-width="0.25" stroke-miterlimit="10"/>
<path d="M41.23 4.38992L41.13 4.21992L40.54 3.19992L40.59 3.16992L41.18 4.18992H41.16L41.14 4.20992H41.12L41.1 4.22992H41.08L40.49 3.21992" stroke="#010101" stroke-width="0.25" stroke-miterlimit="10"/>
<path d="M40.1798 1.30037L40.0798 1.13037" stroke="#010101" stroke-width="0.25" stroke-miterlimit="10"/>
<path d="M40.6899 4.4702L40.0999 3.4502" stroke="#010101" stroke-width="0.25" stroke-miterlimit="10"/>
<path d="M40.4599 3.24023L41.0499 4.26023H41.0299L40.4399 3.25023" stroke="#010101" stroke-width="0.25" stroke-miterlimit="10"/>
<path d="M14.1899 17.6003L23.3499 12.3103L23.0399 11.7703L22.9999 11.7003L22.7899 11.3403L13.6299 16.6303M14.1899 17.6003L14.3999 17.9603L14.4399 18.0303L13.6499 18.4903L12.7899 18.9903L10.4399 20.3503L9.99988 19.5803L9.62988 18.9403L13.0599 16.9603L13.6299 16.6303M14.1899 17.6003L13.6299 16.6303" stroke="#010101" stroke-width="0.25" stroke-miterlimit="10"/>
<path d="M40.7799 4.42039L40.1899 3.40039" stroke="#010101" stroke-width="0.25" stroke-miterlimit="10"/>
<path d="M39.0098 0.160156L39.1098 0.330156L39.6898 1.36016L39.0898 0.340156L39.6798 1.37016L39.7298 1.34016L39.7798 1.31016L39.8298 1.28016L39.8698 1.25016L39.9098 1.23016L39.9498 1.21016L39.9898 1.19016L40.0298 1.17016L40.0598 1.15016L40.0898 1.13016L40.1198 1.11016H40.1398L40.1598 1.08016H40.1798L40.1898 1.06016H40.1998L40.2998 1.22016" stroke="#010101" stroke-width="0.25" stroke-miterlimit="10"/>
<path d="M38.81 2.08992L38.71 1.91992" stroke="#010101" stroke-width="0.25" stroke-miterlimit="10"/>
<path d="M40.0698 3.47021L40.6598 4.49021" stroke="#010101" stroke-width="0.25" stroke-miterlimit="10"/>
<path d="M40.71 3.1001L41.3 4.1201" stroke="#010101" stroke-width="0.25" stroke-miterlimit="10"/>
<path d="M38.6399 1.95996L38.7399 2.12996" stroke="#010101" stroke-width="0.25" stroke-miterlimit="10"/>
<path d="M40.0198 1.16992L40.1198 1.33992" stroke="#010101" stroke-width="0.25" stroke-miterlimit="10"/>
<path d="M40.2899 1.24031L40.1899 1.07031" stroke="#010101" stroke-width="0.25" stroke-miterlimit="10"/>
<path d="M40.3298 3.32031L40.9198 4.34031L41.0198 4.51031" stroke="#010101" stroke-width="0.25" stroke-miterlimit="10"/>
<path d="M40.1799 1.08008L40.2799 1.25008" stroke="#010101" stroke-width="0.25" stroke-miterlimit="10"/>
<path d="M40.5698 3.18018L41.1598 4.20018L41.2598 4.37018" stroke="#010101" stroke-width="0.25" stroke-miterlimit="10"/>
<path d="M41.0599 4.49031L40.9599 4.32031H40.9399L41.0399 4.50031" stroke="#010101" stroke-width="0.25" stroke-miterlimit="10"/>
<path d="M40.08 1.35994L39.98 1.18994" stroke="#010101" stroke-width="0.25" stroke-miterlimit="10"/>
<path d="M39.7798 1.31006L39.8798 1.48006" stroke="#010101" stroke-width="0.25" stroke-miterlimit="10"/>
<path d="M41.3899 4.30035L41.29 4.13035L40.7 3.11035" stroke="#010101" stroke-width="0.25" stroke-miterlimit="10"/>
<path d="M41.2498 4.37994L41.1498 4.20994L40.5598 3.18994" stroke="#010101" stroke-width="0.25" stroke-miterlimit="10"/>
<path d="M39.6498 3.71004L39.5498 3.54004" stroke="#010101" stroke-width="0.25" stroke-miterlimit="10"/>
<path d="M40.86 4.60016L38.02 6.24016L37.75 6.17016L40.76 4.43016L40.86 4.60016ZM40.86 4.60016H40.88L40.9 4.58016H40.92L40.94 4.56016H40.96L40.98 4.54016H41L41.02 4.52016H41.04L41.06 4.50016H41.08L41.1 4.48016H41.12L41.14 4.46016H41.16L41.18 4.44016H41.2L41.22 4.42016H41.24L41.26 4.40016H41.28L41.3 4.38016H41.32L41.33 4.36016H41.34L41.35 4.35016H41.36L41.37 4.34016L41.28 4.17016L40.69 3.15016L40.74 3.12016L40.79 3.09016L40.84 3.06016L40.88 3.03016L40.92 3.01016L40.96 2.99016L41 2.97016L41.04 2.95016L41.07 2.93016L41.1 2.91016L41.13 2.89016H41.15L41.17 2.86016H41.19L41.2 2.84016H41.21L41.11 2.66016" stroke="#010101" stroke-width="0.25" stroke-miterlimit="10"/>
<path d="M41.2999 4.35018L41.1999 4.18018H41.1799L41.2799 4.36018" stroke="#010101" stroke-width="0.25" stroke-miterlimit="10"/>
<path d="M38.2298 3.72998L29.0698 9.01998" stroke="#010101" stroke-width="0.25" stroke-miterlimit="10"/>
<path d="M39.8699 1.26025L39.9699 1.43025" stroke="#010101" stroke-width="0.25" stroke-miterlimit="10"/>
<path d="M39.5298 3.55029L39.6298 3.72029" stroke="#010101" stroke-width="0.25" stroke-miterlimit="10"/>
<path d="M40.94 4.56012L40.84 4.39012L40.25 3.37012" stroke="#010101" stroke-width="0.25" stroke-miterlimit="10"/>
<path d="M41.35 4.32039L41.25 4.15039H41.24L41.34 4.33039" stroke="#010101" stroke-width="0.25" stroke-miterlimit="10"/>
<path d="M38.7199 2.14998L38.6199 1.97998" stroke="#010101" stroke-width="0.25" stroke-miterlimit="10"/>
<path d="M39.6798 3.69002L39.5798 3.52002" stroke="#010101" stroke-width="0.25" stroke-miterlimit="10"/>
<path d="M41.1298 4.45027L41.0298 4.28027H41.0098L41.1098 4.46027" stroke="#010101" stroke-width="0.25" stroke-miterlimit="10"/>
<path d="M41.2698 4.14014L41.3698 4.32014" stroke="#010101" stroke-width="0.25" stroke-miterlimit="10"/>
<path d="M41.1299 2.63037L41.2299 2.80037" stroke="#010101" stroke-width="0.25" stroke-miterlimit="10"/>
<path d="M40.3098 3.33008L40.8998 4.35008L40.9998 4.52008" stroke="#010101" stroke-width="0.25" stroke-miterlimit="10"/>
<path d="M41.0799 4.47027L40.9799 4.30027L40.3899 3.28027" stroke="#010101" stroke-width="0.25" stroke-miterlimit="10"/>
<path d="M39.56 3.76033L39.46 3.59033" stroke="#010101" stroke-width="0.25" stroke-miterlimit="10"/>
<path d="M40.6099 3.16016L41.1999 4.18016H41.2199L41.3199 4.34016" stroke="#010101" stroke-width="0.25" stroke-miterlimit="10"/>
<path d="M41.1898 4.41023L41.0898 4.24023H41.0698L41.0498 4.26023L41.1498 4.43023" stroke="#010101" stroke-width="0.25" stroke-miterlimit="10"/>
<path d="M28.7499 8.47998L29.0999 9.08998L29.3099 9.44998L28.3799 9.98998L23.5999 12.75L23.3899 12.39L23.3499 12.32" stroke="#010101" stroke-width="0.25" stroke-miterlimit="10"/>
<path d="M38.4798 4.16016L29.3198 9.45016" stroke="#010101" stroke-width="0.25" stroke-miterlimit="10"/>
<path d="M39.9198 1.45027L39.8198 1.28027" stroke="#010101" stroke-width="0.25" stroke-miterlimit="10"/>
<path d="M23.0399 11.77L13.8799 17.06" stroke="#010101" stroke-width="0.25" stroke-miterlimit="10"/>
<path d="M39.45 3.6001L39.5499 3.7701" stroke="#010101" stroke-width="0.25" stroke-miterlimit="10"/>
<path d="M40.2898 3.34033L40.8798 4.36033L40.9798 4.53033" stroke="#010101" stroke-width="0.25" stroke-miterlimit="10"/>
<path d="M40.6699 3.12012L41.2599 4.14012H41.2499L40.6599 3.12012" stroke="#010101" stroke-width="0.25" stroke-miterlimit="10"/>
<path d="M38.6699 1.93994L38.7699 2.10994" stroke="#010101" stroke-width="0.25" stroke-miterlimit="10"/>
<path d="M39.95 1.20996L40.0499 1.37996" stroke="#010101" stroke-width="0.25" stroke-miterlimit="10"/>
<path d="M39.5 3.57031L39.6 3.74031" stroke="#010101" stroke-width="0.25" stroke-miterlimit="10"/>
<path d="M38.9399 0.200195L39.0399 0.370195H39.0299L38.9299 0.210195" stroke="#010101" stroke-width="0.25" stroke-miterlimit="10"/>
<path d="M38.6499 0.360352L38.7499 0.530352H38.7299L38.6299 0.370352" stroke="#010101" stroke-width="0.25" stroke-miterlimit="10"/>
<path d="M40.0099 1.39998L39.9099 1.22998" stroke="#010101" stroke-width="0.25" stroke-miterlimit="10"/>
<path d="M22.7898 11.34L23.7198 10.8L28.4998 8.04004" stroke="#010101" stroke-width="0.25" stroke-miterlimit="10"/>
<path d="M39.48 3.58008L39.58 3.75008" stroke="#010101" stroke-width="0.25" stroke-miterlimit="10"/>
<path d="M39.5599 1.43023L38.9699 0.410234L38.8699 0.240234" stroke="#010101" stroke-width="0.25" stroke-miterlimit="10"/>
<path d="M38.8598 0.25L38.9598 0.42H38.9398L38.8398 0.26" stroke="#010101" stroke-width="0.25" stroke-miterlimit="10"/>
<path d="M41.1198 2.85994L41.0198 2.68994" stroke="#010101" stroke-width="0.25" stroke-miterlimit="10"/>
<path d="M38.9099 0.220215L39.0099 0.390215L39.5999 1.41021" stroke="#010101" stroke-width="0.25" stroke-miterlimit="10"/>
<path d="M38.5498 0.419922L38.6498 0.589922L39.2398 1.60992" stroke="#010101" stroke-width="0.25" stroke-miterlimit="10"/>
<path d="M40.31 1.22029L40.21 1.05029" stroke="#010101" stroke-width="0.25" stroke-miterlimit="10"/>
<path d="M39.3098 1.58008L39.4098 1.75008" stroke="#010101" stroke-width="0.25" stroke-miterlimit="10"/>
<path d="M41 2.70996L41.1 2.87996" stroke="#010101" stroke-width="0.25" stroke-miterlimit="10"/>
<path d="M38.9599 0.189941L39.06 0.359941H39.0499L38.95 0.199941" stroke="#010101" stroke-width="0.25" stroke-miterlimit="10"/>
<path d="M39.6398 1.39012L39.0498 0.370117H39.0398L39.6298 1.40012L39.7298 1.57012" stroke="#010101" stroke-width="0.25" stroke-miterlimit="10"/>
<path d="M41.0299 2.91023L40.9299 2.74023" stroke="#010101" stroke-width="0.25" stroke-miterlimit="10"/>
<path d="M38.74 0.310059L38.84 0.480059L39.43 1.50006" stroke="#010101" stroke-width="0.25" stroke-miterlimit="10"/>
<path d="M38.7 0.340332L38.7999 0.510332L39.3899 1.53033" stroke="#010101" stroke-width="0.25" stroke-miterlimit="10"/>
<path d="M39 1.75L39.1 1.92" stroke="#010101" stroke-width="0.25" stroke-miterlimit="10"/>
<path d="M40.8999 2.76025L40.9999 2.93025" stroke="#010101" stroke-width="0.25" stroke-miterlimit="10"/>
<path d="M38.7199 0.330078L38.8199 0.500078H38.7999L38.7799 0.520078L38.6799 0.350078" stroke="#010101" stroke-width="0.25" stroke-miterlimit="10"/>
<path d="M38.7998 0.280273L38.8998 0.450273H38.8798L38.7798 0.290273" stroke="#010101" stroke-width="0.25" stroke-miterlimit="10"/>
<path d="M41.2098 4.39996L41.1098 4.22996L40.5198 3.20996" stroke="#010101" stroke-width="0.25" stroke-miterlimit="10"/>
<path d="M40.8698 3.00008L40.7698 2.83008" stroke="#010101" stroke-width="0.25" stroke-miterlimit="10"/>
<path d="M39.4498 1.50006L38.8598 0.480059L38.7598 0.310059" stroke="#010101" stroke-width="0.25" stroke-miterlimit="10"/>
<path d="M38.6098 0.390137L38.7098 0.560137H38.6898L38.5898 0.400137" stroke="#010101" stroke-width="0.25" stroke-miterlimit="10"/>
<path d="M46.1299 20.9399H10.1299" stroke="#010101" stroke-width="0.25" stroke-miterlimit="10"/>
<path d="M38.5498 2.01025L38.6498 2.18025" stroke="#010101" stroke-width="0.25" stroke-miterlimit="10"/>
<path d="M39.0499 1.95027L38.95 1.78027" stroke="#010101" stroke-width="0.25" stroke-miterlimit="10"/>
<path d="M40.73 2.86035L40.83 3.03035" stroke="#010101" stroke-width="0.25" stroke-miterlimit="10"/>
<path d="M38.97 0.180176L39.07 0.350176H39.06L39.65 1.38018" stroke="#010101" stroke-width="0.25" stroke-miterlimit="10"/>
<path d="M39.2798 1.59016L38.6898 0.570156H38.6698L38.5698 0.410156" stroke="#010101" stroke-width="0.25" stroke-miterlimit="10"/>
<path d="M40.9599 2.96004L40.8599 2.79004" stroke="#010101" stroke-width="0.25" stroke-miterlimit="10"/>
<path d="M37.91 3.18994L28.75 8.47994L28.71 8.40994L28.5 8.04994L37.66 2.75994L38.45 2.29994L39.31 1.79994L41.66 0.439941L42.1 1.20994L42.47 1.84994L40.49 2.98994L38.46 4.15994L38.25 3.79994L38.21 3.72994L37.9 3.18994L37.86 3.11994L37.65 2.75994" stroke="#010101" stroke-width="0.25" stroke-miterlimit="10"/>
<path d="M12.8799 18.9399H46.8799V18.4399H49.1299V18.9399H47.3799V23.4399H49.1299V24.4399H7.12988V23.4399H8.87988V18.9399H7.12988V18.4399H9.37988V18.9399H9.62988V20.5599H10.1299V21.8099H9.62988V23.4299H9.37988V24.4299" stroke="#010101" stroke-width="0.25" stroke-miterlimit="10"/>
<path d="M39.4199 1.51025L39.5199 1.68025" stroke="#010101" stroke-width="0.25" stroke-miterlimit="10"/>
<path d="M40.8198 2.81006L40.9198 2.98006" stroke="#010101" stroke-width="0.25" stroke-miterlimit="10"/>
<path d="M46.8799 24.4402V23.4402H46.6299V21.8202H46.1299V20.5702H46.6299V18.9502" stroke="#010101" stroke-width="0.25" stroke-miterlimit="10"/>
<path d="M39.0799 1.71002L38.4899 0.69002L38.3899 0.52002" stroke="#010101" stroke-width="0.25" stroke-miterlimit="10"/>
<path d="M40.32 3.32039L40.22 3.15039" stroke="#010101" stroke-width="0.25" stroke-miterlimit="10"/>
<path d="M38.47 0.700195L39.06 1.7202L39.16 1.8902" stroke="#010101" stroke-width="0.25" stroke-miterlimit="10"/>
<path d="M39.1598 1.66014L38.5698 0.640137H38.5598L39.1498 1.66014L39.2498 1.83014" stroke="#010101" stroke-width="0.25" stroke-miterlimit="10"/>
<path d="M38.6398 2.19002L38.5398 2.02002" stroke="#010101" stroke-width="0.25" stroke-miterlimit="10"/>
<path d="M40.1599 1.09033L40.2599 1.26033" stroke="#010101" stroke-width="0.25" stroke-miterlimit="10"/>
<path d="M40.0099 3.50008L39.9099 3.33008" stroke="#010101" stroke-width="0.25" stroke-miterlimit="10"/>
<path d="M39.2998 1.8102L39.1998 1.6402L38.6098 0.620195L38.5098 0.450195" stroke="#010101" stroke-width="0.25" stroke-miterlimit="10"/>
<path d="M39.2198 1.63035L38.6298 0.610352H38.6098L38.5898 0.630352L39.1798 1.65035" stroke="#010101" stroke-width="0.25" stroke-miterlimit="10"/>
<path d="M39.8599 3.36035L39.9599 3.53035" stroke="#010101" stroke-width="0.25" stroke-miterlimit="10"/>
<path d="M38.4299 0.490234L38.5299 0.660234L39.1199 1.68023" stroke="#010101" stroke-width="0.25" stroke-miterlimit="10"/>
<path d="M39.1999 1.87025L39.0999 1.70025L38.5099 0.680254L38.4099 0.510254" stroke="#010101" stroke-width="0.25" stroke-miterlimit="10"/>
<path d="M40.2299 1.2701L40.1299 1.1001" stroke="#010101" stroke-width="0.25" stroke-miterlimit="10"/>
<path d="M40.4298 3.26033L40.3298 3.09033" stroke="#010101" stroke-width="0.25" stroke-miterlimit="10"/>
<path d="M39.32 1.57029L38.73 0.550293H38.71L39.3 1.59029" stroke="#010101" stroke-width="0.25" stroke-miterlimit="10"/>
<path d="M39.1299 1.68023L38.5399 0.660234L38.4399 0.490234" stroke="#010101" stroke-width="0.25" stroke-miterlimit="10"/>
<path d="M41.1698 2.83992L41.0698 2.66992" stroke="#010101" stroke-width="0.25" stroke-miterlimit="10"/>
<path d="M39.46 1.72027L39.36 1.55027L38.77 0.530273H38.75L39.34 1.57027" stroke="#010101" stroke-width="0.25" stroke-miterlimit="10"/>
<path d="M38.8198 0.27002L38.9198 0.44002H38.9398L39.5298 1.45002L39.6298 1.62002" stroke="#010101" stroke-width="0.25" stroke-miterlimit="10"/>
<path d="M39.7499 3.64998L39.6499 3.47998" stroke="#010101" stroke-width="0.25" stroke-miterlimit="10"/>
<path d="M41.0498 2.68018L41.1498 2.85018" stroke="#010101" stroke-width="0.25" stroke-miterlimit="10"/>
<path d="M23.5999 12.75L14.4399 18.04" stroke="#010101" stroke-width="0.25" stroke-miterlimit="10"/>
<path d="M39.4399 3.61021L39.5399 3.78021H39.5499L39.5599 3.76021H39.5799L39.5999 3.74021H39.6199L39.6499 3.71021L39.6799 3.69021L39.7099 3.67021L39.7499 3.65021L39.7899 3.63021L39.8299 3.61021L39.8699 3.59021L39.9099 3.56021L39.9599 3.53021L40.0099 3.50021L40.0599 3.47021L40.6499 4.49021" stroke="#010101" stroke-width="0.25" stroke-miterlimit="10"/>
<path d="M38.6698 2.17L38.5698 2" stroke="#010101" stroke-width="0.25" stroke-miterlimit="10"/>
<path d="M38.5 0.680176L39.09 1.70018" stroke="#010101" stroke-width="0.25" stroke-miterlimit="10"/>
<path d="M38.74 1.90039L38.84 2.07039" stroke="#010101" stroke-width="0.25" stroke-miterlimit="10"/>
<path d="M38.6898 2.16023L38.5898 1.99023" stroke="#010101" stroke-width="0.25" stroke-miterlimit="10"/>
<path d="M40.1498 1.32039L40.0498 1.15039" stroke="#010101" stroke-width="0.25" stroke-miterlimit="10"/>
<path d="M38.8899 0.22998L38.9899 0.39998L39.5799 1.41998L39.6799 1.58998" stroke="#010101" stroke-width="0.25" stroke-miterlimit="10"/>
<path d="M40.7799 3.06014L40.6799 2.89014" stroke="#010101" stroke-width="0.25" stroke-miterlimit="10"/>
<path d="M39.6099 1.40037L39.0199 0.380371H38.9999L38.9799 0.400371H38.9599L38.9399 0.420371L39.5299 1.44037" stroke="#010101" stroke-width="0.25" stroke-miterlimit="10"/>
<path d="M40.96 2.72021L41.06 2.89021" stroke="#010101" stroke-width="0.25" stroke-miterlimit="10"/>
<path d="M39.5698 1.64996L39.4698 1.47996L38.8798 0.459961H38.8598L38.8398 0.479961H38.8198L39.4098 1.51996" stroke="#010101" stroke-width="0.25" stroke-miterlimit="10"/>
<path d="M39.5099 1.45994L38.9199 0.439941H38.8999L39.4899 1.46994" stroke="#010101" stroke-width="0.25" stroke-miterlimit="10"/>
<path d="M39.73 1.34033L39.83 1.51033" stroke="#010101" stroke-width="0.25" stroke-miterlimit="10"/>
<path d="M40.92 4.57037L40.82 4.40037L40.23 3.38037" stroke="#010101" stroke-width="0.25" stroke-miterlimit="10"/>
<path d="M40.7399 3.08016L40.6399 2.91016" stroke="#010101" stroke-width="0.25" stroke-miterlimit="10"/>
<path d="M38.6298 2.20035L38.5298 2.03035H38.5398L38.5498 2.01035H38.5698L38.5898 1.99035H38.6098L38.6398 1.96035L38.6698 1.94035L38.6998 1.92035L38.7398 1.90035L38.7798 1.88035L38.8198 1.86035L38.8598 1.84035L38.8998 1.81035L38.9498 1.78035L38.9998 1.75035L39.0498 1.72035L39.0998 1.69035L39.1498 1.66035L39.1998 1.63035L39.2498 1.60035L39.2998 1.57035L39.3498 1.54035L39.3998 1.51035L39.4498 1.48035L39.4998 1.45035L39.5498 1.42035L39.5998 1.39035L39.6498 1.36035L39.7498 1.53035" stroke="#010101" stroke-width="0.25" stroke-miterlimit="10"/>
<path d="M40.3799 3.06027L40.4799 3.23027L40.5299 3.20027L40.4299 3.03027" stroke="#010101" stroke-width="0.25" stroke-miterlimit="10"/>
<path d="M40.1099 1.11035L40.2099 1.28035" stroke="#010101" stroke-width="0.25" stroke-miterlimit="10"/>
</g>
<defs>
<clipPath id="clip0_1601_2955">
<rect width="56.05" height="33.01" fill="white" transform="translate(0 25)"/>
</clipPath>
<clipPath id="clip1_1601_2955">
<rect width="42.25" height="24.57" fill="white" transform="translate(7)"/>
</clipPath>
</defs>
</svg>
