<svg width="151" height="129" viewBox="0 0 151 129" fill="none" xmlns="http://www.w3.org/2000/svg">
<g clip-path="url(#clip0_1545_1454)">
<path d="M0.120117 38.1201V128.12H150.74V38.1201H101.13V0.120117H49.7201V38.1201H0.120117Z" fill="white"/>
<path d="M150.75 128.12H0.120117" stroke="#010101" stroke-width="0.25" stroke-miterlimit="10"/>
<path d="M95.1402 20.1201H55.7302" stroke="#010101" stroke-width="0.25" stroke-miterlimit="10"/>
<path d="M49.7302 0.290039V38.12" stroke="#010101" stroke-width="0.25" stroke-miterlimit="10"/>
<path d="M95.1401 0.120117V38.1201" stroke="#010101" stroke-width="0.25" stroke-miterlimit="10"/>
<path d="M0.120117 128.12V38.1201" stroke="#010101" stroke-width="0.25" stroke-miterlimit="10"/>
<path d="M0.120117 38.1201H150.74" stroke="#010101" stroke-width="0.25" stroke-miterlimit="10"/>
<path d="M95.1402 30.1299H55.7302" stroke="#010101" stroke-width="0.25" stroke-miterlimit="10"/>
<path d="M55.7302 38.1201V0.120117" stroke="#010101" stroke-width="0.25" stroke-miterlimit="10"/>
<path d="M101.14 38.12V0.290039" stroke="#010101" stroke-width="0.25" stroke-miterlimit="10"/>
<path d="M150.75 38.1201V128.12" stroke="#010101" stroke-width="0.25" stroke-miterlimit="10"/>
<path d="M95.1402 10.1299H55.7302" stroke="#010101" stroke-width="0.25" stroke-miterlimit="10"/>
<path d="M101.14 0.120117H49.7302" stroke="#010101" stroke-width="0.25" stroke-miterlimit="10"/>
<path d="M0.120117 38.1201H150.74" stroke="#010101" stroke-width="0.25" stroke-miterlimit="10"/>
<path d="M150.75 128.12H0.120117" stroke="#010101" stroke-width="0.25" stroke-miterlimit="10"/>
<path d="M101.14 0.120117H49.7302" stroke="#010101" stroke-width="0.25" stroke-miterlimit="10"/>
<path d="M49.7302 0.290039V38.12" stroke="#010101" stroke-width="0.25" stroke-miterlimit="10"/>
<path d="M150.75 38.1201V128.12" stroke="#010101" stroke-width="0.25" stroke-miterlimit="10"/>
<path d="M0.120117 128.12V38.1201" stroke="#010101" stroke-width="0.25" stroke-miterlimit="10"/>
<path d="M101.14 38.12V0.290039" stroke="#010101" stroke-width="0.25" stroke-miterlimit="10"/>
</g>
<defs>
<clipPath id="clip0_1545_1454">
<rect width="150.87" height="128.25" fill="white"/>
</clipPath>
</defs>
</svg>
