<svg width="57" height="58" viewBox="0 0 57 58" fill="none" xmlns="http://www.w3.org/2000/svg">
<g clip-path="url(#clip0_1601_2956)">
<path d="M0.120117 25.1201V57.8801H5.32012V56.1201H50.7201V57.8801H55.9201V25.1201H0.120117Z" fill="white"/>
<path d="M50.7302 25.1201V57.8801" stroke="#010101" stroke-width="0.25" stroke-miterlimit="10"/>
<path d="M0.120117 57.8901H5.32012" stroke="#010101" stroke-width="0.25" stroke-miterlimit="10"/>
<path d="M5.33008 57.8901V25.1201" stroke="#010101" stroke-width="0.25" stroke-miterlimit="10"/>
<path d="M5.33012 25.1201H0.120117" stroke="#010101" stroke-width="0.25" stroke-miterlimit="10"/>
<path d="M50.7301 25.1201H5.33008" stroke="#010101" stroke-width="0.25" stroke-miterlimit="10"/>
<path d="M5.33008 36.1201H50.7301" stroke="#010101" stroke-width="0.25" stroke-miterlimit="10"/>
<path d="M5.33008 46.1201H50.7301" stroke="#010101" stroke-width="0.25" stroke-miterlimit="10"/>
<path d="M0.120117 25.1201V57.8801" stroke="#010101" stroke-width="0.25" stroke-miterlimit="10"/>
<path d="M55.9202 57.8901V25.1201" stroke="#010101" stroke-width="0.25" stroke-miterlimit="10"/>
<path d="M50.7302 57.8901H55.9302" stroke="#010101" stroke-width="0.25" stroke-miterlimit="10"/>
<path d="M5.33008 56.1201H50.7301" stroke="#010101" stroke-width="0.25" stroke-miterlimit="10"/>
<path d="M55.9202 25.1201H50.7202" stroke="#010101" stroke-width="0.25" stroke-miterlimit="10"/>
<path d="M5.33008 57.8901V25.1201" stroke="#010101" stroke-width="0.25" stroke-miterlimit="10"/>
<path d="M5.33012 25.1201H0.120117" stroke="#010101" stroke-width="0.25" stroke-miterlimit="10"/>
<path d="M0.120117 25.1201V57.8801" stroke="#010101" stroke-width="0.25" stroke-miterlimit="10"/>
<path d="M0.120117 57.8901H5.32012" stroke="#010101" stroke-width="0.25" stroke-miterlimit="10"/>
<path d="M55.9202 57.8901V25.1201" stroke="#010101" stroke-width="0.25" stroke-miterlimit="10"/>
<path d="M50.7302 57.8901H55.9302" stroke="#010101" stroke-width="0.25" stroke-miterlimit="10"/>
<path d="M5.33008 56.1201H50.7301" stroke="#010101" stroke-width="0.25" stroke-miterlimit="10"/>
<path d="M50.7301 25.1201H5.33008" stroke="#010101" stroke-width="0.25" stroke-miterlimit="10"/>
<path d="M55.9202 25.1201H50.7202" stroke="#010101" stroke-width="0.25" stroke-miterlimit="10"/>
</g>
<g clip-path="url(#clip1_1601_2956)">
<path d="M6.12988 24.4499H48.1299V23.4499H46.3799V18.9499H48.1299V18.4499H45.8799V18.9499H45.6299L41.6199 16.6399L41.7399 16.4199L17.7099 2.52992L17.5899 2.74992L16.6299 2.19992L16.7299 2.02992L16.2299 1.73992L16.8199 0.719922L19.6999 2.37992L19.6299 2.10992L16.2699 0.169922L16.1699 0.339922H16.1399L15.5499 1.34992L15.0399 1.05992L14.9399 1.22992L13.5699 0.439922L12.7599 1.84992L14.1299 2.63992L14.0299 2.80992L14.5399 3.09992L13.9499 4.11992H13.9699L13.8699 4.29992L17.2199 6.23992L17.4899 6.16992L14.6099 4.50992L15.1999 3.48992L15.6999 3.77992L15.7999 3.60992L16.7599 4.16992L16.6399 4.38992L40.6699 18.2699L40.7899 18.0499L42.3599 18.9599H8.37988V18.4599H6.12988V18.9599H7.87988V23.4599H6.12988V24.4599V24.4499Z" fill="white"/>
<path d="M16.2 1.94979L16.3 1.77979" stroke="#010101" stroke-width="0.25" stroke-miterlimit="10"/>
<path d="M15.83 1.50977L15.73 1.67977" stroke="#010101" stroke-width="0.25" stroke-miterlimit="10"/>
<path d="M15.09 1.08008L14.99 1.25008" stroke="#010101" stroke-width="0.25" stroke-miterlimit="10"/>
<path d="M15.5199 1.33008L15.4199 1.50008" stroke="#010101" stroke-width="0.25" stroke-miterlimit="10"/>
<path d="M16.34 1.7998L16.24 1.9698" stroke="#010101" stroke-width="0.25" stroke-miterlimit="10"/>
<path d="M16.2898 2.00008L16.3898 1.83008" stroke="#010101" stroke-width="0.25" stroke-miterlimit="10"/>
<path d="M16.3298 2.0201L16.4298 1.8501" stroke="#010101" stroke-width="0.25" stroke-miterlimit="10"/>
<path d="M16.3699 2.04012L16.4699 1.87012" stroke="#010101" stroke-width="0.25" stroke-miterlimit="10"/>
<path d="M16.5099 1.8999L16.4099 2.0699" stroke="#010101" stroke-width="0.25" stroke-miterlimit="10"/>
<path d="M16.4399 2.08992L16.5399 1.91992" stroke="#010101" stroke-width="0.25" stroke-miterlimit="10"/>
<path d="M14.96 1.23006L15.06 1.06006" stroke="#010101" stroke-width="0.25" stroke-miterlimit="10"/>
<path d="M15.07 1.06982L14.97 1.23982" stroke="#010101" stroke-width="0.25" stroke-miterlimit="10"/>
<path d="M15.4699 1.2998L15.3699 1.4698" stroke="#010101" stroke-width="0.25" stroke-miterlimit="10"/>
<path d="M16.8 0.699707L16.21 1.71971" stroke="#010101" stroke-width="0.25" stroke-miterlimit="10"/>
<path d="M16.7499 0.669922L16.1599 1.68992" stroke="#010101" stroke-width="0.25" stroke-miterlimit="10"/>
<path d="M16.1699 1.69969L16.7599 0.679688" stroke="#010101" stroke-width="0.25" stroke-miterlimit="10"/>
<path d="M16.1799 1.70994L16.7699 0.689941" stroke="#010101" stroke-width="0.25" stroke-miterlimit="10"/>
<path d="M16.22 1.72996L16.81 0.709961" stroke="#010101" stroke-width="0.25" stroke-miterlimit="10"/>
<path d="M15.0999 1.31014L15.1999 1.14014" stroke="#010101" stroke-width="0.25" stroke-miterlimit="10"/>
<path d="M16.7199 0.660156L16.1299 1.68016" stroke="#010101" stroke-width="0.25" stroke-miterlimit="10"/>
<path d="M15.0198 1.25984L15.1198 1.08984" stroke="#010101" stroke-width="0.25" stroke-miterlimit="10"/>
<path d="M13.95 4.3501H13.97" stroke="#010101" stroke-width="0.25" stroke-miterlimit="10"/>
<path d="M14.21 4.48975H14.23" stroke="#010101" stroke-width="0.25" stroke-miterlimit="10"/>
<path d="M15.5999 3.69979L15.6999 3.52979" stroke="#010101" stroke-width="0.25" stroke-miterlimit="10"/>
<path d="M15.7199 3.5498L15.6199 3.7198" stroke="#010101" stroke-width="0.25" stroke-miterlimit="10"/>
<path d="M15.6899 3.75008L15.7899 3.58008" stroke="#010101" stroke-width="0.25" stroke-miterlimit="10"/>
<path d="M15.8 3.58984L15.7 3.75984" stroke="#010101" stroke-width="0.25" stroke-miterlimit="10"/>
<path d="M15.7499 3.56006L15.6499 3.73006" stroke="#010101" stroke-width="0.25" stroke-miterlimit="10"/>
<path d="M15.7699 3.56982L15.6699 3.73982" stroke="#010101" stroke-width="0.25" stroke-miterlimit="10"/>
<path d="M14.1299 2.84969L14.2299 2.67969" stroke="#010101" stroke-width="0.25" stroke-miterlimit="10"/>
<path d="M14.2499 2.69971L14.1499 2.86971" stroke="#010101" stroke-width="0.25" stroke-miterlimit="10"/>
<path d="M14.22 2.90975L14.32 2.73975" stroke="#010101" stroke-width="0.25" stroke-miterlimit="10"/>
<path d="M14.3799 3.00008L14.4799 2.83008" stroke="#010101" stroke-width="0.25" stroke-miterlimit="10"/>
<path d="M14.5199 2.8501L14.4199 3.0201" stroke="#010101" stroke-width="0.25" stroke-miterlimit="10"/>
<path d="M14.2898 2.94979L14.3898 2.77979" stroke="#010101" stroke-width="0.25" stroke-miterlimit="10"/>
<path d="M14.4298 2.7998L14.3298 2.9698" stroke="#010101" stroke-width="0.25" stroke-miterlimit="10"/>
<path d="M15.24 3.50008L15.34 3.33008" stroke="#010101" stroke-width="0.25" stroke-miterlimit="10"/>
<path d="M15.3898 3.3501L15.2898 3.5201" stroke="#010101" stroke-width="0.25" stroke-miterlimit="10"/>
<path d="M14.1999 2.66992L14.0999 2.83992" stroke="#010101" stroke-width="0.25" stroke-miterlimit="10"/>
<path d="M14.2899 2.71973L14.1899 2.88973" stroke="#010101" stroke-width="0.25" stroke-miterlimit="10"/>
<path d="M14.5098 3.08016L14.6098 2.91016" stroke="#010101" stroke-width="0.25" stroke-miterlimit="10"/>
<path d="M15.4799 3.41016L15.3799 3.58016" stroke="#010101" stroke-width="0.25" stroke-miterlimit="10"/>
<path d="M15.5199 3.42969L15.4199 3.59969" stroke="#010101" stroke-width="0.25" stroke-miterlimit="10"/>
<path d="M15.5 3.64998L15.6 3.47998" stroke="#010101" stroke-width="0.25" stroke-miterlimit="10"/>
<path d="M15.6298 3.5L15.5298 3.67" stroke="#010101" stroke-width="0.25" stroke-miterlimit="10"/>
<path d="M14.1498 2.64014L14.0498 2.81014" stroke="#010101" stroke-width="0.25" stroke-miterlimit="10"/>
<path d="M14.0698 2.8199L14.1698 2.6499" stroke="#010101" stroke-width="0.25" stroke-miterlimit="10"/>
<path d="M39.7898 17.7401L17.5398 4.89014" stroke="#010101" stroke-width="0.25" stroke-miterlimit="10"/>
<path d="M18.5999 3.0498L40.8499 15.8998" stroke="#010101" stroke-width="0.25" stroke-miterlimit="10"/>
<path d="M14.4499 4.41016L14.3499 4.58016" stroke="#010101" stroke-width="0.25" stroke-miterlimit="10"/>
<path d="M14.3298 4.56012L14.4298 4.39012L15.0198 3.37012" stroke="#010101" stroke-width="0.25" stroke-miterlimit="10"/>
<path d="M14.46 4.63971L14.56 4.46971L15.15 3.44971H15.16" stroke="#010101" stroke-width="0.25" stroke-miterlimit="10"/>
<path d="M15.2398 3.27002L15.1398 3.44002L14.5498 4.46002H14.5598L14.5698 4.47002H14.5798H14.5898L15.1798 3.45002L15.2798 3.28002" stroke="#010101" stroke-width="0.25" stroke-miterlimit="10"/>
<path d="M14.9198 3.31004L14.3298 4.33004H14.3098L14.8998 3.29004" stroke="#010101" stroke-width="0.25" stroke-miterlimit="10"/>
<path d="M14.47 4.63971L14.57 4.46971L15.16 3.44971H15.17L14.58 4.47971" stroke="#010101" stroke-width="0.25" stroke-miterlimit="10"/>
<path d="M15.06 3.38975L14.47 4.40975H14.49L14.5 4.42975L15.09 3.40975L15.19 3.23975" stroke="#010101" stroke-width="0.25" stroke-miterlimit="10"/>
<path d="M15.1099 3.41992L14.5199 4.43992L14.4199 4.60992" stroke="#010101" stroke-width="0.25" stroke-miterlimit="10"/>
<path d="M14.2898 4.54012L14.3898 4.37012H14.3698L14.2698 4.53012" stroke="#010101" stroke-width="0.25" stroke-miterlimit="10"/>
<path d="M14.9699 3.12012L14.8699 3.29012L14.2799 4.31012H14.2999L14.1999 4.49012H14.1799L14.1599 4.47012H14.1399L14.2399 4.29012H14.2199L14.8099 3.25012" stroke="#010101" stroke-width="0.25" stroke-miterlimit="10"/>
<path d="M14.1699 4.46978L14.2699 4.29979L14.8599 3.27979" stroke="#010101" stroke-width="0.25" stroke-miterlimit="10"/>
<path d="M14.6298 3.13996L14.0398 4.15996H14.0298L14.6198 3.12996L14.7198 2.95996" stroke="#010101" stroke-width="0.25" stroke-miterlimit="10"/>
<path d="M14.7299 3.20002L14.1399 4.22002H14.1199L14.7099 3.19002L14.8099 3.02002" stroke="#010101" stroke-width="0.25" stroke-miterlimit="10"/>
<path d="M14.5899 3.12012L13.9999 4.14012H14.0099L14.0199 4.15012L13.9199 4.32012" stroke="#010101" stroke-width="0.25" stroke-miterlimit="10"/>
<path d="M14.9199 3.08008L14.8199 3.25008H14.8299L14.2399 4.28008H14.2599L14.2799 4.30008L14.1799 4.47008" stroke="#010101" stroke-width="0.25" stroke-miterlimit="10"/>
<path d="M14.0398 4.39973L14.1398 4.22973H14.1598L14.7498 3.21973" stroke="#010101" stroke-width="0.25" stroke-miterlimit="10"/>
<path d="M14.69 3.17969L14.1 4.19969L14 4.36969" stroke="#010101" stroke-width="0.25" stroke-miterlimit="10"/>
<path d="M14.1199 4.44002L14.2199 4.27002H14.1999L14.0999 4.43002" stroke="#010101" stroke-width="0.25" stroke-miterlimit="10"/>
<path d="M8.62988 18.9399H8.37988V18.4399H6.12988V18.9399H7.87988V23.4399H6.12988V24.4399H48.1299V23.4399H46.3799V18.9399H48.1299V18.4399H45.8799V18.9399H45.6299V20.5699H45.1299V21.8199H45.6299V23.4499H45.8799V24.4499" stroke="#010101" stroke-width="0.25" stroke-miterlimit="10"/>
<path d="M8.37988 24.4499V23.4499H8.62988V21.8199H9.12988V20.5699H8.62988V18.9399H42.3799" stroke="#010101" stroke-width="0.25" stroke-miterlimit="10"/>
<path d="M18.1298 3.85986L21.9798 6.07986L40.3798 16.7099L40.2798 16.8899L40.2598 16.9299L36.4098 14.7099L18.0098 4.06986" stroke="#010101" stroke-width="0.25" stroke-miterlimit="10"/>
<path d="M16.6 0.359863L16.5 0.529863H16.52L16.62 0.369863" stroke="#010101" stroke-width="0.25" stroke-miterlimit="10"/>
<path d="M16.3598 0.219727L16.2598 0.389727H16.2798L16.3798 0.229727" stroke="#010101" stroke-width="0.25" stroke-miterlimit="10"/>
<path d="M16.5699 0.339844L16.4699 0.509844H16.4899L15.8999 1.54984" stroke="#010101" stroke-width="0.25" stroke-miterlimit="10"/>
<path d="M16.3898 0.239746L16.2898 0.409746H16.3098L16.4098 0.249746" stroke="#010101" stroke-width="0.25" stroke-miterlimit="10"/>
<path d="M16.3 0.179688L16.2 0.349687H16.21L16.31 0.189687" stroke="#010101" stroke-width="0.25" stroke-miterlimit="10"/>
<path d="M16.2899 0.179688L16.1899 0.349687L15.5999 1.36969" stroke="#010101" stroke-width="0.25" stroke-miterlimit="10"/>
<path d="M16.5099 0.310059L16.4099 0.480059H16.4299L16.5299 0.320059" stroke="#010101" stroke-width="0.25" stroke-miterlimit="10"/>
<path d="M15.9299 1.55988L16.5199 0.539883H16.5399L16.6399 0.379883" stroke="#010101" stroke-width="0.25" stroke-miterlimit="10"/>
<path d="M15.6999 1.43016L16.2899 0.410156H16.2699L15.6799 1.42016" stroke="#010101" stroke-width="0.25" stroke-miterlimit="10"/>
<path d="M16.6798 0.399902L16.5798 0.569902H16.5998L16.6998 0.409902" stroke="#010101" stroke-width="0.25" stroke-miterlimit="10"/>
<path d="M15.5598 1.34982L16.1498 0.319824" stroke="#010101" stroke-width="0.25" stroke-miterlimit="10"/>
<path d="M16.5499 0.330078L16.4499 0.500078L15.8599 1.52008" stroke="#010101" stroke-width="0.25" stroke-miterlimit="10"/>
<path d="M15.6499 1.39971L16.2399 0.379707H16.2199L16.3199 0.199707" stroke="#010101" stroke-width="0.25" stroke-miterlimit="10"/>
<path d="M16.4499 0.27002L16.3499 0.44002H16.3699L16.4699 0.28002" stroke="#010101" stroke-width="0.25" stroke-miterlimit="10"/>
<path d="M15.97 1.58982L16.56 0.569824H16.58L15.99 1.60982L16.04 1.63982L16.09 1.66982L15.99 1.83982" stroke="#010101" stroke-width="0.25" stroke-miterlimit="10"/>
<path d="M16.0698 1.64012L16.6598 0.620117H16.6798V0.630117" stroke="#010101" stroke-width="0.25" stroke-miterlimit="10"/>
<path d="M16.6198 2.18969L16.7198 2.01969H16.7098L16.6998 1.99969H16.6798L16.6598 1.97969H16.6398L16.6098 1.94969L16.5798 1.92969L16.5498 1.90969L16.5098 1.88969L16.4698 1.86969L16.4298 1.84969L16.3898 1.82969L16.3498 1.79969L16.2998 1.76969L16.2498 1.73969L16.1998 1.70969L16.1498 1.67969L16.0498 1.84969" stroke="#010101" stroke-width="0.25" stroke-miterlimit="10"/>
<path d="M15.8899 1.77L15.9899 1.6L15.9399 1.57L15.8899 1.54L16.4799 0.52H16.4599L16.4399 0.5L15.8499 1.52" stroke="#010101" stroke-width="0.25" stroke-miterlimit="10"/>
<path d="M15.7898 1.7098L15.8898 1.5398L15.8398 1.5098L15.7898 1.4798L16.3798 0.459805H16.3998L16.4998 0.299805" stroke="#010101" stroke-width="0.25" stroke-miterlimit="10"/>
<path d="M15.58 1.58986L15.68 1.41986L15.63 1.38986L15.58 1.35986L15.48 1.52986" stroke="#010101" stroke-width="0.25" stroke-miterlimit="10"/>
<path d="M15.6799 1.64971L15.7799 1.47971L15.7299 1.44971L15.6299 1.61971" stroke="#010101" stroke-width="0.25" stroke-miterlimit="10"/>
<path d="M16.6899 0.63998L16.0999 1.65998M16.0999 1.65998L16.1499 1.68998L16.7399 0.66998L16.8399 0.49998H16.8299V0.48998H16.8199L16.8099 0.47998H16.7899L16.6899 0.62998L16.0999 1.65998Z" stroke="#010101" stroke-width="0.25" stroke-miterlimit="10"/>
<path d="M16.3399 0.209961L16.2399 0.379961H16.2599L15.6699 1.40996L15.7199 1.43996L16.3099 0.419961H16.3299L16.4299 0.259961" stroke="#010101" stroke-width="0.25" stroke-miterlimit="10"/>
<path d="M15.95 1.79986L16.05 1.62986L16.65 0.609863" stroke="#010101" stroke-width="0.25" stroke-miterlimit="10"/>
<path d="M16.0098 1.60984L16.5998 0.589844H16.6198L16.6398 0.609844H16.6598" stroke="#010101" stroke-width="0.25" stroke-miterlimit="10"/>
<path d="M16.0298 1.61971L16.6198 0.599707L16.7198 0.429707H16.6998L16.6798 0.409707H16.6598L16.6398 0.389707H16.6198L16.5998 0.369707H16.5798L16.5598 0.349707H16.5398L16.5198 0.329707H16.4998L16.4798 0.309707H16.4598L16.4398 0.289707H16.4198L16.3998 0.269707H16.3798L16.3598 0.249707H16.3398L16.3198 0.229707H16.3098L16.2998 0.209707H16.2898L16.2798 0.199707L16.1798 0.369707" stroke="#010101" stroke-width="0.25" stroke-miterlimit="10"/>
<path d="M16.8398 0.5H16.8598L16.7698 0.68H16.7798V0.69L16.1898 1.71L16.0898 1.88" stroke="#010101" stroke-width="0.25" stroke-miterlimit="10"/>
<path d="M16.27 0.169922L16.17 0.339922L15.58 1.35992L15.53 1.32992L15.48 1.29992L15.43 1.26992L15.39 1.23992L15.35 1.21992L15.31 1.19992L15.27 1.17992L15.23 1.15992L15.2 1.13992L15.17 1.11992L15.14 1.09992H15.12L15.1 1.06992H15.08L15.07 1.04992H15.06L14.96 1.20992" stroke="#010101" stroke-width="0.25" stroke-miterlimit="10"/>
<path d="M15.6398 1.39012L16.2298 0.370117H16.2198L15.6298 1.38012L15.5298 1.55012" stroke="#010101" stroke-width="0.25" stroke-miterlimit="10"/>
<path d="M15.5898 1.35984L16.1798 0.339844H16.1898L16.1998 0.349844L15.6098 1.36984" stroke="#010101" stroke-width="0.25" stroke-miterlimit="10"/>
<path d="M15.74 1.44969L16.33 0.429688H16.35L15.76 1.45969" stroke="#010101" stroke-width="0.25" stroke-miterlimit="10"/>
<path d="M15.7998 1.48973L16.3898 0.469727H16.4098L15.8198 1.50973" stroke="#010101" stroke-width="0.25" stroke-miterlimit="10"/>
<path d="M13.9099 4.31982H13.9199L13.9299 4.33982" stroke="#010101" stroke-width="0.25" stroke-miterlimit="10"/>
<path d="M13.99 4.35986H14.01L14.03 4.37986" stroke="#010101" stroke-width="0.25" stroke-miterlimit="10"/>
<path d="M14.0798 4.41992H14.0998L14.1198 4.43992H14.1398" stroke="#010101" stroke-width="0.25" stroke-miterlimit="10"/>
<path d="M14.3098 4.5498H14.3298L14.3498 4.5698H14.3698" stroke="#010101" stroke-width="0.25" stroke-miterlimit="10"/>
<path d="M15.95 1.57014L16.54 0.550137H16.56L16.66 0.390137" stroke="#010101" stroke-width="0.25" stroke-miterlimit="10"/>
<path d="M14.4599 4.41016L14.3599 4.58016H14.3799" stroke="#010101" stroke-width="0.25" stroke-miterlimit="10"/>
<path d="M14.0598 4.40969L14.1598 4.23969H14.1798L14.0798 4.41969H14.0598L14.0398 4.39969H14.0198L14.1198 4.21969H14.0998L14.0798 4.19969L14.6698 3.17969" stroke="#010101" stroke-width="0.25" stroke-miterlimit="10"/>
<path d="M14.7599 2.98975L14.6599 3.15975L14.0699 4.17975M14.0699 4.17975H14.0899L13.9899 4.35975H13.9699L14.0699 4.17975ZM14.0699 4.17975H14.0499L14.0299 4.15975L13.9299 4.32975H13.9499L14.0499 4.16975L14.6399 3.14975" stroke="#010101" stroke-width="0.25" stroke-miterlimit="10"/>
<path d="M14.5999 3.12986L14.0099 4.14986L13.9099 4.31986H13.8999L13.9999 4.13986H13.9899L14.5799 3.10986" stroke="#010101" stroke-width="0.25" stroke-miterlimit="10"/>
<path d="M13.8999 4.30988H13.8899M13.8899 4.30988V4.29988L13.9899 4.12988L13.8899 4.30988Z" stroke="#010101" stroke-width="0.25" stroke-miterlimit="10"/>
<path d="M15 3.35986L14.41 4.37986L14.31 4.54986H14.29L14.27 4.52986H14.25L14.23 4.50986L14.33 4.33986H14.35L14.25 4.51986" stroke="#010101" stroke-width="0.25" stroke-miterlimit="10"/>
<path d="M15.8098 3.59986L15.7098 3.76986H15.6998L15.6898 3.74986H15.6698L15.6498 3.72986H15.6298L15.5998 3.69986L15.5698 3.67986L15.5398 3.65986L15.4998 3.63986L15.4598 3.61986L15.4198 3.59986L15.3798 3.57986L15.3398 3.54986L15.2898 3.51986L15.2398 3.48986L15.1898 3.45986L15.1398 3.42986L15.0898 3.39986L15.0398 3.36986L14.9898 3.33986L14.9398 3.30986L14.8898 3.27986L14.8398 3.24986L14.7898 3.21986L14.7398 3.18986L14.6898 3.15986L14.6398 3.12986L14.5898 3.09986L14.5398 3.06986L14.4898 3.03986L14.4398 3.00986L14.3998 2.97986L14.3598 2.95986L14.3198 2.93986L14.2798 2.91986L14.2398 2.89986L14.2098 2.87986L14.1798 2.85986L14.1498 2.83986H14.1298L14.1098 2.80986H14.0898L14.0798 2.78986H14.0698L14.1698 2.60986" stroke="#010101" stroke-width="0.25" stroke-miterlimit="10"/>
<path d="M17.2299 6.23969L14.3899 4.59969L14.4899 4.42969L17.4899 6.15969L17.2199 6.22969L17.2299 6.23969Z" stroke="#010101" stroke-width="0.25" stroke-miterlimit="10"/>
<path d="M16.6399 0.609941L16.7399 0.439941H16.7499L16.7699 0.459941H16.7899L16.6999 0.639941L19.6999 2.36994L19.6299 2.09994L16.8199 0.479941L16.7199 0.649941L16.1299 1.66994" stroke="#010101" stroke-width="0.25" stroke-miterlimit="10"/>
<path d="M41.6198 16.6299L42.2898 17.0099L42.5398 17.1499L45.6298 18.9399L45.2598 19.5799L44.8198 20.3499L42.4698 18.9899L40.8198 18.0299" stroke="#010101" stroke-width="0.25" stroke-miterlimit="10"/>
<path d="M16.7698 4.15994L16.0998 3.77994L14.7398 2.98994L12.7598 1.84994L13.1298 1.20994L13.5698 0.439941L15.9198 1.79994L17.5798 2.74994L17.6998 2.52994L17.8698 2.62994L18.5898 3.03994L17.7098 4.55994L17.5298 4.87994L17.3798 4.78994L16.6398 4.35994L17.4998 2.86994L17.5698 2.73994" stroke="#010101" stroke-width="0.25" stroke-miterlimit="10"/>
<path d="M40.3898 16.7099L40.6798 16.2199L40.8598 15.8999L41.5798 16.3099L41.7498 16.4099L40.8898 17.8999L40.6898 18.2499L40.5198 18.1499L39.7998 17.7399L40.2698 16.9299" stroke="#010101" stroke-width="0.25" stroke-miterlimit="10"/>
<path d="M14.7899 3.2398L14.1999 4.2598H14.1799L14.7699 3.2198L14.8699 3.0498" stroke="#010101" stroke-width="0.25" stroke-miterlimit="10"/>
<path d="M13.98 4.12994L14.57 3.10994L14.67 2.93994" stroke="#010101" stroke-width="0.25" stroke-miterlimit="10"/>
<path d="M14.9599 3.34014L14.3699 4.36014H14.3499L14.9399 3.32014H14.9299L15.0299 3.14014" stroke="#010101" stroke-width="0.25" stroke-miterlimit="10"/>
<path d="M15.0799 3.17969L14.9799 3.34969L14.3899 4.36969H14.4099L14.4299 4.38969H14.4499L15.0399 3.37969L15.1399 3.20969" stroke="#010101" stroke-width="0.25" stroke-miterlimit="10"/>
<path d="M14.4299 4.61969L14.5299 4.44969L15.1199 3.42969" stroke="#010101" stroke-width="0.25" stroke-miterlimit="10"/>
<path d="M14.45 4.62996L14.55 4.45996" stroke="#010101" stroke-width="0.25" stroke-miterlimit="10"/>
<path d="M14.47 3.04988L14.57 2.87988" stroke="#010101" stroke-width="0.25" stroke-miterlimit="10"/>
<path d="M14.6099 4.49998L15.1999 3.47998" stroke="#010101" stroke-width="0.25" stroke-miterlimit="10"/>
<path d="M15.08 3.3999L14.49 4.4199" stroke="#010101" stroke-width="0.25" stroke-miterlimit="10"/>
<path d="M15.56 3.44971L15.46 3.61971" stroke="#010101" stroke-width="0.25" stroke-miterlimit="10"/>
<path d="M15.2099 3.47998L14.6199 4.49998" stroke="#010101" stroke-width="0.25" stroke-miterlimit="10"/>
<path d="M13.96 4.1201L14.55 3.1001" stroke="#010101" stroke-width="0.25" stroke-miterlimit="10"/>
<path d="M9.12988 20.9399H45.1299" stroke="#010101" stroke-width="0.25" stroke-miterlimit="10"/>
<path d="M15.3298 3.54988L15.4298 3.37988" stroke="#010101" stroke-width="0.25" stroke-miterlimit="10"/>
<path d="M16.6098 1.94971L16.5098 2.11971" stroke="#010101" stroke-width="0.25" stroke-miterlimit="10"/>
<path d="M16.5298 2.13973L16.6298 1.96973" stroke="#010101" stroke-width="0.25" stroke-miterlimit="10"/>
<path d="M14.0798 2.83016L14.1798 2.66016" stroke="#010101" stroke-width="0.25" stroke-miterlimit="10"/>
<path d="M16.58 1.93994L16.48 2.10994" stroke="#010101" stroke-width="0.25" stroke-miterlimit="10"/>
<path d="M16.6999 2.00977L16.5999 2.17977" stroke="#010101" stroke-width="0.25" stroke-miterlimit="10"/>
<path d="M16.6099 2.17977L16.7099 2.00977" stroke="#010101" stroke-width="0.25" stroke-miterlimit="10"/>
<path d="M16.5598 2.14998L16.6598 1.97998" stroke="#010101" stroke-width="0.25" stroke-miterlimit="10"/>
<path d="M16.5798 2.17L16.6798 2" stroke="#010101" stroke-width="0.25" stroke-miterlimit="10"/>
<path d="M15.1398 1.10986L15.0398 1.27986" stroke="#010101" stroke-width="0.25" stroke-miterlimit="10"/>
<path d="M14.35 2.75977L14.25 2.92977" stroke="#010101" stroke-width="0.25" stroke-miterlimit="10"/>
<path d="M15.0698 1.29012L15.1698 1.12012" stroke="#010101" stroke-width="0.25" stroke-miterlimit="10"/>
<path d="M15.2299 1.16016L15.1299 1.33016" stroke="#010101" stroke-width="0.25" stroke-miterlimit="10"/>
<path d="M15.1699 1.34969L15.2699 1.17969" stroke="#010101" stroke-width="0.25" stroke-miterlimit="10"/>
<path d="M15.3798 1.25L15.2798 1.42" stroke="#010101" stroke-width="0.25" stroke-miterlimit="10"/>
<path d="M15.3298 1.44002L15.4298 1.27002" stroke="#010101" stroke-width="0.25" stroke-miterlimit="10"/>
<path d="M15.3 1.19971L15.2 1.36971" stroke="#010101" stroke-width="0.25" stroke-miterlimit="10"/>
<path d="M15.24 1.38973L15.34 1.21973" stroke="#010101" stroke-width="0.25" stroke-miterlimit="10"/>
<path d="M15.5698 3.67977L15.6698 3.50977" stroke="#010101" stroke-width="0.25" stroke-miterlimit="10"/>
<path d="M15.9398 1.56982L15.8398 1.73982" stroke="#010101" stroke-width="0.25" stroke-miterlimit="10"/>
<path d="M16.2499 1.75L16.1499 1.92" stroke="#010101" stroke-width="0.25" stroke-miterlimit="10"/>
</g>
<defs>
<clipPath id="clip0_1601_2956">
<rect width="56.05" height="33.01" fill="white" transform="translate(0 25)"/>
</clipPath>
<clipPath id="clip1_1601_2956">
<rect width="42.25" height="24.57" fill="white" transform="translate(6)"/>
</clipPath>
</defs>
</svg>
