<svg width="55" height="7" viewBox="0 0 55 7" fill="none" xmlns="http://www.w3.org/2000/svg">
<g clip-path="url(#clip0_1665_5770)">
<path d="M2.91998 6.43005L50.92 6.43005L50.92 1.18005L2.91998 1.18005L2.91998 6.43005Z" fill="white"/>
<path d="M54.05 0.670044L51.05 0.670044" stroke="black" stroke-width="0.1" stroke-linecap="round" stroke-linejoin="round"/>
<path d="M51.05 0.670044L51.05 4.67004" stroke="black" stroke-width="0.1" stroke-linecap="round" stroke-linejoin="round"/>
<path d="M51.05 4.67004L51.3 4.67004" stroke="black" stroke-width="0.1" stroke-linecap="round" stroke-linejoin="round"/>
<path d="M51.3 4.67004L51.3 0.920044" stroke="black" stroke-width="0.1" stroke-linecap="round" stroke-linejoin="round"/>
<path d="M51.3 0.920044L54.05 0.920044" stroke="black" stroke-width="0.1" stroke-linecap="round" stroke-linejoin="round"/>
<path d="M54.05 0.920044L54.05 0.670044" stroke="black" stroke-width="0.1" stroke-linecap="round" stroke-linejoin="round"/>
<path d="M0.0499878 0.670044L3.04999 0.670044" stroke="black" stroke-width="0.1" stroke-linecap="round" stroke-linejoin="round"/>
<path d="M3.04999 0.670044L3.04999 4.67004" stroke="black" stroke-width="0.1" stroke-linecap="round" stroke-linejoin="round"/>
<path d="M3.04999 4.67004L2.79999 4.67004" stroke="black" stroke-width="0.1" stroke-linecap="round" stroke-linejoin="round"/>
<path d="M2.79999 4.67004L2.79999 0.920044" stroke="black" stroke-width="0.1" stroke-linecap="round" stroke-linejoin="round"/>
<path d="M2.79999 0.920044L0.0499878 0.920044" stroke="black" stroke-width="0.1" stroke-linecap="round" stroke-linejoin="round"/>
<path d="M0.0499878 0.920044L0.0499878 0.670044" stroke="black" stroke-width="0.1" stroke-linecap="round" stroke-linejoin="round"/>
<path d="M51.05 5.92004L3.04999 5.92004" stroke="black" stroke-width="0.1" stroke-linecap="round" stroke-linejoin="round"/>
<path d="M3.04999 5.92004L3.04999 0.670044" stroke="black" stroke-width="0.1" stroke-linecap="round" stroke-linejoin="round"/>
<path d="M3.04999 0.67004L51.05 0.670044" stroke="black" stroke-width="0.1" stroke-linecap="round" stroke-linejoin="round"/>
<path d="M51.05 0.670044L51.05 5.92004" stroke="black" stroke-width="0.1" stroke-linecap="round" stroke-linejoin="round"/>
<path d="M50.55 5.92004L3.54999 5.92004" stroke="black" stroke-width="0.1" stroke-linecap="round" stroke-linejoin="round"/>
<path d="M3.54999 5.92004L3.54999 2.42004" stroke="black" stroke-width="0.1" stroke-linecap="round" stroke-linejoin="round"/>
<path d="M3.54999 2.42004L50.55 2.42004" stroke="black" stroke-width="0.1" stroke-linecap="round" stroke-linejoin="round"/>
<path d="M50.55 2.42004L50.55 5.92004" stroke="black" stroke-width="0.1" stroke-linecap="round" stroke-linejoin="round"/>
<path d="M50.8 2.42004C50.6619 2.42004 50.55 2.53197 50.55 2.67004C50.55 2.80812 50.6619 2.92004 50.8 2.92004C50.9381 2.92004 51.05 2.80812 51.05 2.67004C51.05 2.53197 50.9381 2.42004 50.8 2.42004Z" stroke="black" stroke-width="0.1" stroke-linecap="round" stroke-linejoin="round"/>
<path d="M3.29999 2.42004C3.16192 2.42004 3.04999 2.53197 3.04999 2.67004C3.04999 2.80812 3.16192 2.92004 3.29999 2.92004C3.43806 2.92004 3.54999 2.80812 3.54999 2.67004C3.54999 2.53197 3.43806 2.42004 3.29999 2.42004Z" stroke="black" stroke-width="0.1" stroke-linecap="round" stroke-linejoin="round"/>
<path d="M50.55 3.67004L3.54999 3.67004" stroke="black" stroke-width="0.1" stroke-linecap="round" stroke-linejoin="round"/>
<path d="M3.54999 3.67004L3.54999 2.42004" stroke="black" stroke-width="0.1" stroke-linecap="round" stroke-linejoin="round"/>
<path d="M3.54999 2.42004L50.55 2.42004" stroke="black" stroke-width="0.1" stroke-linecap="round" stroke-linejoin="round"/>
<path d="M50.55 2.42004L50.55 3.67004" stroke="black" stroke-width="0.1" stroke-linecap="round" stroke-linejoin="round"/>
<path d="M50.55 4.92004L28.55 4.92004" stroke="black" stroke-width="0.1" stroke-linecap="round" stroke-linejoin="round"/>
<path d="M28.55 4.92004L28.55 3.67004" stroke="black" stroke-width="0.1" stroke-linecap="round" stroke-linejoin="round"/>
<path d="M28.55 3.67004L50.55 3.67004" stroke="black" stroke-width="0.1" stroke-linecap="round" stroke-linejoin="round"/>
<path d="M50.55 3.67004L50.55 4.92004" stroke="black" stroke-width="0.1" stroke-linecap="round" stroke-linejoin="round"/>
<path d="M52.06 0.670044L48.56 0.670044" stroke="black" stroke-width="0.1" stroke-linecap="round" stroke-linejoin="round"/>
<path d="M48.56 0.670044L48.56 0.420044" stroke="black" stroke-width="0.1" stroke-linecap="round" stroke-linejoin="round"/>
<path d="M48.56 0.420044L52.06 0.420044" stroke="black" stroke-width="0.1" stroke-linecap="round" stroke-linejoin="round"/>
<path d="M52.06 0.420044L52.06 0.670044" stroke="black" stroke-width="0.1" stroke-linecap="round" stroke-linejoin="round"/>
<path d="M50.8 0.920044L3.29999 0.92004" stroke="black" stroke-width="0.1" stroke-linecap="round" stroke-linejoin="round"/>
<path d="M3.29999 0.920044L3.29999 0.670044" stroke="black" stroke-width="0.1" stroke-linecap="round" stroke-linejoin="round"/>
<path d="M3.29999 0.67004L50.8 0.670044" stroke="black" stroke-width="0.1" stroke-linecap="round" stroke-linejoin="round"/>
<path d="M50.8 0.670044L50.8 0.920044" stroke="black" stroke-width="0.1" stroke-linecap="round" stroke-linejoin="round"/>
<path d="M28.55 4.92004L3.54999 4.92004" stroke="black" stroke-width="0.1" stroke-linecap="round" stroke-linejoin="round"/>
<path d="M3.54999 4.92004L3.54999 3.67004" stroke="black" stroke-width="0.1" stroke-linecap="round" stroke-linejoin="round"/>
<path d="M3.54999 3.67004L28.55 3.67004" stroke="black" stroke-width="0.1" stroke-linecap="round" stroke-linejoin="round"/>
<path d="M28.55 3.67004L28.55 4.92004" stroke="black" stroke-width="0.1" stroke-linecap="round" stroke-linejoin="round"/>
<path d="M3.22998 0.670044C3.16998 0.670044 3.10998 0.670044 3.04998 0.640044" stroke="black" stroke-width="0.1" stroke-linecap="round" stroke-linejoin="round"/>
<path d="M3.04999 0.650024C2.88999 0.580024 2.81999 0.390025 2.89999 0.230025" stroke="black" stroke-width="0.1" stroke-linecap="round" stroke-linejoin="round"/>
<path d="M2.90001 0.22998C2.97001 0.0699804 3.16001 -1.96388e-05 3.32001 0.0799804" stroke="black" stroke-width="0.1" stroke-linecap="round" stroke-linejoin="round"/>
<path d="M3.32001 0.0800733C3.38001 0.110073 3.42001 0.150073 3.45001 0.200073" stroke="black" stroke-width="0.1" stroke-linecap="round" stroke-linejoin="round"/>
<path d="M3.45 0.189991C3.51 0.279991 3.52 0.38999 3.47 0.48999" stroke="black" stroke-width="0.1" stroke-linecap="round" stroke-linejoin="round"/>
<path d="M3.46997 0.490044C3.41997 0.590044 3.32997 0.650044 3.22997 0.670044" stroke="black" stroke-width="0.1" stroke-linecap="round" stroke-linejoin="round"/>
<path d="M3.18001 0.160058C3.06955 0.160058 2.98001 0.249601 2.98001 0.360058C2.98001 0.470515 3.06955 0.560059 3.18001 0.560059C3.29046 0.560059 3.38 0.470515 3.38 0.360058C3.38 0.249601 3.29046 0.160058 3.18001 0.160058Z" stroke="black" stroke-width="0.1" stroke-linecap="round" stroke-linejoin="round"/>
<path d="M3.45 0.189991C3.51 0.279991 3.52 0.38999 3.47 0.48999" stroke="black" stroke-width="0.1" stroke-linecap="round" stroke-linejoin="round"/>
<path d="M3.46997 0.490044C3.41997 0.590044 3.32997 0.650044 3.22997 0.670044" stroke="black" stroke-width="0.1" stroke-linecap="round" stroke-linejoin="round"/>
<path d="M3.22998 0.670044L3.53998 0.670044" stroke="black" stroke-width="0.1" stroke-linecap="round" stroke-linejoin="round"/>
<path d="M3.53996 0.670044L3.64996 0.430044" stroke="black" stroke-width="0.1" stroke-linecap="round" stroke-linejoin="round"/>
<path d="M3.64996 0.430054L3.44996 0.190054" stroke="black" stroke-width="0.1" stroke-linecap="round" stroke-linejoin="round"/>
<path d="M3.14001 0.670044C3.04001 0.660044 2.94001 0.590044 2.90001 0.490044" stroke="black" stroke-width="0.1" stroke-linecap="round" stroke-linejoin="round"/>
<path d="M2.89998 0.48999C2.84998 0.38999 2.85998 0.279991 2.91998 0.189991" stroke="black" stroke-width="0.1" stroke-linecap="round" stroke-linejoin="round"/>
<path d="M2.91998 0.190054L2.71998 0.430054" stroke="black" stroke-width="0.1" stroke-linecap="round" stroke-linejoin="round"/>
<path d="M2.72002 0.430044L2.83002 0.670044" stroke="black" stroke-width="0.1" stroke-linecap="round" stroke-linejoin="round"/>
<path d="M2.83001 0.670044L3.14001 0.670044" stroke="black" stroke-width="0.1" stroke-linecap="round" stroke-linejoin="round"/>
</g>
<defs>
<clipPath id="clip0_1665_5770">
<rect width="54.1" height="6.43" fill="white" transform="translate(54.1 6.43005) rotate(-180)"/>
</clipPath>
</defs>
</svg>
