<svg width="55" height="6" viewBox="0 0 55 6" fill="none" xmlns="http://www.w3.org/2000/svg">
<g clip-path="url(#clip0_1665_5698)">
<path d="M3.04999 5.29992L51.05 5.29993L51.05 0.0499268L3.04999 0.0499226L3.04999 5.29992Z" fill="white"/>
<path d="M54.05 0.0499268L51.05 0.0499265" stroke="black" stroke-width="0.1" stroke-linecap="round" stroke-linejoin="round"/>
<path d="M51.05 0.0499268L51.05 4.04993" stroke="black" stroke-width="0.1" stroke-linecap="round" stroke-linejoin="round"/>
<path d="M51.05 4.04993L51.3 4.04993" stroke="black" stroke-width="0.1" stroke-linecap="round" stroke-linejoin="round"/>
<path d="M51.3 4.04993L51.3 0.299927" stroke="black" stroke-width="0.1" stroke-linecap="round" stroke-linejoin="round"/>
<path d="M51.3 0.299927L54.05 0.299927" stroke="black" stroke-width="0.1" stroke-linecap="round" stroke-linejoin="round"/>
<path d="M54.05 0.299927L54.05 0.0499268" stroke="black" stroke-width="0.1" stroke-linecap="round" stroke-linejoin="round"/>
<path d="M0.0499878 0.0499265L3.04999 0.0499268" stroke="black" stroke-width="0.1" stroke-linecap="round" stroke-linejoin="round"/>
<path d="M3.04999 0.0499268L3.04999 4.04993" stroke="black" stroke-width="0.1" stroke-linecap="round" stroke-linejoin="round"/>
<path d="M3.04999 4.04993L2.79999 4.04993" stroke="black" stroke-width="0.1" stroke-linecap="round" stroke-linejoin="round"/>
<path d="M2.79999 4.04993L2.79999 0.299927" stroke="black" stroke-width="0.1" stroke-linecap="round" stroke-linejoin="round"/>
<path d="M2.79999 0.299927L0.0499878 0.299927" stroke="black" stroke-width="0.1" stroke-linecap="round" stroke-linejoin="round"/>
<path d="M0.0499878 0.299927L0.0499878 0.0499268" stroke="black" stroke-width="0.1" stroke-linecap="round" stroke-linejoin="round"/>
<path d="M51.05 5.29993L3.04999 5.29992" stroke="black" stroke-width="0.1" stroke-linecap="round" stroke-linejoin="round"/>
<path d="M3.04999 5.29993L3.04999 0.0499268" stroke="black" stroke-width="0.1" stroke-linecap="round" stroke-linejoin="round"/>
<path d="M3.04999 0.0499226L51.05 0.0499268" stroke="black" stroke-width="0.1" stroke-linecap="round" stroke-linejoin="round"/>
<path d="M51.05 0.0499268L51.05 5.29993" stroke="black" stroke-width="0.1" stroke-linecap="round" stroke-linejoin="round"/>
<path d="M50.55 5.29993L3.54999 5.29992" stroke="black" stroke-width="0.1" stroke-linecap="round" stroke-linejoin="round"/>
<path d="M3.54999 5.29993L3.54999 1.79993" stroke="black" stroke-width="0.1" stroke-linecap="round" stroke-linejoin="round"/>
<path d="M3.54999 1.79992L50.55 1.79993" stroke="black" stroke-width="0.1" stroke-linecap="round" stroke-linejoin="round"/>
<path d="M50.55 1.79993L50.55 5.29993" stroke="black" stroke-width="0.1" stroke-linecap="round" stroke-linejoin="round"/>
<path d="M50.8 1.79993C50.6619 1.79993 50.55 1.91186 50.55 2.04993C50.55 2.188 50.6619 2.29993 50.8 2.29993C50.9381 2.29993 51.05 2.188 51.05 2.04993C51.05 1.91186 50.9381 1.79993 50.8 1.79993Z" stroke="black" stroke-width="0.1" stroke-linecap="round" stroke-linejoin="round"/>
<path d="M3.29999 1.79993C3.16192 1.79993 3.04999 1.91186 3.04999 2.04993C3.04999 2.188 3.16192 2.29993 3.29999 2.29993C3.43806 2.29993 3.54999 2.188 3.54999 2.04993C3.54999 1.91186 3.43806 1.79993 3.29999 1.79993Z" stroke="black" stroke-width="0.1" stroke-linecap="round" stroke-linejoin="round"/>
<path d="M50.55 3.04993L3.54999 3.04992" stroke="black" stroke-width="0.1" stroke-linecap="round" stroke-linejoin="round"/>
<path d="M3.54999 3.04993L3.54999 1.79993" stroke="black" stroke-width="0.1" stroke-linecap="round" stroke-linejoin="round"/>
<path d="M3.54999 1.79992L50.55 1.79993" stroke="black" stroke-width="0.1" stroke-linecap="round" stroke-linejoin="round"/>
<path d="M50.55 1.79993L50.55 3.04993" stroke="black" stroke-width="0.1" stroke-linecap="round" stroke-linejoin="round"/>
<path d="M50.55 4.29993L28.55 4.29992" stroke="black" stroke-width="0.1" stroke-linecap="round" stroke-linejoin="round"/>
<path d="M28.55 4.29993L28.55 3.04993" stroke="black" stroke-width="0.1" stroke-linecap="round" stroke-linejoin="round"/>
<path d="M28.55 3.04992L50.55 3.04993" stroke="black" stroke-width="0.1" stroke-linecap="round" stroke-linejoin="round"/>
<path d="M50.55 3.04993L50.55 4.29993" stroke="black" stroke-width="0.1" stroke-linecap="round" stroke-linejoin="round"/>
<path d="M28.55 4.29993L3.54999 4.29992" stroke="black" stroke-width="0.1" stroke-linecap="round" stroke-linejoin="round"/>
<path d="M3.54999 4.29993L3.54999 3.04993" stroke="black" stroke-width="0.1" stroke-linecap="round" stroke-linejoin="round"/>
<path d="M3.54999 3.04992L28.55 3.04993" stroke="black" stroke-width="0.1" stroke-linecap="round" stroke-linejoin="round"/>
<path d="M28.55 3.04993L28.55 4.29993" stroke="black" stroke-width="0.1" stroke-linecap="round" stroke-linejoin="round"/>
</g>
<defs>
<clipPath id="clip0_1665_5698">
<rect width="54.1" height="5.35" fill="white" transform="translate(54.1 5.34998) rotate(-180)"/>
</clipPath>
</defs>
</svg>
