<svg width="54" height="4" viewBox="0 0 54 4" fill="none" xmlns="http://www.w3.org/2000/svg">
<g clip-path="url(#clip0_1347_3108)">
<rect width="53.5" height="3.47" fill="white"/>
<path d="M25.56 3.13012V3.05012H4.94V3.16012C4.94 3.16012 4.94 3.18012 4.93 3.17012H3.69V3.27012C3.69 3.27012 3.66 3.33012 3.63 3.33012H2.61V3.08012C2.61 3.08012 2.6 3.05012 2.58 3.05012H2.46C2.46 3.05012 2.44 3.05012 2.45 3.07012V3.18012C2.45 3.18012 2.45 3.20012 2.46 3.19012H2.48V3.21012L2.45 3.26012H2.4C2.4 3.26012 2.38 3.26012 2.39 3.25012V0.980117C2.39 0.980117 2.39 1.00012 2.38 0.990117H2.35C2.35 0.990117 2.33 0.990117 2.34 0.980117V0.510117C2.34 0.510117 2.34 0.490117 2.33 0.500117H1.91H1.88H1.48H1.45H1.05H1.02H0.619995H0.589995H0.149995C0.149995 0.500117 0.119995 0.490117 0.119995 0.470117V0.150117C0.119995 0.150117 0.129995 0.120117 0.149995 0.120117H1.36C1.36 0.120117 1.39 0.170117 1.41 0.160117C1.42 0.160117 1.43 0.150117 1.43 0.140117H1.45L2.64 0.130117C2.67 0.130117 2.69 0.140117 2.7 0.170117L2.84 0.410117V0.430117L2.83 0.440117H3.11V0.500117C3.11 0.500117 3.1 0.530117 3.08 0.530117C3.06 0.530117 3.05 0.520117 3.05 0.500117H2.89C2.89 0.500117 2.86 0.510117 2.86 0.530117V0.630117C2.86 0.630117 2.87 0.660117 2.89 0.660117H3.02C3.02 0.660117 3.11 0.700117 3.11 0.750117V0.880117V0.950117H3.74V2.04012H4.29C4.29 2.04012 4.31 2.04012 4.31 2.05012V2.15012C4.52 2.15012 4.73 2.18012 4.92 2.26012L5 2.30012H25.47L25.57 2.26012C25.76 2.18012 25.97 2.14012 26.18 2.15012V2.05012C26.18 2.05012 26.18 2.03012 26.19 2.04012H26.95V2.09012H26.91V2.14012H27.12V2.09012H27.08V2.04012H27.12C27.12 2.04012 27.18 2.07012 27.18 2.10012V2.31012C27.18 2.31012 27.15 2.37012 27.12 2.37012H26.98C26.98 2.37012 26.96 2.37012 26.96 2.38012V3.00012C26.96 3.00012 26.96 3.02012 26.98 3.01012H27.12C27.12 3.01012 27.18 3.04012 27.18 3.07012V3.10012C27.18 3.10012 27.15 3.16012 27.12 3.16012H25.57C25.57 3.16012 25.55 3.16012 25.56 3.15012V3.09012V3.12012V3.13012Z" fill="white"/>
<path d="M50.78 0.160117C50.78 0.160117 50.82 0.120117 50.84 0.120117H52.05C52.05 0.120117 52.08 0.170117 52.1 0.160117C52.11 0.160117 52.12 0.150117 52.12 0.140117H52.14L53.33 0.130117C53.35 0.130117 53.36 0.140117 53.36 0.160117V0.480117C53.36 0.500117 53.35 0.510117 53.33 0.510117H52.92H52.89H52.49H52.46H52.06H52.03H51.63H51.6H51.21C51.21 0.510117 51.19 0.510117 51.19 0.520117V0.990117C51.19 0.990117 51.19 1.01012 51.17 1.00012H51.14C51.14 1.00012 51.12 1.00012 51.12 0.990117V3.27012C51.12 3.27012 51.12 3.29012 51.1 3.28012H51.05L51.02 3.23012V3.21012H51.04C51.04 3.21012 51.06 3.21012 51.05 3.20012V3.09012C51.05 3.09012 51.05 3.07012 51.04 3.07012H50.92C50.92 3.07012 50.89 3.08012 50.89 3.10012V3.35012H49.87C49.87 3.35012 49.8 3.32012 49.8 3.29012V3.21012C49.8 3.19012 49.81 3.18012 49.83 3.18012H49.95L50.46 3.19012L50.53 3.15012H50.56V3.19012H50.6C50.6 3.19012 50.68 3.15012 50.68 3.11012V2.02012C50.68 2.02012 50.64 1.94012 50.6 1.94012H50.56V1.98012H50.53L50.46 1.94012H49.77C49.77 1.94012 49.74 1.93012 49.74 1.91012V1.35012H26.74V1.68012C26.74 1.68012 26.73 1.71012 26.71 1.71012H26.13C26.13 1.71012 26.11 1.71012 26.11 1.72012V1.86012C26.11 1.86012 26.11 1.88012 26.13 1.87012H26.35C26.35 1.87012 26.37 1.87012 26.36 1.86012V1.83012H26.38V1.93012H25.13C25.13 1.93012 25.07 1.90012 25.07 1.87012V1.46012H24.54V0.940117H25.07V0.490117C25.07 0.490117 25.1 0.430117 25.13 0.430117H26.09C26.31 0.430117 26.52 0.470117 26.72 0.550117L26.81 0.590117H49.66L49.74 0.550117C49.93 0.470117 50.14 0.430117 50.35 0.430117H50.63H50.61V0.400117L50.75 0.160117H50.78Z" fill="white"/>
<path d="M3.64001 1.17021V1.37021H3.01001V0.960205H3.55001V1.14021C3.55001 1.14021 3.55001 1.16021 3.57001 1.16021H3.64001" stroke="#010101" stroke-width="0.25" stroke-miterlimit="10"/>
<path d="M3.64001 1.17015V1.15015" stroke="#010101" stroke-width="0.25" stroke-miterlimit="10"/>
<path d="M24.63 1.17015V1.15015" stroke="#010101" stroke-width="0.25" stroke-miterlimit="10"/>
<path d="M25.9899 1.03003H26.0399V1.09003C26.0399 1.09003 26.0699 1.13003 26.0599 1.16003C26.0599 1.16003 26.0499 1.17003 26.0399 1.18003V1.24003H25.9899V1.18003C25.9899 1.18003 25.9599 1.14003 25.9699 1.11003C25.9699 1.11003 25.9799 1.10003 25.9899 1.09003V1.03003Z" stroke="#010101" stroke-width="0.25" stroke-miterlimit="10"/>
<path d="M26.15 1.48009C26.15 1.48009 26.15 1.46009 26.17 1.47009H26.68C26.68 1.47009 26.7 1.47009 26.69 1.48009V1.63009C26.69 1.63009 26.69 1.65009 26.68 1.64009H26.17C26.17 1.64009 26.15 1.64009 26.15 1.63009V1.48009Z" stroke="#010101" stroke-width="0.25" stroke-miterlimit="10"/>
<path d="M25.15 1.48014C25.15 1.48014 25.15 1.46014 25.17 1.47014H25.51C25.51 1.47014 25.57 1.44014 25.57 1.41014V1.31014C25.57 1.31014 25.57 1.29014 25.58 1.30014H25.64C25.64 1.30014 25.69 1.28014 25.7 1.25014V1.22014C25.7 1.22014 25.73 1.12014 25.7 1.08014V1.05014C25.7 1.05014 25.68 1.00014 25.64 1.00014H25.58C25.58 1.00014 25.56 1.00014 25.57 0.990144V0.930144C25.57 0.930144 25.54 0.870144 25.51 0.870144H25.17C25.17 0.870144 25.15 0.870144 25.15 0.860144V0.540144C25.15 0.540144 25.15 0.520144 25.17 0.530144H25.8C25.8 0.530144 25.82 0.530144 25.81 0.540144V0.660144C25.81 0.660144 25.85 0.750144 25.9 0.750144H26.03C26.03 0.750144 26.06 0.760144 26.06 0.780144V0.990144C26.06 0.990144 26.06 1.01014 26.05 1.00014H25.99C25.99 1.00014 25.94 1.02014 25.93 1.05014V1.08014C25.93 1.08014 25.9 1.18014 25.93 1.22014V1.25014C25.93 1.25014 25.95 1.31014 25.98 1.31014H26.04C26.04 1.31014 26.06 1.31014 26.05 1.32014V1.42014C26.05 1.42014 26.07 1.47014 26.1 1.48014H26.11V1.65014H26.1C26.1 1.65014 26.05 1.69014 26.05 1.72014V1.88014C26.05 1.88014 26.05 1.90014 26.04 1.89014H25.16C25.16 1.89014 25.14 1.89014 25.14 1.88014V1.50014L25.15 1.48014Z" stroke="#010101" stroke-width="0.25" stroke-miterlimit="10"/>
<path d="M50.15 1.22C50.15 1.22 50.11 1.21 50.11 1.19V0.78C50.11 0.78 50.13 0.75 50.15 0.75" stroke="#010101" stroke-width="0.25" stroke-miterlimit="10"/>
<path d="M26.35 0.740234C26.35 0.740234 26.39 0.750234 26.39 0.770234V1.18023C26.39 1.18023 26.37 1.21023 26.35 1.21023" stroke="#010101" stroke-width="0.25" stroke-miterlimit="10"/>
<path d="M49.87 0.800195H49.85V0.730195C49.85 0.730195 49.86 0.710195 49.87 0.700195H50.13C50.13 0.700195 50.16 0.710195 50.16 0.730195V1.2102C50.16 1.2102 50.15 1.2302 50.14 1.2302H49.88C49.88 1.2302 49.86 1.2202 49.86 1.2102V1.1402H49.88V1.2102H50.15V0.720195H49.88V0.800195H49.87Z" stroke="#010101" stroke-width="0.25" stroke-miterlimit="10"/>
<path d="M26.3499 1.2202H26.6199V1.1402H26.6399V1.2102C26.6399 1.2102 26.6299 1.2302 26.6099 1.2302H26.3499C26.3499 1.2302 26.3199 1.2202 26.3199 1.2102V0.730195C26.3199 0.730195 26.3299 0.700195 26.3399 0.700195H26.5999C26.5999 0.700195 26.6299 0.710195 26.6299 0.720195V0.790195H26.6099V0.720195H26.3399V1.2102L26.3499 1.2202Z" stroke="#010101" stroke-width="0.25" stroke-miterlimit="10"/>
<path d="M25.9701 2.9202C25.9701 2.9202 25.9301 2.9102 25.9301 2.8902V2.4802C25.9301 2.4802 25.9501 2.4502 25.9701 2.4502" stroke="#010101" stroke-width="0.25" stroke-miterlimit="10"/>
<path d="M4.53003 2.44019C4.53003 2.44019 4.57003 2.45019 4.57003 2.47019V2.88019C4.57003 2.88019 4.55003 2.91019 4.53003 2.91019" stroke="#010101" stroke-width="0.25" stroke-miterlimit="10"/>
<path d="M25.68 2.51016H25.66V2.44016C25.66 2.44016 25.67 2.42016 25.68 2.41016H25.94C25.94 2.41016 25.97 2.42016 25.97 2.43016V2.91016C25.97 2.91016 25.96 2.94016 25.95 2.94016H25.69C25.69 2.94016 25.67 2.93016 25.67 2.91016V2.84016H25.69V2.91016H25.96V2.42016H25.69V2.50016L25.68 2.51016Z" stroke="#010101" stroke-width="0.25" stroke-miterlimit="10"/>
<path d="M4.53002 2.92015H4.80002V2.84015H4.82002V2.91015C4.82002 2.91015 4.81002 2.94015 4.80002 2.94015H4.54002C4.54002 2.94015 4.52002 2.93015 4.52002 2.91015V2.43015C4.52002 2.43015 4.53002 2.40015 4.54002 2.40015H4.80002C4.80002 2.40015 4.82002 2.41015 4.82002 2.42015V2.49015H4.80002V2.42015H4.53002V2.91015V2.92015Z" stroke="#010101" stroke-width="0.25" stroke-miterlimit="10"/>
<path d="M2.57005 0.780114C2.57005 0.780114 2.66005 0.740114 2.66005 0.690114V0.510114C2.66005 0.510114 2.66005 0.490114 2.67005 0.500114H2.80005C2.80005 0.500114 2.82005 0.500114 2.81005 0.510114V0.630114C2.81005 0.630114 2.85005 0.720114 2.90005 0.720114H3.03005C3.03005 0.720114 3.06005 0.730114 3.06005 0.750114V0.830114C3.06005 0.830114 3.06005 0.850114 3.04005 0.840114H3.02005C3.02005 0.840114 2.93005 0.880114 2.93005 0.930114V1.30011C2.93005 1.30011 2.93005 1.32011 2.92005 1.31011H2.44005C2.44005 1.31011 2.42005 1.31011 2.43005 1.30011V0.790114C2.43005 0.790114 2.43005 0.770114 2.44005 0.780114H2.56005H2.57005Z" stroke="#010101" stroke-width="0.25" stroke-miterlimit="10"/>
<path d="M50.93 0.780114H51.05C51.05 0.780114 51.07 0.780114 51.06 0.790114V1.30011C51.06 1.30011 51.06 1.32011 51.05 1.31011H50.57C50.57 1.31011 50.55 1.31011 50.55 1.30011V0.930114C50.55 0.930114 50.51 0.840114 50.46 0.840114H50.44C50.44 0.840114 50.42 0.840114 50.42 0.830114V0.750114C50.42 0.750114 50.43 0.720114 50.45 0.720114H50.58C50.58 0.720114 50.67 0.680114 50.67 0.630114V0.510114C50.67 0.510114 50.67 0.490114 50.68 0.500114H50.8C50.8 0.500114 50.82 0.500114 50.82 0.510114V0.690114C50.82 0.690114 50.86 0.780114 50.91 0.780114" stroke="#010101" stroke-width="0.25" stroke-miterlimit="10"/>
<path d="M2.92994 1.35021C2.92994 1.35021 2.94994 1.35021 2.93994 1.36021V1.45021C2.93994 1.52021 2.98994 1.57021 3.05994 1.57021H3.12994L3.21994 1.86021L3.20994 1.88021H3.00994L2.99994 1.89021H2.97994L2.93994 1.88021H2.89994C2.81994 1.88021 2.75994 1.94021 2.75994 2.02021V2.31021C2.75994 2.31021 2.75994 2.33021 2.74994 2.33021H2.45994C2.45994 2.33021 2.43994 2.33021 2.44994 2.31021V1.36021C2.44994 1.36021 2.44994 1.34021 2.45994 1.35021H2.93994H2.92994Z" stroke="#010101" stroke-width="0.25" stroke-miterlimit="10"/>
<path d="M50.57 1.35021H51.05C51.05 1.35021 51.07 1.35021 51.06 1.36021V2.31021C51.06 2.31021 51.06 2.33021 51.05 2.33021H50.76C50.76 2.33021 50.74 2.33021 50.75 2.31021V2.02021C50.75 1.94021 50.69 1.88021 50.61 1.88021H50.53L50.51 1.89021H50.5L50.47 1.88021H50.29V1.86021L50.38 1.58021H50.39L50.44 1.57021C50.51 1.57021 50.56 1.52021 50.56 1.45021V1.36021C50.56 1.36021 50.56 1.34021 50.58 1.35021H50.57Z" stroke="#010101" stroke-width="0.25" stroke-miterlimit="10"/>
<path d="M2.75006 2.38012V3.11012C2.75006 3.19012 2.81006 3.25012 2.89006 3.25012C2.89006 3.25012 2.91006 3.25012 2.90006 3.26012C2.90006 3.26012 2.90006 3.29012 2.89006 3.28012H2.67006C2.67006 3.28012 2.65006 3.28012 2.66006 3.27012V3.10012C2.66006 3.10012 2.62006 3.01012 2.57006 3.01012H2.45006C2.45006 3.01012 2.43006 3.01012 2.44006 3.00012V2.39012C2.44006 2.39012 2.44006 2.37012 2.45006 2.37012H2.74006C2.74006 2.37012 2.76006 2.37012 2.75006 2.39012V2.38012Z" stroke="#010101" stroke-width="0.25" stroke-miterlimit="10"/>
<path d="M50.75 2.38011C50.75 2.38011 50.75 2.36011 50.76 2.36011H51.05C51.05 2.36011 51.07 2.36011 51.06 2.38011V2.99011C51.06 2.99011 51.06 3.01011 51.05 3.00011H50.93C50.93 3.00011 50.84 3.04011 50.84 3.09011V3.27011C50.84 3.27011 50.84 3.29011 50.82 3.28011H50.6C50.6 3.28011 50.58 3.28011 50.59 3.27011C50.59 3.27011 50.59 3.24011 50.6 3.25011C50.68 3.25011 50.74 3.19011 50.74 3.11011V2.38011H50.75Z" stroke="#010101" stroke-width="0.25" stroke-miterlimit="10"/>
<path d="M3.24003 1.47021H3.68003C3.68003 1.47021 3.70003 1.47021 3.69003 1.48021V1.86021C3.69003 1.86021 3.69003 1.88021 3.68003 1.87021H3.25003L3.16003 1.57021V1.55021C3.16003 1.55021 3.22003 1.51021 3.22003 1.47021H3.23003H3.24003Z" stroke="#010101" stroke-width="0.25" stroke-miterlimit="10"/>
<path d="M50.2599 1.47021H50.2699C50.2699 1.47021 50.2899 1.55021 50.3299 1.56021V1.58021L50.2499 1.87021H50.2399L49.8299 1.88021C49.8299 1.88021 49.8099 1.88021 49.8199 1.87021V1.49021C49.8199 1.49021 49.8199 1.47021 49.8299 1.48021H50.2699L50.2599 1.47021Z" stroke="#010101" stroke-width="0.25" stroke-miterlimit="10"/>
<path d="M3.62994 3.25022V3.27022C3.62994 3.27022 3.62994 3.29022 3.61994 3.28022H2.95994C2.95994 3.28022 2.93994 3.28022 2.94994 3.27022L2.95994 3.24022H2.98994L3.00994 3.23022H3.01994L3.04994 3.24022H3.58994L3.62994 3.23022C3.62994 3.23022 3.64994 3.23022 3.63994 3.24022L3.62994 3.25022Z" stroke="#010101" stroke-width="0.25" stroke-miterlimit="10"/>
<path d="M49.87 3.2501C49.87 3.2501 49.87 3.2301 49.89 3.2401H49.96L50.47 3.2501H50.5L50.51 3.2401H50.53L50.56 3.2501H50.57V3.2801C50.57 3.2801 50.57 3.3001 50.55 3.2901H49.89C49.89 3.2901 49.87 3.2901 49.87 3.2801V3.2601V3.2501Z" stroke="#010101" stroke-width="0.25" stroke-miterlimit="10"/>
<path d="M2.44002 0.500176L2.47002 0.550176V0.580176H2.45002C2.45002 0.580176 2.43002 0.580176 2.44002 0.590176V0.700176C2.44002 0.700176 2.44002 0.720176 2.45002 0.710176H2.57002C2.57002 0.710176 2.60002 0.700176 2.60002 0.680176V0.430176H3.12002V0.490176C3.12002 0.490176 3.11002 0.520176 3.09002 0.520176C3.07002 0.520176 3.06002 0.510176 3.06002 0.490176H2.90002C2.90002 0.490176 2.87002 0.500176 2.87002 0.520176V0.620176C2.87002 0.620176 2.88002 0.650176 2.90002 0.650176H3.03002C3.03002 0.650176 3.12002 0.690176 3.12002 0.740176V0.870176C3.12002 0.870176 3.11002 0.900176 3.09002 0.900176H3.03002C3.03002 0.900176 3.00002 0.910176 3.00002 0.930176V1.44018C3.00002 1.44018 3.03002 1.50018 3.06002 1.50018H3.13002C3.13002 1.50018 3.16002 1.49018 3.16002 1.47018L3.12002 1.42018V1.39018H3.70002C3.70002 1.39018 3.70002 1.36018 3.72002 1.36018H3.74002C3.74002 1.36018 3.76002 1.36018 3.75002 1.37018V1.88018C3.75002 1.88018 3.74002 1.91018 3.72002 1.91018H3.03002L2.96002 1.95018H2.93002V1.91018H2.89002C2.89002 1.91018 2.81002 1.95018 2.81002 1.99018V3.08018C2.81002 3.08018 2.85002 3.16018 2.89002 3.16018H2.94002V3.12018H2.97002L3.04002 3.16018H3.56002L3.67002 3.15018C3.69002 3.15018 3.70002 3.16018 3.70002 3.18018V3.25018C3.70002 3.25018 3.67002 3.31018 3.64002 3.31018H2.62002V3.06018C2.62002 3.06018 2.61002 3.03018 2.59002 3.03018H2.47002C2.47002 3.03018 2.45002 3.03018 2.46002 3.05018V3.16018C2.46002 3.16018 2.46002 3.18018 2.47002 3.17018H2.49002V3.19018L2.46002 3.24018H2.41002C2.41002 3.24018 2.39002 3.24018 2.40002 3.23018V0.520176H2.46002L2.44002 0.500176Z" stroke="#010101" stroke-width="0.25" stroke-miterlimit="10"/>
<path d="M51.12 0.520195V3.2702C51.12 3.2702 51.12 3.2902 51.1 3.2802H51.05L51.02 3.2302V3.2102H51.04C51.04 3.2102 51.06 3.2102 51.05 3.2002V3.0902C51.05 3.0902 51.05 3.0702 51.04 3.0702H50.92C50.92 3.0702 50.89 3.0802 50.89 3.1002V3.3502H49.87C49.87 3.3502 49.8 3.3202 49.8 3.2902V3.2102C49.8 3.1902 49.81 3.1802 49.83 3.1802H49.95L50.46 3.1902L50.53 3.1502H50.56V3.1902H50.6C50.6 3.1902 50.68 3.1502 50.68 3.1102V2.0202C50.68 2.0202 50.64 1.9402 50.6 1.9402H50.56V1.9802H50.53L50.46 1.9402H49.77C49.77 1.9402 49.74 1.9302 49.74 1.9102V1.4002C49.74 1.4002 49.74 1.3802 49.76 1.3902H49.78C49.78 1.3902 49.8 1.3902 49.79 1.4002H50.36V1.4402L50.32 1.4902C50.32 1.4902 50.33 1.5202 50.35 1.5202H50.43C50.43 1.5202 50.49 1.4902 50.49 1.4602V0.950195C50.49 0.950195 50.48 0.920195 50.46 0.920195H50.39C50.39 0.920195 50.36 0.910195 50.36 0.890195V0.770195C50.36 0.770195 50.4 0.680195 50.45 0.680195H50.58C50.58 0.680195 50.61 0.670195 50.61 0.650195V0.540195C50.61 0.540195 50.6 0.510195 50.58 0.510195H50.42C50.42 0.510195 50.41 0.540195 50.39 0.540195C50.37 0.540195 50.36 0.530195 50.36 0.510195V0.450195H50.89V0.700195C50.89 0.700195 50.9 0.730195 50.92 0.730195H51.04C51.04 0.730195 51.06 0.730195 51.05 0.720195V0.610195C51.05 0.610195 51.05 0.590195 51.04 0.600195H51.02V0.570195L51.05 0.520195H51.11H51.12Z" stroke="#010101" stroke-width="0.25" stroke-miterlimit="10"/>
<path d="M2.38 0.980117C2.38 0.980117 2.38 1.00012 2.37 0.990117H2.34C2.34 0.990117 2.32 0.990117 2.33 0.980117V0.510117C2.33 0.510117 2.33 0.490117 2.32 0.500117H1.9H1.87H1.47H1.44H1.04H1.01H0.609995H0.579995H0.149995C0.149995 0.500117 0.119995 0.490117 0.119995 0.470117V0.150117C0.119995 0.150117 0.129995 0.120117 0.149995 0.120117H1.36C1.36 0.120117 1.39 0.170117 1.41 0.160117C1.42 0.160117 1.43 0.150117 1.43 0.140117H1.45L2.64 0.130117C2.67 0.130117 2.69 0.140117 2.7 0.170117L2.84 0.410117V0.430117H2.83" stroke="#010101" stroke-width="0.25" stroke-miterlimit="10"/>
<path d="M50.66 0.440117H50.64V0.410117L50.78 0.160117C50.79 0.140117 50.82 0.120117 50.84 0.120117H52.05C52.05 0.120117 52.08 0.170117 52.1 0.160117C52.11 0.160117 52.12 0.150117 52.12 0.140117H52.14L53.33 0.130117C53.35 0.130117 53.36 0.140117 53.36 0.160117V0.480117C53.36 0.500117 53.35 0.510117 53.33 0.510117H52.92H52.89H52.49H52.46H52.06H52.03H51.63H51.6H51.21C51.21 0.510117 51.19 0.510117 51.19 0.520117V0.990117C51.19 0.990117 51.19 1.01012 51.17 1.00012H51.14C51.14 1.00012 51.12 1.00012 51.12 0.990117" stroke="#010101" stroke-width="0.25" stroke-miterlimit="10"/>
<path d="M26.25 1.25H50.25V1.34H26.25V1.25Z" stroke="#010101" stroke-width="0.25" stroke-miterlimit="10"/>
<path d="M4.43994 2.96021H26.0599V3.0502H4.43994V2.96021Z" stroke="#010101" stroke-width="0.25" stroke-miterlimit="10"/>
<path d="M4.43994 2.30005H26.0599V2.39005H4.43994V2.30005Z" stroke="#010101" stroke-width="0.25" stroke-miterlimit="10"/>
<path d="M24.63 1.1502H24.7C24.7 1.1502 24.72 1.1502 24.72 1.1302V0.950195H25.26V1.3602H24.63V1.1602" stroke="#010101" stroke-width="0.25" stroke-miterlimit="10"/>
<path d="M26.25 0.600098H50.25V0.690098H26.25V0.600098Z" stroke="#010101" stroke-width="0.25" stroke-miterlimit="10"/>
<path d="M25.5699 2.26015C25.7599 2.18015 25.9599 2.15015 26.1599 2.15015C26.1799 2.17015 26.1899 2.20015 26.1799 2.23015H26.2499L26.3899 2.33015V2.36015H26.3799H26.3699L26.2599 2.27015H26.1899C26.1899 2.27015 26.1499 2.25015 26.1499 2.23015V2.19015C25.9599 2.19015 25.7699 2.23015 25.5899 2.30015C25.5799 2.30015 25.5699 2.30015 25.5599 2.29015C25.5599 2.29015 25.5599 2.27015 25.5699 2.26015Z" stroke="#010101" stroke-width="0.25" stroke-miterlimit="10"/>
<path d="M4.32998 2.15015C4.52998 2.15015 4.73998 2.18015 4.91998 2.26015C4.92998 2.26015 4.92998 2.28015 4.92998 2.29015C4.92998 2.29015 4.90998 2.30015 4.89998 2.30015C4.71998 2.23015 4.52998 2.19015 4.33998 2.19015V2.23015C4.33998 2.23015 4.31998 2.27015 4.29998 2.27015H4.22998L4.11998 2.36015H4.10998H4.09998V2.33015L4.23998 2.22015H4.24998L4.30998 2.23015C4.30998 2.20015 4.30998 2.17015 4.32998 2.15015Z" stroke="#010101" stroke-width="0.25" stroke-miterlimit="10"/>
<path d="M26.98 2.3102C26.98 2.3102 26.9 2.3402 26.9 2.3802V3.0002C26.9 3.0002 26.93 3.0702 26.98 3.0702H27.11C27.11 3.0702 27.12 3.0702 27.12 3.0902C27.12 3.0902 27.12 3.1002 27.11 3.1002H26.26C26.26 3.1002 26.24 3.1002 26.24 3.0902V2.4502C26.24 2.4502 26.25 2.4202 26.27 2.4202H26.4C26.4 2.4202 26.49 2.3802 26.49 2.3302V2.1002C26.49 2.1002 26.49 2.0802 26.5 2.0902H26.83C26.83 2.0902 26.85 2.0902 26.84 2.1002C26.84 2.1502 26.87 2.1802 26.91 2.1902H27.09C27.09 2.1902 27.11 2.1902 27.1 2.2002V2.2802C27.1 2.2802 27.1 2.3002 27.09 2.2902H26.96L26.98 2.3102Z" stroke="#010101" stroke-width="0.25" stroke-miterlimit="10"/>
<path d="M3.52 2.3101H3.39C3.39 2.3101 3.37 2.3101 3.38 2.3001V2.2201C3.38 2.2201 3.38 2.2001 3.39 2.2101H3.57C3.57 2.2101 3.64 2.1801 3.64 2.1301C3.64 2.1301 3.64 2.1001 3.65 2.1001H3.98C3.98 2.1001 4 2.1001 4 2.1101V2.3301C4 2.3301 4.04 2.4201 4.09 2.4201H4.22C4.22 2.4201 4.25 2.4301 4.25 2.4501V3.0901C4.25 3.0901 4.25 3.1101 4.24 3.1001H3.39C3.39 3.1001 3.38 3.1001 3.38 3.0801C3.38 3.0801 3.38 3.0701 3.39 3.0701H3.52C3.52 3.0701 3.59 3.0401 3.6 3.0001V2.3801C3.6 2.3801 3.57 2.3101 3.52 2.3101Z" stroke="#010101" stroke-width="0.25" stroke-miterlimit="10"/>
<path d="M27.0801 2.04015H27.1201C27.1201 2.04015 27.1801 2.07015 27.1801 2.10015V2.31015C27.1801 2.31015 27.1501 2.37015 27.1201 2.37015H26.9801C26.9801 2.37015 26.9601 2.37015 26.9601 2.38015V3.00015C26.9601 3.00015 26.9601 3.02015 26.9801 3.01015H27.1201C27.1201 3.01015 27.1801 3.04015 27.1801 3.07015V3.10015C27.1801 3.10015 27.1501 3.16015 27.1201 3.16015H25.5701C25.5701 3.16015 25.5501 3.16015 25.5601 3.15015V3.09015C25.5601 3.09015 25.5601 3.07015 25.5701 3.08015H25.5901L25.6201 3.11015H26.1701C26.1701 3.11015 26.1901 3.11015 26.1901 3.10015V2.46015C26.1901 2.46015 26.2301 2.37015 26.2801 2.37015H26.4101C26.4101 2.37015 26.4401 2.36015 26.4401 2.34015V2.13015C26.4401 2.13015 26.4301 2.10015 26.4101 2.10015H26.2701C26.2701 2.10015 26.2501 2.10015 26.2501 2.11015V2.20015C26.2501 2.20015 26.2401 2.23015 26.2201 2.23015C26.2001 2.23015 26.1901 2.22015 26.1901 2.20015V2.05015C26.1901 2.05015 26.1901 2.03015 26.2001 2.04015H26.9601V2.09015H26.9201V2.14015H27.1301V2.09015H27.0901V2.04015H27.0801Z" stroke="#010101" stroke-width="0.25" stroke-miterlimit="10"/>
<path d="M4.29995 2.04003C4.29995 2.04003 4.31995 2.04003 4.31995 2.05003V2.20003C4.31995 2.20003 4.30995 2.23003 4.28995 2.23003C4.26995 2.23003 4.25995 2.22003 4.25995 2.20003V2.11003C4.25995 2.11003 4.25995 2.09003 4.24995 2.10003H4.09995C4.09995 2.10003 4.06995 2.11003 4.06995 2.13003V2.34003C4.06995 2.34003 4.07995 2.37003 4.09995 2.37003H4.22995C4.22995 2.37003 4.31995 2.41003 4.31995 2.46003V3.10003C4.31995 3.10003 4.31995 3.12003 4.32995 3.11003H4.87995L4.90995 3.08003H4.92995C4.92995 3.08003 4.94995 3.08003 4.93995 3.09003V3.15003C4.93995 3.15003 4.93995 3.17003 4.92995 3.16003H3.37995C3.37995 3.16003 3.31995 3.13003 3.31995 3.10003V3.07003C3.31995 3.07003 3.34995 3.01003 3.37995 3.01003H3.51995C3.51995 3.01003 3.53995 3.01003 3.52995 3.00003V2.38003C3.52995 2.38003 3.52995 2.36003 3.51995 2.37003H3.37995C3.37995 2.37003 3.31995 2.34003 3.31995 2.31003V2.09003C3.31995 2.09003 3.34995 2.03003 3.37995 2.03003H3.41995V2.08003H3.37995V2.13003H3.58995V2.08003H3.54995V2.03003H4.30995L4.29995 2.04003Z" stroke="#010101" stroke-width="0.25" stroke-miterlimit="10"/>
<path d="M25.59 1.18003C25.59 1.18003 25.56 1.14003 25.57 1.11003C25.57 1.11003 25.58 1.10003 25.59 1.09003V1.03003H25.64V1.09003C25.64 1.09003 25.67 1.13003 25.66 1.16003C25.66 1.16003 25.65 1.17003 25.64 1.18003V1.24003H25.59V1.18003Z" stroke="#010101" stroke-width="0.25" stroke-miterlimit="10"/>
<path d="M26.75 1.81005H26.74L26.4 1.80005C26.39 1.80005 26.38 1.81005 26.38 1.83005C26.38 1.84005 26.38 1.85005 26.4 1.85005L26.59 1.88005V1.86005H26.66L26.69 1.89005V2.02005L26.66 2.05005H26.52V2.10005" stroke="#010101" stroke-width="0.25" stroke-miterlimit="10"/>
<path d="M49.76 0.560195C49.95 0.480195 50.15 0.450195 50.35 0.450195C50.37 0.470195 50.38 0.500195 50.37 0.530195H50.44L50.58 0.630195V0.660195H50.57H50.56L50.45 0.570195H50.38C50.38 0.570195 50.34 0.550195 50.34 0.530195V0.490195C50.15 0.490195 49.96 0.530195 49.78 0.600195C49.77 0.600195 49.76 0.600195 49.75 0.590195C49.75 0.580195 49.75 0.570195 49.76 0.560195Z" stroke="#010101" stroke-width="0.25" stroke-miterlimit="10"/>
<path d="M26.15 0.450195C26.35 0.450195 26.56 0.480195 26.74 0.560195C26.75 0.560195 26.75 0.580195 26.75 0.590195C26.75 0.590195 26.73 0.600195 26.72 0.600195C26.54 0.530195 26.35 0.490195 26.16 0.490195V0.530195C26.16 0.530195 26.14 0.570195 26.12 0.570195H26.05L25.94 0.660195H25.93H25.92V0.630195L26.06 0.520195H26.07L26.13 0.530195C26.13 0.500195 26.13 0.470195 26.15 0.450195Z" stroke="#010101" stroke-width="0.25" stroke-miterlimit="10"/>
<path d="M26.12 1.72019V1.86019C26.12 1.86019 26.12 1.88019 26.14 1.87019H26.36C26.36 1.87019 26.38 1.87019 26.37 1.86019V1.83019L26.66 1.88019C26.66 1.88019 26.69 1.90019 26.68 1.91019C26.68 1.92019 26.67 1.93019 26.65 1.93019H25.14C25.14 1.93019 25.08 1.90019 25.08 1.87019V1.46019C25.08 1.46019 25.11 1.40019 25.14 1.40019H25.48C25.48 1.40019 25.5 1.40019 25.5 1.39019V0.920186C25.5 0.920186 25.5 0.900186 25.48 0.910186H25.14C25.14 0.910186 25.08 0.880186 25.08 0.850186V0.500186C25.08 0.500186 25.11 0.440186 25.14 0.440186H26.1C26.1 0.440186 26.12 0.440186 26.11 0.450186V0.490186C26.11 0.490186 26.1 0.520186 26.08 0.520186C26.06 0.520186 26.05 0.510186 26.05 0.490186H25.89C25.89 0.490186 25.86 0.500186 25.86 0.520186V0.620186C25.86 0.620186 25.87 0.650186 25.89 0.650186H26.02C26.02 0.650186 26.11 0.690186 26.11 0.740186V1.38019C26.11 1.38019 26.11 1.40019 26.13 1.39019H26.69C26.69 1.39019 26.69 1.36019 26.71 1.36019H26.73C26.73 1.36019 26.75 1.36019 26.75 1.37019V1.65019C26.75 1.65019 26.74 1.68019 26.72 1.68019H26.14C26.14 1.68019 26.12 1.68019 26.12 1.69019V1.72019Z" stroke="#010101" stroke-width="0.25" stroke-miterlimit="10"/>
</g>
<defs>
<clipPath id="clip0_1347_3108">
<rect width="53.5" height="3.47" fill="white"/>
</clipPath>
</defs>
</svg>
