<svg width="55" height="4" viewBox="0 0 55 4" fill="none" xmlns="http://www.w3.org/2000/svg">
<g clip-path="url(#clip0_1493_1482)">
<rect width="54.49" height="3.47" fill="white"/>
<path d="M26.01 3.13012V3.05012H4.94V3.16012C4.94 3.16012 4.94 3.18012 4.93 3.18012H3.69V3.29012C3.69 3.29012 3.66 3.35012 3.63 3.35012H2.61V3.10012C2.61 3.10012 2.6 3.07012 2.58 3.07012H2.46C2.46 3.07012 2.44 3.07012 2.45 3.08012V3.19012C2.45 3.19012 2.45 3.21012 2.46 3.21012H2.48V3.24012L2.45 3.29012H2.4C2.4 3.29012 2.38 3.29012 2.39 3.27012V0.980117C2.39 0.980117 2.39 1.00012 2.38 1.00012H2.35C2.35 1.00012 2.33 1.00012 2.34 0.980117V0.510117C2.34 0.510117 2.34 0.490117 2.33 0.500117H1.94L1.91 0.480117L1.88 0.500117H1.51L1.48 0.480117L1.45 0.500117H1.08L1.05 0.480117L1.02 0.500117H0.649995L0.619995 0.480117L0.589995 0.500117H0.149995C0.149995 0.500117 0.119995 0.490117 0.119995 0.470117V0.150117C0.119995 0.150117 0.129995 0.120117 0.149995 0.120117H1.36C1.36 0.120117 1.39 0.170117 1.41 0.160117C1.42 0.160117 1.43 0.150117 1.43 0.140117H1.45L2.64 0.130117C2.67 0.130117 2.69 0.140117 2.7 0.170117L2.84 0.410117V0.430117L2.83 0.440117H3.11V0.500117C3.11 0.500117 3.1 0.530117 3.08 0.530117C3.06 0.530117 3.05 0.520117 3.05 0.500117H2.89C2.89 0.500117 2.86 0.510117 2.86 0.530117V0.640117C2.86 0.640117 2.87 0.670117 2.89 0.670117H3.02C3.02 0.670117 3.11 0.710117 3.11 0.760117V0.960117H3.73V2.05012H4.28C4.28 2.05012 4.3 2.05012 4.29 2.07012V2.17012C4.5 2.17012 4.71 2.20012 4.9 2.28012L4.98 2.32012H25.9L26 2.28012C26.19 2.20012 26.4 2.16012 26.61 2.17012V2.07012C26.61 2.07012 26.61 2.05012 26.62 2.05012H27.38V2.10012H27.34V2.15012H27.55V2.10012H27.51V2.05012H27.55C27.55 2.05012 27.61 2.08012 27.61 2.11012V2.33012C27.61 2.33012 27.58 2.39012 27.55 2.39012H27.41C27.41 2.39012 27.39 2.39012 27.4 2.41012V3.03012C27.4 3.03012 27.4 3.05012 27.41 3.04012H27.55C27.55 3.04012 27.61 3.07012 27.61 3.10012V3.13012C27.61 3.13012 27.58 3.19012 27.55 3.19012H26C26 3.19012 25.98 3.19012 25.99 3.17012V3.12012V3.15012L26.01 3.13012Z" fill="white"/>
<path d="M51.7499 0.160117C51.7499 0.160117 51.7899 0.120117 51.8099 0.120117H53.0199C53.0199 0.120117 53.0499 0.170117 53.0699 0.160117C53.0799 0.160117 53.0899 0.150117 53.0899 0.140117H53.1099L54.2999 0.130117C54.3199 0.130117 54.3299 0.140117 54.3299 0.160117V0.480117C54.3299 0.480117 54.3199 0.510117 54.2999 0.510117H53.9299L53.8999 0.490117L53.8699 0.510117H53.4999L53.4699 0.490117L53.4399 0.510117H53.0699L53.0399 0.490117L53.0099 0.510117H52.6399L52.6099 0.490117L52.5799 0.510117H52.1899C52.1899 0.510117 52.1699 0.510117 52.1799 0.520117V0.990117C52.1799 0.990117 52.1799 1.01012 52.1699 1.01012H52.1399C52.1399 1.01012 52.1199 1.01012 52.1299 0.990117V3.27012C52.1299 3.27012 52.1299 3.29012 52.1199 3.29012H52.0699L52.0399 3.24012V3.21012H52.0599C52.0599 3.21012 52.0799 3.21012 52.0699 3.19012V3.08012C52.0699 3.08012 52.0699 3.06012 52.0599 3.06012H51.9399C51.9399 3.06012 51.9099 3.07012 51.9099 3.09012V3.34012H50.8899C50.8899 3.34012 50.8299 3.31012 50.8299 3.28012V3.20012C50.8299 3.20012 50.8399 3.17012 50.8599 3.17012H50.9799L51.4899 3.18012L51.5599 3.14012H51.5799V3.18012H51.6199C51.6199 3.18012 51.6999 3.14012 51.6999 3.10012V2.01012C51.6999 2.01012 51.6599 1.93012 51.6199 1.93012H51.5799V1.97012H51.5599L51.4899 1.93012H50.7999C50.7999 1.93012 50.7699 1.92012 50.7699 1.90012V1.39012V1.34012H27.2499V1.67012C27.2499 1.67012 27.2399 1.70012 27.2199 1.70012H26.6399C26.6399 1.70012 26.6199 1.70012 26.6299 1.71012V1.85012C26.6299 1.85012 26.6299 1.87012 26.6399 1.87012H26.8599C26.8599 1.87012 26.8799 1.87012 26.8699 1.85012V1.82012H26.8899V1.92012H25.6499C25.6499 1.92012 25.5899 1.89012 25.5899 1.86012V1.45012H25.0599V0.930117H25.5899V0.480117C25.5899 0.480117 25.6199 0.420117 25.6499 0.420117H26.6099C26.8299 0.420117 27.0399 0.460117 27.2399 0.540117L27.3299 0.580117H50.6899L50.7699 0.540117C50.9599 0.460117 51.1699 0.420117 51.3799 0.420117H51.6599H51.6499V0.390117L51.7899 0.150117L51.7499 0.160117Z" fill="white"/>
<path d="M3.24003 1.47021H3.68003C3.68003 1.47021 3.70003 1.47021 3.69003 1.49021V1.87021C3.69003 1.87021 3.69003 1.89021 3.68003 1.89021H3.25003L3.16003 1.59021V1.57021C3.16003 1.57021 3.22003 1.53021 3.22003 1.49021H3.23003L3.24003 1.47021Z" stroke="#010101" stroke-width="0.25" stroke-miterlimit="10"/>
<path d="M4.43994 2.96021H26.5199V3.0502H4.43994V2.96021Z" stroke="#010101" stroke-width="0.25" stroke-miterlimit="10"/>
<path d="M4.43994 2.30005H26.5199V2.39005H4.43994V2.30005Z" stroke="#010101" stroke-width="0.25" stroke-miterlimit="10"/>
<path d="M2.37 0.980117C2.37 0.980117 2.37 1.00012 2.36 1.00012H2.33C2.33 1.00012 2.31 1.00012 2.32 0.980117V0.510117C2.32 0.510117 2.32 0.490117 2.31 0.500117H1.92L1.89 0.480117L1.86 0.500117H1.49L1.46 0.480117L1.43 0.500117H1.06L1.03 0.480117L0.999995 0.500117H0.629995L0.599995 0.480117L0.569995 0.500117H0.149995C0.149995 0.500117 0.119995 0.490117 0.119995 0.470117V0.150117C0.119995 0.150117 0.129995 0.120117 0.149995 0.120117H1.36C1.36 0.120117 1.39 0.170117 1.41 0.160117C1.42 0.160117 1.43 0.150117 1.43 0.140117H1.45L2.64 0.130117C2.67 0.130117 2.69 0.140117 2.7 0.170117L2.84 0.410117V0.430117H2.83" stroke="#010101" stroke-width="0.25" stroke-miterlimit="10"/>
<path d="M2.43998 0.510195L2.46998 0.560195V0.580195H2.44998C2.44998 0.580195 2.42998 0.580195 2.43998 0.600195V0.710195C2.43998 0.710195 2.43998 0.730195 2.44998 0.730195H2.56998C2.56998 0.730195 2.59998 0.720195 2.59998 0.700195V0.450195H3.11998V0.510195C3.11998 0.510195 3.10998 0.540195 3.08998 0.540195C3.06998 0.540195 3.05998 0.530195 3.05998 0.510195H2.89998C2.89998 0.510195 2.86998 0.520195 2.86998 0.540195V0.650195C2.86998 0.650195 2.87998 0.680195 2.89998 0.680195H3.02998C3.02998 0.680195 3.11998 0.720195 3.11998 0.770195V0.900195C3.11998 0.900195 3.10998 0.930195 3.08998 0.930195H3.02998C3.02998 0.930195 2.99998 0.940195 2.99998 0.960195V1.4702C2.99998 1.4702 3.02998 1.5302 3.05998 1.5302H3.12998C3.12998 1.5302 3.15998 1.5202 3.15998 1.5002L3.11998 1.4502V1.4302H3.68998C3.68998 1.4302 3.68998 1.4002 3.69998 1.4002H3.71998C3.71998 1.4002 3.73998 1.4002 3.72998 1.4202V1.9302C3.72998 1.9302 3.71998 1.9602 3.69998 1.9602H3.00998L2.93998 2.0002H2.91998V1.9602H2.87998C2.87998 1.9602 2.79998 2.0002 2.79998 2.0402V3.1302C2.79998 3.1302 2.83998 3.2102 2.87998 3.2102H2.91998V3.1702H2.93998L3.00998 3.2102H3.52998L3.62998 3.2002C3.64998 3.2002 3.65998 3.2102 3.65998 3.2302V3.3102C3.65998 3.3102 3.62998 3.3702 3.59998 3.3702H2.57998V3.1202C2.57998 3.1202 2.56998 3.0902 2.54998 3.0902H2.42998C2.42998 3.0902 2.40998 3.0902 2.41998 3.1002V3.2102C2.41998 3.2102 2.41998 3.2302 2.42998 3.2302H2.44998V3.2602L2.41998 3.3102H2.36998C2.36998 3.3102 2.34998 3.3102 2.35998 3.2902V0.520195L2.41998 0.500195L2.43998 0.510195Z" stroke="#010101" stroke-width="0.25" stroke-miterlimit="10"/>
<path d="M3.62994 3.25022V3.27022C3.62994 3.27022 3.62994 3.29022 3.61994 3.29022H2.95994C2.95994 3.29022 2.93994 3.29022 2.94994 3.27022L2.95994 3.24022H2.98994L3.00994 3.23022H3.01994L3.04994 3.24022H3.58994L3.62994 3.23022C3.62994 3.23022 3.64994 3.23022 3.63994 3.25022H3.62994Z" stroke="#010101" stroke-width="0.25" stroke-miterlimit="10"/>
<path d="M2.75006 2.3801V3.1101C2.75006 3.1901 2.81006 3.2501 2.89006 3.2501C2.89006 3.2501 2.91006 3.2501 2.90006 3.2701C2.90006 3.2701 2.90006 3.3001 2.89006 3.2901H2.67006C2.67006 3.2901 2.65006 3.2901 2.66006 3.2701V3.0901C2.66006 3.0901 2.62006 3.0001 2.57006 3.0001H2.45006C2.45006 3.0001 2.43006 3.0001 2.44006 2.9801V2.3701C2.44006 2.3701 2.44006 2.3501 2.45006 2.3501H2.74006C2.74006 2.3501 2.76006 2.3501 2.75006 2.3701V2.3801Z" stroke="#010101" stroke-width="0.25" stroke-miterlimit="10"/>
<path d="M2.57006 0.780114C2.57006 0.780114 2.66006 0.740114 2.66006 0.690114V0.510114C2.66006 0.510114 2.66006 0.490114 2.67006 0.500114H2.79006C2.79006 0.500114 2.81006 0.500114 2.80006 0.510114V0.630114C2.80006 0.630114 2.84006 0.720114 2.89006 0.720114H3.02006C3.02006 0.720114 3.05006 0.730114 3.05006 0.750114V0.830114C3.05006 0.830114 3.05006 0.850114 3.04006 0.850114H3.02006C3.02006 0.850114 2.93006 0.890114 2.93006 0.940114V1.30011C2.93006 1.30011 2.93006 1.32011 2.92006 1.32011H2.45006C2.45006 1.32011 2.43006 1.32011 2.44006 1.30011V0.790114C2.44006 0.790114 2.44006 0.770114 2.45006 0.770114H2.57006V0.780114Z" stroke="#010101" stroke-width="0.25" stroke-miterlimit="10"/>
<path d="M4.53002 2.92015H4.80002V2.84015H4.82002V2.91015C4.82002 2.91015 4.81002 2.93015 4.80002 2.93015H4.54002C4.54002 2.93015 4.52002 2.92015 4.52002 2.91015V2.43015C4.52002 2.43015 4.53002 2.40015 4.54002 2.40015H4.80002C4.80002 2.40015 4.82002 2.41015 4.82002 2.43015V2.50015H4.80002V2.43015H4.53002V2.92015Z" stroke="#010101" stroke-width="0.25" stroke-miterlimit="10"/>
<path d="M4.53003 2.44019C4.53003 2.44019 4.57003 2.45019 4.57003 2.47019V2.88019C4.57003 2.88019 4.55003 2.91019 4.53003 2.91019" stroke="#010101" stroke-width="0.25" stroke-miterlimit="10"/>
<path d="M3.52 2.32009H3.39C3.39 2.32009 3.37 2.32009 3.38 2.30009V2.21009C3.38 2.21009 3.38 2.19009 3.39 2.20009H3.57C3.57 2.20009 3.64 2.17009 3.64 2.12009C3.64 2.12009 3.64 2.09009 3.65 2.09009H3.98C3.98 2.09009 4 2.09009 3.99 2.11009V2.34009C3.99 2.34009 4.03 2.43009 4.08 2.43009H4.21C4.21 2.43009 4.24 2.44009 4.24 2.46009V3.10009C4.24 3.10009 4.24 3.12009 4.23 3.12009H3.38C3.38 3.12009 3.37 3.12009 3.37 3.10009C3.37 3.10009 3.37 3.09009 3.38 3.09009H3.51C3.51 3.09009 3.58 3.06009 3.58 3.01009V2.39009C3.58 2.39009 3.55 2.31009 3.51 2.31009" stroke="#010101" stroke-width="0.25" stroke-miterlimit="10"/>
<path d="M4.32998 2.15015C4.52998 2.15015 4.72998 2.18015 4.91998 2.26015C4.92998 2.26015 4.92998 2.28015 4.92998 2.29015C4.92998 2.29015 4.90998 2.30015 4.89998 2.30015C4.71998 2.23015 4.52998 2.19015 4.33998 2.19015V2.23015C4.33998 2.23015 4.31998 2.27015 4.29998 2.27015H4.22998L4.11998 2.36015H4.10998H4.09998V2.33015L4.23998 2.22015V2.24015H4.30998C4.30998 2.24015 4.30998 2.18015 4.32998 2.16015" stroke="#010101" stroke-width="0.25" stroke-miterlimit="10"/>
<path d="M3.64001 1.17015V1.15015" stroke="#010101" stroke-width="0.25" stroke-miterlimit="10"/>
<path d="M3.64001 1.17021V1.37021H3.01001V0.960205H3.55001V1.14021C3.55001 1.14021 3.55001 1.16021 3.57001 1.16021H3.64001" stroke="#010101" stroke-width="0.25" stroke-miterlimit="10"/>
<path d="M26.71 0.600098H51.24V0.690098H26.71V0.600098Z" stroke="#010101" stroke-width="0.25" stroke-miterlimit="10"/>
<path d="M26.71 1.25H51.24V1.34H26.71V1.25Z" stroke="#010101" stroke-width="0.25" stroke-miterlimit="10"/>
<path d="M25.1 1.1502H25.17C25.17 1.1502 25.19 1.1502 25.19 1.1302V0.950195H25.73V1.3602H25.1V1.1602" stroke="#010101" stroke-width="0.25" stroke-miterlimit="10"/>
<path d="M25.1 1.17015V1.15015" stroke="#010101" stroke-width="0.25" stroke-miterlimit="10"/>
<path d="M26.03 2.26015C26.22 2.18015 26.42 2.15015 26.62 2.15015C26.64 2.17015 26.65 2.20015 26.64 2.23015H26.69L26.7 2.22015L26.84 2.33015V2.36015H26.83H26.82L26.71 2.27015H26.64C26.64 2.27015 26.6 2.25015 26.6 2.23015V2.19015C26.41 2.19015 26.22 2.23015 26.04 2.30015C26.03 2.30015 26.02 2.30015 26.01 2.29015C26.01 2.28015 26.01 2.27015 26.02 2.26015" stroke="#010101" stroke-width="0.25" stroke-miterlimit="10"/>
<path d="M27.44 2.3201C27.44 2.3201 27.37 2.3501 27.37 2.4001V3.0201C27.37 3.0201 27.4 3.0901 27.44 3.1001H27.57C27.57 3.1001 27.59 3.1001 27.59 3.1201C27.59 3.1401 27.59 3.1401 27.57 3.1301H26.72C26.72 3.1301 26.7 3.1301 26.71 3.1101V2.4701C26.71 2.4701 26.72 2.4401 26.74 2.4401H26.87C26.87 2.4401 26.96 2.4001 26.96 2.3501V2.1201C26.96 2.1201 26.96 2.1001 26.97 2.1001H27.3C27.3 2.1001 27.32 2.1001 27.31 2.1201C27.31 2.1701 27.34 2.2101 27.38 2.2101H27.56C27.56 2.2101 27.58 2.2101 27.57 2.2301V2.3201C27.57 2.3201 27.57 2.3401 27.56 2.3401H27.43L27.44 2.3201Z" stroke="#010101" stroke-width="0.25" stroke-miterlimit="10"/>
<path d="M27.55 2.04002H27.59C27.59 2.04002 27.65 2.07002 27.65 2.10002V2.32002C27.65 2.32002 27.62 2.38002 27.59 2.38002H27.45C27.45 2.38002 27.43 2.38002 27.43 2.40002V3.02002C27.43 3.02002 27.43 3.04002 27.45 3.03002H27.59C27.59 3.03002 27.65 3.06002 27.65 3.09002V3.12002C27.65 3.12002 27.62 3.18002 27.59 3.18002H26.04C26.04 3.18002 26.02 3.18002 26.03 3.16002V3.11002C26.03 3.11002 26.03 3.09002 26.04 3.09002H26.06L26.09 3.11002H26.64C26.64 3.11002 26.66 3.11002 26.65 3.09002V2.45002C26.65 2.45002 26.69 2.36002 26.74 2.36002H26.87C26.87 2.36002 26.9 2.35002 26.9 2.33002V2.12002C26.9 2.12002 26.89 2.09002 26.87 2.09002H26.73C26.73 2.09002 26.71 2.09002 26.72 2.10002V2.19002C26.72 2.19002 26.71 2.22002 26.69 2.22002C26.67 2.22002 26.66 2.21002 26.66 2.19002V2.04002C26.66 2.04002 26.66 2.02002 26.67 2.02002H27.43V2.07002H27.39V2.12002H27.6V2.07002H27.56V2.02002L27.55 2.04002Z" stroke="#010101" stroke-width="0.25" stroke-miterlimit="10"/>
<path d="M27.21 1.81004V1.79004H26.86C26.86 1.79004 26.84 1.80004 26.84 1.82004C26.84 1.83004 26.84 1.84004 26.86 1.84004L27.05 1.87004V1.85004H27.12L27.15 1.88004V2.01004L27.12 2.04004H26.98V2.09004" stroke="#010101" stroke-width="0.25" stroke-miterlimit="10"/>
<path d="M26.61 0.450195C26.81 0.450195 27.01 0.480195 27.2 0.560195C27.21 0.560195 27.21 0.580195 27.21 0.590195C27.21 0.590195 27.19 0.600195 27.18 0.600195C27 0.530195 26.81 0.490195 26.62 0.490195V0.530195C26.62 0.530195 26.6 0.570195 26.58 0.570195H26.51L26.4 0.660195H26.39H26.38V0.630195L26.52 0.520195H26.53L26.58 0.530195C26.58 0.500195 26.58 0.470195 26.6 0.450195" stroke="#010101" stroke-width="0.25" stroke-miterlimit="10"/>
<path d="M26.59 1.72017V1.86017C26.59 1.86017 26.59 1.88017 26.6 1.88017H26.82C26.82 1.88017 26.84 1.88017 26.83 1.86017V1.83017L27.12 1.88017C27.12 1.88017 27.15 1.90017 27.14 1.91017C27.14 1.92017 27.13 1.93017 27.11 1.93017H25.6C25.6 1.93017 25.54 1.90017 25.54 1.87017V1.46017C25.54 1.46017 25.57 1.40017 25.6 1.40017H25.94C25.94 1.40017 25.96 1.40017 25.95 1.38017V0.910166C25.95 0.910166 25.95 0.890166 25.94 0.890166H25.6C25.6 0.890166 25.54 0.860166 25.54 0.830166V0.480166C25.54 0.480166 25.57 0.420166 25.6 0.420166H26.56C26.56 0.420166 26.58 0.420166 26.57 0.440166V0.490166C26.57 0.490166 26.56 0.520166 26.54 0.520166C26.52 0.520166 26.51 0.510166 26.51 0.490166H26.35C26.35 0.490166 26.32 0.500166 26.32 0.520166V0.630166C26.32 0.630166 26.33 0.660166 26.35 0.660166H26.48C26.48 0.660166 26.57 0.700166 26.57 0.750166V1.39017C26.57 1.39017 26.57 1.41017 26.58 1.41017H27.14C27.14 1.41017 27.14 1.38017 27.15 1.38017H27.17C27.17 1.38017 27.19 1.38017 27.18 1.40017V1.68017C27.18 1.68017 27.17 1.71017 27.15 1.71017H26.57C26.57 1.71017 26.55 1.71017 26.56 1.72017H26.59Z" stroke="#010101" stroke-width="0.25" stroke-miterlimit="10"/>
<path d="M26.45 1.04004H26.5V1.10004C26.5 1.10004 26.53 1.14004 26.52 1.17004C26.52 1.17004 26.51 1.18004 26.5 1.19004V1.25004H26.45V1.19004C26.45 1.19004 26.42 1.15004 26.43 1.12004C26.43 1.12004 26.44 1.11004 26.45 1.10004V1.04004Z" stroke="#010101" stroke-width="0.25" stroke-miterlimit="10"/>
<path d="M26.05 1.18003C26.05 1.18003 26.02 1.14003 26.03 1.11003C26.03 1.11003 26.04 1.10003 26.05 1.09003V1.03003H26.1V1.09003C26.1 1.09003 26.13 1.13003 26.12 1.16003C26.12 1.16003 26.11 1.17003 26.1 1.18003V1.24003H26.05V1.18003Z" stroke="#010101" stroke-width="0.25" stroke-miterlimit="10"/>
<path d="M26.62 1.49021C26.62 1.49021 26.62 1.47021 26.63 1.47021H27.13C27.13 1.47021 27.15 1.47021 27.14 1.49021V1.64021C27.14 1.64021 27.14 1.66021 27.13 1.65021H26.63C26.63 1.65021 26.61 1.65021 26.62 1.64021V1.49021Z" stroke="#010101" stroke-width="0.25" stroke-miterlimit="10"/>
<path d="M25.61 1.4901C25.61 1.4901 25.61 1.4701 25.62 1.4701H25.96C25.96 1.4701 26.02 1.4401 26.02 1.4101V1.3001C26.02 1.3001 26.02 1.2801 26.03 1.2801H26.09C26.09 1.2801 26.14 1.2601 26.14 1.2301V1.2001C26.14 1.2001 26.17 1.1001 26.14 1.0601V1.0301C26.14 1.0301 26.12 0.970105 26.09 0.970105H26.03C26.03 0.970105 26.01 0.970105 26.01 0.950105V0.900105C26.01 0.900105 25.98 0.840105 25.95 0.840105H25.61C25.61 0.840105 25.59 0.840105 25.6 0.820105V0.500105C25.6 0.500105 25.6 0.480105 25.61 0.490105H26.24C26.24 0.490105 26.26 0.490105 26.25 0.500105V0.620105C26.25 0.620105 26.29 0.710105 26.34 0.710105H26.47C26.47 0.710105 26.5 0.720105 26.5 0.740105V0.950105C26.5 0.950105 26.5 0.970105 26.49 0.970105H26.43C26.43 0.970105 26.38 0.990105 26.38 1.0201V1.0501C26.38 1.0501 26.35 1.1501 26.38 1.1901V1.2201C26.38 1.2201 26.4 1.2701 26.43 1.2701H26.49C26.49 1.2701 26.51 1.2701 26.51 1.2901V1.4001C26.51 1.4001 26.53 1.4501 26.56 1.4601H26.57V1.6301H26.56C26.56 1.6301 26.51 1.6701 26.51 1.7001V1.8601C26.51 1.8601 26.51 1.8801 26.5 1.8801H25.62C25.62 1.8801 25.6 1.8801 25.61 1.8601V1.4801V1.4901Z" stroke="#010101" stroke-width="0.25" stroke-miterlimit="10"/>
<path d="M26.8099 0.740234C26.8099 0.740234 26.8499 0.750234 26.8499 0.770234V1.18023C26.8499 1.18023 26.8299 1.21023 26.8099 1.21023" stroke="#010101" stroke-width="0.25" stroke-miterlimit="10"/>
<path d="M26.81 1.22021H27.08V1.14021H27.1V1.21021C27.1 1.21021 27.09 1.23021 27.08 1.23021H26.82C26.82 1.23021 26.8 1.22021 26.8 1.21021V0.730205C26.8 0.730205 26.81 0.710205 26.82 0.710205H27.08C27.08 0.710205 27.1 0.720205 27.1 0.730205V0.800205H27.08V0.730205H26.81V1.22021Z" stroke="#010101" stroke-width="0.25" stroke-miterlimit="10"/>
<path d="M26.43 2.9202C26.43 2.9202 26.39 2.9102 26.39 2.8902V2.4802C26.39 2.4802 26.41 2.4502 26.43 2.4502" stroke="#010101" stroke-width="0.25" stroke-miterlimit="10"/>
<path d="M51.65 0.440117H51.64V0.410117L51.78 0.160117C51.79 0.140117 51.82 0.120117 51.84 0.120117H53.05C53.05 0.120117 53.08 0.170117 53.1 0.160117C53.11 0.160117 53.12 0.150117 53.12 0.140117H53.14L54.33 0.130117C54.35 0.130117 54.36 0.140117 54.36 0.160117V0.480117C54.36 0.480117 54.35 0.510117 54.33 0.510117H53.96L53.93 0.490117L53.9 0.510117H53.53L53.5 0.490117L53.47 0.510117H53.1L53.07 0.490117L53.04 0.510117H52.67L52.64 0.490117L52.61 0.510117H52.22C52.22 0.510117 52.2 0.510117 52.21 0.520117V0.990117C52.21 0.990117 52.21 1.01012 52.2 1.01012H52.17C52.17 1.01012 52.15 1.01012 52.16 0.990117" stroke="#010101" stroke-width="0.25" stroke-miterlimit="10"/>
<path d="M52.12 0.520156V3.26016C52.12 3.26016 52.12 3.28016 52.11 3.28016H52.06L52.03 3.23016V3.20016H52.05C52.05 3.20016 52.07 3.20016 52.06 3.18016V3.07016C52.06 3.07016 52.06 3.05016 52.05 3.05016H51.93C51.93 3.05016 51.9 3.06016 51.9 3.08016V3.33016H50.88C50.88 3.33016 50.82 3.30016 50.82 3.27016V3.19016C50.82 3.19016 50.83 3.16016 50.85 3.16016H50.97L51.48 3.17016L51.55 3.13016H51.57V3.17016H51.61C51.61 3.17016 51.69 3.13016 51.69 3.09016V2.00016C51.69 2.00016 51.65 1.92016 51.61 1.92016H51.57V1.96016H51.55L51.48 1.92016H50.79C50.79 1.92016 50.76 1.91016 50.76 1.89016V1.38016C50.76 1.38016 50.76 1.36016 50.77 1.36016H50.79C50.79 1.36016 50.81 1.36016 50.8 1.38016H51.37V1.41016L51.33 1.46016C51.33 1.46016 51.34 1.49016 51.36 1.49016H51.43C51.43 1.49016 51.49 1.46016 51.49 1.43016V0.920156C51.49 0.920156 51.48 0.890156 51.46 0.890156H51.4C51.4 0.890156 51.37 0.880156 51.37 0.860156V0.730156C51.37 0.730156 51.41 0.640156 51.46 0.640156H51.59C51.59 0.640156 51.62 0.630156 51.62 0.610156V0.500156C51.62 0.500156 51.61 0.470156 51.59 0.470156H51.43C51.43 0.470156 51.42 0.500156 51.4 0.500156C51.38 0.500156 51.37 0.490156 51.37 0.470156V0.410156H51.89V0.660156C51.89 0.660156 51.9 0.690156 51.92 0.690156H52.04C52.04 0.690156 52.06 0.690156 52.05 0.670156V0.560156C52.05 0.560156 52.05 0.540156 52.04 0.540156H52.02V0.520156L52.05 0.470156L52.11 0.490156L52.12 0.520156Z" stroke="#010101" stroke-width="0.25" stroke-miterlimit="10"/>
<path d="M51.25 1.47021H51.26C51.26 1.47021 51.28 1.5502 51.32 1.5602V1.58021L51.2401 1.87021H51.23L50.82 1.88021C50.82 1.88021 50.8001 1.88021 50.8101 1.86021V1.48021C50.8101 1.48021 50.81 1.46021 50.82 1.46021H51.26L51.25 1.47021Z" stroke="#010101" stroke-width="0.25" stroke-miterlimit="10"/>
<path d="M51.74 2.38011C51.74 2.38011 51.74 2.36011 51.76 2.36011H52.05C52.05 2.36011 52.07 2.36011 52.06 2.38011V2.99011C52.06 2.99011 52.06 3.01011 52.05 3.01011H51.93C51.93 3.01011 51.84 3.05011 51.84 3.10011V3.28011C51.84 3.28011 51.84 3.30011 51.83 3.30011H51.61C51.61 3.30011 51.59 3.30011 51.6 3.28011C51.6 3.28011 51.6 3.25011 51.61 3.26011C51.69 3.26011 51.75 3.20011 51.75 3.12011V2.39011L51.74 2.38011Z" stroke="#010101" stroke-width="0.25" stroke-miterlimit="10"/>
<path d="M51.57 1.3501H52.04C52.04 1.3501 52.06 1.3501 52.05 1.3601V2.3101C52.05 2.3101 52.05 2.3301 52.04 2.3301H51.75C51.75 2.3301 51.73 2.3301 51.73 2.3101V2.0201C51.73 1.9401 51.67 1.8801 51.59 1.8801H51.55L51.51 1.8901H51.49H51.48H51.45H51.28H51.27V1.8701L51.36 1.5901H51.37L51.42 1.5801C51.49 1.5801 51.54 1.5301 51.54 1.4601V1.3701C51.54 1.3701 51.54 1.3501 51.55 1.3601L51.57 1.3501Z" stroke="#010101" stroke-width="0.25" stroke-miterlimit="10"/>
<path d="M51.9201 0.780124H52.0401C52.0401 0.780124 52.0601 0.780124 52.0501 0.800124V1.31012C52.0501 1.31012 52.0501 1.33012 52.0401 1.33012H51.5701C51.5701 1.33012 51.5501 1.33012 51.5601 1.31012V0.950124C51.5601 0.950124 51.5201 0.860124 51.4701 0.860124H51.4501C51.4501 0.860124 51.4301 0.860124 51.4401 0.840124V0.760124C51.4401 0.760124 51.4501 0.730124 51.4701 0.730124H51.6001C51.6001 0.730124 51.6901 0.690124 51.6901 0.640124V0.520124C51.6901 0.520124 51.6901 0.500124 51.7001 0.510124H51.8201C51.8201 0.510124 51.8401 0.510124 51.8301 0.520124V0.700124C51.8301 0.700124 51.8701 0.790124 51.9201 0.790124" stroke="#010101" stroke-width="0.25" stroke-miterlimit="10"/>
<path d="M50.86 0.800205H50.84V0.730205C50.84 0.730205 50.85 0.710205 50.86 0.710205H51.12C51.12 0.710205 51.14 0.720205 51.14 0.730205V1.21021C51.14 1.21021 51.13 1.23021 51.12 1.23021H50.86C50.86 1.23021 50.84 1.22021 50.84 1.21021V1.14021H50.86V1.21021H51.13V0.720205H50.86V0.800205Z" stroke="#010101" stroke-width="0.25" stroke-miterlimit="10"/>
<path d="M51.14 1.22C51.14 1.22 51.1 1.21 51.1 1.19V0.78C51.1 0.78 51.12 0.75 51.14 0.75" stroke="#010101" stroke-width="0.25" stroke-miterlimit="10"/>
<path d="M50.75 0.560195C50.94 0.480195 51.14 0.450195 51.34 0.450195C51.36 0.470195 51.37 0.500195 51.36 0.530195H51.41L51.42 0.510195L51.56 0.620195V0.650195H51.55H51.54L51.43 0.560195H51.36C51.36 0.560195 51.32 0.540195 51.32 0.520195V0.480195C51.13 0.480195 50.94 0.520195 50.76 0.590195C50.75 0.590195 50.74 0.590195 50.73 0.580195C50.73 0.570195 50.73 0.560195 50.74 0.550195" stroke="#010101" stroke-width="0.25" stroke-miterlimit="10"/>
<path d="M26.15 2.51016H26.13V2.44016C26.13 2.44016 26.14 2.41016 26.15 2.41016H26.41C26.41 2.41016 26.43 2.42016 26.43 2.43016V2.91016C26.43 2.91016 26.42 2.93016 26.41 2.93016H26.15C26.15 2.93016 26.13 2.92016 26.13 2.91016V2.84016H26.15V2.91016H26.42V2.42016H26.15V2.50016V2.51016Z" stroke="#010101" stroke-width="0.25" stroke-miterlimit="10"/>
<path d="M50.86 3.25022C50.86 3.25022 50.86 3.23022 50.87 3.23022H50.94L51.45 3.24022H51.48L51.49 3.23022H51.51L51.54 3.24022H51.55V3.27022C51.55 3.27022 51.55 3.29022 51.54 3.29022H50.88C50.88 3.29022 50.86 3.29022 50.87 3.27022V3.25022H50.86Z" stroke="#010101" stroke-width="0.25" stroke-miterlimit="10"/>
<path d="M2.92005 1.35021C2.92005 1.35021 2.94005 1.35021 2.93005 1.36021V1.45021C2.93005 1.52021 2.98005 1.57021 3.05005 1.57021H3.10005L3.11005 1.58021L3.20005 1.86021L3.19005 1.88021H2.99005L2.98005 1.89021H2.96005L2.92005 1.88021H2.88005C2.80005 1.88021 2.74005 1.94021 2.74005 2.02021V2.31021C2.74005 2.31021 2.74005 2.33021 2.73005 2.33021H2.44005C2.44005 2.33021 2.42005 2.33021 2.43005 2.31021V1.36021C2.43005 1.36021 2.43005 1.34021 2.44005 1.35021H2.91005H2.92005Z" stroke="#010101" stroke-width="0.25" stroke-miterlimit="10"/>
<path d="M4.29995 2.04004C4.29995 2.04004 4.31995 2.04004 4.30995 2.06004V2.21004C4.30995 2.21004 4.29995 2.24004 4.27995 2.24004C4.25995 2.24004 4.24995 2.23004 4.24995 2.21004V2.12004C4.24995 2.12004 4.24995 2.10004 4.23995 2.10004H4.09995C4.09995 2.10004 4.06995 2.11004 4.06995 2.13004V2.34004C4.06995 2.34004 4.07995 2.37004 4.09995 2.37004H4.22995C4.22995 2.37004 4.31995 2.41004 4.31995 2.46004V3.10004C4.31995 3.10004 4.31995 3.12004 4.32995 3.12004H4.87995L4.90995 3.10004H4.92995C4.92995 3.10004 4.94995 3.10004 4.93995 3.12004V3.17004C4.93995 3.17004 4.93995 3.19004 4.92995 3.19004H3.37995C3.37995 3.19004 3.31995 3.16004 3.31995 3.13004V3.10004C3.31995 3.10004 3.34995 3.04004 3.37995 3.04004H3.51995C3.51995 3.04004 3.53995 3.04004 3.52995 3.03004V2.41004C3.52995 2.41004 3.52995 2.39004 3.51995 2.39004H3.37995C3.37995 2.39004 3.31995 2.36004 3.31995 2.33004V2.11004C3.31995 2.11004 3.34995 2.05004 3.37995 2.05004H3.41995V2.10004H3.37995V2.15004H3.58995V2.10004H3.54995V2.05004H4.30995L4.29995 2.04004Z" stroke="#010101" stroke-width="0.25" stroke-miterlimit="10"/>
</g>
<defs>
<clipPath id="clip0_1493_1482">
<rect width="54.49" height="3.47" fill="white"/>
</clipPath>
</defs>
</svg>
