<svg width="47" height="4" viewBox="0 0 47 4" fill="none" xmlns="http://www.w3.org/2000/svg">
<g clip-path="url(#clip0_1500_2)">
<rect width="46.28" height="3.87" fill="white"/>
<path d="M8.60003 3.69004C8.71048 3.69004 8.80002 3.6005 8.80002 3.49004C8.80002 3.37958 8.71048 3.29004 8.60003 3.29004C8.48957 3.29004 8.40002 3.37958 8.40002 3.49004C8.40002 3.6005 8.48957 3.69004 8.60003 3.69004Z" fill="white"/>
<path d="M37.68 3.69004C37.7904 3.69004 37.88 3.6005 37.88 3.49004C37.88 3.37958 37.7904 3.29004 37.68 3.29004C37.5695 3.29004 37.48 3.37958 37.48 3.49004C37.48 3.6005 37.5695 3.69004 37.68 3.69004Z" fill="white"/>
<path d="M30.4101 3.69004C30.5205 3.69004 30.6101 3.6005 30.6101 3.49004C30.6101 3.37958 30.5205 3.29004 30.4101 3.29004C30.2996 3.29004 30.2101 3.37958 30.2101 3.49004C30.2101 3.6005 30.2996 3.69004 30.4101 3.69004Z" fill="white"/>
<path d="M23.1401 3.69004C23.2505 3.69004 23.3401 3.6005 23.3401 3.49004C23.3401 3.37958 23.2505 3.29004 23.1401 3.29004C23.0296 3.29004 22.9401 3.37958 22.9401 3.49004C22.9401 3.6005 23.0296 3.69004 23.1401 3.69004Z" fill="white"/>
<path d="M15.8801 3.69004C15.9905 3.69004 16.0801 3.6005 16.0801 3.49004C16.0801 3.37958 15.9905 3.29004 15.8801 3.29004C15.7696 3.29004 15.6801 3.37958 15.6801 3.49004C15.6801 3.6005 15.7696 3.69004 15.8801 3.69004Z" fill="white"/>
<path d="M12.84 1.46009H12.86V1.34009H12.48V1.45009H12.5L12.83 1.46009H12.84Z" fill="white"/>
<path d="M23.67 3.22988C23.67 3.22988 23.67 3.22988 23.66 3.22988H22.63C22.63 3.22988 22.62 3.22988 22.62 3.21988V3.15988C22.62 3.15988 22.62 3.14988 22.6 3.14988H22.56C22.56 3.14988 22.54 3.14988 22.54 3.15988V3.17988H22.51L22.39 3.10988V3.08988C22.39 3.08988 22.39 3.07988 22.41 3.07988H22.48L22.5 3.09988H22.52L22.57 3.07988H22.62C22.62 3.07988 22.64 3.07988 22.64 3.06988V2.70988C22.64 2.70988 22.66 2.63988 22.7 2.62988H22.72H22.21C22.21 2.62988 22.19 2.62988 22.19 2.60988V2.44988H22.05V2.55988H22.07V2.60988C22.07 2.60988 22.07 2.62988 22.05 2.62988H22.03C22.03 2.62988 22.01 2.62988 22.01 2.60988V2.42988C22.01 2.42988 22.01 2.40988 22.03 2.40988H22.1V2.24988C22.1 2.24988 22.1 2.22988 22.12 2.22988H22.53C22.53 2.22988 22.51 2.20988 22.52 2.19988V2.17988L22.58 2.06988H22.59H22.62H22.64V2.09988L22.62 2.11988V2.14988H23.18C23.18 2.14988 23.19 2.14988 23.19 2.15988C23.19 2.15988 23.19 2.17988 23.2 2.17988H23.25C23.25 2.17988 23.27 2.17988 23.27 2.16988V2.03988C23.27 2.03988 23.25 2.03988 23.25 2.02988V1.98988C23.25 1.98988 23.25 1.97988 23.27 1.97988H24.29C24.29 1.97988 24.32 1.98988 24.32 2.00988V2.16988C24.32 2.16988 24.32 2.17988 24.3 2.17988H24.28C24.28 2.17988 24.26 2.17988 24.26 2.16988H24.14V2.22988H43.46V2.16988H43.34C43.34 2.16988 43.34 2.18988 43.33 2.18988H43.31C43.31 2.18988 43.3 2.18988 43.3 2.17988V2.01988C43.3 2.01988 43.31 1.98988 43.33 1.98988H44.35C44.35 1.98988 44.36 1.98988 44.36 1.99988V1.74988C44.36 1.74988 44.36 1.72988 44.37 1.72988C44.38 1.71988 44.4 1.72988 44.41 1.72988H44.42H45.07L45.14 1.68988H45.16V1.72988H45.22C45.22 1.72988 45.28 1.69988 45.28 1.66988V0.389883C45.28 0.389883 45.25 0.329883 45.22 0.329883H45.16V0.369883H45.14L45.07 0.329883H44.59C44.59 0.329883 44.59 0.349883 44.58 0.349883H44.45C44.45 0.349883 44.42 0.339883 44.42 0.319883L44.46 0.149883C44.46 0.139883 44.48 0.129883 44.49 0.129883H45.93C45.93 0.129883 45.94 0.129883 45.94 0.139883V0.389883C45.94 0.389883 45.94 0.399883 45.96 0.399883H46.09C46.09 0.399883 46.1 0.399883 46.1 0.389883V0.279883C46.1 0.279883 46.1 0.269883 46.08 0.269883H46.07V0.249883L46.1 0.199883H46.15C46.15 0.199883 46.16 0.199883 46.16 0.209883V0.909883C46.16 0.909883 46.12 0.989883 46.08 0.989883H45.95C45.95 0.989883 45.94 0.989883 45.94 0.999883V1.46988C45.94 1.46988 45.94 1.47988 45.96 1.47988H46.09C46.09 1.47988 46.17 1.51988 46.17 1.55988V3.27988C46.17 3.27988 46.17 3.28988 46.15 3.28988H46.12L46.14 3.31988H46.15C46.15 3.31988 46.14 3.34988 46.12 3.34988H46.08V3.71988H44.92V3.21988H43.91C43.91 3.21988 43.89 3.21988 43.89 3.20988H43.27V2.93988H43.34H33.8V3.04988H33.78L33.45 3.05988H33.43V2.93988H24.24H24.31V3.20988H23.68L23.48 2.99988C23.48 2.99988 23.46 2.99988 23.45 2.99988L23.75 1.69988C23.8 1.66988 23.83 1.60988 23.82 1.54988V1.59988H23.77V1.64988H23.15V2.01988H23.25V2.09988H23.07V1.59988H23.19C23.19 1.59988 23.17 1.59988 23.17 1.58988H22.55V1.31988H22.62H3.02V1.58988H2.39C2.39 1.58988 2.39 1.59988 2.37 1.59988H1.75V1.54988C1.74 1.60988 1.76 1.66988 1.81 1.69988H1.9C1.9 1.69988 1.91 1.68988 1.92 1.68988C1.94 1.68988 1.95 1.69988 1.95 1.71988V2.13988C1.95 2.13988 1.95 2.14988 1.94 2.14988H1.92C1.92 2.14988 1.91 2.14988 1.91 2.13988H1.33V2.11988L1.37 2.07988V2.05988C1.37 2.05988 1.37 2.04988 1.35 2.04988H1.23C1.23 2.04988 1.2 2.05988 1.2 2.07988V2.24988C1.2 2.24988 1.2 2.22988 1.22 2.22988H1.85C1.85 2.22988 1.87 2.22988 1.87 2.24988V2.40988H1.94C1.94 2.40988 1.96 2.40988 1.96 2.42988V2.60988C1.96 2.60988 1.96 2.62988 1.94 2.62988H1.92C1.92 2.62988 1.9 2.62988 1.9 2.60988V2.55988H1.92V2.44988H1.78V2.60988C1.78 2.60988 1.78 2.62988 1.76 2.62988H1.22C1.22 2.62988 1.2 2.62988 1.2 2.60988C1.2 2.60988 1.21 2.64988 1.23 2.64988H1.31C1.31 2.64988 1.33 2.64988 1.33 2.66988V2.92988C1.33 2.92988 1.29 3.00988 1.25 3.00988H1.11C1.11 3.00988 1.08 3.01988 1.08 3.03988V3.25988H1.12L1.26 3.18988V3.16988C1.26 3.14988 1.27 3.13988 1.29 3.13988C1.31 3.13988 1.32 3.14988 1.32 3.16988V3.21988H1.36V3.72988H0.209995V3.35988H0.169995C0.169995 3.35988 0.139995 3.34988 0.139995 3.32988H0.149995L0.169995 3.29988H0.139995C0.139995 3.29988 0.129995 3.29988 0.119995 3.27988V1.55988H0.139995C0.139995 1.55988 0.179995 1.47988 0.229995 1.47988H0.359995C0.359995 1.47988 0.369995 1.47988 0.369995 1.46988V0.999883C0.369995 0.999883 0.369995 0.989883 0.349995 0.989883H0.219995C0.219995 0.989883 0.139995 0.949883 0.139995 0.909883V0.209883C0.139995 0.209883 0.139995 0.199883 0.149995 0.199883H0.199995L0.229995 0.249883V0.269883H0.209995C0.209995 0.269883 0.199995 0.269883 0.199995 0.279883V0.389883H0.209995C0.209995 0.389883 0.209995 0.399883 0.229995 0.399883H0.359995C0.359995 0.399883 0.369995 0.399883 0.369995 0.389883V0.139883C0.369995 0.139883 0.369995 0.129883 0.379995 0.129883H1.82C1.82 0.129883 1.85 0.129883 1.85 0.149883L1.89 0.309883C1.89 0.309883 1.88 0.349883 1.86 0.349883H2.98C2.98 0.349883 3.01 0.359883 3.01 0.379883V0.539883C3.01 0.539883 3.01 0.549883 2.99 0.549883H2.97C2.97 0.549883 2.95 0.549883 2.96 0.539883V0.589883H22.59V0.529883C22.59 0.529883 22.59 0.549883 22.57 0.549883H22.55C22.55 0.549883 22.53 0.549883 22.53 0.539883V0.379883C22.53 0.379883 22.54 0.349883 22.56 0.349883H23.96C23.96 0.349883 24.02 0.379883 24.02 0.409883V0.469883C24.02 0.469883 23.99 0.529883 23.96 0.529883H23.82C23.82 0.529883 23.8 0.529883 23.8 0.539883V1.16988C23.8 1.16988 23.8 1.17988 23.82 1.17988H23.96C23.96 1.17988 24.02 1.20988 24.02 1.23988V1.51988C24.02 1.51988 23.99 1.58988 23.95 1.58988H23.91V1.53988H23.79" fill="white"/>
<path d="M44.9199 3.22998V3.73998H46.0799V3.36998" stroke="#010101" stroke-width="0.25" stroke-miterlimit="10"/>
<path d="M30.41 3.69004C30.5204 3.69004 30.61 3.6005 30.61 3.49004C30.61 3.37958 30.5204 3.29004 30.41 3.29004C30.2995 3.29004 30.21 3.37958 30.21 3.49004C30.21 3.6005 30.2995 3.69004 30.41 3.69004Z" stroke="#010101" stroke-width="0.25" stroke-miterlimit="10"/>
<path d="M0.209961 3.36998V3.73998H1.36996V3.22998" stroke="#010101" stroke-width="0.25" stroke-miterlimit="10"/>
<path d="M37.68 3.69004C37.7904 3.69004 37.88 3.6005 37.88 3.49004C37.88 3.37958 37.7904 3.29004 37.68 3.29004C37.5695 3.29004 37.48 3.37958 37.48 3.49004C37.48 3.6005 37.5695 3.69004 37.68 3.69004Z" stroke="#010101" stroke-width="0.25" stroke-miterlimit="10"/>
<path d="M23.1399 3.69004C23.2504 3.69004 23.3399 3.6005 23.3399 3.49004C23.3399 3.37958 23.2504 3.29004 23.1399 3.29004C23.0295 3.29004 22.9399 3.37958 22.9399 3.49004C22.9399 3.6005 23.0295 3.69004 23.1399 3.69004Z" stroke="#010101" stroke-width="0.25" stroke-miterlimit="10"/>
<path d="M15.8799 3.69004C15.9904 3.69004 16.0799 3.6005 16.0799 3.49004C16.0799 3.37958 15.9904 3.29004 15.8799 3.29004C15.7695 3.29004 15.6799 3.37958 15.6799 3.49004C15.6799 3.6005 15.7695 3.69004 15.8799 3.69004Z" stroke="#010101" stroke-width="0.25" stroke-miterlimit="10"/>
<path d="M8.5999 3.69004C8.71036 3.69004 8.7999 3.6005 8.7999 3.49004C8.7999 3.37958 8.71036 3.29004 8.5999 3.29004C8.48945 3.29004 8.3999 3.37958 8.3999 3.49004C8.3999 3.6005 8.48945 3.69004 8.5999 3.69004Z" stroke="#010101" stroke-width="0.25" stroke-miterlimit="10"/>
<path d="M43.65 2.3501C43.65 2.3501 43.7 2.3701 43.7 2.4001" stroke="#010101" stroke-width="0.25" stroke-miterlimit="10"/>
<path d="M43.7001 2.77015V2.40015" stroke="#010101" stroke-width="0.25" stroke-miterlimit="10"/>
<path d="M22.17 2.44021V2.60021C22.17 2.60021 22.17 2.62021 22.19 2.62021H22.73C22.73 2.62021 22.75 2.62021 22.75 2.60021V2.24021C22.75 2.24021 22.75 2.22021 22.73 2.22021H22.1C22.1 2.22021 22.08 2.22021 22.08 2.24021V2.40021H22.01C22.01 2.40021 21.99 2.40021 21.99 2.42021V2.60021C21.99 2.60021 21.99 2.62021 22.01 2.62021H22.03C22.03 2.62021 22.05 2.62021 22.05 2.60021V2.55021H22.03V2.44021H22.17Z" stroke="#010101" stroke-width="0.25" stroke-miterlimit="10"/>
<path d="M24.16 2.78003L24.13 2.81003" stroke="#010101" stroke-width="0.25" stroke-miterlimit="10"/>
<path d="M43.44 2.81003L43.41 2.78003" stroke="#010101" stroke-width="0.25" stroke-miterlimit="10"/>
<path d="M43.6501 2.81006H43.4401" stroke="#010101" stroke-width="0.25" stroke-miterlimit="10"/>
<path d="M24.13 2.81006H23.92" stroke="#010101" stroke-width="0.25" stroke-miterlimit="10"/>
<path d="M43.69 2.77002C43.69 2.77002 43.67 2.81002 43.65 2.81002" stroke="#010101" stroke-width="0.25" stroke-miterlimit="10"/>
<path d="M23.87 2.40015V2.77015" stroke="#010101" stroke-width="0.25" stroke-miterlimit="10"/>
<path d="M43.4401 2.82007H43.6501" stroke="#010101" stroke-width="0.25" stroke-miterlimit="10"/>
<path d="M23.0701 1.62012V2.12012H23.2501V2.04012H23.1501V1.67012H23.7701V1.62012H23.0801H23.0701Z" stroke="#010101" stroke-width="0.25" stroke-miterlimit="10"/>
<path d="M23.92 2.81002C23.92 2.81002 23.88 2.79002 23.88 2.77002" stroke="#010101" stroke-width="0.25" stroke-miterlimit="10"/>
<path d="M43.6901 2.40015V2.77015" stroke="#010101" stroke-width="0.25" stroke-miterlimit="10"/>
<path d="M43.65 2.36011C43.65 2.36011 43.69 2.38011 43.69 2.40011" stroke="#010101" stroke-width="0.25" stroke-miterlimit="10"/>
<path d="M43.4401 2.36011H43.6501" stroke="#010101" stroke-width="0.25" stroke-miterlimit="10"/>
<path d="M43.41 2.43014V2.39014" stroke="#010101" stroke-width="0.25" stroke-miterlimit="10"/>
<path d="M23.0001 2.59006L22.7001 2.70006V3.12006V3.16006C22.7001 3.16006 22.7001 3.17006 22.7101 3.17006H23.3501C23.3501 3.17006 23.3701 3.17006 23.3701 3.16006V3.05006C23.3701 2.99006 23.4101 2.95006 23.4701 2.95006H23.6101C23.6101 2.95006 23.6301 2.95006 23.6301 2.94006V2.54006V2.53006H23.6201C23.5701 2.54006 23.5101 2.52006 23.4901 2.46006C23.4801 2.42006 23.4901 2.37006 23.5301 2.35006V2.33006C23.5401 2.30006 23.5701 2.28006 23.6101 2.29006H23.6201V2.28006V2.18006C23.6201 2.18006 23.6401 2.11006 23.6801 2.10006H23.6901V2.07006C23.6901 2.07006 23.6901 2.06006 23.6701 2.06006H23.3501C23.3501 2.06006 23.3301 2.06006 23.3301 2.07006V2.19006C23.3301 2.19006 23.2901 2.27006 23.2501 2.27006H23.2001C23.2001 2.27006 23.1501 2.26006 23.1301 2.24006H23.1201H23.0901C23.0901 2.24006 23.0701 2.24006 23.0701 2.25006V2.52006C23.0701 2.52006 23.0501 2.59006 23.0101 2.60006" stroke="#010101" stroke-width="0.25" stroke-miterlimit="10"/>
<path d="M43.73 2.84008V2.33008" stroke="#010101" stroke-width="0.25" stroke-miterlimit="10"/>
<path d="M43.4 2.3901C43.4 2.3901 43.42 2.3501 43.44 2.3501" stroke="#010101" stroke-width="0.25" stroke-miterlimit="10"/>
<path d="M23.88 2.40011C23.88 2.40011 23.9 2.36011 23.92 2.36011" stroke="#010101" stroke-width="0.25" stroke-miterlimit="10"/>
<path d="M43.64 2.7202V2.4502" stroke="#010101" stroke-width="0.25" stroke-miterlimit="10"/>
<path d="M12.84 1.46009H12.86V1.34009H12.48V1.45009H12.5L12.83 1.46009H12.84Z" stroke="#010101" stroke-width="0.25" stroke-miterlimit="10"/>
<path d="M24.0001 1.72013C23.9501 1.69013 23.9201 1.63013 23.9301 1.57013V1.62013H23.9801C23.9801 1.62013 24.0501 1.59013 24.0501 1.55013V1.27013C24.0501 1.27013 24.0201 1.21013 23.9901 1.21013H23.8501C23.8501 1.21013 23.8301 1.21013 23.8301 1.20013V0.570127C23.8301 0.570127 23.8301 0.560127 23.8501 0.560127H23.9901C23.9901 0.560127 24.0501 0.530127 24.0501 0.500127V0.440127C24.0501 0.440127 24.0201 0.380127 23.9901 0.380127H22.5901C22.5901 0.380127 22.5601 0.390127 22.5601 0.410127V0.570127C22.5601 0.570127 22.5601 0.580127 22.5801 0.580127H22.6001C22.6001 0.580127 22.6201 0.580127 22.6201 0.570127H23.1801C23.1801 0.570127 23.2001 0.570127 23.2001 0.580127V1.35013C23.2001 1.35013 23.2401 1.43013 23.2801 1.43013H23.4201C23.4201 1.43013 23.4501 1.44013 23.4501 1.46013V1.56013C23.4501 1.56013 23.4401 1.59013 23.4201 1.59013H23.2601C23.2601 1.59013 23.2301 1.56013 23.2201 1.57013C23.2101 1.57013 23.2001 1.59013 23.2001 1.60013V1.64013C23.2001 1.64013 23.2001 1.65013 23.2201 1.65013H23.8401V1.60013C23.8501 1.66013 23.8301 1.72013 23.7801 1.75013" stroke="#010101" stroke-width="0.25" stroke-miterlimit="10"/>
<path d="M23.92 2.36011H24.13" stroke="#010101" stroke-width="0.25" stroke-miterlimit="10"/>
<path d="M43.69 2.77021C43.69 2.77021 43.64 2.75021 43.64 2.72021" stroke="#010101" stroke-width="0.25" stroke-miterlimit="10"/>
<path d="M43.46 2.33008V2.35008" stroke="#010101" stroke-width="0.25" stroke-miterlimit="10"/>
<path d="M24.16 2.39014V2.43014" stroke="#010101" stroke-width="0.25" stroke-miterlimit="10"/>
<path d="M43.64 2.45015C43.64 2.45015 43.66 2.40015 43.69 2.40015" stroke="#010101" stroke-width="0.25" stroke-miterlimit="10"/>
<path d="M22.6801 0.810234V0.770234C22.6801 0.770234 22.7001 0.740234 22.7201 0.740234H22.9301C22.9301 0.740234 22.9701 0.760234 22.9701 0.780234" stroke="#010101" stroke-width="0.25" stroke-miterlimit="10"/>
<path d="M23.83 2.33008V2.84008" stroke="#010101" stroke-width="0.25" stroke-miterlimit="10"/>
<path d="M43.99 3.1702L44.12 3.0502C44.12 3.0502 44.12 3.0302 44.12 3.0202C44.12 3.0202 44.1 3.0202 44.09 3.0202L43.99 3.1102H43.9C43.9 3.1102 43.86 3.1102 43.86 3.1302V3.1502H43.34V2.9502H43.27V3.2202H43.9V3.1402H43.98V3.1602L43.99 3.1702Z" stroke="#010101" stroke-width="0.25" stroke-miterlimit="10"/>
<path d="M24.13 2.3501C24.13 2.3501 24.17 2.3701 24.17 2.3901" stroke="#010101" stroke-width="0.25" stroke-miterlimit="10"/>
<path d="M43.8201 2.16016V2.97016" stroke="#010101" stroke-width="0.25" stroke-miterlimit="10"/>
<path d="M22.6801 1.12022V1.16022C22.6801 1.16022 22.6901 1.20022 22.7201 1.20022H22.9301C22.9301 1.20022 22.9801 1.18022 22.9801 1.15022V0.780225C22.9801 0.780225 22.9601 0.730225 22.9301 0.730225H22.7201C22.7201 0.730225 22.6801 0.750225 22.6801 0.770225" stroke="#010101" stroke-width="0.25" stroke-miterlimit="10"/>
<path d="M23.92 2.82002C23.92 2.82002 23.87 2.80002 23.87 2.77002" stroke="#010101" stroke-width="0.25" stroke-miterlimit="10"/>
<path d="M43.79 2.16016V2.97016" stroke="#010101" stroke-width="0.25" stroke-miterlimit="10"/>
<path d="M43.89 2.16016H43.79" stroke="#010101" stroke-width="0.25" stroke-miterlimit="10"/>
<path d="M23.9301 2.4502V2.7202" stroke="#010101" stroke-width="0.25" stroke-miterlimit="10"/>
<path d="M43.8301 2.97016L43.8901 2.91016" stroke="#010101" stroke-width="0.25" stroke-miterlimit="10"/>
<path d="M22.9701 1.14014C22.9701 1.14014 22.9501 1.18014 22.9301 1.18014H22.7201C22.7201 1.18014 22.6901 1.17014 22.6901 1.15014" stroke="#010101" stroke-width="0.25" stroke-miterlimit="10"/>
<path d="M23.93 2.72021C23.93 2.72021 23.91 2.77021 23.88 2.77021" stroke="#010101" stroke-width="0.25" stroke-miterlimit="10"/>
<path d="M24.11 2.84007V2.82007" stroke="#010101" stroke-width="0.25" stroke-miterlimit="10"/>
<path d="M23.88 2.40015C23.88 2.40015 23.93 2.42015 23.93 2.45015" stroke="#010101" stroke-width="0.25" stroke-miterlimit="10"/>
<path d="M23.1701 0.540039H23.0701V1.35004H23.1101L23.1801 1.29004" stroke="#010101" stroke-width="0.25" stroke-miterlimit="10"/>
<path d="M23.4501 3.0502L23.5801 3.17021V3.15021H23.6801V3.23021H24.3001V2.96021H24.2301V3.16021H23.7201V3.14021C23.7201 3.14021 23.6901 3.1102 23.6701 3.1102H23.5801L23.4801 3.03021C23.4801 3.03021 23.4601 3.03021 23.4501 3.03021C23.4501 3.03021 23.4501 3.0502 23.4501 3.0602" stroke="#010101" stroke-width="0.25" stroke-miterlimit="10"/>
<path d="M0.140015 2.02012V3.29012C0.140015 3.29012 0.140015 3.30012 0.160015 3.30012H0.190015L0.170015 3.33012H0.160015C0.160015 3.33012 0.170015 3.36012 0.190015 3.36012H0.380015H1.08001L1.32001 3.23012V3.17012C1.32001 3.17012 1.31001 3.14012 1.29001 3.14012C1.27001 3.14012 1.26001 3.15012 1.26001 3.17012V3.19012L1.12001 3.26012H1.09001L1.08001 3.23012V3.03012C1.08001 3.03012 1.09001 3.00012 1.11001 3.00012H1.25001C1.25001 3.00012 1.33001 2.96012 1.33001 2.92012V2.66012C1.33001 2.66012 1.33001 2.64012 1.31001 2.64012H1.23001C1.23001 2.64012 1.20001 2.63012 1.20001 2.61012V2.07012C1.20001 2.07012 1.21001 2.04012 1.23001 2.04012H1.35001C1.35001 2.04012 1.36001 2.04012 1.37001 2.05012V2.07012L1.33001 2.11012V2.13012H1.91001C1.91001 2.13012 1.91001 2.15012 1.92001 2.15012H1.94001C1.94001 2.15012 1.95001 2.15012 1.95001 2.14012V1.72012C1.95001 1.72012 1.94001 1.69012 1.92001 1.69012H1.90001H1.89001H1.24001L1.17001 1.65012H1.15001V1.69012H1.09001C1.09001 1.69012 1.03001 1.66012 1.03001 1.63012V0.380117C1.03001 0.380117 1.06001 0.320117 1.09001 0.320117H1.16001V0.360117H1.18001L1.25001 0.320117H1.73001C1.73001 0.320117 1.73001 0.340117 1.74001 0.340117H1.87001C1.87001 0.340117 1.90001 0.330117 1.90001 0.310117L1.86001 0.140117C1.86001 0.130117 1.84001 0.120117 1.83001 0.120117H0.380015C0.380015 0.120117 0.370015 0.120117 0.370015 0.130117V0.380117C0.370015 0.380117 0.370015 0.390117 0.360015 0.390117H0.230015C0.230015 0.390117 0.210015 0.390117 0.210015 0.380117V0.270117C0.210015 0.270117 0.210015 0.260117 0.220015 0.260117H0.240015V0.240117L0.210015 0.190117H0.160015C0.160015 0.190117 0.150015 0.190117 0.150015 0.200117V0.900117C0.150015 0.900117 0.190015 0.980117 0.230015 0.980117H0.360015C0.360015 0.980117 0.370015 0.980117 0.380015 0.990117V1.46012C0.380015 1.46012 0.380015 1.47012 0.370015 1.47012H0.240015C0.240015 1.47012 0.150015 1.51012 0.150015 1.55012H0.140015V2.00012V2.02012Z" stroke="#010101" stroke-width="0.25" stroke-miterlimit="10"/>
<path d="M1.13006 2.65015H0.450063C0.450063 2.65015 0.440063 2.65015 0.440063 2.66015V3.28015C0.440063 3.28015 0.440063 3.29015 0.460063 3.29015H1.00006C1.00006 3.29015 1.02006 3.29015 1.01006 3.28015V3.04015C1.01006 2.98015 1.05006 2.94015 1.11006 2.94015H1.25006C1.25006 2.94015 1.27006 2.94015 1.27006 2.93015V2.73015C1.27006 2.73015 1.27006 2.72015 1.26006 2.72015H1.25006C1.25006 2.72015 1.17006 2.70015 1.16006 2.66015H1.15006L1.13006 2.65015Z" stroke="#010101" stroke-width="0.25" stroke-miterlimit="10"/>
<path d="M23.77 1.57002H23.98V1.52002H23.77V1.57002Z" stroke="#010101" stroke-width="0.25" stroke-miterlimit="10"/>
<path d="M23.75 2.97016V2.16016" stroke="#010101" stroke-width="0.25" stroke-miterlimit="10"/>
<path d="M1.78007 2.56021V2.44021H1.92007V2.55021H1.90007V2.60021C1.90007 2.60021 1.90007 2.62021 1.92007 2.62021H1.94007C1.94007 2.62021 1.96007 2.62021 1.96007 2.60021V2.42021C1.96007 2.42021 1.96007 2.40021 1.94007 2.40021H1.87007V2.24021C1.87007 2.24021 1.87007 2.22021 1.85007 2.22021H1.22007C1.22007 2.22021 1.20007 2.22021 1.20007 2.24021V2.60021C1.20007 2.60021 1.20007 2.62021 1.22007 2.62021H1.76007C1.76007 2.62021 1.78007 2.62021 1.78007 2.60021V2.55021V2.56021Z" stroke="#010101" stroke-width="0.25" stroke-miterlimit="10"/>
<path d="M23.74 2.97021H23.78" stroke="#010101" stroke-width="0.25" stroke-miterlimit="10"/>
<path d="M1.13006 2.21016V2.08016C1.13006 2.02016 1.17006 1.98016 1.23006 1.98016H1.35006L1.40006 1.81016L1.39006 1.79016H1.20006V1.78016H1.18006L1.14006 1.79016H1.08006C1.01006 1.79016 0.960063 1.74016 0.950063 1.67016H0.940063L0.460063 1.66016C0.460063 1.66016 0.450063 1.66016 0.450063 1.67016H0.440063V2.06016H0.450063L1.12006 2.22016H1.13006V2.21016Z" stroke="#010101" stroke-width="0.25" stroke-miterlimit="10"/>
<path d="M0.950063 1.60012V1.13012C0.950063 1.13012 0.950063 1.12012 0.930063 1.12012H0.450063C0.450063 1.12012 0.440063 1.12012 0.440063 1.13012V1.60012C0.440063 1.60012 0.440063 1.61012 0.450063 1.61012H0.930063C0.930063 1.61012 0.950063 1.61012 0.950063 1.60012Z" stroke="#010101" stroke-width="0.25" stroke-miterlimit="10"/>
<path d="M23.2701 1.55008L23.4 1.43008C23.4 1.43008 23.4 1.41008 23.4 1.40008C23.4 1.39008 23.3801 1.40008 23.3701 1.40008L23.2701 1.49008H23.18C23.18 1.49008 23.14 1.49008 23.14 1.51008V1.53008H22.6201V1.33008H22.55V1.60008H23.18V1.52008H23.26V1.54008L23.2701 1.55008Z" stroke="#010101" stroke-width="0.25" stroke-miterlimit="10"/>
<path d="M23.78 2.97016V2.16016" stroke="#010101" stroke-width="0.25" stroke-miterlimit="10"/>
<path d="M0.949961 1.0602V0.380195C0.949961 0.380195 0.969961 0.290195 1.00996 0.270195V0.210195C1.00996 0.210195 1.00996 0.200195 0.999961 0.200195H0.449961C0.449961 0.200195 0.439961 0.200195 0.439961 0.210195V0.390195C0.439961 0.390195 0.399961 0.470195 0.349961 0.470195H0.229961C0.229961 0.470195 0.219961 0.470195 0.209961 0.480195V0.890195C0.209961 0.890195 0.209961 0.900195 0.219961 0.900195H0.349961C0.349961 0.900195 0.429961 0.940195 0.439961 0.980195V1.0302C0.439961 1.0302 0.439961 1.0402 0.459961 1.0402H0.939961C0.939961 1.0402 0.949961 1.0402 0.959961 1.0302" stroke="#010101" stroke-width="0.25" stroke-miterlimit="10"/>
<path d="M1.78005 0.190176H1.07005C1.07005 0.190176 1.05005 0.190176 1.06005 0.200176V0.230176C1.06005 0.230176 1.06005 0.240176 1.08005 0.240176H1.19005L1.21005 0.250176L1.25005 0.240176H1.73005L1.78005 0.260176H1.81005V0.240176V0.190176L1.78005 0.180176V0.190176Z" stroke="#010101" stroke-width="0.25" stroke-miterlimit="10"/>
<path d="M1.44003 2.06004C1.44003 2.06004 1.44003 2.07004 1.45003 2.07004H1.87003C1.87003 2.07004 1.89003 2.07004 1.89003 2.06004V1.80004C1.89003 1.80004 1.89003 1.79004 1.88003 1.79004H1.47003L1.46003 1.80004L1.41003 1.97004V1.99004C1.41003 1.99004 1.46003 2.03004 1.46003 2.06004" stroke="#010101" stroke-width="0.25" stroke-miterlimit="10"/>
<path d="M0.330073 3.3201L0.360073 3.3501H0.370073V3.3201H0.380073V3.1101C0.380073 3.1101 0.380073 3.1001 0.370073 3.1001H0.220073C0.220073 3.1001 0.200073 3.1001 0.200073 3.1101V3.2301C0.200073 3.2301 0.200073 3.2401 0.210073 3.2401H0.230073V3.2601L0.200073 3.3101H0.320073L0.330073 3.3201Z" stroke="#010101" stroke-width="0.25" stroke-miterlimit="10"/>
<path d="M0.209961 2.59013C0.209961 2.59013 0.209961 2.60013 0.219961 2.60013H0.379961C0.379961 2.60013 0.399961 2.60013 0.399961 2.59013V2.14013C0.399961 2.14013 0.399961 2.13013 0.389961 2.13013H0.229961C0.229961 2.13013 0.209961 2.13013 0.209961 2.14013V2.59013Z" stroke="#010101" stroke-width="0.25" stroke-miterlimit="10"/>
<path d="M0.209961 2.07006C0.209961 2.07006 0.209961 2.08006 0.219961 2.08006H0.379961C0.379961 2.08006 0.399961 2.08006 0.399961 2.07006V1.57006L0.389961 1.56006H0.359961H0.239961C0.239961 1.56006 0.219961 1.56006 0.219961 1.57006H0.209961V2.06006V2.07006Z" stroke="#010101" stroke-width="0.25" stroke-miterlimit="10"/>
<path d="M23.1 0.540039V1.35004" stroke="#010101" stroke-width="0.25" stroke-miterlimit="10"/>
<path d="M0.380073 3.02016C0.380073 3.02016 0.400073 3.02016 0.400073 3.01016V2.67016C0.400073 2.67016 0.400073 2.66016 0.380073 2.66016H0.220073C0.220073 2.66016 0.210073 2.66016 0.200073 2.67016V3.01016C0.200073 3.01016 0.200073 3.02016 0.220073 3.02016H0.380073Z" stroke="#010101" stroke-width="0.25" stroke-miterlimit="10"/>
<path d="M1.82002 1.72012C1.77002 1.69012 1.74002 1.63012 1.75002 1.57012V1.62012H2.38002C2.38002 1.62012 2.40002 1.62012 2.40002 1.61012V1.57012C2.40002 1.57012 2.39002 1.54012 2.37002 1.54012C2.36002 1.54012 2.35002 1.54012 2.34002 1.56012H2.18002C2.18002 1.56012 2.15002 1.56012 2.15002 1.54012V1.44012C2.15002 1.44012 2.16002 1.41012 2.18002 1.41012H2.31002C2.31002 1.41012 2.39002 1.37012 2.40002 1.33012V0.560117C2.40002 0.560117 2.40002 0.550117 2.42002 0.550117H2.98002C2.98002 0.550117 2.98002 0.570117 2.99002 0.570117H3.01002C3.01002 0.570117 3.03002 0.570117 3.03002 0.560117V0.400117C3.03002 0.400117 3.02002 0.370117 3.00002 0.370117H1.59002C1.59002 0.370117 1.53002 0.400117 1.53002 0.430117V0.490117C1.53002 0.490117 1.56002 0.550117 1.59002 0.550117H1.73002C1.73002 0.550117 1.75002 0.550117 1.74002 0.560117V1.19012C1.74002 1.19012 1.74002 1.20012 1.72002 1.20012H1.58002C1.58002 1.20012 1.52002 1.23012 1.52002 1.26012V1.54012C1.52002 1.54012 1.55002 1.61012 1.59002 1.61012H1.63002V1.56012C1.64002 1.62012 1.62002 1.68012 1.57002 1.71012" stroke="#010101" stroke-width="0.25" stroke-miterlimit="10"/>
<path d="M22.6 0.590029V0.530029" stroke="#010101" stroke-width="0.25" stroke-miterlimit="10"/>
<path d="M2.59996 0.780225C2.59996 0.780225 2.61996 0.740225 2.63996 0.740225H2.84996C2.84996 0.740225 2.87996 0.750225 2.87996 0.770225M2.87996 0.770225V0.810225M2.87996 0.770225C2.87996 0.750225 2.85996 0.730225 2.83996 0.730225H2.62996C2.62996 0.730225 2.57996 0.750225 2.57996 0.780225V1.15022C2.57996 1.15022 2.59996 1.20022 2.62996 1.20022H2.83996C2.83996 1.20022 2.87996 1.18022 2.87996 1.16022M2.87996 1.16022V1.12022M2.87996 1.16022C2.87996 1.16022 2.85996 1.19022 2.84996 1.19022H2.63996C2.63996 1.19022 2.59996 1.17022 2.59996 1.15022" stroke="#010101" stroke-width="0.25" stroke-miterlimit="10"/>
<path d="M2.64998 1.09003V0.790029L2.59998 0.780029V1.15003C2.59998 1.15003 2.64998 1.13003 2.64998 1.10003" stroke="#010101" stroke-width="0.25" stroke-miterlimit="10"/>
<path d="M2.39001 1.29004L2.46001 1.35004H2.50001V0.540039H2.39001" stroke="#010101" stroke-width="0.25" stroke-miterlimit="10"/>
<path d="M1.58997 1.57002H1.79997V1.52002H1.58997V1.57002Z" stroke="#010101" stroke-width="0.25" stroke-miterlimit="10"/>
<path d="M22.97 0.530029V0.590029" stroke="#010101" stroke-width="0.25" stroke-miterlimit="10"/>
<path d="M2.29003 1.49009L2.19003 1.40009C2.19003 1.40009 2.17003 1.40009 2.16003 1.40009C2.16003 1.40009 2.16003 1.42009 2.16003 1.43009L2.29003 1.55009V1.53009H2.39003V1.61009H3.01003V1.34009H2.94003V1.54009H2.43003V1.52009C2.43003 1.52009 2.40003 1.49009 2.38003 1.49009H2.29003Z" stroke="#010101" stroke-width="0.25" stroke-miterlimit="10"/>
<path d="M2.46997 1.35004V0.540039" stroke="#010101" stroke-width="0.25" stroke-miterlimit="10"/>
<path d="M23.67 2.91016L23.73 2.97016" stroke="#010101" stroke-width="0.25" stroke-miterlimit="10"/>
<path d="M2.96997 0.530029V0.590029" stroke="#010101" stroke-width="0.25" stroke-miterlimit="10"/>
<path d="M2.58997 0.590029V0.530029" stroke="#010101" stroke-width="0.25" stroke-miterlimit="10"/>
<path d="M23.13 0.430166C23.13 0.430166 23.13 0.420166 23.11 0.420166H22.62C22.62 0.420166 22.61 0.420166 22.61 0.430166V0.450166C22.61 0.450166 22.61 0.460166 22.63 0.460166H23.12C23.12 0.460166 23.14 0.460166 23.14 0.450166V0.430166H23.13Z" stroke="#010101" stroke-width="0.25" stroke-miterlimit="10"/>
<path d="M23.7801 2.16016H23.6801" stroke="#010101" stroke-width="0.25" stroke-miterlimit="10"/>
<path d="M2.43005 0.430166V0.450166C2.43005 0.450166 2.43005 0.460166 2.44005 0.460166H2.93005C2.93005 0.460166 2.95005 0.460166 2.95005 0.450166V0.430166C2.95005 0.430166 2.95005 0.420166 2.94005 0.420166H2.45005C2.45005 0.420166 2.43005 0.420166 2.43005 0.430166Z" stroke="#010101" stroke-width="0.25" stroke-miterlimit="10"/>
<path d="M2.38007 0.460166H2.39007V0.430166C2.39007 0.430166 2.39007 0.420166 2.38007 0.420166H1.60007C1.60007 0.420166 1.58007 0.420166 1.58007 0.430166V0.450166C1.58007 0.450166 1.58007 0.460166 1.60007 0.460166H1.72007C1.72007 0.460166 1.80007 0.500166 1.80007 0.540166V1.17017C1.80007 1.17017 1.76007 1.25017 1.71007 1.25017H1.59007C1.59007 1.25017 1.57007 1.25017 1.57007 1.26017V1.41017C1.57007 1.41017 1.57007 1.42017 1.58007 1.42017H1.78007C1.78007 1.42017 1.85007 1.45017 1.85007 1.49017C1.85007 1.49017 1.85007 1.52017 1.87007 1.52017H2.04007C2.04007 1.52017 2.06007 1.52017 2.06007 1.51017V1.40017C2.06007 1.34017 2.10007 1.30017 2.16007 1.30017H2.29007C2.29007 1.30017 2.31007 1.30017 2.31007 1.29017V0.520166C2.31007 0.520166 2.33007 0.450166 2.37007 0.440166" stroke="#010101" stroke-width="0.25" stroke-miterlimit="10"/>
<path d="M2.55005 0.700195V1.2102" stroke="#010101" stroke-width="0.25" stroke-miterlimit="10"/>
<path d="M2.82996 0.730205V0.710205" stroke="#010101" stroke-width="0.25" stroke-miterlimit="10"/>
<path d="M23.1801 0.460195C23.1801 0.460195 23.2401 0.500195 23.2401 0.540195V1.3102C23.2401 1.3102 23.2401 1.3202 23.2601 1.3202H23.4001C23.4601 1.3202 23.5001 1.3602 23.5001 1.4202V1.5302C23.5001 1.5302 23.5001 1.5402 23.5201 1.5402H23.7001C23.7001 1.5402 23.7101 1.5402 23.7101 1.5302C23.7101 1.4802 23.7401 1.4502 23.7801 1.4502H23.9801C23.9801 1.4502 24.0001 1.4502 24.0001 1.4402V1.2902C24.0001 1.2902 24.0001 1.2802 23.9801 1.2802H23.8601C23.8601 1.2802 23.7801 1.2402 23.7801 1.2002V0.570195C23.7801 0.570195 23.8201 0.490195 23.8601 0.490195H23.9801C23.9801 0.490195 24.0001 0.490195 24.0001 0.480195V0.460195C24.0001 0.460195 24.0001 0.450195 23.9901 0.450195H23.2101C23.2101 0.450195 23.1901 0.450195 23.1901 0.460195L23.2001 0.490195L23.1801 0.460195Z" stroke="#010101" stroke-width="0.25" stroke-miterlimit="10"/>
<path d="M2.82996 1.2202V1.2002" stroke="#010101" stroke-width="0.25" stroke-miterlimit="10"/>
<path d="M1.13006 2.59012V2.28012H1.12006L0.450063 2.12012H0.440063V2.13012V2.59012C0.440063 2.59012 0.440063 2.60012 0.460063 2.60012H1.13006C1.13006 2.60012 1.15006 2.60012 1.14006 2.59012" stroke="#010101" stroke-width="0.25" stroke-miterlimit="10"/>
<path d="M23.01 1.22021V0.710205" stroke="#010101" stroke-width="0.25" stroke-miterlimit="10"/>
<path d="M23.54 2.37008C23.54 2.37008 23.5 2.42008 23.51 2.44008C23.51 2.47008 23.55 2.48008 23.57 2.47008C23.6 2.47008 23.61 2.43008 23.6 2.41008C23.6 2.41008 23.6 2.41008 23.6 2.40008V2.35008V2.33008H23.58H23.56V2.36008L23.54 2.37008Z" stroke="#010101" stroke-width="0.25" stroke-miterlimit="10"/>
<path d="M22.74 0.700195V0.720195" stroke="#010101" stroke-width="0.25" stroke-miterlimit="10"/>
<path d="M22.74 1.19019V1.21019" stroke="#010101" stroke-width="0.25" stroke-miterlimit="10"/>
<path d="M46.0801 0.190117L46.0501 0.240117V0.260117H46.0601C46.0601 0.260117 46.0801 0.260117 46.0801 0.270117V0.380117C46.0801 0.380117 46.0801 0.390117 46.0701 0.390117H45.9401C45.9401 0.390117 45.9201 0.390117 45.9201 0.380117V0.130117C45.9201 0.130117 45.9201 0.120117 45.9101 0.120117H44.4701C44.4701 0.120117 44.4401 0.120117 44.4401 0.140117L44.4001 0.300117C44.4001 0.300117 44.4101 0.340117 44.4301 0.340117H44.5601C44.5601 0.340117 44.5701 0.340117 44.5701 0.330117H45.0501L45.1201 0.370117H45.1401V0.330117H45.2001C45.2001 0.330117 45.2601 0.360117 45.2601 0.390117V1.66012C45.2601 1.66012 45.2301 1.72012 45.2001 1.72012H45.1401V1.68012H45.1201L45.0501 1.72012H44.3801C44.3801 1.72012 44.3501 1.70012 44.3401 1.72012C44.3401 1.72012 44.3301 1.73012 44.3301 1.74012V2.16012C44.3301 2.16012 44.3301 2.17012 44.3401 2.17012H44.3601C44.3601 2.17012 44.3701 2.17012 44.3701 2.16012H44.9401V2.14012L44.9001 2.10012V2.08012C44.9001 2.08012 44.9001 2.07012 44.9201 2.07012H45.0401C45.0401 2.07012 45.0701 2.08012 45.0701 2.10012V2.64012C45.0701 2.64012 45.0601 2.67012 45.0401 2.67012H44.9601C44.9601 2.67012 44.9401 2.67012 44.9401 2.69012V2.95012C44.9401 2.95012 44.9801 3.03012 45.0201 3.03012H45.1601C45.1601 3.03012 45.1901 3.04012 45.1901 3.06012V3.28012H45.1501L45.0101 3.21012V3.19012C45.0101 3.19012 45.0001 3.16012 44.9801 3.16012C44.9601 3.16012 44.9501 3.17012 44.9501 3.19012V3.24012V3.25012L45.1901 3.37012H45.8901H46.0701C46.0901 3.37012 46.1001 3.36012 46.1001 3.34012H46.0901L46.0701 3.31012H46.1001C46.1001 3.31012 46.1201 3.31012 46.1201 3.29012V1.57012C46.1201 1.52012 46.0801 1.49012 46.0401 1.49012H45.9101C45.9101 1.49012 45.8901 1.49012 45.8901 1.48012V1.01012C45.8901 1.01012 45.8901 1.00012 45.9001 1.00012H46.0301C46.0301 1.00012 46.1101 0.960117 46.1101 0.920117V0.200117C46.1101 0.200117 46.1101 0.190117 46.0901 0.190117H46.0401H46.0801Z" stroke="#010101" stroke-width="0.25" stroke-miterlimit="10"/>
<path d="M24.25 2.16021C24.25 2.16021 24.25 2.17021 24.27 2.17021H24.29C24.29 2.17021 24.31 2.17021 24.31 2.16021V2.00021C24.31 2.00021 24.3 1.97021 24.28 1.97021H23.26C23.26 1.97021 23.24 1.97021 23.24 1.98021V2.02021C23.24 2.02021 23.24 2.03021 23.26 2.03021V2.16021C23.26 2.16021 23.26 2.17021 23.24 2.17021H23.19C23.19 2.17021 23.18 2.17021 23.18 2.16021C23.18 2.16021 23.18 2.14021 23.17 2.14021H22.61V2.11021L22.63 2.09021V2.07021H22.61L22.58 2.06021H22.57L22.51 2.17021V2.19021C22.51 2.19021 22.51 2.20021 22.52 2.20021H22.98C22.98 2.20021 22.99 2.20021 22.99 2.21021V2.49021L22.69 2.61021C22.66 2.62021 22.63 2.65021 22.63 2.69021V3.05021C22.63 3.05021 22.63 3.06021 22.62 3.06021H22.57L22.52 3.08021H22.5L22.48 3.07021H22.42C22.42 3.07021 22.4 3.07021 22.4 3.08021V3.10021L22.52 3.17021H22.55V3.15021C22.55 3.15021 22.55 3.14021 22.57 3.14021H22.61C22.61 3.14021 22.62 3.14021 22.62 3.15021V3.21021C22.62 3.21021 22.62 3.22021 22.64 3.22021H23.67C23.67 3.22021 23.69 3.22021 23.69 3.21021V3.17021C23.69 3.17021 23.68 3.14021 23.66 3.14021C23.65 3.14021 23.64 3.14021 23.63 3.16021H23.62H23.47C23.45 3.16021 23.44 3.15021 23.44 3.13021V3.03021C23.44 3.03021 23.45 3.00021 23.47 3.00021H23.61C23.61 3.00021 23.69 2.96021 23.69 2.92021V2.15021C23.69 2.15021 23.69 2.14021 23.71 2.14021H24.27L24.25 2.16021Z" stroke="#010101" stroke-width="0.25" stroke-miterlimit="10"/>
<path d="M22.97 1.14002V0.77002H22.93L22.92 0.82002V1.09002C22.92 1.09002 22.94 1.14002 22.97 1.14002Z" stroke="#010101" stroke-width="0.25" stroke-miterlimit="10"/>
<path d="M45.16 2.65015H45.15C45.15 2.65015 45.1 2.72015 45.06 2.72015H45.05C45.05 2.72015 45.03 2.72015 45.03 2.73015V2.93015C45.03 2.93015 45.03 2.94015 45.05 2.94015H45.18C45.24 2.94015 45.28 2.98015 45.28 3.04015V3.28015C45.28 3.28015 45.28 3.29015 45.3 3.29015H45.84C45.84 3.29015 45.86 3.29015 45.86 3.28015V2.66015C45.86 2.66015 45.86 2.65015 45.85 2.65015H45.17H45.16Z" stroke="#010101" stroke-width="0.25" stroke-miterlimit="10"/>
<path d="M44.57 2.59006C44.57 2.59006 44.51 2.55006 44.51 2.51006V2.24006C44.51 2.24006 44.51 2.23006 44.49 2.23006H44.44C44.44 2.23006 44.4 2.27006 44.37 2.27006H44.32C44.32 2.27006 44.24 2.23006 44.24 2.19006V2.07006C44.24 2.07006 44.24 2.06006 44.22 2.06006H43.9C43.9 2.06006 43.88 2.06006 43.88 2.07006L43.89 2.10006C43.93 2.11006 43.95 2.14006 43.95 2.18006V2.28006L43.96 2.29006C43.99 2.29006 44.03 2.30006 44.04 2.33006V2.35006C44.09 2.38006 44.1 2.44006 44.07 2.49006C44.05 2.53006 44 2.54006 43.96 2.53006H43.95V2.54006V2.94006C43.95 2.94006 43.95 2.95006 43.96 2.95006H44.1C44.16 2.95006 44.2 2.99006 44.2 3.05006V3.16006C44.2 3.16006 44.2 3.17006 44.21 3.17006H44.85C44.85 3.17006 44.86 3.17006 44.86 3.16006V3.08006L44.85 2.72006L44.55 2.60006L44.57 2.59006Z" stroke="#010101" stroke-width="0.25" stroke-miterlimit="10"/>
<path d="M24.12 2.21015V2.15015" stroke="#010101" stroke-width="0.25" stroke-miterlimit="10"/>
<path d="M24.11 2.35008V2.33008" stroke="#010101" stroke-width="0.25" stroke-miterlimit="10"/>
<path d="M45.15 2.59012C45.15 2.59012 45.15 2.60012 45.16 2.60012H45.83C45.83 2.60012 45.85 2.60012 45.85 2.59012V2.13012L45.84 2.12012L45.17 2.26012H45.16V2.59012H45.15Z" stroke="#010101" stroke-width="0.25" stroke-miterlimit="10"/>
<path d="M45.15 2.21016L45.16 2.22016L45.83 2.08016H45.84V1.67016C45.84 1.67016 45.84 1.66016 45.83 1.66016H45.33C45.33 1.74016 45.27 1.79016 45.2 1.79016H45.14L45.1 1.78016H45.08H45.05H44.9H44.89V1.80016L44.94 1.96016H44.95L45.05 1.97016C45.11 1.97016 45.15 2.01016 45.15 2.07016V2.20016V2.21016Z" stroke="#010101" stroke-width="0.25" stroke-miterlimit="10"/>
<path d="M24.13 2.36011L24.16 2.39011" stroke="#010101" stroke-width="0.25" stroke-miterlimit="10"/>
<path d="M45.34 1.60012C45.34 1.60012 45.34 1.61012 45.35 1.61012H45.83C45.83 1.61012 45.85 1.61012 45.85 1.60012V1.13012C45.85 1.13012 45.85 1.12012 45.84 1.12012H45.36C45.36 1.12012 45.35 1.12012 45.35 1.13012V1.60012H45.34Z" stroke="#010101" stroke-width="0.25" stroke-miterlimit="10"/>
<path d="M45.34 1.06022C45.34 1.06022 45.34 1.07022 45.35 1.07022H45.83C45.83 1.07022 45.85 1.07022 45.85 1.06022V1.01022C45.85 0.960225 45.89 0.930225 45.93 0.930225H46.06C46.06 0.930225 46.07 0.930225 46.07 0.920225V0.510225C46.07 0.510225 46.07 0.500225 46.06 0.500225H45.93C45.93 0.500225 45.85 0.460225 45.85 0.420225V0.240225C45.85 0.240225 45.85 0.230225 45.83 0.230225H45.28C45.28 0.230225 45.26 0.230225 45.26 0.240225V0.290225C45.26 0.290225 45.32 0.370225 45.32 0.410225V1.08022L45.34 1.06022Z" stroke="#010101" stroke-width="0.25" stroke-miterlimit="10"/>
<path d="M24.16 2.43018H24.17" stroke="#010101" stroke-width="0.25" stroke-miterlimit="10"/>
<path d="M44.51 0.190186H44.5L44.49 0.250186L44.5 0.270186H44.52L44.57 0.250186H45.09V0.260186H45.11L45.15 0.250186H45.22C45.22 0.250186 45.23 0.250186 45.23 0.240186V0.210186C45.23 0.210186 45.23 0.200186 45.22 0.200186H44.51V0.190186Z" stroke="#010101" stroke-width="0.25" stroke-miterlimit="10"/>
<path d="M44.85 2.06004C44.85 2.06004 44.87 2.00004 44.89 1.99004V1.97004L44.84 1.80004H44.83L44.42 1.79004C44.42 1.79004 44.4 1.79004 44.4 1.80004V2.06004C44.4 2.06004 44.4 2.07004 44.41 2.07004H44.83C44.83 2.07004 44.84 2.07004 44.84 2.06004" stroke="#010101" stroke-width="0.25" stroke-miterlimit="10"/>
<path d="M43.79 2.97021H43.83" stroke="#010101" stroke-width="0.25" stroke-miterlimit="10"/>
<path d="M24.17 2.43014V2.39014" stroke="#010101" stroke-width="0.25" stroke-miterlimit="10"/>
<path d="M46.08 3.3101L46.05 3.2601V3.2401H46.07C46.07 3.2401 46.09 3.2401 46.09 3.2301V3.1101C46.09 3.1101 46.09 3.1001 46.08 3.1001H45.93C45.93 3.1001 45.92 3.1001 45.92 3.1101V3.3201H45.93V3.3501H45.94L45.97 3.3201H46.09L46.08 3.3101Z" stroke="#010101" stroke-width="0.25" stroke-miterlimit="10"/>
<path d="M46.07 2.59013V2.14013C46.07 2.14013 46.07 2.13013 46.06 2.13013H45.9C45.9 2.13013 45.88 2.13013 45.88 2.14013V2.59013C45.88 2.59013 45.88 2.60013 45.9 2.60013H46.06C46.06 2.60013 46.07 2.60013 46.07 2.59013Z" stroke="#010101" stroke-width="0.25" stroke-miterlimit="10"/>
<path d="M44.02 2.37014V2.34014C44.02 2.34014 44 2.33014 43.99 2.34014H43.97C43.97 2.34014 43.96 2.36014 43.97 2.36014V2.39014C43.97 2.39014 43.96 2.46014 43.98 2.47014C44 2.49014 44.03 2.48014 44.05 2.46014C44.07 2.44014 44.06 2.41014 44.04 2.39014C44.04 2.39014 44.04 2.39014 44.03 2.39014L44.02 2.37014Z" stroke="#010101" stroke-width="0.25" stroke-miterlimit="10"/>
<path d="M24.17 2.78003C24.17 2.78003 24.15 2.82003 24.13 2.82003" stroke="#010101" stroke-width="0.25" stroke-miterlimit="10"/>
<path d="M46.07 2.07007V1.58007C46.07 1.58007 46.07 1.57007 46.06 1.57007H45.91H45.9V2.08007C45.9 2.08007 45.9 2.09007 45.91 2.09007H46.07C46.07 2.09007 46.08 2.09007 46.08 2.08007" stroke="#010101" stroke-width="0.25" stroke-miterlimit="10"/>
<path d="M45.9 3.02016H46.06C46.06 3.02016 46.07 3.02016 46.07 3.01016V2.67016C46.07 2.67016 46.07 2.66016 46.06 2.66016H45.9C45.9 2.66016 45.88 2.66016 45.88 2.67016V3.01016C45.88 3.01016 45.88 3.02016 45.9 3.02016Z" stroke="#010101" stroke-width="0.25" stroke-miterlimit="10"/>
<path d="M43.46 2.82007V2.84007" stroke="#010101" stroke-width="0.25" stroke-miterlimit="10"/>
<path d="M33.77 3.0802H33.79V2.96021H33.41V3.0702H33.43L33.76 3.0802H33.77Z" stroke="#010101" stroke-width="0.25" stroke-miterlimit="10"/>
<path d="M24.17 2.78023V2.74023" stroke="#010101" stroke-width="0.25" stroke-miterlimit="10"/>
<path d="M44.32 2.04022C44.32 2.04022 44.34 2.04022 44.34 2.03022V1.99022C44.34 1.99022 44.34 1.98022 44.33 1.98022H43.31C43.31 1.98022 43.28 1.99022 43.28 2.01022V2.17022C43.28 2.17022 43.28 2.18022 43.29 2.18022H43.31C43.31 2.18022 43.32 2.18022 43.32 2.17022H43.88C43.88 2.17022 43.9 2.17022 43.9 2.18022V2.95022C43.9 2.95022 43.94 3.03022 43.98 3.03022H44.12C44.12 3.03022 44.15 3.04022 44.15 3.06022V3.16022C44.15 3.16022 44.14 3.19022 44.12 3.19022H43.96C43.96 3.19022 43.93 3.16022 43.92 3.17022C43.91 3.17022 43.9 3.19022 43.9 3.20022V3.24022C43.9 3.24022 43.9 3.25022 43.92 3.25022H44.95C44.95 3.25022 44.97 3.25022 44.97 3.24022V3.18022C44.97 3.18022 44.97 3.17022 44.98 3.17022H45.02C45.02 3.17022 45.04 3.17022 45.04 3.18022V3.20022H45.07L45.19 3.13022V3.11022C45.19 3.11022 45.19 3.10022 45.18 3.10022H45.11L45.09 3.12022H45.07L45.02 3.10022H44.97C44.97 3.10022 44.96 3.10022 44.96 3.09022V2.73022C44.96 2.73022 44.94 2.66022 44.9 2.65022L44.6 2.54022V2.25022C44.6 2.25022 44.6 2.24022 44.61 2.24022H45.07C45.07 2.24022 45.08 2.24022 45.08 2.23022V2.21022L45.02 2.10022H45.01H44.98H44.97V2.13022L44.99 2.15022V2.18022H44.44C44.44 2.18022 44.42 2.18022 44.42 2.19022C44.42 2.19022 44.42 2.21022 44.41 2.21022H44.36C44.36 2.21022 44.35 2.21022 44.35 2.20022V2.07022L44.32 2.04022Z" stroke="#010101" stroke-width="0.25" stroke-miterlimit="10"/>
<path d="M43.4401 2.15015V2.21015" stroke="#010101" stroke-width="0.25" stroke-miterlimit="10"/>
<path d="M24.13 2.3501H23.92" stroke="#010101" stroke-width="0.25" stroke-miterlimit="10"/>
<path d="M43.41 2.39011L43.44 2.36011" stroke="#010101" stroke-width="0.25" stroke-miterlimit="10"/>
<path d="M43.7 2.77002C43.7 2.77002 43.68 2.82002 43.65 2.82002" stroke="#010101" stroke-width="0.25" stroke-miterlimit="10"/>
<path d="M43.4 2.43018H43.41" stroke="#010101" stroke-width="0.25" stroke-miterlimit="10"/>
<path d="M24.17 2.74023H24.16" stroke="#010101" stroke-width="0.25" stroke-miterlimit="10"/>
<path d="M23.88 2.77015V2.40015" stroke="#010101" stroke-width="0.25" stroke-miterlimit="10"/>
<path d="M43.4 2.39014V2.43014" stroke="#010101" stroke-width="0.25" stroke-miterlimit="10"/>
<path d="M43.44 2.82003C43.44 2.82003 43.4 2.80003 43.4 2.78003" stroke="#010101" stroke-width="0.25" stroke-miterlimit="10"/>
<path d="M24.16 2.74023V2.78023" stroke="#010101" stroke-width="0.25" stroke-miterlimit="10"/>
<path d="M23.92 2.82007H24.13" stroke="#010101" stroke-width="0.25" stroke-miterlimit="10"/>
<path d="M43.4 2.74023V2.78023" stroke="#010101" stroke-width="0.25" stroke-miterlimit="10"/>
<path d="M43.6501 2.3501H43.4401" stroke="#010101" stroke-width="0.25" stroke-miterlimit="10"/>
<path d="M23.87 2.4001C23.87 2.4001 23.89 2.3501 23.92 2.3501" stroke="#010101" stroke-width="0.25" stroke-miterlimit="10"/>
<path d="M43.41 2.74023H43.4" stroke="#010101" stroke-width="0.25" stroke-miterlimit="10"/>
<path d="M43.41 2.78023V2.74023" stroke="#010101" stroke-width="0.25" stroke-miterlimit="10"/>
<path d="M25.21 2.32996H43.7701V2.20996H23.8V2.32996H25.21Z" stroke="#010101" stroke-width="0.25" stroke-miterlimit="10"/>
<path d="M25.21 2.96009H43.7701V2.84009H23.8V2.96009H25.21Z" stroke="#010101" stroke-width="0.25" stroke-miterlimit="10"/>
<path d="M3.93002 0.700078H23.05V0.580078H2.52002V0.700078H3.93002Z" stroke="#010101" stroke-width="0.25" stroke-miterlimit="10"/>
<path d="M3.93002 1.33997H23.05V1.21997H2.52002V1.33997H3.93002Z" stroke="#010101" stroke-width="0.25" stroke-miterlimit="10"/>
</g>
<defs>
<clipPath id="clip0_1500_2">
<rect width="46.28" height="3.87" fill="white"/>
</clipPath>
</defs>
</svg>
