<svg width="37" height="4" viewBox="0 0 37 4" fill="none" xmlns="http://www.w3.org/2000/svg">
<g clip-path="url(#clip0_1347_2423)">
<rect width="36.3" height="3.87" fill="white"/>
<path d="M29.33 3.69004C29.4405 3.69004 29.53 3.6005 29.53 3.49004C29.53 3.37958 29.4405 3.29004 29.33 3.29004C29.2195 3.29004 29.13 3.37958 29.13 3.49004C29.13 3.6005 29.2195 3.69004 29.33 3.69004Z" fill="white"/>
<path d="M6.96001 3.69004C7.07047 3.69004 7.16001 3.6005 7.16001 3.49004C7.16001 3.37958 7.07047 3.29004 6.96001 3.29004C6.84955 3.29004 6.76001 3.37958 6.76001 3.49004C6.76001 3.6005 6.84955 3.69004 6.96001 3.69004Z" fill="white"/>
<path d="M12.55 3.69004C12.6604 3.69004 12.75 3.6005 12.75 3.49004C12.75 3.37958 12.6604 3.29004 12.55 3.29004C12.4395 3.29004 12.35 3.37958 12.35 3.49004C12.35 3.6005 12.4395 3.69004 12.55 3.69004Z" fill="white"/>
<path d="M23.73 3.69004C23.8405 3.69004 23.93 3.6005 23.93 3.49004C23.93 3.37958 23.8405 3.29004 23.73 3.29004C23.6196 3.29004 23.53 3.37958 23.53 3.49004C23.53 3.6005 23.6196 3.69004 23.73 3.69004Z" fill="white"/>
<path d="M18.1401 3.69004C18.2505 3.69004 18.3401 3.6005 18.3401 3.49004C18.3401 3.37958 18.2505 3.29004 18.1401 3.29004C18.0296 3.29004 17.9401 3.37958 17.9401 3.49004C17.9401 3.6005 18.0296 3.69004 18.1401 3.69004Z" fill="white"/>
<path d="M10.31 1.46009H10.33V1.34009H9.95996V1.45009H9.97996L10.31 1.46009Z" fill="white"/>
<path d="M18.54 1.57012H18.65V1.62012H18.7C18.7 1.62012 18.77 1.59012 18.77 1.55012V1.27012C18.77 1.27012 18.74 1.21012 18.71 1.21012H18.57C18.57 1.21012 18.55 1.21012 18.55 1.20012V0.570117C18.55 0.570117 18.55 0.560117 18.56 0.560117H18.7C18.7 0.560117 18.76 0.530117 18.76 0.500117V0.440117C18.76 0.440117 18.73 0.380117 18.7 0.380117H17.29C17.29 0.380117 17.26 0.390117 17.26 0.410117V0.570117C17.26 0.570117 17.26 0.580117 17.28 0.580117H17.3C17.3 0.580117 17.31 0.580117 17.31 0.570117V0.620117H2.97001V0.560117C2.97001 0.560117 2.97001 0.580117 2.99001 0.580117H3.01001C3.01001 0.580117 3.02001 0.580117 3.02001 0.570117V0.410117C3.02001 0.410117 3.01001 0.380117 2.99001 0.380117H1.87001C1.87001 0.380117 1.90001 0.370117 1.90001 0.350117L1.86001 0.180117C1.86001 0.170117 1.84001 0.160117 1.83001 0.160117H0.380015C0.380015 0.160117 0.370015 0.160117 0.370015 0.170117V0.420117C0.370015 0.420117 0.370015 0.430117 0.360015 0.430117H0.230015C0.230015 0.430117 0.220015 0.430117 0.210015 0.420117V0.310117C0.210015 0.310117 0.210015 0.300117 0.220015 0.300117H0.240015V0.280117L0.210015 0.230117H0.160015C0.160015 0.230117 0.150015 0.230117 0.150015 0.240117H0.140015V0.940117C0.140015 0.940117 0.180015 1.02012 0.220015 1.02012H0.350015C0.350015 1.02012 0.360015 1.02012 0.360015 1.03012H0.370015V1.50012C0.370015 1.50012 0.370015 1.51012 0.360015 1.51012H0.230015C0.230015 1.51012 0.150015 1.55012 0.150015 1.59012V3.31012C0.150015 3.31012 0.150015 3.32012 0.160015 3.32012H0.190015L0.170015 3.35012H0.160015C0.160015 3.35012 0.170015 3.38012 0.190015 3.38012H0.230015V3.75012H1.39001V3.24012H1.35001V3.19012C1.35001 3.19012 1.34001 3.16012 1.32001 3.16012C1.30001 3.16012 1.29001 3.17012 1.29001 3.19012V3.21012L1.15001 3.28012H1.12001L1.11001 3.25012V3.05012C1.11001 3.05012 1.12001 3.02012 1.14001 3.02012H1.28001C1.28001 3.02012 1.36001 2.98012 1.36001 2.94012V2.68012C1.36001 2.68012 1.36001 2.66012 1.34001 2.66012H1.27001C1.27001 2.66012 1.24001 2.65012 1.24001 2.63012C1.24001 2.63012 1.24001 2.63012 1.26001 2.63012H1.80001C1.80001 2.63012 1.82001 2.63012 1.82001 2.61012V2.45012H1.96001V2.56012H1.94001V2.61012C1.94001 2.61012 1.94001 2.63012 1.96001 2.63012H1.98001C1.98001 2.63012 2.00001 2.63012 2.00001 2.61012V2.43012C2.00001 2.43012 2.00001 2.41012 1.98001 2.41012H1.91001V2.25012C1.91001 2.25012 1.91001 2.23012 1.89001 2.23012H1.26001C1.26001 2.23012 1.24001 2.23012 1.24001 2.25012V2.08012C1.24001 2.08012 1.25001 2.05012 1.27001 2.05012H1.39001C1.39001 2.05012 1.40001 2.05012 1.40001 2.06012V2.08012L1.36001 2.12012V2.14012H1.93001C1.93001 2.14012 1.93001 2.16012 1.94001 2.16012H1.96001C1.96001 2.16012 1.97001 2.16012 1.98001 2.15012V1.73012C1.98001 1.73012 1.97001 1.70012 1.95001 1.70012H1.93001H1.92001H1.85001C1.80001 1.67012 1.77001 1.61012 1.78001 1.55012V1.60012H2.41001C2.41001 1.60012 2.42001 1.60012 2.42001 1.59012H3.04001V1.32012H17.36H17.29V1.59012H17.92C17.92 1.59012 17.92 1.60012 17.93 1.60012H17.81V2.10012H17.99V2.02012H17.89V1.65012H18.51V1.60012H18.56V1.55012C18.57 1.61012 18.55 1.67012 18.5 1.70012L18.2 3.01012C18.2 3.01012 18.22 3.01012 18.23 3.01012L18.43 3.21012H19.05V2.94012H18.98H19.96H25.99V3.05012H26.01L26.34 3.06012H26.36V2.94012H33.37H33.3V3.21012H33.93C33.93 3.21012 33.93 3.22012 33.95 3.22012H34.96V3.72012H36.12V3.35012H36.16C36.16 3.35012 36.19 3.34012 36.19 3.32012H36.17L36.15 3.29012H36.18C36.18 3.29012 36.19 3.29012 36.2 3.27012V1.55012C36.2 1.55012 36.16 1.47012 36.12 1.47012H36C36 1.47012 35.99 1.47012 35.98 1.46012V0.990117C35.98 0.990117 35.98 0.980117 35.99 0.980117H36.12C36.12 0.980117 36.2 0.940117 36.2 0.900117V0.200117C36.2 0.200117 36.2 0.190117 36.19 0.190117H36.14L36.11 0.240117V0.260117H36.12C36.12 0.260117 36.14 0.260117 36.14 0.270117V0.380117C36.14 0.380117 36.14 0.390117 36.12 0.390117H35.99C35.99 0.390117 35.98 0.390117 35.97 0.380117V0.130117C35.97 0.130117 35.97 0.120117 35.96 0.120117H34.52C34.52 0.120117 34.49 0.120117 34.49 0.140117L34.45 0.300117C34.45 0.300117 34.46 0.340117 34.48 0.340117H34.61C34.61 0.340117 34.62 0.340117 34.62 0.330117H35.1L35.17 0.370117H35.19V0.330117H35.26C35.26 0.330117 35.32 0.360117 35.32 0.390117V1.66012C35.32 1.69012 35.29 1.72012 35.26 1.72012H35.19V1.68012H35.17L35.1 1.72012H34.43C34.43 1.72012 34.4 1.70012 34.39 1.72012C34.39 1.72012 34.39 1.73012 34.39 1.74012V1.99012C34.39 1.99012 34.39 1.98012 34.38 1.98012H33.36C33.36 1.98012 33.33 1.99012 33.33 2.01012V2.17012C33.33 2.17012 33.33 2.18012 33.34 2.18012H33.36C33.36 2.18012 33.37 2.18012 33.37 2.17012H33.49V2.23012H18.89V2.17012H19.01C19.01 2.17012 19.01 2.19012 19.02 2.19012H19.04C19.04 2.19012 19.06 2.19012 19.06 2.18012V2.02012C19.06 2.02012 19.05 1.99012 19.03 1.99012H18.01C18.01 1.99012 18 1.99012 18 2.00012V2.04012C18 2.04012 18 2.05012 18.01 2.05012V2.18012C18.01 2.18012 18.01 2.19012 17.99 2.19012H17.94C17.94 2.19012 17.93 2.19012 17.93 2.18012C17.93 2.18012 17.93 2.16012 17.92 2.16012H17.36V2.13012L17.38 2.11012V2.09012H17.36L17.33 2.08012H17.32L17.26 2.19012V2.21012C17.26 2.21012 17.26 2.23012 17.28 2.24012H16.87C16.87 2.24012 16.85 2.24012 16.85 2.26012V2.42012H16.78C16.78 2.42012 16.76 2.42012 16.76 2.44012V2.62012C16.76 2.62012 16.76 2.64012 16.78 2.64012H16.8C16.8 2.64012 16.82 2.64012 16.82 2.62012V2.57012H16.8V2.46012H16.94V2.62012C16.94 2.62012 16.94 2.64012 16.96 2.64012H17.47H17.45C17.45 2.64012 17.39 2.69012 17.39 2.73012V3.09012C17.39 3.09012 17.39 3.10012 17.38 3.10012H17.33L17.28 3.12012H17.26L17.24 3.11012H17.18C17.18 3.11012 17.16 3.11012 17.16 3.12012V3.14012L17.28 3.21012H17.3V3.19012C17.3 3.19012 17.3 3.18012 17.31 3.18012H17.35C17.35 3.18012 17.36 3.18012 17.36 3.19012V3.25012C17.36 3.25012 17.36 3.26012 17.37 3.26012H18.4H18.41" fill="white"/>
<path d="M34.9399 3.22998V3.73998H36.0999V3.36998" stroke="#010101" stroke-width="0.25" stroke-miterlimit="10"/>
<path d="M0.209961 3.36998V3.73998H1.36996V3.22998" stroke="#010101" stroke-width="0.25" stroke-miterlimit="10"/>
<path d="M12.56 3.69004C12.6704 3.69004 12.76 3.6005 12.76 3.49004C12.76 3.37958 12.6704 3.29004 12.56 3.29004C12.4495 3.29004 12.36 3.37958 12.36 3.49004C12.36 3.6005 12.4495 3.69004 12.56 3.69004Z" stroke="#010101" stroke-width="0.25" stroke-miterlimit="10"/>
<path d="M29.34 3.69004C29.4505 3.69004 29.54 3.6005 29.54 3.49004C29.54 3.37958 29.4505 3.29004 29.34 3.29004C29.2296 3.29004 29.14 3.37958 29.14 3.49004C29.14 3.6005 29.2296 3.69004 29.34 3.69004Z" stroke="#010101" stroke-width="0.25" stroke-miterlimit="10"/>
<path d="M23.7399 3.69004C23.8504 3.69004 23.9399 3.6005 23.9399 3.49004C23.9399 3.37958 23.8504 3.29004 23.7399 3.29004C23.6295 3.29004 23.5399 3.37958 23.5399 3.49004C23.5399 3.6005 23.6295 3.69004 23.7399 3.69004Z" stroke="#010101" stroke-width="0.25" stroke-miterlimit="10"/>
<path d="M18.15 3.69004C18.2604 3.69004 18.35 3.6005 18.35 3.49004C18.35 3.37958 18.2604 3.29004 18.15 3.29004C18.0395 3.29004 17.95 3.37958 17.95 3.49004C17.95 3.6005 18.0395 3.69004 18.15 3.69004Z" stroke="#010101" stroke-width="0.25" stroke-miterlimit="10"/>
<path d="M6.96001 3.69004C7.07047 3.69004 7.16001 3.6005 7.16001 3.49004C7.16001 3.37958 7.07047 3.29004 6.96001 3.29004C6.84955 3.29004 6.76001 3.37958 6.76001 3.49004C6.76001 3.6005 6.84955 3.69004 6.96001 3.69004Z" stroke="#010101" stroke-width="0.25" stroke-miterlimit="10"/>
<path d="M33.45 2.81003L33.42 2.78003" stroke="#010101" stroke-width="0.25" stroke-miterlimit="10"/>
<path d="M36.09 2.59013V2.14013C36.09 2.14013 36.09 2.13013 36.07 2.13013H35.91C35.91 2.13013 35.89 2.13013 35.89 2.14013V2.59013C35.89 2.59013 35.89 2.60013 35.91 2.60013H36.07C36.07 2.60013 36.09 2.60013 36.09 2.59013Z" stroke="#010101" stroke-width="0.25" stroke-miterlimit="10"/>
<path d="M2.82996 0.730205V0.710205" stroke="#010101" stroke-width="0.25" stroke-miterlimit="10"/>
<path d="M0.209961 2.07006C0.209961 2.07006 0.209961 2.08006 0.229961 2.08006H0.389961C0.389961 2.08006 0.409961 2.08006 0.409961 2.07006V1.57006L0.399961 1.56006H0.369961H0.239961C0.239961 1.56006 0.219961 1.56006 0.219961 1.57006H0.209961V2.06006V2.07006Z" stroke="#010101" stroke-width="0.25" stroke-miterlimit="10"/>
<path d="M36.09 2.07007V1.58007C36.09 1.58007 36.09 1.57007 36.07 1.57007H35.92H35.91V2.08007C35.91 2.08007 35.91 2.09007 35.93 2.09007H36.09C36.09 2.09007 36.11 2.09007 36.11 2.08007" stroke="#010101" stroke-width="0.25" stroke-miterlimit="10"/>
<path d="M17.74 1.22021V0.710205" stroke="#010101" stroke-width="0.25" stroke-miterlimit="10"/>
<path d="M0.379951 3.02016C0.379951 3.02016 0.399951 3.02016 0.399951 3.01016V2.67016C0.399951 2.67016 0.399951 2.66016 0.379951 2.66016H0.219951C0.219951 2.66016 0.199951 2.66016 0.199951 2.67016H0.209951V3.01016C0.209951 3.01016 0.209951 3.02016 0.229951 3.02016H0.389951H0.379951Z" stroke="#010101" stroke-width="0.25" stroke-miterlimit="10"/>
<path d="M17.91 0.460195C17.91 0.460195 17.97 0.500195 17.97 0.540195V1.3102C17.97 1.3102 17.97 1.3202 17.99 1.3202H18.13C18.19 1.3202 18.23 1.3602 18.23 1.4202V1.5302C18.23 1.5302 18.23 1.5402 18.25 1.5402H18.43C18.43 1.5402 18.45 1.5402 18.45 1.5302C18.45 1.4802 18.48 1.4502 18.52 1.4502H18.72C18.72 1.4502 18.74 1.4502 18.74 1.4402V1.2902C18.74 1.2902 18.74 1.2802 18.72 1.2802H18.6C18.6 1.2802 18.51 1.2402 18.51 1.2002V0.570195C18.51 0.570195 18.55 0.490195 18.6 0.490195H18.72C18.72 0.490195 18.74 0.490195 18.74 0.480195V0.460195C18.74 0.460195 18.74 0.450195 18.72 0.450195H17.94C17.94 0.450195 17.92 0.450195 17.92 0.460195L17.93 0.490195L17.91 0.460195Z" stroke="#010101" stroke-width="0.25" stroke-miterlimit="10"/>
<path d="M1.82004 1.72012C1.77004 1.69012 1.74004 1.63012 1.75004 1.57012V1.62012H2.38004C2.38004 1.62012 2.40004 1.62012 2.40004 1.61012V1.57012C2.40004 1.57012 2.39004 1.54012 2.37004 1.54012C2.36004 1.54012 2.35004 1.54012 2.34004 1.56012H2.18004C2.18004 1.56012 2.15004 1.56012 2.15004 1.54012V1.44012C2.15004 1.44012 2.16004 1.41012 2.18004 1.41012H2.32004C2.32004 1.41012 2.41004 1.37012 2.41004 1.33012V0.560117C2.41004 0.560117 2.41004 0.550117 2.43004 0.550117H2.99004C2.99004 0.550117 2.99004 0.570117 3.01004 0.570117H3.03004C3.03004 0.570117 3.05004 0.570117 3.05004 0.560117V0.400117C3.05004 0.400117 3.04004 0.370117 3.02004 0.370117H1.61004C1.61004 0.370117 1.54004 0.400117 1.54004 0.430117V0.490117C1.54004 0.490117 1.57004 0.550117 1.61004 0.550117H1.75004C1.75004 0.550117 1.77004 0.550117 1.77004 0.560117V1.19012C1.77004 1.19012 1.77004 1.20012 1.75004 1.20012H1.61004C1.61004 1.20012 1.54004 1.23012 1.54004 1.26012V1.54012C1.54004 1.54012 1.57004 1.61012 1.61004 1.61012H1.65004V1.56012C1.66004 1.62012 1.64004 1.68012 1.59004 1.71012" stroke="#010101" stroke-width="0.25" stroke-miterlimit="10"/>
<path d="M2.37995 0.460166H2.38995V0.430166C2.38995 0.430166 2.38995 0.420166 2.36995 0.420166H1.58995C1.58995 0.420166 1.56995 0.420166 1.56995 0.430166V0.450166C1.56995 0.450166 1.56995 0.460166 1.58995 0.460166H1.70995C1.70995 0.460166 1.79995 0.500166 1.79995 0.540166V1.17017C1.79995 1.17017 1.75995 1.25017 1.70995 1.25017H1.58995C1.58995 1.25017 1.56995 1.25017 1.56995 1.26017V1.41017C1.56995 1.41017 1.56995 1.42017 1.58995 1.42017H1.78995C1.78995 1.42017 1.85995 1.45017 1.85995 1.49017C1.85995 1.49017 1.85995 1.52017 1.87995 1.52017H2.05995C2.05995 1.52017 2.07995 1.52017 2.07995 1.51017V1.40017C2.07995 1.34017 2.11995 1.30017 2.17995 1.30017H2.31995C2.31995 1.30017 2.33995 1.30017 2.33995 1.29017V0.520166C2.33995 0.520166 2.35995 0.450166 2.39995 0.440166" stroke="#010101" stroke-width="0.25" stroke-miterlimit="10"/>
<path d="M17.41 0.810234V0.770234C17.41 0.770234 17.43 0.740234 17.45 0.740234H17.66C17.66 0.740234 17.7 0.760234 17.7 0.780234" stroke="#010101" stroke-width="0.25" stroke-miterlimit="10"/>
<path d="M2.58997 0.590029V0.530029" stroke="#010101" stroke-width="0.25" stroke-miterlimit="10"/>
<path d="M17.7 1.14014C17.7 1.14014 17.68 1.18014 17.66 1.18014H17.45C17.45 1.18014 17.42 1.17014 17.42 1.15014" stroke="#010101" stroke-width="0.25" stroke-miterlimit="10"/>
<path d="M2.64998 1.09003V0.790029L2.59998 0.780029V1.15003C2.59998 1.15003 2.64998 1.13003 2.64998 1.10003" stroke="#010101" stroke-width="0.25" stroke-miterlimit="10"/>
<path d="M17.7 1.14002V0.77002H17.66L17.65 0.82002V1.09002C17.65 1.09002 17.67 1.14002 17.7 1.14002Z" stroke="#010101" stroke-width="0.25" stroke-miterlimit="10"/>
<path d="M17.9 0.540039H17.79V1.35004H17.83L17.9 1.29004" stroke="#010101" stroke-width="0.25" stroke-miterlimit="10"/>
<path d="M1.58997 1.57002H1.79997V1.52002H1.58997V1.57002Z" stroke="#010101" stroke-width="0.25" stroke-miterlimit="10"/>
<path d="M2.29003 1.49009L2.19003 1.40009C2.19003 1.40009 2.17003 1.40009 2.16003 1.40009C2.16003 1.40009 2.16003 1.42009 2.16003 1.43009L2.29003 1.55009V1.53009H2.39003V1.61009H3.02003V1.34009H2.95003V1.54009H2.44003V1.52009C2.44003 1.52009 2.41003 1.49009 2.39003 1.49009H2.30003H2.29003Z" stroke="#010101" stroke-width="0.25" stroke-miterlimit="10"/>
<path d="M18 1.55008L18.13 1.43008C18.13 1.43008 18.13 1.41008 18.13 1.40008C18.13 1.40008 18.11 1.40008 18.1 1.40008L18 1.49008H17.91C17.91 1.49008 17.87 1.49008 17.87 1.51008V1.53008H17.35V1.33008H17.28V1.60008H17.91V1.52008H17.99V1.54008L18 1.55008Z" stroke="#010101" stroke-width="0.25" stroke-miterlimit="10"/>
<path d="M18.5 1.57002H18.71V1.52002H18.5V1.57002Z" stroke="#010101" stroke-width="0.25" stroke-miterlimit="10"/>
<path d="M2.46997 1.35004V0.540039" stroke="#010101" stroke-width="0.25" stroke-miterlimit="10"/>
<path d="M17.83 0.540039V1.35004" stroke="#010101" stroke-width="0.25" stroke-miterlimit="10"/>
<path d="M2.39001 1.29004L2.46001 1.35004H2.50001V0.540039H2.39001" stroke="#010101" stroke-width="0.25" stroke-miterlimit="10"/>
<path d="M2.96997 0.530029V0.590029" stroke="#010101" stroke-width="0.25" stroke-miterlimit="10"/>
<path d="M17.33 0.590029V0.530029" stroke="#010101" stroke-width="0.25" stroke-miterlimit="10"/>
<path d="M33.84 2.97016L33.91 2.91016" stroke="#010101" stroke-width="0.25" stroke-miterlimit="10"/>
<path d="M17.47 1.19019V1.21019" stroke="#010101" stroke-width="0.25" stroke-miterlimit="10"/>
<path d="M18.51 2.16016H18.4" stroke="#010101" stroke-width="0.25" stroke-miterlimit="10"/>
<path d="M33.8 2.16016V2.97016" stroke="#010101" stroke-width="0.25" stroke-miterlimit="10"/>
<path d="M18.51 2.97016V2.16016" stroke="#010101" stroke-width="0.25" stroke-miterlimit="10"/>
<path d="M18.47 2.97021H18.51" stroke="#010101" stroke-width="0.25" stroke-miterlimit="10"/>
<path d="M33.83 2.16016V2.97016" stroke="#010101" stroke-width="0.25" stroke-miterlimit="10"/>
<path d="M17.41 1.12022V1.16022C17.41 1.16022 17.42 1.20022 17.45 1.20022H17.66C17.66 1.20022 17.71 1.18022 17.71 1.15022V0.780225C17.71 0.780225 17.69 0.730225 17.66 0.730225H17.45C17.45 0.730225 17.41 0.750225 17.41 0.770225" stroke="#010101" stroke-width="0.25" stroke-miterlimit="10"/>
<path d="M18.1801 3.0502L18.3101 3.17021V3.15021H18.4101V3.23021H19.0401V2.96021H18.9701V3.16021H18.4601V3.14021C18.4601 3.14021 18.4301 3.1102 18.4101 3.1102H18.3201L18.2201 3.03021C18.2201 3.03021 18.2001 3.03021 18.1901 3.03021C18.1901 3.03021 18.1901 3.0502 18.1901 3.0602" stroke="#010101" stroke-width="0.25" stroke-miterlimit="10"/>
<path d="M34.04 2.37014V2.34014C34.04 2.34014 34.02 2.33014 34.01 2.34014H33.99C33.99 2.34014 33.98 2.36014 33.99 2.36014V2.39014V2.40014C33.97 2.42014 33.98 2.45014 34 2.47014C34.02 2.49014 34.05 2.48014 34.07 2.46014C34.09 2.44014 34.08 2.41014 34.06 2.39014C34.06 2.39014 34.06 2.39014 34.05 2.39014L34.04 2.37014Z" stroke="#010101" stroke-width="0.25" stroke-miterlimit="10"/>
<path d="M18.27 2.37008C18.27 2.37008 18.23 2.42008 18.24 2.44008C18.25 2.46008 18.28 2.48008 18.3 2.47008C18.33 2.47008 18.34 2.43008 18.33 2.41008C18.33 2.41008 18.33 2.41008 18.33 2.40008V2.35008V2.33008H18.31H18.29V2.36008L18.27 2.37008Z" stroke="#010101" stroke-width="0.25" stroke-miterlimit="10"/>
<path d="M18.98 2.16021C18.98 2.16021 18.98 2.17021 19 2.17021H19.02C19.02 2.17021 19.04 2.17021 19.04 2.16021V2.00021C19.04 2.00021 19.03 1.97021 19.01 1.97021H17.99C17.99 1.97021 17.97 1.97021 17.97 1.98021V2.02021C17.97 2.02021 17.97 2.03021 17.99 2.03021V2.16021C17.99 2.16021 17.99 2.17021 17.97 2.17021H17.92C17.92 2.17021 17.9 2.17021 17.9 2.16021C17.9 2.16021 17.9 2.14021 17.88 2.14021H17.32V2.11021L17.34 2.09021V2.07021H17.32L17.29 2.06021H17.28L17.22 2.17021V2.19021C17.22 2.19021 17.22 2.20021 17.24 2.20021H17.7C17.7 2.20021 17.72 2.20021 17.72 2.21021V2.49021L17.42 2.61021C17.39 2.62021 17.36 2.65021 17.36 2.69021V3.05021C17.36 3.05021 17.36 3.06021 17.34 3.06021H17.29L17.24 3.08021H17.22L17.2 3.07021H17.14C17.14 3.07021 17.12 3.07021 17.12 3.08021V3.10021L17.24 3.17021H17.27V3.15021C17.27 3.15021 17.27 3.14021 17.29 3.14021H17.33C17.33 3.14021 17.35 3.14021 17.35 3.15021V3.21021C17.35 3.21021 17.35 3.22021 17.37 3.22021H18.4C18.4 3.22021 18.42 3.22021 18.42 3.21021V3.17021C18.42 3.17021 18.41 3.14021 18.39 3.14021C18.38 3.14021 18.37 3.14021 18.36 3.16021H18.35H18.2C18.18 3.16021 18.17 3.15021 18.17 3.13021V3.03021C18.17 3.03021 18.18 3.00021 18.2 3.00021H18.34C18.34 3.00021 18.43 2.96021 18.43 2.92021V2.15021C18.43 2.15021 18.43 2.14021 18.45 2.14021H19.01L18.98 2.16021Z" stroke="#010101" stroke-width="0.25" stroke-miterlimit="10"/>
<path d="M0.209951 2.59013C0.209951 2.59013 0.209951 2.60013 0.229951 2.60013H0.389951C0.389951 2.60013 0.409951 2.60013 0.409951 2.59013H0.399951V2.14013C0.399951 2.14013 0.399951 2.13013 0.379951 2.13013H0.219951C0.219951 2.13013 0.199951 2.13013 0.199951 2.14013V2.59013H0.209951Z" stroke="#010101" stroke-width="0.25" stroke-miterlimit="10"/>
<path d="M17.7 0.530029V0.590029" stroke="#010101" stroke-width="0.25" stroke-miterlimit="10"/>
<path d="M2.43005 0.430166V0.450166C2.43005 0.450166 2.43005 0.460166 2.45005 0.460166H2.94005C2.94005 0.460166 2.96005 0.460166 2.96005 0.450166V0.430166C2.96005 0.430166 2.96005 0.420166 2.94005 0.420166H2.45005C2.45005 0.420166 2.43005 0.420166 2.43005 0.430166Z" stroke="#010101" stroke-width="0.25" stroke-miterlimit="10"/>
<path d="M17.86 0.430166C17.86 0.430166 17.86 0.420166 17.84 0.420166H17.35C17.35 0.420166 17.33 0.420166 17.33 0.430166V0.450166C17.33 0.450166 17.33 0.460166 17.35 0.460166H17.84C17.84 0.460166 17.86 0.460166 17.86 0.450166V0.430166Z" stroke="#010101" stroke-width="0.25" stroke-miterlimit="10"/>
<path d="M18.83 2.35008V2.33008" stroke="#010101" stroke-width="0.25" stroke-miterlimit="10"/>
<path d="M33.7 2.77021C33.7 2.77021 33.65 2.75021 33.65 2.72021" stroke="#010101" stroke-width="0.25" stroke-miterlimit="10"/>
<path d="M18.66 2.72021C18.66 2.72021 18.64 2.77021 18.61 2.77021" stroke="#010101" stroke-width="0.25" stroke-miterlimit="10"/>
<path d="M18.66 2.4502V2.7202" stroke="#010101" stroke-width="0.25" stroke-miterlimit="10"/>
<path d="M33.71 2.77002C33.71 2.77002 33.69 2.82002 33.66 2.82002" stroke="#010101" stroke-width="0.25" stroke-miterlimit="10"/>
<path d="M18.85 2.21015V2.15015" stroke="#010101" stroke-width="0.25" stroke-miterlimit="10"/>
<path d="M18.86 2.3501C18.86 2.3501 18.9 2.3701 18.9 2.3901" stroke="#010101" stroke-width="0.25" stroke-miterlimit="10"/>
<path d="M33.75 2.84008V2.33008" stroke="#010101" stroke-width="0.25" stroke-miterlimit="10"/>
<path d="M18.5601 2.33008V2.84008" stroke="#010101" stroke-width="0.25" stroke-miterlimit="10"/>
<path d="M2.55005 0.700195V1.2102" stroke="#010101" stroke-width="0.25" stroke-miterlimit="10"/>
<path d="M18.89 2.39014V2.43014" stroke="#010101" stroke-width="0.25" stroke-miterlimit="10"/>
<path d="M33.45 2.36011H33.66" stroke="#010101" stroke-width="0.25" stroke-miterlimit="10"/>
<path d="M2.59997 0.780225C2.59997 0.780225 2.61997 0.740225 2.63997 0.740225H2.84997C2.84997 0.740225 2.87997 0.750225 2.87997 0.770225V0.810225L2.88997 0.770225C2.88997 0.750225 2.86997 0.730225 2.84997 0.730225H2.63997C2.63997 0.730225 2.58997 0.750225 2.58997 0.780225V1.15022C2.58997 1.15022 2.60997 1.20022 2.63997 1.20022H2.84997C2.84997 1.20022 2.88997 1.18022 2.88997 1.16022M2.88997 1.16022V1.12022M2.88997 1.16022C2.88997 1.16022 2.86997 1.19022 2.84997 1.19022H2.63997C2.63997 1.19022 2.59997 1.17022 2.59997 1.15022" stroke="#010101" stroke-width="0.25" stroke-miterlimit="10"/>
<path d="M18.61 2.40011C18.61 2.40011 18.63 2.36011 18.65 2.36011" stroke="#010101" stroke-width="0.25" stroke-miterlimit="10"/>
<path d="M33.7 2.40015V2.77015" stroke="#010101" stroke-width="0.25" stroke-miterlimit="10"/>
<path d="M18.61 2.77015V2.40015" stroke="#010101" stroke-width="0.25" stroke-miterlimit="10"/>
<path d="M18.65 2.82007H18.86" stroke="#010101" stroke-width="0.25" stroke-miterlimit="10"/>
<path d="M33.7 2.77002C33.7 2.77002 33.68 2.81002 33.66 2.81002" stroke="#010101" stroke-width="0.25" stroke-miterlimit="10"/>
<path d="M33.42 2.39011L33.45 2.36011" stroke="#010101" stroke-width="0.25" stroke-miterlimit="10"/>
<path d="M18.73 1.72013C18.68 1.69013 18.65 1.63013 18.66 1.57013V1.62013H18.71C18.71 1.62013 18.78 1.59013 18.78 1.55013V1.27013C18.78 1.27013 18.75 1.21013 18.71 1.21013H18.57C18.57 1.21013 18.55 1.21013 18.55 1.20013V0.570127C18.55 0.570127 18.55 0.560127 18.57 0.560127H18.71C18.71 0.560127 18.78 0.530127 18.78 0.500127V0.440127C18.78 0.440127 18.75 0.380127 18.71 0.380127H17.3C17.3 0.380127 17.27 0.390127 17.27 0.410127V0.570127C17.27 0.570127 17.27 0.580127 17.29 0.580127H17.31C17.31 0.580127 17.33 0.580127 17.33 0.570127H17.89H17.91V1.34013C17.91 1.34013 17.95 1.42013 18 1.42013H18.14C18.14 1.42013 18.17 1.43013 18.17 1.45013V1.55013C18.17 1.55013 18.16 1.58013 18.14 1.58013H17.98C17.98 1.58013 17.95 1.55013 17.94 1.56013C17.93 1.56013 17.92 1.58013 17.92 1.59013V1.63013C17.92 1.63013 17.92 1.64013 17.94 1.64013H18.56V1.59013C18.57 1.65013 18.55 1.71013 18.5 1.74013" stroke="#010101" stroke-width="0.25" stroke-miterlimit="10"/>
<path d="M18.86 2.81006H18.65" stroke="#010101" stroke-width="0.25" stroke-miterlimit="10"/>
<path d="M18.89 2.78003L18.86 2.81003" stroke="#010101" stroke-width="0.25" stroke-miterlimit="10"/>
<path d="M18.86 2.36011L18.89 2.39011" stroke="#010101" stroke-width="0.25" stroke-miterlimit="10"/>
<path d="M18.6 2.40015V2.77015" stroke="#010101" stroke-width="0.25" stroke-miterlimit="10"/>
<path d="M17.47 0.700195V0.720195" stroke="#010101" stroke-width="0.25" stroke-miterlimit="10"/>
<path d="M2.82996 1.2202V1.2002" stroke="#010101" stroke-width="0.25" stroke-miterlimit="10"/>
<path d="M18.89 2.74023V2.78023" stroke="#010101" stroke-width="0.25" stroke-miterlimit="10"/>
<path d="M33.42 2.74023H33.41" stroke="#010101" stroke-width="0.25" stroke-miterlimit="10"/>
<path d="M18.9 2.43014V2.39014" stroke="#010101" stroke-width="0.25" stroke-miterlimit="10"/>
<path d="M33.41 2.74023V2.78023" stroke="#010101" stroke-width="0.25" stroke-miterlimit="10"/>
<path d="M35.92 3.02016H36.08C36.08 3.02016 36.1 3.02016 36.1 3.01016V2.67016C36.1 2.67016 36.1 2.66016 36.08 2.66016H35.92C35.92 2.66016 35.9 2.66016 35.9 2.67016V3.01016C35.9 3.01016 35.9 3.02016 35.92 3.02016Z" stroke="#010101" stroke-width="0.25" stroke-miterlimit="10"/>
<path d="M33.41 2.39014V2.43014" stroke="#010101" stroke-width="0.25" stroke-miterlimit="10"/>
<path d="M18.9 2.78003C18.9 2.78003 18.88 2.82003 18.86 2.82003" stroke="#010101" stroke-width="0.25" stroke-miterlimit="10"/>
<path d="M18.89 2.43018H18.9" stroke="#010101" stroke-width="0.25" stroke-miterlimit="10"/>
<path d="M33.41 2.43018H33.42" stroke="#010101" stroke-width="0.25" stroke-miterlimit="10"/>
<path d="M34.33 2.04022C34.33 2.04022 34.35 2.04022 34.35 2.03022V1.99022C34.35 1.99022 34.35 1.98022 34.33 1.98022H33.31C33.31 1.98022 33.28 1.99022 33.28 2.01022V2.17022C33.28 2.17022 33.28 2.18022 33.29 2.18022H33.31C33.31 2.18022 33.33 2.18022 33.33 2.17022H33.89C33.89 2.17022 33.91 2.17022 33.91 2.18022V2.95022C33.91 2.95022 33.95 3.03022 34 3.03022H34.14C34.14 3.03022 34.17 3.04022 34.17 3.06022V3.16022C34.17 3.16022 34.16 3.19022 34.14 3.19022H33.98C33.98 3.19022 33.95 3.16022 33.94 3.17022C33.93 3.17022 33.92 3.19022 33.92 3.20022V3.24022C33.92 3.24022 33.92 3.25022 33.94 3.25022H34.97C34.97 3.25022 34.99 3.25022 34.99 3.24022V3.18022C34.99 3.18022 34.99 3.17022 35.01 3.17022H35.05C35.05 3.17022 35.07 3.17022 35.07 3.18022V3.20022H35.1L35.22 3.13022V3.11022C35.22 3.11022 35.22 3.10022 35.2 3.10022H35.13L35.11 3.12022H35.09L35.04 3.10022H34.99C34.99 3.10022 34.97 3.10022 34.97 3.09022V2.73022C34.97 2.73022 34.95 2.66022 34.91 2.65022L34.61 2.54022V2.25022C34.61 2.25022 34.61 2.24022 34.63 2.24022H35.09C35.09 2.24022 35.11 2.24022 35.11 2.23022V2.21022L35.05 2.10022H35.04H35.01H34.99V2.13022L35.01 2.15022V2.18022H34.45C34.45 2.18022 34.43 2.18022 34.43 2.19022C34.43 2.19022 34.43 2.21022 34.41 2.21022H34.36C34.36 2.21022 34.34 2.21022 34.34 2.20022V2.07022L34.33 2.04022Z" stroke="#010101" stroke-width="0.25" stroke-miterlimit="10"/>
<path d="M36.1 3.3101L36.07 3.2601V3.2401H36.09C36.09 3.2401 36.11 3.2401 36.11 3.2301V3.1101C36.11 3.1101 36.11 3.1001 36.09 3.1001H35.94C35.94 3.1001 35.92 3.1001 35.92 3.1101V3.3201H35.93V3.3501H35.94L35.97 3.3201H36.09L36.1 3.3101Z" stroke="#010101" stroke-width="0.25" stroke-miterlimit="10"/>
<path d="M33.45 2.82003C33.45 2.82003 33.41 2.80003 33.41 2.78003" stroke="#010101" stroke-width="0.25" stroke-miterlimit="10"/>
<path d="M33.91 2.16016H33.8" stroke="#010101" stroke-width="0.25" stroke-miterlimit="10"/>
<path d="M33.8 2.97021H33.84" stroke="#010101" stroke-width="0.25" stroke-miterlimit="10"/>
<path d="M18.86 2.3501H18.65" stroke="#010101" stroke-width="0.25" stroke-miterlimit="10"/>
<path d="M33.71 2.77015V2.40015" stroke="#010101" stroke-width="0.25" stroke-miterlimit="10"/>
<path d="M18.65 2.81002C18.65 2.81002 18.61 2.79002 18.61 2.77002" stroke="#010101" stroke-width="0.25" stroke-miterlimit="10"/>
<path d="M33.66 2.36011C33.66 2.36011 33.7 2.38011 33.7 2.40011" stroke="#010101" stroke-width="0.25" stroke-miterlimit="10"/>
<path d="M33.48 2.33008V2.35008" stroke="#010101" stroke-width="0.25" stroke-miterlimit="10"/>
<path d="M0.140005 2.02012V3.29012C0.140005 3.29012 0.140005 3.30012 0.160005 3.30012H0.190005L0.170005 3.33012H0.160005C0.160005 3.33012 0.170005 3.36012 0.190005 3.36012H0.380005H1.08L1.32 3.23012V3.17012C1.32 3.17012 1.31 3.14012 1.29 3.14012C1.27 3.14012 1.26 3.15012 1.26 3.17012V3.19012L1.12 3.26012H1.09L1.08 3.23012V3.03012C1.08 3.03012 1.09 3.00012 1.11 3.00012H1.25C1.25 3.00012 1.34 2.96012 1.34 2.92012V2.66012C1.34 2.66012 1.34 2.64012 1.32 2.64012H1.24C1.24 2.64012 1.21 2.63012 1.21 2.61012V2.07012C1.21 2.07012 1.22 2.04012 1.24 2.04012H1.36C1.36 2.04012 1.38 2.04012 1.38 2.05012V2.07012L1.34 2.11012V2.13012H1.92C1.92 2.13012 1.92 2.15012 1.94 2.15012H1.96C1.96 2.15012 1.98 2.15012 1.98 2.14012V1.72012C1.98 1.72012 1.97 1.69012 1.95 1.69012H1.93H1.92H1.27L1.2 1.65012H1.17V1.69012H1.1C1.1 1.69012 1.04 1.66012 1.04 1.63012V0.380117C1.04 0.380117 1.07 0.320117 1.1 0.320117H1.17V0.360117H1.2L1.27 0.320117H1.75C1.75 0.320117 1.75 0.340117 1.77 0.340117H1.9C1.9 0.340117 1.93 0.330117 1.93 0.310117L1.89 0.140117C1.89 0.130117 1.87 0.120117 1.86 0.120117H0.380005C0.380005 0.120117 0.360005 0.120117 0.360005 0.130117H0.370005V0.380117C0.370005 0.380117 0.370005 0.390117 0.350005 0.390117H0.220005C0.220005 0.390117 0.200005 0.390117 0.200005 0.380117V0.270117C0.200005 0.270117 0.200005 0.260117 0.220005 0.260117H0.240005V0.240117L0.210005 0.190117H0.160005C0.160005 0.190117 0.140005 0.190117 0.140005 0.200117V0.900117C0.140005 0.900117 0.180005 0.980117 0.230005 0.980117H0.360005C0.360005 0.980117 0.380005 0.980117 0.380005 0.990117H0.370005V1.46012C0.370005 1.46012 0.370005 1.47012 0.350005 1.47012H0.220005C0.220005 1.47012 0.130005 1.51012 0.130005 1.55012V2.00012L0.140005 2.02012Z" stroke="#010101" stroke-width="0.25" stroke-miterlimit="10"/>
<path d="M18.65 2.82002C18.65 2.82002 18.6 2.80002 18.6 2.77002" stroke="#010101" stroke-width="0.25" stroke-miterlimit="10"/>
<path d="M36.1 0.190117L36.07 0.240117V0.260117H36.08C36.08 0.260117 36.1 0.260117 36.1 0.270117V0.380117C36.1 0.380117 36.1 0.390117 36.08 0.390117H35.95C35.95 0.390117 35.93 0.390117 35.93 0.380117V0.130117C35.93 0.130117 35.93 0.120117 35.91 0.120117H34.47C34.47 0.120117 34.44 0.120117 34.44 0.140117L34.4 0.300117C34.4 0.300117 34.41 0.340117 34.43 0.340117H34.56C34.56 0.340117 34.58 0.340117 34.58 0.330117H35.06L35.13 0.370117H35.16V0.330117H35.23C35.23 0.330117 35.29 0.360117 35.29 0.390117V1.66012C35.29 1.69012 35.26 1.72012 35.23 1.72012H35.16V1.68012H35.13L35.06 1.72012H34.39C34.39 1.72012 34.36 1.70012 34.35 1.72012C34.35 1.72012 34.34 1.73012 34.34 1.74012V2.16012C34.34 2.16012 34.34 2.17012 34.36 2.17012H34.38C34.38 2.17012 34.4 2.17012 34.4 2.16012H34.98V2.14012L34.94 2.10012V2.08012C34.94 2.08012 34.94 2.07012 34.96 2.07012H35.08C35.08 2.07012 35.11 2.08012 35.11 2.10012V2.64012C35.11 2.64012 35.1 2.67012 35.08 2.67012H35C35 2.67012 34.98 2.67012 34.98 2.69012V2.95012C34.98 2.95012 35.02 3.03012 35.07 3.03012H35.21C35.21 3.03012 35.24 3.04012 35.24 3.06012V3.28012H35.2L35.06 3.21012V3.19012C35.06 3.19012 35.05 3.16012 35.03 3.16012C35.01 3.16012 35 3.17012 35 3.19012V3.24012L35.24 3.38012H35.94H36.12C36.14 3.38012 36.15 3.37012 36.15 3.35012H36.13L36.11 3.32012H36.14C36.14 3.32012 36.16 3.32012 36.16 3.30012V1.58012C36.16 1.58012 36.12 1.50012 36.07 1.50012H35.94C35.94 1.50012 35.92 1.50012 35.92 1.49012V1.02012C35.92 1.02012 35.92 1.01012 35.94 1.01012H36.07C36.07 1.01012 36.16 0.970117 36.16 0.930117V0.200117C36.16 0.200117 36.16 0.190117 36.14 0.190117H36.09H36.1Z" stroke="#010101" stroke-width="0.25" stroke-miterlimit="10"/>
<path d="M10.31 1.46009H10.33V1.34009H9.94995V1.45009H9.96995L10.31 1.46009Z" stroke="#010101" stroke-width="0.25" stroke-miterlimit="10"/>
<path d="M33.65 2.7202V2.4502" stroke="#010101" stroke-width="0.25" stroke-miterlimit="10"/>
<path d="M33.42 2.43014V2.39014" stroke="#010101" stroke-width="0.25" stroke-miterlimit="10"/>
<path d="M26.32 3.0802H26.34V2.96021H25.96V3.0702H25.98L26.32 3.0802Z" stroke="#010101" stroke-width="0.25" stroke-miterlimit="10"/>
<path d="M18.9 2.74023H18.89" stroke="#010101" stroke-width="0.25" stroke-miterlimit="10"/>
<path d="M18.83 2.84007V2.82007" stroke="#010101" stroke-width="0.25" stroke-miterlimit="10"/>
<path d="M18.65 2.36011H18.86" stroke="#010101" stroke-width="0.25" stroke-miterlimit="10"/>
<path d="M1.13005 2.65015H0.450054C0.450054 2.65015 0.430054 2.65015 0.430054 2.66015H0.440054V3.28015C0.440054 3.28015 0.440054 3.29015 0.460054 3.29015H1.00005C1.00005 3.29015 1.02005 3.29015 1.02005 3.28015V3.04015C1.02005 2.98015 1.06005 2.94015 1.12005 2.94015H1.26005C1.26005 2.94015 1.28005 2.94015 1.28005 2.93015V2.73015C1.28005 2.73015 1.28005 2.72015 1.26005 2.72015H1.25005C1.25005 2.72015 1.17005 2.70015 1.16005 2.66015H1.15005L1.13005 2.65015Z" stroke="#010101" stroke-width="0.25" stroke-miterlimit="10"/>
<path d="M33.48 2.82007V2.84007" stroke="#010101" stroke-width="0.25" stroke-miterlimit="10"/>
<path d="M18.61 2.40015C18.61 2.40015 18.66 2.42015 18.66 2.45015" stroke="#010101" stroke-width="0.25" stroke-miterlimit="10"/>
<path d="M33.45 2.82007H33.66" stroke="#010101" stroke-width="0.25" stroke-miterlimit="10"/>
<path d="M35.17 2.65015H35.16C35.16 2.65015 35.11 2.72015 35.07 2.72015H35.06C35.06 2.72015 35.04 2.72015 35.04 2.73015V2.93015C35.04 2.93015 35.04 2.94015 35.06 2.94015H35.2C35.26 2.94015 35.3 2.98015 35.3 3.04015V3.28015C35.3 3.28015 35.3 3.29015 35.32 3.29015H35.86C35.86 3.29015 35.88 3.29015 35.88 3.28015V2.66015C35.88 2.66015 35.88 2.65015 35.86 2.65015H35.18H35.17Z" stroke="#010101" stroke-width="0.25" stroke-miterlimit="10"/>
<path d="M33.65 2.45015C33.65 2.45015 33.67 2.40015 33.7 2.40015" stroke="#010101" stroke-width="0.25" stroke-miterlimit="10"/>
<path d="M34.01 3.1702L34.14 3.0502C34.14 3.0502 34.14 3.0302 34.14 3.0202C34.14 3.0202 34.12 3.0202 34.11 3.0202L34.01 3.1102H33.92C33.92 3.1102 33.88 3.1102 33.88 3.1302V3.1502H33.36V2.9502H33.29V3.2202H33.92V3.1402H34V3.1602L34.01 3.1702Z" stroke="#010101" stroke-width="0.25" stroke-miterlimit="10"/>
<path d="M18.48 2.97016V2.16016" stroke="#010101" stroke-width="0.25" stroke-miterlimit="10"/>
<path d="M1.77995 2.56021V2.44021H1.91995V2.55021H1.89995V2.60021C1.89995 2.60021 1.89995 2.62021 1.91995 2.62021H1.93995C1.93995 2.62021 1.95995 2.62021 1.95995 2.60021V2.42021C1.95995 2.42021 1.95995 2.40021 1.93995 2.40021H1.86995V2.24021C1.86995 2.24021 1.86995 2.22021 1.84995 2.22021H1.21995C1.21995 2.22021 1.19995 2.22021 1.19995 2.24021V2.60021C1.19995 2.60021 1.19995 2.62021 1.21995 2.62021H1.75995C1.75995 2.62021 1.77995 2.62021 1.77995 2.60021V2.55021V2.56021Z" stroke="#010101" stroke-width="0.25" stroke-miterlimit="10"/>
<path d="M33.46 2.15015V2.21015" stroke="#010101" stroke-width="0.25" stroke-miterlimit="10"/>
<path d="M33.66 2.81006H33.45" stroke="#010101" stroke-width="0.25" stroke-miterlimit="10"/>
<path d="M33.41 2.3901C33.41 2.3901 33.43 2.3501 33.45 2.3501" stroke="#010101" stroke-width="0.25" stroke-miterlimit="10"/>
<path d="M16.9 2.44021V2.60021C16.9 2.60021 16.9 2.62021 16.92 2.62021H17.46C17.46 2.62021 17.48 2.62021 17.48 2.60021V2.24021C17.48 2.24021 17.48 2.22021 17.46 2.22021H16.83C16.83 2.22021 16.81 2.22021 16.81 2.24021V2.40021H16.74C16.74 2.40021 16.72 2.40021 16.72 2.42021V2.60021C16.72 2.60021 16.72 2.62021 16.74 2.62021H16.76C16.76 2.62021 16.78 2.62021 16.78 2.60021V2.55021H16.76V2.44021H16.9Z" stroke="#010101" stroke-width="0.25" stroke-miterlimit="10"/>
<path d="M17.8 1.62012V2.12012H17.98V2.04012H17.88V1.67012H18.5V1.62012H17.81H17.8Z" stroke="#010101" stroke-width="0.25" stroke-miterlimit="10"/>
<path d="M33.66 2.3501C33.66 2.3501 33.71 2.3701 33.71 2.4001" stroke="#010101" stroke-width="0.25" stroke-miterlimit="10"/>
<path d="M18.9 2.78023V2.74023" stroke="#010101" stroke-width="0.25" stroke-miterlimit="10"/>
<path d="M17.7301 2.59007L17.4301 2.70007V3.12007V3.16007C17.4301 3.16007 17.4301 3.17007 17.4501 3.17007H18.0901C18.0901 3.17007 18.1101 3.17007 18.1101 3.16007V3.05007C18.1101 2.99007 18.1501 2.95007 18.2101 2.95007H18.3501C18.3501 2.95007 18.3701 2.95007 18.3701 2.94007V2.54007L18.3601 2.53007C18.3101 2.55007 18.2501 2.52007 18.2301 2.47007C18.2201 2.43007 18.2301 2.38007 18.2701 2.36007V2.34007C18.2801 2.31007 18.3101 2.29007 18.3501 2.30007H18.3601V2.29007V2.19007C18.3601 2.19007 18.3801 2.12007 18.4201 2.11007H18.4301V2.08007C18.4301 2.08007 18.4301 2.07007 18.4101 2.07007H18.0901C18.0901 2.07007 18.0701 2.07007 18.0701 2.08007V2.20007C18.0701 2.20007 18.0301 2.28007 17.9801 2.28007H17.9301C17.9301 2.28007 17.8801 2.27007 17.8601 2.25007H17.8501H17.8101C17.8101 2.25007 17.7901 2.25007 17.7901 2.26007V2.53007C17.7901 2.53007 17.7701 2.60007 17.7301 2.61007" stroke="#010101" stroke-width="0.25" stroke-miterlimit="10"/>
<path d="M34.58 2.59006C34.58 2.59006 34.52 2.55006 34.52 2.51006V2.24006C34.52 2.24006 34.52 2.23006 34.5 2.23006H34.45C34.45 2.23006 34.41 2.27006 34.38 2.27006H34.33C34.33 2.27006 34.24 2.23006 34.24 2.19006V2.07006C34.24 2.07006 34.24 2.06006 34.22 2.06006H33.9C33.9 2.06006 33.88 2.06006 33.88 2.07006L33.89 2.10006C33.93 2.11006 33.95 2.14006 33.95 2.18006V2.28006L33.96 2.29006C33.99 2.29006 34.03 2.30006 34.04 2.33006V2.35006C34.09 2.38006 34.1 2.44006 34.07 2.49006C34.05 2.53006 34 2.54006 33.96 2.53006H33.95V2.54006V2.94006C33.95 2.94006 33.95 2.95006 33.97 2.95006H34.11C34.17 2.95006 34.21 2.99006 34.21 3.05006V3.16006C34.21 3.16006 34.21 3.17006 34.23 3.17006H34.87C34.87 3.17006 34.89 3.17006 34.89 3.16006V3.08006L34.88 2.72006L34.58 2.60006V2.59006Z" stroke="#010101" stroke-width="0.25" stroke-miterlimit="10"/>
<path d="M1.13006 2.59012V2.28012H1.12006L0.450063 2.12012H0.440063V2.13012V2.59012C0.440063 2.59012 0.440063 2.60012 0.460063 2.60012H1.13006C1.13006 2.60012 1.15006 2.60012 1.15006 2.59012" stroke="#010101" stroke-width="0.25" stroke-miterlimit="10"/>
<path d="M18.4 2.91016L18.47 2.97016" stroke="#010101" stroke-width="0.25" stroke-miterlimit="10"/>
<path d="M35.17 2.59012C35.17 2.59012 35.17 2.60012 35.19 2.60012H35.86C35.86 2.60012 35.88 2.60012 35.88 2.59012V2.13012L35.87 2.12012L35.2 2.26012H35.19V2.59012H35.17Z" stroke="#010101" stroke-width="0.25" stroke-miterlimit="10"/>
<path d="M1.13005 2.21016V2.08016C1.13005 2.02016 1.17005 1.98016 1.23005 1.98016H1.35005L1.40005 1.81016L1.39005 1.79016H1.20005V1.78016H1.18005L1.14005 1.79016H1.07005C1.00005 1.79016 0.950054 1.74016 0.940054 1.67016H0.930054L0.450054 1.66016C0.450054 1.66016 0.430054 1.66016 0.430054 1.67016V2.06016H0.440054L1.11005 2.22016H1.12005V2.21016H1.13005Z" stroke="#010101" stroke-width="0.25" stroke-miterlimit="10"/>
<path d="M35.17 2.21016L35.18 2.22016L35.85 2.08016H35.86V1.67016C35.86 1.67016 35.86 1.66016 35.84 1.66016H35.34C35.34 1.74016 35.28 1.79016 35.21 1.79016H35.11L35.09 1.78016L35.05 1.79016H34.89V1.81016L34.94 1.97016H34.95L35.05 1.98016C35.11 1.98016 35.15 2.02016 35.15 2.08016V2.21016H35.17Z" stroke="#010101" stroke-width="0.25" stroke-miterlimit="10"/>
<path d="M0.950054 1.60012V1.13012C0.950054 1.13012 0.950054 1.12012 0.930054 1.12012H0.450054C0.450054 1.12012 0.430054 1.12012 0.430054 1.13012V1.60012C0.430054 1.60012 0.430054 1.61012 0.450054 1.61012H0.930054C0.930054 1.61012 0.950054 1.61012 0.950054 1.60012Z" stroke="#010101" stroke-width="0.25" stroke-miterlimit="10"/>
<path d="M18.6 2.4001C18.6 2.4001 18.62 2.3501 18.65 2.3501" stroke="#010101" stroke-width="0.25" stroke-miterlimit="10"/>
<path d="M35.35 1.60012C35.35 1.60012 35.35 1.61012 35.37 1.61012H35.85C35.85 1.61012 35.87 1.61012 35.87 1.60012V1.13012C35.87 1.13012 35.87 1.12012 35.85 1.12012H35.37C35.37 1.12012 35.35 1.12012 35.35 1.13012V1.60012Z" stroke="#010101" stroke-width="0.25" stroke-miterlimit="10"/>
<path d="M0.950063 1.0602V0.380195C0.950063 0.380195 0.970063 0.290195 1.01006 0.270195V0.210195C1.01006 0.210195 1.01006 0.200195 0.990063 0.200195H0.450063C0.450063 0.200195 0.430063 0.200195 0.430063 0.210195V0.390195C0.430063 0.390195 0.390063 0.470195 0.340063 0.470195H0.210063C0.210063 0.470195 0.190063 0.470195 0.190063 0.480195V0.890195C0.190063 0.890195 0.190063 0.900195 0.210063 0.900195H0.340063C0.340063 0.900195 0.430063 0.940195 0.430063 0.980195V1.0302C0.430063 1.0302 0.430063 1.0402 0.450063 1.0402H0.930063C0.930063 1.0402 0.950063 1.0402 0.950063 1.0302" stroke="#010101" stroke-width="0.25" stroke-miterlimit="10"/>
<path d="M35.35 1.06022C35.35 1.06022 35.35 1.07022 35.37 1.07022H35.85C35.85 1.07022 35.87 1.07022 35.87 1.06022V1.01022C35.87 1.01022 35.91 0.930225 35.96 0.930225H36.09C36.09 0.930225 36.11 0.930225 36.11 0.920225V0.510225C36.11 0.510225 36.11 0.500225 36.09 0.500225H35.96C35.96 0.500225 35.87 0.460225 35.87 0.420225V0.240225C35.87 0.240225 35.87 0.230225 35.85 0.230225H35.3C35.3 0.230225 35.28 0.230225 35.28 0.240225V0.290225V0.300225C35.32 0.320225 35.34 0.370225 35.34 0.410225V1.08022L35.35 1.06022Z" stroke="#010101" stroke-width="0.25" stroke-miterlimit="10"/>
<path d="M33.66 2.3501H33.45" stroke="#010101" stroke-width="0.25" stroke-miterlimit="10"/>
<path d="M1.78005 0.190176H1.07005C1.07005 0.190176 1.05005 0.190176 1.05005 0.200176V0.230176C1.05005 0.230176 1.05005 0.240176 1.07005 0.240176H1.18005L1.20005 0.250176L1.24005 0.240176H1.72005L1.77005 0.260176H1.80005V0.240176V0.190176L1.77005 0.180176L1.78005 0.190176Z" stroke="#010101" stroke-width="0.25" stroke-miterlimit="10"/>
<path d="M34.52 0.190186H34.51L34.5 0.250186L34.51 0.270186H34.53L34.58 0.250186H35.1V0.260186H35.12L35.16 0.250186H35.23C35.23 0.250186 35.25 0.250186 35.25 0.240186V0.210186C35.25 0.210186 35.25 0.200186 35.23 0.200186H34.52V0.190186Z" stroke="#010101" stroke-width="0.25" stroke-miterlimit="10"/>
<path d="M1.44003 2.06004C1.44003 2.06004 1.44003 2.07004 1.46003 2.07004M1.46003 2.07004H1.88003C1.88003 2.07004 1.90003 2.07004 1.90003 2.06004V1.80004C1.90003 1.80004 1.90003 1.79004 1.88003 1.79004H1.46003L1.41003 1.98004V2.00004C1.41003 2.00004 1.46003 2.04004 1.46003 2.07004Z" stroke="#010101" stroke-width="0.25" stroke-miterlimit="10"/>
<path d="M34.86 2.06004C34.86 2.06004 34.88 2.00004 34.9 1.99004V1.97004L34.85 1.80004H34.84L34.43 1.79004C34.43 1.79004 34.41 1.79004 34.41 1.80004V2.06004C34.41 2.06004 34.41 2.07004 34.43 2.07004H34.85C34.85 2.07004 34.87 2.07004 34.87 2.06004" stroke="#010101" stroke-width="0.25" stroke-miterlimit="10"/>
<path d="M0.330063 3.3201L0.360063 3.3501H0.370063V3.3201H0.380063V3.1101C0.380063 3.1101 0.380063 3.1001 0.360063 3.1001H0.210063C0.210063 3.1001 0.190063 3.1001 0.190063 3.1101H0.200063V3.2301C0.200063 3.2301 0.200063 3.2401 0.220063 3.2401H0.240063V3.2601L0.210063 3.3101H0.330063V3.3201Z" stroke="#010101" stroke-width="0.25" stroke-miterlimit="10"/>
<path d="M33.42 2.78023V2.74023" stroke="#010101" stroke-width="0.25" stroke-miterlimit="10"/>
<path d="M3.93002 0.700078H17.78V0.580078H2.52002V0.700078H3.93002Z" stroke="#010101" stroke-width="0.25" stroke-miterlimit="10"/>
<path d="M3.93002 1.33997H17.78V1.21997H2.52002V1.33997H3.93002Z" stroke="#010101" stroke-width="0.25" stroke-miterlimit="10"/>
<path d="M19.94 2.96009H33.79V2.84009H18.53V2.96009H19.94Z" stroke="#010101" stroke-width="0.25" stroke-miterlimit="10"/>
<path d="M19.94 2.32996H33.79V2.20996H18.53V2.32996H19.94Z" stroke="#010101" stroke-width="0.25" stroke-miterlimit="10"/>
</g>
<defs>
<clipPath id="clip0_1347_2423">
<rect width="36.3" height="3.87" fill="white"/>
</clipPath>
</defs>
</svg>
