<svg width="44" height="4" viewBox="0 0 44 4" fill="none" xmlns="http://www.w3.org/2000/svg">
<g clip-path="url(#clip0_1347_6830)">
<path d="M5 0.360117V0.310117C5 0.310117 5 0.300117 4.99 0.300117H3.29V0.210117C3.29 0.210117 3.26 0.140117 3.22 0.140117H2.62C2.62 0.140117 2.61 0.140117 2.61 0.150117V0.400117C2.61 0.400117 2.61 0.410117 2.6 0.410117H2.46C2.46 0.410117 2.45 0.410117 2.45 0.400117V0.290117C2.45 0.290117 2.45 0.280117 2.46 0.280117H2.48V0.260117L2.44 0.210117H2.4C2.4 0.210117 2.39 0.210117 2.38 0.220117V2.48012C2.38 2.48012 2.38 2.47012 2.37 2.47012H2.34C2.34 2.47012 2.33 2.47012 2.33 2.48012V2.95012C2.33 2.95012 2.33 2.96012 2.32 2.96012H1.9H1.87H1.47H1.44H1.04H1.01H0.609995H0.579995H0.149995C0.149995 2.96012 0.119995 2.97012 0.119995 2.99012H0.129995V3.30012C0.129995 3.30012 0.139995 3.33012 0.159995 3.33012H1.37C1.37 3.33012 1.4 3.29012 1.42 3.29012C1.43 3.29012 1.44 3.30012 1.44 3.31012H1.46L2.65 3.32012C2.68 3.32012 2.7 3.31012 2.71 3.28012L2.85 3.04012V3.02012L2.84 3.01012H3.12C3.33 3.01012 3.54 2.97012 3.73 2.89012L3.82 2.85012H39.62L39.74 2.89012C39.94 2.97012 40.14 3.01012 40.35 3.01012H40.63L40.61 3.02012V3.04012L40.75 3.28012C40.76 3.30012 40.79 3.32012 40.81 3.32012H42.02C42.02 3.32012 42.05 3.28012 42.07 3.28012C42.08 3.28012 42.09 3.29012 42.09 3.30012H42.11L43.3 3.31012C43.32 3.31012 43.33 3.30012 43.33 3.28012V2.97012C43.33 2.97012 43.32 2.94012 43.3 2.94012H42.89H42.86H42.46H42.43H42.03H42H41.6H41.57H41.18C41.18 2.94012 41.16 2.94012 41.16 2.93012V2.46012C41.16 2.46012 41.16 2.45012 41.15 2.45012H41.12C41.12 2.45012 41.1 2.45012 41.1 2.46012V0.200117C41.1 0.200117 41.1 0.190117 41.08 0.190117H41.04L41 0.240117V0.260117H41.02C41.02 0.260117 41.03 0.260117 41.03 0.270117V0.380117C41.03 0.380117 41.03 0.390117 41.02 0.390117H40.89C40.89 0.390117 40.87 0.390117 40.87 0.380117V0.130117C40.87 0.130117 40.87 0.120117 40.86 0.120117H40.26C40.26 0.120117 40.19 0.150117 40.19 0.190117V0.280117H38.49C38.49 0.280117 38.47 0.280117 38.47 0.290117V0.400117H5V0.290117V0.340117V0.360117Z" fill="white"/>
<path d="M3.6 1.43003H4.36C4.36 1.43003 4.37 1.43003 4.38 1.42003V1.27003C4.38 1.27003 4.37 1.24003 4.35 1.24003C4.33 1.24003 4.32 1.25003 4.32 1.27003V1.36003C4.32 1.36003 4.32 1.38003 4.31 1.38003H4.16C4.16 1.38003 4.13 1.37003 4.13 1.35003V1.14003C4.13 1.14003 4.14 1.11003 4.16 1.11003H4.29C4.29 1.11003 4.38 1.07003 4.38 1.02003V0.370029C4.38 0.370029 4.38 0.350029 4.39 0.350029H4.94L4.97 0.370029H4.99C4.99 0.370029 5 0.370029 5 0.350029V0.300029C5 0.300029 5 0.280029 4.99 0.280029H3.44C3.44 0.280029 3.38 0.310029 3.38 0.340029V0.380029H3.43V0.340029H3.48V0.550029H3.43V0.510029H3.38V1.36003C3.38 1.36003 3.41 1.42003 3.44 1.42003H3.48V1.37003H3.44V1.32003H3.65V1.37003H3.61V1.42003L3.6 1.43003Z" stroke="#010101" stroke-width="0.25" stroke-linecap="round" stroke-linejoin="round"/>
<path d="M3.65006 1.2701C3.65006 1.2701 3.71006 1.3001 3.71006 1.3301V1.3601C3.71006 1.3601 3.71006 1.3801 3.72006 1.3801H4.05006C4.05006 1.3801 4.06006 1.3801 4.06006 1.3601V1.1301C4.06006 1.1301 4.10006 1.0401 4.15006 1.0401H4.28006C4.28006 1.0401 4.31006 1.0301 4.31006 1.0101V0.370098C4.31006 0.370098 4.31006 0.350098 4.30006 0.350098H3.55006C3.55006 0.350098 3.54006 0.350098 3.54006 0.370098V0.570098C3.54006 0.570098 3.51006 0.630098 3.48006 0.630098H3.45006C3.45006 0.630098 3.44006 0.630098 3.44006 0.650098V1.2601C3.44006 1.2601 3.44006 1.2801 3.45006 1.2801H3.65006V1.2701Z" stroke="#010101" stroke-width="0.25" stroke-linecap="round" stroke-linejoin="round"/>
<path d="M39.9 1.43004V1.38004H39.86V1.33004H40.07V1.38004H40.03V1.43004H40.07C40.07 1.43004 40.13 1.40004 40.13 1.37004V0.520039H40.08V0.560039H40.03V0.350039H40.08V0.390039H40.13V0.350039C40.13 0.350039 40.1 0.290039 40.07 0.290039H38.52C38.52 0.290039 38.5 0.290039 38.5 0.300039V0.360039C38.5 0.360039 38.5 0.380039 38.51 0.380039H38.53L38.56 0.360039H39.11C39.11 0.360039 39.13 0.360039 39.13 0.370039V1.01004C39.13 1.01004 39.17 1.10004 39.22 1.10004H39.35C39.35 1.10004 39.38 1.11004 39.38 1.13004V1.34004C39.38 1.34004 39.37 1.37004 39.35 1.37004H39.2C39.2 1.37004 39.18 1.37004 39.18 1.36004V1.27004C39.18 1.27004 39.17 1.24004 39.15 1.24004C39.13 1.24004 39.12 1.25004 39.12 1.27004V1.42004C39.12 1.42004 39.12 1.44004 39.13 1.44004H39.89L39.9 1.43004Z" stroke="#010101" stroke-width="0.25" stroke-linecap="round" stroke-linejoin="round"/>
<path d="M39.8501 1.27009H40.0501C40.0501 1.27009 40.0601 1.27009 40.0601 1.25009V0.640088C40.0601 0.640088 40.0601 0.630088 40.0501 0.620088H40.0201C40.0201 0.620088 39.9601 0.590088 39.9601 0.560088V0.360088C39.9601 0.360088 39.9601 0.340088 39.9501 0.340088H39.2001C39.2001 0.340088 39.1801 0.340088 39.1801 0.350088V0.990088C39.1801 0.990088 39.1901 1.02009 39.2101 1.02009H39.3401C39.3401 1.02009 39.4301 1.06009 39.4301 1.11009V1.34009C39.4301 1.34009 39.4301 1.36009 39.4501 1.36009H39.7801C39.7801 1.36009 39.7901 1.36009 39.7901 1.34009V1.31009C39.7901 1.31009 39.8201 1.25009 39.8501 1.25009" stroke="#010101" stroke-width="0.25" stroke-linecap="round" stroke-linejoin="round"/>
<path d="M39.2 1.20011H39.13C39.13 1.20011 39.09 1.22011 39.09 1.24011V1.28011C38.9 1.28011 38.71 1.24011 38.53 1.17011C38.52 1.17011 38.51 1.17011 38.5 1.18011C38.5 1.19011 38.5 1.20011 38.51 1.21011C38.7 1.29011 38.9 1.32011 39.1 1.32011C39.11 1.32011 39.12 1.32011 39.12 1.30011V1.24011H39.19L39.33 1.14011V1.11011H39.32H39.31L39.2 1.20011Z" stroke="#010101" stroke-width="0.25" stroke-linecap="round" stroke-linejoin="round"/>
<path d="M4.42005 1.28011V1.24011C4.42005 1.24011 4.40005 1.20011 4.38005 1.20011H4.31005L4.20005 1.11011H4.19005H4.18005V1.14011L4.32005 1.25011H4.33005L4.39005 1.24011V1.30011C4.39005 1.30011 4.39005 1.32011 4.41005 1.32011C4.61005 1.32011 4.82005 1.29011 5.00005 1.21011C5.01005 1.21011 5.01005 1.19011 5.01005 1.18011C5.01005 1.18011 4.99005 1.17011 4.98005 1.17011C4.80005 1.24011 4.61005 1.28011 4.42005 1.28011Z" stroke="#010101" stroke-width="0.25" stroke-linecap="round" stroke-linejoin="round"/>
<path d="M40.33 2.98007C40.14 2.98007 39.95 2.94007 39.77 2.87007C39.76 2.87007 39.75 2.87007 39.74 2.88007C39.74 2.89007 39.74 2.90007 39.75 2.91007C39.94 2.99007 40.14 3.02007 40.34 3.02007C40.35 3.02007 40.36 3.02007 40.36 3.00007V2.94007H40.41L40.43 2.96007L40.57 2.85007V2.82007H40.56H40.55L40.44 2.91007H40.37C40.37 2.91007 40.33 2.93007 40.33 2.95007V2.99007V2.98007Z" stroke="#010101" stroke-width="0.25" stroke-linecap="round" stroke-linejoin="round"/>
<path d="M3.05004 2.90006L2.94004 2.81006H2.93004H2.92004V2.84006L3.06004 2.95006V2.93006H3.13004V2.99006C3.13004 2.99006 3.13004 3.01006 3.15004 3.01006C3.35004 3.01006 3.56004 2.98006 3.74004 2.90006C3.75004 2.90006 3.75004 2.88006 3.75004 2.87006C3.75004 2.87006 3.73004 2.86006 3.72004 2.86006C3.54004 2.93006 3.35004 2.97006 3.16004 2.97006V2.93006C3.16004 2.93006 3.14004 2.89006 3.12004 2.89006H3.05004V2.90006Z" stroke="#010101" stroke-width="0.25" stroke-linecap="round" stroke-linejoin="round"/>
<path d="M40.15 2.24998V2.73998H39.88V2.65998H39.86V2.72998C39.86 2.72998 39.87 2.74998 39.89 2.74998H40.15C40.15 2.74998 40.17 2.73998 40.17 2.72998V2.24998C40.17 2.24998 40.16 2.22998 40.15 2.22998H39.89C39.89 2.22998 39.87 2.23998 39.86 2.24998V2.31998H39.88V2.24998H40.15Z" stroke="#010101" stroke-width="0.25" stroke-linecap="round" stroke-linejoin="round"/>
<path d="M3.62996 2.66999V2.73999H3.35996V2.24999H3.62996V2.32999H3.64996V2.25999C3.64996 2.25999 3.63996 2.23999 3.61996 2.23999H3.35996C3.35996 2.23999 3.33996 2.24999 3.32996 2.25999V2.73999C3.32996 2.73999 3.33996 2.75999 3.35996 2.75999H3.61996C3.61996 2.75999 3.63996 2.74999 3.64996 2.73999V2.66999H3.62996Z" stroke="#010101" stroke-width="0.25" stroke-linecap="round" stroke-linejoin="round"/>
<path d="M40.15 2.73001C40.15 2.73001 40.11 2.72001 40.11 2.70001V2.29001C40.11 2.29001 40.13 2.26001 40.15 2.26001" stroke="#010101" stroke-width="0.25" stroke-linecap="round" stroke-linejoin="round"/>
<path d="M3.34998 2.25C3.34998 2.25 3.38998 2.26 3.38998 2.28V2.69C3.38998 2.69 3.36998 2.72 3.34998 2.72" stroke="#010101" stroke-width="0.25" stroke-linecap="round" stroke-linejoin="round"/>
<path d="M38.62 0.960029H38.6V1.03003C38.6 1.03003 38.61 1.06003 38.62 1.06003H38.88C38.88 1.06003 38.9 1.05003 38.9 1.03003V0.550029C38.9 0.550029 38.89 0.530029 38.88 0.530029H38.62C38.62 0.530029 38.6 0.540029 38.59 0.550029V0.620029H38.61V0.550029H38.88V1.04003H38.61V0.960029H38.62Z" stroke="#010101" stroke-width="0.25" stroke-linecap="round" stroke-linejoin="round"/>
<path d="M4.59996 0.550039H4.86996V0.630039H4.88996V0.560039C4.88996 0.560039 4.87996 0.540039 4.85996 0.540039H4.59996C4.59996 0.540039 4.57996 0.550039 4.57996 0.560039V1.04004C4.57996 1.04004 4.58996 1.07004 4.59996 1.07004H4.85996C4.85996 1.07004 4.87996 1.06004 4.87996 1.04004V0.970039H4.85996V1.04004H4.58996V0.550039H4.59996Z" stroke="#010101" stroke-width="0.25" stroke-linecap="round" stroke-linejoin="round"/>
<path d="M38.9 0.550049C38.9 0.550049 38.86 0.560049 38.86 0.580049V0.990049C38.86 0.990049 38.88 1.02005 38.9 1.02005" stroke="#010101" stroke-width="0.25" stroke-linecap="round" stroke-linejoin="round"/>
<path d="M4.59998 1.03006C4.59998 1.03006 4.63998 1.02006 4.63998 1.00006V0.590059C4.63998 0.590059 4.61998 0.560059 4.59998 0.560059" stroke="#010101" stroke-width="0.25" stroke-linecap="round" stroke-linejoin="round"/>
<path d="M40.25 2.87003V2.78003H3.25V2.87003H40.24H40.25Z" stroke="#010101" stroke-width="0.25" stroke-linecap="round" stroke-linejoin="round"/>
<path d="M40.25 2.21988V2.12988H3.25V2.21988H40.24H40.25Z" stroke="#010101" stroke-width="0.25" stroke-linecap="round" stroke-linejoin="round"/>
<path d="M4.5 0.509922H38.99V0.419922H4.5V0.509922Z" stroke="#010101" stroke-width="0.25" stroke-linecap="round" stroke-linejoin="round"/>
<path d="M4.5 1.16983H38.99V1.07983H4.5V1.16983Z" stroke="#010101" stroke-width="0.25" stroke-linecap="round" stroke-linejoin="round"/>
<path d="M2.37 2.49021C2.37 2.49021 2.37 2.47021 2.36 2.47021H2.33C2.33 2.47021 2.32 2.47021 2.32 2.49021V2.96021C2.32 2.96021 2.32 2.98021 2.31 2.98021H1.92L1.89 3.00021L1.86 2.98021H1.49L1.46 3.00021L1.43 2.98021H1.06L1.03 3.00021L0.999995 2.98021H0.629995L0.599995 3.00021L0.569995 2.98021H0.149995C0.149995 2.98021 0.119995 2.99021 0.119995 3.01021H0.129995V3.32021C0.129995 3.32021 0.139995 3.35021 0.159995 3.35021H1.37C1.37 3.35021 1.4 3.30021 1.42 3.31021C1.43 3.31021 1.44 3.32021 1.44 3.33021H1.46L2.65 3.34021C2.68 3.34021 2.7 3.33021 2.71 3.30021L2.85 3.06021V3.03021" stroke="#010101" stroke-width="0.25" stroke-linecap="round" stroke-linejoin="round"/>
<path d="M40.66 3.03021L40.64 3.05021V3.07021L40.78 3.31021C40.78 3.31021 40.82 3.35021 40.84 3.35021H42.05C42.05 3.35021 42.08 3.30021 42.1 3.31021C42.11 3.31021 42.12 3.32021 42.12 3.33021H42.14L43.33 3.34021C43.35 3.34021 43.36 3.33021 43.36 3.31021V3.00021C43.36 3.00021 43.35 2.97021 43.33 2.97021H42.96L42.93 2.99021L42.9 2.97021H42.53L42.5 2.99021L42.47 2.97021H42.1L42.07 2.99021L42.04 2.97021H41.67L41.64 2.99021L41.61 2.97021H41.22C41.22 2.97021 41.2 2.97021 41.2 2.96021V2.49021C41.2 2.49021 41.2 2.47021 41.19 2.47021H41.16C41.16 2.47021 41.14 2.47021 41.14 2.48021" stroke="#010101" stroke-width="0.25" stroke-linecap="round" stroke-linejoin="round"/>
<path d="M2.43 2.97013L2.47 2.92013V2.89013H2.45C2.45 2.89013 2.44 2.89013 2.44 2.87013V2.76013C2.44 2.76013 2.44 2.74013 2.45 2.74013H2.57C2.57 2.74013 2.6 2.75013 2.6 2.77013V3.01013C2.6 3.01013 2.6 3.03013 2.61 3.03013H3.12V2.97013C3.12 2.97013 3.11 2.94013 3.09 2.94013C3.07 2.94013 3.06 2.95013 3.06 2.97013H2.9C2.9 2.97013 2.87 2.96013 2.87 2.94013V2.84013C2.87 2.84013 2.88 2.81013 2.9 2.81013H3.03C3.03 2.81013 3.12 2.77013 3.12 2.72013V2.59013C3.12 2.59013 3.11 2.56013 3.09 2.56013H3.02C3.02 2.56013 2.99 2.55013 2.99 2.53013V2.02013C2.99 2.02013 3.02 1.96013 3.05 1.96013H3.13C3.13 1.96013 3.16 1.97013 3.16 1.99013L3.12 2.04013V2.06013H3.7C3.7 2.06013 3.7 2.09013 3.71 2.09013H3.73C3.73 2.09013 3.74 2.09013 3.74 2.07013V1.56013C3.74 1.56013 3.73 1.53013 3.71 1.53013H3.29C3.29 1.53013 3.28 1.53013 3.28 1.51013V1.14013C3.28 1.14013 3.28 1.12013 3.27 1.12013H3.24C3.24 1.12013 3.23 1.12013 3.22 1.13013V1.30013C3.22 1.30013 3.22 1.32013 3.21 1.32013H2.68C2.68 1.32013 2.67 1.32013 2.67 1.30013V0.340127C2.67 0.340127 2.67 0.320127 2.68 0.320127H3.21C3.21 0.320127 3.22 0.320127 3.22 0.340127V0.510127C3.22 0.510127 3.22 0.530127 3.23 0.530127H3.26C3.26 0.530127 3.28 0.530127 3.28 0.520127V0.200127C3.28 0.200127 3.25 0.130127 3.21 0.130127H2.61C2.61 0.130127 2.6 0.130127 2.6 0.150127V0.400127C2.6 0.400127 2.6 0.420127 2.59 0.420127H2.45C2.45 0.420127 2.44 0.420127 2.44 0.400127V0.290127C2.44 0.290127 2.44 0.270127 2.45 0.270127H2.47V0.250127L2.43 0.200127H2.39C2.39 0.200127 2.38 0.200127 2.37 0.210127V2.96013L2.43 2.98013V2.97013Z" stroke="#010101" stroke-width="0.25" stroke-linecap="round" stroke-linejoin="round"/>
<path d="M41.12 2.95012V0.200117C41.12 0.200117 41.12 0.190117 41.1 0.190117H41.06L41.02 0.240117V0.260117H41.04C41.04 0.260117 41.05 0.260117 41.05 0.280117V0.390117C41.05 0.390117 41.05 0.410117 41.04 0.410117H40.91C40.91 0.410117 40.89 0.410117 40.89 0.400117V0.140117C40.89 0.140117 40.89 0.120117 40.88 0.120117H40.28C40.28 0.120117 40.21 0.150117 40.21 0.190117V0.510117C40.21 0.510117 40.21 0.530117 40.22 0.530117H40.25C40.25 0.530117 40.27 0.530117 40.27 0.520117V0.350117C40.27 0.350117 40.27 0.330117 40.28 0.330117H40.81C40.81 0.330117 40.83 0.330117 40.83 0.340117V1.31012C40.83 1.31012 40.83 1.33012 40.81 1.33012H40.28C40.28 1.33012 40.26 1.33012 40.26 1.32012V1.15012C40.26 1.15012 40.26 1.13012 40.25 1.13012H40.22C40.22 1.13012 40.2 1.13012 40.2 1.14012V1.51012C40.2 1.51012 40.2 1.52012 40.19 1.53012H39.78C39.78 1.53012 39.75 1.54012 39.75 1.56012V2.07012C39.75 2.07012 39.75 2.09012 39.76 2.09012H39.78C39.78 2.09012 39.8 2.09012 39.8 2.08012L40.38 2.07012V2.05012L40.34 2.00012C40.34 2.00012 40.35 1.97012 40.37 1.97012H40.44C40.44 1.97012 40.5 2.00012 40.5 2.03012V2.54012C40.5 2.54012 40.49 2.57012 40.47 2.57012H40.4C40.4 2.57012 40.37 2.58012 40.37 2.60012V2.73012C40.37 2.73012 40.41 2.82012 40.46 2.82012H40.59C40.59 2.82012 40.62 2.83012 40.62 2.85012V2.95012C40.62 2.95012 40.61 2.98012 40.59 2.98012H40.43C40.43 2.98012 40.42 2.95012 40.4 2.95012C40.38 2.95012 40.37 2.96012 40.37 2.98012V3.04012H40.88C40.88 3.04012 40.89 3.04012 40.9 3.03012V2.79012C40.9 2.79012 40.91 2.76012 40.93 2.76012H41.05C41.05 2.76012 41.06 2.76012 41.06 2.78012V2.89012C41.06 2.89012 41.06 2.91012 41.05 2.91012H41.03V2.94012L41.07 2.99012L41.13 2.97012L41.12 2.95012Z" stroke="#010101" stroke-width="0.25" stroke-linecap="round" stroke-linejoin="round"/>
<path d="M3.22004 0.250186V0.210186C3.22004 0.210186 3.22004 0.190186 3.21004 0.190186H2.68004C2.68004 0.190186 2.67004 0.190186 2.67004 0.210186V0.250186C2.67004 0.250186 2.67004 0.260186 2.68004 0.260186H3.21004C3.21004 0.260186 3.22004 0.260186 3.23004 0.250186" stroke="#010101" stroke-width="0.25" stroke-linecap="round" stroke-linejoin="round"/>
<path d="M2.44994 1.3002H2.58994C2.58994 1.3002 2.59994 1.30021 2.59994 1.28021V0.480205C2.59994 0.480205 2.59994 0.460205 2.58994 0.460205H2.44994C2.44994 0.460205 2.43994 0.460205 2.43994 0.480205V1.28021C2.43994 1.28021 2.43994 1.3002 2.44994 1.3002Z" stroke="#010101" stroke-width="0.25" stroke-linecap="round" stroke-linejoin="round"/>
<path d="M41.05 1.3002C41.05 1.3002 41.06 1.30021 41.06 1.28021V0.480205C41.06 0.480205 41.06 0.470205 41.05 0.460205H40.91C40.91 0.460205 40.89 0.460205 40.89 0.470205V1.28021C40.89 1.28021 40.89 1.3002 40.9 1.3002H41.04H41.05Z" stroke="#010101" stroke-width="0.25" stroke-linecap="round" stroke-linejoin="round"/>
<path d="M3.12996 1.90008C3.12996 1.90008 3.21996 1.94008 3.21996 1.99008H3.22996L3.66996 2.00008C3.66996 2.00008 3.67996 2.00008 3.68996 1.99008V1.61008C3.68996 1.61008 3.68996 1.59008 3.67996 1.59008H3.30996C3.30996 1.59008 3.23996 1.56008 3.23996 1.52008V1.41008C3.23996 1.41008 3.23996 1.39008 3.22996 1.39008H2.69996C2.69996 1.39008 2.63996 1.37008 2.62996 1.34008H2.61996L2.46996 1.33008C2.46996 1.33008 2.45996 1.33008 2.45996 1.35008V2.12008C2.45996 2.12008 2.45996 2.14008 2.46996 2.14008H2.94996C2.94996 2.14008 2.95996 2.14008 2.95996 2.12008V2.03008C2.95996 1.96008 3.00996 1.91008 3.07996 1.91008H3.15996L3.12996 1.90008Z" stroke="#010101" stroke-width="0.25" stroke-linecap="round" stroke-linejoin="round"/>
<path d="M40.3701 1.90008H40.4401C40.5101 1.90008 40.5601 1.95008 40.5601 2.02008V2.12008C40.5601 2.12008 40.5601 2.13008 40.5701 2.14008H41.0501C41.0501 2.14008 41.0601 2.14008 41.0601 2.12008V1.35008C41.0601 1.35008 41.0601 1.33008 41.0501 1.33008H40.8901C40.8901 1.33008 40.8501 1.39008 40.8201 1.39008H40.2901C40.2901 1.39008 40.2801 1.39008 40.2701 1.40008V1.51008C40.2701 1.51008 40.2401 1.58008 40.2001 1.58008H39.8301C39.8301 1.58008 39.8101 1.58008 39.8101 1.59008V1.97008C39.8101 1.97008 39.8101 1.99008 39.8201 1.99008H40.2701C40.2701 1.93008 40.3101 1.89008 40.3601 1.89008" stroke="#010101" stroke-width="0.25" stroke-linecap="round" stroke-linejoin="round"/>
<path d="M2.65994 2.78016V2.96016C2.65994 2.96016 2.65994 2.98016 2.66994 2.98016H2.79994C2.79994 2.98016 2.80994 2.98016 2.80994 2.96016V2.84016C2.80994 2.84016 2.84994 2.75016 2.89994 2.75016H3.02994C3.02994 2.75016 3.05994 2.74016 3.05994 2.72016V2.64016C3.05994 2.64016 3.05994 2.62016 3.04994 2.62016H3.02994C3.02994 2.62016 2.93994 2.58016 2.93994 2.53016V2.18016C2.93994 2.18016 2.93994 2.16016 2.92994 2.16016H2.44994C2.44994 2.16016 2.43994 2.16016 2.43994 2.18016V2.68016C2.43994 2.68016 2.43994 2.69016 2.44994 2.69016H2.56994C2.56994 2.69016 2.65994 2.73016 2.65994 2.78016Z" stroke="#010101" stroke-width="0.25" stroke-linecap="round" stroke-linejoin="round"/>
<path d="M40.84 2.78016C40.84 2.78016 40.88 2.69016 40.93 2.69016H41.05C41.05 2.69016 41.06 2.69016 41.06 2.68016V2.18016C41.06 2.18016 41.06 2.17016 41.05 2.16016H40.57C40.57 2.16016 40.55 2.16016 40.55 2.17016V2.52016C40.55 2.57016 40.51 2.61016 40.46 2.61016H40.44C40.44 2.61016 40.42 2.61016 40.42 2.62016V2.70016C40.42 2.70016 40.43 2.73016 40.45 2.73016H40.58C40.58 2.73016 40.67 2.77016 40.67 2.82016V2.94016C40.67 2.94016 40.67 2.96016 40.68 2.96016H40.81C40.81 2.96016 40.83 2.96016 40.83 2.95016V2.77016L40.84 2.78016Z" stroke="#010101" stroke-width="0.25" stroke-linecap="round" stroke-linejoin="round"/>
<path d="M40.28 0.250186C40.28 0.250186 40.28 0.260186 40.29 0.260186H40.82C40.82 0.260186 40.84 0.260186 40.84 0.250186V0.210186C40.84 0.210186 40.84 0.190186 40.83 0.190186H40.3C40.3 0.190186 40.28 0.190186 40.28 0.200186V0.240186V0.250186Z" stroke="#010101" stroke-width="0.25" stroke-linecap="round" stroke-linejoin="round"/>
</g>
<defs>
<clipPath id="clip0_1347_6830">
<rect width="43.5" height="3.47" fill="white"/>
</clipPath>
</defs>
</svg>
