<svg width="38" height="4" viewBox="0 0 38 4" fill="none" xmlns="http://www.w3.org/2000/svg">
<g clip-path="url(#clip0_1347_5230)">
<path d="M5 0.369883V0.309883C5 0.309883 5 0.289883 4.99 0.289883H3.3V0.199883C3.3 0.199883 3.27 0.129883 3.23 0.129883H2.63C2.63 0.129883 2.62 0.129883 2.62 0.139883V0.389883C2.62 0.389883 2.62 0.399883 2.6 0.399883H2.47C2.47 0.399883 2.46 0.399883 2.45 0.389883V0.279883C2.45 0.279883 2.45 0.259883 2.46 0.259883H2.48V0.239883L2.44 0.189883H2.4C2.4 0.189883 2.39 0.189883 2.39 0.209883V2.48988C2.39 2.48988 2.39 2.46988 2.38 2.46988H2.35C2.35 2.46988 2.34 2.46988 2.34 2.48988V2.95988C2.34 2.95988 2.34 2.96988 2.32 2.96988H1.93L1.9 2.98988L1.87 2.96988H1.5L1.47 2.98988L1.44 2.96988H1.07L1.04 2.98988L1.01 2.96988H0.639995L0.609995 2.98988L0.579995 2.96988H0.149995C0.149995 2.96988 0.119995 2.97988 0.119995 2.99988V3.31988C0.119995 3.31988 0.129995 3.34988 0.149995 3.34988H1.36C1.36 3.34988 1.39 3.29988 1.41 3.30988C1.42 3.30988 1.43 3.31988 1.43 3.32988H1.45L2.64 3.33988C2.67 3.33988 2.69 3.32988 2.7 3.29988L2.84 3.05988V3.03988L2.83 3.01988H3.11C3.32 3.01988 3.53 2.97988 3.72 2.89988L3.81 2.85988H33.61L33.73 2.89988C33.93 2.97988 34.13 3.01988 34.34 3.01988H34.62V3.03988L34.61 3.05988L34.75 3.29988C34.75 3.29988 34.79 3.33988 34.81 3.33988H36.02C36.02 3.33988 36.05 3.28988 36.07 3.29988C36.08 3.29988 36.09 3.30988 36.09 3.31988H36.11L37.3 3.32988C37.32 3.32988 37.33 3.31988 37.33 3.29988V2.97988C37.33 2.95988 37.32 2.94988 37.3 2.94988H36.93L36.9 2.96988L36.87 2.94988H36.5L36.47 2.96988L36.44 2.94988H36.07L36.04 2.96988L36.01 2.94988H35.64L35.61 2.96988L35.58 2.94988H35.19C35.19 2.94988 35.18 2.94988 35.18 2.93988V2.46988C35.18 2.46988 35.18 2.45988 35.17 2.44988H35.14C35.14 2.44988 35.13 2.44988 35.13 2.46988V0.199883C35.13 0.199883 35.13 0.179883 35.12 0.179883H35.08L35.04 0.229883V0.249883H35.06C35.06 0.249883 35.07 0.249883 35.07 0.269883V0.379883C35.07 0.379883 35.07 0.389883 35.06 0.389883H34.92C34.92 0.389883 34.91 0.389883 34.91 0.379883V0.139883C34.91 0.139883 34.91 0.129883 34.9 0.129883H34.3C34.3 0.129883 34.23 0.159883 34.22 0.199883V0.299883H32.53C32.53 0.299883 32.52 0.299883 32.52 0.319883V0.429883H5V0.319883V0.379883V0.369883Z" fill="white"/>
<path d="M3.60001 1.43003H4.36001C4.36001 1.43003 4.37001 1.43003 4.38001 1.41003V1.26003C4.38001 1.26003 4.37001 1.23003 4.35001 1.23003C4.33001 1.23003 4.32001 1.24003 4.32001 1.26003V1.35003C4.32001 1.35003 4.32001 1.36003 4.31001 1.36003H4.17001C4.17001 1.36003 4.14001 1.35003 4.14001 1.33003V1.12003C4.14001 1.12003 4.15001 1.09003 4.17001 1.09003H4.30001C4.30001 1.09003 4.39001 1.05003 4.39001 1.00003V0.370029C4.39001 0.370029 4.39001 0.350029 4.40001 0.350029H4.95001L4.98001 0.380029H5.00001C5.00001 0.380029 5.01001 0.380029 5.01001 0.360029V0.300029C5.01001 0.300029 5.01001 0.280029 5.00001 0.280029H3.45001C3.45001 0.280029 3.39001 0.310029 3.39001 0.340029V0.380029H3.44001V0.340029H3.49001V0.550029H3.44001V0.510029H3.39001V1.36003C3.39001 1.36003 3.42001 1.42003 3.45001 1.42003H3.49001V1.37003H3.45001V1.32003H3.66001V1.37003H3.62001V1.42003L3.60001 1.43003Z" stroke="#010101" stroke-width="0.25" stroke-miterlimit="10"/>
<path d="M33.8501 1.27009H34.0401C34.0401 1.27009 34.0501 1.27009 34.0501 1.25009V0.630088C34.0501 0.630088 34.0501 0.610088 34.0401 0.610088H34.0201C34.0201 0.610088 33.9601 0.580088 33.9601 0.550088V0.360088C33.9601 0.360088 33.9601 0.340088 33.9501 0.340088H33.2001C33.2001 0.340088 33.1901 0.340088 33.1901 0.350088V0.990088C33.1901 0.990088 33.2001 1.02009 33.2201 1.02009H33.3501C33.3501 1.02009 33.4401 1.06009 33.4401 1.11009V1.34009C33.4401 1.34009 33.4401 1.35009 33.4501 1.35009H33.7801C33.7801 1.35009 33.7901 1.35009 33.7901 1.34009V1.31009C33.7901 1.31009 33.8201 1.25009 33.8501 1.25009" stroke="#010101" stroke-width="0.25" stroke-miterlimit="10"/>
<path d="M4.42005 1.28011V1.24011C4.42005 1.24011 4.40005 1.20011 4.38005 1.20011H4.31005L4.20005 1.11011H4.19005H4.18005V1.14011L4.32005 1.25011H4.33005L4.39005 1.24011V1.30011C4.39005 1.30011 4.39005 1.32011 4.41005 1.32011C4.61005 1.32011 4.82005 1.29011 5.00005 1.21011C5.01005 1.21011 5.01005 1.19011 5.01005 1.18011C5.01005 1.18011 4.99005 1.17011 4.98005 1.17011C4.80005 1.24011 4.61005 1.28011 4.42005 1.28011Z" stroke="#010101" stroke-width="0.25" stroke-miterlimit="10"/>
<path d="M3.64005 1.2701C3.64005 1.2701 3.70005 1.3001 3.70005 1.3301V1.3601C3.70005 1.3601 3.70005 1.3701 3.72005 1.3701H4.05005C4.05005 1.3701 4.06005 1.3701 4.06005 1.3601V1.1301C4.06005 1.1301 4.10005 1.0401 4.15005 1.0401H4.28005C4.28005 1.0401 4.31005 1.0301 4.31005 1.0101V0.370098C4.31005 0.370098 4.31005 0.350098 4.30005 0.350098H3.55005C3.55005 0.350098 3.54005 0.350098 3.54005 0.360098V0.560098C3.54005 0.560098 3.51005 0.620098 3.48005 0.620098H3.45005C3.45005 0.620098 3.44005 0.620098 3.43005 0.640098V1.2601C3.43005 1.2601 3.43005 1.2801 3.44005 1.2801H3.64005V1.2701Z" stroke="#010101" stroke-width="0.25" stroke-miterlimit="10"/>
<path d="M33.2 1.20011H33.13C33.13 1.20011 33.09 1.22011 33.09 1.24011V1.28011C32.9 1.28011 32.71 1.24011 32.53 1.17011C32.52 1.17011 32.51 1.17011 32.5 1.18011C32.5 1.19011 32.5 1.20011 32.51 1.21011C32.7 1.29011 32.9 1.32011 33.1 1.32011C33.11 1.32011 33.12 1.32011 33.12 1.30011V1.24011H33.19L33.33 1.14011V1.11011H33.32H33.31L33.2 1.20011Z" stroke="#010101" stroke-width="0.25" stroke-miterlimit="10"/>
<path d="M33.9 1.43004V1.38004H33.86V1.33004H34.07V1.38004H34.03V1.43004H34.07C34.07 1.43004 34.13 1.40004 34.13 1.37004V0.520039H34.08V0.560039H34.03V0.350039H34.08V0.390039H34.13V0.350039C34.13 0.350039 34.1 0.290039 34.07 0.290039H32.52C32.52 0.290039 32.51 0.290039 32.51 0.310039V0.370039C32.51 0.370039 32.51 0.390039 32.52 0.390039H32.54L32.57 0.360039H33.12C33.12 0.360039 33.13 0.360039 33.13 0.380039V1.02004C33.13 1.02004 33.17 1.11004 33.22 1.11004H33.35C33.35 1.11004 33.38 1.12004 33.38 1.14004V1.35004C33.38 1.35004 33.37 1.38004 33.35 1.38004H33.2C33.2 1.38004 33.19 1.38004 33.19 1.37004V1.28004C33.19 1.28004 33.18 1.25004 33.16 1.25004C33.14 1.25004 33.13 1.26004 33.13 1.28004V1.43004C33.13 1.43004 33.13 1.45004 33.14 1.45004H33.9V1.43004Z" stroke="#010101" stroke-width="0.25" stroke-miterlimit="10"/>
<path d="M3.05004 2.90006L2.94004 2.81006H2.93004H2.92004V2.84006L3.06004 2.95006L3.08004 2.93006H3.13004V2.99006C3.13004 2.99006 3.13004 3.01006 3.15004 3.01006C3.35004 3.01006 3.56004 2.98006 3.74004 2.90006C3.75004 2.90006 3.75004 2.88006 3.75004 2.87006C3.75004 2.87006 3.73004 2.86006 3.72004 2.86006C3.54004 2.93006 3.35004 2.97006 3.16004 2.97006V2.93006C3.16004 2.93006 3.14004 2.89006 3.12004 2.89006H3.05004V2.90006Z" stroke="#010101" stroke-width="0.25" stroke-miterlimit="10"/>
<path d="M34.33 2.98007C34.14 2.98007 33.95 2.94007 33.77 2.87007C33.76 2.87007 33.75 2.87007 33.74 2.88007C33.74 2.88007 33.74 2.90007 33.75 2.91007C33.94 2.99007 34.14 3.02007 34.34 3.02007C34.35 3.02007 34.36 3.02007 34.36 3.00007V2.94007H34.41V2.96007L34.57 2.85007V2.82007H34.56H34.55L34.44 2.91007H34.37C34.37 2.91007 34.33 2.93007 34.33 2.95007V2.99007V2.98007Z" stroke="#010101" stroke-width="0.25" stroke-miterlimit="10"/>
<path d="M32.9 0.550049C32.9 0.550049 32.86 0.560049 32.86 0.580049V0.990049C32.86 0.990049 32.88 1.02005 32.9 1.02005" stroke="#010101" stroke-width="0.25" stroke-miterlimit="10"/>
<path d="M32.62 0.960029H32.6V1.03003C32.6 1.03003 32.61 1.05003 32.62 1.06003H32.88C32.88 1.06003 32.9 1.05003 32.9 1.03003V0.550029C32.9 0.550029 32.89 0.530029 32.88 0.530029H32.62C32.62 0.530029 32.6 0.540029 32.6 0.550029V0.620029H32.62V0.550029H32.89V1.04003H32.62V0.960029Z" stroke="#010101" stroke-width="0.25" stroke-miterlimit="10"/>
<path d="M34.15 2.73001C34.15 2.73001 34.11 2.72001 34.11 2.70001V2.29001C34.11 2.29001 34.13 2.26001 34.15 2.26001" stroke="#010101" stroke-width="0.25" stroke-miterlimit="10"/>
<path d="M4.59997 0.550039H4.86997V0.630039H4.88997V0.560039C4.88997 0.560039 4.87997 0.540039 4.86997 0.540039H4.60997C4.60997 0.540039 4.58997 0.550039 4.58997 0.560039V1.04004C4.58997 1.04004 4.59997 1.07004 4.60997 1.07004H4.86997C4.86997 1.07004 4.88997 1.06004 4.88997 1.04004V0.970039H4.86997V1.04004H4.59997V0.550039Z" stroke="#010101" stroke-width="0.25" stroke-miterlimit="10"/>
<path d="M3.34998 2.25C3.34998 2.25 3.38998 2.26 3.38998 2.28V2.69C3.38998 2.69 3.36998 2.72 3.34998 2.72" stroke="#010101" stroke-width="0.25" stroke-miterlimit="10"/>
<path d="M3.62998 2.66998V2.73998H3.35998V2.24998H3.62998V2.32998H3.64998V2.25998C3.64998 2.25998 3.63998 2.22998 3.62998 2.22998H3.36998C3.36998 2.22998 3.34998 2.23998 3.34998 2.25998V2.73998C3.34998 2.73998 3.35998 2.75998 3.36998 2.75998H3.62998C3.62998 2.75998 3.64998 2.74998 3.64998 2.73998V2.66998H3.62998Z" stroke="#010101" stroke-width="0.25" stroke-miterlimit="10"/>
<path d="M4.59998 1.03006C4.59998 1.03006 4.63998 1.02006 4.63998 1.00006V0.590059C4.63998 0.590059 4.61998 0.560059 4.59998 0.560059" stroke="#010101" stroke-width="0.25" stroke-miterlimit="10"/>
<path d="M34.15 2.24997V2.73997H33.88V2.65997H33.86V2.72997C33.86 2.72997 33.87 2.74997 33.88 2.74997H34.14C34.14 2.74997 34.16 2.73997 34.16 2.72997V2.24997C34.16 2.24997 34.15 2.22997 34.14 2.21997H33.88C33.88 2.21997 33.86 2.22997 33.86 2.24997V2.31997H33.88V2.24997H34.15Z" stroke="#010101" stroke-width="0.25" stroke-miterlimit="10"/>
<path d="M34.25 2.87003V2.78003H3.25V2.87003H34.24H34.25Z" stroke="#010101" stroke-width="0.25" stroke-miterlimit="10"/>
<path d="M34.25 2.21988V2.12988H3.25V2.21988H34.24H34.25Z" stroke="#010101" stroke-width="0.25" stroke-miterlimit="10"/>
<path d="M4.5 0.509922H32.99V0.419922H4.5V0.509922Z" stroke="#010101" stroke-width="0.25" stroke-miterlimit="10"/>
<path d="M4.5 1.16983H32.99V1.07983H4.5V1.16983Z" stroke="#010101" stroke-width="0.25" stroke-miterlimit="10"/>
<path d="M34.8399 2.77991C34.8399 2.77991 34.8799 2.68991 34.9299 2.68991H35.0499C35.0499 2.68991 35.0599 2.68991 35.0599 2.67991V2.17991C35.0599 2.17991 35.0599 2.15991 35.0499 2.15991H34.5699C34.5699 2.15991 34.5599 2.15991 34.5599 2.17991V2.52991C34.5599 2.52991 34.5199 2.61991 34.4699 2.61991H34.4499C34.4499 2.61991 34.4399 2.61991 34.4399 2.63991V2.71991C34.4399 2.71991 34.4499 2.74991 34.4699 2.74991H34.5999C34.5999 2.74991 34.6899 2.78991 34.6899 2.83991V2.95991C34.6899 2.95991 34.6899 2.96991 34.6999 2.96991H34.8199C34.8199 2.96991 34.8299 2.96991 34.8299 2.95991V2.77991H34.8399Z" stroke="#010101" stroke-width="0.25" stroke-miterlimit="10"/>
<path d="M35.05 1.29996C35.05 1.29996 35.06 1.29996 35.06 1.27996V0.479961C35.06 0.479961 35.06 0.459961 35.05 0.459961H34.91C34.91 0.459961 34.9 0.459961 34.9 0.479961V1.28996C34.9 1.28996 34.9 1.30996 34.91 1.30996H35.05V1.29996Z" stroke="#010101" stroke-width="0.25" stroke-miterlimit="10"/>
<path d="M2.43 2.96988L2.47 2.91988V2.88988H2.45C2.45 2.88988 2.44 2.88988 2.43 2.87988V2.76988C2.43 2.76988 2.43 2.74988 2.44 2.74988H2.56C2.56 2.74988 2.59 2.75988 2.59 2.77988V3.01988C2.59 3.01988 2.59 3.03988 2.6 3.03988H3.11V2.97988C3.11 2.97988 3.1 2.94988 3.08 2.94988C3.06 2.94988 3.05 2.95988 3.05 2.97988H2.89C2.89 2.97988 2.86 2.96988 2.86 2.94988V2.84988C2.86 2.84988 2.87 2.81988 2.89 2.81988H3.02C3.02 2.81988 3.11 2.77988 3.11 2.72988V2.60988C3.11 2.60988 3.1 2.57988 3.08 2.57988H3.02C3.02 2.57988 2.99 2.56988 2.99 2.54988V2.03988C2.99 2.03988 3.02 1.97988 3.05 1.97988H3.13C3.13 1.97988 3.16 1.98988 3.16 2.00988L3.12 2.05988V2.07988H3.69C3.69 2.07988 3.69 2.10988 3.7 2.10988H3.72C3.72 2.10988 3.73 2.10988 3.74 2.08988V1.57988C3.74 1.57988 3.73 1.54988 3.71 1.54988H3.29C3.29 1.54988 3.28 1.54988 3.28 1.52988V1.15988C3.28 1.15988 3.28 1.14988 3.26 1.14988H3.23C3.23 1.14988 3.22 1.14988 3.22 1.15988V1.32988C3.22 1.32988 3.22 1.34988 3.21 1.34988H2.68C2.68 1.34988 2.67 1.34988 2.67 1.32988V0.339883C2.67 0.339883 2.67 0.329883 2.68 0.329883H3.21C3.21 0.329883 3.22 0.329883 3.22 0.339883V0.509883C3.22 0.509883 3.22 0.529883 3.23 0.529883H3.26C3.26 0.529883 3.27 0.529883 3.28 0.509883V0.199883C3.28 0.199883 3.25 0.129883 3.21 0.129883H2.61C2.61 0.129883 2.6 0.129883 2.6 0.139883V0.389883C2.6 0.389883 2.6 0.399883 2.58 0.399883H2.45C2.45 0.399883 2.44 0.399883 2.43 0.389883V0.279883C2.43 0.279883 2.43 0.259883 2.44 0.259883H2.46V0.239883L2.42 0.189883H2.38C2.38 0.189883 2.37 0.189883 2.37 0.209883V2.95988H2.43V2.96988Z" stroke="#010101" stroke-width="0.25" stroke-miterlimit="10"/>
<path d="M3.22004 0.239941V0.209941C3.22004 0.209941 3.22004 0.189941 3.21004 0.189941H2.68004C2.68004 0.189941 2.67004 0.189941 2.67004 0.209941V0.239941C2.67004 0.239941 2.67004 0.259941 2.68004 0.259941H3.21004C3.21004 0.259941 3.23004 0.259941 3.23004 0.239941" stroke="#010101" stroke-width="0.25" stroke-miterlimit="10"/>
<path d="M2.38 2.47996C2.38 2.47996 2.38 2.45996 2.37 2.45996H2.34C2.34 2.45996 2.33 2.45996 2.33 2.47996V2.94996C2.33 2.94996 2.33 2.95996 2.31 2.95996H1.92L1.89 2.97996L1.86 2.95996H1.49L1.46 2.97996L1.43 2.95996H1.06L1.03 2.97996L0.999995 2.95996H0.629995L0.599995 2.97996L0.569995 2.95996H0.149995C0.149995 2.95996 0.119995 2.96996 0.119995 2.98996V3.30996C0.119995 3.30996 0.129995 3.33996 0.149995 3.33996H1.36C1.36 3.33996 1.39 3.28996 1.41 3.29996C1.42 3.29996 1.43 3.30996 1.43 3.31996H1.45L2.64 3.32996C2.67 3.32996 2.69 3.31996 2.7 3.28996L2.84 3.04996V3.02996L2.82 3.00996" stroke="#010101" stroke-width="0.25" stroke-miterlimit="10"/>
<path d="M2.45005 1.29996H2.59005C2.59005 1.29996 2.60005 1.29996 2.60005 1.27996V0.479961C2.60005 0.479961 2.60005 0.459961 2.59005 0.459961H2.45005C2.45005 0.459961 2.44005 0.459961 2.43005 0.479961V1.28996C2.43005 1.28996 2.43005 1.30996 2.44005 1.30996" stroke="#010101" stroke-width="0.25" stroke-miterlimit="10"/>
<path d="M34.3601 1.89982H34.4301C34.5001 1.89982 34.5501 1.94982 34.5501 2.01982V2.10982C34.5501 2.10982 34.5501 2.12982 34.5601 2.12982H35.0401C35.0401 2.12982 35.0501 2.12982 35.0501 2.10982V1.33982C35.0501 1.33982 35.0501 1.31982 35.0401 1.31982H34.8801C34.8801 1.31982 34.8401 1.37982 34.8101 1.37982H34.2801C34.2801 1.37982 34.2601 1.37982 34.2601 1.38982V1.49982C34.2601 1.49982 34.2301 1.56982 34.1901 1.56982H33.8201C33.8201 1.56982 33.8101 1.56982 33.8101 1.58982V1.96982C33.8101 1.96982 33.8101 1.97982 33.8201 1.97982H34.2701C34.2701 1.91982 34.3101 1.87982 34.3601 1.87982" stroke="#010101" stroke-width="0.25" stroke-miterlimit="10"/>
<path d="M34.66 3.02996V3.04996L34.65 3.05996L34.79 3.30996C34.8 3.32996 34.83 3.34996 34.85 3.34996H36.06C36.06 3.34996 36.09 3.29996 36.11 3.30996C36.12 3.30996 36.13 3.31996 36.13 3.32996H36.15L37.34 3.33996C37.36 3.33996 37.37 3.32996 37.37 3.30996V2.98996C37.37 2.96996 37.36 2.95996 37.34 2.95996H36.97L36.94 2.97996L36.91 2.95996H36.54L36.51 2.97996L36.48 2.95996H36.11L36.08 2.97996L36.05 2.95996H35.68L35.65 2.97996L35.62 2.95996H35.23C35.23 2.95996 35.22 2.95996 35.22 2.94996V2.47996C35.22 2.47996 35.22 2.46996 35.21 2.45996H35.18C35.18 2.45996 35.17 2.45996 35.17 2.47996" stroke="#010101" stroke-width="0.25" stroke-miterlimit="10"/>
<path d="M2.66005 2.7799V2.9599C2.66005 2.9599 2.66005 2.9699 2.67005 2.9699H2.79005C2.79005 2.9699 2.80005 2.9699 2.81005 2.9599V2.8399C2.81005 2.8399 2.85005 2.7499 2.90005 2.7499H3.03005C3.03005 2.7499 3.06005 2.7399 3.06005 2.7199V2.6399C3.06005 2.6399 3.06005 2.6199 3.05005 2.6199H3.03005C3.03005 2.6199 2.94005 2.5799 2.94005 2.5299V2.1699C2.94005 2.1699 2.94005 2.1499 2.93005 2.1499H2.45005C2.45005 2.1499 2.44005 2.1499 2.43005 2.1699V2.6699C2.43005 2.6699 2.43005 2.6799 2.45005 2.6799H2.57005C2.57005 2.6799 2.66005 2.7199 2.66005 2.7699" stroke="#010101" stroke-width="0.25" stroke-miterlimit="10"/>
<path d="M3.13996 1.89983C3.13996 1.89983 3.22996 1.93983 3.22996 1.98983H3.23996L3.67996 1.99983C3.67996 1.99983 3.68996 1.99983 3.69996 1.98983V1.60983C3.69996 1.60983 3.69996 1.58983 3.68996 1.58983H3.31996C3.31996 1.58983 3.24996 1.55983 3.24996 1.51983V1.40983C3.24996 1.40983 3.24996 1.38983 3.23996 1.38983H2.70996C2.70996 1.38983 2.64996 1.36983 2.63996 1.33983H2.62996L2.47996 1.32983C2.47996 1.32983 2.46996 1.32983 2.45996 1.34983V2.11983C2.45996 2.11983 2.45996 2.13983 2.46996 2.13983H2.94996C2.94996 2.13983 2.95996 2.13983 2.96996 2.11983V2.02983C2.96996 1.95983 3.01996 1.90983 3.08996 1.90983H3.16996L3.13996 1.89983Z" stroke="#010101" stroke-width="0.25" stroke-miterlimit="10"/>
<path d="M34.28 0.239941C34.28 0.239941 34.28 0.259941 34.29 0.259941H34.82C34.82 0.259941 34.83 0.259941 34.83 0.239941V0.209941C34.83 0.209941 34.83 0.189941 34.82 0.189941H34.29C34.29 0.189941 34.28 0.189941 34.28 0.209941V0.239941Z" stroke="#010101" stroke-width="0.25" stroke-miterlimit="10"/>
<path d="M35.12 2.94988V0.199883C35.12 0.199883 35.12 0.179883 35.11 0.179883H35.07L35.03 0.229883V0.249883H35.05C35.05 0.249883 35.06 0.249883 35.06 0.269883V0.379883C35.06 0.379883 35.06 0.389883 35.05 0.389883H34.91C34.91 0.389883 34.9 0.389883 34.9 0.379883V0.139883C34.9 0.139883 34.9 0.129883 34.89 0.129883H34.29C34.29 0.129883 34.22 0.159883 34.21 0.199883V0.519883C34.21 0.519883 34.21 0.529883 34.22 0.539883H34.25C34.25 0.539883 34.26 0.539883 34.26 0.519883V0.349883C34.26 0.349883 34.26 0.339883 34.28 0.339883H34.81C34.81 0.339883 34.82 0.339883 34.82 0.349883V1.31988C34.82 1.31988 34.82 1.33988 34.81 1.33988H34.28C34.28 1.33988 34.26 1.33988 34.26 1.32988V1.15988C34.26 1.15988 34.26 1.14988 34.25 1.14988H34.22C34.22 1.14988 34.21 1.14988 34.21 1.15988V1.52988C34.21 1.52988 34.21 1.54988 34.2 1.54988H33.79C33.79 1.54988 33.76 1.55988 33.76 1.57988V2.08988C33.76 2.08988 33.76 2.10988 33.77 2.10988H33.79C33.79 2.10988 33.8 2.10988 33.8 2.08988H34.37V2.05988L34.33 2.00988C34.33 2.00988 34.34 1.97988 34.36 1.97988H34.43C34.43 1.97988 34.49 2.00988 34.49 2.03988V2.54988C34.49 2.54988 34.48 2.57988 34.46 2.57988H34.39C34.39 2.57988 34.36 2.58988 34.36 2.60988V2.72988C34.36 2.72988 34.4 2.81988 34.45 2.81988H34.58C34.58 2.81988 34.61 2.82988 34.61 2.84988V2.95988C34.61 2.95988 34.6 2.98988 34.58 2.98988H34.42C34.42 2.98988 34.41 2.95988 34.39 2.95988C34.37 2.95988 34.36 2.96988 34.36 2.98988V3.04988H34.87C34.87 3.04988 34.88 3.04988 34.88 3.02988V2.78988C34.88 2.78988 34.89 2.75988 34.91 2.75988H35.03C35.03 2.75988 35.04 2.75988 35.04 2.77988V2.88988C35.04 2.88988 35.04 2.89988 35.03 2.89988H35.01V2.92988L35.05 2.97988H35.11L35.12 2.94988Z" stroke="#010101" stroke-width="0.25" stroke-miterlimit="10"/>
</g>
<defs>
<clipPath id="clip0_1347_5230">
<rect width="37.5" height="3.47" fill="white"/>
</clipPath>
</defs>
</svg>
