<svg width="54" height="4" viewBox="0 0 54 4" fill="none" xmlns="http://www.w3.org/2000/svg">
<g clip-path="url(#clip0_1347_7532)">
<path d="M5 0.369997V0.309997C5 0.309997 5 0.289997 4.99 0.299997H3.3V0.209997C3.3 0.209997 3.27 0.139997 3.23 0.139997H2.63C2.63 0.139997 2.61 0.139997 2.62 0.149997V0.399997C2.62 0.399997 2.62 0.419997 2.61 0.409997H2.47C2.47 0.409997 2.45 0.409997 2.46 0.399997V0.289997C2.46 0.289997 2.46 0.269997 2.47 0.279997H2.49V0.259997L2.45 0.209997H2.41C2.41 0.209997 2.39 0.209997 2.4 0.219997V2.5C2.4 2.5 2.4 2.48 2.39 2.49H2.36C2.36 2.49 2.34 2.49 2.35 2.5V2.97C2.35 2.97 2.35 2.99 2.34 2.98H1.92H1.89H1.49H1.46H1.06H1.03H0.629995H0.599995H0.149995C0.149995 2.98 0.119995 2.99 0.119995 3.01V3.32C0.119995 3.32 0.129995 3.35 0.149995 3.35H1.36C1.36 3.35 1.39 3.3 1.41 3.31C1.42 3.31 1.43 3.32 1.43 3.33H1.45L2.64 3.34C2.67 3.34 2.69 3.33 2.7 3.3L2.84 3.06V3.04L2.83 3.03H3.11C3.32 3.03 3.53 2.99 3.72 2.91L3.81 2.87H49.61L49.73 2.91C49.93 2.99 50.13 3.03 50.34 3.03H50.62H50.6V3.06L50.74 3.3C50.74 3.3 50.78 3.34 50.8 3.34H52.01C52.01 3.34 52.04 3.29 52.06 3.3C52.07 3.3 52.08 3.31 52.08 3.32H52.1L53.29 3.33C53.31 3.33 53.32 3.32 53.32 3.3V2.98C53.32 2.96 53.31 2.95 53.29 2.95H52.88H52.85H52.45H52.42H52.02H51.99H51.59H51.56H51.17C51.17 2.95 51.15 2.95 51.15 2.94V2.47C51.15 2.47 51.15 2.45 51.13 2.46H51.1C51.1 2.46 51.08 2.46 51.08 2.47V0.209997C51.08 0.209997 51.08 0.189997 51.06 0.199997H51.02L50.98 0.249997V0.269997H51C51 0.269997 51.02 0.269997 51.01 0.279997V0.389997C51.01 0.389997 51.01 0.409997 51 0.399997H50.86C50.86 0.399997 50.84 0.399997 50.85 0.389997V0.139997C50.85 0.139997 50.85 0.119997 50.83 0.129997H50.23C50.23 0.129997 50.15 0.159997 50.15 0.199997V0.289997H48.45C48.45 0.289997 48.43 0.289997 48.44 0.299997V0.409997H5V0.299997V0.359997V0.369997Z" fill="white"/>
<path d="M49.2 1.20011H49.13C49.13 1.20011 49.09 1.22011 49.09 1.24011V1.28011C48.9 1.28011 48.71 1.24011 48.53 1.17011C48.52 1.17011 48.51 1.17011 48.5 1.18011C48.5 1.19011 48.5 1.20011 48.51 1.21011C48.7 1.29011 48.9 1.32011 49.1 1.32011C49.11 1.32011 49.12 1.32011 49.12 1.30011V1.24011H49.19L49.33 1.14011V1.11011H49.32H49.31L49.2 1.20011Z" stroke="#010101" stroke-width="0.25" stroke-linecap="round" stroke-linejoin="round"/>
<path d="M49.9 1.43004V1.38004H49.86V1.33004H50.07V1.38004H50.03V1.43004H50.07C50.07 1.43004 50.13 1.40004 50.13 1.37004V0.520039H50.08V0.560039H50.03V0.350039H50.08V0.390039H50.13V0.350039C50.13 0.350039 50.1 0.290039 50.07 0.290039H48.52C48.52 0.290039 48.5 0.290039 48.51 0.300039V0.360039C48.51 0.360039 48.51 0.380039 48.52 0.370039H48.54L48.57 0.340039H49.12C49.12 0.340039 49.14 0.340039 49.14 0.350039V0.990039C49.14 0.990039 49.18 1.08004 49.23 1.08004H49.36C49.36 1.08004 49.39 1.09004 49.39 1.11004V1.32004C49.39 1.32004 49.38 1.35004 49.36 1.35004H49.22C49.22 1.35004 49.2 1.35004 49.2 1.34004V1.25004C49.2 1.25004 49.19 1.22004 49.17 1.22004C49.15 1.22004 49.14 1.23004 49.14 1.25004V1.40004C49.14 1.40004 49.14 1.42004 49.16 1.41004H49.92L49.9 1.43004Z" stroke="#010101" stroke-width="0.25" stroke-linecap="round" stroke-linejoin="round"/>
<path d="M4.42005 1.28011V1.24011C4.42005 1.24011 4.40005 1.20011 4.38005 1.20011H4.31005L4.20005 1.11011H4.19005H4.18005V1.14011L4.32005 1.25011H4.33005L4.38005 1.24011V1.30011C4.38005 1.30011 4.38005 1.32011 4.40005 1.32011C4.60005 1.32011 4.81005 1.29011 4.99005 1.21011C5.00005 1.21011 5.00005 1.19011 5.00005 1.18011C5.00005 1.18011 4.98005 1.17011 4.97005 1.17011C4.79005 1.24011 4.60005 1.28011 4.41005 1.28011" stroke="#010101" stroke-width="0.25" stroke-linecap="round" stroke-linejoin="round"/>
<path d="M3.6 1.42993H4.36C4.36 1.42993 4.38 1.42993 4.37 1.41993V1.26993C4.37 1.26993 4.36 1.23993 4.34 1.23993C4.32 1.23993 4.31 1.24993 4.31 1.26993V1.35993C4.31 1.35993 4.31 1.37993 4.3 1.36993H4.16C4.16 1.36993 4.13 1.35993 4.13 1.33993V1.12993C4.13 1.12993 4.14 1.09993 4.16 1.09993H4.29C4.29 1.09993 4.38 1.05993 4.38 1.00993V0.369929C4.38 0.369929 4.38 0.349929 4.39 0.359929H4.94L4.97 0.389929H4.99C4.99 0.389929 5.01 0.389929 5 0.379929V0.319929C5 0.319929 5 0.299929 4.99 0.309929H3.44C3.44 0.309929 3.38 0.339929 3.38 0.369929V0.409929H3.43V0.369929H3.48V0.579929H3.43V0.539929H3.38V1.38993C3.38 1.38993 3.41 1.44993 3.44 1.44993H3.48V1.39993H3.44V1.34993H3.65V1.39993H3.61V1.44993L3.6 1.42993Z" stroke="#010101" stroke-width="0.25" stroke-linecap="round" stroke-linejoin="round"/>
<path d="M49.85 1.26998H50.05C50.05 1.26998 50.07 1.26998 50.06 1.24998V0.639978C50.06 0.639978 50.06 0.619978 50.05 0.619978H50.02C50.02 0.619978 49.96 0.589978 49.96 0.559978V0.369978C49.96 0.369978 49.96 0.349978 49.94 0.359978H49.19C49.19 0.359978 49.17 0.359978 49.17 0.369978V1.00998C49.17 1.00998 49.18 1.03998 49.2 1.03998H49.33C49.33 1.03998 49.42 1.07998 49.42 1.12998V1.34998C49.42 1.34998 49.42 1.36998 49.43 1.35998H49.76C49.76 1.35998 49.78 1.35998 49.77 1.34998V1.31998C49.77 1.31998 49.8 1.25998 49.83 1.25998" stroke="#010101" stroke-width="0.25" stroke-linecap="round" stroke-linejoin="round"/>
<path d="M3.65004 1.26998C3.65004 1.26998 3.71004 1.29998 3.71004 1.32998V1.35998C3.71004 1.35998 3.71004 1.37998 3.72004 1.36998H4.05004C4.05004 1.36998 4.07004 1.36998 4.06004 1.35998V1.13998C4.06004 1.13998 4.10004 1.04998 4.15004 1.04998H4.28004C4.28004 1.04998 4.31004 1.03998 4.31004 1.01998V0.369978C4.31004 0.369978 4.31004 0.349978 4.30004 0.359978H3.55004C3.55004 0.359978 3.53004 0.359978 3.53004 0.369978V0.559978C3.53004 0.559978 3.50004 0.619978 3.47004 0.619978H3.44004C3.44004 0.619978 3.42004 0.619978 3.42004 0.629978V1.23998C3.42004 1.23998 3.42004 1.25998 3.44004 1.25998H3.63004L3.65004 1.26998Z" stroke="#010101" stroke-width="0.25" stroke-linecap="round" stroke-linejoin="round"/>
<path d="M50.33 2.98006C50.14 2.98006 49.95 2.94006 49.77 2.87006C49.76 2.87006 49.75 2.87006 49.74 2.88006C49.74 2.89006 49.74 2.90006 49.75 2.91006C49.94 2.99006 50.14 3.02006 50.34 3.02006C50.35 3.02006 50.36 3.02006 50.36 3.00006V2.94006H50.43L50.57 2.84006V2.81006H50.56H50.55L50.44 2.90006H50.37C50.37 2.90006 50.33 2.92006 50.33 2.94006V2.98006Z" stroke="#010101" stroke-width="0.25" stroke-linecap="round" stroke-linejoin="round"/>
<path d="M3.05004 2.90006L2.94004 2.81006H2.93004H2.92004V2.84006L3.06004 2.95006H3.07004L3.13004 2.94006V3.00006C3.13004 3.00006 3.13004 3.02006 3.15004 3.02006C3.35004 3.02006 3.56004 2.99006 3.74004 2.91006C3.75004 2.91006 3.75004 2.89006 3.75004 2.88006C3.75004 2.88006 3.73004 2.87006 3.72004 2.87006C3.54004 2.94006 3.35004 2.98006 3.16004 2.98006V2.94006C3.16004 2.94006 3.14004 2.90006 3.12004 2.90006H3.05004Z" stroke="#010101" stroke-width="0.25" stroke-linecap="round" stroke-linejoin="round"/>
<path d="M4.59998 1.03006C4.59998 1.03006 4.63998 1.02006 4.63998 1.00006V0.590059C4.63998 0.590059 4.61998 0.560059 4.59998 0.560059" stroke="#010101" stroke-width="0.25" stroke-linecap="round" stroke-linejoin="round"/>
<path d="M48.9 0.550049C48.9 0.550049 48.86 0.560049 48.86 0.580049V0.990049C48.86 0.990049 48.88 1.02005 48.9 1.02005" stroke="#010101" stroke-width="0.25" stroke-linecap="round" stroke-linejoin="round"/>
<path d="M50.15 2.73001C50.15 2.73001 50.11 2.72001 50.11 2.70001V2.29001C50.11 2.29001 50.13 2.26001 50.15 2.26001" stroke="#010101" stroke-width="0.25" stroke-linecap="round" stroke-linejoin="round"/>
<path d="M4.59996 0.550029H4.86996V0.630029H4.88996V0.560029C4.88996 0.560029 4.87996 0.530029 4.86996 0.530029H4.60996C4.60996 0.530029 4.57996 0.540029 4.57996 0.550029V1.03003C4.57996 1.03003 4.58996 1.05003 4.60996 1.05003H4.86996C4.86996 1.05003 4.88996 1.04003 4.88996 1.03003V0.960029H4.86996V1.03003H4.59996V0.540029V0.550029Z" stroke="#010101" stroke-width="0.25" stroke-linecap="round" stroke-linejoin="round"/>
<path d="M48.62 0.96002H48.6V1.03002C48.6 1.03002 48.61 1.05002 48.63 1.05002H48.89C48.89 1.05002 48.91 1.04002 48.91 1.03002V0.55002C48.91 0.55002 48.9 0.53002 48.89 0.52002H48.63C48.63 0.52002 48.6 0.53002 48.6 0.54002V0.61002H48.62V0.54002H48.89V1.03002H48.62V0.95002V0.96002Z" stroke="#010101" stroke-width="0.25" stroke-linecap="round" stroke-linejoin="round"/>
<path d="M50.15 2.24998V2.73998H49.88V2.65998H49.86V2.72998C49.86 2.72998 49.87 2.75998 49.88 2.75998H50.14C50.14 2.75998 50.16 2.74998 50.16 2.73998V2.25998C50.16 2.25998 50.15 2.23998 50.14 2.22998H49.88C49.88 2.22998 49.85 2.23998 49.85 2.24998V2.31998H49.87V2.24998H50.14H50.15Z" stroke="#010101" stroke-width="0.25" stroke-linecap="round" stroke-linejoin="round"/>
<path d="M3.62998 2.66998V2.73998H3.35998V2.24998H3.62998V2.32998H3.64998V2.25998C3.64998 2.25998 3.63998 2.22998 3.62998 2.22998H3.36998C3.36998 2.22998 3.34998 2.23998 3.34998 2.24998V2.72998C3.34998 2.72998 3.35998 2.75998 3.36998 2.75998H3.62998C3.62998 2.75998 3.64998 2.74998 3.64998 2.73998V2.66998H3.62998Z" stroke="#010101" stroke-width="0.25" stroke-linecap="round" stroke-linejoin="round"/>
<path d="M3.34998 2.25C3.34998 2.25 3.38998 2.26 3.38998 2.28V2.69C3.38998 2.69 3.36998 2.72 3.34998 2.72" stroke="#010101" stroke-width="0.25" stroke-linecap="round" stroke-linejoin="round"/>
<path d="M4.5 0.509922H48.99V0.419922H4.5V0.509922Z" stroke="#010101" stroke-width="0.25" stroke-linecap="round" stroke-linejoin="round"/>
<path d="M50.25 2.87003V2.78003H3.25V2.87003H50.24H50.25Z" stroke="#010101" stroke-width="0.25" stroke-linecap="round" stroke-linejoin="round"/>
<path d="M4.5 1.16983H48.99V1.07983H4.5V1.16983Z" stroke="#010101" stroke-width="0.25" stroke-linecap="round" stroke-linejoin="round"/>
<path d="M50.25 2.21988V2.12988H3.25V2.21988H50.24H50.25Z" stroke="#010101" stroke-width="0.25" stroke-linecap="round" stroke-linejoin="round"/>
<path d="M51.05 1.30009C51.05 1.30009 51.07 1.30009 51.06 1.29009V0.480085C51.06 0.480085 51.06 0.460085 51.05 0.470085H50.91C50.91 0.470085 50.89 0.470085 50.89 0.480085V1.28009C50.89 1.28009 50.89 1.30009 50.91 1.29009H51.05V1.30009Z" stroke="#010101" stroke-width="0.25" stroke-linecap="round" stroke-linejoin="round"/>
<path d="M2.43002 2.96988L2.47002 2.91988V2.88988H2.45002C2.45002 2.88988 2.43002 2.88988 2.44002 2.87988V2.76988C2.44002 2.76988 2.44002 2.74988 2.45002 2.75988H2.57002C2.57002 2.75988 2.60002 2.76988 2.60002 2.78988V3.01988C2.60002 3.01988 2.60002 3.03988 2.61002 3.02988H3.12002V2.96988C3.12002 2.96988 3.11002 2.93988 3.09002 2.93988C3.07002 2.93988 3.06002 2.94988 3.06002 2.96988H2.90002C2.90002 2.96988 2.87002 2.95988 2.87002 2.93988V2.83988C2.87002 2.83988 2.88002 2.80988 2.90002 2.80988H3.03002C3.03002 2.80988 3.12002 2.76988 3.12002 2.71988V2.58988C3.12002 2.58988 3.11002 2.55988 3.09002 2.55988H3.03002C3.03002 2.55988 3.00002 2.54988 3.00002 2.52988V2.01988C3.00002 2.01988 3.03002 1.95988 3.06002 1.95988H3.13002C3.13002 1.95988 3.16002 1.96988 3.16002 1.98988L3.12002 2.03988V2.06988H3.70002C3.70002 2.06988 3.70002 2.09988 3.72002 2.09988H3.74002C3.74002 2.09988 3.76002 2.09988 3.75002 2.08988V1.57988C3.75002 1.57988 3.74002 1.54988 3.72002 1.54988H3.31002C3.31002 1.54988 3.29002 1.54988 3.30002 1.53988V1.16988C3.30002 1.16988 3.30002 1.14988 3.28002 1.15988H3.25002C3.25002 1.15988 3.23002 1.15988 3.24002 1.16988V1.33988C3.24002 1.33988 3.24002 1.35988 3.23002 1.34988H2.70002C2.70002 1.34988 2.68002 1.34988 2.69002 1.33988V0.349883C2.69002 0.349883 2.69002 0.329883 2.70002 0.339883H3.23002C3.23002 0.339883 3.25002 0.339883 3.24002 0.349883V0.519883C3.24002 0.519883 3.24002 0.539883 3.25002 0.529883H3.28002C3.28002 0.529883 3.30002 0.529883 3.30002 0.519883V0.199883C3.30002 0.199883 3.27002 0.129883 3.23002 0.129883H2.63002C2.63002 0.129883 2.61002 0.129883 2.62002 0.139883V0.389883C2.62002 0.389883 2.62002 0.409883 2.61002 0.399883H2.47002C2.47002 0.399883 2.45002 0.399883 2.46002 0.389883V0.279883C2.46002 0.279883 2.46002 0.259883 2.47002 0.269883H2.49002V0.249883L2.45002 0.199883H2.41002C2.41002 0.199883 2.39002 0.199883 2.40002 0.209883V2.94988L2.46002 2.96988H2.43002Z" stroke="#010101" stroke-width="0.25" stroke-linecap="round" stroke-linejoin="round"/>
<path d="M3.12994 1.9001C3.12994 1.9001 3.21994 1.9401 3.21994 1.9901H3.22994L3.66994 2.0001C3.66994 2.0001 3.68994 2.0001 3.67994 1.9901V1.6101C3.67994 1.6101 3.67994 1.5901 3.66994 1.6001H3.29994C3.29994 1.6001 3.22994 1.5701 3.22994 1.5301V1.4201C3.22994 1.4201 3.22994 1.4001 3.21994 1.4101H2.68994C2.68994 1.4101 2.62994 1.3901 2.61994 1.3601H2.60994L2.45994 1.3501C2.45994 1.3501 2.43994 1.3501 2.44994 1.3701V2.1401C2.44994 2.1401 2.44994 2.1601 2.45994 2.1501H2.93994C2.93994 2.1501 2.95994 2.1501 2.94994 2.1401V2.0401C2.94994 1.9701 2.99994 1.9201 3.06994 1.9201H3.13994L3.12994 1.9001Z" stroke="#010101" stroke-width="0.25" stroke-linecap="round" stroke-linejoin="round"/>
<path d="M3.22004 0.250066V0.210066C3.22004 0.210066 3.22004 0.190066 3.21004 0.200066H2.68004C2.68004 0.200066 2.66004 0.200066 2.67004 0.210066V0.250066C2.67004 0.250066 2.67004 0.270066 2.68004 0.260066H3.21004C3.21004 0.260066 3.23004 0.260066 3.22004 0.250066Z" stroke="#010101" stroke-width="0.25" stroke-linecap="round" stroke-linejoin="round"/>
<path d="M50.3599 1.90008H50.4399C50.5099 1.90008 50.5599 1.95008 50.5599 2.02008V2.12008C50.5599 2.12008 50.5599 2.14008 50.5799 2.13008H51.0599C51.0599 2.13008 51.0799 2.13008 51.0699 2.12008V1.35008C51.0699 1.35008 51.0699 1.33008 51.0599 1.33008H50.8999C50.8999 1.33008 50.8599 1.39008 50.8299 1.39008H50.2999C50.2999 1.39008 50.2799 1.39008 50.2799 1.40008V1.51008C50.2799 1.51008 50.2499 1.58008 50.1999 1.58008H49.8299C49.8299 1.58008 49.8099 1.58008 49.8199 1.59008V1.97008C49.8199 1.97008 49.8199 1.99008 49.8299 1.98008H50.2799C50.2799 1.92008 50.3199 1.88008 50.3699 1.88008" stroke="#010101" stroke-width="0.25" stroke-linecap="round" stroke-linejoin="round"/>
<path d="M51.12 2.95V0.209997C51.12 0.209997 51.12 0.189997 51.1 0.199997H51.06L51.02 0.249997V0.269997H51.04C51.04 0.269997 51.06 0.269997 51.05 0.279997V0.389997C51.05 0.389997 51.05 0.409997 51.04 0.399997H50.9C50.9 0.399997 50.88 0.399997 50.89 0.389997V0.139997C50.89 0.139997 50.89 0.119997 50.87 0.129997H50.27C50.27 0.129997 50.19 0.159997 50.19 0.199997V0.509997C50.19 0.509997 50.19 0.529997 50.2 0.519997H50.23C50.23 0.519997 50.25 0.519997 50.25 0.509997V0.339997C50.25 0.339997 50.25 0.319997 50.27 0.329997H50.8C50.8 0.329997 50.82 0.329997 50.82 0.339997V1.31C50.82 1.31 50.82 1.33 50.8 1.32H50.27C50.27 1.32 50.25 1.32 50.25 1.31V1.14C50.25 1.14 50.25 1.12 50.23 1.13H50.2C50.2 1.13 50.18 1.13 50.19 1.14V1.51C50.19 1.51 50.19 1.53 50.17 1.52H49.76C49.76 1.52 49.73 1.53 49.73 1.55V2.06C49.73 2.06 49.73 2.08 49.75 2.07H49.77C49.77 2.07 49.79 2.07 49.78 2.06H50.35V2.02L50.31 1.97C50.31 1.97 50.32 1.94 50.34 1.94H50.42C50.42 1.94 50.48 1.97 50.48 2V2.51C50.48 2.51 50.47 2.54 50.45 2.54H50.38C50.38 2.54 50.35 2.55 50.35 2.57V2.7C50.35 2.7 50.39 2.79 50.44 2.79H50.57C50.57 2.79 50.6 2.8 50.6 2.82V2.93C50.6 2.93 50.59 2.96 50.57 2.96H50.41C50.41 2.96 50.4 2.93 50.38 2.93C50.36 2.93 50.35 2.94 50.35 2.96V3.02H50.86C50.86 3.02 50.88 3.02 50.88 3.01V2.78C50.88 2.78 50.89 2.75 50.91 2.75H51.03C51.03 2.75 51.05 2.75 51.04 2.76V2.87C51.04 2.87 51.04 2.89 51.03 2.88H51.01V2.91L51.05 2.96L51.11 2.94L51.12 2.95Z" stroke="#010101" stroke-width="0.25" stroke-linecap="round" stroke-linejoin="round"/>
<path d="M50.28 0.250066C50.28 0.250066 50.28 0.270066 50.29 0.260066H50.82C50.82 0.260066 50.84 0.260066 50.84 0.250066V0.210066C50.84 0.210066 50.84 0.190066 50.82 0.200066H50.29C50.29 0.200066 50.27 0.200066 50.28 0.210066V0.250066Z" stroke="#010101" stroke-width="0.25" stroke-linecap="round" stroke-linejoin="round"/>
<path d="M50.66 3.03009H50.64V3.06009L50.78 3.31009C50.79 3.33009 50.82 3.35009 50.84 3.35009H52.05C52.05 3.35009 52.08 3.30009 52.1 3.31009C52.11 3.31009 52.12 3.32009 52.12 3.33009H52.14L53.33 3.34009C53.35 3.34009 53.36 3.33009 53.36 3.31009V2.99009C53.36 2.97009 53.35 2.96009 53.33 2.96009H52.92H52.89H52.49H52.46H52.06H52.03H51.63H51.6H51.21C51.21 2.96009 51.19 2.96009 51.19 2.95009V2.48009C51.19 2.48009 51.19 2.46009 51.17 2.47009H51.14C51.14 2.47009 51.12 2.47009 51.12 2.48009" stroke="#010101" stroke-width="0.25" stroke-linecap="round" stroke-linejoin="round"/>
<path d="M2.66005 2.78004V2.95004C2.66005 2.95004 2.66005 2.97004 2.67005 2.96004H2.80005C2.80005 2.96004 2.82005 2.96004 2.81005 2.95004V2.83004C2.81005 2.83004 2.85005 2.74004 2.90005 2.74004H3.03005C3.03005 2.74004 3.06005 2.73004 3.06005 2.71004V2.63004C3.06005 2.63004 3.06005 2.61004 3.04005 2.62004H3.02005C3.02005 2.62004 2.93005 2.58004 2.93005 2.53004V2.18004C2.93005 2.18004 2.93005 2.16004 2.92005 2.17004H2.44005C2.44005 2.17004 2.42005 2.17004 2.43005 2.18004V2.68004C2.43005 2.68004 2.43005 2.70004 2.44005 2.69004H2.56005C2.56005 2.69004 2.65005 2.73004 2.65005 2.78004" stroke="#010101" stroke-width="0.25" stroke-linecap="round" stroke-linejoin="round"/>
<path d="M2.38 2.49009C2.38 2.49009 2.38 2.47009 2.37 2.48009H2.34C2.34 2.48009 2.32 2.48009 2.33 2.49009V2.96009C2.33 2.96009 2.33 2.98009 2.32 2.97009H1.9H1.87H1.47H1.44H1.04H1.01H0.609995H0.579995H0.149995C0.149995 2.97009 0.119995 2.98009 0.119995 3.00009V3.31009C0.119995 3.31009 0.129995 3.34009 0.149995 3.34009H1.36C1.36 3.34009 1.39 3.29009 1.41 3.30009C1.42 3.30009 1.43 3.31009 1.43 3.32009H1.45L2.64 3.33009C2.67 3.33009 2.69 3.32009 2.7 3.29009L2.84 3.05009V3.03009H2.83" stroke="#010101" stroke-width="0.25" stroke-linecap="round" stroke-linejoin="round"/>
<path d="M2.45006 1.30009H2.59006C2.59006 1.30009 2.61006 1.30009 2.60006 1.29009V0.480085C2.60006 0.480085 2.60006 0.460085 2.59006 0.470085H2.45006C2.45006 0.470085 2.43006 0.470085 2.44006 0.480085V1.28009C2.44006 1.28009 2.44006 1.30009 2.45006 1.29009V1.30009Z" stroke="#010101" stroke-width="0.25" stroke-linecap="round" stroke-linejoin="round"/>
<path d="M50.84 2.78004C50.84 2.78004 50.88 2.69004 50.93 2.69004H51.05C51.05 2.69004 51.07 2.69004 51.06 2.68004V2.18004C51.06 2.18004 51.06 2.16004 51.05 2.17004H50.57C50.57 2.17004 50.55 2.17004 50.55 2.18004V2.53004C50.55 2.53004 50.51 2.62004 50.46 2.62004H50.44C50.44 2.62004 50.42 2.62004 50.42 2.63004V2.71004C50.42 2.71004 50.43 2.74004 50.45 2.74004H50.58C50.58 2.74004 50.67 2.78004 50.67 2.83004V2.95004C50.67 2.95004 50.67 2.97004 50.68 2.96004H50.8C50.8 2.96004 50.82 2.96004 50.82 2.95004V2.78004H50.84Z" stroke="#010101" stroke-width="0.25" stroke-linecap="round" stroke-linejoin="round"/>
</g>
<defs>
<clipPath id="clip0_1347_7532">
<rect width="53.5" height="3.47" fill="white"/>
</clipPath>
</defs>
</svg>
