<svg width="170" height="6" viewBox="0 0 170 6" fill="none" xmlns="http://www.w3.org/2000/svg">
<path d="M0 0.5V1.5H0.125V2.5H0V3.5H0.125V4.5H0V5.5H0.125V5.875H0.5V6H1.5V5.875H2.5V6H3.5V5.875H4.5V6H5.5V5.875H6.5V6H7.5V5.875H8.5V6H9.5V5.875H10.5V6H11.5V5.875H12.5V6H13.5V5.875H14.5V6H15.5V5.875H16.5V6H17.5V5.875H18.5V6H19.5V5.875H20.5V6H21.5V5.875H22.5V6H23.5V5.875H24.5V6H25.5V5.875H26.5V6H27.5V5.875H28.5V6H29.5V5.875H30.5V6H31.5V5.875H32.5V6H33.5V5.875H34.5V6H35.5V5.875H36.5V6H37.5V5.875H38.5V6H39.5V5.875H40.5V6H41.5V5.875H42.5V6H43.5V5.875H44.5V6H45.5V5.875H46.5V6H47.5V5.875H48.5V6H49.5V5.875H49.875V5.5H50V4.5H49.875V3.5H50V2.5H49.875V1.5H50V0.5H49.875V0.125H49.5V0H48.5V0.125H47.5V0H46.5V0.125H45.5V0H44.5V0.125H43.5V0H42.5V0.125H41.5V0H40.5V0.125H39.5V0H38.5V0.125H37.5V0H36.5V0.125H35.5V0H34.5V0.125H33.5V0H32.5V0.125H31.5V0H30.5V0.125H29.5V0H28.5V0.125H27.5V0H26.5V0.125H25.5V0H24.5V0.125H23.5V0H22.5V0.125H21.5V0H20.5V0.125H19.5V0H18.5V0.125H17.5V0H16.5V0.125H15.5V0H14.5V0.125H13.5V0H12.5V0.125H11.5V0H10.5V0.125H9.5V0H8.5V0.125H7.5V0H6.5V0.125H5.5V0H4.5V0.125H3.5V0H2.5V0.125H1.5V0H0.5V0.125H0.125V0.5H0Z" fill="white" stroke="black" stroke-width="0.25" stroke-dasharray="1 1"/>
<path d="M120 0.5V1.5H120.125V2.5H120V3.5H120.125V4.5H120V5.5H120.125V5.875H120.5V6H121.5V5.875H122.5V6H123.5V5.875H124.5V6H125.5V5.875H126.5V6H127.5V5.875H128.5V6H129.5V5.875H130.5V6H131.5V5.875H132.5V6H133.5V5.875H134.5V6H135.5V5.875H136.5V6H137.5V5.875H138.5V6H139.5V5.875H140.5V6H141.5V5.875H142.5V6H143.5V5.875H144.5V6H145.5V5.875H146.5V6H147.5V5.875H148.5V6H149.5V5.875H150.5V6H151.5V5.875H152.5V6H153.5V5.875H154.5V6H155.5V5.875H156.5V6H157.5V5.875H158.5V6H159.5V5.875H160.5V6H161.5V5.875H162.5V6H163.5V5.875H164.5V6H165.5V5.875H166.5V6H167.5V5.875H168.5V6H169.5V5.875H169.875V5.5H170V4.5H169.875V3.5H170V2.5H169.875V1.5H170V0.5H169.875V0.125H169.5V0H168.5V0.125H167.5V0H166.5V0.125H165.5V0H164.5V0.125H163.5V0H162.5V0.125H161.5V0H160.5V0.125H159.5V0H158.5V0.125H157.5V0H156.5V0.125H155.5V0H154.5V0.125H153.5V0H152.5V0.125H151.5V0H150.5V0.125H149.5V0H148.5V0.125H147.5V0H146.5V0.125H145.5V0H144.5V0.125H143.5V0H142.5V0.125H141.5V0H140.5V0.125H139.5V0H138.5V0.125H137.5V0H136.5V0.125H135.5V0H134.5V0.125H133.5V0H132.5V0.125H131.5V0H130.5V0.125H129.5V0H128.5V0.125H127.5V0H126.5V0.125H125.5V0H124.5V0.125H123.5V0H122.5V0.125H121.5V0H120.5V0.125H120.125V0.5H120Z" fill="white" stroke="black" stroke-width="0.25" stroke-dasharray="1 1"/>
<path d="M60 0.5V1.5H60.125V2.5H60V3.5H60.125V4.5H60V5.5H60.125V5.875H60.5V6H61.5V5.875H62.5V6H63.5V5.875H64.5V6H65.5V5.875H66.5V6H67.5V5.875H68.5V6H69.5V5.875H70.5V6H71.5V5.875H72.5V6H73.5V5.875H74.5V6H75.5V5.875H76.5V6H77.5V5.875H78.5V6H79.5V5.875H80.5V6H81.5V5.875H82.5V6H83.5V5.875H84.5V6H85.5V5.875H86.5V6H87.5V5.875H88.5V6H89.5V5.875H90.5V6H91.5V5.875H92.5V6H93.5V5.875H94.5V6H95.5V5.875H96.5V6H97.5V5.875H98.5V6H99.5V5.875H100.5V6H101.5V5.875H102.5V6H103.5V5.875H104.5V6H105.5V5.875H106.5V6H107.5V5.875H108.5V6H109.5V5.875H109.875V5.5H110V4.5H109.875V3.5H110V2.5H109.875V1.5H110V0.5H109.875V0.125H109.5V0H108.5V0.125H107.5V0H106.5V0.125H105.5V0H104.5V0.125H103.5V0H102.5V0.125H101.5V0H100.5V0.125H99.5V0H98.5V0.125H97.5V0H96.5V0.125H95.5V0H94.5V0.125H93.5V0H92.5V0.125H91.5V0H90.5V0.125H89.5V0H88.5V0.125H87.5V0H86.5V0.125H85.5V0H84.5V0.125H83.5V0H82.5V0.125H81.5V0H80.5V0.125H79.5V0H78.5V0.125H77.5V0H76.5V0.125H75.5V0H74.5V0.125H73.5V0H72.5V0.125H71.5V0H70.5V0.125H69.5V0H68.5V0.125H67.5V0H66.5V0.125H65.5V0H64.5V0.125H63.5V0H62.5V0.125H61.5V0H60.5V0.125H60.125V0.5H60Z" fill="white" stroke="black" stroke-width="0.25" stroke-dasharray="1 1"/>
</svg>
