<svg width="54" height="4" viewBox="0 0 54 4" fill="none" xmlns="http://www.w3.org/2000/svg">
<g clip-path="url(#clip0_1665_7871)">
<rect width="53.5" height="3.47" transform="translate(53.5 3.46997) rotate(180)" fill="white"/>
<path d="M27.94 0.339856L27.94 0.419856L48.56 0.419854L48.56 0.309854C48.56 0.309854 48.56 0.289854 48.57 0.299854L49.81 0.299854L49.81 0.199854C49.81 0.199854 49.84 0.139854 49.87 0.139854L50.89 0.139854L50.89 0.389854C50.89 0.389854 50.9 0.419854 50.92 0.419854L51.04 0.419854C51.04 0.419854 51.06 0.419854 51.05 0.399854L51.05 0.289854C51.05 0.289854 51.05 0.269854 51.04 0.279854L51.02 0.279854L51.02 0.259854L51.05 0.209854L51.1 0.209854C51.1 0.209854 51.12 0.209854 51.11 0.219854L51.11 2.48985C51.11 2.48985 51.11 2.46985 51.12 2.47985L51.15 2.47985C51.15 2.47985 51.17 2.47985 51.16 2.48985L51.16 2.95985C51.16 2.95985 51.16 2.97985 51.17 2.96985L51.59 2.96985L51.62 2.96985L52.02 2.96985L52.05 2.96985L52.45 2.96985L52.48 2.96985L52.88 2.96985L52.91 2.96985L53.35 2.96985C53.35 2.96985 53.38 2.97985 53.38 2.99985L53.38 3.31985C53.38 3.31985 53.37 3.34985 53.35 3.34985L52.14 3.34985C52.14 3.34985 52.11 3.29985 52.09 3.30985C52.08 3.30985 52.07 3.31985 52.07 3.32985L52.05 3.32985L50.86 3.33985C50.83 3.33985 50.81 3.32985 50.8 3.29985L50.66 3.05985L50.66 3.03985L50.67 3.02985L50.39 3.02985L50.39 2.96985C50.39 2.96985 50.4 2.93985 50.42 2.93985C50.44 2.93985 50.45 2.94985 50.45 2.96985L50.61 2.96985C50.61 2.96985 50.64 2.95985 50.64 2.93985L50.64 2.83985C50.64 2.83985 50.63 2.80985 50.61 2.80985L50.48 2.80985C50.48 2.80985 50.39 2.76985 50.39 2.71985L50.39 2.58985L50.39 2.51985L49.76 2.51985L49.76 1.42985L49.21 1.42985C49.21 1.42985 49.19 1.42985 49.19 1.41985L49.19 1.31985C48.98 1.31985 48.77 1.28985 48.58 1.20985L48.5 1.16985L28.03 1.16986L27.93 1.20986C27.74 1.28986 27.53 1.32986 27.32 1.31986L27.32 1.41986C27.32 1.41986 27.32 1.43986 27.31 1.42986L26.55 1.42986L26.55 1.37986L26.59 1.37986L26.59 1.32986L26.38 1.32986L26.38 1.37986L26.42 1.37986L26.42 1.42986L26.38 1.42986C26.38 1.42986 26.32 1.39986 26.32 1.36986L26.32 1.15986C26.32 1.15986 26.35 1.09986 26.38 1.09986L26.52 1.09986C26.52 1.09986 26.54 1.09986 26.54 1.08986L26.54 0.469856C26.54 0.469856 26.54 0.449856 26.52 0.459856L26.38 0.459856C26.38 0.459856 26.32 0.429856 26.32 0.399856L26.32 0.369856C26.32 0.369856 26.35 0.309856 26.38 0.309856L27.93 0.309856C27.93 0.309856 27.95 0.309856 27.94 0.319856L27.94 0.379856L27.94 0.349856L27.94 0.339856Z" fill="white"/>
<path d="M2.71996 3.30986C2.71996 3.30986 2.67996 3.34986 2.65996 3.34986L1.44996 3.34986C1.44996 3.34986 1.41996 3.29986 1.39996 3.30986C1.38996 3.30986 1.37996 3.31986 1.37996 3.32986L1.35996 3.32986L0.16996 3.33986C0.14996 3.33986 0.139961 3.32986 0.139961 3.30986L0.139961 2.98986C0.139961 2.96986 0.14996 2.95986 0.16996 2.95986L0.579964 2.95986L0.609962 2.95986L1.00996 2.95986L1.03996 2.95986L1.43996 2.95986L1.46996 2.95986L1.86996 2.95986L1.89996 2.95986L2.28996 2.95986C2.28996 2.95986 2.30996 2.95986 2.30996 2.94986L2.30996 2.47986C2.30996 2.47986 2.30996 2.45986 2.32996 2.46986L2.35996 2.46986C2.35996 2.46986 2.37996 2.46986 2.37996 2.47986L2.37996 0.199856C2.37996 0.199856 2.37996 0.179856 2.39996 0.189856L2.44996 0.189856L2.47996 0.239856L2.47996 0.259856L2.45996 0.259856C2.45996 0.259856 2.43996 0.259856 2.44996 0.269856L2.44996 0.379856C2.44996 0.379856 2.44996 0.399856 2.45996 0.399856L2.57996 0.399856C2.57996 0.399856 2.60996 0.389856 2.60996 0.369856L2.60996 0.119856L3.62996 0.119856C3.62996 0.119856 3.69996 0.149856 3.69996 0.179856L3.69996 0.259856C3.69996 0.279856 3.68996 0.289856 3.66996 0.289856L3.54996 0.289856L3.03996 0.279856L2.96996 0.319856L2.93996 0.319856L2.93996 0.279856L2.89996 0.279856C2.89996 0.279856 2.81996 0.319856 2.81996 0.359856L2.81996 1.44986C2.81996 1.44986 2.85996 1.52986 2.89996 1.52986L2.93996 1.52986L2.93996 1.48986L2.96996 1.48986L3.03996 1.52986L3.72996 1.52986C3.72996 1.52986 3.75996 1.53986 3.75996 1.55986L3.75996 2.11986L26.76 2.11985L26.76 1.78985C26.76 1.78985 26.77 1.75985 26.79 1.75985L27.37 1.75985C27.37 1.75985 27.39 1.75985 27.39 1.74985L27.39 1.60985C27.39 1.60985 27.39 1.58985 27.37 1.59985L27.15 1.59985C27.15 1.59985 27.13 1.59985 27.14 1.60985L27.14 1.63985L27.12 1.63985L27.12 1.53985L28.37 1.53985C28.37 1.53985 28.43 1.56985 28.43 1.59985L28.43 2.00985L28.96 2.00985L28.96 2.52985L28.43 2.52985L28.43 2.97985C28.43 2.97985 28.4 3.03985 28.37 3.03985L27.41 3.03985C27.19 3.03985 26.98 2.99985 26.78 2.91985L26.69 2.87985L3.83996 2.87986L3.75996 2.91986C3.56996 2.99986 3.35996 3.03986 3.14996 3.03986L2.86996 3.03986L2.88996 3.03986L2.88996 3.06986L2.74996 3.30986L2.71996 3.30986Z" fill="white"/>
<path d="M49.86 2.29977L49.86 2.09977L50.49 2.09977L50.49 2.50977L49.95 2.50977L49.95 2.32977C49.95 2.32977 49.95 2.30977 49.93 2.30977L49.86 2.30977" stroke="#010101" stroke-width="0.25" stroke-miterlimit="10"/>
<path d="M49.86 2.29982L49.86 2.31982" stroke="#010101" stroke-width="0.25" stroke-miterlimit="10"/>
<path d="M28.87 2.29982L28.87 2.31982" stroke="#010101" stroke-width="0.25" stroke-miterlimit="10"/>
<path d="M27.5101 2.43994L27.4601 2.43994L27.4601 2.37994C27.4601 2.37994 27.4301 2.33994 27.4401 2.30994C27.4401 2.30994 27.4501 2.29994 27.4601 2.28994L27.4601 2.22994L27.5101 2.22994L27.5101 2.28994C27.5101 2.28994 27.5401 2.32994 27.5301 2.35994C27.5301 2.35994 27.5201 2.36994 27.5101 2.37994L27.5101 2.43994Z" stroke="#010101" stroke-width="0.25" stroke-miterlimit="10"/>
<path d="M27.35 1.98989C27.35 1.98989 27.35 2.00989 27.33 1.99989L26.82 1.99989C26.82 1.99989 26.8 1.99989 26.81 1.98989L26.81 1.83989C26.81 1.83989 26.81 1.81989 26.82 1.82989L27.33 1.82989C27.33 1.82989 27.35 1.82989 27.35 1.83989L27.35 1.98989Z" stroke="#010101" stroke-width="0.25" stroke-miterlimit="10"/>
<path d="M28.35 1.98983C28.35 1.98983 28.35 2.00983 28.33 1.99983L27.99 1.99983C27.99 1.99983 27.93 2.02983 27.93 2.05983L27.93 2.15983C27.93 2.15983 27.93 2.17983 27.92 2.16983L27.86 2.16983C27.86 2.16983 27.81 2.18983 27.8 2.21983L27.8 2.24983C27.8 2.24983 27.77 2.34983 27.8 2.38983L27.8 2.41983C27.8 2.41983 27.82 2.46983 27.86 2.46983L27.92 2.46983C27.92 2.46983 27.94 2.46983 27.93 2.47983L27.93 2.53983C27.93 2.53983 27.96 2.59983 27.99 2.59983L28.33 2.59983C28.33 2.59983 28.35 2.59983 28.35 2.60983L28.35 2.92983C28.35 2.92983 28.35 2.94983 28.33 2.93983L27.7 2.93983C27.7 2.93983 27.68 2.93983 27.69 2.92983L27.69 2.80983C27.69 2.80983 27.65 2.71983 27.6 2.71983L27.47 2.71983C27.47 2.71983 27.44 2.70983 27.44 2.68983L27.44 2.47983C27.44 2.47983 27.44 2.45983 27.45 2.46983L27.51 2.46983C27.51 2.46983 27.56 2.44983 27.57 2.41983L27.57 2.38983C27.57 2.38983 27.6 2.28983 27.57 2.24983L27.57 2.21983C27.57 2.21983 27.55 2.15983 27.52 2.15983L27.46 2.15983C27.46 2.15983 27.44 2.15983 27.45 2.14983L27.45 2.04983C27.45 2.04983 27.43 1.99983 27.4 1.98983L27.39 1.98983L27.39 1.81983L27.4 1.81983C27.4 1.81983 27.45 1.77983 27.45 1.74983L27.45 1.58983C27.45 1.58983 27.45 1.56983 27.46 1.57983L28.34 1.57983C28.34 1.57983 28.36 1.57983 28.36 1.58983L28.36 1.96983L28.35 1.98983Z" stroke="#010101" stroke-width="0.25" stroke-miterlimit="10"/>
<path d="M3.35001 2.24997C3.35001 2.24997 3.39001 2.25997 3.39001 2.27997L3.39001 2.68997C3.39001 2.68997 3.37001 2.71997 3.35001 2.71997" stroke="#010101" stroke-width="0.25" stroke-miterlimit="10"/>
<path d="M27.15 2.72974C27.15 2.72974 27.11 2.71974 27.11 2.69974L27.11 2.28974C27.11 2.28974 27.13 2.25974 27.15 2.25974" stroke="#010101" stroke-width="0.25" stroke-miterlimit="10"/>
<path d="M3.63002 2.66978L3.65002 2.66978L3.65002 2.73978C3.65002 2.73978 3.64002 2.75978 3.63002 2.76978L3.37002 2.76978C3.37002 2.76978 3.34002 2.75978 3.34002 2.73978L3.34002 2.25978C3.34002 2.25978 3.35002 2.23978 3.36002 2.23978L3.62002 2.23978C3.62002 2.23978 3.64002 2.24978 3.64002 2.25978L3.64002 2.32978L3.62002 2.32978L3.62002 2.25978L3.35002 2.25978L3.35002 2.74978L3.62002 2.74978L3.62002 2.66978L3.63002 2.66978Z" stroke="#010101" stroke-width="0.25" stroke-miterlimit="10"/>
<path d="M27.1501 2.24978L26.8801 2.24978L26.8801 2.32978L26.8601 2.32978L26.8601 2.25978C26.8601 2.25978 26.8701 2.23978 26.8901 2.23978L27.1501 2.23978C27.1501 2.23978 27.1801 2.24978 27.1801 2.25978L27.1801 2.73978C27.1801 2.73978 27.1701 2.76978 27.1601 2.76978L26.9001 2.76978C26.9001 2.76978 26.8701 2.75978 26.8701 2.74978L26.8701 2.67978L26.8901 2.67978L26.8901 2.74978L27.1601 2.74978L27.1601 2.25978L27.1501 2.24978Z" stroke="#010101" stroke-width="0.25" stroke-miterlimit="10"/>
<path d="M27.5299 0.549775C27.5299 0.549775 27.5699 0.559775 27.5699 0.579775L27.5699 0.989775C27.5699 0.989775 27.5499 1.01978 27.5299 1.01978" stroke="#010101" stroke-width="0.25" stroke-miterlimit="10"/>
<path d="M48.97 1.02979C48.97 1.02979 48.93 1.01979 48.93 0.999785L48.93 0.589785C48.93 0.589785 48.95 0.559785 48.97 0.559785" stroke="#010101" stroke-width="0.25" stroke-miterlimit="10"/>
<path d="M27.82 0.959815L27.84 0.959815L27.84 1.02981C27.84 1.02981 27.83 1.04981 27.82 1.05981L27.56 1.05981C27.56 1.05981 27.53 1.04981 27.53 1.03981L27.53 0.559814C27.53 0.559814 27.54 0.529815 27.55 0.529815L27.81 0.529814C27.81 0.529814 27.83 0.539814 27.83 0.559814L27.83 0.629815L27.81 0.629815L27.81 0.559814L27.54 0.559814L27.54 1.04981L27.81 1.04981L27.81 0.969815L27.82 0.959815Z" stroke="#010101" stroke-width="0.25" stroke-miterlimit="10"/>
<path d="M48.97 0.549824L48.7 0.549824L48.7 0.629824L48.68 0.629824L48.68 0.559824C48.68 0.559824 48.69 0.529824 48.7 0.529824L48.96 0.529824C48.96 0.529824 48.98 0.539824 48.98 0.559824L48.98 1.03982C48.98 1.03982 48.97 1.06982 48.96 1.06982L48.7 1.06982C48.7 1.06982 48.68 1.05982 48.68 1.04982L48.68 0.979824L48.7 0.979824L48.7 1.04982L48.97 1.04982L48.97 0.559824L48.97 0.549824Z" stroke="#010101" stroke-width="0.25" stroke-miterlimit="10"/>
<path d="M50.93 2.68986C50.93 2.68986 50.84 2.72986 50.84 2.77986L50.84 2.95986C50.84 2.95986 50.84 2.97986 50.83 2.96986L50.7 2.96986C50.7 2.96986 50.68 2.96986 50.69 2.95986L50.69 2.83986C50.69 2.83986 50.65 2.74986 50.6 2.74986L50.47 2.74986C50.47 2.74986 50.44 2.73986 50.44 2.71986L50.44 2.63986C50.44 2.63986 50.44 2.61986 50.46 2.62986L50.48 2.62986C50.48 2.62986 50.57 2.58986 50.57 2.53986L50.57 2.16986C50.57 2.16986 50.57 2.14986 50.58 2.15986L51.06 2.15986C51.06 2.15986 51.08 2.15986 51.07 2.16986L51.07 2.67986C51.07 2.67986 51.07 2.69986 51.06 2.68986L50.94 2.68986L50.93 2.68986Z" stroke="#010101" stroke-width="0.25" stroke-miterlimit="10"/>
<path d="M2.56995 2.68986L2.44995 2.68986C2.44995 2.68986 2.42995 2.68986 2.43995 2.67986L2.43995 2.16986C2.43995 2.16986 2.43995 2.14986 2.44995 2.15986L2.92995 2.15986C2.92995 2.15986 2.94995 2.15986 2.94995 2.16986L2.94995 2.53986C2.94995 2.53986 2.98996 2.62986 3.03996 2.62986L3.05996 2.62986C3.05996 2.62986 3.07996 2.62986 3.07996 2.63986L3.07996 2.71986C3.07996 2.71986 3.06995 2.74986 3.04995 2.74986L2.91995 2.74986C2.91995 2.74986 2.82996 2.78986 2.82996 2.83986L2.82996 2.95986C2.82996 2.95986 2.82995 2.97986 2.81995 2.96986L2.69995 2.96986C2.69995 2.96986 2.67995 2.96986 2.67995 2.95986L2.67995 2.77986C2.67995 2.77986 2.63995 2.68986 2.58995 2.68986" stroke="#010101" stroke-width="0.25" stroke-miterlimit="10"/>
<path d="M50.5701 2.11976C50.5701 2.11976 50.5501 2.11976 50.5601 2.10976L50.5601 2.01976C50.5601 1.94976 50.5101 1.89976 50.4401 1.89976L50.3701 1.89976L50.2801 1.60976L50.2901 1.58976L50.4901 1.58976L50.5001 1.57976L50.5201 1.57976L50.5601 1.58976L50.6001 1.58976C50.6801 1.58976 50.7401 1.52976 50.7401 1.44976L50.7401 1.15976C50.7401 1.15976 50.7401 1.13976 50.7501 1.13976L51.0401 1.13976C51.0401 1.13976 51.0601 1.13976 51.0501 1.15976L51.0501 2.10976C51.0501 2.10976 51.0501 2.12976 51.0401 2.11976L50.5601 2.11976L50.5701 2.11976Z" stroke="#010101" stroke-width="0.25" stroke-miterlimit="10"/>
<path d="M2.92996 2.11976L2.44996 2.11976C2.44996 2.11976 2.42996 2.11976 2.43996 2.10976L2.43996 1.15976C2.43996 1.15976 2.43996 1.13976 2.44996 1.13976L2.73996 1.13976C2.73996 1.13976 2.75996 1.13976 2.74996 1.15976L2.74996 1.44976C2.74996 1.52976 2.80996 1.58976 2.88996 1.58976L2.96996 1.58976L2.98996 1.57976L2.99996 1.57976L3.02996 1.58976L3.20996 1.58976L3.20996 1.60976L3.11996 1.88976L3.10996 1.88976L3.05996 1.89976C2.98996 1.89976 2.93996 1.94976 2.93996 2.01976L2.93996 2.10976C2.93996 2.10976 2.93996 2.12976 2.91996 2.11976L2.92996 2.11976Z" stroke="#010101" stroke-width="0.25" stroke-miterlimit="10"/>
<path d="M50.7499 1.08985L50.7499 0.359854C50.7499 0.279854 50.6899 0.219853 50.6099 0.219853C50.6099 0.219853 50.5899 0.219853 50.5999 0.209853C50.5999 0.209853 50.5999 0.179853 50.6099 0.189853L50.8299 0.189853C50.8299 0.189853 50.8499 0.189853 50.8399 0.199853L50.8399 0.369854C50.8399 0.369854 50.8799 0.459853 50.9299 0.459853L51.0499 0.459853C51.0499 0.459853 51.0699 0.459853 51.0599 0.469853L51.0599 1.07985C51.0599 1.07985 51.0599 1.09985 51.0499 1.09985L50.7599 1.09985C50.7599 1.09985 50.7399 1.09985 50.7499 1.07985L50.7499 1.08985Z" stroke="#010101" stroke-width="0.25" stroke-miterlimit="10"/>
<path d="M2.75004 1.08986C2.75004 1.08986 2.75004 1.10986 2.74004 1.10986L2.45004 1.10986C2.45004 1.10986 2.43004 1.10986 2.44004 1.08986L2.44004 0.479863C2.44004 0.479863 2.44004 0.459863 2.45004 0.469863L2.57004 0.469863C2.57004 0.469863 2.66004 0.429863 2.66004 0.379863L2.66004 0.199863C2.66004 0.199863 2.66004 0.179863 2.68004 0.189863L2.90004 0.189863C2.90004 0.189863 2.92004 0.189863 2.91004 0.199863C2.91004 0.199863 2.91004 0.229863 2.90004 0.219863C2.82004 0.219863 2.76004 0.279863 2.76004 0.359863L2.76004 1.08986L2.75004 1.08986Z" stroke="#010101" stroke-width="0.25" stroke-miterlimit="10"/>
<path d="M50.26 1.99976L49.82 1.99976C49.82 1.99976 49.8 1.99976 49.81 1.98976L49.81 1.60976C49.81 1.60976 49.81 1.58976 49.82 1.59976L50.25 1.59976L50.34 1.89976L50.34 1.91976C50.34 1.91976 50.28 1.95976 50.28 1.99976L50.27 1.99976L50.26 1.99976Z" stroke="#010101" stroke-width="0.25" stroke-miterlimit="10"/>
<path d="M3.24006 1.99976L3.23006 1.99976C3.23006 1.99976 3.21006 1.91976 3.17006 1.90976L3.17006 1.88976L3.25006 1.59976L3.26006 1.59976L3.67006 1.58976C3.67006 1.58976 3.69006 1.58976 3.68006 1.59976L3.68006 1.97976C3.68006 1.97976 3.68006 1.99976 3.67006 1.98976L3.23006 1.98976L3.24006 1.99976Z" stroke="#010101" stroke-width="0.25" stroke-miterlimit="10"/>
<path d="M49.8701 0.219746L49.8701 0.199746C49.8701 0.199746 49.8701 0.179746 49.8801 0.189746L50.5401 0.189746C50.5401 0.189746 50.5601 0.189746 50.5501 0.199746L50.5401 0.229746L50.5101 0.229746L50.4901 0.239746L50.4801 0.239746L50.4501 0.229746L49.9101 0.229746L49.8701 0.239746C49.8701 0.239746 49.8501 0.239746 49.8601 0.229746L49.8701 0.219746Z" stroke="#010101" stroke-width="0.25" stroke-miterlimit="10"/>
<path d="M3.63 0.219866C3.63 0.219866 3.63 0.239866 3.61 0.229866L3.54 0.229866L3.03 0.219866L3 0.219866L2.99001 0.229866L2.97001 0.229866L2.94 0.219866L2.93 0.219866L2.93 0.189866C2.93 0.189866 2.93 0.169866 2.95 0.179866L3.61 0.179866C3.61 0.179866 3.63 0.179866 3.63 0.189866L3.63 0.209866L3.63 0.219866Z" stroke="#010101" stroke-width="0.25" stroke-miterlimit="10"/>
<path d="M51.06 2.96979L51.03 2.91979L51.03 2.88979L51.05 2.88979C51.05 2.88979 51.07 2.88979 51.06 2.87979L51.06 2.76979C51.06 2.76979 51.06 2.74979 51.05 2.75979L50.93 2.75979C50.93 2.75979 50.9 2.76979 50.9 2.78979L50.9 3.03979L50.38 3.03979L50.38 2.97979C50.38 2.97979 50.39 2.9498 50.41 2.9498C50.43 2.9498 50.44 2.95979 50.44 2.97979L50.6 2.97979C50.6 2.97979 50.63 2.96979 50.63 2.94979L50.63 2.84979C50.63 2.84979 50.62 2.81979 50.6 2.81979L50.47 2.8198C50.47 2.8198 50.38 2.77979 50.38 2.72979L50.38 2.59979C50.38 2.59979 50.39 2.5698 50.41 2.5698L50.47 2.5698C50.47 2.5698 50.5 2.55979 50.5 2.53979L50.5 2.02979C50.5 2.02979 50.47 1.9698 50.44 1.9698L50.37 1.9698C50.37 1.9698 50.34 1.9798 50.34 1.9998L50.38 2.0498L50.38 2.0798L49.8 2.0798C49.8 2.0798 49.8 2.1098 49.78 2.1098L49.76 2.1098C49.76 2.1098 49.74 2.1098 49.75 2.0998L49.75 1.58979C49.75 1.58979 49.76 1.5598 49.78 1.5598L50.47 1.55979L50.54 1.51979L50.57 1.51979L50.57 1.55979L50.61 1.55979C50.61 1.55979 50.69 1.5198 50.69 1.4798L50.69 0.389795C50.69 0.389795 50.65 0.309795 50.61 0.309795L50.56 0.309795L50.56 0.349795L50.53 0.349795L50.46 0.309795L49.94 0.309795L49.83 0.319795C49.81 0.319795 49.8 0.309795 49.8 0.289795L49.8 0.219795C49.8 0.219795 49.83 0.159795 49.86 0.159795L50.88 0.159795L50.88 0.409795C50.88 0.409795 50.89 0.439795 50.91 0.439795L51.03 0.439795C51.03 0.439795 51.05 0.439795 51.04 0.419795L51.04 0.309795C51.04 0.309795 51.04 0.289795 51.03 0.299795L51.01 0.299795L51.01 0.279795L51.04 0.229795L51.09 0.229795C51.09 0.229795 51.11 0.229795 51.1 0.239795L51.1 2.94979L51.04 2.94979L51.06 2.96979Z" stroke="#010101" stroke-width="0.25" stroke-miterlimit="10"/>
<path d="M2.38001 2.94978L2.38001 0.199776C2.38001 0.199776 2.38001 0.179776 2.40001 0.189776L2.45001 0.189776L2.48001 0.239776L2.48001 0.259776L2.46001 0.259776C2.46001 0.259776 2.44001 0.259776 2.45001 0.269776L2.45001 0.379776C2.45001 0.379776 2.45001 0.399776 2.46001 0.399776L2.58001 0.399776C2.58001 0.399776 2.61001 0.389776 2.61001 0.369776L2.61001 0.119776L3.63001 0.119776C3.63001 0.119776 3.70001 0.149775 3.70001 0.179775L3.70001 0.259775C3.70001 0.279775 3.69001 0.289775 3.67001 0.289775L3.55001 0.289775L3.04001 0.279775L2.97001 0.319775L2.94001 0.319775L2.94001 0.279775L2.90001 0.279775C2.90001 0.279775 2.82001 0.319776 2.82001 0.359776L2.82001 1.44978C2.82001 1.44978 2.86001 1.52978 2.90001 1.52978L2.94001 1.52978L2.94001 1.48978L2.97001 1.48978L3.04001 1.52978L3.73001 1.52978C3.73001 1.52978 3.76001 1.53978 3.76001 1.55978L3.76001 2.06978C3.76001 2.06978 3.76001 2.08978 3.74001 2.07978L3.72001 2.07978C3.72001 2.07978 3.70001 2.07978 3.71001 2.06978L3.14001 2.06978L3.14001 2.02978L3.18001 1.97978C3.18001 1.97978 3.17001 1.94978 3.15001 1.94978L3.07001 1.94978C3.07001 1.94978 3.01001 1.97978 3.01001 2.00978L3.01001 2.51978C3.01001 2.51978 3.02001 2.54978 3.04001 2.54978L3.11001 2.54978C3.11001 2.54978 3.14001 2.55978 3.14001 2.57978L3.14001 2.69978C3.14001 2.69978 3.10001 2.78978 3.05001 2.78978L2.92001 2.78978C2.92001 2.78978 2.89001 2.79978 2.89001 2.81978L2.89001 2.92978C2.89001 2.92978 2.90001 2.95978 2.92001 2.95978L3.08001 2.95978C3.08001 2.95978 3.09001 2.92978 3.11001 2.92978C3.13001 2.92978 3.14001 2.93978 3.14001 2.95978L3.14001 3.01978L2.61001 3.01978L2.61001 2.76978C2.61001 2.76978 2.60001 2.73978 2.58001 2.73978L2.46001 2.73978C2.46001 2.73978 2.44001 2.73978 2.45001 2.74978L2.45001 2.85978C2.45001 2.85978 2.45001 2.87978 2.46001 2.86978L2.48001 2.86978L2.48001 2.89978L2.45001 2.94978L2.39001 2.94978L2.38001 2.94978Z" stroke="#010101" stroke-width="0.25" stroke-miterlimit="10"/>
<path d="M51.12 2.48985C51.12 2.48985 51.12 2.46985 51.13 2.47985L51.16 2.47985C51.16 2.47985 51.18 2.47985 51.17 2.48985L51.17 2.95985C51.17 2.95985 51.17 2.97985 51.18 2.96985L51.6 2.96985L51.63 2.96985L52.03 2.96985L52.06 2.96985L52.46 2.96985L52.49 2.96985L52.89 2.96985L52.92 2.96985L53.35 2.96985C53.35 2.96985 53.38 2.97985 53.38 2.99985L53.38 3.31985C53.38 3.31985 53.37 3.34985 53.35 3.34985L52.14 3.34985C52.14 3.34985 52.11 3.29985 52.09 3.30985C52.08 3.30985 52.07 3.31985 52.07 3.32985L52.05 3.32985L50.86 3.33985C50.83 3.33985 50.81 3.32985 50.8 3.29985L50.66 3.05985L50.66 3.03985L50.67 3.03985" stroke="#010101" stroke-width="0.25" stroke-miterlimit="10"/>
<path d="M2.83998 3.02985L2.85999 3.02985L2.85999 3.05985L2.71999 3.30985C2.70999 3.32985 2.67998 3.34985 2.65998 3.34985L1.44999 3.34985C1.44999 3.34985 1.41999 3.29985 1.39999 3.30985C1.38999 3.30985 1.37999 3.31985 1.37999 3.32985L1.35999 3.32985L0.169983 3.33985C0.149983 3.33985 0.139984 3.32985 0.139984 3.30985L0.139984 2.98985C0.139984 2.96985 0.149983 2.95985 0.169983 2.95985L0.579987 2.95985L0.609985 2.95985L1.00998 2.95985L1.03999 2.95985L1.43998 2.95985L1.46999 2.95985L1.86998 2.95985L1.89999 2.95985L2.28999 2.95985C2.28999 2.95985 2.30999 2.95985 2.30999 2.94985L2.30999 2.47985C2.30999 2.47985 2.30999 2.45985 2.32999 2.46985L2.35999 2.46985C2.35999 2.46985 2.37999 2.46985 2.37999 2.47985" stroke="#010101" stroke-width="0.25" stroke-miterlimit="10"/>
<path d="M27.25 2.21997L3.25 2.21997L3.25 2.12997L27.25 2.12997L27.25 2.21997Z" stroke="#010101" stroke-width="0.25" stroke-miterlimit="10"/>
<path d="M49.0601 0.509766L27.4401 0.509768L27.4401 0.419768L49.0601 0.419766L49.0601 0.509766Z" stroke="#010101" stroke-width="0.25" stroke-miterlimit="10"/>
<path d="M49.0601 1.16992L27.4401 1.16992L27.4401 1.07992L49.0601 1.07992L49.0601 1.16992Z" stroke="#010101" stroke-width="0.25" stroke-miterlimit="10"/>
<path d="M28.87 2.31978L28.8 2.31978C28.8 2.31978 28.78 2.31978 28.78 2.33978L28.78 2.51978L28.24 2.51978L28.24 2.10978L28.87 2.10978L28.87 2.30978" stroke="#010101" stroke-width="0.25" stroke-miterlimit="10"/>
<path d="M27.25 2.86987L3.25 2.86988L3.25 2.77988L27.25 2.77987L27.25 2.86987Z" stroke="#010101" stroke-width="0.25" stroke-miterlimit="10"/>
<path d="M27.9301 1.20982C27.7401 1.28982 27.5401 1.31982 27.3401 1.31982C27.3201 1.29982 27.3101 1.26982 27.3201 1.23982L27.2501 1.23982L27.1101 1.13982L27.1101 1.10982L27.1201 1.10982L27.1301 1.10982L27.2401 1.19982L27.3101 1.19982C27.3101 1.19982 27.3501 1.21982 27.3501 1.23982L27.3501 1.27982C27.5401 1.27982 27.7301 1.23982 27.9101 1.16982C27.9201 1.16982 27.9301 1.16982 27.9401 1.17982C27.9401 1.17982 27.9401 1.19982 27.9301 1.20982Z" stroke="#010101" stroke-width="0.25" stroke-miterlimit="10"/>
<path d="M49.17 1.31982C48.97 1.31982 48.76 1.28982 48.58 1.20982C48.57 1.20982 48.57 1.18982 48.57 1.17982C48.57 1.17982 48.59 1.16982 48.6 1.16982C48.78 1.23982 48.97 1.27982 49.16 1.27982L49.16 1.23982C49.16 1.23982 49.18 1.19982 49.2 1.19982L49.27 1.19982L49.38 1.10982L49.39 1.10982L49.4 1.10982L49.4 1.13982L49.26 1.24982L49.25 1.24982L49.19 1.23982C49.19 1.26982 49.19 1.29982 49.17 1.31982Z" stroke="#010101" stroke-width="0.25" stroke-miterlimit="10"/>
<path d="M26.52 1.15977C26.52 1.15977 26.6 1.12977 26.6 1.08977L26.6 0.469768C26.6 0.469768 26.57 0.399768 26.52 0.399768L26.39 0.399768C26.39 0.399768 26.38 0.399768 26.38 0.379768C26.38 0.379768 26.38 0.369768 26.39 0.369768L27.24 0.369768C27.24 0.369768 27.26 0.369768 27.26 0.379768L27.26 1.01977C27.26 1.01977 27.25 1.04977 27.23 1.04977L27.1 1.04977C27.1 1.04977 27.01 1.08977 27.01 1.13977L27.01 1.36977C27.01 1.36977 27.01 1.38977 27 1.37977L26.67 1.37977C26.67 1.37977 26.65 1.37977 26.66 1.36977C26.66 1.31977 26.63 1.28977 26.59 1.27977L26.41 1.27977C26.41 1.27977 26.39 1.27977 26.4 1.26977L26.4 1.18977C26.4 1.18977 26.4 1.16977 26.41 1.17977L26.54 1.17977L26.52 1.15977Z" stroke="#010101" stroke-width="0.25" stroke-miterlimit="10"/>
<path d="M49.98 1.15987L50.11 1.15987C50.11 1.15987 50.13 1.15987 50.12 1.16987L50.12 1.24987C50.12 1.24987 50.12 1.26987 50.11 1.25987L49.93 1.25987C49.93 1.25987 49.86 1.28987 49.86 1.33987C49.86 1.33987 49.86 1.36987 49.85 1.36987L49.52 1.36987C49.52 1.36987 49.5 1.36987 49.5 1.35987L49.5 1.13987C49.5 1.13987 49.46 1.04987 49.41 1.04987L49.28 1.04987C49.28 1.04987 49.25 1.03987 49.25 1.01987L49.25 0.379873C49.25 0.379873 49.25 0.359873 49.26 0.369873L50.11 0.369873C50.11 0.369873 50.12 0.369873 50.12 0.389873C50.12 0.389873 50.12 0.399873 50.11 0.399873L49.98 0.399873C49.98 0.399873 49.91 0.429873 49.9 0.469873L49.9 1.08987C49.9 1.08987 49.93 1.15987 49.98 1.15987Z" stroke="#010101" stroke-width="0.25" stroke-miterlimit="10"/>
<path d="M26.4199 1.42982L26.3799 1.42982C26.3799 1.42982 26.3199 1.39982 26.3199 1.36982L26.3199 1.15982C26.3199 1.15982 26.3499 1.09982 26.3799 1.09982L26.5199 1.09982C26.5199 1.09982 26.5399 1.09982 26.5399 1.08982L26.5399 0.469817C26.5399 0.469817 26.5399 0.449817 26.5199 0.459817L26.3799 0.459817C26.3799 0.459817 26.3199 0.429817 26.3199 0.399817L26.3199 0.369817C26.3199 0.369817 26.3499 0.309817 26.3799 0.309817L27.9299 0.309817C27.9299 0.309817 27.9499 0.309817 27.9399 0.319817L27.9399 0.379817C27.9399 0.379817 27.9399 0.399817 27.9299 0.389817L27.9099 0.389817L27.8799 0.359817L27.3299 0.359817C27.3299 0.359817 27.3099 0.359817 27.3099 0.369817L27.3099 1.00982C27.3099 1.00982 27.2699 1.09982 27.2199 1.09982L27.0899 1.09982C27.0899 1.09982 27.0599 1.10982 27.0599 1.12982L27.0599 1.33982C27.0599 1.33982 27.0699 1.36982 27.0899 1.36982L27.2299 1.36982C27.2299 1.36982 27.2499 1.36982 27.2499 1.35982L27.2499 1.26982C27.2499 1.26982 27.2599 1.23982 27.2799 1.23982C27.2999 1.23982 27.3099 1.24982 27.3099 1.26982L27.3099 1.41982C27.3099 1.41982 27.3099 1.43982 27.2999 1.42982L26.5399 1.42982L26.5399 1.37982L26.5799 1.37982L26.5799 1.32982L26.3699 1.32982L26.3699 1.37982L26.4099 1.37982L26.4099 1.42982L26.4199 1.42982Z" stroke="#010101" stroke-width="0.25" stroke-miterlimit="10"/>
<path d="M49.2001 1.42994C49.2001 1.42994 49.1801 1.42994 49.1801 1.41994L49.1801 1.26994C49.1801 1.26994 49.1901 1.23994 49.2101 1.23994C49.2301 1.23994 49.2401 1.24994 49.2401 1.26994L49.2401 1.35994C49.2401 1.35994 49.2401 1.37994 49.2501 1.36994L49.4001 1.36994C49.4001 1.36994 49.4301 1.35994 49.4301 1.33994L49.4301 1.12994C49.4301 1.12994 49.4201 1.09994 49.4001 1.09994L49.2701 1.09994C49.2701 1.09994 49.1801 1.05994 49.1801 1.00994L49.1801 0.369942C49.1801 0.369942 49.1801 0.349942 49.1701 0.359942L48.6201 0.359942L48.5901 0.389942L48.5701 0.389942C48.5701 0.389942 48.5501 0.389942 48.5601 0.379942L48.5601 0.319941C48.5601 0.319941 48.5601 0.299941 48.5701 0.309941L50.1201 0.309941C50.1201 0.309941 50.1801 0.339941 50.1801 0.369941L50.1801 0.399941C50.1801 0.399941 50.1501 0.459941 50.1201 0.459941L49.9801 0.459941C49.9801 0.459941 49.9601 0.459941 49.9701 0.469941L49.9701 1.08994C49.9701 1.08994 49.9701 1.10994 49.9801 1.09994L50.1201 1.09994C50.1201 1.09994 50.1801 1.12994 50.1801 1.15994L50.1801 1.37994C50.1801 1.37994 50.1501 1.43994 50.1201 1.43994L50.0801 1.43994L50.0801 1.38994L50.1201 1.38994L50.1201 1.33994L49.9101 1.33994L49.9101 1.38994L49.9501 1.38994L49.9501 1.43994L49.1901 1.43994L49.2001 1.42994Z" stroke="#010101" stroke-width="0.25" stroke-miterlimit="10"/>
<path d="M27.91 2.28994C27.91 2.28994 27.94 2.32994 27.93 2.35994C27.93 2.35994 27.92 2.36994 27.91 2.37994L27.91 2.43994L27.86 2.43994L27.86 2.37994C27.86 2.37994 27.83 2.33994 27.84 2.30994C27.84 2.30994 27.85 2.29994 27.86 2.28994L27.86 2.22994L27.91 2.22994L27.91 2.28994Z" stroke="#010101" stroke-width="0.25" stroke-miterlimit="10"/>
<path d="M26.75 1.65992L26.76 1.65992L27.1 1.66992C27.11 1.66992 27.12 1.65992 27.12 1.63992C27.12 1.62992 27.12 1.61992 27.1 1.61992L26.91 1.58992L26.91 1.60992L26.84 1.60992L26.81 1.57992L26.81 1.44992L26.84 1.41992L26.98 1.41992L26.98 1.36992" stroke="#010101" stroke-width="0.25" stroke-miterlimit="10"/>
<path d="M3.74 2.90978C3.55 2.98978 3.35 3.01978 3.15 3.01978C3.13 2.99978 3.12 2.96978 3.13 2.93978L3.06 2.93978L2.92 2.83978L2.92 2.80978L2.93 2.80978L2.94 2.80978L3.05 2.89978L3.12 2.89978C3.12 2.89978 3.16 2.91978 3.16 2.93978L3.16 2.97978C3.35 2.97978 3.54 2.93978 3.72 2.86978C3.73 2.86978 3.74 2.86978 3.75 2.87978C3.75 2.88978 3.75 2.89978 3.74 2.90978Z" stroke="#010101" stroke-width="0.25" stroke-miterlimit="10"/>
<path d="M27.35 3.01978C27.15 3.01978 26.94 2.98978 26.76 2.90978C26.75 2.90978 26.75 2.88978 26.75 2.87978C26.75 2.87978 26.77 2.86978 26.78 2.86978C26.96 2.93978 27.15 2.97978 27.34 2.97978L27.34 2.93978C27.34 2.93978 27.36 2.89978 27.38 2.89978L27.45 2.89978L27.56 2.80978L27.57 2.80978L27.58 2.80978L27.58 2.83978L27.44 2.94978L27.43 2.94978L27.37 2.93978C27.37 2.96978 27.37 2.99978 27.35 3.01978Z" stroke="#010101" stroke-width="0.25" stroke-miterlimit="10"/>
<path d="M27.38 1.74979L27.38 1.60979C27.38 1.60979 27.38 1.58979 27.36 1.59979L27.14 1.59979C27.14 1.59979 27.12 1.59979 27.13 1.60979L27.13 1.63979L26.84 1.58979C26.84 1.58979 26.81 1.56979 26.82 1.55979C26.82 1.54979 26.83 1.53979 26.85 1.53979L28.36 1.53979C28.36 1.53979 28.42 1.56979 28.42 1.59979L28.42 2.00979C28.42 2.00979 28.39 2.06979 28.36 2.06979L28.02 2.06979C28.02 2.06979 28 2.06979 28 2.07979L28 2.54979C28 2.54979 28 2.56979 28.02 2.55979L28.36 2.55979C28.36 2.55979 28.42 2.58979 28.42 2.61979L28.42 2.96979C28.42 2.96979 28.39 3.02979 28.36 3.02979L27.4 3.02979C27.4 3.02979 27.38 3.02979 27.39 3.01979L27.39 2.97979C27.39 2.97979 27.4 2.94979 27.42 2.94979C27.44 2.94979 27.45 2.95979 27.45 2.97979L27.61 2.97979C27.61 2.97979 27.64 2.96979 27.64 2.94979L27.64 2.84979C27.64 2.84979 27.63 2.81979 27.61 2.81979L27.48 2.81979C27.48 2.81979 27.39 2.77979 27.39 2.72979L27.39 2.08979C27.39 2.08979 27.39 2.06979 27.37 2.07979L26.81 2.07979C26.81 2.07979 26.81 2.10979 26.79 2.10979L26.77 2.10979C26.77 2.10979 26.75 2.10979 26.75 2.09979L26.75 1.81979C26.75 1.81979 26.76 1.78979 26.78 1.78979L27.36 1.78979C27.36 1.78979 27.38 1.78979 27.38 1.77979L27.38 1.74979Z" stroke="#010101" stroke-width="0.25" stroke-miterlimit="10"/>
</g>
<defs>
<clipPath id="clip0_1665_7871">
<rect width="53.5" height="3.47" fill="white" transform="translate(53.5 3.46997) rotate(180)"/>
</clipPath>
</defs>
</svg>
