<svg width="47" height="4" viewBox="0 0 47 4" fill="none" xmlns="http://www.w3.org/2000/svg">
<g clip-path="url(#clip0_1699_2)">
<rect width="46.28" height="3.87" transform="translate(46.28 3.87012) rotate(180)" fill="white"/>
<path d="M37.68 0.180078C37.5695 0.180078 37.48 0.269621 37.48 0.380078C37.48 0.490535 37.5695 0.580078 37.68 0.580078C37.7905 0.580078 37.88 0.490535 37.88 0.380078C37.88 0.269621 37.7905 0.180078 37.68 0.180078Z" fill="white"/>
<path d="M8.60005 0.180078C8.48959 0.180078 8.40005 0.269621 8.40005 0.380078C8.40005 0.490535 8.48959 0.580078 8.60005 0.580078C8.71051 0.580078 8.80005 0.490535 8.80005 0.380078C8.80005 0.269621 8.7105 0.180078 8.60005 0.180078Z" fill="white"/>
<path d="M15.8699 0.180078C15.7595 0.180078 15.6699 0.269621 15.6699 0.380078C15.6699 0.490535 15.7595 0.580078 15.8699 0.580078C15.9804 0.580078 16.0699 0.490535 16.0699 0.380078C16.0699 0.269621 15.9804 0.180078 15.8699 0.180078Z" fill="white"/>
<path d="M23.14 0.180078C23.0295 0.180078 22.94 0.269621 22.94 0.380078C22.94 0.490535 23.0295 0.580078 23.14 0.580078C23.2504 0.580078 23.34 0.490535 23.34 0.380078C23.34 0.269621 23.2504 0.180078 23.14 0.180078Z" fill="white"/>
<path d="M30.4 0.180078C30.2895 0.180078 30.2 0.269621 30.2 0.380078C30.2 0.490535 30.2895 0.580078 30.4 0.580078C30.5104 0.580078 30.6 0.490535 30.6 0.380078C30.6 0.269621 30.5104 0.180078 30.4 0.180078Z" fill="white"/>
<path d="M33.44 2.41003L33.42 2.41003L33.42 2.53003L33.8 2.53003L33.8 2.42003L33.78 2.42003L33.45 2.41003L33.44 2.41003Z" fill="white"/>
<path d="M22.61 0.640237C22.61 0.640237 22.61 0.640237 22.62 0.640237L23.65 0.640236C23.65 0.640236 23.66 0.640236 23.66 0.650236L23.66 0.710236C23.66 0.710236 23.66 0.720236 23.68 0.720236L23.72 0.720236C23.72 0.720236 23.74 0.720236 23.74 0.710236L23.74 0.690236L23.77 0.690236L23.89 0.760236L23.89 0.780236C23.89 0.780236 23.89 0.790237 23.87 0.790237L23.8 0.790237L23.78 0.770237L23.76 0.770237L23.71 0.790237L23.66 0.790237C23.66 0.790237 23.64 0.790236 23.64 0.800236L23.64 1.16024C23.64 1.16024 23.62 1.23024 23.58 1.24024L23.56 1.24024L24.07 1.24024C24.07 1.24024 24.09 1.24024 24.09 1.26024L24.09 1.42024L24.23 1.42024L24.23 1.31024L24.21 1.31024L24.21 1.26024C24.21 1.26024 24.21 1.24024 24.23 1.24024L24.25 1.24024C24.25 1.24024 24.27 1.24024 24.27 1.26024L24.27 1.44024C24.27 1.44024 24.27 1.46024 24.25 1.46024L24.18 1.46024L24.18 1.62024C24.18 1.62024 24.18 1.64024 24.16 1.64024L23.75 1.64024C23.75 1.64024 23.77 1.66024 23.76 1.67024L23.76 1.69024L23.7 1.80024L23.69 1.80024L23.66 1.80024L23.64 1.80024L23.64 1.77024L23.66 1.75024L23.66 1.72024L23.1 1.72024C23.1 1.72024 23.09 1.72024 23.09 1.71024C23.09 1.71024 23.09 1.69024 23.08 1.69024L23.03 1.69024C23.03 1.69024 23.01 1.69024 23.01 1.70024L23.01 1.83024C23.01 1.83024 23.03 1.83024 23.03 1.84024L23.03 1.88024C23.03 1.88024 23.03 1.89024 23.01 1.89024L21.99 1.89024C21.99 1.89024 21.96 1.88024 21.96 1.86024L21.96 1.70024C21.96 1.70024 21.96 1.69024 21.98 1.69024L22 1.69024C22 1.69024 22.02 1.69024 22.02 1.70024L22.14 1.70024L22.14 1.64024L2.82003 1.64024L2.82003 1.70024L2.94003 1.70024C2.94003 1.70024 2.94003 1.68024 2.95003 1.68024L2.97003 1.68024C2.97003 1.68024 2.98003 1.68024 2.98003 1.69024L2.98003 1.85024C2.98003 1.85024 2.97003 1.88024 2.95003 1.88024L1.93003 1.88024C1.93003 1.88024 1.92003 1.88024 1.92003 1.87024L1.92003 2.12024C1.92003 2.12024 1.92003 2.14024 1.91003 2.14024C1.90003 2.15024 1.88003 2.14024 1.87003 2.14024L1.86003 2.14024L1.21003 2.14024L1.14003 2.18024L1.12003 2.18024L1.12003 2.14024L1.06003 2.14024C1.06003 2.14024 1.00003 2.17024 1.00003 2.20024L1.00003 3.48024C1.00003 3.48024 1.03003 3.54024 1.06003 3.54024L1.12003 3.54024L1.12003 3.50024L1.14003 3.50024L1.21003 3.54024L1.69003 3.54024C1.69003 3.54024 1.69003 3.52024 1.70003 3.52024L1.83003 3.52024C1.83003 3.52024 1.86003 3.53024 1.86003 3.55024L1.82003 3.72024C1.82003 3.73024 1.80003 3.74024 1.79003 3.74024L0.350033 3.74024C0.350033 3.74024 0.340034 3.74024 0.340034 3.73024L0.340034 3.48024C0.340034 3.48024 0.340034 3.47024 0.320034 3.47024L0.190033 3.47024C0.190033 3.47024 0.180035 3.47024 0.180035 3.48024L0.180035 3.59024C0.180035 3.59024 0.180031 3.60024 0.200031 3.60024L0.210033 3.60024L0.210033 3.62024L0.180035 3.67024L0.130032 3.67024C0.130032 3.67024 0.120033 3.67024 0.120033 3.66024L0.120033 2.96024C0.120033 2.96024 0.160031 2.88024 0.200031 2.88024L0.330032 2.88024C0.330032 2.88024 0.340034 2.88024 0.340034 2.87024L0.340034 2.40024C0.340034 2.40024 0.340034 2.39024 0.320034 2.39024L0.190033 2.39024C0.190033 2.39024 0.110035 2.35024 0.110035 2.31024L0.110035 0.590238C0.110035 0.590238 0.110031 0.580239 0.130031 0.580239L0.160034 0.580239L0.140033 0.550238L0.130031 0.550238C0.130031 0.550238 0.140034 0.520239 0.160034 0.520239L0.200031 0.520239L0.200031 0.150238L1.36003 0.150238L1.36003 0.650238L2.37003 0.650238C2.37003 0.650238 2.39003 0.650238 2.39003 0.660238L3.01003 0.660238L3.01003 0.930238L2.94003 0.930238L12.48 0.930237L12.48 0.820237L12.5 0.820237L12.83 0.810237L12.85 0.810237L12.85 0.930237L22.04 0.930237L21.97 0.930237L21.97 0.660237L22.6 0.660237L22.8 0.870237C22.8 0.870237 22.82 0.870237 22.83 0.870237L22.53 2.17024C22.48 2.20024 22.45 2.26024 22.46 2.32024L22.46 2.27024L22.51 2.27024L22.51 2.22024L23.13 2.22024L23.13 1.85024L23.03 1.85024L23.03 1.77024L23.21 1.77024L23.21 2.27024L23.09 2.27024C23.09 2.27024 23.11 2.27024 23.11 2.28024L23.73 2.28024L23.73 2.55024L23.66 2.55024L43.26 2.55023L43.26 2.28023L43.89 2.28023C43.89 2.28023 43.89 2.27023 43.91 2.27023L44.53 2.27023L44.53 2.32023C44.54 2.26023 44.52 2.20023 44.47 2.17023L44.38 2.17023C44.38 2.17023 44.37 2.18023 44.36 2.18023C44.34 2.18023 44.33 2.17023 44.33 2.15023L44.33 1.73023C44.33 1.73023 44.33 1.72023 44.34 1.72023L44.36 1.72023C44.36 1.72023 44.37 1.72023 44.37 1.73023L44.95 1.73023L44.95 1.75023L44.91 1.79023L44.91 1.81023C44.91 1.81023 44.91 1.82023 44.93 1.82023L45.05 1.82023C45.05 1.82023 45.08 1.81023 45.08 1.79023L45.08 1.62023C45.08 1.62023 45.08 1.64023 45.06 1.64023L44.43 1.64023C44.43 1.64023 44.41 1.64023 44.41 1.62023L44.41 1.46023L44.34 1.46023C44.34 1.46023 44.32 1.46023 44.32 1.44023L44.32 1.26023C44.32 1.26023 44.32 1.24023 44.34 1.24023L44.36 1.24023C44.36 1.24023 44.38 1.24023 44.38 1.26023L44.38 1.31023L44.36 1.31023L44.36 1.42023L44.5 1.42023L44.5 1.26023C44.5 1.26023 44.5 1.24023 44.52 1.24023L45.06 1.24023C45.06 1.24023 45.08 1.24023 45.08 1.26023C45.08 1.26023 45.07 1.22023 45.05 1.22023L44.97 1.22023C44.97 1.22023 44.95 1.22023 44.95 1.20023L44.95 0.940234C44.95 0.940234 44.99 0.860234 45.03 0.860234L45.17 0.860234C45.17 0.860234 45.2 0.850235 45.2 0.830235L45.2 0.610234L45.16 0.610234L45.02 0.680235L45.02 0.700235C45.02 0.720235 45.01 0.730234 44.99 0.730234C44.97 0.730234 44.96 0.720235 44.96 0.700235L44.96 0.650234L44.92 0.650234L44.92 0.140235L46.07 0.140234L46.07 0.510234L46.11 0.510234C46.11 0.510234 46.14 0.520235 46.14 0.540235L46.13 0.540235L46.11 0.570234L46.14 0.570234C46.14 0.570234 46.15 0.570234 46.16 0.590234L46.16 2.31023L46.14 2.31023C46.14 2.31023 46.1 2.39023 46.05 2.39023L45.92 2.39023C45.92 2.39023 45.91 2.39023 45.91 2.40023L45.91 2.87023C45.91 2.87023 45.91 2.88023 45.93 2.88023L46.06 2.88023C46.06 2.88023 46.14 2.92023 46.14 2.96023L46.14 3.66023C46.14 3.66023 46.14 3.67023 46.13 3.67023L46.08 3.67023L46.05 3.62023L46.05 3.60023L46.07 3.60023C46.07 3.60023 46.08 3.60023 46.08 3.59023L46.08 3.48023L46.07 3.48023C46.07 3.48023 46.07 3.47023 46.05 3.47023L45.92 3.47023C45.92 3.47023 45.91 3.47023 45.91 3.48023L45.91 3.73023C45.91 3.73023 45.91 3.74023 45.9 3.74023L44.46 3.74023C44.46 3.74023 44.43 3.74023 44.43 3.72023L44.39 3.56023C44.39 3.56023 44.4 3.52023 44.42 3.52023L43.3 3.52023C43.3 3.52023 43.27 3.51023 43.27 3.49023L43.27 3.33023C43.27 3.33023 43.27 3.32023 43.29 3.32023L43.31 3.32023C43.31 3.32023 43.33 3.32023 43.32 3.33023L43.32 3.28023L23.69 3.28024L23.69 3.34024C23.69 3.34024 23.69 3.32024 23.71 3.32024L23.73 3.32024C23.73 3.32024 23.75 3.32024 23.75 3.33024L23.75 3.49024C23.75 3.49024 23.74 3.52024 23.72 3.52024L22.32 3.52024C22.32 3.52024 22.26 3.49024 22.26 3.46024L22.26 3.40024C22.26 3.40024 22.29 3.34024 22.32 3.34024L22.46 3.34024C22.46 3.34024 22.48 3.34024 22.48 3.33024L22.48 2.70024C22.48 2.70024 22.48 2.69024 22.46 2.69024L22.32 2.69024C22.32 2.69024 22.26 2.66024 22.26 2.63024L22.26 2.35024C22.26 2.35024 22.29 2.28024 22.33 2.28024L22.37 2.28024L22.37 2.33024L22.49 2.33024" fill="white"/>
<path d="M1.36011 0.640137L1.36011 0.130137L0.200104 0.130137L0.200104 0.500137" stroke="#010101" stroke-width="0.25" stroke-miterlimit="10"/>
<path d="M15.8701 0.180078C15.7596 0.180078 15.6701 0.269621 15.6701 0.380078C15.6701 0.490535 15.7596 0.580078 15.8701 0.580078C15.9805 0.580078 16.0701 0.490535 16.0701 0.380078C16.0701 0.269621 15.9805 0.180078 15.8701 0.180078Z" stroke="#010101" stroke-width="0.25" stroke-miterlimit="10"/>
<path d="M46.0701 0.500137L46.0701 0.130137L44.9101 0.130137L44.9101 0.640137" stroke="#010101" stroke-width="0.25" stroke-miterlimit="10"/>
<path d="M8.60005 0.180078C8.48959 0.180078 8.40005 0.269621 8.40005 0.380078C8.40005 0.490535 8.48959 0.580078 8.60005 0.580078C8.71051 0.580078 8.80005 0.490535 8.80005 0.380078C8.80005 0.269621 8.7105 0.180078 8.60005 0.180078Z" stroke="#010101" stroke-width="0.25" stroke-miterlimit="10"/>
<path d="M23.1401 0.180078C23.0296 0.180078 22.9401 0.269621 22.9401 0.380078C22.9401 0.490535 23.0296 0.580078 23.1401 0.580078C23.2505 0.580078 23.3401 0.490535 23.3401 0.380078C23.3401 0.269621 23.2505 0.180078 23.1401 0.180078Z" stroke="#010101" stroke-width="0.25" stroke-miterlimit="10"/>
<path d="M30.4001 0.180078C30.2896 0.180078 30.2001 0.269621 30.2001 0.380078C30.2001 0.490535 30.2896 0.580078 30.4001 0.580078C30.5106 0.580078 30.6001 0.490535 30.6001 0.380078C30.6001 0.269621 30.5106 0.180078 30.4001 0.180078Z" stroke="#010101" stroke-width="0.25" stroke-miterlimit="10"/>
<path d="M37.6801 0.180078C37.5697 0.180078 37.4801 0.269621 37.4801 0.380078C37.4801 0.490535 37.5697 0.580078 37.6801 0.580078C37.7906 0.580078 37.8801 0.490535 37.8801 0.380078C37.8801 0.269621 37.7906 0.180078 37.6801 0.180078Z" stroke="#010101" stroke-width="0.25" stroke-miterlimit="10"/>
<path d="M2.63 1.52002C2.63 1.52002 2.58001 1.50002 2.58001 1.47002" stroke="#010101" stroke-width="0.25" stroke-miterlimit="10"/>
<path d="M2.57996 1.09997L2.57996 1.46997" stroke="#010101" stroke-width="0.25" stroke-miterlimit="10"/>
<path d="M24.11 1.4299L24.11 1.2699C24.11 1.2699 24.11 1.2499 24.09 1.2499L23.55 1.2499C23.55 1.2499 23.53 1.2499 23.53 1.2699L23.53 1.6299C23.53 1.6299 23.53 1.6499 23.55 1.6499L24.18 1.6499C24.18 1.6499 24.2 1.6499 24.2 1.6299L24.2 1.4699L24.27 1.4699C24.27 1.4699 24.29 1.4699 24.29 1.4499L24.29 1.2699C24.29 1.2699 24.29 1.2499 24.27 1.2499L24.25 1.2499C24.25 1.2499 24.23 1.2499 24.23 1.2699L24.23 1.3199L24.25 1.3199L24.25 1.4299L24.11 1.4299Z" stroke="#010101" stroke-width="0.25" stroke-miterlimit="10"/>
<path d="M22.12 1.09009L22.15 1.06009" stroke="#010101" stroke-width="0.25" stroke-miterlimit="10"/>
<path d="M2.84 1.06009L2.87 1.09009" stroke="#010101" stroke-width="0.25" stroke-miterlimit="10"/>
<path d="M2.62996 1.06006L2.83997 1.06006" stroke="#010101" stroke-width="0.25" stroke-miterlimit="10"/>
<path d="M22.15 1.06006L22.36 1.06006" stroke="#010101" stroke-width="0.25" stroke-miterlimit="10"/>
<path d="M2.59001 1.1001C2.59001 1.1001 2.61 1.0601 2.63 1.0601" stroke="#010101" stroke-width="0.25" stroke-miterlimit="10"/>
<path d="M22.41 1.46997L22.41 1.09997" stroke="#010101" stroke-width="0.25" stroke-miterlimit="10"/>
<path d="M2.83997 1.05005L2.62996 1.05005" stroke="#010101" stroke-width="0.25" stroke-miterlimit="10"/>
<path d="M23.21 2.25L23.21 1.75L23.03 1.75L23.03 1.83L23.13 1.83L23.13 2.2L22.51 2.2L22.51 2.25L23.2 2.25L23.21 2.25Z" stroke="#010101" stroke-width="0.25" stroke-miterlimit="10"/>
<path d="M22.36 1.0601C22.36 1.0601 22.4 1.0801 22.4 1.1001" stroke="#010101" stroke-width="0.25" stroke-miterlimit="10"/>
<path d="M2.58997 1.46997L2.58997 1.09997" stroke="#010101" stroke-width="0.25" stroke-miterlimit="10"/>
<path d="M2.63 1.51001C2.63 1.51001 2.59001 1.49001 2.59001 1.47001" stroke="#010101" stroke-width="0.25" stroke-miterlimit="10"/>
<path d="M2.83997 1.51001L2.62996 1.51001" stroke="#010101" stroke-width="0.25" stroke-miterlimit="10"/>
<path d="M2.87 1.43998L2.87 1.47998" stroke="#010101" stroke-width="0.25" stroke-miterlimit="10"/>
<path d="M23.28 1.28006L23.58 1.17006L23.58 0.750059L23.58 0.710058C23.58 0.710058 23.58 0.700058 23.57 0.700058L22.93 0.700059C22.93 0.700059 22.91 0.700059 22.91 0.710059L22.91 0.820059C22.91 0.880059 22.87 0.920059 22.81 0.920059L22.67 0.920059C22.67 0.920059 22.65 0.920059 22.65 0.930059L22.65 1.33006L22.65 1.34006L22.66 1.34006C22.71 1.33006 22.77 1.35006 22.79 1.41006C22.8 1.45006 22.79 1.50006 22.75 1.52006L22.75 1.54006C22.74 1.57006 22.71 1.59006 22.67 1.58006L22.66 1.58006L22.66 1.59006L22.66 1.69006C22.66 1.69006 22.64 1.76006 22.6 1.77006L22.59 1.77006L22.59 1.80006C22.59 1.80006 22.59 1.81006 22.61 1.81006L22.93 1.81006C22.93 1.81006 22.95 1.81006 22.95 1.80006L22.95 1.68006C22.95 1.68006 22.99 1.60006 23.03 1.60006L23.08 1.60006C23.08 1.60006 23.13 1.61006 23.15 1.63006L23.16 1.63006L23.19 1.63006C23.19 1.63006 23.21 1.63006 23.21 1.62006L23.21 1.35006C23.21 1.35006 23.23 1.28006 23.27 1.27006" stroke="#010101" stroke-width="0.25" stroke-miterlimit="10"/>
<path d="M2.55005 1.03004L2.55005 1.54004" stroke="#010101" stroke-width="0.25" stroke-miterlimit="10"/>
<path d="M2.88 1.48002C2.88 1.48002 2.86001 1.52002 2.84001 1.52002" stroke="#010101" stroke-width="0.25" stroke-miterlimit="10"/>
<path d="M22.4 1.47001C22.4 1.47001 22.38 1.51001 22.36 1.51001" stroke="#010101" stroke-width="0.25" stroke-miterlimit="10"/>
<path d="M2.64001 1.14992L2.64001 1.41992" stroke="#010101" stroke-width="0.25" stroke-miterlimit="10"/>
<path d="M33.44 2.41003L33.42 2.41003L33.42 2.53003L33.8 2.53003L33.8 2.42003L33.78 2.42003L33.45 2.41003L33.44 2.41003Z" stroke="#010101" stroke-width="0.25" stroke-miterlimit="10"/>
<path d="M22.28 2.14999C22.33 2.17999 22.36 2.23999 22.35 2.29999L22.35 2.24999L22.3 2.24999C22.3 2.24999 22.23 2.27999 22.23 2.31999L22.23 2.59999C22.23 2.59999 22.26 2.65999 22.29 2.65999L22.43 2.65999C22.43 2.65999 22.45 2.65999 22.45 2.66999L22.45 3.29999C22.45 3.29999 22.45 3.30999 22.43 3.30999L22.29 3.30999C22.29 3.30999 22.23 3.33999 22.23 3.36999L22.23 3.42999C22.23 3.42999 22.26 3.48999 22.29 3.48999L23.69 3.48999C23.69 3.48999 23.72 3.47999 23.72 3.45999L23.72 3.29999C23.72 3.29999 23.72 3.28999 23.7 3.28999L23.68 3.28999C23.68 3.28999 23.66 3.28999 23.66 3.29999L23.1 3.29999C23.1 3.29999 23.08 3.29999 23.08 3.28999L23.08 2.51999C23.08 2.51999 23.04 2.43999 23 2.43999L22.86 2.43999C22.86 2.43999 22.83 2.42999 22.83 2.40999L22.83 2.30999C22.83 2.30999 22.84 2.27999 22.86 2.27999L23.02 2.27999C23.02 2.27999 23.05 2.30999 23.06 2.29999C23.07 2.29999 23.08 2.27999 23.08 2.26999L23.08 2.22999C23.08 2.22999 23.08 2.21999 23.06 2.21999L22.44 2.21999L22.44 2.26999C22.43 2.20999 22.45 2.14999 22.5 2.11999" stroke="#010101" stroke-width="0.25" stroke-miterlimit="10"/>
<path d="M22.36 1.51001L22.15 1.51001" stroke="#010101" stroke-width="0.25" stroke-miterlimit="10"/>
<path d="M2.59002 1.0999C2.59002 1.0999 2.64001 1.1199 2.64001 1.1499" stroke="#010101" stroke-width="0.25" stroke-miterlimit="10"/>
<path d="M2.82007 1.54004L2.82007 1.52004" stroke="#010101" stroke-width="0.25" stroke-miterlimit="10"/>
<path d="M22.12 1.47998L22.12 1.43998" stroke="#010101" stroke-width="0.25" stroke-miterlimit="10"/>
<path d="M2.64001 1.41997C2.64001 1.41997 2.62002 1.46997 2.59002 1.46997" stroke="#010101" stroke-width="0.25" stroke-miterlimit="10"/>
<path d="M23.6 3.05988L23.6 3.09988C23.6 3.09988 23.58 3.12988 23.56 3.12988L23.35 3.12988C23.35 3.12988 23.31 3.10988 23.31 3.08988" stroke="#010101" stroke-width="0.25" stroke-miterlimit="10"/>
<path d="M22.4501 1.54004L22.4501 1.03004" stroke="#010101" stroke-width="0.25" stroke-miterlimit="10"/>
<path d="M2.29001 0.699922L2.16001 0.819922C2.16001 0.819922 2.16001 0.839922 2.16001 0.849922C2.16001 0.849922 2.18001 0.849922 2.19001 0.849922L2.29001 0.759922L2.38001 0.759922C2.38001 0.759922 2.42001 0.759922 2.42001 0.739922L2.42001 0.719922L2.94001 0.719922L2.94001 0.919922L3.01001 0.919922L3.01001 0.649922L2.38001 0.649922L2.38001 0.729922L2.30001 0.729922L2.30001 0.709922L2.29001 0.699922Z" stroke="#010101" stroke-width="0.25" stroke-miterlimit="10"/>
<path d="M22.15 1.52002C22.15 1.52002 22.11 1.50002 22.11 1.48002" stroke="#010101" stroke-width="0.25" stroke-miterlimit="10"/>
<path d="M2.45996 1.70996L2.45996 0.899961" stroke="#010101" stroke-width="0.25" stroke-miterlimit="10"/>
<path d="M23.6 2.74989L23.6 2.70989C23.6 2.70989 23.59 2.66989 23.56 2.66989L23.35 2.66989C23.35 2.66989 23.3 2.68989 23.3 2.71989L23.3 3.08989C23.3 3.08989 23.32 3.13989 23.35 3.13989L23.56 3.13989C23.56 3.13989 23.6 3.11989 23.6 3.09989" stroke="#010101" stroke-width="0.25" stroke-miterlimit="10"/>
<path d="M22.36 1.0501C22.36 1.0501 22.41 1.0701 22.41 1.1001" stroke="#010101" stroke-width="0.25" stroke-miterlimit="10"/>
<path d="M2.48999 1.70996L2.48999 0.899961" stroke="#010101" stroke-width="0.25" stroke-miterlimit="10"/>
<path d="M2.38999 1.70996L2.48999 1.70996" stroke="#010101" stroke-width="0.25" stroke-miterlimit="10"/>
<path d="M22.35 1.41992L22.35 1.14992" stroke="#010101" stroke-width="0.25" stroke-miterlimit="10"/>
<path d="M2.44995 0.899961L2.38995 0.959961" stroke="#010101" stroke-width="0.25" stroke-miterlimit="10"/>
<path d="M23.31 2.72998C23.31 2.72998 23.33 2.68998 23.35 2.68998L23.56 2.68998C23.56 2.68998 23.59 2.69998 23.59 2.71998" stroke="#010101" stroke-width="0.25" stroke-miterlimit="10"/>
<path d="M22.35 1.1499C22.35 1.1499 22.37 1.0999 22.4 1.0999" stroke="#010101" stroke-width="0.25" stroke-miterlimit="10"/>
<path d="M22.17 1.03005L22.17 1.05005" stroke="#010101" stroke-width="0.25" stroke-miterlimit="10"/>
<path d="M22.4 1.46997C22.4 1.46997 22.35 1.44997 22.35 1.41997" stroke="#010101" stroke-width="0.25" stroke-miterlimit="10"/>
<path d="M23.11 3.33008L23.21 3.33008L23.21 2.52008L23.17 2.52008L23.1 2.58008" stroke="#010101" stroke-width="0.25" stroke-miterlimit="10"/>
<path d="M22.83 0.819912L22.7 0.699912L22.7 0.719912L22.6 0.719912L22.6 0.639912L21.98 0.639912L21.98 0.909912L22.05 0.909912L22.05 0.709912L22.56 0.709912L22.56 0.729912C22.56 0.729912 22.59 0.759912 22.61 0.759912L22.7 0.759912L22.8 0.839912C22.8 0.839912 22.82 0.839912 22.83 0.839912C22.83 0.839912 22.83 0.819912 22.83 0.809912" stroke="#010101" stroke-width="0.25" stroke-miterlimit="10"/>
<path d="M46.14 1.85L46.14 0.58C46.14 0.58 46.14 0.57 46.12 0.57L46.09 0.57L46.11 0.54L46.12 0.54C46.12 0.54 46.11 0.51 46.09 0.51L45.9 0.51L45.2 0.51L44.96 0.64L44.96 0.7C44.96 0.7 44.97 0.73 44.99 0.73C45.01 0.73 45.02 0.72 45.02 0.7L45.02 0.68L45.16 0.61L45.19 0.61L45.2 0.64L45.2 0.84C45.2 0.84 45.19 0.87 45.17 0.87L45.03 0.87C45.03 0.87 44.95 0.91 44.95 0.95L44.95 1.21C44.95 1.21 44.95 1.23 44.97 1.23L45.05 1.23C45.05 1.23 45.08 1.24 45.08 1.26L45.08 1.8C45.08 1.8 45.07 1.83 45.05 1.83L44.93 1.83C44.93 1.83 44.92 1.83 44.91 1.82L44.91 1.8L44.95 1.76L44.95 1.74L44.37 1.74C44.37 1.74 44.37 1.72 44.36 1.72L44.34 1.72C44.34 1.72 44.33 1.72 44.33 1.73L44.33 2.15C44.33 2.15 44.34 2.18 44.36 2.18L44.38 2.18L44.39 2.18L45.04 2.18L45.11 2.22L45.13 2.22L45.13 2.18L45.19 2.18C45.19 2.18 45.25 2.21 45.25 2.24L45.25 3.49C45.25 3.49 45.22 3.55 45.19 3.55L45.12 3.55L45.12 3.51L45.1 3.51L45.03 3.55L44.55 3.55C44.55 3.55 44.55 3.53 44.54 3.53L44.41 3.53C44.41 3.53 44.38 3.54 44.38 3.56L44.42 3.73C44.42 3.74 44.44 3.75 44.45 3.75L45.9 3.75C45.9 3.75 45.91 3.75 45.91 3.74L45.91 3.49C45.91 3.49 45.91 3.48 45.92 3.48L46.05 3.48C46.05 3.48 46.07 3.48 46.07 3.49L46.07 3.6C46.07 3.6 46.07 3.61 46.06 3.61L46.04 3.61L46.04 3.63L46.07 3.68L46.12 3.68C46.12 3.68 46.13 3.68 46.13 3.67L46.13 2.97C46.13 2.97 46.09 2.89 46.05 2.89L45.92 2.89C45.92 2.89 45.91 2.89 45.9 2.88L45.9 2.41C45.9 2.41 45.9 2.4 45.91 2.4L46.04 2.4C46.04 2.4 46.13 2.36 46.13 2.32L46.14 2.32L46.14 1.87L46.14 1.85Z" stroke="#010101" stroke-width="0.25" stroke-miterlimit="10"/>
<path d="M45.15 1.21997L45.83 1.21997C45.83 1.21997 45.84 1.21997 45.84 1.20997L45.84 0.589971C45.84 0.589971 45.84 0.579971 45.82 0.579971L45.28 0.579971C45.28 0.579971 45.26 0.579971 45.27 0.589971L45.27 0.829971C45.27 0.889971 45.23 0.929971 45.17 0.929971L45.03 0.929971C45.03 0.929971 45.01 0.929971 45.01 0.939971L45.01 1.13997C45.01 1.13997 45.01 1.14997 45.02 1.14997L45.03 1.14997C45.03 1.14997 45.11 1.16997 45.12 1.20997L45.13 1.20997L45.15 1.21997Z" stroke="#010101" stroke-width="0.25" stroke-miterlimit="10"/>
<path d="M22.51 2.3001L22.3 2.3001L22.3 2.3501L22.51 2.3501L22.51 2.3001Z" stroke="#010101" stroke-width="0.25" stroke-miterlimit="10"/>
<path d="M22.53 0.899961L22.53 1.70996" stroke="#010101" stroke-width="0.25" stroke-miterlimit="10"/>
<path d="M44.5 1.3099L44.5 1.4299L44.36 1.4299L44.36 1.3199L44.38 1.3199L44.38 1.2699C44.38 1.2699 44.38 1.2499 44.36 1.2499L44.34 1.2499C44.34 1.2499 44.32 1.2499 44.32 1.2699L44.32 1.4499C44.32 1.4499 44.32 1.4699 44.34 1.4699L44.41 1.4699L44.41 1.6299C44.41 1.6299 44.41 1.6499 44.43 1.6499L45.06 1.6499C45.06 1.6499 45.08 1.6499 45.08 1.6299L45.08 1.2699C45.08 1.2699 45.08 1.2499 45.06 1.2499L44.52 1.2499C44.52 1.2499 44.5 1.2499 44.5 1.2699L44.5 1.3199L44.5 1.3099Z" stroke="#010101" stroke-width="0.25" stroke-miterlimit="10"/>
<path d="M22.54 0.899902L22.5 0.899902" stroke="#010101" stroke-width="0.25" stroke-miterlimit="10"/>
<path d="M45.15 1.65996L45.15 1.78996C45.15 1.84996 45.11 1.88996 45.05 1.88996L44.93 1.88996L44.88 2.05996L44.89 2.07996L45.08 2.07996L45.08 2.08996L45.1 2.08996L45.14 2.07996L45.2 2.07996C45.27 2.07996 45.32 2.12996 45.33 2.19996L45.34 2.19996L45.82 2.20996C45.82 2.20996 45.83 2.20996 45.83 2.19996L45.84 2.19996L45.84 1.80996L45.83 1.80996L45.16 1.64996L45.15 1.64996L45.15 1.65996Z" stroke="#010101" stroke-width="0.25" stroke-miterlimit="10"/>
<path d="M45.33 2.27L45.33 2.74C45.33 2.74 45.33 2.75 45.35 2.75L45.83 2.75C45.83 2.75 45.84 2.75 45.84 2.74L45.84 2.27C45.84 2.27 45.84 2.26 45.83 2.26L45.35 2.26C45.35 2.26 45.33 2.26 45.33 2.27Z" stroke="#010101" stroke-width="0.25" stroke-miterlimit="10"/>
<path d="M23.01 2.32004L22.88 2.44004C22.88 2.44004 22.88 2.46004 22.88 2.47004C22.88 2.48004 22.9 2.47004 22.91 2.47004L23.01 2.38004L23.1 2.38004C23.1 2.38004 23.14 2.38004 23.14 2.36004L23.14 2.34004L23.66 2.34004L23.66 2.54004L23.73 2.54004L23.73 2.27004L23.1 2.27004L23.1 2.35004L23.02 2.35004L23.02 2.33004L23.01 2.32004Z" stroke="#010101" stroke-width="0.25" stroke-miterlimit="10"/>
<path d="M22.5 0.899961L22.5 1.70996" stroke="#010101" stroke-width="0.25" stroke-miterlimit="10"/>
<path d="M45.3301 2.80992L45.3301 3.48992C45.3301 3.48992 45.3101 3.57992 45.2701 3.59992L45.2701 3.65992C45.2701 3.65992 45.2701 3.66992 45.2801 3.66992L45.8301 3.66992C45.8301 3.66992 45.8401 3.66992 45.8401 3.65992L45.8401 3.47992C45.8401 3.47992 45.8801 3.39992 45.9301 3.39992L46.0501 3.39992C46.0501 3.39992 46.0601 3.39992 46.0701 3.38992L46.0701 2.97992C46.0701 2.97992 46.0701 2.96992 46.0601 2.96992L45.9301 2.96992C45.9301 2.96992 45.8501 2.92992 45.8401 2.88992L45.8401 2.83992C45.8401 2.83992 45.8401 2.82992 45.8201 2.82992L45.3401 2.82992C45.3401 2.82992 45.3301 2.82992 45.3201 2.83992" stroke="#010101" stroke-width="0.25" stroke-miterlimit="10"/>
<path d="M44.5 3.67994L45.21 3.67994C45.21 3.67994 45.23 3.67994 45.22 3.66994L45.22 3.63994C45.22 3.63994 45.22 3.62994 45.2 3.62994L45.09 3.62994L45.07 3.61994L45.03 3.62994L44.55 3.62994L44.5 3.60994L44.47 3.60994L44.47 3.62994L44.47 3.67994L44.5 3.68994L44.5 3.67994Z" stroke="#010101" stroke-width="0.25" stroke-miterlimit="10"/>
<path d="M44.84 1.81008C44.84 1.81008 44.84 1.80008 44.83 1.80008L44.41 1.80008C44.41 1.80008 44.39 1.80008 44.39 1.81008L44.39 2.07008C44.39 2.07008 44.39 2.08008 44.4 2.08008L44.81 2.08008L44.82 2.07008L44.87 1.90008L44.87 1.88008C44.87 1.88008 44.82 1.84008 44.82 1.81008" stroke="#010101" stroke-width="0.25" stroke-miterlimit="10"/>
<path d="M45.95 0.55002L45.92 0.52002L45.91 0.52002L45.91 0.55002L45.9 0.55002L45.9 0.76002C45.9 0.76002 45.9 0.77002 45.91 0.77002L46.06 0.77002C46.06 0.77002 46.08 0.77002 46.08 0.76002L46.08 0.640019C46.08 0.640019 46.08 0.630019 46.07 0.630019L46.05 0.630019L46.05 0.610019L46.08 0.560019L45.96 0.56002L45.95 0.55002Z" stroke="#010101" stroke-width="0.25" stroke-miterlimit="10"/>
<path d="M46.0701 1.27999C46.0701 1.27999 46.0701 1.26999 46.0601 1.26999L45.9001 1.26999C45.9001 1.26999 45.8801 1.26999 45.8801 1.27999L45.8801 1.72999C45.8801 1.72999 45.8801 1.73999 45.8901 1.73999L46.0501 1.73999C46.0501 1.73999 46.0701 1.73999 46.0701 1.72999L46.0701 1.27999Z" stroke="#010101" stroke-width="0.25" stroke-miterlimit="10"/>
<path d="M46.0701 1.80006C46.0701 1.80006 46.0701 1.79006 46.0601 1.79006L45.9001 1.79006C45.9001 1.79006 45.8801 1.79006 45.8801 1.80006L45.8801 2.30006L45.8901 2.31006L45.9201 2.31006L46.0401 2.31006C46.0401 2.31006 46.0601 2.31006 46.0601 2.30006L46.0701 2.30006L46.0701 1.81006L46.0701 1.80006Z" stroke="#010101" stroke-width="0.25" stroke-miterlimit="10"/>
<path d="M23.1801 3.33008L23.1801 2.52008" stroke="#010101" stroke-width="0.25" stroke-miterlimit="10"/>
<path d="M45.9 0.849961C45.9 0.849961 45.88 0.849961 45.88 0.859961L45.88 1.19996C45.88 1.19996 45.88 1.20996 45.9 1.20996L46.06 1.20996C46.06 1.20996 46.07 1.20996 46.08 1.19996L46.08 0.859961C46.08 0.859961 46.08 0.849961 46.06 0.849961L45.9 0.849961Z" stroke="#010101" stroke-width="0.25" stroke-miterlimit="10"/>
<path d="M44.46 2.15C44.51 2.18 44.54 2.24 44.53 2.3L44.53 2.25L43.9 2.25C43.9 2.25 43.88 2.25 43.88 2.26L43.88 2.3C43.88 2.3 43.89 2.33 43.91 2.33C43.92 2.33 43.93 2.33 43.94 2.31L44.1 2.31C44.1 2.31 44.13 2.31 44.13 2.33L44.13 2.43C44.13 2.43 44.12 2.46 44.1 2.46L43.97 2.46C43.97 2.46 43.89 2.5 43.88 2.54L43.88 3.31C43.88 3.31 43.88 3.32 43.86 3.32L43.3 3.32C43.3 3.32 43.3 3.3 43.29 3.3L43.27 3.3C43.27 3.3 43.25 3.3 43.25 3.31L43.25 3.47C43.25 3.47 43.26 3.5 43.28 3.5L44.69 3.5C44.69 3.5 44.75 3.47 44.75 3.44L44.75 3.38C44.75 3.38 44.72 3.32 44.69 3.32L44.55 3.32C44.55 3.32 44.53 3.32 44.54 3.31L44.54 2.68C44.54 2.68 44.54 2.67 44.56 2.67L44.7 2.67C44.7 2.67 44.76 2.64 44.76 2.61L44.76 2.33C44.76 2.33 44.73 2.26 44.69 2.26L44.65 2.26L44.65 2.31C44.64 2.25 44.66 2.19 44.71 2.16" stroke="#010101" stroke-width="0.25" stroke-miterlimit="10"/>
<path d="M23.6801 3.28009L23.6801 3.34009" stroke="#010101" stroke-width="0.25" stroke-miterlimit="10"/>
<path d="M43.6801 3.08989C43.6801 3.08989 43.6601 3.12989 43.6401 3.12989L43.4301 3.12989C43.4301 3.12989 43.4001 3.11989 43.4001 3.09989M43.4001 3.09989L43.4001 3.05989M43.4001 3.09989C43.4001 3.11989 43.4201 3.13989 43.4401 3.13989L43.6501 3.13989C43.6501 3.13989 43.7001 3.11989 43.7001 3.08989L43.7001 2.71989C43.7001 2.71989 43.6801 2.66989 43.6501 2.66989L43.4401 2.66989C43.4401 2.66989 43.4001 2.68989 43.4001 2.70989M43.4001 2.70989L43.4001 2.74989M43.4001 2.70989C43.4001 2.70989 43.4201 2.67989 43.4301 2.67989L43.6401 2.67989C43.6401 2.67989 43.6801 2.69989 43.6801 2.71989" stroke="#010101" stroke-width="0.25" stroke-miterlimit="10"/>
<path d="M43.6301 2.78009L43.6301 3.08009L43.6801 3.09009L43.6801 2.72009C43.6801 2.72009 43.6301 2.74009 43.6301 2.77009" stroke="#010101" stroke-width="0.25" stroke-miterlimit="10"/>
<path d="M43.89 2.58008L43.82 2.52008L43.78 2.52008L43.78 3.33008L43.89 3.33008" stroke="#010101" stroke-width="0.25" stroke-miterlimit="10"/>
<path d="M44.6901 2.3001L44.4801 2.3001L44.4801 2.3501L44.6901 2.3501L44.6901 2.3001Z" stroke="#010101" stroke-width="0.25" stroke-miterlimit="10"/>
<path d="M23.3101 3.34009L23.3101 3.28009" stroke="#010101" stroke-width="0.25" stroke-miterlimit="10"/>
<path d="M43.99 2.38003L44.09 2.47003C44.09 2.47003 44.11 2.47003 44.12 2.47003C44.12 2.47003 44.12 2.45003 44.12 2.44003L43.99 2.32003L43.99 2.34003L43.89 2.34003L43.89 2.26003L43.27 2.26003L43.27 2.53003L43.34 2.53003L43.34 2.33003L43.85 2.33003L43.85 2.35003C43.85 2.35003 43.88 2.38003 43.9 2.38003L43.99 2.38003Z" stroke="#010101" stroke-width="0.25" stroke-miterlimit="10"/>
<path d="M43.8101 2.52008L43.8101 3.33008" stroke="#010101" stroke-width="0.25" stroke-miterlimit="10"/>
<path d="M22.61 0.959961L22.55 0.899961" stroke="#010101" stroke-width="0.25" stroke-miterlimit="10"/>
<path d="M43.3101 3.34009L43.3101 3.28009" stroke="#010101" stroke-width="0.25" stroke-miterlimit="10"/>
<path d="M43.6901 3.28009L43.6901 3.34009" stroke="#010101" stroke-width="0.25" stroke-miterlimit="10"/>
<path d="M23.15 3.43995C23.15 3.43995 23.15 3.44995 23.17 3.44995L23.66 3.44995C23.66 3.44995 23.67 3.44995 23.67 3.43995L23.67 3.41995C23.67 3.41995 23.67 3.40995 23.65 3.40995L23.16 3.40995C23.16 3.40995 23.14 3.40995 23.14 3.41995L23.14 3.43995L23.15 3.43995Z" stroke="#010101" stroke-width="0.25" stroke-miterlimit="10"/>
<path d="M22.5 1.70996L22.6 1.70996" stroke="#010101" stroke-width="0.25" stroke-miterlimit="10"/>
<path d="M43.85 3.43995L43.85 3.41995C43.85 3.41995 43.85 3.40995 43.84 3.40995L43.35 3.40995C43.35 3.40995 43.33 3.40995 43.33 3.41995L43.33 3.43995C43.33 3.43995 43.33 3.44995 43.34 3.44995L43.83 3.44995C43.83 3.44995 43.85 3.44995 43.85 3.43995Z" stroke="#010101" stroke-width="0.25" stroke-miterlimit="10"/>
<path d="M43.9 3.40995L43.89 3.40995L43.89 3.43995C43.89 3.43995 43.89 3.44995 43.9 3.44995L44.68 3.44995C44.68 3.44995 44.7 3.44995 44.7 3.43995L44.7 3.41995C44.7 3.41995 44.7 3.40995 44.68 3.40995L44.56 3.40995C44.56 3.40995 44.48 3.36995 44.48 3.32995L44.48 2.69995C44.48 2.69995 44.52 2.61995 44.57 2.61995L44.69 2.61995C44.69 2.61995 44.71 2.61995 44.71 2.60995L44.71 2.45995C44.71 2.45995 44.71 2.44995 44.7 2.44995L44.5 2.44995C44.5 2.44995 44.43 2.41995 44.43 2.37995C44.43 2.37995 44.43 2.34995 44.41 2.34995L44.24 2.34995C44.24 2.34995 44.22 2.34995 44.22 2.35995L44.22 2.46995C44.22 2.52995 44.18 2.56995 44.12 2.56995L43.99 2.56995C43.99 2.56995 43.97 2.56995 43.97 2.57995L43.97 3.34995C43.97 3.34995 43.95 3.41995 43.91 3.42995" stroke="#010101" stroke-width="0.25" stroke-miterlimit="10"/>
<path d="M43.73 3.16992L43.73 2.65992" stroke="#010101" stroke-width="0.25" stroke-miterlimit="10"/>
<path d="M43.4501 3.13991L43.4501 3.15991" stroke="#010101" stroke-width="0.25" stroke-miterlimit="10"/>
<path d="M23.1 3.40992C23.1 3.40992 23.04 3.36992 23.04 3.32992L23.04 2.55992C23.04 2.55992 23.04 2.54992 23.02 2.54992L22.88 2.54992C22.82 2.54992 22.78 2.50992 22.78 2.44992L22.78 2.33992C22.78 2.33992 22.78 2.32992 22.76 2.32992L22.58 2.32992C22.58 2.32992 22.57 2.32992 22.57 2.33992C22.57 2.38992 22.54 2.41992 22.5 2.41992L22.3 2.41992C22.3 2.41992 22.28 2.41992 22.28 2.42992L22.28 2.57992C22.28 2.57992 22.28 2.58992 22.3 2.58992L22.42 2.58992C22.42 2.58992 22.5 2.62992 22.5 2.66992L22.5 3.29992C22.5 3.29992 22.46 3.37992 22.42 3.37992L22.3 3.37992C22.3 3.37992 22.28 3.37992 22.28 3.38992L22.28 3.40992C22.28 3.40992 22.28 3.41992 22.29 3.41992L23.07 3.41992C23.07 3.41992 23.09 3.41992 23.09 3.40992L23.08 3.37992L23.1 3.40992Z" stroke="#010101" stroke-width="0.25" stroke-miterlimit="10"/>
<path d="M43.4501 2.64992L43.4501 2.66992" stroke="#010101" stroke-width="0.25" stroke-miterlimit="10"/>
<path d="M45.15 1.28L45.15 1.59L45.16 1.59L45.83 1.75L45.84 1.75L45.84 1.74L45.84 1.28C45.84 1.28 45.84 1.27 45.82 1.27L45.15 1.27C45.15 1.27 45.13 1.27 45.14 1.28" stroke="#010101" stroke-width="0.25" stroke-miterlimit="10"/>
<path d="M23.27 2.64991L23.27 3.15991" stroke="#010101" stroke-width="0.25" stroke-miterlimit="10"/>
<path d="M22.74 1.50004C22.74 1.50004 22.78 1.45004 22.77 1.43004C22.77 1.40004 22.73 1.39004 22.71 1.40004C22.68 1.40004 22.67 1.44004 22.68 1.46004C22.68 1.46004 22.68 1.46004 22.68 1.47004L22.68 1.52004L22.68 1.54004L22.7 1.54004L22.72 1.54004L22.72 1.51004L22.74 1.50004Z" stroke="#010101" stroke-width="0.25" stroke-miterlimit="10"/>
<path d="M23.54 3.16992L23.54 3.14992" stroke="#010101" stroke-width="0.25" stroke-miterlimit="10"/>
<path d="M23.54 2.67993L23.54 2.65993" stroke="#010101" stroke-width="0.25" stroke-miterlimit="10"/>
<path d="M0.199951 3.68L0.229954 3.63L0.229954 3.61L0.219952 3.61C0.219952 3.61 0.199951 3.61 0.199951 3.6L0.199951 3.49C0.199951 3.49 0.199953 3.48 0.209953 3.48L0.339954 3.48C0.339954 3.48 0.359955 3.48 0.359955 3.49L0.359955 3.74C0.359955 3.74 0.359953 3.75 0.369953 3.75L1.80995 3.75C1.80995 3.75 1.83995 3.75 1.83995 3.73L1.87995 3.57C1.87995 3.57 1.86995 3.53 1.84995 3.53L1.71995 3.53C1.71995 3.53 1.70995 3.53 1.70995 3.54L1.22995 3.54L1.15995 3.5L1.13995 3.5L1.13995 3.54L1.07995 3.54C1.07995 3.54 1.01995 3.51 1.01995 3.48L1.01995 2.21C1.01995 2.21 1.04995 2.15 1.07995 2.15L1.13995 2.15L1.13995 2.19L1.15995 2.19L1.22995 2.15L1.89995 2.15C1.89995 2.15 1.92995 2.17 1.93995 2.15C1.93995 2.15 1.94995 2.14 1.94995 2.13L1.94995 1.71C1.94995 1.71 1.94995 1.7 1.93995 1.7L1.91995 1.7C1.91995 1.7 1.90995 1.7 1.90995 1.71L1.33995 1.71L1.33995 1.73L1.37995 1.77L1.37995 1.79C1.37995 1.79 1.37995 1.8 1.35995 1.8L1.23995 1.8C1.23995 1.8 1.20995 1.79 1.20995 1.77L1.20995 1.23C1.20995 1.23 1.21995 1.2 1.23995 1.2L1.31995 1.2C1.31995 1.2 1.33995 1.2 1.33995 1.18L1.33995 0.92C1.33995 0.92 1.29995 0.84 1.25995 0.84L1.11995 0.84C1.11995 0.84 1.08995 0.83 1.08995 0.81L1.08995 0.59L1.12995 0.59L1.26995 0.66L1.26995 0.68C1.26995 0.68 1.27995 0.71 1.29995 0.71C1.31995 0.71 1.32995 0.7 1.32995 0.68L1.32995 0.63L1.32995 0.62L1.08995 0.5L0.389953 0.5L0.209953 0.5C0.189953 0.5 0.179954 0.51 0.179954 0.53L0.189953 0.53L0.209953 0.56L0.179954 0.56C0.179954 0.56 0.159954 0.56 0.159954 0.58L0.159954 2.3C0.159954 2.35 0.199952 2.38 0.239952 2.38L0.369953 2.38C0.369953 2.38 0.389953 2.38 0.389953 2.39L0.389954 2.86C0.389954 2.86 0.389951 2.87 0.379951 2.87L0.249954 2.87C0.249954 2.87 0.169952 2.91 0.169952 2.95L0.169952 3.67C0.169952 3.67 0.169953 3.68 0.189953 3.68L0.239952 3.68L0.199951 3.68Z" stroke="#010101" stroke-width="0.25" stroke-miterlimit="10"/>
<path d="M22.03 1.7099C22.03 1.7099 22.03 1.6999 22.01 1.6999L21.99 1.6999C21.99 1.6999 21.97 1.6999 21.97 1.7099L21.97 1.8699C21.97 1.8699 21.98 1.8999 22 1.8999L23.02 1.8999C23.02 1.8999 23.04 1.8999 23.04 1.8899L23.04 1.8499C23.04 1.8499 23.04 1.8399 23.02 1.8399L23.02 1.7099C23.02 1.7099 23.02 1.6999 23.04 1.6999L23.09 1.6999C23.09 1.6999 23.1 1.6999 23.1 1.7099C23.1 1.7099 23.1 1.7299 23.11 1.7299L23.67 1.7299L23.67 1.7599L23.65 1.7799L23.65 1.7999L23.67 1.7999L23.7 1.8099L23.71 1.8099L23.77 1.6999L23.77 1.6799C23.77 1.6799 23.77 1.6699 23.76 1.6699L23.3 1.6699C23.3 1.6699 23.29 1.6699 23.29 1.6599L23.29 1.3799L23.59 1.2599C23.62 1.2499 23.65 1.2199 23.65 1.1799L23.65 0.819902C23.65 0.819902 23.65 0.809902 23.66 0.809902L23.71 0.809902L23.76 0.789902L23.78 0.789902L23.8 0.799902L23.86 0.799902C23.86 0.799902 23.88 0.799902 23.88 0.789902L23.88 0.769902L23.76 0.699902L23.73 0.699902L23.73 0.719902C23.73 0.719902 23.73 0.729902 23.71 0.729902L23.67 0.729902C23.67 0.729902 23.66 0.729902 23.66 0.719902L23.66 0.659902C23.66 0.659902 23.66 0.649902 23.64 0.649902L22.61 0.649902C22.61 0.649902 22.59 0.649902 22.59 0.659902L22.59 0.699902C22.59 0.699902 22.6 0.729902 22.62 0.729902C22.63 0.729902 22.64 0.729902 22.65 0.709902L22.66 0.709902L22.81 0.709902C22.83 0.709902 22.84 0.719902 22.84 0.739902L22.84 0.839902C22.84 0.839902 22.83 0.869902 22.81 0.869902L22.67 0.869902C22.67 0.869902 22.59 0.909902 22.59 0.949902L22.59 1.7199C22.59 1.7199 22.59 1.7299 22.57 1.7299L22.01 1.7299L22.03 1.7099Z" stroke="#010101" stroke-width="0.25" stroke-miterlimit="10"/>
<path d="M23.31 2.7301L23.31 3.1001L23.35 3.1001L23.36 3.0501L23.36 2.7801C23.36 2.7801 23.34 2.7301 23.31 2.7301Z" stroke="#010101" stroke-width="0.25" stroke-miterlimit="10"/>
<path d="M1.12 1.21997L1.13 1.21997C1.13 1.21997 1.18 1.14997 1.22 1.14997L1.23 1.14997C1.23 1.14997 1.25 1.14997 1.25 1.13997L1.25 0.939971C1.25 0.939971 1.25 0.929971 1.23 0.929971L1.1 0.929971C1.04 0.929971 1 0.889971 1 0.829971L1 0.589971C1 0.589971 0.999999 0.579971 0.979999 0.579971L0.439999 0.579971C0.439999 0.579971 0.419998 0.579971 0.419998 0.589971L0.419998 1.20997C0.419998 1.20997 0.42 1.21997 0.43 1.21997L1.11 1.21997L1.12 1.21997Z" stroke="#010101" stroke-width="0.25" stroke-miterlimit="10"/>
<path d="M1.71003 1.28006C1.71003 1.28006 1.77003 1.32006 1.77003 1.36006L1.77003 1.63006C1.77003 1.63006 1.77002 1.64006 1.79002 1.64006L1.84003 1.64006C1.84003 1.64006 1.88003 1.60006 1.91003 1.60006L1.96003 1.60006C1.96003 1.60006 2.04002 1.64006 2.04002 1.68006L2.04002 1.80006C2.04002 1.80006 2.04002 1.81006 2.06002 1.81006L2.38002 1.81006C2.38002 1.81006 2.40002 1.81006 2.40002 1.80006L2.39003 1.77006C2.35003 1.76006 2.33002 1.73006 2.33002 1.69006L2.33002 1.59006L2.32003 1.58006C2.29003 1.58006 2.25002 1.57006 2.24002 1.54006L2.24002 1.52006C2.19002 1.49006 2.18003 1.43006 2.21003 1.38006C2.23003 1.34006 2.28003 1.33006 2.32003 1.34006L2.33002 1.34006L2.33002 1.33006L2.33002 0.930058C2.33002 0.930058 2.33003 0.920058 2.32003 0.920058L2.18003 0.920059C2.12003 0.920059 2.08002 0.880059 2.08002 0.820059L2.08002 0.710058C2.08002 0.710058 2.08003 0.700058 2.07003 0.700058L1.43003 0.700059C1.43003 0.700059 1.42002 0.700059 1.42002 0.710059L1.42002 0.790059L1.43003 1.15006L1.73003 1.27006L1.71003 1.28006Z" stroke="#010101" stroke-width="0.25" stroke-miterlimit="10"/>
<path d="M22.16 1.65997L22.16 1.71997" stroke="#010101" stroke-width="0.25" stroke-miterlimit="10"/>
<path d="M22.17 1.52004L22.17 1.54004" stroke="#010101" stroke-width="0.25" stroke-miterlimit="10"/>
<path d="M1.13 1.28C1.13 1.28 1.13001 1.27 1.12001 1.27L0.450005 1.27C0.450005 1.27 0.430008 1.27 0.430008 1.28L0.430008 1.74L0.440006 1.75L1.11001 1.61L1.12001 1.61L1.12001 1.28L1.13 1.28Z" stroke="#010101" stroke-width="0.25" stroke-miterlimit="10"/>
<path d="M1.13001 1.65996L1.12001 1.64996L0.450012 1.78996L0.440014 1.78996L0.440014 2.19996C0.440014 2.19996 0.440012 2.20996 0.450012 2.20996L0.950012 2.20996C0.950012 2.12996 1.01001 2.07996 1.08001 2.07996L1.14001 2.07996L1.18002 2.08996L1.20001 2.08996L1.23001 2.08996L1.38001 2.08996L1.39001 2.08996L1.39001 2.06996L1.34002 1.90996L1.33001 1.90996L1.23001 1.89996C1.17001 1.89996 1.13001 1.85996 1.13001 1.79996L1.13001 1.66996L1.13001 1.65996Z" stroke="#010101" stroke-width="0.25" stroke-miterlimit="10"/>
<path d="M22.15 1.51001L22.12 1.48001" stroke="#010101" stroke-width="0.25" stroke-miterlimit="10"/>
<path d="M0.940063 2.27C0.940063 2.27 0.940065 2.26 0.930065 2.26L0.450062 2.26C0.450062 2.26 0.430065 2.26 0.430065 2.27L0.430065 2.74C0.430065 2.74 0.430063 2.75 0.440063 2.75L0.920063 2.75C0.920063 2.75 0.930065 2.75 0.930065 2.74L0.930065 2.27L0.940063 2.27Z" stroke="#010101" stroke-width="0.25" stroke-miterlimit="10"/>
<path d="M0.940018 2.80989C0.940018 2.80989 0.940019 2.79989 0.930019 2.79989L0.450016 2.79989C0.450016 2.79989 0.430019 2.79989 0.430019 2.80989L0.430019 2.85989C0.430019 2.90989 0.390017 2.93989 0.350017 2.93989L0.220016 2.93989C0.220016 2.93989 0.210018 2.93989 0.210018 2.94989L0.210018 3.35989C0.210018 3.35989 0.210016 3.36989 0.220016 3.36989L0.350018 3.36989C0.350018 3.36989 0.430019 3.40989 0.430019 3.44989L0.430019 3.62989C0.430019 3.62989 0.430016 3.63989 0.450016 3.63989L1.00002 3.63989C1.00002 3.63989 1.02002 3.63989 1.02002 3.62989L1.02002 3.57989C1.02002 3.57989 0.960018 3.49989 0.960018 3.45989L0.960018 2.78989L0.940018 2.80989Z" stroke="#010101" stroke-width="0.25" stroke-miterlimit="10"/>
<path d="M22.12 1.43994L22.11 1.43994" stroke="#010101" stroke-width="0.25" stroke-miterlimit="10"/>
<path d="M1.77004 3.67993L1.78004 3.67993L1.79004 3.61993L1.78004 3.59993L1.76004 3.59993L1.71004 3.61993L1.19004 3.61993L1.19004 3.60993L1.17004 3.60993L1.13004 3.61993L1.06004 3.61993C1.06004 3.61993 1.05004 3.61993 1.05004 3.62993L1.05004 3.65993C1.05004 3.65993 1.05004 3.66993 1.06004 3.66993L1.77004 3.66993L1.77004 3.67993Z" stroke="#010101" stroke-width="0.25" stroke-miterlimit="10"/>
<path d="M1.43001 1.81008C1.43001 1.81008 1.41001 1.87008 1.39001 1.88008L1.39001 1.90008L1.44001 2.07008L1.45 2.07008L1.86001 2.08008C1.86001 2.08008 1.88 2.08008 1.88 2.07008L1.88 1.81008C1.88 1.81008 1.88001 1.80008 1.87001 1.80008L1.45 1.80008C1.45 1.80008 1.44001 1.80008 1.44001 1.81008" stroke="#010101" stroke-width="0.25" stroke-miterlimit="10"/>
<path d="M2.48999 0.899902L2.44999 0.899902" stroke="#010101" stroke-width="0.25" stroke-miterlimit="10"/>
<path d="M22.11 1.43998L22.11 1.47998" stroke="#010101" stroke-width="0.25" stroke-miterlimit="10"/>
<path d="M0.199982 0.56002L0.229984 0.610019L0.229984 0.630019L0.209984 0.630019C0.209984 0.630019 0.189983 0.630019 0.189983 0.640019L0.189983 0.76002C0.189983 0.76002 0.189982 0.77002 0.199982 0.77002L0.349983 0.77002C0.349983 0.77002 0.359985 0.77002 0.359985 0.76002L0.359985 0.55002L0.349983 0.55002L0.349983 0.52002L0.339985 0.52002L0.309982 0.55002L0.189983 0.55002L0.199982 0.56002Z" stroke="#010101" stroke-width="0.25" stroke-miterlimit="10"/>
<path d="M0.210026 1.27999L0.210026 1.72999C0.210026 1.72999 0.210024 1.73999 0.220024 1.73999L0.380024 1.73999C0.380024 1.73999 0.400024 1.73999 0.400024 1.72999L0.400024 1.27999C0.400024 1.27999 0.400024 1.26999 0.380024 1.26999L0.220024 1.26999C0.220024 1.26999 0.210026 1.26999 0.210026 1.27999Z" stroke="#010101" stroke-width="0.25" stroke-miterlimit="10"/>
<path d="M2.26001 1.49998L2.26001 1.52998C2.26001 1.52998 2.28001 1.53998 2.29001 1.52998L2.31001 1.52998C2.31001 1.52998 2.32001 1.50998 2.31001 1.50998L2.31001 1.47998C2.31001 1.47998 2.32001 1.40998 2.30001 1.39998C2.28001 1.37998 2.25001 1.38998 2.23001 1.40998C2.21001 1.42998 2.22001 1.45998 2.24001 1.47998C2.24001 1.47998 2.24001 1.47998 2.25001 1.47998L2.26001 1.49998Z" stroke="#010101" stroke-width="0.25" stroke-miterlimit="10"/>
<path d="M22.11 1.09009C22.11 1.09009 22.13 1.05009 22.15 1.05009" stroke="#010101" stroke-width="0.25" stroke-miterlimit="10"/>
<path d="M0.210007 1.80005L0.210007 2.29005C0.210007 2.29005 0.210005 2.30005 0.220005 2.30005L0.370007 2.30005L0.380005 2.30005L0.380005 1.79005C0.380005 1.79005 0.380007 1.78005 0.370007 1.78005L0.210007 1.78005C0.210007 1.78005 0.200005 1.78005 0.200005 1.79005" stroke="#010101" stroke-width="0.25" stroke-miterlimit="10"/>
<path d="M0.380024 0.849961L0.220024 0.849961C0.220024 0.849961 0.210026 0.849961 0.210026 0.859961L0.210026 1.19996C0.210026 1.19996 0.210024 1.20996 0.220024 1.20996L0.380024 1.20996C0.380024 1.20996 0.400024 1.20996 0.400024 1.19996L0.400024 0.859961C0.400024 0.859961 0.400024 0.849961 0.380024 0.849961Z" stroke="#010101" stroke-width="0.25" stroke-miterlimit="10"/>
<path d="M2.82007 1.05005L2.82007 1.03005" stroke="#010101" stroke-width="0.25" stroke-miterlimit="10"/>
<path d="M12.51 0.789912L12.49 0.789912L12.49 0.909912L12.87 0.909912L12.87 0.799912L12.85 0.799912L12.52 0.789912L12.51 0.789912Z" stroke="#010101" stroke-width="0.25" stroke-miterlimit="10"/>
<path d="M22.11 1.08988L22.11 1.12988" stroke="#010101" stroke-width="0.25" stroke-miterlimit="10"/>
<path d="M1.96 1.82989C1.96 1.82989 1.94 1.82989 1.94 1.83989L1.94 1.87989C1.94 1.87989 1.94 1.88989 1.95 1.88989L2.97 1.88989C2.97 1.88989 3 1.87989 3 1.85989L3 1.69989C3 1.69989 3 1.68989 2.99 1.68989L2.97 1.68989C2.97 1.68989 2.96 1.68989 2.96 1.69989L2.4 1.69989C2.4 1.69989 2.38 1.69989 2.38 1.68989L2.38 0.919893C2.38 0.919893 2.34 0.839893 2.3 0.839893L2.16 0.839893C2.16 0.839893 2.13 0.829893 2.13 0.809893L2.13 0.709893C2.13 0.709893 2.14 0.679893 2.16 0.679893L2.32 0.679893C2.32 0.679893 2.35 0.709893 2.36 0.699893C2.37 0.699893 2.38 0.679893 2.38 0.669893L2.38 0.629893C2.38 0.629893 2.38 0.619893 2.36 0.619893L1.33 0.619893C1.33 0.619893 1.31 0.619893 1.31 0.629893L1.31 0.689893C1.31 0.689893 1.31 0.699893 1.3 0.699893L1.26 0.699893C1.26 0.699893 1.24 0.699893 1.24 0.689893L1.24 0.669893L1.21 0.669893L1.09 0.739893L1.09 0.759893C1.09 0.759893 1.09 0.769893 1.1 0.769893L1.17 0.769893L1.19 0.749893L1.21 0.749893L1.26 0.769893L1.31 0.769893C1.31 0.769893 1.32 0.769893 1.32 0.779893L1.32 1.13989C1.32 1.13989 1.34 1.20989 1.38 1.21989L1.68 1.32989L1.68 1.61989C1.68 1.61989 1.68 1.62989 1.67 1.62989L1.21 1.62989C1.21 1.62989 1.2 1.62989 1.2 1.63989L1.2 1.65989L1.26 1.76989L1.27 1.76989L1.3 1.76989L1.31 1.76989L1.31 1.73989L1.29 1.71989L1.29 1.68989L1.84 1.68989C1.84 1.68989 1.86 1.68989 1.86 1.67989C1.86 1.67989 1.86 1.65989 1.87 1.65989L1.92 1.65989C1.92 1.65989 1.93 1.65989 1.93 1.66989L1.93 1.79989L1.96 1.82989Z" stroke="#010101" stroke-width="0.25" stroke-miterlimit="10"/>
<path d="M2.83997 1.71997L2.83997 1.65997" stroke="#010101" stroke-width="0.25" stroke-miterlimit="10"/>
<path d="M22.15 1.52002L22.36 1.52002" stroke="#010101" stroke-width="0.25" stroke-miterlimit="10"/>
<path d="M2.87 1.48001L2.84 1.51001" stroke="#010101" stroke-width="0.25" stroke-miterlimit="10"/>
<path d="M2.58001 1.1001C2.58001 1.1001 2.6 1.0501 2.63 1.0501" stroke="#010101" stroke-width="0.25" stroke-miterlimit="10"/>
<path d="M2.88 1.43994L2.87001 1.43994" stroke="#010101" stroke-width="0.25" stroke-miterlimit="10"/>
<path d="M22.11 1.12988L22.12 1.12988" stroke="#010101" stroke-width="0.25" stroke-miterlimit="10"/>
<path d="M22.4 1.09997L22.4 1.46997" stroke="#010101" stroke-width="0.25" stroke-miterlimit="10"/>
<path d="M2.88 1.47998L2.88 1.43998" stroke="#010101" stroke-width="0.25" stroke-miterlimit="10"/>
<path d="M2.84001 1.05009C2.84001 1.05009 2.88 1.07009 2.88 1.09009" stroke="#010101" stroke-width="0.25" stroke-miterlimit="10"/>
<path d="M22.12 1.12988L22.12 1.08988" stroke="#010101" stroke-width="0.25" stroke-miterlimit="10"/>
<path d="M22.36 1.05005L22.15 1.05005" stroke="#010101" stroke-width="0.25" stroke-miterlimit="10"/>
<path d="M2.88 1.12988L2.88 1.08988" stroke="#010101" stroke-width="0.25" stroke-miterlimit="10"/>
<path d="M2.62996 1.52002L2.83997 1.52002" stroke="#010101" stroke-width="0.25" stroke-miterlimit="10"/>
<path d="M22.41 1.47002C22.41 1.47002 22.39 1.52002 22.36 1.52002" stroke="#010101" stroke-width="0.25" stroke-miterlimit="10"/>
<path d="M2.87001 1.12988L2.88 1.12988" stroke="#010101" stroke-width="0.25" stroke-miterlimit="10"/>
<path d="M2.87 1.08988L2.87 1.12988" stroke="#010101" stroke-width="0.25" stroke-miterlimit="10"/>
<path d="M21.07 1.54016L2.50998 1.54016L2.50998 1.66016L22.48 1.66016L22.48 1.54016L21.07 1.54016Z" stroke="#010101" stroke-width="0.25" stroke-miterlimit="10"/>
<path d="M21.07 0.910029L2.50998 0.910031L2.50998 1.03003L22.48 1.03003L22.48 0.910029L21.07 0.910029Z" stroke="#010101" stroke-width="0.25" stroke-miterlimit="10"/>
<path d="M42.35 3.17004L23.23 3.17004L23.23 3.29004L43.76 3.29004L43.76 3.17004L42.35 3.17004Z" stroke="#010101" stroke-width="0.25" stroke-miterlimit="10"/>
<path d="M42.35 2.53015L23.23 2.53015L23.23 2.65015L43.76 2.65015L43.76 2.53015L42.35 2.53015Z" stroke="#010101" stroke-width="0.25" stroke-miterlimit="10"/>
</g>
<defs>
<clipPath id="clip0_1699_2">
<rect width="46.28" height="3.87" fill="white" transform="translate(46.28 3.87012) rotate(180)"/>
</clipPath>
</defs>
</svg>
