<svg width="55" height="4" viewBox="0 0 55 4" fill="none" xmlns="http://www.w3.org/2000/svg">
<g clip-path="url(#clip0_1665_7920)">
<rect width="54.49" height="3.47" transform="translate(54.49 3.46997) rotate(180)" fill="white"/>
<path d="M28.48 0.339856L28.48 0.419856L49.55 0.419854L49.55 0.309854C49.55 0.309854 49.55 0.289854 49.56 0.289854L50.8 0.289854L50.8 0.179854C50.8 0.179854 50.83 0.119854 50.86 0.119854L51.88 0.119854L51.88 0.369854C51.88 0.369854 51.89 0.399854 51.91 0.399854L52.03 0.399854C52.03 0.399854 52.05 0.399854 52.04 0.389854L52.04 0.279854C52.04 0.279854 52.04 0.259854 52.03 0.259854L52.01 0.259854L52.01 0.229854L52.04 0.179854L52.09 0.179854C52.09 0.179854 52.11 0.179854 52.1 0.199854L52.1 2.48985C52.1 2.48985 52.1 2.46985 52.11 2.46985L52.14 2.46985C52.14 2.46985 52.16 2.46985 52.15 2.48985L52.15 2.95985C52.15 2.95985 52.15 2.97985 52.16 2.96985L52.55 2.96985L52.58 2.98985L52.61 2.96985L52.98 2.96985L53.01 2.98985L53.04 2.96985L53.41 2.96985L53.44 2.98985L53.47 2.96985L53.84 2.96985L53.87 2.98985L53.9 2.96985L54.34 2.96985C54.34 2.96985 54.37 2.97985 54.37 2.99985L54.37 3.31985C54.37 3.31985 54.36 3.34985 54.34 3.34985L53.13 3.34985C53.13 3.34985 53.1 3.29985 53.08 3.30985C53.07 3.30985 53.06 3.31985 53.06 3.32985L53.04 3.32985L51.85 3.33985C51.82 3.33985 51.8 3.32985 51.79 3.29985L51.65 3.05985L51.65 3.03985L51.66 3.02985L51.38 3.02985L51.38 2.96985C51.38 2.96985 51.39 2.93985 51.41 2.93985C51.43 2.93985 51.44 2.94985 51.44 2.96985L51.6 2.96985C51.6 2.96985 51.63 2.95985 51.63 2.93985L51.63 2.82985C51.63 2.82985 51.62 2.79985 51.6 2.79985L51.47 2.79985C51.47 2.79985 51.38 2.75985 51.38 2.70985L51.38 2.50985L50.76 2.50985L50.76 1.41985L50.21 1.41985C50.21 1.41985 50.19 1.41985 50.2 1.39985L50.2 1.29985C49.99 1.29985 49.78 1.26985 49.59 1.18985L49.51 1.14985L28.59 1.14986L28.49 1.18986C28.3 1.26986 28.09 1.30986 27.88 1.29986L27.88 1.39986C27.88 1.39986 27.88 1.41986 27.87 1.41986L27.11 1.41986L27.11 1.36986L27.15 1.36986L27.15 1.31986L26.94 1.31986L26.94 1.36986L26.98 1.36986L26.98 1.41986L26.94 1.41986C26.94 1.41986 26.88 1.38986 26.88 1.35986L26.88 1.13986C26.88 1.13986 26.91 1.07986 26.94 1.07986L27.08 1.07986C27.08 1.07986 27.1 1.07986 27.09 1.05986L27.09 0.439856C27.09 0.439856 27.09 0.419856 27.08 0.429856L26.94 0.429856C26.94 0.429856 26.88 0.399856 26.88 0.369856L26.88 0.339856C26.88 0.339856 26.91 0.279856 26.94 0.279856L28.49 0.279856C28.49 0.279856 28.51 0.279856 28.5 0.299856L28.5 0.349856L28.5 0.319856L28.48 0.339856Z" fill="white"/>
<path d="M2.74005 3.30986C2.74005 3.30986 2.70005 3.34986 2.68005 3.34986L1.47005 3.34986C1.47005 3.34986 1.44005 3.29986 1.42005 3.30986C1.41005 3.30986 1.40005 3.31986 1.40005 3.32986L1.38005 3.32986L0.190054 3.33986C0.170054 3.33986 0.160051 3.32986 0.160051 3.30986L0.160051 2.98986C0.160051 2.98986 0.170054 2.95986 0.190054 2.95986L0.560053 2.95986L0.590052 2.97986L0.620054 2.95986L0.990053 2.95986L1.02005 2.97986L1.05005 2.95986L1.42005 2.95986L1.45005 2.97986L1.48005 2.95986L1.85005 2.95986L1.88005 2.97986L1.91005 2.95986L2.30005 2.95986C2.30005 2.95986 2.32005 2.95986 2.31005 2.94986L2.31005 2.47986C2.31005 2.47986 2.31005 2.45986 2.32005 2.45986L2.35005 2.45986C2.35005 2.45986 2.37005 2.45986 2.36005 2.47986L2.36005 0.199856C2.36005 0.199856 2.36005 0.179856 2.37005 0.179856L2.42005 0.179856L2.45005 0.229856L2.45005 0.259856L2.43005 0.259856C2.43005 0.259856 2.41005 0.259856 2.42005 0.279856L2.42005 0.389856C2.42005 0.389856 2.42005 0.409856 2.43005 0.409856L2.55005 0.409856C2.55005 0.409856 2.58005 0.399856 2.58005 0.379856L2.58005 0.129856L3.60005 0.129856C3.60005 0.129856 3.66005 0.159856 3.66005 0.189856L3.66005 0.269856C3.66005 0.269856 3.65005 0.299856 3.63005 0.299856L3.51005 0.299856L3.00005 0.289856L2.93005 0.329856L2.91005 0.329856L2.91005 0.289856L2.87005 0.289856C2.87005 0.289856 2.79005 0.329856 2.79005 0.369856L2.79005 1.45986C2.79005 1.45986 2.83005 1.53986 2.87005 1.53986L2.91005 1.53986L2.91005 1.49986L2.93005 1.49986L3.00005 1.53986L3.69005 1.53986C3.69005 1.53986 3.72005 1.54986 3.72005 1.56986L3.72005 2.07986L3.72005 2.12986L27.2401 2.12985L27.2401 1.79985C27.2401 1.79985 27.2501 1.76985 27.2701 1.76985L27.8501 1.76985C27.8501 1.76985 27.8701 1.76985 27.8601 1.75985L27.8601 1.61985C27.8601 1.61985 27.8601 1.59985 27.8501 1.59985L27.6301 1.59985C27.6301 1.59985 27.6101 1.59985 27.6201 1.61985L27.6201 1.64985L27.6001 1.64985L27.6001 1.54985L28.8401 1.54985C28.8401 1.54985 28.9001 1.57985 28.9001 1.60985L28.9001 2.01985L29.4301 2.01985L29.4301 2.53985L28.9001 2.53985L28.9001 2.98985C28.9001 2.98985 28.8701 3.04985 28.8401 3.04985L27.8801 3.04985C27.6601 3.04985 27.4501 3.00985 27.2501 2.92985L27.1601 2.88985L3.80005 2.88986L3.72005 2.92986C3.53005 3.00986 3.32005 3.04986 3.11005 3.04986L2.83005 3.04986L2.84005 3.04986L2.84005 3.07986L2.70005 3.31986L2.74005 3.30986Z" fill="white"/>
<path d="M51.25 1.99976L50.81 1.99976C50.81 1.99976 50.79 1.99976 50.8 1.97976L50.8 1.59976C50.8 1.59976 50.8 1.57976 50.81 1.57976L51.24 1.57976L51.33 1.87976L51.33 1.89976C51.33 1.89976 51.27 1.93976 51.27 1.97976L51.26 1.97976L51.25 1.99976Z" stroke="#010101" stroke-width="0.25" stroke-miterlimit="10"/>
<path d="M50.05 0.509766L27.97 0.509768L27.97 0.419768L50.05 0.419766L50.05 0.509766Z" stroke="#010101" stroke-width="0.25" stroke-miterlimit="10"/>
<path d="M50.05 1.16992L27.97 1.16992L27.97 1.07992L50.05 1.07992L50.05 1.16992Z" stroke="#010101" stroke-width="0.25" stroke-miterlimit="10"/>
<path d="M52.12 2.48985C52.12 2.48985 52.12 2.46985 52.13 2.46985L52.16 2.46985C52.16 2.46985 52.18 2.46985 52.17 2.48985L52.17 2.95985C52.17 2.95985 52.17 2.97985 52.18 2.96985L52.57 2.96985L52.6 2.98985L52.63 2.96985L53 2.96985L53.03 2.98985L53.06 2.96985L53.43 2.96985L53.46 2.98985L53.49 2.96985L53.86 2.96985L53.89 2.98985L53.92 2.96985L54.34 2.96985C54.34 2.96985 54.37 2.97985 54.37 2.99985L54.37 3.31985C54.37 3.31985 54.36 3.34985 54.34 3.34985L53.13 3.34985C53.13 3.34985 53.1 3.29985 53.08 3.30985C53.07 3.30985 53.06 3.31985 53.06 3.32985L53.04 3.32985L51.85 3.33985C51.82 3.33985 51.8 3.32985 51.79 3.29985L51.65 3.05985L51.65 3.03985L51.66 3.03985" stroke="#010101" stroke-width="0.25" stroke-miterlimit="10"/>
<path d="M52.05 2.95978L52.02 2.90978L52.02 2.88978L52.04 2.88978C52.04 2.88978 52.06 2.88978 52.05 2.86978L52.05 2.75978C52.05 2.75978 52.05 2.73978 52.04 2.73978L51.92 2.73978C51.92 2.73978 51.89 2.74978 51.89 2.76978L51.89 3.01978L51.37 3.01978L51.37 2.95978C51.37 2.95978 51.38 2.92978 51.4 2.92978C51.42 2.92978 51.43 2.93978 51.43 2.95978L51.59 2.95978C51.59 2.95978 51.62 2.94978 51.62 2.92978L51.62 2.81978C51.62 2.81978 51.61 2.78978 51.59 2.78978L51.46 2.78978C51.46 2.78978 51.37 2.74978 51.37 2.69978L51.37 2.56978C51.37 2.56978 51.38 2.53978 51.4 2.53978L51.46 2.53978C51.46 2.53978 51.49 2.52978 51.49 2.50978L51.49 1.99978C51.49 1.99978 51.46 1.93978 51.43 1.93978L51.36 1.93978C51.36 1.93978 51.33 1.94978 51.33 1.96978L51.37 2.01978L51.37 2.03978L50.8 2.03978C50.8 2.03978 50.8 2.06978 50.79 2.06978L50.77 2.06978C50.77 2.06978 50.75 2.06978 50.76 2.04978L50.76 1.53978C50.76 1.53978 50.77 1.50978 50.79 1.50978L51.48 1.50978L51.55 1.46978L51.57 1.46978L51.57 1.50978L51.61 1.50978C51.61 1.50978 51.69 1.46978 51.69 1.42978L51.69 0.339775C51.69 0.339775 51.65 0.259775 51.61 0.259775L51.57 0.259775L51.57 0.299775L51.55 0.299775L51.48 0.259775L50.96 0.259776L50.86 0.269776C50.84 0.269776 50.83 0.259776 50.83 0.239776L50.83 0.159776C50.83 0.159776 50.86 0.0997757 50.89 0.0997757L51.91 0.0997756L51.91 0.349776C51.91 0.349776 51.92 0.379776 51.94 0.379776L52.06 0.379776C52.06 0.379776 52.08 0.379776 52.07 0.369776L52.07 0.259775C52.07 0.259775 52.07 0.239775 52.06 0.239775L52.04 0.239775L52.04 0.209775L52.07 0.159776L52.12 0.159775C52.12 0.159775 52.14 0.159775 52.13 0.179775L52.13 2.94978L52.07 2.96978L52.05 2.95978Z" stroke="#010101" stroke-width="0.25" stroke-miterlimit="10"/>
<path d="M50.86 0.219746L50.86 0.199746C50.86 0.199746 50.86 0.179746 50.87 0.179746L51.53 0.179746C51.53 0.179746 51.55 0.179746 51.54 0.199746L51.53 0.229746L51.5 0.229746L51.48 0.239746L51.47 0.239746L51.44 0.229746L50.9 0.229746L50.86 0.239746C50.86 0.239746 50.84 0.239746 50.85 0.219746L50.86 0.219746Z" stroke="#010101" stroke-width="0.25" stroke-miterlimit="10"/>
<path d="M51.7399 1.08987L51.7399 0.359873C51.7399 0.279873 51.6799 0.219873 51.5999 0.219873C51.5999 0.219873 51.5799 0.219873 51.5899 0.199873C51.5899 0.199873 51.5899 0.169873 51.5999 0.179873L51.8199 0.179873C51.8199 0.179873 51.8399 0.179873 51.8299 0.199873L51.8299 0.379873C51.8299 0.379873 51.8699 0.469873 51.9199 0.469873L52.0399 0.469873C52.0399 0.469873 52.0599 0.469873 52.0499 0.489873L52.0499 1.09987C52.0499 1.09987 52.0499 1.11987 52.0399 1.11987L51.7499 1.11987C51.7499 1.11987 51.7299 1.11987 51.7399 1.09987L51.7399 1.08987Z" stroke="#010101" stroke-width="0.25" stroke-miterlimit="10"/>
<path d="M51.9199 2.68986C51.9199 2.68986 51.8299 2.72986 51.8299 2.77986L51.8299 2.95986C51.8299 2.95986 51.8299 2.97986 51.8199 2.96986L51.6999 2.96986C51.6999 2.96986 51.6799 2.96986 51.6899 2.95986L51.6899 2.83986C51.6899 2.83986 51.6499 2.74986 51.5999 2.74986L51.4699 2.74986C51.4699 2.74986 51.4399 2.73986 51.4399 2.71986L51.4399 2.63986C51.4399 2.63986 51.4399 2.61986 51.4499 2.61986L51.4699 2.61986C51.4699 2.61986 51.5599 2.57986 51.5599 2.52986L51.5599 2.16986C51.5599 2.16986 51.5599 2.14986 51.5699 2.14986L52.0399 2.14986C52.0399 2.14986 52.0599 2.14986 52.0499 2.16986L52.0499 2.67986C52.0499 2.67986 52.0499 2.69986 52.0399 2.69986L51.9199 2.69986L51.9199 2.68986Z" stroke="#010101" stroke-width="0.25" stroke-miterlimit="10"/>
<path d="M49.96 0.549824L49.69 0.549824L49.69 0.629824L49.67 0.629824L49.67 0.559824C49.67 0.559824 49.68 0.539824 49.69 0.539824L49.95 0.539824C49.95 0.539824 49.97 0.549824 49.97 0.559824L49.97 1.03982C49.97 1.03982 49.96 1.06982 49.95 1.06982L49.69 1.06982C49.69 1.06982 49.67 1.05982 49.67 1.03982L49.67 0.969824L49.69 0.969824L49.69 1.03982L49.96 1.03982L49.96 0.549824Z" stroke="#010101" stroke-width="0.25" stroke-miterlimit="10"/>
<path d="M49.96 1.02979C49.96 1.02979 49.92 1.01979 49.92 0.999785L49.92 0.589785C49.92 0.589785 49.94 0.559785 49.96 0.559785" stroke="#010101" stroke-width="0.25" stroke-miterlimit="10"/>
<path d="M50.97 1.14988L51.1 1.14988C51.1 1.14988 51.12 1.14988 51.11 1.16988L51.11 1.25988C51.11 1.25988 51.11 1.27988 51.1 1.26988L50.92 1.26988C50.92 1.26988 50.85 1.29988 50.85 1.34988C50.85 1.34988 50.85 1.37988 50.84 1.37988L50.51 1.37988C50.51 1.37988 50.49 1.37988 50.5 1.35988L50.5 1.12988C50.5 1.12988 50.46 1.03988 50.41 1.03988L50.28 1.03988C50.28 1.03988 50.25 1.02988 50.25 1.00988L50.25 0.369883C50.25 0.369883 50.25 0.349883 50.26 0.349883L51.11 0.349883C51.11 0.349883 51.12 0.349883 51.12 0.369883C51.12 0.369883 51.12 0.379883 51.11 0.379883L50.98 0.379883C50.98 0.379883 50.91 0.409883 50.91 0.459883L50.91 1.07988C50.91 1.07988 50.94 1.15988 50.98 1.15988" stroke="#010101" stroke-width="0.25" stroke-miterlimit="10"/>
<path d="M50.16 1.31982C49.96 1.31982 49.76 1.28982 49.57 1.20982C49.56 1.20982 49.56 1.18982 49.56 1.17982C49.56 1.17982 49.58 1.16982 49.59 1.16982C49.77 1.23982 49.96 1.27982 50.15 1.27982L50.15 1.23982C50.15 1.23982 50.17 1.19982 50.19 1.19982L50.26 1.19982L50.37 1.10982L50.38 1.10982L50.39 1.10982L50.39 1.13982L50.25 1.24982L50.25 1.22982L50.18 1.22982C50.18 1.22982 50.18 1.28982 50.16 1.30982" stroke="#010101" stroke-width="0.25" stroke-miterlimit="10"/>
<path d="M50.85 2.29982L50.85 2.31982" stroke="#010101" stroke-width="0.25" stroke-miterlimit="10"/>
<path d="M50.85 2.29977L50.85 2.09977L51.48 2.09977L51.48 2.50977L50.94 2.50977L50.94 2.32977C50.94 2.32977 50.94 2.30977 50.92 2.30977L50.85 2.30977" stroke="#010101" stroke-width="0.25" stroke-miterlimit="10"/>
<path d="M27.78 2.86987L3.25003 2.86988L3.25003 2.77988L27.78 2.77987L27.78 2.86987Z" stroke="#010101" stroke-width="0.25" stroke-miterlimit="10"/>
<path d="M27.78 2.21997L3.25003 2.21997L3.25003 2.12997L27.78 2.12997L27.78 2.21997Z" stroke="#010101" stroke-width="0.25" stroke-miterlimit="10"/>
<path d="M29.39 2.31978L29.32 2.31978C29.32 2.31978 29.3 2.31978 29.3 2.33978L29.3 2.51978L28.76 2.51978L28.76 2.10978L29.39 2.10978L29.39 2.30978" stroke="#010101" stroke-width="0.25" stroke-miterlimit="10"/>
<path d="M29.39 2.29982L29.39 2.31982" stroke="#010101" stroke-width="0.25" stroke-miterlimit="10"/>
<path d="M28.46 1.20982C28.27 1.28982 28.07 1.31982 27.87 1.31982C27.85 1.29982 27.84 1.26982 27.85 1.23982L27.8 1.23982L27.79 1.24982L27.65 1.13982L27.65 1.10982L27.66 1.10982L27.67 1.10982L27.78 1.19982L27.85 1.19982C27.85 1.19982 27.89 1.21982 27.89 1.23982L27.89 1.27982C28.08 1.27982 28.27 1.23982 28.45 1.16982C28.46 1.16982 28.47 1.16982 28.48 1.17982C28.48 1.18982 28.48 1.19982 28.47 1.20982" stroke="#010101" stroke-width="0.25" stroke-miterlimit="10"/>
<path d="M27.05 1.14987C27.05 1.14987 27.12 1.11987 27.12 1.06987L27.12 0.449873C27.12 0.449873 27.09 0.379873 27.05 0.369873L26.92 0.369873C26.92 0.369873 26.9 0.369873 26.9 0.349873C26.9 0.329873 26.9 0.329873 26.92 0.339873L27.77 0.339873C27.77 0.339873 27.79 0.339873 27.78 0.359873L27.78 0.999873C27.78 0.999873 27.77 1.02987 27.75 1.02987L27.62 1.02987C27.62 1.02987 27.53 1.06987 27.53 1.11987L27.53 1.34987C27.53 1.34987 27.53 1.36987 27.52 1.36987L27.19 1.36987C27.19 1.36987 27.17 1.36987 27.18 1.34987C27.18 1.29987 27.15 1.25987 27.11 1.25987L26.93 1.25987C26.93 1.25987 26.91 1.25987 26.92 1.23987L26.92 1.14987C26.92 1.14987 26.92 1.12987 26.93 1.12987L27.06 1.12987L27.05 1.14987Z" stroke="#010101" stroke-width="0.25" stroke-miterlimit="10"/>
<path d="M26.94 1.42995L26.9 1.42995C26.9 1.42995 26.84 1.39995 26.84 1.36995L26.84 1.14995C26.84 1.14995 26.87 1.08995 26.9 1.08995L27.04 1.08995C27.04 1.08995 27.06 1.08995 27.06 1.06995L27.06 0.449951C27.06 0.449951 27.06 0.429951 27.04 0.439951L26.9 0.439951C26.9 0.439951 26.84 0.409951 26.84 0.379951L26.84 0.349951C26.84 0.349951 26.87 0.289951 26.9 0.289951L28.45 0.289951C28.45 0.289951 28.47 0.289951 28.46 0.309951L28.46 0.359951C28.46 0.359951 28.46 0.379951 28.45 0.379951L28.43 0.379951L28.4 0.359951L27.85 0.359951C27.85 0.359951 27.83 0.359951 27.84 0.379951L27.84 1.01995C27.84 1.01995 27.8 1.10995 27.75 1.10995L27.62 1.10995C27.62 1.10995 27.59 1.11995 27.59 1.13995L27.59 1.34995C27.59 1.34995 27.6 1.37995 27.62 1.37995L27.76 1.37995C27.76 1.37995 27.78 1.37995 27.77 1.36995L27.77 1.27995C27.77 1.27995 27.78 1.24995 27.8 1.24995C27.82 1.24995 27.83 1.25995 27.83 1.27995L27.83 1.42995C27.83 1.42995 27.83 1.44995 27.82 1.44995L27.06 1.44995L27.06 1.39995L27.1 1.39995L27.1 1.34995L26.89 1.34995L26.89 1.39995L26.93 1.39995L26.93 1.44995L26.94 1.42995Z" stroke="#010101" stroke-width="0.25" stroke-miterlimit="10"/>
<path d="M27.28 1.65993L27.28 1.67993L27.63 1.67993C27.63 1.67993 27.65 1.66993 27.65 1.64993C27.65 1.63993 27.65 1.62993 27.63 1.62993L27.44 1.59993L27.44 1.61993L27.37 1.61993L27.34 1.58993L27.34 1.45993L27.37 1.42993L27.51 1.42993L27.51 1.37993" stroke="#010101" stroke-width="0.25" stroke-miterlimit="10"/>
<path d="M27.88 3.01978C27.68 3.01978 27.48 2.98978 27.29 2.90978C27.28 2.90978 27.28 2.88978 27.28 2.87978C27.28 2.87978 27.3 2.86978 27.31 2.86978C27.49 2.93978 27.68 2.97978 27.87 2.97978L27.87 2.93978C27.87 2.93978 27.89 2.89978 27.91 2.89978L27.98 2.89978L28.09 2.80978L28.1 2.80978L28.11 2.80978L28.11 2.83978L27.97 2.94978L27.96 2.94978L27.91 2.93978C27.91 2.96978 27.91 2.99978 27.89 3.01978" stroke="#010101" stroke-width="0.25" stroke-miterlimit="10"/>
<path d="M27.9 1.7498L27.9 1.6098C27.9 1.6098 27.9 1.5898 27.89 1.5898L27.67 1.5898C27.67 1.5898 27.65 1.5898 27.66 1.6098L27.66 1.6398L27.37 1.5898C27.37 1.5898 27.34 1.5698 27.35 1.5598C27.35 1.5498 27.36 1.5398 27.38 1.5398L28.89 1.5398C28.89 1.5398 28.95 1.5698 28.95 1.5998L28.95 2.0098C28.95 2.0098 28.92 2.0698 28.89 2.0698L28.55 2.0698C28.55 2.0698 28.53 2.0698 28.54 2.0898L28.54 2.5598C28.54 2.5598 28.54 2.5798 28.55 2.5798L28.89 2.5798C28.89 2.5798 28.95 2.6098 28.95 2.6398L28.95 2.9898C28.95 2.9898 28.92 3.0498 28.89 3.0498L27.93 3.0498C27.93 3.0498 27.91 3.0498 27.92 3.0298L27.92 2.9798C27.92 2.9798 27.93 2.9498 27.95 2.9498C27.97 2.9498 27.98 2.9598 27.98 2.9798L28.14 2.9798C28.14 2.9798 28.17 2.9698 28.17 2.9498L28.17 2.8398C28.17 2.8398 28.16 2.8098 28.14 2.8098L28.01 2.8098C28.01 2.8098 27.92 2.7698 27.92 2.7198L27.92 2.0798C27.92 2.0798 27.92 2.0598 27.91 2.0598L27.35 2.0598C27.35 2.0598 27.35 2.0898 27.34 2.0898L27.32 2.0898C27.32 2.0898 27.3 2.0898 27.31 2.0698L27.31 1.7898C27.31 1.7898 27.32 1.7598 27.34 1.7598L27.92 1.7598C27.92 1.7598 27.94 1.7598 27.93 1.7498L27.9 1.7498Z" stroke="#010101" stroke-width="0.25" stroke-miterlimit="10"/>
<path d="M28.04 2.42993L27.99 2.42993L27.99 2.36993C27.99 2.36993 27.96 2.32993 27.97 2.29993C27.97 2.29993 27.98 2.28993 27.99 2.27993L27.99 2.21993L28.04 2.21993L28.04 2.27993C28.04 2.27993 28.07 2.31993 28.06 2.34993C28.06 2.34993 28.05 2.35993 28.04 2.36993L28.04 2.42993Z" stroke="#010101" stroke-width="0.25" stroke-miterlimit="10"/>
<path d="M28.44 2.28994C28.44 2.28994 28.47 2.32994 28.46 2.35994C28.46 2.35994 28.45 2.36994 28.44 2.37994L28.44 2.43994L28.39 2.43994L28.39 2.37994C28.39 2.37994 28.36 2.33994 28.37 2.30994C28.37 2.30994 28.38 2.29994 28.39 2.28994L28.39 2.22994L28.44 2.22994L28.44 2.28994Z" stroke="#010101" stroke-width="0.25" stroke-miterlimit="10"/>
<path d="M27.87 1.97976C27.87 1.97976 27.87 1.99976 27.86 1.99976L27.36 1.99976C27.36 1.99976 27.34 1.99976 27.35 1.97976L27.35 1.82976C27.35 1.82976 27.35 1.80976 27.36 1.81976L27.86 1.81976C27.86 1.81976 27.88 1.81976 27.87 1.82976L27.87 1.97976Z" stroke="#010101" stroke-width="0.25" stroke-miterlimit="10"/>
<path d="M28.88 1.97987C28.88 1.97987 28.88 1.99987 28.87 1.99987L28.53 1.99987C28.53 1.99987 28.47 2.02987 28.47 2.05987L28.47 2.16987C28.47 2.16987 28.47 2.18987 28.46 2.18987L28.4 2.18987C28.4 2.18987 28.35 2.20987 28.35 2.23987L28.35 2.26987C28.35 2.26987 28.32 2.36987 28.35 2.40987L28.35 2.43987C28.35 2.43987 28.37 2.49987 28.4 2.49987L28.46 2.49987C28.46 2.49987 28.48 2.49987 28.48 2.51987L28.48 2.56987C28.48 2.56987 28.51 2.62987 28.54 2.62987L28.88 2.62987C28.88 2.62987 28.9 2.62987 28.89 2.64987L28.89 2.96987C28.89 2.96987 28.89 2.98987 28.88 2.97987L28.25 2.97987C28.25 2.97987 28.23 2.97987 28.24 2.96987L28.24 2.84987C28.24 2.84987 28.2 2.75987 28.15 2.75987L28.02 2.75987C28.02 2.75987 27.99 2.74987 27.99 2.72987L27.99 2.51987C27.99 2.51987 27.99 2.49987 28 2.49987L28.06 2.49987C28.06 2.49987 28.11 2.47987 28.11 2.44987L28.11 2.41987C28.11 2.41987 28.14 2.31987 28.11 2.27987L28.11 2.24987C28.11 2.24987 28.09 2.19987 28.06 2.19987L28 2.19987C28 2.19987 27.98 2.19987 27.98 2.17987L27.98 2.06987C27.98 2.06987 27.96 2.01987 27.93 2.00987L27.92 2.00987L27.92 1.83987L27.93 1.83987C27.93 1.83987 27.98 1.79987 27.98 1.76987L27.98 1.60987C27.98 1.60987 27.98 1.58987 27.99 1.58987L28.87 1.58987C28.87 1.58987 28.89 1.58987 28.88 1.60987L28.88 1.98987L28.88 1.97987Z" stroke="#010101" stroke-width="0.25" stroke-miterlimit="10"/>
<path d="M27.6801 2.72974C27.6801 2.72974 27.6401 2.71974 27.6401 2.69974L27.6401 2.28974C27.6401 2.28974 27.6601 2.25974 27.6801 2.25974" stroke="#010101" stroke-width="0.25" stroke-miterlimit="10"/>
<path d="M27.6799 2.24977L27.4099 2.24977L27.4099 2.32977L27.3899 2.32977L27.3899 2.25977C27.3899 2.25977 27.3999 2.23977 27.4099 2.23977L27.6699 2.23977C27.6699 2.23977 27.6899 2.24977 27.6899 2.25977L27.6899 2.73977C27.6899 2.73977 27.6799 2.75977 27.6699 2.75977L27.4099 2.75977C27.4099 2.75977 27.3899 2.74977 27.3899 2.73977L27.3899 2.66977L27.4099 2.66977L27.4099 2.73977L27.6799 2.73977L27.6799 2.24977Z" stroke="#010101" stroke-width="0.25" stroke-miterlimit="10"/>
<path d="M28.06 0.549775C28.06 0.549775 28.1 0.559775 28.1 0.579775L28.1 0.989775C28.1 0.989775 28.08 1.01978 28.06 1.01978" stroke="#010101" stroke-width="0.25" stroke-miterlimit="10"/>
<path d="M2.83997 3.02985L2.84998 3.02985L2.84998 3.05985L2.70998 3.30985C2.69998 3.32985 2.66997 3.34985 2.64997 3.34985L1.43998 3.34985C1.43998 3.34985 1.40998 3.29985 1.38998 3.30985C1.37998 3.30985 1.36998 3.31985 1.36998 3.32985L1.34998 3.32985L0.159973 3.33985C0.139973 3.33985 0.129974 3.32985 0.129974 3.30985L0.129974 2.98985C0.129974 2.98985 0.139973 2.95985 0.159973 2.95985L0.529976 2.95985L0.559975 2.97985L0.589973 2.95985L0.959976 2.95985L0.989975 2.97985L1.01997 2.95985L1.38998 2.95985L1.41998 2.97985L1.44997 2.95985L1.81998 2.95985L1.84998 2.97985L1.87997 2.95985L2.26997 2.95985C2.26997 2.95985 2.28998 2.95985 2.27998 2.94985L2.27998 2.47985C2.27998 2.47985 2.27997 2.45985 2.28997 2.45985L2.31998 2.45985C2.31998 2.45985 2.33998 2.45985 2.32998 2.47985" stroke="#010101" stroke-width="0.25" stroke-miterlimit="10"/>
<path d="M2.36998 2.94981L2.36998 0.209815C2.36998 0.209815 2.36998 0.189815 2.37998 0.189815L2.42998 0.189815L2.45998 0.239815L2.45998 0.269815L2.43998 0.269815C2.43998 0.269815 2.41998 0.269815 2.42998 0.289815L2.42998 0.399815C2.42998 0.399815 2.42998 0.419815 2.43998 0.419815L2.55998 0.419815C2.55998 0.419815 2.58998 0.409815 2.58998 0.389815L2.58998 0.139815L3.60998 0.139815C3.60998 0.139815 3.66998 0.169815 3.66998 0.199815L3.66998 0.279814C3.66998 0.279814 3.65998 0.309814 3.63998 0.309814L3.51998 0.309814L3.00998 0.299815L2.93998 0.339814L2.91998 0.339814L2.91998 0.299815L2.87998 0.299815C2.87998 0.299815 2.79998 0.339815 2.79998 0.379815L2.79998 1.46981C2.79998 1.46981 2.83998 1.54981 2.87998 1.54981L2.91998 1.54981L2.91998 1.50981L2.93998 1.50981L3.00998 1.54981L3.69998 1.54981C3.69998 1.54981 3.72998 1.55981 3.72998 1.57981L3.72998 2.08981C3.72998 2.08981 3.72998 2.10981 3.71998 2.10981L3.69998 2.10981C3.69998 2.10981 3.67998 2.10981 3.68998 2.08981L3.11998 2.08981L3.11998 2.05981L3.15998 2.00981C3.15998 2.00981 3.14998 1.97981 3.12998 1.97981L3.05998 1.97981C3.05998 1.97981 2.99998 2.00981 2.99998 2.03981L2.99998 2.54981C2.99998 2.54981 3.00998 2.57981 3.02998 2.57981L3.08998 2.57981C3.08998 2.57981 3.11998 2.58981 3.11998 2.60981L3.11998 2.73981C3.11998 2.73981 3.07998 2.82981 3.02998 2.82981L2.89998 2.82981C2.89998 2.82981 2.86998 2.83981 2.86998 2.85981L2.86998 2.96981C2.86998 2.96981 2.87998 2.99981 2.89998 2.99981L3.05998 2.99981C3.05998 2.99981 3.06998 2.96981 3.08998 2.96981C3.10998 2.96981 3.11998 2.97981 3.11998 2.99981L3.11998 3.05981L2.59998 3.05981L2.59998 2.80981C2.59998 2.80981 2.58998 2.77981 2.56998 2.77981L2.44998 2.77981C2.44998 2.77981 2.42998 2.77981 2.43998 2.79981L2.43998 2.90981C2.43998 2.90981 2.43998 2.92981 2.44998 2.92981L2.46998 2.92981L2.46998 2.94981L2.43998 2.99981L2.37998 2.97981L2.36998 2.94981Z" stroke="#010101" stroke-width="0.25" stroke-miterlimit="10"/>
<path d="M3.23994 1.99977L3.22994 1.99977C3.22994 1.99977 3.20994 1.91977 3.16994 1.90977L3.16994 1.88977L3.24994 1.59977L3.25994 1.59977L3.66994 1.58977C3.66994 1.58977 3.68994 1.58977 3.67994 1.60977L3.67994 1.98977C3.67994 1.98977 3.67994 2.00977 3.66994 2.00977L3.22994 2.00977L3.23994 1.99977Z" stroke="#010101" stroke-width="0.25" stroke-miterlimit="10"/>
<path d="M2.75002 1.08986C2.75002 1.08986 2.75002 1.10986 2.73002 1.10986L2.44002 1.10986C2.44002 1.10986 2.42002 1.10986 2.43002 1.08986L2.43002 0.479863C2.43002 0.479863 2.43002 0.459863 2.44002 0.459863L2.56002 0.459863C2.56002 0.459863 2.65002 0.419863 2.65002 0.369863L2.65002 0.189863C2.65002 0.189863 2.65002 0.169863 2.66002 0.169863L2.88002 0.169863C2.88002 0.169863 2.90002 0.169863 2.89002 0.189863C2.89002 0.189863 2.89002 0.219863 2.88002 0.209863C2.80002 0.209863 2.74002 0.269863 2.74002 0.349863L2.74002 1.07986L2.75002 1.08986Z" stroke="#010101" stroke-width="0.25" stroke-miterlimit="10"/>
<path d="M2.91997 2.11987L2.44997 2.11987C2.44997 2.11987 2.42997 2.11987 2.43997 2.10987L2.43997 1.15987C2.43997 1.15987 2.43997 1.13987 2.44997 1.13987L2.73997 1.13987C2.73997 1.13987 2.75997 1.13987 2.75997 1.15987L2.75997 1.44987C2.75997 1.52987 2.81997 1.58987 2.89997 1.58987L2.93997 1.58987L2.97997 1.57987L2.99997 1.57987L3.00997 1.57987L3.03997 1.57987L3.20997 1.57987L3.21997 1.57987L3.21997 1.59987L3.12997 1.87987L3.11997 1.87987L3.06997 1.88987C2.99997 1.88987 2.94997 1.93987 2.94997 2.00987L2.94997 2.09987C2.94997 2.09987 2.94997 2.11987 2.93997 2.10987L2.91997 2.11987Z" stroke="#010101" stroke-width="0.25" stroke-miterlimit="10"/>
<path d="M2.56994 2.68985L2.44993 2.68985C2.44993 2.68985 2.42993 2.68985 2.43993 2.66985L2.43993 2.15985C2.43993 2.15985 2.43993 2.13985 2.44993 2.13985L2.91993 2.13985C2.91993 2.13985 2.93993 2.13985 2.92993 2.15985L2.92993 2.51985C2.92993 2.51985 2.96993 2.60985 3.01993 2.60985L3.03993 2.60985C3.03993 2.60985 3.05993 2.60985 3.04993 2.62985L3.04993 2.70985C3.04993 2.70985 3.03993 2.73985 3.01993 2.73985L2.88993 2.73985C2.88993 2.73985 2.79993 2.77985 2.79993 2.82985L2.79993 2.94985C2.79993 2.94985 2.79993 2.96985 2.78993 2.95985L2.66993 2.95985C2.66993 2.95985 2.64993 2.95985 2.65993 2.94985L2.65993 2.76985C2.65993 2.76985 2.61994 2.67985 2.56994 2.67985" stroke="#010101" stroke-width="0.25" stroke-miterlimit="10"/>
<path d="M3.63002 2.66977L3.65002 2.66977L3.65002 2.73977C3.65002 2.73977 3.64002 2.75977 3.63002 2.75977L3.37003 2.75977C3.37003 2.75977 3.35003 2.74977 3.35003 2.73977L3.35003 2.25977C3.35003 2.25977 3.36003 2.23977 3.37003 2.23977L3.63002 2.23977C3.63002 2.23977 3.65002 2.24977 3.65002 2.25977L3.65002 2.32977L3.63002 2.32977L3.63002 2.25977L3.36002 2.25977L3.36002 2.74977L3.63002 2.74977L3.63002 2.66977Z" stroke="#010101" stroke-width="0.25" stroke-miterlimit="10"/>
<path d="M3.35001 2.24997C3.35001 2.24997 3.39001 2.25997 3.39001 2.27997L3.39001 2.68997C3.39001 2.68997 3.37001 2.71997 3.35001 2.71997" stroke="#010101" stroke-width="0.25" stroke-miterlimit="10"/>
<path d="M3.74001 2.90978C3.55001 2.98978 3.35001 3.01978 3.15001 3.01978C3.13001 2.99978 3.12001 2.96978 3.13001 2.93978L3.08001 2.93978L3.07001 2.95978L2.93001 2.84978L2.93001 2.81978L2.94001 2.81978L2.95001 2.81978L3.06001 2.90978L3.13001 2.90978C3.13001 2.90978 3.17001 2.92978 3.17001 2.94978L3.17001 2.98978C3.36001 2.98978 3.55001 2.94978 3.73001 2.87978C3.74001 2.87978 3.75001 2.87978 3.76001 2.88978C3.76001 2.89978 3.76001 2.90978 3.75001 2.91978" stroke="#010101" stroke-width="0.25" stroke-miterlimit="10"/>
<path d="M28.34 0.959815L28.36 0.959815L28.36 1.02981C28.36 1.02981 28.35 1.05981 28.34 1.05981L28.08 1.05981C28.08 1.05981 28.06 1.04981 28.06 1.03981L28.06 0.559814C28.06 0.559814 28.07 0.539814 28.08 0.539814L28.34 0.539814C28.34 0.539814 28.36 0.549814 28.36 0.559814L28.36 0.629815L28.34 0.629815L28.34 0.559814L28.07 0.559814L28.07 1.04981L28.34 1.04981L28.34 0.969815L28.34 0.959815Z" stroke="#010101" stroke-width="0.25" stroke-miterlimit="10"/>
<path d="M3.63 0.219746C3.63 0.219746 3.63001 0.239746 3.62001 0.239746L3.55001 0.239746L3.04 0.229746L3.01001 0.229746L3 0.239746L2.98001 0.239746L2.95 0.229746L2.94001 0.229746L2.94001 0.199746C2.94001 0.199746 2.94 0.179746 2.95 0.179746L3.61 0.179746C3.61 0.179746 3.63001 0.179746 3.62001 0.199746L3.62001 0.219746L3.63 0.219746Z" stroke="#010101" stroke-width="0.25" stroke-miterlimit="10"/>
<path d="M51.5699 2.11976C51.5699 2.11976 51.5499 2.11976 51.5599 2.10976L51.5599 2.01976C51.5599 1.94976 51.5099 1.89976 51.4399 1.89976L51.3899 1.89976L51.3799 1.88976L51.2899 1.60976L51.2999 1.58976L51.4999 1.58976L51.5099 1.57976L51.5299 1.57976L51.5699 1.58976L51.6099 1.58976C51.6899 1.58976 51.7499 1.52976 51.7499 1.44976L51.7499 1.15976C51.7499 1.15976 51.7499 1.13976 51.7599 1.13976L52.0499 1.13976C52.0499 1.13976 52.0699 1.13976 52.0599 1.15976L52.0599 2.10976C52.0599 2.10976 52.0599 2.12976 52.0499 2.11976L51.5799 2.11976L51.5699 2.11976Z" stroke="#010101" stroke-width="0.25" stroke-miterlimit="10"/>
<path d="M50.19 1.42993C50.19 1.42993 50.17 1.42993 50.18 1.40993L50.18 1.25993C50.18 1.25993 50.19 1.22993 50.21 1.22993C50.23 1.22993 50.24 1.23993 50.24 1.25993L50.24 1.34993C50.24 1.34993 50.24 1.36993 50.25 1.36993L50.39 1.36993C50.39 1.36993 50.42 1.35993 50.42 1.33993L50.42 1.12993C50.42 1.12993 50.41 1.09993 50.39 1.09993L50.26 1.09993C50.26 1.09993 50.17 1.05993 50.17 1.00993L50.17 0.369932C50.17 0.369932 50.17 0.349932 50.16 0.349932L49.61 0.349932L49.58 0.369932L49.56 0.369932C49.56 0.369932 49.54 0.369932 49.55 0.349932L49.55 0.299932C49.55 0.299932 49.55 0.279932 49.56 0.279932L51.11 0.279932C51.11 0.279932 51.17 0.309931 51.17 0.339931L51.17 0.369932C51.17 0.369932 51.14 0.429932 51.11 0.429932L50.97 0.429932C50.97 0.429932 50.95 0.429932 50.96 0.439932L50.96 1.05993C50.96 1.05993 50.96 1.07993 50.97 1.07993L51.11 1.07993C51.11 1.07993 51.17 1.10993 51.17 1.13993L51.17 1.35993C51.17 1.35993 51.14 1.41993 51.11 1.41993L51.07 1.41993L51.07 1.36993L51.11 1.36993L51.11 1.31993L50.9 1.31993L50.9 1.36993L50.94 1.36993L50.94 1.41993L50.18 1.41993L50.19 1.42993Z" stroke="#010101" stroke-width="0.25" stroke-miterlimit="10"/>
</g>
<defs>
<clipPath id="clip0_1665_7920">
<rect width="54.49" height="3.47" fill="white" transform="translate(54.49 3.46997) rotate(180)"/>
</clipPath>
</defs>
</svg>
