<svg width="54" height="4" viewBox="0 0 54 4" fill="none" xmlns="http://www.w3.org/2000/svg">
<g clip-path="url(#clip0_1665_7969)">
<path d="M48.5 3.09997L48.5 3.15997C48.5 3.15997 48.5 3.17997 48.51 3.16997L50.2 3.16997L50.2 3.25997C50.2 3.25997 50.23 3.32997 50.27 3.32997L50.87 3.32997C50.87 3.32997 50.89 3.32997 50.88 3.31997L50.88 3.06997C50.88 3.06997 50.88 3.04997 50.89 3.05997L51.03 3.05997C51.03 3.05997 51.05 3.05997 51.04 3.06997L51.04 3.17997C51.04 3.17997 51.04 3.19997 51.03 3.18997L51.01 3.18997L51.01 3.20997L51.05 3.25997L51.09 3.25997C51.09 3.25997 51.11 3.25997 51.1 3.24997L51.1 0.969974C51.1 0.969974 51.1 0.989974 51.11 0.979974L51.14 0.979974C51.14 0.979974 51.16 0.979974 51.15 0.969974L51.15 0.499973C51.15 0.499973 51.15 0.479974 51.16 0.489974L51.58 0.489973L51.61 0.489973L52.01 0.489973L52.04 0.489973L52.44 0.489973L52.47 0.489973L52.87 0.489973L52.9 0.489973L53.35 0.489973C53.35 0.489973 53.38 0.479973 53.38 0.459973L53.38 0.149973C53.38 0.149973 53.37 0.119973 53.35 0.119973L52.14 0.119974C52.14 0.119974 52.11 0.169973 52.09 0.159973C52.08 0.159973 52.07 0.149974 52.07 0.139974L52.05 0.139974L50.86 0.129974C50.83 0.129974 50.81 0.139974 50.8 0.169974L50.66 0.409974L50.66 0.429974L50.67 0.439974L50.39 0.439974C50.18 0.439974 49.97 0.479974 49.78 0.559974L49.69 0.599974L3.89 0.599978L3.77 0.559978C3.57 0.479978 3.37 0.439978 3.16 0.439978L2.88 0.439978L2.90001 0.439978L2.90001 0.409978L2.76 0.169978C2.76 0.169978 2.72 0.129978 2.7 0.129978L1.49001 0.129978C1.49001 0.129978 1.46 0.179978 1.44 0.169978C1.43 0.169978 1.42 0.159978 1.42 0.149978L1.40001 0.149978L0.210003 0.139978C0.190003 0.139978 0.180004 0.149978 0.180004 0.169978L0.180004 0.489978C0.180004 0.509978 0.190003 0.519978 0.210003 0.519978L0.620002 0.519978L0.650005 0.519978L1.05 0.519978L1.08001 0.519978L1.48 0.519978L1.51 0.519978L1.91 0.519978L1.94 0.519978L2.33001 0.519978C2.33001 0.519978 2.35 0.519978 2.35 0.529978L2.35 0.999978C2.35 0.999978 2.35 1.01998 2.37 1.00998L2.40001 1.00998C2.40001 1.00998 2.42 1.00998 2.42 0.999978L2.42 3.25998C2.42 3.25998 2.42 3.27998 2.44 3.26998L2.48 3.26998L2.52 3.21998L2.52 3.19998L2.5 3.19998C2.5 3.19998 2.48001 3.19998 2.49001 3.18998L2.49001 3.07998C2.49001 3.07998 2.49 3.05998 2.5 3.06998L2.64 3.06998C2.64 3.06998 2.66001 3.06998 2.65001 3.07998L2.65001 3.32998C2.65001 3.32998 2.65 3.34998 2.67 3.33998L3.27 3.33998C3.27 3.33998 3.35 3.30998 3.35 3.26998L3.35 3.17998L5.05 3.17998C5.05 3.17998 5.07001 3.17998 5.06001 3.16998L5.06001 3.05998L48.5 3.05997L48.5 3.16997L48.5 3.10997L48.5 3.09997Z" fill="white"/>
<path d="M4.3 2.26986L4.37 2.26986C4.37 2.26986 4.41 2.24986 4.41 2.22986L4.41 2.18986C4.6 2.18986 4.79 2.22986 4.97 2.29986C4.98 2.29986 4.99 2.29986 5 2.28986C5 2.27986 5 2.26986 4.99 2.25986C4.8 2.17986 4.6 2.14986 4.4 2.14986C4.39 2.14986 4.38 2.14986 4.38 2.16986L4.38 2.22986L4.31 2.22986L4.17 2.32986L4.17 2.35986L4.18 2.35986L4.19 2.35986L4.3 2.26986Z" stroke="#010101" stroke-width="0.25" stroke-linecap="round" stroke-linejoin="round"/>
<path d="M3.59999 2.03993L3.59999 2.08993L3.64 2.08993L3.64 2.13993L3.43 2.13993L3.43 2.08993L3.47 2.08993L3.47 2.03993L3.43 2.03993C3.43 2.03993 3.37 2.06993 3.37 2.09993L3.37 2.94993L3.41999 2.94993L3.41999 2.90993L3.47 2.90993L3.47 3.11993L3.41999 3.11993L3.41999 3.07993L3.37 3.07993L3.37 3.11993C3.37 3.11993 3.4 3.17993 3.43 3.17993L4.98 3.17993C4.98 3.17993 5 3.17993 4.99 3.16993L4.99 3.10993C4.99 3.10993 4.99 3.08993 4.98 3.09993L4.96 3.09993L4.93 3.12993L4.38 3.12993C4.38 3.12993 4.36 3.12993 4.36 3.11993L4.36 2.47993C4.36 2.47993 4.32 2.38993 4.27 2.38993L4.14 2.38993C4.14 2.38993 4.11 2.37993 4.11 2.35993L4.11 2.14993C4.11 2.14993 4.12 2.11993 4.14 2.11993L4.28 2.11993C4.28 2.11993 4.3 2.11993 4.3 2.12993L4.3 2.21993C4.3 2.21993 4.31 2.24993 4.33 2.24993C4.35 2.24993 4.36 2.23993 4.36 2.21993L4.36 2.06993C4.36 2.06993 4.36 2.04993 4.34 2.05993L3.58 2.05993L3.59999 2.03993Z" stroke="#010101" stroke-width="0.25" stroke-linecap="round" stroke-linejoin="round"/>
<path d="M49.0799 2.18986L49.0799 2.22986C49.0799 2.22986 49.0999 2.26986 49.1199 2.26986L49.1899 2.26986L49.2999 2.35986L49.3099 2.35986L49.3199 2.35986L49.3199 2.32986L49.1799 2.21986L49.1699 2.21986L49.1199 2.22986L49.1199 2.16986C49.1199 2.16986 49.1199 2.14986 49.0999 2.14986C48.8999 2.14986 48.6899 2.17986 48.5099 2.25986C48.4999 2.25986 48.4999 2.27986 48.4999 2.28986C48.4999 2.28986 48.5199 2.29986 48.5299 2.29986C48.7099 2.22986 48.8999 2.18986 49.0899 2.18986" stroke="#010101" stroke-width="0.25" stroke-linecap="round" stroke-linejoin="round"/>
<path d="M49.9 2.04004L49.14 2.04004C49.14 2.04004 49.12 2.04004 49.13 2.05004L49.13 2.20004C49.13 2.20004 49.14 2.23004 49.16 2.23004C49.18 2.23004 49.19 2.22004 49.19 2.20004L49.19 2.11004C49.19 2.11004 49.19 2.09004 49.2 2.10004L49.34 2.10004C49.34 2.10004 49.37 2.11004 49.37 2.13004L49.37 2.34004C49.37 2.34004 49.36 2.37004 49.34 2.37004L49.21 2.37004C49.21 2.37004 49.12 2.41004 49.12 2.46004L49.12 3.10004C49.12 3.10004 49.12 3.12004 49.11 3.11004L48.56 3.11004L48.53 3.08004L48.51 3.08004C48.51 3.08004 48.49 3.08004 48.5 3.09004L48.5 3.15004C48.5 3.15004 48.5 3.17004 48.51 3.16004L50.06 3.16004C50.06 3.16004 50.12 3.13004 50.12 3.10004L50.12 3.06004L50.07 3.06004L50.07 3.10004L50.02 3.10004L50.02 2.89004L50.07 2.89004L50.07 2.93004L50.12 2.93004L50.12 2.08004C50.12 2.08004 50.09 2.02004 50.06 2.02004L50.02 2.02004L50.02 2.07004L50.06 2.07004L50.06 2.12004L49.85 2.12004L49.85 2.07004L49.89 2.07004L49.89 2.02004L49.9 2.04004Z" stroke="#010101" stroke-width="0.25" stroke-linecap="round" stroke-linejoin="round"/>
<path d="M3.64996 2.19999L3.44995 2.19999C3.44995 2.19999 3.42995 2.19999 3.43995 2.21999L3.43995 2.82999C3.43995 2.82999 3.43995 2.84999 3.44995 2.84999L3.47995 2.84999C3.47995 2.84999 3.53996 2.87999 3.53996 2.90999L3.53996 3.09999C3.53996 3.09999 3.53996 3.11999 3.55996 3.10999L4.30996 3.10999C4.30996 3.10999 4.32996 3.10999 4.32996 3.09999L4.32996 2.45999C4.32996 2.45999 4.31995 2.42999 4.29995 2.42999L4.16995 2.42999C4.16995 2.42999 4.07996 2.38999 4.07996 2.33999L4.07996 2.11999C4.07996 2.11999 4.07995 2.09999 4.06995 2.10999L3.73996 2.10999C3.73996 2.10999 3.71995 2.10999 3.72995 2.11999L3.72995 2.14999C3.72995 2.14999 3.69995 2.20999 3.66995 2.20999" stroke="#010101" stroke-width="0.25" stroke-linecap="round" stroke-linejoin="round"/>
<path d="M49.85 2.19999C49.85 2.19999 49.79 2.16999 49.79 2.13999L49.79 2.10999C49.79 2.10999 49.79 2.08999 49.78 2.09999L49.45 2.09999C49.45 2.09999 49.43 2.09999 49.44 2.10999L49.44 2.32999C49.44 2.32999 49.4 2.41999 49.35 2.41999L49.22 2.41999C49.22 2.41999 49.19 2.42999 49.19 2.44999L49.19 3.09999C49.19 3.09999 49.19 3.11999 49.2 3.10999L49.95 3.10999C49.95 3.10999 49.97 3.10999 49.97 3.09999L49.97 2.90999C49.97 2.90999 50 2.84999 50.03 2.84999L50.06 2.84999C50.06 2.84999 50.08 2.84999 50.08 2.83999L50.08 2.22999C50.08 2.22999 50.08 2.20999 50.06 2.20999L49.87 2.20999L49.85 2.19999Z" stroke="#010101" stroke-width="0.25" stroke-linecap="round" stroke-linejoin="round"/>
<path d="M3.17001 0.489912C3.36001 0.489912 3.55001 0.529912 3.73001 0.599912C3.74001 0.599912 3.75001 0.599912 3.76001 0.589912C3.76001 0.579912 3.76001 0.569912 3.75001 0.559912C3.56001 0.479912 3.36001 0.449912 3.16001 0.449912C3.15001 0.449912 3.14001 0.449912 3.14001 0.469912L3.14001 0.529912L3.07001 0.529912L2.93001 0.629912L2.93001 0.659912L2.94001 0.659912L2.95001 0.659912L3.06001 0.569912L3.13001 0.569912C3.13001 0.569912 3.17001 0.549912 3.17001 0.529912L3.17001 0.489912Z" stroke="#010101" stroke-width="0.25" stroke-linecap="round" stroke-linejoin="round"/>
<path d="M50.45 0.569912L50.56 0.659912L50.57 0.659912L50.58 0.659912L50.58 0.629912L50.44 0.519912L50.43 0.519912L50.37 0.529912L50.37 0.469912C50.37 0.469912 50.37 0.449912 50.35 0.449912C50.15 0.449912 49.94 0.479912 49.76 0.559912C49.75 0.559912 49.75 0.579912 49.75 0.589912C49.75 0.589912 49.77 0.599912 49.78 0.599912C49.96 0.529912 50.15 0.489912 50.34 0.489912L50.34 0.529912C50.34 0.529912 50.36 0.569912 50.38 0.569912L50.45 0.569912Z" stroke="#010101" stroke-width="0.25" stroke-linecap="round" stroke-linejoin="round"/>
<path d="M48.9 2.43991C48.9 2.43991 48.86 2.44991 48.86 2.46991L48.86 2.87991C48.86 2.87991 48.88 2.90991 48.9 2.90991" stroke="#010101" stroke-width="0.25" stroke-linecap="round" stroke-linejoin="round"/>
<path d="M4.60001 2.91992C4.60001 2.91992 4.64001 2.90992 4.64001 2.88992L4.64001 2.47992C4.64001 2.47992 4.62001 2.44992 4.60001 2.44992" stroke="#010101" stroke-width="0.25" stroke-linecap="round" stroke-linejoin="round"/>
<path d="M3.35001 0.739961C3.35001 0.739961 3.39001 0.749961 3.39001 0.769961L3.39001 1.17996C3.39001 1.17996 3.37001 1.20996 3.35001 1.20996" stroke="#010101" stroke-width="0.25" stroke-linecap="round" stroke-linejoin="round"/>
<path d="M48.9 2.91994L48.63 2.91994L48.63 2.83994L48.61 2.83994L48.61 2.90994C48.61 2.90994 48.62 2.93994 48.63 2.93994L48.89 2.93994C48.89 2.93994 48.92 2.92994 48.92 2.91994L48.92 2.43994C48.92 2.43994 48.91 2.41994 48.89 2.41994L48.63 2.41994C48.63 2.41994 48.61 2.42994 48.61 2.43994L48.61 2.50994L48.63 2.50994L48.63 2.43994L48.9 2.43994L48.9 2.92994L48.9 2.91994Z" stroke="#010101" stroke-width="0.25" stroke-linecap="round" stroke-linejoin="round"/>
<path d="M4.88002 2.50995L4.90002 2.50995L4.90002 2.43995C4.90002 2.43995 4.89002 2.41995 4.87002 2.41995L4.61002 2.41995C4.61002 2.41995 4.59002 2.42995 4.59002 2.43995L4.59002 2.91995C4.59002 2.91995 4.60002 2.93995 4.61002 2.94995L4.87002 2.94995C4.87002 2.94995 4.90002 2.93995 4.90002 2.92995L4.90002 2.85995L4.88002 2.85995L4.88002 2.92995L4.61002 2.92995L4.61002 2.43995L4.88002 2.43995L4.88002 2.51995L4.88002 2.50995Z" stroke="#010101" stroke-width="0.25" stroke-linecap="round" stroke-linejoin="round"/>
<path d="M3.35002 1.21999L3.35002 0.72999L3.62002 0.72999L3.62002 0.80999L3.64002 0.80999L3.64002 0.73999C3.64002 0.73999 3.63002 0.70999 3.62002 0.70999L3.36002 0.70999C3.36002 0.70999 3.34002 0.71999 3.34002 0.72999L3.34002 1.20999C3.34002 1.20999 3.35002 1.22999 3.36002 1.23999L3.62002 1.23999C3.62002 1.23999 3.65002 1.22999 3.65002 1.21999L3.65002 1.14999L3.63002 1.14999L3.63002 1.21999L3.36002 1.21999L3.35002 1.21999Z" stroke="#010101" stroke-width="0.25" stroke-linecap="round" stroke-linejoin="round"/>
<path d="M49.87 0.79999L49.87 0.72999L50.14 0.72999L50.14 1.21999L49.87 1.21999L49.87 1.13999L49.85 1.13999L49.85 1.20999C49.85 1.20999 49.86 1.23999 49.87 1.23999L50.13 1.23999C50.13 1.23999 50.15 1.22999 50.15 1.21999L50.15 0.73999C50.15 0.73999 50.14 0.70999 50.13 0.70999L49.87 0.70999C49.87 0.70999 49.85 0.71999 49.85 0.72999L49.85 0.79999L49.87 0.79999Z" stroke="#010101" stroke-width="0.25" stroke-linecap="round" stroke-linejoin="round"/>
<path d="M50.15 1.21997C50.15 1.21997 50.11 1.20997 50.11 1.18997L50.11 0.779971C50.11 0.779971 50.13 0.749971 50.15 0.749971" stroke="#010101" stroke-width="0.25" stroke-linecap="round" stroke-linejoin="round"/>
<path d="M49 2.96005L4.51 2.96005L4.51 3.05005L49 3.05005L49 2.96005Z" stroke="#010101" stroke-width="0.25" stroke-linecap="round" stroke-linejoin="round"/>
<path d="M3.25 0.599946L3.25 0.689946L50.25 0.689941L50.25 0.599941L3.26 0.599946L3.25 0.599946Z" stroke="#010101" stroke-width="0.25" stroke-linecap="round" stroke-linejoin="round"/>
<path d="M49 2.30014L4.51 2.30014L4.51 2.39014L49 2.39014L49 2.30014Z" stroke="#010101" stroke-width="0.25" stroke-linecap="round" stroke-linejoin="round"/>
<path d="M3.25 1.25009L3.25 1.34009L50.25 1.34009L50.25 1.25009L3.26 1.25009L3.25 1.25009Z" stroke="#010101" stroke-width="0.25" stroke-linecap="round" stroke-linejoin="round"/>
<path d="M2.44999 2.16989C2.44999 2.16989 2.42998 2.16989 2.43998 2.17989L2.43998 2.98989C2.43998 2.98989 2.43999 3.00989 2.44999 2.99989L2.58998 2.99989C2.58998 2.99989 2.60999 2.99989 2.60999 2.98989L2.60999 2.18989C2.60999 2.18989 2.60998 2.16989 2.58998 2.17989L2.44999 2.17989L2.44999 2.16989Z" stroke="#010101" stroke-width="0.25" stroke-linecap="round" stroke-linejoin="round"/>
<path d="M51.07 0.500088L51.03 0.550088L51.03 0.580088L51.05 0.580088C51.05 0.580088 51.07 0.580088 51.06 0.590088L51.06 0.700088C51.06 0.700088 51.06 0.720088 51.05 0.710088L50.93 0.710088C50.93 0.710088 50.9 0.700088 50.9 0.680088L50.9 0.450088C50.9 0.450088 50.9 0.430088 50.89 0.440088L50.38 0.440088L50.38 0.500088C50.38 0.500088 50.39 0.530088 50.41 0.530088C50.43 0.530088 50.44 0.520088 50.44 0.500088L50.6 0.500088C50.6 0.500088 50.63 0.510088 50.63 0.530088L50.63 0.630088C50.63 0.630088 50.62 0.660088 50.6 0.660088L50.47 0.660088C50.47 0.660088 50.38 0.700088 50.38 0.750088L50.38 0.880088C50.38 0.880088 50.39 0.910088 50.41 0.910088L50.47 0.910088C50.47 0.910088 50.5 0.920088 50.5 0.940088L50.5 1.45009C50.5 1.45009 50.47 1.51009 50.44 1.51009L50.37 1.51009C50.37 1.51009 50.34 1.50009 50.34 1.48009L50.38 1.43009L50.38 1.40009L49.8 1.40009C49.8 1.40009 49.8 1.37009 49.78 1.37009L49.76 1.37009C49.76 1.37009 49.74 1.37009 49.75 1.38009L49.75 1.89009C49.75 1.89009 49.76 1.92009 49.78 1.92009L50.19 1.92009C50.19 1.92009 50.21 1.92009 50.2 1.93009L50.2 2.30009C50.2 2.30009 50.2 2.32009 50.22 2.31009L50.25 2.31009C50.25 2.31009 50.27 2.31009 50.26 2.30009L50.26 2.13009C50.26 2.13009 50.26 2.11009 50.27 2.12009L50.8 2.12009C50.8 2.12009 50.82 2.12009 50.81 2.13009L50.81 3.12009C50.81 3.12009 50.81 3.14009 50.8 3.13009L50.27 3.13009C50.27 3.13009 50.25 3.13009 50.26 3.12009L50.26 2.95009C50.26 2.95009 50.26 2.93009 50.25 2.94009L50.22 2.94009C50.22 2.94009 50.2 2.94009 50.2 2.95009L50.2 3.27009C50.2 3.27009 50.23 3.34009 50.27 3.34009L50.87 3.34009C50.87 3.34009 50.89 3.34009 50.88 3.33009L50.88 3.08009C50.88 3.08009 50.88 3.06009 50.89 3.07009L51.03 3.07009C51.03 3.07009 51.05 3.07009 51.04 3.08009L51.04 3.19009C51.04 3.19009 51.04 3.21009 51.03 3.20009L51.01 3.20009L51.01 3.22009L51.05 3.27009L51.09 3.27009C51.09 3.27009 51.11 3.27009 51.1 3.26009L51.1 0.520088L51.04 0.500088L51.07 0.500088Z" stroke="#010101" stroke-width="0.25" stroke-linecap="round" stroke-linejoin="round"/>
<path d="M50.3701 1.56987C50.3701 1.56987 50.2801 1.52987 50.2801 1.47987L50.2701 1.47987L49.8301 1.46987C49.8301 1.46987 49.8101 1.46987 49.8201 1.47987L49.8201 1.85987C49.8201 1.85987 49.8201 1.87987 49.8301 1.86987L50.2001 1.86987C50.2001 1.86987 50.2701 1.89987 50.2701 1.93987L50.2701 2.04987C50.2701 2.04987 50.2701 2.06987 50.2801 2.05987L50.8101 2.05987C50.8101 2.05987 50.8701 2.07987 50.8801 2.10987L50.8901 2.10987L51.0401 2.11987C51.0401 2.11987 51.0601 2.11987 51.0501 2.09987L51.0501 1.32987C51.0501 1.32987 51.0501 1.30987 51.0401 1.31987L50.5601 1.31987C50.5601 1.31987 50.5401 1.31987 50.5501 1.32987L50.5501 1.42987C50.5501 1.49987 50.5001 1.54987 50.4301 1.54987L50.3601 1.54987L50.3701 1.56987Z" stroke="#010101" stroke-width="0.25" stroke-linecap="round" stroke-linejoin="round"/>
<path d="M50.28 3.21991L50.28 3.25991C50.28 3.25991 50.28 3.27991 50.29 3.26991L50.82 3.26991C50.82 3.26991 50.84 3.26991 50.83 3.25991L50.83 3.21991C50.83 3.21991 50.83 3.19991 50.82 3.20991L50.29 3.20991C50.29 3.20991 50.27 3.20991 50.28 3.21991Z" stroke="#010101" stroke-width="0.25" stroke-linecap="round" stroke-linejoin="round"/>
<path d="M3.14006 1.56989L3.06006 1.56989C2.99006 1.56989 2.94006 1.51989 2.94006 1.44989L2.94006 1.34989C2.94006 1.34989 2.94006 1.32989 2.92006 1.33989L2.44006 1.33989C2.44006 1.33989 2.42006 1.33989 2.43006 1.34989L2.43006 2.11989C2.43006 2.11989 2.43006 2.13989 2.44006 2.13989L2.60006 2.13989C2.60006 2.13989 2.64006 2.07989 2.67006 2.07989L3.20006 2.07989C3.20006 2.07989 3.22006 2.07989 3.22006 2.06989L3.22006 1.95989C3.22006 1.95989 3.25006 1.88989 3.30006 1.88989L3.67006 1.88989C3.67006 1.88989 3.69006 1.88989 3.68006 1.87989L3.68006 1.49989C3.68006 1.49989 3.68006 1.47989 3.67006 1.48989L3.22006 1.48989C3.22006 1.54989 3.18006 1.58989 3.13006 1.58989" stroke="#010101" stroke-width="0.25" stroke-linecap="round" stroke-linejoin="round"/>
<path d="M2.38002 0.519973L2.38002 3.25997C2.38002 3.25997 2.38002 3.27997 2.40002 3.26997L2.44002 3.26997L2.48002 3.21997L2.48002 3.19997L2.46002 3.19997C2.46002 3.19997 2.44002 3.19997 2.45002 3.18997L2.45002 3.07997C2.45002 3.07997 2.45002 3.05997 2.46002 3.06997L2.60002 3.06997C2.60002 3.06997 2.62002 3.06997 2.61002 3.07997L2.61002 3.32997C2.61002 3.32997 2.61002 3.34997 2.63002 3.33997L3.23002 3.33997C3.23002 3.33997 3.31002 3.30997 3.31002 3.26997L3.31002 2.95997C3.31002 2.95997 3.31002 2.93997 3.30002 2.94997L3.27002 2.94997C3.27002 2.94997 3.25002 2.94997 3.25002 2.95997L3.25002 3.12997C3.25002 3.12997 3.25002 3.14997 3.23002 3.13997L2.70002 3.13997C2.70002 3.13997 2.68002 3.13997 2.68002 3.12997L2.68002 2.15997C2.68002 2.15997 2.68002 2.13997 2.70002 2.14997L3.23002 2.14997C3.23002 2.14997 3.25002 2.14997 3.25002 2.15997L3.25002 2.32997C3.25002 2.32997 3.25002 2.34997 3.27002 2.33997L3.30002 2.33997C3.30002 2.33997 3.32002 2.33997 3.31002 2.32997L3.31002 1.95997C3.31002 1.95997 3.31002 1.93997 3.33002 1.94997L3.74002 1.94997C3.74002 1.94997 3.77002 1.93997 3.77002 1.91997L3.77002 1.40997C3.77002 1.40997 3.77002 1.38997 3.75002 1.39997L3.73002 1.39997C3.73002 1.39997 3.71002 1.39997 3.72002 1.40997L3.15002 1.40997L3.15002 1.44997L3.19002 1.49997C3.19002 1.49997 3.18002 1.52997 3.16002 1.52997L3.08002 1.52997C3.08002 1.52997 3.02002 1.49997 3.02002 1.46997L3.02002 0.959973C3.02002 0.959973 3.03002 0.929973 3.05002 0.929973L3.12002 0.929973C3.12002 0.929973 3.15002 0.919973 3.15002 0.899973L3.15002 0.769973C3.15002 0.769973 3.11002 0.679973 3.06002 0.679973L2.93002 0.679973C2.93002 0.679973 2.90002 0.669973 2.90002 0.649973L2.90002 0.539973C2.90002 0.539973 2.91002 0.509973 2.93002 0.509973L3.09002 0.509973C3.09002 0.509973 3.10002 0.539973 3.12002 0.539973C3.14002 0.539973 3.15002 0.529973 3.15002 0.509973L3.15002 0.449973L2.64002 0.449973C2.64002 0.449973 2.62002 0.449973 2.62002 0.459973L2.62002 0.689973C2.62002 0.689973 2.61002 0.719973 2.59002 0.719973L2.47002 0.719973C2.47002 0.719973 2.45002 0.719973 2.46002 0.709973L2.46002 0.599974C2.46002 0.599974 2.46002 0.579973 2.47002 0.589973L2.49002 0.589973L2.49002 0.559973L2.45002 0.509973L2.39002 0.529973L2.38002 0.519973Z" stroke="#010101" stroke-width="0.25" stroke-linecap="round" stroke-linejoin="round"/>
<path d="M3.21998 3.21991C3.21998 3.21991 3.21998 3.19991 3.20998 3.20991L2.67998 3.20991C2.67998 3.20991 2.65998 3.20991 2.65998 3.21991L2.65998 3.25991C2.65998 3.25991 2.65998 3.27991 2.67998 3.26991L3.20998 3.26991C3.20998 3.26991 3.22998 3.26991 3.21998 3.25991L3.21998 3.21991Z" stroke="#010101" stroke-width="0.25" stroke-linecap="round" stroke-linejoin="round"/>
<path d="M2.83998 0.439886L2.85999 0.439886L2.85999 0.409886L2.71999 0.159886C2.70999 0.139886 2.67998 0.119886 2.65998 0.119886L1.44999 0.119886C1.44999 0.119886 1.41999 0.169886 1.39999 0.159886C1.38999 0.159886 1.37999 0.149886 1.37999 0.139886L1.35999 0.139886L0.169983 0.129886C0.149983 0.129886 0.139984 0.139886 0.139984 0.159886L0.139984 0.479886C0.139984 0.499886 0.149983 0.509886 0.169983 0.509886L0.579987 0.509886L0.609985 0.509886L1.00998 0.509886L1.03999 0.509886L1.43998 0.509886L1.46999 0.509886L1.86998 0.509886L1.89999 0.509886L2.28999 0.509886C2.28999 0.509886 2.30999 0.509886 2.30999 0.519886L2.30999 0.989886C2.30999 0.989886 2.30999 1.00989 2.32999 0.999886L2.35999 0.999886C2.35999 0.999886 2.37999 0.999886 2.37999 0.989886" stroke="#010101" stroke-width="0.25" stroke-linecap="round" stroke-linejoin="round"/>
<path d="M50.84 0.689935L50.84 0.519934C50.84 0.519934 50.84 0.499934 50.83 0.509934L50.7 0.509934C50.7 0.509934 50.68 0.509934 50.69 0.519934L50.69 0.639935C50.69 0.639935 50.65 0.729934 50.6 0.729934L50.47 0.729935C50.47 0.729935 50.44 0.739934 50.44 0.759934L50.44 0.839934C50.44 0.839934 50.44 0.859935 50.46 0.849935L50.48 0.849935C50.48 0.849935 50.57 0.889935 50.57 0.939935L50.57 1.28993C50.57 1.28993 50.57 1.30993 50.58 1.29993L51.06 1.29993C51.06 1.29993 51.08 1.29993 51.07 1.28993L51.07 0.789934C51.07 0.789934 51.07 0.769934 51.06 0.779934L50.94 0.779934C50.94 0.779934 50.85 0.739935 50.85 0.689935" stroke="#010101" stroke-width="0.25" stroke-linecap="round" stroke-linejoin="round"/>
<path d="M51.12 0.979876C51.12 0.979876 51.12 0.999876 51.13 0.989876L51.16 0.989876C51.16 0.989876 51.18 0.989876 51.17 0.979876L51.17 0.509876C51.17 0.509876 51.17 0.489876 51.18 0.499876L51.6 0.499876L51.63 0.499876L52.03 0.499876L52.06 0.499876L52.46 0.499876L52.49 0.499876L52.89 0.499876L52.92 0.499876L53.35 0.499876C53.35 0.499876 53.38 0.489876 53.38 0.469876L53.38 0.159876C53.38 0.159876 53.37 0.129876 53.35 0.129876L52.14 0.129876C52.14 0.129876 52.11 0.179876 52.09 0.169876C52.08 0.169876 52.07 0.159876 52.07 0.149876L52.05 0.149876L50.86 0.139876C50.83 0.139876 50.81 0.149876 50.8 0.179876L50.66 0.419876L50.66 0.439876L50.67 0.439876" stroke="#010101" stroke-width="0.25" stroke-linecap="round" stroke-linejoin="round"/>
<path d="M51.0499 2.16989L50.9099 2.16989C50.9099 2.16989 50.8899 2.16989 50.8999 2.17989L50.8999 2.98989C50.8999 2.98989 50.8999 3.00989 50.9099 2.99989L51.0499 2.99989C51.0499 2.99989 51.0699 2.99989 51.0599 2.98989L51.0599 2.18989C51.0599 2.18989 51.0599 2.16989 51.0499 2.17989L51.0499 2.16989Z" stroke="#010101" stroke-width="0.25" stroke-linecap="round" stroke-linejoin="round"/>
<path d="M2.65995 0.689935C2.65995 0.689935 2.61995 0.779934 2.56995 0.779934L2.44995 0.779934C2.44995 0.779934 2.42995 0.779934 2.43995 0.789934L2.43995 1.28993C2.43995 1.28993 2.43995 1.30993 2.44995 1.29993L2.92995 1.29993C2.92995 1.29993 2.94995 1.29993 2.94995 1.28993L2.94995 0.939935C2.94995 0.939935 2.98996 0.849935 3.03996 0.849935L3.05996 0.849935C3.05996 0.849935 3.07996 0.849934 3.07996 0.839934L3.07996 0.759934C3.07996 0.759934 3.06995 0.729934 3.04995 0.729934L2.91995 0.729934C2.91995 0.729934 2.82996 0.689935 2.82996 0.639935L2.82996 0.519934C2.82996 0.519934 2.82995 0.499934 2.81995 0.509934L2.69995 0.509934C2.69995 0.509934 2.67995 0.509934 2.67995 0.519934L2.67995 0.689935L2.65995 0.689935Z" stroke="#010101" stroke-width="0.25" stroke-linecap="round" stroke-linejoin="round"/>
</g>
<defs>
<clipPath id="clip0_1665_7969">
<rect width="53.5" height="3.47" fill="white" transform="translate(53.5 3.46997) rotate(180)"/>
</clipPath>
</defs>
</svg>
