<svg width="50" height="3" viewBox="0 0 50 3" fill="none" xmlns="http://www.w3.org/2000/svg">
<g clip-path="url(#clip0_788_2407)">
<path d="M0.0500488 2.53V1.25L0.360049 0.770005L1.45005 0.380005L2.78005 0.130005H47.09L48.64 0.380005L49.7401 0.770005L50.05 1.53V2.53H0.0500488Z" fill="white"/>
<path d="M47.0901 0.129977C47.6101 0.0999767 49.4401 0.509977 49.7401 0.759977" stroke="black" stroke-width="0.25" stroke-linecap="round" stroke-linejoin="round"/>
<path d="M49.74 0.77002C49.93 0.91002 50.05 1.20002 50.05 1.53002" stroke="black" stroke-width="0.25" stroke-linecap="round" stroke-linejoin="round"/>
<path d="M50.05 1.53003V2.53003" stroke="black" stroke-width="0.25" stroke-linecap="round" stroke-linejoin="round"/>
<path d="M50.05 2.53003H0.0500488" stroke="black" stroke-width="0.25" stroke-linecap="round" stroke-linejoin="round"/>
<path d="M0.0500488 2.53003V1.53003" stroke="black" stroke-width="0.25" stroke-linecap="round" stroke-linejoin="round"/>
<path d="M0.0500488 1.53002C0.0500488 1.20002 0.180049 0.91002 0.360049 0.77002" stroke="black" stroke-width="0.25" stroke-linecap="round" stroke-linejoin="round"/>
<path d="M0.360107 0.769987C0.660107 0.519987 2.49011 0.109986 3.01011 0.139986" stroke="black" stroke-width="0.25" stroke-linecap="round" stroke-linejoin="round"/>
<path d="M3.01001 0.130005H47.09" stroke="black" stroke-width="0.25" stroke-linecap="round" stroke-linejoin="round"/>
<path d="M47.3201 0.390015L47.6401 0.430015" stroke="black" stroke-width="0.25" stroke-linecap="round" stroke-linejoin="round"/>
<path d="M47.64 0.429932L48.44 0.589932" stroke="black" stroke-width="0.25" stroke-linecap="round" stroke-linejoin="round"/>
<path d="M48.4401 0.589966L49.1901 0.799966" stroke="black" stroke-width="0.25" stroke-linecap="round" stroke-linejoin="round"/>
<path d="M49.1901 0.799927L49.4601 0.899927" stroke="black" stroke-width="0.25" stroke-linecap="round" stroke-linejoin="round"/>
<path d="M49.4601 0.900024L49.5401 0.940024" stroke="black" stroke-width="0.25" stroke-linecap="round" stroke-linejoin="round"/>
<path d="M49.54 0.939941L49.58 0.959941" stroke="black" stroke-width="0.25" stroke-linecap="round" stroke-linejoin="round"/>
<path d="M49.5801 0.959961L49.6201 0.999961" stroke="black" stroke-width="0.25" stroke-linecap="round" stroke-linejoin="round"/>
<path d="M49.62 1L49.66 1.04" stroke="black" stroke-width="0.25" stroke-linecap="round" stroke-linejoin="round"/>
<path d="M49.66 1.03992L49.73 1.16992" stroke="black" stroke-width="0.25" stroke-linecap="round" stroke-linejoin="round"/>
<path d="M49.7301 1.16992L49.7801 1.33992" stroke="black" stroke-width="0.25" stroke-linecap="round" stroke-linejoin="round"/>
<path d="M49.78 1.33997L49.8 1.53997" stroke="black" stroke-width="0.25" stroke-linecap="round" stroke-linejoin="round"/>
<path d="M49.8 1.53992V2.27992" stroke="black" stroke-width="0.25" stroke-linecap="round" stroke-linejoin="round"/>
<path d="M49.8 2.28003H0.300049" stroke="black" stroke-width="0.25" stroke-linecap="round" stroke-linejoin="round"/>
<path d="M0.300049 2.27992V1.53992" stroke="black" stroke-width="0.25" stroke-linecap="round" stroke-linejoin="round"/>
<path d="M0.300049 1.53997L0.320049 1.33997" stroke="black" stroke-width="0.25" stroke-linecap="round" stroke-linejoin="round"/>
<path d="M0.320068 1.33992L0.370068 1.16992" stroke="black" stroke-width="0.25" stroke-linecap="round" stroke-linejoin="round"/>
<path d="M0.369995 1.16992L0.439995 1.03992" stroke="black" stroke-width="0.25" stroke-linecap="round" stroke-linejoin="round"/>
<path d="M0.440063 1.04L0.480063 1" stroke="black" stroke-width="0.25" stroke-linecap="round" stroke-linejoin="round"/>
<path d="M0.480103 0.999961L0.520103 0.959961" stroke="black" stroke-width="0.25" stroke-linecap="round" stroke-linejoin="round"/>
<path d="M0.52002 0.959941L0.56002 0.939941" stroke="black" stroke-width="0.25" stroke-linecap="round" stroke-linejoin="round"/>
<path d="M0.560059 0.940024L0.640059 0.900024" stroke="black" stroke-width="0.25" stroke-linecap="round" stroke-linejoin="round"/>
<path d="M0.640015 0.899927L0.910015 0.799927" stroke="black" stroke-width="0.25" stroke-linecap="round" stroke-linejoin="round"/>
<path d="M0.910034 0.799966L1.66003 0.589966" stroke="black" stroke-width="0.25" stroke-linecap="round" stroke-linejoin="round"/>
<path d="M1.66003 0.589932L2.46003 0.429932" stroke="black" stroke-width="0.25" stroke-linecap="round" stroke-linejoin="round"/>
<path d="M2.46008 0.430015L2.78008 0.390015" stroke="black" stroke-width="0.25" stroke-linecap="round" stroke-linejoin="round"/>
<path d="M2.78003 0.390005L3.02003 0.380005" stroke="black" stroke-width="0.25" stroke-linecap="round" stroke-linejoin="round"/>
<path d="M3.02002 0.380005H47.08" stroke="black" stroke-width="0.25" stroke-linecap="round" stroke-linejoin="round"/>
<path d="M47.0801 0.380005L47.3201 0.390005" stroke="black" stroke-width="0.25" stroke-linecap="round" stroke-linejoin="round"/>
<path d="M3.02002 0.380005H47.09" stroke="black" stroke-width="0.25" stroke-linecap="round" stroke-linejoin="round"/>
<path d="M47.0901 0.380005V2.28" stroke="black" stroke-width="0.25" stroke-linecap="round" stroke-linejoin="round"/>
<path d="M47.09 2.28003H3.02002" stroke="black" stroke-width="0.25" stroke-linecap="round" stroke-linejoin="round"/>
<path d="M3.02002 2.28V0.380005" stroke="black" stroke-width="0.25" stroke-linecap="round" stroke-linejoin="round"/>
</g>
<defs>
<clipPath id="clip0_788_2407">
<rect width="50" height="3" fill="white"/>
</clipPath>
</defs>
</svg>
