<svg width="13" height="13" viewBox="0 0 13 13" fill="none" xmlns="http://www.w3.org/2000/svg">
<g clip-path="url(#clip0_732_11047)">
<path d="M3.32996 5.87996C3.40996 4.45996 4.58996 3.32996 6.02996 3.32996" stroke="black" stroke-width="0.25" stroke-linecap="round" stroke-linejoin="round"/>
<path d="M6.03003 3.33997C7.52003 3.33997 8.73003 4.54997 8.73003 6.03997" stroke="black" stroke-width="0.25" stroke-linecap="round" stroke-linejoin="round"/>
<path d="M8.73003 6.04004C8.73003 7.53004 7.52003 8.74004 6.03003 8.74004" stroke="black" stroke-width="0.25" stroke-linecap="round" stroke-linejoin="round"/>
<path d="M6.02996 8.74004C4.53996 8.74004 3.32996 7.53004 3.32996 6.04004" stroke="black" stroke-width="0.25" stroke-linecap="round" stroke-linejoin="round"/>
<path d="M3.32996 6.04001C3.32996 5.99001 3.32996 5.94001 3.32996 5.89001" stroke="black" stroke-width="0.25" stroke-linecap="round" stroke-linejoin="round"/>
<path d="M0.340005 5.07L0.130005 5" stroke="black" stroke-width="0.25" stroke-linecap="round" stroke-linejoin="round"/>
<path d="M0.130005 5.00003C0.420005 4.46003 0.690005 3.89003 1.3 3.90003" stroke="black" stroke-width="0.25" stroke-linecap="round" stroke-linejoin="round"/>
<path d="M1.30005 3.90002L3.55005 4.96002" stroke="black" stroke-width="0.25" stroke-linecap="round" stroke-linejoin="round"/>
<path d="M3.54996 4.95996C3.41996 5.24996 3.34996 5.56996 3.32996 5.88996" stroke="black" stroke-width="0.25" stroke-linecap="round" stroke-linejoin="round"/>
<path d="M3.32996 5.88C3.32996 5.93 3.32996 5.98 3.32996 6.03" stroke="black" stroke-width="0.25" stroke-linecap="round" stroke-linejoin="round"/>
<path d="M3.32997 6.03995L0.339966 5.06995" stroke="black" stroke-width="0.25" stroke-linecap="round" stroke-linejoin="round"/>
<path d="M0.359985 4.10996C0.729985 3.61996 1.07999 3.09996 1.67999 3.19996" stroke="black" stroke-width="0.25" stroke-linecap="round" stroke-linejoin="round"/>
<path d="M1.68005 3.19995L3.75005 4.58995" stroke="black" stroke-width="0.25" stroke-linecap="round" stroke-linejoin="round"/>
<path d="M3.74999 4.58997C3.54999 4.89997 3.41999 5.24997 3.35999 5.61997" stroke="black" stroke-width="0.25" stroke-linecap="round" stroke-linejoin="round"/>
<path d="M3.35999 5.61999L0.359985 4.10999" stroke="black" stroke-width="0.25" stroke-linecap="round" stroke-linejoin="round"/>
<path d="M0.719971 3.26994C1.15997 2.83994 1.57997 2.37994 2.16997 2.56994" stroke="black" stroke-width="0.25" stroke-linecap="round" stroke-linejoin="round"/>
<path d="M2.17004 2.56995L4.00004 4.25995" stroke="black" stroke-width="0.25" stroke-linecap="round" stroke-linejoin="round"/>
<path d="M3.99996 4.26001C3.75996 4.54001 3.56996 4.87001 3.45996 5.22001" stroke="black" stroke-width="0.25" stroke-linecap="round" stroke-linejoin="round"/>
<path d="M3.45997 5.22002L0.719971 3.27002" stroke="black" stroke-width="0.25" stroke-linecap="round" stroke-linejoin="round"/>
<path d="M1.20996 2.48006C1.70996 2.12006 2.19996 1.74006 2.74996 2.01006" stroke="black" stroke-width="0.25" stroke-linecap="round" stroke-linejoin="round"/>
<path d="M2.75 2.02002L4.29 3.97002" stroke="black" stroke-width="0.25" stroke-linecap="round" stroke-linejoin="round"/>
<path d="M4.28999 3.96997C4.00999 4.20997 3.76999 4.49997 3.60999 4.82997" stroke="black" stroke-width="0.25" stroke-linecap="round" stroke-linejoin="round"/>
<path d="M3.60996 4.82998L1.20996 2.47998" stroke="black" stroke-width="0.25" stroke-linecap="round" stroke-linejoin="round"/>
<path d="M1.81006 1.79002C2.36006 1.51002 2.90006 1.21002 3.40006 1.56002" stroke="black" stroke-width="0.25" stroke-linecap="round" stroke-linejoin="round"/>
<path d="M3.40002 1.56006L4.63002 3.73006" stroke="black" stroke-width="0.25" stroke-linecap="round" stroke-linejoin="round"/>
<path d="M4.62995 3.72998C4.30995 3.91998 4.03995 4.17998 3.81995 4.47998" stroke="black" stroke-width="0.25" stroke-linecap="round" stroke-linejoin="round"/>
<path d="M3.83006 4.48004L1.81006 1.79004" stroke="black" stroke-width="0.25" stroke-linecap="round" stroke-linejoin="round"/>
<path d="M2.51001 1.19002C3.09001 1.00002 3.68001 0.780024 4.12001 1.21002" stroke="black" stroke-width="0.25" stroke-linecap="round" stroke-linejoin="round"/>
<path d="M4.12 1.20996L5 3.53996" stroke="black" stroke-width="0.25" stroke-linecap="round" stroke-linejoin="round"/>
<path d="M4.99997 3.54004C4.65997 3.68004 4.34997 3.89004 4.08997 4.16004" stroke="black" stroke-width="0.25" stroke-linecap="round" stroke-linejoin="round"/>
<path d="M4.09001 4.15994L2.51001 1.18994" stroke="black" stroke-width="0.25" stroke-linecap="round" stroke-linejoin="round"/>
<path d="M3.30005 0.710001C3.91005 0.610001 4.52005 0.490001 4.88005 0.980001" stroke="black" stroke-width="0.25" stroke-linecap="round" stroke-linejoin="round"/>
<path d="M4.88 0.97998L5.4 3.40998" stroke="black" stroke-width="0.25" stroke-linecap="round" stroke-linejoin="round"/>
<path d="M5.40003 3.41003C5.04003 3.50003 4.70003 3.66003 4.41003 3.88003" stroke="black" stroke-width="0.25" stroke-linecap="round" stroke-linejoin="round"/>
<path d="M4.40005 3.87996L3.30005 0.709961" stroke="black" stroke-width="0.25" stroke-linecap="round" stroke-linejoin="round"/>
<path d="M4.15002 0.350031C4.76002 0.350031 5.39002 0.320031 5.68002 0.860031" stroke="black" stroke-width="0.25" stroke-linecap="round" stroke-linejoin="round"/>
<path d="M5.67004 0.859985L5.81004 3.34999" stroke="black" stroke-width="0.25" stroke-linecap="round" stroke-linejoin="round"/>
<path d="M5.81 3.34998C5.44 3.37998 5.08 3.48998 4.75 3.65998" stroke="black" stroke-width="0.25" stroke-linecap="round" stroke-linejoin="round"/>
<path d="M4.75002 3.65998L4.15002 0.349976" stroke="black" stroke-width="0.25" stroke-linecap="round" stroke-linejoin="round"/>
<path d="M5.04004 0.130005C5.65004 0.220005 6.27004 0.290005 6.47004 0.870005" stroke="black" stroke-width="0.25" stroke-linecap="round" stroke-linejoin="round"/>
<path d="M6.46997 0.869995L6.21997 3.33999" stroke="black" stroke-width="0.25" stroke-linecap="round" stroke-linejoin="round"/>
<path d="M6.22 3.33998C5.85 3.30998 5.48 3.35998 5.13 3.48998" stroke="black" stroke-width="0.25" stroke-linecap="round" stroke-linejoin="round"/>
<path d="M5.13004 3.49001L5.04004 0.130005" stroke="black" stroke-width="0.25" stroke-linecap="round" stroke-linejoin="round"/>
<path d="M5.95996 0.0500488C6.54996 0.230049 7.14996 0.390049 7.25996 1.00005" stroke="black" stroke-width="0.25" stroke-linecap="round" stroke-linejoin="round"/>
<path d="M7.26 1L6.63 3.4" stroke="black" stroke-width="0.25" stroke-linecap="round" stroke-linejoin="round"/>
<path d="M6.63003 3.39994C6.27003 3.31994 5.89003 3.30994 5.53003 3.37994" stroke="black" stroke-width="0.25" stroke-linecap="round" stroke-linejoin="round"/>
<path d="M5.53003 3.38005L5.96003 0.0500488" stroke="black" stroke-width="0.25" stroke-linecap="round" stroke-linejoin="round"/>
<path d="M6.88 0.109985C7.43 0.379985 8.00001 0.629985 8.02001 1.23999" stroke="black" stroke-width="0.25" stroke-linecap="round" stroke-linejoin="round"/>
<path d="M8.02003 1.23999L7.03003 3.52999" stroke="black" stroke-width="0.25" stroke-linecap="round" stroke-linejoin="round"/>
<path d="M7.02995 3.53006C6.68995 3.39006 6.31995 3.33006 5.94995 3.34006" stroke="black" stroke-width="0.25" stroke-linecap="round" stroke-linejoin="round"/>
<path d="M5.94995 3.33999L6.87995 0.109985" stroke="black" stroke-width="0.25" stroke-linecap="round" stroke-linejoin="round"/>
<path d="M7.78003 0.310059C8.28003 0.660059 8.81003 1.00006 8.73003 1.61006" stroke="black" stroke-width="0.25" stroke-linecap="round" stroke-linejoin="round"/>
<path d="M8.73002 1.60999L7.40002 3.70999" stroke="black" stroke-width="0.25" stroke-linecap="round" stroke-linejoin="round"/>
<path d="M7.39999 3.70999C7.07999 3.51999 6.72999 3.39999 6.35999 3.35999" stroke="black" stroke-width="0.25" stroke-linecap="round" stroke-linejoin="round"/>
<path d="M6.35999 3.36006L7.77999 0.310059" stroke="black" stroke-width="0.25" stroke-linecap="round" stroke-linejoin="round"/>
<path d="M8.63 0.650024C9.07 1.08002 9.54 1.49002 9.37 2.08002" stroke="black" stroke-width="0.25" stroke-linecap="round" stroke-linejoin="round"/>
<path d="M9.37999 2.06995L7.73999 3.94995" stroke="black" stroke-width="0.25" stroke-linecap="round" stroke-linejoin="round"/>
<path d="M7.74002 3.94994C7.45002 3.70994 7.12002 3.53994 6.77002 3.43994" stroke="black" stroke-width="0.25" stroke-linecap="round" stroke-linejoin="round"/>
<path d="M6.77002 3.44002L8.63002 0.650024" stroke="black" stroke-width="0.25" stroke-linecap="round" stroke-linejoin="round"/>
<path d="M9.43005 1.10999C9.80005 1.59999 10.2001 2.07999 9.94005 2.62999" stroke="black" stroke-width="0.25" stroke-linecap="round" stroke-linejoin="round"/>
<path d="M9.94004 2.63L8.04004 4.24" stroke="black" stroke-width="0.25" stroke-linecap="round" stroke-linejoin="round"/>
<path d="M8.04002 4.23997C7.79002 3.95997 7.49002 3.73997 7.15002 3.58997" stroke="black" stroke-width="0.25" stroke-linecap="round" stroke-linejoin="round"/>
<path d="M7.16003 3.57999L9.43003 1.10999" stroke="black" stroke-width="0.25" stroke-linecap="round" stroke-linejoin="round"/>
<path d="M10.14 1.68994C10.43 2.22994 10.76 2.75994 10.41 3.26994" stroke="black" stroke-width="0.25" stroke-linecap="round" stroke-linejoin="round"/>
<path d="M10.42 3.27002L8.29004 4.57002" stroke="black" stroke-width="0.25" stroke-linecap="round" stroke-linejoin="round"/>
<path d="M8.29002 4.57004C8.09002 4.26004 7.82002 3.99004 7.52002 3.79004" stroke="black" stroke-width="0.25" stroke-linecap="round" stroke-linejoin="round"/>
<path d="M7.52002 3.78994L10.14 1.68994" stroke="black" stroke-width="0.25" stroke-linecap="round" stroke-linejoin="round"/>
<path d="M10.76 2.37C10.97 2.95 11.2 3.53 10.79 3.98" stroke="black" stroke-width="0.25" stroke-linecap="round" stroke-linejoin="round"/>
<path d="M10.79 3.97998L8.48999 4.92998" stroke="black" stroke-width="0.25" stroke-linecap="round" stroke-linejoin="round"/>
<path d="M8.48997 4.93004C8.33997 4.59004 8.11997 4.29004 7.83997 4.04004" stroke="black" stroke-width="0.25" stroke-linecap="round" stroke-linejoin="round"/>
<path d="M7.84998 4.04L10.76 2.37" stroke="black" stroke-width="0.25" stroke-linecap="round" stroke-linejoin="round"/>
<path d="M11.27 3.14001C11.39 3.74001 11.53 4.35001 11.05 4.73001" stroke="black" stroke-width="0.25" stroke-linecap="round" stroke-linejoin="round"/>
<path d="M11.05 4.72998L8.63 5.31998" stroke="black" stroke-width="0.25" stroke-linecap="round" stroke-linejoin="round"/>
<path d="M8.63 5.31997C8.53 4.95997 8.36 4.62997 8.13 4.33997" stroke="black" stroke-width="0.25" stroke-linecap="round" stroke-linejoin="round"/>
<path d="M8.13 4.34001L11.27 3.14001" stroke="black" stroke-width="0.25" stroke-linecap="round" stroke-linejoin="round"/>
<path d="M11.6499 3.97998C11.6699 4.58998 11.7199 5.21998 11.1899 5.51998" stroke="black" stroke-width="0.25" stroke-linecap="round" stroke-linejoin="round"/>
<path d="M11.19 5.52002L8.70996 5.73002" stroke="black" stroke-width="0.25" stroke-linecap="round" stroke-linejoin="round"/>
<path d="M8.71 5.72994C8.67 5.35994 8.55 5.00994 8.37 4.68994" stroke="black" stroke-width="0.25" stroke-linecap="round" stroke-linejoin="round"/>
<path d="M8.37 4.68998L11.65 3.97998" stroke="black" stroke-width="0.25" stroke-linecap="round" stroke-linejoin="round"/>
<path d="M11.9 4.87C11.83 5.48 11.78 6.1 11.21 6.32" stroke="black" stroke-width="0.25" stroke-linecap="round" stroke-linejoin="round"/>
<path d="M11.21 6.32002L8.72998 6.15002" stroke="black" stroke-width="0.25" stroke-linecap="round" stroke-linejoin="round"/>
<path d="M8.73005 6.15006C8.75005 5.78006 8.68005 5.41006 8.55005 5.06006" stroke="black" stroke-width="0.25" stroke-linecap="round" stroke-linejoin="round"/>
<path d="M8.55005 5.06L11.9 4.87" stroke="black" stroke-width="0.25" stroke-linecap="round" stroke-linejoin="round"/>
<path d="M12.01 5.78003C11.84 6.37003 11.7 6.98003 11.1 7.11003" stroke="black" stroke-width="0.25" stroke-linecap="round" stroke-linejoin="round"/>
<path d="M11.1001 7.11006L8.68005 6.56006" stroke="black" stroke-width="0.25" stroke-linecap="round" stroke-linejoin="round"/>
<path d="M8.68004 6.55996C8.75004 6.19996 8.75004 5.81996 8.67004 5.45996" stroke="black" stroke-width="0.25" stroke-linecap="round" stroke-linejoin="round"/>
<path d="M8.67004 5.45996L12.01 5.77996" stroke="black" stroke-width="0.25" stroke-linecap="round" stroke-linejoin="round"/>
<path d="M11.98 6.69995C11.73 7.25995 11.49 7.83995 10.88 7.86995" stroke="black" stroke-width="0.25" stroke-linecap="round" stroke-linejoin="round"/>
<path d="M10.8799 7.87996L8.56995 6.95996" stroke="black" stroke-width="0.25" stroke-linecap="round" stroke-linejoin="round"/>
<path d="M8.56995 6.96C8.69995 6.61 8.74995 6.24 8.72995 5.87" stroke="black" stroke-width="0.25" stroke-linecap="round" stroke-linejoin="round"/>
<path d="M8.71997 5.87L11.98 6.7" stroke="black" stroke-width="0.25" stroke-linecap="round" stroke-linejoin="round"/>
<path d="M11.81 7.60999C11.47 8.11999 11.16 8.65999 10.54 8.59999" stroke="black" stroke-width="0.25" stroke-linecap="round" stroke-linejoin="round"/>
<path d="M10.54 8.59997L8.39001 7.33997" stroke="black" stroke-width="0.25" stroke-linecap="round" stroke-linejoin="round"/>
<path d="M8.39001 7.34004C8.57001 7.02004 8.68001 6.66004 8.71001 6.29004" stroke="black" stroke-width="0.25" stroke-linecap="round" stroke-linejoin="round"/>
<path d="M8.71997 6.28003L11.81 7.61003" stroke="black" stroke-width="0.25" stroke-linecap="round" stroke-linejoin="round"/>
<path d="M11.5 8.46997C11.09 8.92997 10.69 9.40997 10.1 9.25997" stroke="black" stroke-width="0.25" stroke-linecap="round" stroke-linejoin="round"/>
<path d="M10.09 9.26005L8.17004 7.68005" stroke="black" stroke-width="0.25" stroke-linecap="round" stroke-linejoin="round"/>
<path d="M8.17004 7.67994C8.40004 7.38994 8.56004 7.04994 8.65004 6.68994" stroke="black" stroke-width="0.25" stroke-linecap="round" stroke-linejoin="round"/>
<path d="M8.65002 6.68994L11.5 8.46994" stroke="black" stroke-width="0.25" stroke-linecap="round" stroke-linejoin="round"/>
<path d="M11.06 9.28003C10.58 9.67003 10.12 10.08 9.55005 9.84003" stroke="black" stroke-width="0.25" stroke-linecap="round" stroke-linejoin="round"/>
<path d="M9.55001 9.83999L7.89001 7.98999" stroke="black" stroke-width="0.25" stroke-linecap="round" stroke-linejoin="round"/>
<path d="M7.89001 7.98997C8.16001 7.72997 8.37002 7.42997 8.52002 7.08997" stroke="black" stroke-width="0.25" stroke-linecap="round" stroke-linejoin="round"/>
<path d="M8.51001 7.08997L11.06 9.27997" stroke="black" stroke-width="0.25" stroke-linecap="round" stroke-linejoin="round"/>
<path d="M10.5001 10.02C9.97005 10.33 9.45005 10.67 8.93005 10.34" stroke="black" stroke-width="0.25" stroke-linecap="round" stroke-linejoin="round"/>
<path d="M8.92995 10.34L7.56995 8.25" stroke="black" stroke-width="0.25" stroke-linecap="round" stroke-linejoin="round"/>
<path d="M7.56995 8.24995C7.86995 8.03995 8.12995 7.76995 8.32995 7.44995" stroke="black" stroke-width="0.25" stroke-linecap="round" stroke-linejoin="round"/>
<path d="M8.31995 7.45996L10.4999 10.02" stroke="black" stroke-width="0.25" stroke-linecap="round" stroke-linejoin="round"/>
<path d="M9.83998 10.65C9.26998 10.87 8.69998 11.13 8.22998 10.73" stroke="black" stroke-width="0.25" stroke-linecap="round" stroke-linejoin="round"/>
<path d="M8.22996 10.73L7.20996 8.45996" stroke="black" stroke-width="0.25" stroke-linecap="round" stroke-linejoin="round"/>
<path d="M7.20996 8.46004C7.53996 8.30004 7.83996 8.07004 8.07996 7.79004" stroke="black" stroke-width="0.25" stroke-linecap="round" stroke-linejoin="round"/>
<path d="M8.07996 7.79004L9.83996 10.65" stroke="black" stroke-width="0.25" stroke-linecap="round" stroke-linejoin="round"/>
<path d="M9.07998 11.18C8.47998 11.31 7.87998 11.48 7.47998 11.01" stroke="black" stroke-width="0.25" stroke-linecap="round" stroke-linejoin="round"/>
<path d="M7.47995 11.02L6.81995 8.62" stroke="black" stroke-width="0.25" stroke-linecap="round" stroke-linejoin="round"/>
<path d="M6.81995 8.61997C7.16995 8.50997 7.49995 8.32997 7.77995 8.08997" stroke="black" stroke-width="0.25" stroke-linecap="round" stroke-linejoin="round"/>
<path d="M7.79004 8.08997L9.08004 11.18" stroke="black" stroke-width="0.25" stroke-linecap="round" stroke-linejoin="round"/>
<path d="M8.25996 11.5901C7.64996 11.6301 7.02996 11.7001 6.70996 11.1801" stroke="black" stroke-width="0.25" stroke-linecap="round" stroke-linejoin="round"/>
<path d="M6.70004 11.18L6.42004 8.70996" stroke="black" stroke-width="0.25" stroke-linecap="round" stroke-linejoin="round"/>
<path d="M6.42004 8.70996C6.79004 8.65996 7.14004 8.52996 7.45004 8.32996" stroke="black" stroke-width="0.25" stroke-linecap="round" stroke-linejoin="round"/>
<path d="M7.44995 8.32996L8.25995 11.59" stroke="black" stroke-width="0.25" stroke-linecap="round" stroke-linejoin="round"/>
<path d="M7.38003 11.87C6.77003 11.82 6.14003 11.79 5.91003 11.22" stroke="black" stroke-width="0.25" stroke-linecap="round" stroke-linejoin="round"/>
<path d="M5.91003 11.22L6.00003 8.73999" stroke="black" stroke-width="0.25" stroke-linecap="round" stroke-linejoin="round"/>
<path d="M6 8.74003C6.37 8.74003 6.74 8.67003 7.08 8.53003" stroke="black" stroke-width="0.25" stroke-linecap="round" stroke-linejoin="round"/>
<path d="M7.07996 8.52002L7.37996 11.87" stroke="black" stroke-width="0.25" stroke-linecap="round" stroke-linejoin="round"/>
<path d="M6.46999 12.01C5.86998 11.86 5.25999 11.74 5.10999 11.15" stroke="black" stroke-width="0.25" stroke-linecap="round" stroke-linejoin="round"/>
<path d="M5.10999 11.14L5.58999 8.69995" stroke="black" stroke-width="0.25" stroke-linecap="round" stroke-linejoin="round"/>
<path d="M5.58997 8.70002C5.95997 8.76002 6.32997 8.75002 6.68997 8.65002" stroke="black" stroke-width="0.25" stroke-linecap="round" stroke-linejoin="round"/>
<path d="M6.68997 8.65002L6.46997 12.01" stroke="black" stroke-width="0.25" stroke-linecap="round" stroke-linejoin="round"/>
<path d="M5.54997 11.9999C4.97997 11.7599 4.39997 11.5499 4.33997 10.9399" stroke="black" stroke-width="0.25" stroke-linecap="round" stroke-linejoin="round"/>
<path d="M4.33997 10.94L5.17997 8.59998" stroke="black" stroke-width="0.25" stroke-linecap="round" stroke-linejoin="round"/>
<path d="M5.18005 8.59998C5.53005 8.71998 5.90005 8.75998 6.27005 8.71998" stroke="black" stroke-width="0.25" stroke-linecap="round" stroke-linejoin="round"/>
<path d="M6.28005 8.71997L5.55005 12" stroke="black" stroke-width="0.25" stroke-linecap="round" stroke-linejoin="round"/>
<path d="M4.63997 11.86C4.11997 11.54 3.56997 11.24 3.60997 10.63" stroke="black" stroke-width="0.25" stroke-linecap="round" stroke-linejoin="round"/>
<path d="M3.60999 10.6199L4.79999 8.43994" stroke="black" stroke-width="0.25" stroke-linecap="round" stroke-linejoin="round"/>
<path d="M4.80005 8.43994C5.13005 8.60994 5.49005 8.70994 5.86005 8.72994" stroke="black" stroke-width="0.25" stroke-linecap="round" stroke-linejoin="round"/>
<path d="M5.86001 8.72998L4.64001 11.86" stroke="black" stroke-width="0.25" stroke-linecap="round" stroke-linejoin="round"/>
<path d="M3.75994 11.58C3.28994 11.18 2.79994 10.8 2.92994 10.2" stroke="black" stroke-width="0.25" stroke-linecap="round" stroke-linejoin="round"/>
<path d="M2.93005 10.2L4.45005 8.21997" stroke="black" stroke-width="0.25" stroke-linecap="round" stroke-linejoin="round"/>
<path d="M4.44995 8.21997C4.74995 8.43997 5.08995 8.58997 5.44995 8.66997" stroke="black" stroke-width="0.25" stroke-linecap="round" stroke-linejoin="round"/>
<path d="M5.45001 8.67004L3.76001 11.58" stroke="black" stroke-width="0.25" stroke-linecap="round" stroke-linejoin="round"/>
<path d="M2.93994 11.16C2.53994 10.7 2.10994 10.24 2.32994 9.67004" stroke="black" stroke-width="0.25" stroke-linecap="round" stroke-linejoin="round"/>
<path d="M2.32996 9.66996L4.12996 7.95996" stroke="black" stroke-width="0.25" stroke-linecap="round" stroke-linejoin="round"/>
<path d="M4.13 7.95996C4.39 8.21996 4.71 8.41996 5.05 8.55996" stroke="black" stroke-width="0.25" stroke-linecap="round" stroke-linejoin="round"/>
<path d="M5.04994 8.55005L2.93994 11.16" stroke="black" stroke-width="0.25" stroke-linecap="round" stroke-linejoin="round"/>
<path d="M2.18999 10.6299C1.85999 10.1099 1.50999 9.59995 1.81999 9.06995" stroke="black" stroke-width="0.25" stroke-linecap="round" stroke-linejoin="round"/>
<path d="M1.81995 9.06002L3.85995 7.64001" stroke="black" stroke-width="0.25" stroke-linecap="round" stroke-linejoin="round"/>
<path d="M3.85999 7.64001C4.07999 7.94001 4.35999 8.19001 4.67999 8.37001" stroke="black" stroke-width="0.25" stroke-linecap="round" stroke-linejoin="round"/>
<path d="M4.67994 8.37L2.18994 10.63" stroke="black" stroke-width="0.25" stroke-linecap="round" stroke-linejoin="round"/>
<path d="M1.52998 9.98C1.28998 9.42 1.01998 8.85 1.39998 8.38" stroke="black" stroke-width="0.25" stroke-linecap="round" stroke-linejoin="round"/>
<path d="M1.40002 8.38004L3.64002 7.29004" stroke="black" stroke-width="0.25" stroke-linecap="round" stroke-linejoin="round"/>
<path d="M3.64001 7.29004C3.81001 7.62004 4.05001 7.91004 4.34001 8.14004" stroke="black" stroke-width="0.25" stroke-linecap="round" stroke-linejoin="round"/>
<path d="M4.34003 8.14001L1.53003 9.98001" stroke="black" stroke-width="0.25" stroke-linecap="round" stroke-linejoin="round"/>
<path d="M0.980034 9.25002C0.830034 8.66002 0.640034 8.06002 1.10003 7.65002" stroke="black" stroke-width="0.25" stroke-linecap="round" stroke-linejoin="round"/>
<path d="M1.09998 7.64003L3.46998 6.91003" stroke="black" stroke-width="0.25" stroke-linecap="round" stroke-linejoin="round"/>
<path d="M3.46997 6.91003C3.58997 7.26003 3.77997 7.58003 4.02997 7.86003" stroke="black" stroke-width="0.25" stroke-linecap="round" stroke-linejoin="round"/>
<path d="M4.02998 7.84998L0.97998 9.24998" stroke="black" stroke-width="0.25" stroke-linecap="round" stroke-linejoin="round"/>
<path d="M0.539991 8.42999C0.479991 7.81999 0.389991 7.19999 0.899991 6.85999" stroke="black" stroke-width="0.25" stroke-linecap="round" stroke-linejoin="round"/>
<path d="M0.910034 6.87001L3.37003 6.51001" stroke="black" stroke-width="0.25" stroke-linecap="round" stroke-linejoin="round"/>
<path d="M3.37 6.51001C3.43 6.88001 3.57 7.22001 3.78 7.53001" stroke="black" stroke-width="0.25" stroke-linecap="round" stroke-linejoin="round"/>
<path d="M3.78004 7.53003L0.540039 8.43003" stroke="black" stroke-width="0.25" stroke-linecap="round" stroke-linejoin="round"/>
<path d="M0.23999 7.56996C0.27999 6.95996 0.27999 6.32996 0.83999 6.07996" stroke="black" stroke-width="0.25" stroke-linecap="round" stroke-linejoin="round"/>
<path d="M0.839966 6.06995L3.32997 6.08995" stroke="black" stroke-width="0.25" stroke-linecap="round" stroke-linejoin="round"/>
<path d="M3.32996 6.08997C3.32996 6.45997 3.41996 6.82997 3.57996 7.15997" stroke="black" stroke-width="0.25" stroke-linecap="round" stroke-linejoin="round"/>
<path d="M3.57999 7.16003L0.23999 7.57003" stroke="black" stroke-width="0.25" stroke-linecap="round" stroke-linejoin="round"/>
<path d="M3.33005 5.88C3.31005 6.18 3.35005 6.48 3.43005 6.77" stroke="black" stroke-width="0.25" stroke-linecap="round" stroke-linejoin="round"/>
<path d="M3.42996 6.78003L0.0799561 6.66003" stroke="black" stroke-width="0.25" stroke-linecap="round" stroke-linejoin="round"/>
<path d="M0.0799561 6.66003C0.209956 6.06003 0.309956 5.44003 0.899956 5.28003" stroke="black" stroke-width="0.25" stroke-linecap="round" stroke-linejoin="round"/>
<path d="M0.900024 5.28003L3.33002 5.88003" stroke="black" stroke-width="0.25" stroke-linecap="round" stroke-linejoin="round"/>
<path d="M3.32996 5.88C3.32996 6.04 3.32996 6.2 3.34996 6.36" stroke="black" stroke-width="0.25" stroke-linecap="round" stroke-linejoin="round"/>
<path d="M3.35005 6.36999L0.0500488 5.73999" stroke="black" stroke-width="0.25" stroke-linecap="round" stroke-linejoin="round"/>
<path d="M0.0500488 5.73995C0.140049 5.50995 0.220049 5.26995 0.330049 5.06995" stroke="black" stroke-width="0.25" stroke-linecap="round" stroke-linejoin="round"/>
<path d="M0.329956 5.06995L3.32996 5.87995" stroke="black" stroke-width="0.25" stroke-linecap="round" stroke-linejoin="round"/>
</g>
<defs>
<clipPath id="clip0_732_11047">
<rect width="12.06" height="12.06" fill="white"/>
</clipPath>
</defs>
</svg>
