<svg width="105" height="5" viewBox="0 0 105 5" fill="none" xmlns="http://www.w3.org/2000/svg">
<g clip-path="url(#clip0_1665_7482)">
<rect width="104.25" height="4.52" transform="translate(104.25 4.52002) rotate(180)" fill="white"/>
<path d="M0.130005 0.11998L4.13 0.11998L4.13 3.33998L100.13 3.33997L100.13 0.129971L104.13 0.129971L104.13 2.22997L102.19 2.22997L102.19 4.46997L100.19 4.46997L100.19 4.18997L89.4 4.18997L89.4 4.35997L89.06 4.35997L89.06 4.18997L15.2 4.18998L15.2 4.35998L14.86 4.35998L14.86 4.18998L4.07001 4.18998L4.07001 4.46998L2.07001 4.46998L2.07001 2.21998L0.130005 2.21998L0.130005 0.11998Z" fill="white"/>
<path d="M15.19 3.65991L14.85 3.65991" stroke="#010101" stroke-width="0.25" stroke-miterlimit="10"/>
<path d="M14.85 3.65991L14.85 3.36991" stroke="#010101" stroke-width="0.25" stroke-miterlimit="10"/>
<path d="M15.19 3.65991L15.19 3.36991" stroke="#010101" stroke-width="0.25" stroke-miterlimit="10"/>
<path d="M15.19 4.28979L14.85 4.28979" stroke="#010101" stroke-width="0.25" stroke-miterlimit="10"/>
<path d="M14.85 4.28979L14.85 4.11979" stroke="#010101" stroke-width="0.25" stroke-miterlimit="10"/>
<path d="M15.19 4.28979L15.19 4.11979" stroke="#010101" stroke-width="0.25" stroke-miterlimit="10"/>
<path d="M14.85 3.65987L14.85 4.11987" stroke="#010101" stroke-width="0.25" stroke-miterlimit="10"/>
<path d="M15.19 4.11987L15.19 3.65987" stroke="#010101" stroke-width="0.25" stroke-miterlimit="10"/>
<path d="M14.85 4.11987L2.11998 4.11987" stroke="#010101" stroke-width="0.25" stroke-miterlimit="10"/>
<path d="M89.4 3.65991L89.06 3.65991" stroke="#010101" stroke-width="0.25" stroke-miterlimit="10"/>
<path d="M89.06 3.65991L89.06 3.36991" stroke="#010101" stroke-width="0.25" stroke-miterlimit="10"/>
<path d="M89.4 3.65991L89.4 3.36991" stroke="#010101" stroke-width="0.25" stroke-miterlimit="10"/>
<path d="M89.4 4.28979L89.06 4.28979" stroke="#010101" stroke-width="0.25" stroke-miterlimit="10"/>
<path d="M89.06 4.28979L89.06 4.11979" stroke="#010101" stroke-width="0.25" stroke-miterlimit="10"/>
<path d="M89.4 4.28979L89.4 4.11979" stroke="#010101" stroke-width="0.25" stroke-miterlimit="10"/>
<path d="M89.06 3.65987L89.06 4.11987" stroke="#010101" stroke-width="0.25" stroke-miterlimit="10"/>
<path d="M89.4 4.11987L89.4 3.65987" stroke="#010101" stroke-width="0.25" stroke-miterlimit="10"/>
<path d="M102.12 4.11987L89.39 4.11987" stroke="#010101" stroke-width="0.25" stroke-miterlimit="10"/>
<path d="M3.85999 2.1899L0.119995 2.1899L0.119995 2.1299L3.85999 2.1299C3.99999 2.1299 4.11999 2.2499 4.11999 2.3899L4.11999 2.6999C4.11999 2.8399 3.99999 2.9599 3.85999 2.9599L2.25999 2.9599C2.17999 2.9599 2.11999 3.0199 2.12 3.0999L2.12 4.1999C2.12 4.2799 2.17999 4.3399 2.25999 4.3399L4.05999 4.3399L4.05999 4.3999L2.25999 4.3999C2.14999 4.3999 2.05999 4.3099 2.05999 4.1999L2.05999 3.0999C2.05999 2.9899 2.14999 2.8999 2.25999 2.8999L3.85999 2.8999C3.96999 2.8999 4.05999 2.8099 4.05999 2.6999L4.05999 2.3899C4.05999 2.2799 3.96999 2.1899 3.85999 2.1899Z" stroke="#010101" stroke-width="0.25" stroke-miterlimit="10"/>
<path d="M4.11999 0.119873L4.12 2.11987L0.119995 2.11987L0.119995 0.119873L4.11999 0.119873Z" stroke="#010101" stroke-width="0.25" stroke-miterlimit="10"/>
<path d="M100.39 2.18989C100.28 2.18989 100.19 2.27989 100.19 2.38989L100.19 2.69989C100.19 2.80989 100.28 2.89989 100.39 2.89989L101.99 2.89989C102.1 2.89989 102.19 2.98989 102.19 3.09989L102.19 4.18989C102.19 4.29989 102.1 4.38989 101.99 4.38989L100.19 4.38989L100.19 4.32989L101.99 4.32989C102.07 4.32989 102.13 4.26989 102.13 4.18989L102.13 3.08989C102.13 3.00989 102.07 2.94989 101.99 2.94989L100.39 2.94989C100.25 2.94989 100.13 2.82989 100.13 2.68989L100.13 2.37989C100.13 2.23989 100.25 2.11989 100.39 2.11989L104.13 2.11989L104.13 2.17989L100.39 2.17989L100.39 2.18989Z" stroke="#010101" stroke-width="0.25" stroke-miterlimit="10"/>
<path d="M2.12 3.27989L102.12 3.27988L102.12 3.37988L2.12 3.37989L2.12 3.27989Z" stroke="#010101" stroke-width="0.25" stroke-miterlimit="10"/>
<path d="M104.13 0.119873L104.13 2.11987L100.13 2.11987L100.13 0.119873L104.13 0.119873Z" stroke="#010101" stroke-width="0.25" stroke-miterlimit="10"/>
<path d="M89.06 4.11987L15.2 4.11988" stroke="#010101" stroke-width="0.25" stroke-miterlimit="10"/>
</g>
<defs>
<clipPath id="clip0_1665_7482">
<rect width="104.25" height="4.52" fill="white" transform="translate(104.25 4.52002) rotate(180)"/>
</clipPath>
</defs>
</svg>
