<svg width="93" height="5" viewBox="0 0 93 5" fill="none" xmlns="http://www.w3.org/2000/svg">
<g clip-path="url(#clip0_1665_7456)">
<rect width="92.25" height="4.52" transform="translate(92.25 4.52002) rotate(180)" fill="white"/>
<path d="M71.95 4.12012L28.29 4.12012Z" fill="white"/>
<path d="M71.95 4.12012L28.29 4.12012" stroke="#010101" stroke-width="0.25" stroke-miterlimit="10"/>
<path d="M27.95 3.66016L27.95 3.37016Z" fill="white"/>
<path d="M27.95 3.66016L27.95 3.37016" stroke="#010101" stroke-width="0.25" stroke-miterlimit="10"/>
<path d="M2.12 3.28013L90.12 3.28013L90.12 3.38013L2.12 3.38013L2.12 3.28013Z" fill="white" stroke="#010101" stroke-width="0.25" stroke-miterlimit="10"/>
<path d="M90.12 4.12012L72.29 4.12012Z" fill="white"/>
<path d="M90.12 4.12012L72.29 4.12012" stroke="#010101" stroke-width="0.25" stroke-miterlimit="10"/>
<path d="M27.95 4.12012L2.12002 4.12012Z" fill="white"/>
<path d="M27.95 4.12012L2.12002 4.12012" stroke="#010101" stroke-width="0.25" stroke-miterlimit="10"/>
<path d="M92.12 0.130127L92.12 2.13013L88.12 2.13013L88.12 0.130128L92.12 0.130127Z" fill="white" stroke="#010101" stroke-width="0.25" stroke-miterlimit="10"/>
<path d="M27.95 3.66012L27.95 4.12012Z" fill="white"/>
<path d="M27.95 3.66012L27.95 4.12012" stroke="#010101" stroke-width="0.25" stroke-miterlimit="10"/>
<path d="M71.95 4.29004L71.95 4.12004Z" fill="white"/>
<path d="M71.95 4.29004L71.95 4.12004" stroke="#010101" stroke-width="0.25" stroke-miterlimit="10"/>
<path d="M71.95 3.66016L71.95 3.37016Z" fill="white"/>
<path d="M71.95 3.66016L71.95 3.37016" stroke="#010101" stroke-width="0.25" stroke-miterlimit="10"/>
<path d="M72.3 3.66016L72.3 3.37016Z" fill="white"/>
<path d="M72.3 3.66016L72.3 3.37016" stroke="#010101" stroke-width="0.25" stroke-miterlimit="10"/>
<path d="M28.29 3.66016L28.29 3.37016Z" fill="white"/>
<path d="M28.29 3.66016L28.29 3.37016" stroke="#010101" stroke-width="0.25" stroke-miterlimit="10"/>
<path d="M71.95 3.66012L71.95 4.12012Z" fill="white"/>
<path d="M71.95 3.66012L71.95 4.12012" stroke="#010101" stroke-width="0.25" stroke-miterlimit="10"/>
<path d="M4.11999 0.130127L4.12 2.13013L0.119995 2.13013L0.119995 0.130128L4.11999 0.130127Z" fill="white" stroke="#010101" stroke-width="0.25" stroke-miterlimit="10"/>
<path d="M28.29 4.12012L28.29 3.66012Z" fill="white"/>
<path d="M28.29 4.12012L28.29 3.66012" stroke="#010101" stroke-width="0.25" stroke-miterlimit="10"/>
<path d="M28.29 3.66016L27.95 3.66016Z" fill="white"/>
<path d="M28.29 3.66016L27.95 3.66016" stroke="#010101" stroke-width="0.25" stroke-miterlimit="10"/>
<path d="M28.29 4.29004L28.29 4.12004Z" fill="white"/>
<path d="M28.29 4.29004L28.29 4.12004" stroke="#010101" stroke-width="0.25" stroke-miterlimit="10"/>
<path d="M3.85999 2.19014L0.119995 2.19014L0.119995 2.13014L3.85999 2.13014C3.99999 2.13014 4.11999 2.25014 4.11999 2.39014L4.11999 2.70014C4.11999 2.84014 3.99999 2.96014 3.85999 2.96014L2.25999 2.96014C2.17999 2.96014 2.11999 3.02014 2.12 3.10014L2.12 4.19014C2.12 4.27014 2.17999 4.33014 2.25999 4.33014L4.05999 4.33014L4.05999 4.39014L2.25999 4.39014C2.14999 4.39014 2.05999 4.30014 2.05999 4.19014L2.05999 3.09014C2.05999 2.98014 2.14999 2.89014 2.25999 2.89014L3.85999 2.89014C3.96999 2.89014 4.05999 2.80014 4.05999 2.69014L4.05999 2.38014C4.05999 2.27014 3.96999 2.18014 3.85999 2.18014" fill="white"/>
<path d="M3.85999 2.19014L0.119995 2.19014L0.119995 2.13014L3.85999 2.13014C3.99999 2.13014 4.11999 2.25014 4.11999 2.39014L4.11999 2.70014C4.11999 2.84014 3.99999 2.96014 3.85999 2.96014L2.25999 2.96014C2.17999 2.96014 2.11999 3.02014 2.12 3.10014L2.12 4.19014C2.12 4.27014 2.17999 4.33014 2.25999 4.33014L4.05999 4.33014L4.05999 4.39014L2.25999 4.39014C2.14999 4.39014 2.05999 4.30014 2.05999 4.19014L2.05999 3.09014C2.05999 2.98014 2.14999 2.89014 2.25999 2.89014L3.85999 2.89014C3.96999 2.89014 4.05999 2.80014 4.05999 2.69014L4.05999 2.38014C4.05999 2.27014 3.96999 2.18014 3.85999 2.18014" stroke="#010101" stroke-width="0.25" stroke-miterlimit="10"/>
<path d="M72.3 3.66016L71.96 3.66016Z" fill="white"/>
<path d="M72.3 3.66016L71.96 3.66016" stroke="#010101" stroke-width="0.25" stroke-miterlimit="10"/>
<path d="M28.29 4.29004L27.95 4.29004Z" fill="white"/>
<path d="M28.29 4.29004L27.95 4.29004" stroke="#010101" stroke-width="0.25" stroke-miterlimit="10"/>
<path d="M72.3 4.29004L72.3 4.12004Z" fill="white"/>
<path d="M72.3 4.29004L72.3 4.12004" stroke="#010101" stroke-width="0.25" stroke-miterlimit="10"/>
<path d="M72.3 4.12012L72.3 3.66012Z" fill="white"/>
<path d="M72.3 4.12012L72.3 3.66012" stroke="#010101" stroke-width="0.25" stroke-miterlimit="10"/>
<path d="M27.95 4.29004L27.95 4.12004Z" fill="white"/>
<path d="M27.95 4.29004L27.95 4.12004" stroke="#010101" stroke-width="0.25" stroke-miterlimit="10"/>
<path d="M72.3 4.29004L71.96 4.29004Z" fill="white"/>
<path d="M72.3 4.29004L71.96 4.29004" stroke="#010101" stroke-width="0.25" stroke-miterlimit="10"/>
<path d="M88.39 2.19014C88.28 2.19014 88.19 2.28014 88.19 2.39014L88.19 2.70014C88.19 2.81014 88.28 2.90014 88.39 2.90014L89.99 2.90014C90.1 2.90014 90.19 2.99014 90.19 3.10014L90.19 4.19014C90.19 4.30014 90.1 4.39014 89.99 4.39014L88.19 4.39014L88.19 4.33014L89.99 4.33014C90.07 4.33014 90.13 4.27014 90.13 4.19014L90.13 3.09014C90.13 3.01014 90.07 2.95014 89.99 2.95014L88.39 2.95014C88.25 2.95014 88.13 2.83014 88.13 2.69014L88.13 2.38014C88.13 2.24014 88.25 2.12014 88.39 2.12014L92.12 2.12014L92.12 2.18014L88.38 2.18014L88.39 2.19014Z" fill="white" stroke="#010101" stroke-width="0.25" stroke-miterlimit="10"/>
</g>
<defs>
<clipPath id="clip0_1665_7456">
<rect width="92.25" height="4.52" fill="white" transform="translate(92.25 4.52002) rotate(180)"/>
</clipPath>
</defs>
</svg>
