<svg width="42" height="30" viewBox="0 0 42 30" fill="none" xmlns="http://www.w3.org/2000/svg">
<g clip-path="url(#clip0_1665_6000)">
<path d="M11.64 1.22998L37.14 26.73L38.64 25.73L13.14 0.229983L11.64 1.22998Z" fill="white"/>
<rect x="41.14" y="29.23" width="41" height="4" transform="rotate(180 41.14 29.23)" fill="white"/>
<path d="M14.63 1.55022L15.18 1.29021L15.43 1.17022C15.43 1.17022 15.5 1.17021 15.52 1.19021C15.52 1.19021 15.61 1.28021 15.79 1.46021L16.4 0.850216C16.4 0.850216 16.4 0.850216 16.42 0.850216L16.69 0.580216C16.69 0.580216 16.71 0.580216 16.72 0.580216C16.71 0.570216 16.88 0.740215 17.03 0.890215L19.56 3.42022C19.65 3.50022 19.71 3.65022 19.71 3.75022C19.71 3.85022 19.64 3.92022 19.59 3.98022C19.48 4.09022 19.39 4.16021 19.29 4.22021C19.1 4.35021 18.88 4.51021 18.59 4.72021L18.55 4.68022C19.24 3.99022 19.17 4.06022 19.21 4.02022C19.25 3.98022 19.41 3.82021 19.28 3.70021L17.27 1.69021" stroke="#010101" stroke-width="0.25" stroke-miterlimit="10"/>
<path d="M12.69 4.59009L12.69 4.57009L13.45 3.81009C13.45 3.81009 13.48 3.84009 13.53 3.89009C13.44 3.80009 13.38 3.74009 13.38 3.74009L13.38 3.70009C13.38 3.70009 13.37 3.61009 13.36 3.59009" stroke="#010101" stroke-width="0.25" stroke-miterlimit="10"/>
<path d="M13.99 4.35019L14.3 4.66019C14.3 4.66019 14.3 4.68019 14.3 4.69019L13.55 5.44019C13.55 5.44019 13.53 5.44019 13.52 5.44019" stroke="#010101" stroke-width="0.25" stroke-miterlimit="10"/>
<path d="M16.42 0.840069C16.42 0.840069 16.42 0.840069 16.43 0.850069C16.45 0.870069 16.51 0.930069 16.58 1.00007C16.61 1.03007 16.63 1.05007 16.66 1.08007L17.26 1.68007C17.26 1.68007 17.26 1.70007 17.26 1.71007L16.65 2.32007" stroke="#010101" stroke-width="0.25" stroke-miterlimit="10"/>
<path d="M14.31 4.54004C14.31 4.54004 14.22 4.52004 14.2 4.51004L14.16 4.51004" stroke="#010101" stroke-width="0.25" stroke-miterlimit="10"/>
<path d="M15.39 4.79011L15.06 5.12011C15.06 5.12011 14.94 5.17011 14.89 5.12011C14.89 5.12011 14.84 5.07011 14.75 4.98011C14.65 4.88011 14.51 4.74011 14.32 4.55011C14.24 4.47011 14.15 4.38011 14.06 4.29011" stroke="#010101" stroke-width="0.25" stroke-miterlimit="10"/>
<path d="M14.36 1.28004L14.69 0.950039C14.69 0.950039 14.81 0.900039 14.86 0.950039C14.86 0.950039 15 1.09004 15.2 1.29004" stroke="#010101" stroke-width="0.25" stroke-miterlimit="10"/>
<path d="M14.32 4.09017C14.32 4.09017 14.27 4.08017 14.25 4.09017L13.92 4.42017C13.92 4.42017 13.9 4.40016 13.87 4.37016C13.84 4.34016 13.81 4.31016 13.78 4.28016C13.75 4.25016 13.72 4.22017 13.68 4.18017C13.65 4.15017 13.61 4.11017 13.58 4.08017C13.55 4.05017 13.52 4.02017 13.5 4.00017C13.48 3.98017 13.46 3.96017 13.46 3.96017" stroke="#010101" stroke-width="0.25" stroke-miterlimit="10"/>
<path d="M15.12 4.52007L14.97 4.67007C14.97 4.67007 14.92 4.69007 14.9 4.67007C14.9 4.67007 14.82 4.59007 14.66 4.43007C14.57 4.34007 14.45 4.22007 14.32 4.09007C14.32 4.09007 14.31 4.08007 14.28 4.05007C14.26 4.03007 14.24 4.01007 14.21 3.98007C14.21 3.98007 14.19 3.96007 14.18 3.95007C14.17 3.94007 14.15 3.92007 14.13 3.90007L14.09 3.86006C14.09 3.86006 14.06 3.83007 14.05 3.82007L14.01 3.78006L13.97 3.74007L13.93 3.70007L13.9 3.67007L13.83 3.60007C13.83 3.60007 13.81 3.58007 13.79 3.56007" stroke="#010101" stroke-width="0.25" stroke-miterlimit="10"/>
<path d="M15.8 1.46003L16.13 1.79003C16.28 1.94003 16.44 2.10003 16.55 2.21003L16.66 2.32003L16.67 2.32003C16.67 2.32003 16.71 2.37003 16.72 2.38003C16.74 2.40003 16.75 2.44003 16.74 2.47003L16.62 2.72003L16.36 3.28003" stroke="#010101" stroke-width="0.25" stroke-miterlimit="10"/>
<path d="M38.53 25.62L37.44 26.71C37.44 26.71 37.33 26.75 37.28 26.71L11.98 1.41001C11.98 1.41001 11.94 1.30001 11.98 1.25001L13.07 0.160008C13.07 0.160008 13.18 0.120008 13.23 0.160008L38.53 25.46C38.53 25.46 38.57 25.57 38.53 25.62Z" stroke="#010101" stroke-width="0.25" stroke-miterlimit="10"/>
<path d="M38.61 24.58C38.4112 24.58 38.25 24.7412 38.25 24.94C38.25 25.1389 38.4112 25.3 38.61 25.3C38.8089 25.3 38.97 25.1389 38.97 24.94C38.97 24.7412 38.8089 24.58 38.61 24.58Z" stroke="#010101" stroke-width="0.25" stroke-miterlimit="10"/>
<path d="M40.62 28.1001C40.62 28.1001 40.56 28.0701 40.56 28.0401C40.56 28.0201 40.56 28.0101 40.58 28.0001C40.59 28.0001 40.61 27.9901 40.62 27.9901C40.67 27.9901 40.72 27.9901 40.77 27.9901C40.82 27.9901 40.87 27.9901 40.92 27.9901C40.95 27.9901 40.97 27.9901 40.99 28.0201C40.99 28.0201 41.01 28.0401 41.01 28.0501C41.01 28.0601 41.01 28.0801 41.01 28.0901C41.01 28.2401 41.01 28.3901 41.01 28.5501C41.01 28.7101 41.01 28.8601 41.01 29.0101C41.01 29.0201 41.01 29.0401 41.01 29.0501C41.01 29.0601 41 29.0701 40.99 29.0801C40.99 29.0801 40.97 29.1001 40.96 29.1001C40.95 29.1001 40.93 29.1001 40.92 29.1001C40.67 29.1001 40.42 29.1001 40.17 29.1001C39.92 29.1001 39.67 29.1001 39.42 29.1001C39.17 29.1001 38.92 29.1001 38.67 29.1001C38.42 29.1001 38.17 29.1001 37.92 29.1001C37.91 29.1001 37.89 29.1001 37.88 29.1001C37.87 29.1001 37.86 29.0901 37.85 29.0801C37.85 29.0801 37.83 29.0601 37.83 29.0501C37.83 29.0401 37.83 29.0201 37.83 29.0101C37.83 28.8701 37.83 28.7301 37.83 28.5801C37.83 28.4401 37.83 28.2901 37.83 28.1501C37.83 28.0101 37.83 27.8601 37.83 27.7201C37.83 27.5801 37.83 27.4301 37.83 27.2901C37.83 27.2801 37.83 27.2601 37.83 27.2501C37.83 27.2401 37.84 27.2201 37.85 27.2201C37.87 27.2001 37.9 27.2001 37.92 27.2001C38.01 27.2001 38.11 27.2001 38.2 27.2001C38.29 27.2001 38.39 27.2001 38.48 27.2001C38.51 27.2001 38.53 27.2001 38.55 27.1801C38.55 27.1801 38.57 27.1601 38.57 27.1501C38.57 27.1401 38.57 27.1201 38.57 27.1101C38.57 26.9801 38.57 26.8401 38.57 26.7001C38.57 26.5601 38.57 26.4301 38.57 26.2901C38.57 26.1501 38.57 26.0201 38.57 25.8801C38.57 25.7401 38.57 25.6101 38.57 25.4701C38.57 25.4601 38.57 25.4401 38.57 25.4301C38.57 25.4201 38.58 25.4101 38.59 25.4001C38.59 25.4001 38.61 25.3801 38.62 25.3801C38.63 25.3801 38.65 25.3801 38.66 25.3801C38.84 25.3801 39.03 25.3801 39.22 25.3801C39.41 25.3801 39.59 25.3801 39.78 25.3801C39.97 25.3801 40.15 25.3801 40.34 25.3801C40.53 25.3801 40.72 25.3801 40.9 25.3801C40.91 25.3801 40.93 25.3801 40.94 25.3801C40.95 25.3801 40.97 25.3901 40.97 25.4001C40.99 25.4201 40.99 25.4501 41 25.4701C41 25.5401 41 25.6101 41 25.6801C41 25.7501 41 25.8201 41 25.8901C41 25.9201 41 25.9401 40.97 25.9601C40.95 25.9801 40.93 25.9801 40.9 25.9901C40.85 25.9901 40.8 25.9901 40.75 25.9901C40.7 25.9901 40.65 25.9901 40.6 25.9901C40.58 25.9901 40.57 25.9901 40.56 25.9801C40.55 25.9801 40.54 25.9501 40.54 25.9401C40.54 25.9201 40.54 25.9101 40.56 25.9001C40.57 25.9001 40.59 25.8901 40.6 25.8901C40.66 25.8901 40.72 25.8901 40.78 25.8901C40.81 25.8901 40.83 25.8901 40.85 25.8601C40.87 25.8401 40.88 25.8201 40.88 25.7901C40.88 25.7601 40.88 25.7301 40.88 25.7001C40.88 25.6701 40.88 25.6401 40.88 25.6101C40.88 25.5801 40.88 25.5601 40.85 25.5401C40.85 25.5401 40.83 25.5201 40.82 25.5201C40.81 25.5201 40.79 25.5201 40.78 25.5201C40.62 25.5201 40.45 25.5201 40.28 25.5201C40.11 25.5201 39.95 25.5201 39.78 25.5201C39.61 25.5201 39.45 25.5201 39.28 25.5201C39.11 25.5201 38.94 25.5201 38.78 25.5201C38.77 25.5201 38.75 25.5201 38.74 25.5201C38.73 25.5201 38.72 25.5301 38.71 25.5401C38.7 25.5501 38.69 25.5601 38.69 25.5701C38.69 25.5801 38.69 25.6001 38.69 25.6101C38.69 25.7401 38.69 25.8801 38.69 26.0201C38.69 26.1601 38.69 26.2901 38.69 26.4301C38.69 26.5701 38.69 26.7001 38.69 26.8401C38.69 26.9801 38.69 27.1101 38.69 27.2501C38.69 27.2601 38.69 27.2801 38.69 27.2901C38.69 27.3001 38.68 27.3201 38.67 27.3201C38.65 27.3401 38.62 27.3401 38.6 27.3401C38.51 27.3401 38.41 27.3401 38.32 27.3401C38.23 27.3401 38.13 27.3401 38.04 27.3401C38.01 27.3401 37.99 27.3401 37.97 27.3601C37.97 27.3601 37.95 27.3801 37.95 27.3901C37.95 27.4001 37.95 27.4201 37.95 27.4301C37.95 27.5501 37.95 27.6701 37.95 27.8001C37.95 27.9201 37.95 28.0501 37.95 28.1701C37.95 28.2901 37.95 28.4201 37.95 28.5401C37.95 28.6601 37.95 28.7901 37.95 28.9101C37.95 28.9201 37.95 28.9401 37.95 28.9501C37.95 28.9601 37.96 28.9701 37.97 28.9801C37.97 28.9801 37.99 29.0001 38 29.0001C38.01 29.0001 38.03 29.0001 38.04 29.0001C38.27 29.0001 38.5 29.0001 38.73 29.0001C38.96 29.0001 39.19 29.0001 39.42 29.0001C39.65 29.0001 39.88 29.0001 40.11 29.0001C40.34 29.0001 40.57 29.0001 40.8 29.0001C40.81 29.0001 40.83 29.0001 40.84 29.0001C40.85 29.0001 40.87 28.9901 40.88 28.9801C40.9 28.9601 40.9 28.9301 40.9 28.9101C40.9 28.8001 40.9 28.6801 40.9 28.5701C40.9 28.4601 40.9 28.3401 40.9 28.2301C40.9 28.2001 40.9 28.1801 40.88 28.1601C40.86 28.1401 40.84 28.1401 40.81 28.1301C40.75 28.1301 40.69 28.1301 40.63 28.1301L40.62 28.1001Z" stroke="#010101" stroke-width="0.25" stroke-miterlimit="10"/>
<path d="M14.28 4.64016L14.3 4.66016" stroke="#010101" stroke-width="0.25" stroke-miterlimit="10"/>
<path d="M38.61 24.5201C38.3781 24.5201 38.19 24.7081 38.19 24.9401C38.19 25.1721 38.3781 25.3601 38.61 25.3601C38.842 25.3601 39.03 25.1721 39.03 24.9401C39.03 24.7081 38.842 24.5201 38.61 24.5201Z" stroke="#010101" stroke-width="0.25" stroke-miterlimit="10"/>
<path d="M2.51999 25.3701C2.51999 25.3701 2.55999 25.4201 2.55999 25.4601C2.56999 25.7301 2.55999 26.0001 2.55999 26.2701C2.55999 26.4101 2.55999 26.5401 2.55999 26.6801C2.55999 26.8201 2.55999 26.9501 2.55999 27.0901C2.55999 27.1001 2.55999 27.1201 2.55999 27.1301C2.55999 27.1401 2.56999 27.1601 2.57999 27.1601C2.59999 27.1801 2.62999 27.1801 2.64999 27.1801C2.73999 27.1801 2.83999 27.1801 2.92999 27.1801C3.01999 27.1801 3.11999 27.1801 3.20999 27.1801C3.23999 27.1801 3.25999 27.1801 3.27999 27.2001C3.27999 27.2001 3.29999 27.2201 3.29999 27.2301C3.29999 27.2401 3.29999 27.2601 3.29999 27.2701C3.29999 27.4101 3.29999 27.5501 3.29999 27.7001C3.29999 27.8401 3.29999 27.9901 3.29999 28.1301C3.29999 28.2701 3.29999 28.4201 3.29999 28.5601C3.29999 28.7001 3.29999 28.8501 3.29999 28.9901C3.29999 29.0001 3.29999 29.0201 3.29999 29.0301C3.29999 29.0401 3.28999 29.0501 3.27999 29.0601C3.27999 29.0601 3.25999 29.0801 3.24999 29.0801C3.23999 29.0801 3.21999 29.0801 3.20999 29.0801C2.95999 29.0801 2.70999 29.0801 2.45999 29.0801C2.20999 29.0801 1.95999 29.0801 1.70999 29.0801C1.45999 29.0801 1.20999 29.0801 0.959988 29.0801C0.709988 29.0801 0.459988 29.0801 0.209988 29.0801C0.199988 29.0801 0.179987 29.0801 0.169987 29.0801C0.159987 29.0801 0.149988 29.0701 0.139988 29.0601C0.139988 29.0601 0.119987 29.0401 0.119987 29.0301C0.119987 29.0201 0.119987 29.0001 0.119987 28.9901C0.119987 28.8401 0.119987 28.6801 0.119987 28.5301C0.119987 28.3801 0.119987 28.2201 0.119987 28.0701C0.119987 28.0601 0.119987 28.0401 0.119987 28.0301C0.119987 28.0201 0.129988 28.0001 0.139988 28.0001C0.159988 27.9801 0.189988 27.9801 0.209988 27.9701C0.259988 27.9701 0.309989 27.9701 0.359989 27.9701C0.409989 27.9701 0.459987 27.9701 0.509987 27.9701C0.529987 27.9701 0.539988 27.9701 0.549988 27.9801C0.559988 27.9801 0.569988 28.0101 0.569988 28.0201C0.569988 28.0301 0.569988 28.0501 0.549988 28.0601C0.539988 28.0601 0.519987 28.0701 0.509987 28.0701C0.449987 28.0701 0.389986 28.0701 0.329986 28.0701C0.299986 28.0701 0.279987 28.0701 0.259987 28.1001C0.239987 28.1201 0.239986 28.1401 0.239986 28.1701C0.229986 28.2901 0.239986 28.4001 0.239986 28.5101C0.239986 28.6201 0.239986 28.7401 0.239986 28.8501C0.239986 28.8801 0.239987 28.9001 0.259987 28.9201C0.259987 28.9201 0.279988 28.9401 0.299988 28.9401C0.309988 28.9401 0.329989 28.9401 0.339989 28.9401C0.569989 28.9401 0.799987 28.9401 1.02999 28.9401C1.25999 28.9401 1.48999 28.9401 1.71999 28.9401C1.94999 28.9401 2.17999 28.9401 2.40999 28.9401C2.63999 28.9401 2.86999 28.9401 3.09999 28.9401C3.10999 28.9401 3.12999 28.9401 3.13999 28.9401C3.14999 28.9401 3.15999 28.9301 3.16999 28.9201C3.17999 28.9101 3.18999 28.9001 3.18999 28.8901C3.18999 28.8801 3.18999 28.8601 3.18999 28.8501C3.18999 28.7301 3.18999 28.6101 3.18999 28.4801C3.18999 28.3601 3.18999 28.2301 3.18999 28.1101C3.18999 27.9901 3.18999 27.8601 3.18999 27.7401C3.18999 27.6201 3.18999 27.4901 3.18999 27.3701C3.18999 27.3601 3.18999 27.3401 3.18999 27.3301C3.18999 27.3201 3.17999 27.3001 3.16999 27.3001C3.14999 27.2801 3.11999 27.2801 3.09999 27.2801C3.00999 27.2801 2.90999 27.2801 2.81999 27.2801C2.72999 27.2801 2.62999 27.2801 2.53999 27.2801C2.50999 27.2801 2.48999 27.2801 2.46999 27.2601C2.46999 27.2601 2.44999 27.2401 2.44999 27.2301C2.44999 27.2201 2.44999 27.2001 2.44999 27.1901C2.44999 27.0601 2.44999 26.9201 2.44999 26.7801C2.44999 26.6401 2.44999 26.5101 2.44999 26.3701C2.44999 26.2301 2.44999 26.1001 2.44999 25.9601C2.44999 25.8201 2.44999 25.6901 2.44999 25.5501C2.44999 25.5401 2.44999 25.5201 2.44999 25.5101C2.44999 25.5001 2.43999 25.4901 2.42999 25.4801C2.42999 25.4801 2.40999 25.4601 2.39999 25.4601C2.38999 25.4601 2.36999 25.4601 2.35999 25.4601C2.18999 25.4601 2.02999 25.4601 1.85999 25.4601C1.68999 25.4601 1.52999 25.4601 1.35999 25.4601C1.18999 25.4601 1.02999 25.4601 0.859989 25.4601C0.689989 25.4601 0.519989 25.4601 0.359989 25.4601C0.349989 25.4601 0.329988 25.4601 0.319988 25.4601C0.309988 25.4601 0.289989 25.4701 0.289989 25.4801C0.269989 25.5001 0.259987 25.5201 0.259987 25.5501C0.259987 25.5801 0.259987 25.6101 0.259987 25.6401C0.259987 25.6701 0.259987 25.7001 0.259987 25.7301C0.259987 25.7601 0.269989 25.7801 0.289989 25.8001C0.309989 25.8201 0.329989 25.8201 0.359989 25.8301C0.419989 25.8301 0.479989 25.8301 0.539989 25.8301C0.559989 25.8301 0.569986 25.8301 0.579986 25.8401C0.589986 25.8401 0.599987 25.8701 0.599987 25.8801C0.599987 25.9001 0.599986 25.9101 0.579986 25.9201C0.559986 25.9301 0.549989 25.9301 0.539989 25.9301C0.489989 25.9301 0.439988 25.9301 0.389988 25.9301C0.339988 25.9301 0.289986 25.9301 0.239986 25.9301C0.209986 25.9301 0.189986 25.9201 0.169986 25.9001C0.149986 25.8801 0.149988 25.8601 0.139988 25.8301C0.139988 25.7601 0.139988 25.6901 0.139988 25.6201C0.139988 25.5501 0.139988 25.4801 0.139988 25.4101C0.139988 25.3801 0.139986 25.3601 0.169986 25.3401C0.169986 25.3401 0.189989 25.3201 0.199989 25.3201C0.209989 25.3201 0.229986 25.3201 0.239986 25.3201C0.419986 25.3201 0.609987 25.3201 0.799987 25.3201C0.989987 25.3201 1.16999 25.3201 1.35999 25.3201C1.72999 25.3201 2.09999 25.3201 2.47999 25.3201L2.47999 25.1101L2.52999 25.1101L2.54999 25.3401L2.51999 25.3701Z" stroke="#010101" stroke-width="0.25" stroke-miterlimit="10"/>
<path d="M13.92 4.42012C13.92 4.42012 13.87 4.43012 13.85 4.42012L13.47 4.04012C13.47 4.04012 13.45 3.99012 13.47 3.97012L13.54 3.90012L13.8 3.64012C13.8 3.64012 13.82 3.59012 13.8 3.57012C13.69 3.46012 13.58 3.35012 13.49 3.26012C13.33 3.10012 13.24 3.01012 13.25 3.02012C13.23 3.00012 13.23 2.97011 13.25 2.95011L13.4 2.80012" stroke="#010101" stroke-width="0.25" stroke-miterlimit="10"/>
<path d="M16.62 2.72005C16.7 2.80005 16.76 2.86005 16.81 2.91005C16.9 3.00005 16.95 3.05005 16.95 3.05005C17 3.10005 17 3.17005 16.95 3.22005L16.62 3.55005" stroke="#010101" stroke-width="0.25" stroke-miterlimit="10"/>
<path d="M13.6 3.83008C13.52 3.75008 13.44 3.67008 13.36 3.59008C13.34 3.57008 13.33 3.56008 13.31 3.54008C13.02 3.25008 12.77 3.00008 12.78 3.01008C12.73 2.96008 12.73 2.89008 12.78 2.84008L13.11 2.51008" stroke="#010101" stroke-width="0.25" stroke-miterlimit="10"/>
<path d="M15.53 7.44012C15.66 7.57012 15.81 7.41012 15.85 7.37012C15.89 7.33012 15.82 7.40012 16.51 6.71012L16.55 6.75012C16.34 7.04012 16.19 7.26012 16.05 7.45012C15.98 7.55012 15.92 7.63012 15.81 7.75012C15.75 7.81012 15.69 7.87012 15.58 7.87012C15.47 7.87012 15.33 7.81012 15.25 7.72012L12.72 5.19012C12.57 5.04012 12.4 4.87012 12.41 4.88012C12.41 4.88012 12.41 4.86012 12.41 4.85012L12.68 4.58012C12.68 4.58012 12.77 4.67012 12.84 4.74012C12.87 4.77012 12.89 4.79012 12.92 4.82012L13.51 5.42012L15.52 7.43012L15.53 7.44012Z" stroke="#010101" stroke-width="0.25" stroke-miterlimit="10"/>
<path d="M11.99 1.25004C9.08999 4.15004 6.65999 7.89004 5.02999 12.09C3.39999 16.3 2.56999 20.96 2.56999 25.54" stroke="#010101" stroke-width="0.25" stroke-miterlimit="10"/>
</g>
<defs>
<clipPath id="clip0_1665_6000">
<rect width="41.14" height="29.23" fill="white" transform="translate(41.14 29.23) rotate(180)"/>
</clipPath>
</defs>
</svg>
