<svg width="42" height="30" viewBox="0 0 42 30" fill="none" xmlns="http://www.w3.org/2000/svg">
<g clip-path="url(#clip0_1665_6025)">
<rect x="41.14" y="29.23" width="41" height="4" transform="rotate(180 41.14 29.23)" fill="white"/>
<path d="M2.64001 25.73L3.64001 26.73L25.64 4.72998L26.14 5.22998L28.14 2.72998L29.14 1.22998L28.14 0.229981L26.64 1.22998L26.14 1.22998L24.14 3.22998L24.14 3.72998L4.14001 23.73L2.64001 25.73Z" fill="white"/>
<path d="M19.6801 11.1499L19.7501 11.0799" stroke="#010101" stroke-width="0.25" stroke-miterlimit="10"/>
<path d="M13.1 17.73L13.3 17.53" stroke="#010101" stroke-width="0.25" stroke-miterlimit="10"/>
<path d="M19.6801 11.15L13.6001 17.23" stroke="#010101" stroke-width="0.25" stroke-miterlimit="10"/>
<path d="M20.03 10.5199L20.17 10.6599" stroke="#010101" stroke-width="0.25" stroke-miterlimit="10"/>
<path d="M11.5801 16.2L12.0701 15.7" stroke="#010101" stroke-width="0.25" stroke-miterlimit="10"/>
<path d="M11.58 16.1998L11.72 16.3398" stroke="#010101" stroke-width="0.25" stroke-miterlimit="10"/>
<path d="M13.2 16.2698L13.03 16.0998" stroke="#010101" stroke-width="0.25" stroke-miterlimit="10"/>
<path d="M18.15 9.62996L12.07 15.71" stroke="#010101" stroke-width="0.25" stroke-miterlimit="10"/>
<path d="M18.15 9.62988L18.64 9.12988" stroke="#010101" stroke-width="0.25" stroke-miterlimit="10"/>
<path d="M13.1 17.73L12.96 17.59" stroke="#010101" stroke-width="0.25" stroke-miterlimit="10"/>
<path d="M18.79 9.26978L18.65 9.12977" stroke="#010101" stroke-width="0.25" stroke-miterlimit="10"/>
<path d="M18.71 10.7498L18.55 10.5898" stroke="#010101" stroke-width="0.25" stroke-miterlimit="10"/>
<path d="M13.03 16.0999L18.54 10.5799" stroke="#010101" stroke-width="0.25" stroke-miterlimit="10"/>
<path d="M19.97 10.8599L20.17 10.6599" stroke="#010101" stroke-width="0.25" stroke-miterlimit="10"/>
<path d="M13.2 16.2698L18.71 10.7598" stroke="#010101" stroke-width="0.25" stroke-miterlimit="10"/>
<path d="M18.7101 10.7499C19.0301 10.8899 19.3501 11.0199 19.6801 11.1499" stroke="#010101" stroke-width="0.25" stroke-miterlimit="10"/>
<path d="M18.55 10.5898L18.15 9.62984" stroke="#010101" stroke-width="0.25" stroke-miterlimit="10"/>
<path d="M12.07 15.7099L13.03 16.1099" stroke="#010101" stroke-width="0.25" stroke-miterlimit="10"/>
<path d="M13.6 17.24C13.47 16.92 13.34 16.6 13.2 16.27" stroke="#010101" stroke-width="0.25" stroke-miterlimit="10"/>
<path d="M13.52 17.3198L13.6 17.2398" stroke="#010101" stroke-width="0.25" stroke-miterlimit="10"/>
<path d="M24.79 2.35986L24.79 2.31986" stroke="#010101" stroke-width="0.25" stroke-miterlimit="10"/>
<path d="M26.29 0.949951C26.29 0.949951 26.41 0.899951 26.46 0.949951" stroke="#010101" stroke-width="0.25" stroke-miterlimit="10"/>
<path d="M24.1801 3.21997C24.1801 3.21997 24.1301 3.09997 24.1801 3.04997" stroke="#010101" stroke-width="0.25" stroke-miterlimit="10"/>
<path d="M25.76 1.47998C25.98 1.25998 26.18 1.05998 26.25 0.989981C26.27 0.969981 26.29 0.94998 26.29 0.94998" stroke="#010101" stroke-width="0.25" stroke-miterlimit="10"/>
<path d="M26.46 0.949785L26.79 1.27979" stroke="#010101" stroke-width="0.25" stroke-miterlimit="10"/>
<path d="M24.51 3.5498L24.18 3.2198" stroke="#010101" stroke-width="0.25" stroke-miterlimit="10"/>
<path d="M27.61 5.43994L27.59 5.43994" stroke="#010101" stroke-width="0.25" stroke-miterlimit="10"/>
<path d="M28.45 4.56985C28.45 4.56985 28.45 4.58985 28.45 4.59985" stroke="#010101" stroke-width="0.25" stroke-miterlimit="10"/>
<path d="M27.6801 3.80982L28.4401 4.56982" stroke="#010101" stroke-width="0.25" stroke-miterlimit="10"/>
<path d="M26.84 4.65994C26.84 4.65994 26.84 4.67994 26.84 4.68994" stroke="#010101" stroke-width="0.25" stroke-miterlimit="10"/>
<path d="M26.86 4.63991L26.84 4.65991" stroke="#010101" stroke-width="0.25" stroke-miterlimit="10"/>
<path d="M26.84 4.67993L27.59 5.42993" stroke="#010101" stroke-width="0.25" stroke-miterlimit="10"/>
<path d="M24.1301 0.889893L24.1201 0.879892" stroke="#010101" stroke-width="0.25" stroke-miterlimit="10"/>
<path d="M24.1301 0.889893C24.1301 0.889893 24.1201 0.869892 24.1201 0.879892" stroke="#010101" stroke-width="0.25" stroke-miterlimit="10"/>
<path d="M24.78 2.32995L24.66 2.44995" stroke="#010101" stroke-width="0.25" stroke-miterlimit="10"/>
<path d="M28.73 4.85989C28.73 4.85989 28.73 4.87989 28.73 4.88989" stroke="#010101" stroke-width="0.25" stroke-miterlimit="10"/>
<path d="M28.46 4.58986L28.73 4.85986" stroke="#010101" stroke-width="0.25" stroke-miterlimit="10"/>
<path d="M24.59 6.74987C24.8 7.03987 24.95 7.25987 25.09 7.44987C25.16 7.54987 25.22 7.62987 25.33 7.74987C25.39 7.80987 25.45 7.86987 25.56 7.86987C25.67 7.86987 25.81 7.80987 25.89 7.71987" stroke="#010101" stroke-width="0.25" stroke-miterlimit="10"/>
<path d="M24.63 6.70975C25.32 7.39975 25.25 7.32975 25.29 7.36975C25.33 7.40975 25.49 7.56975 25.61 7.43975" stroke="#010101" stroke-width="0.25" stroke-miterlimit="10"/>
<path d="M25.89 7.71997C25.89 7.71997 25.89 7.71997 25.88 7.70997" stroke="#010101" stroke-width="0.25" stroke-miterlimit="10"/>
<path d="M28.45 5.21989C28.39 5.28989 28.31 5.34989 28.23 5.38989" stroke="#010101" stroke-width="0.25" stroke-miterlimit="10"/>
<path d="M25.6101 7.43995C25.6101 7.43995 25.6101 7.43995 25.6201 7.44995" stroke="#010101" stroke-width="0.25" stroke-miterlimit="10"/>
<path d="M25.6201 7.45996L25.8701 7.70996" stroke="#010101" stroke-width="0.25" stroke-miterlimit="10"/>
<path d="M28.41 5.17993L28.16 4.92993" stroke="#010101" stroke-width="0.25" stroke-miterlimit="10"/>
<path d="M26.9401 4.5098C26.9401 4.5098 26.8601 4.50979 26.8301 4.53979" stroke="#010101" stroke-width="0.25" stroke-miterlimit="10"/>
<path d="M27.77 3.58995C27.77 3.58995 27.73 3.65995 27.74 3.69995" stroke="#010101" stroke-width="0.25" stroke-miterlimit="10"/>
<path d="M26.98 4.51978L26.94 4.51978" stroke="#010101" stroke-width="0.25" stroke-miterlimit="10"/>
<path d="M27.7401 3.70975L27.7401 3.74976" stroke="#010101" stroke-width="0.25" stroke-miterlimit="10"/>
<path d="M27.8301 3.53979C28.1201 3.24979 28.3701 2.9998 28.3601 3.0098" stroke="#010101" stroke-width="0.25" stroke-miterlimit="10"/>
<path d="M26.2501 5.11987C26.2501 5.11987 26.1301 5.16987 26.0801 5.11987" stroke="#010101" stroke-width="0.25" stroke-miterlimit="10"/>
<path d="M28.35 2.84978C28.35 2.84978 28.4 2.96978 28.35 3.01978" stroke="#010101" stroke-width="0.25" stroke-miterlimit="10"/>
<path d="M26.08 5.11987L25.75 4.78987" stroke="#010101" stroke-width="0.25" stroke-miterlimit="10"/>
<path d="M28.03 2.51985L28.36 2.84985" stroke="#010101" stroke-width="0.25" stroke-miterlimit="10"/>
<path d="M24.47 1.07991L24.39 1.15991" stroke="#010101" stroke-width="0.25" stroke-miterlimit="10"/>
<path d="M22.55 4.71997C22.26 4.50997 22.04 4.35997 21.85 4.21997C21.75 4.14997 21.67 4.08997 21.55 3.97997C21.49 3.91997 21.43 3.85997 21.43 3.74997C21.43 3.63997 21.49 3.49997 21.58 3.41997" stroke="#010101" stroke-width="0.25" stroke-miterlimit="10"/>
<path d="M22.59 4.67993C21.9 3.98993 21.97 4.05993 21.93 4.01993C21.89 3.97993 21.73 3.81993 21.86 3.69993" stroke="#010101" stroke-width="0.25" stroke-miterlimit="10"/>
<path d="M21.58 3.40992C21.58 3.40992 21.58 3.40992 21.59 3.41992" stroke="#010101" stroke-width="0.25" stroke-miterlimit="10"/>
<path d="M21.86 3.68994C21.86 3.68994 21.86 3.68994 21.85 3.67994" stroke="#010101" stroke-width="0.25" stroke-miterlimit="10"/>
<path d="M21.85 3.67993L21.6 3.42993" stroke="#010101" stroke-width="0.25" stroke-miterlimit="10"/>
<path d="M24.1301 0.889893L24.3801 1.13989" stroke="#010101" stroke-width="0.25" stroke-miterlimit="10"/>
<path d="M24.7 0.859863C24.7 0.859863 24.72 0.859863 24.73 0.859863" stroke="#010101" stroke-width="0.25" stroke-miterlimit="10"/>
<path d="M28.6201 4.99997C28.5701 5.07997 28.5101 5.15997 28.4501 5.21997" stroke="#010101" stroke-width="0.25" stroke-miterlimit="10"/>
<path d="M24.67 2.44997L24.65 2.46997" stroke="#010101" stroke-width="0.25" stroke-miterlimit="10"/>
<path d="M24.7301 0.859873L25.4901 1.61987" stroke="#010101" stroke-width="0.25" stroke-miterlimit="10"/>
<path d="M23.8701 1.68997C23.8701 1.68997 23.8701 1.70997 23.8701 1.71997" stroke="#010101" stroke-width="0.25" stroke-miterlimit="10"/>
<path d="M24.65 2.45996C24.65 2.45996 24.63 2.45996 24.62 2.45996" stroke="#010101" stroke-width="0.25" stroke-miterlimit="10"/>
<path d="M24.43 0.559843L24.71 0.839844" stroke="#010101" stroke-width="0.25" stroke-miterlimit="10"/>
<path d="M24.6201 2.45996L23.8701 1.70996" stroke="#010101" stroke-width="0.25" stroke-miterlimit="10"/>
<path d="M27.5601 3.93977C27.4101 4.08977 27.0901 4.40978 26.9801 4.51978" stroke="#010101" stroke-width="0.25" stroke-miterlimit="10"/>
<path d="M24.11 0.879911L21.58 3.40991" stroke="#010101" stroke-width="0.25" stroke-miterlimit="10"/>
<path d="M23.91 1.07983C23.96 0.999834 24.02 0.919833 24.08 0.859833" stroke="#010101" stroke-width="0.25" stroke-miterlimit="10"/>
<path d="M24.0901 0.859863C24.1501 0.789863 24.2301 0.729863 24.3101 0.689863" stroke="#010101" stroke-width="0.25" stroke-miterlimit="10"/>
<path d="M24.18 3.05981C24.18 3.05981 24.22 3.01982 24.31 2.92982C24.57 2.66982 25.33 1.90981 25.76 1.47981" stroke="#010101" stroke-width="0.25" stroke-miterlimit="10"/>
<path d="M25.5601 1.54983C25.5601 1.54983 25.4801 1.62983 25.3701 1.73983C25.2001 1.90983 24.9301 2.17983 24.8301 2.27983C24.8001 2.30983 24.7901 2.31983 24.7801 2.32983" stroke="#010101" stroke-width="0.25" stroke-miterlimit="10"/>
<path d="M28.46 4.58983C28.46 4.58983 28.39 4.65983 28.3 4.74983C28.27 4.77983 28.25 4.79983 28.22 4.82983" stroke="#010101" stroke-width="0.25" stroke-miterlimit="10"/>
<path d="M28.14 4.90994L25.61 7.43994" stroke="#010101" stroke-width="0.25" stroke-miterlimit="10"/>
<path d="M26.25 5.11987C26.25 5.11987 26.29 5.07987 26.38 4.98987C26.64 4.72987 27.4 3.96987 27.83 3.53987" stroke="#010101" stroke-width="0.25" stroke-miterlimit="10"/>
<path d="M24.72 0.839834C24.72 0.839834 24.65 0.909834 24.56 0.999834C24.53 1.02983 24.51 1.04983 24.48 1.07983" stroke="#010101" stroke-width="0.25" stroke-miterlimit="10"/>
<path d="M24.39 1.15994L21.86 3.68994" stroke="#010101" stroke-width="0.25" stroke-miterlimit="10"/>
<path d="M28.22 4.82991L28.14 4.90991" stroke="#010101" stroke-width="0.25" stroke-miterlimit="10"/>
<path d="M28.42 5.18997L25.89 7.71997" stroke="#010101" stroke-width="0.25" stroke-miterlimit="10"/>
<path d="M28.73 4.88995C28.73 4.88995 28.57 5.04995 28.42 5.19995" stroke="#010101" stroke-width="0.25" stroke-miterlimit="10"/>
<path d="M28.41 5.17994L28.42 5.18994" stroke="#010101" stroke-width="0.25" stroke-miterlimit="10"/>
<path d="M27.7501 3.73993C27.7501 3.73993 27.6601 3.82993 27.5601 3.92993" stroke="#010101" stroke-width="0.25" stroke-miterlimit="10"/>
<path d="M26.98 4.51989L26.86 4.63989" stroke="#010101" stroke-width="0.25" stroke-miterlimit="10"/>
<path d="M25.6 1.55981C25.6 1.55981 25.68 1.55981 25.71 1.52981" stroke="#010101" stroke-width="0.25" stroke-miterlimit="10"/>
<path d="M24.76 2.47998C24.76 2.47998 24.8 2.40998 24.79 2.36998" stroke="#010101" stroke-width="0.25" stroke-miterlimit="10"/>
<path d="M25.56 1.5498L25.6 1.5498" stroke="#010101" stroke-width="0.25" stroke-miterlimit="10"/>
<path d="M24.4301 0.559883C24.3801 0.609883 24.2301 0.759883 24.1101 0.879883" stroke="#010101" stroke-width="0.25" stroke-miterlimit="10"/>
<path d="M27.9001 0.159912C27.9001 0.159912 28.0101 0.119912 28.0601 0.159912" stroke="#010101" stroke-width="0.25" stroke-miterlimit="10"/>
<path d="M29.15 1.24976L28.06 0.159756" stroke="#010101" stroke-width="0.25" stroke-miterlimit="10"/>
<path d="M29.15 1.24991C29.15 1.24991 29.19 1.35991 29.15 1.40991" stroke="#010101" stroke-width="0.25" stroke-miterlimit="10"/>
<path d="M2.57004 25.5398C2.57004 25.5398 2.58004 25.4798 2.60004 25.4598" stroke="#010101" stroke-width="0.25" stroke-miterlimit="10"/>
<path d="M2.61005 25.6199C2.61005 25.6199 2.58004 25.5699 2.58004 25.5399" stroke="#010101" stroke-width="0.25" stroke-miterlimit="10"/>
<path d="M2.61001 25.62L3.70001 26.71" stroke="#010101" stroke-width="0.25" stroke-miterlimit="10"/>
<path d="M19.54 11.0098L19.48 11.0698" stroke="#010101" stroke-width="0.25" stroke-miterlimit="10"/>
<path d="M12.21 15.8499L12.27 15.7899" stroke="#010101" stroke-width="0.25" stroke-miterlimit="10"/>
<path d="M3.85004 26.7C3.85004 26.7 3.74004 26.74 3.69004 26.7" stroke="#010101" stroke-width="0.25" stroke-miterlimit="10"/>
<path d="M13.46 17.09L13.32 17.23" stroke="#010101" stroke-width="0.25" stroke-miterlimit="10"/>
<path d="M13.22 17.33L12.97 17.58L3.86003 26.7" stroke="#010101" stroke-width="0.25" stroke-miterlimit="10"/>
<path d="M29.15 1.39979L20.04 10.5198L19.78 10.7798" stroke="#010101" stroke-width="0.25" stroke-miterlimit="10"/>
<path d="M19.67 10.8798L19.54 11.0098" stroke="#010101" stroke-width="0.25" stroke-miterlimit="10"/>
<path d="M2.61002 25.46L11.72 16.34L12.21 15.84" stroke="#010101" stroke-width="0.25" stroke-miterlimit="10"/>
<path d="M18.29 9.76978L18.78 9.26978L27.89 0.149775" stroke="#010101" stroke-width="0.25" stroke-miterlimit="10"/>
<path d="M13.52 17.0399L13.46 17.0999" stroke="#010101" stroke-width="0.25" stroke-miterlimit="10"/>
<path d="M18.23 9.82983L18.29 9.76983" stroke="#010101" stroke-width="0.25" stroke-miterlimit="10"/>
<path d="M13.28 17.3999L13.25 17.3699" stroke="#010101" stroke-width="0.25" stroke-miterlimit="10"/>
<path d="M13.18 17.2998L13.21 17.3298" stroke="#010101" stroke-width="0.25" stroke-miterlimit="10"/>
<path d="M13.14 17.2598L13.17 17.2898" stroke="#010101" stroke-width="0.25" stroke-miterlimit="10"/>
<path d="M13.14 17.23L13.15 17.23" stroke="#010101" stroke-width="0.25" stroke-miterlimit="10"/>
<path d="M19.73 10.7398L19.76 10.7698" stroke="#010101" stroke-width="0.25" stroke-miterlimit="10"/>
<path d="M13.1301 17.2398L13.1301 17.2598" stroke="#010101" stroke-width="0.25" stroke-miterlimit="10"/>
<path d="M19.8 11.1199L19.79 11.1199" stroke="#010101" stroke-width="0.25" stroke-miterlimit="10"/>
<path d="M19.83 10.8398L19.8 10.8098" stroke="#010101" stroke-width="0.25" stroke-miterlimit="10"/>
<path d="M13.55 17.3499L13.51 17.3099" stroke="#010101" stroke-width="0.25" stroke-miterlimit="10"/>
<path d="M19.8 10.8098L19.77 10.7798" stroke="#010101" stroke-width="0.25" stroke-miterlimit="10"/>
<path d="M18.3801 12.5198L18.3501 12.4898" stroke="#010101" stroke-width="0.25" stroke-miterlimit="10"/>
<path d="M13.35 17.5798L13.34 17.5798" stroke="#010101" stroke-width="0.25" stroke-miterlimit="10"/>
<path d="M18.6 12.2998L18.57 12.2698" stroke="#010101" stroke-width="0.25" stroke-miterlimit="10"/>
<path d="M13.33 17.5698L13.29 17.5298" stroke="#010101" stroke-width="0.25" stroke-miterlimit="10"/>
<path d="M20.0001 10.8899L19.9601 10.8499" stroke="#010101" stroke-width="0.25" stroke-miterlimit="10"/>
<path d="M13.35 17.47L13.31 17.43" stroke="#010101" stroke-width="0.25" stroke-miterlimit="10"/>
<path d="M13.3101 17.4299L13.2801 17.3999" stroke="#010101" stroke-width="0.25" stroke-miterlimit="10"/>
<path d="M14.7401 16.1499L14.7101 16.1199" stroke="#010101" stroke-width="0.25" stroke-miterlimit="10"/>
<path d="M13.36 17.5798L13.35 17.5798" stroke="#010101" stroke-width="0.25" stroke-miterlimit="10"/>
<path d="M14.78 16.1599L14.77 16.1599" stroke="#010101" stroke-width="0.25" stroke-miterlimit="10"/>
<path d="M14.96 15.9299L14.93 15.8999" stroke="#010101" stroke-width="0.25" stroke-miterlimit="10"/>
<path d="M14.76 16.1599L14.75 16.1599" stroke="#010101" stroke-width="0.25" stroke-miterlimit="10"/>
<path d="M19.58 10.7898L19.58 10.8098" stroke="#010101" stroke-width="0.25" stroke-miterlimit="10"/>
<path d="M19.59 10.7798L19.6 10.7798" stroke="#010101" stroke-width="0.25" stroke-miterlimit="10"/>
<path d="M19.5901 10.8098L19.6201 10.8398" stroke="#010101" stroke-width="0.25" stroke-miterlimit="10"/>
<path d="M18.41 12.5298L18.4 12.5298" stroke="#010101" stroke-width="0.25" stroke-miterlimit="10"/>
<path d="M19.63 10.8399L19.66 10.8699" stroke="#010101" stroke-width="0.25" stroke-miterlimit="10"/>
<path d="M19.73 10.9399L19.7 10.9099" stroke="#010101" stroke-width="0.25" stroke-miterlimit="10"/>
<path d="M18.4 12.5298L18.39 12.5298" stroke="#010101" stroke-width="0.25" stroke-miterlimit="10"/>
<path d="M19.7 10.9099L19.67 10.8799" stroke="#010101" stroke-width="0.25" stroke-miterlimit="10"/>
<path d="M19.8701 10.8699L19.8401 10.8399" stroke="#010101" stroke-width="0.25" stroke-miterlimit="10"/>
<path d="M19.91 10.9199L19.87 10.8799" stroke="#010101" stroke-width="0.25" stroke-miterlimit="10"/>
<path d="M19.68 10.6899L19.7 10.6899" stroke="#010101" stroke-width="0.25" stroke-miterlimit="10"/>
<path d="M13.35 17.2598L13.32 17.2298" stroke="#010101" stroke-width="0.25" stroke-miterlimit="10"/>
<path d="M13.3801 17.2898L13.3501 17.2598" stroke="#010101" stroke-width="0.25" stroke-miterlimit="10"/>
<path d="M13.2801 17.19L13.3101 17.22" stroke="#010101" stroke-width="0.25" stroke-miterlimit="10"/>
<path d="M13.25 17.1599L13.28 17.1899" stroke="#010101" stroke-width="0.25" stroke-miterlimit="10"/>
<path d="M19.8201 11.1299L19.8101 11.1299" stroke="#010101" stroke-width="0.25" stroke-miterlimit="10"/>
<path d="M13.22 17.1599L13.21 17.1599" stroke="#010101" stroke-width="0.25" stroke-miterlimit="10"/>
<path d="M19.76 10.98L19.73 10.95" stroke="#010101" stroke-width="0.25" stroke-miterlimit="10"/>
<path d="M19.67 10.7L19.66 10.7" stroke="#010101" stroke-width="0.25" stroke-miterlimit="10"/>
<path d="M13.2301 17.1499L13.2501 17.1499" stroke="#010101" stroke-width="0.25" stroke-miterlimit="10"/>
<path d="M19.8101 11.0198L19.7701 10.9798" stroke="#010101" stroke-width="0.25" stroke-miterlimit="10"/>
<path d="M13.46 17.3699L13.42 17.3299" stroke="#010101" stroke-width="0.25" stroke-miterlimit="10"/>
<path d="M13.41 17.3298L13.38 17.2998" stroke="#010101" stroke-width="0.25" stroke-miterlimit="10"/>
<path d="M19.78 11.1099L19.74 11.0699" stroke="#010101" stroke-width="0.25" stroke-miterlimit="10"/>
<path d="M13.2401 17.3599L13.2101 17.3299" stroke="#010101" stroke-width="0.25" stroke-miterlimit="10"/>
<path d="M19.7 10.71L19.73 10.74" stroke="#010101" stroke-width="0.25" stroke-miterlimit="10"/>
<path d="M2.57006 25.5398C2.57006 25.7998 2.57006 26.0598 2.57006 26.3098C2.57006 26.4398 2.57006 26.5698 2.57006 26.6998C2.57006 26.8298 2.57006 26.9598 2.57006 27.0898C2.57006 27.0998 2.57006 27.1198 2.57006 27.1298C2.57006 27.1398 2.58006 27.1598 2.59006 27.1598C2.61006 27.1798 2.64006 27.1798 2.66006 27.1798C2.75006 27.1798 2.85006 27.1798 2.94006 27.1798C3.03006 27.1798 3.13006 27.1798 3.22006 27.1798C3.25006 27.1798 3.27006 27.1798 3.29006 27.1998C3.29006 27.1998 3.31006 27.2198 3.31006 27.2298C3.31006 27.2398 3.31006 27.2598 3.31006 27.2698C3.31006 27.4098 3.31006 27.5498 3.31006 27.6998C3.31006 27.8398 3.31006 27.9898 3.31006 28.1298C3.31006 28.2698 3.31006 28.4198 3.31006 28.5598C3.31006 28.6998 3.31006 28.8498 3.31006 28.9898C3.31006 28.9998 3.31006 29.0198 3.31006 29.0298C3.31006 29.0398 3.30006 29.0498 3.29006 29.0598C3.29006 29.0598 3.27006 29.0798 3.26006 29.0798C3.25006 29.0798 3.23006 29.0798 3.22006 29.0798C2.97006 29.0798 2.72006 29.0798 2.47006 29.0798C2.22006 29.0798 1.97006 29.0798 1.72006 29.0798C1.47006 29.0798 1.22006 29.0798 0.970062 29.0798C0.720062 29.0798 0.470062 29.0798 0.220062 29.0798C0.210062 29.0798 0.190061 29.0798 0.180061 29.0798C0.170061 29.0798 0.160059 29.0698 0.150059 29.0598C0.150059 29.0598 0.130062 29.0398 0.130062 29.0298C0.130062 29.0198 0.130062 28.9998 0.130062 28.9898C0.130062 28.8398 0.130062 28.6798 0.130062 28.5298C0.130062 28.3798 0.130062 28.2198 0.130062 28.0698C0.130062 28.0598 0.130062 28.0398 0.130062 28.0298C0.130062 28.0198 0.140059 27.9998 0.150059 27.9998C0.170059 27.9798 0.200062 27.9798 0.220062 27.9698C0.270062 27.9698 0.32006 27.9698 0.37006 27.9698C0.42006 27.9698 0.470061 27.9698 0.520061 27.9698C0.540061 27.9698 0.550058 27.9698 0.560058 27.9798C0.570058 27.9798 0.580059 28.0098 0.580059 28.0198C0.580059 28.0498 0.550061 28.0798 0.520061 28.0798" stroke="#010101" stroke-width="0.25" stroke-miterlimit="10"/>
<path d="M38.62 25.3699L38.64 25.1399" stroke="#010101" stroke-width="0.25" stroke-miterlimit="10"/>
<path d="M38.68 25.3599C39.05 25.3599 39.42 25.3599 39.8 25.3599C39.99 25.3599 40.17 25.3599 40.36 25.3599C40.55 25.3599 40.73 25.3599 40.92 25.3599C40.93 25.3599 40.95 25.3599 40.96 25.3599C40.97 25.3599 40.99 25.3699 40.99 25.3799C41.01 25.3999 41.01 25.4299 41.02 25.4499C41.02 25.5199 41.02 25.5899 41.02 25.6599C41.02 25.7299 41.02 25.7999 41.02 25.8699C41.02 25.8999 41.02 25.9199 40.99 25.9399C40.97 25.9599 40.95 25.9599 40.92 25.9699C40.87 25.9699 40.82 25.9699 40.77 25.9699C40.72 25.9699 40.67 25.9699 40.62 25.9699C40.6 25.9699 40.59 25.9699 40.58 25.9599C40.57 25.9599 40.56 25.9299 40.56 25.9199C40.56 25.8999 40.56 25.8899 40.58 25.8799C40.59 25.8799 40.61 25.8699 40.62 25.8699C40.68 25.8699 40.74 25.8699 40.8 25.8699C40.83 25.8699 40.85 25.8699 40.87 25.8399C40.89 25.8199 40.9 25.7999 40.9 25.7699C40.9 25.7399 40.9 25.7099 40.9 25.6799C40.9 25.6499 40.9 25.6199 40.9 25.5899C40.9 25.5599 40.9 25.5399 40.87 25.5199C40.87 25.5199 40.85 25.4999 40.84 25.4999C40.83 25.4999 40.81 25.4999 40.8 25.4999C40.64 25.4999 40.47 25.4999 40.3 25.4999C40.13 25.4999 39.97 25.4999 39.8 25.4999C39.63 25.4999 39.47 25.4999 39.3 25.4999C39.13 25.4999 38.96 25.4999 38.8 25.4999C38.79 25.4999 38.77 25.4999 38.76 25.4999C38.75 25.4999 38.74 25.5099 38.73 25.5199C38.72 25.5299 38.71 25.5399 38.71 25.5499C38.71 25.5599 38.71 25.5799 38.71 25.5899C38.71 25.7199 38.71 25.8599 38.71 25.9999C38.71 26.1399 38.71 26.2699 38.71 26.4099C38.71 26.5499 38.71 26.6799 38.71 26.8199C38.71 26.9599 38.71 27.0899 38.71 27.2299C38.71 27.2399 38.71 27.2599 38.71 27.2699C38.71 27.2799 38.7 27.2999 38.69 27.2999C38.67 27.3199 38.64 27.3199 38.62 27.3199C38.53 27.3199 38.43 27.3199 38.34 27.3199C38.25 27.3199 38.15 27.3199 38.06 27.3199C38.03 27.3199 38.01 27.3199 37.99 27.3399C37.99 27.3399 37.97 27.3599 37.97 27.3699C37.97 27.3799 37.97 27.3999 37.97 27.4099C37.97 27.5299 37.97 27.6499 37.97 27.7799C37.97 27.8999 37.97 28.0299 37.97 28.1499C37.97 28.2699 37.97 28.3999 37.97 28.5199C37.97 28.6399 37.97 28.7699 37.97 28.8899C37.97 28.8999 37.97 28.9199 37.97 28.9299C37.97 28.9399 37.98 28.9499 37.99 28.9599C37.99 28.9599 38.01 28.9799 38.02 28.9799C38.03 28.9799 38.05 28.9799 38.06 28.9799C38.29 28.9799 38.52 28.9799 38.75 28.9799C38.98 28.9799 39.21 28.9799 39.44 28.9799C39.67 28.9799 39.9 28.9799 40.13 28.9799C40.36 28.9799 40.59 28.9799 40.82 28.9799C40.83 28.9799 40.85 28.9799 40.86 28.9799C40.87 28.9799 40.89 28.9699 40.9 28.9599C40.92 28.9399 40.92 28.9099 40.92 28.8899C40.92 28.7799 40.92 28.6599 40.92 28.5499C40.92 28.4399 40.92 28.3199 40.92 28.2099C40.92 28.1799 40.92 28.1599 40.9 28.1399C40.88 28.1199 40.86 28.1199 40.83 28.1099C40.77 28.1099 40.71 28.1099 40.65 28.1099C40.63 28.1099 40.62 28.1099 40.61 28.0999C40.6 28.0999 40.59 28.0699 40.59 28.0599C40.59 28.0399 40.59 28.0299 40.61 28.0199C40.62 28.0199 40.64 28.0099 40.65 28.0099C40.7 28.0099 40.75 28.0099 40.8 28.0099C40.85 28.0099 40.9 28.0099 40.95 28.0099C40.98 28.0099 41 28.0099 41.02 28.0399C41.02 28.0399 41.04 28.0599 41.04 28.0699C41.04 28.0799 41.04 28.0999 41.04 28.1099C41.04 28.2599 41.04 28.4099 41.04 28.5699C41.04 28.7299 41.04 28.8799 41.04 29.0299C41.04 29.0399 41.04 29.0599 41.04 29.0699C41.04 29.0799 41.03 29.0899 41.02 29.0999C41.02 29.0999 41 29.1199 40.99 29.1199C40.98 29.1199 40.96 29.1199 40.95 29.1199C40.7 29.1199 40.45 29.1199 40.2 29.1199C39.95 29.1199 39.7 29.1199 39.45 29.1199C39.2 29.1199 38.95 29.1199 38.7 29.1199C38.45 29.1199 38.2 29.1199 37.95 29.1199C37.94 29.1199 37.92 29.1199 37.91 29.1199C37.9 29.1199 37.89 29.1099 37.88 29.0999C37.88 29.0999 37.86 29.0799 37.86 29.0699C37.86 29.0599 37.86 29.0399 37.86 29.0299C37.86 28.8899 37.86 28.7499 37.86 28.5999C37.86 28.4599 37.86 28.3099 37.86 28.1699C37.86 28.0299 37.86 27.8799 37.86 27.7399C37.86 27.5999 37.86 27.4499 37.86 27.3099C37.86 27.2999 37.86 27.2799 37.86 27.2699C37.86 27.2599 37.87 27.2399 37.88 27.2399C37.9 27.2199 37.93 27.2199 37.95 27.2199C38.04 27.2199 38.14 27.2199 38.23 27.2199C38.32 27.2199 38.42 27.2199 38.51 27.2199C38.54 27.2199 38.56 27.2199 38.58 27.1999C38.58 27.1999 38.6 27.1799 38.6 27.1699C38.6 27.1599 38.6 27.1399 38.6 27.1299C38.6 26.9999 38.6 26.8599 38.6 26.7199C38.6 26.5799 38.6 26.4499 38.6 26.3099C38.6 26.0399 38.6 25.7699 38.6 25.4999C38.6 25.4699 38.6 25.4299 38.64 25.4099" stroke="#010101" stroke-width="0.25" stroke-miterlimit="10"/>
<path d="M38.67 25.1399L38.67 25.3499" stroke="#010101" stroke-width="0.25" stroke-miterlimit="10"/>
<path d="M0.520012 28.1C0.460012 28.1 0.400012 28.1 0.340012 28.1C0.310012 28.1 0.290012 28.1 0.270012 28.13C0.250012 28.15 0.250011 28.17 0.250011 28.2C0.240011 28.32 0.250011 28.43 0.250011 28.54C0.250011 28.65 0.250011 28.77 0.250011 28.88C0.250011 28.91 0.250012 28.93 0.270012 28.95C0.270012 28.95 0.290009 28.97 0.310009 28.97C0.330009 28.97 0.34001 28.97 0.35001 28.97C0.58001 28.97 0.810012 28.97 1.04001 28.97C1.27001 28.97 1.50001 28.97 1.73001 28.97C1.96001 28.97 2.19001 28.97 2.42001 28.97C2.65001 28.97 2.88001 28.97 3.11001 28.97C3.12001 28.97 3.14001 28.97 3.15001 28.97C3.16001 28.97 3.17001 28.96 3.18001 28.95C3.19001 28.94 3.20001 28.93 3.20001 28.92C3.20001 28.91 3.20001 28.89 3.20001 28.88C3.20001 28.76 3.20001 28.64 3.20001 28.51C3.20001 28.39 3.20001 28.26 3.20001 28.14C3.20001 28.02 3.20001 27.89 3.20001 27.77C3.20001 27.65 3.20001 27.52 3.20001 27.4C3.20001 27.39 3.20001 27.37 3.20001 27.36C3.20001 27.35 3.19001 27.33 3.18001 27.33C3.16001 27.31 3.13001 27.31 3.11001 27.31C3.02001 27.31 2.92001 27.31 2.83001 27.31C2.74001 27.31 2.64001 27.31 2.55001 27.31C2.52001 27.31 2.50001 27.31 2.48001 27.29C2.48001 27.29 2.46001 27.27 2.46001 27.26C2.46001 27.25 2.46001 27.23 2.46001 27.22C2.46001 27.09 2.46001 26.95 2.46001 26.81C2.46001 26.67 2.46001 26.54 2.46001 26.4C2.46001 26.26 2.46001 26.13 2.46001 25.99C2.46001 25.85 2.46001 25.72 2.46001 25.58C2.46001 25.57 2.46001 25.55 2.46001 25.54C2.46001 25.53 2.45001 25.52 2.44001 25.51C2.44001 25.51 2.42001 25.49 2.41001 25.49C2.40001 25.49 2.38001 25.49 2.37001 25.49C2.20001 25.49 2.04001 25.49 1.87001 25.49C1.70001 25.49 1.54001 25.49 1.37001 25.49C1.20001 25.49 1.04001 25.49 0.87001 25.49C0.70001 25.49 0.53001 25.49 0.37001 25.49C0.36001 25.49 0.340009 25.49 0.330009 25.49C0.320009 25.49 0.30001 25.5 0.30001 25.51C0.28001 25.53 0.270012 25.55 0.270012 25.58C0.270012 25.61 0.270012 25.64 0.270012 25.67C0.270012 25.7 0.270012 25.73 0.270012 25.76C0.270012 25.79 0.28001 25.81 0.30001 25.83C0.32001 25.85 0.34001 25.85 0.37001 25.86C0.43001 25.86 0.49001 25.86 0.55001 25.86C0.57001 25.86 0.580011 25.86 0.590011 25.87C0.600011 25.87 0.610012 25.9 0.610012 25.91C0.610012 25.93 0.610011 25.94 0.590011 25.95C0.570011 25.96 0.56001 25.96 0.55001 25.96C0.50001 25.96 0.450009 25.96 0.400009 25.96C0.350009 25.96 0.300011 25.96 0.250011 25.96C0.220011 25.96 0.200011 25.95 0.180011 25.93C0.160011 25.91 0.160009 25.89 0.150009 25.86C0.150009 25.79 0.150009 25.72 0.150009 25.65C0.150009 25.58 0.150009 25.51 0.150009 25.44C0.150009 25.41 0.150011 25.39 0.180011 25.37C0.180011 25.37 0.20001 25.35 0.21001 25.35C0.22001 25.35 0.240011 25.35 0.250011 25.35C0.430011 25.35 0.620009 25.35 0.810009 25.35C1.00001 25.35 1.18001 25.35 1.37001 25.35C1.56001 25.35 1.74001 25.35 1.93001 25.35C2.12001 25.35 2.31001 25.35 2.49001 25.35C2.50001 25.35 2.52001 25.35 2.53001 25.35C2.54001 25.35 2.55001 25.36 2.56001 25.37C2.58001 25.39 2.59001 25.41 2.59001 25.44C2.59001 25.47 2.59001 25.49 2.59001 25.52" stroke="#010101" stroke-width="0.25" stroke-miterlimit="10"/>
<path d="M38.67 25.1399L38.63 25.1399" stroke="#010101" stroke-width="0.25" stroke-miterlimit="10"/>
<path d="M22.55 4.71997L22.59 4.67997" stroke="#010101" stroke-width="0.25" stroke-miterlimit="10"/>
<path d="M13.46 17.3699L13.52 17.3099" stroke="#010101" stroke-width="0.25" stroke-miterlimit="10"/>
<path d="M2.54007 24.5398C2.31915 24.5398 2.14006 24.7189 2.14006 24.9398C2.14006 25.1608 2.31915 25.3398 2.54007 25.3398C2.76098 25.3398 2.94006 25.1608 2.94006 24.9398C2.94006 24.7189 2.76098 24.5398 2.54007 24.5398Z" stroke="#010101" stroke-width="0.25" stroke-miterlimit="10"/>
<path d="M19.91 10.9199L19.97 10.8599" stroke="#010101" stroke-width="0.25" stroke-miterlimit="10"/>
<path d="M18.61 12.3499L18.54 12.4199" stroke="#010101" stroke-width="0.25" stroke-miterlimit="10"/>
<path d="M18.47 12.4199L18.5 12.3899L18.53 12.4199" stroke="#010101" stroke-width="0.25" stroke-miterlimit="10"/>
<path d="M18.4701 12.42L18.5001 12.45" stroke="#010101" stroke-width="0.25" stroke-miterlimit="10"/>
<path d="M18.44 12.5298L18.51 12.4598" stroke="#010101" stroke-width="0.25" stroke-miterlimit="10"/>
<path d="M24.6301 6.70975L24.5901 6.74976" stroke="#010101" stroke-width="0.25" stroke-miterlimit="10"/>
<path d="M14.97 15.9898L14.9 16.0598" stroke="#010101" stroke-width="0.25" stroke-miterlimit="10"/>
<path d="M14.83 16.0498L14.86 16.0198L14.89 16.0498" stroke="#010101" stroke-width="0.25" stroke-miterlimit="10"/>
<path d="M14.83 16.0498L14.86 16.0798" stroke="#010101" stroke-width="0.25" stroke-miterlimit="10"/>
<path d="M14.8001 16.1599L14.8701 16.0899" stroke="#010101" stroke-width="0.25" stroke-miterlimit="10"/>
<path d="M20.01 10.9498L19.94 11.0198" stroke="#010101" stroke-width="0.25" stroke-miterlimit="10"/>
<path d="M19.6801 10.6898L19.5901 10.7798" stroke="#010101" stroke-width="0.25" stroke-miterlimit="10"/>
<path d="M13.35 17.4698L13.29 17.5298" stroke="#010101" stroke-width="0.25" stroke-miterlimit="10"/>
<path d="M19.8701 11.0198L19.9001 10.9898L19.9301 11.0198" stroke="#010101" stroke-width="0.25" stroke-miterlimit="10"/>
<path d="M2.54002 24.5199C2.30806 24.5199 2.12002 24.7079 2.12002 24.9399C2.12002 25.1718 2.30806 25.3599 2.54002 25.3599C2.77198 25.3599 2.96002 25.1718 2.96002 24.9399C2.96002 24.7079 2.77198 24.5199 2.54002 24.5199Z" stroke="#010101" stroke-width="0.25" stroke-miterlimit="10"/>
<path d="M13.39 17.5698L13.46 17.4998" stroke="#010101" stroke-width="0.25" stroke-miterlimit="10"/>
<path d="M13.42 17.4698L13.45 17.4998" stroke="#010101" stroke-width="0.25" stroke-miterlimit="10"/>
<path d="M19.87 11.0198L19.9 11.0498" stroke="#010101" stroke-width="0.25" stroke-miterlimit="10"/>
<path d="M13.42 17.47L13.45 17.44L13.48 17.47" stroke="#010101" stroke-width="0.25" stroke-miterlimit="10"/>
<path d="M13.23 17.15L13.14 17.24" stroke="#010101" stroke-width="0.25" stroke-miterlimit="10"/>
<path d="M19.84 11.1199L19.91 11.0499" stroke="#010101" stroke-width="0.25" stroke-miterlimit="10"/>
<path d="M13.5601 17.4L13.4901 17.47" stroke="#010101" stroke-width="0.25" stroke-miterlimit="10"/>
<path d="M19.8101 11.0198L19.7501 11.0798" stroke="#010101" stroke-width="0.25" stroke-miterlimit="10"/>
</g>
<defs>
<clipPath id="clip0_1665_6025">
<rect width="41.14" height="29.23" fill="white" transform="translate(41.14 29.23) rotate(180)"/>
</clipPath>
</defs>
</svg>
