<svg width="55" height="20" viewBox="0 0 55 20" fill="none" xmlns="http://www.w3.org/2000/svg">
<g clip-path="url(#clip0_1493_1417)">
<path d="M54.36 0.120117H0.119995V19.3401H54.36V0.120117Z" fill="white"/>
<path d="M37.44 0.90002C37.5449 0.90002 37.63 0.814954 37.63 0.71002C37.63 0.605085 37.5449 0.52002 37.44 0.52002C37.3351 0.52002 37.25 0.605085 37.25 0.71002C37.25 0.814954 37.3351 0.90002 37.44 0.90002Z" stroke="#010101" stroke-width="0.25" stroke-miterlimit="10"/>
<path d="M3.74 3.74013C3.74 3.74013 3.68 3.68013 3.65 3.65013C3.63 3.63013 3.62 3.62013 3.6 3.60013C3.58 3.58013 3.57 3.57013 3.55 3.55013C3.53 3.53013 3.52 3.52013 3.5 3.50013C3.48 3.48013 3.47 3.47013 3.45 3.45013C3.43 3.43013 3.42 3.42013 3.4 3.40013C3.38 3.38013 3.37 3.37013 3.35 3.35013C3.33 3.33013 3.32 3.32013 3.3 3.30013C3.28 3.28013 3.27 3.27013 3.25 3.25013C3.22 3.22013 3.18 3.18013 3.13 3.13013V15.7301" stroke="#010101" stroke-width="0.25" stroke-miterlimit="10"/>
<path d="M23.99 18.9801C24.095 18.9801 24.18 18.895 24.18 18.7901C24.18 18.6852 24.095 18.6001 23.99 18.6001C23.8851 18.6001 23.8 18.6852 23.8 18.7901C23.8 18.895 23.8851 18.9801 23.99 18.9801Z" stroke="#010101" stroke-width="0.25" stroke-miterlimit="10"/>
<path d="M29.53 15.1601H50.18V4.31006H29.53" stroke="#010101" stroke-width="0.25" stroke-miterlimit="10"/>
<path d="M27.34 15.7301C20.08 15.7301 12.41 15.7301 3.73999 15.7301C3.73999 10.4401 3.73999 6.10012 3.73999 3.75012C12.41 3.75012 20.07 3.75012 27.35 3.75012C27.35 6.11012 27.35 10.4501 27.35 15.7301C27.38 15.7701 27.41 15.8001 27.45 15.8301C27.47 15.8501 27.48 15.8601 27.5 15.8801L27.55 15.9301C27.55 15.9301 27.58 15.9601 27.6 15.9801C27.62 16.0001 27.63 16.0101 27.65 16.0301C27.67 16.0501 27.68 16.0601 27.7 16.0801C27.72 16.1001 27.73 16.1101 27.75 16.1301C27.77 16.1501 27.78 16.1601 27.8 16.1801C27.82 16.2001 27.83 16.2101 27.85 16.2301C27.88 16.2601 27.92 16.3001 27.97 16.3501V3.12012C27.92 3.17012 27.88 3.21012 27.85 3.24012C27.83 3.26012 27.82 3.27012 27.8 3.29012C27.78 3.31012 27.77 3.32012 27.75 3.34012C27.73 3.36012 27.72 3.37012 27.7 3.39012C27.68 3.41012 27.67 3.42012 27.65 3.44012C27.63 3.46012 27.62 3.47012 27.6 3.49012C27.58 3.51012 27.57 3.52012 27.55 3.54012C27.53 3.56012 27.52 3.57012 27.5 3.59012C27.48 3.61012 27.47 3.62012 27.45 3.64012C27.42 3.67012 27.39 3.70012 27.36 3.73012" stroke="#010101" stroke-width="0.25" stroke-miterlimit="10"/>
<path d="M51.37 3.12012H3.12V16.3401H51.36V3.12012H51.37Z" stroke="#010101" stroke-width="0.25" stroke-miterlimit="10"/>
<path d="M49.56 14.54H29.53" stroke="#010101" stroke-width="0.25" stroke-miterlimit="10"/>
<path d="M50.78 15.12V3.70996H29.53V15.75H50.78V15.12Z" stroke="#010101" stroke-width="0.25" stroke-miterlimit="10"/>
<path d="M50.8899 0.90002C50.9949 0.90002 51.08 0.814954 51.08 0.71002C51.08 0.605085 50.9949 0.52002 50.8899 0.52002C50.785 0.52002 50.7 0.605085 50.7 0.71002C50.7 0.814954 50.785 0.90002 50.8899 0.90002Z" stroke="#010101" stroke-width="0.25" stroke-miterlimit="10"/>
<path d="M30.71 0.90002C30.815 0.90002 30.9 0.814954 30.9 0.71002C30.9 0.605085 30.815 0.52002 30.71 0.52002C30.6051 0.52002 30.52 0.605085 30.52 0.71002C30.52 0.814954 30.6051 0.90002 30.71 0.90002Z" stroke="#010101" stroke-width="0.25" stroke-miterlimit="10"/>
<path d="M53.8899 15.9801C53.9949 15.9801 54.08 15.895 54.08 15.7901C54.08 15.6852 53.9949 15.6001 53.8899 15.6001C53.785 15.6001 53.7 15.6852 53.7 15.7901C53.7 15.895 53.785 15.9801 53.8899 15.9801Z" stroke="#010101" stroke-width="0.25" stroke-miterlimit="10"/>
<path d="M10.54 18.9801C10.6449 18.9801 10.73 18.895 10.73 18.7901C10.73 18.6852 10.6449 18.6001 10.54 18.6001C10.435 18.6001 10.35 18.6852 10.35 18.7901C10.35 18.895 10.435 18.9801 10.54 18.9801Z" stroke="#010101" stroke-width="0.25" stroke-miterlimit="10"/>
<path d="M10.54 0.90002C10.6449 0.90002 10.73 0.814954 10.73 0.71002C10.73 0.605085 10.6449 0.52002 10.54 0.52002C10.435 0.52002 10.35 0.605085 10.35 0.71002C10.35 0.814954 10.435 0.90002 10.54 0.90002Z" stroke="#010101" stroke-width="0.25" stroke-miterlimit="10"/>
<path d="M0.809995 3.90002C0.914929 3.90002 0.999995 3.81495 0.999995 3.71002C0.999995 3.60509 0.914929 3.52002 0.809995 3.52002C0.705061 3.52002 0.619995 3.60509 0.619995 3.71002C0.619995 3.81495 0.705061 3.90002 0.809995 3.90002Z" stroke="#010101" stroke-width="0.25" stroke-miterlimit="10"/>
<path d="M51.63 3.75011V16.6101H2.85999V2.86011H51.63V3.75011Z" stroke="#010101" stroke-width="0.25" stroke-miterlimit="10"/>
<path d="M44.16 18.9801C44.2649 18.9801 44.35 18.895 44.35 18.7901C44.35 18.6852 44.2649 18.6001 44.16 18.6001C44.055 18.6001 43.97 18.6852 43.97 18.7901C43.97 18.895 44.055 18.9801 44.16 18.9801Z" stroke="#010101" stroke-width="0.25" stroke-miterlimit="10"/>
<path d="M23.99 0.90002C24.095 0.90002 24.18 0.814954 24.18 0.71002C24.18 0.605085 24.095 0.52002 23.99 0.52002C23.8851 0.52002 23.8 0.605085 23.8 0.71002C23.8 0.814954 23.8851 0.90002 23.99 0.90002Z" stroke="#010101" stroke-width="0.25" stroke-miterlimit="10"/>
<path d="M50.74 3.56006H50.93V3.75006C50.93 6.10006 50.93 10.4401 50.93 15.7201C50.93 15.7801 50.93 15.8401 50.93 15.9001H29.4V3.57006C29.46 3.57006 29.52 3.57006 29.58 3.57006C36.91 3.57006 43.83 3.57006 50.76 3.57006L50.74 3.56006Z" stroke="#010101" stroke-width="0.25" stroke-miterlimit="10"/>
<path d="M17.27 0.90002C17.3749 0.90002 17.46 0.814954 17.46 0.71002C17.46 0.605085 17.3749 0.52002 17.27 0.52002C17.165 0.52002 17.08 0.605085 17.08 0.71002C17.08 0.814954 17.165 0.90002 17.27 0.90002Z" stroke="#010101" stroke-width="0.25" stroke-miterlimit="10"/>
<path d="M50.1799 4.31006C50.1299 4.36006 50.0899 4.40006 50.0599 4.43006C50.0399 4.45006 50.0299 4.46006 50.0099 4.48006C49.9899 4.50006 49.9799 4.51006 49.9599 4.53006C49.9399 4.55006 49.9299 4.56006 49.9099 4.58006C49.8899 4.60006 49.8799 4.61006 49.8599 4.63006C49.8399 4.65006 49.8299 4.66006 49.8099 4.68006C49.7899 4.70006 49.7799 4.71006 49.7599 4.73006C49.7399 4.75006 49.7299 4.76006 49.7099 4.78006C49.6899 4.80006 49.6799 4.81006 49.6599 4.83006C49.6299 4.86006 49.5999 4.89006 49.5699 4.92006V14.5401C49.5699 14.5401 49.6299 14.6001 49.6599 14.6301C49.6799 14.6501 49.6899 14.6601 49.7099 14.6801C49.7299 14.7001 49.7399 14.7101 49.7599 14.7301C49.7799 14.7501 49.7899 14.7601 49.8099 14.7801C49.8299 14.8001 49.8399 14.8101 49.8599 14.8301C49.8799 14.8501 49.8899 14.8601 49.9099 14.8801C49.9299 14.9001 49.9399 14.9101 49.9599 14.9301C49.9799 14.9501 49.9899 14.9601 50.0099 14.9801C50.0299 15.0001 50.0399 15.0101 50.0599 15.0301C50.0899 15.0601 50.1299 15.1001 50.1799 15.1501" stroke="#010101" stroke-width="0.25" stroke-miterlimit="10"/>
<path d="M53.8899 9.94006C53.9949 9.94006 54.08 9.85499 54.08 9.75006C54.08 9.64512 53.9949 9.56006 53.8899 9.56006C53.785 9.56006 53.7 9.64512 53.7 9.75006C53.7 9.85499 53.785 9.94006 53.8899 9.94006Z" stroke="#010101" stroke-width="0.25" stroke-miterlimit="10"/>
<path d="M0.809995 15.9801C0.914929 15.9801 0.999995 15.895 0.999995 15.7901C0.999995 15.6852 0.914929 15.6001 0.809995 15.6001C0.705061 15.6001 0.619995 15.6852 0.619995 15.7901C0.619995 15.895 0.705061 15.9801 0.809995 15.9801Z" stroke="#010101" stroke-width="0.25" stroke-miterlimit="10"/>
<path d="M53.8899 3.90002C53.9949 3.90002 54.08 3.81495 54.08 3.71002C54.08 3.60509 53.9949 3.52002 53.8899 3.52002C53.785 3.52002 53.7 3.60509 53.7 3.71002C53.7 3.81495 53.785 3.90002 53.8899 3.90002Z" stroke="#010101" stroke-width="0.25" stroke-miterlimit="10"/>
<path d="M3.81 18.9801C3.91493 18.9801 4 18.895 4 18.7901C4 18.6852 3.91493 18.6001 3.81 18.6001C3.70506 18.6001 3.62 18.6852 3.62 18.7901C3.62 18.895 3.70506 18.9801 3.81 18.9801Z" stroke="#010101" stroke-width="0.25" stroke-miterlimit="10"/>
<path d="M29 3.13013V16.3501" stroke="#010101" stroke-width="0.25" stroke-miterlimit="10"/>
<path d="M0.809995 9.94006C0.914929 9.94006 0.999995 9.85499 0.999995 9.75006C0.999995 9.64512 0.914929 9.56006 0.809995 9.56006C0.705061 9.56006 0.619995 9.64512 0.619995 9.75006C0.619995 9.85499 0.705061 9.94006 0.809995 9.94006Z" stroke="#010101" stroke-width="0.25" stroke-miterlimit="10"/>
<path d="M17.27 18.9801C17.3749 18.9801 17.46 18.895 17.46 18.7901C17.46 18.6852 17.3749 18.6001 17.27 18.6001C17.165 18.6001 17.08 18.6852 17.08 18.7901C17.08 18.895 17.165 18.9801 17.27 18.9801Z" stroke="#010101" stroke-width="0.25" stroke-miterlimit="10"/>
<path d="M3.74999 15.73H3.73999" stroke="#010101" stroke-width="0.25" stroke-miterlimit="10"/>
<path d="M50.92 15.1201V3.57007H50.74C43.81 3.57007 36.89 3.57007 29.56 3.57007C29.5 3.57007 29.43 3.57007 29.37 3.57007V15.9301H50.93C50.93 15.8701 50.93 15.8001 50.93 15.7401C50.93 15.5401 50.93 15.3401 50.93 15.1401L50.92 15.1201Z" stroke="#010101" stroke-width="0.25" stroke-miterlimit="10"/>
<path d="M44.16 0.90002C44.2649 0.90002 44.35 0.814954 44.35 0.71002C44.35 0.605085 44.2649 0.52002 44.16 0.52002C44.055 0.52002 43.97 0.605085 43.97 0.71002C43.97 0.814954 44.055 0.90002 44.16 0.90002Z" stroke="#010101" stroke-width="0.25" stroke-miterlimit="10"/>
<path d="M50.8899 18.9801C50.9949 18.9801 51.08 18.895 51.08 18.7901C51.08 18.6852 50.9949 18.6001 50.8899 18.6001C50.785 18.6001 50.7 18.6852 50.7 18.7901C50.7 18.895 50.785 18.9801 50.8899 18.9801Z" stroke="#010101" stroke-width="0.25" stroke-miterlimit="10"/>
<path d="M29.53 4.92993H49.56" stroke="#010101" stroke-width="0.25" stroke-miterlimit="10"/>
<path d="M30.71 18.9801C30.815 18.9801 30.9 18.895 30.9 18.7901C30.9 18.6852 30.815 18.6001 30.71 18.6001C30.6051 18.6001 30.52 18.6852 30.52 18.7901C30.52 18.895 30.6051 18.9801 30.71 18.9801Z" stroke="#010101" stroke-width="0.25" stroke-miterlimit="10"/>
<path d="M37.44 18.9801C37.5449 18.9801 37.63 18.895 37.63 18.7901C37.63 18.6852 37.5449 18.6001 37.44 18.6001C37.3351 18.6001 37.25 18.6852 37.25 18.7901C37.25 18.895 37.3351 18.9801 37.44 18.9801Z" stroke="#010101" stroke-width="0.25" stroke-miterlimit="10"/>
<path d="M3.81 0.90002C3.91493 0.90002 4 0.814954 4 0.71002C4 0.605085 3.91493 0.52002 3.81 0.52002C3.70506 0.52002 3.62 0.605085 3.62 0.71002C3.62 0.814954 3.70506 0.90002 3.81 0.90002Z" stroke="#010101" stroke-width="0.25" stroke-miterlimit="10"/>
<path d="M3.81 18.9801C3.91493 18.9801 4 18.895 4 18.7901C4 18.6852 3.91493 18.6001 3.81 18.6001C3.70506 18.6001 3.62 18.6852 3.62 18.7901C3.62 18.895 3.70506 18.9801 3.81 18.9801Z" stroke="#010101" stroke-width="0.25" stroke-miterlimit="10"/>
<path d="M30.71 18.9801C30.815 18.9801 30.9 18.895 30.9 18.7901C30.9 18.6852 30.815 18.6001 30.71 18.6001C30.6051 18.6001 30.52 18.6852 30.52 18.7901C30.52 18.895 30.6051 18.9801 30.71 18.9801Z" stroke="#010101" stroke-width="0.25" stroke-miterlimit="10"/>
<path d="M17.27 0.90002C17.3749 0.90002 17.46 0.814954 17.46 0.71002C17.46 0.605085 17.3749 0.52002 17.27 0.52002C17.165 0.52002 17.08 0.605085 17.08 0.71002C17.08 0.814954 17.165 0.90002 17.27 0.90002Z" stroke="#010101" stroke-width="0.25" stroke-miterlimit="10"/>
<path d="M0.809995 15.9801C0.914929 15.9801 0.999995 15.895 0.999995 15.7901C0.999995 15.6852 0.914929 15.6001 0.809995 15.6001C0.705061 15.6001 0.619995 15.6852 0.619995 15.7901C0.619995 15.895 0.705061 15.9801 0.809995 15.9801Z" stroke="#010101" stroke-width="0.25" stroke-miterlimit="10"/>
<path d="M17.27 18.9801C17.3749 18.9801 17.46 18.895 17.46 18.7901C17.46 18.6852 17.3749 18.6001 17.27 18.6001C17.165 18.6001 17.08 18.6852 17.08 18.7901C17.08 18.895 17.165 18.9801 17.27 18.9801Z" stroke="#010101" stroke-width="0.25" stroke-miterlimit="10"/>
<path d="M0.119995 0.120117V3.75012V3.74012V0.120117ZM0.119995 0.120117H3.74" stroke="#010101" stroke-width="0.25" stroke-miterlimit="10"/>
<path d="M0.809995 3.90002C0.914929 3.90002 0.999995 3.81495 0.999995 3.71002C0.999995 3.60509 0.914929 3.52002 0.809995 3.52002C0.705061 3.52002 0.619995 3.60509 0.619995 3.71002C0.619995 3.81495 0.705061 3.90002 0.809995 3.90002Z" stroke="#010101" stroke-width="0.25" stroke-miterlimit="10"/>
<path d="M23.99 0.90002C24.095 0.90002 24.18 0.814954 24.18 0.71002C24.18 0.605085 24.095 0.52002 23.99 0.52002C23.8851 0.52002 23.8 0.605085 23.8 0.71002C23.8 0.814954 23.8851 0.90002 23.99 0.90002Z" stroke="#010101" stroke-width="0.25" stroke-miterlimit="10"/>
<path d="M54.36 19.3501V3.75012L54.37 3.74012V0.120117H3.75H54.36V19.3501ZM54.36 19.3501H0.119995V3.75012" stroke="#010101" stroke-width="0.25" stroke-miterlimit="10"/>
<path d="M0.809995 9.94006C0.914929 9.94006 0.999995 9.85499 0.999995 9.75006C0.999995 9.64512 0.914929 9.56006 0.809995 9.56006C0.705061 9.56006 0.619995 9.64512 0.619995 9.75006C0.619995 9.85499 0.705061 9.94006 0.809995 9.94006Z" stroke="#010101" stroke-width="0.25" stroke-miterlimit="10"/>
<path d="M44.16 0.90002C44.2649 0.90002 44.35 0.814954 44.35 0.71002C44.35 0.605085 44.2649 0.52002 44.16 0.52002C44.055 0.52002 43.97 0.605085 43.97 0.71002C43.97 0.814954 44.055 0.90002 44.16 0.90002Z" stroke="#010101" stroke-width="0.25" stroke-miterlimit="10"/>
<path d="M44.16 18.9801C44.2649 18.9801 44.35 18.895 44.35 18.7901C44.35 18.6852 44.2649 18.6001 44.16 18.6001C44.055 18.6001 43.97 18.6852 43.97 18.7901C43.97 18.895 44.055 18.9801 44.16 18.9801Z" stroke="#010101" stroke-width="0.25" stroke-miterlimit="10"/>
<path d="M37.44 0.90002C37.5449 0.90002 37.63 0.814954 37.63 0.71002C37.63 0.605085 37.5449 0.52002 37.44 0.52002C37.3351 0.52002 37.25 0.605085 37.25 0.71002C37.25 0.814954 37.3351 0.90002 37.44 0.90002Z" stroke="#010101" stroke-width="0.25" stroke-miterlimit="10"/>
<path d="M30.71 0.90002C30.815 0.90002 30.9 0.814954 30.9 0.71002C30.9 0.605085 30.815 0.52002 30.71 0.52002C30.6051 0.52002 30.52 0.605085 30.52 0.71002C30.52 0.814954 30.6051 0.90002 30.71 0.90002Z" stroke="#010101" stroke-width="0.25" stroke-miterlimit="10"/>
<path d="M53.8899 15.9801C53.9949 15.9801 54.08 15.895 54.08 15.7901C54.08 15.6852 53.9949 15.6001 53.8899 15.6001C53.785 15.6001 53.7 15.6852 53.7 15.7901C53.7 15.895 53.785 15.9801 53.8899 15.9801Z" stroke="#010101" stroke-width="0.25" stroke-miterlimit="10"/>
<path d="M10.54 18.9801C10.6449 18.9801 10.73 18.895 10.73 18.7901C10.73 18.6852 10.6449 18.6001 10.54 18.6001C10.435 18.6001 10.35 18.6852 10.35 18.7901C10.35 18.895 10.435 18.9801 10.54 18.9801Z" stroke="#010101" stroke-width="0.25" stroke-miterlimit="10"/>
<path d="M23.99 18.9801C24.095 18.9801 24.18 18.895 24.18 18.7901C24.18 18.6852 24.095 18.6001 23.99 18.6001C23.8851 18.6001 23.8 18.6852 23.8 18.7901C23.8 18.895 23.8851 18.9801 23.99 18.9801Z" stroke="#010101" stroke-width="0.25" stroke-miterlimit="10"/>
<path d="M10.54 0.90002C10.6449 0.90002 10.73 0.814954 10.73 0.71002C10.73 0.605085 10.6449 0.52002 10.54 0.52002C10.435 0.52002 10.35 0.605085 10.35 0.71002C10.35 0.814954 10.435 0.90002 10.54 0.90002Z" stroke="#010101" stroke-width="0.25" stroke-miterlimit="10"/>
<path d="M53.8899 3.90002C53.9949 3.90002 54.08 3.81495 54.08 3.71002C54.08 3.60509 53.9949 3.52002 53.8899 3.52002C53.785 3.52002 53.7 3.60509 53.7 3.71002C53.7 3.81495 53.785 3.90002 53.8899 3.90002Z" stroke="#010101" stroke-width="0.25" stroke-miterlimit="10"/>
<path d="M50.8899 0.90002C50.9949 0.90002 51.08 0.814954 51.08 0.71002C51.08 0.605085 50.9949 0.52002 50.8899 0.52002C50.785 0.52002 50.7 0.605085 50.7 0.71002C50.7 0.814954 50.785 0.90002 50.8899 0.90002Z" stroke="#010101" stroke-width="0.25" stroke-miterlimit="10"/>
<path d="M3.81 0.90002C3.91493 0.90002 4 0.814954 4 0.71002C4 0.605085 3.91493 0.52002 3.81 0.52002C3.70506 0.52002 3.62 0.605085 3.62 0.71002C3.62 0.814954 3.70506 0.90002 3.81 0.90002Z" stroke="#010101" stroke-width="0.25" stroke-miterlimit="10"/>
<path d="M53.8899 9.94006C53.9949 9.94006 54.08 9.85499 54.08 9.75006C54.08 9.64512 53.9949 9.56006 53.8899 9.56006C53.785 9.56006 53.7 9.64512 53.7 9.75006C53.7 9.85499 53.785 9.94006 53.8899 9.94006Z" stroke="#010101" stroke-width="0.25" stroke-miterlimit="10"/>
<path d="M37.44 18.9801C37.5449 18.9801 37.63 18.895 37.63 18.7901C37.63 18.6852 37.5449 18.6001 37.44 18.6001C37.3351 18.6001 37.25 18.6852 37.25 18.7901C37.25 18.895 37.3351 18.9801 37.44 18.9801Z" stroke="#010101" stroke-width="0.25" stroke-miterlimit="10"/>
<path d="M50.8899 18.9801C50.9949 18.9801 51.08 18.895 51.08 18.7901C51.08 18.6852 50.9949 18.6001 50.8899 18.6001C50.785 18.6001 50.7 18.6852 50.7 18.7901C50.7 18.895 50.785 18.9801 50.8899 18.9801Z" stroke="#010101" stroke-width="0.25" stroke-miterlimit="10"/>
</g>
<defs>
<clipPath id="clip0_1493_1417">
<rect width="54.49" height="19.47" fill="white"/>
</clipPath>
</defs>
</svg>
