<svg width="54" height="35" viewBox="0 0 54 35" fill="none" xmlns="http://www.w3.org/2000/svg">
<g clip-path="url(#clip0_1347_3681)">
<path d="M53.34 0.120117H0.119995V34.3701H53.34V0.120117Z" fill="white"/>
<path d="M30.1901 33.9001C30.1901 33.9001 30.1901 33.9001 30.1801 33.9101" stroke="#010101" stroke-width="0.25" stroke-miterlimit="10"/>
<path d="M27.36 31.3701V3.12012" stroke="#010101" stroke-width="0.25" stroke-miterlimit="10"/>
<path d="M2.85999 2.86011H3.74999" stroke="#010101" stroke-width="0.25" stroke-miterlimit="10"/>
<path d="M49.92 30.94V30.75" stroke="#010101" stroke-width="0.25" stroke-miterlimit="10"/>
<path d="M0.540029 14.2002C0.540029 14.2002 0.540029 14.1802 0.530029 14.1702" stroke="#010101" stroke-width="0.25" stroke-miterlimit="10"/>
<path d="M0.119995 3.75012V0.120117" stroke="#010101" stroke-width="0.25" stroke-miterlimit="10"/>
<path d="M49.72 34.3801H3.75" stroke="#010101" stroke-width="0.25" stroke-miterlimit="10"/>
<path d="M23.4301 33.6001C23.5301 33.6001 23.6201 33.6901 23.6201 33.7901" stroke="#010101" stroke-width="0.25" stroke-miterlimit="10"/>
<path d="M30.23 0.710205C30.23 0.810205 30.15 0.900205 30.04 0.900205" stroke="#010101" stroke-width="0.25" stroke-miterlimit="10"/>
<path d="M28.96 3.57007H49.73" stroke="#010101" stroke-width="0.25" stroke-miterlimit="10"/>
<path d="M3.54004 33.6101C3.61004 33.5801 3.70004 33.6101 3.75004 33.6601" stroke="#010101" stroke-width="0.25" stroke-miterlimit="10"/>
<path d="M3.76 0.590078C3.76 0.590078 3.76 0.590078 3.75 0.580078" stroke="#010101" stroke-width="0.25" stroke-miterlimit="10"/>
<path d="M30.13 33.9601C30.04 34.0101 29.92 33.9701 29.87 33.8801" stroke="#010101" stroke-width="0.25" stroke-miterlimit="10"/>
<path d="M2.85999 3.75V30.75" stroke="#010101" stroke-width="0.25" stroke-miterlimit="10"/>
<path d="M43.25 33.6001C43.32 33.6001 43.39 33.6401 43.42 33.7001" stroke="#010101" stroke-width="0.25" stroke-miterlimit="10"/>
<path d="M28.76 30.75V30.94" stroke="#010101" stroke-width="0.25" stroke-miterlimit="10"/>
<path d="M23.59 0.600098C23.59 0.600098 23.63 0.670098 23.63 0.710098" stroke="#010101" stroke-width="0.25" stroke-miterlimit="10"/>
<path d="M49.16 30.1901V29.3201" stroke="#010101" stroke-width="0.25" stroke-miterlimit="10"/>
<path d="M23.35 0.540029C23.35 0.540029 23.37 0.540029 23.38 0.530029" stroke="#010101" stroke-width="0.25" stroke-miterlimit="10"/>
<path d="M16.63 0.710098C16.63 0.710098 16.64 0.630098 16.66 0.600098" stroke="#010101" stroke-width="0.25" stroke-miterlimit="10"/>
<path d="M28.92 3.75V30.75" stroke="#010101" stroke-width="0.25" stroke-miterlimit="10"/>
<path d="M49.72 31.3701H50.34" stroke="#010101" stroke-width="0.25" stroke-miterlimit="10"/>
<path d="M0.530029 20.4401C0.530029 20.4401 0.530029 20.4001 0.530029 20.3801" stroke="#010101" stroke-width="0.25" stroke-miterlimit="10"/>
<path d="M49.9 3.57007V3.75007" stroke="#010101" stroke-width="0.25" stroke-miterlimit="10"/>
<path d="M28.78 30.75V3.75" stroke="#010101" stroke-width="0.25" stroke-miterlimit="10"/>
<path d="M49.72 0.590088C49.72 0.590088 49.72 0.590088 49.72 0.600088" stroke="#010101" stroke-width="0.25" stroke-miterlimit="10"/>
<path d="M0.799971 20.5601C0.799971 20.5601 0.739971 20.5801 0.719971 20.5801" stroke="#010101" stroke-width="0.25" stroke-miterlimit="10"/>
<path d="M50.61 31.64V30.75" stroke="#010101" stroke-width="0.25" stroke-miterlimit="10"/>
<path d="M10.1299 33.9602C10.1299 33.9602 10.0799 33.9302 10.0699 33.9102" stroke="#010101" stroke-width="0.25" stroke-miterlimit="10"/>
<path d="M49.72 3.56006H28.95" stroke="#010101" stroke-width="0.25" stroke-miterlimit="10"/>
<path d="M0.589966 26.51C0.589966 26.51 0.589966 26.51 0.599966 26.51" stroke="#010101" stroke-width="0.25" stroke-miterlimit="10"/>
<path d="M0.119995 30.75V3.75" stroke="#010101" stroke-width="0.25" stroke-miterlimit="10"/>
<path d="M52.9301 14.03C52.9301 14.03 52.9301 14.05 52.9401 14.06" stroke="#010101" stroke-width="0.25" stroke-miterlimit="10"/>
<path d="M16.67 33.9C16.67 33.9 16.64 33.83 16.64 33.79" stroke="#010101" stroke-width="0.25" stroke-miterlimit="10"/>
<path d="M0.540039 26.58C0.540039 26.58 0.550039 26.55 0.560039 26.54C0.560039 26.54 0.580039 26.52 0.590039 26.51" stroke="#010101" stroke-width="0.25" stroke-miterlimit="10"/>
<path d="M3.67004 33.9702C3.67004 33.9702 3.69004 33.9702 3.70004 33.9602" stroke="#010101" stroke-width="0.25" stroke-miterlimit="10"/>
<path d="M2.85999 2.86011V3.75011" stroke="#010101" stroke-width="0.25" stroke-miterlimit="10"/>
<path d="M49.72 30.9402H49.91" stroke="#010101" stroke-width="0.25" stroke-miterlimit="10"/>
<path d="M10.03 33.7901C10.03 33.6901 10.12 33.6001 10.22 33.6001C10.32 33.6001 10.41 33.6801 10.41 33.7901" stroke="#010101" stroke-width="0.25" stroke-miterlimit="10"/>
<path d="M23.43 33.9802C23.43 33.9802 23.39 33.9802 23.37 33.9802" stroke="#010101" stroke-width="0.25" stroke-miterlimit="10"/>
<path d="M0.590039 26.81C0.590039 26.81 0.570039 26.79 0.560039 26.78C0.560039 26.77 0.540039 26.76 0.540039 26.75" stroke="#010101" stroke-width="0.25" stroke-miterlimit="10"/>
<path d="M49.76 3.71021H49.72" stroke="#010101" stroke-width="0.25" stroke-miterlimit="10"/>
<path d="M28.92 3.71021V3.75021" stroke="#010101" stroke-width="0.25" stroke-miterlimit="10"/>
<path d="M28.92 30.79H28.96" stroke="#010101" stroke-width="0.25" stroke-miterlimit="10"/>
<path d="M3.73999 3.74023H3.74999" stroke="#010101" stroke-width="0.25" stroke-miterlimit="10"/>
<path d="M49.76 30.79V30.75" stroke="#010101" stroke-width="0.25" stroke-miterlimit="10"/>
<path d="M16.74 0.540029C16.74 0.540029 16.76 0.540029 16.77 0.530029" stroke="#010101" stroke-width="0.25" stroke-miterlimit="10"/>
<path d="M49.9401 0.540039C49.9401 0.540039 49.9401 0.540039 49.9301 0.540039" stroke="#010101" stroke-width="0.25" stroke-miterlimit="10"/>
<path d="M49.76 30.7501V30.1501" stroke="#010101" stroke-width="0.25" stroke-miterlimit="10"/>
<path d="M0.599976 20.2302C0.599976 20.2302 0.619976 20.2302 0.619976 20.2202" stroke="#010101" stroke-width="0.25" stroke-miterlimit="10"/>
<path d="M28.78 3.75007V3.57007" stroke="#010101" stroke-width="0.25" stroke-miterlimit="10"/>
<path d="M0.530029 14.06C0.530029 14.06 0.530029 14.04 0.540029 14.03" stroke="#010101" stroke-width="0.25" stroke-miterlimit="10"/>
<path d="M3.75 31.3701H49.72" stroke="#010101" stroke-width="0.25" stroke-miterlimit="10"/>
<path d="M0.589966 13.9702C0.589966 13.9702 0.589966 13.9702 0.599966 13.9702" stroke="#010101" stroke-width="0.25" stroke-miterlimit="10"/>
<path d="M49.9 30.75V30.93" stroke="#010101" stroke-width="0.25" stroke-miterlimit="10"/>
<path d="M49.9 3.75V30.15" stroke="#010101" stroke-width="0.25" stroke-miterlimit="10"/>
<path d="M16.63 33.7901C16.63 33.6901 16.72 33.6001 16.82 33.6001C16.92 33.6001 17.01 33.6901 17.01 33.7901C17.01 33.8901 16.92 33.9801 16.82 33.9801C16.75 33.9801 16.68 33.9401 16.65 33.8801" stroke="#010101" stroke-width="0.25" stroke-miterlimit="10"/>
<path d="M10.37 0.600098C10.37 0.600098 10.41 0.670098 10.41 0.710098" stroke="#010101" stroke-width="0.25" stroke-miterlimit="10"/>
<path d="M0.709961 26.4702C0.809961 26.4702 0.899961 26.5602 0.899961 26.6602" stroke="#010101" stroke-width="0.25" stroke-miterlimit="10"/>
<path d="M49.72 31.6401H3.75" stroke="#010101" stroke-width="0.25" stroke-miterlimit="10"/>
<path d="M23.35 33.6201C23.35 33.6201 23.41 33.6001 23.44 33.6001" stroke="#010101" stroke-width="0.25" stroke-miterlimit="10"/>
<path d="M23.62 33.79C23.62 33.79 23.61 33.87 23.58 33.9" stroke="#010101" stroke-width="0.25" stroke-miterlimit="10"/>
<path d="M36.8201 0.620098C36.8201 0.620098 36.8201 0.610098 36.8101 0.600098" stroke="#010101" stroke-width="0.25" stroke-miterlimit="10"/>
<path d="M3.8 33.7902C3.8 33.7902 3.78 33.7002 3.75 33.6602" stroke="#010101" stroke-width="0.25" stroke-miterlimit="10"/>
<path d="M50.61 30.75V3.75" stroke="#010101" stroke-width="0.25" stroke-miterlimit="10"/>
<path d="M26.74 3.74023H26.75" stroke="#010101" stroke-width="0.25" stroke-miterlimit="10"/>
<path d="M36.79 0.590088C36.79 0.590088 36.79 0.590088 36.8 0.600088" stroke="#010101" stroke-width="0.25" stroke-miterlimit="10"/>
<path d="M52.9399 7.78003C52.9399 7.78003 52.9399 7.82003 52.9399 7.84003" stroke="#010101" stroke-width="0.25" stroke-miterlimit="10"/>
<path d="M49.72 0.120117H53.34" stroke="#010101" stroke-width="0.25" stroke-miterlimit="10"/>
<path d="M52.88 13.9702C52.88 13.9702 52.9 13.9902 52.91 14.0002C52.91 14.0102 52.93 14.0202 52.93 14.0302" stroke="#010101" stroke-width="0.25" stroke-miterlimit="10"/>
<path d="M52.7599 14.3001C52.6599 14.3001 52.5699 14.2101 52.5699 14.1101" stroke="#010101" stroke-width="0.25" stroke-miterlimit="10"/>
<path d="M36.5 33.9101C36.5 33.9101 36.5 33.9101 36.5 33.9001" stroke="#010101" stroke-width="0.25" stroke-miterlimit="10"/>
<path d="M52.85 14.28C52.85 14.28 52.79 14.3 52.76 14.3" stroke="#010101" stroke-width="0.25" stroke-miterlimit="10"/>
<path d="M3.73999 30.75V3.75" stroke="#010101" stroke-width="0.25" stroke-miterlimit="10"/>
<path d="M3.44995 33.9001C3.44995 33.9001 3.44995 33.9001 3.44995 33.9101" stroke="#010101" stroke-width="0.25" stroke-miterlimit="10"/>
<path d="M43.1 33.9001C43.1 33.9001 43.1 33.8901 43.09 33.8801" stroke="#010101" stroke-width="0.25" stroke-miterlimit="10"/>
<path d="M43.4 33.9102C43.4 33.9102 43.38 33.9302 43.37 33.9302C43.36 33.9302 43.35 33.9502 43.33 33.9502" stroke="#010101" stroke-width="0.25" stroke-miterlimit="10"/>
<path d="M43.34 33.9601C43.25 34.0001 43.15 33.9801 43.1 33.9001" stroke="#010101" stroke-width="0.25" stroke-miterlimit="10"/>
<path d="M3.45996 33.9102C3.45996 33.9102 3.47996 33.9302 3.48996 33.9302C3.49996 33.9302 3.50996 33.9502 3.51996 33.9502" stroke="#010101" stroke-width="0.25" stroke-miterlimit="10"/>
<path d="M0.529966 14.1701C0.499966 14.0701 0.559966 13.9601 0.659966 13.9301C0.759966 13.9001 0.869966 13.9601 0.899966 14.0601C0.929966 14.1601 0.869966 14.2701 0.769966 14.3001C0.709966 14.3201 0.639966 14.3001 0.589966 14.2601" stroke="#010101" stroke-width="0.25" stroke-miterlimit="10"/>
<path d="M0.52002 7.84004C0.52002 7.84004 0.52002 7.80004 0.52002 7.79004" stroke="#010101" stroke-width="0.25" stroke-miterlimit="10"/>
<path d="M30.1899 0.600098C30.1899 0.600098 30.2299 0.670098 30.2299 0.710098" stroke="#010101" stroke-width="0.25" stroke-miterlimit="10"/>
<path d="M23.35 33.9602C23.35 33.9602 23.32 33.9502 23.31 33.9402C23.31 33.9402 23.29 33.9202 23.28 33.9102" stroke="#010101" stroke-width="0.25" stroke-miterlimit="10"/>
<path d="M10.06 33.9001C10.06 33.9001 10.06 33.8901 10.05 33.8801" stroke="#010101" stroke-width="0.25" stroke-miterlimit="10"/>
<path d="M28.96 30.9302H28.78" stroke="#010101" stroke-width="0.25" stroke-miterlimit="10"/>
<path d="M49.9 30.1501V30.7501" stroke="#010101" stroke-width="0.25" stroke-miterlimit="10"/>
<path d="M27.36 3.12012C27.31 3.17012 27.27 3.21012 27.24 3.24012C27.22 3.26012 27.21 3.27012 27.19 3.29012C27.17 3.31012 27.16 3.32012 27.14 3.34012C27.12 3.36012 27.11 3.37012 27.09 3.39012C27.07 3.41012 27.06 3.42012 27.04 3.44012C27.02 3.46012 27.01 3.47012 26.99 3.49012C26.97 3.51012 26.96 3.52012 26.94 3.54012C26.92 3.56012 26.91 3.57012 26.89 3.59012C26.87 3.61012 26.86 3.62012 26.84 3.64012C26.81 3.67012 26.78 3.70012 26.75 3.73012" stroke="#010101" stroke-width="0.25" stroke-miterlimit="10"/>
<path d="M49.72 3.57007H49.9" stroke="#010101" stroke-width="0.25" stroke-miterlimit="10"/>
<path d="M3.12 3.12012L3.24 3.24012C3.24 3.24012 3.27 3.27012 3.29 3.29012C3.31 3.31012 3.32 3.32012 3.34 3.34012C3.36 3.36012 3.37 3.37012 3.39 3.39012L3.44 3.44012L3.49 3.49012C3.49 3.49012 3.52 3.52012 3.54 3.54012C3.56 3.56012 3.57 3.57012 3.59 3.59012C3.61 3.61012 3.62 3.62012 3.64 3.64012C3.67 3.67012 3.7 3.70012 3.73 3.73012" stroke="#010101" stroke-width="0.25" stroke-miterlimit="10"/>
<path d="M30.1801 0.590088C30.1801 0.590088 30.1801 0.590088 30.1901 0.600088" stroke="#010101" stroke-width="0.25" stroke-miterlimit="10"/>
<path d="M28.78 3.57007H28.96" stroke="#010101" stroke-width="0.25" stroke-miterlimit="10"/>
<path d="M28.92 30.75V30.79" stroke="#010101" stroke-width="0.25" stroke-miterlimit="10"/>
<path d="M49.72 30.9302H28.95" stroke="#010101" stroke-width="0.25" stroke-miterlimit="10"/>
<path d="M49.9 30.9302H49.72" stroke="#010101" stroke-width="0.25" stroke-miterlimit="10"/>
<path d="M0.52002 20.3901C0.52002 20.3901 0.52002 20.3501 0.52002 20.3401" stroke="#010101" stroke-width="0.25" stroke-miterlimit="10"/>
<path d="M0.599966 20.54C0.599966 20.54 0.599966 20.54 0.589966 20.54" stroke="#010101" stroke-width="0.25" stroke-miterlimit="10"/>
<path d="M49.72 3.12012H26.74" stroke="#010101" stroke-width="0.25" stroke-miterlimit="10"/>
<path d="M3.12 31.3701H3.74" stroke="#010101" stroke-width="0.25" stroke-miterlimit="10"/>
<path d="M0.709976 14.3C0.709976 14.3 0.629976 14.29 0.599976 14.27" stroke="#010101" stroke-width="0.25" stroke-miterlimit="10"/>
<path d="M30.12 0.540039C30.12 0.540039 30.15 0.550039 30.16 0.560039C30.16 0.560039 30.18 0.580039 30.19 0.580039" stroke="#010101" stroke-width="0.25" stroke-miterlimit="10"/>
<path d="M49.92 3.75006V3.56006" stroke="#010101" stroke-width="0.25" stroke-miterlimit="10"/>
<path d="M29.9799 33.9702C29.9799 33.9702 29.96 33.9702 29.95 33.9602" stroke="#010101" stroke-width="0.25" stroke-miterlimit="10"/>
<path d="M0.599976 13.9602C0.599976 13.9602 0.619976 13.9602 0.619976 13.9502" stroke="#010101" stroke-width="0.25" stroke-miterlimit="10"/>
<path d="M48.5501 29.5701H28.9301" stroke="#010101" stroke-width="0.25" stroke-miterlimit="10"/>
<path d="M10.16 33.9702C10.16 33.9702 10.14 33.9702 10.13 33.9602" stroke="#010101" stroke-width="0.25" stroke-miterlimit="10"/>
<path d="M49.76 3.75021V3.71021" stroke="#010101" stroke-width="0.25" stroke-miterlimit="10"/>
<path d="M48.55 4.93018V29.0202" stroke="#010101" stroke-width="0.25" stroke-miterlimit="10"/>
<path d="M10.03 0.710098C10.03 0.710098 10.04 0.630098 10.06 0.600098" stroke="#010101" stroke-width="0.25" stroke-miterlimit="10"/>
<path d="M30.04 33.6001C30.14 33.6001 30.23 33.6901 30.23 33.7901" stroke="#010101" stroke-width="0.25" stroke-miterlimit="10"/>
<path d="M3.45004 0.600098C3.45004 0.600098 3.42004 0.670098 3.42004 0.710098" stroke="#010101" stroke-width="0.25" stroke-miterlimit="10"/>
<path d="M43.41 33.9001C43.41 33.9001 43.41 33.9001 43.4 33.9101" stroke="#010101" stroke-width="0.25" stroke-miterlimit="10"/>
<path d="M3.55005 33.9702C3.55005 33.9702 3.59005 33.9702 3.61005 33.9702" stroke="#010101" stroke-width="0.25" stroke-miterlimit="10"/>
<path d="M17.01 0.710205C17.01 0.780205 16.97 0.850205 16.91 0.880205" stroke="#010101" stroke-width="0.25" stroke-miterlimit="10"/>
<path d="M49.16 29.3101V4.31006" stroke="#010101" stroke-width="0.25" stroke-miterlimit="10"/>
<path d="M0.600039 8.00018C0.600039 8.00018 0.550039 7.96018 0.540039 7.93018" stroke="#010101" stroke-width="0.25" stroke-miterlimit="10"/>
<path d="M0.709976 26.8501C0.709976 26.8501 0.629976 26.8401 0.599976 26.8201" stroke="#010101" stroke-width="0.25" stroke-miterlimit="10"/>
<path d="M3.78001 0.620088C3.78001 0.620088 3.77001 0.600088 3.76001 0.590088" stroke="#010101" stroke-width="0.25" stroke-miterlimit="10"/>
<path d="M53.35 34.3801H49.73" stroke="#010101" stroke-width="0.25" stroke-miterlimit="10"/>
<path d="M49.95 0.880205C50.01 0.850205 50.0499 0.780205 50.0499 0.710205" stroke="#010101" stroke-width="0.25" stroke-miterlimit="10"/>
<path d="M3.74999 31.6401H2.85999" stroke="#010101" stroke-width="0.25" stroke-miterlimit="10"/>
<path d="M2.85999 30.75V31.64" stroke="#010101" stroke-width="0.25" stroke-miterlimit="10"/>
<path d="M30.2299 33.79C30.2299 33.79 30.2199 33.87 30.1899 33.9" stroke="#010101" stroke-width="0.25" stroke-miterlimit="10"/>
<path d="M52.88 13.9702C52.88 13.9702 52.92 14.0102 52.93 14.0302" stroke="#010101" stroke-width="0.25" stroke-miterlimit="10"/>
<path d="M36.8 0.600098C36.8 0.600098 36.81 0.620098 36.82 0.630098" stroke="#010101" stroke-width="0.25" stroke-miterlimit="10"/>
<path d="M53.35 30.75V34.38" stroke="#010101" stroke-width="0.25" stroke-miterlimit="10"/>
<path d="M53.35 3.75V30.75" stroke="#010101" stroke-width="0.25" stroke-miterlimit="10"/>
<path d="M50.61 2.86011V3.75011" stroke="#010101" stroke-width="0.25" stroke-miterlimit="10"/>
<path d="M0.530029 7.90009C0.530029 7.90009 0.530029 7.86009 0.530029 7.84009" stroke="#010101" stroke-width="0.25" stroke-miterlimit="10"/>
<path d="M28.96 30.9402H49.73" stroke="#010101" stroke-width="0.25" stroke-miterlimit="10"/>
<path d="M52.5699 14.1102C52.5699 14.0102 52.6599 13.9202 52.7599 13.9202C52.7999 13.9202 52.8399 13.9302 52.8699 13.9502" stroke="#010101" stroke-width="0.25" stroke-miterlimit="10"/>
<path d="M52.88 20.2402C52.88 20.2402 52.92 20.2802 52.93 20.3002" stroke="#010101" stroke-width="0.25" stroke-miterlimit="10"/>
<path d="M52.85 26.8301C52.85 26.8301 52.79 26.8501 52.76 26.8501" stroke="#010101" stroke-width="0.25" stroke-miterlimit="10"/>
<path d="M52.76 26.4702C52.76 26.4702 52.84 26.4802 52.87 26.5002" stroke="#010101" stroke-width="0.25" stroke-miterlimit="10"/>
<path d="M0.119995 34.38V30.75" stroke="#010101" stroke-width="0.25" stroke-miterlimit="10"/>
<path d="M23.4801 33.9702C23.4801 33.9702 23.4401 33.9702 23.4301 33.9702" stroke="#010101" stroke-width="0.25" stroke-miterlimit="10"/>
<path d="M52.94 14.0601C52.96 14.1301 52.94 14.2101 52.88 14.2601" stroke="#010101" stroke-width="0.25" stroke-miterlimit="10"/>
<path d="M52.88 26.51C52.88 26.51 52.9 26.53 52.91 26.54C52.91 26.55 52.93 26.56 52.93 26.58" stroke="#010101" stroke-width="0.25" stroke-miterlimit="10"/>
<path d="M49.6899 33.8801C49.6899 33.8801 49.6999 33.9001 49.7099 33.9101C49.7099 33.9101 49.7099 33.9101 49.7099 33.9201" stroke="#010101" stroke-width="0.25" stroke-miterlimit="10"/>
<path d="M3.75 2.86011H49.72" stroke="#010101" stroke-width="0.25" stroke-miterlimit="10"/>
<path d="M0.119995 0.120117H3.74" stroke="#010101" stroke-width="0.25" stroke-miterlimit="10"/>
<path d="M26.75 3.75V30.75" stroke="#010101" stroke-width="0.25" stroke-miterlimit="10"/>
<path d="M49.72 2.86011H50.61" stroke="#010101" stroke-width="0.25" stroke-miterlimit="10"/>
<path d="M30.12 33.9602C30.12 33.9602 30.1 33.9602 30.09 33.9702" stroke="#010101" stroke-width="0.25" stroke-miterlimit="10"/>
<path d="M49.71 33.9001C49.71 33.9001 49.71 33.9001 49.71 33.9101" stroke="#010101" stroke-width="0.25" stroke-miterlimit="10"/>
<path d="M50.05 33.79C50.05 33.89 49.96 33.98 49.86 33.98C49.81 33.98 49.76 33.96 49.72 33.92" stroke="#010101" stroke-width="0.25" stroke-miterlimit="10"/>
<path d="M29.85 33.7901C29.85 33.6901 29.94 33.6001 30.04 33.6001" stroke="#010101" stroke-width="0.25" stroke-miterlimit="10"/>
<path d="M49.72 33.6602C49.79 33.5802 49.91 33.5802 49.99 33.6502C50.01 33.6702 50.02 33.6802 50.03 33.7002" stroke="#010101" stroke-width="0.25" stroke-miterlimit="10"/>
<path d="M43.11 33.9101C43.11 33.9101 43.11 33.9101 43.11 33.9001" stroke="#010101" stroke-width="0.25" stroke-miterlimit="10"/>
<path d="M29.95 33.9601C29.95 33.9601 29.92 33.9501 29.91 33.9401C29.91 33.9401 29.89 33.9201 29.88 33.9101C29.88 33.9101 29.88 33.9101 29.88 33.9001" stroke="#010101" stroke-width="0.25" stroke-miterlimit="10"/>
<path d="M10.41 33.79C10.41 33.79 10.4 33.87 10.37 33.9" stroke="#010101" stroke-width="0.25" stroke-miterlimit="10"/>
<path d="M30.18 33.9102C30.18 33.9102 30.16 33.9302 30.15 33.9302C30.14 33.9302 30.13 33.9502 30.11 33.9502" stroke="#010101" stroke-width="0.25" stroke-miterlimit="10"/>
<path d="M43.09 33.8801C43.04 33.7901 43.08 33.6701 43.17 33.6201" stroke="#010101" stroke-width="0.25" stroke-miterlimit="10"/>
<path d="M3.72998 33.9402C3.72998 33.9402 3.73998 33.9302 3.74998 33.9202" stroke="#010101" stroke-width="0.25" stroke-miterlimit="10"/>
<path d="M28.76 3.56006V3.75006" stroke="#010101" stroke-width="0.25" stroke-miterlimit="10"/>
<path d="M30.09 33.9702C30.09 33.9702 30.05 33.9702 30.04 33.9702" stroke="#010101" stroke-width="0.25" stroke-miterlimit="10"/>
<path d="M23.28 33.9101C23.28 33.9101 23.28 33.9101 23.28 33.9001" stroke="#010101" stroke-width="0.25" stroke-miterlimit="10"/>
<path d="M10.0699 33.9101C10.0699 33.9101 10.0699 33.9101 10.0699 33.9001" stroke="#010101" stroke-width="0.25" stroke-miterlimit="10"/>
<path d="M28.96 3.56006H28.77" stroke="#010101" stroke-width="0.25" stroke-miterlimit="10"/>
<path d="M28.39 3.13013V31.3801" stroke="#010101" stroke-width="0.25" stroke-miterlimit="10"/>
<path d="M49.92 3.56006H49.73" stroke="#010101" stroke-width="0.25" stroke-miterlimit="10"/>
<path d="M49.67 33.78C49.67 33.78 49.68 33.86 49.71 33.9" stroke="#010101" stroke-width="0.25" stroke-miterlimit="10"/>
<path d="M3.54004 33.6101C3.47004 33.6401 3.42004 33.7101 3.42004 33.7801" stroke="#010101" stroke-width="0.25" stroke-miterlimit="10"/>
<path d="M49.76 30.15V3.75" stroke="#010101" stroke-width="0.25" stroke-miterlimit="10"/>
<path d="M0.540039 7.76015C0.570039 7.69015 0.640039 7.65015 0.720039 7.65015" stroke="#010101" stroke-width="0.25" stroke-miterlimit="10"/>
<path d="M49.16 4.31006C49.11 4.36006 49.0701 4.40006 49.0401 4.43006C49.0201 4.45006 49.0101 4.46006 48.9901 4.48006C48.9701 4.50006 48.96 4.51006 48.94 4.53006C48.92 4.55006 48.91 4.56006 48.89 4.58006C48.87 4.60006 48.86 4.61006 48.84 4.63006C48.82 4.65006 48.8101 4.66006 48.7901 4.68006C48.7701 4.70006 48.7601 4.71006 48.7401 4.73006C48.7201 4.75006 48.71 4.76006 48.69 4.78006C48.67 4.80006 48.66 4.81006 48.64 4.83006C48.61 4.86006 48.58 4.89006 48.55 4.92006" stroke="#010101" stroke-width="0.25" stroke-miterlimit="10"/>
<path d="M10.0599 0.600088C10.0599 0.600088 10.0599 0.600088 10.0599 0.590088" stroke="#010101" stroke-width="0.25" stroke-miterlimit="10"/>
<path d="M0.599966 14.27C0.599966 14.27 0.599966 14.27 0.589966 14.27" stroke="#010101" stroke-width="0.25" stroke-miterlimit="10"/>
<path d="M10.16 0.530029C10.16 0.530029 10.2 0.530029 10.22 0.530029" stroke="#010101" stroke-width="0.25" stroke-miterlimit="10"/>
<path d="M30.04 0.900205C29.94 0.900205 29.85 0.820205 29.85 0.710205" stroke="#010101" stroke-width="0.25" stroke-miterlimit="10"/>
<path d="M29.95 0.540029C29.95 0.540029 29.9699 0.540029 29.9799 0.530029" stroke="#010101" stroke-width="0.25" stroke-miterlimit="10"/>
<path d="M49.72 3.71021H28.95" stroke="#010101" stroke-width="0.25" stroke-miterlimit="10"/>
<path d="M3.12 3.75V30.75" stroke="#010101" stroke-width="0.25" stroke-miterlimit="10"/>
<path d="M3.44995 0.600166C3.50995 0.510166 3.62995 0.490166 3.70995 0.550166C3.71995 0.550166 3.72995 0.570166 3.73995 0.580166" stroke="#010101" stroke-width="0.25" stroke-miterlimit="10"/>
<path d="M0.590039 14.2602C0.590039 14.2602 0.570039 14.2402 0.560039 14.2302C0.560039 14.2202 0.540039 14.2102 0.540039 14.1902" stroke="#010101" stroke-width="0.25" stroke-miterlimit="10"/>
<path d="M3.75 3.12012H3.13" stroke="#010101" stroke-width="0.25" stroke-miterlimit="10"/>
<path d="M0.540039 14.0302C0.540039 14.0302 0.550039 14.0002 0.560039 13.9902C0.560039 13.9902 0.580039 13.9702 0.590039 13.9602" stroke="#010101" stroke-width="0.25" stroke-miterlimit="10"/>
<path d="M28.96 3.71021H28.92" stroke="#010101" stroke-width="0.25" stroke-miterlimit="10"/>
<path d="M50.35 3.12012H49.73" stroke="#010101" stroke-width="0.25" stroke-miterlimit="10"/>
<path d="M10.06 33.9C10.06 33.9 10.03 33.83 10.03 33.79" stroke="#010101" stroke-width="0.25" stroke-miterlimit="10"/>
<path d="M0.540029 20.4702C0.540029 20.4702 0.540029 20.4502 0.530029 20.4402" stroke="#010101" stroke-width="0.25" stroke-miterlimit="10"/>
<path d="M50.35 30.75V3.75" stroke="#010101" stroke-width="0.25" stroke-miterlimit="10"/>
<path d="M0.530029 20.33C0.530029 20.33 0.530029 20.31 0.540029 20.3" stroke="#010101" stroke-width="0.25" stroke-miterlimit="10"/>
<path d="M28.96 30.79H49.73" stroke="#010101" stroke-width="0.25" stroke-miterlimit="10"/>
<path d="M28.78 30.93V30.75" stroke="#010101" stroke-width="0.25" stroke-miterlimit="10"/>
<path d="M3.12 3.12012V3.74012" stroke="#010101" stroke-width="0.25" stroke-miterlimit="10"/>
<path d="M3.12 30.75V31.38" stroke="#010101" stroke-width="0.25" stroke-miterlimit="10"/>
<path d="M0.709976 20.58C0.709976 20.58 0.629976 20.57 0.599976 20.55" stroke="#010101" stroke-width="0.25" stroke-miterlimit="10"/>
<path d="M0.540039 20.3002C0.540039 20.3002 0.550039 20.2702 0.560039 20.2602C0.560039 20.2602 0.580039 20.2402 0.590039 20.2302C0.590039 20.2302 0.590039 20.2302 0.600039 20.2302" stroke="#010101" stroke-width="0.25" stroke-miterlimit="10"/>
<path d="M28.92 30.1902H49.16" stroke="#010101" stroke-width="0.25" stroke-miterlimit="10"/>
<path d="M50.35 31.3702V30.7402" stroke="#010101" stroke-width="0.25" stroke-miterlimit="10"/>
<path d="M49.67 0.720215C49.67 0.720215 49.69 0.810215 49.72 0.840215" stroke="#010101" stroke-width="0.25" stroke-miterlimit="10"/>
<path d="M26.74 3.12012H3.75" stroke="#010101" stroke-width="0.25" stroke-miterlimit="10"/>
<path d="M49.72 30.79H49.76" stroke="#010101" stroke-width="0.25" stroke-miterlimit="10"/>
<path d="M43.41 0.600098C43.41 0.600098 43.45 0.670098 43.45 0.710098" stroke="#010101" stroke-width="0.25" stroke-miterlimit="10"/>
<path d="M49.73 0.840088C49.78 0.890088 49.86 0.910088 49.93 0.880088" stroke="#010101" stroke-width="0.25" stroke-miterlimit="10"/>
<path d="M49.71 0.600098C49.71 0.600098 49.67 0.680098 49.67 0.720098" stroke="#010101" stroke-width="0.25" stroke-miterlimit="10"/>
<path d="M48.55 29.02V29.57" stroke="#010101" stroke-width="0.25" stroke-miterlimit="10"/>
<path d="M0.52002 14.1101C0.52002 14.1101 0.52002 14.0701 0.52002 14.0601" stroke="#010101" stroke-width="0.25" stroke-miterlimit="10"/>
<path d="M36.65 0.900049C36.58 0.900049 36.51 0.860049 36.48 0.800049" stroke="#010101" stroke-width="0.25" stroke-miterlimit="10"/>
<path d="M49.8 0.530029C49.8 0.530029 49.78 0.530029 49.77 0.540029" stroke="#010101" stroke-width="0.25" stroke-miterlimit="10"/>
<path d="M10.37 33.9001C10.32 33.9701 10.24 33.9901 10.16 33.9701" stroke="#010101" stroke-width="0.25" stroke-miterlimit="10"/>
<path d="M27.36 31.37C27.31 31.32 27.27 31.28 27.24 31.25C27.22 31.23 27.21 31.22 27.19 31.2C27.17 31.18 27.16 31.17 27.14 31.15C27.12 31.13 27.11 31.12 27.09 31.1C27.07 31.08 27.06 31.07 27.04 31.05C27.02 31.03 27.01 31.02 26.99 31C26.97 30.98 26.96 30.97 26.94 30.95C26.92 30.93 26.91 30.92 26.89 30.9C26.87 30.88 26.86 30.87 26.84 30.85C26.81 30.82 26.78 30.79 26.75 30.76" stroke="#010101" stroke-width="0.25" stroke-miterlimit="10"/>
<path d="M52.87 20.2302C52.87 20.2302 52.87 20.2302 52.88 20.2302" stroke="#010101" stroke-width="0.25" stroke-miterlimit="10"/>
<path d="M23.27 33.9C23.27 33.9 23.24 33.83 23.24 33.79" stroke="#010101" stroke-width="0.25" stroke-miterlimit="10"/>
<path d="M23.52 33.9601C23.43 34.0101 23.31 33.9701 23.26 33.8801" stroke="#010101" stroke-width="0.25" stroke-miterlimit="10"/>
<path d="M10.0699 0.590039C10.0699 0.590039 10.0899 0.570039 10.0999 0.560039C10.1099 0.560039 10.1199 0.540039 10.1399 0.540039" stroke="#010101" stroke-width="0.25" stroke-miterlimit="10"/>
<path d="M23.62 0.710205C23.62 0.780205 23.58 0.850205 23.52 0.880205" stroke="#010101" stroke-width="0.25" stroke-miterlimit="10"/>
<path d="M10.13 0.540029C10.13 0.540029 10.15 0.540029 10.16 0.530029" stroke="#010101" stroke-width="0.25" stroke-miterlimit="10"/>
<path d="M49.16 30.1901C49.11 30.1401 49.0701 30.1001 49.0401 30.0701C49.0201 30.0501 49.0101 30.0401 48.9901 30.0201C48.9701 30.0001 48.96 29.9901 48.94 29.9701C48.92 29.9501 48.91 29.9401 48.89 29.9201C48.87 29.9001 48.86 29.8901 48.84 29.8701C48.82 29.8501 48.8101 29.8401 48.7901 29.8201C48.7701 29.8001 48.7601 29.7901 48.7401 29.7701C48.7201 29.7501 48.71 29.7401 48.69 29.7201C48.67 29.7001 48.66 29.6901 48.64 29.6701C48.61 29.6401 48.58 29.6101 48.55 29.5801" stroke="#010101" stroke-width="0.25" stroke-miterlimit="10"/>
<path d="M0.899961 26.6602C0.899961 26.7602 0.809961 26.8502 0.709961 26.8502" stroke="#010101" stroke-width="0.25" stroke-miterlimit="10"/>
<path d="M3.75 0.580078C3.75 0.580078 3.8 0.660078 3.8 0.710078" stroke="#010101" stroke-width="0.25" stroke-miterlimit="10"/>
<path d="M43.34 0.540039C43.34 0.540039 43.37 0.550039 43.38 0.560039C43.38 0.560039 43.4 0.580039 43.41 0.580039" stroke="#010101" stroke-width="0.25" stroke-miterlimit="10"/>
<path d="M50.05 33.7902C50.05 33.7902 50.05 33.7302 50.03 33.7002" stroke="#010101" stroke-width="0.25" stroke-miterlimit="10"/>
<path d="M3.54004 33.9702C3.54004 33.9702 3.54004 33.9702 3.55004 33.9702" stroke="#010101" stroke-width="0.25" stroke-miterlimit="10"/>
<path d="M50.35 3.75013V3.13013" stroke="#010101" stroke-width="0.25" stroke-miterlimit="10"/>
<path d="M28.76 30.9402H28.95" stroke="#010101" stroke-width="0.25" stroke-miterlimit="10"/>
<path d="M3.42004 33.79C3.42004 33.79 3.43004 33.87 3.46004 33.9" stroke="#010101" stroke-width="0.25" stroke-miterlimit="10"/>
<path d="M3.60999 33.9802C3.60999 33.9802 3.64999 33.9802 3.66999 33.9802" stroke="#010101" stroke-width="0.25" stroke-miterlimit="10"/>
<path d="M3.75 33.9202C3.75 33.9202 3.75 33.9202 3.76 33.9102" stroke="#010101" stroke-width="0.25" stroke-miterlimit="10"/>
<path d="M16.98 0.600098C16.98 0.600098 17.02 0.670098 17.02 0.710098" stroke="#010101" stroke-width="0.25" stroke-miterlimit="10"/>
<path d="M23.24 33.7901C23.24 33.7201 23.28 33.6501 23.34 33.6201" stroke="#010101" stroke-width="0.25" stroke-miterlimit="10"/>
<path d="M0.529966 20.4401C0.499966 20.3401 0.559966 20.2301 0.659966 20.2001C0.759966 20.1701 0.869966 20.2301 0.899966 20.3301C0.929966 20.4301 0.869966 20.5401 0.769966 20.5701C0.679966 20.6001 0.589966 20.5601 0.549966 20.4701" stroke="#010101" stroke-width="0.25" stroke-miterlimit="10"/>
<path d="M49.16 4.31006H28.92" stroke="#010101" stroke-width="0.25" stroke-miterlimit="10"/>
<path d="M3.52002 33.9602C3.52002 33.9602 3.53002 33.9602 3.54002 33.9602" stroke="#010101" stroke-width="0.25" stroke-miterlimit="10"/>
<path d="M3.8 0.710205C3.8 0.710205 3.78 0.800205 3.75 0.840205" stroke="#010101" stroke-width="0.25" stroke-miterlimit="10"/>
<path d="M36.79 33.9102C36.79 33.9102 36.77 33.9302 36.76 33.9302C36.75 33.9302 36.74 33.9502 36.72 33.9502" stroke="#010101" stroke-width="0.25" stroke-miterlimit="10"/>
<path d="M3.68994 33.9602C3.68994 33.9602 3.70994 33.9502 3.71994 33.9402" stroke="#010101" stroke-width="0.25" stroke-miterlimit="10"/>
<path d="M0.530029 26.6101C0.530029 26.6101 0.530029 26.5901 0.540029 26.5801" stroke="#010101" stroke-width="0.25" stroke-miterlimit="10"/>
<path d="M49.92 30.75V3.75" stroke="#010101" stroke-width="0.25" stroke-miterlimit="10"/>
<path d="M52.9301 7.76001C52.9301 7.76001 52.9301 7.78001 52.9401 7.79001" stroke="#010101" stroke-width="0.25" stroke-miterlimit="10"/>
<path d="M0.799971 14.28C0.799971 14.28 0.739971 14.3 0.719971 14.3" stroke="#010101" stroke-width="0.25" stroke-miterlimit="10"/>
<path d="M0.709961 7.65015C0.779961 7.65015 0.849961 7.69015 0.879961 7.75015" stroke="#010101" stroke-width="0.25" stroke-miterlimit="10"/>
<path d="M50.61 31.6401H49.72" stroke="#010101" stroke-width="0.25" stroke-miterlimit="10"/>
<path d="M43.42 33.7002C43.42 33.7002 43.44 33.7602 43.44 33.7902" stroke="#010101" stroke-width="0.25" stroke-miterlimit="10"/>
<path d="M3.68994 0.880088C3.68994 0.880088 3.72994 0.860088 3.73994 0.840088" stroke="#010101" stroke-width="0.25" stroke-miterlimit="10"/>
<path d="M0.530029 7.79001C0.530029 7.79001 0.530029 7.77001 0.540029 7.76001" stroke="#010101" stroke-width="0.25" stroke-miterlimit="10"/>
<path d="M53.35 0.120117V3.74012" stroke="#010101" stroke-width="0.25" stroke-miterlimit="10"/>
<path d="M0.879961 7.75C0.929961 7.84 0.889961 7.96 0.799961 8.01C0.769961 8.02 0.739961 8.03 0.709961 8.03" stroke="#010101" stroke-width="0.25" stroke-miterlimit="10"/>
<path d="M50.03 0.620088C50.03 0.620088 50.02 0.600088 50.01 0.590088" stroke="#010101" stroke-width="0.25" stroke-miterlimit="10"/>
<path d="M36.73 0.880127C36.73 0.880127 36.67 0.900127 36.64 0.900127" stroke="#010101" stroke-width="0.25" stroke-miterlimit="10"/>
<path d="M10.4099 0.710205C10.4099 0.780205 10.3699 0.850205 10.3099 0.880205" stroke="#010101" stroke-width="0.25" stroke-miterlimit="10"/>
<path d="M3.44994 33.9001L3.43994 33.8801" stroke="#010101" stroke-width="0.25" stroke-miterlimit="10"/>
<path d="M3.68996 33.9602C3.60996 34.0002 3.51996 33.9802 3.45996 33.9102" stroke="#010101" stroke-width="0.25" stroke-miterlimit="10"/>
<path d="M52.9499 7.84015C52.9499 7.94015 52.8599 8.03015 52.7599 8.03015C52.6599 8.03015 52.5699 7.94015 52.5699 7.84015C52.5699 7.74015 52.6599 7.65015 52.7599 7.65015C52.7999 7.65015 52.8399 7.66015 52.8699 7.68015" stroke="#010101" stroke-width="0.25" stroke-miterlimit="10"/>
<path d="M3.74999 30.76H3.73999" stroke="#010101" stroke-width="0.25" stroke-miterlimit="10"/>
<path d="M26.74 30.76H3.75" stroke="#010101" stroke-width="0.25" stroke-miterlimit="10"/>
<path d="M36.73 0.540039C36.73 0.540039 36.76 0.550039 36.77 0.560039C36.77 0.560039 36.79 0.580039 36.8 0.580039" stroke="#010101" stroke-width="0.25" stroke-miterlimit="10"/>
<path d="M0.709976 8.03C0.709976 8.03 0.629976 8.02 0.599976 8" stroke="#010101" stroke-width="0.25" stroke-miterlimit="10"/>
<path d="M36.84 0.710205C36.84 0.780205 36.8 0.850205 36.74 0.880205" stroke="#010101" stroke-width="0.25" stroke-miterlimit="10"/>
<path d="M52.88 7.69019C52.88 7.69019 52.92 7.73019 52.93 7.75019" stroke="#010101" stroke-width="0.25" stroke-miterlimit="10"/>
<path d="M26.75 30.76H26.74" stroke="#010101" stroke-width="0.25" stroke-miterlimit="10"/>
<path d="M3.75 34.3801H0.119995" stroke="#010101" stroke-width="0.25" stroke-miterlimit="10"/>
<path d="M3.80001 33.79C3.80001 33.79 3.79001 33.87 3.76001 33.9" stroke="#010101" stroke-width="0.25" stroke-miterlimit="10"/>
<path d="M28.76 3.75V30.75" stroke="#010101" stroke-width="0.25" stroke-miterlimit="10"/>
<path d="M43.17 33.6201C43.17 33.6201 43.23 33.6001 43.26 33.6001" stroke="#010101" stroke-width="0.25" stroke-miterlimit="10"/>
<path d="M0.540029 7.92014C0.540029 7.92014 0.540029 7.90014 0.530029 7.89014" stroke="#010101" stroke-width="0.25" stroke-miterlimit="10"/>
<path d="M28.92 4.93018H48.54" stroke="#010101" stroke-width="0.25" stroke-miterlimit="10"/>
<path d="M52.5699 26.6602C52.5699 26.5902 52.6099 26.5202 52.6699 26.4902" stroke="#010101" stroke-width="0.25" stroke-miterlimit="10"/>
<path d="M52.87 26.5C52.87 26.5 52.87 26.5 52.88 26.5" stroke="#010101" stroke-width="0.25" stroke-miterlimit="10"/>
<path d="M23.59 33.9001C23.59 33.9001 23.59 33.9001 23.58 33.9101" stroke="#010101" stroke-width="0.25" stroke-miterlimit="10"/>
<path d="M52.7599 26.8502C52.6599 26.8502 52.5699 26.7602 52.5699 26.6602" stroke="#010101" stroke-width="0.25" stroke-miterlimit="10"/>
<path d="M52.93 26.7402C52.93 26.7402 52.92 26.7702 52.91 26.7802C52.91 26.7802 52.89 26.8002 52.88 26.8102" stroke="#010101" stroke-width="0.25" stroke-miterlimit="10"/>
<path d="M49.72 33.6602C49.72 33.6602 49.67 33.7402 49.67 33.7802" stroke="#010101" stroke-width="0.25" stroke-miterlimit="10"/>
<path d="M52.87 14.27C52.87 14.27 52.85 14.27 52.85 14.28" stroke="#010101" stroke-width="0.25" stroke-miterlimit="10"/>
<path d="M49.7199 33.9201C49.7199 33.9201 49.6999 33.8901 49.6899 33.8801" stroke="#010101" stroke-width="0.25" stroke-miterlimit="10"/>
<path d="M52.67 26.4902C52.67 26.4902 52.73 26.4702 52.75 26.4702" stroke="#010101" stroke-width="0.25" stroke-miterlimit="10"/>
<path d="M52.88 14.26C52.88 14.26 52.88 14.26 52.87 14.26" stroke="#010101" stroke-width="0.25" stroke-miterlimit="10"/>
<path d="M23.51 33.9602C23.51 33.9602 23.49 33.9602 23.48 33.9702" stroke="#010101" stroke-width="0.25" stroke-miterlimit="10"/>
<path d="M23.58 33.9102C23.58 33.9102 23.56 33.9302 23.55 33.9302C23.54 33.9302 23.53 33.9502 23.51 33.9502" stroke="#010101" stroke-width="0.25" stroke-miterlimit="10"/>
<path d="M0.599976 26.5002C0.599976 26.5002 0.669976 26.4702 0.709976 26.4702" stroke="#010101" stroke-width="0.25" stroke-miterlimit="10"/>
<path d="M3.75 0.120117H49.72" stroke="#010101" stroke-width="0.25" stroke-miterlimit="10"/>
<path d="M23.37 33.9702C23.37 33.9702 23.35 33.9702 23.34 33.9602" stroke="#010101" stroke-width="0.25" stroke-miterlimit="10"/>
<path d="M52.88 7.69019C52.88 7.69019 52.9 7.71019 52.91 7.72019C52.91 7.73019 52.93 7.74019 52.93 7.75019" stroke="#010101" stroke-width="0.25" stroke-miterlimit="10"/>
<path d="M30.04 33.9802C30.04 33.9802 30 33.9802 29.98 33.9802" stroke="#010101" stroke-width="0.25" stroke-miterlimit="10"/>
<path d="M0.540029 26.7402C0.540029 26.7402 0.540029 26.7202 0.530029 26.7102" stroke="#010101" stroke-width="0.25" stroke-miterlimit="10"/>
<path d="M52.87 13.9602C52.87 13.9602 52.87 13.9602 52.88 13.9602" stroke="#010101" stroke-width="0.25" stroke-miterlimit="10"/>
<path d="M29.88 33.9C29.88 33.9 29.85 33.83 29.85 33.79" stroke="#010101" stroke-width="0.25" stroke-miterlimit="10"/>
<path d="M52.87 7.68018C52.87 7.68018 52.87 7.68018 52.88 7.68018" stroke="#010101" stroke-width="0.25" stroke-miterlimit="10"/>
<path d="M49.72 0.580039C49.72 0.580039 49.75 0.550039 49.77 0.540039" stroke="#010101" stroke-width="0.25" stroke-miterlimit="10"/>
<path d="M3.75 3.74023H26.74" stroke="#010101" stroke-width="0.25" stroke-miterlimit="10"/>
<path d="M49.8 0.530079C49.8 0.530079 49.89 0.520079 49.93 0.530079" stroke="#010101" stroke-width="0.25" stroke-miterlimit="10"/>
<path d="M49.9399 0.540039C50.0099 0.570039 50.0499 0.640039 50.0499 0.710039" stroke="#010101" stroke-width="0.25" stroke-miterlimit="10"/>
<path d="M36.49 33.9C36.43 33.81 36.45 33.7 36.54 33.64C36.63 33.58 36.74 33.6 36.8 33.69C36.85 33.76 36.84 33.86 36.79 33.92" stroke="#010101" stroke-width="0.25" stroke-miterlimit="10"/>
<path d="M49.9501 0.880127C49.9501 0.880127 49.9401 0.880127 49.9301 0.880127" stroke="#010101" stroke-width="0.25" stroke-miterlimit="10"/>
<path d="M43.4 0.590088C43.4 0.590088 43.42 0.610088 43.43 0.630088" stroke="#010101" stroke-width="0.25" stroke-miterlimit="10"/>
<path d="M36.73 33.9602C36.65 34.0002 36.55 33.9802 36.49 33.9102" stroke="#010101" stroke-width="0.25" stroke-miterlimit="10"/>
<path d="M36.48 0.800078C36.43 0.710078 36.47 0.590078 36.56 0.540078C36.61 0.510078 36.67 0.510078 36.73 0.540078" stroke="#010101" stroke-width="0.25" stroke-miterlimit="10"/>
<path d="M36.79 0.590088C36.79 0.590088 36.84 0.670088 36.84 0.710088" stroke="#010101" stroke-width="0.25" stroke-miterlimit="10"/>
<path d="M52.9301 26.5701C52.9601 26.6201 52.9601 26.6901 52.9301 26.7401" stroke="#010101" stroke-width="0.25" stroke-miterlimit="10"/>
<path d="M29.85 0.710039C29.85 0.640039 29.89 0.570039 29.95 0.540039" stroke="#010101" stroke-width="0.25" stroke-miterlimit="10"/>
<path d="M29.98 0.530079C29.98 0.530079 30.07 0.520079 30.12 0.530079" stroke="#010101" stroke-width="0.25" stroke-miterlimit="10"/>
<path d="M52.88 26.8101C52.88 26.8101 52.86 26.8301 52.84 26.8301" stroke="#010101" stroke-width="0.25" stroke-miterlimit="10"/>
<path d="M30.1801 0.590088C30.1801 0.590088 30.2001 0.610088 30.2101 0.630088" stroke="#010101" stroke-width="0.25" stroke-miterlimit="10"/>
<path d="M23.5199 0.880049C23.4299 0.930049 23.3099 0.880049 23.2599 0.800049C23.2099 0.710049 23.2499 0.590049 23.3399 0.550049" stroke="#010101" stroke-width="0.25" stroke-miterlimit="10"/>
<path d="M52.93 20.3001C52.98 20.3901 52.93 20.5101 52.84 20.5501C52.75 20.5901 52.63 20.5501 52.59 20.4601C52.55 20.3701 52.59 20.2501 52.68 20.2101C52.74 20.1801 52.82 20.1901 52.87 20.2301" stroke="#010101" stroke-width="0.25" stroke-miterlimit="10"/>
<path d="M23.37 0.530224C23.46 0.500224 23.55 0.540224 23.6 0.620224" stroke="#010101" stroke-width="0.25" stroke-miterlimit="10"/>
<path d="M16.91 0.880215C16.82 0.930215 16.7 0.890215 16.65 0.800215C16.64 0.770215 16.63 0.750215 16.63 0.720215" stroke="#010101" stroke-width="0.25" stroke-miterlimit="10"/>
<path d="M43.4401 0.71002C43.4401 0.81002 43.3501 0.90002 43.2501 0.90002C43.1501 0.90002 43.0601 0.81002 43.0601 0.71002C43.0601 0.61002 43.1501 0.52002 43.2501 0.52002C43.2801 0.52002 43.3101 0.52002 43.3301 0.54002" stroke="#010101" stroke-width="0.25" stroke-miterlimit="10"/>
<path d="M16.67 0.600039C16.67 0.600039 16.71 0.550039 16.74 0.540039" stroke="#010101" stroke-width="0.25" stroke-miterlimit="10"/>
<path d="M0.599966 26.8201C0.599966 26.8201 0.599966 26.8201 0.589966 26.8201" stroke="#010101" stroke-width="0.25" stroke-miterlimit="10"/>
<path d="M16.77 0.530224C16.86 0.500224 16.95 0.540224 17 0.620224" stroke="#010101" stroke-width="0.25" stroke-miterlimit="10"/>
<path d="M0.530029 26.7201C0.530029 26.7201 0.530029 26.6801 0.530029 26.6601C0.530029 26.6401 0.530029 26.6201 0.530029 26.6101" stroke="#010101" stroke-width="0.25" stroke-miterlimit="10"/>
<path d="M10.3 0.880215C10.21 0.930215 10.09 0.890215 10.04 0.800215C10.03 0.770215 10.02 0.750215 10.02 0.720215" stroke="#010101" stroke-width="0.25" stroke-miterlimit="10"/>
<path d="M10.21 0.52002C10.28 0.52002 10.35 0.56002 10.38 0.62002" stroke="#010101" stroke-width="0.25" stroke-miterlimit="10"/>
<path d="M3.69003 0.880215C3.60003 0.930215 3.48003 0.890215 3.43003 0.800215C3.42003 0.770215 3.41003 0.750215 3.41003 0.720215" stroke="#010101" stroke-width="0.25" stroke-miterlimit="10"/>
<path d="M43.44 33.79C43.44 33.79 43.43 33.87 43.4 33.9" stroke="#010101" stroke-width="0.25" stroke-miterlimit="10"/>
<path d="M49.72 0.120117H53.34" stroke="#010101" stroke-width="0.25" stroke-miterlimit="10"/>
<path d="M30.18 33.9102C30.18 33.9102 30.16 33.9302 30.15 33.9302C30.14 33.9302 30.13 33.9502 30.11 33.9502" stroke="#010101" stroke-width="0.25" stroke-miterlimit="10"/>
<path d="M43.34 33.9601C43.25 34.0001 43.15 33.9801 43.1 33.9001" stroke="#010101" stroke-width="0.25" stroke-miterlimit="10"/>
<path d="M52.67 26.4902C52.67 26.4902 52.73 26.4702 52.75 26.4702" stroke="#010101" stroke-width="0.25" stroke-miterlimit="10"/>
<path d="M43.09 33.8801C43.04 33.7901 43.08 33.6701 43.17 33.6201" stroke="#010101" stroke-width="0.25" stroke-miterlimit="10"/>
<path d="M49.72 33.6602C49.79 33.5802 49.91 33.5802 49.99 33.6502C50.01 33.6702 50.02 33.6802 50.03 33.7002" stroke="#010101" stroke-width="0.25" stroke-miterlimit="10"/>
<path d="M50.05 33.79C50.05 33.89 49.96 33.98 49.86 33.98C49.81 33.98 49.76 33.96 49.72 33.92" stroke="#010101" stroke-width="0.25" stroke-miterlimit="10"/>
<path d="M30.1901 33.9001C30.1901 33.9001 30.1901 33.9001 30.1801 33.9101" stroke="#010101" stroke-width="0.25" stroke-miterlimit="10"/>
<path d="M49.7199 33.9201C49.7199 33.9201 49.6999 33.8901 49.6899 33.8801" stroke="#010101" stroke-width="0.25" stroke-miterlimit="10"/>
<path d="M52.94 14.0601C52.96 14.1301 52.94 14.2101 52.88 14.2601" stroke="#010101" stroke-width="0.25" stroke-miterlimit="10"/>
<path d="M52.85 14.28C52.85 14.28 52.79 14.3 52.76 14.3" stroke="#010101" stroke-width="0.25" stroke-miterlimit="10"/>
<path d="M52.5699 26.6602C52.5699 26.5902 52.6099 26.5202 52.6699 26.4902" stroke="#010101" stroke-width="0.25" stroke-miterlimit="10"/>
<path d="M30.09 33.9702C30.09 33.9702 30.05 33.9702 30.04 33.9702" stroke="#010101" stroke-width="0.25" stroke-miterlimit="10"/>
<path d="M52.88 20.2402C52.88 20.2402 52.92 20.2802 52.93 20.3002" stroke="#010101" stroke-width="0.25" stroke-miterlimit="10"/>
<path d="M52.9499 7.84015C52.9499 7.94015 52.8599 8.03015 52.7599 8.03015C52.6599 8.03015 52.5699 7.94015 52.5699 7.84015C52.5699 7.74015 52.6599 7.65015 52.7599 7.65015C52.7999 7.65015 52.8399 7.66015 52.8699 7.68015" stroke="#010101" stroke-width="0.25" stroke-miterlimit="10"/>
<path d="M52.88 7.69019C52.88 7.69019 52.92 7.73019 52.93 7.75019" stroke="#010101" stroke-width="0.25" stroke-miterlimit="10"/>
<path d="M49.72 0.580039C49.72 0.580039 49.75 0.550039 49.77 0.540039" stroke="#010101" stroke-width="0.25" stroke-miterlimit="10"/>
<path d="M30.12 33.9602C30.12 33.9602 30.1 33.9602 30.09 33.9702" stroke="#010101" stroke-width="0.25" stroke-miterlimit="10"/>
<path d="M49.8 0.530079C49.8 0.530079 49.89 0.520079 49.93 0.530079" stroke="#010101" stroke-width="0.25" stroke-miterlimit="10"/>
<path d="M49.9399 0.540039C50.0099 0.570039 50.0499 0.640039 50.0499 0.710039" stroke="#010101" stroke-width="0.25" stroke-miterlimit="10"/>
<path d="M49.9501 0.880127C49.9501 0.880127 49.9401 0.880127 49.9301 0.880127" stroke="#010101" stroke-width="0.25" stroke-miterlimit="10"/>
<path d="M36.73 33.9602C36.65 34.0002 36.55 33.9802 36.49 33.9102" stroke="#010101" stroke-width="0.25" stroke-miterlimit="10"/>
<path d="M29.85 33.7901C29.85 33.6901 29.94 33.6001 30.04 33.6001" stroke="#010101" stroke-width="0.25" stroke-miterlimit="10"/>
<path d="M36.48 0.800078C36.43 0.710078 36.47 0.590078 36.56 0.540078C36.61 0.510078 36.67 0.510078 36.73 0.540078" stroke="#010101" stroke-width="0.25" stroke-miterlimit="10"/>
<path d="M52.9301 26.5701C52.9601 26.6201 52.9601 26.6901 52.9301 26.7401" stroke="#010101" stroke-width="0.25" stroke-miterlimit="10"/>
<path d="M29.85 0.710039C29.85 0.640039 29.89 0.570039 29.95 0.540039" stroke="#010101" stroke-width="0.25" stroke-miterlimit="10"/>
<path d="M52.88 26.8101C52.88 26.8101 52.86 26.8301 52.84 26.8301" stroke="#010101" stroke-width="0.25" stroke-miterlimit="10"/>
<path d="M29.98 0.530079C29.98 0.530079 30.07 0.520079 30.12 0.530079" stroke="#010101" stroke-width="0.25" stroke-miterlimit="10"/>
<path d="M29.95 33.9601C29.95 33.9601 29.92 33.9501 29.91 33.9401C29.91 33.9401 29.89 33.9201 29.88 33.9101C29.88 33.9101 29.88 33.9101 29.88 33.9001" stroke="#010101" stroke-width="0.25" stroke-miterlimit="10"/>
<path d="M30.1801 0.590088C30.1801 0.590088 30.2001 0.610088 30.2101 0.630088" stroke="#010101" stroke-width="0.25" stroke-miterlimit="10"/>
<path d="M52.93 20.3001C52.98 20.3901 52.93 20.5101 52.84 20.5501C52.75 20.5901 52.63 20.5501 52.59 20.4601C52.55 20.3701 52.59 20.2501 52.68 20.2101C52.74 20.1801 52.82 20.1901 52.87 20.2301" stroke="#010101" stroke-width="0.25" stroke-miterlimit="10"/>
<path d="M23.37 0.530224C23.46 0.500224 23.55 0.540224 23.6 0.620224" stroke="#010101" stroke-width="0.25" stroke-miterlimit="10"/>
<path d="M43.4401 0.71002C43.4401 0.81002 43.3501 0.90002 43.2501 0.90002C43.1501 0.90002 43.0601 0.81002 43.0601 0.71002C43.0601 0.61002 43.1501 0.52002 43.2501 0.52002C43.2801 0.52002 43.3101 0.52002 43.3301 0.54002" stroke="#010101" stroke-width="0.25" stroke-miterlimit="10"/>
<path d="M10.41 33.79C10.41 33.79 10.4 33.87 10.37 33.9" stroke="#010101" stroke-width="0.25" stroke-miterlimit="10"/>
<path d="M16.67 0.600039C16.67 0.600039 16.71 0.550039 16.74 0.540039" stroke="#010101" stroke-width="0.25" stroke-miterlimit="10"/>
<path d="M0.530029 26.7201C0.530029 26.7201 0.530029 26.6801 0.530029 26.6601C0.530029 26.6401 0.530029 26.6201 0.530029 26.6101" stroke="#010101" stroke-width="0.25" stroke-miterlimit="10"/>
<path d="M10.3 0.880215C10.21 0.930215 10.09 0.890215 10.04 0.800215C10.03 0.770215 10.02 0.750215 10.02 0.720215" stroke="#010101" stroke-width="0.25" stroke-miterlimit="10"/>
<path d="M10.21 0.52002C10.28 0.52002 10.35 0.56002 10.38 0.62002" stroke="#010101" stroke-width="0.25" stroke-miterlimit="10"/>
<path d="M10.16 33.9702C10.16 33.9702 10.14 33.9702 10.13 33.9602" stroke="#010101" stroke-width="0.25" stroke-miterlimit="10"/>
<path d="M3.69003 0.880215C3.60003 0.930215 3.48003 0.890215 3.43003 0.800215C3.42003 0.770215 3.41003 0.750215 3.41003 0.720215" stroke="#010101" stroke-width="0.25" stroke-miterlimit="10"/>
<path d="M3.44995 0.600166C3.50995 0.510166 3.62995 0.490166 3.70995 0.550166C3.71995 0.550166 3.72995 0.570166 3.73995 0.580166" stroke="#010101" stroke-width="0.25" stroke-miterlimit="10"/>
<path d="M3.75 0.580078C3.75 0.580078 3.8 0.660078 3.8 0.710078" stroke="#010101" stroke-width="0.25" stroke-miterlimit="10"/>
<path d="M3.8 0.710205C3.8 0.710205 3.78 0.800205 3.75 0.840205" stroke="#010101" stroke-width="0.25" stroke-miterlimit="10"/>
<path d="M0.529966 14.1701C0.499966 14.0701 0.559966 13.9601 0.659966 13.9301C0.759966 13.9001 0.869966 13.9601 0.899966 14.0601C0.929966 14.1601 0.869966 14.2701 0.769966 14.3001C0.709966 14.3201 0.639966 14.3001 0.589966 14.2601" stroke="#010101" stroke-width="0.25" stroke-miterlimit="10"/>
<path d="M0.529966 20.4401C0.499966 20.3401 0.559966 20.2301 0.659966 20.2001C0.759966 20.1701 0.869966 20.2301 0.899966 20.3301C0.929966 20.4301 0.869966 20.5401 0.769966 20.5701C0.679966 20.6001 0.589966 20.5601 0.549966 20.4701" stroke="#010101" stroke-width="0.25" stroke-miterlimit="10"/>
<path d="M23.59 0.600098C23.59 0.600098 23.63 0.670098 23.63 0.710098" stroke="#010101" stroke-width="0.25" stroke-miterlimit="10"/>
<path d="M30.1899 0.600098C30.1899 0.600098 30.2299 0.670098 30.2299 0.710098" stroke="#010101" stroke-width="0.25" stroke-miterlimit="10"/>
<path d="M16.98 0.600098C16.98 0.600098 17.02 0.670098 17.02 0.710098" stroke="#010101" stroke-width="0.25" stroke-miterlimit="10"/>
<path d="M10.37 0.600098C10.37 0.600098 10.41 0.670098 10.41 0.710098" stroke="#010101" stroke-width="0.25" stroke-miterlimit="10"/>
<path d="M10.03 33.7901C10.03 33.6901 10.12 33.6001 10.22 33.6001C10.32 33.6001 10.41 33.6801 10.41 33.7901" stroke="#010101" stroke-width="0.25" stroke-miterlimit="10"/>
<path d="M23.27 33.9C23.27 33.9 23.24 33.83 23.24 33.79" stroke="#010101" stroke-width="0.25" stroke-miterlimit="10"/>
<path d="M0.600039 8.00018C0.600039 8.00018 0.550039 7.96018 0.540039 7.93018" stroke="#010101" stroke-width="0.25" stroke-miterlimit="10"/>
<path d="M0.540039 7.76015C0.570039 7.69015 0.640039 7.65015 0.720039 7.65015" stroke="#010101" stroke-width="0.25" stroke-miterlimit="10"/>
<path d="M0.899961 26.6602C0.899961 26.7602 0.809961 26.8502 0.709961 26.8502" stroke="#010101" stroke-width="0.25" stroke-miterlimit="10"/>
<path d="M23.62 0.710205C23.62 0.780205 23.58 0.850205 23.52 0.880205" stroke="#010101" stroke-width="0.25" stroke-miterlimit="10"/>
<path d="M23.35 0.540029C23.35 0.540029 23.37 0.540029 23.38 0.530029" stroke="#010101" stroke-width="0.25" stroke-miterlimit="10"/>
<path d="M30.04 0.900205C29.94 0.900205 29.85 0.820205 29.85 0.710205" stroke="#010101" stroke-width="0.25" stroke-miterlimit="10"/>
<path d="M29.95 0.540029C29.95 0.540029 29.9699 0.540029 29.9799 0.530029" stroke="#010101" stroke-width="0.25" stroke-miterlimit="10"/>
<path d="M30.1801 0.590088C30.1801 0.590088 30.1801 0.590088 30.1901 0.600088" stroke="#010101" stroke-width="0.25" stroke-miterlimit="10"/>
<path d="M16.63 0.710098C16.63 0.710098 16.64 0.630098 16.66 0.600098" stroke="#010101" stroke-width="0.25" stroke-miterlimit="10"/>
<path d="M16.74 0.540029C16.74 0.540029 16.76 0.540029 16.77 0.530029" stroke="#010101" stroke-width="0.25" stroke-miterlimit="10"/>
<path d="M49.72 0.590088C49.72 0.590088 49.72 0.590088 49.72 0.600088" stroke="#010101" stroke-width="0.25" stroke-miterlimit="10"/>
<path d="M49.73 0.840088C49.78 0.890088 49.86 0.910088 49.93 0.880088" stroke="#010101" stroke-width="0.25" stroke-miterlimit="10"/>
<path d="M49.9401 0.540039C49.9401 0.540039 49.9401 0.540039 49.9301 0.540039" stroke="#010101" stroke-width="0.25" stroke-miterlimit="10"/>
<path d="M49.71 0.600098C49.71 0.600098 49.67 0.680098 49.67 0.720098" stroke="#010101" stroke-width="0.25" stroke-miterlimit="10"/>
<path d="M49.67 0.720215C49.67 0.720215 49.69 0.810215 49.72 0.840215" stroke="#010101" stroke-width="0.25" stroke-miterlimit="10"/>
<path d="M30.12 0.540039C30.12 0.540039 30.15 0.550039 30.16 0.560039C30.16 0.560039 30.18 0.580039 30.19 0.580039" stroke="#010101" stroke-width="0.25" stroke-miterlimit="10"/>
<path d="M0.709976 20.58C0.709976 20.58 0.629976 20.57 0.599976 20.55" stroke="#010101" stroke-width="0.25" stroke-miterlimit="10"/>
<path d="M3.12 3.12012V3.74012" stroke="#010101" stroke-width="0.25" stroke-miterlimit="10"/>
<path d="M0.530029 20.4401C0.530029 20.4401 0.530029 20.4001 0.530029 20.3801" stroke="#010101" stroke-width="0.25" stroke-miterlimit="10"/>
<path d="M0.52002 20.3901C0.52002 20.3901 0.52002 20.3501 0.52002 20.3401" stroke="#010101" stroke-width="0.25" stroke-miterlimit="10"/>
<path d="M0.530029 20.33C0.530029 20.33 0.530029 20.31 0.540029 20.3" stroke="#010101" stroke-width="0.25" stroke-miterlimit="10"/>
<path d="M0.599966 20.54C0.599966 20.54 0.599966 20.54 0.589966 20.54" stroke="#010101" stroke-width="0.25" stroke-miterlimit="10"/>
<path d="M3.12 3.75V30.75" stroke="#010101" stroke-width="0.25" stroke-miterlimit="10"/>
<path d="M0.599976 20.2302C0.599976 20.2302 0.619976 20.2302 0.619976 20.2202" stroke="#010101" stroke-width="0.25" stroke-miterlimit="10"/>
<path d="M0.540029 20.4702C0.540029 20.4702 0.540029 20.4502 0.530029 20.4402" stroke="#010101" stroke-width="0.25" stroke-miterlimit="10"/>
<path d="M0.540039 20.3002C0.540039 20.3002 0.550039 20.2702 0.560039 20.2602C0.560039 20.2602 0.580039 20.2402 0.590039 20.2302C0.590039 20.2302 0.590039 20.2302 0.600039 20.2302" stroke="#010101" stroke-width="0.25" stroke-miterlimit="10"/>
<path d="M0.709976 14.3C0.709976 14.3 0.629976 14.29 0.599976 14.27" stroke="#010101" stroke-width="0.25" stroke-miterlimit="10"/>
<path d="M0.52002 14.1101C0.52002 14.1101 0.52002 14.0701 0.52002 14.0601" stroke="#010101" stroke-width="0.25" stroke-miterlimit="10"/>
<path d="M0.530029 14.06C0.530029 14.06 0.530029 14.04 0.540029 14.03" stroke="#010101" stroke-width="0.25" stroke-miterlimit="10"/>
<path d="M0.540039 14.0302C0.540039 14.0302 0.550039 14.0002 0.560039 13.9902C0.560039 13.9902 0.580039 13.9702 0.590039 13.9602" stroke="#010101" stroke-width="0.25" stroke-miterlimit="10"/>
<path d="M0.599966 14.27C0.599966 14.27 0.599966 14.27 0.589966 14.27" stroke="#010101" stroke-width="0.25" stroke-miterlimit="10"/>
<path d="M0.599976 13.9602C0.599976 13.9602 0.619976 13.9602 0.619976 13.9502" stroke="#010101" stroke-width="0.25" stroke-miterlimit="10"/>
<path d="M0.590039 14.2602C0.590039 14.2602 0.570039 14.2402 0.560039 14.2302C0.560039 14.2202 0.540039 14.2102 0.540039 14.1902" stroke="#010101" stroke-width="0.25" stroke-miterlimit="10"/>
<path d="M49.8 0.530029C49.8 0.530029 49.78 0.530029 49.77 0.540029" stroke="#010101" stroke-width="0.25" stroke-miterlimit="10"/>
<path d="M0.540029 14.2002C0.540029 14.2002 0.540029 14.1802 0.530029 14.1702" stroke="#010101" stroke-width="0.25" stroke-miterlimit="10"/>
<path d="M0.589966 13.9702C0.589966 13.9702 0.589966 13.9702 0.599966 13.9702" stroke="#010101" stroke-width="0.25" stroke-miterlimit="10"/>
<path d="M52.87 20.2302C52.87 20.2302 52.87 20.2302 52.88 20.2302" stroke="#010101" stroke-width="0.25" stroke-miterlimit="10"/>
<path d="M3.45004 0.600098C3.45004 0.600098 3.42004 0.670098 3.42004 0.710098" stroke="#010101" stroke-width="0.25" stroke-miterlimit="10"/>
<path d="M10.16 0.530029C10.16 0.530029 10.2 0.530029 10.22 0.530029" stroke="#010101" stroke-width="0.25" stroke-miterlimit="10"/>
<path d="M10.03 0.710098C10.03 0.710098 10.04 0.630098 10.06 0.600098" stroke="#010101" stroke-width="0.25" stroke-miterlimit="10"/>
<path d="M10.0599 0.600088C10.0599 0.600088 10.0599 0.600088 10.0599 0.590088" stroke="#010101" stroke-width="0.25" stroke-miterlimit="10"/>
<path d="M30.23 0.710205C30.23 0.810205 30.15 0.900205 30.04 0.900205" stroke="#010101" stroke-width="0.25" stroke-miterlimit="10"/>
<path d="M10.0699 0.590039C10.0699 0.590039 10.0899 0.570039 10.0999 0.560039C10.1099 0.560039 10.1199 0.540039 10.1399 0.540039" stroke="#010101" stroke-width="0.25" stroke-miterlimit="10"/>
<path d="M10.13 0.540029C10.13 0.540029 10.15 0.540029 10.16 0.530029" stroke="#010101" stroke-width="0.25" stroke-miterlimit="10"/>
<path d="M17.01 0.710205C17.01 0.780205 16.97 0.850205 16.91 0.880205" stroke="#010101" stroke-width="0.25" stroke-miterlimit="10"/>
<path d="M43.34 0.540039C43.34 0.540039 43.37 0.550039 43.38 0.560039C43.38 0.560039 43.4 0.580039 43.41 0.580039" stroke="#010101" stroke-width="0.25" stroke-miterlimit="10"/>
<path d="M3.76 0.590078C3.76 0.590078 3.76 0.590078 3.75 0.580078" stroke="#010101" stroke-width="0.25" stroke-miterlimit="10"/>
<path d="M3.54004 33.6101C3.47004 33.6401 3.42004 33.7101 3.42004 33.7801" stroke="#010101" stroke-width="0.25" stroke-miterlimit="10"/>
<path d="M49.67 33.78C49.67 33.78 49.68 33.86 49.71 33.9" stroke="#010101" stroke-width="0.25" stroke-miterlimit="10"/>
<path d="M36.79 33.9102C36.79 33.9102 36.77 33.9302 36.76 33.9302C36.75 33.9302 36.74 33.9502 36.72 33.9502" stroke="#010101" stroke-width="0.25" stroke-miterlimit="10"/>
<path d="M3.54004 33.9702C3.54004 33.9702 3.54004 33.9702 3.55004 33.9702" stroke="#010101" stroke-width="0.25" stroke-miterlimit="10"/>
<path d="M3.42004 33.79C3.42004 33.79 3.43004 33.87 3.46004 33.9" stroke="#010101" stroke-width="0.25" stroke-miterlimit="10"/>
<path d="M3.55005 33.9702C3.55005 33.9702 3.59005 33.9702 3.61005 33.9702" stroke="#010101" stroke-width="0.25" stroke-miterlimit="10"/>
<path d="M3.60999 33.9802C3.60999 33.9802 3.64999 33.9802 3.66999 33.9802" stroke="#010101" stroke-width="0.25" stroke-miterlimit="10"/>
<path d="M0.52002 7.84004C0.52002 7.84004 0.52002 7.80004 0.52002 7.79004" stroke="#010101" stroke-width="0.25" stroke-miterlimit="10"/>
<path d="M3.75 33.9202C3.75 33.9202 3.75 33.9202 3.76 33.9102" stroke="#010101" stroke-width="0.25" stroke-miterlimit="10"/>
<path d="M10.0699 33.9101C10.0699 33.9101 10.0699 33.9101 10.0699 33.9001" stroke="#010101" stroke-width="0.25" stroke-miterlimit="10"/>
<path d="M0.709976 26.8501C0.709976 26.8501 0.629976 26.8401 0.599976 26.8201" stroke="#010101" stroke-width="0.25" stroke-miterlimit="10"/>
<path d="M3.45996 33.9102C3.45996 33.9102 3.47996 33.9302 3.48996 33.9302C3.49996 33.9302 3.50996 33.9502 3.51996 33.9502" stroke="#010101" stroke-width="0.25" stroke-miterlimit="10"/>
<path d="M10.06 33.9001C10.06 33.9001 10.06 33.8901 10.05 33.8801" stroke="#010101" stroke-width="0.25" stroke-miterlimit="10"/>
<path d="M3.52002 33.9602C3.52002 33.9602 3.53002 33.9602 3.54002 33.9602" stroke="#010101" stroke-width="0.25" stroke-miterlimit="10"/>
<path d="M0.530029 26.6101C0.530029 26.6101 0.530029 26.5901 0.540029 26.5801" stroke="#010101" stroke-width="0.25" stroke-miterlimit="10"/>
<path d="M3.68994 33.9602C3.68994 33.9602 3.70994 33.9502 3.71994 33.9402" stroke="#010101" stroke-width="0.25" stroke-miterlimit="10"/>
<path d="M3.72998 33.9402C3.72998 33.9402 3.73998 33.9302 3.74998 33.9202" stroke="#010101" stroke-width="0.25" stroke-miterlimit="10"/>
<path d="M16.77 0.530224C16.86 0.500224 16.95 0.540224 17 0.620224" stroke="#010101" stroke-width="0.25" stroke-miterlimit="10"/>
<path d="M0.709961 26.4702C0.809961 26.4702 0.899961 26.5602 0.899961 26.6602" stroke="#010101" stroke-width="0.25" stroke-miterlimit="10"/>
<path d="M16.91 0.880215C16.82 0.930215 16.7 0.890215 16.65 0.800215C16.64 0.770215 16.63 0.750215 16.63 0.720215" stroke="#010101" stroke-width="0.25" stroke-miterlimit="10"/>
<path d="M3.67004 33.9702C3.67004 33.9702 3.69004 33.9702 3.70004 33.9602" stroke="#010101" stroke-width="0.25" stroke-miterlimit="10"/>
<path d="M23.5199 0.880049C23.4299 0.930049 23.3099 0.880049 23.2599 0.800049C23.2099 0.710049 23.2499 0.590049 23.3399 0.550049" stroke="#010101" stroke-width="0.25" stroke-miterlimit="10"/>
<path d="M0.540039 26.58C0.540039 26.58 0.550039 26.55 0.560039 26.54C0.560039 26.54 0.580039 26.52 0.590039 26.51" stroke="#010101" stroke-width="0.25" stroke-miterlimit="10"/>
<path d="M43.44 33.79C43.44 33.79 43.43 33.87 43.4 33.9" stroke="#010101" stroke-width="0.25" stroke-miterlimit="10"/>
<path d="M43.4 33.9102C43.4 33.9102 43.38 33.9302 43.37 33.9302C43.36 33.9302 43.35 33.9502 43.33 33.9502" stroke="#010101" stroke-width="0.25" stroke-miterlimit="10"/>
<path d="M36.79 0.590088C36.79 0.590088 36.84 0.670088 36.84 0.710088" stroke="#010101" stroke-width="0.25" stroke-miterlimit="10"/>
<path d="M0.599966 26.8201C0.599966 26.8201 0.599966 26.8201 0.589966 26.8201" stroke="#010101" stroke-width="0.25" stroke-miterlimit="10"/>
<path d="M43.1 33.9001C43.1 33.9001 43.1 33.8901 43.09 33.8801" stroke="#010101" stroke-width="0.25" stroke-miterlimit="10"/>
<path d="M43.4 0.590088C43.4 0.590088 43.42 0.610088 43.43 0.630088" stroke="#010101" stroke-width="0.25" stroke-miterlimit="10"/>
<path d="M3.44995 33.9001C3.44995 33.9001 3.44995 33.9001 3.44995 33.9101" stroke="#010101" stroke-width="0.25" stroke-miterlimit="10"/>
<path d="M36.49 33.9C36.43 33.81 36.45 33.7 36.54 33.64C36.63 33.58 36.74 33.6 36.8 33.69C36.85 33.76 36.84 33.86 36.79 33.92" stroke="#010101" stroke-width="0.25" stroke-miterlimit="10"/>
<path d="M0.599976 26.5002C0.599976 26.5002 0.669976 26.4702 0.709976 26.4702" stroke="#010101" stroke-width="0.25" stroke-miterlimit="10"/>
<path d="M43.11 33.9101C43.11 33.9101 43.11 33.9101 43.11 33.9001" stroke="#010101" stroke-width="0.25" stroke-miterlimit="10"/>
<path d="M50.05 33.7902C50.05 33.7902 50.05 33.7302 50.03 33.7002" stroke="#010101" stroke-width="0.25" stroke-miterlimit="10"/>
<path d="M0.590039 26.81C0.590039 26.81 0.570039 26.79 0.560039 26.78C0.560039 26.77 0.540039 26.76 0.540039 26.75" stroke="#010101" stroke-width="0.25" stroke-miterlimit="10"/>
<path d="M49.71 33.9001C49.71 33.9001 49.71 33.9001 49.71 33.9101" stroke="#010101" stroke-width="0.25" stroke-miterlimit="10"/>
<path d="M52.88 13.9702C52.88 13.9702 52.92 14.0102 52.93 14.0302" stroke="#010101" stroke-width="0.25" stroke-miterlimit="10"/>
<path d="M0.540029 26.7402C0.540029 26.7402 0.540029 26.7202 0.530029 26.7102" stroke="#010101" stroke-width="0.25" stroke-miterlimit="10"/>
<path d="M49.72 33.6602C49.72 33.6602 49.67 33.7402 49.67 33.7802" stroke="#010101" stroke-width="0.25" stroke-miterlimit="10"/>
<path d="M52.5699 14.1102C52.5699 14.0102 52.6599 13.9202 52.7599 13.9202C52.7999 13.9202 52.8399 13.9302 52.8699 13.9502" stroke="#010101" stroke-width="0.25" stroke-miterlimit="10"/>
<path d="M23.43 33.9802C23.43 33.9802 23.39 33.9802 23.37 33.9802" stroke="#010101" stroke-width="0.25" stroke-miterlimit="10"/>
<path d="M0.589966 26.51C0.589966 26.51 0.589966 26.51 0.599966 26.51" stroke="#010101" stroke-width="0.25" stroke-miterlimit="10"/>
<path d="M23.37 33.9702C23.37 33.9702 23.35 33.9702 23.34 33.9602" stroke="#010101" stroke-width="0.25" stroke-miterlimit="10"/>
<path d="M23.4301 33.6001C23.5301 33.6001 23.6201 33.6901 23.6201 33.7901" stroke="#010101" stroke-width="0.25" stroke-miterlimit="10"/>
<path d="M52.87 26.5C52.87 26.5 52.87 26.5 52.88 26.5" stroke="#010101" stroke-width="0.25" stroke-miterlimit="10"/>
<path d="M36.5 33.9101C36.5 33.9101 36.5 33.9101 36.5 33.9001" stroke="#010101" stroke-width="0.25" stroke-miterlimit="10"/>
<path d="M23.58 33.9102C23.58 33.9102 23.56 33.9302 23.55 33.9302C23.54 33.9302 23.53 33.9502 23.51 33.9502" stroke="#010101" stroke-width="0.25" stroke-miterlimit="10"/>
<path d="M23.35 33.9602C23.35 33.9602 23.32 33.9502 23.31 33.9402C23.31 33.9402 23.29 33.9202 23.28 33.9102" stroke="#010101" stroke-width="0.25" stroke-miterlimit="10"/>
<path d="M52.85 26.8301C52.85 26.8301 52.79 26.8501 52.76 26.8501" stroke="#010101" stroke-width="0.25" stroke-miterlimit="10"/>
<path d="M52.7599 26.8502C52.6599 26.8502 52.5699 26.7602 52.5699 26.6602" stroke="#010101" stroke-width="0.25" stroke-miterlimit="10"/>
<path d="M23.59 33.9001C23.59 33.9001 23.59 33.9001 23.58 33.9101" stroke="#010101" stroke-width="0.25" stroke-miterlimit="10"/>
<path d="M23.4801 33.9702C23.4801 33.9702 23.4401 33.9702 23.4301 33.9702" stroke="#010101" stroke-width="0.25" stroke-miterlimit="10"/>
<path d="M23.51 33.9602C23.51 33.9602 23.49 33.9602 23.48 33.9702" stroke="#010101" stroke-width="0.25" stroke-miterlimit="10"/>
<path d="M30.13 33.9601C30.04 34.0101 29.92 33.9701 29.87 33.8801" stroke="#010101" stroke-width="0.25" stroke-miterlimit="10"/>
<path d="M23.28 33.9101C23.28 33.9101 23.28 33.9101 23.28 33.9001" stroke="#010101" stroke-width="0.25" stroke-miterlimit="10"/>
<path d="M52.76 26.4702C52.76 26.4702 52.84 26.4802 52.87 26.5002" stroke="#010101" stroke-width="0.25" stroke-miterlimit="10"/>
<path d="M52.7599 14.3001C52.6599 14.3001 52.5699 14.2101 52.5699 14.1101" stroke="#010101" stroke-width="0.25" stroke-miterlimit="10"/>
<path d="M52.93 26.7402C52.93 26.7402 52.92 26.7702 52.91 26.7802C52.91 26.7802 52.89 26.8002 52.88 26.8102" stroke="#010101" stroke-width="0.25" stroke-miterlimit="10"/>
<path d="M52.88 13.9702C52.88 13.9702 52.9 13.9902 52.91 14.0002C52.91 14.0102 52.93 14.0202 52.93 14.0302" stroke="#010101" stroke-width="0.25" stroke-miterlimit="10"/>
<path d="M52.87 14.27C52.87 14.27 52.85 14.27 52.85 14.28" stroke="#010101" stroke-width="0.25" stroke-miterlimit="10"/>
<path d="M52.88 26.51C52.88 26.51 52.9 26.53 52.91 26.54C52.91 26.55 52.93 26.56 52.93 26.58" stroke="#010101" stroke-width="0.25" stroke-miterlimit="10"/>
<path d="M52.87 13.9602C52.87 13.9602 52.87 13.9602 52.88 13.9602" stroke="#010101" stroke-width="0.25" stroke-miterlimit="10"/>
<path d="M52.9301 14.03C52.9301 14.03 52.9301 14.05 52.9401 14.06" stroke="#010101" stroke-width="0.25" stroke-miterlimit="10"/>
<path d="M52.9399 7.78003C52.9399 7.78003 52.9399 7.82003 52.9399 7.84003" stroke="#010101" stroke-width="0.25" stroke-miterlimit="10"/>
<path d="M52.88 7.69019C52.88 7.69019 52.9 7.71019 52.91 7.72019C52.91 7.73019 52.93 7.74019 52.93 7.75019" stroke="#010101" stroke-width="0.25" stroke-miterlimit="10"/>
<path d="M52.87 7.68018C52.87 7.68018 52.87 7.68018 52.88 7.68018" stroke="#010101" stroke-width="0.25" stroke-miterlimit="10"/>
<path d="M3.80001 33.79C3.80001 33.79 3.79001 33.87 3.76001 33.9" stroke="#010101" stroke-width="0.25" stroke-miterlimit="10"/>
<path d="M36.65 0.900049C36.58 0.900049 36.51 0.860049 36.48 0.800049" stroke="#010101" stroke-width="0.25" stroke-miterlimit="10"/>
<path d="M23.62 33.79C23.62 33.79 23.61 33.87 23.58 33.9" stroke="#010101" stroke-width="0.25" stroke-miterlimit="10"/>
<path d="M36.8201 0.620098C36.8201 0.620098 36.8201 0.610098 36.8101 0.600098" stroke="#010101" stroke-width="0.25" stroke-miterlimit="10"/>
<path d="M30.2299 33.79C30.2299 33.79 30.2199 33.87 30.1899 33.9" stroke="#010101" stroke-width="0.25" stroke-miterlimit="10"/>
<path d="M36.79 0.590088C36.79 0.590088 36.79 0.590088 36.8 0.600088" stroke="#010101" stroke-width="0.25" stroke-miterlimit="10"/>
<path d="M36.84 0.710205C36.84 0.780205 36.8 0.850205 36.74 0.880205" stroke="#010101" stroke-width="0.25" stroke-miterlimit="10"/>
<path d="M0.879961 7.75C0.929961 7.84 0.889961 7.96 0.799961 8.01C0.769961 8.02 0.739961 8.03 0.709961 8.03" stroke="#010101" stroke-width="0.25" stroke-miterlimit="10"/>
<path d="M3.8 33.7902C3.8 33.7902 3.78 33.7002 3.75 33.6602" stroke="#010101" stroke-width="0.25" stroke-miterlimit="10"/>
<path d="M36.73 0.540039C36.73 0.540039 36.76 0.550039 36.77 0.560039C36.77 0.560039 36.79 0.580039 36.8 0.580039" stroke="#010101" stroke-width="0.25" stroke-miterlimit="10"/>
<path d="M10.4099 0.710205C10.4099 0.780205 10.3699 0.850205 10.3099 0.880205" stroke="#010101" stroke-width="0.25" stroke-miterlimit="10"/>
<path d="M53.35 30.75V34.38" stroke="#010101" stroke-width="0.25" stroke-miterlimit="10"/>
<path d="M3.44994 33.9001L3.43994 33.8801" stroke="#010101" stroke-width="0.25" stroke-miterlimit="10"/>
<path d="M0.709976 8.03C0.709976 8.03 0.629976 8.02 0.599976 8" stroke="#010101" stroke-width="0.25" stroke-miterlimit="10"/>
<path d="M0.119995 3.75012V0.120117" stroke="#010101" stroke-width="0.25" stroke-miterlimit="10"/>
<path d="M43.25 33.6001C43.32 33.6001 43.39 33.6401 43.42 33.7001" stroke="#010101" stroke-width="0.25" stroke-miterlimit="10"/>
<path d="M43.41 33.9001C43.41 33.9001 43.41 33.9001 43.4 33.9101" stroke="#010101" stroke-width="0.25" stroke-miterlimit="10"/>
<path d="M53.35 3.75V30.75" stroke="#010101" stroke-width="0.25" stroke-miterlimit="10"/>
<path d="M3.68996 33.9602C3.60996 34.0002 3.51996 33.9802 3.45996 33.9102" stroke="#010101" stroke-width="0.25" stroke-miterlimit="10"/>
<path d="M0.530029 7.90009C0.530029 7.90009 0.530029 7.86009 0.530029 7.84009" stroke="#010101" stroke-width="0.25" stroke-miterlimit="10"/>
<path d="M36.73 0.880127C36.73 0.880127 36.67 0.900127 36.64 0.900127" stroke="#010101" stroke-width="0.25" stroke-miterlimit="10"/>
<path d="M36.8 0.600098C36.8 0.600098 36.81 0.620098 36.82 0.630098" stroke="#010101" stroke-width="0.25" stroke-miterlimit="10"/>
<path d="M53.35 0.120117V3.74012" stroke="#010101" stroke-width="0.25" stroke-miterlimit="10"/>
<path d="M10.1299 33.9602C10.1299 33.9602 10.0799 33.9302 10.0699 33.9102" stroke="#010101" stroke-width="0.25" stroke-miterlimit="10"/>
<path d="M50.03 0.620088C50.03 0.620088 50.02 0.600088 50.01 0.590088" stroke="#010101" stroke-width="0.25" stroke-miterlimit="10"/>
<path d="M0.530029 7.79001C0.530029 7.79001 0.530029 7.77001 0.540029 7.76001" stroke="#010101" stroke-width="0.25" stroke-miterlimit="10"/>
<path d="M0.799971 20.5601C0.799971 20.5601 0.739971 20.5801 0.719971 20.5801" stroke="#010101" stroke-width="0.25" stroke-miterlimit="10"/>
<path d="M3.68994 0.880088C3.68994 0.880088 3.72994 0.860088 3.73994 0.840088" stroke="#010101" stroke-width="0.25" stroke-miterlimit="10"/>
<path d="M3.75 34.3801H0.119995" stroke="#010101" stroke-width="0.25" stroke-miterlimit="10"/>
<path d="M49.95 0.880205C50.01 0.850205 50.0499 0.780205 50.0499 0.710205" stroke="#010101" stroke-width="0.25" stroke-miterlimit="10"/>
<path d="M0.709961 7.65015C0.779961 7.65015 0.849961 7.69015 0.879961 7.75015" stroke="#010101" stroke-width="0.25" stroke-miterlimit="10"/>
<path d="M43.42 33.7002C43.42 33.7002 43.44 33.7602 43.44 33.7902" stroke="#010101" stroke-width="0.25" stroke-miterlimit="10"/>
<path d="M23.35 33.6201C23.35 33.6201 23.41 33.6001 23.44 33.6001" stroke="#010101" stroke-width="0.25" stroke-miterlimit="10"/>
<path d="M53.35 34.3801H49.73" stroke="#010101" stroke-width="0.25" stroke-miterlimit="10"/>
<path d="M43.17 33.6201C43.17 33.6201 43.23 33.6001 43.26 33.6001" stroke="#010101" stroke-width="0.25" stroke-miterlimit="10"/>
<path d="M0.799971 14.28C0.799971 14.28 0.739971 14.3 0.719971 14.3" stroke="#010101" stroke-width="0.25" stroke-miterlimit="10"/>
<path d="M0.540029 7.92014C0.540029 7.92014 0.540029 7.90014 0.530029 7.89014" stroke="#010101" stroke-width="0.25" stroke-miterlimit="10"/>
<path d="M3.78001 0.620088C3.78001 0.620088 3.77001 0.600088 3.76001 0.590088" stroke="#010101" stroke-width="0.25" stroke-miterlimit="10"/>
<path d="M49.72 34.3801H3.75" stroke="#010101" stroke-width="0.25" stroke-miterlimit="10"/>
<path d="M30.04 33.9802C30.04 33.9802 30 33.9802 29.98 33.9802" stroke="#010101" stroke-width="0.25" stroke-miterlimit="10"/>
<path d="M0.119995 0.120117H3.74" stroke="#010101" stroke-width="0.25" stroke-miterlimit="10"/>
<path d="M29.88 33.9C29.88 33.9 29.85 33.83 29.85 33.79" stroke="#010101" stroke-width="0.25" stroke-miterlimit="10"/>
<path d="M52.9301 7.76001C52.9301 7.76001 52.9301 7.78001 52.9401 7.79001" stroke="#010101" stroke-width="0.25" stroke-miterlimit="10"/>
<path d="M16.67 33.9C16.67 33.9 16.64 33.83 16.64 33.79" stroke="#010101" stroke-width="0.25" stroke-miterlimit="10"/>
<path d="M10.06 33.9C10.06 33.9 10.03 33.83 10.03 33.79" stroke="#010101" stroke-width="0.25" stroke-miterlimit="10"/>
<path d="M3.75 0.120117H49.72" stroke="#010101" stroke-width="0.25" stroke-miterlimit="10"/>
<path d="M29.9799 33.9702C29.9799 33.9702 29.96 33.9702 29.95 33.9602" stroke="#010101" stroke-width="0.25" stroke-miterlimit="10"/>
<path d="M49.6899 33.8801C49.6899 33.8801 49.6999 33.9001 49.7099 33.9101C49.7099 33.9101 49.7099 33.9101 49.7099 33.9201" stroke="#010101" stroke-width="0.25" stroke-miterlimit="10"/>
<path d="M43.41 0.600098C43.41 0.600098 43.45 0.670098 43.45 0.710098" stroke="#010101" stroke-width="0.25" stroke-miterlimit="10"/>
<path d="M52.88 14.26C52.88 14.26 52.88 14.26 52.87 14.26" stroke="#010101" stroke-width="0.25" stroke-miterlimit="10"/>
<path d="M3.54004 33.6101C3.61004 33.5801 3.70004 33.6101 3.75004 33.6601" stroke="#010101" stroke-width="0.25" stroke-miterlimit="10"/>
<path d="M0.119995 30.75V3.75" stroke="#010101" stroke-width="0.25" stroke-miterlimit="10"/>
<path d="M10.37 33.9001C10.32 33.9701 10.24 33.9901 10.16 33.9701" stroke="#010101" stroke-width="0.25" stroke-miterlimit="10"/>
<path d="M30.04 33.6001C30.14 33.6001 30.23 33.6901 30.23 33.7901" stroke="#010101" stroke-width="0.25" stroke-miterlimit="10"/>
<path d="M16.63 33.7901C16.63 33.6901 16.72 33.6001 16.82 33.6001C16.92 33.6001 17.01 33.6901 17.01 33.7901C17.01 33.8901 16.92 33.9801 16.82 33.9801C16.75 33.9801 16.68 33.9401 16.65 33.8801" stroke="#010101" stroke-width="0.25" stroke-miterlimit="10"/>
<path d="M0.119995 34.38V30.75" stroke="#010101" stroke-width="0.25" stroke-miterlimit="10"/>
<path d="M23.52 33.9601C23.43 34.0101 23.31 33.9701 23.26 33.8801" stroke="#010101" stroke-width="0.25" stroke-miterlimit="10"/>
<path d="M23.24 33.7901C23.24 33.7201 23.28 33.6501 23.34 33.6201" stroke="#010101" stroke-width="0.25" stroke-miterlimit="10"/>
</g>
<defs>
<clipPath id="clip0_1347_3681">
<rect width="53.47" height="34.5" fill="white"/>
</clipPath>
</defs>
</svg>
