<svg width="38" height="68" viewBox="0 0 38 68" fill="none" xmlns="http://www.w3.org/2000/svg">
<g clip-path="url(#clip0_1347_5315)">
<path d="M37.34 0.120117H0.119995V67.3701H37.34V0.120117Z" fill="white" stroke="#010101" stroke-width="0.25" stroke-miterlimit="10"/>
<path d="M0.599966 33.9102C0.599966 33.9102 0.599966 33.9102 0.589966 33.9102" stroke="#010101" stroke-width="0.25" stroke-miterlimit="10"/>
<path d="M0.709961 20.6101C0.779961 20.6101 0.849961 20.6501 0.879961 20.7101" stroke="#010101" stroke-width="0.25" stroke-miterlimit="10"/>
<path d="M0.88004 14.2302C0.93004 14.3202 0.89004 14.4402 0.80004 14.4902C0.71004 14.5402 0.59004 14.5002 0.54004 14.4102C0.50004 14.3302 0.52004 14.2402 0.59004 14.1802" stroke="#010101" stroke-width="0.25" stroke-miterlimit="10"/>
<path d="M0.119995 63.75V3.75" stroke="#010101" stroke-width="0.25" stroke-miterlimit="10"/>
<path d="M0.709976 20.9802C0.709976 20.9802 0.629976 20.9702 0.599976 20.9502" stroke="#010101" stroke-width="0.25" stroke-miterlimit="10"/>
<path d="M0.590039 7.99018C0.590039 7.99018 0.570039 7.97018 0.560039 7.96018C0.560039 7.95018 0.540039 7.94018 0.540039 7.93018" stroke="#010101" stroke-width="0.25" stroke-miterlimit="10"/>
<path d="M9.47998 66.7801C9.47998 66.6801 9.57998 66.6001 9.67998 66.6001C9.74998 66.6001 9.80998 66.6401 9.83998 66.7001" stroke="#010101" stroke-width="0.25" stroke-miterlimit="10"/>
<path d="M33.8 66.9602C33.8 66.9602 33.8201 66.9602 33.8301 66.9702" stroke="#010101" stroke-width="0.25" stroke-miterlimit="10"/>
<path d="M0.709976 33.9402C0.709976 33.9402 0.629976 33.9302 0.599976 33.9102" stroke="#010101" stroke-width="0.25" stroke-miterlimit="10"/>
<path d="M9.85998 0.710039C9.85998 0.810039 9.76998 0.900039 9.66998 0.900039C9.56998 0.900039 9.47998 0.810039 9.47998 0.710039C9.47998 0.640039 9.51998 0.570039 9.57998 0.540039" stroke="#010101" stroke-width="0.25" stroke-miterlimit="10"/>
<path d="M0.880005 59.5701C0.880005 59.5701 0.900005 59.6301 0.900005 59.6601" stroke="#010101" stroke-width="0.25" stroke-miterlimit="10"/>
<path d="M36.97 27.2202C36.97 27.2202 36.97 27.2602 36.97 27.2802" stroke="#010101" stroke-width="0.25" stroke-miterlimit="10"/>
<path d="M3.72998 66.9402C3.72998 66.9402 3.73998 66.9302 3.74998 66.9202" stroke="#010101" stroke-width="0.25" stroke-miterlimit="10"/>
<path d="M3.69997 66.9602C3.61997 67.0002 3.52997 66.9802 3.46997 66.9102" stroke="#010101" stroke-width="0.25" stroke-miterlimit="10"/>
<path d="M36.62 20.88C36.62 20.88 36.6 20.82 36.6 20.79" stroke="#010101" stroke-width="0.25" stroke-miterlimit="10"/>
<path d="M36.79 14.5101C36.8949 14.5101 36.98 14.4251 36.98 14.3201C36.98 14.2152 36.8949 14.1301 36.79 14.1301C36.685 14.1301 36.6 14.2152 36.6 14.3201C36.6 14.4251 36.685 14.5101 36.79 14.5101Z" stroke="#010101" stroke-width="0.25" stroke-miterlimit="10"/>
<path d="M9.60999 0.530224C9.69999 0.500224 9.78999 0.540224 9.83999 0.620224" stroke="#010101" stroke-width="0.25" stroke-miterlimit="10"/>
<path d="M3.75 0.120117H33.75" stroke="#010101" stroke-width="0.25" stroke-miterlimit="10"/>
<path d="M34.04 0.600088C34.04 0.600088 34.04 0.600088 34.03 0.590088H34.04V0.600088Z" stroke="#010101" stroke-width="0.25" stroke-miterlimit="10"/>
<path d="M3.54002 0.530029C3.54002 0.530029 3.53002 0.530029 3.52002 0.530029" stroke="#010101" stroke-width="0.25" stroke-miterlimit="10"/>
<path d="M0.530029 59.6101C0.530029 59.6101 0.530029 59.5901 0.540029 59.5801" stroke="#010101" stroke-width="0.25" stroke-miterlimit="10"/>
<path d="M36.88 33.92C36.79 33.97 36.67 33.93 36.62 33.84C36.57 33.75 36.61 33.63 36.7 33.58C36.77 33.55 36.85 33.55 36.91 33.6" stroke="#010101" stroke-width="0.25" stroke-miterlimit="10"/>
<path d="M36.97 33.6902C36.97 33.6902 36.97 33.7302 36.97 33.7502" stroke="#010101" stroke-width="0.25" stroke-miterlimit="10"/>
<path d="M0.599976 14.1601C0.599976 14.1601 0.669976 14.1301 0.709976 14.1301" stroke="#010101" stroke-width="0.25" stroke-miterlimit="10"/>
<path d="M9.57996 0.540029C9.57996 0.540029 9.59996 0.540029 9.60996 0.530029" stroke="#010101" stroke-width="0.25" stroke-miterlimit="10"/>
<path d="M33.7 66.7802C33.7 66.7802 33.72 66.6902 33.75 66.6602" stroke="#010101" stroke-width="0.25" stroke-miterlimit="10"/>
<path d="M0.599966 53.3401C0.599966 53.3401 0.599966 53.3401 0.589966 53.3401" stroke="#010101" stroke-width="0.25" stroke-miterlimit="10"/>
<path d="M27.83 0.900049C27.76 0.900049 27.69 0.860049 27.66 0.800049" stroke="#010101" stroke-width="0.25" stroke-miterlimit="10"/>
<path d="M36.79 40.04C36.83 40.04 36.87 40.05 36.9 40.07" stroke="#010101" stroke-width="0.25" stroke-miterlimit="10"/>
<path d="M36.9 46.55C36.9 46.55 36.9 46.55 36.91 46.55" stroke="#010101" stroke-width="0.25" stroke-miterlimit="10"/>
<path d="M3.80001 0.710088C3.80001 0.710088 3.79001 0.630088 3.76001 0.590088" stroke="#010101" stroke-width="0.25" stroke-miterlimit="10"/>
<path d="M36.9 40.0701C36.9 40.0701 36.9 40.0701 36.91 40.0701" stroke="#010101" stroke-width="0.25" stroke-miterlimit="10"/>
<path d="M21.59 0.71002C21.59 0.61002 21.67 0.52002 21.78 0.52002C21.88 0.52002 21.97 0.60002 21.97 0.71002C21.97 0.81002 21.89 0.90002 21.78 0.90002C21.71 0.90002 21.64 0.86002 21.61 0.80002" stroke="#010101" stroke-width="0.25" stroke-miterlimit="10"/>
<path d="M3.43999 0.800039C3.38999 0.710039 3.42999 0.590039 3.51999 0.540039" stroke="#010101" stroke-width="0.25" stroke-miterlimit="10"/>
<path d="M0.879961 20.7102C0.929961 20.8002 0.889961 20.9202 0.799961 20.9702C0.769961 20.9802 0.739961 20.9902 0.709961 20.9902" stroke="#010101" stroke-width="0.25" stroke-miterlimit="10"/>
<path d="M36.9 27.4302C36.9 27.4302 36.83 27.4602 36.79 27.4602" stroke="#010101" stroke-width="0.25" stroke-miterlimit="10"/>
<path d="M36.91 59.8101C36.91 59.8101 36.91 59.8101 36.9 59.8101" stroke="#010101" stroke-width="0.25" stroke-miterlimit="10"/>
<path d="M0.530029 53.2401C0.530029 53.2401 0.530029 53.2001 0.530029 53.1801C0.530029 53.1501 0.530029 53.1201 0.550029 53.1001" stroke="#010101" stroke-width="0.25" stroke-miterlimit="10"/>
<path d="M0.90002 59.6601C0.90002 59.7601 0.81002 59.8501 0.71002 59.8501C0.61002 59.8501 0.52002 59.7601 0.52002 59.6601C0.52002 59.6401 0.52002 59.6201 0.52002 59.6001" stroke="#010101" stroke-width="0.25" stroke-miterlimit="10"/>
<path d="M0.53997 7.93022C0.48997 7.84022 0.52997 7.72022 0.61997 7.67022C0.70997 7.62022 0.82997 7.66022 0.87997 7.75022C0.92997 7.84022 0.88997 7.96022 0.79997 8.01022C0.72997 8.04022 0.64997 8.04022 0.58997 7.99022" stroke="#010101" stroke-width="0.25" stroke-miterlimit="10"/>
<path d="M3.75004 0.840088C3.70004 0.900088 3.61004 0.920088 3.54004 0.890088" stroke="#010101" stroke-width="0.25" stroke-miterlimit="10"/>
<path d="M36.88 53.3501C36.79 53.4001 36.67 53.3601 36.62 53.2701C36.57 53.1801 36.61 53.0601 36.7 53.0101C36.79 52.9601 36.91 53.0001 36.96 53.0901C37 53.1701 36.9801 53.2801 36.9001 53.3301" stroke="#010101" stroke-width="0.25" stroke-miterlimit="10"/>
<path d="M3.75 66.6602C3.75 66.6602 3.8 66.7402 3.8 66.7902" stroke="#010101" stroke-width="0.25" stroke-miterlimit="10"/>
<path d="M34.04 0.600098C34.04 0.600098 34.05 0.620098 34.06 0.630098" stroke="#010101" stroke-width="0.25" stroke-miterlimit="10"/>
<path d="M3.60999 66.9802C3.60999 66.9802 3.64999 66.9802 3.66999 66.9802" stroke="#010101" stroke-width="0.25" stroke-miterlimit="10"/>
<path d="M36.91 40.0801C36.99 40.1501 37 40.27 36.93 40.35C36.86 40.43 36.74 40.44 36.66 40.37C36.58 40.3 36.57 40.18 36.64 40.1C36.66 40.08 36.68 40.06 36.7 40.05" stroke="#010101" stroke-width="0.25" stroke-miterlimit="10"/>
<path d="M9.58001 66.9602C9.58001 66.9602 9.55001 66.9502 9.54001 66.9402C9.54001 66.9402 9.52001 66.9202 9.51001 66.9102" stroke="#010101" stroke-width="0.25" stroke-miterlimit="10"/>
<path d="M34.08 66.79C34.08 66.85 34.05 66.9 34.01 66.94" stroke="#010101" stroke-width="0.25" stroke-miterlimit="10"/>
<path d="M36.79 8.03009C36.69 8.03009 36.6 7.94009 36.6 7.84009" stroke="#010101" stroke-width="0.25" stroke-miterlimit="10"/>
<path d="M34.04 0.600098C34.04 0.600098 34.08 0.670098 34.08 0.710098" stroke="#010101" stroke-width="0.25" stroke-miterlimit="10"/>
<path d="M33.75 0.840078C33.68 0.770078 33.68 0.660078 33.75 0.580078" stroke="#010101" stroke-width="0.25" stroke-miterlimit="10"/>
<path d="M21.78 66.6001C21.88 66.6001 21.97 66.6901 21.97 66.7901" stroke="#010101" stroke-width="0.25" stroke-miterlimit="10"/>
<path d="M0.709966 27.4602C0.709966 27.4602 0.619966 27.4402 0.589966 27.4202" stroke="#010101" stroke-width="0.25" stroke-miterlimit="10"/>
<path d="M0.54002 27.3601C0.50002 27.2801 0.52002 27.1701 0.60002 27.1201" stroke="#010101" stroke-width="0.25" stroke-miterlimit="10"/>
<path d="M0.540039 59.5801C0.590039 59.4901 0.700039 59.4501 0.790039 59.4901C0.830039 59.5101 0.860039 59.5401 0.880039 59.5701" stroke="#010101" stroke-width="0.25" stroke-miterlimit="10"/>
<path d="M0.619995 27.1002C0.709995 27.0502 0.829995 27.0902 0.879995 27.1802C0.929995 27.2702 0.889995 27.3902 0.799995 27.4402" stroke="#010101" stroke-width="0.25" stroke-miterlimit="10"/>
<path d="M36.9 59.8201C36.9 59.8201 36.88 59.8201 36.88 59.8301" stroke="#010101" stroke-width="0.25" stroke-miterlimit="10"/>
<path d="M36.96 20.7102C37.01 20.8002 36.96 20.9202 36.87 20.9602C36.78 21.0002 36.67 20.9602 36.62 20.8802" stroke="#010101" stroke-width="0.25" stroke-miterlimit="10"/>
<path d="M15.53 0.71002C15.53 0.61002 15.61 0.52002 15.72 0.52002" stroke="#010101" stroke-width="0.25" stroke-miterlimit="10"/>
<path d="M21.61 0.800215C21.61 0.800215 21.59 0.740215 21.59 0.720215" stroke="#010101" stroke-width="0.25" stroke-miterlimit="10"/>
<path d="M34.08 0.710205C34.08 0.790205 34.03 0.860205 33.96 0.890205" stroke="#010101" stroke-width="0.25" stroke-miterlimit="10"/>
<path d="M9.83997 66.7002C9.83997 66.7002 9.85997 66.7602 9.85997 66.7902" stroke="#010101" stroke-width="0.25" stroke-miterlimit="10"/>
<path d="M0.880005 33.6602C0.880005 33.6602 0.900005 33.7202 0.900005 33.7502" stroke="#010101" stroke-width="0.25" stroke-miterlimit="10"/>
<path d="M36.88 59.8302C36.79 59.8802 36.67 59.8402 36.62 59.7502C36.57 59.6602 36.61 59.5402 36.7 59.4902" stroke="#010101" stroke-width="0.25" stroke-miterlimit="10"/>
<path d="M36.9 33.9102C36.9 33.9102 36.88 33.9102 36.88 33.9202" stroke="#010101" stroke-width="0.25" stroke-miterlimit="10"/>
<path d="M36.79 59.4702C36.83 59.4702 36.87 59.4802 36.9 59.5002" stroke="#010101" stroke-width="0.25" stroke-miterlimit="10"/>
<path d="M36.79 20.6101C36.82 20.6101 36.86 20.6101 36.9 20.6401" stroke="#010101" stroke-width="0.25" stroke-miterlimit="10"/>
<path d="M0.119995 0.120117H3.74" stroke="#010101" stroke-width="0.25" stroke-miterlimit="10"/>
<path d="M0.590039 33.9001C0.590039 33.9001 0.570039 33.8801 0.560039 33.8701C0.560039 33.8601 0.540039 33.8501 0.540039 33.8301" stroke="#010101" stroke-width="0.25" stroke-miterlimit="10"/>
<path d="M15.72 66.9801C15.825 66.9801 15.91 66.895 15.91 66.7901C15.91 66.6852 15.825 66.6001 15.72 66.6001C15.6151 66.6001 15.53 66.6852 15.53 66.7901C15.53 66.895 15.6151 66.9801 15.72 66.9801Z" stroke="#010101" stroke-width="0.25" stroke-miterlimit="10"/>
<path d="M3.75 67.3801H0.119995" stroke="#010101" stroke-width="0.25" stroke-miterlimit="10"/>
<path d="M36.6 7.84015C36.6 7.74015 36.69 7.65015 36.79 7.65015C36.89 7.65015 36.98 7.74015 36.98 7.84015C36.98 7.91015 36.94 7.98015 36.88 8.01015" stroke="#010101" stroke-width="0.25" stroke-miterlimit="10"/>
<path d="M36.91 33.6001C36.91 33.6001 36.93 33.6201 36.94 33.6301C36.94 33.6401 36.96 33.6501 36.96 33.6701" stroke="#010101" stroke-width="0.25" stroke-miterlimit="10"/>
<path d="M3.54004 0.530036C3.61004 0.500036 3.70004 0.530036 3.75004 0.580036" stroke="#010101" stroke-width="0.25" stroke-miterlimit="10"/>
<path d="M3.69995 66.9602C3.69995 66.9602 3.71995 66.9502 3.72995 66.9402" stroke="#010101" stroke-width="0.25" stroke-miterlimit="10"/>
<path d="M33.76 0.840088C33.81 0.890088 33.89 0.910088 33.96 0.880088" stroke="#010101" stroke-width="0.25" stroke-miterlimit="10"/>
<path d="M36.6 20.7901C36.6 20.6901 36.68 20.6001 36.79 20.6001" stroke="#010101" stroke-width="0.25" stroke-miterlimit="10"/>
<path d="M0.619995 46.54C0.619995 46.54 0.679995 46.52 0.709995 46.52" stroke="#010101" stroke-width="0.25" stroke-miterlimit="10"/>
<path d="M3.8 66.79C3.8 66.79 3.78 66.88 3.75 66.92" stroke="#010101" stroke-width="0.25" stroke-miterlimit="10"/>
<path d="M0.709966 46.51C0.809966 46.51 0.899966 46.6 0.899966 46.7C0.899966 46.8 0.809966 46.89 0.709966 46.89C0.669966 46.89 0.619966 46.87 0.589966 46.85" stroke="#010101" stroke-width="0.25" stroke-miterlimit="10"/>
<path d="M36.91 59.51C36.99 59.58 37 59.7 36.93 59.78C36.93 59.78 36.92 59.8 36.91 59.8" stroke="#010101" stroke-width="0.25" stroke-miterlimit="10"/>
<path d="M33.74 66.9001C33.74 66.9001 33.73 66.8801 33.72 66.8701" stroke="#010101" stroke-width="0.25" stroke-miterlimit="10"/>
<path d="M36.9 20.6401C36.9 20.6401 36.9 20.6401 36.91 20.6401" stroke="#010101" stroke-width="0.25" stroke-miterlimit="10"/>
<path d="M3.67004 66.9702C3.67004 66.9702 3.69004 66.9702 3.70004 66.9602" stroke="#010101" stroke-width="0.25" stroke-miterlimit="10"/>
<path d="M33.8 0.540039C33.8 0.540039 33.78 0.550039 33.77 0.560039C33.77 0.560039 33.76 0.560039 33.76 0.570039" stroke="#010101" stroke-width="0.25" stroke-miterlimit="10"/>
<path d="M33.75 67.3801H3.75" stroke="#010101" stroke-width="0.25" stroke-miterlimit="10"/>
<path d="M34.06 0.620088C34.06 0.620088 34.05 0.600088 34.04 0.590088" stroke="#010101" stroke-width="0.25" stroke-miterlimit="10"/>
<path d="M33.76 66.9302C33.76 66.9302 33.78 66.9502 33.79 66.9502" stroke="#010101" stroke-width="0.25" stroke-miterlimit="10"/>
<path d="M21.97 66.7901C21.97 66.8901 21.88 66.9801 21.78 66.9801C21.68 66.9801 21.59 66.8901 21.59 66.7901C21.59 66.6901 21.68 66.6001 21.78 66.6001" stroke="#010101" stroke-width="0.25" stroke-miterlimit="10"/>
<path d="M0.589966 14.1702C0.589966 14.1702 0.589966 14.1702 0.599966 14.1702" stroke="#010101" stroke-width="0.25" stroke-miterlimit="10"/>
<path d="M3.75 0.840205C3.75 0.840205 3.8 0.760205 3.8 0.710205" stroke="#010101" stroke-width="0.25" stroke-miterlimit="10"/>
<path d="M33.75 66.6602C33.82 66.5802 33.94 66.5802 34.02 66.6502C34.06 66.6902 34.08 66.7402 34.08 66.7902" stroke="#010101" stroke-width="0.25" stroke-miterlimit="10"/>
<path d="M0.590039 46.85C0.590039 46.85 0.570039 46.83 0.560039 46.82C0.560039 46.81 0.540039 46.8 0.540039 46.79" stroke="#010101" stroke-width="0.25" stroke-miterlimit="10"/>
<path d="M3.45994 66.9001C3.39994 66.8101 3.41994 66.7001 3.49994 66.6301L3.51994 66.6201" stroke="#010101" stroke-width="0.25" stroke-miterlimit="10"/>
<path d="M33.96 66.9702C33.96 66.9702 33.96 66.9702 33.97 66.9702H33.96Z" stroke="#010101" stroke-width="0.25" stroke-miterlimit="10"/>
<path d="M36.96 33.6702C36.96 33.6702 36.96 33.6902 36.97 33.7002" stroke="#010101" stroke-width="0.25" stroke-miterlimit="10"/>
<path d="M36.91 20.6501C36.91 20.6501 36.93 20.6701 36.94 20.6801C36.94 20.6901 36.96 20.7001 36.96 20.7201" stroke="#010101" stroke-width="0.25" stroke-miterlimit="10"/>
<path d="M9.52002 66.9101C9.52002 66.9101 9.52002 66.9101 9.52002 66.9001" stroke="#010101" stroke-width="0.25" stroke-miterlimit="10"/>
<path d="M9.72004 66.9702C9.72004 66.9702 9.68004 66.9702 9.67004 66.9702" stroke="#010101" stroke-width="0.25" stroke-miterlimit="10"/>
<path d="M36.91 46.5601C36.91 46.5601 36.93 46.5801 36.94 46.5901C36.94 46.6001 36.96 46.6101 36.96 46.6301" stroke="#010101" stroke-width="0.25" stroke-miterlimit="10"/>
<path d="M27.75 66.9602C27.66 66.9102 27.62 66.8002 27.67 66.7002C27.72 66.6102 27.83 66.5702 27.93 66.6202C28.03 66.6702 28.06 66.7802 28.01 66.8802C27.98 66.9502 27.91 66.9902 27.84 66.9802" stroke="#010101" stroke-width="0.25" stroke-miterlimit="10"/>
<path d="M33.83 66.9702C33.83 66.9702 33.87 66.9802 33.89 66.9802" stroke="#010101" stroke-width="0.25" stroke-miterlimit="10"/>
<path d="M33.98 66.9602C33.9 67.0002 33.81 66.9802 33.75 66.9202" stroke="#010101" stroke-width="0.25" stroke-miterlimit="10"/>
<path d="M36.96 46.6202C37.01 46.7102 36.97 46.8302 36.88 46.8802C36.79 46.9302 36.67 46.8902 36.62 46.8002C36.57 46.7102 36.61 46.5902 36.7 46.5402C36.76 46.5102 36.8401 46.5102 36.9001 46.5502" stroke="#010101" stroke-width="0.25" stroke-miterlimit="10"/>
<path d="M0.599976 27.1201C0.599976 27.1201 0.619976 27.1201 0.619976 27.1101" stroke="#010101" stroke-width="0.25" stroke-miterlimit="10"/>
<path d="M36.9 53.3401C36.9 53.3401 36.88 53.3401 36.88 53.3501" stroke="#010101" stroke-width="0.25" stroke-miterlimit="10"/>
<path d="M0.590039 27.4201C0.590039 27.4201 0.570039 27.4001 0.560039 27.3901C0.560039 27.3801 0.540039 27.3701 0.540039 27.3501" stroke="#010101" stroke-width="0.25" stroke-miterlimit="10"/>
<path d="M9.83997 0.620117C9.83997 0.620117 9.85997 0.680117 9.85997 0.710117" stroke="#010101" stroke-width="0.25" stroke-miterlimit="10"/>
<path d="M27.78 66.9702C27.78 66.9702 27.76 66.9702 27.75 66.9602" stroke="#010101" stroke-width="0.25" stroke-miterlimit="10"/>
<path d="M0.540039 46.62C0.540039 46.62 0.550039 46.5901 0.560039 46.5801C0.560039 46.5801 0.580039 46.56 0.590039 46.55" stroke="#010101" stroke-width="0.25" stroke-miterlimit="10"/>
<path d="M0.799971 27.4402C0.799971 27.4402 0.739971 27.4602 0.719971 27.4602" stroke="#010101" stroke-width="0.25" stroke-miterlimit="10"/>
<path d="M36.91 27.4202C36.91 27.4202 36.91 27.4202 36.9 27.4202" stroke="#010101" stroke-width="0.25" stroke-miterlimit="10"/>
<path d="M3.54004 66.6101C3.54004 66.6101 3.59004 66.6001 3.61004 66.6001" stroke="#010101" stroke-width="0.25" stroke-miterlimit="10"/>
<path d="M36.96 27.3601C36.96 27.3601 36.95 27.3901 36.94 27.4001C36.94 27.4001 36.92 27.4201 36.91 27.4301" stroke="#010101" stroke-width="0.25" stroke-miterlimit="10"/>
<path d="M0.590039 53.33C0.590039 53.33 0.550039 53.29 0.540039 53.27" stroke="#010101" stroke-width="0.25" stroke-miterlimit="10"/>
<path d="M27.66 0.800092C27.61 0.710092 27.65 0.590092 27.74 0.540092C27.83 0.490092 27.95 0.530092 28 0.620092C28.05 0.710092 28.01 0.830092 27.92 0.880092C27.89 0.890092 27.86 0.900092 27.83 0.900092" stroke="#010101" stroke-width="0.25" stroke-miterlimit="10"/>
<path d="M36.98 33.75C36.98 33.81 36.96 33.86 36.91 33.9" stroke="#010101" stroke-width="0.25" stroke-miterlimit="10"/>
<path d="M3.75 0.580078C3.75 0.580078 3.77 0.610078 3.78 0.620078" stroke="#010101" stroke-width="0.25" stroke-miterlimit="10"/>
<path d="M0.610054 40.3902C0.520054 40.3302 0.500054 40.2102 0.560054 40.1302C0.620054 40.0402 0.740054 40.0202 0.820054 40.0802C0.910054 40.1402 0.930054 40.2602 0.870054 40.3402C0.830054 40.3902 0.780054 40.4302 0.710054 40.4302" stroke="#010101" stroke-width="0.25" stroke-miterlimit="10"/>
<path d="M0.600044 20.9501C0.510044 20.8901 0.490044 20.7701 0.550044 20.6901C0.590044 20.6401 0.650044 20.6101 0.710044 20.6101" stroke="#010101" stroke-width="0.25" stroke-miterlimit="10"/>
<path d="M0.589966 46.56C0.589966 46.56 0.609966 46.54 0.629966 46.54" stroke="#010101" stroke-width="0.25" stroke-miterlimit="10"/>
<path d="M27.6899 66.9101C27.6899 66.9101 27.6899 66.9101 27.6899 66.9001" stroke="#010101" stroke-width="0.25" stroke-miterlimit="10"/>
<path d="M36.91 59.51C36.91 59.51 36.93 59.53 36.94 59.54C36.94 59.55 36.96 59.56 36.96 59.58" stroke="#010101" stroke-width="0.25" stroke-miterlimit="10"/>
<path d="M0.54002 46.7901C0.54002 46.7901 0.52002 46.7301 0.52002 46.7001C0.52002 46.6801 0.52002 46.6601 0.52002 46.6501" stroke="#010101" stroke-width="0.25" stroke-miterlimit="10"/>
<path d="M33.89 66.9802C33.89 66.9802 33.93 66.9802 33.95 66.9802" stroke="#010101" stroke-width="0.25" stroke-miterlimit="10"/>
<path d="M36.91 33.9001C36.91 33.9001 36.91 33.9001 36.9 33.9001" stroke="#010101" stroke-width="0.25" stroke-miterlimit="10"/>
<path d="M3.74999 66.6601C3.74999 66.6601 3.65999 66.6001 3.60999 66.6001" stroke="#010101" stroke-width="0.25" stroke-miterlimit="10"/>
<path d="M0.899961 33.75C0.899961 33.85 0.809961 33.94 0.709961 33.94" stroke="#010101" stroke-width="0.25" stroke-miterlimit="10"/>
<path d="M3.54002 66.6101C3.54002 66.6101 3.53002 66.6101 3.52002 66.6101" stroke="#010101" stroke-width="0.25" stroke-miterlimit="10"/>
<path d="M36.79 27.46C36.69 27.46 36.6 27.37 36.6 27.27" stroke="#010101" stroke-width="0.25" stroke-miterlimit="10"/>
<path d="M0.589966 53.0402C0.669966 52.9702 0.789966 52.9802 0.859966 53.0602C0.929966 53.1402 0.919966 53.2602 0.839966 53.3302C0.769966 53.3902 0.679966 53.3902 0.609966 53.3402" stroke="#010101" stroke-width="0.25" stroke-miterlimit="10"/>
<path d="M36.98 27.27C36.98 27.27 36.98 27.31 36.98 27.33" stroke="#010101" stroke-width="0.25" stroke-miterlimit="10"/>
<path d="M15.77 0.530029C15.87 0.560029 15.93 0.660029 15.9 0.770029C15.89 0.820029 15.85 0.860029 15.8 0.890029" stroke="#010101" stroke-width="0.25" stroke-miterlimit="10"/>
<path d="M36.91 40.0801C36.91 40.0801 36.93 40.1001 36.94 40.1101C36.94 40.1201 36.96 40.1301 36.96 40.1401" stroke="#010101" stroke-width="0.25" stroke-miterlimit="10"/>
<path d="M0.540039 53.1C0.540039 53.1 0.550039 53.07 0.560039 53.06C0.560039 53.06 0.580039 53.04 0.590039 53.03" stroke="#010101" stroke-width="0.25" stroke-miterlimit="10"/>
<path d="M36.97 27.3301C36.97 27.3301 36.97 27.3501 36.96 27.3601" stroke="#010101" stroke-width="0.25" stroke-miterlimit="10"/>
<path d="M33.8 0.540097C33.88 0.500097 33.97 0.520097 34.03 0.580097" stroke="#010101" stroke-width="0.25" stroke-miterlimit="10"/>
<path d="M33.7 66.78C33.7 66.78 33.71 66.87 33.74 66.9" stroke="#010101" stroke-width="0.25" stroke-miterlimit="10"/>
<path d="M0.709976 40.4201C0.709976 40.4201 0.629976 40.4101 0.599976 40.3901" stroke="#010101" stroke-width="0.25" stroke-miterlimit="10"/>
<path d="M15.81 0.880127C15.81 0.880127 15.75 0.900127 15.73 0.900127" stroke="#010101" stroke-width="0.25" stroke-miterlimit="10"/>
<path d="M27.83 66.9802C27.83 66.9802 27.79 66.9802 27.77 66.9802" stroke="#010101" stroke-width="0.25" stroke-miterlimit="10"/>
<path d="M3.46997 66.9102C3.46997 66.9102 3.48997 66.9302 3.49997 66.9302C3.50997 66.9302 3.51997 66.9501 3.52997 66.9501C3.52997 66.9501 3.53997 66.9501 3.54997 66.9501" stroke="#010101" stroke-width="0.25" stroke-miterlimit="10"/>
<path d="M36.6 27.2701C36.6 27.1701 36.69 27.0801 36.79 27.0801C36.87 27.0801 36.95 27.1301 36.97 27.2101" stroke="#010101" stroke-width="0.25" stroke-miterlimit="10"/>
<path d="M3.43994 0.800049C3.43994 0.800049 3.49994 0.880049 3.53994 0.890049" stroke="#010101" stroke-width="0.25" stroke-miterlimit="10"/>
<path d="M0.540041 33.8302C0.500041 33.7402 0.540041 33.6202 0.630041 33.5802C0.720041 33.5402 0.830041 33.5802 0.880041 33.6702" stroke="#010101" stroke-width="0.25" stroke-miterlimit="10"/>
<path d="M37.38 67.3801H33.76" stroke="#010101" stroke-width="0.25" stroke-miterlimit="10"/>
<path d="M3.45996 66.9001C3.45996 66.9001 3.45996 66.9001 3.45996 66.9101V66.9001Z" stroke="#010101" stroke-width="0.25" stroke-miterlimit="10"/>
<path d="M0.540029 53.2702C0.540029 53.2702 0.540029 53.2502 0.530029 53.2402" stroke="#010101" stroke-width="0.25" stroke-miterlimit="10"/>
<path d="M33.75 66.9201C33.75 66.9201 33.73 66.8901 33.72 66.8801" stroke="#010101" stroke-width="0.25" stroke-miterlimit="10"/>
<path d="M37.38 0.120117V3.75012" stroke="#010101" stroke-width="0.25" stroke-miterlimit="10"/>
<path d="M33.75 66.9202C33.75 66.9202 33.75 66.9202 33.76 66.9302" stroke="#010101" stroke-width="0.25" stroke-miterlimit="10"/>
<path d="M9.85998 66.79C9.85998 66.89 9.77998 66.98 9.66998 66.98C9.56998 66.98 9.47998 66.9 9.47998 66.79" stroke="#010101" stroke-width="0.25" stroke-miterlimit="10"/>
<path d="M33.97 66.9602C33.97 66.9602 33.99 66.9502 34.01 66.9402" stroke="#010101" stroke-width="0.25" stroke-miterlimit="10"/>
<path d="M0.709961 14.1301C0.779961 14.1301 0.849961 14.1701 0.879961 14.2301" stroke="#010101" stroke-width="0.25" stroke-miterlimit="10"/>
<path d="M3.43994 66.8801C3.43994 66.8801 3.43994 66.9001 3.44994 66.9001" stroke="#010101" stroke-width="0.25" stroke-miterlimit="10"/>
<path d="M0.530029 46.6501C0.530029 46.6501 0.530029 46.6301 0.540029 46.6201" stroke="#010101" stroke-width="0.25" stroke-miterlimit="10"/>
<path d="M0.119995 67.38V63.75" stroke="#010101" stroke-width="0.25" stroke-miterlimit="10"/>
<path d="M9.60996 66.9702C9.60996 66.9702 9.58996 66.9702 9.57996 66.9602" stroke="#010101" stroke-width="0.25" stroke-miterlimit="10"/>
<path d="M37.38 3.75V63.75" stroke="#010101" stroke-width="0.25" stroke-miterlimit="10"/>
<path d="M33.75 0.120117H37.37" stroke="#010101" stroke-width="0.25" stroke-miterlimit="10"/>
<path d="M3.55005 66.9702C3.55005 66.9702 3.59005 66.9702 3.61005 66.9702" stroke="#010101" stroke-width="0.25" stroke-miterlimit="10"/>
<path d="M0.119995 3.75012V0.120117" stroke="#010101" stroke-width="0.25" stroke-miterlimit="10"/>
<path d="M15.72 0.900205C15.62 0.900205 15.53 0.820205 15.53 0.710205" stroke="#010101" stroke-width="0.25" stroke-miterlimit="10"/>
<path d="M37.38 63.75V67.38" stroke="#010101" stroke-width="0.25" stroke-miterlimit="10"/>
<path d="M36.9 59.5C36.9 59.5 36.9 59.5 36.91 59.5" stroke="#010101" stroke-width="0.25" stroke-miterlimit="10"/>
<path d="M15.72 0.52002C15.72 0.52002 15.75 0.52002 15.77 0.52002" stroke="#010101" stroke-width="0.25" stroke-miterlimit="10"/>
<path d="M36.88 8.01001C36.88 8.01001 36.82 8.03001 36.79 8.03001" stroke="#010101" stroke-width="0.25" stroke-miterlimit="10"/>
<path d="M36.7 59.4902C36.7 59.4902 36.7599 59.4702 36.7799 59.4702" stroke="#010101" stroke-width="0.25" stroke-miterlimit="10"/>
<path d="M36.7 40.06C36.7 40.06 36.7599 40.04 36.7799 40.04" stroke="#010101" stroke-width="0.25" stroke-miterlimit="10"/>
<path d="M27.75 66.9602C27.66 66.9102 27.62 66.8002 27.67 66.7002C27.72 66.6102 27.83 66.5702 27.93 66.6202C28.03 66.6702 28.06 66.7802 28.01 66.8802C27.98 66.9502 27.91 66.9902 27.84 66.9802" stroke="#010101" stroke-width="0.25" stroke-miterlimit="10"/>
<path d="M33 34.9602V62.3302" stroke="#010101" stroke-width="0.25" stroke-miterlimit="10"/>
<path d="M3.46997 66.9102C3.46997 66.9102 3.48997 66.9302 3.49997 66.9302C3.50997 66.9302 3.51997 66.9501 3.52997 66.9501C3.52997 66.9501 3.53997 66.9501 3.54997 66.9501" stroke="#010101" stroke-width="0.25" stroke-miterlimit="10"/>
<path d="M3.67004 66.9702C3.67004 66.9702 3.69004 66.9702 3.70004 66.9602" stroke="#010101" stroke-width="0.25" stroke-miterlimit="10"/>
<path d="M3.72998 66.9402C3.72998 66.9402 3.73998 66.9302 3.74998 66.9202" stroke="#010101" stroke-width="0.25" stroke-miterlimit="10"/>
<path d="M3.69995 66.9602C3.69995 66.9602 3.71995 66.9502 3.72995 66.9402" stroke="#010101" stroke-width="0.25" stroke-miterlimit="10"/>
<path d="M3.60999 66.9802C3.60999 66.9802 3.64999 66.9802 3.66999 66.9802" stroke="#010101" stroke-width="0.25" stroke-miterlimit="10"/>
<path d="M3.55005 66.9702C3.55005 66.9702 3.59005 66.9702 3.61005 66.9702" stroke="#010101" stroke-width="0.25" stroke-miterlimit="10"/>
<path d="M15.72 0.900205C15.62 0.900205 15.53 0.820205 15.53 0.710205" stroke="#010101" stroke-width="0.25" stroke-miterlimit="10"/>
<path d="M36.9 53.3401C36.9 53.3401 36.88 53.3401 36.88 53.3501" stroke="#010101" stroke-width="0.25" stroke-miterlimit="10"/>
<path d="M36.91 33.9001C36.91 33.9001 36.91 33.9001 36.9 33.9001" stroke="#010101" stroke-width="0.25" stroke-miterlimit="10"/>
<path d="M0.709976 20.9802C0.709976 20.9802 0.629976 20.9702 0.599976 20.9502" stroke="#010101" stroke-width="0.25" stroke-miterlimit="10"/>
<path d="M36.91 33.6001C36.91 33.6001 36.93 33.6201 36.94 33.6301C36.94 33.6401 36.96 33.6501 36.96 33.6701" stroke="#010101" stroke-width="0.25" stroke-miterlimit="10"/>
<path d="M36.97 33.6902C36.97 33.6902 36.97 33.7302 36.97 33.7502" stroke="#010101" stroke-width="0.25" stroke-miterlimit="10"/>
<path d="M9.52002 66.9101C9.52002 66.9101 9.52002 66.9101 9.52002 66.9001" stroke="#010101" stroke-width="0.25" stroke-miterlimit="10"/>
<path d="M33.8 66.9602C33.8 66.9602 33.8201 66.9602 33.8301 66.9702" stroke="#010101" stroke-width="0.25" stroke-miterlimit="10"/>
<path d="M9.72004 66.9702C9.72004 66.9702 9.68004 66.9702 9.67004 66.9702" stroke="#010101" stroke-width="0.25" stroke-miterlimit="10"/>
<path d="M0.540039 46.62C0.540039 46.62 0.550039 46.5901 0.560039 46.5801C0.560039 46.5801 0.580039 46.56 0.590039 46.55" stroke="#010101" stroke-width="0.25" stroke-miterlimit="10"/>
<path d="M9.58001 66.9602C9.58001 66.9602 9.55001 66.9502 9.54001 66.9402C9.54001 66.9402 9.52001 66.9202 9.51001 66.9102" stroke="#010101" stroke-width="0.25" stroke-miterlimit="10"/>
<path d="M9.60996 66.9702C9.60996 66.9702 9.58996 66.9702 9.57996 66.9602" stroke="#010101" stroke-width="0.25" stroke-miterlimit="10"/>
<path d="M0.530029 46.6501C0.530029 46.6501 0.530029 46.6301 0.540029 46.6201" stroke="#010101" stroke-width="0.25" stroke-miterlimit="10"/>
<path d="M3.75 0.840205C3.75 0.840205 3.8 0.760205 3.8 0.710205" stroke="#010101" stroke-width="0.25" stroke-miterlimit="10"/>
<path d="M3.54002 0.530029C3.54002 0.530029 3.53002 0.530029 3.52002 0.530029" stroke="#010101" stroke-width="0.25" stroke-miterlimit="10"/>
<path d="M0.590039 7.99018C0.590039 7.99018 0.570039 7.97018 0.560039 7.96018C0.560039 7.95018 0.540039 7.94018 0.540039 7.93018" stroke="#010101" stroke-width="0.25" stroke-miterlimit="10"/>
<path d="M0.709961 14.1301C0.779961 14.1301 0.849961 14.1701 0.879961 14.2301" stroke="#010101" stroke-width="0.25" stroke-miterlimit="10"/>
<path d="M33 62.3301V63.0101" stroke="#010101" stroke-width="0.25" stroke-miterlimit="10"/>
<path d="M33.96 66.9702C33.96 66.9702 33.96 66.9702 33.97 66.9702H33.96Z" stroke="#010101" stroke-width="0.25" stroke-miterlimit="10"/>
<path d="M0.589966 14.1702C0.589966 14.1702 0.589966 14.1702 0.599966 14.1702" stroke="#010101" stroke-width="0.25" stroke-miterlimit="10"/>
<path d="M33.89 66.9802C33.89 66.9802 33.93 66.9802 33.95 66.9802" stroke="#010101" stroke-width="0.25" stroke-miterlimit="10"/>
<path d="M33.83 66.9702C33.83 66.9702 33.87 66.9802 33.89 66.9802" stroke="#010101" stroke-width="0.25" stroke-miterlimit="10"/>
<path d="M32.52 63H4.97998" stroke="#010101" stroke-width="0.25" stroke-miterlimit="10"/>
<path d="M33.75 66.9202C33.75 66.9202 33.75 66.9202 33.76 66.9302" stroke="#010101" stroke-width="0.25" stroke-miterlimit="10"/>
<path d="M33.74 66.9001C33.74 66.9001 33.73 66.8801 33.72 66.8701" stroke="#010101" stroke-width="0.25" stroke-miterlimit="10"/>
<path d="M4.98 63H4.37" stroke="#010101" stroke-width="0.25" stroke-miterlimit="10"/>
<path d="M33.75 63.75C33.75 63.75 33.75 63.77 33.75 63.78V63.8" stroke="#010101" stroke-width="0.25" stroke-miterlimit="10"/>
<path d="M33.75 64.3701H34.38" stroke="#010101" stroke-width="0.25" stroke-miterlimit="10"/>
<path d="M3.75 64.3701H33.75" stroke="#010101" stroke-width="0.25" stroke-miterlimit="10"/>
<path d="M4.5 63.0002V34.9602" stroke="#010101" stroke-width="0.25" stroke-miterlimit="10"/>
<path d="M3.69995 63.75V63.8" stroke="#010101" stroke-width="0.25" stroke-miterlimit="10"/>
<path d="M3.12 63.75V64.38" stroke="#010101" stroke-width="0.25" stroke-miterlimit="10"/>
<path d="M34.38 3.75012V3.12012" stroke="#010101" stroke-width="0.25" stroke-miterlimit="10"/>
<path d="M33.75 3.12012H3.75" stroke="#010101" stroke-width="0.25" stroke-miterlimit="10"/>
<path d="M33.75 63.7502V34.9602" stroke="#010101" stroke-width="0.25" stroke-miterlimit="10"/>
<path d="M34.38 3.12012H33.75" stroke="#010101" stroke-width="0.25" stroke-miterlimit="10"/>
<path d="M3.69995 63.8H3.74995" stroke="#010101" stroke-width="0.25" stroke-miterlimit="10"/>
<path d="M3.12 64.3701H3.75" stroke="#010101" stroke-width="0.25" stroke-miterlimit="10"/>
<path d="M33.13 63.7502V34.9602" stroke="#010101" stroke-width="0.25" stroke-miterlimit="10"/>
<path d="M3.12 3.12012V3.75012" stroke="#010101" stroke-width="0.25" stroke-miterlimit="10"/>
<path d="M33.8 63.8V63.75" stroke="#010101" stroke-width="0.25" stroke-miterlimit="10"/>
<path d="M33.75 63.75C33.75 63.75 33.77 63.75 33.78 63.75H33.8" stroke="#010101" stroke-width="0.25" stroke-miterlimit="10"/>
<path d="M17.77 33.9302H18.75" stroke="#010101" stroke-width="0.25" stroke-miterlimit="10"/>
<path d="M34.38 64.3702V63.7402" stroke="#010101" stroke-width="0.25" stroke-miterlimit="10"/>
<path d="M27.6899 66.9101C27.6899 66.9101 27.6899 66.9101 27.6899 66.9001" stroke="#010101" stroke-width="0.25" stroke-miterlimit="10"/>
<path d="M34.38 34.9602H3.12" stroke="#010101" stroke-width="0.25" stroke-miterlimit="10"/>
<path d="M3.75 63.75H33.75" stroke="#010101" stroke-width="0.25" stroke-miterlimit="10"/>
<path d="M3.12 33.9302H34.37" stroke="#010101" stroke-width="0.25" stroke-miterlimit="10"/>
<path d="M27.78 66.9702C27.78 66.9702 27.76 66.9702 27.75 66.9602" stroke="#010101" stroke-width="0.25" stroke-miterlimit="10"/>
<path d="M27.83 66.9802C27.83 66.9802 27.79 66.9802 27.77 66.9802" stroke="#010101" stroke-width="0.25" stroke-miterlimit="10"/>
<path d="M33.8 63.7502V34.9602" stroke="#010101" stroke-width="0.25" stroke-miterlimit="10"/>
<path d="M33.7 66.78C33.7 66.78 33.71 66.87 33.74 66.9" stroke="#010101" stroke-width="0.25" stroke-miterlimit="10"/>
<path d="M36.79 8.03009C36.69 8.03009 36.6 7.94009 36.6 7.84009" stroke="#010101" stroke-width="0.25" stroke-miterlimit="10"/>
<path d="M36.91 27.4202C36.91 27.4202 36.91 27.4202 36.9 27.4202" stroke="#010101" stroke-width="0.25" stroke-miterlimit="10"/>
<path d="M36.9 27.4302C36.9 27.4302 36.83 27.4602 36.79 27.4602" stroke="#010101" stroke-width="0.25" stroke-miterlimit="10"/>
<path d="M33.75 3.74023H3.75" stroke="#010101" stroke-width="0.25" stroke-miterlimit="10"/>
<path d="M3.12 3.75V63.75" stroke="#010101" stroke-width="0.25" stroke-miterlimit="10"/>
<path d="M36.96 27.3601C36.96 27.3601 36.95 27.3901 36.94 27.4001C36.94 27.4001 36.92 27.4201 36.91 27.4301" stroke="#010101" stroke-width="0.25" stroke-miterlimit="10"/>
<path d="M36.97 27.2202C36.97 27.2202 36.97 27.2602 36.97 27.2802" stroke="#010101" stroke-width="0.25" stroke-miterlimit="10"/>
<path d="M36.79 27.46C36.69 27.46 36.6 27.37 36.6 27.27" stroke="#010101" stroke-width="0.25" stroke-miterlimit="10"/>
<path d="M4.37 34.9602V63.7502" stroke="#010101" stroke-width="0.25" stroke-miterlimit="10"/>
<path d="M36.97 27.3301C36.97 27.3301 36.97 27.3501 36.96 27.3601" stroke="#010101" stroke-width="0.25" stroke-miterlimit="10"/>
<path d="M3.57996 33.92C3.57996 33.92 3.58996 33.91 3.59996 33.9C3.61996 33.88 3.62996 33.87 3.64996 33.85C3.67996 33.82 3.70996 33.79 3.73996 33.76" stroke="#010101" stroke-width="0.25" stroke-miterlimit="10"/>
<path d="M36.91 40.0801C36.91 40.0801 36.93 40.1001 36.94 40.1101C36.94 40.1201 36.96 40.1301 36.96 40.1401" stroke="#010101" stroke-width="0.25" stroke-miterlimit="10"/>
<path d="M36.9 40.0701C36.9 40.0701 36.9 40.0701 36.91 40.0701" stroke="#010101" stroke-width="0.25" stroke-miterlimit="10"/>
<path d="M33.76 33.76C33.76 33.76 33.82 33.82 33.85 33.85C33.87 33.87 33.88 33.88 33.9 33.9L33.92 33.92" stroke="#010101" stroke-width="0.25" stroke-miterlimit="10"/>
<path d="M21.78 66.6001C21.88 66.6001 21.97 66.6901 21.97 66.7901" stroke="#010101" stroke-width="0.25" stroke-miterlimit="10"/>
<path d="M0.589966 53.0402C0.669966 52.9702 0.789966 52.9802 0.859966 53.0602C0.929966 53.1402 0.919966 53.2602 0.839966 53.3302C0.769966 53.3902 0.679966 53.3902 0.609966 53.3402" stroke="#010101" stroke-width="0.25" stroke-miterlimit="10"/>
<path d="M36.91 59.8101C36.91 59.8101 36.91 59.8101 36.9 59.8101" stroke="#010101" stroke-width="0.25" stroke-miterlimit="10"/>
<path d="M36.9 59.5C36.9 59.5 36.9 59.5 36.91 59.5" stroke="#010101" stroke-width="0.25" stroke-miterlimit="10"/>
<path d="M0.589966 46.56C0.589966 46.56 0.609966 46.54 0.629966 46.54" stroke="#010101" stroke-width="0.25" stroke-miterlimit="10"/>
<path d="M36.9 59.8201C36.9 59.8201 36.88 59.8201 36.88 59.8301" stroke="#010101" stroke-width="0.25" stroke-miterlimit="10"/>
<path d="M36.91 59.51C36.91 59.51 36.93 59.53 36.94 59.54C36.94 59.55 36.96 59.56 36.96 59.58" stroke="#010101" stroke-width="0.25" stroke-miterlimit="10"/>
<path d="M0.540039 59.5801C0.590039 59.4901 0.700039 59.4501 0.790039 59.4901C0.830039 59.5101 0.860039 59.5401 0.880039 59.5701" stroke="#010101" stroke-width="0.25" stroke-miterlimit="10"/>
<path d="M0.90002 59.6601C0.90002 59.7601 0.81002 59.8501 0.71002 59.8501C0.61002 59.8501 0.52002 59.7601 0.52002 59.6601C0.52002 59.6401 0.52002 59.6201 0.52002 59.6001" stroke="#010101" stroke-width="0.25" stroke-miterlimit="10"/>
<path d="M0.530029 53.2401C0.530029 53.2401 0.530029 53.2001 0.530029 53.1801C0.530029 53.1501 0.530029 53.1201 0.550029 53.1001" stroke="#010101" stroke-width="0.25" stroke-miterlimit="10"/>
<path d="M0.54002 27.3601C0.50002 27.2801 0.52002 27.1701 0.60002 27.1201" stroke="#010101" stroke-width="0.25" stroke-miterlimit="10"/>
<path d="M0.709966 27.4602C0.709966 27.4602 0.619966 27.4402 0.589966 27.4202" stroke="#010101" stroke-width="0.25" stroke-miterlimit="10"/>
<path d="M0.619995 27.1002C0.709995 27.0502 0.829995 27.0902 0.879995 27.1802C0.929995 27.2702 0.889995 27.3902 0.799995 27.4402" stroke="#010101" stroke-width="0.25" stroke-miterlimit="10"/>
<path d="M0.709966 46.51C0.809966 46.51 0.899966 46.6 0.899966 46.7C0.899966 46.8 0.809966 46.89 0.709966 46.89C0.669966 46.89 0.619966 46.87 0.589966 46.85" stroke="#010101" stroke-width="0.25" stroke-miterlimit="10"/>
<path d="M0.599976 14.1601C0.599976 14.1601 0.669976 14.1301 0.709976 14.1301" stroke="#010101" stroke-width="0.25" stroke-miterlimit="10"/>
<path d="M0.600044 20.9501C0.510044 20.8901 0.490044 20.7701 0.550044 20.6901C0.590044 20.6401 0.650044 20.6101 0.710044 20.6101" stroke="#010101" stroke-width="0.25" stroke-miterlimit="10"/>
<path d="M0.88004 14.2302C0.93004 14.3202 0.89004 14.4402 0.80004 14.4902C0.71004 14.5402 0.59004 14.5002 0.54004 14.4102C0.50004 14.3302 0.52004 14.2402 0.59004 14.1802" stroke="#010101" stroke-width="0.25" stroke-miterlimit="10"/>
<path d="M0.54002 46.7901C0.54002 46.7901 0.52002 46.7301 0.52002 46.7001C0.52002 46.6801 0.52002 46.6601 0.52002 46.6501" stroke="#010101" stroke-width="0.25" stroke-miterlimit="10"/>
<path d="M3.54004 0.530036C3.61004 0.500036 3.70004 0.530036 3.75004 0.580036" stroke="#010101" stroke-width="0.25" stroke-miterlimit="10"/>
<path d="M0.53997 7.93022C0.48997 7.84022 0.52997 7.72022 0.61997 7.67022C0.70997 7.62022 0.82997 7.66022 0.87997 7.75022C0.92997 7.84022 0.88997 7.96022 0.79997 8.01022C0.72997 8.04022 0.64997 8.04022 0.58997 7.99022" stroke="#010101" stroke-width="0.25" stroke-miterlimit="10"/>
<path d="M3.43999 0.800039C3.38999 0.710039 3.42999 0.590039 3.51999 0.540039" stroke="#010101" stroke-width="0.25" stroke-miterlimit="10"/>
<path d="M3.75004 0.840088C3.70004 0.900088 3.61004 0.920088 3.54004 0.890088" stroke="#010101" stroke-width="0.25" stroke-miterlimit="10"/>
<path d="M3.75 0.580078C3.75 0.580078 3.77 0.610078 3.78 0.620078" stroke="#010101" stroke-width="0.25" stroke-miterlimit="10"/>
<path d="M21.59 0.71002C21.59 0.61002 21.67 0.52002 21.78 0.52002C21.88 0.52002 21.97 0.60002 21.97 0.71002C21.97 0.81002 21.89 0.90002 21.78 0.90002C21.71 0.90002 21.64 0.86002 21.61 0.80002" stroke="#010101" stroke-width="0.25" stroke-miterlimit="10"/>
<path d="M36.96 20.7102C37.01 20.8002 36.96 20.9202 36.87 20.9602C36.78 21.0002 36.67 20.9602 36.62 20.8802" stroke="#010101" stroke-width="0.25" stroke-miterlimit="10"/>
<path d="M15.53 0.71002C15.53 0.61002 15.61 0.52002 15.72 0.52002" stroke="#010101" stroke-width="0.25" stroke-miterlimit="10"/>
<path d="M36.88 33.92C36.79 33.97 36.67 33.93 36.62 33.84C36.57 33.75 36.61 33.63 36.7 33.58C36.77 33.55 36.85 33.55 36.91 33.6" stroke="#010101" stroke-width="0.25" stroke-miterlimit="10"/>
<path d="M36.98 33.75C36.98 33.81 36.96 33.86 36.91 33.9" stroke="#010101" stroke-width="0.25" stroke-miterlimit="10"/>
<path d="M33.75 0.840078C33.68 0.770078 33.68 0.660078 33.75 0.580078" stroke="#010101" stroke-width="0.25" stroke-miterlimit="10"/>
<path d="M36.88 53.3501C36.79 53.4001 36.67 53.3601 36.62 53.2701C36.57 53.1801 36.61 53.0601 36.7 53.0101C36.79 52.9601 36.91 53.0001 36.96 53.0901C37 53.1701 36.9801 53.2801 36.9001 53.3301" stroke="#010101" stroke-width="0.25" stroke-miterlimit="10"/>
<path d="M9.47998 66.7801C9.47998 66.6801 9.57998 66.6001 9.67998 66.6001C9.74998 66.6001 9.80998 66.6401 9.83998 66.7001" stroke="#010101" stroke-width="0.25" stroke-miterlimit="10"/>
<path d="M34.04 0.600098C34.04 0.600098 34.08 0.670098 34.08 0.710098" stroke="#010101" stroke-width="0.25" stroke-miterlimit="10"/>
<path d="M3.8 66.79C3.8 66.79 3.78 66.88 3.75 66.92" stroke="#010101" stroke-width="0.25" stroke-miterlimit="10"/>
<path d="M3.75 66.6602C3.75 66.6602 3.8 66.7402 3.8 66.7902" stroke="#010101" stroke-width="0.25" stroke-miterlimit="10"/>
<path d="M33.8 0.540097C33.88 0.500097 33.97 0.520097 34.03 0.580097" stroke="#010101" stroke-width="0.25" stroke-miterlimit="10"/>
<path d="M3.69997 66.9602C3.61997 67.0002 3.52997 66.9802 3.46997 66.9102" stroke="#010101" stroke-width="0.25" stroke-miterlimit="10"/>
<path d="M0.590039 53.33C0.590039 53.33 0.550039 53.29 0.540039 53.27" stroke="#010101" stroke-width="0.25" stroke-miterlimit="10"/>
<path d="M3.12 64.37C3.12 64.37 3.18 64.31 3.22 64.27C3.24 64.25 3.25 64.24 3.27 64.22C3.29 64.2 3.3 64.19 3.32 64.17C3.34 64.15 3.35 64.14 3.37 64.12C3.39 64.1 3.4 64.09 3.42 64.07C3.44 64.05 3.45 64.04 3.47 64.02C3.49 64 3.5 63.99 3.52 63.97C3.54 63.95 3.55 63.94 3.57 63.92C3.59 63.9 3.6 63.89 3.62 63.87C3.65 63.84 3.68 63.81 3.72 63.77" stroke="#010101" stroke-width="0.25" stroke-miterlimit="10"/>
<path d="M36.6 7.84015C36.6 7.74015 36.69 7.65015 36.79 7.65015C36.89 7.65015 36.98 7.74015 36.98 7.84015C36.98 7.91015 36.94 7.98015 36.88 8.01015" stroke="#010101" stroke-width="0.25" stroke-miterlimit="10"/>
<path d="M34.38 63.75V3.75" stroke="#010101" stroke-width="0.25" stroke-miterlimit="10"/>
<path d="M36.79 20.6101C36.82 20.6101 36.86 20.6101 36.9 20.6401" stroke="#010101" stroke-width="0.25" stroke-miterlimit="10"/>
<path d="M3.54004 66.6101C3.54004 66.6101 3.59004 66.6001 3.61004 66.6001" stroke="#010101" stroke-width="0.25" stroke-miterlimit="10"/>
<path d="M36.79 14.5101C36.8949 14.5101 36.98 14.4251 36.98 14.3201C36.98 14.2152 36.8949 14.1301 36.79 14.1301C36.685 14.1301 36.6 14.2152 36.6 14.3201C36.6 14.4251 36.685 14.5101 36.79 14.5101Z" stroke="#010101" stroke-width="0.25" stroke-miterlimit="10"/>
<path d="M36.62 20.88C36.62 20.88 36.6 20.82 36.6 20.79" stroke="#010101" stroke-width="0.25" stroke-miterlimit="10"/>
<path d="M3.75 63.8H33.75" stroke="#010101" stroke-width="0.25" stroke-miterlimit="10"/>
<path d="M21.61 0.800215C21.61 0.800215 21.59 0.740215 21.59 0.720215" stroke="#010101" stroke-width="0.25" stroke-miterlimit="10"/>
<path d="M33.76 33.7502V3.74023" stroke="#010101" stroke-width="0.25" stroke-miterlimit="10"/>
<path d="M36.6 27.2701C36.6 27.1701 36.69 27.0801 36.79 27.0801C36.87 27.0801 36.95 27.1301 36.97 27.2101" stroke="#010101" stroke-width="0.25" stroke-miterlimit="10"/>
<path d="M0.799971 27.4402C0.799971 27.4402 0.739971 27.4602 0.719971 27.4602" stroke="#010101" stroke-width="0.25" stroke-miterlimit="10"/>
<path d="M3.43994 66.8801C3.43994 66.8801 3.43994 66.9001 3.44994 66.9001" stroke="#010101" stroke-width="0.25" stroke-miterlimit="10"/>
<path d="M36.91 40.0801C36.99 40.1501 37 40.27 36.93 40.35C36.86 40.43 36.74 40.44 36.66 40.37C36.58 40.3 36.57 40.18 36.64 40.1C36.66 40.08 36.68 40.06 36.7 40.05" stroke="#010101" stroke-width="0.25" stroke-miterlimit="10"/>
<path d="M0.880005 59.5701C0.880005 59.5701 0.900005 59.6301 0.900005 59.6601" stroke="#010101" stroke-width="0.25" stroke-miterlimit="10"/>
<path d="M9.83997 66.7002C9.83997 66.7002 9.85997 66.7602 9.85997 66.7902" stroke="#010101" stroke-width="0.25" stroke-miterlimit="10"/>
<path d="M33.97 66.9602C33.97 66.9602 33.99 66.9502 34.01 66.9402" stroke="#010101" stroke-width="0.25" stroke-miterlimit="10"/>
<path d="M36.79 59.4702C36.83 59.4702 36.87 59.4802 36.9 59.5002" stroke="#010101" stroke-width="0.25" stroke-miterlimit="10"/>
<path d="M3.43994 0.800049C3.43994 0.800049 3.49994 0.880049 3.53994 0.890049" stroke="#010101" stroke-width="0.25" stroke-miterlimit="10"/>
<path d="M3.73999 3.75V33.75" stroke="#010101" stroke-width="0.25" stroke-miterlimit="10"/>
<path d="M36.88 59.8302C36.79 59.8802 36.67 59.8402 36.62 59.7502C36.57 59.6602 36.61 59.5402 36.7 59.4902" stroke="#010101" stroke-width="0.25" stroke-miterlimit="10"/>
<path d="M0.540041 33.8302C0.500041 33.7402 0.540041 33.6202 0.630041 33.5802C0.720041 33.5402 0.830041 33.5802 0.880041 33.6702" stroke="#010101" stroke-width="0.25" stroke-miterlimit="10"/>
<path d="M9.60999 0.530224C9.69999 0.500224 9.78999 0.540224 9.83999 0.620224" stroke="#010101" stroke-width="0.25" stroke-miterlimit="10"/>
<path d="M36.91 59.51C36.99 59.58 37 59.7 36.93 59.78C36.93 59.78 36.92 59.8 36.91 59.8" stroke="#010101" stroke-width="0.25" stroke-miterlimit="10"/>
<path d="M9.85998 0.710039C9.85998 0.810039 9.76998 0.900039 9.66998 0.900039C9.56998 0.900039 9.47998 0.810039 9.47998 0.710039C9.47998 0.640039 9.51998 0.570039 9.57998 0.540039" stroke="#010101" stroke-width="0.25" stroke-miterlimit="10"/>
<path d="M0.880005 33.6602C0.880005 33.6602 0.900005 33.7202 0.900005 33.7502" stroke="#010101" stroke-width="0.25" stroke-miterlimit="10"/>
<path d="M33.75 66.9201C33.75 66.9201 33.73 66.8901 33.72 66.8801" stroke="#010101" stroke-width="0.25" stroke-miterlimit="10"/>
<path d="M9.83997 0.620117C9.83997 0.620117 9.85997 0.680117 9.85997 0.710117" stroke="#010101" stroke-width="0.25" stroke-miterlimit="10"/>
<path d="M9.57996 0.540029C9.57996 0.540029 9.59996 0.540029 9.60996 0.530029" stroke="#010101" stroke-width="0.25" stroke-miterlimit="10"/>
<path d="M33.98 66.9602C33.9 67.0002 33.81 66.9802 33.75 66.9202" stroke="#010101" stroke-width="0.25" stroke-miterlimit="10"/>
<path d="M3.75 3.12012H3.12" stroke="#010101" stroke-width="0.25" stroke-miterlimit="10"/>
<path d="M3.75 33.76H33.75" stroke="#010101" stroke-width="0.25" stroke-miterlimit="10"/>
<path d="M3.15002 3.15015C3.15002 3.15015 3.22002 3.22015 3.25002 3.25015C3.27002 3.27015 3.28002 3.28015 3.30002 3.30015C3.32002 3.32015 3.33002 3.33015 3.35002 3.35015C3.37002 3.37015 3.38002 3.38015 3.40002 3.40015C3.42002 3.42015 3.43002 3.43015 3.45002 3.45015C3.47002 3.47015 3.48002 3.48015 3.50002 3.50015C3.52002 3.52015 3.53002 3.53015 3.55002 3.55015C3.57002 3.57015 3.58002 3.58015 3.60002 3.60015C3.62002 3.62015 3.63002 3.63015 3.65002 3.65015C3.68002 3.68015 3.71002 3.71015 3.74002 3.74015" stroke="#010101" stroke-width="0.25" stroke-miterlimit="10"/>
<path d="M34.35 3.15015C34.35 3.15015 34.28 3.22015 34.25 3.25015C34.23 3.27015 34.22 3.28015 34.2 3.30015C34.18 3.32015 34.17 3.33015 34.15 3.35015C34.13 3.37015 34.12 3.38015 34.1 3.40015C34.08 3.42015 34.07 3.43015 34.05 3.45015C34.03 3.47015 34.02 3.48015 34 3.50015C33.98 3.52015 33.97 3.53015 33.95 3.55015C33.93 3.57015 33.92 3.58015 33.9 3.60015C33.88 3.62015 33.87 3.63015 33.85 3.65015C33.82 3.68015 33.79 3.71015 33.76 3.74015" stroke="#010101" stroke-width="0.25" stroke-miterlimit="10"/>
<path d="M34.08 66.79C34.08 66.85 34.05 66.9 34.01 66.94" stroke="#010101" stroke-width="0.25" stroke-miterlimit="10"/>
<path d="M4.97998 63.75V63.02V63" stroke="#010101" stroke-width="0.25" stroke-miterlimit="10"/>
<path d="M0.590039 33.9001C0.590039 33.9001 0.570039 33.8801 0.560039 33.8701C0.560039 33.8601 0.540039 33.8501 0.540039 33.8301" stroke="#010101" stroke-width="0.25" stroke-miterlimit="10"/>
<path d="M33.75 66.6602C33.82 66.5802 33.94 66.5802 34.02 66.6502C34.06 66.6902 34.08 66.7402 34.08 66.7902" stroke="#010101" stroke-width="0.25" stroke-miterlimit="10"/>
<path d="M0.599966 33.9102C0.599966 33.9102 0.599966 33.9102 0.589966 33.9102" stroke="#010101" stroke-width="0.25" stroke-miterlimit="10"/>
<path d="M0.709976 33.9402C0.709976 33.9402 0.629976 33.9302 0.599976 33.9102" stroke="#010101" stroke-width="0.25" stroke-miterlimit="10"/>
<path d="M33.75 63.8H33.8" stroke="#010101" stroke-width="0.25" stroke-miterlimit="10"/>
<path d="M21.97 66.7901C21.97 66.8901 21.88 66.9801 21.78 66.9801C21.68 66.9801 21.59 66.8901 21.59 66.7901C21.59 66.6901 21.68 66.6001 21.78 66.6001" stroke="#010101" stroke-width="0.25" stroke-miterlimit="10"/>
<path d="M3.75 0.120117H33.75" stroke="#010101" stroke-width="0.25" stroke-miterlimit="10"/>
<path d="M15.72 66.9801C15.825 66.9801 15.91 66.895 15.91 66.7901C15.91 66.6852 15.825 66.6001 15.72 66.6001C15.6151 66.6001 15.53 66.6852 15.53 66.7901C15.53 66.895 15.6151 66.9801 15.72 66.9801Z" stroke="#010101" stroke-width="0.25" stroke-miterlimit="10"/>
<path d="M37.38 0.120117V3.75012" stroke="#010101" stroke-width="0.25" stroke-miterlimit="10"/>
<path d="M37.38 3.75V63.75" stroke="#010101" stroke-width="0.25" stroke-miterlimit="10"/>
<path d="M9.85998 66.79C9.85998 66.89 9.77998 66.98 9.66998 66.98C9.56998 66.98 9.47998 66.9 9.47998 66.79" stroke="#010101" stroke-width="0.25" stroke-miterlimit="10"/>
<path d="M3.75 2.86011H33.75" stroke="#010101" stroke-width="0.25" stroke-miterlimit="10"/>
<path d="M0.119995 0.120117H3.74" stroke="#010101" stroke-width="0.25" stroke-miterlimit="10"/>
<path d="M32.52 63H33.13" stroke="#010101" stroke-width="0.25" stroke-miterlimit="10"/>
<path d="M3.45994 66.9001C3.39994 66.8101 3.41994 66.7001 3.49994 66.6301L3.51994 66.6201" stroke="#010101" stroke-width="0.25" stroke-miterlimit="10"/>
<path d="M3.74999 2.86011H2.85999" stroke="#010101" stroke-width="0.25" stroke-miterlimit="10"/>
<path d="M33.75 0.120117H37.37" stroke="#010101" stroke-width="0.25" stroke-miterlimit="10"/>
<path d="M33.75 2.86011H34.64" stroke="#010101" stroke-width="0.25" stroke-miterlimit="10"/>
<path d="M32.52 63.02V63.75" stroke="#010101" stroke-width="0.25" stroke-miterlimit="10"/>
<path d="M36.91 20.6501C36.91 20.6501 36.93 20.6701 36.94 20.6801C36.94 20.6901 36.96 20.7001 36.96 20.7201" stroke="#010101" stroke-width="0.25" stroke-miterlimit="10"/>
<path d="M33.75 67.3801H3.75" stroke="#010101" stroke-width="0.25" stroke-miterlimit="10"/>
<path d="M33.75 64.6401H3.75" stroke="#010101" stroke-width="0.25" stroke-miterlimit="10"/>
<path d="M33.76 66.9302C33.76 66.9302 33.78 66.9502 33.79 66.9502" stroke="#010101" stroke-width="0.25" stroke-miterlimit="10"/>
<path d="M37.38 67.3801H33.76" stroke="#010101" stroke-width="0.25" stroke-miterlimit="10"/>
<path d="M3.80001 0.710088C3.80001 0.710088 3.79001 0.630088 3.76001 0.590088" stroke="#010101" stroke-width="0.25" stroke-miterlimit="10"/>
<path d="M33.75 64.6401H34.64" stroke="#010101" stroke-width="0.25" stroke-miterlimit="10"/>
<path d="M3.75 67.3801H0.119995" stroke="#010101" stroke-width="0.25" stroke-miterlimit="10"/>
<path d="M0.530029 59.6101C0.530029 59.6101 0.530029 59.5901 0.540029 59.5801" stroke="#010101" stroke-width="0.25" stroke-miterlimit="10"/>
<path d="M34.06 0.620088C34.06 0.620088 34.05 0.600088 34.04 0.590088" stroke="#010101" stroke-width="0.25" stroke-miterlimit="10"/>
<path d="M3.74999 64.6401H2.85999" stroke="#010101" stroke-width="0.25" stroke-miterlimit="10"/>
<path d="M0.590039 46.85C0.590039 46.85 0.570039 46.83 0.560039 46.82C0.560039 46.81 0.540039 46.8 0.540039 46.79" stroke="#010101" stroke-width="0.25" stroke-miterlimit="10"/>
<path d="M0.119995 67.38V63.75" stroke="#010101" stroke-width="0.25" stroke-miterlimit="10"/>
<path d="M2.85999 64.64V63.75" stroke="#010101" stroke-width="0.25" stroke-miterlimit="10"/>
<path d="M33.7 66.7802C33.7 66.7802 33.72 66.6902 33.75 66.6602" stroke="#010101" stroke-width="0.25" stroke-miterlimit="10"/>
<path d="M0.119995 63.75V3.75" stroke="#010101" stroke-width="0.25" stroke-miterlimit="10"/>
<path d="M36.9 33.9102C36.9 33.9102 36.88 33.9102 36.88 33.9202" stroke="#010101" stroke-width="0.25" stroke-miterlimit="10"/>
<path d="M2.85999 3.75V63.75" stroke="#010101" stroke-width="0.25" stroke-miterlimit="10"/>
<path d="M34.64 2.86011V3.75011" stroke="#010101" stroke-width="0.25" stroke-miterlimit="10"/>
<path d="M15.81 0.880127C15.81 0.880127 15.75 0.900127 15.73 0.900127" stroke="#010101" stroke-width="0.25" stroke-miterlimit="10"/>
<path d="M36.96 33.6702C36.96 33.6702 36.96 33.6902 36.97 33.7002" stroke="#010101" stroke-width="0.25" stroke-miterlimit="10"/>
<path d="M36.9 20.6401C36.9 20.6401 36.9 20.6401 36.91 20.6401" stroke="#010101" stroke-width="0.25" stroke-miterlimit="10"/>
<path d="M34.64 63.75V3.75" stroke="#010101" stroke-width="0.25" stroke-miterlimit="10"/>
<path d="M3.74999 66.6601C3.74999 66.6601 3.65999 66.6001 3.60999 66.6001" stroke="#010101" stroke-width="0.25" stroke-miterlimit="10"/>
<path d="M0.119995 3.75012V0.120117" stroke="#010101" stroke-width="0.25" stroke-miterlimit="10"/>
<path d="M3.54002 66.6101C3.54002 66.6101 3.53002 66.6101 3.52002 66.6101" stroke="#010101" stroke-width="0.25" stroke-miterlimit="10"/>
<path d="M36.79 40.04C36.83 40.04 36.87 40.05 36.9 40.07" stroke="#010101" stroke-width="0.25" stroke-miterlimit="10"/>
<path d="M2.85999 3.75011V2.86011" stroke="#010101" stroke-width="0.25" stroke-miterlimit="10"/>
<path d="M0.619995 46.54C0.619995 46.54 0.679995 46.52 0.709995 46.52" stroke="#010101" stroke-width="0.25" stroke-miterlimit="10"/>
<path d="M37.38 63.75V67.38" stroke="#010101" stroke-width="0.25" stroke-miterlimit="10"/>
<path d="M0.709961 20.6101C0.779961 20.6101 0.849961 20.6501 0.879961 20.7101" stroke="#010101" stroke-width="0.25" stroke-miterlimit="10"/>
<path d="M34.64 64.64V63.75" stroke="#010101" stroke-width="0.25" stroke-miterlimit="10"/>
<path d="M15.72 0.52002C15.72 0.52002 15.75 0.52002 15.77 0.52002" stroke="#010101" stroke-width="0.25" stroke-miterlimit="10"/>
<path d="M36.91 46.5601C36.91 46.5601 36.93 46.5801 36.94 46.5901C36.94 46.6001 36.96 46.6101 36.96 46.6301" stroke="#010101" stroke-width="0.25" stroke-miterlimit="10"/>
<path d="M32.52 63C32.52 63 32.52 63 32.52 63.01V63Z" stroke="#010101" stroke-width="0.25" stroke-miterlimit="10"/>
<path d="M0.610054 40.3902C0.520054 40.3302 0.500054 40.2102 0.560054 40.1302C0.620054 40.0402 0.740054 40.0202 0.820054 40.0802C0.910054 40.1402 0.930054 40.2602 0.870054 40.3402C0.830054 40.3902 0.780054 40.4302 0.710054 40.4302" stroke="#010101" stroke-width="0.25" stroke-miterlimit="10"/>
<path d="M36.88 8.01001C36.88 8.01001 36.82 8.03001 36.79 8.03001" stroke="#010101" stroke-width="0.25" stroke-miterlimit="10"/>
<path d="M0.709976 40.4201C0.709976 40.4201 0.629976 40.4101 0.599976 40.3901" stroke="#010101" stroke-width="0.25" stroke-miterlimit="10"/>
<path d="M34.04 0.600098C34.04 0.600098 34.05 0.620098 34.06 0.630098" stroke="#010101" stroke-width="0.25" stroke-miterlimit="10"/>
<path d="M3.45996 66.9001C3.45996 66.9001 3.45996 66.9001 3.45996 66.9101V66.9001Z" stroke="#010101" stroke-width="0.25" stroke-miterlimit="10"/>
<path d="M0.899961 33.75C0.899961 33.85 0.809961 33.94 0.709961 33.94" stroke="#010101" stroke-width="0.25" stroke-miterlimit="10"/>
<path d="M3.75 34.9602V63.7502" stroke="#010101" stroke-width="0.25" stroke-miterlimit="10"/>
<path d="M27.83 0.900049C27.76 0.900049 27.69 0.860049 27.66 0.800049" stroke="#010101" stroke-width="0.25" stroke-miterlimit="10"/>
<path d="M0.879961 20.7102C0.929961 20.8002 0.889961 20.9202 0.799961 20.9702C0.769961 20.9802 0.739961 20.9902 0.709961 20.9902" stroke="#010101" stroke-width="0.25" stroke-miterlimit="10"/>
<path d="M36.7 40.06C36.7 40.06 36.7599 40.04 36.7799 40.04" stroke="#010101" stroke-width="0.25" stroke-miterlimit="10"/>
<path d="M15.77 0.530029C15.87 0.560029 15.93 0.660029 15.9 0.770029C15.89 0.820029 15.85 0.860029 15.8 0.890029" stroke="#010101" stroke-width="0.25" stroke-miterlimit="10"/>
<path d="M0.540039 53.1C0.540039 53.1 0.550039 53.07 0.560039 53.06C0.560039 53.06 0.580039 53.04 0.590039 53.03" stroke="#010101" stroke-width="0.25" stroke-miterlimit="10"/>
<path d="M27.66 0.800092C27.61 0.710092 27.65 0.590092 27.74 0.540092C27.83 0.490092 27.95 0.530092 28 0.620092C28.05 0.710092 28.01 0.830092 27.92 0.880092C27.89 0.890092 27.86 0.900092 27.83 0.900092" stroke="#010101" stroke-width="0.25" stroke-miterlimit="10"/>
<path d="M33.8 0.540039C33.8 0.540039 33.78 0.550039 33.77 0.560039C33.77 0.560039 33.76 0.560039 33.76 0.570039" stroke="#010101" stroke-width="0.25" stroke-miterlimit="10"/>
<path d="M34.04 0.600088C34.04 0.600088 34.04 0.600088 34.03 0.590088H34.04V0.600088Z" stroke="#010101" stroke-width="0.25" stroke-miterlimit="10"/>
<path d="M3.69995 34.9602V63.7502" stroke="#010101" stroke-width="0.25" stroke-miterlimit="10"/>
<path d="M0.540029 53.2702C0.540029 53.2702 0.540029 53.2502 0.530029 53.2402" stroke="#010101" stroke-width="0.25" stroke-miterlimit="10"/>
<path d="M36.7 59.4902C36.7 59.4902 36.7599 59.4702 36.7799 59.4702" stroke="#010101" stroke-width="0.25" stroke-miterlimit="10"/>
<path d="M0.599966 53.3401C0.599966 53.3401 0.599966 53.3401 0.589966 53.3401" stroke="#010101" stroke-width="0.25" stroke-miterlimit="10"/>
<path d="M33.8 63.8C33.8 63.8 33.8601 63.8601 33.9001 63.9001C33.9201 63.9201 33.9301 63.9301 33.9501 63.9501C33.9701 63.9701 33.98 63.98 34 64C34.02 64.02 34.03 64.0301 34.05 64.0501C34.07 64.0701 34.08 64.08 34.1 64.1C34.12 64.12 34.1301 64.1301 34.1501 64.1501C34.1701 64.1701 34.1801 64.18 34.2001 64.2C34.2201 64.22 34.23 64.23 34.25 64.25C34.27 64.27 34.28 64.2801 34.3 64.3001C34.33 64.3301 34.3601 64.3601 34.4001 64.4001" stroke="#010101" stroke-width="0.25" stroke-miterlimit="10"/>
<path d="M34.08 0.710205C34.08 0.790205 34.03 0.860205 33.96 0.890205" stroke="#010101" stroke-width="0.25" stroke-miterlimit="10"/>
<path d="M0.590039 27.4201C0.590039 27.4201 0.570039 27.4001 0.560039 27.3901C0.560039 27.3801 0.540039 27.3701 0.540039 27.3501" stroke="#010101" stroke-width="0.25" stroke-miterlimit="10"/>
<path d="M36.9 46.55C36.9 46.55 36.9 46.55 36.91 46.55" stroke="#010101" stroke-width="0.25" stroke-miterlimit="10"/>
<path d="M36.6 20.7901C36.6 20.6901 36.68 20.6001 36.79 20.6001" stroke="#010101" stroke-width="0.25" stroke-miterlimit="10"/>
<path d="M0.599976 27.1201C0.599976 27.1201 0.619976 27.1201 0.619976 27.1101" stroke="#010101" stroke-width="0.25" stroke-miterlimit="10"/>
<path d="M33.76 0.840088C33.81 0.890088 33.89 0.910088 33.96 0.880088" stroke="#010101" stroke-width="0.25" stroke-miterlimit="10"/>
<path d="M36.98 27.27C36.98 27.27 36.98 27.31 36.98 27.33" stroke="#010101" stroke-width="0.25" stroke-miterlimit="10"/>
<path d="M36.96 46.6202C37.01 46.7102 36.97 46.8302 36.88 46.8802C36.79 46.9302 36.67 46.8902 36.62 46.8002C36.57 46.7102 36.61 46.5902 36.7 46.5402C36.76 46.5102 36.8401 46.5102 36.9001 46.5502" stroke="#010101" stroke-width="0.25" stroke-miterlimit="10"/>
</g>
<defs>
<clipPath id="clip0_1347_5315">
<rect width="37.5" height="67.5" fill="white"/>
</clipPath>
</defs>
</svg>
