<svg width="44" height="61" viewBox="0 0 44 61" fill="none" xmlns="http://www.w3.org/2000/svg">
<g clip-path="url(#clip0_1347_6288)">
<path d="M43.37 0.120117H0.119995V60.3701H43.37V0.120117Z" fill="white"/>
<path d="M18.28 0.600098C18.28 0.600098 18.29 0.620098 18.3 0.630098" stroke="#010101" stroke-width="0.25" stroke-miterlimit="10"/>
<path d="M42.97 45.1301C42.97 45.1301 42.97 45.1701 42.97 45.1901" stroke="#010101" stroke-width="0.25" stroke-miterlimit="10"/>
<path d="M39.74 59.9001C39.74 59.9001 39.74 59.9001 39.74 59.9101" stroke="#010101" stroke-width="0.25" stroke-miterlimit="10"/>
<path d="M42.91 52.51C42.91 52.51 42.93 52.53 42.94 52.54C42.94 52.55 42.96 52.56 42.96 52.58" stroke="#010101" stroke-width="0.25" stroke-miterlimit="10"/>
<path d="M25.21 0.800039C25.16 0.710039 25.2 0.590039 25.29 0.540039" stroke="#010101" stroke-width="0.25" stroke-miterlimit="10"/>
<path d="M0.799976 45.3601C0.739976 45.3901 0.659976 45.3901 0.599976 45.3401" stroke="#010101" stroke-width="0.25" stroke-miterlimit="10"/>
<path d="M0.880005 37.6301C0.880005 37.6301 0.900005 37.6901 0.900005 37.7201" stroke="#010101" stroke-width="0.25" stroke-miterlimit="10"/>
<path d="M42.79 7.65015C42.79 7.65015 42.87 7.66015 42.9 7.68015" stroke="#010101" stroke-width="0.25" stroke-miterlimit="10"/>
<path d="M42.96 45.1101C42.96 45.1101 42.96 45.1301 42.97 45.1401" stroke="#010101" stroke-width="0.25" stroke-miterlimit="10"/>
<path d="M42.62 45.28C42.57 45.19 42.61 45.07 42.7 45.02" stroke="#010101" stroke-width="0.25" stroke-miterlimit="10"/>
<path d="M3.76001 0.600098C3.76001 0.600098 3.77001 0.620098 3.78001 0.630098" stroke="#010101" stroke-width="0.25" stroke-miterlimit="10"/>
<path d="M18.06 59.9702C18.06 59.9702 18.04 59.9702 18.03 59.9602" stroke="#010101" stroke-width="0.25" stroke-miterlimit="10"/>
<path d="M0.539956 45.2801C0.509956 45.2301 0.509956 45.1601 0.539956 45.1101" stroke="#010101" stroke-width="0.25" stroke-miterlimit="10"/>
<path d="M32.8 0.620098C32.8 0.620098 32.8 0.610098 32.79 0.600098" stroke="#010101" stroke-width="0.25" stroke-miterlimit="10"/>
<path d="M0.590039 15.4601C0.590039 15.4601 0.570039 15.4401 0.560039 15.4301C0.560039 15.4201 0.540039 15.4101 0.540039 15.3901" stroke="#010101" stroke-width="0.25" stroke-miterlimit="10"/>
<path d="M42.88 30.4201C42.79 30.4701 42.67 30.4301 42.62 30.3401" stroke="#010101" stroke-width="0.25" stroke-miterlimit="10"/>
<path d="M42.97 45.2402C42.97 45.2402 42.97 45.2602 42.96 45.2702" stroke="#010101" stroke-width="0.25" stroke-miterlimit="10"/>
<path d="M42.6 7.84017C42.6 7.77017 42.64 7.70017 42.7 7.67017" stroke="#010101" stroke-width="0.25" stroke-miterlimit="10"/>
<path d="M3.46997 59.9102C3.46997 59.9102 3.48997 59.9302 3.49997 59.9302C3.50997 59.9302 3.51997 59.9502 3.53997 59.9502" stroke="#010101" stroke-width="0.25" stroke-miterlimit="10"/>
<path d="M25.3199 0.530029C25.3199 0.530029 25.3599 0.530029 25.3799 0.530029C25.4099 0.530029 25.4299 0.530029 25.4599 0.550029" stroke="#010101" stroke-width="0.25" stroke-miterlimit="10"/>
<path d="M0.619995 22.6101C0.619995 22.6101 0.679995 22.5901 0.709995 22.5901" stroke="#010101" stroke-width="0.25" stroke-miterlimit="10"/>
<path d="M40.04 59.9001C39.98 59.9801 39.86 60.0001 39.77 59.9401C39.77 59.9401 39.77 59.9401 39.76 59.9401" stroke="#010101" stroke-width="0.25" stroke-miterlimit="10"/>
<path d="M0.119995 60.38V56.75" stroke="#010101" stroke-width="0.25" stroke-miterlimit="10"/>
<path d="M18.2099 59.9602C18.2099 59.9602 18.1499 59.9802 18.1199 59.9802C18.0999 59.9802 18.0799 59.9802 18.0599 59.9802" stroke="#010101" stroke-width="0.25" stroke-miterlimit="10"/>
<path d="M42.9 30.0901C42.9 30.0901 42.9 30.0901 42.91 30.0901" stroke="#010101" stroke-width="0.25" stroke-miterlimit="10"/>
<path d="M32.49 59.9101C32.49 59.9101 32.49 59.9101 32.49 59.9001" stroke="#010101" stroke-width="0.25" stroke-miterlimit="10"/>
<path d="M42.7 30.0801C42.7 30.0801 42.7599 30.0601 42.7799 30.0601" stroke="#010101" stroke-width="0.25" stroke-miterlimit="10"/>
<path d="M0.590039 52.81C0.590039 52.81 0.570039 52.79 0.560039 52.78C0.560039 52.77 0.540039 52.76 0.540039 52.75" stroke="#010101" stroke-width="0.25" stroke-miterlimit="10"/>
<path d="M0.599966 52.8201C0.599966 52.8201 0.599966 52.8201 0.589966 52.8201" stroke="#010101" stroke-width="0.25" stroke-miterlimit="10"/>
<path d="M42.9 30.4102C42.9 30.4102 42.88 30.4102 42.88 30.4202" stroke="#010101" stroke-width="0.25" stroke-miterlimit="10"/>
<path d="M3.45004 0.600098C3.45004 0.600098 3.42004 0.670098 3.42004 0.710098" stroke="#010101" stroke-width="0.25" stroke-miterlimit="10"/>
<path d="M0.619966 30.0801C0.709966 30.0301 0.829966 30.0701 0.879966 30.1601C0.929966 30.2501 0.889966 30.3701 0.799966 30.4201C0.729966 30.4501 0.649966 30.4501 0.589966 30.4001" stroke="#010101" stroke-width="0.25" stroke-miterlimit="10"/>
<path d="M25.2199 59.9C25.2199 59.9 25.1899 59.83 25.1899 59.79" stroke="#010101" stroke-width="0.25" stroke-miterlimit="10"/>
<path d="M39.89 59.9802C39.89 59.9802 39.93 59.9802 39.95 59.9802" stroke="#010101" stroke-width="0.25" stroke-miterlimit="10"/>
<path d="M42.97 7.78003C42.97 7.78003 42.97 7.82003 42.97 7.84003" stroke="#010101" stroke-width="0.25" stroke-miterlimit="10"/>
<path d="M43.38 60.3801H39.76" stroke="#010101" stroke-width="0.25" stroke-miterlimit="10"/>
<path d="M0.599976 30.0901C0.599976 30.0901 0.619976 30.0901 0.619976 30.0801" stroke="#010101" stroke-width="0.25" stroke-miterlimit="10"/>
<path d="M3.8 59.7902C3.8 59.7902 3.78 59.7002 3.75 59.6602" stroke="#010101" stroke-width="0.25" stroke-miterlimit="10"/>
<path d="M3.75 0.120117H39.75" stroke="#010101" stroke-width="0.25" stroke-miterlimit="10"/>
<path d="M3.55005 59.9702C3.55005 59.9702 3.59005 59.9702 3.61005 59.9702" stroke="#010101" stroke-width="0.25" stroke-miterlimit="10"/>
<path d="M3.67004 59.9702C3.67004 59.9702 3.69004 59.9702 3.70004 59.9602" stroke="#010101" stroke-width="0.25" stroke-miterlimit="10"/>
<path d="M0.600039 8.00018C0.600039 8.00018 0.550039 7.96018 0.540039 7.93018" stroke="#010101" stroke-width="0.25" stroke-miterlimit="10"/>
<path d="M32.58 0.530029C32.58 0.530029 32.62 0.530029 32.64 0.530029C32.66 0.530029 32.67 0.530029 32.69 0.530029" stroke="#010101" stroke-width="0.25" stroke-miterlimit="10"/>
<path d="M42.9 7.68018C42.9 7.68018 42.96 7.74018 42.97 7.78018" stroke="#010101" stroke-width="0.25" stroke-miterlimit="10"/>
<path d="M42.91 15.1602C42.99 15.2302 43 15.3502 42.93 15.4302C42.86 15.5102 42.74 15.5202 42.66 15.4502C42.64 15.4302 42.62 15.4102 42.61 15.3902" stroke="#010101" stroke-width="0.25" stroke-miterlimit="10"/>
<path d="M25.38 59.6001C25.48 59.6001 25.57 59.6901 25.57 59.7901C25.57 59.8901 25.48 59.9801 25.38 59.9801C25.32 59.9801 25.26 59.9501 25.22 59.9001" stroke="#010101" stroke-width="0.25" stroke-miterlimit="10"/>
<path d="M17.9301 59.7901C17.9301 59.6901 18.0201 59.6001 18.1201 59.6001C18.2201 59.6001 18.3101 59.6901 18.3101 59.7901C18.3101 59.8401 18.2901 59.8801 18.2601 59.9101" stroke="#010101" stroke-width="0.25" stroke-miterlimit="10"/>
<path d="M42.62 15.4001C42.62 15.4001 42.6 15.3401 42.6 15.3101" stroke="#010101" stroke-width="0.25" stroke-miterlimit="10"/>
<path d="M0.540039 30.1701C0.540039 30.1701 0.550039 30.1401 0.560039 30.1301C0.560039 30.1301 0.580039 30.1101 0.590039 30.1001" stroke="#010101" stroke-width="0.25" stroke-miterlimit="10"/>
<path d="M42.7 7.67015C42.7 7.67015 42.7599 7.65015 42.7799 7.65015" stroke="#010101" stroke-width="0.25" stroke-miterlimit="10"/>
<path d="M0.53997 52.7502C0.48997 52.6602 0.52997 52.5402 0.61997 52.4902" stroke="#010101" stroke-width="0.25" stroke-miterlimit="10"/>
<path d="M17.97 0.59002C17.97 0.59002 18.06 0.52002 18.12 0.52002" stroke="#010101" stroke-width="0.25" stroke-miterlimit="10"/>
<path d="M0.54002 30.3402C0.54002 30.3402 0.52002 30.2802 0.52002 30.2502C0.52002 30.2302 0.52002 30.2102 0.52002 30.2002" stroke="#010101" stroke-width="0.25" stroke-miterlimit="10"/>
<path d="M0.709961 37.53C0.779961 37.53 0.849961 37.57 0.879961 37.63" stroke="#010101" stroke-width="0.25" stroke-miterlimit="10"/>
<path d="M25.29 59.6201C25.29 59.6201 25.35 59.6001 25.38 59.6001" stroke="#010101" stroke-width="0.25" stroke-miterlimit="10"/>
<path d="M39.75 59.9201C39.75 59.9201 39.75 59.9101 39.74 59.9001" stroke="#010101" stroke-width="0.25" stroke-miterlimit="10"/>
<path d="M0.540039 15.2301C0.540039 15.2301 0.590039 15.1601 0.620039 15.1401" stroke="#010101" stroke-width="0.25" stroke-miterlimit="10"/>
<path d="M42.9 37.5601C42.9 37.5601 42.9 37.5601 42.91 37.5601" stroke="#010101" stroke-width="0.25" stroke-miterlimit="10"/>
<path d="M32.49 0.590039C32.49 0.590039 32.51 0.570039 32.52 0.560039C32.53 0.560039 32.54 0.540039 32.56 0.540039" stroke="#010101" stroke-width="0.25" stroke-miterlimit="10"/>
<path d="M39.7 59.78C39.7 59.78 39.71 59.87 39.74 59.9" stroke="#010101" stroke-width="0.25" stroke-miterlimit="10"/>
<path d="M0.800039 22.9501C0.710039 23.0001 0.590039 22.9601 0.540039 22.8701" stroke="#010101" stroke-width="0.25" stroke-miterlimit="10"/>
<path d="M39.83 59.9702C39.83 59.9702 39.87 59.9802 39.89 59.9802" stroke="#010101" stroke-width="0.25" stroke-miterlimit="10"/>
<path d="M0.619995 15.1401C0.619995 15.1401 0.679995 15.1201 0.709995 15.1201" stroke="#010101" stroke-width="0.25" stroke-miterlimit="10"/>
<path d="M25.57 0.710205C25.57 0.810205 25.48 0.900205 25.38 0.900205" stroke="#010101" stroke-width="0.25" stroke-miterlimit="10"/>
<path d="M0.540029 22.8601C0.540029 22.8601 0.540029 22.8401 0.530029 22.8301" stroke="#010101" stroke-width="0.25" stroke-miterlimit="10"/>
<path d="M0.900049 22.78C0.900049 22.85 0.860049 22.92 0.800049 22.95" stroke="#010101" stroke-width="0.25" stroke-miterlimit="10"/>
<path d="M42.7 52.4902C42.7 52.4902 42.7599 52.4702 42.7799 52.4702" stroke="#010101" stroke-width="0.25" stroke-miterlimit="10"/>
<path d="M0.619995 45.02C0.619995 45.02 0.679995 45 0.709995 45" stroke="#010101" stroke-width="0.25" stroke-miterlimit="10"/>
<path d="M0.54002 15.39C0.54002 15.39 0.52002 15.34 0.52002 15.31C0.52002 15.29 0.52002 15.28 0.52002 15.26" stroke="#010101" stroke-width="0.25" stroke-miterlimit="10"/>
<path d="M32.82 0.710205C32.82 0.780205 32.78 0.850205 32.72 0.880205" stroke="#010101" stroke-width="0.25" stroke-miterlimit="10"/>
<path d="M32.55 0.540029C32.55 0.540029 32.5701 0.540029 32.5801 0.530029" stroke="#010101" stroke-width="0.25" stroke-miterlimit="10"/>
<path d="M42.79 37.53C42.79 37.53 42.87 37.54 42.9 37.56" stroke="#010101" stroke-width="0.25" stroke-miterlimit="10"/>
<path d="M11.06 0.710205C11.06 0.780205 11.02 0.850205 10.96 0.880205" stroke="#010101" stroke-width="0.25" stroke-miterlimit="10"/>
<path d="M42.79 45.38C42.72 45.38 42.65 45.34 42.62 45.28" stroke="#010101" stroke-width="0.25" stroke-miterlimit="10"/>
<path d="M42.7 15.1401C42.7 15.1401 42.7599 15.1201 42.7799 15.1201" stroke="#010101" stroke-width="0.25" stroke-miterlimit="10"/>
<path d="M39.96 59.6101C40.03 59.6401 40.08 59.7101 40.08 59.7901" stroke="#010101" stroke-width="0.25" stroke-miterlimit="10"/>
<path d="M42.96 22.7002C42.96 22.7002 42.96 22.7202 42.97 22.7302" stroke="#010101" stroke-width="0.25" stroke-miterlimit="10"/>
<path d="M0.119995 56.75V3.75" stroke="#010101" stroke-width="0.25" stroke-miterlimit="10"/>
<path d="M42.79 30.0601C42.87 30.0601 42.95 30.1101 42.97 30.1901" stroke="#010101" stroke-width="0.25" stroke-miterlimit="10"/>
<path d="M42.79 52.4702C42.79 52.4702 42.87 52.4802 42.9 52.5002" stroke="#010101" stroke-width="0.25" stroke-miterlimit="10"/>
<path d="M3.45996 0.590088C3.45996 0.590088 3.45996 0.590088 3.45996 0.600088" stroke="#010101" stroke-width="0.25" stroke-miterlimit="10"/>
<path d="M25.1899 59.7801C25.1899 59.7101 25.2299 59.6501 25.2899 59.6201" stroke="#010101" stroke-width="0.25" stroke-miterlimit="10"/>
<path d="M3.80001 0.710088C3.80001 0.710088 3.79001 0.630088 3.76001 0.590088" stroke="#010101" stroke-width="0.25" stroke-miterlimit="10"/>
<path d="M42.91 22.6301C42.91 22.6301 42.93 22.6501 42.94 22.6601C42.94 22.6701 42.96 22.6801 42.96 22.7001" stroke="#010101" stroke-width="0.25" stroke-miterlimit="10"/>
<path d="M0.590039 30.4001C0.590039 30.4001 0.570039 30.3801 0.560039 30.3701C0.560039 30.3601 0.540039 30.3501 0.540039 30.3301" stroke="#010101" stroke-width="0.25" stroke-miterlimit="10"/>
<path d="M32.79 0.600098C32.79 0.600098 32.8 0.620098 32.81 0.630098" stroke="#010101" stroke-width="0.25" stroke-miterlimit="10"/>
<path d="M25.23 59.9101C25.23 59.9101 25.23 59.9101 25.23 59.9001" stroke="#010101" stroke-width="0.25" stroke-miterlimit="10"/>
<path d="M0.799966 52.8301C0.729966 52.8601 0.649966 52.8601 0.589966 52.8101" stroke="#010101" stroke-width="0.25" stroke-miterlimit="10"/>
<path d="M0.529991 22.8401C0.499991 22.7501 0.539991 22.6601 0.629991 22.6201" stroke="#010101" stroke-width="0.25" stroke-miterlimit="10"/>
<path d="M10.8099 0.530131C10.9099 0.500131 11.0199 0.550131 11.0499 0.650131C11.0499 0.670131 11.0499 0.690131 11.0499 0.710131" stroke="#010101" stroke-width="0.25" stroke-miterlimit="10"/>
<path d="M0.540039 7.76019C0.540039 7.76019 0.550039 7.73019 0.560039 7.72019C0.560039 7.72019 0.580039 7.70019 0.590039 7.69019" stroke="#010101" stroke-width="0.25" stroke-miterlimit="10"/>
<path d="M42.9 37.5601C42.99 37.6201 43.01 37.7401 42.95 37.8201C42.95 37.8301 42.93 37.8501 42.92 37.8601" stroke="#010101" stroke-width="0.25" stroke-miterlimit="10"/>
<path d="M39.75 0.840078C39.68 0.770078 39.68 0.660078 39.75 0.580078" stroke="#010101" stroke-width="0.25" stroke-miterlimit="10"/>
<path d="M3.69995 0.880088C3.69995 0.880088 3.73995 0.860088 3.74995 0.840088" stroke="#010101" stroke-width="0.25" stroke-miterlimit="10"/>
<path d="M18.04 59.9601C18.04 59.9601 17.97 59.9101 17.96 59.8801" stroke="#010101" stroke-width="0.25" stroke-miterlimit="10"/>
<path d="M25.53 0.600098C25.53 0.600098 25.54 0.620098 25.55 0.630098" stroke="#010101" stroke-width="0.25" stroke-miterlimit="10"/>
<path d="M25.55 0.620117C25.55 0.620117 25.57 0.680117 25.57 0.710117" stroke="#010101" stroke-width="0.25" stroke-miterlimit="10"/>
<path d="M39.75 59.6601C39.75 59.6601 39.78 59.6301 39.8 59.6201" stroke="#010101" stroke-width="0.25" stroke-miterlimit="10"/>
<path d="M0.530029 15.2602C0.530029 15.2602 0.530029 15.2402 0.540029 15.2302" stroke="#010101" stroke-width="0.25" stroke-miterlimit="10"/>
<path d="M42.62 7.93009C42.62 7.93009 42.6 7.87009 42.6 7.84009" stroke="#010101" stroke-width="0.25" stroke-miterlimit="10"/>
<path d="M42.62 37.8102C42.62 37.8102 42.6 37.7502 42.6 37.7202" stroke="#010101" stroke-width="0.25" stroke-miterlimit="10"/>
<path d="M25.43 59.9702C25.43 59.9702 25.39 59.9702 25.38 59.9702" stroke="#010101" stroke-width="0.25" stroke-miterlimit="10"/>
<path d="M39.76 59.9302C39.76 59.9302 39.78 59.9502 39.79 59.9502" stroke="#010101" stroke-width="0.25" stroke-miterlimit="10"/>
<path d="M0.590039 37.8701C0.590039 37.8701 0.550039 37.8301 0.540039 37.8101" stroke="#010101" stroke-width="0.25" stroke-miterlimit="10"/>
<path d="M40.08 0.710205C40.08 0.780205 40.04 0.850205 39.98 0.880205" stroke="#010101" stroke-width="0.25" stroke-miterlimit="10"/>
<path d="M0.599976 45.03C0.599976 45.03 0.619976 45.03 0.619976 45.02" stroke="#010101" stroke-width="0.25" stroke-miterlimit="10"/>
<path d="M42.62 30.34C42.62 30.34 42.6 30.28 42.6 30.25" stroke="#010101" stroke-width="0.25" stroke-miterlimit="10"/>
<path d="M10.95 59.9602C10.86 60.0102 10.74 59.9702 10.69 59.8802C10.64 59.7902 10.68 59.6702 10.77 59.6202C10.86 59.5702 10.98 59.6102 11.03 59.7002C11.07 59.7702 11.05 59.8502 11 59.9102" stroke="#010101" stroke-width="0.25" stroke-miterlimit="10"/>
<path d="M42.97 22.7202C42.99 22.8002 42.97 22.8802 42.9 22.9302" stroke="#010101" stroke-width="0.25" stroke-miterlimit="10"/>
<path d="M39.75 0.120117H43.37" stroke="#010101" stroke-width="0.25" stroke-miterlimit="10"/>
<path d="M32.48 0.600088C32.48 0.600088 32.48 0.600088 32.48 0.590088" stroke="#010101" stroke-width="0.25" stroke-miterlimit="10"/>
<path d="M39.75 59.9202C39.75 59.9202 39.75 59.9202 39.76 59.9302" stroke="#010101" stroke-width="0.25" stroke-miterlimit="10"/>
<path d="M42.91 52.8101C42.91 52.8101 42.91 52.8101 42.9 52.8101" stroke="#010101" stroke-width="0.25" stroke-miterlimit="10"/>
<path d="M25.3799 59.9802C25.3799 59.9802 25.3399 59.9802 25.3199 59.9802" stroke="#010101" stroke-width="0.25" stroke-miterlimit="10"/>
<path d="M42.98 45.1902C42.98 45.1902 42.98 45.2302 42.98 45.2502" stroke="#010101" stroke-width="0.25" stroke-miterlimit="10"/>
<path d="M17.97 0.600088C17.97 0.600088 17.97 0.600088 17.97 0.590088" stroke="#010101" stroke-width="0.25" stroke-miterlimit="10"/>
<path d="M18.12 0.52002C18.12 0.52002 18.15 0.52002 18.17 0.52002" stroke="#010101" stroke-width="0.25" stroke-miterlimit="10"/>
<path d="M3.54002 0.530029C3.54002 0.530029 3.53002 0.530029 3.52002 0.530029" stroke="#010101" stroke-width="0.25" stroke-miterlimit="10"/>
<path d="M3.75 60.3801H0.119995" stroke="#010101" stroke-width="0.25" stroke-miterlimit="10"/>
<path d="M40.04 0.600088C40.04 0.600088 40.04 0.600088 40.03 0.590088" stroke="#010101" stroke-width="0.25" stroke-miterlimit="10"/>
<path d="M0.589966 7.69019C0.589966 7.69019 0.589966 7.69019 0.599966 7.69019" stroke="#010101" stroke-width="0.25" stroke-miterlimit="10"/>
<path d="M0.599976 7.68017C0.599976 7.68017 0.619976 7.68017 0.619976 7.67017" stroke="#010101" stroke-width="0.25" stroke-miterlimit="10"/>
<path d="M3.8 59.79C3.8 59.79 3.78 59.88 3.75 59.92" stroke="#010101" stroke-width="0.25" stroke-miterlimit="10"/>
<path d="M0.599966 45.3501C0.599966 45.3501 0.599966 45.3501 0.589966 45.3501" stroke="#010101" stroke-width="0.25" stroke-miterlimit="10"/>
<path d="M0.880005 22.6902C0.880005 22.6902 0.900005 22.7502 0.900005 22.7802" stroke="#010101" stroke-width="0.25" stroke-miterlimit="10"/>
<path d="M39.96 59.9702C39.96 59.9702 39.96 59.9702 39.97 59.9702H39.96Z" stroke="#010101" stroke-width="0.25" stroke-miterlimit="10"/>
<path d="M0.540039 45.11C0.540039 45.11 0.550039 45.08 0.560039 45.07C0.560039 45.07 0.580039 45.05 0.590039 45.04" stroke="#010101" stroke-width="0.25" stroke-miterlimit="10"/>
<path d="M0.900049 45.1902C0.900049 45.2602 0.860049 45.3302 0.800049 45.3602" stroke="#010101" stroke-width="0.25" stroke-miterlimit="10"/>
<path d="M0.590039 45.34C0.590039 45.34 0.570039 45.32 0.560039 45.31C0.560039 45.3 0.540039 45.29 0.540039 45.27" stroke="#010101" stroke-width="0.25" stroke-miterlimit="10"/>
<path d="M42.98 30.25C42.98 30.31 42.95 30.37 42.9 30.41" stroke="#010101" stroke-width="0.25" stroke-miterlimit="10"/>
<path d="M0.119995 3.75012V0.120117" stroke="#010101" stroke-width="0.25" stroke-miterlimit="10"/>
<path d="M0.619995 37.55C0.619995 37.55 0.679995 37.53 0.709995 37.53" stroke="#010101" stroke-width="0.25" stroke-miterlimit="10"/>
<path d="M3.74998 59.9202C3.74998 59.9202 3.73998 59.9302 3.72998 59.9402" stroke="#010101" stroke-width="0.25" stroke-miterlimit="10"/>
<path d="M0.119995 0.120117H3.75" stroke="#010101" stroke-width="0.25" stroke-miterlimit="10"/>
<path d="M32.5801 59.9702C32.5801 59.9702 32.56 59.9702 32.55 59.9602" stroke="#010101" stroke-width="0.25" stroke-miterlimit="10"/>
<path d="M18.29 0.620098C18.29 0.620098 18.29 0.610098 18.28 0.600098" stroke="#010101" stroke-width="0.25" stroke-miterlimit="10"/>
<path d="M39.72 0.800049C39.72 0.800049 39.74 0.830049 39.75 0.840049" stroke="#010101" stroke-width="0.25" stroke-miterlimit="10"/>
<path d="M10.72 0.590039C10.72 0.590039 10.74 0.570039 10.75 0.560039C10.76 0.560039 10.77 0.540039 10.79 0.540039" stroke="#010101" stroke-width="0.25" stroke-miterlimit="10"/>
<path d="M42.79 22.97C42.69 22.97 42.6 22.88 42.6 22.78" stroke="#010101" stroke-width="0.25" stroke-miterlimit="10"/>
<path d="M25.46 0.540039C25.46 0.540039 25.49 0.550039 25.5 0.560039C25.5 0.560039 25.52 0.580039 25.53 0.580039C25.53 0.580039 25.53 0.580039 25.54 0.590039" stroke="#010101" stroke-width="0.25" stroke-miterlimit="10"/>
<path d="M42.91 15.1602C42.91 15.1602 42.93 15.1802 42.94 15.1902C42.94 15.2002 42.96 15.2102 42.96 15.2202" stroke="#010101" stroke-width="0.25" stroke-miterlimit="10"/>
<path d="M42.79 15.1201C42.79 15.1201 42.87 15.1301 42.9 15.1501" stroke="#010101" stroke-width="0.25" stroke-miterlimit="10"/>
<path d="M11.01 0.590088C11.01 0.590088 11.01 0.590088 11.02 0.600088" stroke="#010101" stroke-width="0.25" stroke-miterlimit="10"/>
<path d="M32.6299 59.9801C32.7349 59.9801 32.8199 59.895 32.8199 59.7901C32.8199 59.6852 32.7349 59.6001 32.6299 59.6001C32.525 59.6001 32.4399 59.6852 32.4399 59.7901C32.4399 59.895 32.525 59.9801 32.6299 59.9801Z" stroke="#010101" stroke-width="0.25" stroke-miterlimit="10"/>
<path d="M42.7 37.55C42.7 37.55 42.7599 37.53 42.7799 37.53" stroke="#010101" stroke-width="0.25" stroke-miterlimit="10"/>
<path d="M39.8 59.9602C39.8 59.9602 39.8201 59.9602 39.8301 59.9702" stroke="#010101" stroke-width="0.25" stroke-miterlimit="10"/>
<path d="M32.72 0.880107C32.63 0.930107 32.51 0.890107 32.46 0.800107C32.43 0.740107 32.43 0.660107 32.47 0.610107" stroke="#010101" stroke-width="0.25" stroke-miterlimit="10"/>
<path d="M18.21 0.880107C18.12 0.930107 18 0.890107 17.95 0.800107C17.92 0.740107 17.92 0.660107 17.96 0.610107" stroke="#010101" stroke-width="0.25" stroke-miterlimit="10"/>
<path d="M42.96 45.27C42.93 45.34 42.86 45.38 42.79 45.38" stroke="#010101" stroke-width="0.25" stroke-miterlimit="10"/>
<path d="M42.9 22.9402C42.9 22.9402 42.83 22.9702 42.79 22.9702" stroke="#010101" stroke-width="0.25" stroke-miterlimit="10"/>
<path d="M0.529966 7.90009C0.499966 7.80009 0.559966 7.69009 0.659966 7.66009C0.759966 7.63009 0.869966 7.69009 0.899966 7.79009C0.929966 7.89009 0.869966 8.00009 0.769966 8.03009C0.749966 8.03009 0.729966 8.03009 0.709966 8.03009" stroke="#010101" stroke-width="0.25" stroke-miterlimit="10"/>
<path d="M0.899976 37.7202C0.899976 37.8202 0.809976 37.9102 0.709976 37.9102C0.669976 37.9102 0.629976 37.9002 0.599976 37.8802" stroke="#010101" stroke-width="0.25" stroke-miterlimit="10"/>
<path d="M18.2 0.540039C18.2 0.540039 18.25 0.570039 18.27 0.600039" stroke="#010101" stroke-width="0.25" stroke-miterlimit="10"/>
<path d="M39.75 60.3801H3.75" stroke="#010101" stroke-width="0.25" stroke-miterlimit="10"/>
<path d="M42.9 52.5C42.9 52.5 42.9 52.5 42.91 52.5" stroke="#010101" stroke-width="0.25" stroke-miterlimit="10"/>
<path d="M3.45996 59.9001C3.45996 59.9001 3.45996 59.9001 3.45996 59.9101" stroke="#010101" stroke-width="0.25" stroke-miterlimit="10"/>
<path d="M3.60999 59.9802C3.60999 59.9802 3.64999 59.9802 3.66999 59.9802" stroke="#010101" stroke-width="0.25" stroke-miterlimit="10"/>
<path d="M3.69995 59.9602C3.69995 59.9602 3.71995 59.9502 3.72995 59.9402" stroke="#010101" stroke-width="0.25" stroke-miterlimit="10"/>
<path d="M3.53003 59.9602C3.53003 59.9602 3.54003 59.9602 3.55003 59.9602" stroke="#010101" stroke-width="0.25" stroke-miterlimit="10"/>
<path d="M17.9699 59.9C17.9699 59.9 17.9399 59.83 17.9399 59.79" stroke="#010101" stroke-width="0.25" stroke-miterlimit="10"/>
<path d="M25.32 59.9702C25.32 59.9702 25.3 59.9702 25.29 59.9602" stroke="#010101" stroke-width="0.25" stroke-miterlimit="10"/>
<path d="M3.42004 59.79C3.42004 59.79 3.43004 59.87 3.46004 59.9" stroke="#010101" stroke-width="0.25" stroke-miterlimit="10"/>
<path d="M11.0099 59.9102C11.0099 59.9102 10.9899 59.9302 10.9799 59.9302C10.9699 59.9302 10.9599 59.9502 10.9399 59.9502" stroke="#010101" stroke-width="0.25" stroke-miterlimit="10"/>
<path d="M10.95 0.880088C10.86 0.930088 10.74 0.890088 10.69 0.800088C10.66 0.730088 10.66 0.650088 10.71 0.590088" stroke="#010101" stroke-width="0.25" stroke-miterlimit="10"/>
<path d="M0.709966 15.1201C0.809966 15.1201 0.899966 15.2101 0.899966 15.3101C0.899966 15.4101 0.809966 15.5001 0.709966 15.5001C0.669966 15.5001 0.619966 15.4801 0.589966 15.4601" stroke="#010101" stroke-width="0.25" stroke-miterlimit="10"/>
<path d="M3.75 0.580078C3.75 0.580078 3.77 0.610078 3.78 0.620078" stroke="#010101" stroke-width="0.25" stroke-miterlimit="10"/>
<path d="M3.70004 0.880215C3.61004 0.930215 3.49004 0.890215 3.44004 0.800215C3.43004 0.770215 3.42004 0.750215 3.42004 0.720215" stroke="#010101" stroke-width="0.25" stroke-miterlimit="10"/>
<path d="M3.54004 0.530036C3.61004 0.500036 3.70004 0.530036 3.75004 0.580036" stroke="#010101" stroke-width="0.25" stroke-miterlimit="10"/>
<path d="M18.28 0.600098C18.28 0.600098 18.31 0.670098 18.31 0.710098" stroke="#010101" stroke-width="0.25" stroke-miterlimit="10"/>
<path d="M3.54004 59.9702C3.54004 59.9702 3.54004 59.9702 3.55004 59.9702H3.54004Z" stroke="#010101" stroke-width="0.25" stroke-miterlimit="10"/>
<path d="M32.79 0.600098C32.79 0.600098 32.83 0.670098 32.83 0.710098" stroke="#010101" stroke-width="0.25" stroke-miterlimit="10"/>
<path d="M39.75 0.580111C39.82 0.500111 39.94 0.500111 40.02 0.570111C40.02 0.570111 40.02 0.570111 40.03 0.580111" stroke="#010101" stroke-width="0.25" stroke-miterlimit="10"/>
<path d="M3.54004 59.6101C3.47004 59.6401 3.42004 59.7101 3.42004 59.7801" stroke="#010101" stroke-width="0.25" stroke-miterlimit="10"/>
<path d="M42.97 30.1902C42.97 30.1902 42.97 30.2302 42.97 30.2502" stroke="#010101" stroke-width="0.25" stroke-miterlimit="10"/>
<path d="M42.7 45.02C42.7 45.02 42.7599 45 42.7799 45" stroke="#010101" stroke-width="0.25" stroke-miterlimit="10"/>
<path d="M42.88 37.8901C42.79 37.9401 42.67 37.9001 42.62 37.8101" stroke="#010101" stroke-width="0.25" stroke-miterlimit="10"/>
<path d="M42.91 37.8701C42.91 37.8701 42.91 37.8701 42.9 37.8701" stroke="#010101" stroke-width="0.25" stroke-miterlimit="10"/>
<path d="M43.38 3.75V56.75" stroke="#010101" stroke-width="0.25" stroke-miterlimit="10"/>
<path d="M39.72 0.800049C39.72 0.800049 39.74 0.830049 39.75 0.840049" stroke="#010101" stroke-width="0.25" stroke-miterlimit="10"/>
<path d="M42.6 37.7201C42.6 37.6501 42.64 37.58 42.7 37.55" stroke="#010101" stroke-width="0.25" stroke-miterlimit="10"/>
<path d="M3.69994 59.9601C3.60994 60.0101 3.48994 59.9701 3.43994 59.8801" stroke="#010101" stroke-width="0.25" stroke-miterlimit="10"/>
<path d="M42.88 52.8301C42.88 52.8301 42.82 52.8501 42.79 52.8501" stroke="#010101" stroke-width="0.25" stroke-miterlimit="10"/>
<path d="M42.79 52.85C42.72 52.85 42.65 52.81 42.62 52.75" stroke="#010101" stroke-width="0.25" stroke-miterlimit="10"/>
<path d="M42.9 15.1501C42.9 15.1501 42.9 15.1501 42.91 15.1501" stroke="#010101" stroke-width="0.25" stroke-miterlimit="10"/>
<path d="M42.79 45C42.86 45 42.93 45.04 42.96 45.1" stroke="#010101" stroke-width="0.25" stroke-miterlimit="10"/>
<path d="M42.6 30.2501C42.6 30.1801 42.64 30.1101 42.7 30.0801" stroke="#010101" stroke-width="0.25" stroke-miterlimit="10"/>
<path d="M25.29 59.9602C25.29 59.9602 25.26 59.9502 25.25 59.9402C25.25 59.9402 25.23 59.9202 25.22 59.9102" stroke="#010101" stroke-width="0.25" stroke-miterlimit="10"/>
<path d="M42.98 7.84009C42.98 7.94009 42.89 8.03009 42.79 8.03009C42.72 8.03009 42.65 7.99009 42.62 7.93009" stroke="#010101" stroke-width="0.25" stroke-miterlimit="10"/>
<path d="M0.530029 30.2002C0.530029 30.2002 0.530029 30.1802 0.540029 30.1702" stroke="#010101" stroke-width="0.25" stroke-miterlimit="10"/>
<path d="M42.6 15.3101C42.6 15.2401 42.64 15.1701 42.7 15.1401" stroke="#010101" stroke-width="0.25" stroke-miterlimit="10"/>
<path d="M43.38 0.120117V3.74012" stroke="#010101" stroke-width="0.25" stroke-miterlimit="10"/>
<path d="M40.04 0.590088C40.04 0.590088 40.08 0.660088 40.08 0.710088" stroke="#010101" stroke-width="0.25" stroke-miterlimit="10"/>
<path d="M18.17 0.530029C18.17 0.530029 18.19 0.530029 18.2 0.540029" stroke="#010101" stroke-width="0.25" stroke-miterlimit="10"/>
<path d="M18.27 59.9102C18.27 59.9102 18.25 59.9302 18.24 59.9302C18.24 59.9302 18.22 59.9402 18.21 59.9502" stroke="#010101" stroke-width="0.25" stroke-miterlimit="10"/>
<path d="M3.51997 0.540039C3.51997 0.540039 3.49997 0.550039 3.48997 0.560039L3.46997 0.580039" stroke="#010101" stroke-width="0.25" stroke-miterlimit="10"/>
<path d="M32.71 0.540039C32.71 0.540039 32.74 0.550039 32.75 0.560039C32.75 0.560039 32.77 0.580039 32.78 0.580039C32.78 0.580039 32.78 0.580039 32.79 0.590039" stroke="#010101" stroke-width="0.25" stroke-miterlimit="10"/>
<path d="M32.6899 0.530029C32.6899 0.530029 32.7099 0.530029 32.7199 0.540029" stroke="#010101" stroke-width="0.25" stroke-miterlimit="10"/>
<path d="M42.9 52.8201C42.9 52.8201 42.88 52.8201 42.88 52.8301" stroke="#010101" stroke-width="0.25" stroke-miterlimit="10"/>
<path d="M39.76 0.840088C39.81 0.890088 39.89 0.910088 39.96 0.880088" stroke="#010101" stroke-width="0.25" stroke-miterlimit="10"/>
<path d="M39.96 59.6102C39.91 59.5902 39.85 59.5902 39.8 59.6102" stroke="#010101" stroke-width="0.25" stroke-miterlimit="10"/>
<path d="M0.52002 7.84004C0.52002 7.84004 0.52002 7.80004 0.52002 7.79004" stroke="#010101" stroke-width="0.25" stroke-miterlimit="10"/>
<path d="M40.04 59.9C40.04 59.9 40.08 59.82 40.08 59.79" stroke="#010101" stroke-width="0.25" stroke-miterlimit="10"/>
<path d="M0.709961 22.5901C0.779961 22.5901 0.849961 22.6301 0.879961 22.6901" stroke="#010101" stroke-width="0.25" stroke-miterlimit="10"/>
<path d="M32.69 59.9702C32.69 59.9702 32.65 59.9702 32.64 59.9702" stroke="#010101" stroke-width="0.25" stroke-miterlimit="10"/>
<path d="M0.619995 52.4902C0.619995 52.4902 0.679995 52.4702 0.709995 52.4702" stroke="#010101" stroke-width="0.25" stroke-miterlimit="10"/>
<path d="M0.709961 45C0.809961 45 0.899961 45.09 0.899961 45.19" stroke="#010101" stroke-width="0.25" stroke-miterlimit="10"/>
<path d="M25.4601 59.9602C25.4601 59.9602 25.4401 59.9602 25.4301 59.9702" stroke="#010101" stroke-width="0.25" stroke-miterlimit="10"/>
<path d="M3.54004 59.6101C3.61004 59.5801 3.70004 59.6101 3.75004 59.6601" stroke="#010101" stroke-width="0.25" stroke-miterlimit="10"/>
<path d="M0.540029 7.92014C0.540029 7.92014 0.540029 7.90014 0.530029 7.89014" stroke="#010101" stroke-width="0.25" stroke-miterlimit="10"/>
<path d="M43.38 56.75V60.38" stroke="#010101" stroke-width="0.25" stroke-miterlimit="10"/>
<path d="M32.6299 59.9802C32.6299 59.9802 32.5899 59.9802 32.5699 59.9802" stroke="#010101" stroke-width="0.25" stroke-miterlimit="10"/>
<path d="M0.540029 37.8C0.540029 37.8 0.540029 37.78 0.530029 37.77" stroke="#010101" stroke-width="0.25" stroke-miterlimit="10"/>
<path d="M0.589966 45.04C0.589966 45.04 0.589966 45.04 0.599966 45.04" stroke="#010101" stroke-width="0.25" stroke-miterlimit="10"/>
<path d="M39.9399 59.9702C39.9399 59.9702 39.9399 59.9702 39.9499 59.9702" stroke="#010101" stroke-width="0.25" stroke-miterlimit="10"/>
<path d="M42.6 22.7801C42.6 22.6801 42.68 22.5901 42.79 22.5901" stroke="#010101" stroke-width="0.25" stroke-miterlimit="10"/>
<path d="M0.709961 52.4702C0.809961 52.4702 0.899961 52.5602 0.899961 52.6602" stroke="#010101" stroke-width="0.25" stroke-miterlimit="10"/>
<path d="M0.589966 30.1001C0.589966 30.1001 0.589966 30.1001 0.599966 30.1001" stroke="#010101" stroke-width="0.25" stroke-miterlimit="10"/>
<path d="M0.900049 52.6602C0.900049 52.7302 0.860049 52.8002 0.800049 52.8302" stroke="#010101" stroke-width="0.25" stroke-miterlimit="10"/>
<path d="M42.96 52.5701C43 52.6501 42.98 52.7401 42.91 52.8001" stroke="#010101" stroke-width="0.25" stroke-miterlimit="10"/>
<path d="M42.62 52.7502C42.57 52.6602 42.61 52.5402 42.7 52.4902" stroke="#010101" stroke-width="0.25" stroke-miterlimit="10"/>
<path d="M10.78 0.540029C10.78 0.540029 10.8 0.540029 10.81 0.530029" stroke="#010101" stroke-width="0.25" stroke-miterlimit="10"/>
<path d="M42.79 22.5901C42.79 22.5901 42.87 22.6001 42.9 22.6201" stroke="#010101" stroke-width="0.25" stroke-miterlimit="10"/>
<path d="M42.9 22.6201C42.9 22.6201 42.9 22.6201 42.91 22.6201" stroke="#010101" stroke-width="0.25" stroke-miterlimit="10"/>
<path d="M25.38 0.900049C25.31 0.900049 25.24 0.860049 25.21 0.800049" stroke="#010101" stroke-width="0.25" stroke-miterlimit="10"/>
<path d="M18.31 0.710205C18.31 0.780205 18.27 0.850205 18.21 0.880205" stroke="#010101" stroke-width="0.25" stroke-miterlimit="10"/>
<path d="M42.9 37.8801C42.9 37.8801 42.88 37.8801 42.88 37.8901" stroke="#010101" stroke-width="0.25" stroke-miterlimit="10"/>
<path d="M0.599966 37.8801C0.599966 37.8801 0.599966 37.8801 0.589966 37.8801" stroke="#010101" stroke-width="0.25" stroke-miterlimit="10"/>
<path d="M32.7101 59.9602C32.7101 59.9602 32.6901 59.9602 32.6801 59.9702" stroke="#010101" stroke-width="0.25" stroke-miterlimit="10"/>
<path d="M32.55 59.9602C32.55 59.9602 32.52 59.9502 32.51 59.9402C32.51 59.9402 32.49 59.9202 32.48 59.9102" stroke="#010101" stroke-width="0.25" stroke-miterlimit="10"/>
<path d="M0.529991 37.7801C0.499991 37.6901 0.539991 37.6001 0.629991 37.5601" stroke="#010101" stroke-width="0.25" stroke-miterlimit="10"/>
<path d="M25.29 0.540029C25.29 0.540029 25.31 0.540029 25.32 0.530029" stroke="#010101" stroke-width="0.25" stroke-miterlimit="10"/>
<path d="M39.96 0.890137C39.96 0.890137 39.96 0.890137 39.97 0.890137" stroke="#010101" stroke-width="0.25" stroke-miterlimit="10"/>
<path d="M3.8 0.710205C3.8 0.710205 3.78 0.800205 3.75 0.840205" stroke="#010101" stroke-width="0.25" stroke-miterlimit="10"/>
<path d="M0.530029 7.79001C0.530029 7.79001 0.530029 7.77001 0.540029 7.76001" stroke="#010101" stroke-width="0.25" stroke-miterlimit="10"/>
<path d="M0.709976 8.03C0.709976 8.03 0.629976 8.02 0.599976 8" stroke="#010101" stroke-width="0.25" stroke-miterlimit="10"/>
<path d="M32.48 59.9001C32.48 59.9001 32.48 59.8901 32.47 59.8801" stroke="#010101" stroke-width="0.25" stroke-miterlimit="10"/>
<path d="M39.75 59.6602C39.75 59.6602 39.7 59.7402 39.7 59.7802" stroke="#010101" stroke-width="0.25" stroke-miterlimit="10"/>
<path d="M0.599976 7.68017C0.599976 7.68017 0.619976 7.68017 0.619976 7.67017" stroke="#010101" stroke-width="0.25" stroke-miterlimit="10"/>
<path d="M42.88 30.4201C42.79 30.4701 42.67 30.4301 42.62 30.3401" stroke="#010101" stroke-width="0.25" stroke-miterlimit="10"/>
<path d="M0.589966 7.69019C0.589966 7.69019 0.589966 7.69019 0.599966 7.69019" stroke="#010101" stroke-width="0.25" stroke-miterlimit="10"/>
<path d="M42.62 52.7502C42.57 52.6602 42.61 52.5402 42.7 52.4902" stroke="#010101" stroke-width="0.25" stroke-miterlimit="10"/>
<path d="M39.96 0.890137C39.96 0.890137 39.96 0.890137 39.97 0.890137" stroke="#010101" stroke-width="0.25" stroke-miterlimit="10"/>
<path d="M3.8 59.79C3.8 59.79 3.78 59.88 3.75 59.92" stroke="#010101" stroke-width="0.25" stroke-miterlimit="10"/>
<path d="M3.54004 59.6101C3.61004 59.5801 3.70004 59.6101 3.75004 59.6601" stroke="#010101" stroke-width="0.25" stroke-miterlimit="10"/>
<path d="M25.29 59.6201C25.29 59.6201 25.35 59.6001 25.38 59.6001" stroke="#010101" stroke-width="0.25" stroke-miterlimit="10"/>
<path d="M32.8 0.620098C32.8 0.620098 32.8 0.610098 32.79 0.600098" stroke="#010101" stroke-width="0.25" stroke-miterlimit="10"/>
<path d="M32.6899 0.530029C32.6899 0.530029 32.7099 0.530029 32.7199 0.540029" stroke="#010101" stroke-width="0.25" stroke-miterlimit="10"/>
<path d="M32.55 0.540029C32.55 0.540029 32.5701 0.540029 32.5801 0.530029" stroke="#010101" stroke-width="0.25" stroke-miterlimit="10"/>
<path d="M25.1899 59.7801C25.1899 59.7101 25.2299 59.6501 25.2899 59.6201" stroke="#010101" stroke-width="0.25" stroke-miterlimit="10"/>
<path d="M32.5801 59.9702C32.5801 59.9702 32.56 59.9702 32.55 59.9602" stroke="#010101" stroke-width="0.25" stroke-miterlimit="10"/>
<path d="M43.38 56.75V60.38" stroke="#010101" stroke-width="0.25" stroke-miterlimit="10"/>
<path d="M32.69 59.9702C32.69 59.9702 32.65 59.9702 32.64 59.9702" stroke="#010101" stroke-width="0.25" stroke-miterlimit="10"/>
<path d="M11.0099 59.9102C11.0099 59.9102 10.9899 59.9302 10.9799 59.9302C10.9699 59.9302 10.9599 59.9502 10.9399 59.9502" stroke="#010101" stroke-width="0.25" stroke-miterlimit="10"/>
<path d="M32.7101 59.9602C32.7101 59.9602 32.6901 59.9602 32.6801 59.9702" stroke="#010101" stroke-width="0.25" stroke-miterlimit="10"/>
<path d="M25.43 59.9702C25.43 59.9702 25.39 59.9702 25.38 59.9702" stroke="#010101" stroke-width="0.25" stroke-miterlimit="10"/>
<path d="M0.119995 56.75V3.75" stroke="#010101" stroke-width="0.25" stroke-miterlimit="10"/>
<path d="M25.29 59.9602C25.29 59.9602 25.26 59.9502 25.25 59.9402C25.25 59.9402 25.23 59.9202 25.22 59.9102" stroke="#010101" stroke-width="0.25" stroke-miterlimit="10"/>
<path d="M42.9 37.8801C42.9 37.8801 42.88 37.8801 42.88 37.8901" stroke="#010101" stroke-width="0.25" stroke-miterlimit="10"/>
<path d="M42.91 37.8701C42.91 37.8701 42.91 37.8701 42.9 37.8701" stroke="#010101" stroke-width="0.25" stroke-miterlimit="10"/>
<path d="M3.69995 59.9602C3.69995 59.9602 3.71995 59.9502 3.72995 59.9402" stroke="#010101" stroke-width="0.25" stroke-miterlimit="10"/>
<path d="M3.46997 59.9102C3.46997 59.9102 3.48997 59.9302 3.49997 59.9302C3.50997 59.9302 3.51997 59.9502 3.53997 59.9502" stroke="#010101" stroke-width="0.25" stroke-miterlimit="10"/>
<path d="M18.29 0.620098C18.29 0.620098 18.29 0.610098 18.28 0.600098" stroke="#010101" stroke-width="0.25" stroke-miterlimit="10"/>
<path d="M3.55005 59.9702C3.55005 59.9702 3.59005 59.9702 3.61005 59.9702" stroke="#010101" stroke-width="0.25" stroke-miterlimit="10"/>
<path d="M18.17 0.530029C18.17 0.530029 18.19 0.530029 18.2 0.540029" stroke="#010101" stroke-width="0.25" stroke-miterlimit="10"/>
<path d="M3.54004 59.6101C3.47004 59.6401 3.42004 59.7101 3.42004 59.7801" stroke="#010101" stroke-width="0.25" stroke-miterlimit="10"/>
<path d="M0.590039 30.4001C0.590039 30.4001 0.570039 30.3801 0.560039 30.3701C0.560039 30.3601 0.540039 30.3501 0.540039 30.3301" stroke="#010101" stroke-width="0.25" stroke-miterlimit="10"/>
<path d="M11.06 0.710205C11.06 0.780205 11.02 0.850205 10.96 0.880205" stroke="#010101" stroke-width="0.25" stroke-miterlimit="10"/>
<path d="M0.589966 30.1001C0.589966 30.1001 0.589966 30.1001 0.599966 30.1001" stroke="#010101" stroke-width="0.25" stroke-miterlimit="10"/>
<path d="M0.530029 30.2002C0.530029 30.2002 0.530029 30.1802 0.540029 30.1702" stroke="#010101" stroke-width="0.25" stroke-miterlimit="10"/>
<path d="M10.78 0.540029C10.78 0.540029 10.8 0.540029 10.81 0.530029" stroke="#010101" stroke-width="0.25" stroke-miterlimit="10"/>
<path d="M25.46 0.540039C25.46 0.540039 25.49 0.550039 25.5 0.560039C25.5 0.560039 25.52 0.580039 25.53 0.580039C25.53 0.580039 25.53 0.580039 25.54 0.590039" stroke="#010101" stroke-width="0.25" stroke-miterlimit="10"/>
<path d="M42.97 45.2402C42.97 45.2402 42.97 45.2602 42.96 45.2702" stroke="#010101" stroke-width="0.25" stroke-miterlimit="10"/>
<path d="M42.91 52.51C42.91 52.51 42.93 52.53 42.94 52.54C42.94 52.55 42.96 52.56 42.96 52.58" stroke="#010101" stroke-width="0.25" stroke-miterlimit="10"/>
<path d="M42.97 45.1301C42.97 45.1301 42.97 45.1701 42.97 45.1901" stroke="#010101" stroke-width="0.25" stroke-miterlimit="10"/>
<path d="M0.119995 3.75012V0.120117" stroke="#010101" stroke-width="0.25" stroke-miterlimit="10"/>
<path d="M42.79 52.85C42.72 52.85 42.65 52.81 42.62 52.75" stroke="#010101" stroke-width="0.25" stroke-miterlimit="10"/>
<path d="M42.91 15.1602C42.91 15.1602 42.93 15.1802 42.94 15.1902C42.94 15.2002 42.96 15.2102 42.96 15.2202" stroke="#010101" stroke-width="0.25" stroke-miterlimit="10"/>
<path d="M42.9 22.9402C42.9 22.9402 42.83 22.9702 42.79 22.9702" stroke="#010101" stroke-width="0.25" stroke-miterlimit="10"/>
<path d="M3.51997 0.540039C3.51997 0.540039 3.49997 0.550039 3.48997 0.560039L3.46997 0.580039" stroke="#010101" stroke-width="0.25" stroke-miterlimit="10"/>
<path d="M3.54002 0.530029C3.54002 0.530029 3.53002 0.530029 3.52002 0.530029" stroke="#010101" stroke-width="0.25" stroke-miterlimit="10"/>
<path d="M42.6 22.7801C42.6 22.6801 42.68 22.5901 42.79 22.5901" stroke="#010101" stroke-width="0.25" stroke-miterlimit="10"/>
<path d="M3.45996 0.590088C3.45996 0.590088 3.45996 0.590088 3.45996 0.600088" stroke="#010101" stroke-width="0.25" stroke-miterlimit="10"/>
<path d="M42.9 30.0901C42.9 30.0901 42.9 30.0901 42.91 30.0901" stroke="#010101" stroke-width="0.25" stroke-miterlimit="10"/>
<path d="M42.9 30.4102C42.9 30.4102 42.88 30.4102 42.88 30.4202" stroke="#010101" stroke-width="0.25" stroke-miterlimit="10"/>
<path d="M39.96 59.6101C40.03 59.6401 40.08 59.7101 40.08 59.7901" stroke="#010101" stroke-width="0.25" stroke-miterlimit="10"/>
<path d="M42.97 30.1902C42.97 30.1902 42.97 30.2302 42.97 30.2502" stroke="#010101" stroke-width="0.25" stroke-miterlimit="10"/>
<path d="M3.75 0.120117H39.75" stroke="#010101" stroke-width="0.25" stroke-miterlimit="10"/>
<path d="M43.38 3.75V56.75" stroke="#010101" stroke-width="0.25" stroke-miterlimit="10"/>
<path d="M42.6 7.84017C42.6 7.77017 42.64 7.70017 42.7 7.67017" stroke="#010101" stroke-width="0.25" stroke-miterlimit="10"/>
<path d="M39.72 0.800049C39.72 0.800049 39.74 0.830049 39.75 0.840049" stroke="#010101" stroke-width="0.25" stroke-miterlimit="10"/>
<path d="M39.75 2.86011H3.75" stroke="#010101" stroke-width="0.25" stroke-miterlimit="10"/>
<path d="M40.64 2.86011H39.75" stroke="#010101" stroke-width="0.25" stroke-miterlimit="10"/>
<path d="M39.75 57.6401H3.75" stroke="#010101" stroke-width="0.25" stroke-miterlimit="10"/>
<path d="M40.64 57.6401H39.75" stroke="#010101" stroke-width="0.25" stroke-miterlimit="10"/>
<path d="M43.38 0.120117V3.74012" stroke="#010101" stroke-width="0.25" stroke-miterlimit="10"/>
<path d="M39.72 0.800049C39.72 0.800049 39.74 0.830049 39.75 0.840049" stroke="#010101" stroke-width="0.25" stroke-miterlimit="10"/>
<path d="M2.85999 56.75V3.75" stroke="#010101" stroke-width="0.25" stroke-miterlimit="10"/>
<path d="M39.75 60.3801H3.75" stroke="#010101" stroke-width="0.25" stroke-miterlimit="10"/>
<path d="M42.62 37.8102C42.62 37.8102 42.6 37.7502 42.6 37.7202" stroke="#010101" stroke-width="0.25" stroke-miterlimit="10"/>
<path d="M40.64 3.75011V2.86011" stroke="#010101" stroke-width="0.25" stroke-miterlimit="10"/>
<path d="M25.55 0.620117C25.55 0.620117 25.57 0.680117 25.57 0.710117" stroke="#010101" stroke-width="0.25" stroke-miterlimit="10"/>
<path d="M2.85999 3.75011V2.86011" stroke="#010101" stroke-width="0.25" stroke-miterlimit="10"/>
<path d="M3.69995 0.880088C3.69995 0.880088 3.73995 0.860088 3.74995 0.840088" stroke="#010101" stroke-width="0.25" stroke-miterlimit="10"/>
<path d="M3.74998 59.9202C3.74998 59.9202 3.73998 59.9302 3.72998 59.9402" stroke="#010101" stroke-width="0.25" stroke-miterlimit="10"/>
<path d="M17.9301 59.7901C17.9301 59.6901 18.0201 59.6001 18.1201 59.6001C18.2201 59.6001 18.3101 59.6901 18.3101 59.7901C18.3101 59.8401 18.2901 59.8801 18.2601 59.9101" stroke="#010101" stroke-width="0.25" stroke-miterlimit="10"/>
<path d="M39.75 56.7502V31.4602" stroke="#010101" stroke-width="0.25" stroke-miterlimit="10"/>
<path d="M18.04 59.9601C18.04 59.9601 17.97 59.9101 17.96 59.8801" stroke="#010101" stroke-width="0.25" stroke-miterlimit="10"/>
<path d="M40.04 59.9001C39.98 59.9801 39.86 60.0001 39.77 59.9401C39.77 59.9401 39.77 59.9401 39.76 59.9401" stroke="#010101" stroke-width="0.25" stroke-miterlimit="10"/>
<path d="M42.62 45.28C42.57 45.19 42.61 45.07 42.7 45.02" stroke="#010101" stroke-width="0.25" stroke-miterlimit="10"/>
<path d="M42.9 37.5601C42.99 37.6201 43.01 37.7401 42.95 37.8201C42.95 37.8301 42.93 37.8501 42.92 37.8601" stroke="#010101" stroke-width="0.25" stroke-miterlimit="10"/>
<path d="M3.75 31.4602V56.7502" stroke="#010101" stroke-width="0.25" stroke-miterlimit="10"/>
<path d="M42.98 7.84009C42.98 7.94009 42.89 8.03009 42.79 8.03009C42.72 8.03009 42.65 7.99009 42.62 7.93009" stroke="#010101" stroke-width="0.25" stroke-miterlimit="10"/>
<path d="M39.75 0.580111C39.82 0.500111 39.94 0.500111 40.02 0.570111C40.02 0.570111 40.02 0.570111 40.03 0.580111" stroke="#010101" stroke-width="0.25" stroke-miterlimit="10"/>
<path d="M0.540039 30.1701C0.540039 30.1701 0.550039 30.1401 0.560039 30.1301C0.560039 30.1301 0.580039 30.1101 0.590039 30.1001" stroke="#010101" stroke-width="0.25" stroke-miterlimit="10"/>
<path d="M25.23 59.9101C25.23 59.9101 25.23 59.9101 25.23 59.9001" stroke="#010101" stroke-width="0.25" stroke-miterlimit="10"/>
<path d="M25.4601 59.9602C25.4601 59.9602 25.4401 59.9602 25.4301 59.9702" stroke="#010101" stroke-width="0.25" stroke-miterlimit="10"/>
<path d="M42.91 22.6301C42.91 22.6301 42.93 22.6501 42.94 22.6601C42.94 22.6701 42.96 22.6801 42.96 22.7001" stroke="#010101" stroke-width="0.25" stroke-miterlimit="10"/>
<path d="M39.8 56.8L39.9001 56.9001L39.9501 56.9501L40 57L40.05 57.05C40.05 57.05 40.08 57.08 40.1 57.1L40.1501 57.1501C40.1501 57.1501 40.1801 57.1801 40.2001 57.2001L40.25 57.25L40.3 57.3L40.4001 57.4001" stroke="#010101" stroke-width="0.25" stroke-miterlimit="10"/>
<path d="M3.69995 56.8H3.74995" stroke="#010101" stroke-width="0.25" stroke-miterlimit="10"/>
<path d="M3.13 3.75V56.75" stroke="#010101" stroke-width="0.25" stroke-miterlimit="10"/>
<path d="M3.75 56.8H39.75" stroke="#010101" stroke-width="0.25" stroke-miterlimit="10"/>
<path d="M3.67004 59.9702C3.67004 59.9702 3.69004 59.9702 3.70004 59.9602" stroke="#010101" stroke-width="0.25" stroke-miterlimit="10"/>
<path d="M39.75 59.9201C39.75 59.9201 39.75 59.9101 39.74 59.9001" stroke="#010101" stroke-width="0.25" stroke-miterlimit="10"/>
<path d="M3.54004 59.9702C3.54004 59.9702 3.54004 59.9702 3.55004 59.9702H3.54004Z" stroke="#010101" stroke-width="0.25" stroke-miterlimit="10"/>
<path d="M40.37 3.12012H39.75" stroke="#010101" stroke-width="0.25" stroke-miterlimit="10"/>
<path d="M3.80001 0.710088C3.80001 0.710088 3.79001 0.630088 3.76001 0.590088" stroke="#010101" stroke-width="0.25" stroke-miterlimit="10"/>
<path d="M18.28 0.600098C18.28 0.600098 18.29 0.620098 18.3 0.630098" stroke="#010101" stroke-width="0.25" stroke-miterlimit="10"/>
<path d="M3.53003 59.9602C3.53003 59.9602 3.54003 59.9602 3.55003 59.9602" stroke="#010101" stroke-width="0.25" stroke-miterlimit="10"/>
<path d="M17.9699 59.9C17.9699 59.9 17.9399 59.83 17.9399 59.79" stroke="#010101" stroke-width="0.25" stroke-miterlimit="10"/>
<path d="M32.79 0.600098C32.79 0.600098 32.8 0.620098 32.81 0.630098" stroke="#010101" stroke-width="0.25" stroke-miterlimit="10"/>
<path d="M0.119995 60.38V56.75" stroke="#010101" stroke-width="0.25" stroke-miterlimit="10"/>
<path d="M39.8 59.9602C39.8 59.9602 39.8201 59.9602 39.8301 59.9702" stroke="#010101" stroke-width="0.25" stroke-miterlimit="10"/>
<path d="M40.37 56.75V3.75" stroke="#010101" stroke-width="0.25" stroke-miterlimit="10"/>
<path d="M3.13 57.37C3.13 57.37 3.19 57.31 3.23 57.27C3.25 57.25 3.26 57.24 3.28 57.22C3.3 57.2 3.31 57.19 3.33 57.17C3.35 57.15 3.36 57.14 3.38 57.12C3.4 57.1 3.41 57.09 3.43 57.07C3.45 57.05 3.46 57.04 3.48 57.02C3.5 57 3.51 56.99 3.53 56.97C3.55 56.95 3.56 56.94 3.58 56.92C3.6 56.9 3.61 56.89 3.63 56.87C3.66 56.84 3.69 56.81 3.73 56.77" stroke="#010101" stroke-width="0.25" stroke-miterlimit="10"/>
<path d="M3.42004 59.79C3.42004 59.79 3.43004 59.87 3.46004 59.9" stroke="#010101" stroke-width="0.25" stroke-miterlimit="10"/>
<path d="M2.85999 57.64V56.75" stroke="#010101" stroke-width="0.25" stroke-miterlimit="10"/>
<path d="M0.600039 8.00018C0.600039 8.00018 0.550039 7.96018 0.540039 7.93018" stroke="#010101" stroke-width="0.25" stroke-miterlimit="10"/>
<path d="M0.799966 52.8301C0.729966 52.8601 0.649966 52.8601 0.589966 52.8101" stroke="#010101" stroke-width="0.25" stroke-miterlimit="10"/>
<path d="M0.899976 37.7202C0.899976 37.8202 0.809976 37.9102 0.709976 37.9102C0.669976 37.9102 0.629976 37.9002 0.599976 37.8802" stroke="#010101" stroke-width="0.25" stroke-miterlimit="10"/>
<path d="M0.529991 22.8401C0.499991 22.7501 0.539991 22.6601 0.629991 22.6201" stroke="#010101" stroke-width="0.25" stroke-miterlimit="10"/>
<path d="M0.709966 15.1201C0.809966 15.1201 0.899966 15.2101 0.899966 15.3101C0.899966 15.4101 0.809966 15.5001 0.709966 15.5001C0.669966 15.5001 0.619966 15.4801 0.589966 15.4601" stroke="#010101" stroke-width="0.25" stroke-miterlimit="10"/>
<path d="M0.529966 7.90009C0.499966 7.80009 0.559966 7.69009 0.659966 7.66009C0.759966 7.63009 0.869966 7.69009 0.899966 7.79009C0.929966 7.89009 0.869966 8.00009 0.769966 8.03009C0.749966 8.03009 0.729966 8.03009 0.709966 8.03009" stroke="#010101" stroke-width="0.25" stroke-miterlimit="10"/>
<path d="M3.75 0.580078C3.75 0.580078 3.77 0.610078 3.78 0.620078" stroke="#010101" stroke-width="0.25" stroke-miterlimit="10"/>
<path d="M3.54004 0.530036C3.61004 0.500036 3.70004 0.530036 3.75004 0.580036" stroke="#010101" stroke-width="0.25" stroke-miterlimit="10"/>
<path d="M18.2 0.540039C18.2 0.540039 18.25 0.570039 18.27 0.600039" stroke="#010101" stroke-width="0.25" stroke-miterlimit="10"/>
<path d="M3.70004 0.880215C3.61004 0.930215 3.49004 0.890215 3.44004 0.800215C3.43004 0.770215 3.42004 0.750215 3.42004 0.720215" stroke="#010101" stroke-width="0.25" stroke-miterlimit="10"/>
<path d="M10.8099 0.530131C10.9099 0.500131 11.0199 0.550131 11.0499 0.650131C11.0499 0.670131 11.0499 0.690131 11.0499 0.710131" stroke="#010101" stroke-width="0.25" stroke-miterlimit="10"/>
<path d="M10.95 0.880088C10.86 0.930088 10.74 0.890088 10.69 0.800088C10.66 0.730088 10.66 0.650088 10.71 0.590088" stroke="#010101" stroke-width="0.25" stroke-miterlimit="10"/>
<path d="M18.28 0.600098C18.28 0.600098 18.31 0.670098 18.31 0.710098" stroke="#010101" stroke-width="0.25" stroke-miterlimit="10"/>
<path d="M17.97 0.59002C17.97 0.59002 18.06 0.52002 18.12 0.52002" stroke="#010101" stroke-width="0.25" stroke-miterlimit="10"/>
<path d="M18.21 0.880107C18.12 0.930107 18 0.890107 17.95 0.800107C17.92 0.740107 17.92 0.660107 17.96 0.610107" stroke="#010101" stroke-width="0.25" stroke-miterlimit="10"/>
<path d="M25.3199 0.530029C25.3199 0.530029 25.3599 0.530029 25.3799 0.530029C25.4099 0.530029 25.4299 0.530029 25.4599 0.550029" stroke="#010101" stroke-width="0.25" stroke-miterlimit="10"/>
<path d="M25.21 0.800039C25.16 0.710039 25.2 0.590039 25.29 0.540039" stroke="#010101" stroke-width="0.25" stroke-miterlimit="10"/>
<path d="M32.79 0.600098C32.79 0.600098 32.83 0.670098 32.83 0.710098" stroke="#010101" stroke-width="0.25" stroke-miterlimit="10"/>
<path d="M32.58 0.530029C32.58 0.530029 32.62 0.530029 32.64 0.530029C32.66 0.530029 32.67 0.530029 32.69 0.530029" stroke="#010101" stroke-width="0.25" stroke-miterlimit="10"/>
<path d="M32.72 0.880107C32.63 0.930107 32.51 0.890107 32.46 0.800107C32.43 0.740107 32.43 0.660107 32.47 0.610107" stroke="#010101" stroke-width="0.25" stroke-miterlimit="10"/>
<path d="M39.75 0.840078C39.68 0.770078 39.68 0.660078 39.75 0.580078" stroke="#010101" stroke-width="0.25" stroke-miterlimit="10"/>
<path d="M42.9 7.68018C42.9 7.68018 42.96 7.74018 42.97 7.78018" stroke="#010101" stroke-width="0.25" stroke-miterlimit="10"/>
<path d="M25.3799 59.9802C25.3799 59.9802 25.3399 59.9802 25.3199 59.9802" stroke="#010101" stroke-width="0.25" stroke-miterlimit="10"/>
<path d="M42.9 22.6201C42.9 22.6201 42.9 22.6201 42.91 22.6201" stroke="#010101" stroke-width="0.25" stroke-miterlimit="10"/>
<path d="M3.75 56.75H39.75" stroke="#010101" stroke-width="0.25" stroke-miterlimit="10"/>
<path d="M42.91 15.1602C42.99 15.2302 43 15.3502 42.93 15.4302C42.86 15.5102 42.74 15.5202 42.66 15.4502C42.64 15.4302 42.62 15.4102 42.61 15.3902" stroke="#010101" stroke-width="0.25" stroke-miterlimit="10"/>
<path d="M42.79 30.0601C42.87 30.0601 42.95 30.1101 42.97 30.1901" stroke="#010101" stroke-width="0.25" stroke-miterlimit="10"/>
<path d="M42.88 37.8901C42.79 37.9401 42.67 37.9001 42.62 37.8101" stroke="#010101" stroke-width="0.25" stroke-miterlimit="10"/>
<path d="M42.79 45C42.86 45 42.93 45.04 42.96 45.1" stroke="#010101" stroke-width="0.25" stroke-miterlimit="10"/>
<path d="M42.96 45.27C42.93 45.34 42.86 45.38 42.79 45.38" stroke="#010101" stroke-width="0.25" stroke-miterlimit="10"/>
<path d="M39.75 59.6601C39.75 59.6601 39.78 59.6301 39.8 59.6201" stroke="#010101" stroke-width="0.25" stroke-miterlimit="10"/>
<path d="M40.08 0.710205C40.08 0.780205 40.04 0.850205 39.98 0.880205" stroke="#010101" stroke-width="0.25" stroke-miterlimit="10"/>
<path d="M32.6299 59.9801C32.7349 59.9801 32.8199 59.895 32.8199 59.7901C32.8199 59.6852 32.7349 59.6001 32.6299 59.6001C32.525 59.6001 32.4399 59.6852 32.4399 59.7901C32.4399 59.895 32.525 59.9801 32.6299 59.9801Z" stroke="#010101" stroke-width="0.25" stroke-miterlimit="10"/>
<path d="M25.38 59.6001C25.48 59.6001 25.57 59.6901 25.57 59.7901C25.57 59.8901 25.48 59.9801 25.38 59.9801C25.32 59.9801 25.26 59.9501 25.22 59.9001" stroke="#010101" stroke-width="0.25" stroke-miterlimit="10"/>
<path d="M18.2099 59.9602C18.2099 59.9602 18.1499 59.9802 18.1199 59.9802C18.0999 59.9802 18.0799 59.9802 18.0599 59.9802" stroke="#010101" stroke-width="0.25" stroke-miterlimit="10"/>
<path d="M3.69994 59.9601C3.60994 60.0101 3.48994 59.9701 3.43994 59.8801" stroke="#010101" stroke-width="0.25" stroke-miterlimit="10"/>
<path d="M40.64 56.75V3.75" stroke="#010101" stroke-width="0.25" stroke-miterlimit="10"/>
<path d="M42.7 15.1401C42.7 15.1401 42.7599 15.1201 42.7799 15.1201" stroke="#010101" stroke-width="0.25" stroke-miterlimit="10"/>
<path d="M42.62 15.4001C42.62 15.4001 42.6 15.3401 42.6 15.3101" stroke="#010101" stroke-width="0.25" stroke-miterlimit="10"/>
<path d="M42.62 7.93009C42.62 7.93009 42.6 7.87009 42.6 7.84009" stroke="#010101" stroke-width="0.25" stroke-miterlimit="10"/>
<path d="M42.7 45.02C42.7 45.02 42.7599 45 42.7799 45" stroke="#010101" stroke-width="0.25" stroke-miterlimit="10"/>
<path d="M42.7 37.55C42.7 37.55 42.7599 37.53 42.7799 37.53" stroke="#010101" stroke-width="0.25" stroke-miterlimit="10"/>
<path d="M0.599976 30.0901C0.599976 30.0901 0.619976 30.0901 0.619976 30.0801" stroke="#010101" stroke-width="0.25" stroke-miterlimit="10"/>
<path d="M42.7 7.67015C42.7 7.67015 42.7599 7.65015 42.7799 7.65015" stroke="#010101" stroke-width="0.25" stroke-miterlimit="10"/>
<path d="M25.53 0.600098C25.53 0.600098 25.54 0.620098 25.55 0.630098" stroke="#010101" stroke-width="0.25" stroke-miterlimit="10"/>
<path d="M0.619995 22.6101C0.619995 22.6101 0.679995 22.5901 0.709995 22.5901" stroke="#010101" stroke-width="0.25" stroke-miterlimit="10"/>
<path d="M3.69995 31.4602V56.7502" stroke="#010101" stroke-width="0.25" stroke-miterlimit="10"/>
<path d="M40.04 0.590088C40.04 0.590088 40.08 0.660088 40.08 0.710088" stroke="#010101" stroke-width="0.25" stroke-miterlimit="10"/>
<path d="M42.88 52.8301C42.88 52.8301 42.82 52.8501 42.79 52.8501" stroke="#010101" stroke-width="0.25" stroke-miterlimit="10"/>
<path d="M42.9 52.8201C42.9 52.8201 42.88 52.8201 42.88 52.8301" stroke="#010101" stroke-width="0.25" stroke-miterlimit="10"/>
<path d="M42.6 15.3101C42.6 15.2401 42.64 15.1701 42.7 15.1401" stroke="#010101" stroke-width="0.25" stroke-miterlimit="10"/>
<path d="M42.79 22.97C42.69 22.97 42.6 22.88 42.6 22.78" stroke="#010101" stroke-width="0.25" stroke-miterlimit="10"/>
<path d="M42.79 15.1201C42.79 15.1201 42.87 15.1301 42.9 15.1501" stroke="#010101" stroke-width="0.25" stroke-miterlimit="10"/>
<path d="M42.6 37.7201C42.6 37.6501 42.64 37.58 42.7 37.55" stroke="#010101" stroke-width="0.25" stroke-miterlimit="10"/>
<path d="M4.5 56C4.5 56 4.53 55.97 4.55 55.95C4.57 55.93 4.58 55.92 4.6 55.9C4.62 55.88 4.63 55.87 4.65 55.85C4.67 55.83 4.68 55.82 4.7 55.8C4.72 55.78 4.73 55.77 4.75 55.75C4.77 55.73 4.78 55.72 4.8 55.7L4.85 55.65C4.85 55.65 4.88 55.62 4.9 55.6C4.93 55.57 4.96 55.54 4.99 55.51" stroke="#010101" stroke-width="0.25" stroke-miterlimit="10"/>
<path d="M3.45004 0.600098C3.45004 0.600098 3.42004 0.670098 3.42004 0.710098" stroke="#010101" stroke-width="0.25" stroke-miterlimit="10"/>
<path d="M38.51 31.4902V54.5202" stroke="#010101" stroke-width="0.25" stroke-miterlimit="10"/>
<path d="M42.96 22.7002C42.96 22.7002 42.96 22.7202 42.97 22.7302" stroke="#010101" stroke-width="0.25" stroke-miterlimit="10"/>
<path d="M4.98999 55.5102V31.4902" stroke="#010101" stroke-width="0.25" stroke-miterlimit="10"/>
<path d="M38.51 54.52V55.51" stroke="#010101" stroke-width="0.25" stroke-miterlimit="10"/>
<path d="M2.85999 2.86011H3.74999" stroke="#010101" stroke-width="0.25" stroke-miterlimit="10"/>
<path d="M3.76001 0.600098C3.76001 0.600098 3.77001 0.620098 3.78001 0.630098" stroke="#010101" stroke-width="0.25" stroke-miterlimit="10"/>
<path d="M42.9 52.5C42.9 52.5 42.9 52.5 42.91 52.5" stroke="#010101" stroke-width="0.25" stroke-miterlimit="10"/>
<path d="M38.54 31.4602L38.51 31.4902" stroke="#010101" stroke-width="0.25" stroke-miterlimit="10"/>
<path d="M42.9 15.1501C42.9 15.1501 42.9 15.1501 42.91 15.1501" stroke="#010101" stroke-width="0.25" stroke-miterlimit="10"/>
<path d="M42.96 45.1101C42.96 45.1101 42.96 45.1301 42.97 45.1401" stroke="#010101" stroke-width="0.25" stroke-miterlimit="10"/>
<path d="M39.12 56.7502V31.4602" stroke="#010101" stroke-width="0.25" stroke-miterlimit="10"/>
<path d="M42.79 52.4702C42.79 52.4702 42.87 52.4802 42.9 52.5002" stroke="#010101" stroke-width="0.25" stroke-miterlimit="10"/>
<path d="M3.75 60.3801H0.119995" stroke="#010101" stroke-width="0.25" stroke-miterlimit="10"/>
<path d="M4.37 31.4602V56.7502" stroke="#010101" stroke-width="0.25" stroke-miterlimit="10"/>
<path d="M38.51 55.51H4.98999" stroke="#010101" stroke-width="0.25" stroke-miterlimit="10"/>
<path d="M42.79 45.38C42.72 45.38 42.65 45.34 42.62 45.28" stroke="#010101" stroke-width="0.25" stroke-miterlimit="10"/>
<path d="M4.95996 31.4602L4.97996 31.4802" stroke="#010101" stroke-width="0.25" stroke-miterlimit="10"/>
<path d="M3.60999 59.9802C3.60999 59.9802 3.64999 59.9802 3.66999 59.9802" stroke="#010101" stroke-width="0.25" stroke-miterlimit="10"/>
<path d="M39.75 3.74023H3.75" stroke="#010101" stroke-width="0.25" stroke-miterlimit="10"/>
<path d="M42.98 45.1902C42.98 45.1902 42.98 45.2302 42.98 45.2502" stroke="#010101" stroke-width="0.25" stroke-miterlimit="10"/>
<path d="M11.01 0.590088C11.01 0.590088 11.01 0.590088 11.02 0.600088" stroke="#010101" stroke-width="0.25" stroke-miterlimit="10"/>
<path d="M3.45996 59.9001C3.45996 59.9001 3.45996 59.9001 3.45996 59.9101" stroke="#010101" stroke-width="0.25" stroke-miterlimit="10"/>
<path d="M3.12 30.4302H40.37" stroke="#010101" stroke-width="0.25" stroke-miterlimit="10"/>
<path d="M10.72 0.590039C10.72 0.590039 10.74 0.570039 10.75 0.560039C10.76 0.560039 10.77 0.540039 10.79 0.540039" stroke="#010101" stroke-width="0.25" stroke-miterlimit="10"/>
<path d="M25.32 59.9702C25.32 59.9702 25.3 59.9702 25.29 59.9602" stroke="#010101" stroke-width="0.25" stroke-miterlimit="10"/>
<path d="M3.73999 3.75V30.25" stroke="#010101" stroke-width="0.25" stroke-miterlimit="10"/>
<path d="M39.76 30.25V3.75" stroke="#010101" stroke-width="0.25" stroke-miterlimit="10"/>
<path d="M3.74999 57.6401H2.85999" stroke="#010101" stroke-width="0.25" stroke-miterlimit="10"/>
<path d="M42.62 30.34C42.62 30.34 42.6 30.28 42.6 30.25" stroke="#010101" stroke-width="0.25" stroke-miterlimit="10"/>
<path d="M25.29 0.540029C25.29 0.540029 25.31 0.540029 25.32 0.530029" stroke="#010101" stroke-width="0.25" stroke-miterlimit="10"/>
<path d="M0.530029 7.79001C0.530029 7.79001 0.530029 7.77001 0.540029 7.76001" stroke="#010101" stroke-width="0.25" stroke-miterlimit="10"/>
<path d="M3.8 59.7902C3.8 59.7902 3.78 59.7002 3.75 59.6602" stroke="#010101" stroke-width="0.25" stroke-miterlimit="10"/>
<path d="M0.52002 7.84004C0.52002 7.84004 0.52002 7.80004 0.52002 7.79004" stroke="#010101" stroke-width="0.25" stroke-miterlimit="10"/>
<path d="M0.709976 8.03C0.709976 8.03 0.629976 8.02 0.599976 8" stroke="#010101" stroke-width="0.25" stroke-miterlimit="10"/>
<path d="M25.38 0.900049C25.31 0.900049 25.24 0.860049 25.21 0.800049" stroke="#010101" stroke-width="0.25" stroke-miterlimit="10"/>
<path d="M42.97 7.78003C42.97 7.78003 42.97 7.82003 42.97 7.84003" stroke="#010101" stroke-width="0.25" stroke-miterlimit="10"/>
<path d="M42.6 30.2501C42.6 30.1801 42.64 30.1101 42.7 30.0801" stroke="#010101" stroke-width="0.25" stroke-miterlimit="10"/>
<path d="M17.97 0.600088C17.97 0.600088 17.97 0.600088 17.97 0.590088" stroke="#010101" stroke-width="0.25" stroke-miterlimit="10"/>
<path d="M42.98 30.25C42.98 30.31 42.95 30.37 42.9 30.41" stroke="#010101" stroke-width="0.25" stroke-miterlimit="10"/>
<path d="M42.7 30.0801C42.7 30.0801 42.7599 30.0601 42.7799 30.0601" stroke="#010101" stroke-width="0.25" stroke-miterlimit="10"/>
<path d="M18.12 0.52002C18.12 0.52002 18.15 0.52002 18.17 0.52002" stroke="#010101" stroke-width="0.25" stroke-miterlimit="10"/>
<path d="M0.54002 30.3402C0.54002 30.3402 0.52002 30.2802 0.52002 30.2502C0.52002 30.2302 0.52002 30.2102 0.52002 30.2002" stroke="#010101" stroke-width="0.25" stroke-miterlimit="10"/>
<path d="M18.31 0.710205C18.31 0.780205 18.27 0.850205 18.21 0.880205" stroke="#010101" stroke-width="0.25" stroke-miterlimit="10"/>
<path d="M40.37 57.37V56.75" stroke="#010101" stroke-width="0.25" stroke-miterlimit="10"/>
<path d="M40.37 3.75012V3.12012" stroke="#010101" stroke-width="0.25" stroke-miterlimit="10"/>
<path d="M39.8 56.7502V31.4602" stroke="#010101" stroke-width="0.25" stroke-miterlimit="10"/>
<path d="M42.9 37.5601C42.9 37.5601 42.9 37.5601 42.91 37.5601" stroke="#010101" stroke-width="0.25" stroke-miterlimit="10"/>
<path d="M3.69995 56.75V56.8" stroke="#010101" stroke-width="0.25" stroke-miterlimit="10"/>
<path d="M42.79 37.53C42.79 37.53 42.87 37.54 42.9 37.56" stroke="#010101" stroke-width="0.25" stroke-miterlimit="10"/>
<path d="M39.9399 59.9702C39.9399 59.9702 39.9399 59.9702 39.9499 59.9702" stroke="#010101" stroke-width="0.25" stroke-miterlimit="10"/>
<path d="M39.76 59.9302C39.76 59.9302 39.78 59.9502 39.79 59.9502" stroke="#010101" stroke-width="0.25" stroke-miterlimit="10"/>
<path d="M18.27 59.9102C18.27 59.9102 18.25 59.9302 18.24 59.9302C18.24 59.9302 18.22 59.9402 18.21 59.9502" stroke="#010101" stroke-width="0.25" stroke-miterlimit="10"/>
<path d="M0.599966 37.8801C0.599966 37.8801 0.599966 37.8801 0.589966 37.8801" stroke="#010101" stroke-width="0.25" stroke-miterlimit="10"/>
<path d="M18.06 59.9702C18.06 59.9702 18.04 59.9702 18.03 59.9602" stroke="#010101" stroke-width="0.25" stroke-miterlimit="10"/>
<path d="M32.49 59.9101C32.49 59.9101 32.49 59.9101 32.49 59.9001" stroke="#010101" stroke-width="0.25" stroke-miterlimit="10"/>
<path d="M39.89 59.9802C39.89 59.9802 39.93 59.9802 39.95 59.9802" stroke="#010101" stroke-width="0.25" stroke-miterlimit="10"/>
<path d="M32.48 59.9001C32.48 59.9001 32.48 59.8901 32.47 59.8801" stroke="#010101" stroke-width="0.25" stroke-miterlimit="10"/>
<path d="M39.74 59.9001C39.74 59.9001 39.74 59.9001 39.74 59.9101" stroke="#010101" stroke-width="0.25" stroke-miterlimit="10"/>
<path d="M32.55 59.9602C32.55 59.9602 32.52 59.9502 32.51 59.9402C32.51 59.9402 32.49 59.9202 32.48 59.9102" stroke="#010101" stroke-width="0.25" stroke-miterlimit="10"/>
<path d="M0.709961 52.4702C0.809961 52.4702 0.899961 52.5602 0.899961 52.6602" stroke="#010101" stroke-width="0.25" stroke-miterlimit="10"/>
<path d="M0.539956 45.2801C0.509956 45.2301 0.509956 45.1601 0.539956 45.1101" stroke="#010101" stroke-width="0.25" stroke-miterlimit="10"/>
<path d="M32.6299 59.9802C32.6299 59.9802 32.5899 59.9802 32.5699 59.9802" stroke="#010101" stroke-width="0.25" stroke-miterlimit="10"/>
<path d="M0.799976 45.3601C0.739976 45.3901 0.659976 45.3901 0.599976 45.3401" stroke="#010101" stroke-width="0.25" stroke-miterlimit="10"/>
<path d="M0.529991 37.7801C0.499991 37.6901 0.539991 37.6001 0.629991 37.5601" stroke="#010101" stroke-width="0.25" stroke-miterlimit="10"/>
<path d="M32.71 0.540039C32.71 0.540039 32.74 0.550039 32.75 0.560039C32.75 0.560039 32.77 0.580039 32.78 0.580039C32.78 0.580039 32.78 0.580039 32.79 0.590039" stroke="#010101" stroke-width="0.25" stroke-miterlimit="10"/>
<path d="M40.04 0.600088C40.04 0.600088 40.04 0.600088 40.03 0.590088" stroke="#010101" stroke-width="0.25" stroke-miterlimit="10"/>
<path d="M0.590039 15.4601C0.590039 15.4601 0.570039 15.4401 0.560039 15.4301C0.560039 15.4201 0.540039 15.4101 0.540039 15.3901" stroke="#010101" stroke-width="0.25" stroke-miterlimit="10"/>
<path d="M32.49 0.590039C32.49 0.590039 32.51 0.570039 32.52 0.560039C32.53 0.560039 32.54 0.540039 32.56 0.540039" stroke="#010101" stroke-width="0.25" stroke-miterlimit="10"/>
<path d="M0.800039 22.9501C0.710039 23.0001 0.590039 22.9601 0.540039 22.8701" stroke="#010101" stroke-width="0.25" stroke-miterlimit="10"/>
<path d="M32.48 0.600088C32.48 0.600088 32.48 0.600088 32.48 0.590088" stroke="#010101" stroke-width="0.25" stroke-miterlimit="10"/>
<path d="M0.54002 15.39C0.54002 15.39 0.52002 15.34 0.52002 15.31C0.52002 15.29 0.52002 15.28 0.52002 15.26" stroke="#010101" stroke-width="0.25" stroke-miterlimit="10"/>
<path d="M0.880005 37.6301C0.880005 37.6301 0.900005 37.6901 0.900005 37.7201" stroke="#010101" stroke-width="0.25" stroke-miterlimit="10"/>
<path d="M0.619995 15.1401C0.619995 15.1401 0.679995 15.1201 0.709995 15.1201" stroke="#010101" stroke-width="0.25" stroke-miterlimit="10"/>
<path d="M32.82 0.710205C32.82 0.780205 32.78 0.850205 32.72 0.880205" stroke="#010101" stroke-width="0.25" stroke-miterlimit="10"/>
<path d="M0.619995 45.02C0.619995 45.02 0.679995 45 0.709995 45" stroke="#010101" stroke-width="0.25" stroke-miterlimit="10"/>
<path d="M42.96 52.5701C43 52.6501 42.98 52.7401 42.91 52.8001" stroke="#010101" stroke-width="0.25" stroke-miterlimit="10"/>
<path d="M0.619995 52.4902C0.619995 52.4902 0.679995 52.4702 0.709995 52.4702" stroke="#010101" stroke-width="0.25" stroke-miterlimit="10"/>
<path d="M0.880005 22.6902C0.880005 22.6902 0.900005 22.7502 0.900005 22.7802" stroke="#010101" stroke-width="0.25" stroke-miterlimit="10"/>
<path d="M39.76 0.840088C39.81 0.890088 39.89 0.910088 39.96 0.880088" stroke="#010101" stroke-width="0.25" stroke-miterlimit="10"/>
<path d="M0.619995 37.55C0.619995 37.55 0.679995 37.53 0.709995 37.53" stroke="#010101" stroke-width="0.25" stroke-miterlimit="10"/>
<path d="M0.599976 45.03C0.599976 45.03 0.619976 45.03 0.619976 45.02" stroke="#010101" stroke-width="0.25" stroke-miterlimit="10"/>
<path d="M42.91 52.8101C42.91 52.8101 42.91 52.8101 42.9 52.8101" stroke="#010101" stroke-width="0.25" stroke-miterlimit="10"/>
<path d="M0.709961 45C0.809961 45 0.899961 45.09 0.899961 45.19" stroke="#010101" stroke-width="0.25" stroke-miterlimit="10"/>
<path d="M0.540039 15.2301C0.540039 15.2301 0.590039 15.1601 0.620039 15.1401" stroke="#010101" stroke-width="0.25" stroke-miterlimit="10"/>
<path d="M39.8 56.8V56.75" stroke="#010101" stroke-width="0.25" stroke-miterlimit="10"/>
<path d="M0.709961 22.5901C0.779961 22.5901 0.849961 22.6301 0.879961 22.6901" stroke="#010101" stroke-width="0.25" stroke-miterlimit="10"/>
<path d="M0.590039 37.8701C0.590039 37.8701 0.550039 37.8301 0.540039 37.8101" stroke="#010101" stroke-width="0.25" stroke-miterlimit="10"/>
<path d="M0.619966 30.0801C0.709966 30.0301 0.829966 30.0701 0.879966 30.1601C0.929966 30.2501 0.889966 30.3701 0.799966 30.4201C0.729966 30.4501 0.649966 30.4501 0.589966 30.4001" stroke="#010101" stroke-width="0.25" stroke-miterlimit="10"/>
<path d="M0.530029 15.2602C0.530029 15.2602 0.530029 15.2402 0.540029 15.2302" stroke="#010101" stroke-width="0.25" stroke-miterlimit="10"/>
<path d="M0.709961 37.53C0.779961 37.53 0.849961 37.57 0.879961 37.63" stroke="#010101" stroke-width="0.25" stroke-miterlimit="10"/>
<path d="M0.540029 7.92014C0.540029 7.92014 0.540029 7.90014 0.530029 7.89014" stroke="#010101" stroke-width="0.25" stroke-miterlimit="10"/>
<path d="M43.38 60.3801H39.76" stroke="#010101" stroke-width="0.25" stroke-miterlimit="10"/>
<path d="M0.590039 52.81C0.590039 52.81 0.570039 52.79 0.560039 52.78C0.560039 52.77 0.540039 52.76 0.540039 52.75" stroke="#010101" stroke-width="0.25" stroke-miterlimit="10"/>
<path d="M0.53997 52.7502C0.48997 52.6602 0.52997 52.5402 0.61997 52.4902" stroke="#010101" stroke-width="0.25" stroke-miterlimit="10"/>
<path d="M0.900049 52.6602C0.900049 52.7302 0.860049 52.8002 0.800049 52.8302" stroke="#010101" stroke-width="0.25" stroke-miterlimit="10"/>
<path d="M0.590039 45.34C0.590039 45.34 0.570039 45.32 0.560039 45.31C0.560039 45.3 0.540039 45.29 0.540039 45.27" stroke="#010101" stroke-width="0.25" stroke-miterlimit="10"/>
<path d="M39.75 59.9202C39.75 59.9202 39.75 59.9202 39.76 59.9302" stroke="#010101" stroke-width="0.25" stroke-miterlimit="10"/>
<path d="M3.8 0.710205C3.8 0.710205 3.78 0.800205 3.75 0.840205" stroke="#010101" stroke-width="0.25" stroke-miterlimit="10"/>
<path d="M39.83 59.9702C39.83 59.9702 39.87 59.9802 39.89 59.9802" stroke="#010101" stroke-width="0.25" stroke-miterlimit="10"/>
<path d="M0.900049 45.1902C0.900049 45.2602 0.860049 45.3302 0.800049 45.3602" stroke="#010101" stroke-width="0.25" stroke-miterlimit="10"/>
<path d="M39.96 59.9702C39.96 59.9702 39.96 59.9702 39.97 59.9702H39.96Z" stroke="#010101" stroke-width="0.25" stroke-miterlimit="10"/>
<path d="M40.04 59.9C40.04 59.9 40.08 59.82 40.08 59.79" stroke="#010101" stroke-width="0.25" stroke-miterlimit="10"/>
<path d="M39.75 59.6602C39.75 59.6602 39.7 59.7402 39.7 59.7802" stroke="#010101" stroke-width="0.25" stroke-miterlimit="10"/>
<path d="M25.57 0.710205C25.57 0.810205 25.48 0.900205 25.38 0.900205" stroke="#010101" stroke-width="0.25" stroke-miterlimit="10"/>
<path d="M3.13 56.75V57.37" stroke="#010101" stroke-width="0.25" stroke-miterlimit="10"/>
<path d="M3.75 3.12012H3.12" stroke="#010101" stroke-width="0.25" stroke-miterlimit="10"/>
<path d="M0.599966 52.8201C0.599966 52.8201 0.599966 52.8201 0.589966 52.8201" stroke="#010101" stroke-width="0.25" stroke-miterlimit="10"/>
<path d="M3.13 57.3701H3.76" stroke="#010101" stroke-width="0.25" stroke-miterlimit="10"/>
<path d="M0.119995 0.120117H3.75" stroke="#010101" stroke-width="0.25" stroke-miterlimit="10"/>
<path d="M39.96 59.6102C39.91 59.5902 39.85 59.5902 39.8 59.6102" stroke="#010101" stroke-width="0.25" stroke-miterlimit="10"/>
<path d="M0.540039 45.11C0.540039 45.11 0.550039 45.08 0.560039 45.07C0.560039 45.07 0.580039 45.05 0.590039 45.04" stroke="#010101" stroke-width="0.25" stroke-miterlimit="10"/>
<path d="M39.7 59.78C39.7 59.78 39.71 59.87 39.74 59.9" stroke="#010101" stroke-width="0.25" stroke-miterlimit="10"/>
<path d="M42.97 22.7202C42.99 22.8002 42.97 22.8802 42.9 22.9302" stroke="#010101" stroke-width="0.25" stroke-miterlimit="10"/>
<path d="M0.589966 45.04C0.589966 45.04 0.589966 45.04 0.599966 45.04" stroke="#010101" stroke-width="0.25" stroke-miterlimit="10"/>
<path d="M42.79 7.65015C42.79 7.65015 42.87 7.66015 42.9 7.68015" stroke="#010101" stroke-width="0.25" stroke-miterlimit="10"/>
<path d="M0.599966 45.3501C0.599966 45.3501 0.599966 45.3501 0.589966 45.3501" stroke="#010101" stroke-width="0.25" stroke-miterlimit="10"/>
<path d="M10.95 59.9602C10.86 60.0102 10.74 59.9702 10.69 59.8802C10.64 59.7902 10.68 59.6702 10.77 59.6202C10.86 59.5702 10.98 59.6102 11.03 59.7002C11.07 59.7702 11.05 59.8502 11 59.9102" stroke="#010101" stroke-width="0.25" stroke-miterlimit="10"/>
<path d="M42.7 52.4902C42.7 52.4902 42.7599 52.4702 42.7799 52.4702" stroke="#010101" stroke-width="0.25" stroke-miterlimit="10"/>
<path d="M0.540039 7.76019C0.540039 7.76019 0.550039 7.73019 0.560039 7.72019C0.560039 7.72019 0.580039 7.70019 0.590039 7.69019" stroke="#010101" stroke-width="0.25" stroke-miterlimit="10"/>
<path d="M0.540029 37.8C0.540029 37.8 0.540029 37.78 0.530029 37.77" stroke="#010101" stroke-width="0.25" stroke-miterlimit="10"/>
<path d="M25.2199 59.9C25.2199 59.9 25.1899 59.83 25.1899 59.79" stroke="#010101" stroke-width="0.25" stroke-miterlimit="10"/>
<path d="M3.57996 30.42C3.57996 30.42 3.58996 30.41 3.59996 30.4C3.61996 30.38 3.62996 30.37 3.64996 30.35C3.67996 30.32 3.70996 30.29 3.73996 30.26" stroke="#010101" stroke-width="0.25" stroke-miterlimit="10"/>
<path d="M40.35 3.15015C40.35 3.15015 40.28 3.22015 40.25 3.25015C40.23 3.27015 40.22 3.28015 40.2 3.30015C40.18 3.32015 40.17 3.33015 40.15 3.35015C40.13 3.37015 40.12 3.38015 40.1 3.40015C40.08 3.42015 40.07 3.43015 40.05 3.45015C40.03 3.47015 40.02 3.48015 40 3.50015C39.98 3.52015 39.97 3.53015 39.95 3.55015C39.93 3.57015 39.92 3.58015 39.9 3.60015C39.88 3.62015 39.87 3.63015 39.85 3.65015C39.82 3.68015 39.79 3.71015 39.76 3.74015" stroke="#010101" stroke-width="0.25" stroke-miterlimit="10"/>
<path d="M3.15002 3.15015C3.15002 3.15015 3.22002 3.22015 3.25002 3.25015C3.27002 3.27015 3.28002 3.28015 3.30002 3.30015C3.32002 3.32015 3.33002 3.33015 3.35002 3.35015C3.37002 3.37015 3.38002 3.38015 3.40002 3.40015C3.42002 3.42015 3.43002 3.43015 3.45002 3.45015C3.47002 3.47015 3.48002 3.48015 3.50002 3.50015C3.52002 3.52015 3.53002 3.53015 3.55002 3.55015C3.57002 3.57015 3.58002 3.58015 3.60002 3.60015C3.62002 3.62015 3.63002 3.63015 3.65002 3.65015C3.68002 3.68015 3.71002 3.71015 3.74002 3.74015" stroke="#010101" stroke-width="0.25" stroke-miterlimit="10"/>
<path d="M0.540029 22.8601C0.540029 22.8601 0.540029 22.8401 0.530029 22.8301" stroke="#010101" stroke-width="0.25" stroke-miterlimit="10"/>
<path d="M3.75 30.26H39.75" stroke="#010101" stroke-width="0.25" stroke-miterlimit="10"/>
<path d="M40.38 31.4602H3.12" stroke="#010101" stroke-width="0.25" stroke-miterlimit="10"/>
<path d="M0.900049 22.78C0.900049 22.85 0.860049 22.92 0.800049 22.95" stroke="#010101" stroke-width="0.25" stroke-miterlimit="10"/>
<path d="M39.76 30.26C39.76 30.26 39.82 30.32 39.85 30.35C39.87 30.37 39.88 30.38 39.9 30.4L39.92 30.42" stroke="#010101" stroke-width="0.25" stroke-miterlimit="10"/>
<path d="M39.75 56.8H39.8" stroke="#010101" stroke-width="0.25" stroke-miterlimit="10"/>
<path d="M39.75 57.3701H40.37" stroke="#010101" stroke-width="0.25" stroke-miterlimit="10"/>
<path d="M3.75 57.3701H39.75" stroke="#010101" stroke-width="0.25" stroke-miterlimit="10"/>
<path d="M4.91003 56.12V56.02V56" stroke="#010101" stroke-width="0.25" stroke-miterlimit="10"/>
<path d="M38.59 56C38.59 56 38.59 56 38.59 56.02V56.75" stroke="#010101" stroke-width="0.25" stroke-miterlimit="10"/>
<path d="M38.59 56H4.91003" stroke="#010101" stroke-width="0.25" stroke-miterlimit="10"/>
<path d="M39.75 3.12012H3.75" stroke="#010101" stroke-width="0.25" stroke-miterlimit="10"/>
<path d="M3.13 3.12012V3.75012" stroke="#010101" stroke-width="0.25" stroke-miterlimit="10"/>
<path d="M4.91 56H4.37" stroke="#010101" stroke-width="0.25" stroke-miterlimit="10"/>
<path d="M40.64 56.75V57.64" stroke="#010101" stroke-width="0.25" stroke-miterlimit="10"/>
<path d="M38.59 56H39.13" stroke="#010101" stroke-width="0.25" stroke-miterlimit="10"/>
<path d="M39.75 0.120117H43.37" stroke="#010101" stroke-width="0.25" stroke-miterlimit="10"/>
<path d="M39 56L38.95 55.95L38.9 55.9L38.85 55.85L38.8 55.8L38.75 55.75L38.7 55.7L38.65 55.65L38.6 55.6L38.51 55.51" stroke="#010101" stroke-width="0.25" stroke-miterlimit="10"/>
<path d="M42.79 22.5901C42.79 22.5901 42.87 22.6001 42.9 22.6201" stroke="#010101" stroke-width="0.25" stroke-miterlimit="10"/>
<path d="M4.91003 56.1201V56.7501" stroke="#010101" stroke-width="0.25" stroke-miterlimit="10"/>
</g>
<defs>
<clipPath id="clip0_1347_6288">
<rect width="43.5" height="60.5" fill="white"/>
</clipPath>
</defs>
</svg>
