<svg width="54" height="35" viewBox="0 0 54 35" fill="none" xmlns="http://www.w3.org/2000/svg">
<g clip-path="url(#clip0_1347_7572)">
<path d="M53.37 0.120117H0.119995V34.3701H53.37V0.120117Z" fill="white"/>
<path d="M49.75 2.86011H50.64" stroke="#010101" stroke-width="0.25" stroke-miterlimit="10"/>
<path d="M3.75 34.3801H0.119995" stroke="#010101" stroke-width="0.25" stroke-miterlimit="10"/>
<path d="M49.75 30.7502V18.4602" stroke="#010101" stroke-width="0.25" stroke-miterlimit="10"/>
<path d="M48.53 30H4.96997" stroke="#010101" stroke-width="0.25" stroke-miterlimit="10"/>
<path d="M3.52002 33.6202C3.60002 33.5802 3.69002 33.6002 3.75002 33.6602" stroke="#010101" stroke-width="0.25" stroke-miterlimit="10"/>
<path d="M3.73999 3.74023H3.74999" stroke="#010101" stroke-width="0.25" stroke-miterlimit="10"/>
<path d="M49.75 30.8H49.8" stroke="#010101" stroke-width="0.25" stroke-miterlimit="10"/>
<path d="M3.75 3.74023H49.75" stroke="#010101" stroke-width="0.25" stroke-miterlimit="10"/>
<path d="M3.54004 33.97C3.47004 33.94 3.42004 33.87 3.42004 33.79" stroke="#010101" stroke-width="0.25" stroke-miterlimit="10"/>
<path d="M0.599966 20.54C0.599966 20.54 0.599966 20.54 0.589966 20.54" stroke="#010101" stroke-width="0.25" stroke-miterlimit="10"/>
<path d="M23.39 33.9702C23.39 33.9702 23.37 33.9702 23.36 33.9602" stroke="#010101" stroke-width="0.25" stroke-miterlimit="10"/>
<path d="M3.43994 33.8801C3.43994 33.8801 3.43994 33.9001 3.44994 33.9001" stroke="#010101" stroke-width="0.25" stroke-miterlimit="10"/>
<path d="M3.8 0.710205C3.8 0.710205 3.78 0.800205 3.75 0.840205" stroke="#010101" stroke-width="0.25" stroke-miterlimit="10"/>
<path d="M49.89 0.52002C49.89 0.52002 49.85 0.52002 49.83 0.53002" stroke="#010101" stroke-width="0.25" stroke-miterlimit="10"/>
<path d="M53.38 3.75V30.75" stroke="#010101" stroke-width="0.25" stroke-miterlimit="10"/>
<path d="M52.96 7.76001C52.96 7.76001 52.96 7.78001 52.97 7.79001" stroke="#010101" stroke-width="0.25" stroke-miterlimit="10"/>
<path d="M30.23 0.620098C30.23 0.620098 30.23 0.610098 30.22 0.600098" stroke="#010101" stroke-width="0.25" stroke-miterlimit="10"/>
<path d="M52.79 20.2002C52.79 20.2002 52.87 20.2102 52.9 20.2302" stroke="#010101" stroke-width="0.25" stroke-miterlimit="10"/>
<path d="M4.38 18.4602V30.0202" stroke="#010101" stroke-width="0.25" stroke-miterlimit="10"/>
<path d="M17.02 0.71002C17.02 0.81002 16.93 0.90002 16.83 0.90002C16.73 0.90002 16.64 0.81002 16.64 0.71002C16.64 0.61002 16.73 0.52002 16.83 0.52002C16.9 0.52002 16.97 0.56002 17 0.62002" stroke="#010101" stroke-width="0.25" stroke-miterlimit="10"/>
<path d="M49.75 34.3801H3.75" stroke="#010101" stroke-width="0.25" stroke-miterlimit="10"/>
<path d="M50.37 31.3702V30.7402" stroke="#010101" stroke-width="0.25" stroke-miterlimit="10"/>
<path d="M3.74999 2.86011H2.85999" stroke="#010101" stroke-width="0.25" stroke-miterlimit="10"/>
<path d="M50.08 0.710098C50.08 0.710098 50.07 0.630098 50.04 0.600098" stroke="#010101" stroke-width="0.25" stroke-miterlimit="10"/>
<path d="M3.75 30.75H49.75" stroke="#010101" stroke-width="0.25" stroke-miterlimit="10"/>
<path d="M23.52 33.9602C23.52 33.9602 23.5 33.9602 23.49 33.9702" stroke="#010101" stroke-width="0.25" stroke-miterlimit="10"/>
<path d="M23.36 33.9602C23.36 33.9602 23.33 33.9502 23.32 33.9402C23.32 33.9402 23.3 33.9202 23.29 33.9102" stroke="#010101" stroke-width="0.25" stroke-miterlimit="10"/>
<path d="M29.87 33.7901C29.87 33.7201 29.91 33.6601 29.97 33.6301" stroke="#010101" stroke-width="0.25" stroke-miterlimit="10"/>
<path d="M52.91 14.26C52.91 14.26 52.91 14.26 52.9 14.26" stroke="#010101" stroke-width="0.25" stroke-miterlimit="10"/>
<path d="M0.709976 8.03C0.709976 8.03 0.629976 8.02 0.599976 8" stroke="#010101" stroke-width="0.25" stroke-miterlimit="10"/>
<path d="M0.599966 8C0.599966 8 0.599966 8 0.589966 8" stroke="#010101" stroke-width="0.25" stroke-miterlimit="10"/>
<path d="M27.3199 17.4302H50.3699" stroke="#010101" stroke-width="0.25" stroke-miterlimit="10"/>
<path d="M36.52 33.9101C36.52 33.9101 36.52 33.9101 36.52 33.9001" stroke="#010101" stroke-width="0.25" stroke-miterlimit="10"/>
<path d="M52.96 26.7402C52.96 26.7402 52.95 26.7702 52.94 26.7802C52.94 26.7802 52.92 26.8002 52.91 26.8102" stroke="#010101" stroke-width="0.25" stroke-miterlimit="10"/>
<path d="M52.91 26.8101C52.91 26.8101 52.91 26.8101 52.9 26.8101" stroke="#010101" stroke-width="0.25" stroke-miterlimit="10"/>
<path d="M3.56995 17.43C3.56995 17.43 3.57995 17.42 3.58995 17.41C3.60995 17.39 3.61995 17.38 3.63995 17.36C3.66995 17.33 3.69995 17.3 3.72995 17.27" stroke="#010101" stroke-width="0.25" stroke-miterlimit="10"/>
<path d="M48.51 27.9902V29.5102" stroke="#010101" stroke-width="0.25" stroke-miterlimit="10"/>
<path d="M3.76 0.590078C3.76 0.590078 3.76 0.590078 3.75 0.580078" stroke="#010101" stroke-width="0.25" stroke-miterlimit="10"/>
<path d="M43.1899 0.540092C43.2799 0.490092 43.3999 0.530092 43.4499 0.620092" stroke="#010101" stroke-width="0.25" stroke-miterlimit="10"/>
<path d="M0.119995 3.75012V0.120117" stroke="#010101" stroke-width="0.25" stroke-miterlimit="10"/>
<path d="M49.9599 0.530029C49.9599 0.530029 49.96 0.530029 49.95 0.530029" stroke="#010101" stroke-width="0.25" stroke-miterlimit="10"/>
<path d="M2.85999 30.75V3.75" stroke="#010101" stroke-width="0.25" stroke-miterlimit="10"/>
<path d="M36.51 33.9001C36.45 33.8101 36.47 33.7001 36.56 33.6401C36.56 33.6401 36.57 33.6401 36.58 33.6301" stroke="#010101" stroke-width="0.25" stroke-miterlimit="10"/>
<path d="M50.64 30.75V31.64" stroke="#010101" stroke-width="0.25" stroke-miterlimit="10"/>
<path d="M30.2 0.590088C30.2 0.590088 30.1999 0.590088 30.2099 0.600088" stroke="#010101" stroke-width="0.25" stroke-miterlimit="10"/>
<path d="M43.11 0.800088C43.08 0.730088 43.08 0.650088 43.13 0.590088" stroke="#010101" stroke-width="0.25" stroke-miterlimit="10"/>
<path d="M0.119995 30.75V3.75" stroke="#010101" stroke-width="0.25" stroke-miterlimit="10"/>
<path d="M0.530029 14.06C0.530029 14.06 0.530029 14.04 0.540029 14.03" stroke="#010101" stroke-width="0.25" stroke-miterlimit="10"/>
<path d="M0.619995 26.4902C0.619995 26.4902 0.679995 26.4702 0.709995 26.4702" stroke="#010101" stroke-width="0.25" stroke-miterlimit="10"/>
<path d="M2.85999 3.75011V2.86011" stroke="#010101" stroke-width="0.25" stroke-miterlimit="10"/>
<path d="M52.96 14.2002C52.96 14.2002 52.95 14.2302 52.94 14.2402C52.94 14.2402 52.92 14.2602 52.91 14.2702" stroke="#010101" stroke-width="0.25" stroke-miterlimit="10"/>
<path d="M3.75 33.6602C3.75 33.6602 3.8 33.7402 3.8 33.7902" stroke="#010101" stroke-width="0.25" stroke-miterlimit="10"/>
<path d="M36.75 33.9602C36.75 33.9602 36.73 33.9602 36.72 33.9702" stroke="#010101" stroke-width="0.25" stroke-miterlimit="10"/>
<path d="M0.590039 7.99017C0.590039 7.99017 0.570039 7.97017 0.560039 7.96017C0.560039 7.95017 0.540039 7.94017 0.540039 7.92017" stroke="#010101" stroke-width="0.25" stroke-miterlimit="10"/>
<path d="M52.91 13.9702C52.91 13.9702 52.93 13.9902 52.94 14.0002C52.94 14.0102 52.96 14.0202 52.96 14.0302" stroke="#010101" stroke-width="0.25" stroke-miterlimit="10"/>
<path d="M49.75 0.840078C49.68 0.770078 49.68 0.660078 49.75 0.580078" stroke="#010101" stroke-width="0.25" stroke-miterlimit="10"/>
<path d="M49.96 0.530029C49.96 0.530029 50.04 0.580029 50.06 0.620029" stroke="#010101" stroke-width="0.25" stroke-miterlimit="10"/>
<path d="M23.3 33.9101C23.3 33.9101 23.3 33.9101 23.3 33.9001" stroke="#010101" stroke-width="0.25" stroke-miterlimit="10"/>
<path d="M0.709961 7.65015C0.809961 7.65015 0.899961 7.74015 0.899961 7.84015" stroke="#010101" stroke-width="0.25" stroke-miterlimit="10"/>
<path d="M3.69995 18.4602V30.7502" stroke="#010101" stroke-width="0.25" stroke-miterlimit="10"/>
<path d="M49.75 3.74023H49.76" stroke="#010101" stroke-width="0.25" stroke-miterlimit="10"/>
<path d="M3.60999 33.9802C3.60999 33.9802 3.64999 33.9802 3.66999 33.9802" stroke="#010101" stroke-width="0.25" stroke-miterlimit="10"/>
<path d="M3.74999 17.26H3.73999" stroke="#010101" stroke-width="0.25" stroke-miterlimit="10"/>
<path d="M10.22 33.6001C10.29 33.6001 10.35 33.6401 10.39 33.7001" stroke="#010101" stroke-width="0.25" stroke-miterlimit="10"/>
<path d="M10.06 33.9001C10.06 33.9001 10.06 33.8901 10.05 33.8801" stroke="#010101" stroke-width="0.25" stroke-miterlimit="10"/>
<path d="M17.02 33.79C17.02 33.79 17.01 33.87 16.98 33.9" stroke="#010101" stroke-width="0.25" stroke-miterlimit="10"/>
<path d="M49.76 17.26H49.75" stroke="#010101" stroke-width="0.25" stroke-miterlimit="10"/>
<path d="M50.04 0.600088C50.04 0.600088 50.04 0.600088 50.03 0.590088" stroke="#010101" stroke-width="0.25" stroke-miterlimit="10"/>
<path d="M3.75005 33.9202C3.70005 33.9702 3.62005 34.0002 3.55005 33.9702" stroke="#010101" stroke-width="0.25" stroke-miterlimit="10"/>
<path d="M50.64 31.6401H49.75" stroke="#010101" stroke-width="0.25" stroke-miterlimit="10"/>
<path d="M3.8 33.79C3.8 33.79 3.78 33.88 3.75 33.92" stroke="#010101" stroke-width="0.25" stroke-miterlimit="10"/>
<path d="M4.48999 30C4.48999 30 4.52999 29.97 4.53999 29.95C4.55999 29.93 4.56999 29.92 4.58999 29.9C4.60999 29.88 4.61999 29.87 4.63999 29.85C4.65999 29.83 4.66999 29.82 4.68999 29.8C4.70999 29.78 4.71999 29.77 4.73999 29.75C4.75999 29.73 4.76999 29.72 4.78999 29.7C4.80999 29.68 4.81999 29.67 4.83999 29.65C4.85999 29.63 4.86999 29.62 4.88999 29.6C4.91999 29.57 4.94999 29.54 4.97999 29.51" stroke="#010101" stroke-width="0.25" stroke-miterlimit="10"/>
<path d="M52.96 20.4702C52.96 20.4702 52.95 20.5002 52.94 20.5102C52.94 20.5102 52.92 20.5302 52.91 20.5402" stroke="#010101" stroke-width="0.25" stroke-miterlimit="10"/>
<path d="M3.74999 31.6401H2.85999" stroke="#010101" stroke-width="0.25" stroke-miterlimit="10"/>
<path d="M48.51 18.4902V27.9902" stroke="#010101" stroke-width="0.25" stroke-miterlimit="10"/>
<path d="M23.25 33.7901C23.25 33.7201 23.29 33.6501 23.35 33.6201" stroke="#010101" stroke-width="0.25" stroke-miterlimit="10"/>
<path d="M52.97 14.1702C52.97 14.1702 52.97 14.1902 52.96 14.2002" stroke="#010101" stroke-width="0.25" stroke-miterlimit="10"/>
<path d="M10.4099 0.710205C10.4099 0.780205 10.3699 0.850205 10.3099 0.880205" stroke="#010101" stroke-width="0.25" stroke-miterlimit="10"/>
<path d="M3.75 2.86011H49.75" stroke="#010101" stroke-width="0.25" stroke-miterlimit="10"/>
<path d="M3.75004 0.840205C3.68004 0.920205 3.56004 0.920205 3.48004 0.850205C3.44004 0.810205 3.42004 0.760205 3.42004 0.710205" stroke="#010101" stroke-width="0.25" stroke-miterlimit="10"/>
<path d="M49.72 33.8801C49.72 33.8801 49.73 33.9001 49.74 33.9101C49.74 33.9101 49.74 33.9101 49.74 33.9201" stroke="#010101" stroke-width="0.25" stroke-miterlimit="10"/>
<path d="M53.38 30.75V34.38" stroke="#010101" stroke-width="0.25" stroke-miterlimit="10"/>
<path d="M50.37 3.75013V3.13013" stroke="#010101" stroke-width="0.25" stroke-miterlimit="10"/>
<path d="M53.38 0.120117V3.74012" stroke="#010101" stroke-width="0.25" stroke-miterlimit="10"/>
<path d="M4.38 30.03V30.75" stroke="#010101" stroke-width="0.25" stroke-miterlimit="10"/>
<path d="M30.25 0.710205C30.25 0.780205 30.21 0.850205 30.15 0.880205" stroke="#010101" stroke-width="0.25" stroke-miterlimit="10"/>
<path d="M36.58 0.540092C36.67 0.490092 36.79 0.530092 36.84 0.620092C36.89 0.710092 36.85 0.830092 36.76 0.880092C36.67 0.930092 36.55 0.890092 36.5 0.800092C36.47 0.730092 36.47 0.650092 36.52 0.590092" stroke="#010101" stroke-width="0.25" stroke-miterlimit="10"/>
<path d="M49.75 31.6401H3.75" stroke="#010101" stroke-width="0.25" stroke-miterlimit="10"/>
<path d="M52.97 20.4402C52.97 20.4402 52.97 20.4602 52.96 20.4702" stroke="#010101" stroke-width="0.25" stroke-miterlimit="10"/>
<path d="M0.900049 26.6602C0.900049 26.7302 0.860049 26.8002 0.800049 26.8302" stroke="#010101" stroke-width="0.25" stroke-miterlimit="10"/>
<path d="M10.0599 0.600166C10.1199 0.510166 10.2399 0.490166 10.3199 0.550166C10.3699 0.590166 10.3999 0.640166 10.3999 0.710166" stroke="#010101" stroke-width="0.25" stroke-miterlimit="10"/>
<path d="M52.79 8.03009C52.69 8.03009 52.6 7.94009 52.6 7.84009" stroke="#010101" stroke-width="0.25" stroke-miterlimit="10"/>
<path d="M49.8 30.8C49.8 30.8 49.8601 30.86 49.9001 30.9C49.9201 30.92 49.9301 30.9301 49.9501 30.9501C49.9701 30.9701 49.98 30.98 50 31C50.02 31.02 50.03 31.03 50.05 31.05C50.07 31.07 50.08 31.08 50.1 31.1C50.12 31.12 50.1301 31.13 50.1501 31.15C50.1701 31.17 50.1801 31.1801 50.2001 31.2001C50.2201 31.2201 50.23 31.23 50.25 31.25C50.27 31.27 50.28 31.28 50.3 31.3C50.33 31.33 50.3601 31.36 50.4001 31.4" stroke="#010101" stroke-width="0.25" stroke-miterlimit="10"/>
<path d="M49.75 17.26H3.75" stroke="#010101" stroke-width="0.25" stroke-miterlimit="10"/>
<path d="M4.96997 30C4.96997 30 4.96997 30 4.96997 30.02" stroke="#010101" stroke-width="0.25" stroke-miterlimit="10"/>
<path d="M49.75 0.580029C49.75 0.580029 49.8 0.540029 49.83 0.530029" stroke="#010101" stroke-width="0.25" stroke-miterlimit="10"/>
<path d="M52.9 14.27C52.9 14.27 52.83 14.3 52.79 14.3" stroke="#010101" stroke-width="0.25" stroke-miterlimit="10"/>
<path d="M23.36 33.6201C23.36 33.6201 23.42 33.6001 23.45 33.6001" stroke="#010101" stroke-width="0.25" stroke-miterlimit="10"/>
<path d="M52.96 14.03C52.96 14.03 52.96 14.05 52.97 14.06" stroke="#010101" stroke-width="0.25" stroke-miterlimit="10"/>
<path d="M3.75 0.120117H49.75" stroke="#010101" stroke-width="0.25" stroke-miterlimit="10"/>
<path d="M49.98 33.9602C49.9 34.0002 49.81 33.9802 49.75 33.9202" stroke="#010101" stroke-width="0.25" stroke-miterlimit="10"/>
<path d="M23.29 0.600166C23.35 0.510166 23.47 0.490166 23.55 0.550166C23.64 0.610166 23.66 0.730166 23.6 0.810166C23.54 0.900166 23.42 0.920166 23.34 0.860166C23.29 0.830166 23.26 0.770166 23.26 0.710166" stroke="#010101" stroke-width="0.25" stroke-miterlimit="10"/>
<path d="M49.75 0.120117H53.37" stroke="#010101" stroke-width="0.25" stroke-miterlimit="10"/>
<path d="M0.79997 26.83C0.70997 26.88 0.58997 26.83 0.53997 26.75C0.48997 26.66 0.52997 26.54 0.61997 26.5" stroke="#010101" stroke-width="0.25" stroke-miterlimit="10"/>
<path d="M3.75 3.12012H3.12" stroke="#010101" stroke-width="0.25" stroke-miterlimit="10"/>
<path d="M3.69995 30.75V30.8" stroke="#010101" stroke-width="0.25" stroke-miterlimit="10"/>
<path d="M3.75 31.3701H49.75" stroke="#010101" stroke-width="0.25" stroke-miterlimit="10"/>
<path d="M49.75 31.3701H50.37" stroke="#010101" stroke-width="0.25" stroke-miterlimit="10"/>
<path d="M0.54002 7.92009C0.54002 7.92009 0.52002 7.87009 0.52002 7.84009" stroke="#010101" stroke-width="0.25" stroke-miterlimit="10"/>
<path d="M3.45004 0.600098C3.45004 0.600098 3.42004 0.670098 3.42004 0.710098" stroke="#010101" stroke-width="0.25" stroke-miterlimit="10"/>
<path d="M4.98999 29.5102V18.4902" stroke="#010101" stroke-width="0.25" stroke-miterlimit="10"/>
<path d="M30.1399 0.880092C30.0499 0.930092 29.9299 0.890092 29.8799 0.800092C29.8299 0.710092 29.8699 0.590092 29.9599 0.540092C30.0499 0.490092 30.1699 0.530092 30.2199 0.620092C30.2299 0.650092 30.2399 0.680092 30.2399 0.710092" stroke="#010101" stroke-width="0.25" stroke-miterlimit="10"/>
<path d="M52.97 14.0601C52.97 14.0601 52.97 14.1001 52.97 14.1201" stroke="#010101" stroke-width="0.25" stroke-miterlimit="10"/>
<path d="M52.6 7.84017C52.6 7.77017 52.64 7.70017 52.7 7.67017" stroke="#010101" stroke-width="0.25" stroke-miterlimit="10"/>
<path d="M50.64 2.86011V3.75011" stroke="#010101" stroke-width="0.25" stroke-miterlimit="10"/>
<path d="M48.53 30H49.13" stroke="#010101" stroke-width="0.25" stroke-miterlimit="10"/>
<path d="M52.91 7.69019C52.91 7.69019 52.93 7.71019 52.94 7.72019C52.94 7.73019 52.96 7.74019 52.96 7.75019" stroke="#010101" stroke-width="0.25" stroke-miterlimit="10"/>
<path d="M50.64 30.75V3.75" stroke="#010101" stroke-width="0.25" stroke-miterlimit="10"/>
<path d="M16.99 0.600098C16.99 0.600098 17.03 0.670098 17.03 0.710098" stroke="#010101" stroke-width="0.25" stroke-miterlimit="10"/>
<path d="M43.09 33.7901C43.09 33.6901 43.18 33.6001 43.28 33.6001" stroke="#010101" stroke-width="0.25" stroke-miterlimit="10"/>
<path d="M49.97 0.540039C49.97 0.540039 49.97 0.540039 49.96 0.540039" stroke="#010101" stroke-width="0.25" stroke-miterlimit="10"/>
<path d="M43.13 0.590039C43.13 0.590039 43.15 0.570039 43.16 0.560039C43.17 0.560039 43.18 0.540039 43.2 0.540039" stroke="#010101" stroke-width="0.25" stroke-miterlimit="10"/>
<path d="M52.9 20.2302C52.97 20.2802 53 20.3602 52.97 20.4402" stroke="#010101" stroke-width="0.25" stroke-miterlimit="10"/>
<path d="M49.93 17.43L49.91 17.41C49.89 17.39 49.88 17.38 49.86 17.36C49.83 17.33 49.8 17.3 49.77 17.27" stroke="#010101" stroke-width="0.25" stroke-miterlimit="10"/>
<path d="M3.54004 33.9702C3.54004 33.9702 3.54004 33.9702 3.55004 33.9702" stroke="#010101" stroke-width="0.25" stroke-miterlimit="10"/>
<path d="M36.58 33.6201C36.58 33.6201 36.64 33.6001 36.67 33.6001" stroke="#010101" stroke-width="0.25" stroke-miterlimit="10"/>
<path d="M43.28 0.900049C43.21 0.900049 43.14 0.860049 43.11 0.800049" stroke="#010101" stroke-width="0.25" stroke-miterlimit="10"/>
<path d="M3.52004 33.6201C3.46004 33.6501 3.42004 33.7201 3.42004 33.7901" stroke="#010101" stroke-width="0.25" stroke-miterlimit="10"/>
<path d="M0.530029 7.79001C0.530029 7.79001 0.530029 7.77001 0.540029 7.76001" stroke="#010101" stroke-width="0.25" stroke-miterlimit="10"/>
<path d="M23.59 33.9102C23.59 33.9102 23.57 33.9302 23.56 33.9302C23.55 33.9302 23.54 33.9502 23.52 33.9502" stroke="#010101" stroke-width="0.25" stroke-miterlimit="10"/>
<path d="M49.76 16.2002V17.2502" stroke="#010101" stroke-width="0.25" stroke-miterlimit="10"/>
<path d="M30.2 33.9102C30.2 33.9102 30.18 33.9302 30.17 33.9302C30.16 33.9302 30.15 33.9502 30.13 33.9502" stroke="#010101" stroke-width="0.25" stroke-miterlimit="10"/>
<path d="M50.0801 33.7902C50.0801 33.7902 50.0801 33.7302 50.0601 33.7002" stroke="#010101" stroke-width="0.25" stroke-miterlimit="10"/>
<path d="M49.75 33.9202C49.68 33.8502 49.68 33.7402 49.75 33.6602" stroke="#010101" stroke-width="0.25" stroke-miterlimit="10"/>
<path d="M30.21 0.600098C30.21 0.600098 30.22 0.620098 30.23 0.630098" stroke="#010101" stroke-width="0.25" stroke-miterlimit="10"/>
<path d="M0.52002 7.84004C0.52002 7.84004 0.52002 7.80004 0.52002 7.79004" stroke="#010101" stroke-width="0.25" stroke-miterlimit="10"/>
<path d="M3.15002 3.15015L3.25002 3.25015C3.25002 3.25015 3.28002 3.28015 3.30002 3.30015C3.32002 3.32015 3.33002 3.33015 3.35002 3.35015C3.37002 3.37015 3.38002 3.38015 3.40002 3.40015L3.45002 3.45015L3.50002 3.50015C3.50002 3.50015 3.53002 3.53015 3.55002 3.55015C3.57002 3.57015 3.58002 3.58015 3.60002 3.60015C3.62002 3.62015 3.63002 3.63015 3.65002 3.65015C3.68002 3.68015 3.71002 3.71015 3.74002 3.74015" stroke="#010101" stroke-width="0.25" stroke-miterlimit="10"/>
<path d="M3.73999 17.25V3.75" stroke="#010101" stroke-width="0.25" stroke-miterlimit="10"/>
<path d="M3.75 18.4602V30.7502" stroke="#010101" stroke-width="0.25" stroke-miterlimit="10"/>
<path d="M49.89 0.52002C49.89 0.52002 49.93 0.52002 49.95 0.53002" stroke="#010101" stroke-width="0.25" stroke-miterlimit="10"/>
<path d="M43.13 33.9101C43.13 33.9101 43.13 33.9101 43.13 33.9001" stroke="#010101" stroke-width="0.25" stroke-miterlimit="10"/>
<path d="M48.51 29.51H4.98999" stroke="#010101" stroke-width="0.25" stroke-miterlimit="10"/>
<path d="M0.709961 20.2002C0.809961 20.2002 0.899961 20.2902 0.899961 20.3902" stroke="#010101" stroke-width="0.25" stroke-miterlimit="10"/>
<path d="M52.9 26.8201C52.9 26.8201 52.83 26.8501 52.79 26.8501" stroke="#010101" stroke-width="0.25" stroke-miterlimit="10"/>
<path d="M3.67004 33.9702C3.67004 33.9702 3.69004 33.9702 3.70004 33.9602" stroke="#010101" stroke-width="0.25" stroke-miterlimit="10"/>
<path d="M43.47 0.710205C43.47 0.810205 43.39 0.900205 43.28 0.900205" stroke="#010101" stroke-width="0.25" stroke-miterlimit="10"/>
<path d="M49.98 33.9602C49.98 33.9602 50 33.9502 50.01 33.9402" stroke="#010101" stroke-width="0.25" stroke-miterlimit="10"/>
<path d="M0.619995 20.2202C0.619995 20.2202 0.679995 20.2002 0.709995 20.2002" stroke="#010101" stroke-width="0.25" stroke-miterlimit="10"/>
<path d="M52.98 14.1101C52.98 14.1101 52.98 14.1501 52.98 14.1701" stroke="#010101" stroke-width="0.25" stroke-miterlimit="10"/>
<path d="M50.08 33.79C50.08 33.85 50.05 33.9 50.01 33.94" stroke="#010101" stroke-width="0.25" stroke-miterlimit="10"/>
<path d="M0.709961 26.4702C0.809961 26.4702 0.899961 26.5602 0.899961 26.6602" stroke="#010101" stroke-width="0.25" stroke-miterlimit="10"/>
<path d="M49.01 30C48.99 29.98 48.98 29.97 48.96 29.95C48.94 29.93 48.93 29.92 48.91 29.9C48.89 29.88 48.88 29.87 48.86 29.85C48.84 29.83 48.83 29.82 48.81 29.8C48.79 29.78 48.78 29.77 48.76 29.75C48.74 29.73 48.73 29.72 48.71 29.7C48.69 29.68 48.68 29.67 48.66 29.65C48.64 29.63 48.63 29.62 48.61 29.6C48.58 29.57 48.55 29.54 48.52 29.51" stroke="#010101" stroke-width="0.25" stroke-miterlimit="10"/>
<path d="M49.75 33.6602C49.82 33.5802 49.94 33.5802 50.02 33.6502C50.04 33.6702 50.05 33.6802 50.06 33.7002" stroke="#010101" stroke-width="0.25" stroke-miterlimit="10"/>
<path d="M52.97 7.78003C52.97 7.78003 52.97 7.82003 52.97 7.84003" stroke="#010101" stroke-width="0.25" stroke-miterlimit="10"/>
<path d="M29.97 33.6202C30.06 33.5702 30.18 33.6102 30.23 33.7002C30.27 33.7702 30.25 33.8502 30.2 33.9102" stroke="#010101" stroke-width="0.25" stroke-miterlimit="10"/>
<path d="M49.13 30.7502V18.4602" stroke="#010101" stroke-width="0.25" stroke-miterlimit="10"/>
<path d="M50.03 0.580039C50.03 0.580039 50.01 0.560039 50 0.560039C49.99 0.560039 49.98 0.540039 49.96 0.540039" stroke="#010101" stroke-width="0.25" stroke-miterlimit="10"/>
<path d="M43.4701 33.79C43.4701 33.79 43.4601 33.87 43.4301 33.9" stroke="#010101" stroke-width="0.25" stroke-miterlimit="10"/>
<path d="M0.899961 7.84009C0.899961 7.94009 0.819961 8.03009 0.709961 8.03009" stroke="#010101" stroke-width="0.25" stroke-miterlimit="10"/>
<path d="M16.99 33.9001C16.99 33.9001 16.99 33.9001 16.98 33.9101" stroke="#010101" stroke-width="0.25" stroke-miterlimit="10"/>
<path d="M0.90002 20.3902C0.90002 20.4902 0.81002 20.5802 0.71002 20.5802C0.61002 20.5802 0.52002 20.4902 0.52002 20.3902C0.52002 20.3202 0.56002 20.2502 0.62002 20.2202" stroke="#010101" stroke-width="0.25" stroke-miterlimit="10"/>
<path d="M48.53 30C48.53 30 48.53 30 48.53 30.02" stroke="#010101" stroke-width="0.25" stroke-miterlimit="10"/>
<path d="M10.39 33.7001C10.44 33.7901 10.4 33.9101 10.31 33.9601C10.22 34.0101 10.1 33.9701 10.05 33.8801C9.99998 33.7901 10.04 33.6701 10.13 33.6201" stroke="#010101" stroke-width="0.25" stroke-miterlimit="10"/>
<path d="M2.85999 31.64V30.75" stroke="#010101" stroke-width="0.25" stroke-miterlimit="10"/>
<path d="M0.119995 34.38V30.75" stroke="#010101" stroke-width="0.25" stroke-miterlimit="10"/>
<path d="M23.53 33.9601C23.44 34.0101 23.32 33.9701 23.27 33.8801" stroke="#010101" stroke-width="0.25" stroke-miterlimit="10"/>
<path d="M36.67 33.6001C36.77 33.6001 36.86 33.6901 36.86 33.7901C36.86 33.8901 36.77 33.9801 36.67 33.9801C36.61 33.9801 36.56 33.9501 36.52 33.9101" stroke="#010101" stroke-width="0.25" stroke-miterlimit="10"/>
<path d="M30.14 33.96C30.05 34.01 29.93 33.97 29.88 33.88C29.87 33.85 29.86 33.82 29.86 33.79" stroke="#010101" stroke-width="0.25" stroke-miterlimit="10"/>
<path d="M4.97 30H4.37" stroke="#010101" stroke-width="0.25" stroke-miterlimit="10"/>
<path d="M3.75 0.580078C3.75 0.580078 3.77 0.610078 3.78 0.620078" stroke="#010101" stroke-width="0.25" stroke-miterlimit="10"/>
<path d="M4.95996 18.4602L4.98996 18.4902" stroke="#010101" stroke-width="0.25" stroke-miterlimit="10"/>
<path d="M49.8 30.7502V18.4602" stroke="#010101" stroke-width="0.25" stroke-miterlimit="10"/>
<path d="M49.76 3.75V16.2" stroke="#010101" stroke-width="0.25" stroke-miterlimit="10"/>
<path d="M48.54 18.4602L48.51 18.4902" stroke="#010101" stroke-width="0.25" stroke-miterlimit="10"/>
<path d="M3.12 3.12012V3.74012" stroke="#010101" stroke-width="0.25" stroke-miterlimit="10"/>
<path d="M50.37 3.12012H49.75" stroke="#010101" stroke-width="0.25" stroke-miterlimit="10"/>
<path d="M3.12 31.37C3.12 31.37 3.18 31.31 3.22 31.27C3.24 31.25 3.25 31.24 3.27 31.22C3.29 31.2 3.3 31.19 3.32 31.17C3.34 31.15 3.35 31.14 3.37 31.12C3.39 31.1 3.4 31.09 3.42 31.07C3.44 31.05 3.45 31.04 3.47 31.02C3.49 31 3.5 30.99 3.52 30.97C3.54 30.95 3.55 30.94 3.57 30.92C3.59 30.9 3.6 30.89 3.62 30.87C3.65 30.84 3.68 30.81 3.72 30.77" stroke="#010101" stroke-width="0.25" stroke-miterlimit="10"/>
<path d="M3.69995 30.8H3.74995" stroke="#010101" stroke-width="0.25" stroke-miterlimit="10"/>
<path d="M50.37 30.75V3.75" stroke="#010101" stroke-width="0.25" stroke-miterlimit="10"/>
<path d="M3.12 3.75V30.75" stroke="#010101" stroke-width="0.25" stroke-miterlimit="10"/>
<path d="M3.75 30.8H49.75" stroke="#010101" stroke-width="0.25" stroke-miterlimit="10"/>
<path d="M0.119995 0.120117H3.75" stroke="#010101" stroke-width="0.25" stroke-miterlimit="10"/>
<path d="M3.80001 0.710088C3.80001 0.710088 3.79001 0.630088 3.76001 0.590088" stroke="#010101" stroke-width="0.25" stroke-miterlimit="10"/>
<path d="M43.43 33.9001C43.37 33.9801 43.25 34.0001 43.16 33.9401C43.15 33.9401 43.14 33.9201 43.13 33.9101" stroke="#010101" stroke-width="0.25" stroke-miterlimit="10"/>
<path d="M43.4301 0.600098C43.4301 0.600098 43.4701 0.670098 43.4701 0.710098" stroke="#010101" stroke-width="0.25" stroke-miterlimit="10"/>
<path d="M4.96997 30.75V30.02" stroke="#010101" stroke-width="0.25" stroke-miterlimit="10"/>
<path d="M48.53 30.02V30.75" stroke="#010101" stroke-width="0.25" stroke-miterlimit="10"/>
<path d="M10.22 0.900205C10.12 0.900205 10.03 0.820205 10.03 0.710205" stroke="#010101" stroke-width="0.25" stroke-miterlimit="10"/>
<path d="M23.29 33.9C23.29 33.9 23.26 33.83 23.26 33.79" stroke="#010101" stroke-width="0.25" stroke-miterlimit="10"/>
<path d="M50.38 18.4602H3.12" stroke="#010101" stroke-width="0.25" stroke-miterlimit="10"/>
<path d="M3.12 31.3701H3.75" stroke="#010101" stroke-width="0.25" stroke-miterlimit="10"/>
<path d="M49.75 3.12012H3.75" stroke="#010101" stroke-width="0.25" stroke-miterlimit="10"/>
<path d="M0.540039 14.0301C0.590039 13.9401 0.700039 13.9001 0.790039 13.9401C0.880039 13.9901 0.920039 14.1001 0.880039 14.1901C0.830039 14.2801 0.720039 14.3201 0.630039 14.2801C0.590039 14.2601 0.560039 14.2301 0.540039 14.2001" stroke="#010101" stroke-width="0.25" stroke-miterlimit="10"/>
<path d="M36.52 0.590039C36.52 0.590039 36.54 0.570039 36.55 0.560039C36.56 0.560039 36.57 0.540039 36.59 0.540039" stroke="#010101" stroke-width="0.25" stroke-miterlimit="10"/>
<path d="M3.12 17.4302H26.75" stroke="#010101" stroke-width="0.25" stroke-miterlimit="10"/>
<path d="M43.12 33.9C43.12 33.9 43.09 33.83 43.09 33.79" stroke="#010101" stroke-width="0.25" stroke-miterlimit="10"/>
<path d="M0.619995 7.67015C0.619995 7.67015 0.679995 7.65015 0.709995 7.65015" stroke="#010101" stroke-width="0.25" stroke-miterlimit="10"/>
<path d="M0.540022 14.1901C0.540022 14.1901 0.520022 14.1001 0.530022 14.0601" stroke="#010101" stroke-width="0.25" stroke-miterlimit="10"/>
<path d="M23.4399 33.6001C23.5399 33.6001 23.6299 33.6901 23.6299 33.7901C23.6299 33.8401 23.6099 33.8801 23.5799 33.9101" stroke="#010101" stroke-width="0.25" stroke-miterlimit="10"/>
<path d="M49.8 30.8V30.75" stroke="#010101" stroke-width="0.25" stroke-miterlimit="10"/>
<path d="M43.28 33.6001C43.38 33.6001 43.47 33.6901 43.47 33.7901" stroke="#010101" stroke-width="0.25" stroke-miterlimit="10"/>
<path d="M10.14 33.6201C10.14 33.6201 10.2 33.6001 10.23 33.6001" stroke="#010101" stroke-width="0.25" stroke-miterlimit="10"/>
<path d="M36.8101 0.590088C36.8101 0.590088 36.8101 0.590088 36.8201 0.600088" stroke="#010101" stroke-width="0.25" stroke-miterlimit="10"/>
<path d="M10.38 0.600098C10.38 0.600098 10.39 0.620098 10.4 0.630098" stroke="#010101" stroke-width="0.25" stroke-miterlimit="10"/>
<path d="M52.91 20.5302C52.83 20.6002 52.71 20.5902 52.64 20.5102C52.57 20.4302 52.58 20.3102 52.66 20.2402C52.67 20.2402 52.68 20.2202 52.7 20.2202" stroke="#010101" stroke-width="0.25" stroke-miterlimit="10"/>
<path d="M3.44995 0.600166C3.50995 0.510166 3.62995 0.490166 3.70995 0.550166C3.71995 0.550166 3.72995 0.570166 3.73995 0.580166" stroke="#010101" stroke-width="0.25" stroke-miterlimit="10"/>
<path d="M0.540039 7.76017C0.540039 7.76017 0.590039 7.69017 0.620039 7.67017" stroke="#010101" stroke-width="0.25" stroke-miterlimit="10"/>
<path d="M10.39 0.620088C10.39 0.620088 10.38 0.600088 10.37 0.590088" stroke="#010101" stroke-width="0.25" stroke-miterlimit="10"/>
<path d="M3.12 30.75V31.38" stroke="#010101" stroke-width="0.25" stroke-miterlimit="10"/>
<path d="M17 33.7002C17 33.7002 17.02 33.7602 17.02 33.7902" stroke="#010101" stroke-width="0.25" stroke-miterlimit="10"/>
<path d="M10.03 0.710098C10.03 0.710098 10.04 0.630098 10.06 0.600098" stroke="#010101" stroke-width="0.25" stroke-miterlimit="10"/>
<path d="M50.08 0.710205C50.08 0.810205 49.99 0.900205 49.89 0.900205C49.84 0.900205 49.79 0.880205 49.75 0.840205" stroke="#010101" stroke-width="0.25" stroke-miterlimit="10"/>
<path d="M52.7 20.2202C52.7 20.2202 52.7599 20.2002 52.7799 20.2002" stroke="#010101" stroke-width="0.25" stroke-miterlimit="10"/>
<path d="M52.79 26.8502C52.69 26.8502 52.6 26.7602 52.6 26.6602" stroke="#010101" stroke-width="0.25" stroke-miterlimit="10"/>
<path d="M50.35 3.15015C50.35 3.15015 50.28 3.22015 50.25 3.25015C50.23 3.27015 50.22 3.28015 50.2 3.30015C50.18 3.32015 50.17 3.33015 50.15 3.35015C50.13 3.37015 50.12 3.38015 50.1 3.40015C50.08 3.42015 50.07 3.43015 50.05 3.45015C50.03 3.47015 50.02 3.48015 50 3.50015C49.98 3.52015 49.97 3.53015 49.95 3.55015C49.93 3.57015 49.92 3.58015 49.9 3.60015C49.88 3.62015 49.87 3.63015 49.85 3.65015C49.82 3.68015 49.79 3.71015 49.76 3.74015" stroke="#010101" stroke-width="0.25" stroke-miterlimit="10"/>
<path d="M53.38 34.3801H49.76" stroke="#010101" stroke-width="0.25" stroke-miterlimit="10"/>
<path d="M27.32 17.4302H26.75" stroke="#010101" stroke-width="0.25" stroke-miterlimit="10"/>
<path d="M16.98 33.9101C16.91 33.9901 16.79 34.0001 16.71 33.9301C16.63 33.8601 16.62 33.7401 16.69 33.6601C16.76 33.5801 16.88 33.5701 16.96 33.6401C16.98 33.6601 16.99 33.6801 17 33.7001" stroke="#010101" stroke-width="0.25" stroke-miterlimit="10"/>
<path d="M23.25 0.710098C23.25 0.710098 23.26 0.630098 23.28 0.600098" stroke="#010101" stroke-width="0.25" stroke-miterlimit="10"/>
<path d="M52.6 26.6602C52.6 26.5602 52.69 26.4702 52.79 26.4702C52.89 26.4702 52.98 26.5602 52.98 26.6602C52.98 26.6902 52.98 26.7202 52.96 26.7402" stroke="#010101" stroke-width="0.25" stroke-miterlimit="10"/>
<path d="M52.79 14.3002C52.69 14.3002 52.6 14.2202 52.6 14.1102C52.6 14.0102 52.68 13.9202 52.79 13.9202C52.84 13.9202 52.88 13.9302 52.92 13.9602" stroke="#010101" stroke-width="0.25" stroke-miterlimit="10"/>
<path d="M52.98 7.84009C52.98 7.94009 52.89 8.03009 52.79 8.03009" stroke="#010101" stroke-width="0.25" stroke-miterlimit="10"/>
<path d="M52.7 7.67013C52.77 7.64013 52.85 7.64013 52.91 7.69013" stroke="#010101" stroke-width="0.25" stroke-miterlimit="10"/>
<path d="M10.31 0.880127C10.31 0.880127 10.25 0.900127 10.22 0.900127" stroke="#010101" stroke-width="0.25" stroke-miterlimit="10"/>
<path d="M10.03 0.710098C10.03 0.710098 10.04 0.630098 10.06 0.600098" stroke="#010101" stroke-width="0.25" stroke-miterlimit="10"/>
<path d="M0.619995 20.2202C0.619995 20.2202 0.679995 20.2002 0.709995 20.2002" stroke="#010101" stroke-width="0.25" stroke-miterlimit="10"/>
<path d="M36.8101 0.590088C36.8101 0.590088 36.8101 0.590088 36.8201 0.600088" stroke="#010101" stroke-width="0.25" stroke-miterlimit="10"/>
<path d="M10.14 33.6201C10.14 33.6201 10.2 33.6001 10.23 33.6001" stroke="#010101" stroke-width="0.25" stroke-miterlimit="10"/>
<path d="M0.619995 7.67015C0.619995 7.67015 0.679995 7.65015 0.709995 7.65015" stroke="#010101" stroke-width="0.25" stroke-miterlimit="10"/>
<path d="M36.52 0.590039C36.52 0.590039 36.54 0.570039 36.55 0.560039C36.56 0.560039 36.57 0.540039 36.59 0.540039" stroke="#010101" stroke-width="0.25" stroke-miterlimit="10"/>
<path d="M43.28 33.6001C43.38 33.6001 43.47 33.6901 43.47 33.7901" stroke="#010101" stroke-width="0.25" stroke-miterlimit="10"/>
<path d="M43.12 33.9C43.12 33.9 43.09 33.83 43.09 33.79" stroke="#010101" stroke-width="0.25" stroke-miterlimit="10"/>
<path d="M43.43 33.9001C43.37 33.9801 43.25 34.0001 43.16 33.9401C43.15 33.9401 43.14 33.9201 43.13 33.9101" stroke="#010101" stroke-width="0.25" stroke-miterlimit="10"/>
<path d="M52.97 14.1702C52.97 14.1702 52.97 14.1902 52.96 14.2002" stroke="#010101" stroke-width="0.25" stroke-miterlimit="10"/>
<path d="M52.91 20.5302C52.83 20.6002 52.71 20.5902 52.64 20.5102C52.57 20.4302 52.58 20.3102 52.66 20.2402C52.67 20.2402 52.68 20.2202 52.7 20.2202" stroke="#010101" stroke-width="0.25" stroke-miterlimit="10"/>
<path d="M0.54002 7.92009C0.54002 7.92009 0.52002 7.87009 0.52002 7.84009" stroke="#010101" stroke-width="0.25" stroke-miterlimit="10"/>
<path d="M0.540039 7.76017C0.540039 7.76017 0.590039 7.69017 0.620039 7.67017" stroke="#010101" stroke-width="0.25" stroke-miterlimit="10"/>
<path d="M0.619995 26.4902C0.619995 26.4902 0.679995 26.4702 0.709995 26.4702" stroke="#010101" stroke-width="0.25" stroke-miterlimit="10"/>
<path d="M52.96 14.2002C52.96 14.2002 52.95 14.2302 52.94 14.2402C52.94 14.2402 52.92 14.2602 52.91 14.2702" stroke="#010101" stroke-width="0.25" stroke-miterlimit="10"/>
<path d="M17 33.7002C17 33.7002 17.02 33.7602 17.02 33.7902" stroke="#010101" stroke-width="0.25" stroke-miterlimit="10"/>
<path d="M52.91 26.8101C52.91 26.8101 52.91 26.8101 52.9 26.8101" stroke="#010101" stroke-width="0.25" stroke-miterlimit="10"/>
<path d="M52.91 13.9702C52.91 13.9702 52.93 13.9902 52.94 14.0002C52.94 14.0102 52.96 14.0202 52.96 14.0302" stroke="#010101" stroke-width="0.25" stroke-miterlimit="10"/>
<path d="M52.91 14.26C52.91 14.26 52.91 14.26 52.9 14.26" stroke="#010101" stroke-width="0.25" stroke-miterlimit="10"/>
<path d="M52.9 14.27C52.9 14.27 52.83 14.3 52.79 14.3" stroke="#010101" stroke-width="0.25" stroke-miterlimit="10"/>
<path d="M52.96 14.03C52.96 14.03 52.96 14.05 52.97 14.06" stroke="#010101" stroke-width="0.25" stroke-miterlimit="10"/>
<path d="M43.13 33.9101C43.13 33.9101 43.13 33.9101 43.13 33.9001" stroke="#010101" stroke-width="0.25" stroke-miterlimit="10"/>
<path d="M16.98 33.9101C16.91 33.9901 16.79 34.0001 16.71 33.9301C16.63 33.8601 16.62 33.7401 16.69 33.6601C16.76 33.5801 16.88 33.5701 16.96 33.6401C16.98 33.6601 16.99 33.6801 17 33.7001" stroke="#010101" stroke-width="0.25" stroke-miterlimit="10"/>
<path d="M0.709961 26.4702C0.809961 26.4702 0.899961 26.5602 0.899961 26.6602" stroke="#010101" stroke-width="0.25" stroke-miterlimit="10"/>
<path d="M52.6 26.6602C52.6 26.5602 52.69 26.4702 52.79 26.4702C52.89 26.4702 52.98 26.5602 52.98 26.6602C52.98 26.6902 52.98 26.7202 52.96 26.7402" stroke="#010101" stroke-width="0.25" stroke-miterlimit="10"/>
<path d="M52.79 14.3002C52.69 14.3002 52.6 14.2202 52.6 14.1102C52.6 14.0102 52.68 13.9202 52.79 13.9202C52.84 13.9202 52.88 13.9302 52.92 13.9602" stroke="#010101" stroke-width="0.25" stroke-miterlimit="10"/>
<path d="M16.99 33.9001C16.99 33.9001 16.99 33.9001 16.98 33.9101" stroke="#010101" stroke-width="0.25" stroke-miterlimit="10"/>
<path d="M52.98 7.84009C52.98 7.94009 52.89 8.03009 52.79 8.03009" stroke="#010101" stroke-width="0.25" stroke-miterlimit="10"/>
<path d="M52.7 7.67013C52.77 7.64013 52.85 7.64013 52.91 7.69013" stroke="#010101" stroke-width="0.25" stroke-miterlimit="10"/>
<path d="M23.29 0.600166C23.35 0.510166 23.47 0.490166 23.55 0.550166C23.64 0.610166 23.66 0.730166 23.6 0.810166C23.54 0.900166 23.42 0.920166 23.34 0.860166C23.29 0.830166 23.26 0.770166 23.26 0.710166" stroke="#010101" stroke-width="0.25" stroke-miterlimit="10"/>
<path d="M10.31 0.880127C10.31 0.880127 10.25 0.900127 10.22 0.900127" stroke="#010101" stroke-width="0.25" stroke-miterlimit="10"/>
<path d="M0.79997 26.83C0.70997 26.88 0.58997 26.83 0.53997 26.75C0.48997 26.66 0.52997 26.54 0.61997 26.5" stroke="#010101" stroke-width="0.25" stroke-miterlimit="10"/>
<path d="M10.38 0.600098C10.38 0.600098 10.39 0.620098 10.4 0.630098" stroke="#010101" stroke-width="0.25" stroke-miterlimit="10"/>
<path d="M52.79 20.2002C52.79 20.2002 52.87 20.2102 52.9 20.2302" stroke="#010101" stroke-width="0.25" stroke-miterlimit="10"/>
<path d="M3.45004 0.600098C3.45004 0.600098 3.42004 0.670098 3.42004 0.710098" stroke="#010101" stroke-width="0.25" stroke-miterlimit="10"/>
<path d="M52.96 20.4702C52.96 20.4702 52.95 20.5002 52.94 20.5102C52.94 20.5102 52.92 20.5302 52.91 20.5402" stroke="#010101" stroke-width="0.25" stroke-miterlimit="10"/>
<path d="M30.23 0.620098C30.23 0.620098 30.23 0.610098 30.22 0.600098" stroke="#010101" stroke-width="0.25" stroke-miterlimit="10"/>
<path d="M30.2 0.590088C30.2 0.590088 30.1999 0.590088 30.2099 0.600088" stroke="#010101" stroke-width="0.25" stroke-miterlimit="10"/>
<path d="M30.25 0.710205C30.25 0.780205 30.21 0.850205 30.15 0.880205" stroke="#010101" stroke-width="0.25" stroke-miterlimit="10"/>
<path d="M0.530029 14.06C0.530029 14.06 0.530029 14.04 0.540029 14.03" stroke="#010101" stroke-width="0.25" stroke-miterlimit="10"/>
<path d="M43.4701 33.79C43.4701 33.79 43.4601 33.87 43.4301 33.9" stroke="#010101" stroke-width="0.25" stroke-miterlimit="10"/>
<path d="M49.89 0.52002C49.89 0.52002 49.85 0.52002 49.83 0.53002" stroke="#010101" stroke-width="0.25" stroke-miterlimit="10"/>
<path d="M3.76 0.590078C3.76 0.590078 3.76 0.590078 3.75 0.580078" stroke="#010101" stroke-width="0.25" stroke-miterlimit="10"/>
<path d="M43.09 33.7901C43.09 33.6901 43.18 33.6001 43.28 33.6001" stroke="#010101" stroke-width="0.25" stroke-miterlimit="10"/>
<path d="M43.28 0.900049C43.21 0.900049 43.14 0.860049 43.11 0.800049" stroke="#010101" stroke-width="0.25" stroke-miterlimit="10"/>
<path d="M43.13 0.590039C43.13 0.590039 43.15 0.570039 43.16 0.560039C43.17 0.560039 43.18 0.540039 43.2 0.540039" stroke="#010101" stroke-width="0.25" stroke-miterlimit="10"/>
<path d="M10.22 33.6001C10.29 33.6001 10.35 33.6401 10.39 33.7001" stroke="#010101" stroke-width="0.25" stroke-miterlimit="10"/>
<path d="M43.47 0.710205C43.47 0.810205 43.39 0.900205 43.28 0.900205" stroke="#010101" stroke-width="0.25" stroke-miterlimit="10"/>
<path d="M10.06 33.9001C10.06 33.9001 10.06 33.8901 10.05 33.8801" stroke="#010101" stroke-width="0.25" stroke-miterlimit="10"/>
<path d="M3.60999 33.9802C3.60999 33.9802 3.64999 33.9802 3.66999 33.9802" stroke="#010101" stroke-width="0.25" stroke-miterlimit="10"/>
<path d="M0.709961 20.2002C0.809961 20.2002 0.899961 20.2902 0.899961 20.3902" stroke="#010101" stroke-width="0.25" stroke-miterlimit="10"/>
<path d="M36.75 33.9602C36.75 33.9602 36.73 33.9602 36.72 33.9702" stroke="#010101" stroke-width="0.25" stroke-miterlimit="10"/>
<path d="M36.52 33.9101C36.52 33.9101 36.52 33.9101 36.52 33.9001" stroke="#010101" stroke-width="0.25" stroke-miterlimit="10"/>
<path d="M0.599966 20.54C0.599966 20.54 0.599966 20.54 0.589966 20.54" stroke="#010101" stroke-width="0.25" stroke-miterlimit="10"/>
<path d="M50.0801 33.7902C50.0801 33.7902 50.0801 33.7302 50.0601 33.7002" stroke="#010101" stroke-width="0.25" stroke-miterlimit="10"/>
<path d="M23.39 33.9702C23.39 33.9702 23.37 33.9702 23.36 33.9602" stroke="#010101" stroke-width="0.25" stroke-miterlimit="10"/>
<path d="M23.59 33.9102C23.59 33.9102 23.57 33.9302 23.56 33.9302C23.55 33.9302 23.54 33.9502 23.52 33.9502" stroke="#010101" stroke-width="0.25" stroke-miterlimit="10"/>
<path d="M23.52 33.9602C23.52 33.9602 23.5 33.9602 23.49 33.9702" stroke="#010101" stroke-width="0.25" stroke-miterlimit="10"/>
<path d="M29.87 33.7901C29.87 33.7201 29.91 33.6601 29.97 33.6301" stroke="#010101" stroke-width="0.25" stroke-miterlimit="10"/>
<path d="M0.709976 8.03C0.709976 8.03 0.629976 8.02 0.599976 8" stroke="#010101" stroke-width="0.25" stroke-miterlimit="10"/>
<path d="M30.2 33.9102C30.2 33.9102 30.18 33.9302 30.17 33.9302C30.16 33.9302 30.15 33.9502 30.13 33.9502" stroke="#010101" stroke-width="0.25" stroke-miterlimit="10"/>
<path d="M52.79 26.8502C52.69 26.8502 52.6 26.7602 52.6 26.6602" stroke="#010101" stroke-width="0.25" stroke-miterlimit="10"/>
<path d="M23.36 33.9602C23.36 33.9602 23.33 33.9502 23.32 33.9402C23.32 33.9402 23.3 33.9202 23.29 33.9102" stroke="#010101" stroke-width="0.25" stroke-miterlimit="10"/>
<path d="M0.52002 7.84004C0.52002 7.84004 0.52002 7.80004 0.52002 7.79004" stroke="#010101" stroke-width="0.25" stroke-miterlimit="10"/>
<path d="M23.3 33.9101C23.3 33.9101 23.3 33.9101 23.3 33.9001" stroke="#010101" stroke-width="0.25" stroke-miterlimit="10"/>
<path d="M30.21 0.600098C30.21 0.600098 30.22 0.620098 30.23 0.630098" stroke="#010101" stroke-width="0.25" stroke-miterlimit="10"/>
<path d="M0.530029 7.79001C0.530029 7.79001 0.530029 7.77001 0.540029 7.76001" stroke="#010101" stroke-width="0.25" stroke-miterlimit="10"/>
<path d="M49.96 0.530029C49.96 0.530029 50.04 0.580029 50.06 0.620029" stroke="#010101" stroke-width="0.25" stroke-miterlimit="10"/>
<path d="M49.89 0.52002C49.89 0.52002 49.93 0.52002 49.95 0.53002" stroke="#010101" stroke-width="0.25" stroke-miterlimit="10"/>
<path d="M0.709961 7.65015C0.809961 7.65015 0.899961 7.74015 0.899961 7.84015" stroke="#010101" stroke-width="0.25" stroke-miterlimit="10"/>
<path d="M3.67004 33.9702C3.67004 33.9702 3.69004 33.9702 3.70004 33.9602" stroke="#010101" stroke-width="0.25" stroke-miterlimit="10"/>
<path d="M0.599966 8C0.599966 8 0.599966 8 0.589966 8" stroke="#010101" stroke-width="0.25" stroke-miterlimit="10"/>
<path d="M3.43994 33.8801C3.43994 33.8801 3.43994 33.9001 3.44994 33.9001" stroke="#010101" stroke-width="0.25" stroke-miterlimit="10"/>
<path d="M52.96 26.7402C52.96 26.7402 52.95 26.7702 52.94 26.7802C52.94 26.7802 52.92 26.8002 52.91 26.8102" stroke="#010101" stroke-width="0.25" stroke-miterlimit="10"/>
<path d="M36.58 33.6201C36.58 33.6201 36.64 33.6001 36.67 33.6001" stroke="#010101" stroke-width="0.25" stroke-miterlimit="10"/>
<path d="M3.54004 33.9702C3.54004 33.9702 3.54004 33.9702 3.55004 33.9702" stroke="#010101" stroke-width="0.25" stroke-miterlimit="10"/>
<path d="M0.590039 7.99017C0.590039 7.99017 0.570039 7.97017 0.560039 7.96017C0.560039 7.95017 0.540039 7.94017 0.540039 7.92017" stroke="#010101" stroke-width="0.25" stroke-miterlimit="10"/>
<path d="M3.52004 33.6201C3.46004 33.6501 3.42004 33.7201 3.42004 33.7901" stroke="#010101" stroke-width="0.25" stroke-miterlimit="10"/>
<path d="M49.98 33.9602C49.98 33.9602 50 33.9502 50.01 33.9402" stroke="#010101" stroke-width="0.25" stroke-miterlimit="10"/>
<path d="M23.36 33.6201C23.36 33.6201 23.42 33.6001 23.45 33.6001" stroke="#010101" stroke-width="0.25" stroke-miterlimit="10"/>
<path d="M52.9 26.8201C52.9 26.8201 52.83 26.8501 52.79 26.8501" stroke="#010101" stroke-width="0.25" stroke-miterlimit="10"/>
<path d="M3.75 33.6602C3.75 33.6602 3.8 33.7402 3.8 33.7902" stroke="#010101" stroke-width="0.25" stroke-miterlimit="10"/>
<path d="M16.99 0.600098C16.99 0.600098 17.03 0.670098 17.03 0.710098" stroke="#010101" stroke-width="0.25" stroke-miterlimit="10"/>
<path d="M50.04 0.600088C50.04 0.600088 50.04 0.600088 50.03 0.590088" stroke="#010101" stroke-width="0.25" stroke-miterlimit="10"/>
<path d="M52.79 8.03009C52.69 8.03009 52.6 7.94009 52.6 7.84009" stroke="#010101" stroke-width="0.25" stroke-miterlimit="10"/>
<path d="M50.03 0.580039C50.03 0.580039 50.01 0.560039 50 0.560039C49.99 0.560039 49.98 0.540039 49.96 0.540039" stroke="#010101" stroke-width="0.25" stroke-miterlimit="10"/>
<path d="M17.02 33.79C17.02 33.79 17.01 33.87 16.98 33.9" stroke="#010101" stroke-width="0.25" stroke-miterlimit="10"/>
<path d="M0.899961 7.84009C0.899961 7.94009 0.819961 8.03009 0.709961 8.03009" stroke="#010101" stroke-width="0.25" stroke-miterlimit="10"/>
<path d="M49.97 0.540039C49.97 0.540039 49.97 0.540039 49.96 0.540039" stroke="#010101" stroke-width="0.25" stroke-miterlimit="10"/>
<path d="M3.75005 33.9202C3.70005 33.9702 3.62005 34.0002 3.55005 33.9702" stroke="#010101" stroke-width="0.25" stroke-miterlimit="10"/>
<path d="M52.9 20.2302C52.97 20.2802 53 20.3602 52.97 20.4402" stroke="#010101" stroke-width="0.25" stroke-miterlimit="10"/>
<path d="M3.54004 33.97C3.47004 33.94 3.42004 33.87 3.42004 33.79" stroke="#010101" stroke-width="0.25" stroke-miterlimit="10"/>
<path d="M52.6 7.84017C52.6 7.77017 52.64 7.70017 52.7 7.67017" stroke="#010101" stroke-width="0.25" stroke-miterlimit="10"/>
<path d="M49.9599 0.530029C49.9599 0.530029 49.96 0.530029 49.95 0.530029" stroke="#010101" stroke-width="0.25" stroke-miterlimit="10"/>
<path d="M3.52002 33.6202C3.60002 33.5802 3.69002 33.6002 3.75002 33.6602" stroke="#010101" stroke-width="0.25" stroke-miterlimit="10"/>
<path d="M52.98 14.1101C52.98 14.1101 52.98 14.1501 52.98 14.1701" stroke="#010101" stroke-width="0.25" stroke-miterlimit="10"/>
<path d="M3.8 33.79C3.8 33.79 3.78 33.88 3.75 33.92" stroke="#010101" stroke-width="0.25" stroke-miterlimit="10"/>
<path d="M10.39 33.7001C10.44 33.7901 10.4 33.9101 10.31 33.9601C10.22 34.0101 10.1 33.9701 10.05 33.8801C9.99998 33.7901 10.04 33.6701 10.13 33.6201" stroke="#010101" stroke-width="0.25" stroke-miterlimit="10"/>
<path d="M3.8 0.710205C3.8 0.710205 3.78 0.800205 3.75 0.840205" stroke="#010101" stroke-width="0.25" stroke-miterlimit="10"/>
<path d="M23.4399 33.6001C23.5399 33.6001 23.6299 33.6901 23.6299 33.7901C23.6299 33.8401 23.6099 33.8801 23.5799 33.9101" stroke="#010101" stroke-width="0.25" stroke-miterlimit="10"/>
<path d="M52.97 7.78003C52.97 7.78003 52.97 7.82003 52.97 7.84003" stroke="#010101" stroke-width="0.25" stroke-miterlimit="10"/>
<path d="M23.53 33.9601C23.44 34.0101 23.32 33.9701 23.27 33.8801" stroke="#010101" stroke-width="0.25" stroke-miterlimit="10"/>
<path d="M23.25 33.7901C23.25 33.7201 23.29 33.6501 23.35 33.6201" stroke="#010101" stroke-width="0.25" stroke-miterlimit="10"/>
<path d="M29.97 33.6202C30.06 33.5702 30.18 33.6102 30.23 33.7002C30.27 33.7702 30.25 33.8502 30.2 33.9102" stroke="#010101" stroke-width="0.25" stroke-miterlimit="10"/>
<path d="M0.119995 3.75012V0.120117" stroke="#010101" stroke-width="0.25" stroke-miterlimit="10"/>
<path d="M52.97 20.4402C52.97 20.4402 52.97 20.4602 52.96 20.4702" stroke="#010101" stroke-width="0.25" stroke-miterlimit="10"/>
<path d="M30.14 33.96C30.05 34.01 29.93 33.97 29.88 33.88C29.87 33.85 29.86 33.82 29.86 33.79" stroke="#010101" stroke-width="0.25" stroke-miterlimit="10"/>
<path d="M52.91 7.69019C52.91 7.69019 52.93 7.71019 52.94 7.72019C52.94 7.73019 52.96 7.74019 52.96 7.75019" stroke="#010101" stroke-width="0.25" stroke-miterlimit="10"/>
<path d="M36.67 33.6001C36.77 33.6001 36.86 33.6901 36.86 33.7901C36.86 33.8901 36.77 33.9801 36.67 33.9801C36.61 33.9801 36.56 33.9501 36.52 33.9101" stroke="#010101" stroke-width="0.25" stroke-miterlimit="10"/>
<path d="M36.51 33.9001C36.45 33.8101 36.47 33.7001 36.56 33.6401C36.56 33.6401 36.57 33.6401 36.58 33.6301" stroke="#010101" stroke-width="0.25" stroke-miterlimit="10"/>
<path d="M0.900049 26.6602C0.900049 26.7302 0.860049 26.8002 0.800049 26.8302" stroke="#010101" stroke-width="0.25" stroke-miterlimit="10"/>
<path d="M53.38 3.75V30.75" stroke="#010101" stroke-width="0.25" stroke-miterlimit="10"/>
<path d="M49.75 33.6602C49.82 33.5802 49.94 33.5802 50.02 33.6502C50.04 33.6702 50.05 33.6802 50.06 33.7002" stroke="#010101" stroke-width="0.25" stroke-miterlimit="10"/>
<path d="M50.08 33.79C50.08 33.85 50.05 33.9 50.01 33.94" stroke="#010101" stroke-width="0.25" stroke-miterlimit="10"/>
<path d="M52.96 7.76001C52.96 7.76001 52.96 7.78001 52.97 7.79001" stroke="#010101" stroke-width="0.25" stroke-miterlimit="10"/>
<path d="M49.98 33.9602C49.9 34.0002 49.81 33.9802 49.75 33.9202" stroke="#010101" stroke-width="0.25" stroke-miterlimit="10"/>
<path d="M49.75 33.9202C49.68 33.8502 49.68 33.7402 49.75 33.6602" stroke="#010101" stroke-width="0.25" stroke-miterlimit="10"/>
<path d="M0.119995 30.75V3.75" stroke="#010101" stroke-width="0.25" stroke-miterlimit="10"/>
<path d="M49.75 0.580029C49.75 0.580029 49.8 0.540029 49.83 0.530029" stroke="#010101" stroke-width="0.25" stroke-miterlimit="10"/>
<path d="M50.08 0.710205C50.08 0.810205 49.99 0.900205 49.89 0.900205C49.84 0.900205 49.79 0.880205 49.75 0.840205" stroke="#010101" stroke-width="0.25" stroke-miterlimit="10"/>
<path d="M49.75 0.840078C49.68 0.770078 49.68 0.660078 49.75 0.580078" stroke="#010101" stroke-width="0.25" stroke-miterlimit="10"/>
<path d="M0.119995 34.38V30.75" stroke="#010101" stroke-width="0.25" stroke-miterlimit="10"/>
<path d="M43.11 0.800088C43.08 0.730088 43.08 0.650088 43.13 0.590088" stroke="#010101" stroke-width="0.25" stroke-miterlimit="10"/>
<path d="M43.1899 0.540092C43.2799 0.490092 43.3999 0.530092 43.4499 0.620092" stroke="#010101" stroke-width="0.25" stroke-miterlimit="10"/>
<path d="M36.58 0.540092C36.67 0.490092 36.79 0.530092 36.84 0.620092C36.89 0.710092 36.85 0.830092 36.76 0.880092C36.67 0.930092 36.55 0.890092 36.5 0.800092C36.47 0.730092 36.47 0.650092 36.52 0.590092" stroke="#010101" stroke-width="0.25" stroke-miterlimit="10"/>
<path d="M3.75 34.3801H0.119995" stroke="#010101" stroke-width="0.25" stroke-miterlimit="10"/>
<path d="M30.1399 0.880092C30.0499 0.930092 29.9299 0.890092 29.8799 0.800092C29.8299 0.710092 29.8699 0.590092 29.9599 0.540092C30.0499 0.490092 30.1699 0.530092 30.2199 0.620092C30.2299 0.650092 30.2399 0.680092 30.2399 0.710092" stroke="#010101" stroke-width="0.25" stroke-miterlimit="10"/>
<path d="M17.02 0.71002C17.02 0.81002 16.93 0.90002 16.83 0.90002C16.73 0.90002 16.64 0.81002 16.64 0.71002C16.64 0.61002 16.73 0.52002 16.83 0.52002C16.9 0.52002 16.97 0.56002 17 0.62002" stroke="#010101" stroke-width="0.25" stroke-miterlimit="10"/>
<path d="M10.0599 0.600166C10.1199 0.510166 10.2399 0.490166 10.3199 0.550166C10.3699 0.590166 10.3999 0.640166 10.3999 0.710166" stroke="#010101" stroke-width="0.25" stroke-miterlimit="10"/>
<path d="M53.38 34.3801H49.76" stroke="#010101" stroke-width="0.25" stroke-miterlimit="10"/>
<path d="M3.75004 0.840205C3.68004 0.920205 3.56004 0.920205 3.48004 0.850205C3.44004 0.810205 3.42004 0.760205 3.42004 0.710205" stroke="#010101" stroke-width="0.25" stroke-miterlimit="10"/>
<path d="M52.97 14.0601C52.97 14.0601 52.97 14.1001 52.97 14.1201" stroke="#010101" stroke-width="0.25" stroke-miterlimit="10"/>
<path d="M3.44995 0.600166C3.50995 0.510166 3.62995 0.490166 3.70995 0.550166C3.71995 0.550166 3.72995 0.570166 3.73995 0.580166" stroke="#010101" stroke-width="0.25" stroke-miterlimit="10"/>
<path d="M3.75 0.580078C3.75 0.580078 3.77 0.610078 3.78 0.620078" stroke="#010101" stroke-width="0.25" stroke-miterlimit="10"/>
<path d="M23.25 0.710098C23.25 0.710098 23.26 0.630098 23.28 0.600098" stroke="#010101" stroke-width="0.25" stroke-miterlimit="10"/>
<path d="M49.75 34.3801H3.75" stroke="#010101" stroke-width="0.25" stroke-miterlimit="10"/>
<path d="M0.540039 14.0301C0.590039 13.9401 0.700039 13.9001 0.790039 13.9401C0.880039 13.9901 0.920039 14.1001 0.880039 14.1901C0.830039 14.2801 0.720039 14.3201 0.630039 14.2801C0.590039 14.2601 0.560039 14.2301 0.540039 14.2001" stroke="#010101" stroke-width="0.25" stroke-miterlimit="10"/>
<path d="M0.540022 14.1901C0.540022 14.1901 0.520022 14.1001 0.530022 14.0601" stroke="#010101" stroke-width="0.25" stroke-miterlimit="10"/>
<path d="M0.90002 20.3902C0.90002 20.4902 0.81002 20.5802 0.71002 20.5802C0.61002 20.5802 0.52002 20.4902 0.52002 20.3902C0.52002 20.3202 0.56002 20.2502 0.62002 20.2202" stroke="#010101" stroke-width="0.25" stroke-miterlimit="10"/>
<path d="M10.39 0.620088C10.39 0.620088 10.38 0.600088 10.37 0.590088" stroke="#010101" stroke-width="0.25" stroke-miterlimit="10"/>
<path d="M49.75 0.120117H53.37" stroke="#010101" stroke-width="0.25" stroke-miterlimit="10"/>
<path d="M10.4099 0.710205C10.4099 0.780205 10.3699 0.850205 10.3099 0.880205" stroke="#010101" stroke-width="0.25" stroke-miterlimit="10"/>
<path d="M0.119995 0.120117H3.75" stroke="#010101" stroke-width="0.25" stroke-miterlimit="10"/>
<path d="M3.80001 0.710088C3.80001 0.710088 3.79001 0.630088 3.76001 0.590088" stroke="#010101" stroke-width="0.25" stroke-miterlimit="10"/>
<path d="M10.22 0.900205C10.12 0.900205 10.03 0.820205 10.03 0.710205" stroke="#010101" stroke-width="0.25" stroke-miterlimit="10"/>
<path d="M50.08 0.710098C50.08 0.710098 50.07 0.630098 50.04 0.600098" stroke="#010101" stroke-width="0.25" stroke-miterlimit="10"/>
<path d="M49.72 33.8801C49.72 33.8801 49.73 33.9001 49.74 33.9101C49.74 33.9101 49.74 33.9101 49.74 33.9201" stroke="#010101" stroke-width="0.25" stroke-miterlimit="10"/>
<path d="M43.4301 0.600098C43.4301 0.600098 43.4701 0.670098 43.4701 0.710098" stroke="#010101" stroke-width="0.25" stroke-miterlimit="10"/>
<path d="M53.38 30.75V34.38" stroke="#010101" stroke-width="0.25" stroke-miterlimit="10"/>
<path d="M23.29 33.9C23.29 33.9 23.26 33.83 23.26 33.79" stroke="#010101" stroke-width="0.25" stroke-miterlimit="10"/>
<path d="M52.7 20.2202C52.7 20.2202 52.7599 20.2002 52.7799 20.2002" stroke="#010101" stroke-width="0.25" stroke-miterlimit="10"/>
<path d="M53.38 0.120117V3.74012" stroke="#010101" stroke-width="0.25" stroke-miterlimit="10"/>
<path d="M3.75 0.120117H49.75" stroke="#010101" stroke-width="0.25" stroke-miterlimit="10"/>
</g>
<defs>
<clipPath id="clip0_1347_7572">
<rect width="53.5" height="34.5" fill="white"/>
</clipPath>
</defs>
</svg>
