<svg width="118" height="102" viewBox="0 0 118 102" fill="none" xmlns="http://www.w3.org/2000/svg">
<g clip-path="url(#clip0_546_1855)">
<path d="M0.499985 51C0.499985 36 0.499985 21 0.499985 6C0.499985 5.5 0.699983 5 0.0999832 4.7C-1.67862e-05 4.7 -1.52588e-05 4.4 -1.52588e-05 4.2C-1.52588e-05 3 -1.52588e-05 1.8 -1.52588e-05 0.6C-1.52588e-05 0.1 0.0999832 0 0.599983 0C2.59998 0 4.49998 0 6.49998 0C6.99998 0 7.19998 0.2 7.09998 0.7C7.09998 1.1 7.19998 1.3 7.59998 1.3C9.89998 1.1 12.1 1.7 14.3 1.7C44.3 1.7 74.4 1.7 104.4 1.6C105.9 1.6 107.4 1.1 109 1.3C109.3 1.3 109.4 1.1 109.4 0.9C109.4 0.1 109.8 0 110.4 0C112.2 0 114 0 115.8 0C116.5 0 116.8 0.2 116.7 0.9C116.6 1.5 116.7 1.9 117.5 1.8C118 1.7 118 2.1 118 2.5C118.1 4.1 117.7 5.7 117.8 7.3C117.9 8.8 117.6 10.4 117.6 11.9C118 26.8 117.7 41.6 117.8 56.4C117.8 66.9 117.8 77.5 117.8 88C117.8 89.6 117.6 91.2 117.7 92.7C117.9 94.9 117.8 97.2 117.9 99.4C117.9 99.9 117.9 100.4 117.2 100.3C116.7 100.3 116.8 100.7 116.8 101C116.9 101.8 116.5 102 115.8 102C114 102 112.2 102.1 110.5 102C102.1 101.2 93.7 101.8 85.3 101.7C76.9 101.6 68.5 101.7 60.1 101.7C51.7 101.7 43.2 101.7 34.8 101.7C26.1 101.7 17.4 101.6 8.69998 101.8C6.29998 101.8 3.89999 102.1 1.39999 102.1C0.0999863 102.1 0.0999832 102.1 0.0999832 100.8C0.0999832 100 0.0999832 99.2 0.0999832 98.5C0.0999832 98 -0.100015 97.5 0.499985 97.2C0.699985 97.1 0.599983 96.6 0.599983 96.3C0.499983 81 0.499985 66 0.499985 51Z" fill="black"/>
<path d="M115.5 50.8C115.5 65.8 115.5 80.8 115.5 95.7C115.5 96.5 115.3 96.8 114.5 96.7C113.4 96.6 112.2 96.7 111 96.7C110.5 96.7 110.2 96.6 110.3 96C110.3 95.9 110.3 95.7 110.3 95.6C110.3 65.7 110.3 35.9 110.3 5.99997C110.3 5.09997 110.5 4.69997 111.4 4.79997C112.5 4.89997 113.5 4.89997 114.6 4.79997C115.3 4.79997 115.5 4.99997 115.5 5.69997C115.4 7.29997 115.5 8.79997 115.5 10.4C115.5 23.8 115.5 37.3 115.5 50.8Z" fill="white"/>
<path d="M6.19995 50.8C6.19995 65.8 6.19995 80.8 6.19995 95.7C6.19995 96.5 5.99995 96.8 5.19995 96.7C4.09995 96.6 2.99996 96.7 1.79996 96.7C1.39996 96.7 1.09995 96.6 1.19995 96.1C1.19995 95.9 1.19995 95.7 1.19995 95.6C1.19995 65.7 1.19995 35.9 1.19995 5.99999C1.19995 5.09999 1.39996 4.79999 2.29996 4.79999C3.39996 4.89999 4.49995 4.79999 5.59995 4.79999C5.99995 4.79999 6.19995 4.89999 6.19995 5.39999C6.19995 5.59999 6.19995 5.89999 6.19995 6.09999C6.19995 21 6.19995 35.9 6.19995 50.8Z" fill="white"/>
<path d="M58.3 4.5C41.7 4.5 25 4.5 8.39999 4.5C7.49999 4.5 7.09999 4.3 7.29999 3.4C7.29999 3.3 7.29999 3.1 7.29999 3C7.19999 2.2 7.39998 2 8.19998 2C41.6 2 75 2 108.3 2C109.2 2 109.3 2.3 109.3 3.1C109.3 4.6 109.3 4.6 107.9 4.6C91.3 4.5 74.8 4.5 58.3 4.5Z" fill="white"/>
<path d="M25.2 49.9C25.2 35.3 25.2 20.7 25.2 6C25.2 5.2 25.4 4.9 26.2 5C28 5.1 28 5 28 6.9C28 35.8 28 64.7 28 93.6C28 94.5 27.8 94.8 26.8 94.8C25.1 94.7 25.1 94.8 25.1 93.1C25.2 78.7 25.2 64.3 25.2 49.9Z" fill="white"/>
<path d="M88.5 49.8C88.5 35.2 88.5 20.6 88.5 6C88.5 5.2 88.7 5 89.5 5C91.3 5.1 91.3 5 91.3 6.9C91.3 35.8 91.3 64.7 91.3 93.6C91.3 94.5 91.1 94.8 90.1 94.8C88.4 94.7 88.4 94.8 88.4 93C88.5 78.6 88.5 64.2 88.5 49.8Z" fill="white"/>
<path d="M99 49.8C99 35.2 99 20.7 99 6.1C99 5.3 99.1 5 100 5C101.8 5.1 101.8 5 101.8 6.9C101.8 35.8 101.8 64.7 101.8 93.6C101.8 94.6 101.5 94.8 100.6 94.7C98.9 94.6 98.9 94.7 98.9 92.9C99 78.6 99 64.2 99 49.8Z" fill="white"/>
<path d="M46.4 49.9C46.4 35.3 46.4 20.7 46.4 6C46.4 5.2 46.6 4.9 47.4 5C49.2 5.1 49.2 5 49.2 6.9C49.2 35.8 49.2 64.7 49.2 93.6C49.2 94.5 49 94.8 48.1 94.8C46.4 94.7 46.4 94.8 46.4 93.1C46.4 78.7 46.4 64.3 46.4 49.9Z" fill="white"/>
<path d="M14.8 49.8C14.8 35.2 14.8 20.6 14.8 6C14.8 5.2 15 5 15.8 5C17.6 5.1 17.6 5 17.6 6.9C17.6 35.8 17.6 64.7 17.6 93.6C17.6 94.6 17.3 94.8 16.4 94.8C14.7 94.7 14.7 94.8 14.7 93C14.8 78.6 14.8 64.2 14.8 49.8Z" fill="white"/>
<path d="M59.7 49.9C59.7 64.5 59.7 79.1 59.7 93.8C59.7 94.6 59.5 94.9 58.7 94.8C56.9 94.7 56.9 94.8 56.9 92.9C56.9 64 56.9 35.1 56.9 6.2C56.8 5.3 57.1 5 58 5C59.7 5.1 59.7 5 59.7 6.7C59.7 21.1 59.7 35.5 59.7 49.9Z" fill="white"/>
<path d="M70.1999 50C70.1999 64.6 70.1999 79.2 70.1999 93.8C70.1999 94.6 69.9999 94.8 69.1999 94.8C67.3999 94.7 67.3999 94.8 67.3999 92.9C67.3999 64 67.3999 35.1 67.3999 6.2C67.3999 5.3 67.6999 5 68.5999 5C70.2999 5.1 70.2999 5 70.2999 6.8C70.1999 21.2 70.1999 35.6 70.1999 50Z" fill="white"/>
<path d="M80.9 49.9C80.9 64.5 80.9 79.1 80.9 93.7C80.9 94.6 80.7 94.9 79.8 94.8C78 94.7 78 94.8 78 93C78 64.1 78 35.1 78 6.2C78 5.3 78.2 5 79.1 5C80.8 5.1 80.8 5 80.8 6.7C80.9 21.1 80.9 35.5 80.9 49.9Z" fill="white"/>
<path d="M33.2 49.9C33.2 64.5 33.2 79.1 33.2 93.7C33.2 94.6 33 94.8 32.1 94.8C30.5 94.7 30.5 94.8 30.5 93.1C30.5 64.2 30.5 35.2 30.5 6.3C30.5 5 30.5 5 31.8 5C31.9 5 32.1 5 32.2 5C33 4.9 33.2 5.2 33.2 6C33.2 20.6 33.2 35.3 33.2 49.9Z" fill="white"/>
<path d="M35.9 49.9C35.9 35.3 35.9 20.7 35.9 6C35.9 5.2 36.1 4.9 36.9 5C38.6 5.1 38.6 5 38.6 6.7C38.6 35.6 38.6 64.6 38.6 93.5C38.6 94.7 38.6 94.7 37.4 94.7C35.9 94.7 35.9 94.7 35.9 93.3C35.9 78.9 35.9 64.4 35.9 49.9Z" fill="white"/>
<path d="M22.8 50C22.8 64.6 22.8 79.2 22.8 93.8C22.8 94.6 22.6 94.8 21.8 94.8C20.1 94.7 20.1 94.8 20.1 93.1C20.1 64.1 20.1 35.2 20.1 6.2C20.1 5.2 20.4 5 21.3 5C22.8 5.1 22.8 5 22.8 6.6C22.8 21.1 22.8 35.5 22.8 50Z" fill="white"/>
<path d="M54.4 50C54.4 64.6 54.4 79.1 54.4 93.7C54.4 94.5 54.3 94.8 53.4 94.8C51.8 94.7 51.8 94.8 51.8 93.1C51.8 64.2 51.8 35.2 51.8 6.30003C51.8 4.90003 51.6 5.10003 52.9 5.10003C54.4 5.10003 54.4 5.10003 54.4 6.70003C54.4 21.1 54.4 35.5 54.4 50Z" fill="white"/>
<path d="M9.60004 49.9C9.60004 35.3 9.60004 20.7 9.60004 6C9.60004 5.2 9.80004 4.9 10.6 5C12.3 5.1 12.3 5 12.3 6.7C12.3 35.7 12.3 64.6 12.3 93.6C12.3 94.5 12.1 94.8 11.1 94.8C9.60004 94.7 9.60004 94.8 9.60004 93.2C9.60004 78.8 9.60004 64.4 9.60004 49.9Z" fill="white"/>
<path d="M107 50C107 64.6 107 79.2 107 93.8C107 94.6 106.8 94.8 106 94.8C104.3 94.7 104.3 94.8 104.3 93.1C104.3 64.1 104.3 35.2 104.3 6.2C104.3 5.3 104.5 5 105.5 5C107 5.1 107 5 107 6.6C107 21.1 107 35.5 107 50Z" fill="white"/>
<path d="M64.9 49.9C64.9 64.5 64.9 79.1 64.9 93.7C64.9 94.6 64.7 94.9 63.8 94.8C62.2 94.7 62.2 94.8 62.2 93.2C62.2 64.2 62.2 35.3 62.2 6.29998C62.2 5.09998 62.2 5.09998 63.4 5.09998C64.9 5.09998 64.9 5.09998 64.9 6.49998C64.9 20.9 64.9 35.4 64.9 49.9Z" fill="white"/>
<path d="M93.8 49.9C93.8 35.3 93.8 20.7 93.8 6.1C93.8 5.3 94 5 94.9 5C96.5 5.1 96.5 5 96.5 6.6C96.5 35.6 96.5 64.5 96.5 93.5C96.5 94.7 96.5 94.7 95.3 94.7C93.8 94.7 93.8 94.7 93.8 93.3C93.8 78.9 93.8 64.4 93.8 49.9Z" fill="white"/>
<path d="M75.2999 49.9C75.2999 64.5 75.2999 79.1 75.2999 93.7C75.2999 94.6 75.0999 95 74.1999 94.8C74.0999 94.8 73.9999 94.8 73.7999 94.8C72.9999 94.9 72.6999 94.6 72.6999 93.8C72.6999 64.6 72.6999 35.4 72.6999 6.20001C72.6999 5.40001 72.8999 5.00001 73.6999 5.10001C73.8999 5.10001 74.0999 5.10001 74.2999 5.10001C74.8999 5.00001 75.1999 5.20001 75.1999 5.90001C75.0999 7.80001 75.1999 9.60001 75.1999 11.5C75.2999 24.2 75.2999 37.1 75.2999 49.9Z" fill="white"/>
<path d="M83.3 55.2C83.3 42.4 83.3 29.6 83.3 16.8C83.3 16 83.5 15.8 84.3 15.8C86 15.9 86 15.8 86 17.5C86 42.9 86 68.3 86 93.6C86 94.6 85.7 94.8 84.8 94.8C83.3 94.7 83.3 94.8 83.3 93.2C83.3 80.5 83.3 67.9 83.3 55.2Z" fill="white"/>
<path d="M41.2 55.2C41.2 42.4 41.2 29.7 41.2 16.9C41.2 16.1 41.3 15.8 42.2 15.8C43.8 15.9 43.8 15.8 43.8 17.5C43.8 42.9 43.8 68.2 43.8 93.6C43.8 95 44 94.8 42.7 94.8C41.2 94.8 41.2 94.8 41.2 93.2C41.2 80.5 41.2 67.9 41.2 55.2Z" fill="white"/>
<path d="M30.2 50C30.2 64.6 30.2 79.2 30.2 93.8C30.2 94.8 29.9 95 28.9 94.8C28.7 94.7 28.6 94.7 28.6 94.5C28.6 94.3 28.6 94 28.6 93.8C28.6 64.6 28.6 35.4 28.6 6.19998C28.6 5.69998 28.4 5.09998 29.3 5.09998C30.1 5.09998 30.2 5.29998 30.2 6.09998C30.2 20.6 30.2 35.3 30.2 50Z" fill="white"/>
<path d="M35.4 49.9C35.4 64.5 35.4 79.1 35.4 93.8C35.4 94.6 35.2 94.9 34.4 94.8C33.9 94.8 33.8 94.6 33.8 94.1C33.8 93.9 33.8 93.7 33.8 93.5C33.8 64.4 33.8 35.2 33.8 6.1C33.8 5.7 33.4 5 34.4 5C35.2 5 35.4 5.1 35.4 6C35.4 20.7 35.4 35.3 35.4 49.9Z" fill="white"/>
<path d="M40.7 49.9C40.7 64.5 40.7 79.1 40.7 93.8C40.7 94.7 40.4 94.9 39.6 94.8C39.2 94.8 39 94.7 39.1 94.3C39.1 94.2 39.1 94 39.1 93.9C39.1 64.6 39.1 35.4 39.1 6.09998C39.1 5.59998 38.9 5.09998 39.8 5.09998C40.5 5.09998 40.7 5.29998 40.7 5.99998C40.7 20.6 40.7 35.2 40.7 49.9Z" fill="white"/>
<path d="M44.3 49.8C44.3 35.2 44.3 20.6 44.3 6.00002C44.3 5.00002 44.4 4.90002 45.4 5.00002C45.7 5.00002 45.9 5.10002 45.9 5.50002C45.9 5.70002 45.9 5.90002 45.9 6.10002C45.9 35.3 45.9 64.5 45.9 93.7C45.9 94.1 46.3 94.8 45.3 94.8C44.5 94.8 44.3 94.6 44.3 93.8C44.3 79.1 44.3 64.5 44.3 49.8Z" fill="white"/>
<path d="M72.2999 50C72.2999 64.6 72.2999 79.1 72.2999 93.7C72.2999 94.8 72.1999 94.9 71.0999 94.8C70.7999 94.8 70.6999 94.7 70.6999 94.4C70.6999 94.2 70.6999 94 70.6999 93.8C70.6999 64.6 70.6999 35.4 70.6999 6.19998C70.6999 5.69998 70.4999 5.09998 71.3999 5.09998C72.1999 5.09998 72.2999 5.29998 72.2999 6.09998C72.2999 20.6 72.2999 35.3 72.2999 50Z" fill="white"/>
<path d="M77.5 50C77.5 64.6 77.5 79.2 77.5 93.8C77.5 94.8 77.4 94.9 76.4 94.8C76.1 94.8 75.9 94.7 75.9 94.3C75.9 94.1 75.9 93.9 75.9 93.7C75.9 64.5 75.9 35.3 75.9 6.1C75.9 5.7 75.5 5 76.5 5C77.3 5 77.5 5.2 77.5 6C77.5 20.7 77.5 35.3 77.5 50Z" fill="white"/>
<path d="M109.1 49.9C109.1 64.5 109.1 79.1 109.1 93.8C109.1 94.8 109 94.9 108 94.8C107.7 94.8 107.5 94.7 107.5 94.3C107.5 94.1 107.5 93.9 107.5 93.7C107.5 64.5 107.5 35.3 107.5 6.1C107.5 5.7 107.1 5 108.1 5C108.9 5 109.1 5.2 109.1 6C109.1 20.7 109.1 35.3 109.1 49.9Z" fill="white"/>
<path d="M98.4 49.9C98.4 64.5 98.4 79.1 98.4 93.8C98.4 94.2 98.7 94.8 97.8 94.8C96.9 94.9 96.9 94.4 96.9 93.8C96.9 77.1 96.9 60.3 96.9 43.6C96.9 31.1 96.9 18.6 96.9 6.10002C96.9 5.70002 96.6 5.10002 97.5 5.10002C98.4 5.00002 98.4 5.50002 98.4 6.10002C98.4 20.6 98.4 35.3 98.4 49.9Z" fill="white"/>
<path d="M91.9 49.9C91.9 35.2 91.9 20.6 91.9 5.89999C91.9 5.39999 91.8 4.89999 92.6 4.99999C93.1 4.99999 93.4 5.09999 93.3 5.69999C93.3 5.79999 93.3 5.89999 93.3 5.99999C93.3 35.3 93.3 64.5 93.3 93.8C93.3 94.2 93.6 94.8 92.7 94.8C91.9 94.8 91.9 94.5 91.9 93.9C91.9 79.2 91.9 64.6 91.9 49.9Z" fill="white"/>
<path d="M86.5 49.8C86.5 35.2 86.5 20.6 86.5 6C86.5 5.6 86.2 5 87.1 5C88 5 88 5.4 88 6C88 25.3 88 44.6 88 64C88 74 88 83.9 88 93.9C88 94.7 87.8 94.9 87 94.8C86.6 94.8 86.5 94.6 86.5 94.2C86.5 93.9 86.5 93.7 86.5 93.4C86.5 78.9 86.5 64.3 86.5 49.8Z" fill="white"/>
<path d="M102.4 49.8C102.4 35.2 102.4 20.6 102.4 5.89999C102.4 5.39999 102.4 4.89999 103.2 4.99999C103.8 4.99999 104 5.19999 103.9 5.69999C103.9 5.79999 103.9 5.89999 103.9 6.09999C103.9 35.3 103.9 64.5 103.9 93.7C103.9 94.1 104.3 94.7 103.4 94.8C102.6 94.9 102.5 94.6 102.5 93.9C102.4 79.2 102.4 64.5 102.4 49.8Z" fill="white"/>
<path d="M66.8 49.9C66.8 64.5 66.8 79.1 66.8 93.8C66.8 94.2 67.1 94.8 66.2 94.8C65.3 94.9 65.3 94.4 65.3 93.8C65.3 74.8 65.3 55.8 65.3 36.7C65.3 26.4 65.3 16.2 65.3 5.90002C65.3 5.10002 65.5 4.90002 66.3 5.00002C66.7 5.00002 66.8 5.20002 66.8 5.60002C66.8 5.90002 66.8 6.10002 66.8 6.40002C66.8 20.9 66.8 35.4 66.8 49.9Z" fill="white"/>
<path d="M61.7 50C61.7 64.6 61.7 79.2 61.7 93.9C61.7 94.4 61.8 94.9 61 94.8C60.5 94.8 60.2 94.6 60.3 94.1C60.3 94 60.3 93.9 60.3 93.7C60.3 64.5 60.3 35.3 60.3 6.1C60.3 5.7 59.9 5.1 60.8 5C61.5 5 61.7 5.2 61.7 6C61.7 20.6 61.7 35.3 61.7 50Z" fill="white"/>
<path d="M81.4 49.9C81.4 35.2 81.4 20.6 81.4 5.89999C81.4 4.99999 81.7 4.89999 82.4 4.99999C82.8 4.99999 82.9 5.19999 82.8 5.49999C82.8 5.59999 82.8 5.79999 82.8 5.89999C82.8 35.2 82.8 64.4 82.8 93.7C82.8 94.1 83.1 94.6 82.3 94.7C81.6 94.8 81.4 94.6 81.4 93.8C81.4 79.2 81.4 64.6 81.4 49.9Z" fill="white"/>
<path d="M56.3 50C56.3 64.6 56.3 79.2 56.3 93.8C56.3 94.2 56.6 94.8 55.7 94.8C54.8 94.9 54.8 94.4 54.8 93.8C54.8 73.3 54.8 52.8 54.8 32.3C54.8 23.5 54.8 14.7 54.8 5.90002C54.8 5.10002 55 4.90002 55.8 5.00002C56.1 5.00002 56.3 5.10002 56.3 5.50002C56.3 5.80002 56.3 6.10002 56.3 6.40002C56.3 20.9 56.3 35.5 56.3 50Z" fill="white"/>
<path d="M14.2 50C14.2 64.6 14.2 79.2 14.2 93.8C14.2 94.2 14.5 94.8 13.6 94.8C12.7 94.9 12.8 94.4 12.8 93.8C12.8 71.6 12.8 49.4 12.8 27.1C12.8 20 12.8 13 12.8 5.90001C12.8 5.20001 12.9 4.90001 13.7 5.00001C14.1 5.00001 14.3 5.10001 14.3 5.60001C14.3 5.90001 14.3 6.10001 14.3 6.40001C14.2 20.9 14.2 35.5 14.2 50Z" fill="white"/>
<path d="M51.2 50C51.2 64.6 51.2 79.2 51.2 93.9C51.2 94.4 51.3 94.9 50.5 94.8C50 94.8 49.7 94.6 49.8 94.1C49.8 94 49.8 93.9 49.8 93.7C49.8 64.5 49.8 35.3 49.8 6.1C49.8 5.7 49.4 5.1 50.3 5C51 5 51.2 5.2 51.2 6C51.2 20.6 51.2 35.3 51.2 50Z" fill="white"/>
<path d="M18.1 49.8C18.1 35.2 18.1 20.6 18.1 5.89999C18.1 5.39999 18 4.89999 18.8 4.99999C19.3 4.99999 19.6 5.19999 19.5 5.69999C19.5 5.79999 19.5 5.89999 19.5 6.09999C19.5 35.3 19.5 64.5 19.5 93.7C19.5 94.1 19.9 94.7 19 94.8C18.2 94.9 18.1 94.6 18.1 93.9C18.1 79.2 18.1 64.5 18.1 49.8Z" fill="white"/>
<path d="M24.7 49.9C24.7 64.5 24.7 79.1 24.7 93.8C24.7 94.2 25 94.8 24.1 94.8C23.2 94.9 23.2 94.4 23.2 93.8C23.2 76 23.2 58.2 23.2 40.3C23.2 28.8 23.2 17.4 23.2 5.90002C23.2 5.10002 23.4 4.90002 24.1 5.00002C24.5 5.00002 24.6 5.20002 24.6 5.60002C24.6 5.90002 24.6 6.10002 24.6 6.40002C24.7 20.9 24.7 35.4 24.7 49.9Z" fill="white"/>
<path d="M9.1 50C9.1 64.6 9.1 79.2 9.1 93.9C9.1 94.4 9.20001 94.9 8.40001 94.8C7.90001 94.8 7.6 94.6 7.7 94.1C7.7 94 7.7 93.9 7.7 93.7C7.7 64.5 7.7 35.3 7.7 6.10001C7.7 5.70001 7.3 5.10001 8.2 5.00001C9 4.90001 9.1 5.20001 9.1 5.90001C9.1 20.6 9.1 35.3 9.1 50Z" fill="white"/>
<path d="M20.5 97.8C24.7 97.8 28.8 97.8 33 97.8C33.6 97.8 33.9 97.9 33.9 98.7C33.9 100.9 33.9 100.9 31.7 100.9C23.8 100.9 15.9 100.9 8.00002 100.9C7.20002 100.9 7.00002 100.7 7.00002 99.9C7.00002 97.8 7.00002 97.8 9.10002 97.8C13 97.8 16.8 97.8 20.5 97.8Z" fill="white"/>
<path d="M97.1 97.8C100.9 97.8 104.8 97.8 108.6 97.8C109.2 97.8 109.5 97.9 109.4 98.6C109.4 100.8 109.4 100.8 107.2 100.8C100 100.8 92.8 100.8 85.6 100.8C84.9 100.8 84.7 100.7 84.7 99.9C84.7 97.7 84.7 97.7 86.9 97.7C90.3 97.8 93.7 97.8 97.1 97.8Z" fill="white"/>
<path d="M59.3 100.9C56.3 100.9 53.3 100.9 50.3 100.9C49.6 100.9 49.5 100.7 49.5 100C49.5 97.8 49.5 97.8 51.7 97.8C57.3 97.8 62.9 97.8 68.5 97.8C69.2 97.8 69.4 98 69.4 98.7C69.4 100.9 69.4 100.9 67.2 100.9C64.5 100.9 61.9 100.9 59.3 100.9Z" fill="white"/>
<path d="M20.3999 97.1C16.1999 97.1 12 97.1 7.79995 97.1C6.99995 97.1 6.99995 96.8 6.99995 96.2C6.99995 95.6 7.09995 95.3 7.79995 95.3C16.3 95.3 24.8 95.3 33.3 95.3C34.2 95.3 33.9999 95.7 34.0999 96.3C34.1999 97 33.9 97.1 33.3 97.1C28.9 97.1 24.5999 97.1 20.3999 97.1Z" fill="white"/>
<path d="M76.9 100.9C74.8 100.9 72.7 100.9 70.6 100.9C70 100.9 69.8 100.8 69.8 100.1C69.8 99.5 69.8 98.8 69.8 98.2C69.8 97.7 70 97.6 70.4 97.6C74.7 97.6 79 97.6 83.4 97.6C83.8 97.6 84 97.7 84 98.2C84.2 100.8 84.2 100.8 81.5 100.8C80 100.9 78.5 100.9 76.9 100.9Z" fill="white"/>
<path d="M41.5 100.9C39.4 100.9 37.3 100.9 35.2 100.9C34.6 100.9 34.4 100.7 34.4 100.1C34.4 99.5 34.4 98.8 34.4 98.2C34.4 97.7 34.6 97.6 35 97.6C39.3 97.6 43.6 97.6 48 97.6C48.4 97.6 48.6 97.7 48.6 98.2C48.8 100.8 48.8 100.8 46.1 100.8C44.7 100.9 43.1 100.9 41.5 100.9Z" fill="white"/>
<path d="M97.3 97.1C93.4 97.1 89.6 97.1 85.7 97.1C85 97.1 84.7 96.9 84.8 96.2C84.8 95.5 85 95.3 85.7 95.3C93.5 95.3 101.3 95.3 109 95.3C109.7 95.3 109.9 95.5 109.9 96.2C109.9 96.9 109.7 97.2 109 97.1C105 97.1 101.2 97.1 97.3 97.1Z" fill="white"/>
<path d="M59.3 97.1C56.3 97.1 53.3 97.1 50.3 97.1C49.5 97.1 49.5 96.8 49.5 96.2C49.5 95.6 49.6 95.3 50.3 95.3C56.4 95.3 62.5 95.3 68.7 95.3C69.6 95.3 69.4 95.7 69.5 96.3C69.6 97 69.3 97.1 68.7 97.1C65.4 97.1 62.3 97.1 59.3 97.1Z" fill="white"/>
<path d="M109.7 5.09998C109.7 35 109.7 64.8 109.7 94.7C109.6 94.7 109.6 94.7 109.5 94.7C109.5 64.8 109.5 35 109.5 5.09998C109.6 5.09998 109.7 5.09998 109.7 5.09998Z" fill="white"/>
<path d="M76.9 97.1C74.8 97.1 72.8 97.1 70.7 97.1C70 97.1 69.9 96.8 70 96.2C70 95.7 69.8 95.2 70.7 95.2C74.9 95.2 79.1 95.2 83.3 95.2C84.1 95.2 84.1 95.5 84.1 96.1C84.1 96.6 84.2 97.1 83.4 97C81.2 97.1 79.1 97.1 76.9 97.1Z" fill="white"/>
<path d="M41.7 97.1C39.6 97.1 37.6 97.1 35.5 97.1C34.7 97.1 34.7 96.8 34.7 96.2C34.7 95.6 34.7 95.3 35.5 95.3C39.7 95.3 43.8 95.3 48 95.3C48.9 95.3 48.7 95.7 48.8 96.3C48.8 97 48.6 97.2 48 97.1C45.8 97.1 43.7 97.1 41.7 97.1Z" fill="white"/>
<path d="M0.900002 96.5C0.900002 66 0.900002 35.6 0.900002 5.09998H1C1 35.6 1 66 0.900002 96.5C1 96.5 1 96.5 0.900002 96.5Z" fill="white"/>
<path d="M6.49998 96.5C6.49998 66 6.49998 35.5 6.49998 5.09998H6.59998C6.49998 35.6 6.49998 66 6.49998 96.5Z" fill="white"/>
<path d="M7.09998 5.29999C7.09998 35.1 7.09998 64.8 7.09998 94.6H6.99998C6.99998 64.8 6.99998 35 7.09998 5.29999C6.99998 5.29999 6.99998 5.29999 7.09998 5.29999Z" fill="white"/>
<path d="M38.9 5.29999C38.9 35.1 38.9 64.8 38.9 94.6H38.8C38.8 64.8 38.8 35 38.9 5.29999Z" fill="white"/>
<path d="M116.5 57C116.5 42.8 116.5 28.6 116.5 14.4C116.6 14.4 116.6 14.4 116.7 14.4C116.7 28.6 116.7 42.8 116.7 57C116.6 57 116.5 57 116.5 57Z" fill="white"/>
<path d="M116.5 88.4C116.5 78.6 116.5 68.7 116.5 58.9C116.6 58.9 116.6 58.9 116.7 58.9C116.7 68.7 116.7 78.6 116.7 88.4C116.6 88.4 116.5 88.4 116.5 88.4Z" fill="white"/>
<path d="M7.50002 4.70001C23.8 4.70001 40.1 4.70001 56.4 4.70001V4.80001C40.2 4.80001 23.8 4.80001 7.50002 4.70001C7.50002 4.80001 7.50002 4.80001 7.50002 4.70001Z" fill="white"/>
<path d="M117 56.9C117 42.8 117 28.7 117 14.6H117.1C117.1 28.7 117.1 42.8 117 56.9Z" fill="white"/>
<path d="M117.4 14.6C117.4 28.7 117.4 42.8 117.4 56.8H117.3C117.3 42.8 117.3 28.7 117.4 14.6Z" fill="white"/>
<path d="M116.1 56.8C116.1 42.7 116.1 28.7 116.1 14.6H116.2C116.2 28.7 116.2 42.7 116.1 56.8Z" fill="white"/>
<path d="M98.5 4.80001C84.7 4.80001 70.9 4.80001 57.1 4.80001V4.70001C70.9 4.70001 84.7 4.70001 98.5 4.80001Z" fill="white"/>
<path d="M83.7 11C83.7 10.8 83.7 10.5 83.7 10.3C83.5 9.40002 83.9 9.10002 84.8 9.20002C85.5 9.20002 85.8 9.30002 85.7 10.1C85.6 10.8 85.7 11.5 85.7 12.2C85.7 12.7 85.6 12.8 85.1 12.8C83.7 12.8 83.7 12.9 83.7 11.4C83.7 11.3 83.7 11.1 83.7 11Z" fill="white"/>
<path d="M43.4999 11C43.4999 11.2 43.4999 11.5 43.4999 11.7C43.6999 12.6 43.2999 12.9 42.3999 12.8C41.6999 12.8 41.4999 12.6 41.4999 11.9C41.5999 11.2 41.4999 10.5 41.4999 9.79998C41.4999 9.29998 41.6999 9.19998 42.0999 9.19998C43.4999 9.09998 43.4999 9.09998 43.4999 11Z" fill="white"/>
<path d="M84.6 7.40003C84.2 7.30003 83.6 7.60003 83.4 7.20003C83.2 6.60003 83.1 5.70003 83.4 5.30003C83.9 4.60003 84.8 5.10003 85.6 5.00003C86.1 5.00003 86 5.40003 86 5.70003C86 5.80003 86 5.90003 86 6.10003C86 7.40003 86 7.40003 84.6 7.40003Z" fill="white"/>
<path d="M42.5 7.40001C42.1 7.30001 41.5 7.60001 41.3 7.30001C41.1 6.70001 41 5.80001 41.3 5.40001C41.8 4.70001 42.7 5.2 43.5 5.1C44 5 43.9 5.4 43.9 5.7C43.9 5.8 43.9 5.9 43.9 6.1C43.9 7.4 43.9 7.40001 42.5 7.40001Z" fill="white"/>
<path d="M116.1 88.2C116.1 78.5 116.1 68.8 116.1 59.2H116.2C116.2 68.8 116.2 78.5 116.1 88.2Z" fill="white"/>
<path d="M117 88.3C117 78.6 117 68.9 117 59.1H117.1C117.1 68.8 117.1 78.5 117 88.3Z" fill="white"/>
<path d="M117.4 59.1C117.4 68.8 117.4 78.5 117.4 88.2H117.3C117.3 78.5 117.3 68.8 117.4 59.1Z" fill="white"/>
<path d="M7.39996 97.5C16.2 97.5 24.9 97.5 33.7 97.5V97.6C24.9 97.6 16.1 97.6 7.39996 97.5Z" fill="white"/>
<path d="M85 97.5C93.1 97.5 101.2 97.5 109.3 97.5V97.6C101.2 97.6 93.1 97.6 85 97.5Z" fill="white"/>
<path d="M69.1 97.6C62.6 97.6 56.2 97.6 49.7 97.6V97.5C56.1 97.5 62.6 97.5 69.1 97.6Z" fill="white"/>
<path d="M42.6 13.1C43.1 13.1 43.6 12.9 43.6 13.8C43.6 14.7 42.9 14.3 42.5 14.4C42.1 14.5 41.6 14.6 41.6 13.8C41.6 12.8 42.3 13.2 42.6 13.1Z" fill="white"/>
<path d="M84.5999 14.4C84.1999 14.3 83.5999 14.6 83.5999 13.8C83.5999 12.9 84.1999 13.2 84.5999 13.2C84.9999 13.2 85.5999 12.9 85.5999 13.8C85.6999 14.6 85.0999 14.3 84.5999 14.4Z" fill="white"/>
<path d="M99.2 4.70001C102.5 4.70001 105.8 4.70001 109.1 4.70001V4.80001C105.8 4.80001 102.5 4.80001 99.2 4.70001C99.2 4.80001 99.2 4.80001 99.2 4.70001Z" fill="white"/>
<path d="M116.8 14.1C116.8 12.5 116.8 10.9 116.8 9.40002C116.9 9.40002 116.9 9.40002 117 9.40002C117 11 117 12.6 117 14.1C117 14.1 116.9 14.1 116.8 14.1Z" fill="white"/>
<path d="M116.8 93.6C116.8 92 116.8 90.4 116.8 88.9C116.9 88.9 116.9 88.9 117 88.9C117.2 90.5 117.1 92.1 117 93.6C117 93.6 116.9 93.6 116.8 93.6Z" fill="white"/>
<path d="M1.60001 4.29998C0.500006 4.69998 0.300009 4.59998 0.400009 3.69998C1.00001 3.59998 1.70001 3.49998 2.30001 3.79998C2.40001 4.39998 2.00001 4.29998 1.60001 4.29998Z" fill="white"/>
<path d="M4.99996 3.80001C5.59996 3.50001 6.09996 3.70001 6.69996 3.70001C6.79996 4.60001 6.59996 4.70001 5.59996 4.40001C5.19996 4.30001 4.79996 4.30001 4.99996 3.80001Z" fill="white"/>
<path d="M111.2 4.29998C111.1 4.29998 111.1 4.39998 111 4.39998C110.7 4.49998 110.3 4.59998 110 4.39998C110 4.29998 110 3.99998 110 3.89998C110.2 3.49998 110.6 3.59998 111 3.59998C111.3 3.59998 111.6 3.49998 111.8 3.79998C111.9 4.29998 111.6 4.29998 111.2 4.29998Z" fill="white"/>
<path d="M114.4 3.80001C114.8 3.40001 115.2 3.70001 115.6 3.60001C116 3.60001 116.2 3.70001 116.2 4.20001C116.2 4.70001 115.8 4.50001 115.6 4.50001C115.4 4.50001 115.2 4.40001 115 4.30001C114.6 4.30001 114.3 4.30001 114.4 3.80001Z" fill="white"/>
<path d="M2.29998 98.2C1.79998 98.5 1.19998 98.3 0.599977 98.3C0.299977 98.1 0.19998 97.8 0.39998 97.6C0.69998 97.3 1.19998 97.4 1.59998 97.6C1.89998 97.8 2.39998 97.6 2.29998 98.2Z" fill="white"/>
<path d="M115 97.6C115.4 97.4 115.8 97.4 116.2 97.5C116.3 97.5 116.3 97.8 116.2 98C116.2 98.1 116 98.2 116 98.2C115.5 98.3 115 98.4 114.5 98.1C114.4 97.8 114.7 97.7 115 97.6Z" fill="white"/>
<path d="M111.8 98.2C111.3 98.5 110.8 98.3 110.3 98.3C110.1 98.1 109.8 97.8 110 97.6C110.3 97.2 110.8 97.4 111.2 97.6C111.5 97.7 111.9 97.8 111.8 98.2Z" fill="white"/>
<path d="M6.49994 98.3C5.99994 98.3 5.49994 98.5 4.99994 98.2C4.99994 97.8 5.29994 97.7 5.59994 97.6C5.79994 97.5 5.99993 97.5 6.19993 97.5C6.39993 97.5 6.69994 97.4 6.79994 97.6C6.89994 97.9 6.69994 98.1 6.49994 98.3Z" fill="white"/>
<path d="M116.7 93.9C116.7 95 116.7 96.1 116.7 97.1C116.2 96 116.5 95 116.4 93.9C116.5 93.9 116.6 93.9 116.7 93.9Z" fill="white"/>
<path d="M5.40003 0.699987C5.80003 0.499987 6.30002 0.499987 6.70002 0.599987C6.80002 0.599987 6.80002 0.899987 6.70002 0.999987C6.40002 1.39999 5.90003 1.09999 5.50003 1.19999C5.30003 1.19999 5.10003 1.29999 5.00003 0.999987C4.90003 0.799987 5.10003 0.699987 5.40003 0.699987Z" fill="white"/>
<path d="M115.3 1.30002C115 1.20002 114.5 1.50002 114.5 1.10002C114.5 0.600021 115.1 0.600021 115.6 0.600021C115.9 0.600021 116.3 0.500021 116.2 1.00002C116.1 1.60002 115.6 1.10002 115.3 1.30002Z" fill="white"/>
<path d="M5.00005 100.9C5.50005 100.6 6.00005 100.8 6.50005 100.8C6.70005 100.8 6.80005 101 6.80005 101.2C6.80005 101.4 6.70005 101.5 6.50005 101.5C6.10005 101.5 5.70005 101.6 5.40005 101.3C5.10005 101.3 4.90005 101.2 5.00005 100.9Z" fill="white"/>
<path d="M1.79996 101.2C1.39996 101.4 0.899954 101.4 0.499954 101.3C0.399954 101.3 0.399954 101 0.499954 100.9C0.799954 100.5 1.29995 100.8 1.69995 100.7C1.89995 100.7 2.09995 100.6 2.19995 100.9C2.19995 101.2 2.09996 101.3 1.79996 101.2Z" fill="white"/>
<path d="M110.9 1.3C110.6 1.1 110.1 1.6 110 0.9C109.9 0.5 110.3 0.5 110.5 0.5C111 0.5 111.6 0.5 111.7 1C111.8 1.5 111.2 1.1 110.9 1.3Z" fill="white"/>
<path d="M115.6 101.4C115.2 101.2 114.6 101.4 114.5 100.8C114.5 100.5 115.1 100.6 115.4 100.7C115.7 100.7 116.2 100.4 116.2 101.1C116.2 101.5 115.9 101.4 115.6 101.4Z" fill="white"/>
<path d="M110.9 100.7C111.2 100.9 111.7 100.5 111.6 101C111.5 101.4 110.9 101.5 110.5 101.5C110.3 101.5 109.9 101.6 109.9 101.2C110.1 100.3 110.7 100.9 110.9 100.7Z" fill="white"/>
<path d="M2.19995 1.09998C1.69995 1.49998 1.19995 1.19998 0.699951 1.29998C0.499951 1.29998 0.399956 1.09998 0.399956 0.899984C0.399956 0.699984 0.499951 0.599984 0.699951 0.599984C1.09995 0.599984 1.49996 0.499984 1.79996 0.799984C1.99996 0.699984 2.19995 0.799984 2.19995 1.09998Z" fill="white"/>
<path d="M110.6 97C112.2 97 113.7 97 115.3 97V97.1C113.7 97.1 112.1 97.1 110.6 97Z" fill="white"/>
<path d="M2.00003 98.9C2.00003 99.1 2.30003 99.4 1.90003 99.4C1.40003 99.4 0.900033 99.5 0.400033 99.3V99.1C0.800033 98.8 1.20003 99 1.70003 99C1.80003 98.9 1.90003 98.9 2.00003 98.9Z" fill="white"/>
<path d="M5.10004 99C5.60004 99 6.00005 99 6.50005 98.9C6.60005 98.9 6.70005 98.9 6.80005 99.1C6.80005 99.2 6.80004 99.4 6.70004 99.4C6.20004 99.5 5.60004 99.5 5.10004 99.4C4.90004 99.3 5.10004 99.1 5.10004 99Z" fill="white"/>
<path d="M111.9 2.5C111.3 3.2 110.8 3 110.3 3.1C110.1 3.1 110 3 110 2.8C110 2.5 110.2 2.5 110.4 2.5C110.8 2.5 111.3 2.5 111.9 2.5Z" fill="white"/>
<path d="M114.4 2.5C115 2.5 115.4 2.5 115.9 2.5C116 2.5 116.2 2.5 116.2 2.7C116.2 2.9 116.2 3 116 3C115.5 3 114.9 3.3 114.4 2.5Z" fill="white"/>
<path d="M1.89996 2.99998C1.49996 2.99998 1.19996 3.09998 0.799961 3.09998C0.599961 3.09998 0.299959 3.19998 0.399959 2.79998C0.399959 2.49998 0.599961 2.59998 0.799961 2.59998C1.19996 2.59998 1.49996 2.59998 1.89996 2.59998C2.49996 2.59998 1.89996 2.79998 1.89996 2.99998Z" fill="white"/>
<path d="M5.29995 2.99998C5.29995 2.79998 4.59995 2.59998 5.29995 2.49998C5.79995 2.49998 6.19994 2.39998 6.69994 2.59998C6.69994 2.59998 6.79994 2.89998 6.69994 2.89998C6.19994 3.09998 5.79995 3.09998 5.29995 2.99998Z" fill="white"/>
<path d="M114.7 99C115.1 99 115.5 99 115.9 99C116.1 99 116.2 99.1 116.2 99.3C116.2 99.4 116.1 99.5 116 99.5C115.5 99.5 115 99.6 114.6 99.5C114.2 99.2 114.7 99.1 114.7 99Z" fill="white"/>
<path d="M111.5 98.9C111.5 99.1 112.2 99.3 111.4 99.4C110.9 99.4 110.5 99.5 110 99.3V99C110.5 98.8 111 98.9 111.5 98.9Z" fill="white"/>
<path d="M1.5 97C3 97 4.5 97 6 97V97.1C4.5 97.1 3 97.1 1.5 97Z" fill="white"/>
<path d="M117.4 9.59998C117.4 11.1 117.4 12.5 117.4 14H117.3C117.3 12.5 117.3 11 117.4 9.59998Z" fill="white"/>
<path d="M116.5 9.59998C116.5 11 116.5 12.5 116.5 13.9H116.4C116.5 12.5 116.5 11.1 116.5 9.59998Z" fill="white"/>
<path d="M117.4 89.1C117.4 90.6 117.4 92 117.4 93.5H117.3C117.3 92 117.3 90.6 117.4 89.1Z" fill="white"/>
<path d="M116.4 93.4C116.4 92 116.4 90.5 116.4 89.1H116.5C116.5 90.6 116.5 92 116.4 93.4C116.5 93.4 116.5 93.4 116.4 93.4Z" fill="white"/>
<path d="M117 4.29998C116.7 3.59998 116.8 2.79998 117 2.09998C117.2 2.79998 117.1 3.49998 117 4.29998Z" fill="white"/>
<path d="M116.9 97.9C117.2 98.6 117.2 99.4 116.9 100.1C116.6 99.4 116.8 98.6 116.9 97.9Z" fill="white"/>
<path d="M1.49998 1.79999C1.59998 2.09999 1.99998 1.79999 2.09998 2.19999C1.59998 2.39999 1.09998 2.29999 0.599976 2.29999C0.499976 2.29999 0.399979 2.19999 0.399979 2.09999C0.399979 1.89999 0.499976 1.79999 0.599976 1.79999C0.899976 1.79999 1.19998 1.79999 1.49998 1.79999Z" fill="white"/>
<path d="M5.59995 1.89999C5.99995 1.89999 6.69995 1.59999 6.69995 2.09999C6.69995 2.59999 5.99995 2.29999 5.69995 2.29999C5.49995 2.29999 5.19995 2.39999 5.09995 2.19999C5.09995 1.79999 5.49995 2.19999 5.59995 1.89999Z" fill="white"/>
<path d="M117.4 2C117.6 2.7 117.7 3.5 117.4 4.2C117.2 3.5 117.3 2.8 117.4 2Z" fill="white"/>
<path d="M1.5 100.1C1.1 100.1 0.500002 100.4 0.400002 99.9C0.400002 99.4 1.1 99.7 1.4 99.7C1.6 99.7 1.9 99.6 2 99.9C2 100.2 1.6 99.8 1.5 100.1Z" fill="white"/>
<path d="M117 8.90001C117 7.50001 117 6.10001 117 4.70001C117 4.70001 117 4.70001 117.1 4.70001C117 6.10001 117 7.50001 117 8.90001Z" fill="white"/>
<path d="M117.3 8.89999C117.3 7.49999 117.3 6.09999 117.3 4.79999H117.4C117.4 6.09999 117.4 7.49999 117.3 8.89999Z" fill="white"/>
<path d="M110.9 1.79999C111.1 2.19999 111.6 1.79999 111.7 2.19999C111.5 2.49999 111.2 2.39999 110.9 2.29999C110.6 2.29999 110 2.49999 110 2.09999C110.1 1.59999 110.6 1.89999 110.9 1.79999Z" fill="white"/>
<path d="M115.2 1.89997C115.3 1.89997 115.5 1.79997 115.6 1.89997C115.8 1.89997 116.1 1.79997 116.1 2.19997C116.1 2.49997 115.8 2.39997 115.6 2.39997C115.2 2.39997 114.8 2.49997 114.3 2.29997C114.6 1.79997 115.1 2.19997 115.2 1.89997Z" fill="white"/>
<path d="M115.3 100.1C115.1 99.8 114.7 100.1 114.5 99.8C114.7 99.5 115.1 99.6 115.3 99.6C115.6 99.6 116.2 99.4 116.2 99.8C116.1 100.4 115.6 100.1 115.3 100.1Z" fill="white"/>
<path d="M111 100.1C110.8 100.1 110.7 100.2 110.5 100.1C110.3 100.1 110.1 100.1 110.1 99.8C110.1 99.5 110.3 99.6 110.5 99.6C110.9 99.6 111.4 99.5 111.9 99.7C111.6 100.2 111.1 99.8 111 100.1Z" fill="white"/>
<path d="M5.79996 100.1C5.59996 99.7 5.19995 100.2 4.99995 99.7C5.19995 99.4 5.49996 99.5 5.79996 99.6C6.09996 99.6 6.69995 99.4 6.69995 99.8C6.69995 100.4 6.09996 100.1 5.79996 100.1Z" fill="white"/>
<path d="M5.5 97.6C5.3 97.8 5.1 98 4.9 98.2C4.7 98.1 4.3 98.5 4.2 98C4.1 97.6 4.5 97.6 4.7 97.5C5 97.4 5.3 97.3 5.5 97.6Z" fill="white"/>
<path d="M84.6 8.4C84.5 8.3 84.1 8.7 84.1 8.1C84.1 7.6 84.4 7.7 84.6 7.7C84.8 7.7 85.1 7.4 85.1 8C85.2 8.6 84.9 8.4 84.6 8.4Z" fill="white"/>
<path d="M116.1 8.89998C116.1 7.59998 116.1 6.39998 116.1 5.09998H116.2C116.2 6.39998 116.2 7.59998 116.1 8.89998Z" fill="white"/>
<path d="M42.5 8.40003C42.4 8.30003 42 8.60003 42 8.10003C42 7.60003 42.3 7.70003 42.5 7.70003C42.7 7.70003 43 7.50003 43 8.00003C43.1 8.60003 42.8 8.40003 42.5 8.40003Z" fill="white"/>
<path d="M2.30005 98.2C2.00005 98.1 1.70004 97.9 1.60004 97.6C2.00004 97.3 2.30004 97.4 2.60004 97.6C2.80004 97.7 2.80005 97.9 2.80005 98C2.70005 98.3 2.50005 98.3 2.30005 98.2Z" fill="white"/>
<path d="M111.8 98.2C111.6 98 111.4 97.8 111.2 97.6C111.5 97.4 111.8 97.3 112.1 97.6C112.2 97.7 112.6 97.8 112.4 98.1C112.2 98.5 112 98.3 111.8 98.2Z" fill="white"/>
<path d="M115 97.6C114.8 97.8 114.6 98 114.4 98.2C114.2 98.3 114 98.5 113.8 98.2C113.6 97.8 114 97.8 114.1 97.7C114.3 97.3 114.7 97.4 115 97.6Z" fill="white"/>
<path d="M3.00004 2.5C3.30004 2.5 3.60004 2.5 3.50004 2.9C3.50004 3.3 3.20004 3.2 3.00004 3.2C2.70004 3.2 2.50004 3.1 2.50004 2.8C2.50004 2.4 2.90004 2.6 3.00004 2.5Z" fill="white"/>
<path d="M4.99998 3.79997C5.19998 3.99997 5.39998 4.19997 5.59998 4.39997C5.39998 4.69997 5.09998 4.59997 4.79998 4.49997C4.59998 4.39997 4.19998 4.39997 4.39998 3.99997C4.39998 3.49997 4.69998 3.59997 4.99998 3.79997Z" fill="white"/>
<path d="M117.4 94.1C117.4 95.2 117.4 96.3 117.4 97.4H117.3C117.3 96.3 117.3 95.2 117.4 94.1Z" fill="white"/>
<path d="M117 97.4C117 96.3 117 95.2 117 94.1H117.1C117.1 95.2 117.1 96.3 117 97.4Z" fill="white"/>
<path d="M43.3 14.7C43.6 14.7 43.7 14.8 43.7 15.1C43.7 15.4 43.5 15.4 43.3 15.4C43 15.4 42.8 15.4 42.8 15C42.8 14.7 43.1 14.7 43.3 14.7Z" fill="white"/>
<path d="M41.8 15.5C41.7 15.4 41.3 15.7 41.4 15.2C41.4 14.9 41.5 14.7 41.9 14.7C42.3 14.7 42.2 14.9 42.3 15.1C42.4 15.6 42 15.4 41.8 15.5Z" fill="white"/>
<path d="M1.60004 4.30001C1.80004 4.10001 2.10005 3.90001 2.30005 3.70001C2.50005 3.60001 2.70005 3.60001 2.80005 3.90001C2.80005 4.10001 2.80004 4.20001 2.60004 4.30001C2.30004 4.50001 1.90004 4.60001 1.60004 4.30001Z" fill="white"/>
<path d="M112.6 99.4C112.3 99.4 112.1 99.4 112.1 99.1C112.1 98.8 112.3 98.7 112.5 98.7C112.7 98.7 112.9 98.7 112.9 99C113 99.3 112.9 99.5 112.6 99.4Z" fill="white"/>
<path d="M112.5 2.5C112.8 2.5 113 2.5 113 2.9C113 3.3 112.8 3.3 112.5 3.3C112.3 3.3 112.1 3.3 112.1 3C112.1 2.6 112.2 2.5 112.5 2.5Z" fill="white"/>
<path d="M84.4 15.1C84.4 15.5 84.2 15.4 83.9 15.4C83.6 15.4 83.5 15.3 83.5 15C83.5 14.7 83.7 14.7 83.9 14.7C84.2 14.7 84.4 14.7 84.4 15.1Z" fill="white"/>
<path d="M114.4 3.79999C114.6 3.89999 114.8 4.09999 115 4.29999C114.7 4.49999 114.4 4.59999 114.1 4.29999C114 4.19999 113.6 4.09999 113.8 3.79999C114 3.49999 114.2 3.69999 114.4 3.79999Z" fill="white"/>
<path d="M113.6 98.7C113.9 98.7 114.1 98.7 114.1 99.1C114.1 99.5 113.9 99.4 113.6 99.4C113.4 99.4 113.2 99.4 113.2 99.1C113.2 98.8 113.4 98.7 113.6 98.7Z" fill="white"/>
<path d="M111.2 4.29999C111.4 4.09999 111.6 3.99999 111.8 3.79999C112 3.69999 112.2 3.49999 112.4 3.79999C112.6 4.09999 112.2 4.19999 112.1 4.29999C111.9 4.59999 111.5 4.59999 111.2 4.29999Z" fill="white"/>
<path d="M113.6 3.2C113.3 3.2 113.2 3.1 113.2 2.8C113.2 2.5 113.4 2.5 113.6 2.5C113.8 2.5 114.1 2.5 114.1 2.8C114.1 3.2 113.9 3.3 113.6 3.2Z" fill="white"/>
<path d="M3.40002 99.1C3.40002 99.5 3.20002 99.5 2.90002 99.5C2.70002 99.5 2.50002 99.5 2.50002 99.2C2.50002 98.9 2.70002 98.8 3.00002 98.8C3.30002 98.7 3.40002 98.8 3.40002 99.1Z" fill="white"/>
<path d="M10.6 1.6C9.59998 1.6 8.69997 1.6 7.69997 1.6V1.5C8.69997 1.5 9.59998 1.5 10.6 1.6Z" fill="white"/>
<path d="M106.1 1.5C107.1 1.5 108.1 1.5 109 1.5V1.6C108.1 1.6 107.1 1.6 106.1 1.5Z" fill="white"/>
<path d="M4.09995 3.20002C3.89995 3.20002 3.79996 3.10002 3.79996 2.80002C3.79996 2.40002 3.99996 2.40002 4.29996 2.40002C4.49996 2.40002 4.69995 2.40002 4.69995 2.70002C4.59995 3.10002 4.39995 3.20002 4.09995 3.20002Z" fill="white"/>
<path d="M85.2999 14.7C85.5999 14.7 85.7999 14.7 85.7999 15C85.7999 15.3 85.5999 15.4 85.3999 15.4C85.1999 15.4 84.8999 15.5 85.0999 15.1C85.1999 15 84.8999 14.6 85.2999 14.7Z" fill="white"/>
<path d="M116.1 96.8C116.1 95.9 116.1 95 116.1 94.1H116.2C116.2 95 116.2 95.9 116.1 96.8Z" fill="white"/>
<path d="M2.20003 1.1C2.10003 1 1.90004 0.8 1.80004 0.7C1.90004 0.5 2.10004 0.6 2.30004 0.5C2.60004 0.5 2.70004 0.6 2.80004 0.8C2.80004 0.9 2.90004 1 2.80004 1.1C2.60004 1.4 2.40003 1.2 2.20003 1.1Z" fill="white"/>
<path d="M1.50002 1.9C1.30002 1.5 0.900024 1.8 0.400024 1.5C1.20002 1.5 1.80002 1.5 2.40002 1.5C2.20002 2 1.80002 1.7 1.50002 1.9Z" fill="white"/>
<path d="M84.5 98.1C84.5 99 84.5 99.8 84.5 100.7H84.4C84.5 99.8 84.5 98.9 84.5 98.1Z" fill="white"/>
<path d="M1.50002 100.1C1.80002 100.2 2.20002 100 2.40002 100.4C1.80002 100.4 1.20002 100.4 0.500023 100.4C0.900023 100.2 1.30002 100.5 1.50002 100.1Z" fill="white"/>
<path d="M5.8 100.1C6 100.4 6.3 100.3 6.5 100.5C5.9 100.5 5.4 100.5 4.7 100.5C5.1 100 5.5 100.3 5.8 100.1Z" fill="white"/>
<path d="M3.00003 2.29999C2.80003 2.19999 2.50003 2.39999 2.50003 2.09999C2.50003 1.79999 2.80003 1.79999 3.10003 1.79999C3.30003 1.79999 3.60003 1.79999 3.50003 2.09999C3.50003 2.49999 3.20003 2.29999 3.00003 2.29999Z" fill="white"/>
<path d="M111 1.9C110.8 1.6 110.5 1.7 110.3 1.5C110.8 1.5 111.4 1.5 111.9 1.5C111.6 2 111.2 1.7 111 1.9Z" fill="white"/>
<path d="M5.40002 0.70002C5.30002 0.80002 5.10002 1.00002 5.00002 1.10002C4.80002 1.20002 4.60002 1.40002 4.40002 1.20002C4.20002 1.00002 4.40002 0.80002 4.50002 0.70002C4.70002 0.40002 5.10002 0.50002 5.40002 0.70002Z" fill="white"/>
<path d="M110.9 100.1C111.2 100.2 111.6 99.9 111.8 100.5C111.2 100.5 110.7 100.5 110.1 100.5C110.4 100.2 110.8 100.5 110.9 100.1Z" fill="white"/>
<path d="M115.2 100.1C115.3 100.4 115.7 100.2 116 100.5C115.4 100.5 114.8 100.5 114.3 100.5C114.6 100 115 100.3 115.2 100.1Z" fill="white"/>
<path d="M1.79992 101.2C1.89992 101.1 2.09992 100.9 2.19992 100.8C2.39992 100.7 2.59992 100.5 2.79992 100.7C2.99992 100.9 2.79992 101.1 2.69992 101.2C2.39992 101.5 2.09992 101.5 1.79992 101.2Z" fill="white"/>
<path d="M5.00002 100.9C5.10002 101 5.30002 101.2 5.40002 101.3C5.30002 101.5 5.10002 101.5 4.90002 101.5C4.60002 101.5 4.50002 101.5 4.40002 101.2C4.40002 101.1 4.30002 101 4.40002 100.9C4.60002 100.6 4.80002 100.8 5.00002 100.9Z" fill="white"/>
<path d="M5.6 1.8C5.4 1.7 5 1.9 4.7 1.5C5.3 1.5 5.9 1.5 6.5 1.5C6.3 1.8 5.8 1.5 5.6 1.8Z" fill="white"/>
<path d="M115.3 1.8C115 1.7 114.7 1.9 114.3 1.5C114.9 1.5 115.5 1.5 116 1.5C115.8 1.7 115.4 1.5 115.3 1.8Z" fill="white"/>
<path d="M0.600044 98.3C1.00004 98.8 1.50005 98.4 2.00005 98.5C2.10005 98.5 2.30005 98.5 2.30005 98.7C2.30005 98.9 2.10005 98.8 2.00005 98.8C1.60005 98.4 1.10004 98.7 0.700043 98.6C0.200043 98.6 0.200044 98.5 0.600044 98.3Z" fill="white"/>
<path d="M0.400047 3.69998C0.200047 3.29998 0.500049 3.29998 0.800049 3.29998C1.20005 3.29998 1.60005 3.49998 1.90005 3.09998C2.00005 3.19998 2.30005 3.09998 2.30005 3.29998C2.30005 3.49998 2.10005 3.49998 2.00005 3.49998C1.40005 3.49998 0.900047 3.19998 0.400047 3.69998Z" fill="white"/>
<path d="M111.5 99C111.2 98.6 110.7 98.8 110.3 98.8C110.2 98.8 110 98.8 110 98.6C110 98.4 110.2 98.5 110.3 98.5C110.6 98.9 111.1 98.6 111.5 98.7C111.6 98.7 111.8 98.6 111.8 98.9C111.8 98.9 111.6 98.9 111.5 99Z" fill="white"/>
<path d="M5.29994 3C5.59994 3.4 5.99994 3.2 6.29994 3.2C6.59994 3.2 6.79994 3.2 6.69994 3.6C6.29994 3.1 5.69994 3.4 5.19994 3.3C5.09994 3.3 4.79994 3.4 4.79994 3.1C4.89994 3 5.09994 3.1 5.29994 3Z" fill="white"/>
<path d="M113.6 1.79999C113.8 1.79999 114 1.69999 114.1 2.09999C114.1 2.39999 113.9 2.39999 113.7 2.39999C113.5 2.39999 113.3 2.39999 113.3 2.09999C113.2 1.79999 113.4 1.79999 113.6 1.79999Z" fill="white"/>
<path d="M4.59998 99.1C4.59998 99.4 4.39997 99.4 4.19997 99.4C3.89997 99.4 3.89998 99.2 3.89998 99C3.89998 98.8 3.99997 98.7 4.19997 98.7C4.49997 98.8 4.59998 98.9 4.59998 99.1Z" fill="white"/>
<path d="M6.49997 98.3C6.99997 98.5 6.89997 98.6 6.49997 98.7C5.99997 98.8 5.49996 98.5 5.09996 99C4.69996 98.8 4.69996 98.6 5.19996 98.6C5.59996 98.5 6.09997 98.8 6.49997 98.3Z" fill="white"/>
<path d="M112.6 1.79999C112.8 1.79999 113 1.79999 113 2.09999C113 2.39999 112.7 2.29999 112.5 2.39999C112.3 2.39999 112.1 2.39999 112.1 2.19999C112.1 1.79999 112.4 1.79999 112.6 1.79999Z" fill="white"/>
<path d="M4.19997 2.3C3.99997 2.3 3.79998 2.3 3.79998 2C3.79998 1.7 3.99997 1.8 4.19997 1.8C4.39997 1.8 4.59998 1.7 4.59998 2.1C4.59998 2.4 4.39997 2.3 4.19997 2.3Z" fill="white"/>
<path d="M114.1 100C114.1 100.3 113.8 100.2 113.6 100.2C113.4 100.2 113.2 100.2 113.2 99.9C113.3 99.6 113.5 99.7 113.7 99.7C113.9 99.6 114.1 99.7 114.1 100Z" fill="white"/>
<path d="M114.7 98.9C114.6 98.8 114.4 98.8 114.4 98.7C114.4 98.5 114.6 98.6 114.7 98.5C115.1 98.4 115.6 98.7 115.9 98.2C116.3 98.4 116.3 98.6 115.8 98.6C115.5 98.8 115 98.5 114.7 98.9Z" fill="white"/>
<path d="M113 99.8C113 100.1 112.9 100.2 112.7 100.2C112.5 100.2 112.3 100.3 112.2 100C112.1 99.7 112.3 99.6 112.6 99.7C112.7 99.6 112.9 99.5 113 99.8Z" fill="white"/>
<path d="M6.89996 4.49999C7.09996 4.49999 7.19995 4.39999 7.19995 4.19999V0.599988C7.19995 0.399988 7.09996 0.299988 6.89996 0.299988H0.699951C0.499951 0.299988 0.399956 0.399988 0.399956 0.599988V4.29999C0.399956 4.49999 0.499951 4.59999 0.699951 4.59999H6.89996V4.49999Z" fill="white"/>
<path d="M0.699997 0.5C0.599997 0.5 0.599997 0.5 0.699997 0.5L0.599998 4.2C0.599998 4.2 0.599997 4.3 0.699997 4.3H6.9C6.9 4.3 7 4.3 7 4.2V0.6C7 0.6 7 0.5 6.9 0.5H0.699997ZM0.699997 0H6.9C7.2 0 7.5 0.3 7.5 0.6V4.3C7.5 4.6 7.2 4.9 6.9 4.9H0.699997C0.399997 4.9 0.0999985 4.6 0.0999985 4.3V0.6C0.0999985 0.2 0.399997 0 0.699997 0Z" fill="black"/>
<path d="M3.80008 3.49999C3.30302 3.49999 2.90008 3.0075 2.90008 2.39999C2.90008 1.79247 3.30302 1.29999 3.80008 1.29999C4.29714 1.29999 4.70007 1.79247 4.70007 2.39999C4.70007 3.0075 4.29714 3.49999 3.80008 3.49999Z" fill="white"/>
<path d="M3.80005 1.39998C3.40005 1.39998 3.10004 1.79998 3.10004 2.39998C3.10004 2.99998 3.40005 3.39998 3.80005 3.39998C4.20005 3.39998 4.50005 2.99998 4.50005 2.39998C4.50005 1.79998 4.20005 1.39998 3.80005 1.39998ZM3.80005 1.09998C4.30005 1.09998 4.80005 1.59998 4.80005 2.29998C4.80005 2.99998 4.40005 3.49998 3.80005 3.49998C3.20005 3.49998 2.80005 2.99998 2.80005 2.29998C2.80005 1.59998 3.20005 1.09998 3.80005 1.09998Z" fill="black"/>
<path d="M6.89996 101.8C7.09996 101.8 7.19995 101.7 7.19995 101.5V97.8C7.19995 97.6 7.09996 97.5 6.89996 97.5H0.699951C0.499951 97.5 0.399956 97.6 0.399956 97.8V101.5C0.399956 101.7 0.499951 101.8 0.699951 101.8H6.89996Z" fill="white"/>
<path d="M0.699997 97.7C0.599997 97.7 0.599997 97.7 0.699997 97.7L0.599998 101.4C0.599998 101.4 0.599997 101.5 0.699997 101.5H6.9C6.9 101.5 7 101.5 7 101.4V97.7C7 97.7 7 97.6 6.9 97.6H0.699997M0.699997 97.2H6.9C7.2 97.2 7.5 97.5 7.5 97.8V101.5C7.5 101.8 7.2 102.1 6.9 102.1H0.699997C0.399997 102.1 0.0999985 101.8 0.0999985 101.5V97.8C0.0999985 97.5 0.399997 97.2 0.699997 97.2Z" fill="black"/>
<path d="M3.80008 100.7C4.30008 100.7 4.70007 100.2 4.70007 99.6C4.70007 99 4.30008 98.5 3.80008 98.5C3.30008 98.5 2.90008 99 2.90008 99.6C2.90008 100.2 3.30008 100.7 3.80008 100.7Z" fill="white"/>
<path d="M3.80005 98.6C3.40005 98.6 3.10004 99 3.10004 99.6C3.10004 100.1 3.40005 100.6 3.80005 100.6C4.20005 100.6 4.50005 100.2 4.50005 99.6C4.50005 99 4.20005 98.6 3.80005 98.6ZM3.80005 98.4C4.30005 98.4 4.80005 98.9 4.80005 99.6C4.80005 100.3 4.40005 100.8 3.80005 100.8C3.20005 100.8 2.80005 100.3 2.80005 99.6C2.80005 98.9 3.20005 98.4 3.80005 98.4Z" fill="black"/>
<path d="M116.3 4.49999C116.5 4.49999 116.6 4.39999 116.6 4.19999V0.599988C116.6 0.399988 116.5 0.299988 116.3 0.299988H110.1C109.9 0.299988 109.8 0.399988 109.8 0.599988V4.29999C109.8 4.49999 109.9 4.59999 110.1 4.59999H116.3V4.49999Z" fill="white"/>
<path d="M110.1 0.5L110 4.2C110 4.2 110 4.3 110.1 4.3H116.3C116.3 4.3 116.4 4.3 116.4 4.2V0.6C116.4 0.6 116.4 0.5 116.3 0.5H110.1ZM110.1 0H116.3C116.6 0 116.9 0.2 116.9 0.6V4.3C116.9 4.6 116.6 4.9 116.3 4.9H110.1C109.8 4.9 109.5 4.6 109.5 4.3V0.6C109.5 0.2 109.8 0 110.1 0Z" fill="black"/>
<path d="M113.2 3.49999C113.7 3.49999 114.1 2.99999 114.1 2.39999C114.1 1.79999 113.7 1.29999 113.2 1.29999C112.7 1.29999 112.3 1.79999 112.3 2.39999C112.3 2.99999 112.7 3.49999 113.2 3.49999Z" fill="white"/>
<path d="M113.2 1.39998C112.8 1.39998 112.5 1.79998 112.5 2.39998C112.5 2.99998 112.8 3.39998 113.2 3.39998C113.6 3.39998 114 2.89998 114 2.39998C114 1.89998 113.6 1.39998 113.2 1.39998ZM113.2 1.09998C113.7 1.09998 114.2 1.59998 114.2 2.29998C114.2 2.99998 113.8 3.49998 113.2 3.49998C112.6 3.49998 112.2 2.99998 112.2 2.29998C112.2 1.59998 112.7 1.09998 113.2 1.09998Z" fill="black"/>
<path d="M116.3 101.8C116.5 101.8 116.6 101.7 116.6 101.5V97.8C116.6 97.6 116.5 97.5 116.3 97.5H110.1C109.9 97.5 109.8 97.6 109.8 97.8V101.5C109.8 101.7 109.9 101.8 110.1 101.8H116.3Z" fill="white"/>
<path d="M110.1 97.7L110 101.4C110 101.4 110 101.5 110.1 101.5H116.3C116.3 101.5 116.4 101.5 116.4 101.4V97.7C116.4 97.7 116.4 97.6 116.3 97.6H110.1M110.1 97.2H116.3C116.6 97.2 116.9 97.5 116.9 97.8V101.5C116.9 101.8 116.6 102.1 116.3 102.1H110.1C109.8 102.1 109.5 101.8 109.5 101.5V97.8C109.5 97.5 109.8 97.2 110.1 97.2Z" fill="black"/>
<path d="M113.2 100.7C113.7 100.7 114.1 100.2 114.1 99.6C114.1 99 113.7 98.5 113.2 98.5C112.7 98.5 112.3 99 112.3 99.6C112.3 100.2 112.7 100.7 113.2 100.7Z" fill="white"/>
<path d="M113.2 98.6C112.8 98.6 112.5 99 112.5 99.6C112.5 100.1 112.8 100.6 113.2 100.6C113.6 100.6 113.9 100.2 113.9 99.6C114 99 113.6 98.6 113.2 98.6ZM113.2 98.4C113.7 98.4 114.2 98.9 114.2 99.6C114.2 100.3 113.8 100.8 113.2 100.8C112.6 100.8 112.2 100.3 112.2 99.6C112.2 98.9 112.7 98.4 113.2 98.4Z" fill="black"/>
</g>
<defs>
<clipPath id="clip0_546_1855">
<rect width="118" height="102" fill="white" transform="matrix(-1 0 0 1 118 0)"/>
</clipPath>
</defs>
</svg>
