<svg width="118" height="102" viewBox="0 0 118 102" fill="none" xmlns="http://www.w3.org/2000/svg">
<g clip-path="url(#clip0_527_230)">
<path d="M117.5 51C117.5 36 117.5 21 117.5 6C117.5 5.5 117.3 5 117.9 4.7C118 4.7 118 4.4 118 4.2C118 3 118 1.8 118 0.6C118 0.1 117.9 0 117.4 0C115.4 0 113.5 0 111.5 0C111 0 110.8 0.2 110.9 0.7C110.9 1.1 110.8 1.3 110.4 1.3C108.1 1.1 105.9 1.7 103.7 1.7C73.7 1.7 43.6 1.7 13.6 1.6C12.1 1.6 10.6 1.1 8.99995 1.3C8.69995 1.3 8.59995 1.1 8.59995 0.9C8.59995 0.1 8.19995 0 7.59995 0C5.79995 0 3.99995 0 2.19995 0C1.49995 0 1.19995 0.2 1.29995 0.9C1.39995 1.5 1.29995 1.9 0.499954 1.8C-4.5836e-05 1.7 -4.58509e-05 2.1 -4.58509e-05 2.5C-0.100046 4.1 0.299954 5.7 0.199954 7.3C0.0999542 8.8 0.399954 10.4 0.399954 11.9C-4.58658e-05 26.8 0.299954 41.6 0.199954 56.4C0.199954 66.9 0.199954 77.5 0.199954 88C0.199954 89.6 0.399954 91.2 0.299954 92.7C0.0999541 94.9 0.199954 97.2 0.0999542 99.4C0.0999542 99.9 0.0999542 100.4 0.799954 100.3C1.29995 100.3 1.19995 100.7 1.19995 101C1.09995 101.8 1.49995 102 2.19995 102C3.99995 102 5.79995 102.1 7.49995 102C15.9 101.2 24.3 101.8 32.7 101.7C41.1 101.6 49.5 101.7 57.9 101.7C66.3 101.7 74.8 101.7 83.2 101.7C91.9 101.7 100.6 101.6 109.3 101.8C111.7 101.8 114.1 102.1 116.6 102.1C117.9 102.1 117.9 102.1 117.9 100.8C117.9 100 117.9 99.2 117.9 98.5C117.9 98 118.1 97.5 117.5 97.2C117.3 97.1 117.4 96.6 117.4 96.3C117.5 81 117.5 66 117.5 51Z" fill="black"/>
<path d="M2.5 50.8C2.5 65.8 2.5 80.8 2.5 95.7C2.5 96.5 2.7 96.8 3.5 96.7C4.6 96.6 5.8 96.7 7 96.7C7.5 96.7 7.8 96.6 7.7 96C7.7 95.9 7.7 95.7 7.7 95.6C7.7 65.7 7.7 35.9 7.7 5.99997C7.7 5.09997 7.5 4.69997 6.6 4.79997C5.5 4.89997 4.5 4.89997 3.4 4.79997C2.7 4.79997 2.5 4.99997 2.5 5.69997C2.6 7.29997 2.5 8.79997 2.5 10.4C2.5 23.8 2.5 37.3 2.5 50.8Z" fill="white"/>
<path d="M111.8 50.8C111.8 65.8 111.8 80.8 111.8 95.7C111.8 96.5 112 96.8 112.8 96.7C113.9 96.6 115 96.7 116.2 96.7C116.6 96.7 116.9 96.6 116.8 96.1C116.8 95.9 116.8 95.7 116.8 95.6C116.8 65.7 116.8 35.9 116.8 5.99999C116.8 5.09999 116.6 4.79999 115.7 4.79999C114.6 4.89999 113.5 4.79999 112.4 4.79999C112 4.79999 111.8 4.89999 111.8 5.39999C111.8 5.59999 111.8 5.89999 111.8 6.09999C111.8 21 111.8 35.9 111.8 50.8Z" fill="white"/>
<path d="M59.7 4.5C76.3 4.5 93 4.5 109.6 4.5C110.5 4.5 110.9 4.3 110.7 3.4C110.7 3.3 110.7 3.1 110.7 3C110.8 2.2 110.6 2 109.8 2C76.4 2 43 2 9.69995 2C8.79995 2 8.69995 2.3 8.69995 3.1C8.69995 4.6 8.69995 4.6 10.1 4.6C26.7 4.5 43.2 4.5 59.7 4.5Z" fill="white"/>
<path d="M92.8 49.9C92.8 35.3 92.8 20.7 92.8 6C92.8 5.2 92.6 4.9 91.8 5C90 5.1 90 5 90 6.9C90 35.8 90 64.7 90 93.6C90 94.5 90.2 94.8 91.2 94.8C92.9 94.7 92.9 94.8 92.9 93.1C92.8 78.7 92.8 64.3 92.8 49.9Z" fill="white"/>
<path d="M29.5 49.8C29.5 35.2 29.5 20.6 29.5 6C29.5 5.2 29.3 5 28.5 5C26.7 5.1 26.7 5 26.7 6.9C26.7 35.8 26.7 64.7 26.7 93.6C26.7 94.5 26.9 94.8 27.9 94.8C29.6 94.7 29.6 94.8 29.6 93C29.5 78.6 29.5 64.2 29.5 49.8Z" fill="white"/>
<path d="M19 49.8C19 35.2 19 20.7 19 6.1C19 5.3 18.9 5 18 5C16.2 5.1 16.2 5 16.2 6.9C16.2 35.8 16.2 64.7 16.2 93.6C16.2 94.6 16.5 94.8 17.4 94.7C19.1 94.6 19.1 94.7 19.1 92.9C19 78.6 19 64.2 19 49.8Z" fill="white"/>
<path d="M71.5999 49.9C71.5999 35.3 71.5999 20.7 71.5999 6C71.5999 5.2 71.3999 4.9 70.5999 5C68.7999 5.1 68.7999 5 68.7999 6.9C68.7999 35.8 68.7999 64.7 68.7999 93.6C68.7999 94.5 68.9999 94.8 69.8999 94.8C71.5999 94.7 71.5999 94.8 71.5999 93.1C71.5999 78.7 71.5999 64.3 71.5999 49.9Z" fill="white"/>
<path d="M103.2 49.8C103.2 35.2 103.2 20.6 103.2 6C103.2 5.2 103 5 102.2 5C100.4 5.1 100.4 5 100.4 6.9C100.4 35.8 100.4 64.7 100.4 93.6C100.4 94.6 100.7 94.8 101.6 94.8C103.3 94.7 103.3 94.8 103.3 93C103.2 78.6 103.2 64.2 103.2 49.8Z" fill="white"/>
<path d="M58.2999 49.9C58.2999 64.5 58.2999 79.1 58.2999 93.8C58.2999 94.6 58.4999 94.9 59.2999 94.8C61.0999 94.7 61.0999 94.8 61.0999 92.9C61.0999 64 61.0999 35.1 61.0999 6.2C61.1999 5.3 60.8999 5 59.9999 5C58.2999 5.1 58.2999 5 58.2999 6.7C58.2999 21.1 58.2999 35.5 58.2999 49.9Z" fill="white"/>
<path d="M47.7999 50C47.7999 64.6 47.7999 79.2 47.7999 93.8C47.7999 94.6 47.9999 94.8 48.7999 94.8C50.5999 94.7 50.5999 94.8 50.5999 92.9C50.5999 64 50.5999 35.1 50.5999 6.2C50.5999 5.3 50.3 5 49.4 5C47.7 5.1 47.7 5 47.7 6.8C47.8 21.2 47.7999 35.6 47.7999 50Z" fill="white"/>
<path d="M37.1 49.9C37.1 64.5 37.1 79.1 37.1 93.7C37.1 94.6 37.3 94.9 38.2 94.8C40 94.7 40 94.8 40 93C40 64.1 40 35.1 40 6.2C40 5.3 39.8 5 38.9 5C37.2 5.1 37.2 5 37.2 6.7C37.1 21.1 37.1 35.5 37.1 49.9Z" fill="white"/>
<path d="M84.7999 49.9C84.7999 64.5 84.7999 79.1 84.7999 93.7C84.7999 94.6 84.9999 94.8 85.8999 94.8C87.4999 94.7 87.4999 94.8 87.4999 93.1C87.4999 64.2 87.4999 35.2 87.4999 6.3C87.4999 5 87.4999 5 86.1999 5C86.0999 5 85.8999 5 85.7999 5C84.9999 4.9 84.7999 5.2 84.7999 6C84.7999 20.6 84.7999 35.3 84.7999 49.9Z" fill="white"/>
<path d="M82.0999 49.9C82.0999 35.3 82.0999 20.7 82.0999 6C82.0999 5.2 81.8999 4.9 81.0999 5C79.3999 5.1 79.3999 5 79.3999 6.7C79.3999 35.6 79.3999 64.6 79.3999 93.5C79.3999 94.7 79.3999 94.7 80.5999 94.7C82.0999 94.7 82.0999 94.7 82.0999 93.3C82.0999 78.9 82.0999 64.4 82.0999 49.9Z" fill="white"/>
<path d="M95.2 50C95.2 64.6 95.2 79.2 95.2 93.8C95.2 94.6 95.4 94.8 96.2 94.8C97.9 94.7 97.9 94.8 97.9 93.1C97.9 64.1 97.9 35.2 97.9 6.2C97.9 5.2 97.6 5 96.7 5C95.2 5.1 95.2 5 95.2 6.6C95.2 21.1 95.2 35.5 95.2 50Z" fill="white"/>
<path d="M63.6 50C63.6 64.6 63.6 79.1 63.6 93.7C63.6 94.5 63.7 94.8 64.6 94.8C66.2 94.7 66.2 94.8 66.2 93.1C66.2 64.2 66.2 35.2 66.2 6.30003C66.2 4.90003 66.4 5.10003 65.1 5.10003C63.6 5.10003 63.6 5.10003 63.6 6.70003C63.6 21.1 63.6 35.5 63.6 50Z" fill="white"/>
<path d="M108.4 49.9C108.4 35.3 108.4 20.7 108.4 6C108.4 5.2 108.2 4.9 107.4 5C105.7 5.1 105.7 5 105.7 6.7C105.7 35.7 105.7 64.6 105.7 93.6C105.7 94.5 105.9 94.8 106.9 94.8C108.4 94.7 108.4 94.8 108.4 93.2C108.4 78.8 108.4 64.4 108.4 49.9Z" fill="white"/>
<path d="M11 50C11 64.6 11 79.2 11 93.8C11 94.6 11.2 94.8 12 94.8C13.7 94.7 13.7 94.8 13.7 93.1C13.7 64.1 13.7 35.2 13.7 6.2C13.7 5.3 13.5 5 12.5 5C11 5.1 11 5 11 6.6C11 21.1 11 35.5 11 50Z" fill="white"/>
<path d="M53.1 49.9C53.1 64.5 53.1 79.1 53.1 93.7C53.1 94.6 53.3 94.9 54.2 94.8C55.8 94.7 55.8 94.8 55.8 93.2C55.8 64.2 55.8 35.3 55.8 6.29998C55.8 5.09998 55.8 5.09998 54.6 5.09998C53.1 5.09998 53.1 5.09998 53.1 6.49998C53.1 20.9 53.1 35.4 53.1 49.9Z" fill="white"/>
<path d="M24.2 49.9C24.2 35.3 24.2 20.7 24.2 6.1C24.2 5.3 24 5 23.1 5C21.5 5.1 21.5 5 21.5 6.6C21.5 35.6 21.5 64.5 21.5 93.5C21.5 94.7 21.5 94.7 22.7 94.7C24.2 94.7 24.2 94.7 24.2 93.3C24.2 78.9 24.2 64.4 24.2 49.9Z" fill="white"/>
<path d="M42.7 49.9C42.7 64.5 42.7 79.1 42.7 93.7C42.7 94.6 42.8999 95 43.7999 94.8C43.8999 94.8 44 94.8 44.2 94.8C45 94.9 45.2999 94.6 45.2999 93.8C45.2999 64.6 45.2999 35.4 45.2999 6.20001C45.2999 5.40001 45.0999 5.00001 44.2999 5.10001C44.0999 5.10001 43.9 5.10001 43.7 5.10001C43.1 5.00001 42.7999 5.20001 42.7999 5.90001C42.8999 7.80001 42.7999 9.60001 42.7999 11.5C42.6999 24.2 42.7 37.1 42.7 49.9Z" fill="white"/>
<path d="M34.7 55.2C34.7 42.4 34.7 29.6 34.7 16.8C34.7 16 34.5 15.8 33.7 15.8C32 15.9 32 15.8 32 17.5C32 42.9 32 68.3 32 93.6C32 94.6 32.3 94.8 33.2 94.8C34.7 94.7 34.7 94.8 34.7 93.2C34.7 80.5 34.7 67.9 34.7 55.2Z" fill="white"/>
<path d="M76.7999 55.2C76.7999 42.4 76.7999 29.7 76.7999 16.9C76.7999 16.1 76.6999 15.8 75.7999 15.8C74.1999 15.9 74.1999 15.8 74.1999 17.5C74.1999 42.9 74.1999 68.2 74.1999 93.6C74.1999 95 73.9999 94.8 75.2999 94.8C76.7999 94.8 76.7999 94.8 76.7999 93.2C76.7999 80.5 76.7999 67.9 76.7999 55.2Z" fill="white"/>
<path d="M87.7999 50C87.7999 64.6 87.7999 79.2 87.7999 93.8C87.7999 94.8 88.0999 95 89.0999 94.8C89.2999 94.7 89.3999 94.7 89.3999 94.5C89.3999 94.3 89.3999 94 89.3999 93.8C89.3999 64.6 89.3999 35.4 89.3999 6.19998C89.3999 5.69998 89.5999 5.09998 88.6999 5.09998C87.8999 5.09998 87.7999 5.29998 87.7999 6.09998C87.7999 20.6 87.7999 35.3 87.7999 50Z" fill="white"/>
<path d="M82.6 49.9C82.6 64.5 82.6 79.1 82.6 93.8C82.6 94.6 82.8 94.9 83.6 94.8C84.1 94.8 84.2 94.6 84.2 94.1C84.2 93.9 84.2 93.7 84.2 93.5C84.2 64.4 84.2 35.2 84.2 6.1C84.2 5.7 84.6 5 83.6 5C82.8 5 82.6 5.1 82.6 6C82.6 20.7 82.6 35.3 82.6 49.9Z" fill="white"/>
<path d="M77.2999 49.9C77.2999 64.5 77.2999 79.1 77.2999 93.8C77.2999 94.7 77.5999 94.9 78.3999 94.8C78.7999 94.8 78.9999 94.7 78.8999 94.3C78.8999 94.2 78.8999 94 78.8999 93.9C78.8999 64.6 78.8999 35.4 78.8999 6.09998C78.8999 5.59998 79.0999 5.09998 78.1999 5.09998C77.4999 5.09998 77.2999 5.29998 77.2999 5.99998C77.2999 20.6 77.2999 35.2 77.2999 49.9Z" fill="white"/>
<path d="M73.7 49.8C73.7 35.2 73.7 20.6 73.7 6.00002C73.7 5.00002 73.6 4.90002 72.6 5.00002C72.3 5.00002 72.1 5.10002 72.1 5.50002C72.1 5.70002 72.1 5.90002 72.1 6.10002C72.1 35.3 72.1 64.5 72.1 93.7C72.1 94.1 71.7 94.8 72.7 94.8C73.5 94.8 73.7 94.6 73.7 93.8C73.7 79.1 73.7 64.5 73.7 49.8Z" fill="white"/>
<path d="M45.7 50C45.7 64.6 45.7 79.1 45.7 93.7C45.7 94.8 45.8 94.9 46.9 94.8C47.2 94.8 47.2999 94.7 47.2999 94.4C47.2999 94.2 47.2999 94 47.2999 93.8C47.2999 64.6 47.2999 35.4 47.2999 6.19998C47.2999 5.69998 47.4999 5.09998 46.5999 5.09998C45.7999 5.09998 45.7 5.29998 45.7 6.09998C45.7 20.6 45.7 35.3 45.7 50Z" fill="white"/>
<path d="M40.5 50C40.5 64.6 40.5 79.2 40.5 93.8C40.5 94.8 40.6 94.9 41.6 94.8C41.9 94.8 42.1 94.7 42.1 94.3C42.1 94.1 42.1 93.9 42.1 93.7C42.1 64.5 42.1 35.3 42.1 6.1C42.1 5.7 42.5 5 41.5 5C40.7 5 40.5 5.2 40.5 6C40.5 20.7 40.5 35.3 40.5 50Z" fill="white"/>
<path d="M8.8999 49.9C8.8999 64.5 8.8999 79.1 8.8999 93.8C8.8999 94.8 8.9999 94.9 9.9999 94.8C10.2999 94.8 10.4999 94.7 10.4999 94.3C10.4999 94.1 10.4999 93.9 10.4999 93.7C10.4999 64.5 10.4999 35.3 10.4999 6.1C10.4999 5.7 10.8999 5 9.8999 5C9.0999 5 8.8999 5.2 8.8999 6C8.8999 20.7 8.8999 35.3 8.8999 49.9Z" fill="white"/>
<path d="M19.6 49.9C19.6 64.5 19.6 79.1 19.6 93.8C19.6 94.2 19.3 94.8 20.2 94.8C21.1 94.9 21.1 94.4 21.1 93.8C21.1 77.1 21.1 60.3 21.1 43.6C21.1 31.1 21.1 18.6 21.1 6.10002C21.1 5.70002 21.4 5.10002 20.5 5.10002C19.6 5.00002 19.6 5.50002 19.6 6.10002C19.6 20.6 19.6 35.3 19.6 49.9Z" fill="white"/>
<path d="M26.1 49.9C26.1 35.2 26.1 20.6 26.1 5.89999C26.1 5.39999 26.2 4.89999 25.4 4.99999C24.9 4.99999 24.6 5.09999 24.7 5.69999C24.7 5.79999 24.7 5.89999 24.7 5.99999C24.7 35.3 24.7 64.5 24.7 93.8C24.7 94.2 24.4 94.8 25.3 94.8C26.1 94.8 26.1 94.5 26.1 93.9C26.1 79.2 26.1 64.6 26.1 49.9Z" fill="white"/>
<path d="M31.5 49.8C31.5 35.2 31.5 20.6 31.5 6C31.5 5.6 31.8 5 30.9 5C30 5 30 5.4 30 6C30 25.3 30 44.6 30 64C30 74 30 83.9 30 93.9C30 94.7 30.2 94.9 31 94.8C31.4 94.8 31.5 94.6 31.5 94.2C31.5 93.9 31.5 93.7 31.5 93.4C31.5 78.9 31.5 64.3 31.5 49.8Z" fill="white"/>
<path d="M15.5999 49.8C15.5999 35.2 15.5999 20.6 15.5999 5.89999C15.5999 5.39999 15.5999 4.89999 14.7999 4.99999C14.1999 4.99999 13.9999 5.19999 14.0999 5.69999C14.0999 5.79999 14.0999 5.89999 14.0999 6.09999C14.0999 35.3 14.0999 64.5 14.0999 93.7C14.0999 94.1 13.6999 94.7 14.5999 94.8C15.3999 94.9 15.4999 94.6 15.4999 93.9C15.5999 79.2 15.5999 64.5 15.5999 49.8Z" fill="white"/>
<path d="M51.2 49.9C51.2 64.5 51.2 79.1 51.2 93.8C51.2 94.2 50.9 94.8 51.8 94.8C52.7 94.9 52.7 94.4 52.7 93.8C52.7 74.8 52.7 55.8 52.7 36.7C52.7 26.4 52.7 16.2 52.7 5.90002C52.7 5.10002 52.5 4.90002 51.7 5.00002C51.3 5.00002 51.2 5.20002 51.2 5.60002C51.2 5.90002 51.2 6.10002 51.2 6.40002C51.2 20.9 51.2 35.4 51.2 49.9Z" fill="white"/>
<path d="M56.2999 50C56.2999 64.6 56.2999 79.2 56.2999 93.9C56.2999 94.4 56.1999 94.9 56.9999 94.8C57.4999 94.8 57.7999 94.6 57.6999 94.1C57.6999 94 57.6999 93.9 57.6999 93.7C57.6999 64.5 57.6999 35.3 57.6999 6.1C57.6999 5.7 58.0999 5.1 57.1999 5C56.4999 5 56.2999 5.2 56.2999 6C56.2999 20.6 56.2999 35.3 56.2999 50Z" fill="white"/>
<path d="M36.6 49.9C36.6 35.2 36.6 20.6 36.6 5.89999C36.6 4.99999 36.3 4.89999 35.6 4.99999C35.2 4.99999 35.1 5.19999 35.2 5.49999C35.2 5.59999 35.2 5.79999 35.2 5.89999C35.2 35.2 35.2 64.4 35.2 93.7C35.2 94.1 34.9 94.6 35.7 94.7C36.4 94.8 36.6 94.6 36.6 93.8C36.6 79.2 36.6 64.6 36.6 49.9Z" fill="white"/>
<path d="M61.7 50C61.7 64.6 61.7 79.2 61.7 93.8C61.7 94.2 61.4 94.8 62.3 94.8C63.2 94.9 63.2 94.4 63.2 93.8C63.2 73.3 63.2 52.8 63.2 32.3C63.2 23.5 63.2 14.7 63.2 5.90002C63.2 5.10002 63 4.90002 62.2 5.00002C61.9 5.00002 61.7 5.10002 61.7 5.50002C61.7 5.80002 61.7 6.10002 61.7 6.40002C61.7 20.9 61.7 35.5 61.7 50Z" fill="white"/>
<path d="M103.8 50C103.8 64.6 103.8 79.2 103.8 93.8C103.8 94.2 103.5 94.8 104.4 94.8C105.3 94.9 105.2 94.4 105.2 93.8C105.2 71.6 105.2 49.4 105.2 27.1C105.2 20 105.2 13 105.2 5.90001C105.2 5.20001 105.1 4.90001 104.3 5.00001C103.9 5.00001 103.7 5.10001 103.7 5.60001C103.7 5.90001 103.7 6.10001 103.7 6.40001C103.8 20.9 103.8 35.5 103.8 50Z" fill="white"/>
<path d="M66.7999 50C66.7999 64.6 66.7999 79.2 66.7999 93.9C66.7999 94.4 66.6999 94.9 67.4999 94.8C67.9999 94.8 68.2999 94.6 68.1999 94.1C68.1999 94 68.1999 93.9 68.1999 93.7C68.1999 64.5 68.1999 35.3 68.1999 6.1C68.1999 5.7 68.5999 5.1 67.6999 5C66.9999 5 66.7999 5.2 66.7999 6C66.7999 20.6 66.7999 35.3 66.7999 50Z" fill="white"/>
<path d="M99.9 49.8C99.9 35.2 99.9 20.6 99.9 5.89999C99.9 5.39999 100 4.89999 99.2 4.99999C98.7 4.99999 98.4 5.19999 98.5 5.69999C98.5 5.79999 98.5 5.89999 98.5 6.09999C98.5 35.3 98.5 64.5 98.5 93.7C98.5 94.1 98.1 94.7 99 94.8C99.8 94.9 99.9 94.6 99.9 93.9C99.9 79.2 99.9 64.5 99.9 49.8Z" fill="white"/>
<path d="M93.3 49.9C93.3 64.5 93.3 79.1 93.3 93.8C93.3 94.2 93 94.8 93.9 94.8C94.8 94.9 94.8 94.4 94.8 93.8C94.8 76 94.8 58.2 94.8 40.3C94.8 28.8 94.8 17.4 94.8 5.90002C94.8 5.10002 94.6 4.90002 93.9 5.00002C93.5 5.00002 93.4 5.20002 93.4 5.60002C93.4 5.90002 93.4 6.10002 93.4 6.40002C93.3 20.9 93.3 35.4 93.3 49.9Z" fill="white"/>
<path d="M108.9 50C108.9 64.6 108.9 79.2 108.9 93.9C108.9 94.4 108.8 94.9 109.6 94.8C110.1 94.8 110.4 94.6 110.3 94.1C110.3 94 110.3 93.9 110.3 93.7C110.3 64.5 110.3 35.3 110.3 6.10001C110.3 5.70001 110.7 5.10001 109.8 5.00001C109 4.90001 108.9 5.20001 108.9 5.90001C108.9 20.6 108.9 35.3 108.9 50Z" fill="white"/>
<path d="M97.5 97.8C93.3 97.8 89.2 97.8 85 97.8C84.4 97.8 84.1 97.9 84.1 98.7C84.1 100.9 84.1 100.9 86.3 100.9C94.2 100.9 102.1 100.9 110 100.9C110.8 100.9 111 100.7 111 99.9C111 97.8 111 97.8 108.9 97.8C105 97.8 101.2 97.8 97.5 97.8Z" fill="white"/>
<path d="M20.9 97.8C17.1 97.8 13.2 97.8 9.4 97.8C8.8 97.8 8.5 97.9 8.6 98.6C8.6 100.8 8.6 100.8 10.8 100.8C18 100.8 25.2 100.8 32.4 100.8C33.1 100.8 33.3 100.7 33.3 99.9C33.3 97.7 33.3 97.7 31.1 97.7C27.7 97.8 24.3 97.8 20.9 97.8Z" fill="white"/>
<path d="M58.7 100.9C61.7 100.9 64.7 100.9 67.7 100.9C68.4 100.9 68.5 100.7 68.5 100C68.5 97.8 68.5 97.8 66.3 97.8C60.7 97.8 55.1 97.8 49.5 97.8C48.8 97.8 48.6 98 48.6 98.7C48.6 100.9 48.6 100.9 50.8 100.9C53.5 100.9 56.1 100.9 58.7 100.9Z" fill="white"/>
<path d="M97.5999 97.1C101.8 97.1 106 97.1 110.2 97.1C111 97.1 111 96.8 111 96.2C111 95.6 110.9 95.3 110.2 95.3C101.7 95.3 93.1999 95.3 84.6999 95.3C83.7999 95.3 83.9999 95.7 83.8999 96.3C83.7999 97 84.0999 97.1 84.6999 97.1C89.0999 97.1 93.3999 97.1 97.5999 97.1Z" fill="white"/>
<path d="M41.1 100.9C43.2 100.9 45.3 100.9 47.4 100.9C48 100.9 48.2 100.8 48.2 100.1C48.2 99.5 48.2 98.8 48.2 98.2C48.2 97.7 48 97.6 47.6 97.6C43.3 97.6 39 97.6 34.6 97.6C34.2 97.6 34 97.7 34 98.2C33.8 100.8 33.8 100.8 36.5 100.8C38 100.9 39.5 100.9 41.1 100.9Z" fill="white"/>
<path d="M76.4999 100.9C78.5999 100.9 80.6999 100.9 82.7999 100.9C83.3999 100.9 83.5999 100.7 83.5999 100.1C83.5999 99.5 83.5999 98.8 83.5999 98.2C83.5999 97.7 83.3999 97.6 82.9999 97.6C78.6999 97.6 74.3999 97.6 69.9999 97.6C69.5999 97.6 69.3999 97.7 69.3999 98.2C69.1999 100.8 69.1999 100.8 71.8999 100.8C73.2999 100.9 74.8999 100.9 76.4999 100.9Z" fill="white"/>
<path d="M20.7 97.1C24.6 97.1 28.4 97.1 32.3 97.1C33 97.1 33.3 96.9 33.2 96.2C33.2 95.5 33 95.3 32.3 95.3C24.5 95.3 16.7 95.3 8.99998 95.3C8.29998 95.3 8.09998 95.5 8.09998 96.2C8.09998 96.9 8.29998 97.2 8.99998 97.1C13 97.1 16.8 97.1 20.7 97.1Z" fill="white"/>
<path d="M58.6999 97.1C61.6999 97.1 64.6999 97.1 67.6999 97.1C68.4999 97.1 68.4999 96.8 68.4999 96.2C68.4999 95.6 68.3999 95.3 67.6999 95.3C61.5999 95.3 55.4999 95.3 49.2999 95.3C48.3999 95.3 48.5999 95.7 48.4999 96.3C48.3999 97 48.6999 97.1 49.2999 97.1C52.5999 97.1 55.6999 97.1 58.6999 97.1Z" fill="white"/>
<path d="M8.29993 5.09998C8.29993 35 8.29993 64.8 8.29993 94.7C8.39993 94.7 8.39993 94.7 8.49993 94.7C8.49993 64.8 8.49993 35 8.49993 5.09998C8.39993 5.09998 8.29993 5.09998 8.29993 5.09998Z" fill="white"/>
<path d="M41.1 97.1C43.2 97.1 45.2 97.1 47.3 97.1C48 97.1 48.1 96.8 48 96.2C48 95.7 48.2 95.2 47.3 95.2C43.1 95.2 38.9 95.2 34.7 95.2C33.9 95.2 33.9 95.5 33.9 96.1C33.9 96.6 33.8 97.1 34.6 97C36.8 97.1 38.9 97.1 41.1 97.1Z" fill="white"/>
<path d="M76.3 97.1C78.4 97.1 80.4 97.1 82.5 97.1C83.3 97.1 83.3 96.8 83.3 96.2C83.3 95.6 83.3 95.3 82.5 95.3C78.3 95.3 74.2 95.3 70 95.3C69.1 95.3 69.3 95.7 69.2 96.3C69.2 97 69.4 97.2 70 97.1C72.2 97.1 74.3 97.1 76.3 97.1Z" fill="white"/>
<path d="M117.1 96.5C117.1 66 117.1 35.6 117.1 5.09998H117C117 35.6 117 66 117.1 96.5C117 96.5 117 96.5 117.1 96.5Z" fill="white"/>
<path d="M111.5 96.5C111.5 66 111.5 35.5 111.5 5.09998H111.4C111.5 35.6 111.5 66 111.5 96.5Z" fill="white"/>
<path d="M110.9 5.29999C110.9 35.1 110.9 64.8 110.9 94.6H111C111 64.8 111 35 110.9 5.29999C111 5.29999 111 5.29999 110.9 5.29999Z" fill="white"/>
<path d="M79.1 5.29999C79.1 35.1 79.1 64.8 79.1 94.6H79.2C79.2 64.8 79.2 35 79.1 5.29999Z" fill="white"/>
<path d="M1.49993 57C1.49993 42.8 1.49993 28.6 1.49993 14.4C1.39993 14.4 1.39993 14.4 1.29993 14.4C1.29993 28.6 1.29993 42.8 1.29993 57C1.39993 57 1.49993 57 1.49993 57Z" fill="white"/>
<path d="M1.49993 88.4C1.49993 78.6 1.49993 68.7 1.49993 58.9C1.39993 58.9 1.39993 58.9 1.29993 58.9C1.29993 68.7 1.29993 78.6 1.29993 88.4C1.39993 88.4 1.49993 88.4 1.49993 88.4Z" fill="white"/>
<path d="M110.5 4.70001C94.2 4.70001 77.9 4.70001 61.6 4.70001V4.80001C77.8 4.80001 94.2 4.80001 110.5 4.70001C110.5 4.80001 110.5 4.80001 110.5 4.70001Z" fill="white"/>
<path d="M0.999902 56.9C0.999902 42.8 0.999902 28.7 0.999902 14.6H0.899902C0.899902 28.7 0.899902 42.8 0.999902 56.9Z" fill="white"/>
<path d="M0.599976 14.6C0.599976 28.7 0.599976 42.8 0.599976 56.8H0.699976C0.699976 42.8 0.699976 28.7 0.599976 14.6Z" fill="white"/>
<path d="M1.89993 56.8C1.89993 42.7 1.89993 28.7 1.89993 14.6H1.79993C1.79993 28.7 1.79993 42.7 1.89993 56.8Z" fill="white"/>
<path d="M19.5 4.80001C33.3 4.80001 47.1 4.80001 60.9 4.80001V4.70001C47.1 4.70001 33.3 4.70001 19.5 4.80001Z" fill="white"/>
<path d="M34.3 11C34.3 10.8 34.3 10.5 34.3 10.3C34.5 9.40002 34.1 9.10002 33.2 9.20002C32.5 9.20002 32.2 9.30002 32.3 10.1C32.4 10.8 32.3 11.5 32.3 12.2C32.3 12.7 32.4 12.8 32.9 12.8C34.3 12.8 34.3 12.9 34.3 11.4C34.3 11.3 34.3 11.1 34.3 11Z" fill="white"/>
<path d="M74.4999 11C74.4999 11.2 74.4999 11.5 74.4999 11.7C74.2999 12.6 74.6999 12.9 75.5999 12.8C76.2999 12.8 76.4999 12.6 76.4999 11.9C76.3999 11.2 76.4999 10.5 76.4999 9.79998C76.4999 9.29998 76.2999 9.19998 75.8999 9.19998C74.4999 9.09998 74.4999 9.09998 74.4999 11Z" fill="white"/>
<path d="M33.4 7.40003C33.8 7.30003 34.4 7.60003 34.6 7.20003C34.8 6.60003 34.9 5.70003 34.6 5.30003C34.1 4.60003 33.2 5.10003 32.4 5.00003C31.9 5.00003 32 5.40003 32 5.70003C32 5.80003 32 5.90003 32 6.10003C32 7.40003 32 7.40003 33.4 7.40003Z" fill="white"/>
<path d="M75.5 7.40001C75.9 7.30001 76.5 7.60001 76.7 7.30001C76.9 6.70001 77 5.80001 76.7 5.40001C76.2 4.70001 75.3 5.2 74.5 5.1C74 5 74.1 5.4 74.1 5.7C74.1 5.8 74.1 5.9 74.1 6.1C74.1 7.4 74.1 7.40001 75.5 7.40001Z" fill="white"/>
<path d="M1.89993 88.2C1.89993 78.5 1.89993 68.8 1.89993 59.2H1.79993C1.79993 68.8 1.79993 78.5 1.89993 88.2Z" fill="white"/>
<path d="M0.999902 88.3C0.999902 78.6 0.999902 68.9 0.999902 59.1H0.899902C0.899902 68.8 0.899902 78.5 0.999902 88.3Z" fill="white"/>
<path d="M0.599976 59.1C0.599976 68.8 0.599976 78.5 0.599976 88.2H0.699976C0.699976 78.5 0.699976 68.8 0.599976 59.1Z" fill="white"/>
<path d="M110.6 97.5C101.8 97.5 93.0999 97.5 84.2999 97.5V97.6C93.0999 97.6 101.9 97.6 110.6 97.5Z" fill="white"/>
<path d="M33 97.5C24.9 97.5 16.8 97.5 8.69995 97.5V97.6C16.8 97.6 24.9 97.6 33 97.5Z" fill="white"/>
<path d="M48.8999 97.6C55.3999 97.6 61.7999 97.6 68.2999 97.6V97.5C61.8999 97.5 55.3999 97.5 48.8999 97.6Z" fill="white"/>
<path d="M75.3999 13.1C74.8999 13.1 74.3999 12.9 74.3999 13.8C74.3999 14.7 75.0999 14.3 75.4999 14.4C75.8999 14.5 76.3999 14.6 76.3999 13.8C76.3999 12.8 75.6999 13.2 75.3999 13.1Z" fill="white"/>
<path d="M33.3999 14.4C33.7999 14.3 34.3999 14.6 34.3999 13.8C34.3999 12.9 33.7999 13.2 33.3999 13.2C32.9999 13.2 32.3999 12.9 32.3999 13.8C32.2999 14.6 32.8999 14.3 33.3999 14.4Z" fill="white"/>
<path d="M18.7999 4.70001C15.4999 4.70001 12.1999 4.70001 8.8999 4.70001V4.80001C12.1999 4.80001 15.4999 4.80001 18.7999 4.70001C18.7999 4.80001 18.7999 4.80001 18.7999 4.70001Z" fill="white"/>
<path d="M1.2 14.1C1.2 12.5 1.2 10.9 1.2 9.40002C1.1 9.40002 1.1 9.40002 1 9.40002C1 11 1 12.6 1 14.1C1 14.1 1.1 14.1 1.2 14.1Z" fill="white"/>
<path d="M1.19999 93.6C1.19999 92 1.19999 90.4 1.19999 88.9C1.09999 88.9 1.09999 88.9 0.999992 88.9C0.799992 90.5 0.899992 92.1 0.999992 93.6C0.999992 93.6 1.09999 93.6 1.19999 93.6Z" fill="white"/>
<path d="M116.4 4.29998C117.5 4.69998 117.7 4.59998 117.6 3.69998C117 3.59998 116.3 3.49998 115.7 3.79998C115.6 4.39998 116 4.29998 116.4 4.29998Z" fill="white"/>
<path d="M113 3.80001C112.4 3.50001 111.9 3.70001 111.3 3.70001C111.2 4.60001 111.4 4.70001 112.4 4.40001C112.8 4.30001 113.2 4.30001 113 3.80001Z" fill="white"/>
<path d="M6.79992 4.29998C6.89992 4.29998 6.89992 4.39998 6.99992 4.39998C7.29992 4.49998 7.69992 4.59998 7.99992 4.39998C7.99992 4.29998 7.99992 3.99998 7.99992 3.89998C7.79992 3.49998 7.39992 3.59998 6.99992 3.59998C6.69992 3.59998 6.39992 3.49998 6.19992 3.79998C6.09992 4.29998 6.39992 4.29998 6.79992 4.29998Z" fill="white"/>
<path d="M3.59993 3.80001C3.19993 3.40001 2.79993 3.70001 2.39993 3.60001C1.99993 3.60001 1.79993 3.70001 1.79993 4.20001C1.79993 4.70001 2.19993 4.50001 2.39993 4.50001C2.59993 4.50001 2.79993 4.40001 2.99993 4.30001C3.39993 4.30001 3.69993 4.30001 3.59993 3.80001Z" fill="white"/>
<path d="M115.7 98.2C116.2 98.5 116.8 98.3 117.4 98.3C117.7 98.1 117.8 97.8 117.6 97.6C117.3 97.3 116.8 97.4 116.4 97.6C116.1 97.8 115.6 97.6 115.7 98.2Z" fill="white"/>
<path d="M2.99998 97.6C2.59998 97.4 2.19998 97.4 1.79998 97.5C1.69998 97.5 1.69998 97.8 1.79998 98C1.79998 98.1 1.99998 98.2 1.99998 98.2C2.49998 98.3 2.99998 98.4 3.49998 98.1C3.59998 97.8 3.29998 97.7 2.99998 97.6Z" fill="white"/>
<path d="M6.19999 98.2C6.69999 98.5 7.19999 98.3 7.69999 98.3C7.89999 98.1 8.19999 97.8 7.99999 97.6C7.69999 97.2 7.19999 97.4 6.79999 97.6C6.49999 97.7 6.09999 97.8 6.19999 98.2Z" fill="white"/>
<path d="M111.5 98.3C112 98.3 112.5 98.5 113 98.2C113 97.8 112.7 97.7 112.4 97.6C112.2 97.5 112 97.5 111.8 97.5C111.6 97.5 111.3 97.4 111.2 97.6C111.1 97.9 111.3 98.1 111.5 98.3Z" fill="white"/>
<path d="M1.29993 93.9C1.29993 95 1.29993 96.1 1.29993 97.1C1.79993 96 1.49993 95 1.59993 93.9C1.49993 93.9 1.39993 93.9 1.29993 93.9Z" fill="white"/>
<path d="M112.6 0.699987C112.2 0.499987 111.7 0.499987 111.3 0.599987C111.2 0.599987 111.2 0.899987 111.3 0.999987C111.6 1.39999 112.1 1.09999 112.5 1.19999C112.7 1.19999 112.9 1.29999 113 0.999987C113.1 0.799987 112.9 0.699987 112.6 0.699987Z" fill="white"/>
<path d="M2.69996 1.30002C2.99996 1.20002 3.49996 1.50002 3.49996 1.10002C3.49996 0.600021 2.89996 0.600021 2.39996 0.600021C2.09996 0.600021 1.69996 0.500021 1.79996 1.00002C1.89996 1.60002 2.39996 1.10002 2.69996 1.30002Z" fill="white"/>
<path d="M113 100.9C112.5 100.6 112 100.8 111.5 100.8C111.3 100.8 111.2 101 111.2 101.2C111.2 101.4 111.3 101.5 111.5 101.5C111.9 101.5 112.3 101.6 112.6 101.3C112.9 101.3 113.1 101.2 113 100.9Z" fill="white"/>
<path d="M116.2 101.2C116.6 101.4 117.1 101.4 117.5 101.3C117.6 101.3 117.6 101 117.5 100.9C117.2 100.5 116.7 100.8 116.3 100.7C116.1 100.7 115.9 100.6 115.8 100.9C115.8 101.2 115.9 101.3 116.2 101.2Z" fill="white"/>
<path d="M7.09993 1.3C7.39993 1.1 7.89993 1.6 7.99993 0.9C8.09993 0.5 7.69993 0.5 7.49993 0.5C6.99993 0.5 6.39993 0.5 6.29993 1C6.19993 1.5 6.79993 1.1 7.09993 1.3Z" fill="white"/>
<path d="M2.39993 101.4C2.79993 101.2 3.39993 101.4 3.49993 100.8C3.49993 100.5 2.89993 100.6 2.59993 100.7C2.29993 100.7 1.79993 100.4 1.79993 101.1C1.79993 101.5 2.09993 101.4 2.39993 101.4Z" fill="white"/>
<path d="M7.09997 100.7C6.79997 100.9 6.29997 100.5 6.39997 101C6.49997 101.4 7.09997 101.5 7.49997 101.5C7.69997 101.5 8.09997 101.6 8.09997 101.2C7.89997 100.3 7.29997 100.9 7.09997 100.7Z" fill="white"/>
<path d="M115.8 1.09998C116.3 1.49998 116.8 1.19998 117.3 1.29998C117.5 1.29998 117.6 1.09998 117.6 0.899984C117.6 0.699984 117.5 0.599984 117.3 0.599984C116.9 0.599984 116.5 0.499984 116.2 0.799984C116 0.699984 115.8 0.799984 115.8 1.09998Z" fill="white"/>
<path d="M7.39995 97C5.79995 97 4.29995 97 2.69995 97V97.1C4.29995 97.1 5.89995 97.1 7.39995 97Z" fill="white"/>
<path d="M116 98.9C116 99.1 115.7 99.4 116.1 99.4C116.6 99.4 117.1 99.5 117.6 99.3V99.1C117.2 98.8 116.8 99 116.3 99C116.2 98.9 116.1 98.9 116 98.9Z" fill="white"/>
<path d="M112.9 99C112.4 99 112 99 111.5 98.9C111.4 98.9 111.3 98.9 111.2 99.1C111.2 99.2 111.2 99.4 111.3 99.4C111.8 99.5 112.4 99.5 112.9 99.4C113.1 99.3 112.9 99.1 112.9 99Z" fill="white"/>
<path d="M6.09998 2.5C6.69998 3.2 7.19998 3 7.69998 3.1C7.89998 3.1 7.99998 3 7.99998 2.8C7.99998 2.5 7.79998 2.5 7.59998 2.5C7.19998 2.5 6.69998 2.5 6.09998 2.5Z" fill="white"/>
<path d="M3.59993 2.5C2.99993 2.5 2.59993 2.5 2.09993 2.5C1.99993 2.5 1.79993 2.5 1.79993 2.7C1.79993 2.9 1.79993 3 1.99993 3C2.49993 3 3.09993 3.3 3.59993 2.5Z" fill="white"/>
<path d="M116.1 2.99998C116.5 2.99998 116.8 3.09998 117.2 3.09998C117.4 3.09998 117.7 3.19998 117.6 2.79998C117.6 2.49998 117.4 2.59998 117.2 2.59998C116.8 2.59998 116.5 2.59998 116.1 2.59998C115.5 2.59998 116.1 2.79998 116.1 2.99998Z" fill="white"/>
<path d="M112.7 2.99998C112.7 2.79998 113.4 2.59998 112.7 2.49998C112.2 2.49998 111.8 2.39998 111.3 2.59998C111.3 2.59998 111.2 2.89998 111.3 2.89998C111.8 3.09998 112.2 3.09998 112.7 2.99998Z" fill="white"/>
<path d="M3.29993 99C2.89993 99 2.49993 99 2.09993 99C1.89993 99 1.79993 99.1 1.79993 99.3C1.79993 99.4 1.89993 99.5 1.99993 99.5C2.49993 99.5 2.99993 99.6 3.39993 99.5C3.79993 99.2 3.29993 99.1 3.29993 99Z" fill="white"/>
<path d="M6.4999 98.9C6.4999 99.1 5.7999 99.3 6.5999 99.4C7.0999 99.4 7.4999 99.5 7.9999 99.3V99C7.4999 98.8 6.9999 98.9 6.4999 98.9Z" fill="white"/>
<path d="M116.5 97C115 97 113.5 97 112 97V97.1C113.5 97.1 115 97.1 116.5 97Z" fill="white"/>
<path d="M0.599976 9.59998C0.599976 11.1 0.599976 12.5 0.599976 14H0.699976C0.699976 12.5 0.699976 11 0.599976 9.59998Z" fill="white"/>
<path d="M1.5 9.59998C1.5 11 1.5 12.5 1.5 13.9H1.6C1.5 12.5 1.5 11.1 1.5 9.59998Z" fill="white"/>
<path d="M0.599976 89.1C0.599976 90.6 0.599976 92 0.599976 93.5H0.699976C0.699976 92 0.699976 90.6 0.599976 89.1Z" fill="white"/>
<path d="M1.6 93.4C1.6 92 1.6 90.5 1.6 89.1H1.5C1.5 90.6 1.5 92 1.6 93.4C1.5 93.4 1.5 93.4 1.6 93.4Z" fill="white"/>
<path d="M0.999992 4.29998C1.29999 3.59998 1.19999 2.79998 0.999992 2.09998C0.799992 2.79998 0.899992 3.49998 0.999992 4.29998Z" fill="white"/>
<path d="M1.1 97.9C0.8 98.6 0.8 99.4 1.1 100.1C1.4 99.4 1.2 98.6 1.1 97.9Z" fill="white"/>
<path d="M116.5 1.79999C116.4 2.09999 116 1.79999 115.9 2.19999C116.4 2.39999 116.9 2.29999 117.4 2.29999C117.5 2.29999 117.6 2.19999 117.6 2.09999C117.6 1.89999 117.5 1.79999 117.4 1.79999C117.1 1.79999 116.8 1.79999 116.5 1.79999Z" fill="white"/>
<path d="M112.4 1.89999C112 1.89999 111.3 1.59999 111.3 2.09999C111.3 2.59999 112 2.29999 112.3 2.29999C112.5 2.29999 112.8 2.39999 112.9 2.19999C112.9 1.79999 112.5 2.19999 112.4 1.89999Z" fill="white"/>
<path d="M0.599984 2C0.399984 2.7 0.299984 3.5 0.599984 4.2C0.799984 3.5 0.699984 2.8 0.599984 2Z" fill="white"/>
<path d="M116.5 100.1C116.9 100.1 117.5 100.4 117.6 99.9C117.6 99.4 116.9 99.7 116.6 99.7C116.4 99.7 116.1 99.6 116 99.9C116 100.2 116.4 99.8 116.5 100.1Z" fill="white"/>
<path d="M0.999902 8.90001C0.999902 7.50001 0.999902 6.10001 0.999902 4.70001C0.999902 4.70001 0.999902 4.70001 0.899902 4.70001C0.999902 6.10001 0.999902 7.50001 0.999902 8.90001Z" fill="white"/>
<path d="M0.699976 8.89999C0.699976 7.49999 0.699976 6.09999 0.699976 4.79999H0.599976C0.599976 6.09999 0.599976 7.49999 0.699976 8.89999Z" fill="white"/>
<path d="M7.09993 1.79999C6.89993 2.19999 6.39993 1.79999 6.29993 2.19999C6.49993 2.49999 6.79993 2.39999 7.09993 2.29999C7.39993 2.29999 7.99993 2.49999 7.99993 2.09999C7.89993 1.59999 7.39993 1.89999 7.09993 1.79999Z" fill="white"/>
<path d="M2.7999 1.89997C2.6999 1.89997 2.4999 1.79997 2.3999 1.89997C2.1999 1.89997 1.8999 1.79997 1.8999 2.19997C1.8999 2.49997 2.1999 2.39997 2.3999 2.39997C2.7999 2.39997 3.1999 2.49997 3.6999 2.29997C3.3999 1.79997 2.8999 2.19997 2.7999 1.89997Z" fill="white"/>
<path d="M2.69993 100.1C2.89993 99.8 3.29993 100.1 3.49993 99.8C3.29993 99.5 2.89993 99.6 2.69993 99.6C2.39993 99.6 1.79993 99.4 1.79993 99.8C1.89993 100.4 2.39993 100.1 2.69993 100.1Z" fill="white"/>
<path d="M6.99998 100.1C7.19998 100.1 7.29998 100.2 7.49998 100.1C7.69998 100.1 7.89998 100.1 7.89998 99.8C7.89998 99.5 7.69998 99.6 7.49998 99.6C7.09998 99.6 6.59998 99.5 6.09998 99.7C6.39998 100.2 6.89998 99.8 6.99998 100.1Z" fill="white"/>
<path d="M112.2 100.1C112.4 99.7 112.8 100.2 113 99.7C112.8 99.4 112.5 99.5 112.2 99.6C111.9 99.6 111.3 99.4 111.3 99.8C111.3 100.4 111.9 100.1 112.2 100.1Z" fill="white"/>
<path d="M112.5 97.6C112.7 97.8 112.9 98 113.1 98.2C113.3 98.1 113.7 98.5 113.8 98C113.9 97.6 113.5 97.6 113.3 97.5C113 97.4 112.7 97.3 112.5 97.6Z" fill="white"/>
<path d="M33.4 8.4C33.5 8.3 33.9 8.7 33.9 8.1C33.9 7.6 33.6 7.7 33.4 7.7C33.2 7.7 32.9 7.4 32.9 8C32.8 8.6 33.1 8.4 33.4 8.4Z" fill="white"/>
<path d="M1.89993 8.89998C1.89993 7.59998 1.89993 6.39998 1.89993 5.09998H1.79993C1.79993 6.39998 1.79993 7.59998 1.89993 8.89998Z" fill="white"/>
<path d="M75.5 8.40003C75.6 8.30003 76 8.60003 76 8.10003C76 7.60003 75.7 7.70003 75.5 7.70003C75.3 7.70003 75 7.50003 75 8.00003C74.9 8.60003 75.2 8.40003 75.5 8.40003Z" fill="white"/>
<path d="M115.7 98.2C116 98.1 116.3 97.9 116.4 97.6C116 97.3 115.7 97.4 115.4 97.6C115.2 97.7 115.2 97.9 115.2 98C115.3 98.3 115.5 98.3 115.7 98.2Z" fill="white"/>
<path d="M6.19991 98.2C6.39991 98 6.59991 97.8 6.79991 97.6C6.49991 97.4 6.19991 97.3 5.89991 97.6C5.79991 97.7 5.39991 97.8 5.59991 98.1C5.79991 98.5 5.99991 98.3 6.19991 98.2Z" fill="white"/>
<path d="M3 97.6C3.2 97.8 3.4 98 3.6 98.2C3.8 98.3 4 98.5 4.2 98.2C4.4 97.8 4 97.8 3.9 97.7C3.7 97.3 3.3 97.4 3 97.6Z" fill="white"/>
<path d="M115 2.5C114.7 2.5 114.4 2.5 114.5 2.9C114.5 3.3 114.8 3.2 115 3.2C115.3 3.2 115.5 3.1 115.5 2.8C115.5 2.4 115.1 2.6 115 2.5Z" fill="white"/>
<path d="M113 3.79997C112.8 3.99997 112.6 4.19997 112.4 4.39997C112.6 4.69997 112.9 4.59997 113.2 4.49997C113.4 4.39997 113.8 4.39997 113.6 3.99997C113.6 3.49997 113.3 3.59997 113 3.79997Z" fill="white"/>
<path d="M0.599976 94.1C0.599976 95.2 0.599976 96.3 0.599976 97.4H0.699976C0.699976 96.3 0.699976 95.2 0.599976 94.1Z" fill="white"/>
<path d="M0.999902 97.4C0.999902 96.3 0.999902 95.2 0.999902 94.1H0.899902C0.899902 95.2 0.899902 96.3 0.999902 97.4Z" fill="white"/>
<path d="M74.6999 14.7C74.3999 14.7 74.2999 14.8 74.2999 15.1C74.2999 15.4 74.4999 15.4 74.6999 15.4C74.9999 15.4 75.1999 15.4 75.1999 15C75.1999 14.7 74.8999 14.7 74.6999 14.7Z" fill="white"/>
<path d="M76.2 15.5C76.3 15.4 76.7 15.7 76.6 15.2C76.6 14.9 76.5 14.7 76.1 14.7C75.7 14.7 75.8 14.9 75.7 15.1C75.6 15.6 76 15.4 76.2 15.5Z" fill="white"/>
<path d="M116.4 4.30001C116.2 4.10001 115.9 3.90001 115.7 3.70001C115.5 3.60001 115.3 3.60001 115.2 3.90001C115.2 4.10001 115.2 4.20001 115.4 4.30001C115.7 4.50001 116.1 4.60001 116.4 4.30001Z" fill="white"/>
<path d="M5.4 99.4C5.7 99.4 5.9 99.4 5.9 99.1C5.9 98.8 5.7 98.7 5.5 98.7C5.3 98.7 5.1 98.7 5.1 99C5 99.3 5.1 99.5 5.4 99.4Z" fill="white"/>
<path d="M5.5 2.5C5.2 2.5 5 2.5 5 2.9C5 3.3 5.2 3.3 5.5 3.3C5.7 3.3 5.9 3.3 5.9 3C5.9 2.6 5.8 2.5 5.5 2.5Z" fill="white"/>
<path d="M33.6 15.1C33.6 15.5 33.8 15.4 34.1 15.4C34.4 15.4 34.5 15.3 34.5 15C34.5 14.7 34.3 14.7 34.1 14.7C33.8 14.7 33.6 14.7 33.6 15.1Z" fill="white"/>
<path d="M3.6 3.79999C3.4 3.89999 3.2 4.09999 3 4.29999C3.3 4.49999 3.6 4.59999 3.9 4.29999C4 4.19999 4.4 4.09999 4.2 3.79999C4 3.49999 3.8 3.69999 3.6 3.79999Z" fill="white"/>
<path d="M4.3999 98.7C4.0999 98.7 3.8999 98.7 3.8999 99.1C3.8999 99.5 4.0999 99.4 4.3999 99.4C4.5999 99.4 4.7999 99.4 4.7999 99.1C4.7999 98.8 4.5999 98.7 4.3999 98.7Z" fill="white"/>
<path d="M6.79991 4.29999C6.59991 4.09999 6.39991 3.99999 6.19991 3.79999C5.99991 3.69999 5.79991 3.49999 5.59991 3.79999C5.39991 4.09999 5.79991 4.19999 5.89991 4.29999C6.09991 4.59999 6.49991 4.59999 6.79991 4.29999Z" fill="white"/>
<path d="M4.3999 3.2C4.6999 3.2 4.7999 3.1 4.7999 2.8C4.7999 2.5 4.5999 2.5 4.3999 2.5C4.1999 2.5 3.8999 2.5 3.8999 2.8C3.8999 3.2 4.0999 3.3 4.3999 3.2Z" fill="white"/>
<path d="M114.6 99.1C114.6 99.5 114.8 99.5 115.1 99.5C115.3 99.5 115.5 99.5 115.5 99.2C115.5 98.9 115.3 98.8 115 98.8C114.7 98.7 114.6 98.8 114.6 99.1Z" fill="white"/>
<path d="M107.4 1.6C108.4 1.6 109.3 1.6 110.3 1.6V1.5C109.3 1.5 108.4 1.5 107.4 1.6Z" fill="white"/>
<path d="M11.9 1.5C10.9 1.5 9.9 1.5 9 1.5V1.6C9.9 1.6 10.9 1.6 11.9 1.5Z" fill="white"/>
<path d="M113.9 3.20002C114.1 3.20002 114.2 3.10002 114.2 2.80002C114.2 2.40002 114 2.40002 113.7 2.40002C113.5 2.40002 113.3 2.40002 113.3 2.70002C113.4 3.10002 113.6 3.20002 113.9 3.20002Z" fill="white"/>
<path d="M32.7 14.7C32.4 14.7 32.2 14.7 32.2 15C32.2 15.3 32.3999 15.4 32.5999 15.4C32.7999 15.4 33.1 15.5 32.9 15.1C32.8 15 33.1 14.6 32.7 14.7Z" fill="white"/>
<path d="M1.89993 96.8C1.89993 95.9 1.89993 95 1.89993 94.1H1.79993C1.79993 95 1.79993 95.9 1.89993 96.8Z" fill="white"/>
<path d="M115.8 1.1C115.9 1 116.1 0.8 116.2 0.7C116.1 0.5 115.9 0.6 115.7 0.5C115.4 0.5 115.3 0.6 115.2 0.8C115.2 0.9 115.1 1 115.2 1.1C115.4 1.4 115.6 1.2 115.8 1.1Z" fill="white"/>
<path d="M116.5 1.9C116.7 1.5 117.1 1.8 117.6 1.5C116.8 1.5 116.2 1.5 115.6 1.5C115.8 2 116.2 1.7 116.5 1.9Z" fill="white"/>
<path d="M33.5 98.1C33.5 99 33.5 99.8 33.5 100.7H33.6C33.5 99.8 33.5 98.9 33.5 98.1Z" fill="white"/>
<path d="M116.5 100.1C116.2 100.2 115.8 100 115.6 100.4C116.2 100.4 116.8 100.4 117.5 100.4C117.1 100.2 116.7 100.5 116.5 100.1Z" fill="white"/>
<path d="M112.2 100.1C112 100.4 111.7 100.3 111.5 100.5C112.1 100.5 112.6 100.5 113.3 100.5C112.9 100 112.5 100.3 112.2 100.1Z" fill="white"/>
<path d="M115 2.29999C115.2 2.19999 115.5 2.39999 115.5 2.09999C115.5 1.79999 115.2 1.79999 114.9 1.79999C114.7 1.79999 114.4 1.79999 114.5 2.09999C114.5 2.49999 114.8 2.29999 115 2.29999Z" fill="white"/>
<path d="M6.99998 1.9C7.19998 1.6 7.49998 1.7 7.69998 1.5C7.19998 1.5 6.59998 1.5 6.09998 1.5C6.39998 2 6.79998 1.7 6.99998 1.9Z" fill="white"/>
<path d="M112.6 0.70002C112.7 0.80002 112.9 1.00002 113 1.10002C113.2 1.20002 113.4 1.40002 113.6 1.20002C113.8 1.00002 113.6 0.80002 113.5 0.70002C113.3 0.40002 112.9 0.50002 112.6 0.70002Z" fill="white"/>
<path d="M7.09995 100.1C6.79995 100.2 6.39995 99.9 6.19995 100.5C6.79995 100.5 7.29995 100.5 7.89995 100.5C7.59995 100.2 7.19995 100.5 7.09995 100.1Z" fill="white"/>
<path d="M2.8 100.1C2.7 100.4 2.3 100.2 2 100.5C2.6 100.5 3.2 100.5 3.7 100.5C3.4 100 3 100.3 2.8 100.1Z" fill="white"/>
<path d="M116.2 101.2C116.1 101.1 115.9 100.9 115.8 100.8C115.6 100.7 115.4 100.5 115.2 100.7C115 100.9 115.2 101.1 115.3 101.2C115.6 101.5 115.9 101.5 116.2 101.2Z" fill="white"/>
<path d="M113 100.9C112.9 101 112.7 101.2 112.6 101.3C112.7 101.5 112.9 101.5 113.1 101.5C113.4 101.5 113.5 101.5 113.6 101.2C113.6 101.1 113.7 101 113.6 100.9C113.4 100.6 113.2 100.8 113 100.9Z" fill="white"/>
<path d="M112.4 1.8C112.6 1.7 113 1.9 113.3 1.5C112.7 1.5 112.1 1.5 111.5 1.5C111.7 1.8 112.2 1.5 112.4 1.8Z" fill="white"/>
<path d="M2.7 1.8C3 1.7 3.3 1.9 3.7 1.5C3.1 1.5 2.5 1.5 2 1.5C2.2 1.7 2.6 1.5 2.7 1.8Z" fill="white"/>
<path d="M117.4 98.3C117 98.8 116.5 98.4 116 98.5C115.9 98.5 115.7 98.5 115.7 98.7C115.7 98.9 115.9 98.8 116 98.8C116.4 98.4 116.9 98.7 117.3 98.6C117.8 98.6 117.8 98.5 117.4 98.3Z" fill="white"/>
<path d="M117.6 3.69998C117.8 3.29998 117.5 3.29998 117.2 3.29998C116.8 3.29998 116.4 3.49998 116.1 3.09998C116 3.19998 115.7 3.09998 115.7 3.29998C115.7 3.49998 115.9 3.49998 116 3.49998C116.6 3.49998 117.1 3.19998 117.6 3.69998Z" fill="white"/>
<path d="M6.49995 99C6.79995 98.6 7.29995 98.8 7.69995 98.8C7.79995 98.8 7.99995 98.8 7.99995 98.6C7.99995 98.4 7.79995 98.5 7.69995 98.5C7.39995 98.9 6.89995 98.6 6.49995 98.7C6.39995 98.7 6.19995 98.6 6.19995 98.9C6.19995 98.9 6.39995 98.9 6.49995 99Z" fill="white"/>
<path d="M112.7 3C112.4 3.4 112 3.2 111.7 3.2C111.4 3.2 111.2 3.2 111.3 3.6C111.7 3.1 112.3 3.4 112.8 3.3C112.9 3.3 113.2 3.4 113.2 3.1C113.1 3 112.9 3.1 112.7 3Z" fill="white"/>
<path d="M4.3999 1.79999C4.1999 1.79999 3.9999 1.69999 3.8999 2.09999C3.8999 2.39999 4.0999 2.39999 4.2999 2.39999C4.4999 2.39999 4.6999 2.39999 4.6999 2.09999C4.7999 1.79999 4.5999 1.79999 4.3999 1.79999Z" fill="white"/>
<path d="M113.4 99.1C113.4 99.4 113.6 99.4 113.8 99.4C114.1 99.4 114.1 99.2 114.1 99C114.1 98.8 114 98.7 113.8 98.7C113.5 98.8 113.4 98.9 113.4 99.1Z" fill="white"/>
<path d="M111.5 98.3C111 98.5 111.1 98.6 111.5 98.7C112 98.8 112.5 98.5 112.9 99C113.3 98.8 113.3 98.6 112.8 98.6C112.4 98.5 111.9 98.8 111.5 98.3Z" fill="white"/>
<path d="M5.4 1.79999C5.2 1.79999 5 1.79999 5 2.09999C5 2.39999 5.3 2.29999 5.5 2.39999C5.7 2.39999 5.9 2.39999 5.9 2.19999C5.9 1.79999 5.6 1.79999 5.4 1.79999Z" fill="white"/>
<path d="M113.8 2.3C114 2.3 114.2 2.3 114.2 2C114.2 1.7 114 1.8 113.8 1.8C113.6 1.8 113.4 1.7 113.4 2.1C113.4 2.4 113.6 2.3 113.8 2.3Z" fill="white"/>
<path d="M3.8999 100C3.8999 100.3 4.1999 100.2 4.3999 100.2C4.5999 100.2 4.7999 100.2 4.7999 99.9C4.6999 99.6 4.4999 99.7 4.2999 99.7C4.0999 99.6 3.8999 99.7 3.8999 100Z" fill="white"/>
<path d="M3.29995 98.9C3.39995 98.8 3.59995 98.8 3.59995 98.7C3.59995 98.5 3.39995 98.6 3.29995 98.5C2.89995 98.4 2.39995 98.7 2.09995 98.2C1.69995 98.4 1.69995 98.6 2.19995 98.6C2.49995 98.8 2.99995 98.5 3.29995 98.9Z" fill="white"/>
<path d="M5 99.8C5 100.1 5.1 100.2 5.3 100.2C5.5 100.2 5.7 100.3 5.8 100C5.9 99.7 5.7 99.6 5.4 99.7C5.3 99.6 5.1 99.5 5 99.8Z" fill="white"/>
<path d="M111.1 4.49999C110.9 4.49999 110.8 4.39999 110.8 4.19999V0.599988C110.8 0.399988 110.9 0.299988 111.1 0.299988H117.3C117.5 0.299988 117.6 0.399988 117.6 0.599988V4.29999C117.6 4.49999 117.5 4.59999 117.3 4.59999H111.1V4.49999Z" fill="white"/>
<path d="M117.3 0.5C117.4 0.5 117.4 0.5 117.3 0.5L117.4 4.2C117.4 4.2 117.4 4.3 117.3 4.3H111.1C111.1 4.3 111 4.3 111 4.2V0.6C111 0.6 111 0.5 111.1 0.5H117.3ZM117.3 0H111.1C110.8 0 110.5 0.3 110.5 0.6V4.3C110.5 4.6 110.8 4.9 111.1 4.9H117.3C117.6 4.9 117.9 4.6 117.9 4.3V0.6C117.9 0.2 117.6 0 117.3 0Z" fill="black"/>
<path d="M114.2 3.49999C114.697 3.49999 115.1 3.0075 115.1 2.39999C115.1 1.79247 114.697 1.29999 114.2 1.29999C113.703 1.29999 113.3 1.79247 113.3 2.39999C113.3 3.0075 113.703 3.49999 114.2 3.49999Z" fill="white"/>
<path d="M114.2 1.39998C114.6 1.39998 114.9 1.79998 114.9 2.39998C114.9 2.99998 114.6 3.39998 114.2 3.39998C113.8 3.39998 113.5 2.99998 113.5 2.39998C113.5 1.79998 113.8 1.39998 114.2 1.39998ZM114.2 1.09998C113.7 1.09998 113.2 1.59998 113.2 2.29998C113.2 2.99998 113.6 3.49998 114.2 3.49998C114.8 3.49998 115.2 2.99998 115.2 2.29998C115.2 1.59998 114.8 1.09998 114.2 1.09998Z" fill="black"/>
<path d="M111.1 101.8C110.9 101.8 110.8 101.7 110.8 101.5V97.8C110.8 97.6 110.9 97.5 111.1 97.5H117.3C117.5 97.5 117.6 97.6 117.6 97.8V101.5C117.6 101.7 117.5 101.8 117.3 101.8H111.1Z" fill="white"/>
<path d="M117.3 97.7C117.4 97.7 117.4 97.7 117.3 97.7L117.4 101.4C117.4 101.4 117.4 101.5 117.3 101.5H111.1C111.1 101.5 111 101.5 111 101.4V97.7C111 97.7 111 97.6 111.1 97.6H117.3M117.3 97.2H111.1C110.8 97.2 110.5 97.5 110.5 97.8V101.5C110.5 101.8 110.8 102.1 111.1 102.1H117.3C117.6 102.1 117.9 101.8 117.9 101.5V97.8C117.9 97.5 117.6 97.2 117.3 97.2Z" fill="black"/>
<path d="M114.2 100.7C113.7 100.7 113.3 100.2 113.3 99.6C113.3 99 113.7 98.5 114.2 98.5C114.7 98.5 115.1 99 115.1 99.6C115.1 100.2 114.7 100.7 114.2 100.7Z" fill="white"/>
<path d="M114.2 98.6C114.6 98.6 114.9 99 114.9 99.6C114.9 100.1 114.6 100.6 114.2 100.6C113.8 100.6 113.5 100.2 113.5 99.6C113.5 99 113.8 98.6 114.2 98.6ZM114.2 98.4C113.7 98.4 113.2 98.9 113.2 99.6C113.2 100.3 113.6 100.8 114.2 100.8C114.8 100.8 115.2 100.3 115.2 99.6C115.2 98.9 114.8 98.4 114.2 98.4Z" fill="black"/>
<path d="M1.70002 4.49999C1.50002 4.49999 1.40002 4.39999 1.40002 4.19999V0.599988C1.40002 0.399988 1.50002 0.299988 1.70002 0.299988H7.90002C8.10002 0.299988 8.20002 0.399988 8.20002 0.599988V4.29999C8.20002 4.49999 8.10002 4.59999 7.90002 4.59999H1.70002V4.49999Z" fill="white"/>
<path d="M7.89998 0.5L7.99998 4.2C7.99998 4.2 7.99998 4.3 7.89998 4.3H1.69998C1.69998 4.3 1.59998 4.3 1.59998 4.2V0.6C1.59998 0.6 1.59998 0.5 1.69998 0.5H7.89998ZM7.89998 0H1.69998C1.39998 0 1.09998 0.2 1.09998 0.6V4.3C1.09998 4.6 1.39998 4.9 1.69998 4.9H7.89998C8.19998 4.9 8.49998 4.6 8.49998 4.3V0.6C8.49998 0.2 8.19998 0 7.89998 0Z" fill="black"/>
<path d="M4.7999 3.49999C4.2999 3.49999 3.8999 2.99999 3.8999 2.39999C3.8999 1.79999 4.2999 1.29999 4.7999 1.29999C5.2999 1.29999 5.6999 1.79999 5.6999 2.39999C5.6999 2.99999 5.2999 3.49999 4.7999 3.49999Z" fill="white"/>
<path d="M4.79993 1.39998C5.19993 1.39998 5.49993 1.79998 5.49993 2.39998C5.49993 2.99998 5.19993 3.39998 4.79993 3.39998C4.39993 3.39998 3.99993 2.89998 3.99993 2.39998C3.99993 1.89998 4.39993 1.39998 4.79993 1.39998ZM4.79993 1.09998C4.29993 1.09998 3.79993 1.59998 3.79993 2.29998C3.79993 2.99998 4.19993 3.49998 4.79993 3.49998C5.39993 3.49998 5.79993 2.99998 5.79993 2.29998C5.79993 1.59998 5.29993 1.09998 4.79993 1.09998Z" fill="black"/>
<path d="M1.70002 101.8C1.50002 101.8 1.40002 101.7 1.40002 101.5V97.8C1.40002 97.6 1.50002 97.5 1.70002 97.5H7.90002C8.10002 97.5 8.20002 97.6 8.20002 97.8V101.5C8.20002 101.7 8.10002 101.8 7.90002 101.8H1.70002Z" fill="white"/>
<path d="M7.89998 97.7L7.99998 101.4C7.99998 101.4 7.99998 101.5 7.89998 101.5H1.69998C1.69998 101.5 1.59998 101.5 1.59998 101.4V97.7C1.59998 97.7 1.59998 97.6 1.69998 97.6H7.89998M7.89998 97.2H1.69998C1.39998 97.2 1.09998 97.5 1.09998 97.8V101.5C1.09998 101.8 1.39998 102.1 1.69998 102.1H7.89998C8.19998 102.1 8.49998 101.8 8.49998 101.5V97.8C8.49998 97.5 8.19998 97.2 7.89998 97.2Z" fill="black"/>
<path d="M4.7999 100.7C4.2999 100.7 3.8999 100.2 3.8999 99.6C3.8999 99 4.2999 98.5 4.7999 98.5C5.2999 98.5 5.6999 99 5.6999 99.6C5.6999 100.2 5.2999 100.7 4.7999 100.7Z" fill="white"/>
<path d="M4.79993 98.6C5.19993 98.6 5.49993 99 5.49993 99.6C5.49993 100.1 5.19993 100.6 4.79993 100.6C4.39993 100.6 4.09993 100.2 4.09993 99.6C3.99993 99 4.39993 98.6 4.79993 98.6ZM4.79993 98.4C4.29993 98.4 3.79993 98.9 3.79993 99.6C3.79993 100.3 4.19993 100.8 4.79993 100.8C5.39993 100.8 5.79993 100.3 5.79993 99.6C5.79993 98.9 5.29993 98.4 4.79993 98.4Z" fill="black"/>
</g>
<defs>
<clipPath id="clip0_527_230">
<rect width="118" height="102" fill="white"/>
</clipPath>
</defs>
</svg>
