<svg width="36" height="42" viewBox="0 0 36 42" fill="none" xmlns="http://www.w3.org/2000/svg">
<g clip-path="url(#clip0_1603_203)">
<path d="M35.36 0.120117H0.119995V41.3601H35.36V0.120117Z" fill="white"/>
<path d="M16.08 4.28027V37.2103" stroke="#010101" stroke-width="0.25" stroke-miterlimit="10"/>
<path d="M32.74 38.74V2.75H18.37" stroke="#010101" stroke-width="0.25" stroke-miterlimit="10"/>
<path d="M16.21 37.2103H4.28003V4.28027H16.21V37.2103Z" stroke="#010101" stroke-width="0.25" stroke-miterlimit="10"/>
<path d="M0.219971 41.2702H35.27V0.220215H0.219971V41.2702Z" stroke="#010101" stroke-width="0.25" stroke-miterlimit="10"/>
<path d="M35.23 41.2303V0.260254H0.26001V41.2303H35.23Z" stroke="#010101" stroke-width="0.25" stroke-miterlimit="10"/>
<path d="M2.66003 2.66016V38.8402H32.84V2.66016H2.66003Z" stroke="#010101" stroke-width="0.25" stroke-miterlimit="10"/>
<path d="M32.74 38.7402H18.37" stroke="#010101" stroke-width="0.25" stroke-miterlimit="10"/>
<path d="M35.04 41.0402H0.449951V0.450195H35.04V41.0402Z" stroke="#010101" stroke-width="0.25" stroke-miterlimit="10"/>
<path d="M35.36 41.3601H0.119995V0.120117H35.36V41.3601Z" stroke="#010101" stroke-width="0.25" stroke-miterlimit="10"/>
<path d="M18.38 2.66016V38.8402" stroke="#010101" stroke-width="0.25" stroke-miterlimit="10"/>
<path d="M19.28 4.28027H31.21V37.2103H19.28V4.28027Z" stroke="#010101" stroke-width="0.25" stroke-miterlimit="10"/>
<path d="M16.1 4.28027V37.2103" stroke="#010101" stroke-width="0.25" stroke-miterlimit="10"/>
<path d="M15.95 4.28027V37.2103" stroke="#010101" stroke-width="0.25" stroke-miterlimit="10"/>
<path d="M15.98 4.28027V37.2103" stroke="#010101" stroke-width="0.25" stroke-miterlimit="10"/>
</g>
<defs>
<clipPath id="clip0_1603_203">
<rect width="35.49" height="41.49" fill="white"/>
</clipPath>
</defs>
</svg>
