<svg width="54" height="30" viewBox="0 0 54 30" fill="none" xmlns="http://www.w3.org/2000/svg">
<g clip-path="url(#clip0_1603_63)">
<path d="M53.36 0.120117H0.119995V29.3601H53.36V0.120117Z" fill="white"/>
<path d="M50.74 29.2303H53.22V0.260254H0.26001V29.2303H50.74Z" stroke="#010101" stroke-width="0.25" stroke-miterlimit="10"/>
<path d="M53.04 29.0402H0.450012V0.450195H53.04V29.0402Z" stroke="#010101" stroke-width="0.25" stroke-miterlimit="10"/>
<path d="M24.98 4.28027V25.2103" stroke="#010101" stroke-width="0.25" stroke-miterlimit="10"/>
<path d="M50.74 26.74V2.75H27.37" stroke="#010101" stroke-width="0.25" stroke-miterlimit="10"/>
<path d="M2.74997 29.2702H53.28V2.75021C53.28 1.91021 53.28 1.07021 53.28 0.220215H0.219971C0.219971 1.06021 0.219971 1.90021 0.219971 2.75021V29.2802H2.74997V29.2702Z" stroke="#010101" stroke-width="0.25" stroke-miterlimit="10"/>
<path d="M2.65997 2.66016V26.8402H50.84V2.66016H2.65997Z" stroke="#010101" stroke-width="0.25" stroke-miterlimit="10"/>
<path d="M50.74 26.7402H27.37" stroke="#010101" stroke-width="0.25" stroke-miterlimit="10"/>
<path d="M25.21 25.2103H4.27997V4.28027H25.21V25.2103Z" stroke="#010101" stroke-width="0.25" stroke-miterlimit="10"/>
<path d="M24.95 4.28027V25.2103" stroke="#010101" stroke-width="0.25" stroke-miterlimit="10"/>
<path d="M25.08 4.28027V25.2103" stroke="#010101" stroke-width="0.25" stroke-miterlimit="10"/>
<path d="M25.11 4.28027V25.2103" stroke="#010101" stroke-width="0.25" stroke-miterlimit="10"/>
<path d="M53.36 29.3601H0.119995V0.120117H53.36V29.3601Z" stroke="#010101" stroke-width="0.25" stroke-miterlimit="10"/>
<path d="M28.28 4.28027H49.21V25.2103H28.28V4.28027Z" stroke="#010101" stroke-width="0.25" stroke-miterlimit="10"/>
<path d="M27.38 26.8199H50.82V2.66992H27.38" stroke="#010101" stroke-width="0.25" stroke-miterlimit="10"/>
<path d="M27.38 2.66016V26.8402" stroke="#010101" stroke-width="0.25" stroke-miterlimit="10"/>
</g>
<defs>
<clipPath id="clip0_1603_63">
<rect width="53.49" height="29.49" fill="white"/>
</clipPath>
</defs>
</svg>
