<svg width="54" height="54" viewBox="0 0 54 54" fill="none" xmlns="http://www.w3.org/2000/svg">
<g clip-path="url(#clip0_1603_342)">
<path d="M53.36 0.379883H0.119995V53.3599H53.36V0.379883Z" fill="white"/>
<path d="M53.36 53.3601H0.119995V0.120117H53.36V53.3601Z" stroke="#010101" stroke-width="0.25" stroke-miterlimit="10"/>
<path d="M53.04 53.0402H0.449951V0.450195H53.04V53.0402Z" stroke="#010101" stroke-width="0.25" stroke-miterlimit="10"/>
<path d="M2.66003 2.66016V50.8402H50.84V2.66016H2.66003Z" stroke="#010101" stroke-width="0.25" stroke-miterlimit="10"/>
<path d="M28.28 4.28027H49.21V49.2103H28.28V4.28027Z" stroke="#010101" stroke-width="0.25" stroke-miterlimit="10"/>
<path d="M50.74 50.74V2.75H27.37" stroke="#010101" stroke-width="0.25" stroke-miterlimit="10"/>
<path d="M50.74 50.7402H27.37" stroke="#010101" stroke-width="0.25" stroke-miterlimit="10"/>
<path d="M25.21 49.2103H4.28003V4.28027H25.2V49.2003L25.21 49.2103Z" stroke="#010101" stroke-width="0.25" stroke-miterlimit="10"/>
<path d="M27.38 2.66016V50.8402" stroke="#010101" stroke-width="0.25" stroke-miterlimit="10"/>
<path d="M0.219971 53.2702H53.27V0.220215H0.219971V53.2702Z" stroke="#010101" stroke-width="0.25" stroke-miterlimit="10"/>
<path d="M53.23 53.2303V0.260254H0.26001V53.2303H53.23Z" stroke="#010101" stroke-width="0.25" stroke-miterlimit="10"/>
</g>
<defs>
<clipPath id="clip0_1603_342">
<rect width="53.49" height="53.49" fill="white"/>
</clipPath>
</defs>
</svg>
