<svg width="54" height="66" viewBox="0 0 54 66" fill="none" xmlns="http://www.w3.org/2000/svg">
<g clip-path="url(#clip0_1603_612)">
<path d="M53.3601 0.120117H0.120117V65.3601H53.3601V0.120117Z" fill="white"/>
<path d="M53.3601 65.3601H0.120117V0.120117H53.3601V65.3601Z" stroke="#010101" stroke-width="0.25" stroke-miterlimit="10"/>
<path d="M53.23 65.2303V0.260254H0.26001V65.2303H53.23Z" stroke="#010101" stroke-width="0.25" stroke-miterlimit="10"/>
<path d="M0.220215 65.2702H53.2702V0.220215H0.220215V65.2702Z" stroke="#010101" stroke-width="0.25" stroke-miterlimit="10"/>
<path d="M25.21 61.2103H4.28003V4.28027H25.2V61.2003L25.21 61.2103Z" stroke="#010101" stroke-width="0.25" stroke-miterlimit="10"/>
<path d="M50.7401 62.7402H27.3701" stroke="#010101" stroke-width="0.25" stroke-miterlimit="10"/>
<path d="M27.3801 2.66016V62.8402" stroke="#010101" stroke-width="0.25" stroke-miterlimit="10"/>
<path d="M50.7401 62.74V2.75H27.3701" stroke="#010101" stroke-width="0.25" stroke-miterlimit="10"/>
<path d="M28.28 4.28027H49.21V61.2103H28.28V4.28027Z" stroke="#010101" stroke-width="0.25" stroke-miterlimit="10"/>
<path d="M2.66016 2.66016V62.8402H50.8402V2.66016H2.66016Z" stroke="#010101" stroke-width="0.25" stroke-miterlimit="10"/>
<path d="M53.0402 65.0402H0.450195V0.450195H53.0402V65.0402Z" stroke="#010101" stroke-width="0.25" stroke-miterlimit="10"/>
</g>
<defs>
<clipPath id="clip0_1603_612">
<rect width="53.49" height="65.49" fill="white"/>
</clipPath>
</defs>
</svg>
