<svg width="66" height="54" viewBox="0 0 66 54" fill="none" xmlns="http://www.w3.org/2000/svg">
<g clip-path="url(#clip0_1603_477)">
<path d="M65.36 0.120117H0.119995V53.3601H65.36V0.120117Z" fill="white"/>
<path d="M62.74 50.7402H33.37" stroke="#010101" stroke-width="0.25" stroke-miterlimit="10"/>
<path d="M33.38 2.66016V50.8402" stroke="#010101" stroke-width="0.25" stroke-miterlimit="10"/>
<path d="M31.21 49.2103H4.28003V4.28027H31.21V49.2003V49.2103Z" stroke="#010101" stroke-width="0.25" stroke-miterlimit="10"/>
<path d="M0.219971 53.2702H65.27V0.220215H0.219971V53.2702Z" stroke="#010101" stroke-width="0.25" stroke-miterlimit="10"/>
<path d="M65.23 53.2303V0.260254H0.26001V53.2303H65.23Z" stroke="#010101" stroke-width="0.25" stroke-miterlimit="10"/>
<path d="M65.36 53.3601H0.119995V0.120117H65.36V53.3601Z" stroke="#010101" stroke-width="0.25" stroke-miterlimit="10"/>
<path d="M65.04 53.0402H0.449951V0.450195H65.04V53.0402Z" stroke="#010101" stroke-width="0.25" stroke-miterlimit="10"/>
<path d="M2.66003 2.66016V50.8402H62.84V2.66016H2.66003Z" stroke="#010101" stroke-width="0.25" stroke-miterlimit="10"/>
<path d="M34.28 4.28027H61.21V49.2103H34.28V4.28027Z" stroke="#010101" stroke-width="0.25" stroke-miterlimit="10"/>
<path d="M62.74 50.74V2.75H33.37" stroke="#010101" stroke-width="0.25" stroke-miterlimit="10"/>
</g>
<defs>
<clipPath id="clip0_1603_477">
<rect width="65.49" height="53.49" fill="white"/>
</clipPath>
</defs>
</svg>
