<svg width="26" height="21" viewBox="0 0 26 21" fill="none" xmlns="http://www.w3.org/2000/svg">
<g clip-path="url(#clip0_1669_8403)">
<path d="M25.1602 20.1898L25.1602 20.3598C25.1602 20.3598 25.1402 20.5098 25.1202 20.5598C25.1002 20.6198 25.0702 20.6598 25.0102 20.6898C23.6502 20.6898 22.8402 20.6898 22.0102 20.6898C21.0702 20.6898 20.1102 20.6898 19.1602 20.6898C19.1602 20.6898 19.1502 20.6898 19.1402 20.6898L18.4202 20.6898C18.4202 20.6898 18.4102 20.6898 18.4002 20.6898C17.1502 20.6898 16.2002 20.6898 15.0402 20.6898C14.9102 20.6898 14.7802 20.6998 14.6502 20.7298L14.6302 20.7298C14.6302 20.7298 14.5202 20.7598 14.4702 20.7798C13.5302 20.7798 12.5902 20.7798 11.6502 20.7798L11.4902 20.7398C11.3502 20.7098 11.2102 20.6898 11.0702 20.6898C7.92018 20.6898 4.77017 20.6898 1.63017 20.6898C1.56017 20.6898 1.53017 20.6898 1.53017 20.6898C1.40017 20.6898 1.26017 20.6898 1.13017 20.6898C1.01017 20.6398 0.980175 20.4698 0.980175 20.3598C0.980175 20.3598 0.980175 20.3598 0.980175 20.3298L0.980175 18.8998C0.980175 18.8998 0.980175 18.8498 0.980175 18.7998L0.980175 18.6198C0.980175 18.6198 0.970174 18.5798 0.960174 18.5598C0.940174 18.5298 0.920175 18.4998 0.920175 18.4498C0.920175 18.4498 0.920175 18.4198 0.920175 18.3798L0.920175 17.8998L0.480175 17.8998L0.480175 17.9298C0.480175 17.9298 0.450175 17.9698 0.420175 17.9798L0.390175 17.9798L0.360174 17.9698L0.330175 17.9698L0.310175 17.9798C0.280175 17.9798 0.260175 17.9598 0.250175 17.9298L0.250175 17.8998L0.140175 17.8998C0.120175 17.8998 0.110174 17.8898 0.110174 17.8698L0.110172 0.469788C0.110172 0.469788 0.120173 0.439789 0.140173 0.439789L0.140173 0.339789L0.790173 0.339789L0.790173 0.269789C0.790173 0.269789 0.820174 0.229788 0.850174 0.219788L0.880173 0.219788L0.910174 0.229788L0.940172 0.229788L0.960173 0.219788C0.990173 0.219788 1.01017 0.239789 1.02017 0.269789L1.02017 0.329788L1.45017 0.329788L1.45017 0.269789C1.45017 0.269789 1.48017 0.229788 1.51017 0.219788L1.54017 0.219788L1.57017 0.229788L1.60017 0.229788L1.62017 0.219788C1.65017 0.219788 1.67017 0.239789 1.68017 0.269789L1.68017 0.329788L24.1102 0.329786L24.1102 0.269787C24.1102 0.269787 24.1402 0.229786 24.1702 0.219786L24.2002 0.219786L24.2302 0.229786L24.2602 0.229786L24.2802 0.219786C24.3102 0.219786 24.3302 0.239787 24.3402 0.269787L24.3402 0.329786L24.7702 0.329786L24.7702 0.269787C24.7702 0.269787 24.8002 0.229786 24.8302 0.219786L24.8602 0.219786L24.8902 0.229786L24.9202 0.229786L24.9402 0.219786C24.9702 0.219786 24.9902 0.239787 25.0002 0.269787L25.0002 0.329786L25.6502 0.329786L25.6502 0.429787C25.6502 0.429787 25.6802 0.439785 25.6802 0.459785L25.6802 17.8798C25.6802 17.8798 25.6702 17.9098 25.6502 17.9098L25.5402 17.9098L25.5402 17.9398C25.5402 17.9398 25.5102 17.9798 25.4802 17.9898L25.4502 17.9898L25.4202 17.9798L25.3902 17.9798L25.3702 17.9898C25.3402 17.9898 25.3202 17.9698 25.3102 17.9398L25.3102 17.9098L25.2002 17.9098L25.2002 18.3898L25.2002 18.4598C25.2002 18.5098 25.1802 18.5398 25.1602 18.5698C25.1502 18.5898 25.1302 18.6098 25.1402 18.6298L25.1402 18.8098C25.1402 18.8098 25.1402 18.8798 25.1402 18.9098C25.1402 18.9098 25.1402 18.9098 25.1402 18.9698L25.1402 20.1898C25.1402 20.1898 25.1402 20.1998 25.1402 20.2198L25.1402 20.1898L25.1602 20.1898Z" fill="white"/>
<path d="M25.6899 17.8601C25.6899 17.8601 25.6799 17.8901 25.6599 17.8901L0.159943 17.8901C0.159943 17.8901 0.129942 17.8801 0.129942 17.8601L0.12994 0.360138C0.12994 0.360138 0.139941 0.330139 0.159941 0.330139L25.6499 0.330137C25.6499 0.330137 25.6799 0.340136 25.6799 0.360136L25.6799 17.8601L25.6899 17.8601Z" stroke="#010101" stroke-width="0.25" stroke-miterlimit="10"/>
<path d="M23.72 16.4199C23.83 16.4199 23.97 16.3699 24.07 16.2799C24.16 16.1899 24.21 16.0599 24.22 15.9299C24.22 15.8399 24.22 15.7599 24.22 15.6699C24.22 15.5799 24.22 15.4999 24.22 15.4099C24.22 15.2799 24.17 15.1599 24.08 15.0599C24.03 15.0099 23.97 14.9699 23.91 14.9499C23.88 14.9399 23.85 14.9299 23.82 14.9199C23.79 14.9199 23.76 14.9199 23.73 14.9199C22.84 14.9199 21.93 14.9199 21.03 14.9199C20.13 14.9199 19.23 14.9199 18.33 14.9199C16.53 14.9199 14.73 14.9199 12.92 14.9199C9.31997 14.9199 5.70997 14.9199 2.10997 14.9199C1.99997 14.9199 1.85997 14.9699 1.75997 15.0599C1.66997 15.1499 1.61997 15.2799 1.60997 15.4099C1.60997 15.4999 1.60997 15.5799 1.60997 15.6699C1.60997 15.7599 1.60997 15.8399 1.60997 15.9299C1.60997 16.0599 1.65997 16.1799 1.74997 16.2799C1.79997 16.3299 1.85997 16.3699 1.91997 16.3899C1.94997 16.3999 1.97997 16.4099 2.00997 16.4199C2.03997 16.4199 2.06997 16.4199 2.09997 16.4199C2.53997 16.4199 2.99997 16.4199 3.44997 16.4199C3.89997 16.4199 4.34997 16.4199 4.79997 16.4199C5.69997 16.4199 6.59997 16.4199 7.49997 16.4199C9.29997 16.4199 11.1 16.4199 12.91 16.4199C14.71 16.4199 16.51 16.4199 18.32 16.4199C20.13 16.4199 21.92 16.4199 23.73 16.4199L23.72 16.4199Z" stroke="#010101" stroke-width="0.25" stroke-miterlimit="10"/>
<path d="M25.1499 18.9L25.0999 18.9C25.0999 18.9 25.0399 18.9 25.0099 18.9C25.0099 18.9 25.0099 18.9 25.0099 18.98L25.0099 20.48C25.0699 20.46 25.1099 20.42 25.1299 20.37C25.1299 20.36 25.1599 20.21 25.1599 20.19L25.1599 18.96C25.1599 18.9 25.1599 18.9 25.1599 18.9C25.1499 18.87 25.1499 18.83 25.1599 18.8C25.1599 18.74 25.1599 18.63 25.1599 18.39L25.1599 17.89" stroke="#010101" stroke-width="0.25" stroke-miterlimit="10"/>
<path d="M0.149902 0.370119L0.149902 0.340121L0.149902 0.24012L25.6499 0.240118L25.6499 0.340118" stroke="#010101" stroke-width="0.25" stroke-miterlimit="10"/>
<path d="M11.3599 20.0101L11.3599 20.0701L11.2999 20.0701L11.2999 20.0101" stroke="#010101" stroke-width="0.25" stroke-miterlimit="10"/>
<path d="M13.22 20.13L13.22 20.46L13.16 20.46L13.16 20.13" stroke="#010101" stroke-width="0.25" stroke-miterlimit="10"/>
<path d="M13.22 20.0101L13.22 20.0701L13.16 20.0701L13.16 20.0101" stroke="#010101" stroke-width="0.25" stroke-miterlimit="10"/>
<path d="M7.68989 20.48C7.68989 20.48 7.70989 20.48 7.71989 20.48L7.73989 20.48C13.2399 20.48 18.7399 20.48 24.2899 20.48C24.3199 20.48 24.3599 20.48 24.3899 20.48L24.3899 20.15C24.3899 20.15 24.3399 20.1 24.2999 20.1C24.2799 20.1 24.2599 20.1 24.2399 20.1L7.73989 20.1C7.73989 20.1 7.68989 20.1 7.67989 20.1C7.65989 20.1 7.63989 20.1 7.62989 20.11C7.59989 20.12 7.58989 20.13 7.58989 20.15L7.58989 20.48C7.58989 20.48 7.65989 20.48 7.68989 20.48ZM7.68989 20.48L7.68989 20.15L7.69989 20.15L7.70989 20.13L24.2499 20.13C24.2499 20.13 24.2899 20.13 24.2999 20.15C24.2999 20.17 24.2999 20.18 24.2999 20.19L24.2999 20.48" stroke="#010101" stroke-width="0.25" stroke-miterlimit="10"/>
<path d="M9.48999 20.13L9.48999 20.46L9.42999 20.46L9.42999 20.13" stroke="#010101" stroke-width="0.25" stroke-miterlimit="10"/>
<path d="M9.48999 20.0101L9.48999 20.0701L9.42999 20.0701L9.42999 20.0101" stroke="#010101" stroke-width="0.25" stroke-miterlimit="10"/>
<path d="M14.8198 20.68L14.6398 20.73C14.6398 20.73 14.5298 20.76 14.4798 20.77C13.5398 20.77 12.5998 20.77 11.6598 20.77L11.5298 20.68" stroke="#010101" stroke-width="0.25" stroke-miterlimit="10"/>
<path d="M25.1599 20.1899L25.1599 20.3599C25.1599 20.3599 25.1399 20.5099 25.1199 20.5599C25.0999 20.6199 25.0699 20.6699 25.0099 20.6899C23.6499 20.6899 22.8399 20.6899 22.0099 20.6899C21.0699 20.6899 20.1099 20.6899 19.1599 20.6899" stroke="#010101" stroke-width="0.25" stroke-miterlimit="10"/>
<path d="M0.990059 17.8899L0.990059 18.7999L0.990059 18.8999L0.990059 20.3299L0.990059 20.3599C0.990059 20.4599 1.02006 20.6399 1.14006 20.6899C1.27006 20.6899 1.41006 20.6899 1.54006 20.6899C1.54006 20.6899 1.57006 20.6899 1.64006 20.6899C5.36006 20.6899 9.09006 20.6899 12.8101 20.6899" stroke="#010101" stroke-width="0.25" stroke-miterlimit="10"/>
<path d="M6.66006 20.49L1.69006 20.49C1.69006 20.49 1.61006 20.49 1.58006 20.49C1.55006 20.49 1.54006 20.49 1.54006 20.49L1.54006 20.08C1.54006 20.08 1.55006 20.05 1.56006 20.05C1.60006 20.03 1.64006 20.01 1.69006 20.02L6.66006 20.02C6.66006 20.02 6.70006 20.02 6.72006 20.02C6.73006 20.02 6.74006 20.02 6.75006 20.02C6.78006 20.02 6.80006 20.04 6.81006 20.07L6.81006 20.48C6.81006 20.48 6.79006 20.48 6.77006 20.48C6.76006 20.48 6.74006 20.48 6.72006 20.48C6.72006 20.48 6.70006 20.48 6.69006 20.48C6.69006 20.48 6.69006 20.48 6.66006 20.48L6.66006 20.49Z" stroke="#010101" stroke-width="0.25" stroke-miterlimit="10"/>
<path d="M6.81006 20.43C6.81006 20.43 6.71006 20.45 6.66006 20.45L1.69006 20.45L1.69006 20.48" stroke="#010101" stroke-width="0.25" stroke-miterlimit="10"/>
<path d="M7.58986 20.48L7.53985 20.48C7.53985 20.48 7.45986 20.48 7.42986 20.48C7.39986 20.48 7.38985 20.48 7.38985 20.48L7.38985 20.07C7.38985 20.07 7.39986 20.04 7.42986 20.03C7.43986 20.03 7.45985 20.02 7.47985 20.01C7.47985 20.01 7.49985 20.01 7.53985 20.01L24.4499 20.01C24.5099 20 24.5699 20.02 24.5999 20.08C24.5999 20.12 24.5999 20.16 24.5999 20.2L24.5999 20.49C24.5999 20.49 24.5799 20.49 24.5599 20.49C24.5499 20.49 24.5299 20.49 24.5099 20.49C24.5099 20.49 24.4899 20.49 24.4699 20.49L24.4099 20.49" stroke="#010101" stroke-width="0.25" stroke-miterlimit="10"/>
<path d="M2.08984 15.03C5.68984 15.03 9.29984 15.03 12.8998 15.03C14.6998 15.03 16.5098 15.03 18.3098 15.03C19.2098 15.03 20.1098 15.03 21.0098 15.03C21.9098 15.03 22.8198 15.03 23.6898 15.03C23.7198 15.03 23.7498 15.03 23.7798 15.03C23.8098 15.03 23.8298 15.04 23.8498 15.05C23.8898 15.07 23.9398 15.1 23.9798 15.13C24.0198 15.16 24.0498 15.21 24.0598 15.26C24.0698 15.31 24.0798 15.35 24.0898 15.4C24.0898 15.47 24.0898 15.57 24.0898 15.66C24.0898 15.75 24.0898 15.84 24.0898 15.91C24.0898 16.02 24.0498 16.11 23.9798 16.18C23.9098 16.25 23.7998 16.29 23.7098 16.29C21.9098 16.29 20.1098 16.29 18.2998 16.29C16.4998 16.29 14.6998 16.29 12.8898 16.29C11.0798 16.29 9.28984 16.29 7.47984 16.29C6.57984 16.29 5.67984 16.29 4.77984 16.29C4.32984 16.29 3.87984 16.29 3.42984 16.29C2.97984 16.29 2.51984 16.29 2.09984 16.29C2.06984 16.29 2.03984 16.29 2.00984 16.29C1.97984 16.29 1.95984 16.29 1.93984 16.27C1.89984 16.25 1.84984 16.22 1.80984 16.18C1.73984 16.11 1.70984 16.02 1.69984 15.91C1.69984 15.83 1.69984 15.74 1.69984 15.66C1.69984 15.57 1.69984 15.48 1.69984 15.41C1.69984 15.3 1.73984 15.21 1.80984 15.14C1.87984 15.07 1.98984 15.03 2.07984 15.03L2.08984 15.03Z" stroke="#010101" stroke-width="0.25" stroke-miterlimit="10"/>
<path d="M16.96 20.3101L18.76 20.3101" stroke="#010101" stroke-width="0.25" stroke-miterlimit="10"/>
<path d="M13.22 20.3101L15.03 20.3101" stroke="#010101" stroke-width="0.25" stroke-miterlimit="10"/>
<path d="M15.0899 20.3101L16.8999 20.3101" stroke="#010101" stroke-width="0.25" stroke-miterlimit="10"/>
<path d="M16.8999 20.4099L15.0899 20.4099" stroke="#010101" stroke-width="0.25" stroke-miterlimit="10"/>
<path d="M15.03 20.4099L13.59 20.4099" stroke="#010101" stroke-width="0.25" stroke-miterlimit="10"/>
<path d="M11.3 20.4099L9.49005 20.4099" stroke="#010101" stroke-width="0.25" stroke-miterlimit="10"/>
<path d="M22.56 20.3101L24.28 20.3101" stroke="#010101" stroke-width="0.25" stroke-miterlimit="10"/>
<path d="M12.8 20.4099L11.35 20.4099" stroke="#010101" stroke-width="0.25" stroke-miterlimit="10"/>
<path d="M16.96 20.0701L16.9 20.0701L16.9 20.0101" stroke="#010101" stroke-width="0.25" stroke-miterlimit="10"/>
<path d="M11.32 20.68L11.5 20.73" stroke="#010101" stroke-width="0.25" stroke-miterlimit="10"/>
<path d="M25.01 20.4799L25.01 20.6799" stroke="#010101" stroke-width="0.25" stroke-miterlimit="10"/>
<path d="M6.65991 20.49L6.65991 20.46" stroke="#010101" stroke-width="0.25" stroke-miterlimit="10"/>
<path d="M15.0898 20.0101L15.0898 20.0701L15.0298 20.0701L15.0298 20.0101" stroke="#010101" stroke-width="0.25" stroke-miterlimit="10"/>
<path d="M24.3 20.29L22.56 20.29" stroke="#010101" stroke-width="0.25" stroke-miterlimit="10"/>
<path d="M22.56 20.1899C23.14 20.1899 23.72 20.1899 24.3 20.1899" stroke="#010101" stroke-width="0.25" stroke-miterlimit="10"/>
<path d="M12.8298 20.6899L13.5498 20.6899C13.5498 20.6899 13.5798 20.6899 13.5798 20.6699L13.5798 20.5699C13.5798 20.5699 13.5598 20.5499 13.5498 20.5499L12.8298 20.5499C12.8298 20.5499 12.7998 20.5499 12.7998 20.5699L12.7998 20.6699C12.7998 20.6699 12.8198 20.6899 12.8298 20.6899Z" stroke="#010101" stroke-width="0.25" stroke-miterlimit="10"/>
<path d="M18.4299 20.6899L19.1499 20.6899C19.1499 20.6899 19.1799 20.6899 19.1799 20.6699L19.1799 20.5699C19.1799 20.5699 19.1599 20.5499 19.1499 20.5499L18.4299 20.5499C18.4299 20.5499 18.3999 20.5499 18.3999 20.5699L18.3999 20.6699C18.3999 20.6699 18.4199 20.6899 18.4299 20.6899Z" stroke="#010101" stroke-width="0.25" stroke-miterlimit="10"/>
<path d="M20.6899 20.13L20.6899 20.46L20.6299 20.46L20.6299 20.13" stroke="#010101" stroke-width="0.25" stroke-miterlimit="10"/>
<path d="M11.3599 20.3101L13.1699 20.3101" stroke="#010101" stroke-width="0.25" stroke-miterlimit="10"/>
<path d="M20.6299 20.1899L18.8199 20.1899" stroke="#010101" stroke-width="0.25" stroke-miterlimit="10"/>
<path d="M20.6899 20.0101L20.6899 20.0701L20.6299 20.0701L20.6299 20.0101" stroke="#010101" stroke-width="0.25" stroke-miterlimit="10"/>
<path d="M20.6299 20.29L18.8199 20.29" stroke="#010101" stroke-width="0.25" stroke-miterlimit="10"/>
<path d="M24.3 20.4099L22.57 20.4099" stroke="#010101" stroke-width="0.25" stroke-miterlimit="10"/>
<path d="M18.8198 20.13L18.8198 20.46L18.7598 20.46L18.7598 20.13" stroke="#010101" stroke-width="0.25" stroke-miterlimit="10"/>
<path d="M1.13989 20.48C1.07989 20.46 1.03989 20.42 1.02989 20.36C1.01989 20.32 0.999893 20.23 0.989893 20.18" stroke="#010101" stroke-width="0.25" stroke-miterlimit="10"/>
<path d="M1.68994 20.45C1.63994 20.45 1.58994 20.45 1.53994 20.43" stroke="#010101" stroke-width="0.25" stroke-miterlimit="10"/>
<path d="M18.8198 20.0101L18.8198 20.0701L18.7598 20.0701L18.7598 20.0101" stroke="#010101" stroke-width="0.25" stroke-miterlimit="10"/>
<path d="M12.8 20.5601L12.8 20.3601" stroke="#010101" stroke-width="0.25" stroke-miterlimit="10"/>
<path d="M13.5798 20.5601L13.5798 20.3601" stroke="#010101" stroke-width="0.25" stroke-miterlimit="10"/>
<path d="M22.5601 20.13L22.5601 20.46L22.5001 20.46L22.5001 20.13" stroke="#010101" stroke-width="0.25" stroke-miterlimit="10"/>
<path d="M18.3999 20.5601L18.3999 20.3601" stroke="#010101" stroke-width="0.25" stroke-miterlimit="10"/>
<path d="M13.1599 20.3701L11.3499 20.3701" stroke="#010101" stroke-width="0.25" stroke-miterlimit="10"/>
<path d="M22.5601 20.0101L22.5601 20.0701L22.5001 20.0701L22.5001 20.0101" stroke="#010101" stroke-width="0.25" stroke-miterlimit="10"/>
<path d="M15.03 20.3701L13.22 20.3701" stroke="#010101" stroke-width="0.25" stroke-miterlimit="10"/>
<path d="M18.77 20.3701L16.96 20.3701" stroke="#010101" stroke-width="0.25" stroke-miterlimit="10"/>
<path d="M16.96 20.0701L16.96 20.0101" stroke="#010101" stroke-width="0.25" stroke-miterlimit="10"/>
<path d="M15.05 20.68C14.91 20.68 14.77 20.69 14.63 20.73" stroke="#010101" stroke-width="0.25" stroke-miterlimit="10"/>
<path d="M19.1799 20.5601L19.1799 20.3601" stroke="#010101" stroke-width="0.25" stroke-miterlimit="10"/>
<path d="M1.13989 17.8899L1.13989 18.7899L1.13989 18.8899L1.13989 20.6899" stroke="#010101" stroke-width="0.25" stroke-miterlimit="10"/>
<path d="M18.4099 20.68C17.1399 20.68 15.8799 20.68 14.6099 20.68L14.4799 20.77" stroke="#010101" stroke-width="0.25" stroke-miterlimit="10"/>
<path d="M11.3 20.1899L9.49005 20.1899" stroke="#010101" stroke-width="0.25" stroke-miterlimit="10"/>
<path d="M7.58984 20.1499L7.58984 20.0099" stroke="#010101" stroke-width="0.25" stroke-miterlimit="10"/>
<path d="M24.3999 20.0101L24.3999 20.1401" stroke="#010101" stroke-width="0.25" stroke-miterlimit="10"/>
<path d="M13.1699 20.1899L11.3599 20.1899" stroke="#010101" stroke-width="0.25" stroke-miterlimit="10"/>
<path d="M16.8999 20.3701L15.0899 20.3701" stroke="#010101" stroke-width="0.25" stroke-miterlimit="10"/>
<path d="M11.6599 20.77L11.4999 20.73C11.3599 20.7 11.2199 20.68 11.0799 20.68" stroke="#010101" stroke-width="0.25" stroke-miterlimit="10"/>
<path d="M18.76 20.29L16.96 20.29" stroke="#010101" stroke-width="0.25" stroke-miterlimit="10"/>
<path d="M11.3 20.3701L9.49005 20.3701" stroke="#010101" stroke-width="0.25" stroke-miterlimit="10"/>
<path d="M18.76 20.1899L16.96 20.1899" stroke="#010101" stroke-width="0.25" stroke-miterlimit="10"/>
<path d="M16.8999 20.1899L15.0899 20.1899" stroke="#010101" stroke-width="0.25" stroke-miterlimit="10"/>
<path d="M16.96 20.13L16.96 20.46L16.9 20.46L16.9 20.13" stroke="#010101" stroke-width="0.25" stroke-miterlimit="10"/>
<path d="M20.69 20.3101L22.5 20.3101" stroke="#010101" stroke-width="0.25" stroke-miterlimit="10"/>
<path d="M15.03 20.1899L13.22 20.1899" stroke="#010101" stroke-width="0.25" stroke-miterlimit="10"/>
<path d="M16.8999 20.29L15.0899 20.29" stroke="#010101" stroke-width="0.25" stroke-miterlimit="10"/>
<path d="M22.5 20.29L20.69 20.29" stroke="#010101" stroke-width="0.25" stroke-miterlimit="10"/>
<path d="M7.68993 20.3101L9.42993 20.3101" stroke="#010101" stroke-width="0.25" stroke-miterlimit="10"/>
<path d="M9.42993 20.29L7.68993 20.29" stroke="#010101" stroke-width="0.25" stroke-miterlimit="10"/>
<path d="M15.0898 20.13L15.0898 20.46L15.0298 20.46L15.0298 20.13" stroke="#010101" stroke-width="0.25" stroke-miterlimit="10"/>
<path d="M22.5 20.3701L20.69 20.3701" stroke="#010101" stroke-width="0.25" stroke-miterlimit="10"/>
<path d="M9.42993 20.3701L7.68993 20.3701" stroke="#010101" stroke-width="0.25" stroke-miterlimit="10"/>
<path d="M15.03 20.29L13.22 20.29" stroke="#010101" stroke-width="0.25" stroke-miterlimit="10"/>
<path d="M22.5 20.4099L20.69 20.4099" stroke="#010101" stroke-width="0.25" stroke-miterlimit="10"/>
<path d="M9.42993 20.4099L7.68993 20.4099" stroke="#010101" stroke-width="0.25" stroke-miterlimit="10"/>
<path d="M9.42993 20.1899L7.68993 20.1899" stroke="#010101" stroke-width="0.25" stroke-miterlimit="10"/>
<path d="M25 17.8901L25 18.7901L25 18.8901L1 18.8901" stroke="#010101" stroke-width="0.25" stroke-miterlimit="10"/>
<path d="M11.3599 20.13L11.3599 20.46L11.2999 20.46L11.2999 20.13" stroke="#010101" stroke-width="0.25" stroke-miterlimit="10"/>
<path d="M14.6099 20.6799C14.2599 20.6799 13.9199 20.6799 13.5699 20.6799" stroke="#010101" stroke-width="0.25" stroke-miterlimit="10"/>
<path d="M13.1699 20.29L11.3599 20.29" stroke="#010101" stroke-width="0.25" stroke-miterlimit="10"/>
<path d="M25.21 17.8901L25.21 18.3701L25.21 18.4401C25.21 18.4901 25.19 18.5201 25.17 18.5501C25.16 18.5701 25.14 18.5901 25.15 18.6101" stroke="#010101" stroke-width="0.25" stroke-miterlimit="10"/>
<path d="M22.49 20.1899L20.69 20.1899" stroke="#010101" stroke-width="0.25" stroke-miterlimit="10"/>
<path d="M11.3 20.29L9.49005 20.29" stroke="#010101" stroke-width="0.25" stroke-miterlimit="10"/>
<path d="M18.3999 20.4099L16.9599 20.4099" stroke="#010101" stroke-width="0.25" stroke-miterlimit="10"/>
<path d="M0.929951 17.8901L0.929951 18.3701L0.929951 18.4401C0.929951 18.4901 0.94995 18.5201 0.96995 18.5501C0.97995 18.5701 0.99995 18.5901 0.98995 18.6101" stroke="#010101" stroke-width="0.25" stroke-miterlimit="10"/>
<path d="M20.6299 20.3701L18.8199 20.3701" stroke="#010101" stroke-width="0.25" stroke-miterlimit="10"/>
<path d="M9.49005 20.3101L11.3 20.3101" stroke="#010101" stroke-width="0.25" stroke-miterlimit="10"/>
<path d="M20.6299 20.4099L19.1799 20.4099" stroke="#010101" stroke-width="0.25" stroke-miterlimit="10"/>
<path d="M18.8299 20.3101L20.6399 20.3101" stroke="#010101" stroke-width="0.25" stroke-miterlimit="10"/>
<path d="M24.3 20.2101L24.3 20.3601C23.71 20.3601 23.14 20.3701 22.56 20.3601" stroke="#010101" stroke-width="0.25" stroke-miterlimit="10"/>
<path d="M25 0.169922L24.77 0.169922" stroke="#010101" stroke-width="0.25" stroke-miterlimit="10"/>
<path d="M24.3401 0.23999L24.3401 0.179991C24.3401 0.179991 24.3101 0.13999 24.2801 0.12999L24.2501 0.12999L24.2201 0.13999L24.1901 0.13999L24.1701 0.12999C24.1401 0.12999 24.1201 0.149991 24.1101 0.179991L24.1101 0.23999" stroke="#010101" stroke-width="0.25" stroke-miterlimit="10"/>
<path d="M24.3401 0.169922L24.1101 0.169922" stroke="#010101" stroke-width="0.25" stroke-miterlimit="10"/>
<path d="M0.81004 0.169922L1.04004 0.169922" stroke="#010101" stroke-width="0.25" stroke-miterlimit="10"/>
<path d="M0.81004 0.23999L0.81004 0.179991C0.81004 0.179991 0.840039 0.13999 0.870039 0.12999L0.90004 0.12999L0.93004 0.13999L0.960039 0.13999L0.98004 0.12999C1.01004 0.12999 1.03004 0.149991 1.04004 0.179991L1.04004 0.23999" stroke="#010101" stroke-width="0.25" stroke-miterlimit="10"/>
<path d="M1.46995 0.23999L1.46995 0.179991C1.46995 0.179991 1.49995 0.13999 1.52995 0.12999L1.55995 0.12999L1.58995 0.13999L1.61995 0.13999L1.63995 0.12999C1.66995 0.12999 1.68995 0.149991 1.69995 0.179991L1.69995 0.23999" stroke="#010101" stroke-width="0.25" stroke-miterlimit="10"/>
<path d="M1.46995 0.169922L1.69995 0.169922" stroke="#010101" stroke-width="0.25" stroke-miterlimit="10"/>
<path d="M0.259991 17.9299L0.48999 17.9299" stroke="#010101" stroke-width="0.25" stroke-miterlimit="10"/>
<path d="M1.48997 17.89L1.48997 17.92C1.48997 17.92 1.51997 17.96 1.54997 17.97L1.57997 17.97L1.60997 17.96L1.63997 17.96L1.65997 17.97C1.68997 17.97 1.70997 17.95 1.71997 17.92L1.71997 17.89" stroke="#010101" stroke-width="0.25" stroke-miterlimit="10"/>
<path d="M1.48997 17.9299L1.71997 17.9299" stroke="#010101" stroke-width="0.25" stroke-miterlimit="10"/>
<path d="M25.55 17.9299L25.32 17.9299" stroke="#010101" stroke-width="0.25" stroke-miterlimit="10"/>
<path d="M25.55 17.89L25.55 17.92C25.55 17.92 25.52 17.96 25.49 17.97L25.46 17.97L25.43 17.96L25.4 17.96L25.38 17.97C25.35 17.97 25.33 17.95 25.32 17.92L25.32 17.89" stroke="#010101" stroke-width="0.25" stroke-miterlimit="10"/>
<path d="M24.3201 17.89L24.3201 17.92C24.3201 17.92 24.2901 17.96 24.2601 17.97L24.2301 17.97L24.2001 17.96L24.1701 17.96L24.1501 17.97C24.1201 17.97 24.1001 17.95 24.0901 17.92L24.0901 17.89" stroke="#010101" stroke-width="0.25" stroke-miterlimit="10"/>
<path d="M24.3201 17.9299L24.0901 17.9299" stroke="#010101" stroke-width="0.25" stroke-miterlimit="10"/>
<path d="M0.259991 17.89L0.259991 17.92C0.259991 17.92 0.28999 17.96 0.31999 17.97L0.349991 17.97L0.37999 17.96L0.40999 17.96L0.429991 17.97C0.459991 17.97 0.47999 17.95 0.48999 17.92L0.48999 17.89" stroke="#010101" stroke-width="0.25" stroke-miterlimit="10"/>
<path d="M25 0.23999L25 0.179991C25 0.179991 24.97 0.13999 24.94 0.12999L24.91 0.12999L24.88 0.13999L24.85 0.13999L24.83 0.12999C24.8 0.12999 24.78 0.149991 24.77 0.179991L24.77 0.23999" stroke="#010101" stroke-width="0.25" stroke-miterlimit="10"/>
</g>
<defs>
<clipPath id="clip0_1669_8403">
<rect width="25.81" height="20.9" fill="white" transform="translate(25.8101 20.8999) rotate(180)"/>
</clipPath>
</defs>
</svg>
