<svg width="14" height="4" viewBox="0 0 14 4" fill="none" xmlns="http://www.w3.org/2000/svg">
<g clip-path="url(#clip0_1375_18964)">
<path d="M0.47998 1.63989C0.47998 1.63989 0.48998 1.65989 0.49998 1.66989L0.47998 1.64989" fill="white"/>
<path d="M1.47988 2.34988C1.39988 2.31988 1.31988 2.28988 1.23988 2.25988C1.12988 2.21988 1.02988 2.15988 0.939883 2.09988C0.829883 2.02988 0.729883 1.93988 0.639883 1.83988C0.549883 1.74988 0.479883 1.64988 0.409883 1.53988C0.339883 1.41988 0.269883 1.29988 0.229883 1.16988C0.179883 1.02988 0.149883 0.879883 0.129883 0.729883C0.129883 0.729883 0.159883 0.729883 0.229883 0.729883V0.649883C0.229883 0.569883 0.319883 0.519883 0.399883 0.469883C0.479883 0.429883 0.549883 0.389883 0.619883 0.369883C0.699883 0.339883 0.779883 0.319883 0.869883 0.289883C0.979883 0.259883 1.07988 0.239883 1.18988 0.219883C1.41988 0.169883 1.65988 0.149883 1.88988 0.129883C1.88988 0.129883 1.90988 0.129883 1.91988 0.129883H2.03988C2.03988 0.129883 2.07988 0.129883 2.06988 0.129883C2.11988 0.129883 2.17988 0.129883 2.22988 0.149883C2.43988 0.169883 2.60988 0.199883 2.77988 0.229883C2.87988 0.249883 2.97988 0.269883 3.08988 0.299883C3.16988 0.319883 3.25988 0.349883 3.33988 0.379883C3.41988 0.409883 3.48988 0.439883 3.55988 0.479883C3.63988 0.519883 3.72988 0.579883 3.72988 0.659883V0.739883C3.79988 0.739883 3.82988 0.739883 3.82988 0.739883C3.80988 0.889883 3.77988 1.03988 3.72988 1.17988C3.67988 1.30988 3.61988 1.43988 3.54988 1.54988C3.47988 1.65988 3.40988 1.75988 3.31988 1.84988C3.29988 1.86988 3.28988 1.88988 3.26988 1.89988L3.32988 1.99988L4.18988 1.46988C4.24988 1.42988 4.32988 1.40988 4.39988 1.40988L9.50988 1.40988C9.57988 1.40988 9.65988 1.42988 9.71988 1.46988L10.5799 1.99988L10.6399 1.89988C10.6399 1.89988 10.5999 1.86988 10.5899 1.84988C10.4999 1.75988 10.4299 1.65988 10.3599 1.54988C10.2899 1.42988 10.2199 1.30988 10.1799 1.17988C10.1299 1.03988 10.0999 0.889883 10.0799 0.739883C10.0799 0.739883 10.1099 0.739883 10.1799 0.739883V0.659883C10.1799 0.579883 10.2699 0.529883 10.3499 0.479883C10.4299 0.439883 10.4999 0.399883 10.5699 0.379883C10.6499 0.349883 10.7299 0.329883 10.8199 0.299883C10.9299 0.269883 11.0299 0.249883 11.1399 0.229883C11.3699 0.179883 11.6099 0.159883 11.8399 0.139883C11.8399 0.139883 11.8599 0.139883 11.8699 0.139883H11.9899C11.9899 0.139883 12.0299 0.139883 12.0199 0.139883C12.0699 0.139883 12.1299 0.139883 12.1799 0.159883C12.3899 0.179883 12.5599 0.209883 12.7299 0.239883C12.8299 0.259883 12.9299 0.279883 13.0399 0.309883C13.1199 0.329883 13.2099 0.359883 13.2899 0.389883C13.3699 0.419883 13.4399 0.449883 13.5099 0.489883C13.5899 0.529883 13.6799 0.589883 13.6799 0.669883V0.749883C13.7499 0.749883 13.7799 0.749883 13.7799 0.749883C13.7599 0.899883 13.7299 1.04988 13.6799 1.18988C13.6299 1.32988 13.5699 1.44988 13.4999 1.55988C13.4299 1.66988 13.3499 1.76988 13.2699 1.85988C13.1799 1.95988 13.0799 2.04988 12.9699 2.11988C12.9199 2.14988 12.8799 2.17988 12.8299 2.19988C12.6999 2.25988 12.5699 2.31988 12.4299 2.36988C12.4199 2.36988 12.3999 2.36988 12.3899 2.37988C12.2999 2.39988 12.1999 2.41988 12.1099 2.41988H11.7499C11.6599 2.41988 11.5499 2.39988 11.4699 2.37988C11.4599 2.37988 11.4399 2.37988 11.4299 2.36988C11.3499 2.33988 11.2699 2.30988 11.1899 2.27988C11.1899 2.27988 11.1799 2.27988 11.1699 2.27988L11.1199 2.35988L11.7799 2.75988L11.8199 2.78988C11.8799 2.82988 11.9199 2.88988 11.9199 2.95988V3.55988C11.9199 3.55988 11.9199 3.55988 11.8899 3.55988L2.08988 3.55988H1.98988V2.95988C1.98988 2.88988 2.02988 2.82988 2.08988 2.78988L2.12988 2.75988L2.78988 2.35988L2.73988 2.27988C2.73988 2.27988 2.72988 2.27988 2.71988 2.27988C2.63988 2.30988 2.55988 2.34988 2.47988 2.36988C2.46988 2.36988 2.44988 2.36988 2.43988 2.37988C2.34988 2.39988 2.24988 2.41988 2.15988 2.41988L1.79988 2.41988C1.70988 2.41988 1.59988 2.39988 1.51988 2.37988C1.50988 2.37988 1.48988 2.37988 1.47988 2.36988C1.39988 2.33988 1.31988 2.30988 1.23988 2.27988C1.13988 2.22988 1.02988 2.18988 0.939883 2.11988C0.839883 2.04988 0.739883 1.95988 0.639883 1.85988C0.559883 1.76988 0.479883 1.66988 0.409883 1.55988" fill="white"/>
<path d="M10.4099 1.61985C10.4099 1.61985 10.4099 1.60985 10.3999 1.59985L10.4099 1.61985Z" fill="white"/>
<path d="M10.2798 1.38989L10.2998 1.41989C10.2998 1.41989 10.2898 1.40989 10.2798 1.39989" fill="white"/>
<path d="M10.5901 1.84004C10.5001 1.75004 10.4301 1.65004 10.3601 1.54004" stroke="#010101" stroke-width="0.25" stroke-linecap="round" stroke-linejoin="round"/>
<path d="M12.02 0.120117C12.02 0.120117 12.13 0.120117 12.18 0.140117C12.39 0.160117 12.56 0.190117 12.73 0.220117C12.83 0.240117 12.93 0.260117 13.04 0.290117C13.12 0.310117 13.21 0.340117 13.29 0.370117C13.37 0.400117 13.44 0.430117 13.51 0.470117C13.59 0.510117 13.68 0.570117 13.68 0.650117" stroke="#010101" stroke-width="0.25" stroke-linecap="round" stroke-linejoin="round"/>
<path d="M10.1799 0.730147V0.650146" stroke="#010101" stroke-width="0.25" stroke-linecap="round" stroke-linejoin="round"/>
<path d="M10.8801 2.10009C10.7701 2.03009 10.6701 1.94009 10.5801 1.84009" stroke="#010101" stroke-width="0.25" stroke-linecap="round" stroke-linejoin="round"/>
<path d="M4.19013 1.47021L2.13013 2.73021" stroke="#010101" stroke-width="0.25" stroke-linecap="round" stroke-linejoin="round"/>
<path d="M10.5801 1.99014L10.6401 1.89014" stroke="#010101" stroke-width="0.25" stroke-linecap="round" stroke-linejoin="round"/>
<path d="M13.6901 0.650146C13.6901 0.650146 13.3801 0.650146 13.0401 0.650146L10.8301 0.650146C10.4901 0.650146 10.1501 0.650146 10.1801 0.650146" stroke="#010101" stroke-width="0.25" stroke-linecap="round" stroke-linejoin="round"/>
<path d="M3.73999 0.650146V0.730147" stroke="#010101" stroke-width="0.25" stroke-linecap="round" stroke-linejoin="round"/>
<path d="M2.07993 0.120117C2.07993 0.120117 2.05993 0.120117 2.04993 0.120117L1.92993 0.120117" stroke="#010101" stroke-width="0.25" stroke-linecap="round" stroke-linejoin="round"/>
<path d="M0.22998 0.650127C0.22998 0.570127 0.31998 0.520127 0.39998 0.470127C0.47998 0.430127 0.54998 0.390127 0.61998 0.370127C0.69998 0.340127 0.77998 0.320127 0.86998 0.290127C0.97998 0.260127 1.07998 0.240127 1.18998 0.220127C1.41998 0.170127 1.65998 0.150127 1.88998 0.130127" stroke="#010101" stroke-width="0.25" stroke-linecap="round" stroke-linejoin="round"/>
<path d="M11.78 2.73021L9.71997 1.47021" stroke="#010101" stroke-width="0.25" stroke-linecap="round" stroke-linejoin="round"/>
<path d="M0.939941 2.1001C1.03994 2.1601 1.13994 2.2101 1.23994 2.2601" stroke="#010101" stroke-width="0.25" stroke-linecap="round" stroke-linejoin="round"/>
<path d="M10.3599 1.54017C10.2899 1.42017 10.2199 1.30017 10.1799 1.17017" stroke="#010101" stroke-width="0.25" stroke-linecap="round" stroke-linejoin="round"/>
<path d="M12.4299 2.3501C12.4299 2.3501 12.3999 2.3501 12.3899 2.3601C12.2999 2.3801 12.1999 2.4001 12.1099 2.4001H11.7499C11.6599 2.4001 11.5499 2.3801 11.4699 2.3601C11.4599 2.3601 11.4399 2.3601 11.4299 2.3501" stroke="#010101" stroke-width="0.25" stroke-linecap="round" stroke-linejoin="round"/>
<path d="M1.23999 2.25C1.31999 2.28 1.39999 2.32 1.47999 2.34" stroke="#010101" stroke-width="0.25" stroke-linecap="round" stroke-linejoin="round"/>
<path d="M10.1799 0.650127C10.1799 0.570127 10.2699 0.520127 10.3499 0.470127C10.4299 0.430127 10.4999 0.390127 10.5699 0.370127C10.6499 0.340127 10.7299 0.320127 10.8199 0.290127C10.9299 0.260127 11.0299 0.240127 11.1399 0.220127C11.3699 0.170127 11.6099 0.150127 11.8399 0.130127" stroke="#010101" stroke-width="0.25" stroke-linecap="round" stroke-linejoin="round"/>
<path d="M3.84004 0.730225C3.84004 0.730225 3.48004 0.730225 3.09004 0.730225L0.880045 0.730225C0.490045 0.730225 0.100045 0.730225 0.130045 0.730225" stroke="#010101" stroke-width="0.25" stroke-linecap="round" stroke-linejoin="round"/>
<path d="M0.410156 1.54004C0.480156 1.65004 0.550156 1.75004 0.640156 1.84004" stroke="#010101" stroke-width="0.25" stroke-linecap="round" stroke-linejoin="round"/>
<path d="M8.82007 2.9502H8.98007" stroke="#010101" stroke-width="0.25" stroke-linecap="round" stroke-linejoin="round"/>
<path d="M1.98999 3.52002C1.98999 3.52002 2.03999 3.52002 2.08999 3.52002" stroke="#010101" stroke-width="0.25" stroke-linecap="round" stroke-linejoin="round"/>
<path d="M3.27002 1.89014L3.33002 1.99014" stroke="#010101" stroke-width="0.25" stroke-linecap="round" stroke-linejoin="round"/>
<path d="M0.47998 1.64014C0.47998 1.64014 0.48998 1.66014 0.49998 1.67014" stroke="#010101" stroke-width="0.25" stroke-linecap="round" stroke-linejoin="round"/>
<path d="M1.92003 0.120117C1.92003 0.120117 1.88003 0.120117 1.89003 0.120117" stroke="#010101" stroke-width="0.25" stroke-linecap="round" stroke-linejoin="round"/>
<path d="M0.22998 1.17017C0.27998 1.30017 0.33998 1.43017 0.40998 1.54017" stroke="#010101" stroke-width="0.25" stroke-linecap="round" stroke-linejoin="round"/>
<path d="M11.1701 2.25L11.1201 2.33" stroke="#010101" stroke-width="0.25" stroke-linecap="round" stroke-linejoin="round"/>
<path d="M11.8401 0.120117C11.8401 0.120117 11.8601 0.120117 11.8701 0.120117L11.9901 0.120117" stroke="#010101" stroke-width="0.25" stroke-linecap="round" stroke-linejoin="round"/>
<path d="M11.1901 2.25009C11.0801 2.21009 10.9801 2.15009 10.8901 2.09009" stroke="#010101" stroke-width="0.25" stroke-linecap="round" stroke-linejoin="round"/>
<path d="M3.83999 0.730225C3.81999 0.880225 3.78999 1.03022 3.73999 1.17022" stroke="#010101" stroke-width="0.25" stroke-linecap="round" stroke-linejoin="round"/>
<path d="M10.28 1.40015V1.43015L10.3 1.44015" stroke="#010101" stroke-width="0.25" stroke-linecap="round" stroke-linejoin="round"/>
<path d="M2.71998 2.25C2.63998 2.28 2.55998 2.32 2.47998 2.34" stroke="#010101" stroke-width="0.25" stroke-linecap="round" stroke-linejoin="round"/>
<path d="M11.8201 3.52002H11.8901" stroke="#010101" stroke-width="0.25" stroke-linecap="round" stroke-linejoin="round"/>
<path d="M2.09009 3.52002L11.8201 3.52002" stroke="#010101" stroke-width="0.25" stroke-linecap="round" stroke-linejoin="round"/>
<path d="M11.8901 3.52002H11.9201" stroke="#010101" stroke-width="0.25" stroke-linecap="round" stroke-linejoin="round"/>
<path d="M9.51001 1.41016C9.58001 1.41016 9.66001 1.43016 9.72001 1.47016" stroke="#010101" stroke-width="0.25" stroke-linecap="round" stroke-linejoin="round"/>
<path d="M4.93994 2.9502H5.09994" stroke="#010101" stroke-width="0.25" stroke-linecap="round" stroke-linejoin="round"/>
<path d="M4.93994 2.78003V2.82003" stroke="#010101" stroke-width="0.25" stroke-linecap="round" stroke-linejoin="round"/>
<path d="M0.22998 0.650146C0.22998 0.650146 0.53998 0.650146 0.87998 0.650146L3.08998 0.650146C3.42998 0.650146 3.76998 0.650146 3.73998 0.650146" stroke="#010101" stroke-width="0.25" stroke-linecap="round" stroke-linejoin="round"/>
<path d="M10.0701 0.730225C10.0701 0.730225 10.4301 0.730225 10.8201 0.730225L13.0301 0.730225C13.4201 0.730225 13.8101 0.730225 13.7801 0.730225" stroke="#010101" stroke-width="0.25" stroke-linecap="round" stroke-linejoin="round"/>
<path d="M2.08008 0.120117C2.08008 0.120117 2.19008 0.120117 2.24008 0.140117C2.45008 0.160117 2.62008 0.190117 2.79008 0.220117C2.89008 0.240117 2.99008 0.260117 3.10008 0.290117C3.18008 0.310117 3.27008 0.340117 3.35008 0.370117C3.43008 0.400117 3.50008 0.430117 3.57008 0.470117C3.65008 0.510117 3.74008 0.570117 3.74008 0.650117" stroke="#010101" stroke-width="0.25" stroke-linecap="round" stroke-linejoin="round"/>
<path d="M13.7801 0.730225C13.7601 0.880225 13.7301 1.03022 13.6801 1.17022C13.6301 1.31022 13.5701 1.43022 13.5001 1.54022C13.4301 1.65022 13.3501 1.75022 13.2701 1.84022C13.1801 1.94022 13.0801 2.03022 12.9701 2.10022C12.9201 2.13022 12.8801 2.16022 12.8301 2.18022" stroke="#010101" stroke-width="0.25" stroke-linecap="round" stroke-linejoin="round"/>
<path d="M3.32002 1.84009C3.23002 1.94009 3.13002 2.02009 3.02002 2.10009" stroke="#010101" stroke-width="0.25" stroke-linecap="round" stroke-linejoin="round"/>
<path d="M0.22998 0.730147V0.650146" stroke="#010101" stroke-width="0.25" stroke-linecap="round" stroke-linejoin="round"/>
<path d="M3.02998 2.1001C2.92998 2.1601 2.82998 2.2101 2.72998 2.2601" stroke="#010101" stroke-width="0.25" stroke-linecap="round" stroke-linejoin="round"/>
<path d="M13.6899 0.650146V0.730147" stroke="#010101" stroke-width="0.25" stroke-linecap="round" stroke-linejoin="round"/>
<path d="M11.82 2.75021L11.78 2.72021" stroke="#010101" stroke-width="0.25" stroke-linecap="round" stroke-linejoin="round"/>
<path d="M11.99 0.120117C11.99 0.120117 12.03 0.120117 12.02 0.120117" stroke="#010101" stroke-width="0.25" stroke-linecap="round" stroke-linejoin="round"/>
<path d="M1.98999 2.93018V3.53018" stroke="#010101" stroke-width="0.25" stroke-linecap="round" stroke-linejoin="round"/>
<path d="M0.130127 0.730225C0.150127 0.880225 0.180127 1.03022 0.230127 1.17022" stroke="#010101" stroke-width="0.25" stroke-linecap="round" stroke-linejoin="round"/>
<path d="M10.27 1.39014L10.29 1.42014" stroke="#010101" stroke-width="0.25" stroke-linecap="round" stroke-linejoin="round"/>
<path d="M2.78999 2.33L2.73999 2.25" stroke="#010101" stroke-width="0.25" stroke-linecap="round" stroke-linejoin="round"/>
<path d="M8.96997 2.94019L9.16997 3.52019" stroke="#010101" stroke-width="0.25" stroke-linecap="round" stroke-linejoin="round"/>
<path d="M8.96997 2.81006V2.94006" stroke="#010101" stroke-width="0.25" stroke-linecap="round" stroke-linejoin="round"/>
<path d="M4.18994 1.47016C4.24994 1.43016 4.32994 1.41016 4.39994 1.41016" stroke="#010101" stroke-width="0.25" stroke-linecap="round" stroke-linejoin="round"/>
<path d="M8.96997 2.78003V2.82003" stroke="#010101" stroke-width="0.25" stroke-linecap="round" stroke-linejoin="round"/>
<path d="M8.82007 2.81002V2.77002" stroke="#010101" stroke-width="0.25" stroke-linecap="round" stroke-linejoin="round"/>
<path d="M5.09009 2.81002V2.77002" stroke="#010101" stroke-width="0.25" stroke-linecap="round" stroke-linejoin="round"/>
<path d="M5.08993 2.78003H4.92993" stroke="#010101" stroke-width="0.25" stroke-linecap="round" stroke-linejoin="round"/>
<path d="M8.82007 2.78003H8.98007" stroke="#010101" stroke-width="0.25" stroke-linecap="round" stroke-linejoin="round"/>
<path d="M10.4101 1.6201C10.4101 1.6201 10.4101 1.6101 10.4001 1.6001" stroke="#010101" stroke-width="0.25" stroke-linecap="round" stroke-linejoin="round"/>
<path d="M10.1801 1.17022C10.1301 1.03022 10.1001 0.880225 10.0801 0.730225" stroke="#010101" stroke-width="0.25" stroke-linecap="round" stroke-linejoin="round"/>
<path d="M10.3 1.43015C10.3 1.43015 10.29 1.41015 10.28 1.40015" stroke="#010101" stroke-width="0.25" stroke-linecap="round" stroke-linejoin="round"/>
<path d="M11.4299 2.35001C11.3499 2.32001 11.2699 2.29001 11.1899 2.26001" stroke="#010101" stroke-width="0.25" stroke-linecap="round" stroke-linejoin="round"/>
<path d="M1.98999 2.93001C1.98999 2.86001 2.02999 2.80001 2.08999 2.76001" stroke="#010101" stroke-width="0.25" stroke-linecap="round" stroke-linejoin="round"/>
<path d="M5.3001 3.52019L5.1001 2.94019" stroke="#010101" stroke-width="0.25" stroke-linecap="round" stroke-linejoin="round"/>
<path d="M11.9201 2.93001C11.9201 2.86001 11.8801 2.80001 11.8201 2.76001" stroke="#010101" stroke-width="0.25" stroke-linecap="round" stroke-linejoin="round"/>
<path d="M2.09009 2.75021L2.13009 2.72021" stroke="#010101" stroke-width="0.25" stroke-linecap="round" stroke-linejoin="round"/>
<path d="M8.61011 3.52019L8.81011 2.94019" stroke="#010101" stroke-width="0.25" stroke-linecap="round" stroke-linejoin="round"/>
<path d="M5.09009 2.94006V2.81006" stroke="#010101" stroke-width="0.25" stroke-linecap="round" stroke-linejoin="round"/>
<path d="M8.82007 2.94006V2.81006" stroke="#010101" stroke-width="0.25" stroke-linecap="round" stroke-linejoin="round"/>
<path d="M3.55007 1.54004C3.48007 1.65004 3.41007 1.75004 3.32007 1.84004" stroke="#010101" stroke-width="0.25" stroke-linecap="round" stroke-linejoin="round"/>
<path d="M3.73005 1.17017C3.68005 1.30017 3.62005 1.43017 3.55005 1.54017" stroke="#010101" stroke-width="0.25" stroke-linecap="round" stroke-linejoin="round"/>
<path d="M12.8299 2.18018C12.6999 2.24018 12.5699 2.30018 12.4299 2.35018" stroke="#010101" stroke-width="0.25" stroke-linecap="round" stroke-linejoin="round"/>
<path d="M1.47998 2.3501C1.47998 2.3501 1.50998 2.3501 1.51998 2.3601C1.60998 2.3801 1.70998 2.4001 1.79998 2.4001H2.15998C2.24998 2.4001 2.35998 2.3801 2.43998 2.3601C2.44998 2.3601 2.46998 2.3601 2.47998 2.3501" stroke="#010101" stroke-width="0.25" stroke-linecap="round" stroke-linejoin="round"/>
<path d="M9.51015 1.41016L4.40015 1.41016" stroke="#010101" stroke-width="0.25" stroke-linecap="round" stroke-linejoin="round"/>
<path d="M0.47998 1.65015L0.49998 1.67015" stroke="#010101" stroke-width="0.25" stroke-linecap="round" stroke-linejoin="round"/>
<path d="M11.9202 3.52017V2.92017" stroke="#010101" stroke-width="0.25" stroke-linecap="round" stroke-linejoin="round"/>
<path d="M4.93994 2.81006V2.94006" stroke="#010101" stroke-width="0.25" stroke-linecap="round" stroke-linejoin="round"/>
<path d="M0.640137 1.84009C0.730137 1.94009 0.830137 2.02009 0.940137 2.10009" stroke="#010101" stroke-width="0.25" stroke-linecap="round" stroke-linejoin="round"/>
<path d="M0.410156 1.54004C0.480156 1.65004 0.560156 1.75004 0.640156 1.84004C0.730156 1.94004 0.830156 2.03004 0.940156 2.10004C1.04016 2.16004 1.14016 2.21004 1.24016 2.26004C1.32016 2.29004 1.40016 2.33004 1.48016 2.35004" stroke="#010101" stroke-width="0.25" stroke-linecap="round" stroke-linejoin="round"/>
<path d="M4.93999 2.94019L4.73999 3.52019" stroke="#010101" stroke-width="0.25" stroke-linecap="round" stroke-linejoin="round"/>
<path d="M10.33 1.48017L10.31 1.45017L10.29 1.42017" stroke="#010101" stroke-width="0.25" stroke-linecap="round" stroke-linejoin="round"/>
</g>
<defs>
<clipPath id="clip0_1375_18964">
<rect width="13.91" height="3.65" fill="white"/>
</clipPath>
</defs>
</svg>
