<svg width="10" height="5" viewBox="0 0 10 5" fill="none" xmlns="http://www.w3.org/2000/svg">
<g clip-path="url(#clip0_1669_8182)">
<path fill-rule="evenodd" clip-rule="evenodd" d="M0.5 0L9 0V0.5L8.5 1.5L7.5 2L7.5 3L7 4.5L2.5 4.5L2 3L2 2L1.5 2L0.5 1L0 0.5L0.5 0ZM4.5 0.5C4.33333 1 3.8 2 3 2L3 2.5L6.5 2.5L6.5 2C6.16667 2 5.4 1.8 5 1L4.5 0.5Z" fill="white"/>
<path d="M4.6298 3.81982H4.5498" stroke="#010101" stroke-width="0.25" stroke-linecap="round" stroke-linejoin="round"/>
<path d="M4.63978 3.78979H4.52979" stroke="#010101" stroke-width="0.25" stroke-linecap="round" stroke-linejoin="round"/>
<path d="M4.64979 3.76978H4.52979" stroke="#010101" stroke-width="0.25" stroke-linecap="round" stroke-linejoin="round"/>
<path d="M4.66002 3.75H4.52002" stroke="#010101" stroke-width="0.25" stroke-linecap="round" stroke-linejoin="round"/>
<path d="M4.65984 3.95996L4.58984 3.98996" stroke="#010101" stroke-width="0.25" stroke-linecap="round" stroke-linejoin="round"/>
<path d="M4.59002 3.99997L4.52002 3.96997" stroke="#010101" stroke-width="0.25" stroke-linecap="round" stroke-linejoin="round"/>
<path d="M4.50975 3.95988L4.48975 3.87988" stroke="#010101" stroke-width="0.25" stroke-linecap="round" stroke-linejoin="round"/>
<path d="M4.5 3.87982L4.55 3.81982" stroke="#010101" stroke-width="0.25" stroke-linecap="round" stroke-linejoin="round"/>
<path d="M4.62988 3.81982L4.67988 3.87982" stroke="#010101" stroke-width="0.25" stroke-linecap="round" stroke-linejoin="round"/>
<path d="M4.67991 3.87988L4.65991 3.95988" stroke="#010101" stroke-width="0.25" stroke-linecap="round" stroke-linejoin="round"/>
<path d="M4.68984 3.97998L4.58984 4.02998" stroke="#010101" stroke-width="0.25" stroke-linecap="round" stroke-linejoin="round"/>
<path d="M4.58975 4.02998L4.48975 3.97998" stroke="#010101" stroke-width="0.25" stroke-linecap="round" stroke-linejoin="round"/>
<path d="M4.48973 3.97987L4.46973 3.86987" stroke="#010101" stroke-width="0.25" stroke-linecap="round" stroke-linejoin="round"/>
<path d="M4.45996 3.86979L4.52996 3.78979" stroke="#010101" stroke-width="0.25" stroke-linecap="round" stroke-linejoin="round"/>
<path d="M4.6499 3.78979L4.7199 3.86979" stroke="#010101" stroke-width="0.25" stroke-linecap="round" stroke-linejoin="round"/>
<path d="M4.70994 3.87988L4.68994 3.98988" stroke="#010101" stroke-width="0.25" stroke-linecap="round" stroke-linejoin="round"/>
<path d="M4.69984 3.98999L4.58984 4.03999" stroke="#010101" stroke-width="0.25" stroke-linecap="round" stroke-linejoin="round"/>
<path d="M4.58998 4.05L4.47998 4" stroke="#010101" stroke-width="0.25" stroke-linecap="round" stroke-linejoin="round"/>
<path d="M4.46994 3.98987L4.43994 3.86987" stroke="#010101" stroke-width="0.25" stroke-linecap="round" stroke-linejoin="round"/>
<path d="M4.44971 3.86979L4.52971 3.77979" stroke="#010101" stroke-width="0.25" stroke-linecap="round" stroke-linejoin="round"/>
<path d="M4.6499 3.76978L4.7299 3.85978" stroke="#010101" stroke-width="0.25" stroke-linecap="round" stroke-linejoin="round"/>
<path d="M4.72971 3.86987L4.69971 3.98987" stroke="#010101" stroke-width="0.25" stroke-linecap="round" stroke-linejoin="round"/>
<path d="M4.71984 4.01001L4.58984 4.07001" stroke="#010101" stroke-width="0.25" stroke-linecap="round" stroke-linejoin="round"/>
<path d="M4.58996 4.07001L4.45996 4.01001" stroke="#010101" stroke-width="0.25" stroke-linecap="round" stroke-linejoin="round"/>
<path d="M4.44992 4.00987L4.41992 3.86987" stroke="#010101" stroke-width="0.25" stroke-linecap="round" stroke-linejoin="round"/>
<path d="M4.41992 3.86L4.50992 3.75" stroke="#010101" stroke-width="0.25" stroke-linecap="round" stroke-linejoin="round"/>
<path d="M4.65991 3.75L4.74991 3.86" stroke="#010101" stroke-width="0.25" stroke-linecap="round" stroke-linejoin="round"/>
<path d="M4.74973 3.86987L4.71973 4.00987" stroke="#010101" stroke-width="0.25" stroke-linecap="round" stroke-linejoin="round"/>
<path d="M4.67975 3.69995H4.48975" stroke="#010101" stroke-width="0.25" stroke-linecap="round" stroke-linejoin="round"/>
<path d="M4.77984 4.05981L4.58984 4.14981" stroke="#010101" stroke-width="0.25" stroke-linecap="round" stroke-linejoin="round"/>
<path d="M4.5899 4.14981L4.3999 4.05981" stroke="#010101" stroke-width="0.25" stroke-linecap="round" stroke-linejoin="round"/>
<path d="M4.38984 4.05985L4.33984 3.84985" stroke="#010101" stroke-width="0.25" stroke-linecap="round" stroke-linejoin="round"/>
<path d="M4.33984 3.83992L4.46984 3.66992" stroke="#010101" stroke-width="0.25" stroke-linecap="round" stroke-linejoin="round"/>
<path d="M4.47998 3.66992H4.68998" stroke="#010101" stroke-width="0.25" stroke-linecap="round" stroke-linejoin="round"/>
<path d="M4.69971 3.67993L4.82971 3.84993" stroke="#010101" stroke-width="0.25" stroke-linecap="round" stroke-linejoin="round"/>
<path d="M4.82978 3.84985L4.77979 4.05985" stroke="#010101" stroke-width="0.25" stroke-linecap="round" stroke-linejoin="round"/>
<path d="M4.75984 4.03979L4.58984 4.11979" stroke="#010101" stroke-width="0.25" stroke-linecap="round" stroke-linejoin="round"/>
<path d="M4.40987 4.03986L4.36987 3.85986" stroke="#010101" stroke-width="0.25" stroke-linecap="round" stroke-linejoin="round"/>
<path d="M4.36987 3.84995L4.48987 3.69995" stroke="#010101" stroke-width="0.25" stroke-linecap="round" stroke-linejoin="round"/>
<path d="M4.67993 3.70996L4.79993 3.85996" stroke="#010101" stroke-width="0.25" stroke-linecap="round" stroke-linejoin="round"/>
<path d="M4.79977 3.85986L4.75977 4.03986" stroke="#010101" stroke-width="0.25" stroke-linecap="round" stroke-linejoin="round"/>
<path d="M2.17971 3.57983C2.17971 3.57983 2.17971 3.59983 2.17971 3.60983C2.15971 3.70983 2.15971 3.79983 2.14971 3.89983C2.14971 3.93983 2.14971 3.97983 2.14971 4.01983C2.14971 4.05983 2.14971 4.09983 2.14971 4.13983C2.14971 4.16983 2.14971 4.18983 2.14971 4.21983C2.14971 4.21983 2.14971 4.21983 2.14971 4.22983C2.14971 4.22983 2.14971 4.22983 2.14971 4.23983C2.14971 4.23983 2.13971 4.23983 2.13971 4.24983C2.13971 4.24983 2.13971 4.24983 2.13971 4.25983C2.13971 4.25983 2.13971 4.25983 2.13971 4.26983C2.13971 4.28983 2.13971 4.29983 2.13971 4.31983C2.13971 4.33983 2.13971 4.34983 2.13971 4.36983C2.00971 4.36983 3.41971 4.36983 4.64971 4.36983C5.87971 4.36983 7.28971 4.36983 7.15971 4.36983C7.15971 4.34983 7.15971 4.33983 7.15971 4.31983C7.15971 4.29983 7.15971 4.28983 7.15971 4.26983C7.15971 4.26983 7.15971 4.26983 7.15971 4.25983C7.15971 4.25983 7.15971 4.25983 7.15971 4.24983C7.15971 4.24983 7.14971 4.24983 7.14971 4.23983C7.14971 4.23983 7.14971 4.23983 7.14971 4.22983C7.14971 4.22983 7.14971 4.22983 7.14971 4.21983C7.14971 4.18983 7.14971 4.16983 7.14971 4.13983C7.14971 4.09983 7.14971 4.05983 7.14971 4.01983C7.14971 3.97983 7.14971 3.93983 7.14971 3.89983C7.14971 3.79983 7.13971 3.69983 7.11971 3.60983C7.11971 3.60983 7.11971 3.58983 7.11971 3.57983" stroke="#010101" stroke-width="0.25" stroke-linecap="round" stroke-linejoin="round"/>
<path d="M3.81982 2.48997V2.46997" stroke="#010101" stroke-width="0.25" stroke-linecap="round" stroke-linejoin="round"/>
<path d="M3.92982 2.34985C3.92982 2.34985 3.91982 2.36985 3.90982 2.38985C3.90982 2.38985 3.90982 2.39985 3.89982 2.41985C3.89982 2.41985 3.89982 2.43985 3.87982 2.45985C3.87982 2.46985 3.87982 2.48985 3.86982 2.50985C3.86982 2.52985 3.86982 2.54985 3.85982 2.56985C3.85982 2.62985 3.83982 2.67985 3.82982 2.73985C3.82982 2.76985 3.82982 2.79985 3.81982 2.82985" stroke="#010101" stroke-width="0.25" stroke-linecap="round" stroke-linejoin="round"/>
<path d="M5.25 2.34985C5.25 2.34985 5.3 2.35985 5.31 2.37985" stroke="#010101" stroke-width="0.25" stroke-linecap="round" stroke-linejoin="round"/>
<path d="M5.27002 2.38989C5.27002 2.38989 5.27002 2.38989 5.27002 2.40989" stroke="#010101" stroke-width="0.25" stroke-linecap="round" stroke-linejoin="round"/>
<path d="M5.25975 2.37985C5.25975 2.37985 5.24975 2.35985 5.23975 2.34985" stroke="#010101" stroke-width="0.25" stroke-linecap="round" stroke-linejoin="round"/>
<path d="M3.63983 3.23999H2.32983" stroke="#010101" stroke-width="0.25" stroke-linecap="round" stroke-linejoin="round"/>
<path d="M5.54004 3.23999H6.85004" stroke="#010101" stroke-width="0.25" stroke-linecap="round" stroke-linejoin="round"/>
<path d="M2.73975 2.40991H3.83975" stroke="#010101" stroke-width="0.25" stroke-linecap="round" stroke-linejoin="round"/>
<path d="M6.42983 2.40991H5.32983" stroke="#010101" stroke-width="0.25" stroke-linecap="round" stroke-linejoin="round"/>
<path d="M1.90991 2.02979V2.82979C1.90991 3.05979 2.09991 3.24979 2.32991 3.24979C2.55991 3.24979 2.74991 3.05979 2.74991 2.82979V2.02979" stroke="#010101" stroke-width="0.25" stroke-linecap="round" stroke-linejoin="round"/>
<path d="M7.26993 2.02979V2.82979C7.26993 3.05979 7.07993 3.24979 6.84993 3.24979C6.61993 3.24979 6.42993 3.05979 6.42993 2.82979V2.02979" stroke="#010101" stroke-width="0.25" stroke-linecap="round" stroke-linejoin="round"/>
<path d="M7.50993 1.83984C7.50993 1.83984 7.50993 1.87984 7.50993 1.89984C7.50993 1.90984 7.48993 1.92984 7.47993 1.93984C7.45993 1.96984 7.42993 1.98984 7.39993 2.01984H6.24993C6.24993 2.01984 6.22993 1.96984 6.20993 1.93984C6.20993 1.92984 6.18993 1.90984 6.17993 1.89984C6.17993 1.87984 6.17993 1.85984 6.17993 1.83984" stroke="#010101" stroke-width="0.25" stroke-linecap="round" stroke-linejoin="round"/>
<path d="M1.65991 1.83984C1.65991 1.83984 1.65991 1.87984 1.65991 1.89984C1.65991 1.90984 1.67991 1.92984 1.68991 1.93984C1.70991 1.96984 1.73991 1.98984 1.76991 2.01984H2.91991C2.91991 2.01984 2.93991 1.96984 2.95991 1.93984C2.95991 1.92984 2.97991 1.90984 2.98991 1.89984C2.98991 1.87984 2.98991 1.85984 2.98991 1.83984" stroke="#010101" stroke-width="0.25" stroke-linecap="round" stroke-linejoin="round"/>
<path d="M3.98988 0.139893C4.06988 0.139893 4.14988 0.139893 4.20988 0.149893C4.26988 0.149893 4.31988 0.159893 4.35988 0.169893C4.38988 0.169893 4.40988 0.179893 4.42988 0.189893C4.44988 0.189893 4.45988 0.209893 4.46988 0.219893C4.47988 0.219893 4.48988 0.239893 4.49988 0.249893C4.49988 0.249893 4.50988 0.269893 4.50988 0.289893C4.50988 0.319893 4.50988 0.349893 4.49988 0.419893C4.49988 0.469893 4.47988 0.539893 4.46988 0.589893C4.46988 0.599893 4.46988 0.619893 4.46988 0.629893C4.46988 0.639893 4.46988 0.659893 4.45988 0.669893C4.44988 0.689893 4.41988 0.689893 4.39988 0.699893C4.35988 0.699893 4.32988 0.709893 4.29988 0.729893C4.28988 0.729893 4.26988 0.749893 4.25988 0.759893C4.21988 0.799893 4.19988 0.859893 4.17988 0.909893C4.12988 1.03989 4.07988 1.14989 4.01988 1.26989C3.97988 1.33989 3.93988 1.40989 3.89988 1.47989C3.84988 1.55989 3.78988 1.63989 3.71988 1.68989C3.66988 1.72989 3.61988 1.74989 3.55988 1.76989C3.47988 1.79989 3.39988 1.82989 3.30988 1.83989C3.28988 1.83989 3.27988 1.83989 3.25988 1.83989C3.25988 1.83989 3.24988 1.83989 3.23988 1.83989L1.39988 1.83989C1.37988 1.83989 1.35988 1.83989 1.32988 1.83989C1.24988 1.83989 1.15988 1.80989 1.07988 1.76989C1.01988 1.74989 0.969883 1.71989 0.919883 1.68989C0.849883 1.63989 0.789883 1.55989 0.739883 1.47989C0.699883 1.40989 0.659883 1.33989 0.619883 1.26989C0.559883 1.14989 0.499883 1.03989 0.459883 0.909893C0.439883 0.859893 0.419883 0.799893 0.379883 0.759893C0.369883 0.749893 0.359883 0.739893 0.339883 0.729893C0.309883 0.709893 0.279883 0.709893 0.239883 0.699893C0.219883 0.699893 0.189883 0.689893 0.179883 0.669893C0.179883 0.659893 0.179883 0.639893 0.169883 0.629893C0.169883 0.619893 0.169883 0.599893 0.169883 0.589893C0.159883 0.539893 0.149883 0.469893 0.139883 0.419893C0.139883 0.379893 0.129883 0.329893 0.129883 0.299893C0.129883 0.279893 0.129883 0.269893 0.129883 0.259893C0.129883 0.239893 0.149883 0.229893 0.159883 0.219893C0.169883 0.219893 0.189883 0.199893 0.199883 0.189893C0.199883 0.189893 0.209883 0.189893 0.219883 0.179893C0.229883 0.179893 0.249883 0.179893 0.259883 0.169893C0.289883 0.169893 0.329883 0.159893 0.379883 0.149893C0.439883 0.149893 0.499883 0.149893 0.579883 0.139893C0.659883 0.139893 0.739883 0.139893 0.829883 0.139893C0.919883 0.139893 0.999883 0.139893 1.08988 0.139893C1.17988 0.139893 1.25988 0.139893 1.34988 0.139893C1.43988 0.139893 1.51988 0.139893 1.60988 0.139893C1.69988 0.139893 1.78988 0.139893 1.86988 0.139893C1.95988 0.139893 2.04988 0.139893 2.12988 0.139893C2.21988 0.139893 2.30988 0.139893 2.38988 0.139893C2.47988 0.139893 2.56988 0.139893 2.64988 0.139893C2.73988 0.139893 2.82988 0.139893 2.90988 0.139893C2.99988 0.139893 3.08988 0.139893 3.16988 0.139893C3.25988 0.139893 3.34988 0.139893 3.42988 0.139893C3.51988 0.139893 3.59988 0.139893 3.68988 0.139893C3.77988 0.139893 3.85988 0.139893 3.93988 0.139893H3.98988Z" stroke="#010101" stroke-width="0.25" stroke-linecap="round" stroke-linejoin="round"/>
<path d="M5.9299 1.8499C5.9299 1.8499 5.9199 1.8499 5.9099 1.8499C5.8899 1.8499 5.8799 1.8499 5.8599 1.8499C5.7799 1.8499 5.6899 1.8199 5.6099 1.7799C5.5499 1.7599 5.4999 1.7299 5.4499 1.6999C5.3799 1.6499 5.3199 1.5699 5.2699 1.4899C5.2299 1.4199 5.1899 1.3499 5.1499 1.2799C5.0899 1.1599 5.0299 1.0499 4.9899 0.919902C4.9699 0.869902 4.9499 0.809902 4.9099 0.769902C4.8999 0.759902 4.8899 0.749902 4.8699 0.739902C4.8399 0.719902 4.8099 0.719902 4.7699 0.709902C4.7499 0.709902 4.7199 0.699902 4.7099 0.679902C4.7099 0.669902 4.7099 0.649902 4.6999 0.639902C4.6999 0.629902 4.6999 0.609902 4.6999 0.599902C4.6899 0.549902 4.6799 0.479902 4.6699 0.429902C4.6599 0.359902 4.6499 0.329902 4.6599 0.299902C4.6599 0.279902 4.6599 0.269902 4.6699 0.259902C4.6699 0.249902 4.6899 0.239902 4.6999 0.229902C4.7099 0.229902 4.7299 0.209902 4.7399 0.199902C4.7599 0.199902 4.7799 0.189902 4.8099 0.179902C4.8499 0.179902 4.8899 0.169902 4.9599 0.159902C5.0199 0.159902 5.0999 0.159902 5.1799 0.149902C5.2599 0.149902 5.3499 0.149902 5.4299 0.149902C5.5199 0.149902 5.5999 0.149902 5.6899 0.149902C5.7799 0.149902 5.8599 0.149902 5.9499 0.149902C6.0399 0.149902 6.1299 0.149902 6.2099 0.149902C6.2999 0.149902 6.3899 0.149902 6.4699 0.149902C6.5599 0.149902 6.6499 0.149902 6.7299 0.149902C6.8199 0.149902 6.9099 0.149902 6.9899 0.149902C7.0799 0.149902 7.1699 0.149902 7.2499 0.149902C7.3399 0.149902 7.4299 0.149902 7.5099 0.149902C7.5999 0.149902 7.6899 0.149902 7.7699 0.149902C7.8599 0.149902 7.9399 0.149902 8.0299 0.149902C8.1199 0.149902 8.1999 0.149902 8.2899 0.149902C8.3799 0.149902 8.4599 0.149902 8.5399 0.149902C8.6199 0.149902 8.6899 0.149902 8.7399 0.159902C8.7899 0.159902 8.8299 0.169902 8.8599 0.179902C8.8799 0.179902 8.8899 0.179902 8.8999 0.189902C8.8999 0.189902 8.9199 0.189902 8.9199 0.199902C8.9299 0.199902 8.9499 0.219902 8.9599 0.229902C8.9699 0.229902 8.9799 0.249902 8.9899 0.269902C8.9899 0.269902 8.9899 0.289902 8.9899 0.309902C8.9899 0.339902 8.9899 0.389902 8.9799 0.429902C8.9799 0.479902 8.9599 0.549902 8.9499 0.599902C8.9499 0.609902 8.9499 0.629902 8.9499 0.639902C8.9499 0.649902 8.9499 0.669902 8.9399 0.679902C8.9299 0.699902 8.8999 0.699902 8.8799 0.709902C8.8399 0.709902 8.8099 0.719902 8.7799 0.739902C8.7699 0.739902 8.7499 0.759902 8.7399 0.769902C8.6999 0.809902 8.6799 0.869902 8.6599 0.919902C8.6099 1.0499 8.5599 1.1599 8.4999 1.2799C8.4599 1.3499 8.4199 1.4199 8.3799 1.4899C8.3299 1.5699 8.2699 1.6499 8.1999 1.6999C8.1499 1.7399 8.0999 1.7599 8.0399 1.7799C7.9599 1.8099 7.8799 1.8399 7.7899 1.8499C7.7699 1.8499 7.7499 1.8499 7.7199 1.8499L5.8799 1.8499H5.9299Z" stroke="#010101" stroke-width="0.25" stroke-linecap="round" stroke-linejoin="round"/>
<path d="M3.09985 3.43C3.17985 3.38 3.24985 3.32 3.29985 3.25" stroke="#010101" stroke-width="0.25" stroke-linecap="round" stroke-linejoin="round"/>
<path d="M2.79004 3.41001V3.26001" stroke="#010101" stroke-width="0.25" stroke-linecap="round" stroke-linejoin="round"/>
<path d="M3.08984 3.41001V3.26001" stroke="#010101" stroke-width="0.25" stroke-linecap="round" stroke-linejoin="round"/>
<path d="M2.73975 3.43994C2.73975 3.43994 2.73975 3.43994 2.75975 3.43994" stroke="#010101" stroke-width="0.25" stroke-linecap="round" stroke-linejoin="round"/>
<path d="M2.68994 3.49994L2.73994 3.43994" stroke="#010101" stroke-width="0.25" stroke-linecap="round" stroke-linejoin="round"/>
<path d="M3.13989 3.43994L3.18989 3.49994" stroke="#010101" stroke-width="0.25" stroke-linecap="round" stroke-linejoin="round"/>
<path d="M3.08984 3.26C3.08984 3.26 3.08984 3.26 3.08984 3.25" stroke="#010101" stroke-width="0.25" stroke-linecap="round" stroke-linejoin="round"/>
<path d="M2.79002 3.40991C2.79002 3.40991 2.79002 3.42991 2.77002 3.42991" stroke="#010101" stroke-width="0.25" stroke-linecap="round" stroke-linejoin="round"/>
<path d="M2.7998 3.23999C2.7998 3.23999 2.7998 3.23999 2.7998 3.24999" stroke="#010101" stroke-width="0.25" stroke-linecap="round" stroke-linejoin="round"/>
<path d="M2.93994 3.42993H3.11994" stroke="#010101" stroke-width="0.25" stroke-linecap="round" stroke-linejoin="round"/>
<path d="M2.75977 3.42993H2.93977" stroke="#010101" stroke-width="0.25" stroke-linecap="round" stroke-linejoin="round"/>
<path d="M3.10984 3.42991C3.10984 3.42991 3.08984 3.42991 3.08984 3.40991" stroke="#010101" stroke-width="0.25" stroke-linecap="round" stroke-linejoin="round"/>
<path d="M5.92993 3.5H6.84993H6.89993" stroke="#010101" stroke-width="0.25" stroke-linecap="round" stroke-linejoin="round"/>
<path d="M6.03983 3.42999C5.95983 3.38999 5.88983 3.31999 5.82983 3.23999" stroke="#010101" stroke-width="0.25" stroke-linecap="round" stroke-linejoin="round"/>
<path d="M6.37988 3.41001V3.26001" stroke="#010101" stroke-width="0.25" stroke-linecap="round" stroke-linejoin="round"/>
<path d="M6.23 3.5H6" stroke="#010101" stroke-width="0.25" stroke-linecap="round" stroke-linejoin="round"/>
<path d="M6.23973 3.5H6.21973" stroke="#010101" stroke-width="0.25" stroke-linecap="round" stroke-linejoin="round"/>
<path d="M6.48 3.5H6.25" stroke="#010101" stroke-width="0.25" stroke-linecap="round" stroke-linejoin="round"/>
<path d="M6.08984 3.41001V3.26001" stroke="#010101" stroke-width="0.25" stroke-linecap="round" stroke-linejoin="round"/>
<path d="M6.42991 3.43994C6.42991 3.43994 6.42991 3.43994 6.40991 3.43994" stroke="#010101" stroke-width="0.25" stroke-linecap="round" stroke-linejoin="round"/>
<path d="M6.47993 3.49994L6.42993 3.43994" stroke="#010101" stroke-width="0.25" stroke-linecap="round" stroke-linejoin="round"/>
<path d="M6.03975 3.43994L5.98975 3.49994" stroke="#010101" stroke-width="0.25" stroke-linecap="round" stroke-linejoin="round"/>
<path d="M6.37988 3.40991C6.37988 3.40991 6.37988 3.42991 6.39988 3.42991" stroke="#010101" stroke-width="0.25" stroke-linecap="round" stroke-linejoin="round"/>
<path d="M6.08984 3.26C6.08984 3.26 6.08984 3.26 6.08984 3.25" stroke="#010101" stroke-width="0.25" stroke-linecap="round" stroke-linejoin="round"/>
<path d="M6.04979 3.42993C6.04979 3.42993 6.03979 3.42993 6.02979 3.42993" stroke="#010101" stroke-width="0.25" stroke-linecap="round" stroke-linejoin="round"/>
<path d="M6.06982 3.42991C6.06982 3.42991 6.08982 3.42991 6.08982 3.40991" stroke="#010101" stroke-width="0.25" stroke-linecap="round" stroke-linejoin="round"/>
<path d="M6.37988 3.23999C6.37988 3.23999 6.37988 3.23999 6.37988 3.24999" stroke="#010101" stroke-width="0.25" stroke-linecap="round" stroke-linejoin="round"/>
<path d="M6.2298 3.42993H6.0498" stroke="#010101" stroke-width="0.25" stroke-linecap="round" stroke-linejoin="round"/>
<path d="M6.41975 3.42993H6.23975" stroke="#010101" stroke-width="0.25" stroke-linecap="round" stroke-linejoin="round"/>
<path d="M5.34985 2.46997C5.34985 2.46997 5.34985 2.46997 5.34985 2.48997C5.34985 2.48997 5.34985 2.48997 5.34985 2.49997C5.34985 2.49997 5.34985 2.50997 5.34985 2.51997C5.34985 2.51997 5.34985 2.52997 5.34985 2.53997C5.34985 2.53997 5.34985 2.54997 5.34985 2.55997C5.34985 2.57997 5.34985 2.58997 5.35985 2.60997C5.35985 2.63997 5.35985 2.65997 5.36985 2.68997C5.36985 2.71997 5.37985 2.73997 5.38985 2.76997C5.38985 2.79997 5.38985 2.81997 5.39985 2.84997C5.39985 2.87997 5.39985 2.89997 5.40985 2.92997C5.40985 2.95997 5.41985 2.98997 5.42985 3.01997C5.42985 3.03997 5.42985 3.05997 5.43985 3.07997" stroke="#010101" stroke-width="0.25" stroke-linecap="round" stroke-linejoin="round"/>
<path d="M3.81982 2.4699C3.81982 2.4699 3.82982 2.4199 3.83982 2.3999" stroke="#010101" stroke-width="0.25" stroke-linecap="round" stroke-linejoin="round"/>
<path d="M5.31006 2.37988C5.31006 2.37988 5.35006 2.43988 5.35006 2.46988" stroke="#010101" stroke-width="0.25" stroke-linecap="round" stroke-linejoin="round"/>
<path d="M3.69971 3.07999C3.69971 3.02999 3.71971 2.96999 3.72971 2.91999C3.72971 2.86999 3.74971 2.81999 3.75971 2.76999C3.76971 2.70999 3.77971 2.65999 3.78971 2.60999C3.78971 2.58999 3.78971 2.57999 3.79971 2.55999C3.79971 2.54999 3.79971 2.52999 3.79971 2.51999C3.79971 2.50999 3.79971 2.49999 3.79971 2.48999" stroke="#010101" stroke-width="0.25" stroke-linecap="round" stroke-linejoin="round"/>
<path d="M3.85986 2.38985C3.85986 2.38985 3.89986 2.34985 3.92986 2.34985" stroke="#010101" stroke-width="0.25" stroke-linecap="round" stroke-linejoin="round"/>
<path d="M3.44971 2.82983V3.03983" stroke="#010101" stroke-width="0.25" stroke-linecap="round" stroke-linejoin="round"/>
<path d="M3.24979 3.5H2.32979H2.27979" stroke="#010101" stroke-width="0.25" stroke-linecap="round" stroke-linejoin="round"/>
<path d="M3.44971 3.03979C3.44971 3.16979 3.44971 3.24979 3.44971 3.24979" stroke="#010101" stroke-width="0.25" stroke-linecap="round" stroke-linejoin="round"/>
<path d="M5.71973 3.0498V3.0998" stroke="#010101" stroke-width="0.25" stroke-linecap="round" stroke-linejoin="round"/>
<path d="M5.71987 3.49992C5.71987 3.49992 5.64987 3.44992 5.61987 3.41992" stroke="#010101" stroke-width="0.25" stroke-linecap="round" stroke-linejoin="round"/>
<path d="M3.55996 3.41992C3.55996 3.41992 3.48996 3.47992 3.45996 3.49992" stroke="#010101" stroke-width="0.25" stroke-linecap="round" stroke-linejoin="round"/>
<path d="M3.56006 3.41982C3.66006 3.32982 3.74006 3.20982 3.77006 3.06982" stroke="#010101" stroke-width="0.25" stroke-linecap="round" stroke-linejoin="round"/>
<path d="M3.69971 3.07982C3.69971 3.07982 3.72971 3.06982 3.75971 3.06982" stroke="#010101" stroke-width="0.25" stroke-linecap="round" stroke-linejoin="round"/>
<path d="M3.25 3.49984C3.25 3.49984 3.34 3.49984 3.38 3.46984C3.43 3.44984 3.48 3.41984 3.53 3.37984C3.58 3.33984 3.62 3.28984 3.65 3.23984C3.66 3.21984 3.68 3.18984 3.69 3.15984C3.69 3.13984 3.71 3.10984 3.71 3.08984" stroke="#010101" stroke-width="0.25" stroke-linecap="round" stroke-linejoin="round"/>
<path d="M4.80985 2.31982C4.80985 2.31982 4.69985 2.31982 4.57985 2.31982C4.45985 2.31982 4.34985 2.31982 4.34985 2.31982" stroke="#010101" stroke-width="0.25" stroke-linecap="round" stroke-linejoin="round"/>
<path d="M5.27979 2.40991C5.27979 2.40991 5.27979 2.40991 5.27979 2.41991C5.27979 2.41991 5.27979 2.41991 5.27979 2.43991C5.27979 2.43991 5.27979 2.44991 5.27979 2.45991C5.27979 2.45991 5.27979 2.46991 5.27979 2.47991V2.49991C5.27979 2.51991 5.27978 2.53991 5.28978 2.55991C5.28978 2.58991 5.28979 2.61991 5.29979 2.63991C5.29979 2.66991 5.29978 2.69991 5.30978 2.72991C5.30978 2.75991 5.30979 2.78991 5.31979 2.80991C5.31979 2.83991 5.31978 2.85991 5.32978 2.88991C5.32978 2.91991 5.33978 2.94991 5.34978 2.98991C5.34978 3.00991 5.34979 3.03991 5.35979 3.05991" stroke="#010101" stroke-width="0.25" stroke-linecap="round" stroke-linejoin="round"/>
<path d="M5.46973 3.07983C5.46973 3.07983 5.47973 3.12983 5.48973 3.14983C5.48973 3.17983 5.50973 3.19983 5.52973 3.22983C5.52973 3.23983 5.54973 3.25983 5.55973 3.26983C5.55973 3.27983 5.57973 3.29983 5.58973 3.30983C5.60973 3.32983 5.62973 3.35983 5.65973 3.37983C5.67973 3.39983 5.70973 3.41983 5.72973 3.43983C5.74973 3.45983 5.77973 3.46983 5.79973 3.47983C5.84973 3.49983 5.88973 3.50983 5.92973 3.50983" stroke="#010101" stroke-width="0.25" stroke-linecap="round" stroke-linejoin="round"/>
<path d="M5.60971 3.41997C5.54971 3.35997 5.48971 3.28997 5.44971 3.21997" stroke="#010101" stroke-width="0.25" stroke-linecap="round" stroke-linejoin="round"/>
<path d="M3.92993 2.34982C4.06993 2.33982 4.21993 2.32982 4.35993 2.31982" stroke="#010101" stroke-width="0.25" stroke-linecap="round" stroke-linejoin="round"/>
<path d="M5.45991 3.21982C5.45991 3.21982 5.41991 3.11982 5.40991 3.06982" stroke="#010101" stroke-width="0.25" stroke-linecap="round" stroke-linejoin="round"/>
<path d="M4.81006 2.31982C4.95006 2.31982 5.10006 2.32982 5.24006 2.34982" stroke="#010101" stroke-width="0.25" stroke-linecap="round" stroke-linejoin="round"/>
<path d="M3.18994 3.59C3.28994 3.59 3.37994 3.56 3.45994 3.5" stroke="#010101" stroke-width="0.25" stroke-linecap="round" stroke-linejoin="round"/>
<path d="M3.81002 2.82983C3.81002 2.82983 3.81002 2.87983 3.80002 2.90983C3.80002 2.96983 3.78002 3.01983 3.77002 3.06983" stroke="#010101" stroke-width="0.25" stroke-linecap="round" stroke-linejoin="round"/>
<path d="M5.98975 3.58984C6.32975 3.58984 6.65975 3.58984 6.99975 3.58984" stroke="#010101" stroke-width="0.25" stroke-linecap="round" stroke-linejoin="round"/>
<path d="M6.8999 3.5C6.8999 3.5 6.9899 3.53 6.9999 3.58" stroke="#010101" stroke-width="0.25" stroke-linecap="round" stroke-linejoin="round"/>
<path d="M3.24994 3.5C3.24994 3.5 3.18994 3.54 3.18994 3.59" stroke="#010101" stroke-width="0.25" stroke-linecap="round" stroke-linejoin="round"/>
<path d="M5.71973 3.09985C5.71973 3.19985 5.71973 3.24985 5.71973 3.24985" stroke="#010101" stroke-width="0.25" stroke-linecap="round" stroke-linejoin="round"/>
<path d="M2.17993 3.58C2.17993 3.58 2.22993 3.5 2.27993 3.5" stroke="#010101" stroke-width="0.25" stroke-linecap="round" stroke-linejoin="round"/>
<path d="M3.18993 3.58984C2.84993 3.58984 2.51993 3.58984 2.17993 3.58984" stroke="#010101" stroke-width="0.25" stroke-linecap="round" stroke-linejoin="round"/>
<path d="M5.71973 2.40991C5.71973 2.40991 5.71973 2.61991 5.71973 2.82991" stroke="#010101" stroke-width="0.25" stroke-linecap="round" stroke-linejoin="round"/>
<path d="M5.46991 3.07994C5.46991 3.07994 5.42991 3.05994 5.40991 3.06994" stroke="#010101" stroke-width="0.25" stroke-linecap="round" stroke-linejoin="round"/>
<path d="M5.92993 3.5C5.92993 3.5 5.98993 3.54 5.98993 3.59" stroke="#010101" stroke-width="0.25" stroke-linecap="round" stroke-linejoin="round"/>
<path d="M3.44971 2.40991C3.44971 2.40991 3.44971 2.61991 3.44971 2.82991" stroke="#010101" stroke-width="0.25" stroke-linecap="round" stroke-linejoin="round"/>
<path d="M5.71973 2.82983V3.03983" stroke="#010101" stroke-width="0.25" stroke-linecap="round" stroke-linejoin="round"/>
<path d="M5.98973 3.59C5.88973 3.59 5.79973 3.56 5.71973 3.5" stroke="#010101" stroke-width="0.25" stroke-linecap="round" stroke-linejoin="round"/>
<path d="M4.58992 4.11979L4.41992 4.03979" stroke="#010101" stroke-width="0.25" stroke-linecap="round" stroke-linejoin="round"/>
<path d="M3.11987 3.42993C3.11987 3.42993 3.12987 3.42993 3.13987 3.42993" stroke="#010101" stroke-width="0.25" stroke-linecap="round" stroke-linejoin="round"/>
</g>
<defs>
<clipPath id="clip0_1669_8182">
<rect width="9.17" height="4.5" fill="white"/>
</clipPath>
</defs>
</svg>
