<svg width="7" height="10" viewBox="0 0 7 10" fill="none" xmlns="http://www.w3.org/2000/svg">
<path d="M6.35193 5.26807C5.95193 6.46807 4.85193 7.1014 4.35193 7.26807L3.35193 7.26807L1.35193 5.26807C0.951929 4.06807 1.18526 2.76807 1.35193 2.26807C2.35193 1.43473 4.65193 0.168066 5.85193 1.76807C7.35193 3.76807 6.85193 3.76807 6.35193 5.26807Z" fill="white"/>
<path d="M1.85193 9.26807L6.35193 9.26807L5.85193 7.76807L1.85193 7.76807L1.85193 9.26807Z" fill="white"/>
<path d="M6.3506 8.94792C6.3506 8.94792 6.4006 9.00792 6.4006 9.04792C6.4006 9.07792 6.4006 9.10792 6.4006 9.13792H4.7206C2.5306 9.13792 1.3406 9.13792 1.4006 9.13792C1.4006 9.10792 1.4006 9.07792 1.4006 9.04792C1.4006 9.00792 1.4306 8.96792 1.4506 8.94792C1.5006 8.89792 1.5706 8.86792 1.6406 8.86792H6.1406C6.2106 8.86792 6.2806 8.89792 6.3306 8.94792" stroke="#010101" stroke-width="0.25" stroke-linecap="round" stroke-linejoin="round"/>
<path d="M4.57068 6.58803C4.63068 6.55803 4.68068 6.51803 4.73068 6.47803" stroke="#010101" stroke-width="0.25" stroke-linecap="round" stroke-linejoin="round"/>
<path d="M3.27063 6.59814C3.27063 6.59814 3.28063 6.59814 3.29063 6.59814" stroke="#010101" stroke-width="0.25" stroke-linecap="round" stroke-linejoin="round"/>
<path d="M3.12059 4.43799C3.12059 4.43799 3.11059 4.44799 3.10059 4.45799" stroke="#010101" stroke-width="0.25" stroke-linecap="round" stroke-linejoin="round"/>
<path d="M3.17065 7.87813V6.83813C3.17065 6.73813 3.17065 6.61813 3.17065 6.62813C3.17065 6.60813 3.19065 6.58813 3.21065 6.58813H3.26065" stroke="#010101" stroke-width="0.25" stroke-linecap="round" stroke-linejoin="round"/>
<path d="M6.31067 5.36809C6.31067 5.36809 6.35067 5.31809 6.37067 5.28809" stroke="#010101" stroke-width="0.25" stroke-linecap="round" stroke-linejoin="round"/>
<path d="M5.51064 7.75799C5.51064 7.75799 5.41064 7.75799 5.32064 7.75799C5.23064 7.75799 5.12064 7.75799 5.13064 7.75799C5.13064 7.73799 5.15064 7.70799 5.16064 7.68799C5.16064 7.68799 5.24064 7.68799 5.32064 7.68799C5.40064 7.68799 5.48064 7.68799 5.48064 7.68799C5.50064 7.70799 5.51064 7.72799 5.51064 7.75799Z" stroke="#010101" stroke-width="0.25" stroke-linecap="round" stroke-linejoin="round"/>
<path d="M1.66058 8.30794C1.60058 8.30794 2.68058 8.30794 4.64058 8.30794H6.15058C6.15058 8.25794 6.14058 8.19794 6.12058 8.14794C6.11058 8.08794 6.07058 8.03794 6.03058 8.00794C5.95058 7.93794 5.84058 7.88794 5.73058 7.88794C5.82058 7.88794 4.53058 7.88794 2.71058 7.88794H2.09058C1.98058 7.88794 1.87058 7.93794 1.79058 8.00794C1.74058 8.04794 1.71058 8.09794 1.70058 8.14794C1.68058 8.19794 1.67058 8.24794 1.67058 8.30794" stroke="#010101" stroke-width="0.25" stroke-linecap="round" stroke-linejoin="round"/>
<path d="M2.70068 7.75806V7.88806" stroke="#010101" stroke-width="0.25" stroke-linecap="round" stroke-linejoin="round"/>
<path d="M3.17065 6.84814C3.17065 6.84814 3.23065 6.84814 3.29065 6.84814" stroke="#010101" stroke-width="0.25" stroke-linecap="round" stroke-linejoin="round"/>
<path d="M3.21057 6.59814V7.88814" stroke="#010101" stroke-width="0.25" stroke-linecap="round" stroke-linejoin="round"/>
<path d="M2.32068 7.87805V7.74805" stroke="#010101" stroke-width="0.25" stroke-linecap="round" stroke-linejoin="round"/>
<path d="M1.66064 8.86811V8.30811" stroke="#010101" stroke-width="0.25" stroke-linecap="round" stroke-linejoin="round"/>
<path d="M5.51062 7.75806V7.88806" stroke="#010101" stroke-width="0.25" stroke-linecap="round" stroke-linejoin="round"/>
<path d="M4.73062 6.47809C4.84062 6.39809 4.94062 6.29809 5.03062 6.17809C5.15062 6.01809 5.22062 5.81809 5.25062 5.61809C5.28062 5.41809 5.25062 5.22809 5.19062 5.04809C5.10062 4.79809 4.92062 4.57809 4.69062 4.41809C4.45062 4.25809 4.16062 4.17809 3.90062 4.18809C3.64062 4.18809 3.35062 4.27809 3.12062 4.43809C2.89062 4.59809 2.72062 4.81809 2.64062 5.06809C2.55062 5.31809 2.55062 5.58809 2.64062 5.84809C2.72062 6.09809 2.90062 6.33809 3.11062 6.48809C3.17062 6.52809 3.24062 6.56809 3.30062 6.60809" stroke="#010101" stroke-width="0.25" stroke-linecap="round" stroke-linejoin="round"/>
<path d="M6.16064 8.30811V8.86811" stroke="#010101" stroke-width="0.25" stroke-linecap="round" stroke-linejoin="round"/>
<path d="M3.78059 7.39802C3.78059 7.39802 3.78059 7.39802 3.79059 7.39802M3.79059 7.39802C3.79059 7.39802 3.80059 7.39802 3.81059 7.39802C3.81059 7.39802 3.80059 7.39802 3.79059 7.39802ZM3.79059 7.39802C3.78059 7.39802 3.76059 7.38802 3.73059 7.36802C3.76059 7.35802 3.77059 7.34802 3.79059 7.33802M3.79059 7.33802C3.79059 7.33802 3.80059 7.33802 3.81059 7.33802C3.81059 7.33802 3.80059 7.33802 3.79059 7.33802ZM3.79059 7.33802C3.78059 7.33802 3.76059 7.32802 3.73059 7.30802C3.77059 7.28802 3.78059 7.28802 3.79059 7.27802M3.79059 7.27802C3.79059 7.27802 3.80059 7.27802 3.81059 7.27802C3.81059 7.27802 3.80059 7.27802 3.79059 7.27802ZM3.79059 7.27802C3.78059 7.27802 3.76059 7.26802 3.73059 7.24802C3.76059 7.23802 3.77059 7.22802 3.79059 7.21802M3.79059 7.21802C3.79059 7.21802 3.80059 7.21802 3.81059 7.21802C3.81059 7.21802 3.80059 7.21802 3.79059 7.21802ZM3.79059 7.21802C3.78059 7.21802 3.76059 7.20802 3.73059 7.18802C3.76059 7.16802 3.78059 7.16802 3.79059 7.15802M3.79059 7.15802C3.79059 7.15802 3.80059 7.15802 3.81059 7.15802C3.81059 7.15802 3.80059 7.15802 3.79059 7.15802ZM3.79059 7.15802C3.78059 7.15802 3.76059 7.14802 3.73059 7.12802C3.76059 7.11802 3.77059 7.10802 3.79059 7.09802M3.79059 7.09802C3.79059 7.09802 3.80059 7.09802 3.81059 7.09802C3.81059 7.09802 3.80059 7.09802 3.79059 7.09802ZM3.79059 7.09802C3.78059 7.09802 3.76059 7.08802 3.73059 7.06802C3.76059 7.04802 3.78059 7.04802 3.79059 7.03802M3.79059 7.03802C3.79059 7.03802 3.80059 7.03802 3.81059 7.03802C3.81059 7.03802 3.80059 7.03802 3.79059 7.03802ZM3.79059 7.03802C3.78059 7.03802 3.76059 7.02802 3.73059 7.00802C3.76059 6.99802 3.77059 6.98802 3.79059 6.97802M3.79059 6.97802C3.79059 6.97802 3.80059 6.97802 3.81059 6.97802C3.81059 6.97802 3.80059 6.97802 3.79059 6.97802ZM3.79059 6.97802C3.78059 6.97802 3.76059 6.96802 3.73059 6.94802C3.77059 6.92802 3.78059 6.92802 3.79059 6.91802M3.79059 6.91802C3.79059 6.91802 3.80059 6.91802 3.81059 6.91802C3.81059 6.91802 3.80059 6.91802 3.79059 6.91802ZM3.79059 6.91802C3.78059 6.91802 3.76059 6.90802 3.73059 6.88802C3.76059 6.87802 3.77059 6.86802 3.79059 6.85802M3.79059 6.85802C3.79059 6.85802 3.80059 6.85802 3.81059 6.85802C3.81059 6.85802 3.80059 6.85802 3.79059 6.85802ZM3.79059 6.85802C3.78059 6.85802 3.76059 6.84802 3.73059 6.82802C3.76059 6.81802 3.77059 6.80802 3.79059 6.79802M3.79059 6.79802C3.79059 6.79802 3.80059 6.79802 3.81059 6.79802C3.81059 6.79802 3.80059 6.79802 3.79059 6.79802ZM3.79059 6.79802C3.78059 6.79802 3.76059 6.78802 3.73059 6.76802C3.76059 6.75802 3.77059 6.74802 3.79059 6.73802M3.79059 6.73802C3.79059 6.73802 3.80059 6.73802 3.81059 6.73802C3.81059 6.73802 3.80059 6.73802 3.79059 6.73802ZM3.79059 6.73802C3.78059 6.73802 3.76059 6.72802 3.73059 6.70802C3.76059 6.69802 3.77059 6.68802 3.79059 6.67802M3.79059 6.67802C3.79059 6.67802 3.80059 6.67802 3.81059 6.67802C3.81059 6.67802 3.80059 6.67802 3.79059 6.67802ZM3.79059 6.67802C3.78059 6.67802 3.76059 6.66802 3.73059 6.64802C3.76059 6.63802 3.77059 6.62802 3.79059 6.61802M3.79059 6.61802C3.79059 6.61802 3.80059 6.61802 3.81059 6.61802C3.81059 6.61802 3.80059 6.61802 3.79059 6.61802ZM3.79059 6.61802C3.78059 6.61802 3.76059 6.60802 3.73059 6.58802C3.76059 6.57802 3.77059 6.56802 3.79059 6.55802M3.79059 6.55802C3.79059 6.55802 3.80059 6.55802 3.81059 6.55802C3.81059 6.55802 3.80059 6.55802 3.79059 6.55802ZM3.79059 6.55802C3.78059 6.55802 3.76059 6.54802 3.73059 6.52802C3.76059 6.51802 3.77059 6.50802 3.79059 6.49802M3.79059 6.49802C3.79059 6.49802 3.80059 6.49802 3.81059 6.49802C3.81059 6.49802 3.80059 6.49802 3.79059 6.49802ZM3.79059 6.49802C3.78059 6.49802 3.76059 6.48802 3.73059 6.46802C3.73059 6.46802 3.74059 6.46802 3.75059 6.46802C3.75059 6.46802 3.75059 6.46802 3.77059 6.46802" stroke="#010101" stroke-width="0.25" stroke-linecap="round" stroke-linejoin="round"/>
<path d="M5.12061 7.87805V7.74805" stroke="#010101" stroke-width="0.25" stroke-linecap="round" stroke-linejoin="round"/>
<path d="M4.29064 6.84814C4.41064 6.78814 4.51064 6.68814 4.58064 6.57814C4.69064 6.38814 4.71064 6.14814 4.63064 5.93814C4.51064 5.63814 4.22064 5.44814 3.91064 5.45814C3.76064 5.45814 3.60064 5.50814 3.47064 5.59814C3.34064 5.68814 3.25064 5.81814 3.20064 5.94814C3.18064 6.00814 3.17064 6.05814 3.16064 6.11814C3.16064 6.17814 3.16064 6.23814 3.17064 6.30814C3.19064 6.39814 3.23064 6.47814 3.29064 6.53814" stroke="#010101" stroke-width="0.25" stroke-linecap="round" stroke-linejoin="round"/>
<path d="M2.70058 7.75799C2.70058 7.75799 2.60058 7.75799 2.51058 7.75799C2.42058 7.75799 2.31058 7.75799 2.32058 7.75799C2.32058 7.73799 2.34058 7.70799 2.35058 7.68799C2.35058 7.68799 2.43058 7.68799 2.51058 7.68799C2.59058 7.68799 2.67058 7.68799 2.67058 7.68799C2.69058 7.70799 2.70058 7.72799 2.70058 7.75799Z" stroke="#010101" stroke-width="0.25" stroke-linecap="round" stroke-linejoin="round"/>
<path d="M3.17063 7.02811C2.74063 6.87811 2.38063 6.59811 2.12063 6.22811C1.90063 5.91811 1.68063 5.60811 1.47063 5.29811C1.40063 5.19811 1.34063 5.09811 1.29063 4.98811C1.10063 4.61811 0.990628 4.16811 1.00063 3.73811C1.00063 3.30811 1.12063 2.88811 1.32063 2.51811C1.45063 2.27811 1.62063 2.05811 1.82063 1.85811C2.03063 1.65811 2.27063 1.47811 2.54063 1.34811C2.96063 1.13811 3.42063 1.01811 3.88063 1.01811C4.39063 1.00811 4.94063 1.13811 5.41063 1.40811C5.88063 1.66811 6.27063 2.06811 6.51063 2.49811C6.53063 2.52811 6.54063 2.55811 6.56063 2.58811C7.01063 3.45811 6.93063 4.49811 6.38063 5.30811C6.17063 5.61811 5.95063 5.92811 5.73063 6.23811C5.40063 6.71811 4.88063 7.03811 4.31063 7.13811" stroke="#010101" stroke-width="0.25" stroke-linecap="round" stroke-linejoin="round"/>
<path d="M3.81063 6.2981H3.79063M3.79063 6.2981C3.79063 6.2981 3.78063 6.2981 3.77063 6.2981C3.77063 6.2981 3.78063 6.2981 3.79063 6.2981ZM3.79063 6.2981C3.80063 6.2981 3.82063 6.3081 3.85063 6.3281C3.85063 6.3281 3.84063 6.3281 3.83063 6.3281C3.82063 6.3281 3.80063 6.3381 3.79063 6.3481M3.79063 6.3481C3.79063 6.3481 3.78063 6.3481 3.77063 6.3481C3.77063 6.3481 3.78063 6.3481 3.79063 6.3481ZM3.79063 6.3481C3.80063 6.3481 3.82063 6.3581 3.85063 6.3781C3.85063 6.3781 3.84063 6.3781 3.83063 6.3781C3.82063 6.3781 3.80063 6.3881 3.79063 6.3981M3.79063 6.3981C3.79063 6.3981 3.78063 6.3981 3.77063 6.3981C3.77063 6.3981 3.78063 6.3981 3.79063 6.3981ZM3.79063 6.3981C3.80063 6.3981 3.82063 6.4081 3.85063 6.4281C3.85063 6.4281 3.84063 6.4281 3.83063 6.4281C3.82063 6.4281 3.80063 6.4381 3.79063 6.4481M3.79063 6.4481C3.79063 6.4481 3.78063 6.4481 3.77063 6.4481C3.77063 6.4481 3.78063 6.4481 3.79063 6.4481ZM3.79063 6.4481C3.80063 6.4481 3.82063 6.4581 3.85063 6.4781C3.85063 6.4781 3.84063 6.4781 3.83063 6.4781C3.82063 6.4781 3.80063 6.4881 3.79063 6.4981M3.79063 6.4981C3.79063 6.4981 3.78063 6.4981 3.77063 6.4981C3.77063 6.4981 3.78063 6.4981 3.79063 6.4981ZM3.79063 6.4981C3.80063 6.4981 3.82063 6.5081 3.85063 6.5281C3.85063 6.5281 3.84063 6.5281 3.83063 6.5281C3.82063 6.5281 3.80063 6.5381 3.79063 6.5481M3.79063 6.5481C3.79063 6.5481 3.78063 6.5481 3.77063 6.5481C3.77063 6.5481 3.78063 6.5481 3.79063 6.5481ZM3.79063 6.5481C3.80063 6.5481 3.82063 6.5581 3.85063 6.5781C3.85063 6.5781 3.84063 6.5781 3.83063 6.5781C3.82063 6.5781 3.80063 6.5881 3.79063 6.5981M3.79063 6.5981C3.79063 6.5981 3.78063 6.5981 3.77063 6.5981C3.77063 6.5981 3.78063 6.5981 3.79063 6.5981ZM3.79063 6.5981C3.80063 6.5981 3.82063 6.6081 3.85063 6.6281C3.85063 6.6281 3.84063 6.6281 3.83063 6.6281C3.82063 6.6281 3.80063 6.6381 3.79063 6.6481M3.79063 6.6481C3.79063 6.6481 3.78063 6.6481 3.77063 6.6481C3.77063 6.6481 3.78063 6.6481 3.79063 6.6481ZM3.79063 6.6481C3.80063 6.6481 3.82063 6.6581 3.85063 6.6781C3.85063 6.6781 3.84063 6.6781 3.83063 6.6781C3.82063 6.6781 3.80063 6.6881 3.79063 6.6981M3.79063 6.6981C3.79063 6.6981 3.78063 6.6981 3.77063 6.6981C3.77063 6.6981 3.78063 6.6981 3.79063 6.6981ZM3.79063 6.6981C3.80063 6.6981 3.82063 6.7081 3.85063 6.7281C3.85063 6.7281 3.84063 6.7281 3.83063 6.7281C3.82063 6.7281 3.80063 6.7381 3.79063 6.7481M3.79063 6.7481C3.79063 6.7481 3.78063 6.7481 3.77063 6.7481C3.77063 6.7481 3.78063 6.7481 3.79063 6.7481ZM3.79063 6.7481C3.80063 6.7481 3.82063 6.7581 3.85063 6.7781C3.85063 6.7781 3.84063 6.7781 3.83063 6.7781C3.82063 6.7781 3.80063 6.7881 3.79063 6.7981M3.79063 6.7981C3.79063 6.7981 3.78063 6.7981 3.77063 6.7981C3.77063 6.7981 3.78063 6.7981 3.79063 6.7981ZM3.79063 6.7981C3.80063 6.7981 3.82063 6.8081 3.85063 6.8281C3.85063 6.8281 3.84063 6.8281 3.83063 6.8281C3.82063 6.8281 3.80063 6.8381 3.79063 6.8481M3.79063 6.8481C3.79063 6.8481 3.78063 6.8481 3.77063 6.8481C3.77063 6.8481 3.78063 6.8481 3.79063 6.8481ZM3.79063 6.8481C3.80063 6.8481 3.82063 6.8581 3.85063 6.8781C3.85063 6.8781 3.84063 6.8781 3.83063 6.8781C3.82063 6.8781 3.80063 6.8881 3.79063 6.8981M3.79063 6.8981C3.79063 6.8981 3.78063 6.8981 3.77063 6.8981C3.77063 6.8981 3.78063 6.8981 3.79063 6.8981ZM3.79063 6.8981C3.80063 6.8981 3.82063 6.9081 3.85063 6.9281C3.85063 6.9281 3.84063 6.9281 3.83063 6.9281C3.82063 6.9281 3.80063 6.9381 3.79063 6.9481M3.79063 6.9481C3.79063 6.9481 3.78063 6.9481 3.77063 6.9481C3.77063 6.9481 3.78063 6.9481 3.79063 6.9481ZM3.79063 6.9481C3.80063 6.9481 3.82063 6.9581 3.85063 6.9781C3.85063 6.9781 3.84063 6.9781 3.83063 6.9781C3.82063 6.9781 3.80063 6.9881 3.79063 6.9981M3.79063 6.9981C3.79063 6.9981 3.78063 6.9981 3.77063 6.9981C3.77063 6.9981 3.78063 6.9981 3.79063 6.9981ZM3.79063 6.9981C3.80063 6.9981 3.82063 7.0081 3.85063 7.0281C3.85063 7.0281 3.84063 7.0281 3.83063 7.0281C3.82063 7.0281 3.80063 7.0381 3.79063 7.0481M3.79063 7.0481C3.79063 7.0481 3.78063 7.0481 3.77063 7.0481C3.77063 7.0481 3.78063 7.0481 3.79063 7.0481ZM3.79063 7.0481C3.80063 7.0481 3.82063 7.0581 3.85063 7.0781C3.85063 7.0781 3.84063 7.0781 3.83063 7.0781C3.83063 7.0781 3.83063 7.0781 3.82063 7.0781" stroke="#010101" stroke-width="0.25" stroke-linecap="round" stroke-linejoin="round"/>
<path d="M3.29065 7.22807C3.31065 7.27807 3.35065 7.32807 3.40065 7.35807C3.44065 7.37807 3.49065 7.39807 3.54065 7.38807C3.59065 7.38807 3.66065 7.38807 3.73065 7.38807C3.92065 7.38807 3.99065 7.38807 4.04065 7.38807C4.09065 7.38807 4.14065 7.38807 4.18065 7.35807C4.23065 7.32807 4.27065 7.27807 4.29065 7.22807C4.29065 7.25807 4.29065 6.92807 4.29065 6.56807C4.29065 6.50807 4.29065 6.44807 4.29065 6.45807C4.27065 6.39807 4.23065 6.35807 4.18065 6.32807C4.14065 6.30807 4.09065 6.28807 4.04065 6.29807C4.00065 6.29807 3.94065 6.29807 3.89065 6.29807C3.88065 6.29807 3.86065 6.29807 3.84065 6.29807H3.54065C3.54065 6.29807 3.44065 6.29807 3.40065 6.32807C3.35065 6.35807 3.31065 6.40807 3.29065 6.45807V7.87807" stroke="#010101" stroke-width="0.25" stroke-linecap="round" stroke-linejoin="round"/>
<path d="M4.29067 6.54798C4.35067 6.34798 4.24067 6.12798 4.03067 6.06798C3.84067 6.00798 3.64067 6.10798 3.56067 6.28798" stroke="#010101" stroke-width="0.25" stroke-linecap="round" stroke-linejoin="round"/>
<path d="M3.27063 7.87813V6.58813" stroke="#010101" stroke-width="0.25" stroke-linecap="round" stroke-linejoin="round"/>
</svg>
