<svg width="29" height="3" viewBox="0 0 29 3" fill="none" xmlns="http://www.w3.org/2000/svg">
<g clip-path="url(#clip0_1665_5928)">
<path d="M28.05 2.15002L26.05 2.15002L25.7 1.80002L2.29999 1.80002L1.99999 2.10002L0.0499878 2.10002L0.049988 0.150022L28.05 0.150024L28.05 2.15002Z" fill="white"/>
<path d="M1.17999 0.170044L1.17999 0.0500441" stroke="black" stroke-width="0.25" stroke-linecap="round" stroke-linejoin="round"/>
<path d="M1.17999 0.0500466L27.05 0.0500488" stroke="black" stroke-width="0.25" stroke-linecap="round" stroke-linejoin="round"/>
<path d="M27.05 0.0500441L27.05 0.170044" stroke="black" stroke-width="0.25" stroke-linecap="round" stroke-linejoin="round"/>
<path d="M27.05 0.170044L1.17999 0.170042" stroke="black" stroke-width="0.25" stroke-linecap="round" stroke-linejoin="round"/>
<path d="M2.29999 1.80005L2.29999 0.170049" stroke="black" stroke-width="0.25" stroke-linecap="round" stroke-linejoin="round"/>
<path d="M2.29999 0.170042L25.8 0.170044" stroke="black" stroke-width="0.25" stroke-linecap="round" stroke-linejoin="round"/>
<path d="M25.8 0.170049L25.8 1.80005" stroke="black" stroke-width="0.25" stroke-linecap="round" stroke-linejoin="round"/>
<path d="M25.8 1.80005L2.29999 1.80005" stroke="black" stroke-width="0.25" stroke-linecap="round" stroke-linejoin="round"/>
<path d="M28.05 2.25L26.05 2.25" stroke="black" stroke-width="0.25" stroke-linecap="round" stroke-linejoin="round"/>
<path d="M26.05 2.25L26.05 0.25" stroke="black" stroke-width="0.25" stroke-linecap="round" stroke-linejoin="round"/>
<path d="M26.05 0.25L28.05 0.25" stroke="black" stroke-width="0.25" stroke-linecap="round" stroke-linejoin="round"/>
<path d="M28.05 0.25L28.05 2.25" stroke="black" stroke-width="0.25" stroke-linecap="round" stroke-linejoin="round"/>
<path d="M2.04999 2.25L0.0499878 2.25" stroke="black" stroke-width="0.25" stroke-linecap="round" stroke-linejoin="round"/>
<path d="M0.0499878 2.25L0.049988 0.25" stroke="black" stroke-width="0.25" stroke-linecap="round" stroke-linejoin="round"/>
<path d="M0.0499878 0.25L2.04999 0.25" stroke="black" stroke-width="0.25" stroke-linecap="round" stroke-linejoin="round"/>
<path d="M2.04999 0.25L2.04999 2.25" stroke="black" stroke-width="0.25" stroke-linecap="round" stroke-linejoin="round"/>
</g>
<defs>
<clipPath id="clip0_1665_5928">
<rect width="28.1" height="2.3" fill="white" transform="translate(28.1 2.30005) rotate(-180)"/>
</clipPath>
</defs>
</svg>
