<svg width="41" height="93" viewBox="0 0 41 93" fill="none" xmlns="http://www.w3.org/2000/svg">
<g clip-path="url(#clip0_1201_28257)">
<path d="M36.63 63.57L0.349976 27.53" stroke="black" stroke-width="0.71" stroke-linecap="round" stroke-linejoin="round"/>
<path d="M38.13 63.23V63.31" stroke="black" stroke-width="0.71" stroke-linecap="round" stroke-linejoin="round"/>
<path d="M40.14 0.0699463V92.2999" stroke="black" stroke-width="0.14" stroke-linecap="round" stroke-linejoin="round"/>
<path d="M37.63 92.2999V0.0699463" stroke="black" stroke-width="0.14" stroke-linecap="round" stroke-linejoin="round"/>
<path d="M40.64 0.0699463V92.2999" stroke="black" stroke-width="0.14" stroke-linecap="round" stroke-linejoin="round"/>
<path d="M40.14 92.2999V0.0699463" stroke="black" stroke-width="0.14" stroke-linecap="round" stroke-linejoin="round"/>
<path d="M37.63 0.0699463V92.2999" stroke="black" stroke-width="0.14" stroke-linecap="round" stroke-linejoin="round"/>
<path d="M37.13 92.2999V0.0699463" stroke="black" stroke-width="0.14" stroke-linecap="round" stroke-linejoin="round"/>
<path d="M36.51 27.59C36.6094 27.59 36.69 27.5094 36.69 27.41C36.69 27.3106 36.6094 27.23 36.51 27.23C36.4105 27.23 36.33 27.3106 36.33 27.41C36.33 27.5094 36.4105 27.59 36.51 27.59Z" stroke="#07070F" stroke-width="0.14" stroke-linecap="round" stroke-linejoin="round"/>
<path d="M0.349976 29.03H36.4" stroke="#07070F" stroke-width="0.14" stroke-linecap="round" stroke-linejoin="round"/>
<path d="M36.4 29.03V27.53" stroke="#07070F" stroke-width="0.14" stroke-linecap="round" stroke-linejoin="round"/>
<path d="M36.4 27.53H0.349976" stroke="#07070F" stroke-width="0.14" stroke-linecap="round" stroke-linejoin="round"/>
<path d="M0.349976 27.53V29.03" stroke="#07070F" stroke-width="0.14" stroke-linecap="round" stroke-linejoin="round"/>
<path d="M0.349976 27.53C0.349976 37.21 4.18998 46.48 11.02 53.26" stroke="#07070F" stroke-width="0.14" stroke-linecap="round" stroke-linejoin="round" stroke-dasharray="1.2 0.6"/>
<path d="M11.02 53.26C17.84 60.04 27.07 63.75 36.63 63.57" stroke="#07070F" stroke-width="0.14" stroke-linecap="round" stroke-linejoin="round" stroke-dasharray="1.2 0.6"/>
<path d="M38.13 27.77H40.14" stroke="#07070F" stroke-width="0.14" stroke-linecap="round" stroke-linejoin="round"/>
<path d="M40.14 27.77V26.77" stroke="#07070F" stroke-width="0.14" stroke-linecap="round" stroke-linejoin="round"/>
<path d="M40.14 26.77H36.63" stroke="#07070F" stroke-width="0.14" stroke-linecap="round" stroke-linejoin="round"/>
<path d="M36.63 26.77V27.27" stroke="#07070F" stroke-width="0.14" stroke-linecap="round" stroke-linejoin="round"/>
<path d="M36.63 27.27H38.13" stroke="#07070F" stroke-width="0.14" stroke-linecap="round" stroke-linejoin="round"/>
<path d="M38.13 27.27V27.77" stroke="#07070F" stroke-width="0.14" stroke-linecap="round" stroke-linejoin="round"/>
<path d="M38.13 63.3101H40.14" stroke="#07070F" stroke-width="0.14" stroke-linecap="round" stroke-linejoin="round"/>
<path d="M40.14 63.3101V64.3201" stroke="#07070F" stroke-width="0.14" stroke-linecap="round" stroke-linejoin="round"/>
<path d="M40.14 64.3198H36.63" stroke="#07070F" stroke-width="0.14" stroke-linecap="round" stroke-linejoin="round"/>
<path d="M36.63 64.3198V63.8198" stroke="#07070F" stroke-width="0.14" stroke-linecap="round" stroke-linejoin="round"/>
<path d="M36.63 63.8198H38.13" stroke="#07070F" stroke-width="0.14" stroke-linecap="round" stroke-linejoin="round"/>
<path d="M38.13 63.8201V63.3101" stroke="#07070F" stroke-width="0.14" stroke-linecap="round" stroke-linejoin="round"/>
<path d="M38.13 63.3101H40.14" stroke="#07070F" stroke-width="0.14" stroke-linecap="round" stroke-linejoin="round"/>
<path d="M40.14 63.31V27.77" stroke="#07070F" stroke-width="0.14" stroke-linecap="round" stroke-linejoin="round"/>
<path d="M40.14 27.77H38.13" stroke="#07070F" stroke-width="0.14" stroke-linecap="round" stroke-linejoin="round"/>
<path d="M38.13 27.77V27.27" stroke="#07070F" stroke-width="0.14" stroke-linecap="round" stroke-linejoin="round"/>
<path d="M38.13 27.27H36.63" stroke="#07070F" stroke-width="0.14" stroke-linecap="round" stroke-linejoin="round"/>
<path d="M36.63 27.27V27.77" stroke="#07070F" stroke-width="0.14" stroke-linecap="round" stroke-linejoin="round"/>
<path d="M36.63 27.77V63.31" stroke="#07070F" stroke-width="0.14" stroke-linecap="round" stroke-linejoin="round"/>
<path d="M36.63 63.3101V63.8201" stroke="#07070F" stroke-width="0.14" stroke-linecap="round" stroke-linejoin="round"/>
<path d="M36.63 63.8198H38.13" stroke="#07070F" stroke-width="0.14" stroke-linecap="round" stroke-linejoin="round"/>
<path d="M38.13 63.82V63.23" stroke="#07070F" stroke-width="0.14" stroke-linecap="round" stroke-linejoin="round"/>
</g>
<defs>
<clipPath id="clip0_1201_28257">
<rect width="40.71" height="92.37" fill="white"/>
</clipPath>
</defs>
</svg>
