<svg width="298" height="147" viewBox="0 0 298 147" fill="none" xmlns="http://www.w3.org/2000/svg">
<g clip-path="url(#clip0_1545_537)">
<path d="M0.119989 0.129883L0.119995 146.13L297.12 146.13L297.12 0.12987L0.119989 0.129883Z" fill="white"/>
<path d="M292.12 141.12L292.12 5.11963" stroke="#010101" stroke-width="0.25" stroke-miterlimit="10"/>
<path d="M291.13 140.13L6.13 140.13" stroke="#010101" stroke-width="0.25" stroke-miterlimit="10"/>
<path d="M292.63 145.63L292.63 146.13" stroke="#010101" stroke-width="0.25" stroke-miterlimit="10"/>
<path d="M4.63 0.129883L0.119995 0.129883" stroke="#010101" stroke-width="0.25" stroke-miterlimit="10"/>
<path d="M4.63 0.619629L4.63 0.119629" stroke="#010101" stroke-width="0.25" stroke-miterlimit="10"/>
<path d="M0.630005 145.63L0.630005 141.63" stroke="#010101" stroke-width="0.25" stroke-miterlimit="10"/>
<path d="M0.119995 146.13L4.62 146.13" stroke="#010101" stroke-width="0.25" stroke-miterlimit="10"/>
<path d="M297.12 4.61963L297.12 0.119629" stroke="#010101" stroke-width="0.25" stroke-miterlimit="10"/>
<path d="M291.13 6.11987L291.13 140.13" stroke="#010101" stroke-width="0.25" stroke-miterlimit="10"/>
<path d="M0.629995 141.63L0.119995 141.63" stroke="#010101" stroke-width="0.25" stroke-miterlimit="10"/>
<path d="M296.62 145.63L0.630005 145.63" stroke="#010101" stroke-width="0.25" stroke-miterlimit="10"/>
<path d="M6.13 140.13L6.13 6.12988" stroke="#010101" stroke-width="0.25" stroke-miterlimit="10"/>
<path d="M296.62 4.61963L297.12 4.61963" stroke="#010101" stroke-width="0.25" stroke-miterlimit="10"/>
<path d="M292.12 5.11962L5.12 5.11963" stroke="#010101" stroke-width="0.25" stroke-miterlimit="10"/>
<path d="M5.12 141.12L292.12 141.12" stroke="#010101" stroke-width="0.25" stroke-miterlimit="10"/>
<path d="M0.119995 4.62012L0.619995 4.62012" stroke="#010101" stroke-width="0.25" stroke-miterlimit="10"/>
<path d="M292.63 0.129883L292.63 0.629883" stroke="#010101" stroke-width="0.25" stroke-miterlimit="10"/>
<path d="M6.13 6.11963L291.13 6.11962" stroke="#010101" stroke-width="0.25" stroke-miterlimit="10"/>
<path d="M292.63 146.13L297.13 146.13" stroke="#010101" stroke-width="0.25" stroke-miterlimit="10"/>
<path d="M297.12 146.13L297.12 141.63" stroke="#010101" stroke-width="0.25" stroke-miterlimit="10"/>
<path d="M297.12 141.63L296.62 141.63" stroke="#010101" stroke-width="0.25" stroke-miterlimit="10"/>
<path d="M4.63 146.13L4.63 145.63" stroke="#010101" stroke-width="0.25" stroke-miterlimit="10"/>
<path d="M0.119995 141.63L0.119995 146.13" stroke="#010101" stroke-width="0.25" stroke-miterlimit="10"/>
<path d="M297.12 0.129883L292.62 0.129883" stroke="#010101" stroke-width="0.25" stroke-miterlimit="10"/>
<path d="M0.119995 0.129883L0.119995 4.62988" stroke="#010101" stroke-width="0.25" stroke-miterlimit="10"/>
<path d="M5.11999 5.12012L5.12 141.12" stroke="#010101" stroke-width="0.25" stroke-miterlimit="10"/>
<path d="M0.629999 0.619873L0.630005 141.63" stroke="#010101" stroke-width="0.25" stroke-miterlimit="10"/>
<path d="M296.62 0.619616L0.630005 0.619629" stroke="#010101" stroke-width="0.25" stroke-miterlimit="10"/>
<path d="M296.62 145.63L296.62 0.629883" stroke="#010101" stroke-width="0.25" stroke-miterlimit="10"/>
<path d="M4.63 0.619629L4.63 0.119629" stroke="#010101" stroke-width="0.25" stroke-miterlimit="10"/>
<path d="M0.119995 0.129883L0.119995 4.62988" stroke="#010101" stroke-width="0.25" stroke-miterlimit="10"/>
<path d="M297.12 0.129883L292.62 0.129883" stroke="#010101" stroke-width="0.25" stroke-miterlimit="10"/>
<path d="M0.119995 141.63L0.119995 146.13" stroke="#010101" stroke-width="0.25" stroke-miterlimit="10"/>
<path d="M292.63 146.13L297.13 146.13" stroke="#010101" stroke-width="0.25" stroke-miterlimit="10"/>
<path d="M297.12 141.63L296.62 141.63" stroke="#010101" stroke-width="0.25" stroke-miterlimit="10"/>
<path d="M297.12 146.13L297.12 141.63" stroke="#010101" stroke-width="0.25" stroke-miterlimit="10"/>
<path d="M292.63 145.63L292.63 146.13" stroke="#010101" stroke-width="0.25" stroke-miterlimit="10"/>
<path d="M4.63 146.13L4.63 145.63" stroke="#010101" stroke-width="0.25" stroke-miterlimit="10"/>
<path d="M0.119995 146.13L4.62 146.13" stroke="#010101" stroke-width="0.25" stroke-miterlimit="10"/>
<path d="M0.629995 141.63L0.119995 141.63" stroke="#010101" stroke-width="0.25" stroke-miterlimit="10"/>
<path d="M292.63 0.129883L292.63 0.629883" stroke="#010101" stroke-width="0.25" stroke-miterlimit="10"/>
<path d="M297.12 4.61963L297.12 0.119629" stroke="#010101" stroke-width="0.25" stroke-miterlimit="10"/>
<path d="M296.62 4.61963L297.12 4.61963" stroke="#010101" stroke-width="0.25" stroke-miterlimit="10"/>
<path d="M0.119995 4.62012L0.619995 4.62012" stroke="#010101" stroke-width="0.25" stroke-miterlimit="10"/>
<path d="M4.63 0.129883L0.119995 0.129883" stroke="#010101" stroke-width="0.25" stroke-miterlimit="10"/>
</g>
<defs>
<clipPath id="clip0_1545_537">
<rect width="146.25" height="297.25" fill="white" transform="translate(0 146.25) rotate(-90)"/>
</clipPath>
</defs>
</svg>
