<svg width="239" height="114" viewBox="0 0 239 114" fill="none" xmlns="http://www.w3.org/2000/svg">
<g clip-path="url(#clip0_592_10500)">
<path opacity="0.5" d="M237.553 8.67627L235.996 8.67871L236.001 11.8714L237.558 11.869L237.553 8.67627Z" fill="white"/>
<path opacity="0.5" d="M237.609 41.7947H236.053V44.9874H237.609V41.7947Z" fill="white"/>
<path opacity="0.5" d="M237.617 69.0184L236.051 69.0209L236.056 72.2136L237.622 72.2111L237.617 69.0184Z" fill="white"/>
<path opacity="0.5" d="M237.65 102.282L236.084 102.285L236.089 105.478L237.655 105.475L237.65 102.282Z" fill="white"/>
<path opacity="0.5" d="M15.2164 4.39001H12.4727V107.575H15.2164V4.39001Z" fill="#E5E5E5"/>
<path opacity="0.5" d="M26.109 4.39001H23.3652V107.575H26.109V4.39001Z" fill="#E5E5E5"/>
<path opacity="0.5" d="M37.0055 4.39001H34.2617V107.575H37.0055V4.39001Z" fill="#E5E5E5"/>
<path opacity="0.5" d="M47.9019 4.39001H45.1582V107.575H47.9019V4.39001Z" fill="#E5E5E5"/>
<path opacity="0.5" d="M58.7848 4.39001H56.041V107.575H58.7848V4.39001Z" fill="#E5E5E5"/>
<path opacity="0.5" d="M69.6812 4.39001H66.9375V107.575H69.6812V4.39001Z" fill="#E5E5E5"/>
<path opacity="0.5" d="M80.5758 4.39001H77.832V107.575H80.5758V4.39001Z" fill="#E5E5E5"/>
<path opacity="0.5" d="M91.4723 4.39001H88.7285V107.575H91.4723V4.39001Z" fill="#E5E5E5"/>
<path opacity="0.5" d="M102.365 4.39001H99.6211V107.575H102.365V4.39001Z" fill="#E5E5E5"/>
<path opacity="0.5" d="M113.252 4.39001H110.469V107.575H113.252V4.39001Z" fill="#E5E5E5"/>
<path opacity="0.5" d="M124.149 4.39001H121.365V107.575H124.149V4.39001Z" fill="#E5E5E5"/>
<path opacity="0.5" d="M135.041 4.39001H132.258V107.575H135.041V4.39001Z" fill="#E5E5E5"/>
<path opacity="0.5" d="M145.937 4.39001H143.193V107.575H145.937V4.39001Z" fill="#E5E5E5"/>
<path opacity="0.5" d="M156.832 4.39001H154.049V107.575H156.832V4.39001Z" fill="#E5E5E5"/>
<path opacity="0.5" d="M167.719 4.39001H164.936V107.575H167.719V4.39001Z" fill="#E5E5E5"/>
<path opacity="0.5" d="M178.612 4.39001H175.828V107.575H178.612V4.39001Z" fill="#E5E5E5"/>
<path opacity="0.5" d="M189.507 4.39001H186.764V107.575H189.507V4.39001Z" fill="#E5E5E5"/>
<path opacity="0.5" d="M200.442 4.39001H197.658V107.575H200.442V4.39001Z" fill="#E5E5E5"/>
<path opacity="0.5" d="M211.338 4.39001H208.555V107.575H211.338V4.39001Z" fill="#E5E5E5"/>
<path opacity="0.5" d="M222.231 4.39001H219.447V107.575H222.231V4.39001Z" fill="#E5E5E5"/>
<path opacity="0.5" d="M7.41406 107.575H230.974V109.361" stroke="black" stroke-width="0.259408" stroke-linecap="round" stroke-linejoin="round"/>
<path opacity="0.5" d="M237.889 109.241H230.984V113.87H237.889V109.241Z" stroke="black" stroke-width="0.259408" stroke-linecap="round" stroke-linejoin="round"/>
<path opacity="0.5" d="M235.513 112.543V110.488C234.994 110.019 234.206 110.019 233.697 110.488V112.543C234.216 113.012 235.004 113.012 235.513 112.543Z" stroke="black" stroke-width="0.259408" stroke-linecap="round" stroke-linejoin="round"/>
<path opacity="0.5" d="M237.929 0.129639H230.945V4.75908H237.929V0.129639Z" stroke="black" stroke-width="0.259408" stroke-linecap="round" stroke-linejoin="round"/>
<path opacity="0.5" d="M235.524 3.55194V1.50661C234.995 1.03767 234.207 1.03767 233.678 1.50661V3.56192C234.207 4.03085 234.995 4.03085 235.524 3.56192V3.55194Z" stroke="black" stroke-width="0.259408" stroke-linecap="round" stroke-linejoin="round"/>
<path opacity="0.5" d="M7.03516 1.78598H226.495L226.644 1.776L226.784 1.78598H230.944" stroke="black" stroke-width="0.259408" stroke-linecap="round" stroke-linejoin="round"/>
<path opacity="0.5" d="M7.03516 4.39001H230.944" stroke="black" stroke-width="0.259408" stroke-linecap="round" stroke-linejoin="round"/>
<path opacity="0.5" d="M18.0684 1.77591H18.9064C18.9663 1.77591 19.0162 1.74597 19.0461 1.69609L19.4951 0.848022" stroke="black" stroke-width="0.259408" stroke-linecap="round" stroke-linejoin="round"/>
<path opacity="0.5" d="M19.4844 0.838301C19.5144 0.788301 19.5644 0.758301 19.6244 0.758301" stroke="black" stroke-width="0.259408" stroke-linecap="round" stroke-linejoin="round"/>
<path opacity="0.5" d="M19.625 0.758301H23.0073" stroke="black" stroke-width="0.259408" stroke-linecap="round" stroke-linejoin="round"/>
<path opacity="0.5" d="M23.0078 0.758301C23.0678 0.758301 23.1278 0.788301 23.1478 0.838301" stroke="black" stroke-width="0.259408" stroke-linecap="round" stroke-linejoin="round"/>
<path opacity="0.5" d="M23.1465 0.838013L23.5855 1.68608C23.6154 1.73596 23.6653 1.7659 23.7252 1.7659H25.4113" stroke="black" stroke-width="0.259408" stroke-linecap="round" stroke-linejoin="round"/>
<path opacity="0.5" d="M25.4238 1.77617C25.4838 1.77617 25.5338 1.74617 25.5638 1.69617" stroke="black" stroke-width="0.259408" stroke-linecap="round" stroke-linejoin="round"/>
<path opacity="0.5" d="M25.5605 1.69607L25.9995 0.848006C26.0295 0.79812 26.0794 0.768188 26.1392 0.768188H29.5215" stroke="black" stroke-width="0.259408" stroke-linecap="round" stroke-linejoin="round"/>
<path opacity="0.5" d="M29.5215 0.758301C29.5815 0.758301 29.6415 0.788301 29.6615 0.838301" stroke="black" stroke-width="0.259408" stroke-linecap="round" stroke-linejoin="round"/>
<path opacity="0.5" d="M29.6641 0.838135L30.1031 1.6862C30.133 1.73609 30.1829 1.776 30.2427 1.76602H31.9289" stroke="black" stroke-width="0.259408" stroke-linecap="round" stroke-linejoin="round"/>
<path opacity="0.5" d="M31.9355 1.77617C31.9955 1.77617 32.0556 1.74617 32.0756 1.69617" stroke="black" stroke-width="0.259408" stroke-linecap="round" stroke-linejoin="round"/>
<path opacity="0.5" d="M32.0762 1.69607L32.5152 0.848006C32.5451 0.79812 32.595 0.768188 32.6549 0.768188H36.0371C36.097 0.768188 36.1469 0.79812 36.1768 0.848006L36.6158 1.69607C36.6457 1.74596 36.6956 1.77589 36.7555 1.77589H38.4417" stroke="black" stroke-width="0.259408" stroke-linecap="round" stroke-linejoin="round"/>
<path opacity="0.5" d="M38.4414 1.77604C38.5014 1.77604 38.5614 1.74604 38.5814 1.69604" stroke="black" stroke-width="0.259408" stroke-linecap="round" stroke-linejoin="round"/>
<path opacity="0.5" d="M38.5918 1.69619L39.0308 0.848129C39.0607 0.798242 39.1106 0.768311 39.1705 0.768311H42.5528C42.6126 0.768311 42.6625 0.798242 42.6924 0.848129L43.1314 1.69619C43.1614 1.74608 43.2113 1.78599 43.2711 1.77601H44.9673C45.0271 1.77601 45.077 1.74608 45.1069 1.69619L45.5459 0.848129C45.5759 0.798242 45.6258 0.768311 45.6856 0.768311H49.0679C49.1278 0.768311 49.1777 0.798242 49.2076 0.848129L49.6466 1.69619C49.6765 1.74608 49.7264 1.78599 49.7863 1.77601H51.4824C51.5423 1.77601 51.5921 1.74608 51.6221 1.69619L52.0611 0.848129C52.091 0.798242 52.1409 0.768311 52.2008 0.768311H55.583C55.6429 0.768311 55.6928 0.798242 55.7227 0.848129L56.1617 1.69619C56.1917 1.74608 56.2415 1.77601 56.3014 1.77601H57.9975C58.0574 1.77601 58.1073 1.74608 58.1372 1.69619L58.5762 0.848129C58.6061 0.798242 58.656 0.768311 58.7159 0.768311H62.0982C62.1581 0.768311 62.2079 0.798242 62.2379 0.848129L62.6769 1.69619" stroke="black" stroke-width="0.259408" stroke-linecap="round" stroke-linejoin="round"/>
<path opacity="0.5" d="M62.6777 1.69617C62.7077 1.74617 62.7577 1.77617 62.8177 1.77617" stroke="black" stroke-width="0.259408" stroke-linecap="round" stroke-linejoin="round"/>
<path opacity="0.5" d="M62.8164 1.77589H64.5026C64.5624 1.77589 64.6123 1.74596 64.6422 1.69607L65.0812 0.848006C65.1112 0.79812 65.1611 0.768188 65.2209 0.768188H68.6032C68.6631 0.768188 68.713 0.79812 68.7429 0.848006L69.1819 1.69607" stroke="black" stroke-width="0.259408" stroke-linecap="round" stroke-linejoin="round"/>
<path opacity="0.5" d="M69.1816 1.69617C69.2116 1.74617 69.2616 1.77617 69.3216 1.77617" stroke="black" stroke-width="0.259408" stroke-linecap="round" stroke-linejoin="round"/>
<path opacity="0.5" d="M69.332 1.77591H71.0182C71.0781 1.77591 71.1279 1.74597 71.1579 1.69609L71.5969 0.848022" stroke="black" stroke-width="0.259408" stroke-linecap="round" stroke-linejoin="round"/>
<path opacity="0.5" d="M71.5977 0.838301C71.6277 0.788301 71.6777 0.758301 71.7377 0.758301" stroke="black" stroke-width="0.259408" stroke-linecap="round" stroke-linejoin="round"/>
<path opacity="0.5" d="M71.7363 0.758301H75.1186C75.1785 0.758301 75.2284 0.788232 75.2583 0.838119L75.6973 1.68618" stroke="black" stroke-width="0.259408" stroke-linecap="round" stroke-linejoin="round"/>
<path opacity="0.5" d="M75.6953 1.69617C75.7253 1.74617 75.7753 1.77617 75.8353 1.77617" stroke="black" stroke-width="0.259408" stroke-linecap="round" stroke-linejoin="round"/>
<path opacity="0.5" d="M75.8379 1.77591H77.524C77.5839 1.77591 77.6338 1.74597 77.6637 1.69609L78.1027 0.848022" stroke="black" stroke-width="0.259408" stroke-linecap="round" stroke-linejoin="round"/>
<path opacity="0.5" d="M78.1113 0.838301C78.1413 0.788301 78.1913 0.758301 78.2513 0.758301" stroke="black" stroke-width="0.259408" stroke-linecap="round" stroke-linejoin="round"/>
<path opacity="0.5" d="M78.25 0.758301H81.6323C81.6921 0.758301 81.742 0.788232 81.772 0.838119L82.2209 1.68618C82.2509 1.73607 82.3008 1.77598 82.3606 1.766H84.0468C84.1066 1.766 84.1565 1.73607 84.1865 1.68618L84.6255 0.838119" stroke="black" stroke-width="0.259408" stroke-linecap="round" stroke-linejoin="round"/>
<path opacity="0.5" d="M84.627 0.838301C84.657 0.788301 84.707 0.758301 84.767 0.758301" stroke="black" stroke-width="0.259408" stroke-linecap="round" stroke-linejoin="round"/>
<path opacity="0.5" d="M84.7676 0.758301H88.1499C88.2097 0.758301 88.2596 0.788232 88.2895 0.838119L88.7385 1.68618C88.7685 1.73607 88.8183 1.766 88.8782 1.766H90.5644C90.6242 1.766 90.6741 1.73607 90.704 1.68618L91.153 0.838119C91.1829 0.788232 91.2328 0.758301 91.2927 0.758301H94.675" stroke="black" stroke-width="0.259408" stroke-linecap="round" stroke-linejoin="round"/>
<path opacity="0.5" d="M94.666 0.758301C94.726 0.758301 94.786 0.788301 94.806 0.838301" stroke="black" stroke-width="0.259408" stroke-linecap="round" stroke-linejoin="round"/>
<path opacity="0.5" d="M94.8047 0.838119L95.2437 1.68618C95.2736 1.73607 95.3235 1.766 95.3834 1.766H97.0695C97.1294 1.766 97.1793 1.73607 97.2092 1.68618L97.6582 0.838119C97.6881 0.788232 97.738 0.758301 97.7979 0.758301H101.18" stroke="black" stroke-width="0.259408" stroke-linecap="round" stroke-linejoin="round"/>
<path opacity="0.5" d="M101.17 0.758301C101.23 0.758301 101.29 0.788301 101.31 0.838301" stroke="black" stroke-width="0.259408" stroke-linecap="round" stroke-linejoin="round"/>
<path opacity="0.5" d="M101.318 0.838135L101.757 1.6862C101.787 1.73609 101.837 1.776 101.897 1.76602H103.583" stroke="black" stroke-width="0.259408" stroke-linecap="round" stroke-linejoin="round"/>
<path opacity="0.5" d="M103.584 1.77604C103.644 1.77604 103.704 1.74604 103.724 1.69604" stroke="black" stroke-width="0.259408" stroke-linecap="round" stroke-linejoin="round"/>
<path opacity="0.5" d="M103.725 1.69619L104.164 0.848129C104.194 0.798242 104.243 0.768311 104.303 0.768311H107.686" stroke="black" stroke-width="0.259408" stroke-linecap="round" stroke-linejoin="round"/>
<path opacity="0.5" d="M107.686 0.758301C107.746 0.758301 107.806 0.788301 107.826 0.838301" stroke="black" stroke-width="0.259408" stroke-linecap="round" stroke-linejoin="round"/>
<path opacity="0.5" d="M107.824 0.838013L108.263 1.68608C108.293 1.73596 108.343 1.7659 108.403 1.7659H110.089" stroke="black" stroke-width="0.259408" stroke-linecap="round" stroke-linejoin="round"/>
<path opacity="0.5" d="M110.1 1.77617C110.16 1.77617 110.22 1.74617 110.24 1.69617" stroke="black" stroke-width="0.259408" stroke-linecap="round" stroke-linejoin="round"/>
<path opacity="0.5" d="M110.24 1.69618L110.679 0.838135" stroke="black" stroke-width="0.259408" stroke-linecap="round" stroke-linejoin="round"/>
<path opacity="0.5" d="M110.678 0.838301C110.708 0.788301 110.758 0.758301 110.818 0.758301" stroke="black" stroke-width="0.259408" stroke-linecap="round" stroke-linejoin="round"/>
<path opacity="0.5" d="M110.816 0.758301H114.199C114.259 0.758301 114.308 0.788232 114.338 0.838119L114.777 1.68618C114.807 1.73607 114.857 1.766 114.917 1.766H116.603" stroke="black" stroke-width="0.259408" stroke-linecap="round" stroke-linejoin="round"/>
<path opacity="0.5" d="M116.615 1.77617C116.675 1.77617 116.735 1.74617 116.755 1.69617" stroke="black" stroke-width="0.259408" stroke-linecap="round" stroke-linejoin="round"/>
<path opacity="0.5" d="M116.752 1.69607L117.191 0.848006C117.221 0.79812 117.271 0.768188 117.331 0.768188H120.713C120.773 0.768188 120.823 0.79812 120.853 0.848006L121.292 1.69607C121.322 1.74596 121.371 1.78587 121.431 1.77589H123.127C123.187 1.77589 123.237 1.74596 123.267 1.69607L123.706 0.848006C123.736 0.79812 123.786 0.768188 123.846 0.768188H127.228C127.288 0.768188 127.338 0.79812 127.368 0.848006L127.807 1.69607C127.837 1.74596 127.887 1.78587 127.946 1.77589H129.643C129.702 1.77589 129.752 1.74596 129.782 1.69607L130.221 0.848006C130.251 0.79812 130.301 0.768188 130.361 0.768188H133.743C133.803 0.768188 133.853 0.79812 133.883 0.848006L134.322 1.69607C134.352 1.74596 134.402 1.77589 134.462 1.77589H136.158C136.218 1.77589 136.267 1.74596 136.297 1.69607L136.736 0.848006C136.766 0.79812 136.816 0.768188 136.876 0.768188H140.258C140.318 0.768188 140.368 0.79812 140.398 0.848006L140.837 1.69607" stroke="black" stroke-width="0.259408" stroke-linecap="round" stroke-linejoin="round"/>
<path opacity="0.5" d="M140.838 1.69617C140.868 1.74617 140.918 1.77617 140.978 1.77617" stroke="black" stroke-width="0.259408" stroke-linecap="round" stroke-linejoin="round"/>
<path opacity="0.5" d="M140.98 1.77589H142.667C142.726 1.77589 142.776 1.74596 142.806 1.69607L143.245 0.848006C143.275 0.79812 143.325 0.768188 143.385 0.768188H146.767C146.827 0.768188 146.877 0.79812 146.907 0.848006L147.346 1.69607" stroke="black" stroke-width="0.259408" stroke-linecap="round" stroke-linejoin="round"/>
<path opacity="0.5" d="M147.354 1.69604C147.384 1.74604 147.434 1.77604 147.494 1.77604" stroke="black" stroke-width="0.259408" stroke-linecap="round" stroke-linejoin="round"/>
<path opacity="0.5" d="M147.494 1.77591H149.18C149.24 1.77591 149.29 1.74597 149.32 1.69609L149.759 0.848022" stroke="black" stroke-width="0.259408" stroke-linecap="round" stroke-linejoin="round"/>
<path opacity="0.5" d="M149.758 0.838301C149.788 0.788301 149.838 0.758301 149.898 0.758301" stroke="black" stroke-width="0.259408" stroke-linecap="round" stroke-linejoin="round"/>
<path opacity="0.5" d="M149.908 0.758301H153.29C153.35 0.758301 153.4 0.788232 153.43 0.838119L153.869 1.68618" stroke="black" stroke-width="0.259408" stroke-linecap="round" stroke-linejoin="round"/>
<path opacity="0.5" d="M153.861 1.69617C153.891 1.74617 153.941 1.77617 154.001 1.77617" stroke="black" stroke-width="0.259408" stroke-linecap="round" stroke-linejoin="round"/>
<path opacity="0.5" d="M154.008 1.77591H155.694C155.754 1.77591 155.804 1.74597 155.834 1.69609L156.273 0.848022" stroke="black" stroke-width="0.259408" stroke-linecap="round" stroke-linejoin="round"/>
<path opacity="0.5" d="M156.273 0.838301C156.303 0.788301 156.353 0.758301 156.413 0.758301" stroke="black" stroke-width="0.259408" stroke-linecap="round" stroke-linejoin="round"/>
<path opacity="0.5" d="M156.424 0.758301H159.806C159.866 0.758301 159.916 0.788232 159.946 0.838119L160.395 1.68618C160.425 1.73607 160.475 1.77598 160.534 1.766H162.221C162.28 1.766 162.33 1.73607 162.36 1.68618L162.799 0.838119" stroke="black" stroke-width="0.259408" stroke-linecap="round" stroke-linejoin="round"/>
<path opacity="0.5" d="M162.789 0.838301C162.819 0.788301 162.869 0.758301 162.929 0.758301" stroke="black" stroke-width="0.259408" stroke-linecap="round" stroke-linejoin="round"/>
<path opacity="0.5" d="M162.928 0.758301H166.31C166.37 0.758301 166.42 0.788232 166.45 0.838119L166.899 1.68618C166.929 1.73607 166.978 1.766 167.038 1.766H168.725C168.784 1.766 168.834 1.73607 168.864 1.68618L169.313 0.838119C169.343 0.788232 169.393 0.758301 169.453 0.758301H172.835" stroke="black" stroke-width="0.259408" stroke-linecap="round" stroke-linejoin="round"/>
<path opacity="0.5" d="M172.826 0.758301C172.886 0.758301 172.946 0.788301 172.966 0.838301" stroke="black" stroke-width="0.259408" stroke-linecap="round" stroke-linejoin="round"/>
<path opacity="0.5" d="M172.965 0.838013L173.404 1.68608C173.434 1.73596 173.484 1.7659 173.544 1.7659H175.23" stroke="black" stroke-width="0.259408" stroke-linecap="round" stroke-linejoin="round"/>
<path opacity="0.5" d="M175.232 1.77617C175.292 1.77617 175.342 1.74617 175.372 1.69617" stroke="black" stroke-width="0.259408" stroke-linecap="round" stroke-linejoin="round"/>
<path opacity="0.5" d="M175.379 1.69607L175.818 0.848006C175.848 0.79812 175.898 0.768188 175.958 0.768188H179.34" stroke="black" stroke-width="0.259408" stroke-linecap="round" stroke-linejoin="round"/>
<path opacity="0.5" d="M179.34 0.758301C179.4 0.758301 179.46 0.788301 179.48 0.838301" stroke="black" stroke-width="0.259408" stroke-linecap="round" stroke-linejoin="round"/>
<path opacity="0.5" d="M179.482 0.838135L179.921 1.6862C179.951 1.73609 180.001 1.76602 180.061 1.76602H181.747" stroke="black" stroke-width="0.259408" stroke-linecap="round" stroke-linejoin="round"/>
<path opacity="0.5" d="M181.746 1.77617C181.806 1.77617 181.866 1.74617 181.886 1.69617" stroke="black" stroke-width="0.259408" stroke-linecap="round" stroke-linejoin="round"/>
<path opacity="0.5" d="M181.895 1.69607L182.334 0.848006C182.363 0.79812 182.413 0.768188 182.473 0.768188H185.855" stroke="black" stroke-width="0.259408" stroke-linecap="round" stroke-linejoin="round"/>
<path opacity="0.5" d="M185.846 0.758301C185.906 0.758301 185.966 0.788301 185.986 0.838301" stroke="black" stroke-width="0.259408" stroke-linecap="round" stroke-linejoin="round"/>
<path opacity="0.5" d="M185.996 0.838135L186.435 1.6862C186.465 1.73609 186.515 1.76602 186.575 1.76602H188.261" stroke="black" stroke-width="0.259408" stroke-linecap="round" stroke-linejoin="round"/>
<path opacity="0.5" d="M188.26 1.77617C188.32 1.77617 188.38 1.74617 188.4 1.69617" stroke="black" stroke-width="0.259408" stroke-linecap="round" stroke-linejoin="round"/>
<path opacity="0.5" d="M188.4 1.69619L188.839 0.848129C188.869 0.798242 188.919 0.768311 188.979 0.768311H192.361C192.421 0.768311 192.471 0.798242 192.501 0.848129L192.94 1.69619C192.97 1.74608 193.02 1.78599 193.08 1.77601H194.776C194.836 1.77601 194.886 1.74608 194.916 1.69619L195.355 0.848129C195.384 0.798242 195.434 0.768311 195.494 0.768311H198.876C198.936 0.768311 198.986 0.798242 199.016 0.848129L199.455 1.69619C199.485 1.74608 199.535 1.78599 199.595 1.77601H201.291" stroke="black" stroke-width="0.259408" stroke-linecap="round" stroke-linejoin="round"/>
<path opacity="0.5" d="M201.291 1.77604C201.351 1.77604 201.401 1.74604 201.431 1.69604" stroke="black" stroke-width="0.259408" stroke-linecap="round" stroke-linejoin="round"/>
<path opacity="0.5" d="M201.432 1.69618L201.871 0.838135" stroke="black" stroke-width="0.259408" stroke-linecap="round" stroke-linejoin="round"/>
<path opacity="0.5" d="M201.871 0.838301C201.901 0.788301 201.951 0.758301 202.011 0.758301" stroke="black" stroke-width="0.259408" stroke-linecap="round" stroke-linejoin="round"/>
<path opacity="0.5" d="M202.01 0.758301H205.392C205.452 0.758301 205.502 0.788232 205.532 0.838119L205.971 1.68618C206.001 1.73607 206.051 1.77598 206.11 1.766H207.807C207.866 1.766 207.916 1.73607 207.946 1.68618L208.385 0.838119C208.415 0.788232 208.465 0.758301 208.525 0.758301H211.907" stroke="black" stroke-width="0.259408" stroke-linecap="round" stroke-linejoin="round"/>
<path opacity="0.5" d="M211.906 0.758301C211.966 0.758301 212.026 0.788301 212.046 0.838301" stroke="black" stroke-width="0.259408" stroke-linecap="round" stroke-linejoin="round"/>
<path opacity="0.5" d="M212.047 0.838135L212.486 1.69618" stroke="black" stroke-width="0.259408" stroke-linecap="round" stroke-linejoin="round"/>
<path opacity="0.5" d="M212.486 1.69617C212.516 1.74617 212.566 1.77617 212.636 1.77617" stroke="black" stroke-width="0.259408" stroke-linecap="round" stroke-linejoin="round"/>
<path opacity="0.5" d="M212.633 1.77589H214.319C214.379 1.77589 214.429 1.74596 214.459 1.69607L214.898 0.848006C214.928 0.79812 214.977 0.768188 215.037 0.768188H218.42C218.479 0.768188 218.529 0.79812 218.559 0.848006L218.998 1.69607" stroke="black" stroke-width="0.259408" stroke-linecap="round" stroke-linejoin="round"/>
<path opacity="0.5" d="M219.002 1.69617C219.032 1.74617 219.082 1.77617 219.142 1.77617" stroke="black" stroke-width="0.259408" stroke-linecap="round" stroke-linejoin="round"/>
<path opacity="0.5" d="M219.141 1.776H219.989H220.827" stroke="black" stroke-width="0.259408" stroke-linecap="round" stroke-linejoin="round"/>
<path opacity="0.5" d="M220.826 1.77617C220.886 1.77617 220.946 1.74617 220.966 1.69617" stroke="black" stroke-width="0.259408" stroke-linecap="round" stroke-linejoin="round"/>
<path opacity="0.5" d="M220.977 1.69606L221.416 0.838013" stroke="black" stroke-width="0.259408" stroke-linecap="round" stroke-linejoin="round"/>
<path opacity="0.5" d="M221.416 0.838301C221.446 0.788301 221.496 0.758301 221.566 0.758301" stroke="black" stroke-width="0.259408" stroke-linecap="round" stroke-linejoin="round"/>
<path opacity="0.5" d="M221.557 0.758301H224.939C224.999 0.758301 225.049 0.788232 225.079 0.838119L225.518 1.68618" stroke="black" stroke-width="0.259408" stroke-linecap="round" stroke-linejoin="round"/>
<path opacity="0.5" d="M225.514 1.69617C225.544 1.74617 225.594 1.77617 225.654 1.77617" stroke="black" stroke-width="0.259408" stroke-linecap="round" stroke-linejoin="round"/>
<path opacity="0.5" d="M225.656 1.776H226.504" stroke="black" stroke-width="0.259408" stroke-linecap="round" stroke-linejoin="round"/>
<path opacity="0.5" d="M228.859 107.575L228.959 4.39001" stroke="black" stroke-width="0.259408" stroke-linecap="round" stroke-linejoin="round"/>
<path opacity="0.5" d="M7.41086 4.75916H0.287109V109.171H7.41086V4.75916Z" stroke="#090A06" stroke-width="0.259408" stroke-linecap="round" stroke-linejoin="round"/>
<path opacity="0.5" d="M237.658 4.75916V109.241" stroke="#07070A" stroke-width="0.259408" stroke-linecap="round" stroke-linejoin="round"/>
<path opacity="0.5" d="M230.984 113.461H7.03516" stroke="black" stroke-width="0.259408" stroke-linecap="round" stroke-linejoin="round"/>
<path opacity="0.5" d="M7.41406 107.575V108.572H230.974" stroke="black" stroke-width="0.259408" stroke-linecap="round" stroke-linejoin="round"/>
<path opacity="0.5" d="M237.553 8.67627L235.996 8.67871L236.001 11.8714L237.558 11.869L237.553 8.67627Z" stroke="black" stroke-width="0.259408" stroke-linecap="round" stroke-linejoin="round"/>
<path opacity="0.5" d="M236.789 11.853L236.779 8.66028" stroke="black" stroke-width="0.259408" stroke-linecap="round" stroke-linejoin="round"/>
<path opacity="0.5" d="M237.609 41.7947H236.053V44.9874H237.609V41.7947Z" stroke="black" stroke-width="0.259408" stroke-linecap="round" stroke-linejoin="round"/>
<path opacity="0.5" d="M236.82 41.7947L236.83 44.9974" stroke="black" stroke-width="0.259408" stroke-linecap="round" stroke-linejoin="round"/>
<path opacity="0.5" d="M237.617 69.0184L236.051 69.0209L236.056 72.2136L237.622 72.2111L237.617 69.0184Z" stroke="black" stroke-width="0.259408" stroke-linecap="round" stroke-linejoin="round"/>
<path opacity="0.5" d="M236.842 69.0027V72.2054" stroke="black" stroke-width="0.259408" stroke-linecap="round" stroke-linejoin="round"/>
<path opacity="0.5" d="M237.65 102.282L236.084 102.285L236.089 105.478L237.655 105.475L237.65 102.282Z" stroke="black" stroke-width="0.259408" stroke-linecap="round" stroke-linejoin="round"/>
<path opacity="0.5" d="M236.881 102.257V105.459" stroke="black" stroke-width="0.259408" stroke-linecap="round" stroke-linejoin="round"/>
<path opacity="0.5" d="M216.785 107.525V4.39001" stroke="black" stroke-width="0.259408" stroke-linecap="round" stroke-linejoin="round"/>
<path opacity="0.5" d="M213.961 107.525V4.39001" stroke="black" stroke-width="0.259408" stroke-linecap="round" stroke-linejoin="round"/>
<path opacity="0.5" d="M205.889 107.525V4.39001" stroke="black" stroke-width="0.259408" stroke-linecap="round" stroke-linejoin="round"/>
<path opacity="0.5" d="M203.066 107.525V4.39001" stroke="black" stroke-width="0.259408" stroke-linecap="round" stroke-linejoin="round"/>
<path opacity="0.5" d="M194.996 107.525V4.39001" stroke="black" stroke-width="0.259408" stroke-linecap="round" stroke-linejoin="round"/>
<path opacity="0.5" d="M192.17 107.525V4.39001" stroke="black" stroke-width="0.259408" stroke-linecap="round" stroke-linejoin="round"/>
<path opacity="0.5" d="M184.1 107.525V4.39001" stroke="black" stroke-width="0.259408" stroke-linecap="round" stroke-linejoin="round"/>
<path opacity="0.5" d="M181.277 107.525V4.39001" stroke="black" stroke-width="0.259408" stroke-linecap="round" stroke-linejoin="round"/>
<path opacity="0.5" d="M173.213 107.525V4.39001" stroke="black" stroke-width="0.259408" stroke-linecap="round" stroke-linejoin="round"/>
<path opacity="0.5" d="M170.381 107.525V4.39001" stroke="black" stroke-width="0.259408" stroke-linecap="round" stroke-linejoin="round"/>
<path opacity="0.5" d="M162.32 107.525V4.39001" stroke="black" stroke-width="0.259408" stroke-linecap="round" stroke-linejoin="round"/>
<path opacity="0.5" d="M159.486 107.525V4.39001" stroke="black" stroke-width="0.259408" stroke-linecap="round" stroke-linejoin="round"/>
<path opacity="0.5" d="M151.424 107.525V4.39001" stroke="black" stroke-width="0.259408" stroke-linecap="round" stroke-linejoin="round"/>
<path opacity="0.5" d="M148.602 107.525V4.39001" stroke="black" stroke-width="0.259408" stroke-linecap="round" stroke-linejoin="round"/>
<path opacity="0.5" d="M140.529 107.525V4.39001" stroke="black" stroke-width="0.259408" stroke-linecap="round" stroke-linejoin="round"/>
<path opacity="0.5" d="M137.705 107.525V4.39001" stroke="black" stroke-width="0.259408" stroke-linecap="round" stroke-linejoin="round"/>
<path opacity="0.5" d="M129.633 107.525V4.39001" stroke="black" stroke-width="0.259408" stroke-linecap="round" stroke-linejoin="round"/>
<path opacity="0.5" d="M126.811 107.525V4.39001" stroke="black" stroke-width="0.259408" stroke-linecap="round" stroke-linejoin="round"/>
<path opacity="0.5" d="M118.75 107.525V4.39001" stroke="black" stroke-width="0.259408" stroke-linecap="round" stroke-linejoin="round"/>
<path opacity="0.5" d="M115.914 107.525V4.39001" stroke="black" stroke-width="0.259408" stroke-linecap="round" stroke-linejoin="round"/>
<path opacity="0.5" d="M107.854 107.525V4.39001" stroke="black" stroke-width="0.259408" stroke-linecap="round" stroke-linejoin="round"/>
<path opacity="0.5" d="M105.021 107.525V4.39001" stroke="black" stroke-width="0.259408" stroke-linecap="round" stroke-linejoin="round"/>
<path opacity="0.5" d="M96.959 107.525V4.39001" stroke="black" stroke-width="0.259408" stroke-linecap="round" stroke-linejoin="round"/>
<path opacity="0.5" d="M94.1348 107.525V4.39001" stroke="black" stroke-width="0.259408" stroke-linecap="round" stroke-linejoin="round"/>
<path opacity="0.5" d="M86.0645 107.525V4.39001" stroke="black" stroke-width="0.259408" stroke-linecap="round" stroke-linejoin="round"/>
<path opacity="0.5" d="M83.2402 107.525V4.39001" stroke="black" stroke-width="0.259408" stroke-linecap="round" stroke-linejoin="round"/>
<path opacity="0.5" d="M75.168 107.525V4.39001" stroke="black" stroke-width="0.259408" stroke-linecap="round" stroke-linejoin="round"/>
<path opacity="0.5" d="M72.3438 107.525V4.39001" stroke="black" stroke-width="0.259408" stroke-linecap="round" stroke-linejoin="round"/>
<path opacity="0.5" d="M64.2734 107.525V4.39001" stroke="black" stroke-width="0.259408" stroke-linecap="round" stroke-linejoin="round"/>
<path opacity="0.5" d="M61.4492 107.525V4.39001" stroke="black" stroke-width="0.259408" stroke-linecap="round" stroke-linejoin="round"/>
<path opacity="0.5" d="M53.3867 107.525V4.39001" stroke="black" stroke-width="0.259408" stroke-linecap="round" stroke-linejoin="round"/>
<path opacity="0.5" d="M50.5547 107.525V4.39001" stroke="black" stroke-width="0.259408" stroke-linecap="round" stroke-linejoin="round"/>
<path opacity="0.5" d="M42.4941 107.525V4.39001" stroke="black" stroke-width="0.259408" stroke-linecap="round" stroke-linejoin="round"/>
<path opacity="0.5" d="M39.668 107.525V4.39001" stroke="black" stroke-width="0.259408" stroke-linecap="round" stroke-linejoin="round"/>
<path opacity="0.5" d="M31.5977 107.525V4.39001" stroke="black" stroke-width="0.259408" stroke-linecap="round" stroke-linejoin="round"/>
<path opacity="0.5" d="M28.7754 107.525V4.39001" stroke="black" stroke-width="0.259408" stroke-linecap="round" stroke-linejoin="round"/>
<path opacity="0.5" d="M20.7031 107.525V4.39001" stroke="black" stroke-width="0.259408" stroke-linecap="round" stroke-linejoin="round"/>
<path opacity="0.5" d="M17.8789 107.525V4.39001" stroke="black" stroke-width="0.259408" stroke-linecap="round" stroke-linejoin="round"/>
<path opacity="0.5" d="M9.80664 107.525V4.39001" stroke="black" stroke-width="0.259408" stroke-linecap="round" stroke-linejoin="round"/>
<path opacity="0.5" d="M224.848 107.525V4.39001" stroke="black" stroke-width="0.259408" stroke-linecap="round" stroke-linejoin="round"/>
<path opacity="0.5" d="M227.512 107.525V4.39001" stroke="black" stroke-width="0.259408" stroke-linecap="round" stroke-linejoin="round"/>
<path opacity="0.5" d="M15.2164 4.39001H12.4727V107.575H15.2164V4.39001Z" stroke="black" stroke-width="0.259408" stroke-linecap="round" stroke-linejoin="round"/>
<path opacity="0.5" d="M26.109 4.39001H23.3652V107.575H26.109V4.39001Z" stroke="black" stroke-width="0.259408" stroke-linecap="round" stroke-linejoin="round"/>
<path opacity="0.5" d="M37.0055 4.39001H34.2617V107.575H37.0055V4.39001Z" stroke="black" stroke-width="0.259408" stroke-linecap="round" stroke-linejoin="round"/>
<path opacity="0.5" d="M47.9019 4.39001H45.1582V107.575H47.9019V4.39001Z" stroke="black" stroke-width="0.259408" stroke-linecap="round" stroke-linejoin="round"/>
<path opacity="0.5" d="M58.7848 4.39001H56.041V107.575H58.7848V4.39001Z" stroke="black" stroke-width="0.259408" stroke-linecap="round" stroke-linejoin="round"/>
<path opacity="0.5" d="M69.6812 4.39001H66.9375V107.575H69.6812V4.39001Z" stroke="black" stroke-width="0.259408" stroke-linecap="round" stroke-linejoin="round"/>
<path opacity="0.5" d="M80.5758 4.39001H77.832V107.575H80.5758V4.39001Z" stroke="black" stroke-width="0.259408" stroke-linecap="round" stroke-linejoin="round"/>
<path opacity="0.5" d="M91.4723 4.39001H88.7285V107.575H91.4723V4.39001Z" stroke="black" stroke-width="0.259408" stroke-linecap="round" stroke-linejoin="round"/>
<path opacity="0.5" d="M102.365 4.39001H99.6211V107.575H102.365V4.39001Z" stroke="black" stroke-width="0.259408" stroke-linecap="round" stroke-linejoin="round"/>
<path opacity="0.5" d="M113.252 4.39001H110.469V107.575H113.252V4.39001Z" stroke="black" stroke-width="0.259408" stroke-linecap="round" stroke-linejoin="round"/>
<path opacity="0.5" d="M124.149 4.39001H121.365V107.575H124.149V4.39001Z" stroke="black" stroke-width="0.259408" stroke-linecap="round" stroke-linejoin="round"/>
<path opacity="0.5" d="M135.041 4.39001H132.258V107.575H135.041V4.39001Z" stroke="black" stroke-width="0.259408" stroke-linecap="round" stroke-linejoin="round"/>
<path opacity="0.5" d="M145.937 4.39001H143.193V107.575H145.937V4.39001Z" stroke="black" stroke-width="0.259408" stroke-linecap="round" stroke-linejoin="round"/>
<path opacity="0.5" d="M156.832 4.39001H154.049V107.575H156.832V4.39001Z" stroke="black" stroke-width="0.259408" stroke-linecap="round" stroke-linejoin="round"/>
<path opacity="0.5" d="M167.719 4.39001H164.936V107.575H167.719V4.39001Z" stroke="black" stroke-width="0.259408" stroke-linecap="round" stroke-linejoin="round"/>
<path opacity="0.5" d="M178.612 4.39001H175.828V107.575H178.612V4.39001Z" stroke="black" stroke-width="0.259408" stroke-linecap="round" stroke-linejoin="round"/>
<path opacity="0.5" d="M189.507 4.39001H186.764V107.575H189.507V4.39001Z" stroke="black" stroke-width="0.259408" stroke-linecap="round" stroke-linejoin="round"/>
<path opacity="0.5" d="M200.442 4.39001H197.658V107.575H200.442V4.39001Z" stroke="black" stroke-width="0.259408" stroke-linecap="round" stroke-linejoin="round"/>
<path opacity="0.5" d="M211.338 4.39001H208.555V107.575H211.338V4.39001Z" stroke="black" stroke-width="0.259408" stroke-linecap="round" stroke-linejoin="round"/>
<path opacity="0.5" d="M222.231 4.39001H219.447V107.575H222.231V4.39001Z" stroke="black" stroke-width="0.259408" stroke-linecap="round" stroke-linejoin="round"/>
<path opacity="0.5" d="M166.161 113.461V109.5H152.023V113.461" stroke="black" stroke-width="0.259408" stroke-linecap="round" stroke-linejoin="round"/>
<path opacity="0.5" d="M71.6387 113.461V109.53H85.7664V113.461" stroke="black" stroke-width="0.259408" stroke-linecap="round" stroke-linejoin="round"/>
<path opacity="0.5" d="M162.238 6.70459H159.564V13.6587H162.238V6.70459Z" stroke="black" stroke-width="0.259408" stroke-linecap="round" stroke-linejoin="round"/>
<path opacity="0.5" d="M161.761 7.48291H160.045" stroke="black" stroke-width="0.259408" stroke-linecap="round" stroke-linejoin="round"/>
<path opacity="0.5" d="M160.047 7.48291C159.917 7.48291 159.807 7.60291 159.807 7.75291" stroke="black" stroke-width="0.259408" stroke-linecap="round" stroke-linejoin="round"/>
<path opacity="0.5" d="M159.807 7.75232V12.8507" stroke="black" stroke-width="0.259408" stroke-linecap="round" stroke-linejoin="round"/>
<path opacity="0.5" d="M159.807 12.8507C159.807 13.0007 159.917 13.1207 160.047 13.1207" stroke="black" stroke-width="0.259408" stroke-linecap="round" stroke-linejoin="round"/>
<path opacity="0.5" d="M160.045 13.1201H161.761" stroke="black" stroke-width="0.259408" stroke-linecap="round" stroke-linejoin="round"/>
<path opacity="0.5" d="M161.762 13.1207C161.892 13.1207 162.002 13.0007 162.002 12.8507" stroke="black" stroke-width="0.259408" stroke-linecap="round" stroke-linejoin="round"/>
<path opacity="0.5" d="M162 12.8507V7.75232" stroke="black" stroke-width="0.259408" stroke-linecap="round" stroke-linejoin="round"/>
<path opacity="0.5" d="M162.002 7.75291C162.002 7.60291 161.892 7.48291 161.762 7.48291" stroke="black" stroke-width="0.259408" stroke-linecap="round" stroke-linejoin="round"/>
<path opacity="0.5" d="M162.002 11.5038H159.807" stroke="black" stroke-width="0.259408" stroke-linecap="round" stroke-linejoin="round"/>
<path opacity="0.5" d="M161.67 7.05383C161.67 7.13383 161.73 7.19383 161.79 7.19383" stroke="black" stroke-width="0.259408" stroke-linecap="round" stroke-linejoin="round"/>
<path opacity="0.5" d="M161.791 7.19383C161.861 7.19383 161.911 7.13383 161.911 7.05383" stroke="black" stroke-width="0.259408" stroke-linecap="round" stroke-linejoin="round"/>
<path opacity="0.5" d="M161.921 7.05431C161.921 6.97431 161.861 6.91431 161.801 6.91431" stroke="black" stroke-width="0.259408" stroke-linecap="round" stroke-linejoin="round"/>
<path opacity="0.5" d="M161.79 6.91431C161.72 6.91431 161.67 6.97431 161.67 7.05431" stroke="black" stroke-width="0.259408" stroke-linecap="round" stroke-linejoin="round"/>
<path opacity="0.5" d="M160.775 13.3895C160.775 13.4695 160.835 13.5295 160.895 13.5295" stroke="black" stroke-width="0.259408" stroke-linecap="round" stroke-linejoin="round"/>
<path opacity="0.5" d="M160.902 13.5295C160.972 13.5295 161.022 13.4695 161.022 13.3895" stroke="black" stroke-width="0.259408" stroke-linecap="round" stroke-linejoin="round"/>
<path opacity="0.5" d="M161.022 13.3898C161.022 13.3098 160.962 13.2498 160.902 13.2498" stroke="black" stroke-width="0.259408" stroke-linecap="round" stroke-linejoin="round"/>
<path opacity="0.5" d="M160.905 13.2499C160.835 13.2499 160.785 13.3099 160.785 13.3899" stroke="black" stroke-width="0.259408" stroke-linecap="round" stroke-linejoin="round"/>
<path opacity="0.5" d="M159.877 7.05383C159.877 7.13383 159.937 7.19383 159.997 7.19383" stroke="black" stroke-width="0.259408" stroke-linecap="round" stroke-linejoin="round"/>
<path opacity="0.5" d="M160.004 7.19383C160.074 7.19383 160.124 7.13383 160.124 7.05383" stroke="black" stroke-width="0.259408" stroke-linecap="round" stroke-linejoin="round"/>
<path opacity="0.5" d="M160.124 7.05431C160.124 6.97431 160.064 6.91431 160.004 6.91431" stroke="black" stroke-width="0.259408" stroke-linecap="round" stroke-linejoin="round"/>
<path opacity="0.5" d="M160.007 6.91431C159.937 6.91431 159.887 6.97431 159.887 7.05431" stroke="black" stroke-width="0.259408" stroke-linecap="round" stroke-linejoin="round"/>
<path opacity="0.5" d="M205.811 6.70459H203.137V13.6587H205.811V6.70459Z" stroke="black" stroke-width="0.259408" stroke-linecap="round" stroke-linejoin="round"/>
<path opacity="0.5" d="M205.331 7.48291H203.615" stroke="black" stroke-width="0.259408" stroke-linecap="round" stroke-linejoin="round"/>
<path opacity="0.5" d="M203.615 7.48291C203.485 7.48291 203.375 7.60291 203.375 7.75291" stroke="black" stroke-width="0.259408" stroke-linecap="round" stroke-linejoin="round"/>
<path opacity="0.5" d="M203.375 7.75232V12.8507" stroke="black" stroke-width="0.259408" stroke-linecap="round" stroke-linejoin="round"/>
<path opacity="0.5" d="M203.375 12.8507C203.375 13.0007 203.485 13.1207 203.615 13.1207" stroke="black" stroke-width="0.259408" stroke-linecap="round" stroke-linejoin="round"/>
<path opacity="0.5" d="M203.615 13.1201H205.331" stroke="black" stroke-width="0.259408" stroke-linecap="round" stroke-linejoin="round"/>
<path opacity="0.5" d="M205.332 13.1207C205.462 13.1207 205.572 13.0007 205.572 12.8507" stroke="black" stroke-width="0.259408" stroke-linecap="round" stroke-linejoin="round"/>
<path opacity="0.5" d="M205.57 12.8507V7.75232" stroke="black" stroke-width="0.259408" stroke-linecap="round" stroke-linejoin="round"/>
<path opacity="0.5" d="M205.572 7.75291C205.572 7.60291 205.462 7.48291 205.332 7.48291" stroke="black" stroke-width="0.259408" stroke-linecap="round" stroke-linejoin="round"/>
<path opacity="0.5" d="M205.57 11.5038H203.375" stroke="black" stroke-width="0.259408" stroke-linecap="round" stroke-linejoin="round"/>
<path opacity="0.5" d="M205.244 7.05383C205.244 7.13383 205.294 7.19383 205.364 7.19383" stroke="black" stroke-width="0.259408" stroke-linecap="round" stroke-linejoin="round"/>
<path opacity="0.5" d="M205.361 7.19383C205.431 7.19383 205.491 7.13383 205.491 7.05383" stroke="black" stroke-width="0.259408" stroke-linecap="round" stroke-linejoin="round"/>
<path opacity="0.5" d="M205.491 7.05431C205.491 6.97431 205.431 6.91431 205.361 6.91431" stroke="black" stroke-width="0.259408" stroke-linecap="round" stroke-linejoin="round"/>
<path opacity="0.5" d="M205.364 6.91431C205.294 6.91431 205.244 6.97431 205.244 7.05431" stroke="black" stroke-width="0.259408" stroke-linecap="round" stroke-linejoin="round"/>
<path opacity="0.5" d="M204.355 13.3895C204.355 13.4695 204.415 13.5295 204.485 13.5295" stroke="black" stroke-width="0.259408" stroke-linecap="round" stroke-linejoin="round"/>
<path opacity="0.5" d="M204.473 13.5295C204.543 13.5295 204.593 13.4695 204.593 13.3895" stroke="black" stroke-width="0.259408" stroke-linecap="round" stroke-linejoin="round"/>
<path opacity="0.5" d="M204.593 13.3899C204.593 13.3099 204.543 13.2499 204.473 13.2499" stroke="black" stroke-width="0.259408" stroke-linecap="round" stroke-linejoin="round"/>
<path opacity="0.5" d="M204.476 13.2499C204.406 13.2499 204.346 13.3099 204.346 13.3899" stroke="black" stroke-width="0.259408" stroke-linecap="round" stroke-linejoin="round"/>
<path opacity="0.5" d="M203.447 7.05383C203.447 7.13383 203.507 7.19383 203.577 7.19383" stroke="black" stroke-width="0.259408" stroke-linecap="round" stroke-linejoin="round"/>
<path opacity="0.5" d="M203.576 7.19383C203.646 7.19383 203.696 7.13383 203.696 7.05383" stroke="black" stroke-width="0.259408" stroke-linecap="round" stroke-linejoin="round"/>
<path opacity="0.5" d="M203.696 7.05431C203.696 6.97431 203.646 6.91431 203.576 6.91431" stroke="black" stroke-width="0.259408" stroke-linecap="round" stroke-linejoin="round"/>
<path opacity="0.5" d="M203.577 6.91431C203.507 6.91431 203.447 6.97431 203.447 7.05431" stroke="black" stroke-width="0.259408" stroke-linecap="round" stroke-linejoin="round"/>
<path opacity="0.5" d="M75.0899 6.70459H72.416V13.6587H75.0899V6.70459Z" stroke="black" stroke-width="0.259408" stroke-linecap="round" stroke-linejoin="round"/>
<path opacity="0.5" d="M74.6106 7.48291H72.8945" stroke="black" stroke-width="0.259408" stroke-linecap="round" stroke-linejoin="round"/>
<path opacity="0.5" d="M72.8943 7.48291C72.7643 7.48291 72.6543 7.60291 72.6543 7.75291" stroke="black" stroke-width="0.259408" stroke-linecap="round" stroke-linejoin="round"/>
<path opacity="0.5" d="M72.6641 7.75232V12.8507" stroke="black" stroke-width="0.259408" stroke-linecap="round" stroke-linejoin="round"/>
<path opacity="0.5" d="M72.6641 12.8507C72.6641 13.0007 72.7741 13.1207 72.9041 13.1207" stroke="black" stroke-width="0.259408" stroke-linecap="round" stroke-linejoin="round"/>
<path opacity="0.5" d="M72.8945 13.1201H74.6106" stroke="black" stroke-width="0.259408" stroke-linecap="round" stroke-linejoin="round"/>
<path opacity="0.5" d="M74.6094 13.1207C74.7394 13.1207 74.8494 13.0007 74.8494 12.8507" stroke="black" stroke-width="0.259408" stroke-linecap="round" stroke-linejoin="round"/>
<path opacity="0.5" d="M74.8477 12.8507V7.75232" stroke="black" stroke-width="0.259408" stroke-linecap="round" stroke-linejoin="round"/>
<path opacity="0.5" d="M74.8494 7.75291C74.8494 7.60291 74.7394 7.48291 74.6094 7.48291" stroke="black" stroke-width="0.259408" stroke-linecap="round" stroke-linejoin="round"/>
<path opacity="0.5" d="M74.8491 11.5038H72.6641" stroke="black" stroke-width="0.259408" stroke-linecap="round" stroke-linejoin="round"/>
<path opacity="0.5" d="M74.5195 7.05383C74.5195 7.13383 74.5795 7.19383 74.6395 7.19383" stroke="black" stroke-width="0.259408" stroke-linecap="round" stroke-linejoin="round"/>
<path opacity="0.5" d="M74.6504 7.19383C74.7204 7.19383 74.7704 7.13383 74.7704 7.05383" stroke="black" stroke-width="0.259408" stroke-linecap="round" stroke-linejoin="round"/>
<path opacity="0.5" d="M74.7704 7.05431C74.7704 6.97431 74.7104 6.91431 74.6504 6.91431" stroke="black" stroke-width="0.259408" stroke-linecap="round" stroke-linejoin="round"/>
<path opacity="0.5" d="M74.6493 6.91431C74.5793 6.91431 74.5293 6.97431 74.5293 7.05431" stroke="black" stroke-width="0.259408" stroke-linecap="round" stroke-linejoin="round"/>
<path opacity="0.5" d="M73.6328 13.3895C73.6328 13.4695 73.6928 13.5295 73.7528 13.5295" stroke="black" stroke-width="0.259408" stroke-linecap="round" stroke-linejoin="round"/>
<path opacity="0.5" d="M73.752 13.5295C73.822 13.5295 73.872 13.4695 73.872 13.3895" stroke="black" stroke-width="0.259408" stroke-linecap="round" stroke-linejoin="round"/>
<path opacity="0.5" d="M73.8817 13.3899C73.8817 13.3099 73.8217 13.2499 73.7617 13.2499" stroke="black" stroke-width="0.259408" stroke-linecap="round" stroke-linejoin="round"/>
<path opacity="0.5" d="M73.7528 13.2498C73.6828 13.2498 73.6328 13.3098 73.6328 13.3898" stroke="black" stroke-width="0.259408" stroke-linecap="round" stroke-linejoin="round"/>
<path opacity="0.5" d="M72.7344 7.05383C72.7344 7.13383 72.7944 7.19383 72.8544 7.19383" stroke="black" stroke-width="0.259408" stroke-linecap="round" stroke-linejoin="round"/>
<path opacity="0.5" d="M72.8535 7.19383C72.9235 7.19383 72.9735 7.13383 72.9735 7.05383" stroke="black" stroke-width="0.259408" stroke-linecap="round" stroke-linejoin="round"/>
<path opacity="0.5" d="M72.9833 7.05431C72.9833 6.97431 72.9233 6.91431 72.8633 6.91431" stroke="black" stroke-width="0.259408" stroke-linecap="round" stroke-linejoin="round"/>
<path opacity="0.5" d="M72.8544 6.91431C72.7844 6.91431 72.7344 6.97431 72.7344 7.05431" stroke="black" stroke-width="0.259408" stroke-linecap="round" stroke-linejoin="round"/>
<path opacity="0.5" d="M31.5196 6.70459H28.8457V13.6587H31.5196V6.70459Z" stroke="black" stroke-width="0.259408" stroke-linecap="round" stroke-linejoin="round"/>
<path opacity="0.5" d="M31.0403 7.48291H29.3242" stroke="black" stroke-width="0.259408" stroke-linecap="round" stroke-linejoin="round"/>
<path opacity="0.5" d="M29.324 7.48291C29.194 7.48291 29.084 7.60291 29.084 7.75291" stroke="black" stroke-width="0.259408" stroke-linecap="round" stroke-linejoin="round"/>
<path opacity="0.5" d="M29.0938 7.75232V12.8507" stroke="black" stroke-width="0.259408" stroke-linecap="round" stroke-linejoin="round"/>
<path opacity="0.5" d="M29.0938 12.8507C29.0938 13.0007 29.2037 13.1207 29.3337 13.1207" stroke="black" stroke-width="0.259408" stroke-linecap="round" stroke-linejoin="round"/>
<path opacity="0.5" d="M29.3242 13.1201H31.0403" stroke="black" stroke-width="0.259408" stroke-linecap="round" stroke-linejoin="round"/>
<path opacity="0.5" d="M31.0391 13.1207C31.1691 13.1207 31.2791 13.0007 31.2791 12.8507" stroke="black" stroke-width="0.259408" stroke-linecap="round" stroke-linejoin="round"/>
<path opacity="0.5" d="M31.2793 12.8507V7.75232" stroke="black" stroke-width="0.259408" stroke-linecap="round" stroke-linejoin="round"/>
<path opacity="0.5" d="M31.2791 7.75291C31.2791 7.60291 31.1691 7.48291 31.0391 7.48291" stroke="black" stroke-width="0.259408" stroke-linecap="round" stroke-linejoin="round"/>
<path opacity="0.5" d="M31.2788 11.5038H29.0938" stroke="black" stroke-width="0.259408" stroke-linecap="round" stroke-linejoin="round"/>
<path opacity="0.5" d="M30.959 7.05383C30.959 7.13383 31.019 7.19383 31.079 7.19383" stroke="black" stroke-width="0.259408" stroke-linecap="round" stroke-linejoin="round"/>
<path opacity="0.5" d="M31.0781 7.19383C31.1481 7.19383 31.1981 7.13383 31.1981 7.05383" stroke="black" stroke-width="0.259408" stroke-linecap="round" stroke-linejoin="round"/>
<path opacity="0.5" d="M31.1981 7.05431C31.1981 6.97431 31.1381 6.91431 31.0781 6.91431" stroke="black" stroke-width="0.259408" stroke-linecap="round" stroke-linejoin="round"/>
<path opacity="0.5" d="M31.079 6.91431C31.009 6.91431 30.959 6.97431 30.959 7.05431" stroke="black" stroke-width="0.259408" stroke-linecap="round" stroke-linejoin="round"/>
<path opacity="0.5" d="M30.0625 13.3895C30.0625 13.4695 30.1225 13.5295 30.1825 13.5295" stroke="black" stroke-width="0.259408" stroke-linecap="round" stroke-linejoin="round"/>
<path opacity="0.5" d="M30.1816 13.5295C30.2516 13.5295 30.3016 13.4695 30.3016 13.3895" stroke="black" stroke-width="0.259408" stroke-linecap="round" stroke-linejoin="round"/>
<path opacity="0.5" d="M30.3095 13.3899C30.3095 13.3099 30.2495 13.2499 30.1895 13.2499" stroke="black" stroke-width="0.259408" stroke-linecap="round" stroke-linejoin="round"/>
<path opacity="0.5" d="M30.1825 13.2498C30.1125 13.2498 30.0625 13.3098 30.0625 13.3898" stroke="black" stroke-width="0.259408" stroke-linecap="round" stroke-linejoin="round"/>
<path opacity="0.5" d="M29.1641 7.05383C29.1641 7.13383 29.2241 7.19383 29.2841 7.19383" stroke="black" stroke-width="0.259408" stroke-linecap="round" stroke-linejoin="round"/>
<path opacity="0.5" d="M29.2832 7.19383C29.3532 7.19383 29.4032 7.13383 29.4032 7.05383" stroke="black" stroke-width="0.259408" stroke-linecap="round" stroke-linejoin="round"/>
<path opacity="0.5" d="M29.413 7.05431C29.413 6.97431 29.353 6.91431 29.293 6.91431" stroke="black" stroke-width="0.259408" stroke-linecap="round" stroke-linejoin="round"/>
<path opacity="0.5" d="M29.2841 6.91431C29.2141 6.91431 29.1641 6.97431 29.1641 7.05431" stroke="black" stroke-width="0.259408" stroke-linecap="round" stroke-linejoin="round"/>
<path opacity="0.5" d="M7.03511 0.129639H0.130859V4.75908H7.03511V0.129639Z" stroke="black" stroke-width="0.259408" stroke-linecap="round" stroke-linejoin="round"/>
<path opacity="0.5" d="M4.63812 3.43216V1.37684C4.11931 0.907914 3.33111 0.907914 2.82227 1.37684V3.43216C3.34108 3.90109 4.12928 3.90109 4.63812 3.43216Z" stroke="black" stroke-width="0.259408" stroke-linecap="round" stroke-linejoin="round"/>
<path opacity="0.5" d="M7.03511 109.171H0.130859V113.801H7.03511V109.171Z" stroke="black" stroke-width="0.259408" stroke-linecap="round" stroke-linejoin="round"/>
<path opacity="0.5" d="M4.63812 112.473V110.418C4.11931 109.949 3.33111 109.949 2.82227 110.418V112.473C3.34108 112.942 4.12928 112.942 4.63812 112.473Z" stroke="black" stroke-width="0.259408" stroke-linecap="round" stroke-linejoin="round"/>
</g>
<defs>
<clipPath id="clip0_592_10500">
<rect width="238.057" height="114" fill="white"/>
</clipPath>
</defs>
</svg>
