<svg width="239" height="114" viewBox="0 0 239 114" fill="none" xmlns="http://www.w3.org/2000/svg">
<g clip-path="url(#clip0_592_9965)">
<path opacity="0.5" d="M2.06643 8.66028H0.5V11.853H2.06643V8.66028Z" fill="white"/>
<path opacity="0.5" d="M2.01565 41.7947H0.449219V44.9874H2.01565V41.7947Z" fill="white"/>
<path opacity="0.5" d="M2.00588 69.0027H0.439453V72.1954H2.00588V69.0027Z" fill="white"/>
<path opacity="0.5" d="M1.97463 102.267H0.408203V105.46H1.97463V102.267Z" fill="white"/>
<path opacity="0.5" d="M18.5758 4.39001H15.832V107.575H18.5758V4.39001Z" fill="#E5E5E5"/>
<path opacity="0.5" d="M29.4723 4.39001H26.7285V107.575H29.4723V4.39001Z" fill="#E5E5E5"/>
<path opacity="0.5" d="M40.357 4.39001H37.6133V107.575H40.357V4.39001Z" fill="#E5E5E5"/>
<path opacity="0.5" d="M51.2535 4.39001H48.5098V107.575H51.2535V4.39001Z" fill="#E5E5E5"/>
<path opacity="0.5" d="M62.1461 4.39001H59.4023V107.575H62.1461V4.39001Z" fill="#E5E5E5"/>
<path opacity="0.5" d="M83.9391 4.39001H81.1953V107.575H83.9391V4.39001Z" fill="#E5E5E5"/>
<path opacity="0.5" d="M94.8238 4.39001H92.0801V107.575H94.8238V4.39001Z" fill="#E5E5E5"/>
<path opacity="0.5" d="M105.72 4.39001H102.977V107.575H105.72V4.39001Z" fill="#E5E5E5"/>
<path opacity="0.5" d="M116.614 4.39001H113.83V107.575H116.614V4.39001Z" fill="#E5E5E5"/>
<path opacity="0.5" d="M127.51 4.39001H124.727V107.575H127.51V4.39001Z" fill="#E5E5E5"/>
<path opacity="0.5" d="M138.403 4.39001H135.619V107.575H138.403V4.39001Z" fill="#E5E5E5"/>
<path opacity="0.5" d="M149.3 4.39001H146.557V107.575H149.3V4.39001Z" fill="#E5E5E5"/>
<path opacity="0.5" d="M160.184 4.39001H157.4V107.575H160.184V4.39001Z" fill="#E5E5E5"/>
<path opacity="0.5" d="M181.975 4.39001H179.191V107.575H181.975V4.39001Z" fill="#E5E5E5"/>
<path opacity="0.5" d="M192.871 4.39001H190.127V107.575H192.871V4.39001Z" fill="#E5E5E5"/>
<path opacity="0.5" d="M203.807 4.39001H201.023V107.575H203.807V4.39001Z" fill="#E5E5E5"/>
<path opacity="0.5" d="M214.69 4.39001H211.906V107.575H214.69V4.39001Z" fill="#E5E5E5"/>
<path opacity="0.5" d="M225.586 4.39001H222.803V107.575H225.586V4.39001Z" fill="#E5E5E5"/>
<path opacity="0.5" d="M7.08203 108.572H230.642V107.575H7.08203V109.361" stroke="black" stroke-width="0.259408" stroke-linecap="round" stroke-linejoin="round"/>
<path opacity="0.5" d="M7.07418 109.241H0.169922V113.87H7.07418V109.241Z" stroke="black" stroke-width="0.259408" stroke-linecap="round" stroke-linejoin="round"/>
<path opacity="0.5" d="M2.55469 112.543V110.488C3.0735 110.019 3.86171 110.019 4.37055 110.488V112.543C3.85173 113.012 3.06353 113.012 2.55469 112.543Z" stroke="black" stroke-width="0.259408" stroke-linecap="round" stroke-linejoin="round"/>
<path opacity="0.5" d="M7.11493 0.129639H0.130859V4.75908H7.11493V0.129639Z" stroke="black" stroke-width="0.259408" stroke-linecap="round" stroke-linejoin="round"/>
<path opacity="0.5" d="M2.54492 3.55182V1.50648C3.07372 1.03755 3.86192 1.03755 4.39071 1.50648V3.5618C3.86192 4.03073 3.07372 4.03073 2.54492 3.5618V3.55182Z" stroke="black" stroke-width="0.259408" stroke-linecap="round" stroke-linejoin="round"/>
<path opacity="0.5" d="M231.033 1.78598H11.5731L11.4235 1.776L11.2738 1.78598H7.11328" stroke="black" stroke-width="0.259408" stroke-linecap="round" stroke-linejoin="round"/>
<path opacity="0.5" d="M231.033 4.39001H7.11328" stroke="black" stroke-width="0.259408" stroke-linecap="round" stroke-linejoin="round"/>
<path opacity="0.5" d="M219.999 1.77591H219.161C219.101 1.77591 219.051 1.74597 219.021 1.69609L218.572 0.848022" stroke="black" stroke-width="0.259408" stroke-linecap="round" stroke-linejoin="round"/>
<path opacity="0.5" d="M218.572 0.838301C218.542 0.788301 218.492 0.758301 218.432 0.758301" stroke="black" stroke-width="0.259408" stroke-linecap="round" stroke-linejoin="round"/>
<path opacity="0.5" d="M218.431 0.758301H215.049" stroke="black" stroke-width="0.259408" stroke-linecap="round" stroke-linejoin="round"/>
<path opacity="0.5" d="M215.05 0.758301C214.99 0.758301 214.93 0.788301 214.91 0.838301" stroke="black" stroke-width="0.259408" stroke-linecap="round" stroke-linejoin="round"/>
<path opacity="0.5" d="M214.909 0.838135L214.47 1.6862C214.44 1.73609 214.391 1.76602 214.331 1.76602H212.645" stroke="black" stroke-width="0.259408" stroke-linecap="round" stroke-linejoin="round"/>
<path opacity="0.5" d="M212.646 1.77617C212.586 1.77617 212.536 1.74617 212.506 1.69617" stroke="black" stroke-width="0.259408" stroke-linecap="round" stroke-linejoin="round"/>
<path opacity="0.5" d="M212.496 1.69607L212.057 0.848006C212.027 0.79812 211.977 0.768188 211.917 0.768188H208.535" stroke="black" stroke-width="0.259408" stroke-linecap="round" stroke-linejoin="round"/>
<path opacity="0.5" d="M208.544 0.758301C208.484 0.758301 208.424 0.788301 208.404 0.838301" stroke="black" stroke-width="0.259408" stroke-linecap="round" stroke-linejoin="round"/>
<path opacity="0.5" d="M208.396 0.838135L207.957 1.6862C207.927 1.73609 207.877 1.776 207.817 1.76602H206.131" stroke="black" stroke-width="0.259408" stroke-linecap="round" stroke-linejoin="round"/>
<path opacity="0.5" d="M206.132 1.77617C206.072 1.77617 206.012 1.74617 205.992 1.69617" stroke="black" stroke-width="0.259408" stroke-linecap="round" stroke-linejoin="round"/>
<path opacity="0.5" d="M205.99 1.69619L205.551 0.848129C205.522 0.798242 205.472 0.768311 205.412 0.768311H202.03C201.97 0.768311 201.92 0.798242 201.89 0.848129L201.451 1.69619C201.421 1.74608 201.371 1.77601 201.311 1.77601H199.625" stroke="black" stroke-width="0.259408" stroke-linecap="round" stroke-linejoin="round"/>
<path opacity="0.5" d="M199.615 1.77604C199.555 1.77604 199.495 1.74604 199.475 1.69604" stroke="black" stroke-width="0.259408" stroke-linecap="round" stroke-linejoin="round"/>
<path opacity="0.5" d="M199.476 1.69619L199.037 0.848129C199.007 0.798242 198.957 0.768311 198.897 0.768311H195.515C195.455 0.768311 195.405 0.798242 195.375 0.848129L194.936 1.69619C194.906 1.74608 194.856 1.78599 194.796 1.77601H193.1C193.04 1.77601 192.99 1.74608 192.96 1.69619L192.521 0.848129C192.492 0.798242 192.442 0.768311 192.382 0.768311H189C188.94 0.768311 188.89 0.798242 188.86 0.848129L188.421 1.69619C188.391 1.74608 188.341 1.78599 188.281 1.77601H186.585C186.525 1.77601 186.475 1.74608 186.445 1.69619L186.006 0.848129C185.976 0.798242 185.927 0.768311 185.867 0.768311H182.484" stroke="black" stroke-width="0.259408" stroke-linecap="round" stroke-linejoin="round"/>
<path opacity="0.5" d="M182.484 0.758301C182.424 0.758301 182.374 0.788301 182.344 0.838301" stroke="black" stroke-width="0.259408" stroke-linecap="round" stroke-linejoin="round"/>
<path opacity="0.5" d="M182.343 0.838119L181.904 1.68618C181.874 1.73607 181.824 1.766 181.764 1.766H180.068C180.008 1.766 179.958 1.73607 179.928 1.68618L179.489 0.838119C179.459 0.788232 179.41 0.758301 179.35 0.758301H175.967C175.907 0.758301 175.858 0.788232 175.828 0.838119L175.389 1.68618" stroke="black" stroke-width="0.259408" stroke-linecap="round" stroke-linejoin="round"/>
<path opacity="0.5" d="M175.392 1.69617C175.362 1.74617 175.312 1.77617 175.252 1.77617" stroke="black" stroke-width="0.259408" stroke-linecap="round" stroke-linejoin="round"/>
<path opacity="0.5" d="M175.25 1.77589H173.564C173.504 1.77589 173.454 1.74596 173.424 1.69607L172.985 0.848006C172.955 0.79812 172.906 0.768188 172.846 0.768188H169.463C169.404 0.768188 169.354 0.79812 169.324 0.848006L168.885 1.69607" stroke="black" stroke-width="0.259408" stroke-linecap="round" stroke-linejoin="round"/>
<path opacity="0.5" d="M168.874 1.69604C168.844 1.74604 168.794 1.77604 168.734 1.77604" stroke="black" stroke-width="0.259408" stroke-linecap="round" stroke-linejoin="round"/>
<path opacity="0.5" d="M168.734 1.77591H167.047C166.988 1.77591 166.938 1.74597 166.908 1.69609L166.469 0.848022" stroke="black" stroke-width="0.259408" stroke-linecap="round" stroke-linejoin="round"/>
<path opacity="0.5" d="M166.46 0.838301C166.43 0.788301 166.38 0.758301 166.32 0.758301" stroke="black" stroke-width="0.259408" stroke-linecap="round" stroke-linejoin="round"/>
<path opacity="0.5" d="M166.322 0.758301H162.94C162.88 0.758301 162.83 0.788232 162.8 0.838119L162.361 1.68618" stroke="black" stroke-width="0.259408" stroke-linecap="round" stroke-linejoin="round"/>
<path opacity="0.5" d="M162.359 1.69617C162.329 1.74617 162.279 1.77617 162.219 1.77617" stroke="black" stroke-width="0.259408" stroke-linecap="round" stroke-linejoin="round"/>
<path opacity="0.5" d="M162.22 1.77591H160.534C160.474 1.77591 160.424 1.74597 160.394 1.69609L159.955 0.848022" stroke="black" stroke-width="0.259408" stroke-linecap="round" stroke-linejoin="round"/>
<path opacity="0.5" d="M159.956 0.838301C159.926 0.788301 159.876 0.758301 159.816 0.758301" stroke="black" stroke-width="0.259408" stroke-linecap="round" stroke-linejoin="round"/>
<path opacity="0.5" d="M159.805 0.758301H156.423C156.363 0.758301 156.313 0.788232 156.283 0.838119L155.834 1.68618C155.804 1.73607 155.754 1.77598 155.695 1.766H154.008C153.949 1.766 153.899 1.73607 153.869 1.68618L153.43 0.838119" stroke="black" stroke-width="0.259408" stroke-linecap="round" stroke-linejoin="round"/>
<path opacity="0.5" d="M153.441 0.838301C153.411 0.788301 153.361 0.758301 153.301 0.758301" stroke="black" stroke-width="0.259408" stroke-linecap="round" stroke-linejoin="round"/>
<path opacity="0.5" d="M153.29 0.758301H149.908C149.848 0.758301 149.798 0.788232 149.768 0.838119L149.319 1.68618C149.289 1.73607 149.239 1.766 149.18 1.766H147.493C147.434 1.766 147.384 1.73607 147.354 1.68618L146.905 0.838119C146.875 0.788232 146.825 0.758301 146.765 0.758301H143.383" stroke="black" stroke-width="0.259408" stroke-linecap="round" stroke-linejoin="round"/>
<path opacity="0.5" d="M143.402 0.758301C143.342 0.758301 143.282 0.788301 143.262 0.838301" stroke="black" stroke-width="0.259408" stroke-linecap="round" stroke-linejoin="round"/>
<path opacity="0.5" d="M143.262 0.838119L142.823 1.68618C142.793 1.73607 142.743 1.766 142.683 1.766H140.997C140.937 1.766 140.888 1.73607 140.858 1.68618L140.409 0.838119C140.379 0.788232 140.329 0.758301 140.269 0.758301H136.887" stroke="black" stroke-width="0.259408" stroke-linecap="round" stroke-linejoin="round"/>
<path opacity="0.5" d="M136.89 0.758301C136.83 0.758301 136.77 0.788301 136.75 0.838301" stroke="black" stroke-width="0.259408" stroke-linecap="round" stroke-linejoin="round"/>
<path opacity="0.5" d="M136.747 0.838013L136.308 1.68608C136.278 1.73596 136.228 1.77587 136.169 1.7659H134.482" stroke="black" stroke-width="0.259408" stroke-linecap="round" stroke-linejoin="round"/>
<path opacity="0.5" d="M134.474 1.77617C134.414 1.77617 134.354 1.74617 134.334 1.69617" stroke="black" stroke-width="0.259408" stroke-linecap="round" stroke-linejoin="round"/>
<path opacity="0.5" d="M134.334 1.69607L133.895 0.848006C133.865 0.79812 133.815 0.768188 133.755 0.768188H130.373" stroke="black" stroke-width="0.259408" stroke-linecap="round" stroke-linejoin="round"/>
<path opacity="0.5" d="M130.372 0.758301C130.312 0.758301 130.252 0.788301 130.232 0.838301" stroke="black" stroke-width="0.259408" stroke-linecap="round" stroke-linejoin="round"/>
<path opacity="0.5" d="M130.232 0.838135L129.793 1.6862C129.763 1.73609 129.713 1.76602 129.653 1.76602H127.967" stroke="black" stroke-width="0.259408" stroke-linecap="round" stroke-linejoin="round"/>
<path opacity="0.5" d="M127.966 1.77617C127.906 1.77617 127.846 1.74617 127.826 1.69617" stroke="black" stroke-width="0.259408" stroke-linecap="round" stroke-linejoin="round"/>
<path opacity="0.5" d="M127.819 1.69607L127.38 0.848006C127.35 0.79812 127.3 0.768188 127.24 0.768188H123.858C123.798 0.768188 123.748 0.79812 123.718 0.848006L123.279 1.69607C123.249 1.74596 123.199 1.77589 123.139 1.77589H121.453" stroke="black" stroke-width="0.259408" stroke-linecap="round" stroke-linejoin="round"/>
<path opacity="0.5" d="M121.454 1.77617C121.394 1.77617 121.334 1.74617 121.314 1.69617" stroke="black" stroke-width="0.259408" stroke-linecap="round" stroke-linejoin="round"/>
<path opacity="0.5" d="M121.304 1.69607L120.865 0.848006C120.835 0.79812 120.785 0.768188 120.725 0.768188H117.343C117.283 0.768188 117.233 0.79812 117.203 0.848006L116.764 1.69607C116.734 1.74596 116.684 1.77589 116.624 1.77589H114.928C114.868 1.77589 114.819 1.74596 114.789 1.69607L114.35 0.848006C114.32 0.79812 114.27 0.768188 114.21 0.768188H110.828C110.768 0.768188 110.718 0.79812 110.688 0.848006L110.249 1.69607C110.219 1.74596 110.169 1.77589 110.109 1.77589H108.413C108.353 1.77589 108.303 1.74596 108.274 1.69607L107.835 0.848006C107.805 0.79812 107.755 0.768188 107.695 0.768188H104.313C104.253 0.768188 104.203 0.79812 104.173 0.848006L103.734 1.69607C103.704 1.74596 103.654 1.77589 103.594 1.77589H101.898C101.838 1.77589 101.788 1.74596 101.758 1.69607L101.319 0.848006C101.289 0.79812 101.24 0.768188 101.18 0.768188H97.7974C97.7376 0.768188 97.6877 0.79812 97.6577 0.848006L97.2188 1.69607" stroke="black" stroke-width="0.259408" stroke-linecap="round" stroke-linejoin="round"/>
<path opacity="0.5" d="M97.2279 1.69617C97.1979 1.74617 97.1479 1.77617 97.0879 1.77617" stroke="black" stroke-width="0.259408" stroke-linecap="round" stroke-linejoin="round"/>
<path opacity="0.5" d="M97.0784 1.77601H95.3922C95.3324 1.77601 95.2825 1.74608 95.2525 1.69619L94.8135 0.848129C94.7836 0.798242 94.7337 0.768311 94.6739 0.768311H91.2916C91.2317 0.768311 91.1818 0.798242 91.1519 0.848129L90.7129 1.69619" stroke="black" stroke-width="0.259408" stroke-linecap="round" stroke-linejoin="round"/>
<path opacity="0.5" d="M90.7123 1.69617C90.6823 1.74617 90.6323 1.77617 90.5723 1.77617" stroke="black" stroke-width="0.259408" stroke-linecap="round" stroke-linejoin="round"/>
<path opacity="0.5" d="M90.5734 1.77591H88.8873C88.8274 1.77591 88.7775 1.74597 88.7476 1.69609L88.3086 0.848022" stroke="black" stroke-width="0.259408" stroke-linecap="round" stroke-linejoin="round"/>
<path opacity="0.5" d="M88.2982 0.838301C88.2682 0.788301 88.2182 0.758301 88.1582 0.758301" stroke="black" stroke-width="0.259408" stroke-linecap="round" stroke-linejoin="round"/>
<path opacity="0.5" d="M88.1582 0.758301H84.7759C84.7161 0.758301 84.6662 0.788232 84.6363 0.838119L84.1973 1.68618" stroke="black" stroke-width="0.259408" stroke-linecap="round" stroke-linejoin="round"/>
<path opacity="0.5" d="M84.1986 1.69617C84.1686 1.74617 84.1186 1.77617 84.0586 1.77617" stroke="black" stroke-width="0.259408" stroke-linecap="round" stroke-linejoin="round"/>
<path opacity="0.5" d="M84.0598 1.77591H82.3736C82.3137 1.77591 82.2638 1.74597 82.2339 1.69609L81.7949 0.848022" stroke="black" stroke-width="0.259408" stroke-linecap="round" stroke-linejoin="round"/>
<path opacity="0.5" d="M81.7826 0.838301C81.7526 0.788301 81.7026 0.758301 81.6426 0.758301" stroke="black" stroke-width="0.259408" stroke-linecap="round" stroke-linejoin="round"/>
<path opacity="0.5" d="M81.643 0.758301H78.2608C78.2009 0.758301 78.151 0.788232 78.1211 0.838119L77.6721 1.68618C77.6422 1.73607 77.5923 1.77598 77.5324 1.766H75.8463C75.7864 1.766 75.7365 1.73607 75.7066 1.68618L75.2676 0.838119" stroke="black" stroke-width="0.259408" stroke-linecap="round" stroke-linejoin="round"/>
<path opacity="0.5" d="M75.2806 0.838301C75.2506 0.788301 75.2006 0.758301 75.1406 0.758301" stroke="black" stroke-width="0.259408" stroke-linecap="round" stroke-linejoin="round"/>
<path opacity="0.5" d="M75.1281 0.758301H71.7458C71.686 0.758301 71.6361 0.788232 71.6061 0.838119L71.1572 1.68618C71.1272 1.73607 71.0773 1.766 71.0175 1.766H69.3313C69.2715 1.766 69.2216 1.73607 69.1916 1.68618L68.7427 0.838119C68.7127 0.788232 68.6629 0.758301 68.603 0.758301H65.2207" stroke="black" stroke-width="0.259408" stroke-linecap="round" stroke-linejoin="round"/>
<path opacity="0.5" d="M65.2416 0.758301C65.1816 0.758301 65.1216 0.788301 65.1016 0.838301" stroke="black" stroke-width="0.259408" stroke-linecap="round" stroke-linejoin="round"/>
<path opacity="0.5" d="M65.091 0.838135L64.652 1.6862C64.6221 1.73609 64.5722 1.76602 64.5123 1.76602H62.8262" stroke="black" stroke-width="0.259408" stroke-linecap="round" stroke-linejoin="round"/>
<path opacity="0.5" d="M62.8275 1.77617C62.7675 1.77617 62.7175 1.74617 62.6875 1.69617" stroke="black" stroke-width="0.259408" stroke-linecap="round" stroke-linejoin="round"/>
<path opacity="0.5" d="M62.6875 1.69607L62.2485 0.848006C62.2186 0.79812 62.1687 0.768188 62.1088 0.768188H58.7266" stroke="black" stroke-width="0.259408" stroke-linecap="round" stroke-linejoin="round"/>
<path opacity="0.5" d="M58.7259 0.758301C58.6659 0.758301 58.6059 0.788301 58.5859 0.838301" stroke="black" stroke-width="0.259408" stroke-linecap="round" stroke-linejoin="round"/>
<path opacity="0.5" d="M58.5851 0.838135L58.1461 1.6862C58.1162 1.73609 58.0663 1.776 58.0065 1.76602H56.3203" stroke="black" stroke-width="0.259408" stroke-linecap="round" stroke-linejoin="round"/>
<path opacity="0.5" d="M56.3138 1.77617C56.2538 1.77617 56.1938 1.74617 56.1738 1.69617" stroke="black" stroke-width="0.259408" stroke-linecap="round" stroke-linejoin="round"/>
<path opacity="0.5" d="M56.1719 1.69619L55.7329 0.848129C55.703 0.798242 55.6531 0.768311 55.5932 0.768311H52.2109" stroke="black" stroke-width="0.259408" stroke-linecap="round" stroke-linejoin="round"/>
<path opacity="0.5" d="M52.2103 0.758301C52.1503 0.758301 52.0903 0.788301 52.0703 0.838301" stroke="black" stroke-width="0.259408" stroke-linecap="round" stroke-linejoin="round"/>
<path opacity="0.5" d="M52.0715 0.838135L51.6325 1.6862C51.6025 1.73609 51.5527 1.776 51.4928 1.76602H49.8066" stroke="black" stroke-width="0.259408" stroke-linecap="round" stroke-linejoin="round"/>
<path opacity="0.5" d="M49.7962 1.77604C49.7362 1.77604 49.6762 1.74604 49.6562 1.69604" stroke="black" stroke-width="0.259408" stroke-linecap="round" stroke-linejoin="round"/>
<path opacity="0.5" d="M49.6573 1.69607L49.2183 0.848006C49.1884 0.79812 49.1385 0.768188 49.0787 0.768188H45.6964C45.6365 0.768188 45.5866 0.79812 45.5567 0.848006L45.1177 1.69607C45.0878 1.74596 45.0379 1.77589 44.978 1.77589H43.2819C43.222 1.77589 43.1721 1.74596 43.1422 1.69607L42.7032 0.848006C42.6733 0.79812 42.6234 0.768188 42.5635 0.768188H39.1812C39.1214 0.768188 39.0715 0.79812 39.0415 0.848006L38.6025 1.69607C38.5726 1.74596 38.5227 1.77589 38.4629 1.77589H36.7667C36.7069 1.77589 36.657 1.74596 36.6271 1.69607L36.1881 0.848006C36.1581 0.79812 36.1082 0.768188 36.0484 0.768188H32.6661C32.6062 0.768188 32.5563 0.79812 32.5264 0.848006L32.0874 1.69607C32.0575 1.74596 32.0076 1.77589 31.9477 1.77589H30.2516C30.1917 1.77589 30.1418 1.74596 30.1119 1.69607L29.6729 0.848006C29.643 0.79812 29.5931 0.768188 29.5332 0.768188H26.1509C26.0911 0.768188 26.0412 0.79812 26.0113 0.848006L25.5723 1.69607" stroke="black" stroke-width="0.259408" stroke-linecap="round" stroke-linejoin="round"/>
<path opacity="0.5" d="M25.5736 1.69617C25.5436 1.74617 25.4936 1.77617 25.4336 1.77617" stroke="black" stroke-width="0.259408" stroke-linecap="round" stroke-linejoin="round"/>
<path opacity="0.5" d="M25.4299 1.77589H23.7438C23.6839 1.77589 23.634 1.74596 23.6041 1.69607L23.1651 0.848006C23.1352 0.79812 23.0853 0.768188 23.0254 0.768188H19.6431C19.5833 0.768188 19.5334 0.79812 19.5035 0.848006L19.0645 1.69607" stroke="black" stroke-width="0.259408" stroke-linecap="round" stroke-linejoin="round"/>
<path opacity="0.5" d="M19.058 1.69604C19.028 1.74604 18.978 1.77604 18.918 1.77604" stroke="black" stroke-width="0.259408" stroke-linecap="round" stroke-linejoin="round"/>
<path opacity="0.5" d="M18.9182 1.77584H17.2321C17.1722 1.77584 17.1223 1.74591 17.0924 1.69602L16.6534 0.847959C16.6235 0.798072 16.5736 0.758163 16.5137 0.768141H13.1314C13.0716 0.768141 13.0217 0.798072 12.9917 0.847959L12.5527 1.69602" stroke="black" stroke-width="0.259408" stroke-linecap="round" stroke-linejoin="round"/>
<path opacity="0.5" d="M12.5502 1.69617C12.5202 1.74617 12.4702 1.77617 12.4102 1.77617" stroke="black" stroke-width="0.259408" stroke-linecap="round" stroke-linejoin="round"/>
<path opacity="0.5" d="M12.4025 1.776H11.5645" stroke="black" stroke-width="0.259408" stroke-linecap="round" stroke-linejoin="round"/>
<path opacity="0.5" d="M9.20112 107.575L9.11133 4.39001" stroke="black" stroke-width="0.259408" stroke-linecap="round" stroke-linejoin="round"/>
<path opacity="0.5" d="M237.766 4.75916H230.643V109.171H237.766V4.75916Z" stroke="#090A06" stroke-width="0.259408" stroke-linecap="round" stroke-linejoin="round"/>
<path opacity="0.5" d="M0.398438 4.75916V109.241" stroke="#07070A" stroke-width="0.259408" stroke-linecap="round" stroke-linejoin="round"/>
<path opacity="0.5" d="M7.07227 113.461H231.031" stroke="black" stroke-width="0.259408" stroke-linecap="round" stroke-linejoin="round"/>
<path opacity="0.5" d="M2.06643 8.66028H0.5V11.853H2.06643V8.66028Z" stroke="black" stroke-width="0.259408" stroke-linecap="round" stroke-linejoin="round"/>
<path opacity="0.5" d="M1.27539 11.853V8.66028" stroke="black" stroke-width="0.259408" stroke-linecap="round" stroke-linejoin="round"/>
<path opacity="0.5" d="M2.01565 41.7947H0.449219V44.9874H2.01565V41.7947Z" stroke="black" stroke-width="0.259408" stroke-linecap="round" stroke-linejoin="round"/>
<path opacity="0.5" d="M1.23633 41.7947V44.9974" stroke="black" stroke-width="0.259408" stroke-linecap="round" stroke-linejoin="round"/>
<path opacity="0.5" d="M2.00588 69.0027H0.439453V72.1954H2.00588V69.0027Z" stroke="black" stroke-width="0.259408" stroke-linecap="round" stroke-linejoin="round"/>
<path opacity="0.5" d="M1.22677 69.0027L1.2168 72.2054" stroke="black" stroke-width="0.259408" stroke-linecap="round" stroke-linejoin="round"/>
<path opacity="0.5" d="M1.97463 102.267H0.408203V105.46H1.97463V102.267Z" stroke="black" stroke-width="0.259408" stroke-linecap="round" stroke-linejoin="round"/>
<path opacity="0.5" d="M1.18555 102.257V105.459" stroke="black" stroke-width="0.259408" stroke-linecap="round" stroke-linejoin="round"/>
<path opacity="0.5" d="M21.2812 107.525V4.39001" stroke="black" stroke-width="0.259408" stroke-linecap="round" stroke-linejoin="round"/>
<path opacity="0.5" d="M24.1055 107.525V4.39001" stroke="black" stroke-width="0.259408" stroke-linecap="round" stroke-linejoin="round"/>
<path opacity="0.5" d="M32.168 107.525V4.39001" stroke="black" stroke-width="0.259408" stroke-linecap="round" stroke-linejoin="round"/>
<path opacity="0.5" d="M35 107.525V4.39001" stroke="black" stroke-width="0.259408" stroke-linecap="round" stroke-linejoin="round"/>
<path opacity="0.5" d="M43.0605 107.525V4.39001" stroke="black" stroke-width="0.259408" stroke-linecap="round" stroke-linejoin="round"/>
<path opacity="0.5" d="M45.8965 107.525V4.39001" stroke="black" stroke-width="0.259408" stroke-linecap="round" stroke-linejoin="round"/>
<path opacity="0.5" d="M53.957 107.525V4.39001" stroke="black" stroke-width="0.259408" stroke-linecap="round" stroke-linejoin="round"/>
<path opacity="0.5" d="M56.7793 107.525V4.39001" stroke="black" stroke-width="0.259408" stroke-linecap="round" stroke-linejoin="round"/>
<path opacity="0.5" d="M64.8535 107.525V4.39001" stroke="black" stroke-width="0.259408" stroke-linecap="round" stroke-linejoin="round"/>
<path opacity="0.5" d="M67.6758 107.525V4.39001" stroke="black" stroke-width="0.259408" stroke-linecap="round" stroke-linejoin="round"/>
<path opacity="0.5" d="M75.7461 107.525V4.39001" stroke="black" stroke-width="0.259408" stroke-linecap="round" stroke-linejoin="round"/>
<path opacity="0.5" d="M78.5703 107.525V4.39001" stroke="black" stroke-width="0.259408" stroke-linecap="round" stroke-linejoin="round"/>
<path opacity="0.5" d="M86.6426 107.525V4.39001" stroke="black" stroke-width="0.259408" stroke-linecap="round" stroke-linejoin="round"/>
<path opacity="0.5" d="M89.4648 107.525V4.39001" stroke="black" stroke-width="0.259408" stroke-linecap="round" stroke-linejoin="round"/>
<path opacity="0.5" d="M97.5273 107.525V4.39001" stroke="black" stroke-width="0.259408" stroke-linecap="round" stroke-linejoin="round"/>
<path opacity="0.5" d="M100.361 107.525V4.39001" stroke="black" stroke-width="0.259408" stroke-linecap="round" stroke-linejoin="round"/>
<path opacity="0.5" d="M108.424 107.525V4.39001" stroke="black" stroke-width="0.259408" stroke-linecap="round" stroke-linejoin="round"/>
<path opacity="0.5" d="M111.246 107.525V4.39001" stroke="black" stroke-width="0.259408" stroke-linecap="round" stroke-linejoin="round"/>
<path opacity="0.5" d="M119.316 107.525V4.39001" stroke="black" stroke-width="0.259408" stroke-linecap="round" stroke-linejoin="round"/>
<path opacity="0.5" d="M122.143 107.525V4.39001" stroke="black" stroke-width="0.259408" stroke-linecap="round" stroke-linejoin="round"/>
<path opacity="0.5" d="M130.213 107.525V4.39001" stroke="black" stroke-width="0.259408" stroke-linecap="round" stroke-linejoin="round"/>
<path opacity="0.5" d="M133.035 107.525V4.39001" stroke="black" stroke-width="0.259408" stroke-linecap="round" stroke-linejoin="round"/>
<path opacity="0.5" d="M141.107 107.525V4.39001" stroke="black" stroke-width="0.259408" stroke-linecap="round" stroke-linejoin="round"/>
<path opacity="0.5" d="M143.932 107.525V4.39001" stroke="black" stroke-width="0.259408" stroke-linecap="round" stroke-linejoin="round"/>
<path opacity="0.5" d="M151.992 107.525V4.39001" stroke="black" stroke-width="0.259408" stroke-linecap="round" stroke-linejoin="round"/>
<path opacity="0.5" d="M154.826 107.525V4.39001" stroke="black" stroke-width="0.259408" stroke-linecap="round" stroke-linejoin="round"/>
<path opacity="0.5" d="M162.889 107.525V4.39001" stroke="black" stroke-width="0.259408" stroke-linecap="round" stroke-linejoin="round"/>
<path opacity="0.5" d="M165.723 107.525V4.39001" stroke="black" stroke-width="0.259408" stroke-linecap="round" stroke-linejoin="round"/>
<path opacity="0.5" d="M173.783 107.525V4.39001" stroke="black" stroke-width="0.259408" stroke-linecap="round" stroke-linejoin="round"/>
<path opacity="0.5" d="M176.607 107.525V4.39001" stroke="black" stroke-width="0.259408" stroke-linecap="round" stroke-linejoin="round"/>
<path opacity="0.5" d="M184.68 107.525V4.39001" stroke="black" stroke-width="0.259408" stroke-linecap="round" stroke-linejoin="round"/>
<path opacity="0.5" d="M187.502 107.525V4.39001" stroke="black" stroke-width="0.259408" stroke-linecap="round" stroke-linejoin="round"/>
<path opacity="0.5" d="M195.572 107.525V4.39001" stroke="black" stroke-width="0.259408" stroke-linecap="round" stroke-linejoin="round"/>
<path opacity="0.5" d="M198.398 107.525V4.39001" stroke="black" stroke-width="0.259408" stroke-linecap="round" stroke-linejoin="round"/>
<path opacity="0.5" d="M206.459 107.525V4.39001" stroke="black" stroke-width="0.259408" stroke-linecap="round" stroke-linejoin="round"/>
<path opacity="0.5" d="M209.291 107.525V4.39001" stroke="black" stroke-width="0.259408" stroke-linecap="round" stroke-linejoin="round"/>
<path opacity="0.5" d="M217.354 107.525V4.39001" stroke="black" stroke-width="0.259408" stroke-linecap="round" stroke-linejoin="round"/>
<path opacity="0.5" d="M220.188 107.525V4.39001" stroke="black" stroke-width="0.259408" stroke-linecap="round" stroke-linejoin="round"/>
<path opacity="0.5" d="M228.25 107.525V4.39001" stroke="black" stroke-width="0.259408" stroke-linecap="round" stroke-linejoin="round"/>
<path opacity="0.5" d="M13.209 107.525V4.39001" stroke="black" stroke-width="0.259408" stroke-linecap="round" stroke-linejoin="round"/>
<path opacity="0.5" d="M10.5449 107.525V4.39001" stroke="black" stroke-width="0.259408" stroke-linecap="round" stroke-linejoin="round"/>
<path opacity="0.5" d="M18.5758 4.39001H15.832V107.575H18.5758V4.39001Z" stroke="black" stroke-width="0.259408" stroke-linecap="round" stroke-linejoin="round"/>
<path opacity="0.5" d="M29.4723 4.39001H26.7285V107.575H29.4723V4.39001Z" stroke="black" stroke-width="0.259408" stroke-linecap="round" stroke-linejoin="round"/>
<path opacity="0.5" d="M40.357 4.39001H37.6133V107.575H40.357V4.39001Z" stroke="black" stroke-width="0.259408" stroke-linecap="round" stroke-linejoin="round"/>
<path opacity="0.5" d="M51.2535 4.39001H48.5098V107.575H51.2535V4.39001Z" stroke="black" stroke-width="0.259408" stroke-linecap="round" stroke-linejoin="round"/>
<path opacity="0.5" d="M62.1461 4.39001H59.4023V107.575H62.1461V4.39001Z" stroke="black" stroke-width="0.259408" stroke-linecap="round" stroke-linejoin="round"/>
<path opacity="0.5" d="M83.9391 4.39001H81.1953V107.575H83.9391V4.39001Z" stroke="black" stroke-width="0.259408" stroke-linecap="round" stroke-linejoin="round"/>
<path opacity="0.5" d="M94.8238 4.39001H92.0801V107.575H94.8238V4.39001Z" stroke="black" stroke-width="0.259408" stroke-linecap="round" stroke-linejoin="round"/>
<path opacity="0.5" d="M105.72 4.39001H102.977V107.575H105.72V4.39001Z" stroke="black" stroke-width="0.259408" stroke-linecap="round" stroke-linejoin="round"/>
<path opacity="0.5" d="M116.614 4.39001H113.83V107.575H116.614V4.39001Z" stroke="black" stroke-width="0.259408" stroke-linecap="round" stroke-linejoin="round"/>
<path opacity="0.5" d="M127.51 4.39001H124.727V107.575H127.51V4.39001Z" stroke="black" stroke-width="0.259408" stroke-linecap="round" stroke-linejoin="round"/>
<path opacity="0.5" d="M138.403 4.39001H135.619V107.575H138.403V4.39001Z" stroke="black" stroke-width="0.259408" stroke-linecap="round" stroke-linejoin="round"/>
<path opacity="0.5" d="M149.3 4.39001H146.557V107.575H149.3V4.39001Z" stroke="black" stroke-width="0.259408" stroke-linecap="round" stroke-linejoin="round"/>
<path opacity="0.5" d="M160.184 4.39001H157.4V107.575H160.184V4.39001Z" stroke="black" stroke-width="0.259408" stroke-linecap="round" stroke-linejoin="round"/>
<path opacity="0.5" d="M181.975 4.39001H179.191V107.575H181.975V4.39001Z" stroke="black" stroke-width="0.259408" stroke-linecap="round" stroke-linejoin="round"/>
<path opacity="0.5" d="M192.871 4.39001H190.127V107.575H192.871V4.39001Z" stroke="black" stroke-width="0.259408" stroke-linecap="round" stroke-linejoin="round"/>
<path opacity="0.5" d="M203.807 4.39001H201.023V107.575H203.807V4.39001Z" stroke="black" stroke-width="0.259408" stroke-linecap="round" stroke-linejoin="round"/>
<path opacity="0.5" d="M214.69 4.39001H211.906V107.575H214.69V4.39001Z" stroke="black" stroke-width="0.259408" stroke-linecap="round" stroke-linejoin="round"/>
<path opacity="0.5" d="M225.586 4.39001H222.803V107.575H225.586V4.39001Z" stroke="black" stroke-width="0.259408" stroke-linecap="round" stroke-linejoin="round"/>
<path opacity="0.5" d="M165.882 113.461V109.69H151.744V113.461" stroke="black" stroke-width="0.259408" stroke-linecap="round" stroke-linejoin="round"/>
<path opacity="0.5" d="M71.3457 113.461V109.72H85.4835V113.461" stroke="black" stroke-width="0.259408" stroke-linecap="round" stroke-linejoin="round"/>
<path opacity="0.5" d="M165.621 6.70459H162.947V13.6587H165.621V6.70459Z" stroke="black" stroke-width="0.259408" stroke-linecap="round" stroke-linejoin="round"/>
<path opacity="0.5" d="M165.144 7.48291H163.428" stroke="black" stroke-width="0.259408" stroke-linecap="round" stroke-linejoin="round"/>
<path opacity="0.5" d="M163.429 7.48291C163.299 7.48291 163.189 7.60291 163.189 7.75291" stroke="black" stroke-width="0.259408" stroke-linecap="round" stroke-linejoin="round"/>
<path opacity="0.5" d="M163.199 7.75232V12.8507" stroke="black" stroke-width="0.259408" stroke-linecap="round" stroke-linejoin="round"/>
<path opacity="0.5" d="M163.199 12.8507C163.199 13.0007 163.309 13.1207 163.439 13.1207" stroke="black" stroke-width="0.259408" stroke-linecap="round" stroke-linejoin="round"/>
<path opacity="0.5" d="M163.428 13.1201H165.144" stroke="black" stroke-width="0.259408" stroke-linecap="round" stroke-linejoin="round"/>
<path opacity="0.5" d="M165.143 13.1207C165.273 13.1207 165.383 13.0007 165.383 12.8507" stroke="black" stroke-width="0.259408" stroke-linecap="round" stroke-linejoin="round"/>
<path opacity="0.5" d="M165.383 12.8507V7.75232" stroke="black" stroke-width="0.259408" stroke-linecap="round" stroke-linejoin="round"/>
<path opacity="0.5" d="M165.383 7.75291C165.383 7.60291 165.273 7.48291 165.143 7.48291" stroke="black" stroke-width="0.259408" stroke-linecap="round" stroke-linejoin="round"/>
<path opacity="0.5" d="M165.384 11.5038H163.199" stroke="black" stroke-width="0.259408" stroke-linecap="round" stroke-linejoin="round"/>
<path opacity="0.5" d="M165.055 7.05383C165.055 7.13383 165.115 7.19383 165.175 7.19383" stroke="black" stroke-width="0.259408" stroke-linecap="round" stroke-linejoin="round"/>
<path opacity="0.5" d="M165.184 7.19383C165.254 7.19383 165.304 7.13383 165.304 7.05383" stroke="black" stroke-width="0.259408" stroke-linecap="round" stroke-linejoin="round"/>
<path opacity="0.5" d="M165.304 7.05431C165.304 6.97431 165.244 6.91431 165.184 6.91431" stroke="black" stroke-width="0.259408" stroke-linecap="round" stroke-linejoin="round"/>
<path opacity="0.5" d="M165.182 6.91431C165.112 6.91431 165.062 6.97431 165.062 7.05431" stroke="black" stroke-width="0.259408" stroke-linecap="round" stroke-linejoin="round"/>
<path opacity="0.5" d="M164.166 13.3895C164.166 13.4695 164.226 13.5295 164.286 13.5295" stroke="black" stroke-width="0.259408" stroke-linecap="round" stroke-linejoin="round"/>
<path opacity="0.5" d="M164.285 13.5295C164.355 13.5295 164.405 13.4695 164.405 13.3895" stroke="black" stroke-width="0.259408" stroke-linecap="round" stroke-linejoin="round"/>
<path opacity="0.5" d="M164.415 13.3899C164.415 13.3099 164.355 13.2499 164.295 13.2499" stroke="black" stroke-width="0.259408" stroke-linecap="round" stroke-linejoin="round"/>
<path opacity="0.5" d="M164.286 13.2499C164.216 13.2499 164.166 13.3099 164.166 13.3899" stroke="black" stroke-width="0.259408" stroke-linecap="round" stroke-linejoin="round"/>
<path opacity="0.5" d="M163.27 7.05383C163.27 7.13383 163.33 7.19383 163.39 7.19383" stroke="black" stroke-width="0.259408" stroke-linecap="round" stroke-linejoin="round"/>
<path opacity="0.5" d="M163.387 7.19383C163.457 7.19383 163.507 7.13383 163.507 7.05383" stroke="black" stroke-width="0.259408" stroke-linecap="round" stroke-linejoin="round"/>
<path opacity="0.5" d="M163.516 7.05431C163.516 6.97431 163.456 6.91431 163.396 6.91431" stroke="black" stroke-width="0.259408" stroke-linecap="round" stroke-linejoin="round"/>
<path opacity="0.5" d="M163.39 6.91431C163.32 6.91431 163.27 6.97431 163.27 7.05431" stroke="black" stroke-width="0.259408" stroke-linecap="round" stroke-linejoin="round"/>
<path opacity="0.5" d="M209.193 6.70459H206.52V13.6587H209.193V6.70459Z" stroke="black" stroke-width="0.259408" stroke-linecap="round" stroke-linejoin="round"/>
<path opacity="0.5" d="M208.726 7.48291H207.01" stroke="black" stroke-width="0.259408" stroke-linecap="round" stroke-linejoin="round"/>
<path opacity="0.5" d="M207.008 7.48291C206.878 7.48291 206.768 7.60291 206.768 7.75291" stroke="black" stroke-width="0.259408" stroke-linecap="round" stroke-linejoin="round"/>
<path opacity="0.5" d="M206.768 7.75232V12.8507" stroke="black" stroke-width="0.259408" stroke-linecap="round" stroke-linejoin="round"/>
<path opacity="0.5" d="M206.768 12.8507C206.768 13.0007 206.878 13.1207 207.008 13.1207" stroke="black" stroke-width="0.259408" stroke-linecap="round" stroke-linejoin="round"/>
<path opacity="0.5" d="M207.01 13.1201H208.726" stroke="black" stroke-width="0.259408" stroke-linecap="round" stroke-linejoin="round"/>
<path opacity="0.5" d="M208.725 13.1207C208.855 13.1207 208.965 13.0007 208.965 12.8507" stroke="black" stroke-width="0.259408" stroke-linecap="round" stroke-linejoin="round"/>
<path opacity="0.5" d="M208.953 12.8507V7.75232" stroke="black" stroke-width="0.259408" stroke-linecap="round" stroke-linejoin="round"/>
<path opacity="0.5" d="M208.955 7.75291C208.955 7.60291 208.845 7.48291 208.715 7.48291" stroke="black" stroke-width="0.259408" stroke-linecap="round" stroke-linejoin="round"/>
<path opacity="0.5" d="M208.953 11.5038H206.768" stroke="black" stroke-width="0.259408" stroke-linecap="round" stroke-linejoin="round"/>
<path opacity="0.5" d="M208.635 7.05383C208.635 7.13383 208.695 7.19383 208.755 7.19383" stroke="black" stroke-width="0.259408" stroke-linecap="round" stroke-linejoin="round"/>
<path opacity="0.5" d="M208.754 7.19383C208.824 7.19383 208.874 7.13383 208.874 7.05383" stroke="black" stroke-width="0.259408" stroke-linecap="round" stroke-linejoin="round"/>
<path opacity="0.5" d="M208.874 7.05431C208.874 6.97431 208.814 6.91431 208.754 6.91431" stroke="black" stroke-width="0.259408" stroke-linecap="round" stroke-linejoin="round"/>
<path opacity="0.5" d="M208.755 6.91431C208.685 6.91431 208.635 6.97431 208.635 7.05431" stroke="black" stroke-width="0.259408" stroke-linecap="round" stroke-linejoin="round"/>
<path opacity="0.5" d="M207.738 13.3895C207.738 13.4695 207.798 13.5295 207.858 13.5295" stroke="black" stroke-width="0.259408" stroke-linecap="round" stroke-linejoin="round"/>
<path opacity="0.5" d="M207.867 13.5295C207.937 13.5295 207.987 13.4695 207.987 13.3895" stroke="black" stroke-width="0.259408" stroke-linecap="round" stroke-linejoin="round"/>
<path opacity="0.5" d="M207.987 13.3899C207.987 13.3099 207.927 13.2499 207.867 13.2499" stroke="black" stroke-width="0.259408" stroke-linecap="round" stroke-linejoin="round"/>
<path opacity="0.5" d="M207.868 13.2499C207.798 13.2499 207.748 13.3099 207.748 13.3899" stroke="black" stroke-width="0.259408" stroke-linecap="round" stroke-linejoin="round"/>
<path opacity="0.5" d="M206.84 7.05383C206.84 7.13383 206.9 7.19383 206.96 7.19383" stroke="black" stroke-width="0.259408" stroke-linecap="round" stroke-linejoin="round"/>
<path opacity="0.5" d="M206.959 7.19383C207.029 7.19383 207.079 7.13383 207.079 7.05383" stroke="black" stroke-width="0.259408" stroke-linecap="round" stroke-linejoin="round"/>
<path opacity="0.5" d="M207.089 7.05431C207.089 6.97431 207.029 6.91431 206.969 6.91431" stroke="black" stroke-width="0.259408" stroke-linecap="round" stroke-linejoin="round"/>
<path opacity="0.5" d="M206.96 6.91431C206.89 6.91431 206.84 6.97431 206.84 7.05431" stroke="black" stroke-width="0.259408" stroke-linecap="round" stroke-linejoin="round"/>
<path opacity="0.5" d="M78.4825 6.70459H75.8086V13.6587H78.4825V6.70459Z" stroke="black" stroke-width="0.259408" stroke-linecap="round" stroke-linejoin="round"/>
<path opacity="0.5" d="M78.0032 7.48291H76.2871" stroke="black" stroke-width="0.259408" stroke-linecap="round" stroke-linejoin="round"/>
<path opacity="0.5" d="M76.2869 7.48291C76.1569 7.48291 76.0469 7.60291 76.0469 7.75291" stroke="black" stroke-width="0.259408" stroke-linecap="round" stroke-linejoin="round"/>
<path opacity="0.5" d="M76.0469 7.75232V12.8507" stroke="black" stroke-width="0.259408" stroke-linecap="round" stroke-linejoin="round"/>
<path opacity="0.5" d="M76.0469 12.8507C76.0469 13.0007 76.1569 13.1207 76.2869 13.1207" stroke="black" stroke-width="0.259408" stroke-linecap="round" stroke-linejoin="round"/>
<path opacity="0.5" d="M76.2871 13.1201H78.0032" stroke="black" stroke-width="0.259408" stroke-linecap="round" stroke-linejoin="round"/>
<path opacity="0.5" d="M78.002 13.1207C78.132 13.1207 78.242 13.0007 78.242 12.8507" stroke="black" stroke-width="0.259408" stroke-linecap="round" stroke-linejoin="round"/>
<path opacity="0.5" d="M78.2402 12.8507V7.75232" stroke="black" stroke-width="0.259408" stroke-linecap="round" stroke-linejoin="round"/>
<path opacity="0.5" d="M78.242 7.75291C78.242 7.60291 78.132 7.48291 78.002 7.48291" stroke="black" stroke-width="0.259408" stroke-linecap="round" stroke-linejoin="round"/>
<path opacity="0.5" d="M78.2419 11.5038H76.0469" stroke="black" stroke-width="0.259408" stroke-linecap="round" stroke-linejoin="round"/>
<path opacity="0.5" d="M77.9121 7.05383C77.9121 7.13383 77.9721 7.19383 78.0321 7.19383" stroke="black" stroke-width="0.259408" stroke-linecap="round" stroke-linejoin="round"/>
<path opacity="0.5" d="M78.0332 7.19383C78.1032 7.19383 78.1532 7.13383 78.1532 7.05383" stroke="black" stroke-width="0.259408" stroke-linecap="round" stroke-linejoin="round"/>
<path opacity="0.5" d="M78.163 7.05431C78.163 6.97431 78.103 6.91431 78.043 6.91431" stroke="black" stroke-width="0.259408" stroke-linecap="round" stroke-linejoin="round"/>
<path opacity="0.5" d="M78.0321 6.91431C77.9621 6.91431 77.9121 6.97431 77.9121 7.05431" stroke="black" stroke-width="0.259408" stroke-linecap="round" stroke-linejoin="round"/>
<path opacity="0.5" d="M77.0137 13.3895C77.0137 13.4695 77.0737 13.5295 77.1337 13.5295" stroke="black" stroke-width="0.259408" stroke-linecap="round" stroke-linejoin="round"/>
<path opacity="0.5" d="M77.1445 13.5295C77.2145 13.5295 77.2645 13.4695 77.2645 13.3895" stroke="black" stroke-width="0.259408" stroke-linecap="round" stroke-linejoin="round"/>
<path opacity="0.5" d="M77.2645 13.3898C77.2645 13.3098 77.2045 13.2498 77.1445 13.2498" stroke="black" stroke-width="0.259408" stroke-linecap="round" stroke-linejoin="round"/>
<path opacity="0.5" d="M77.1434 13.2498C77.0734 13.2498 77.0234 13.3098 77.0234 13.3898" stroke="black" stroke-width="0.259408" stroke-linecap="round" stroke-linejoin="round"/>
<path opacity="0.5" d="M76.1152 7.05383C76.1152 7.13383 76.1752 7.19383 76.2352 7.19383" stroke="black" stroke-width="0.259408" stroke-linecap="round" stroke-linejoin="round"/>
<path opacity="0.5" d="M76.2461 7.19383C76.3161 7.19383 76.3661 7.13383 76.3661 7.05383" stroke="black" stroke-width="0.259408" stroke-linecap="round" stroke-linejoin="round"/>
<path opacity="0.5" d="M76.3661 7.05431C76.3661 6.97431 76.3061 6.91431 76.2461 6.91431" stroke="black" stroke-width="0.259408" stroke-linecap="round" stroke-linejoin="round"/>
<path opacity="0.5" d="M76.2469 6.91431C76.1769 6.91431 76.127 6.97431 76.127 7.05431" stroke="black" stroke-width="0.259408" stroke-linecap="round" stroke-linejoin="round"/>
<path opacity="0.5" d="M34.9122 6.70459H32.2383V13.6587H34.9122V6.70459Z" stroke="black" stroke-width="0.259408" stroke-linecap="round" stroke-linejoin="round"/>
<path opacity="0.5" d="M34.4309 7.48291H32.7148" stroke="black" stroke-width="0.259408" stroke-linecap="round" stroke-linejoin="round"/>
<path opacity="0.5" d="M32.7166 7.48291C32.5866 7.48291 32.4766 7.60291 32.4766 7.75291" stroke="black" stroke-width="0.259408" stroke-linecap="round" stroke-linejoin="round"/>
<path opacity="0.5" d="M32.4766 7.75232V12.8507" stroke="black" stroke-width="0.259408" stroke-linecap="round" stroke-linejoin="round"/>
<path opacity="0.5" d="M32.4766 12.8507C32.4766 13.0007 32.5866 13.1207 32.7166 13.1207" stroke="black" stroke-width="0.259408" stroke-linecap="round" stroke-linejoin="round"/>
<path opacity="0.5" d="M32.7148 13.1201H34.4309" stroke="black" stroke-width="0.259408" stroke-linecap="round" stroke-linejoin="round"/>
<path opacity="0.5" d="M34.4316 13.1207C34.5616 13.1207 34.6716 13.0007 34.6716 12.8507" stroke="black" stroke-width="0.259408" stroke-linecap="round" stroke-linejoin="round"/>
<path opacity="0.5" d="M34.6699 12.8507V7.75232" stroke="black" stroke-width="0.259408" stroke-linecap="round" stroke-linejoin="round"/>
<path opacity="0.5" d="M34.6716 7.75291C34.6716 7.60291 34.5616 7.48291 34.4316 7.48291" stroke="black" stroke-width="0.259408" stroke-linecap="round" stroke-linejoin="round"/>
<path opacity="0.5" d="M34.6716 11.5038H32.4766" stroke="black" stroke-width="0.259408" stroke-linecap="round" stroke-linejoin="round"/>
<path opacity="0.5" d="M34.3418 7.05383C34.3418 7.13383 34.4018 7.19383 34.4618 7.19383" stroke="black" stroke-width="0.259408" stroke-linecap="round" stroke-linejoin="round"/>
<path opacity="0.5" d="M34.4609 7.19383C34.5309 7.19383 34.5809 7.13383 34.5809 7.05383" stroke="black" stroke-width="0.259408" stroke-linecap="round" stroke-linejoin="round"/>
<path opacity="0.5" d="M34.5907 7.05431C34.5907 6.97431 34.5307 6.91431 34.4707 6.91431" stroke="black" stroke-width="0.259408" stroke-linecap="round" stroke-linejoin="round"/>
<path opacity="0.5" d="M34.4618 6.91431C34.3918 6.91431 34.3418 6.97431 34.3418 7.05431" stroke="black" stroke-width="0.259408" stroke-linecap="round" stroke-linejoin="round"/>
<path opacity="0.5" d="M33.4531 13.3895C33.4531 13.4695 33.5131 13.5295 33.5731 13.5295" stroke="black" stroke-width="0.259408" stroke-linecap="round" stroke-linejoin="round"/>
<path opacity="0.5" d="M33.5742 13.5295C33.6442 13.5295 33.6942 13.4695 33.6942 13.3895" stroke="black" stroke-width="0.259408" stroke-linecap="round" stroke-linejoin="round"/>
<path opacity="0.5" d="M33.6942 13.3899C33.6942 13.3099 33.6342 13.2499 33.5742 13.2499" stroke="black" stroke-width="0.259408" stroke-linecap="round" stroke-linejoin="round"/>
<path opacity="0.5" d="M33.5731 13.2498C33.5031 13.2498 33.4531 13.3098 33.4531 13.3898" stroke="black" stroke-width="0.259408" stroke-linecap="round" stroke-linejoin="round"/>
<path opacity="0.5" d="M32.5449 7.05383C32.5449 7.13383 32.6049 7.19383 32.6649 7.19383" stroke="black" stroke-width="0.259408" stroke-linecap="round" stroke-linejoin="round"/>
<path opacity="0.5" d="M32.6758 7.19383C32.7458 7.19383 32.7958 7.13383 32.7958 7.05383" stroke="black" stroke-width="0.259408" stroke-linecap="round" stroke-linejoin="round"/>
<path opacity="0.5" d="M32.7958 7.05431C32.7958 6.97431 32.7358 6.91431 32.6758 6.91431" stroke="black" stroke-width="0.259408" stroke-linecap="round" stroke-linejoin="round"/>
<path opacity="0.5" d="M32.6766 6.91431C32.6066 6.91431 32.5566 6.97431 32.5566 7.05431" stroke="black" stroke-width="0.259408" stroke-linecap="round" stroke-linejoin="round"/>
<path opacity="0.5" d="M237.937 0.129639H231.033V4.75908H237.937V0.129639Z" stroke="black" stroke-width="0.259408" stroke-linecap="round" stroke-linejoin="round"/>
<path opacity="0.5" d="M235.542 3.43216V1.37684C235.024 0.907914 234.235 0.907914 233.727 1.37684V3.43216C234.245 3.90109 235.034 3.90109 235.542 3.43216Z" stroke="black" stroke-width="0.259408" stroke-linecap="round" stroke-linejoin="round"/>
<path opacity="0.5" d="M237.937 109.171H231.033V113.801H237.937V109.171Z" stroke="black" stroke-width="0.259408" stroke-linecap="round" stroke-linejoin="round"/>
<path opacity="0.5" d="M235.542 112.474V110.418C235.024 109.949 234.235 109.949 233.727 110.418V112.474C234.245 112.942 235.034 112.942 235.542 112.474Z" stroke="black" stroke-width="0.259408" stroke-linecap="round" stroke-linejoin="round"/>
<path opacity="0.5" d="M73.0445 4.39001H70.3008V107.575H73.0445V4.39001Z" fill="#E5E5E5"/>
<path opacity="0.5" d="M73.0445 4.39001H70.3008V107.575H73.0445V4.39001Z" stroke="black" stroke-width="0.259408" stroke-linecap="round" stroke-linejoin="round"/>
<path opacity="0.5" d="M171.081 4.39001H168.297V107.575H171.081V4.39001Z" fill="#E5E5E5"/>
<path opacity="0.5" d="M171.081 4.39001H168.297V107.575H171.081V4.39001Z" stroke="black" stroke-width="0.259408" stroke-linecap="round" stroke-linejoin="round"/>
</g>
<defs>
<clipPath id="clip0_592_9965">
<rect width="238.057" height="114" fill="white"/>
</clipPath>
</defs>
</svg>
