<svg width="52" height="28" viewBox="0 0 52 28" fill="none" xmlns="http://www.w3.org/2000/svg">
<g clip-path="url(#clip0_1314_1254)">
<path d="M51.61 27.61L51.61 0L0.00998688 -2.25551e-06L0.00998567 27.61L51.61 27.61Z" fill="white"/>
<path d="M51.03 0.129883L51.48 0.129883" stroke="#010101" stroke-width="0.25" stroke-linecap="round" stroke-linejoin="round"/>
<path d="M49.44 25.0098C49.44 25.0098 49.44 25.0098 49.45 25.0098" stroke="#010101" stroke-width="0.25" stroke-linecap="round" stroke-linejoin="round"/>
<path d="M49.4399 25.4398L49.4399 25.0098" stroke="#010101" stroke-width="0.25" stroke-linecap="round" stroke-linejoin="round"/>
<path d="M0.17993 26.9799L0.179932 0.639893" stroke="#010101" stroke-width="0.25" stroke-linecap="round" stroke-linejoin="round"/>
<path d="M0.140015 27.0198L0.140015 27.0298" stroke="#010101" stroke-width="0.25" stroke-linecap="round" stroke-linejoin="round"/>
<path d="M0.589966 0.139883L0.579967 0.129883" stroke="#010101" stroke-width="0.25" stroke-linecap="round" stroke-linejoin="round"/>
<path d="M49.44 2.59985C49.44 2.59985 49.44 2.60985 49.45 2.59985" stroke="#010101" stroke-width="0.25" stroke-linecap="round" stroke-linejoin="round"/>
<path d="M10.24 0.18994L50.97 0.189941" stroke="#010101" stroke-width="0.25" stroke-linecap="round" stroke-linejoin="round"/>
<path d="M2.59998 2.16992L2.16998 2.16992" stroke="#010101" stroke-width="0.25" stroke-linecap="round" stroke-linejoin="round"/>
<path d="M51.48 0.129883L51.48 0.579883" stroke="#010101" stroke-width="0.25" stroke-linecap="round" stroke-linejoin="round"/>
<path d="M49.47 25.0198C49.47 25.0198 49.48 25.0298 49.49 25.0398L49.51 25.0598C49.51 25.0598 49.52 25.0698 49.53 25.0798C49.53 25.0798 49.54 25.0898 49.55 25.0998C49.56 25.1098 49.58 25.1298 49.6 25.1498C49.61 25.1598 49.62 25.1698 49.63 25.1798C49.64 25.1898 49.65 25.1998 49.66 25.2098C49.67 25.2198 49.68 25.2298 49.69 25.2398C49.7 25.2498 49.71 25.2598 49.73 25.2798C49.76 25.3098 49.78 25.3298 49.81 25.3598C49.84 25.3898 49.86 25.4098 49.89 25.4398C49.92 25.4698 49.95 25.4998 49.98 25.5298C50 25.5498 50.01 25.5598 50.03 25.5798C50.05 25.5998 50.06 25.6098 50.08 25.6298C50.1 25.6498 50.12 25.6698 50.13 25.6798C50.15 25.6998 50.17 25.7198 50.18 25.7298C50.2 25.7498 50.22 25.7698 50.24 25.7898C50.26 25.8098 50.28 25.8298 50.3 25.8498C50.34 25.8898 50.37 25.9198 50.41 25.9598C50.42 25.9698 50.44 25.9898 50.45 25.9998C50.46 26.0098 50.48 26.0298 50.49 26.0398C50.5 26.0498 50.52 26.0698 50.53 26.0798C50.55 26.0998 50.58 26.1298 50.6 26.1498C50.63 26.1798 50.66 26.2098 50.69 26.2398C50.72 26.2698 50.75 26.2998 50.78 26.3298C50.8 26.3498 50.83 26.3798 50.85 26.3998C50.87 26.4198 50.89 26.4398 50.92 26.4698C50.95 26.4998 50.98 26.5298 51.01 26.5598C51.04 26.5898 51.07 26.6198 51.1 26.6498C51.13 26.6798 51.16 26.7098 51.19 26.7398C51.22 26.7698 51.25 26.7998 51.27 26.8198C51.3 26.8498 51.32 26.8698 51.35 26.8998C51.35 26.8998 51.36 26.9098 51.37 26.9198C51.37 26.9198 51.38 26.9298 51.39 26.9398C51.4 26.9498 51.41 26.9598 51.42 26.9698" stroke="#010101" stroke-width="0.25" stroke-linecap="round" stroke-linejoin="round"/>
<path d="M51.03 27.49L51.48 27.49" stroke="#010101" stroke-width="0.25" stroke-linecap="round" stroke-linejoin="round"/>
<path d="M49.01 2.16991C49.01 2.16991 49.01 2.16991 49.01 2.15991" stroke="#010101" stroke-width="0.25" stroke-linecap="round" stroke-linejoin="round"/>
<path d="M49.01 25.4399C49.01 25.4399 49 25.4399 49.01 25.4499" stroke="#010101" stroke-width="0.25" stroke-linecap="round" stroke-linejoin="round"/>
<path d="M2.48998 2.03979L10.23 2.03979" stroke="#010101" stroke-width="0.25" stroke-linecap="round" stroke-linejoin="round"/>
<path d="M0.140015 0.589834L0.130016 0.579834" stroke="#010101" stroke-width="0.25" stroke-linecap="round" stroke-linejoin="round"/>
<path d="M49.12 25.5698L2.5 25.5698" stroke="#010101" stroke-width="0.25" stroke-linecap="round" stroke-linejoin="round"/>
<path d="M49.0099 2.16992L49.4399 2.16992" stroke="#010101" stroke-width="0.25" stroke-linecap="round" stroke-linejoin="round"/>
<path d="M2.59998 2.16991C2.59998 2.16991 2.59998 2.16991 2.59998 2.15991" stroke="#010101" stroke-width="0.25" stroke-linecap="round" stroke-linejoin="round"/>
<path d="M51.47 0.599834L51.49 0.579834" stroke="#010101" stroke-width="0.25" stroke-linecap="round" stroke-linejoin="round"/>
<path d="M0.120041 27.4899C0.120041 27.4899 0.130043 27.4799 0.150043 27.4599C0.150043 27.4599 0.170042 27.4399 0.180042 27.4299C0.200042 27.4099 0.220042 27.3899 0.250042 27.3599C0.300042 27.3099 0.350043 27.2599 0.400043 27.2099C0.460043 27.1499 0.510042 27.0999 0.570042 27.0399C0.620042 26.9899 0.680041 26.9299 0.730041 26.8799C0.830041 26.7799 0.940041 26.6699 1.05004 26.5599C1.10004 26.5099 1.16004 26.4499 1.21004 26.3999C1.27004 26.3399 1.33004 26.2799 1.40004 26.2099C1.47004 26.1399 1.53004 26.0799 1.60004 26.0099C1.66004 25.9499 1.71004 25.8999 1.76004 25.8499C1.81004 25.7999 1.85004 25.7599 1.89004 25.7199C1.94004 25.6699 1.98004 25.6299 2.02004 25.5899C2.05004 25.5599 2.08004 25.5299 2.10004 25.5099L2.15004 25.4599L2.17004 25.4399" stroke="#010101" stroke-width="0.25" stroke-linecap="round" stroke-linejoin="round"/>
<path d="M10.24 2.03979L49.12 2.03979" stroke="#010101" stroke-width="0.25" stroke-linecap="round" stroke-linejoin="round"/>
<path d="M2.15002 2.60985L2.15002 2.59985" stroke="#010101" stroke-width="0.25" stroke-linecap="round" stroke-linejoin="round"/>
<path d="M0.119995 27.4898L0.119995 27.0398" stroke="#010101" stroke-width="0.25" stroke-linecap="round" stroke-linejoin="round"/>
<path d="M2.58997 2.13994C2.58997 2.13994 2.57997 2.12994 2.56997 2.11994L2.54996 2.09994C2.54996 2.09994 2.53996 2.08994 2.52996 2.07994C2.52996 2.07994 2.51997 2.06994 2.50997 2.05994C2.49997 2.04994 2.47996 2.02994 2.45996 2.00994C2.44996 1.99994 2.43997 1.98994 2.42997 1.97994L2.39997 1.94994L2.36996 1.91994C2.36996 1.91994 2.34997 1.89994 2.32997 1.87994C2.29997 1.84994 2.27997 1.82994 2.24997 1.79994C2.21997 1.76994 2.19997 1.74994 2.16997 1.71994C2.13997 1.68994 2.10997 1.65994 2.07997 1.62994C2.05997 1.60994 2.04996 1.59994 2.02996 1.57994C2.00996 1.55994 1.99997 1.54994 1.97997 1.52994C1.95997 1.50994 1.93997 1.48994 1.92997 1.47994C1.90997 1.45994 1.88997 1.43994 1.87997 1.42994C1.86997 1.41994 1.83997 1.38994 1.81997 1.36994C1.79997 1.34994 1.77997 1.32994 1.75997 1.30994C1.71997 1.26994 1.68997 1.23994 1.64997 1.19994C1.63997 1.18994 1.61997 1.16994 1.60997 1.15994C1.59997 1.14994 1.57997 1.12994 1.56997 1.11994C1.55997 1.10994 1.53996 1.08994 1.52996 1.07994C1.50996 1.05994 1.47996 1.02994 1.45996 1.00994C1.42996 0.979941 1.39996 0.949941 1.36996 0.919941C1.33996 0.889941 1.30996 0.859941 1.27996 0.829941C1.25996 0.809941 1.22996 0.779941 1.20996 0.759941C1.18996 0.739941 1.16997 0.719941 1.13997 0.689941C1.10997 0.659941 1.07996 0.629941 1.04996 0.599941C1.01996 0.569941 0.989965 0.539941 0.959965 0.509941C0.929965 0.479941 0.899965 0.449941 0.869965 0.419941C0.839965 0.389941 0.809967 0.359941 0.789967 0.339941C0.759967 0.309941 0.739965 0.289941 0.709965 0.259941C0.709965 0.259941 0.699968 0.249941 0.689968 0.239941C0.689968 0.239941 0.679968 0.229941 0.669968 0.219941C0.659968 0.209941 0.649965 0.199941 0.639965 0.189941" stroke="#010101" stroke-width="0.25" stroke-linecap="round" stroke-linejoin="round"/>
<path d="M0.639988 0.189941L10.24 0.189941" stroke="#010101" stroke-width="0.25" stroke-linecap="round" stroke-linejoin="round"/>
<path d="M2.14001 2.5999C2.14001 2.5999 2.13001 2.5899 2.12001 2.5799L2.10002 2.5599C2.10002 2.5599 2.09002 2.5499 2.08002 2.5399C2.08002 2.5399 2.07002 2.5299 2.06002 2.5199C2.05002 2.5099 2.03002 2.4899 2.01002 2.4699C2.00002 2.4599 1.99001 2.4499 1.98001 2.4399C1.97001 2.4299 1.96002 2.4199 1.95002 2.4099C1.94002 2.3999 1.93002 2.3899 1.92002 2.3799C1.91002 2.3699 1.90002 2.3599 1.88002 2.3399C1.85002 2.3099 1.83001 2.2899 1.80001 2.2599C1.77001 2.2299 1.75002 2.2099 1.72002 2.1799C1.69002 2.1499 1.66002 2.1199 1.63002 2.0899C1.61002 2.0699 1.60002 2.0599 1.58002 2.0399C1.56002 2.0199 1.55001 2.0099 1.53001 1.9899C1.51001 1.9699 1.49001 1.9499 1.48001 1.9399C1.46001 1.9199 1.44002 1.8999 1.43002 1.8899C1.41002 1.8699 1.39001 1.8499 1.37001 1.8299C1.35001 1.8099 1.33002 1.7899 1.31002 1.7699C1.27002 1.7299 1.24002 1.6999 1.20002 1.6599C1.19002 1.6499 1.17002 1.6299 1.16002 1.6199C1.15002 1.6099 1.13001 1.5899 1.12001 1.5799C1.11001 1.5699 1.09002 1.5499 1.08002 1.5399C1.06002 1.5199 1.03002 1.4899 1.01002 1.4699C0.980017 1.4399 0.950017 1.4099 0.920017 1.3799C0.890017 1.3499 0.860017 1.3199 0.830017 1.2899C0.810017 1.2699 0.780017 1.2399 0.760017 1.2199C0.740017 1.1999 0.720018 1.1799 0.690018 1.1499C0.660018 1.1199 0.630018 1.0899 0.600018 1.0599C0.570018 1.0299 0.540017 0.999902 0.510017 0.969902C0.480017 0.939902 0.450017 0.909902 0.420017 0.879902C0.390017 0.849902 0.360015 0.819902 0.340015 0.799902C0.310015 0.769902 0.290017 0.749902 0.260017 0.719902C0.260017 0.719902 0.250017 0.709902 0.240017 0.699902C0.240017 0.699902 0.230016 0.689902 0.220016 0.679902C0.210016 0.669902 0.200018 0.659902 0.190018 0.649902" stroke="#010101" stroke-width="0.25" stroke-linecap="round" stroke-linejoin="round"/>
<path d="M51.42 0.639893L51.42 26.9699" stroke="#010101" stroke-width="0.25" stroke-linecap="round" stroke-linejoin="round"/>
<path d="M49.5699 2.48999L49.5699 25.12" stroke="#010101" stroke-width="0.25" stroke-linecap="round" stroke-linejoin="round"/>
<path d="M49.4399 2.16992L49.4399 2.59992" stroke="#010101" stroke-width="0.25" stroke-linecap="round" stroke-linejoin="round"/>
<path d="M51.48 0.129883C51.48 0.129883 51.47 0.139883 51.45 0.159883C51.45 0.159883 51.43 0.179883 51.42 0.189883C51.4 0.209883 51.38 0.229883 51.35 0.259883C51.3 0.309883 51.25 0.359883 51.2 0.409883C51.14 0.469883 51.09 0.519883 51.03 0.579883C50.98 0.629883 50.92 0.689883 50.87 0.739883C50.77 0.839883 50.66 0.949883 50.55 1.05988C50.5 1.10988 50.44 1.16988 50.39 1.21988C50.33 1.27988 50.27 1.33988 50.2 1.40988C50.13 1.47988 50.07 1.53988 50 1.60988C49.94 1.66988 49.89 1.71988 49.83 1.76988C49.78 1.81988 49.74 1.85988 49.7 1.89988C49.65 1.94988 49.61 1.98988 49.57 2.02988C49.54 2.05988 49.51 2.08988 49.49 2.10988C49.47 2.12988 49.46 2.13988 49.44 2.15988C49.43 2.16988 49.42 2.17988 49.42 2.17988" stroke="#010101" stroke-width="0.25" stroke-linecap="round" stroke-linejoin="round"/>
<path d="M0.159985 26.9998C0.159985 26.9998 0.179987 26.9798 0.189987 26.9698C0.189987 26.9698 0.199984 26.9598 0.209984 26.9498L0.229984 26.9298C0.229984 26.9298 0.279986 26.8798 0.309986 26.8498C0.339986 26.8198 0.359984 26.7998 0.389984 26.7698C0.419984 26.7398 0.449984 26.7098 0.479984 26.6798C0.509984 26.6498 0.539984 26.6198 0.569984 26.5898C0.599984 26.5598 0.629985 26.5298 0.659985 26.4998C0.679985 26.4798 0.699984 26.4598 0.729984 26.4298C0.749984 26.4098 0.769984 26.3898 0.799984 26.3598C0.829984 26.3298 0.859984 26.2998 0.889984 26.2698C0.919984 26.2398 0.949984 26.2098 0.979984 26.1798C0.999984 26.1598 1.02998 26.1298 1.04998 26.1098L1.08998 26.0698C1.08998 26.0698 1.11999 26.0398 1.12999 26.0298C1.13999 26.0198 1.15999 25.9998 1.16999 25.9898C1.20999 25.9498 1.23998 25.9198 1.27998 25.8798C1.29998 25.8598 1.31998 25.8398 1.33998 25.8198C1.35998 25.7998 1.37999 25.7798 1.39999 25.7598C1.41999 25.7398 1.43999 25.7198 1.44999 25.7098C1.46999 25.6898 1.48998 25.6698 1.49998 25.6598C1.51998 25.6398 1.52998 25.6298 1.54998 25.6098C1.56998 25.5898 1.57999 25.5798 1.59999 25.5598C1.62999 25.5298 1.65999 25.4998 1.68999 25.4698C1.71999 25.4398 1.73999 25.4198 1.76999 25.3898C1.79999 25.3598 1.81999 25.3398 1.84999 25.3098L1.88998 25.2698C1.88998 25.2698 1.90999 25.2498 1.91999 25.2398C1.92999 25.2298 1.93999 25.2198 1.94999 25.2098C1.95999 25.1998 1.96998 25.1898 1.97998 25.1798C1.99998 25.1598 2.00998 25.1498 2.02998 25.1298C2.02998 25.1298 2.03998 25.1198 2.04998 25.1098C2.04998 25.1098 2.05998 25.0998 2.06998 25.0898L2.08998 25.0698L2.10999 25.0498" stroke="#010101" stroke-width="0.25" stroke-linecap="round" stroke-linejoin="round"/>
<path d="M50.97 27.4299L0.629971 27.4299" stroke="#010101" stroke-width="0.25" stroke-linecap="round" stroke-linejoin="round"/>
<path d="M2.17004 2.16992L2.17004 2.59992" stroke="#010101" stroke-width="0.25" stroke-linecap="round" stroke-linejoin="round"/>
<path d="M49.46 2.60985L49.46 2.59985" stroke="#010101" stroke-width="0.25" stroke-linecap="round" stroke-linejoin="round"/>
<path d="M2.17004 25.4398L2.17004 25.0098" stroke="#010101" stroke-width="0.25" stroke-linecap="round" stroke-linejoin="round"/>
<path d="M0.120041 0.129883C0.120041 0.129883 0.130043 0.139883 0.150043 0.159883C0.150043 0.159883 0.170042 0.179883 0.180042 0.189883C0.200042 0.209883 0.220042 0.229883 0.250042 0.259883C0.300042 0.309883 0.350043 0.359883 0.400043 0.409883C0.460043 0.469883 0.510042 0.519883 0.570042 0.579883C0.620042 0.629883 0.680041 0.689883 0.730041 0.739883C0.830041 0.839883 0.940041 0.949883 1.05004 1.05988C1.10004 1.10988 1.16004 1.16988 1.21004 1.21988C1.27004 1.27988 1.33004 1.33988 1.40004 1.40988C1.47004 1.47988 1.53004 1.53988 1.60004 1.60988C1.66004 1.66988 1.71004 1.71988 1.76004 1.76988C1.81004 1.81988 1.85004 1.85988 1.89004 1.89988C1.94004 1.94988 1.98004 1.98988 2.02004 2.02988C2.05004 2.05988 2.08004 2.08988 2.10004 2.10988C2.12004 2.12988 2.13004 2.13988 2.15004 2.15988C2.16004 2.16988 2.17004 2.17988 2.17004 2.17988" stroke="#010101" stroke-width="0.25" stroke-linecap="round" stroke-linejoin="round"/>
<path d="M2.58997 25.47C2.58997 25.47 2.57997 25.48 2.56997 25.49L2.54996 25.51C2.54996 25.51 2.53996 25.52 2.52996 25.53C2.52996 25.53 2.51997 25.54 2.50997 25.55C2.49997 25.56 2.47996 25.58 2.45996 25.6C2.44996 25.61 2.43997 25.62 2.42997 25.63C2.41997 25.64 2.40997 25.65 2.39997 25.66C2.38997 25.67 2.37996 25.68 2.36996 25.69L2.32997 25.73C2.32997 25.73 2.27997 25.78 2.24997 25.81C2.21997 25.84 2.19997 25.86 2.16997 25.89C2.13997 25.92 2.10997 25.95 2.07997 25.98C2.05997 26 2.04996 26.01 2.02996 26.03C2.00996 26.05 1.99997 26.06 1.97997 26.08C1.95997 26.1 1.93997 26.12 1.92997 26.13C1.90997 26.15 1.88997 26.17 1.87997 26.18C1.85997 26.2 1.83997 26.22 1.81997 26.24C1.79997 26.26 1.77997 26.28 1.75997 26.3C1.71997 26.34 1.68997 26.37 1.64997 26.41C1.63997 26.42 1.61997 26.44 1.60997 26.45C1.59997 26.46 1.57997 26.48 1.56997 26.49C1.55997 26.5 1.53996 26.52 1.52996 26.53C1.50996 26.55 1.47996 26.58 1.45996 26.6C1.42996 26.63 1.39996 26.66 1.36996 26.69C1.33996 26.72 1.30996 26.75 1.27996 26.78C1.25996 26.8 1.22996 26.83 1.20996 26.85C1.18996 26.87 1.16996 26.89 1.13996 26.92C1.10996 26.95 1.07996 26.98 1.04996 27.01C1.01996 27.04 0.989965 27.07 0.959965 27.1C0.929965 27.13 0.899965 27.16 0.869965 27.19C0.839965 27.22 0.809967 27.25 0.789967 27.27C0.759967 27.3 0.739965 27.32 0.709965 27.35C0.709965 27.35 0.699968 27.36 0.689968 27.37C0.689968 27.37 0.679968 27.38 0.669968 27.39C0.659968 27.4 0.649965 27.41 0.639965 27.42" stroke="#010101" stroke-width="0.25" stroke-linecap="round" stroke-linejoin="round"/>
<path d="M51.48 27.4899C51.48 27.4899 51.47 27.4799 51.45 27.4599C51.45 27.4599 51.43 27.4399 51.42 27.4299C51.4 27.4099 51.38 27.3899 51.35 27.3599C51.3 27.3099 51.25 27.2599 51.2 27.2099C51.14 27.1499 51.09 27.0999 51.03 27.0399C50.98 26.9899 50.92 26.9299 50.87 26.8799C50.77 26.7799 50.66 26.6699 50.55 26.5599C50.5 26.5099 50.44 26.4499 50.39 26.3999C50.33 26.3399 50.27 26.2799 50.2 26.2099C50.13 26.1399 50.07 26.0799 50 26.0099C49.94 25.9499 49.89 25.8999 49.83 25.8499C49.78 25.7999 49.74 25.7599 49.7 25.7199C49.65 25.6699 49.61 25.6299 49.57 25.5899C49.54 25.5599 49.51 25.5299 49.49 25.5099C49.47 25.4899 49.46 25.4799 49.44 25.4599C49.43 25.4499 49.42 25.4399 49.42 25.4399" stroke="#010101" stroke-width="0.25" stroke-linecap="round" stroke-linejoin="round"/>
<path d="M51.47 27.0198L51.48 27.0298" stroke="#010101" stroke-width="0.25" stroke-linecap="round" stroke-linejoin="round"/>
<path d="M49.01 25.47C49.01 25.47 49.02 25.48 49.03 25.49L49.05 25.51C49.05 25.51 49.06 25.52 49.07 25.53C49.07 25.53 49.08 25.54 49.09 25.55C49.1 25.56 49.12 25.58 49.14 25.6C49.15 25.61 49.16 25.62 49.17 25.63C49.18 25.64 49.19 25.65 49.2 25.66C49.21 25.67 49.22 25.68 49.23 25.69C49.24 25.7 49.25 25.71 49.27 25.73C49.3 25.76 49.32 25.78 49.35 25.81C49.38 25.84 49.4 25.86 49.43 25.89C49.46 25.92 49.49 25.95 49.52 25.98C49.54 26 49.55 26.01 49.57 26.03C49.59 26.05 49.6 26.06 49.62 26.08C49.64 26.1 49.66 26.12 49.67 26.13C49.69 26.15 49.71 26.17 49.72 26.18C49.74 26.2 49.76 26.22 49.78 26.24C49.8 26.26 49.82 26.28 49.84 26.3C49.88 26.34 49.91 26.37 49.95 26.41C49.96 26.42 49.98 26.44 49.99 26.45C50 26.46 50.02 26.48 50.03 26.49C50.04 26.5 50.06 26.52 50.07 26.53C50.09 26.55 50.12 26.58 50.14 26.6C50.17 26.63 50.2 26.66 50.23 26.69C50.26 26.72 50.29 26.75 50.32 26.78C50.34 26.8 50.37 26.83 50.39 26.85C50.41 26.87 50.43 26.89 50.46 26.92C50.49 26.95 50.52 26.98 50.55 27.01C50.58 27.04 50.61 27.07 50.64 27.1C50.67 27.13 50.7 27.16 50.73 27.19C50.76 27.22 50.79 27.25 50.81 27.27C50.84 27.3 50.86 27.32 50.89 27.35C50.89 27.35 50.9 27.36 50.91 27.37C50.91 27.37 50.92 27.38 50.93 27.39C50.94 27.4 50.95 27.41 50.96 27.42" stroke="#010101" stroke-width="0.25" stroke-linecap="round" stroke-linejoin="round"/>
<path d="M2.17004 2.59985C2.17004 2.59985 2.17004 2.59985 2.16004 2.59985" stroke="#010101" stroke-width="0.25" stroke-linecap="round" stroke-linejoin="round"/>
<path d="M2.59998 25.4399C2.59998 25.4399 2.59998 25.4399 2.59998 25.4499" stroke="#010101" stroke-width="0.25" stroke-linecap="round" stroke-linejoin="round"/>
<path d="M0.579956 27.49L0.129955 27.49" stroke="#010101" stroke-width="0.25" stroke-linecap="round" stroke-linejoin="round"/>
<path d="M51.45 0.619873C51.45 0.619873 51.43 0.639873 51.42 0.649873C51.42 0.649873 51.41 0.659873 51.4 0.669873C51.4 0.669873 51.39 0.679873 51.38 0.689873C51.35 0.719873 51.33 0.739873 51.3 0.769873C51.27 0.799873 51.25 0.819873 51.22 0.849873C51.19 0.879873 51.16 0.909873 51.13 0.939873C51.1 0.969873 51.07 0.999873 51.04 1.02987C51.01 1.05987 50.98 1.08987 50.95 1.11987C50.93 1.13987 50.91 1.15987 50.88 1.18987C50.85 1.21987 50.84 1.22987 50.81 1.25987C50.78 1.28987 50.75 1.31987 50.72 1.34987C50.69 1.37987 50.66 1.40987 50.63 1.43987C50.61 1.45987 50.58 1.48987 50.56 1.50987C50.55 1.51987 50.53 1.53987 50.52 1.54987C50.51 1.55987 50.49 1.57987 50.48 1.58987C50.47 1.59987 50.45 1.61987 50.44 1.62987C50.4 1.66987 50.37 1.69987 50.33 1.73987C50.31 1.75987 50.29 1.77987 50.27 1.79987C50.25 1.81987 50.23 1.83987 50.21 1.85987C50.19 1.87987 50.17 1.89987 50.16 1.90987C50.14 1.92987 50.12 1.94987 50.11 1.95987C50.09 1.97987 50.08 1.98987 50.06 2.00987C50.04 2.02987 50.03 2.03987 50.01 2.05987C49.98 2.08987 49.95 2.11987 49.92 2.14987C49.89 2.17987 49.87 2.19987 49.84 2.22987C49.81 2.25987 49.79 2.27987 49.76 2.30987C49.75 2.31987 49.74 2.32987 49.72 2.34987C49.71 2.35987 49.7 2.36987 49.69 2.37987C49.68 2.38987 49.67 2.39987 49.66 2.40987C49.65 2.41987 49.64 2.42987 49.63 2.43987C49.61 2.45987 49.6 2.46987 49.58 2.48987C49.58 2.48987 49.57 2.49987 49.56 2.50987C49.56 2.50987 49.55 2.51987 49.54 2.52987L49.52 2.54987L49.5 2.56987" stroke="#010101" stroke-width="0.25" stroke-linecap="round" stroke-linejoin="round"/>
<path d="M49.01 2.13994C49.01 2.13994 49.02 2.12994 49.03 2.11994L49.05 2.09994C49.05 2.09994 49.06 2.08994 49.07 2.07994C49.07 2.07994 49.08 2.06994 49.09 2.05994C49.1 2.04994 49.12 2.02994 49.14 2.00994C49.15 1.99994 49.16 1.98994 49.17 1.97994C49.18 1.96994 49.19 1.95994 49.2 1.94994C49.21 1.93994 49.22 1.92994 49.23 1.91994C49.24 1.90994 49.25 1.89994 49.27 1.87994C49.3 1.84994 49.32 1.82994 49.35 1.79994C49.38 1.76994 49.4 1.74994 49.43 1.71994C49.46 1.68994 49.49 1.65994 49.52 1.62994C49.54 1.60994 49.55 1.59994 49.57 1.57994C49.59 1.55994 49.6 1.54994 49.62 1.52994C49.64 1.50994 49.66 1.48994 49.67 1.47994C49.69 1.45994 49.71 1.43994 49.72 1.42994C49.74 1.40994 49.76 1.38994 49.78 1.36994C49.8 1.34994 49.82 1.32994 49.84 1.30994C49.88 1.26994 49.91 1.23994 49.95 1.19994C49.96 1.18994 49.98 1.16994 49.99 1.15994C50 1.14994 50.02 1.12994 50.03 1.11994C50.04 1.10994 50.06 1.08994 50.07 1.07994C50.09 1.05994 50.12 1.02994 50.14 1.00994C50.17 0.979941 50.2 0.949941 50.23 0.919941C50.26 0.889941 50.29 0.859941 50.32 0.829941C50.34 0.809941 50.37 0.779941 50.39 0.759941C50.41 0.739941 50.43 0.719941 50.46 0.689941C50.49 0.659941 50.52 0.629941 50.55 0.599941C50.58 0.569941 50.61 0.539941 50.64 0.509941C50.67 0.479941 50.7 0.449941 50.73 0.419941C50.76 0.389941 50.79 0.359941 50.81 0.339941C50.84 0.309941 50.86 0.289941 50.89 0.259941C50.89 0.259941 50.9 0.249941 50.91 0.239941C50.91 0.239941 50.92 0.229941 50.93 0.219941C50.94 0.209941 50.95 0.199941 50.96 0.189941" stroke="#010101" stroke-width="0.25" stroke-linecap="round" stroke-linejoin="round"/>
<path d="M2.17004 25.0098C2.17004 25.0098 2.16004 25.0098 2.15004 25.0098" stroke="#010101" stroke-width="0.25" stroke-linecap="round" stroke-linejoin="round"/>
<path d="M0.579956 0.129883L0.129955 0.129883" stroke="#010101" stroke-width="0.25" stroke-linecap="round" stroke-linejoin="round"/>
<path d="M2.04004 25.12L2.04004 2.5" stroke="#010101" stroke-width="0.25" stroke-linecap="round" stroke-linejoin="round"/>
<path d="M2.59998 25.4399L2.16998 25.4399" stroke="#010101" stroke-width="0.25" stroke-linecap="round" stroke-linejoin="round"/>
<path d="M49.0099 25.4399L49.4399 25.4399" stroke="#010101" stroke-width="0.25" stroke-linecap="round" stroke-linejoin="round"/>
<path d="M51.48 27.4898L51.48 27.0398" stroke="#010101" stroke-width="0.25" stroke-linecap="round" stroke-linejoin="round"/>
<path d="M0.119995 0.129883L0.119995 0.579883" stroke="#010101" stroke-width="0.25" stroke-linecap="round" stroke-linejoin="round"/>
</g>
<defs>
<clipPath id="clip0_1314_1254">
<rect width="27.61" height="51.61" fill="white" transform="translate(51.61) rotate(90)"/>
</clipPath>
</defs>
</svg>
