<svg width="96" height="102" viewBox="0 0 96 102" fill="none" xmlns="http://www.w3.org/2000/svg">
<g clip-path="url(#clip0_592_3154)">
<path opacity="0.5" d="M6.44477 97.2321H0.130859V101.86H6.44477V97.2321Z" fill="white"/>
<path opacity="0.5" fill-rule="evenodd" clip-rule="evenodd" d="M6.44336 101.422H6.75257L6.86229 98.8281H14.034L14.1437 101.422H48.0473H6.44336Z" fill="white"/>
<path opacity="0.5" fill-rule="evenodd" clip-rule="evenodd" d="M94.4593 93.4617H95.8358V90.22H94.4593L93.0828 90.3995L90.1304 90.7786L94.4593 93.4617ZM90.1304 92.973L93.0828 93.3021L94.4593 93.4617L90.1304 92.973Z" fill="white"/>
<path opacity="0.5" fill-rule="evenodd" clip-rule="evenodd" d="M94.4593 39.0605H95.8358V35.8187H94.4593L93.0828 35.9983L90.1304 36.3773L94.4593 39.0605ZM90.1304 38.5717L93.0828 38.9009L94.4593 39.0605L90.1304 38.5717Z" fill="white"/>
<path opacity="0.5" fill-rule="evenodd" clip-rule="evenodd" d="M94.4593 66.2611H95.8358V63.0194H94.4593L93.0828 63.199L90.1304 63.578L94.4593 66.2611ZM90.1304 65.7724L93.0828 66.1015L94.4593 66.2611L90.1304 65.7724Z" fill="white"/>
<path opacity="0.5" fill-rule="evenodd" clip-rule="evenodd" d="M94.4593 11.8499H95.8358V8.60815H94.4593L93.0828 8.7877L90.1304 9.16673L94.4593 11.8499ZM90.1304 11.3611L93.0828 11.6903L94.4593 11.8499L90.1304 11.3611Z" fill="white"/>
<path opacity="0.5" fill-rule="evenodd" clip-rule="evenodd" d="M48.7247 47.9678H44.8047V52.4464H51.4079V47.9678H48.7247Z" fill="white"/>
<path opacity="0.5" fill-rule="evenodd" clip-rule="evenodd" d="M1.52688 93.4617H0.150391V90.22H1.52688L2.90337 90.3995L5.85585 90.7786L1.52688 93.4617ZM5.85585 92.973L2.90337 93.3021L1.52688 93.4617L5.85585 92.973Z" fill="white"/>
<path opacity="0.5" fill-rule="evenodd" clip-rule="evenodd" d="M1.52688 66.2611H0.150391V63.0194H1.52688L2.90337 63.199L5.85585 63.578L1.52688 66.2611ZM5.85585 65.7724L2.90337 66.1015L1.52688 66.2611L5.85585 65.7724Z" fill="white"/>
<path opacity="0.5" fill-rule="evenodd" clip-rule="evenodd" d="M1.52688 39.0605H0.150391V35.8187H1.52688L2.90337 35.9983L5.85585 36.3773L1.52688 39.0605ZM5.85585 38.5717L2.90337 38.9009L1.52688 39.0605L5.85585 38.5717Z" fill="white"/>
<path opacity="0.5" fill-rule="evenodd" clip-rule="evenodd" d="M1.52688 11.8499H0.150391V8.60815H1.52688L2.90337 8.7877L5.85585 9.16673L1.52688 11.8499ZM5.85585 11.3611L2.90337 11.6903L1.52688 11.8499L5.85585 11.3611Z" fill="white"/>
<path opacity="0.5" fill-rule="evenodd" clip-rule="evenodd" d="M22.7115 3.61077H25.3747L25.7637 3.22176V2.21433L25.3747 1.82532H22.7115L22.3125 2.21433V3.22176L22.7115 3.61077Z" fill="white"/>
<path opacity="0.5" fill-rule="evenodd" clip-rule="evenodd" d="M22.7115 96.564H25.3747L25.7637 96.9629V97.9604L25.3747 98.3594H22.7115L22.3125 97.9604V96.9629L22.7115 96.564Z" fill="white"/>
<path opacity="0.5" d="M24.6384 1.82532H23.4414V98.3493H24.6384V1.82532Z" fill="white"/>
<path opacity="0.5" fill-rule="evenodd" clip-rule="evenodd" d="M23.0411 55.5284H25.036L25.7841 56.2765L25.036 57.0246H23.0411L22.293 56.2765L23.0411 55.5284Z" fill="white"/>
<path opacity="0.5" fill-rule="evenodd" clip-rule="evenodd" d="M21.9844 63.2287V61.553H23.4407V63.9668H21.9844V63.2287Z" fill="white"/>
<path opacity="0.5" fill-rule="evenodd" clip-rule="evenodd" d="M21.9848 63.2287V62.2911H17.985H16.5487H10.3246L9.93555 62.6801V62.8298L10.3246 63.2287H16.5487H17.985H21.9848Z" fill="white"/>
<path opacity="0.5" fill-rule="evenodd" clip-rule="evenodd" d="M17.7332 60.6654V61.7527L18.0025 62.1317V62.5606L17.5237 63.0893H16.7757L16.2969 62.5606V62.1317L16.5662 61.7527V60.6654H17.7332Z" fill="white"/>
<path opacity="0.5" fill-rule="evenodd" clip-rule="evenodd" d="M22.293 10.593V7.23161L23.0411 6.48352H25.036L25.7841 7.23161V10.593L25.036 11.3411H23.0411L22.293 10.593Z" fill="white"/>
<path opacity="0.5" fill-rule="evenodd" clip-rule="evenodd" d="M22.293 93.322V89.9606L23.0411 89.2125H25.036L25.7841 89.9606V93.322L25.036 94.0701H23.0411L22.293 93.322Z" fill="white"/>
<path opacity="0.5" fill-rule="evenodd" clip-rule="evenodd" d="M39.3597 3.61077H42.0329L42.4219 3.22176V2.21433L42.0329 1.82532H39.3597L38.9707 2.21433V3.22176L39.3597 3.61077Z" fill="white"/>
<path opacity="0.5" fill-rule="evenodd" clip-rule="evenodd" d="M39.3597 96.5638H42.0329L42.4219 96.9628V97.9603L42.0329 98.3593H39.3597L38.9707 97.9603V96.9628L39.3597 96.5638Z" fill="white"/>
<path opacity="0.5" d="M41.2927 1.82532H40.0957V98.3493H41.2927V1.82532Z" fill="white"/>
<path opacity="0.5" fill-rule="evenodd" clip-rule="evenodd" d="M39.6993 55.5286H41.6942L42.4423 56.2767L41.6942 57.0248H39.6993L38.9512 56.2767L39.6993 55.5286Z" fill="white"/>
<path opacity="0.5" fill-rule="evenodd" clip-rule="evenodd" d="M38.6309 63.2287V61.553H40.0971V63.9668H38.6309V63.2287Z" fill="white"/>
<path opacity="0.5" fill-rule="evenodd" clip-rule="evenodd" d="M38.6331 63.2289V62.2913H34.6333H33.2069H26.9828L26.5938 62.6803V62.8299L26.9828 63.2289H33.2069H34.6333H38.6331Z" fill="white"/>
<path opacity="0.5" fill-rule="evenodd" clip-rule="evenodd" d="M34.3914 60.6653V61.7525L34.6607 62.1316V62.5605L34.182 63.0891H33.4339L32.9551 62.5605V62.1316L33.2244 61.7525V60.6653H34.3914Z" fill="white"/>
<path opacity="0.5" d="M40.5762 56.2769L40.6962 56.1569L40.8162 56.2769L40.6962 56.3969L40.5762 56.2769Z" fill="white"/>
<path opacity="0.5" fill-rule="evenodd" clip-rule="evenodd" d="M38.9512 10.5929V7.23149L39.6993 6.4834H41.6942L42.4423 7.23149V10.5929L41.6942 11.341H39.6993L38.9512 10.5929Z" fill="white"/>
<path opacity="0.5" fill-rule="evenodd" clip-rule="evenodd" d="M38.9512 93.322V89.9606L39.6993 89.2125H41.6942L42.4423 89.9606V93.322L41.6942 94.0701H39.6993L38.9512 93.322Z" fill="white"/>
<path opacity="0.5" fill-rule="evenodd" clip-rule="evenodd" d="M56.6948 3.61077H54.0316L53.6426 3.22176V2.21433L54.0316 1.82532H56.6948L57.0938 2.21433V3.22176L56.6948 3.61077Z" fill="white"/>
<path opacity="0.5" fill-rule="evenodd" clip-rule="evenodd" d="M56.6948 96.564H54.0316L53.6426 96.9629V97.9604L54.0316 98.3594H56.6948L57.0938 97.9604V96.9629L56.6948 96.564Z" fill="white"/>
<path opacity="0.5" d="M55.9665 1.82532H54.7695V98.3493H55.9665V1.82532Z" fill="white"/>
<path opacity="0.5" fill-rule="evenodd" clip-rule="evenodd" d="M56.3661 55.5284H54.3711L53.623 56.2765L54.3711 57.0246H56.3661L57.1042 56.2765L56.3661 55.5284Z" fill="white"/>
<path opacity="0.5" fill-rule="evenodd" clip-rule="evenodd" d="M57.4233 63.2288V61.5531H55.957V63.9669H57.4233V63.2288Z" fill="white"/>
<path opacity="0.5" fill-rule="evenodd" clip-rule="evenodd" d="M57.4238 63.2287V62.2911H61.4236H62.86H77.1735L77.5725 62.6801V62.8298L77.1735 63.2287H62.86H61.4236H57.4238Z" fill="white"/>
<path opacity="0.5" fill-rule="evenodd" clip-rule="evenodd" d="M62.8309 60.6654V61.7527L63.1002 62.1317V62.5606L62.6214 63.0893H61.8733L61.3945 62.5606V62.1317L61.6638 61.7527V60.6654H62.8309Z" fill="white"/>
<path opacity="0.5" fill-rule="evenodd" clip-rule="evenodd" d="M56.9844 56.2765L56.6054 55.9075L56.2363 56.2765L56.6054 56.6556L56.9844 56.2765Z" fill="white"/>
<path opacity="0.5" fill-rule="evenodd" clip-rule="evenodd" d="M54.5118 56.2765L54.1327 55.9075L53.7637 56.2765L54.1327 56.6556L54.5118 56.2765Z" fill="white"/>
<path opacity="0.5" fill-rule="evenodd" clip-rule="evenodd" d="M55.4902 56.2769L55.3702 56.1569L55.2402 56.2769L55.3702 56.3969L55.4902 56.2769Z" fill="white"/>
<path opacity="0.5" fill-rule="evenodd" clip-rule="evenodd" d="M57.1042 10.593V7.23161L56.3661 6.48352H54.3711L53.623 7.23161V10.593L54.3711 11.3411H56.3661L57.1042 10.593Z" fill="white"/>
<path opacity="0.5" fill-rule="evenodd" clip-rule="evenodd" d="M57.1042 93.322V89.9606L56.3661 89.2125H54.3711L53.623 89.9606V93.322L54.3711 94.0701H56.3661L57.1042 93.322Z" fill="white"/>
<path opacity="0.5" d="M6.44477 97.2321H0.130859V101.86H6.44477V97.2321Z" stroke="black" stroke-width="0.259339" stroke-linecap="round" stroke-linejoin="round"/>
<path opacity="0.5" d="M95.8262 4.83765V95.5265V101.87V97.2421" stroke="black" stroke-width="0.259339" stroke-linecap="round" stroke-linejoin="round"/>
<path opacity="0.5" d="M1.52539 95.9853H47.3087V94.6088V52.3964V49.2943V4.82764H89.152" stroke="black" stroke-width="0.259339" stroke-linecap="round" stroke-linejoin="round"/>
<path opacity="0.5" d="M6.82227 0.518677H89.1524" stroke="black" stroke-width="0.259339" stroke-linecap="round" stroke-linejoin="round"/>
<path opacity="0.5" d="M93.1832 94.6088H48.7465L48.7266 6.14429H93.1334V94.6088" stroke="black" stroke-width="0.259339" stroke-linecap="round" stroke-linejoin="round"/>
<path opacity="0.5" d="M95.8253 0.129761H89.1523V4.83776H95.8253V0.129761Z" stroke="black" stroke-width="0.259339" stroke-linecap="round" stroke-linejoin="round"/>
<path opacity="0.5" d="M91.5781 3.55093V1.50614C92.0968 1.03734 92.8948 1.03734 93.4135 1.50614V3.56091C92.8948 4.02971 92.0968 4.02971 91.5781 3.56091V3.55093Z" stroke="black" stroke-width="0.259339" stroke-linecap="round" stroke-linejoin="round"/>
<path opacity="0.5" d="M48.0488 101.422H81.9524" stroke="black" stroke-width="0.259339" stroke-linecap="round" stroke-linejoin="round"/>
<path opacity="0.5" d="M95.8745 101.87H89.5605H95.8645" stroke="black" stroke-width="0.259339" stroke-linecap="round" stroke-linejoin="round"/>
<path opacity="0.5" d="M47.3105 95.9852H94.5003" stroke="black" stroke-width="0.259339" stroke-linecap="round" stroke-linejoin="round"/>
<path opacity="0.5" d="M89.5629 98.469H81.7129V101.421" stroke="black" stroke-width="0.259339" stroke-linecap="round" stroke-linejoin="round"/>
<path opacity="0.5" d="M81.9414 101.421L82.0511 98.828H89.2228L89.3425 101.421H89.562" stroke="black" stroke-width="0.259339" stroke-linecap="round" stroke-linejoin="round"/>
<path opacity="0.5" d="M95.8346 97.2421H89.5605V101.87" stroke="black" stroke-width="0.259339" stroke-linecap="round" stroke-linejoin="round"/>
<path opacity="0.5" d="M91.7852 98.4888V100.544C92.3038 101.012 93.1018 101.012 93.6205 100.544V98.4888C93.1018 98.02 92.3038 98.02 91.7852 98.4888Z" stroke="black" stroke-width="0.259339" stroke-linecap="round" stroke-linejoin="round"/>
<path opacity="0.5" d="M0.150391 4.83765V97.2321" stroke="black" stroke-width="0.259339" stroke-linecap="round" stroke-linejoin="round"/>
<path opacity="0.5" d="M6.82338 0.129761H0.150391V4.83776H6.82338V0.129761Z" stroke="black" stroke-width="0.259339" stroke-linecap="round" stroke-linejoin="round"/>
<path opacity="0.5" d="M4.40759 3.55093V1.50614C3.88891 1.03734 3.09094 1.03734 2.57227 1.50614V3.56091C3.09094 4.02971 3.88891 4.02971 4.40759 3.56091V3.55093Z" stroke="black" stroke-width="0.259339" stroke-linecap="round" stroke-linejoin="round"/>
<path opacity="0.5" d="M6.44336 101.422H6.75257L6.86229 98.8281H14.034L14.1437 101.422H48.0473H14.1437" stroke="black" stroke-width="0.259339" stroke-linecap="round" stroke-linejoin="round"/>
<path opacity="0.5" d="M6.44309 101.87H0.208984" stroke="black" stroke-width="0.259339" stroke-linecap="round" stroke-linejoin="round"/>
<path opacity="0.5" d="M6.44336 98.469H14.3632V101.421" stroke="black" stroke-width="0.259339" stroke-linecap="round" stroke-linejoin="round"/>
<path opacity="0.5" d="M2.46484 100.544V98.4888C2.9935 98.02 3.78149 98.02 4.30017 98.4888V100.544C3.77151 101.012 2.98352 101.012 2.46484 100.544Z" stroke="black" stroke-width="0.259339" stroke-linecap="round" stroke-linejoin="round"/>
<path opacity="0.5" d="M0.150391 0.129761V0.449761" stroke="black" stroke-width="0.259339" stroke-linecap="round" stroke-linejoin="round"/>
<path opacity="0.5" d="M1.52539 4.83765V97.2321" stroke="black" stroke-width="0.259339" stroke-linecap="round" stroke-linejoin="round"/>
<path opacity="0.5" d="M94.457 4.83765V94.5988V95.9853V4.83765Z" stroke="black" stroke-width="0.259339" stroke-linecap="round" stroke-linejoin="round"/>
<path opacity="0.5" d="M94.457 4.83765V94.5988V95.9853V97.2421" stroke="black" stroke-width="0.259339" stroke-linecap="round" stroke-linejoin="round"/>
<path opacity="0.5" d="M43.4102 71.2583H43.4502" stroke="black" stroke-width="0.259339" stroke-linecap="round" stroke-linejoin="round"/>
<path opacity="0.5" d="M43.4102 72.2756H43.4602" stroke="black" stroke-width="0.259339" stroke-linecap="round" stroke-linejoin="round"/>
<path opacity="0.5" d="M52.6777 27.8591H89.2146" stroke="black" stroke-width="0.259339" stroke-linecap="round" stroke-linejoin="round"/>
<path opacity="0.5" d="M52.6777 23.6597H89.2146" stroke="black" stroke-width="0.259339" stroke-linecap="round" stroke-linejoin="round"/>
<path opacity="0.5" d="M52.6777 24.9164H89.2146" stroke="black" stroke-width="0.259339" stroke-linecap="round" stroke-linejoin="round"/>
<path opacity="0.5" d="M52.6777 28.9163H89.2146" stroke="black" stroke-width="0.259339" stroke-linecap="round" stroke-linejoin="round"/>
<path opacity="0.5" d="M90.131 90.7787C89.931 90.7987 89.791 90.9287 89.791 91.0787" stroke="black" stroke-width="0.259339" stroke-linecap="round" stroke-linejoin="round"/>
<path opacity="0.5" d="M89.7812 92.6738C89.7812 92.8238 89.9312 92.9538 90.1212 92.9738" stroke="black" stroke-width="0.259339" stroke-linecap="round" stroke-linejoin="round"/>
<path opacity="0.5" d="M90.1309 92.973L93.0833 93.3021L94.4598 93.4617H95.8263V90.22H94.4598L93.0833 90.3995L90.1309 90.7786" stroke="black" stroke-width="0.259339" stroke-linecap="round" stroke-linejoin="round"/>
<path opacity="0.5" d="M90.131 90.7787C89.931 90.7987 89.791 90.9287 89.791 91.0787" stroke="black" stroke-width="0.259339" stroke-linecap="round" stroke-linejoin="round"/>
<path opacity="0.5" d="M89.7812 91.068V91.8759V92.6739" stroke="black" stroke-width="0.259339" stroke-linecap="round" stroke-linejoin="round"/>
<path opacity="0.5" d="M89.7812 92.6738C89.7812 92.8238 89.9312 92.9538 90.1212 92.9738" stroke="black" stroke-width="0.259339" stroke-linecap="round" stroke-linejoin="round"/>
<path opacity="0.5" d="M90.131 36.3672C89.931 36.3872 89.791 36.5172 89.791 36.6672" stroke="black" stroke-width="0.259339" stroke-linecap="round" stroke-linejoin="round"/>
<path opacity="0.5" d="M89.7812 38.2725C89.7812 38.4225 89.9312 38.5525 90.1212 38.5725" stroke="black" stroke-width="0.259339" stroke-linecap="round" stroke-linejoin="round"/>
<path opacity="0.5" d="M90.1309 38.5717L93.0833 38.9009L94.4598 39.0605H95.8263V35.8187H94.4598L93.0833 35.9883L90.1309 36.3673" stroke="black" stroke-width="0.259339" stroke-linecap="round" stroke-linejoin="round"/>
<path opacity="0.5" d="M90.131 36.3672C89.931 36.3872 89.791 36.5172 89.791 36.6672" stroke="black" stroke-width="0.259339" stroke-linecap="round" stroke-linejoin="round"/>
<path opacity="0.5" d="M89.7812 36.6666V37.4746V38.2725" stroke="black" stroke-width="0.259339" stroke-linecap="round" stroke-linejoin="round"/>
<path opacity="0.5" d="M89.7812 38.2725C89.7812 38.4225 89.9312 38.5525 90.1212 38.5725" stroke="black" stroke-width="0.259339" stroke-linecap="round" stroke-linejoin="round"/>
<path opacity="0.5" d="M90.131 63.5679C89.931 63.5879 89.791 63.7179 89.791 63.8679" stroke="black" stroke-width="0.259339" stroke-linecap="round" stroke-linejoin="round"/>
<path opacity="0.5" d="M89.7812 65.4731C89.7812 65.6231 89.9312 65.7531 90.1212 65.7731" stroke="black" stroke-width="0.259339" stroke-linecap="round" stroke-linejoin="round"/>
<path opacity="0.5" d="M90.1309 65.7724L93.0833 66.1015L94.4598 66.2611H95.8263V63.0194H94.4598L93.0833 63.199L90.1309 63.568" stroke="black" stroke-width="0.259339" stroke-linecap="round" stroke-linejoin="round"/>
<path opacity="0.5" d="M90.131 63.5679C89.931 63.5879 89.791 63.7179 89.791 63.8679" stroke="black" stroke-width="0.259339" stroke-linecap="round" stroke-linejoin="round"/>
<path opacity="0.5" d="M89.7812 63.8673V64.6752V65.4732" stroke="black" stroke-width="0.259339" stroke-linecap="round" stroke-linejoin="round"/>
<path opacity="0.5" d="M89.7812 65.4731C89.7812 65.6231 89.9312 65.7531 90.1212 65.7731" stroke="black" stroke-width="0.259339" stroke-linecap="round" stroke-linejoin="round"/>
<path opacity="0.5" d="M90.131 9.1665C89.931 9.1865 89.791 9.3165 89.791 9.4665" stroke="black" stroke-width="0.259339" stroke-linecap="round" stroke-linejoin="round"/>
<path opacity="0.5" d="M89.7812 11.0718C89.7812 11.2218 89.9312 11.3518 90.1212 11.3718" stroke="black" stroke-width="0.259339" stroke-linecap="round" stroke-linejoin="round"/>
<path opacity="0.5" d="M90.1309 11.361L93.0833 11.7002L94.4598 11.8498H95.8263V8.61804H94.4598L93.0833 8.78761L90.1309 9.16664" stroke="black" stroke-width="0.259339" stroke-linecap="round" stroke-linejoin="round"/>
<path opacity="0.5" d="M90.131 9.1665C89.931 9.1865 89.791 9.3165 89.791 9.4665" stroke="black" stroke-width="0.259339" stroke-linecap="round" stroke-linejoin="round"/>
<path opacity="0.5" d="M89.7812 9.46594V10.2639V11.0718" stroke="black" stroke-width="0.259339" stroke-linecap="round" stroke-linejoin="round"/>
<path opacity="0.5" d="M89.7812 11.0718C89.7812 11.2218 89.9312 11.3518 90.1212 11.3718" stroke="black" stroke-width="0.259339" stroke-linecap="round" stroke-linejoin="round"/>
<path opacity="0.5" d="M47.3091 4.82764H6.82227" stroke="black" stroke-width="0.259339" stroke-linecap="round" stroke-linejoin="round"/>
<path opacity="0.5" d="M47.3101 6.20422H2.95312V81.0634V83.6368V94.6089H47.34" stroke="black" stroke-width="0.259339" stroke-linecap="round" stroke-linejoin="round"/>
<path opacity="0.5" d="M24.127 88.7239H25.0147" stroke="black" stroke-width="0.259339" stroke-linecap="round" stroke-linejoin="round"/>
<path opacity="0.5" d="M43.4099 23.6597H6.87305" stroke="black" stroke-width="0.259339" stroke-linecap="round" stroke-linejoin="round"/>
<path opacity="0.5" d="M43.4099 24.9165H6.87305" stroke="black" stroke-width="0.259339" stroke-linecap="round" stroke-linejoin="round"/>
<path opacity="0.5" d="M43.4099 27.859H6.87305" stroke="black" stroke-width="0.259339" stroke-linecap="round" stroke-linejoin="round"/>
<path opacity="0.5" d="M43.4099 28.9163H6.87305" stroke="black" stroke-width="0.259339" stroke-linecap="round" stroke-linejoin="round"/>
<path opacity="0.5" d="M55.957 51.7881H89.2123" stroke="black" stroke-width="0.259339" stroke-linecap="round" stroke-linejoin="round"/>
<path opacity="0.5" d="M55.957 47.5786H89.2123" stroke="black" stroke-width="0.259339" stroke-linecap="round" stroke-linejoin="round"/>
<path opacity="0.5" d="M55.9668 48.8354H89.2121" stroke="black" stroke-width="0.259339" stroke-linecap="round" stroke-linejoin="round"/>
<path opacity="0.5" d="M55.9668 52.8353H89.2121" stroke="black" stroke-width="0.259339" stroke-linecap="round" stroke-linejoin="round"/>
<path opacity="0.5" d="M43.4099 47.5786H6.87305" stroke="black" stroke-width="0.259339" stroke-linecap="round" stroke-linejoin="round"/>
<path opacity="0.5" d="M43.4099 48.8354H6.87305" stroke="black" stroke-width="0.259339" stroke-linecap="round" stroke-linejoin="round"/>
<path opacity="0.5" d="M43.4099 51.7881H6.87305" stroke="black" stroke-width="0.259339" stroke-linecap="round" stroke-linejoin="round"/>
<path opacity="0.5" d="M43.4099 52.8353H6.87305" stroke="black" stroke-width="0.259339" stroke-linecap="round" stroke-linejoin="round"/>
<path opacity="0.5" d="M48.7247 47.9678H44.8047V52.4464H51.4079V47.9678H48.7247Z" stroke="black" stroke-width="0.259339" stroke-linecap="round" stroke-linejoin="round"/>
<path opacity="0.5" d="M52.6777 75.707H89.2146" stroke="black" stroke-width="0.259339" stroke-linecap="round" stroke-linejoin="round"/>
<path opacity="0.5" d="M52.6777 71.4978H89.2146" stroke="black" stroke-width="0.259339" stroke-linecap="round" stroke-linejoin="round"/>
<path opacity="0.5" d="M52.6777 72.7544H89.2146" stroke="black" stroke-width="0.259339" stroke-linecap="round" stroke-linejoin="round"/>
<path opacity="0.5" d="M52.6777 76.7643H89.2146" stroke="black" stroke-width="0.259339" stroke-linecap="round" stroke-linejoin="round"/>
<path opacity="0.5" d="M43.4099 71.4978H6.87305" stroke="black" stroke-width="0.259339" stroke-linecap="round" stroke-linejoin="round"/>
<path opacity="0.5" d="M43.4099 72.7545H6.87305" stroke="black" stroke-width="0.259339" stroke-linecap="round" stroke-linejoin="round"/>
<path opacity="0.5" d="M43.4099 75.707H6.87305" stroke="black" stroke-width="0.259339" stroke-linecap="round" stroke-linejoin="round"/>
<path opacity="0.5" d="M43.4099 76.7643H6.87305" stroke="black" stroke-width="0.259339" stroke-linecap="round" stroke-linejoin="round"/>
<path opacity="0.5" d="M6.87305 11.6902H43.4099V88.7238H39.9188H6.87305V11.6902Z" stroke="black" stroke-width="0.259339" stroke-linecap="round" stroke-linejoin="round"/>
<path opacity="0.5" d="M52.6777 11.6902H89.2146V88.7238H85.7135H52.6777V11.6902Z" stroke="black" stroke-width="0.259339" stroke-linecap="round" stroke-linejoin="round"/>
<path opacity="0.5" d="M5.85547 90.7787C6.05547 90.7987 6.19547 90.9287 6.19547 91.0787" stroke="black" stroke-width="0.259339" stroke-linecap="round" stroke-linejoin="round"/>
<path opacity="0.5" d="M6.19547 92.6738C6.19547 92.8238 6.04547 92.9538 5.85547 92.9738" stroke="black" stroke-width="0.259339" stroke-linecap="round" stroke-linejoin="round"/>
<path opacity="0.5" d="M5.85585 92.973L2.8934 93.3021L1.52688 93.4617H0.150391V90.22H1.52688L2.8934 90.3995L5.85585 90.7786" stroke="black" stroke-width="0.259339" stroke-linecap="round" stroke-linejoin="round"/>
<path opacity="0.5" d="M5.85547 90.7787C6.05547 90.7987 6.19547 90.9287 6.19547 91.0787" stroke="black" stroke-width="0.259339" stroke-linecap="round" stroke-linejoin="round"/>
<path opacity="0.5" d="M6.19531 91.0679V91.8758V92.6738" stroke="black" stroke-width="0.259339" stroke-linecap="round" stroke-linejoin="round"/>
<path opacity="0.5" d="M6.19547 92.6738C6.19547 92.8238 6.04547 92.9538 5.85547 92.9738" stroke="black" stroke-width="0.259339" stroke-linecap="round" stroke-linejoin="round"/>
<path opacity="0.5" d="M5.85547 63.5679C6.05547 63.5879 6.19547 63.7179 6.19547 63.8679" stroke="black" stroke-width="0.259339" stroke-linecap="round" stroke-linejoin="round"/>
<path opacity="0.5" d="M6.19547 65.4731C6.19547 65.6231 6.04547 65.7531 5.85547 65.7731" stroke="black" stroke-width="0.259339" stroke-linecap="round" stroke-linejoin="round"/>
<path opacity="0.5" d="M5.85585 65.7724L2.8934 66.1015L1.52688 66.2611H0.150391V63.0194H1.52688L2.8934 63.199L5.85585 63.568" stroke="black" stroke-width="0.259339" stroke-linecap="round" stroke-linejoin="round"/>
<path opacity="0.5" d="M5.85547 63.5679C6.05547 63.5879 6.19547 63.7179 6.19547 63.8679" stroke="black" stroke-width="0.259339" stroke-linecap="round" stroke-linejoin="round"/>
<path opacity="0.5" d="M6.19531 63.8672V64.6751V65.4731" stroke="black" stroke-width="0.259339" stroke-linecap="round" stroke-linejoin="round"/>
<path opacity="0.5" d="M6.19547 65.4731C6.19547 65.6231 6.04547 65.7531 5.85547 65.7731" stroke="black" stroke-width="0.259339" stroke-linecap="round" stroke-linejoin="round"/>
<path opacity="0.5" d="M5.85547 36.3672C6.05547 36.3872 6.19547 36.5172 6.19547 36.6672" stroke="black" stroke-width="0.259339" stroke-linecap="round" stroke-linejoin="round"/>
<path opacity="0.5" d="M6.19547 38.2725C6.19547 38.4225 6.04547 38.5525 5.85547 38.5725" stroke="black" stroke-width="0.259339" stroke-linecap="round" stroke-linejoin="round"/>
<path opacity="0.5" d="M5.85585 38.5717L2.8934 38.9009L1.52688 39.0605H0.150391V35.8187H1.52688L2.8934 35.9883L5.85585 36.3673" stroke="black" stroke-width="0.259339" stroke-linecap="round" stroke-linejoin="round"/>
<path opacity="0.5" d="M5.85547 36.3672C6.05547 36.3872 6.19547 36.5172 6.19547 36.6672" stroke="black" stroke-width="0.259339" stroke-linecap="round" stroke-linejoin="round"/>
<path opacity="0.5" d="M6.19531 36.6665V37.4645V38.2724" stroke="black" stroke-width="0.259339" stroke-linecap="round" stroke-linejoin="round"/>
<path opacity="0.5" d="M6.19547 38.2725C6.19547 38.4225 6.04547 38.5525 5.85547 38.5725" stroke="black" stroke-width="0.259339" stroke-linecap="round" stroke-linejoin="round"/>
<path opacity="0.5" d="M5.85547 9.1665C6.05547 9.1865 6.19547 9.3165 6.19547 9.4665" stroke="black" stroke-width="0.259339" stroke-linecap="round" stroke-linejoin="round"/>
<path opacity="0.5" d="M6.19547 11.0718C6.19547 11.2218 6.04547 11.3518 5.85547 11.3718" stroke="black" stroke-width="0.259339" stroke-linecap="round" stroke-linejoin="round"/>
<path opacity="0.5" d="M5.85585 11.361L2.8934 11.7002L1.52688 11.8498H0.150391V8.61804H1.52688L2.8934 8.78761L5.85585 9.16664" stroke="black" stroke-width="0.259339" stroke-linecap="round" stroke-linejoin="round"/>
<path opacity="0.5" d="M5.85547 9.1665C6.05547 9.1865 6.19547 9.3165 6.19547 9.4665" stroke="black" stroke-width="0.259339" stroke-linecap="round" stroke-linejoin="round"/>
<path opacity="0.5" d="M6.19531 9.46582V10.2638V11.0717" stroke="black" stroke-width="0.259339" stroke-linecap="round" stroke-linejoin="round"/>
<path opacity="0.5" d="M6.19547 11.0718C6.19547 11.2218 6.04547 11.3518 5.85547 11.3718" stroke="black" stroke-width="0.259339" stroke-linecap="round" stroke-linejoin="round"/>
<path opacity="0.5" d="M25.7654 2.21433C25.7654 1.99489 25.5959 1.82532 25.3764 1.82532H22.7132C22.4938 1.82532 22.3242 2.00486 22.3242 2.21433V3.21178C22.3242 3.43122 22.5038 3.60079 22.7132 3.60079H25.3764C25.5959 3.60079 25.7654 3.42125 25.7654 3.21178V2.21433Z" stroke="black" stroke-width="0.259339" stroke-linecap="round" stroke-linejoin="round"/>
<path opacity="0.5" d="M25.7654 97.9603C25.7654 98.1798 25.5859 98.3493 25.3764 98.3493H22.7132C22.4938 98.3493 22.3242 98.1698 22.3242 97.9603V96.9629C22.3242 96.7434 22.5038 96.5739 22.7132 96.5739H25.3764C25.5959 96.5739 25.7654 96.7534 25.7654 96.9629V97.9603Z" stroke="black" stroke-width="0.259339" stroke-linecap="round" stroke-linejoin="round"/>
<path opacity="0.5" d="M24.6384 1.82532H23.4414V98.3493H24.6384V1.82532Z" stroke="black" stroke-width="0.259339" stroke-linecap="round" stroke-linejoin="round"/>
<path opacity="0.5" d="M23.0411 57.0246C22.6321 57.0246 22.293 56.6855 22.293 56.2765C22.293 55.8676 22.6321 55.5284 23.0411 55.5284H25.036C25.4449 55.5284 25.7841 55.8676 25.7841 56.2765C25.7841 56.6855 25.4449 57.0246 25.036 57.0246H23.0411Z" stroke="black" stroke-width="0.259339" stroke-linecap="round" stroke-linejoin="round"/>
<circle opacity="0.5" cx="25.7843" cy="56.2769" r="0.13" fill="black"/>
<circle opacity="0.5" cx="22.2941" cy="56.277" r="0.13" fill="black"/>
<path opacity="0.5" d="M21.9844 63.2287V61.553H23.4407V63.9668H21.9844V63.2287Z" stroke="black" stroke-width="0.259339" stroke-linecap="round" stroke-linejoin="round"/>
<circle opacity="0.5" cx="17.1573" cy="59.9675" r="0.13" fill="black"/>
<path opacity="0.5" d="M16.539 60.1866C16.7185 60.047 16.938 59.9672 17.1674 59.9672C17.716 59.9672 18.1648 60.416 18.1648 60.9646V63.957C18.1648 64.5056 17.716 64.9545 17.1674 64.9545C16.6188 64.9545 16.1699 64.5056 16.1699 63.957" stroke="black" stroke-width="0.259339" stroke-linecap="round" stroke-linejoin="round"/>
<circle opacity="0.5" cx="17.1573" cy="64.9447" r="0.13" fill="black"/>
<path opacity="0.5" d="M16.1582 63.9469V60.9546H16.5372V60.1865L16.1582 63.9469Z" stroke="black" stroke-width="0.259339" stroke-linecap="round" stroke-linejoin="round"/>
<path opacity="0.5" d="M17.7757 62.5505H16.5488V63.6677H17.7757V62.5505Z" stroke="black" stroke-width="0.259339" stroke-linecap="round" stroke-linejoin="round"/>
<path opacity="0.5" d="M10.3246 63.2287H21.9749V62.2911H10.3246C10.1051 62.2911 9.93555 62.4607 9.93555 62.6801V62.8298C9.93555 63.0492 10.1051 63.2188 10.3246 63.2188V63.2287Z" stroke="black" stroke-width="0.259339" stroke-linecap="round" stroke-linejoin="round"/>
<path opacity="0.5" d="M16.5762 60.6654C16.5762 60.3463 16.8355 60.0869 17.1547 60.0869C17.4739 60.0869 17.7332 60.3463 17.7332 60.6654V61.7527L18.0025 62.1317V62.5606L17.5237 63.0893H16.7757L16.2969 62.5606V62.1317L16.5662 61.7527V60.6654C16.5662 60.6654 16.5662 60.7053 16.5662 60.7153" stroke="black" stroke-width="0.259339" stroke-linecap="round" stroke-linejoin="round"/>
<path opacity="0.5" d="M16.877 62.2218C16.877 62.1418 17.007 62.0718 17.167 62.0718" stroke="black" stroke-width="0.259339" stroke-linecap="round" stroke-linejoin="round"/>
<path opacity="0.5" d="M17.166 62.0718C17.326 62.0718 17.456 62.1418 17.456 62.2218" stroke="black" stroke-width="0.259339" stroke-linecap="round" stroke-linejoin="round"/>
<path opacity="0.5" d="M17.456 62.2213C17.456 62.3113 17.326 62.3713 17.166 62.3713" stroke="black" stroke-width="0.259339" stroke-linecap="round" stroke-linejoin="round"/>
<path opacity="0.5" d="M17.167 62.3814C17.007 62.3814 16.877 62.3114 16.877 62.2314" stroke="black" stroke-width="0.259339" stroke-linecap="round" stroke-linejoin="round"/>
<path opacity="0.5" d="M23.0411 6.48352H25.036C25.4449 6.48352 25.7841 6.82266 25.7841 7.23161V10.593C25.7841 11.002 25.4449 11.3411 25.036 11.3411H23.0411C22.6321 11.3411 22.293 11.002 22.293 10.593V7.23161C22.293 6.82266 22.6321 6.48352 23.0411 6.48352Z" stroke="black" stroke-width="0.259339" stroke-linecap="round" stroke-linejoin="round"/>
<path opacity="0.5" d="M23.0411 89.2125H25.036C25.4449 89.2125 25.7841 89.5517 25.7841 89.9606V93.322C25.7841 93.731 25.4449 94.0701 25.036 94.0701H23.0411C22.6321 94.0701 22.293 93.731 22.293 93.322V89.9606C22.293 89.5517 22.6321 89.2125 23.0411 89.2125Z" stroke="black" stroke-width="0.259339" stroke-linecap="round" stroke-linejoin="round"/>
<path opacity="0.5" d="M42.4217 2.21433C42.4217 1.99489 42.2521 1.82532 42.0327 1.82532H39.3695C39.15 1.82532 38.9805 2.00486 38.9805 2.21433V3.21178C38.9805 3.43122 39.16 3.60079 39.3695 3.60079H42.0327C42.2521 3.60079 42.4217 3.43122 42.4217 3.21178V2.21433Z" stroke="black" stroke-width="0.259339" stroke-linecap="round" stroke-linejoin="round"/>
<path opacity="0.5" d="M42.4217 97.9603C42.4217 98.1798 42.2422 98.3493 42.0327 98.3493H39.3695C39.15 98.3493 38.9805 98.1698 38.9805 97.9603V96.9629C38.9805 96.7434 39.16 96.5739 39.3695 96.5739H42.0327C42.2521 96.5739 42.4217 96.7534 42.4217 96.9629V97.9603Z" stroke="black" stroke-width="0.259339" stroke-linecap="round" stroke-linejoin="round"/>
<path opacity="0.5" d="M41.2927 1.82532H40.0957V98.3493H41.2927V1.82532Z" stroke="black" stroke-width="0.259339" stroke-linecap="round" stroke-linejoin="round"/>
<path opacity="0.5" d="M39.6993 57.0248C39.2903 57.0248 38.9512 56.6856 38.9512 56.2767C38.9512 55.8677 39.2903 55.5286 39.6993 55.5286H41.6942C42.1031 55.5286 42.4423 55.8677 42.4423 56.2767C42.4423 56.6856 42.1031 57.0248 41.6942 57.0248H39.6993Z" stroke="black" stroke-width="0.259339" stroke-linecap="round" stroke-linejoin="round"/>
<circle opacity="0.5" cx="42.4425" cy="56.2769" r="0.13" fill="black"/>
<circle opacity="0.5" cx="38.9523" cy="56.2769" r="0.13" fill="black"/>
<path opacity="0.5" d="M38.6309 63.2287V61.553H40.0971V63.9668H38.6309V63.2287Z" stroke="black" stroke-width="0.259339" stroke-linecap="round" stroke-linejoin="round"/>
<circle opacity="0.5" cx="33.8136" cy="59.9674" r="0.13" fill="black"/>
<path opacity="0.5" d="M33.1855 60.1866C33.365 60.047 33.5844 59.9672 33.8139 59.9672C34.3625 59.9672 34.8113 60.416 34.8113 60.9646V63.957C34.8113 64.5056 34.3625 64.9545 33.8139 64.9545C33.2653 64.9545 32.8164 64.5056 32.8164 63.957" stroke="black" stroke-width="0.259339" stroke-linecap="round" stroke-linejoin="round"/>
<circle opacity="0.5" cx="33.8136" cy="64.9448" r="0.13" fill="black"/>
<path opacity="0.5" d="M32.8164 63.9469V60.9546H33.1855V60.1865L32.8164 63.9469Z" stroke="black" stroke-width="0.259339" stroke-linecap="round" stroke-linejoin="round"/>
<path opacity="0.5" d="M34.4202 62.5505H33.1934V63.6677H34.4202V62.5505Z" stroke="black" stroke-width="0.259339" stroke-linecap="round" stroke-linejoin="round"/>
<path opacity="0.5" d="M26.9828 63.2289H38.6331V62.2913H26.9828C26.7633 62.2913 26.5938 62.4608 26.5938 62.6803V62.8299C26.5938 63.0493 26.7733 63.2189 26.9828 63.2189V63.2289Z" stroke="black" stroke-width="0.259339" stroke-linecap="round" stroke-linejoin="round"/>
<path opacity="0.5" d="M33.2246 60.6653C33.2246 60.3461 33.4839 60.0868 33.8031 60.0868C34.1223 60.0868 34.3817 60.3461 34.3817 60.6653V61.7525L34.651 62.1316V62.5605L34.1722 63.0891H33.4241L32.9453 62.5605V62.1316L33.2146 61.7525V60.6653C33.2146 60.6653 33.2146 60.7052 33.2146 60.7152" stroke="black" stroke-width="0.259339" stroke-linecap="round" stroke-linejoin="round"/>
<path opacity="0.5" d="M33.5332 62.2218C33.5332 62.1418 33.6632 62.0718 33.8232 62.0718" stroke="black" stroke-width="0.259339" stroke-linecap="round" stroke-linejoin="round"/>
<path opacity="0.5" d="M33.8242 62.0718C33.9842 62.0718 34.1142 62.1418 34.1142 62.2218" stroke="black" stroke-width="0.259339" stroke-linecap="round" stroke-linejoin="round"/>
<path opacity="0.5" d="M34.1142 62.2213C34.1142 62.3113 33.9842 62.3713 33.8242 62.3713" stroke="black" stroke-width="0.259339" stroke-linecap="round" stroke-linejoin="round"/>
<path opacity="0.5" d="M33.8232 62.3813C33.6632 62.3813 33.5332 62.3113 33.5332 62.2313" stroke="black" stroke-width="0.259339" stroke-linecap="round" stroke-linejoin="round"/>
<path opacity="0.5" d="M41.6942 6.4834C42.1031 6.4834 42.4423 6.82253 42.4423 7.23149V10.5929C42.4423 11.0019 42.1031 11.341 41.6942 11.341H39.6993C39.2903 11.341 38.9512 11.0019 38.9512 10.5929V7.23149C38.9512 6.82253 39.2903 6.4834 39.6993 6.4834H41.6942Z" stroke="black" stroke-width="0.259339" stroke-linecap="round" stroke-linejoin="round"/>
<path opacity="0.5" d="M41.6942 89.2125C42.1031 89.2125 42.4423 89.5517 42.4423 89.9606V93.322C42.4423 93.731 42.1031 94.0701 41.6942 94.0701H39.6993C39.2903 94.0701 38.9512 93.731 38.9512 93.322V89.9606C38.9512 89.5517 39.2903 89.2125 39.6993 89.2125H41.6942Z" stroke="black" stroke-width="0.259339" stroke-linecap="round" stroke-linejoin="round"/>
<path opacity="0.5" d="M53.6426 2.21433C53.6426 1.99489 53.8221 1.82532 54.0316 1.82532H56.6948C56.9142 1.82532 57.0838 2.00486 57.0838 2.21433V3.21178C57.0838 3.43122 56.9043 3.60079 56.6948 3.60079H54.0316C53.8121 3.60079 53.6426 3.42125 53.6426 3.21178V2.21433Z" stroke="black" stroke-width="0.259339" stroke-linecap="round" stroke-linejoin="round"/>
<path opacity="0.5" d="M53.6426 97.9602C53.6426 98.1796 53.8121 98.3492 54.0316 98.3492H56.6948C56.9142 98.3492 57.0838 98.1697 57.0838 97.9602V96.9627C57.0838 96.7433 56.9043 96.5737 56.6948 96.5737H54.0316C53.8121 96.5737 53.6426 96.7433 53.6426 96.9627V97.9602Z" stroke="black" stroke-width="0.259339" stroke-linecap="round" stroke-linejoin="round"/>
<path opacity="0.5" d="M55.9665 1.82532H54.7695V98.3493H55.9665V1.82532Z" stroke="black" stroke-width="0.259339" stroke-linecap="round" stroke-linejoin="round"/>
<path opacity="0.5" d="M56.3661 55.5284H54.3711C53.9622 55.5284 53.623 55.8676 53.623 56.2765C53.623 56.6855 53.9622 57.0246 54.3711 57.0246H56.3661C56.775 57.0246 57.1141 56.6855 57.1141 56.2765C57.1141 55.8676 56.775 55.5284 56.3661 55.5284Z" stroke="black" stroke-width="0.259339" stroke-linecap="round" stroke-linejoin="round"/>
<circle opacity="0.5" cx="53.6241" cy="56.2769" r="0.13" fill="black"/>
<circle opacity="0.5" cx="57.1027" cy="56.2769" r="0.13" fill="black"/>
<path opacity="0.5" d="M57.4233 63.2288V61.5531H55.957V63.9669H57.4233V63.2288Z" stroke="black" stroke-width="0.259339" stroke-linecap="round" stroke-linejoin="round"/>
<circle opacity="0.5" cx="62.2511" cy="59.9674" r="0.13" fill="black"/>
<path opacity="0.5" d="M61.623 60.1866C61.8025 60.047 62.0219 59.9672 62.2514 59.9672C62.8 59.9672 63.2488 60.416 63.2488 60.9646V63.957C63.2488 64.5056 62.8 64.9545 62.2514 64.9545C61.7028 64.9545 61.2539 64.5056 61.2539 63.957" stroke="black" stroke-width="0.259339" stroke-linecap="round" stroke-linejoin="round"/>
<circle opacity="0.5" cx="62.2511" cy="64.9448" r="0.13" fill="black"/>
<path opacity="0.5" d="M61.2539 63.9469V60.9546H61.623V60.1865L61.2539 63.9469Z" stroke="black" stroke-width="0.259339" stroke-linecap="round" stroke-linejoin="round"/>
<path opacity="0.5" d="M62.8577 62.5505H61.6309V63.6677H62.8577V62.5505Z" stroke="black" stroke-width="0.259339" stroke-linecap="round" stroke-linejoin="round"/>
<path opacity="0.5" d="M77.1735 63.2287H57.4238V62.2911H77.1735C77.3929 62.2911 77.5625 62.4707 77.5625 62.6801V62.8298C77.5625 63.0492 77.383 63.2188 77.1735 63.2188V63.2287Z" stroke="black" stroke-width="0.259339" stroke-linecap="round" stroke-linejoin="round"/>
<path opacity="0.5" d="M61.6621 60.6653C61.6621 60.3461 61.9214 60.0868 62.2406 60.0868C62.5598 60.0868 62.8191 60.3461 62.8191 60.6653V61.7525L63.0885 62.1316V62.5605L62.6097 63.0891H61.8616L61.3828 62.5605V62.1316L61.6521 61.7525V60.6653C61.6521 60.6653 61.6521 60.7052 61.6521 60.7152" stroke="black" stroke-width="0.259339" stroke-linecap="round" stroke-linejoin="round"/>
<path opacity="0.5" d="M61.9727 62.2218C61.9727 62.1418 62.1027 62.0718 62.2627 62.0718" stroke="black" stroke-width="0.259339" stroke-linecap="round" stroke-linejoin="round"/>
<path opacity="0.5" d="M62.2598 62.0718C62.4198 62.0718 62.5498 62.1418 62.5498 62.2218" stroke="black" stroke-width="0.259339" stroke-linecap="round" stroke-linejoin="round"/>
<path opacity="0.5" d="M62.5498 62.2213C62.5498 62.3113 62.4198 62.3713 62.2598 62.3713" stroke="black" stroke-width="0.259339" stroke-linecap="round" stroke-linejoin="round"/>
<path opacity="0.5" d="M62.2627 62.3814C62.1027 62.3814 61.9727 62.3114 61.9727 62.2314" stroke="black" stroke-width="0.259339" stroke-linecap="round" stroke-linejoin="round"/>
<path opacity="0.5" d="M56.6054 56.6456C56.8092 56.6456 56.9744 56.4804 56.9744 56.2765C56.9744 56.0727 56.8092 55.9075 56.6054 55.9075C56.4016 55.9075 56.2363 56.0727 56.2363 56.2765C56.2363 56.4804 56.4016 56.6456 56.6054 56.6456Z" stroke="black" stroke-width="0.259339" stroke-linecap="round" stroke-linejoin="round"/>
<path opacity="0.5" d="M54.1329 56.6555C54.3423 56.6555 54.512 56.4858 54.512 56.2765C54.512 56.0672 54.3423 55.8975 54.1329 55.8975C53.9236 55.8975 53.7539 56.0672 53.7539 56.2765C53.7539 56.4858 53.9236 56.6555 54.1329 56.6555Z" stroke="black" stroke-width="0.259339" stroke-linecap="round" stroke-linejoin="round"/>
<path opacity="0.5" d="M55.37 56.3969C55.4363 56.3969 55.49 56.3431 55.49 56.2769C55.49 56.2106 55.4363 56.1569 55.37 56.1569C55.3037 56.1569 55.25 56.2106 55.25 56.2769C55.25 56.3431 55.3037 56.3969 55.37 56.3969Z" stroke="black" stroke-width="0.259339" stroke-linecap="round" stroke-linejoin="round"/>
<path opacity="0.5" d="M54.3711 6.48352C53.9622 6.48352 53.623 6.82266 53.623 7.23161V10.593C53.623 11.002 53.9622 11.3411 54.3711 11.3411H56.3661C56.775 11.3411 57.1141 11.002 57.1141 10.593V7.23161C57.1141 6.82266 56.775 6.48352 56.3661 6.48352H54.3711Z" stroke="black" stroke-width="0.259339" stroke-linecap="round" stroke-linejoin="round"/>
<path opacity="0.5" d="M54.3711 89.2125C53.9622 89.2125 53.623 89.5517 53.623 89.9606V93.322C53.623 93.731 53.9622 94.0701 54.3711 94.0701H56.3661C56.775 94.0701 57.1141 93.731 57.1141 93.322V89.9606C57.1141 89.5517 56.775 89.2125 56.3661 89.2125H54.3711Z" stroke="black" stroke-width="0.259339" stroke-linecap="round" stroke-linejoin="round"/>
<path opacity="0.5" d="M56.6054 10.962C56.8092 10.962 56.9744 10.7968 56.9744 10.5929C56.9744 10.3891 56.8092 10.2239 56.6054 10.2239C56.4016 10.2239 56.2363 10.3891 56.2363 10.5929C56.2363 10.7968 56.4016 10.962 56.6054 10.962Z" stroke="black" stroke-width="0.259339" stroke-linecap="round" stroke-linejoin="round"/>
<path opacity="0.5" d="M54.1327 10.962C54.3366 10.962 54.5018 10.7968 54.5018 10.5929C54.5018 10.3891 54.3366 10.2239 54.1327 10.2239C53.9289 10.2239 53.7637 10.3891 53.7637 10.5929C53.7637 10.7968 53.9289 10.962 54.1327 10.962Z" stroke="black" stroke-width="0.259339" stroke-linecap="round" stroke-linejoin="round"/>
<path opacity="0.5" d="M55.37 10.7133C55.4363 10.7133 55.49 10.6595 55.49 10.5933C55.49 10.527 55.4363 10.4733 55.37 10.4733C55.3037 10.4733 55.25 10.527 55.25 10.5933C55.25 10.6595 55.3037 10.7133 55.37 10.7133Z" stroke="black" stroke-width="0.259339" stroke-linecap="round" stroke-linejoin="round"/>
<path opacity="0.5" d="M56.6054 7.60055C56.8092 7.60055 56.9744 7.43531 56.9744 7.23149C56.9744 7.02766 56.8092 6.86243 56.6054 6.86243C56.4016 6.86243 56.2363 7.02766 56.2363 7.23149C56.2363 7.43531 56.4016 7.60055 56.6054 7.60055Z" stroke="black" stroke-width="0.259339" stroke-linecap="round" stroke-linejoin="round"/>
<path opacity="0.5" d="M54.1327 7.60055C54.3366 7.60055 54.5018 7.43531 54.5018 7.23149C54.5018 7.02766 54.3366 6.86243 54.1327 6.86243C53.9289 6.86243 53.7637 7.02766 53.7637 7.23149C53.7637 7.43531 53.9289 7.60055 54.1327 7.60055Z" stroke="black" stroke-width="0.259339" stroke-linecap="round" stroke-linejoin="round"/>
<path opacity="0.5" d="M55.37 7.35182C55.4363 7.35182 55.49 7.29809 55.49 7.23182C55.49 7.16554 55.4363 7.11182 55.37 7.11182C55.3037 7.11182 55.25 7.16554 55.25 7.23182C55.25 7.29809 55.3037 7.35182 55.37 7.35182Z" stroke="black" stroke-width="0.259339" stroke-linecap="round" stroke-linejoin="round"/>
<path opacity="0.5" d="M56.6054 93.701C56.8092 93.701 56.9744 93.5358 56.9744 93.332C56.9744 93.1281 56.8092 92.9629 56.6054 92.9629C56.4016 92.9629 56.2363 93.1281 56.2363 93.332C56.2363 93.5358 56.4016 93.701 56.6054 93.701Z" stroke="black" stroke-width="0.259339" stroke-linecap="round" stroke-linejoin="round"/>
<path opacity="0.5" d="M54.1327 93.701C54.3366 93.701 54.5018 93.5358 54.5018 93.332C54.5018 93.1281 54.3366 92.9629 54.1327 92.9629C53.9289 92.9629 53.7637 93.1281 53.7637 93.332C53.7637 93.5358 53.9289 93.701 54.1327 93.701Z" stroke="black" stroke-width="0.259339" stroke-linecap="round" stroke-linejoin="round"/>
<path opacity="0.5" d="M55.37 93.4424C55.4363 93.4424 55.49 93.3887 55.49 93.3224C55.49 93.2561 55.4363 93.2024 55.37 93.2024C55.3037 93.2024 55.25 93.2561 55.25 93.3224C55.25 93.3887 55.3037 93.4424 55.37 93.4424Z" stroke="black" stroke-width="0.259339" stroke-linecap="round" stroke-linejoin="round"/>
<path opacity="0.5" d="M56.6054 90.3297C56.8092 90.3297 56.9744 90.1644 56.9744 89.9606C56.9744 89.7568 56.8092 89.5916 56.6054 89.5916C56.4016 89.5916 56.2363 89.7568 56.2363 89.9606C56.2363 90.1644 56.4016 90.3297 56.6054 90.3297Z" stroke="black" stroke-width="0.259339" stroke-linecap="round" stroke-linejoin="round"/>
<path opacity="0.5" d="M54.1329 90.3399C54.3423 90.3399 54.512 90.1702 54.512 89.9608C54.512 89.7515 54.3423 89.5818 54.1329 89.5818C53.9236 89.5818 53.7539 89.7515 53.7539 89.9608C53.7539 90.1702 53.9236 90.3399 54.1329 90.3399Z" stroke="black" stroke-width="0.259339" stroke-linecap="round" stroke-linejoin="round"/>
<path opacity="0.5" d="M55.37 90.0809C55.4363 90.0809 55.49 90.0272 55.49 89.9609C55.49 89.8947 55.4363 89.8409 55.37 89.8409C55.3037 89.8409 55.25 89.8947 55.25 89.9609C55.25 90.0272 55.3037 90.0809 55.37 90.0809Z" stroke="black" stroke-width="0.259339" stroke-linecap="round" stroke-linejoin="round"/>
<path opacity="0.5" d="M70 62.2913V63.2289" stroke="black" stroke-width="0.259339" stroke-linecap="round" stroke-linejoin="round"/>
<path opacity="0.5" d="M17.1564 64.6253C17.3658 64.6253 17.5254 64.4557 17.5254 64.2562C17.5254 64.0468 17.3559 63.8872 17.1564 63.8772C16.9469 63.8772 16.7873 64.0468 16.7773 64.2562C16.7773 64.4657 16.9469 64.6253 17.1564 64.6253Z" stroke="black" stroke-width="0.259339" stroke-linecap="round" stroke-linejoin="round"/>
<path opacity="0.5" d="M17.1564 61.0343C17.3658 61.0343 17.5254 60.8648 17.5254 60.6553C17.5254 60.4459 17.3559 60.2863 17.1564 60.2863C16.9469 60.2863 16.7873 60.4558 16.7773 60.6553C16.7773 60.8648 16.9469 61.0244 17.1564 61.0343Z" stroke="black" stroke-width="0.259339" stroke-linecap="round" stroke-linejoin="round"/>
<path opacity="0.5" d="M22.7909 56.6556C23.0004 56.6556 23.16 56.486 23.17 56.2865C23.17 56.077 23.0004 55.9075 22.7909 55.9075C22.5815 55.9075 22.4219 56.077 22.4219 56.2865C22.4219 56.496 22.5914 56.6556 22.7909 56.6556Z" stroke="black" stroke-width="0.259339" stroke-linecap="round" stroke-linejoin="round"/>
<path opacity="0.5" d="M25.2655 56.6556C25.475 56.6556 25.6346 56.486 25.6346 56.2865C25.6346 56.077 25.465 55.9174 25.2655 55.9075C25.0561 55.9075 24.8965 56.077 24.8965 56.2865C24.8965 56.496 25.0661 56.6556 25.2655 56.6556Z" stroke="black" stroke-width="0.259339" stroke-linecap="round" stroke-linejoin="round"/>
<path opacity="0.5" d="M24.0399 56.397C24.1099 56.397 24.1599 56.337 24.1599 56.277C24.1599 56.207 24.0999 56.157 24.0399 56.157C23.9699 56.157 23.9199 56.217 23.9199 56.277C23.9199 56.347 23.9799 56.397 24.0399 56.397Z" stroke="black" stroke-width="0.259339" stroke-linecap="round" stroke-linejoin="round"/>
<path opacity="0.5" d="M22.7907 10.9721C23.0002 10.9721 23.1598 10.8026 23.1698 10.6031C23.1698 10.3936 23.0002 10.234 22.8007 10.234C22.5912 10.234 22.4316 10.4036 22.4316 10.6031C22.4316 10.8125 22.6012 10.9721 22.8007 10.9821L22.7907 10.9721Z" stroke="black" stroke-width="0.259339" stroke-linecap="round" stroke-linejoin="round"/>
<path opacity="0.5" d="M25.2655 10.9721C25.475 10.9721 25.6346 10.8026 25.6346 10.6031C25.6346 10.3936 25.465 10.234 25.2655 10.234C25.0561 10.234 24.8965 10.4036 24.8965 10.6031C24.8965 10.8125 25.0661 10.9721 25.2655 10.9821V10.9721Z" stroke="black" stroke-width="0.259339" stroke-linecap="round" stroke-linejoin="round"/>
<path opacity="0.5" d="M24.0399 10.7134C24.1099 10.7134 24.1599 10.6534 24.1599 10.5934C24.1599 10.5234 24.0999 10.4734 24.0399 10.4734C23.9699 10.4734 23.9199 10.5334 23.9199 10.5934C23.9199 10.6634 23.9799 10.7134 24.0399 10.7134Z" stroke="black" stroke-width="0.259339" stroke-linecap="round" stroke-linejoin="round"/>
<path opacity="0.5" d="M22.7907 7.60055C23.0002 7.60055 23.1598 7.43098 23.1698 7.23149C23.1698 7.02202 23.0002 6.86243 22.8007 6.86243C22.5912 6.86243 22.4316 7.03199 22.4316 7.23149C22.4316 7.44095 22.6012 7.60055 22.8007 7.60055H22.7907Z" stroke="black" stroke-width="0.259339" stroke-linecap="round" stroke-linejoin="round"/>
<path opacity="0.5" d="M25.2655 7.60055C25.475 7.60055 25.6346 7.43098 25.6346 7.23149C25.6346 7.02202 25.465 6.86243 25.2655 6.86243C25.0561 6.86243 24.8965 7.03199 24.8965 7.23149C24.8965 7.44095 25.0661 7.60055 25.2655 7.60055Z" stroke="black" stroke-width="0.259339" stroke-linecap="round" stroke-linejoin="round"/>
<path opacity="0.5" d="M24.0399 7.35194C24.1099 7.35194 24.1599 7.29194 24.1599 7.23194C24.1599 7.16194 24.0999 7.11194 24.0399 7.11194C23.9699 7.11194 23.9199 7.17194 23.9199 7.23194C23.9199 7.30194 23.9799 7.35194 24.0399 7.35194Z" stroke="black" stroke-width="0.259339" stroke-linecap="round" stroke-linejoin="round"/>
<path opacity="0.5" d="M22.7907 93.7011C23.0002 93.7011 23.1598 93.5315 23.1698 93.332C23.1698 93.1226 23.0002 92.963 22.8007 92.953C22.5912 92.953 22.4316 93.1226 22.4316 93.3221C22.4316 93.5315 22.6012 93.6911 22.8007 93.6911L22.7907 93.7011Z" stroke="black" stroke-width="0.259339" stroke-linecap="round" stroke-linejoin="round"/>
<path opacity="0.5" d="M25.2655 93.7011C25.475 93.7011 25.6346 93.5315 25.6346 93.332C25.6346 93.1226 25.465 92.963 25.2655 92.953C25.0561 92.953 24.8965 93.1226 24.8965 93.332C24.8965 93.5415 25.0661 93.7011 25.2655 93.7011Z" stroke="black" stroke-width="0.259339" stroke-linecap="round" stroke-linejoin="round"/>
<path opacity="0.5" d="M24.0399 93.4523C24.1099 93.4523 24.1599 93.3923 24.1599 93.3323C24.1599 93.2623 24.0999 93.2123 24.0399 93.2123C23.9699 93.2123 23.9199 93.2723 23.9199 93.3323C23.9199 93.4023 23.9799 93.4523 24.0399 93.4523Z" stroke="black" stroke-width="0.259339" stroke-linecap="round" stroke-linejoin="round"/>
<path opacity="0.5" d="M22.7909 90.3396C23.0004 90.3396 23.16 90.1701 23.17 89.9706C23.17 89.7611 23.0004 89.5916 22.7909 89.5916C22.5815 89.5916 22.4219 89.7611 22.4219 89.9706C22.4219 90.18 22.5914 90.3396 22.7909 90.3396Z" stroke="black" stroke-width="0.259339" stroke-linecap="round" stroke-linejoin="round"/>
<path opacity="0.5" d="M25.2655 90.3396C25.475 90.3396 25.6346 90.1701 25.6346 89.9706C25.6346 89.7611 25.465 89.6015 25.2655 89.5916C25.0561 89.5916 24.8965 89.7611 24.8965 89.9706C24.8965 90.18 25.0661 90.3396 25.2655 90.3396Z" stroke="black" stroke-width="0.259339" stroke-linecap="round" stroke-linejoin="round"/>
<path opacity="0.5" d="M24.0399 90.0908C24.1099 90.0908 24.1599 90.0308 24.1599 89.9708C24.1599 89.9008 24.0999 89.8508 24.0399 89.8508C23.9699 89.8508 23.9199 89.9108 23.9199 89.9708C23.9199 90.0408 23.9799 90.0908 24.0399 90.0908Z" stroke="black" stroke-width="0.259339" stroke-linecap="round" stroke-linejoin="round"/>
<path opacity="0.5" d="M33.8146 64.6253C34.024 64.6253 34.1836 64.4557 34.1836 64.2562C34.1836 64.0468 34.0141 63.8872 33.8146 63.8772C33.6051 63.8772 33.4455 64.0468 33.4355 64.2562C33.4355 64.4657 33.6051 64.6253 33.8046 64.6253H33.8146Z" stroke="black" stroke-width="0.259339" stroke-linecap="round" stroke-linejoin="round"/>
<path opacity="0.5" d="M33.8146 61.0343C34.024 61.0343 34.1836 60.8648 34.1836 60.6553C34.1836 60.4459 34.0141 60.2863 33.8146 60.2863C33.6051 60.2863 33.4455 60.4558 33.4355 60.6553C33.4355 60.8648 33.6051 61.0343 33.8146 61.0343Z" stroke="black" stroke-width="0.259339" stroke-linecap="round" stroke-linejoin="round"/>
<path opacity="0.5" d="M39.4493 56.6557C39.6588 56.6557 39.8184 56.4861 39.8284 56.2866C39.8284 56.0772 39.6588 55.9176 39.4493 55.9076C39.2399 55.9076 39.0803 56.0772 39.0703 56.2866C39.0703 56.4961 39.2399 56.6557 39.4493 56.6557Z" stroke="black" stroke-width="0.259339" stroke-linecap="round" stroke-linejoin="round"/>
<path opacity="0.5" d="M41.924 56.6556C42.1334 56.6556 42.293 56.486 42.293 56.2865C42.293 56.077 42.1234 55.9174 41.924 55.9075C41.7145 55.9075 41.5549 56.077 41.5449 56.2865C41.5449 56.496 41.7145 56.6556 41.924 56.6556Z" stroke="black" stroke-width="0.259339" stroke-linecap="round" stroke-linejoin="round"/>
<path opacity="0.5" d="M40.6962 56.3969C40.7662 56.3969 40.8162 56.3369 40.8162 56.2769C40.8162 56.2069 40.7562 56.1569 40.6962 56.1569C40.6262 56.1569 40.5762 56.2169 40.5762 56.2769C40.5762 56.3469 40.6362 56.3969 40.6962 56.3969Z" stroke="black" stroke-width="0.259339" stroke-linecap="round" stroke-linejoin="round"/>
<path opacity="0.5" d="M39.4493 10.9721C39.6588 10.9721 39.8184 10.8025 39.8284 10.5931C39.8284 10.3836 39.6588 10.224 39.4493 10.224C39.2399 10.224 39.0803 10.3936 39.0703 10.5931C39.0703 10.8025 39.2399 10.9621 39.4493 10.9721Z" stroke="black" stroke-width="0.259339" stroke-linecap="round" stroke-linejoin="round"/>
<path opacity="0.5" d="M41.924 10.9721C42.1334 10.9721 42.293 10.8026 42.293 10.6031C42.293 10.3936 42.1234 10.234 41.924 10.234C41.7145 10.234 41.5549 10.4036 41.5449 10.6031C41.5449 10.8125 41.7145 10.9721 41.924 10.9821V10.9721Z" stroke="black" stroke-width="0.259339" stroke-linecap="round" stroke-linejoin="round"/>
<path opacity="0.5" d="M40.6962 10.7133C40.7662 10.7133 40.8162 10.6533 40.8162 10.5933C40.8162 10.5233 40.7562 10.4733 40.6962 10.4733C40.6262 10.4733 40.5762 10.5333 40.5762 10.5933C40.5762 10.6633 40.6362 10.7133 40.6962 10.7133Z" stroke="black" stroke-width="0.259339" stroke-linecap="round" stroke-linejoin="round"/>
<path opacity="0.5" d="M39.4493 7.60067C39.6588 7.60067 39.8184 7.4311 39.8284 7.23161C39.8284 7.02214 39.6588 6.86255 39.4493 6.86255C39.2399 6.86255 39.0803 7.03212 39.0703 7.23161C39.0703 7.44107 39.2399 7.60067 39.4493 7.60067Z" stroke="black" stroke-width="0.259339" stroke-linecap="round" stroke-linejoin="round"/>
<path opacity="0.5" d="M41.924 7.60055C42.1334 7.60055 42.293 7.43098 42.293 7.23149C42.293 7.02202 42.1234 6.86243 41.924 6.86243C41.7145 6.86243 41.5549 7.03199 41.5449 7.23149C41.5449 7.44095 41.7145 7.60055 41.924 7.60055Z" stroke="black" stroke-width="0.259339" stroke-linecap="round" stroke-linejoin="round"/>
<path opacity="0.5" d="M40.6962 7.35182C40.7662 7.35182 40.8162 7.29182 40.8162 7.23182C40.8162 7.16182 40.7562 7.11182 40.6962 7.11182C40.6262 7.11182 40.5762 7.17182 40.5762 7.23182C40.5762 7.30182 40.6362 7.35182 40.6962 7.35182Z" stroke="black" stroke-width="0.259339" stroke-linecap="round" stroke-linejoin="round"/>
<path opacity="0.5" d="M39.4493 93.7011C39.6588 93.7011 39.8184 93.5315 39.8284 93.332C39.8284 93.1226 39.6588 92.963 39.4493 92.953C39.2399 92.953 39.0803 93.1226 39.0703 93.332C39.0703 93.5415 39.2399 93.7011 39.4493 93.7011Z" stroke="black" stroke-width="0.259339" stroke-linecap="round" stroke-linejoin="round"/>
<path opacity="0.5" d="M41.924 93.7011C42.1334 93.7011 42.293 93.5315 42.293 93.332C42.293 93.1226 42.1234 92.963 41.924 92.953C41.7145 92.953 41.5549 93.1226 41.5449 93.332C41.5449 93.5415 41.7145 93.7011 41.924 93.7011Z" stroke="black" stroke-width="0.259339" stroke-linecap="round" stroke-linejoin="round"/>
<path opacity="0.5" d="M40.6962 93.4524C40.7662 93.4524 40.8162 93.3924 40.8162 93.3324C40.8162 93.2624 40.7562 93.2124 40.6962 93.2124C40.6262 93.2124 40.5762 93.2724 40.5762 93.3324C40.5762 93.4024 40.6362 93.4524 40.6962 93.4524Z" stroke="black" stroke-width="0.259339" stroke-linecap="round" stroke-linejoin="round"/>
<path opacity="0.5" d="M39.4493 90.3396C39.6588 90.3396 39.8184 90.1701 39.8284 89.9706C39.8284 89.7611 39.6588 89.6015 39.4493 89.5916C39.2399 89.5916 39.0803 89.7611 39.0703 89.9706C39.0703 90.18 39.2399 90.3396 39.4493 90.3396Z" stroke="black" stroke-width="0.259339" stroke-linecap="round" stroke-linejoin="round"/>
<path opacity="0.5" d="M41.924 90.3396C42.1334 90.3396 42.293 90.1701 42.293 89.9706C42.293 89.7611 42.1234 89.6015 41.924 89.5916C41.7145 89.5916 41.5549 89.7611 41.5449 89.9706C41.5449 90.18 41.7145 90.3396 41.924 90.3396Z" stroke="black" stroke-width="0.259339" stroke-linecap="round" stroke-linejoin="round"/>
<path opacity="0.5" d="M40.6962 90.091C40.7662 90.091 40.8162 90.0309 40.8162 89.9709C40.8162 89.9009 40.7562 89.851 40.6962 89.851C40.6262 89.851 40.5762 89.9109 40.5762 89.9709C40.5762 90.0409 40.6362 90.091 40.6962 90.091Z" stroke="black" stroke-width="0.259339" stroke-linecap="round" stroke-linejoin="round"/>
<path opacity="0.5" d="M62.2499 64.6253C62.4594 64.6253 62.619 64.4557 62.619 64.2562C62.619 64.0468 62.4494 63.8872 62.2499 63.8772C62.0405 63.8772 61.8809 64.0468 61.8809 64.2562C61.8809 64.4657 62.0504 64.6253 62.2499 64.6253Z" stroke="black" stroke-width="0.259339" stroke-linecap="round" stroke-linejoin="round"/>
<path opacity="0.5" d="M62.2499 61.0343C62.4594 61.0343 62.619 60.8648 62.619 60.6553C62.619 60.4459 62.4494 60.2863 62.2499 60.2863C62.0405 60.2863 61.8809 60.4558 61.8809 60.6553C61.8809 60.8648 62.0504 61.0244 62.2499 61.0343Z" stroke="black" stroke-width="0.259339" stroke-linecap="round" stroke-linejoin="round"/>
</g>
<defs>
<clipPath id="clip0_592_3154">
<rect width="96.0053" height="102" fill="white"/>
</clipPath>
</defs>
</svg>
