<svg width="143" height="118" viewBox="0 0 143 118" fill="none" xmlns="http://www.w3.org/2000/svg">
<path d="M95.25 96H93V13H135V96H95.25V15.25H132.75V96" fill="white"/>
<path d="M95.25 96H93V13H135V96H95.25ZM95.25 96V15.25H132.75V96" stroke="#010101" stroke-width="0.25" stroke-miterlimit="10"/>
<path d="M101.57 57.1201V57.7501" stroke="#010101" stroke-width="0.25" stroke-miterlimit="10"/>
<path d="M127.88 88.5501L125.82 86.5601" stroke="#010101" stroke-width="0.25" stroke-miterlimit="10"/>
<path d="M117.3 88.5501L119.36 86.5601" stroke="#010101" stroke-width="0.25" stroke-miterlimit="10"/>
<path d="M127.88 62.21L125.82 64.2" stroke="#010101" stroke-width="0.25" stroke-miterlimit="10"/>
<path d="M117.3 62.21L119.36 64.2" stroke="#010101" stroke-width="0.25" stroke-miterlimit="10"/>
<path d="M100.13 62.21L102.19 64.2" stroke="#010101" stroke-width="0.25" stroke-miterlimit="10"/>
<path d="M100.13 88.5501L102.19 86.5601" stroke="#010101" stroke-width="0.25" stroke-miterlimit="10"/>
<path d="M110.71 88.5501L108.65 86.5601" stroke="#010101" stroke-width="0.25" stroke-miterlimit="10"/>
<path d="M110.71 62.21L108.65 64.2" stroke="#010101" stroke-width="0.25" stroke-miterlimit="10"/>
<path d="M95.25 95.75H132.75" stroke="#010101" stroke-width="0.25" stroke-miterlimit="10"/>
<path d="M98.28 57.7501H98.26L98.24 57.7801H98.22L98.2 57.8001H98.18L98.16 57.8201H98.14H98.12H98.1H98.08H98.06H98.04H98.02H98H97.98L97.96 57.8001H97.94L97.92 57.7801H97.9L97.88 57.7501L97.86 57.7301L97.84 57.7101L97.82 57.6901L97.8 57.6701L97.78 57.6501V57.6301L97.75 57.6101M97.75 57.6101V57.6301M97.75 57.6101V57.5901L97.73 57.5701V57.5501L97.71 57.5301V57.5101V57.4901V57.4701V57.4501V57.4301V57.4101V57.3901V57.3701V57.3501L97.73 57.3301V57.3101L97.75 57.2901V57.2701L97.78 57.2501L97.8 57.2301L97.82 57.2101L97.84 57.1901L97.86 57.1701L97.88 57.1501H97.9L97.92 57.1201H97.94L97.96 57.1001H97.98L98 57.0801H98.02H98.04H98.06H98.08H98.1H98.12H98.14H98.16H98.18L98.2 57.1001H98.22L98.24 57.1201H98.26L98.28 57.1501" stroke="#010101" stroke-width="0.25" stroke-miterlimit="10"/>
<path d="M97.2199 62.09L97.1899 62.04L97.1599 61.98" stroke="#010101" stroke-width="0.25" stroke-miterlimit="10"/>
<path d="M98.3101 61.0801V61.1001L98.3301 61.1201" stroke="#010101" stroke-width="0.25" stroke-miterlimit="10"/>
<path d="M97.77 61.4099V61.3899V61.3699L97.75 61.3499V61.3299L97.74 61.3099V61.2899V61.2699V61.2499V61.2299V61.2099V61.1899V61.1699V61.1499V61.1299L97.75 61.1099V61.0899L97.77 61.0699V61.0499L97.79 61.0299V61.0099L97.82 60.9999H97.83L97.85 60.9699H97.87L97.89 60.9499H97.91L97.93 60.9299H97.95L97.97 60.9199H97.99H98.01H98.03H98.05H98.07H98.09H98.11H98.13H98.15L98.17 60.9299H98.19L98.21 60.9499H98.23L98.25 60.9699H98.27L98.29 60.9899H98.3L98.31 61.0199V61.0399L98.33 61.0599V61.0799L98.35 61.0999V61.1199L98.37 61.1399V61.1599L98.38 61.1799V61.1999V61.2199V61.2399V61.2599V61.2799V61.2999V61.3199V61.3399V61.3599L98.37 61.3799V61.3999L98.35 61.4199V61.4399L98.33 61.4599H98.32V62.1699H97.86V61.4899H97.85L97.84 61.4599V61.4399L97.82 61.4199V61.4399" stroke="#010101" stroke-width="0.25" stroke-miterlimit="10"/>
<path d="M97.2201 62.0898L97.2501 62.1398L97.2901 62.1898L97.3301 62.2398L97.3701 62.2798L97.4201 62.3198L97.4701 62.3598L97.5201 62.3898L97.5701 62.4198L97.6301 62.4498L97.6901 62.4698L97.7501 62.4898L97.8101 62.5098H97.8701L97.9301 62.5298H97.9901H98.0501H98.1101H98.1701H98.2301L98.2901 62.5098L98.3501 62.4898L98.4101 62.4698L98.4701 62.4498L98.5301 62.4198L98.5801 62.3898L98.6301 62.3598L98.6801 62.3198L98.7301 62.2798L98.7701 62.2398L98.8101 62.1898L98.8501 62.1398L98.8801 62.0898L98.9101 62.0398L98.9401 61.9798L98.9601 61.9198L98.9801 61.8598L99.0001 61.7998V61.7398L99.0201 61.6798V61.6198V61.5598V61.4998V61.4398V61.3798L99.0001 61.3198L98.9801 61.2598L98.9601 61.1998L98.9401 61.1398L98.9101 61.0798L98.8801 61.0298L98.8501 60.9798L98.8101 60.9298L98.7701 60.8798L98.7301 60.8398L98.6801 60.7998L98.6301 60.7598L98.5801 60.7298L98.5301 60.6998L98.4701 60.6698L98.4101 60.6498L98.3501 60.6298L98.2901 60.6098H98.2301L98.1701 60.5898H98.1101H98.0501H97.9901H97.9301H97.8701L97.8101 60.6098L97.7501 60.6298L97.6901 60.6498L97.6301 60.6698L97.5701 60.6998L97.5201 60.7298L97.4701 60.7598L97.4201 60.7998L97.3701 60.8398L97.3301 60.8798L97.2901 60.9298L97.2501 60.9798L97.2201 61.0298L97.1901 61.0798L97.1601 61.1398L97.1401 61.1998L97.1201 61.2598L97.1001 61.3198V61.3798L97.0801 61.4398V61.4998V61.5598V61.6198V61.6798V61.7398L97.1001 61.7998L97.1201 61.8598L97.1401 61.9198L97.1601 61.9798L97.1901 62.0398L97.2201 62.0898Z" stroke="#010101" stroke-width="0.25" stroke-miterlimit="10"/>
<path d="M100.13 57.1202V20.9702H127.88V58.7302H100.13V57.7402" stroke="#010101" stroke-width="0.25" stroke-miterlimit="10"/>
<path d="M101.76 57.75H126.85V21.96H101.16V57.11" stroke="#010101" stroke-width="0.25" stroke-miterlimit="10"/>
<path d="M96.01 95C96.01 68.67 96.01 42.33 96.01 16H132.01C132.01 42.33 132.01 68.67 132.01 95H96.01Z" stroke="#010101" stroke-width="0.25" stroke-miterlimit="10"/>
<path d="M98.3 57.7401H98.29L101.57 57.7501H101.77V57.1201H98.29H98.3" stroke="#010101" stroke-width="0.25" stroke-miterlimit="10"/>
<path d="M95.5 95.75V15.5H132.5V95.75" stroke="#010101" stroke-width="0.25" stroke-miterlimit="10"/>
<path d="M98.9901 57.13L98.9701 57.07L98.9501 57.01L98.9201 56.95L98.8901 56.9L98.8601 56.85L98.8201 56.8L98.7801 56.75L98.7401 56.71L98.6901 56.67L98.6401 56.63L98.5901 56.6L98.5401 56.57L98.4801 56.54L98.4201 56.52L98.3601 56.5L98.3001 56.48H98.2401L98.1801 56.46H98.1201H98.0601H98.0001H97.9401H97.8801L97.8201 56.48L97.7601 56.5L97.7001 56.52L97.6401 56.54L97.5801 56.57L97.5301 56.6L97.4801 56.63L97.4301 56.67L97.3801 56.71L97.3401 56.75L97.3001 56.8L97.2601 56.85L97.2301 56.9L97.2001 56.95L97.1701 57.01L97.1501 57.07L97.1301 57.13L97.1101 57.19V57.25L97.0901 57.31V57.37V57.43V57.49V57.55V57.61L97.1101 57.67L97.1301 57.73L97.1501 57.79L97.1701 57.85L97.2001 57.91L97.2301 57.96L97.2601 58.01L97.3001 58.06L97.3401 58.11L97.3801 58.15L97.4301 58.19L97.4801 58.23L97.5301 58.26L97.5801 58.29L97.6401 58.32L97.7001 58.34L97.7601 58.36L97.8201 58.38H97.8801L97.9401 58.4H98.0001H98.0601H98.1201H98.1801H98.2401L98.3001 58.38L98.3601 58.36L98.4201 58.34L98.4801 58.32L98.5401 58.29L98.5901 58.26L98.6401 58.23L98.6901 58.19L98.7401 58.15L98.7801 58.11L98.8201 58.06L98.8601 58.01L98.8901 57.96L98.9201 57.91L98.9501 57.85L98.9701 57.79L98.9901 57.73" stroke="#010101" stroke-width="0.25" stroke-miterlimit="10"/>
<path d="M100.13 62.21V88.54H110.71V62.21H100.13Z" stroke="#010101" stroke-width="0.25" stroke-miterlimit="10"/>
<path d="M117.3 62.21V88.54H127.88V62.21H117.3Z" stroke="#010101" stroke-width="0.25" stroke-miterlimit="10"/>
<path d="M125.82 86.5602H119.35V64.2002H125.82V86.5602Z" stroke="#010101" stroke-width="0.25" stroke-miterlimit="10"/>
<path d="M108.65 86.5602H102.18V64.2002H108.65V86.5602Z" stroke="#010101" stroke-width="0.25" stroke-miterlimit="10"/>
<path d="M141.5 0.120117V8.58012H141V16.4801H87.2102V8.58012H86.7102V0.120117H141.5Z" fill="white"/>
<path d="M142.34 61.4502V117.82H90.9301V103.82H6.12012V117.82H0.120117V61.4502H96.9301V96.4502H136.34V61.4502H142.34Z" fill="white"/>
<path d="M24.49 68.3801V65.6602H26.78V68.3801H24.49Z" stroke="#231F20" stroke-width="0.25" stroke-miterlimit="10"/>
<path d="M136.35 100.73H96.9402" stroke="#231F20" stroke-width="0.25" stroke-miterlimit="10"/>
<path d="M142.34 112.55V80.71" stroke="#231F20" stroke-width="0.25" stroke-miterlimit="10"/>
<path d="M90.9402 61.4502H96.9402V112.55" stroke="#231F20" stroke-width="0.25" stroke-miterlimit="10"/>
<path d="M136.35 78.71H142.35" stroke="#231F20" stroke-width="0.25" stroke-miterlimit="10"/>
<path d="M136.35 97.8301H96.9402" stroke="#231F20" stroke-width="0.25" stroke-miterlimit="10"/>
<path d="M90.9401 63.4502H6.13013V61.4502H90.9401V112.55" stroke="#231F20" stroke-width="0.25" stroke-miterlimit="10"/>
<path d="M136.35 80.71V61.46H142.35V80.71H136.35ZM136.35 80.71V112.55" stroke="#231F20" stroke-width="0.25" stroke-miterlimit="10"/>
<path d="M96.9402 108.28H136.35" stroke="#231F20" stroke-width="0.25" stroke-miterlimit="10"/>
<path d="M90.9401 94.4502H6.13013" stroke="#231F20" stroke-width="0.25" stroke-miterlimit="10"/>
<path d="M0.120117 97.83V96.46H90.9401" stroke="#231F20" stroke-width="0.25" stroke-miterlimit="10"/>
<path d="M96.9402 104H136.35" stroke="#231F20" stroke-width="0.25" stroke-miterlimit="10"/>
<path d="M6.13013 63.4502V96.4502" stroke="#231F20" stroke-width="0.25" stroke-miterlimit="10"/>
<path d="M96.9402 99.73H136.35" stroke="#231F20" stroke-width="0.25" stroke-miterlimit="10"/>
<path d="M136.35 109.28H96.9402" stroke="#231F20" stroke-width="0.25" stroke-miterlimit="10"/>
<path d="M90.9402 80.71H96.9402" stroke="#231F20" stroke-width="0.25" stroke-miterlimit="10"/>
<path d="M0.120117 96.4502V61.4502H6.12012" stroke="#231F20" stroke-width="0.25" stroke-miterlimit="10"/>
<path d="M141.5 7.83012H86.7102M86.7102 7.83012V0.120117H141.5V8.58012H86.7102V7.83012Z" stroke="#231F20" stroke-width="0.25" stroke-miterlimit="10"/>
<path d="M90.9401 65.4502H6.13013" stroke="#231F20" stroke-width="0.25" stroke-miterlimit="10"/>
<path d="M136.35 105H96.9402" stroke="#231F20" stroke-width="0.25" stroke-miterlimit="10"/>
<path d="M96.9402 96.4502H136.35" stroke="#231F20" stroke-width="0.25" stroke-miterlimit="10"/>
<path d="M0.120117 103.83V97.8301H90.9301" stroke="#231F20" stroke-width="0.25" stroke-miterlimit="10"/>
<path d="M90.9401 103.83H6.13013" stroke="#231F20" stroke-width="0.25" stroke-miterlimit="10"/>
<path d="M142.34 113.55V117.82H90.9302V113.55" stroke="#231F20" stroke-width="0.25" stroke-miterlimit="10"/>
<path d="M6.13013 92.4502H90.9401" stroke="#231F20" stroke-width="0.25" stroke-miterlimit="10"/>
<path d="M142.34 113.55H90.9302V112.55H142.34V113.55Z" stroke="#231F20" stroke-width="0.25" stroke-miterlimit="10"/>
<path d="M90.9402 78.71H96.9402" stroke="#231F20" stroke-width="0.25" stroke-miterlimit="10"/>
<path d="M6.13012 103.83V117.83H0.120117V103.83H6.12012H6.13012Z" stroke="#231F20" stroke-width="0.25" stroke-miterlimit="10"/>
<path d="M89.1401 90.4502V65.4502" stroke="#231F20" stroke-width="0.25" stroke-miterlimit="10"/>
<path d="M10.6201 87.5303V90.2503H8.33008V87.5303H10.6201Z" stroke="#231F20" stroke-width="0.25" stroke-miterlimit="10"/>
<path d="M10.6201 87.1301H8.32007V84.4102H10.6101V87.1301H10.6201Z" stroke="#231F20" stroke-width="0.25" stroke-miterlimit="10"/>
<path d="M10.6201 74.6301H8.33008V71.9102H10.6301V74.6301H10.6201Z" stroke="#231F20" stroke-width="0.25" stroke-miterlimit="10"/>
<path d="M10.6201 68.3801H8.33008V65.6602H10.6301V68.3801H10.6201Z" stroke="#231F20" stroke-width="0.25" stroke-miterlimit="10"/>
<path d="M13.31 68.3799H11.02V65.6499H13.31V68.3699V68.3799Z" stroke="#231F20" stroke-width="0.25" stroke-miterlimit="10"/>
<path d="M13.31 71.8999V74.6199H11.02V71.8999H13.31Z" stroke="#231F20" stroke-width="0.25" stroke-miterlimit="10"/>
<path d="M13.32 80.8801H11.02V78.1602H13.31V80.8801H13.32Z" stroke="#231F20" stroke-width="0.25" stroke-miterlimit="10"/>
<path d="M13.31 81.2803V84.0103H11.02V81.2903H13.31V81.2803Z" stroke="#231F20" stroke-width="0.25" stroke-miterlimit="10"/>
<path d="M16.0102 68.3799H13.7202V65.6499H16.0102V68.3699V68.3799Z" stroke="#231F20" stroke-width="0.25" stroke-miterlimit="10"/>
<path d="M16.0102 71.8999V74.6199H13.7202V71.8999H16.0102Z" stroke="#231F20" stroke-width="0.25" stroke-miterlimit="10"/>
<path d="M16.0102 80.8801H13.7102V78.1602H16.0002V80.8902L16.0102 80.8801Z" stroke="#231F20" stroke-width="0.25" stroke-miterlimit="10"/>
<path d="M16.0102 84.3999V87.1199H13.7202V84.3999H16.0102Z" stroke="#231F20" stroke-width="0.25" stroke-miterlimit="10"/>
<path d="M11.02 87.52V90.25H13.32V87.53H11.02V87.52Z" stroke="#231F20" stroke-width="0.25" stroke-miterlimit="10"/>
<path d="M18.7001 87.1301H16.4001V84.4102H18.6901V87.1301H18.7001Z" stroke="#231F20" stroke-width="0.25" stroke-miterlimit="10"/>
<path d="M13.7202 90.2503H16.0102V87.5303H13.7202V90.2603V90.2503Z" stroke="#231F20" stroke-width="0.25" stroke-miterlimit="10"/>
<path d="M21.3901 87.53V90.25H19.1001V87.52H21.3901V87.53Z" stroke="#231F20" stroke-width="0.25" stroke-miterlimit="10"/>
<path d="M24.09 81.2803V84.0003H21.8V81.2803H24.09Z" stroke="#231F20" stroke-width="0.25" stroke-miterlimit="10"/>
<path d="M24.09 84.3999V87.1199H21.8V84.3999H24.09Z" stroke="#231F20" stroke-width="0.25" stroke-miterlimit="10"/>
<path d="M19.1001 87.1301H21.3901V84.4102H19.1001V87.1301Z" stroke="#231F20" stroke-width="0.25" stroke-miterlimit="10"/>
<path d="M26.7802 87.53V90.25H24.4902V87.52H26.7802V87.53Z" stroke="#231F20" stroke-width="0.25" stroke-miterlimit="10"/>
<path d="M29.4802 87.5303V90.2503H27.1902V87.5303H29.4802Z" stroke="#231F20" stroke-width="0.25" stroke-miterlimit="10"/>
<path d="M32.1701 87.1301H29.8801V84.4102H32.1801V87.1301H32.1701Z" stroke="#231F20" stroke-width="0.25" stroke-miterlimit="10"/>
<path d="M27.1802 87.1301H29.4802V84.4102H27.1902V87.1402L27.1802 87.1301Z" stroke="#231F20" stroke-width="0.25" stroke-miterlimit="10"/>
<path d="M29.8801 84.0003H32.1801V81.2803H29.8901V84.0003H29.8801Z" stroke="#231F20" stroke-width="0.25" stroke-miterlimit="10"/>
<path d="M37.56 87.5303V90.2503H35.27V87.5303H37.56Z" stroke="#231F20" stroke-width="0.25" stroke-miterlimit="10"/>
<path d="M32.5701 81.27V84H34.8601V81.28H32.5701V81.27Z" stroke="#231F20" stroke-width="0.25" stroke-miterlimit="10"/>
<path d="M32.5701 87.1301H34.8601V84.4102H32.5701V87.1301Z" stroke="#231F20" stroke-width="0.25" stroke-miterlimit="10"/>
<path d="M40.2502 87.5303V90.2503H37.9602V87.5303H40.2502Z" stroke="#231F20" stroke-width="0.25" stroke-miterlimit="10"/>
<path d="M42.9502 87.1301H40.6602V84.4102H42.9502V87.1301Z" stroke="#231F20" stroke-width="0.25" stroke-miterlimit="10"/>
<path d="M37.9602 81.2803V84.0003H40.2602V81.2803H37.9602Z" stroke="#231F20" stroke-width="0.25" stroke-miterlimit="10"/>
<path d="M45.6401 87.1299H43.3501V84.3999H45.6401V87.1199V87.1299Z" stroke="#231F20" stroke-width="0.25" stroke-miterlimit="10"/>
<path d="M40.6501 81.27V84H42.9401V81.28H40.6501V81.27Z" stroke="#231F20" stroke-width="0.25" stroke-miterlimit="10"/>
<path d="M48.33 87.5303V90.2503H46.04V87.5303H48.33Z" stroke="#231F20" stroke-width="0.25" stroke-miterlimit="10"/>
<path d="M51.0302 87.5303V90.2503H48.7402V87.5303H51.0302Z" stroke="#231F20" stroke-width="0.25" stroke-miterlimit="10"/>
<path d="M46.04 81.2803V84.0003H48.34V81.2803H46.04Z" stroke="#231F20" stroke-width="0.25" stroke-miterlimit="10"/>
<path d="M53.7202 81.28V84H51.4302V81.27H53.7202V81.28Z" stroke="#231F20" stroke-width="0.25" stroke-miterlimit="10"/>
<path d="M53.7202 90.2503H51.4302V87.5303H53.7202V90.2503Z" stroke="#231F20" stroke-width="0.25" stroke-miterlimit="10"/>
<path d="M56.4101 87.5303V90.2503H54.1201V87.5303H56.4101Z" stroke="#231F20" stroke-width="0.25" stroke-miterlimit="10"/>
<path d="M59.1101 87.5303V90.2503H56.8201V87.5303H59.1101Z" stroke="#231F20" stroke-width="0.25" stroke-miterlimit="10"/>
<path d="M54.1201 87.1301H56.4101V84.4102H54.1201V87.1402V87.1301Z" stroke="#231F20" stroke-width="0.25" stroke-miterlimit="10"/>
<path d="M61.8 87.1301H59.51V84.4102H61.8V87.1301Z" stroke="#231F20" stroke-width="0.25" stroke-miterlimit="10"/>
<path d="M56.8101 81.2803V84.0103H59.1101V81.2903H56.8101V81.2803Z" stroke="#231F20" stroke-width="0.25" stroke-miterlimit="10"/>
<path d="M64.5002 87.1301H62.2102V84.4102H64.5002V87.1301Z" stroke="#231F20" stroke-width="0.25" stroke-miterlimit="10"/>
<path d="M64.4902 87.5303V90.2503H62.2002V87.5303H64.4902Z" stroke="#231F20" stroke-width="0.25" stroke-miterlimit="10"/>
<path d="M67.1901 81.28V84H64.9001V81.27H67.1901V81.28Z" stroke="#231F20" stroke-width="0.25" stroke-miterlimit="10"/>
<path d="M67.1901 87.5303V90.2503H64.9001V87.5303H67.1901Z" stroke="#231F20" stroke-width="0.25" stroke-miterlimit="10"/>
<path d="M69.8801 87.5303V90.2503H67.5901V87.5303H69.8801Z" stroke="#231F20" stroke-width="0.25" stroke-miterlimit="10"/>
<path d="M72.58 87.1301H70.29V84.4102H72.58V87.1301Z" stroke="#231F20" stroke-width="0.25" stroke-miterlimit="10"/>
<path d="M67.5901 84.0003H69.8801V81.2803H67.5901V84.0103V84.0003Z" stroke="#231F20" stroke-width="0.25" stroke-miterlimit="10"/>
<path d="M75.2702 87.1301H72.9802V84.4102H75.2702V87.1301Z" stroke="#231F20" stroke-width="0.25" stroke-miterlimit="10"/>
<path d="M77.9602 81.28V84H75.6702V81.27H77.9602V81.28Z" stroke="#231F20" stroke-width="0.25" stroke-miterlimit="10"/>
<path d="M77.9602 87.5303V90.2503H75.6702V87.5303H77.9602Z" stroke="#231F20" stroke-width="0.25" stroke-miterlimit="10"/>
<path d="M80.6601 84.0003H78.3701V81.2803H80.6701V84.0003H80.6601Z" stroke="#231F20" stroke-width="0.25" stroke-miterlimit="10"/>
<path d="M80.6601 87.1301H78.3701V84.4102H80.6601V87.1301Z" stroke="#231F20" stroke-width="0.25" stroke-miterlimit="10"/>
<path d="M83.3501 87.5303V90.2503H81.0601V87.5303H83.3501Z" stroke="#231F20" stroke-width="0.25" stroke-miterlimit="10"/>
<path d="M88.7402 87.5303V90.2503H86.4502V87.5303H88.7402Z" stroke="#231F20" stroke-width="0.25" stroke-miterlimit="10"/>
<path d="M21.3901 78.1499V80.8699H19.1001V78.1499H21.3901Z" stroke="#231F20" stroke-width="0.25" stroke-miterlimit="10"/>
<path d="M26.7802 78.1499V80.8699H24.4902V78.1499H26.7802Z" stroke="#231F20" stroke-width="0.25" stroke-miterlimit="10"/>
<path d="M37.56 78.1499V80.8699H35.27V78.1499H37.56Z" stroke="#231F20" stroke-width="0.25" stroke-miterlimit="10"/>
<path d="M37.56 77.7503H35.27V75.0303H37.56V77.7503Z" stroke="#231F20" stroke-width="0.25" stroke-miterlimit="10"/>
<path d="M18.7002 77.7503H16.4102V75.0303H18.7002V77.7503Z" stroke="#231F20" stroke-width="0.25" stroke-miterlimit="10"/>
<path d="M37.56 71.8999V74.6199H35.26V71.8999H37.56Z" stroke="#231F20" stroke-width="0.25" stroke-miterlimit="10"/>
<path d="M21.4001 71.8999H19.1101V74.6199H21.4001V71.8999Z" stroke="#231F20" stroke-width="0.25" stroke-miterlimit="10"/>
<path d="M37.56 68.7803V71.5003H35.27V68.7803H37.56Z" stroke="#231F20" stroke-width="0.25" stroke-miterlimit="10"/>
<path d="M18.7002 68.7803H16.4102V71.5003H18.7002V68.7803Z" stroke="#231F20" stroke-width="0.25" stroke-miterlimit="10"/>
<path d="M21.4001 68.3799H19.1101V65.6499H21.4001V68.3699V68.3799Z" stroke="#231F20" stroke-width="0.25" stroke-miterlimit="10"/>
<path d="M32.1701 68.3799H29.8801V65.6499H32.1701V68.3699V68.3799Z" stroke="#231F20" stroke-width="0.25" stroke-miterlimit="10"/>
<path d="M32.1701 71.8999V74.6199H29.8801V71.8999H32.1701Z" stroke="#231F20" stroke-width="0.25" stroke-miterlimit="10"/>
<path d="M32.1701 78.1499V80.8799H29.8801V78.1599H32.1701V78.1499Z" stroke="#231F20" stroke-width="0.25" stroke-miterlimit="10"/>
<path d="M34.8601 68.7803V71.5003H32.5701V68.7803H34.8601Z" stroke="#231F20" stroke-width="0.25" stroke-miterlimit="10"/>
<path d="M34.8601 71.8999V74.6199H32.5701V71.8999H34.8601Z" stroke="#231F20" stroke-width="0.25" stroke-miterlimit="10"/>
<path d="M34.8601 77.7503H32.5701V75.0303H34.8601V77.7503Z" stroke="#231F20" stroke-width="0.25" stroke-miterlimit="10"/>
<path d="M40.2502 68.3799H37.9602V65.6499H40.2502V68.3699V68.3799Z" stroke="#231F20" stroke-width="0.25" stroke-miterlimit="10"/>
<path d="M40.2502 71.8999V74.6199H37.9602V71.8999H40.2502Z" stroke="#231F20" stroke-width="0.25" stroke-miterlimit="10"/>
<path d="M40.2502 78.1499V80.8799H37.9602V78.1599H40.2502V78.1499Z" stroke="#231F20" stroke-width="0.25" stroke-miterlimit="10"/>
<path d="M42.9401 68.7803V71.5003H40.6501V68.7803H42.9401Z" stroke="#231F20" stroke-width="0.25" stroke-miterlimit="10"/>
<path d="M42.9501 77.7503H40.6501V75.0303H42.9401V77.7503H42.9501Z" stroke="#231F20" stroke-width="0.25" stroke-miterlimit="10"/>
<path d="M45.6401 68.3801H43.3401V65.6602H45.6401V68.3801Z" stroke="#231F20" stroke-width="0.25" stroke-miterlimit="10"/>
<path d="M45.6401 77.7503H43.3401V75.0303H45.6301V77.7603L45.6401 77.7503Z" stroke="#231F20" stroke-width="0.25" stroke-miterlimit="10"/>
<path d="M48.33 71.8999V74.6199H46.04V71.8999H48.33Z" stroke="#231F20" stroke-width="0.25" stroke-miterlimit="10"/>
<path d="M48.33 78.1499V80.8799H46.04V78.1599H48.33V78.1499Z" stroke="#231F20" stroke-width="0.25" stroke-miterlimit="10"/>
<path d="M51.0302 71.8999V74.6299H48.7402V71.9099H51.0302V71.8999Z" stroke="#231F20" stroke-width="0.25" stroke-miterlimit="10"/>
<path d="M51.0302 78.1499V80.8799H48.7402V78.1599H51.0302V78.1499Z" stroke="#231F20" stroke-width="0.25" stroke-miterlimit="10"/>
<path d="M53.7202 71.8999V74.6199H51.4302V71.8999H53.7202Z" stroke="#231F20" stroke-width="0.25" stroke-miterlimit="10"/>
<path d="M53.7202 78.1499V80.8799H51.4302V78.1599H53.7202V78.1499Z" stroke="#231F20" stroke-width="0.25" stroke-miterlimit="10"/>
<path d="M56.4101 71.8999V74.6199H54.1201V71.8999H56.4101Z" stroke="#231F20" stroke-width="0.25" stroke-miterlimit="10"/>
<path d="M56.4101 77.7503H54.1201V75.0303H56.4101V77.7603V77.7503Z" stroke="#231F20" stroke-width="0.25" stroke-miterlimit="10"/>
<path d="M56.4101 78.1499V80.8799H54.1201V78.1599H56.4101V78.1499Z" stroke="#231F20" stroke-width="0.25" stroke-miterlimit="10"/>
<path d="M59.1101 71.8999V74.6299H56.8201V71.9099H59.1101V71.8999Z" stroke="#231F20" stroke-width="0.25" stroke-miterlimit="10"/>
<path d="M59.1101 78.1499V80.8799H56.8201V78.1599H59.1101V78.1499Z" stroke="#231F20" stroke-width="0.25" stroke-miterlimit="10"/>
<path d="M61.8 71.8999V74.6299H59.51V71.9099H61.8V71.8999Z" stroke="#231F20" stroke-width="0.25" stroke-miterlimit="10"/>
<path d="M61.8 78.1499V80.8799H59.51V78.1599H61.8V78.1499Z" stroke="#231F20" stroke-width="0.25" stroke-miterlimit="10"/>
<path d="M64.4902 71.8999V74.6199H62.2002V71.8999H64.4902Z" stroke="#231F20" stroke-width="0.25" stroke-miterlimit="10"/>
<path d="M64.4902 78.1499V80.8699H62.2002V78.1499H64.4902Z" stroke="#231F20" stroke-width="0.25" stroke-miterlimit="10"/>
<path d="M67.1901 71.8999V74.6299H64.9001V71.9099H67.1901V71.8999Z" stroke="#231F20" stroke-width="0.25" stroke-miterlimit="10"/>
<path d="M67.1901 77.7503H64.9001V75.0303H67.1901V77.7503Z" stroke="#231F20" stroke-width="0.25" stroke-miterlimit="10"/>
<path d="M67.1901 78.1499V80.8699H64.9001V78.1499H67.1901Z" stroke="#231F20" stroke-width="0.25" stroke-miterlimit="10"/>
<path d="M69.8801 71.8999V74.6299H67.5901V71.9099H69.8801V71.8999Z" stroke="#231F20" stroke-width="0.25" stroke-miterlimit="10"/>
<path d="M69.8801 78.1499V80.8699H67.5901V78.1499H69.8801Z" stroke="#231F20" stroke-width="0.25" stroke-miterlimit="10"/>
<path d="M72.58 71.8999V74.6199H70.29V71.8999H72.58Z" stroke="#231F20" stroke-width="0.25" stroke-miterlimit="10"/>
<path d="M72.58 78.1501V80.8701H70.29V78.1401H72.58V78.1501Z" stroke="#231F20" stroke-width="0.25" stroke-miterlimit="10"/>
<path d="M75.2702 71.8999V74.6299H72.9802V71.9099H75.2702V71.8999Z" stroke="#231F20" stroke-width="0.25" stroke-miterlimit="10"/>
<path d="M75.2702 78.1499V80.8699H72.9802V78.1499H75.2702Z" stroke="#231F20" stroke-width="0.25" stroke-miterlimit="10"/>
<path d="M77.9602 71.8999V74.6299H75.6702V71.9099H77.9602V71.8999Z" stroke="#231F20" stroke-width="0.25" stroke-miterlimit="10"/>
<path d="M77.9602 77.7503H75.6702V75.0303H77.9602V77.7503Z" stroke="#231F20" stroke-width="0.25" stroke-miterlimit="10"/>
<path d="M77.9602 78.1499V80.8699H75.6702V78.1499H77.9602Z" stroke="#231F20" stroke-width="0.25" stroke-miterlimit="10"/>
<path d="M80.6601 71.8999V74.6199H78.3701V71.8999H80.6601Z" stroke="#231F20" stroke-width="0.25" stroke-miterlimit="10"/>
<path d="M80.6601 78.1501V80.8701H78.3701V78.1401H80.6601V78.1501Z" stroke="#231F20" stroke-width="0.25" stroke-miterlimit="10"/>
<path d="M83.3501 71.8999V74.6299H81.0601V71.9099H83.3501V71.8999Z" stroke="#231F20" stroke-width="0.25" stroke-miterlimit="10"/>
<path d="M83.3501 78.1499V80.8699H81.0601V78.1499H83.3501Z" stroke="#231F20" stroke-width="0.25" stroke-miterlimit="10"/>
<path d="M83.3501 87.1301H81.0601V84.4102H83.3601V87.1301H83.3501Z" stroke="#231F20" stroke-width="0.25" stroke-miterlimit="10"/>
<path d="M86.0402 71.8999V74.6299H83.7502V71.9099H86.0402V71.8999Z" stroke="#231F20" stroke-width="0.25" stroke-miterlimit="10"/>
<path d="M86.0402 78.1499V80.8699H83.7502V78.1499H86.0402Z" stroke="#231F20" stroke-width="0.25" stroke-miterlimit="10"/>
<path d="M86.0402 81.28V84H83.7502V81.27H86.0402V81.28Z" stroke="#231F20" stroke-width="0.25" stroke-miterlimit="10"/>
<path d="M86.0503 87.1301H83.7603V84.4102H86.0503V87.1301Z" stroke="#231F20" stroke-width="0.25" stroke-miterlimit="10"/>
<path d="M88.7402 71.8999V74.6299H86.4502V71.9099H88.7402V71.8999Z" stroke="#231F20" stroke-width="0.25" stroke-miterlimit="10"/>
<path d="M88.7402 78.1501V80.8701H86.4502V78.1401H88.7402V78.1501Z" stroke="#231F20" stroke-width="0.25" stroke-miterlimit="10"/>
<path d="M27.1802 65.6499V68.3699H29.4802V65.6499H27.1802Z" stroke="#231F20" stroke-width="0.25" stroke-miterlimit="10"/>
<path d="M24.09 68.3799H21.8V65.6499H24.09V68.3699V68.3799Z" stroke="#231F20" stroke-width="0.25" stroke-miterlimit="10"/>
<path d="M24.09 71.5003H21.8V68.7803H24.09V71.5003Z" stroke="#231F20" stroke-width="0.25" stroke-miterlimit="10"/>
<path d="M27.1802 74.6301V71.9102H29.4802V74.6301H27.1802Z" stroke="#231F20" stroke-width="0.25" stroke-miterlimit="10"/>
<path d="M27.1802 77.7503V75.0303H29.4702V77.7503H27.1802Z" stroke="#231F20" stroke-width="0.25" stroke-miterlimit="10"/>
<path d="M24.4902 74.6301H26.7802V71.9102H24.4902V74.6301Z" stroke="#231F20" stroke-width="0.25" stroke-miterlimit="10"/>
<path d="M24.09 77.7503H21.8V75.0303H24.09V77.7503Z" stroke="#231F20" stroke-width="0.25" stroke-miterlimit="10"/>
<path d="M86.4402 65.6499V68.3699H88.7302V65.6499H86.4402Z" stroke="#231F20" stroke-width="0.25" stroke-miterlimit="10"/>
<path d="M81.0601 65.6499V68.3699H83.3501V65.6499H81.0601Z" stroke="#231F20" stroke-width="0.25" stroke-miterlimit="10"/>
<path d="M75.6702 65.6499V68.3699H77.9602V65.6499H75.6702Z" stroke="#231F20" stroke-width="0.25" stroke-miterlimit="10"/>
<path d="M70.28 65.6499V68.3699H72.57V65.6499H70.28Z" stroke="#231F20" stroke-width="0.25" stroke-miterlimit="10"/>
<path d="M64.8901 65.6499V68.3699H67.1801V65.6499H64.8901Z" stroke="#231F20" stroke-width="0.25" stroke-miterlimit="10"/>
<path d="M59.51 65.6499V68.3699H61.8V65.6499H59.51Z" stroke="#231F20" stroke-width="0.25" stroke-miterlimit="10"/>
<path d="M54.1201 65.6499V68.3699H56.4101V65.6499H54.1201Z" stroke="#231F20" stroke-width="0.25" stroke-miterlimit="10"/>
<path d="M51.4302 65.6499V68.3699H53.7202V65.6499H51.4302Z" stroke="#231F20" stroke-width="0.25" stroke-miterlimit="10"/>
<path d="M48.7302 65.6499V68.3699H51.0202V65.6499H48.7302Z" stroke="#231F20" stroke-width="0.25" stroke-miterlimit="10"/>
<path d="M141 8.58008V16.4801H87.2102V8.58008" stroke="#231F20" stroke-width="0.25" stroke-miterlimit="10"/>
<path d="M6.13013 90.4502H90.9401" stroke="#231F20" stroke-width="0.25" stroke-miterlimit="10"/>
<path d="M46.04 65.6499V68.3699H48.33V65.6499H46.04Z" stroke="#231F20" stroke-width="0.25" stroke-miterlimit="10"/>
<path d="M56.8101 65.6499V68.3699H59.1001V65.6499H56.8101Z" stroke="#231F20" stroke-width="0.25" stroke-miterlimit="10"/>
<path d="M62.2002 65.6499V68.3699H64.4902V65.6499H62.2002Z" stroke="#231F20" stroke-width="0.25" stroke-miterlimit="10"/>
<path d="M67.5901 65.6499V68.3699H69.8801V65.6499H67.5901Z" stroke="#231F20" stroke-width="0.25" stroke-miterlimit="10"/>
<path d="M72.9802 65.6499V68.3699H75.2702V65.6499H72.9802Z" stroke="#231F20" stroke-width="0.25" stroke-miterlimit="10"/>
<path d="M78.3601 65.6499V68.3699H80.6501V65.6499H78.3601Z" stroke="#231F20" stroke-width="0.25" stroke-miterlimit="10"/>
<path d="M83.7502 65.6499V68.3699H86.0402V65.6499H83.7502Z" stroke="#231F20" stroke-width="0.25" stroke-miterlimit="10"/>
<path d="M24.4902 77.7503H26.7802V75.0303H24.4902V77.7503Z" stroke="#231F20" stroke-width="0.25" stroke-miterlimit="10"/>
<path d="M24.09 74.6301H21.8V71.9102H24.09V74.6301Z" stroke="#231F20" stroke-width="0.25" stroke-miterlimit="10"/>
<path d="M24.4902 71.5003H26.7802V68.7803H24.4902V71.5003Z" stroke="#231F20" stroke-width="0.25" stroke-miterlimit="10"/>
<path d="M27.1802 71.5003V68.7803H29.4802V71.5003H27.1802Z" stroke="#231F20" stroke-width="0.25" stroke-miterlimit="10"/>
<path d="M88.7402 81.2803V84.0003H86.4502V81.2803H88.7402Z" stroke="#231F20" stroke-width="0.25" stroke-miterlimit="10"/>
<path d="M88.7402 77.7503H86.4402V75.0303H88.7402V77.7503Z" stroke="#231F20" stroke-width="0.25" stroke-miterlimit="10"/>
<path d="M86.0402 77.75H83.7502V75.02H86.0402V77.75Z" stroke="#231F20" stroke-width="0.25" stroke-miterlimit="10"/>
<path d="M86.0402 68.7803V71.5003H83.7502V68.7803H86.0402Z" stroke="#231F20" stroke-width="0.25" stroke-miterlimit="10"/>
<path d="M83.3501 81.28V84H81.0601V81.27H83.3501V81.28Z" stroke="#231F20" stroke-width="0.25" stroke-miterlimit="10"/>
<path d="M83.35 77.7503H81.05V75.0303H83.34V77.7503H83.35Z" stroke="#231F20" stroke-width="0.25" stroke-miterlimit="10"/>
<path d="M83.3501 68.7803V71.5103H81.0601V68.7903H83.3501V68.7803Z" stroke="#231F20" stroke-width="0.25" stroke-miterlimit="10"/>
<path d="M80.6601 77.7503H78.3601V75.0303H80.6501V77.7603L80.6601 77.7503Z" stroke="#231F20" stroke-width="0.25" stroke-miterlimit="10"/>
<path d="M80.6601 68.7803V71.5103H78.3701V68.7903H80.6601V68.7803Z" stroke="#231F20" stroke-width="0.25" stroke-miterlimit="10"/>
<path d="M77.9602 68.7803V71.5003H75.6702V68.7803H77.9602Z" stroke="#231F20" stroke-width="0.25" stroke-miterlimit="10"/>
<path d="M75.2702 77.7503H72.9802V75.0303H75.2702V77.7503Z" stroke="#231F20" stroke-width="0.25" stroke-miterlimit="10"/>
<path d="M75.2702 68.7803V71.5003H72.9802V68.7803H75.2702Z" stroke="#231F20" stroke-width="0.25" stroke-miterlimit="10"/>
<path d="M72.58 77.7503H70.28V75.0303H72.57V77.7603L72.58 77.7503Z" stroke="#231F20" stroke-width="0.25" stroke-miterlimit="10"/>
<path d="M72.58 68.77V71.5H70.29V68.78H72.58V68.77Z" stroke="#231F20" stroke-width="0.25" stroke-miterlimit="10"/>
<path d="M69.8901 77.7503H67.5901V75.0303H69.8801V77.7503H69.8901Z" stroke="#231F20" stroke-width="0.25" stroke-miterlimit="10"/>
<path d="M69.8801 68.7803V71.5003H67.5901V68.7803H69.8801Z" stroke="#231F20" stroke-width="0.25" stroke-miterlimit="10"/>
<path d="M67.1901 68.7803V71.5003H64.9001V68.7803H67.1901Z" stroke="#231F20" stroke-width="0.25" stroke-miterlimit="10"/>
<path d="M64.5002 77.7503H62.2002V75.0303H64.4902V77.7603L64.5002 77.7503Z" stroke="#231F20" stroke-width="0.25" stroke-miterlimit="10"/>
<path d="M64.4902 68.77V71.5H62.2002V68.78H64.4902V68.77Z" stroke="#231F20" stroke-width="0.25" stroke-miterlimit="10"/>
<path d="M61.81 77.7503H59.51V75.0303H61.8V77.7603L61.81 77.7503Z" stroke="#231F20" stroke-width="0.25" stroke-miterlimit="10"/>
<path d="M61.8 68.7803V71.5003H59.51V68.7803H61.8Z" stroke="#231F20" stroke-width="0.25" stroke-miterlimit="10"/>
<path d="M59.1101 77.7503H56.8201V75.0303H59.1101V77.7503Z" stroke="#231F20" stroke-width="0.25" stroke-miterlimit="10"/>
<path d="M59.1101 68.7803V71.5003H56.8201V68.7803H59.1101Z" stroke="#231F20" stroke-width="0.25" stroke-miterlimit="10"/>
<path d="M56.4101 68.77V71.5H54.1201V68.78H56.4101V68.77Z" stroke="#231F20" stroke-width="0.25" stroke-miterlimit="10"/>
<path d="M53.7202 77.7503H51.4202V75.0303H53.7102V77.7603L53.7202 77.7503Z" stroke="#231F20" stroke-width="0.25" stroke-miterlimit="10"/>
<path d="M53.7202 68.7803V71.5003H51.4302V68.7803H53.7202Z" stroke="#231F20" stroke-width="0.25" stroke-miterlimit="10"/>
<path d="M51.0302 77.7503H48.7302V75.0303H51.0202V77.7503H51.0302Z" stroke="#231F20" stroke-width="0.25" stroke-miterlimit="10"/>
<path d="M51.0302 68.7803V71.5003H48.7402V68.7803H51.0302Z" stroke="#231F20" stroke-width="0.25" stroke-miterlimit="10"/>
<path d="M48.33 77.7503H46.04V75.0303H48.33V77.7603V77.7503Z" stroke="#231F20" stroke-width="0.25" stroke-miterlimit="10"/>
<path d="M42.9401 78.1499V80.8799H40.6501V78.1599H42.9401V78.1499Z" stroke="#231F20" stroke-width="0.25" stroke-miterlimit="10"/>
<path d="M42.9401 71.8999V74.6299H40.6501V71.9099H42.9401V71.8999Z" stroke="#231F20" stroke-width="0.25" stroke-miterlimit="10"/>
<path d="M42.9401 68.3799H40.6501V65.6499H42.9501V68.3699L42.9401 68.3799Z" stroke="#231F20" stroke-width="0.25" stroke-miterlimit="10"/>
<path d="M40.2502 77.7503H37.9602V75.0303H40.2502V77.7503Z" stroke="#231F20" stroke-width="0.25" stroke-miterlimit="10"/>
<path d="M40.2502 68.7803V71.5003H37.9602V68.7803H40.2502Z" stroke="#231F20" stroke-width="0.25" stroke-miterlimit="10"/>
<path d="M34.8601 78.1499V80.8799H32.5701V78.1599H34.8601V78.1499Z" stroke="#231F20" stroke-width="0.25" stroke-miterlimit="10"/>
<path d="M34.8601 68.3801H32.5701V65.6602H34.8701V68.3801H34.8601Z" stroke="#231F20" stroke-width="0.25" stroke-miterlimit="10"/>
<path d="M32.1701 77.7503H29.8801V75.0303H32.1701V77.7503Z" stroke="#231F20" stroke-width="0.25" stroke-miterlimit="10"/>
<path d="M32.1701 68.7803V71.5003H29.8801V68.7803H32.1701Z" stroke="#231F20" stroke-width="0.25" stroke-miterlimit="10"/>
<path d="M18.7002 68.3801H16.4102V65.6602H18.7002V68.3801Z" stroke="#231F20" stroke-width="0.25" stroke-miterlimit="10"/>
<path d="M37.56 68.3799H35.27V65.6499H37.57V68.3699L37.56 68.3799Z" stroke="#231F20" stroke-width="0.25" stroke-miterlimit="10"/>
<path d="M21.4001 68.7803H19.1001V71.5003H21.3901V68.7803H21.4001Z" stroke="#231F20" stroke-width="0.25" stroke-miterlimit="10"/>
<path d="M18.7002 71.8999H16.4102V74.6199H18.7002V71.8999Z" stroke="#231F20" stroke-width="0.25" stroke-miterlimit="10"/>
<path d="M21.3901 77.7503H19.1001V75.0303H21.3901V77.7603V77.7503Z" stroke="#231F20" stroke-width="0.25" stroke-miterlimit="10"/>
<path d="M86.4402 87.1301V84.4102H88.7402V87.1301H86.4402Z" stroke="#231F20" stroke-width="0.25" stroke-miterlimit="10"/>
<path d="M29.4802 78.1499V80.8699H27.1902V78.1499H29.4802Z" stroke="#231F20" stroke-width="0.25" stroke-miterlimit="10"/>
<path d="M24.09 78.1499V80.8799H21.8V78.1599H24.09V78.1499Z" stroke="#231F20" stroke-width="0.25" stroke-miterlimit="10"/>
<path d="M18.7002 78.1499V80.8699H16.4102V78.1499H18.7002Z" stroke="#231F20" stroke-width="0.25" stroke-miterlimit="10"/>
<path d="M86.0402 87.5303V90.2503H83.7502V87.5303H86.0402Z" stroke="#231F20" stroke-width="0.25" stroke-miterlimit="10"/>
<path d="M80.6601 90.2503H78.3701V87.5303H80.6601V90.2603V90.2503Z" stroke="#231F20" stroke-width="0.25" stroke-miterlimit="10"/>
<path d="M75.2702 87.5303V90.2503H72.9802V87.5303H75.2702Z" stroke="#231F20" stroke-width="0.25" stroke-miterlimit="10"/>
<path d="M75.2702 81.28V84H72.9802V81.27H75.2702V81.28Z" stroke="#231F20" stroke-width="0.25" stroke-miterlimit="10"/>
<path d="M72.58 87.5303V90.2503H70.29V87.5303H72.58Z" stroke="#231F20" stroke-width="0.25" stroke-miterlimit="10"/>
<path d="M69.8801 87.1301H67.5801V84.4102H69.8801V87.1301Z" stroke="#231F20" stroke-width="0.25" stroke-miterlimit="10"/>
<path d="M61.8 90.2503H59.51V87.5303H61.8V90.2503Z" stroke="#231F20" stroke-width="0.25" stroke-miterlimit="10"/>
<path d="M61.8 81.28V84H59.51V81.27H61.8V81.28Z" stroke="#231F20" stroke-width="0.25" stroke-miterlimit="10"/>
<path d="M54.1201 81.2803V84.0003H56.4201V81.2803H54.1201Z" stroke="#231F20" stroke-width="0.25" stroke-miterlimit="10"/>
<path d="M48.7402 84.0003H51.0302V81.2803H48.7402V84.0103V84.0003Z" stroke="#231F20" stroke-width="0.25" stroke-miterlimit="10"/>
<path d="M53.7202 87.1299H51.4302V84.3999H53.7202V87.1199V87.1299Z" stroke="#231F20" stroke-width="0.25" stroke-miterlimit="10"/>
<path d="M48.33 87.1299H46.03V84.3999H48.32V87.1199L48.33 87.1299Z" stroke="#231F20" stroke-width="0.25" stroke-miterlimit="10"/>
<path d="M45.6401 90.2503H43.3501V87.5303H45.6501V90.2503H45.6401Z" stroke="#231F20" stroke-width="0.25" stroke-miterlimit="10"/>
<path d="M45.6401 81.2803V84.0003H43.3501V81.2803H45.6401Z" stroke="#231F20" stroke-width="0.25" stroke-miterlimit="10"/>
<path d="M35.27 87.1301H37.56V84.4102H35.27V87.1402V87.1301Z" stroke="#231F20" stroke-width="0.25" stroke-miterlimit="10"/>
<path d="M40.2502 87.1299H37.9602V84.3999H40.2602V87.1199L40.2502 87.1299Z" stroke="#231F20" stroke-width="0.25" stroke-miterlimit="10"/>
<path d="M34.8601 87.53V90.25H32.5701V87.52H34.8601V87.53Z" stroke="#231F20" stroke-width="0.25" stroke-miterlimit="10"/>
<path d="M32.1701 87.53V90.25H29.8801V87.52H32.1701V87.53Z" stroke="#231F20" stroke-width="0.25" stroke-miterlimit="10"/>
<path d="M24.4902 87.1301H26.7802V84.4102H24.4902V87.1301Z" stroke="#231F20" stroke-width="0.25" stroke-miterlimit="10"/>
<path d="M26.7802 81.2803V84.0003H24.4902V81.2803H26.7802Z" stroke="#231F20" stroke-width="0.25" stroke-miterlimit="10"/>
<path d="M24.09 87.53V90.25H21.8V87.52H24.09V87.53Z" stroke="#231F20" stroke-width="0.25" stroke-miterlimit="10"/>
<path d="M18.7002 87.53V90.25H16.4102V87.52H18.7002V87.53Z" stroke="#231F20" stroke-width="0.25" stroke-miterlimit="10"/>
<path d="M18.7002 81.2803V84.0103H16.4102V81.2903H18.7002V81.2803Z" stroke="#231F20" stroke-width="0.25" stroke-miterlimit="10"/>
<path d="M11.02 84.3999V87.1299H13.31V84.4099H11.02V84.3999Z" stroke="#231F20" stroke-width="0.25" stroke-miterlimit="10"/>
<path d="M16.0102 77.7503H13.7202V75.0303H16.0102V77.7503Z" stroke="#231F20" stroke-width="0.25" stroke-miterlimit="10"/>
<path d="M13.31 71.5003H11.02V68.7803H13.31V71.5003Z" stroke="#231F20" stroke-width="0.25" stroke-miterlimit="10"/>
<path d="M10.6201 78.1499H8.33008V80.8699H10.6201V78.1499Z" stroke="#231F20" stroke-width="0.25" stroke-miterlimit="10"/>
<path d="M10.6201 68.7803H8.33008V71.5003H10.6201V68.7803Z" stroke="#231F20" stroke-width="0.25" stroke-miterlimit="10"/>
<path d="M10.6201 81.2803H8.33008V84.0003H10.6201V81.2803Z" stroke="#231F20" stroke-width="0.25" stroke-miterlimit="10"/>
<path d="M7.93018 90.4502V65.4502" stroke="#231F20" stroke-width="0.25" stroke-miterlimit="10"/>
<path d="M88.7402 68.7803V71.5103H86.4502V68.7903H88.7402V68.7803Z" stroke="#231F20" stroke-width="0.25" stroke-miterlimit="10"/>
<path d="M48.33 68.7803V71.5003H46.04V68.7803H48.33Z" stroke="#231F20" stroke-width="0.25" stroke-miterlimit="10"/>
<path d="M45.6401 78.1499V80.8699H43.3501V78.1499H45.6401Z" stroke="#231F20" stroke-width="0.25" stroke-miterlimit="10"/>
<path d="M77.9602 87.1301H75.6702V84.4102H77.9702V87.1301H77.9602Z" stroke="#231F20" stroke-width="0.25" stroke-miterlimit="10"/>
<path d="M72.58 81.2803V84.0003H70.29V81.2803H72.58Z" stroke="#231F20" stroke-width="0.25" stroke-miterlimit="10"/>
<path d="M67.1901 87.1301H64.8901V84.4102H67.1901V87.1301Z" stroke="#231F20" stroke-width="0.25" stroke-miterlimit="10"/>
<path d="M64.4902 81.2803V84.0003H62.2002V81.2803H64.4902Z" stroke="#231F20" stroke-width="0.25" stroke-miterlimit="10"/>
<path d="M59.1101 87.1301H56.8201V84.4102H59.1201V87.1301H59.1101Z" stroke="#231F20" stroke-width="0.25" stroke-miterlimit="10"/>
<path d="M51.0302 87.1301H48.7302V84.4102H51.0302V87.1301Z" stroke="#231F20" stroke-width="0.25" stroke-miterlimit="10"/>
<path d="M42.9502 90.2503H40.6602V87.5303H42.9502V90.2503Z" stroke="#231F20" stroke-width="0.25" stroke-miterlimit="10"/>
<path d="M37.56 81.2803V84.0003H35.27V81.2803H37.56Z" stroke="#231F20" stroke-width="0.25" stroke-miterlimit="10"/>
<path d="M29.4802 81.2803V84.0003H27.1902V81.2803H29.4802Z" stroke="#231F20" stroke-width="0.25" stroke-miterlimit="10"/>
<path d="M21.3901 81.2803V84.0103H19.1001V81.2903H21.3901V81.2803Z" stroke="#231F20" stroke-width="0.25" stroke-miterlimit="10"/>
<path d="M16.0102 81.2803V84.0103H13.7202V81.2903H16.0102V81.2803Z" stroke="#231F20" stroke-width="0.25" stroke-miterlimit="10"/>
<path d="M16.0102 68.7803V71.5003H13.7202V68.7803H16.0102Z" stroke="#231F20" stroke-width="0.25" stroke-miterlimit="10"/>
<path d="M13.31 75.0303V77.7503H11.02V75.0303H13.31Z" stroke="#231F20" stroke-width="0.25" stroke-miterlimit="10"/>
<path d="M10.6201 77.7503H8.33008V75.0303H10.6201V77.7503Z" stroke="#231F20" stroke-width="0.25" stroke-miterlimit="10"/>
<path d="M45.6401 71.8999V74.6199H43.3501V71.8999H45.6401Z" stroke="#231F20" stroke-width="0.25" stroke-miterlimit="10"/>
<path d="M45.6401 68.7803V71.5003H43.3501V68.7803H45.6401Z" stroke="#231F20" stroke-width="0.25" stroke-miterlimit="10"/>
</svg>
