<svg width="57" height="101" viewBox="0 0 57 101" fill="none" xmlns="http://www.w3.org/2000/svg">
<g clip-path="url(#clip0_1601_2617)">
<path d="M55.9201 46.1201V65.1201H54.6201V75.6101H55.1201V94.6101H54.6201V100.01H1.42012V94.6101H0.920117V75.6101H1.42012V65.1201H0.120117V46.1201H5.32012V65.1201H4.02012V75.6101H4.52012V82.9901H51.5201V75.6101H52.0201V65.1201H50.7201V46.1201H55.9201Z" fill="white"/>
<path d="M4.53003 83H51.53" stroke="#010101" stroke-width="0.25" stroke-miterlimit="10"/>
<path d="M52.03 93.1299H54.63" stroke="#010101" stroke-width="0.25" stroke-miterlimit="10"/>
<path d="M55.1301 75.6201H54.6301" stroke="#010101" stroke-width="0.25" stroke-miterlimit="10"/>
<path d="M52.03 93.1299V91.6299" stroke="#010101" stroke-width="0.25" stroke-miterlimit="10"/>
<path d="M52.03 94.6201V100.02" stroke="#010101" stroke-width="0.25" stroke-miterlimit="10"/>
<path d="M54.6201 91.3799V66.6299" stroke="#010101" stroke-width="0.25" stroke-miterlimit="10"/>
<path d="M1.42017 91.6299H4.02017" stroke="#010101" stroke-width="0.25" stroke-miterlimit="10"/>
<path d="M0.120117 46.1201V63.6301" stroke="#010101" stroke-width="0.25" stroke-miterlimit="10"/>
<path d="M52.03 94.6201V93.1201" stroke="#010101" stroke-width="0.25" stroke-miterlimit="10"/>
<path d="M1.42017 91.3799V91.6299" stroke="#010101" stroke-width="0.25" stroke-miterlimit="10"/>
<path d="M0.930176 94.6201V93.1201" stroke="#010101" stroke-width="0.25" stroke-miterlimit="10"/>
<path d="M52.03 75.6201H51.53" stroke="#010101" stroke-width="0.25" stroke-miterlimit="10"/>
<path d="M1.42017 94.6201V100.02" stroke="#010101" stroke-width="0.25" stroke-miterlimit="10"/>
<path d="M1.42017 66.6299H4.02017" stroke="#010101" stroke-width="0.25" stroke-miterlimit="10"/>
<path d="M0.120117 63.6299H5.32012" stroke="#010101" stroke-width="0.25" stroke-miterlimit="10"/>
<path d="M50.7202 65.1299V63.6299" stroke="#010101" stroke-width="0.25" stroke-miterlimit="10"/>
<path d="M4.03003 94.6802H52.03" stroke="#010101" stroke-width="0.25" stroke-miterlimit="10"/>
<path d="M54.6201 93.1299H55.1201" stroke="#010101" stroke-width="0.25" stroke-miterlimit="10"/>
<path d="M4.52002 94.6201V93.1201" stroke="#010101" stroke-width="0.25" stroke-miterlimit="10"/>
<path d="M4.52002 93.1301V75.6201" stroke="#010101" stroke-width="0.25" stroke-miterlimit="10"/>
<path d="M51.53 75.6201V93.1301" stroke="#010101" stroke-width="0.25" stroke-miterlimit="10"/>
<path d="M52.03 66.6299V65.1299" stroke="#010101" stroke-width="0.25" stroke-miterlimit="10"/>
<path d="M4.52002 88.3403H51.52" stroke="#010101" stroke-width="0.25" stroke-miterlimit="10"/>
<path d="M4.52002 75.6201H4.02002" stroke="#010101" stroke-width="0.25" stroke-miterlimit="10"/>
<path d="M0.930176 93.1299H1.43018" stroke="#010101" stroke-width="0.25" stroke-miterlimit="10"/>
<path d="M4.03003 93.1299V91.6299" stroke="#010101" stroke-width="0.25" stroke-miterlimit="10"/>
<path d="M51.53 93.1299H52.03" stroke="#010101" stroke-width="0.25" stroke-miterlimit="10"/>
<path d="M55.9202 46.1201H50.7202" stroke="#010101" stroke-width="0.25" stroke-miterlimit="10"/>
<path d="M0.120117 65.1299V63.6299" stroke="#010101" stroke-width="0.25" stroke-miterlimit="10"/>
<path d="M54.6201 93.1299V91.6299" stroke="#010101" stroke-width="0.25" stroke-miterlimit="10"/>
<path d="M52.03 100.02H4.03003" stroke="#010101" stroke-width="0.25" stroke-miterlimit="10"/>
<path d="M55.9202 63.6301V46.1201" stroke="#010101" stroke-width="0.25" stroke-miterlimit="10"/>
<path d="M52.03 91.3799V66.6299" stroke="#010101" stroke-width="0.25" stroke-miterlimit="10"/>
<path d="M50.7202 63.6299H55.9202" stroke="#010101" stroke-width="0.25" stroke-miterlimit="10"/>
<path d="M55.9202 65.1299V63.6299" stroke="#010101" stroke-width="0.25" stroke-miterlimit="10"/>
<path d="M5.32012 46.1201H0.120117" stroke="#010101" stroke-width="0.25" stroke-miterlimit="10"/>
<path d="M52.03 91.6299H54.63" stroke="#010101" stroke-width="0.25" stroke-miterlimit="10"/>
<path d="M1.42017 94.6201V93.1201" stroke="#010101" stroke-width="0.25" stroke-miterlimit="10"/>
<path d="M52.03 91.3701V91.6201" stroke="#010101" stroke-width="0.25" stroke-miterlimit="10"/>
<path d="M55.1301 94.6201V93.1201" stroke="#010101" stroke-width="0.25" stroke-miterlimit="10"/>
<path d="M4.52002 93.6802H51.52" stroke="#010101" stroke-width="0.25" stroke-miterlimit="10"/>
<path d="M55.1301 93.1301V75.6201" stroke="#010101" stroke-width="0.25" stroke-miterlimit="10"/>
<path d="M1.42017 100.02H4.02017" stroke="#010101" stroke-width="0.25" stroke-miterlimit="10"/>
<path d="M52.03 66.6299H54.63" stroke="#010101" stroke-width="0.25" stroke-miterlimit="10"/>
<path d="M1.42017 66.6299V65.1299" stroke="#010101" stroke-width="0.25" stroke-miterlimit="10"/>
<path d="M0.930176 75.6201V93.1301" stroke="#010101" stroke-width="0.25" stroke-miterlimit="10"/>
<path d="M1.43018 75.6201H0.930176" stroke="#010101" stroke-width="0.25" stroke-miterlimit="10"/>
<path d="M4.53003 84H51.53" stroke="#010101" stroke-width="0.25" stroke-miterlimit="10"/>
<path d="M54.6201 93.1201V94.6201" stroke="#010101" stroke-width="0.25" stroke-miterlimit="10"/>
<path d="M4.03003 94.6201V100.02" stroke="#010101" stroke-width="0.25" stroke-miterlimit="10"/>
<path d="M54.6201 66.6299V65.1299" stroke="#010101" stroke-width="0.25" stroke-miterlimit="10"/>
<path d="M4.03003 66.6299V65.1299" stroke="#010101" stroke-width="0.25" stroke-miterlimit="10"/>
<path d="M1.42017 91.3799V66.6299" stroke="#010101" stroke-width="0.25" stroke-miterlimit="10"/>
<path d="M50.7202 65.1299H55.9202" stroke="#010101" stroke-width="0.25" stroke-miterlimit="10"/>
<path d="M51.53 94.6201H55.13" stroke="#010101" stroke-width="0.25" stroke-miterlimit="10"/>
<path d="M0.930176 94.6201H4.53018" stroke="#010101" stroke-width="0.25" stroke-miterlimit="10"/>
<path d="M0.120117 65.1299H5.32012" stroke="#010101" stroke-width="0.25" stroke-miterlimit="10"/>
<path d="M4.03003 91.3799V66.6299" stroke="#010101" stroke-width="0.25" stroke-miterlimit="10"/>
<path d="M4.03003 93.1201V94.6201" stroke="#010101" stroke-width="0.25" stroke-miterlimit="10"/>
<path d="M51.53 94.6201V93.1201" stroke="#010101" stroke-width="0.25" stroke-miterlimit="10"/>
<path d="M4.53003 89.3403H51.53" stroke="#010101" stroke-width="0.25" stroke-miterlimit="10"/>
<path d="M4.03003 93.1299H4.53003" stroke="#010101" stroke-width="0.25" stroke-miterlimit="10"/>
<path d="M52.03 100.02H54.63" stroke="#010101" stroke-width="0.25" stroke-miterlimit="10"/>
<path d="M54.6201 94.6201V100.02" stroke="#010101" stroke-width="0.25" stroke-miterlimit="10"/>
<path d="M1.42017 93.1299V91.6299" stroke="#010101" stroke-width="0.25" stroke-miterlimit="10"/>
<path d="M1.42017 93.1299H4.02017" stroke="#010101" stroke-width="0.25" stroke-miterlimit="10"/>
<path d="M4.03003 91.6299V91.3799" stroke="#010101" stroke-width="0.25" stroke-miterlimit="10"/>
<path d="M5.32007 63.6301V46.1201" stroke="#010101" stroke-width="0.25" stroke-miterlimit="10"/>
<path d="M5.32007 65.1299V63.6299" stroke="#010101" stroke-width="0.25" stroke-miterlimit="10"/>
<path d="M50.7202 46.1201V63.6301" stroke="#010101" stroke-width="0.25" stroke-miterlimit="10"/>
<path d="M1.42017 91.3799H4.02017" stroke="#010101" stroke-width="0.25" stroke-miterlimit="10"/>
<path d="M52.03 91.3799H54.63" stroke="#010101" stroke-width="0.25" stroke-miterlimit="10"/>
<path d="M54.6201 91.6299V91.3799" stroke="#010101" stroke-width="0.25" stroke-miterlimit="10"/>
<path d="M55.9202 65.1299V63.6299" stroke="#010101" stroke-width="0.25" stroke-miterlimit="10"/>
<path d="M55.9202 46.1201H50.7202" stroke="#010101" stroke-width="0.25" stroke-miterlimit="10"/>
<path d="M5.32007 65.1299V63.6299" stroke="#010101" stroke-width="0.25" stroke-miterlimit="10"/>
<path d="M5.32012 46.1201H0.120117" stroke="#010101" stroke-width="0.25" stroke-miterlimit="10"/>
<path d="M55.1301 93.1301V75.6201" stroke="#010101" stroke-width="0.25" stroke-miterlimit="10"/>
<path d="M1.42017 100.02H4.02017" stroke="#010101" stroke-width="0.25" stroke-miterlimit="10"/>
<path d="M4.52002 75.6201H4.02002" stroke="#010101" stroke-width="0.25" stroke-miterlimit="10"/>
<path d="M52.03 100.02H54.63" stroke="#010101" stroke-width="0.25" stroke-miterlimit="10"/>
<path d="M4.53003 83H51.53" stroke="#010101" stroke-width="0.25" stroke-miterlimit="10"/>
<path d="M54.6201 66.6299V65.1299" stroke="#010101" stroke-width="0.25" stroke-miterlimit="10"/>
<path d="M4.03003 66.6299V65.1299" stroke="#010101" stroke-width="0.25" stroke-miterlimit="10"/>
<path d="M0.930176 94.6201H4.53018" stroke="#010101" stroke-width="0.25" stroke-miterlimit="10"/>
<path d="M51.53 75.6201V93.1301" stroke="#010101" stroke-width="0.25" stroke-miterlimit="10"/>
<path d="M0.120117 65.1299H5.32012" stroke="#010101" stroke-width="0.25" stroke-miterlimit="10"/>
<path d="M50.7202 65.1299H55.9202" stroke="#010101" stroke-width="0.25" stroke-miterlimit="10"/>
<path d="M1.42017 66.6299V65.1299" stroke="#010101" stroke-width="0.25" stroke-miterlimit="10"/>
<path d="M52.03 66.6299V65.1299" stroke="#010101" stroke-width="0.25" stroke-miterlimit="10"/>
<path d="M54.6201 93.1201V94.6201" stroke="#010101" stroke-width="0.25" stroke-miterlimit="10"/>
<path d="M1.43018 75.6201H0.930176" stroke="#010101" stroke-width="0.25" stroke-miterlimit="10"/>
<path d="M54.6201 94.6201V100.02" stroke="#010101" stroke-width="0.25" stroke-miterlimit="10"/>
<path d="M0.930176 75.6201V93.1301" stroke="#010101" stroke-width="0.25" stroke-miterlimit="10"/>
<path d="M0.930176 94.6201V93.1201" stroke="#010101" stroke-width="0.25" stroke-miterlimit="10"/>
<path d="M52.03 75.6201H51.53" stroke="#010101" stroke-width="0.25" stroke-miterlimit="10"/>
<path d="M1.42017 94.6201V93.1201" stroke="#010101" stroke-width="0.25" stroke-miterlimit="10"/>
<path d="M1.42017 94.6201V100.02" stroke="#010101" stroke-width="0.25" stroke-miterlimit="10"/>
<path d="M55.1301 75.6201H54.6301" stroke="#010101" stroke-width="0.25" stroke-miterlimit="10"/>
<path d="M55.1301 94.6201V93.1201" stroke="#010101" stroke-width="0.25" stroke-miterlimit="10"/>
<path d="M0.120117 46.1201V63.6301" stroke="#010101" stroke-width="0.25" stroke-miterlimit="10"/>
<path d="M5.32007 63.6301V46.1201" stroke="#010101" stroke-width="0.25" stroke-miterlimit="10"/>
<path d="M0.120117 65.1299V63.6299" stroke="#010101" stroke-width="0.25" stroke-miterlimit="10"/>
<path d="M50.7202 46.1201V63.6301" stroke="#010101" stroke-width="0.25" stroke-miterlimit="10"/>
<path d="M55.9202 63.6301V46.1201" stroke="#010101" stroke-width="0.25" stroke-miterlimit="10"/>
<path d="M50.7202 65.1299V63.6299" stroke="#010101" stroke-width="0.25" stroke-miterlimit="10"/>
<path d="M52.03 100.02H4.03003" stroke="#010101" stroke-width="0.25" stroke-miterlimit="10"/>
</g>
<g clip-path="url(#clip1_1601_2617)">
<path d="M49.1201 0.120117H7.12012V83.1201H49.1201V0.120117Z" fill="white"/>
<path d="M44.3801 44.3003L44.3601 44.2803" stroke="#010101" stroke-width="0.25" stroke-miterlimit="10"/>
<path d="M14.25 49.3301L16.31 51.3201" stroke="#010101" stroke-width="0.25" stroke-miterlimit="10"/>
<path d="M44.3002 48.1503H44.2902L44.2702 48.1203H44.2502L44.2302 48.1003H44.2102L44.1902 48.0803H44.1702L44.1502 48.0703H44.1302H44.1102H44.0902H44.0702H44.0502H44.0302H44.0102H43.9902H43.9702L43.9502 48.0803H43.9302L43.9102 48.1003H43.8902L43.8702 48.1203H43.8502L43.8302 48.1403H43.8202L43.8102 48.1703V48.1903L43.7902 48.2103V48.2303L43.7702 48.2503V48.2703L43.7502 48.2903V48.3103L43.7402 48.3303V48.3503V48.3703V48.3903V48.4103V48.4303V48.4503V48.4703V48.4903V48.5103L43.7502 48.5303V48.5503L43.7702 48.5703" stroke="#010101" stroke-width="0.25" stroke-miterlimit="10"/>
<path d="M43.8201 48.5299V48.5499V48.5699L43.8401 48.5799V49.2799H44.3001V48.5999H44.3101L44.3201 48.5699V48.5499L44.3401 48.5299V48.5099L44.3601 48.4899V48.4699L44.3701 48.4499V48.4299V48.4099V48.3899V48.3699V48.3499V48.3299V48.3099V48.2899V48.2699L44.3601 48.2499V48.2299L44.3401 48.2099V48.1899" stroke="#010101" stroke-width="0.25" stroke-miterlimit="10"/>
<path d="M32.1501 44.8602V33.4302H24.1001V44.8602" stroke="#010101" stroke-width="0.25" stroke-miterlimit="10"/>
<path d="M31.4202 49.3301V75.6601H42.0002V49.3301H31.4202Z" stroke="#010101" stroke-width="0.25" stroke-miterlimit="10"/>
<path d="M24.83 49.3301L22.77 51.3201" stroke="#010101" stroke-width="0.25" stroke-miterlimit="10"/>
<path d="M44.9901 49.0502L44.9701 49.1102L44.9401 49.1702L44.9101 49.2202L44.8801 49.2702L44.8401 49.3202L44.8001 49.3702L44.7601 49.4102L44.7101 49.4502L44.6601 49.4902L44.6101 49.5202L44.5601 49.5502L44.5001 49.5802L44.4401 49.6002L44.3801 49.6202L44.3201 49.6402H44.2601L44.2001 49.6602H44.1401H44.0801H44.0201H43.9601H43.9001L43.8401 49.6402L43.7801 49.6202L43.7201 49.6002L43.6601 49.5802L43.6001 49.5502L43.5501 49.5202L43.5001 49.4902L43.4501 49.4502L43.4001 49.4102L43.3601 49.3702L43.3201 49.3202L43.2801 49.2702L43.2501 49.2202L43.2201 49.1702L43.1901 49.1102L43.1701 49.0502L43.1501 48.9902L43.1301 48.9302V48.8702L43.1101 48.8102V48.7502V48.6902V48.6302V48.5702V48.5102L43.1301 48.4502L43.1501 48.3902L43.1701 48.3302L43.1901 48.2702L43.2201 48.2102L43.2501 48.1602L43.2801 48.1102L43.3201 48.0602L43.3601 48.0102L43.4001 47.9702L43.4501 47.9302L43.5001 47.8902L43.5501 47.8602L43.6001 47.8302L43.6601 47.8002L43.7201 47.7802L43.7801 47.7602L43.8401 47.7402H43.9001L43.9601 47.7202H44.0201H44.0801H44.1401H44.2001H44.2601L44.3201 47.7402L44.3801 47.7602L44.4401 47.7802L44.5001 47.8002L44.5601 47.8302L44.6101 47.8602L44.6601 47.8902L44.7101 47.9302L44.7601 47.9702L44.8001 48.0102L44.8401 48.0602L44.8801 48.1102L44.9101 48.1602L44.9401 48.2102L44.9701 48.2702L44.9901 48.3302L45.0101 48.3902L45.0301 48.4502V48.5102L45.0501 48.5702V48.6302V48.6902V48.7502V48.8102V48.8702L45.0301 48.9302L45.0101 48.9902L44.9901 49.0502Z" stroke="#010101" stroke-width="0.25" stroke-miterlimit="10"/>
<path d="M14.25 49.3301V75.6601H24.83V49.3301H14.25Z" stroke="#010101" stroke-width="0.25" stroke-miterlimit="10"/>
<path d="M16.3101 73.6803H22.7801V51.3203H16.3101V73.6803Z" stroke="#010101" stroke-width="0.25" stroke-miterlimit="10"/>
<path d="M46.8801 82.8701V2.37012H9.37012V83.1201" stroke="#010101" stroke-width="0.25" stroke-miterlimit="10"/>
<path d="M33.4802 73.6803H39.9502V51.3203H33.4802V73.6803Z" stroke="#010101" stroke-width="0.25" stroke-miterlimit="10"/>
<path d="M40.9702 33.4302H32.9202V44.8602" stroke="#010101" stroke-width="0.25" stroke-miterlimit="10"/>
<path d="M42.0002 49.3301L39.9402 51.3201" stroke="#010101" stroke-width="0.25" stroke-miterlimit="10"/>
<path d="M46.6201 82.8701V2.62012H9.62012V82.8701" stroke="#010101" stroke-width="0.25" stroke-miterlimit="10"/>
<path d="M46.1201 3.12012H10.1201V82.1201H46.1201C46.1201 55.7901 46.1201 29.4501 46.1201 3.12012Z" stroke="#010101" stroke-width="0.25" stroke-miterlimit="10"/>
<path d="M42.0002 75.6702L39.9402 73.6802" stroke="#010101" stroke-width="0.25" stroke-miterlimit="10"/>
<path d="M40.5601 44.2402V44.8602" stroke="#010101" stroke-width="0.25" stroke-miterlimit="10"/>
<path d="M46.8801 83.1201H49.1301V0.120117H7.12012V83.1201H46.8701V82.8701H9.37012" stroke="#010101" stroke-width="0.25" stroke-miterlimit="10"/>
<path d="M42 44.8703V45.8603H14.25V8.09033H42V44.2303" stroke="#010101" stroke-width="0.25" stroke-miterlimit="10"/>
<path d="M14.25 75.6702L16.31 73.6802" stroke="#010101" stroke-width="0.25" stroke-miterlimit="10"/>
<path d="M31.4202 75.6702L33.4802 73.6802" stroke="#010101" stroke-width="0.25" stroke-miterlimit="10"/>
<path d="M40.9702 21.2603H32.9202V32.6903H40.9702" stroke="#010101" stroke-width="0.25" stroke-miterlimit="10"/>
<path d="M43.1401 44.2501L43.1601 44.1901L43.1801 44.1301L43.2101 44.0701L43.2401 44.0201L43.2701 43.9701L43.3101 43.9201L43.3501 43.8701L43.3901 43.8301L43.4401 43.7901L43.4901 43.7501L43.5401 43.7201L43.5901 43.6901L43.6501 43.6601L43.7101 43.6401L43.7701 43.6201L43.8301 43.6001H43.8901L43.9501 43.5801H44.0101H44.0701H44.1301H44.1901H44.2501L44.3101 43.6001L44.3701 43.6201L44.4301 43.6401L44.4901 43.6601L44.5501 43.6901L44.6001 43.7201L44.6501 43.7501L44.7001 43.7901L44.7501 43.8301L44.7901 43.8701L44.8301 43.9201L44.8701 43.9701L44.9001 44.0201L44.9301 44.0701L44.9601 44.1301L44.9801 44.1901L45.0001 44.2501L45.0201 44.3101V44.3701L45.0401 44.4301V44.4901V44.5501V44.6101V44.6701V44.7301L45.0201 44.7901L45.0001 44.8501L44.9801 44.9101L44.9601 44.9701L44.9301 45.0301L44.9001 45.0801L44.8701 45.1301L44.8301 45.1801L44.7901 45.2301L44.7501 45.2701L44.7001 45.3101L44.6501 45.3501L44.6001 45.3801L44.5501 45.4101L44.4901 45.4401L44.4301 45.4601L44.3701 45.4801L44.3101 45.5001H44.2501L44.1901 45.5201H44.1301H44.0701H44.0101H43.9501H43.8901L43.8301 45.5001L43.7701 45.4801L43.7101 45.4601L43.6501 45.4401L43.5901 45.4101L43.5401 45.3801L43.4901 45.3501L43.4401 45.3101L43.3901 45.2701L43.3501 45.2301L43.3101 45.1801L43.2701 45.1301L43.2401 45.0801L43.2101 45.0301L43.1801 44.9701L43.1601 44.9101L43.1401 44.8501" stroke="#010101" stroke-width="0.25" stroke-miterlimit="10"/>
<path d="M31.4202 49.3301L33.4802 51.3201" stroke="#010101" stroke-width="0.25" stroke-miterlimit="10"/>
<path d="M43.8301 44.8599H43.8501L43.8701 44.8899H43.8901L43.9101 44.9099H43.9301L43.9501 44.9299H43.9701L43.9901 44.9399H44.0101H44.0301H44.0501H44.0701H44.0901H44.1101H44.1301L44.1501 44.9299H44.1701L44.1901 44.9099H44.2101L44.2301 44.8899H44.2501L44.2701 44.8599L44.2901 44.8399L44.3101 44.8199L44.3301 44.7999L44.3501 44.7799V44.7599L44.3801 44.7399V44.7199L44.4001 44.6999V44.6799L44.4201 44.6599V44.6399V44.6199V44.5999V44.5799V44.5599V44.5399V44.5199V44.4999V44.4799L44.4001 44.4599V44.4399L44.3801 44.4199V44.3999L44.3501 44.3799V44.3999" stroke="#010101" stroke-width="0.25" stroke-miterlimit="10"/>
<path d="M44.4201 44.3599V44.3399L44.3901 44.3199L44.3701 44.2999L44.3501 44.2799L44.3301 44.2599L44.3101 44.2399L44.2901 44.2199H44.2701L44.2501 44.1899H44.2301L44.2101 44.1699H44.1901L44.1701 44.1499H44.1501H44.1301H44.1101H44.0901H44.0701H44.0501H44.0301H44.0101H43.9901L43.9701 44.1699H43.9501L43.9301 44.1899H43.9101L43.8901 44.2199H43.8701" stroke="#010101" stroke-width="0.25" stroke-miterlimit="10"/>
<path d="M40.97 44.2401V9.08008H15.28V44.8501H40.37" stroke="#010101" stroke-width="0.25" stroke-miterlimit="10"/>
<path d="M32.9202 9.08008V20.5101H40.9702" stroke="#010101" stroke-width="0.25" stroke-miterlimit="10"/>
<path d="M43.8401 44.2402H40.3601V44.8702H43.8401" stroke="#010101" stroke-width="0.25" stroke-miterlimit="10"/>
<path d="M23.33 44.8602V33.4302H15.28" stroke="#010101" stroke-width="0.25" stroke-miterlimit="10"/>
<path d="M44.9402 48.21L44.9702 48.27" stroke="#010101" stroke-width="0.25" stroke-miterlimit="10"/>
<path d="M24.1001 32.6903H32.1501V21.2603H24.1001V32.6903Z" stroke="#010101" stroke-width="0.25" stroke-miterlimit="10"/>
<path d="M24.83 75.6702L22.77 73.6802" stroke="#010101" stroke-width="0.25" stroke-miterlimit="10"/>
<path d="M44.3601 48.2301V48.2101L44.34 48.1901V48.1701L44.32 48.1501H44.3101L44.3 48.1201" stroke="#010101" stroke-width="0.25" stroke-miterlimit="10"/>
<path d="M24.1001 9.08008V20.5101H32.1501V9.08008" stroke="#010101" stroke-width="0.25" stroke-miterlimit="10"/>
<path d="M15.27 32.6903H23.33V21.2603H15.28" stroke="#010101" stroke-width="0.25" stroke-miterlimit="10"/>
<path d="M15.28 20.5101H23.33V9.08008" stroke="#010101" stroke-width="0.25" stroke-miterlimit="10"/>
</g>
<defs>
<clipPath id="clip0_1601_2617">
<rect width="56.05" height="54.15" fill="white" transform="translate(0 46)"/>
</clipPath>
<clipPath id="clip1_1601_2617">
<rect width="42.25" height="83.25" fill="white" transform="translate(7)"/>
</clipPath>
</defs>
</svg>
