<svg width="57" height="101" viewBox="0 0 57 101" fill="none" xmlns="http://www.w3.org/2000/svg">
<g clip-path="url(#clip0_1601_2846)">
<path d="M55.9201 46.1201V65.1201H54.6201V75.6101H55.1201V94.6101H54.6201V100.01H1.42012V94.6101H0.920117V75.6101H1.42012V65.1201H0.120117V46.1201H5.32012V65.1201H4.02012V75.6101H4.52012V82.9901H51.5201V75.6101H52.0201V65.1201H50.7201V46.1201H55.9201Z" fill="white"/>
<path d="M4.53003 83H51.53" stroke="#010101" stroke-width="0.25" stroke-miterlimit="10"/>
<path d="M52.03 93.1299H54.63" stroke="#010101" stroke-width="0.25" stroke-miterlimit="10"/>
<path d="M55.1301 75.6201H54.6301" stroke="#010101" stroke-width="0.25" stroke-miterlimit="10"/>
<path d="M52.03 93.1299V91.6299" stroke="#010101" stroke-width="0.25" stroke-miterlimit="10"/>
<path d="M52.03 94.6201V100.02" stroke="#010101" stroke-width="0.25" stroke-miterlimit="10"/>
<path d="M54.6201 91.3799V66.6299" stroke="#010101" stroke-width="0.25" stroke-miterlimit="10"/>
<path d="M1.42017 91.6299H4.02017" stroke="#010101" stroke-width="0.25" stroke-miterlimit="10"/>
<path d="M0.120117 46.1201V63.6301" stroke="#010101" stroke-width="0.25" stroke-miterlimit="10"/>
<path d="M52.03 94.6201V93.1201" stroke="#010101" stroke-width="0.25" stroke-miterlimit="10"/>
<path d="M1.42017 91.3799V91.6299" stroke="#010101" stroke-width="0.25" stroke-miterlimit="10"/>
<path d="M0.930176 94.6201V93.1201" stroke="#010101" stroke-width="0.25" stroke-miterlimit="10"/>
<path d="M52.03 75.6201H51.53" stroke="#010101" stroke-width="0.25" stroke-miterlimit="10"/>
<path d="M1.42017 94.6201V100.02" stroke="#010101" stroke-width="0.25" stroke-miterlimit="10"/>
<path d="M1.42017 66.6299H4.02017" stroke="#010101" stroke-width="0.25" stroke-miterlimit="10"/>
<path d="M0.120117 63.6299H5.32012" stroke="#010101" stroke-width="0.25" stroke-miterlimit="10"/>
<path d="M50.7202 65.1299V63.6299" stroke="#010101" stroke-width="0.25" stroke-miterlimit="10"/>
<path d="M4.03003 94.6802H52.03" stroke="#010101" stroke-width="0.25" stroke-miterlimit="10"/>
<path d="M54.6201 93.1299H55.1201" stroke="#010101" stroke-width="0.25" stroke-miterlimit="10"/>
<path d="M4.52002 94.6201V93.1201" stroke="#010101" stroke-width="0.25" stroke-miterlimit="10"/>
<path d="M4.52002 93.1301V75.6201" stroke="#010101" stroke-width="0.25" stroke-miterlimit="10"/>
<path d="M51.53 75.6201V93.1301" stroke="#010101" stroke-width="0.25" stroke-miterlimit="10"/>
<path d="M52.03 66.6299V65.1299" stroke="#010101" stroke-width="0.25" stroke-miterlimit="10"/>
<path d="M4.52002 88.3403H51.52" stroke="#010101" stroke-width="0.25" stroke-miterlimit="10"/>
<path d="M4.52002 75.6201H4.02002" stroke="#010101" stroke-width="0.25" stroke-miterlimit="10"/>
<path d="M0.930176 93.1299H1.43018" stroke="#010101" stroke-width="0.25" stroke-miterlimit="10"/>
<path d="M4.03003 93.1299V91.6299" stroke="#010101" stroke-width="0.25" stroke-miterlimit="10"/>
<path d="M51.53 93.1299H52.03" stroke="#010101" stroke-width="0.25" stroke-miterlimit="10"/>
<path d="M55.9202 46.1201H50.7202" stroke="#010101" stroke-width="0.25" stroke-miterlimit="10"/>
<path d="M0.120117 65.1299V63.6299" stroke="#010101" stroke-width="0.25" stroke-miterlimit="10"/>
<path d="M54.6201 93.1299V91.6299" stroke="#010101" stroke-width="0.25" stroke-miterlimit="10"/>
<path d="M52.03 100.02H4.03003" stroke="#010101" stroke-width="0.25" stroke-miterlimit="10"/>
<path d="M55.9202 63.6301V46.1201" stroke="#010101" stroke-width="0.25" stroke-miterlimit="10"/>
<path d="M52.03 91.3799V66.6299" stroke="#010101" stroke-width="0.25" stroke-miterlimit="10"/>
<path d="M50.7202 63.6299H55.9202" stroke="#010101" stroke-width="0.25" stroke-miterlimit="10"/>
<path d="M55.9202 65.1299V63.6299" stroke="#010101" stroke-width="0.25" stroke-miterlimit="10"/>
<path d="M5.32012 46.1201H0.120117" stroke="#010101" stroke-width="0.25" stroke-miterlimit="10"/>
<path d="M52.03 91.6299H54.63" stroke="#010101" stroke-width="0.25" stroke-miterlimit="10"/>
<path d="M1.42017 94.6201V93.1201" stroke="#010101" stroke-width="0.25" stroke-miterlimit="10"/>
<path d="M52.03 91.3701V91.6201" stroke="#010101" stroke-width="0.25" stroke-miterlimit="10"/>
<path d="M55.1301 94.6201V93.1201" stroke="#010101" stroke-width="0.25" stroke-miterlimit="10"/>
<path d="M4.52002 93.6802H51.52" stroke="#010101" stroke-width="0.25" stroke-miterlimit="10"/>
<path d="M55.1301 93.1301V75.6201" stroke="#010101" stroke-width="0.25" stroke-miterlimit="10"/>
<path d="M1.42017 100.02H4.02017" stroke="#010101" stroke-width="0.25" stroke-miterlimit="10"/>
<path d="M52.03 66.6299H54.63" stroke="#010101" stroke-width="0.25" stroke-miterlimit="10"/>
<path d="M1.42017 66.6299V65.1299" stroke="#010101" stroke-width="0.25" stroke-miterlimit="10"/>
<path d="M0.930176 75.6201V93.1301" stroke="#010101" stroke-width="0.25" stroke-miterlimit="10"/>
<path d="M1.43018 75.6201H0.930176" stroke="#010101" stroke-width="0.25" stroke-miterlimit="10"/>
<path d="M4.53003 84H51.53" stroke="#010101" stroke-width="0.25" stroke-miterlimit="10"/>
<path d="M54.6201 93.1201V94.6201" stroke="#010101" stroke-width="0.25" stroke-miterlimit="10"/>
<path d="M4.03003 94.6201V100.02" stroke="#010101" stroke-width="0.25" stroke-miterlimit="10"/>
<path d="M54.6201 66.6299V65.1299" stroke="#010101" stroke-width="0.25" stroke-miterlimit="10"/>
<path d="M4.03003 66.6299V65.1299" stroke="#010101" stroke-width="0.25" stroke-miterlimit="10"/>
<path d="M1.42017 91.3799V66.6299" stroke="#010101" stroke-width="0.25" stroke-miterlimit="10"/>
<path d="M50.7202 65.1299H55.9202" stroke="#010101" stroke-width="0.25" stroke-miterlimit="10"/>
<path d="M51.53 94.6201H55.13" stroke="#010101" stroke-width="0.25" stroke-miterlimit="10"/>
<path d="M0.930176 94.6201H4.53018" stroke="#010101" stroke-width="0.25" stroke-miterlimit="10"/>
<path d="M0.120117 65.1299H5.32012" stroke="#010101" stroke-width="0.25" stroke-miterlimit="10"/>
<path d="M4.03003 91.3799V66.6299" stroke="#010101" stroke-width="0.25" stroke-miterlimit="10"/>
<path d="M4.03003 93.1201V94.6201" stroke="#010101" stroke-width="0.25" stroke-miterlimit="10"/>
<path d="M51.53 94.6201V93.1201" stroke="#010101" stroke-width="0.25" stroke-miterlimit="10"/>
<path d="M4.53003 89.3403H51.53" stroke="#010101" stroke-width="0.25" stroke-miterlimit="10"/>
<path d="M4.03003 93.1299H4.53003" stroke="#010101" stroke-width="0.25" stroke-miterlimit="10"/>
<path d="M52.03 100.02H54.63" stroke="#010101" stroke-width="0.25" stroke-miterlimit="10"/>
<path d="M54.6201 94.6201V100.02" stroke="#010101" stroke-width="0.25" stroke-miterlimit="10"/>
<path d="M1.42017 93.1299V91.6299" stroke="#010101" stroke-width="0.25" stroke-miterlimit="10"/>
<path d="M1.42017 93.1299H4.02017" stroke="#010101" stroke-width="0.25" stroke-miterlimit="10"/>
<path d="M4.03003 91.6299V91.3799" stroke="#010101" stroke-width="0.25" stroke-miterlimit="10"/>
<path d="M5.32007 63.6301V46.1201" stroke="#010101" stroke-width="0.25" stroke-miterlimit="10"/>
<path d="M5.32007 65.1299V63.6299" stroke="#010101" stroke-width="0.25" stroke-miterlimit="10"/>
<path d="M50.7202 46.1201V63.6301" stroke="#010101" stroke-width="0.25" stroke-miterlimit="10"/>
<path d="M1.42017 91.3799H4.02017" stroke="#010101" stroke-width="0.25" stroke-miterlimit="10"/>
<path d="M52.03 91.3799H54.63" stroke="#010101" stroke-width="0.25" stroke-miterlimit="10"/>
<path d="M54.6201 91.6299V91.3799" stroke="#010101" stroke-width="0.25" stroke-miterlimit="10"/>
<path d="M55.9202 65.1299V63.6299" stroke="#010101" stroke-width="0.25" stroke-miterlimit="10"/>
<path d="M55.9202 46.1201H50.7202" stroke="#010101" stroke-width="0.25" stroke-miterlimit="10"/>
<path d="M5.32007 65.1299V63.6299" stroke="#010101" stroke-width="0.25" stroke-miterlimit="10"/>
<path d="M5.32012 46.1201H0.120117" stroke="#010101" stroke-width="0.25" stroke-miterlimit="10"/>
<path d="M55.1301 93.1301V75.6201" stroke="#010101" stroke-width="0.25" stroke-miterlimit="10"/>
<path d="M1.42017 100.02H4.02017" stroke="#010101" stroke-width="0.25" stroke-miterlimit="10"/>
<path d="M4.52002 75.6201H4.02002" stroke="#010101" stroke-width="0.25" stroke-miterlimit="10"/>
<path d="M52.03 100.02H54.63" stroke="#010101" stroke-width="0.25" stroke-miterlimit="10"/>
<path d="M4.53003 83H51.53" stroke="#010101" stroke-width="0.25" stroke-miterlimit="10"/>
<path d="M54.6201 66.6299V65.1299" stroke="#010101" stroke-width="0.25" stroke-miterlimit="10"/>
<path d="M4.03003 66.6299V65.1299" stroke="#010101" stroke-width="0.25" stroke-miterlimit="10"/>
<path d="M0.930176 94.6201H4.53018" stroke="#010101" stroke-width="0.25" stroke-miterlimit="10"/>
<path d="M51.53 75.6201V93.1301" stroke="#010101" stroke-width="0.25" stroke-miterlimit="10"/>
<path d="M0.120117 65.1299H5.32012" stroke="#010101" stroke-width="0.25" stroke-miterlimit="10"/>
<path d="M50.7202 65.1299H55.9202" stroke="#010101" stroke-width="0.25" stroke-miterlimit="10"/>
<path d="M1.42017 66.6299V65.1299" stroke="#010101" stroke-width="0.25" stroke-miterlimit="10"/>
<path d="M52.03 66.6299V65.1299" stroke="#010101" stroke-width="0.25" stroke-miterlimit="10"/>
<path d="M54.6201 93.1201V94.6201" stroke="#010101" stroke-width="0.25" stroke-miterlimit="10"/>
<path d="M1.43018 75.6201H0.930176" stroke="#010101" stroke-width="0.25" stroke-miterlimit="10"/>
<path d="M54.6201 94.6201V100.02" stroke="#010101" stroke-width="0.25" stroke-miterlimit="10"/>
<path d="M0.930176 75.6201V93.1301" stroke="#010101" stroke-width="0.25" stroke-miterlimit="10"/>
<path d="M0.930176 94.6201V93.1201" stroke="#010101" stroke-width="0.25" stroke-miterlimit="10"/>
<path d="M52.03 75.6201H51.53" stroke="#010101" stroke-width="0.25" stroke-miterlimit="10"/>
<path d="M1.42017 94.6201V93.1201" stroke="#010101" stroke-width="0.25" stroke-miterlimit="10"/>
<path d="M1.42017 94.6201V100.02" stroke="#010101" stroke-width="0.25" stroke-miterlimit="10"/>
<path d="M55.1301 75.6201H54.6301" stroke="#010101" stroke-width="0.25" stroke-miterlimit="10"/>
<path d="M55.1301 94.6201V93.1201" stroke="#010101" stroke-width="0.25" stroke-miterlimit="10"/>
<path d="M0.120117 46.1201V63.6301" stroke="#010101" stroke-width="0.25" stroke-miterlimit="10"/>
<path d="M5.32007 63.6301V46.1201" stroke="#010101" stroke-width="0.25" stroke-miterlimit="10"/>
<path d="M0.120117 65.1299V63.6299" stroke="#010101" stroke-width="0.25" stroke-miterlimit="10"/>
<path d="M50.7202 46.1201V63.6301" stroke="#010101" stroke-width="0.25" stroke-miterlimit="10"/>
<path d="M55.9202 63.6301V46.1201" stroke="#010101" stroke-width="0.25" stroke-miterlimit="10"/>
<path d="M50.7202 65.1299V63.6299" stroke="#010101" stroke-width="0.25" stroke-miterlimit="10"/>
<path d="M52.03 100.02H4.03003" stroke="#010101" stroke-width="0.25" stroke-miterlimit="10"/>
</g>
<g clip-path="url(#clip1_1601_2846)">
<path d="M49.1201 0.120117H7.12012V83.1201H49.1201V0.120117Z" fill="white"/>
<path d="M15.6902 44.2402V44.8702" stroke="#010101" stroke-width="0.25" stroke-miterlimit="10"/>
<path d="M42.0002 75.6702L39.9402 73.6802" stroke="#010101" stroke-width="0.25" stroke-miterlimit="10"/>
<path d="M31.4202 75.6702L33.4802 73.6802" stroke="#010101" stroke-width="0.25" stroke-miterlimit="10"/>
<path d="M42.0002 49.3301L39.9402 51.3201" stroke="#010101" stroke-width="0.25" stroke-miterlimit="10"/>
<path d="M31.4202 49.3301L33.4802 51.3201" stroke="#010101" stroke-width="0.25" stroke-miterlimit="10"/>
<path d="M14.25 49.3301L16.31 51.3201" stroke="#010101" stroke-width="0.25" stroke-miterlimit="10"/>
<path d="M14.25 75.6702L16.31 73.6802" stroke="#010101" stroke-width="0.25" stroke-miterlimit="10"/>
<path d="M24.83 75.6702L22.77 73.6802" stroke="#010101" stroke-width="0.25" stroke-miterlimit="10"/>
<path d="M24.83 49.3301L22.77 51.3201" stroke="#010101" stroke-width="0.25" stroke-miterlimit="10"/>
<path d="M9.37012 82.8701H46.8701" stroke="#010101" stroke-width="0.25" stroke-miterlimit="10"/>
<path d="M12.4001 44.8702H12.3801L12.3601 44.9002H12.3401L12.3201 44.9202H12.3001L12.2801 44.9402H12.2601H12.2401H12.2201H12.2001H12.1801H12.1601H12.1401H12.1201H12.1001L12.0801 44.9202H12.0601L12.0401 44.9002H12.0201L12.0001 44.8702L11.9801 44.8502L11.9601 44.8302L11.9401 44.8102L11.9201 44.7902L11.9001 44.7702V44.7502L11.8701 44.7302M11.8701 44.7302V44.7502M11.8701 44.7302V44.7102L11.8501 44.6902V44.6702L11.8301 44.6502V44.6302V44.6102V44.5902V44.5702V44.5502V44.5302V44.5102V44.4902V44.4702L11.8501 44.4502V44.4302L11.8701 44.4102V44.3902L11.9001 44.3702L11.9201 44.3502L11.9401 44.3302L11.9601 44.3102L11.9801 44.2902L12.0001 44.2702H12.0201L12.0401 44.2402H12.0601L12.0801 44.2202H12.1001L12.1201 44.2002H12.1401H12.1601H12.1801H12.2001H12.2201H12.2401H12.2601H12.2801H12.3001L12.3201 44.2202H12.3401L12.3601 44.2402H12.3801L12.4001 44.2702" stroke="#010101" stroke-width="0.25" stroke-miterlimit="10"/>
<path d="M11.34 49.2101L11.31 49.1601L11.28 49.1001" stroke="#010101" stroke-width="0.25" stroke-miterlimit="10"/>
<path d="M12.4302 48.2002V48.2202L12.4502 48.2402" stroke="#010101" stroke-width="0.25" stroke-miterlimit="10"/>
<path d="M11.8901 48.53V48.51V48.49L11.8701 48.47V48.45L11.8601 48.43V48.41V48.39V48.37V48.35V48.33V48.31V48.29V48.27V48.25L11.8701 48.23V48.21L11.8901 48.19V48.17L11.9101 48.15V48.13L11.9401 48.12H11.9501L11.9701 48.09H11.9901L12.0101 48.07H12.0301L12.0501 48.05H12.0701L12.0901 48.04H12.1101H12.1301H12.1501H12.1701H12.1901H12.2101H12.2301H12.2501H12.2701L12.2901 48.05H12.3101L12.3301 48.07H12.3501L12.3701 48.09H12.3901L12.4101 48.11H12.4201L12.4301 48.14V48.16L12.4501 48.18V48.2L12.4701 48.22V48.24L12.4901 48.26V48.28L12.5001 48.3V48.32V48.34V48.36V48.38V48.4V48.42V48.44V48.46V48.48L12.4901 48.5V48.52L12.4701 48.54V48.56L12.4501 48.58H12.4401V49.29H11.9801V48.61H11.9701L11.9601 48.58V48.56L11.9401 48.54V48.56" stroke="#010101" stroke-width="0.25" stroke-miterlimit="10"/>
<path d="M11.3402 49.21L11.3702 49.26L11.4102 49.31L11.4502 49.36L11.4902 49.4L11.5402 49.44L11.5902 49.48L11.6402 49.51L11.6902 49.54L11.7502 49.57L11.8102 49.59L11.8702 49.61L11.9302 49.63H11.9902L12.0502 49.65H12.1102H12.1702H12.2302H12.2902H12.3502L12.4102 49.63L12.4702 49.61L12.5302 49.59L12.5902 49.57L12.6502 49.54L12.7002 49.51L12.7502 49.48L12.8002 49.44L12.8502 49.4L12.8902 49.36L12.9302 49.31L12.9702 49.26L13.0002 49.21L13.0302 49.16L13.0602 49.1L13.0802 49.04L13.1002 48.98L13.1202 48.92V48.86L13.1402 48.8V48.74V48.68V48.62V48.56V48.5L13.1202 48.44L13.1002 48.38L13.0802 48.32L13.0602 48.26L13.0302 48.2L13.0002 48.15L12.9702 48.1L12.9302 48.05L12.8902 48L12.8502 47.96L12.8002 47.92L12.7502 47.88L12.7002 47.85L12.6502 47.82L12.5902 47.79L12.5302 47.77L12.4702 47.75L12.4102 47.73H12.3502L12.2902 47.71H12.2302H12.1702H12.1102H12.0502H11.9902L11.9302 47.73L11.8702 47.75L11.8102 47.77L11.7502 47.79L11.6902 47.82L11.6402 47.85L11.5902 47.88L11.5402 47.92L11.4902 47.96L11.4502 48L11.4102 48.05L11.3702 48.1L11.3402 48.15L11.3102 48.2L11.2802 48.26L11.2602 48.32L11.2402 48.38L11.2202 48.44V48.5L11.2002 48.56V48.62V48.68V48.74V48.8V48.86L11.2202 48.92L11.2402 48.98L11.2602 49.04L11.2802 49.1L11.3102 49.16L11.3402 49.21Z" stroke="#010101" stroke-width="0.25" stroke-miterlimit="10"/>
<path d="M14.25 44.2403V8.09033H42V45.8503H14.25V44.8603" stroke="#010101" stroke-width="0.25" stroke-miterlimit="10"/>
<path d="M15.88 44.8701H40.97V9.08008H15.28V44.2301" stroke="#010101" stroke-width="0.25" stroke-miterlimit="10"/>
<path d="M10.1301 82.1201C10.1301 55.7901 10.1301 29.4501 10.1301 3.12012H46.1301C46.1301 29.4501 46.1301 55.7901 46.1301 82.1201H10.1301Z" stroke="#010101" stroke-width="0.25" stroke-miterlimit="10"/>
<path d="M12.4202 44.8602H12.4102L15.6902 44.8702H15.8902V44.2402H12.4102H12.4202" stroke="#010101" stroke-width="0.25" stroke-miterlimit="10"/>
<path d="M9.37012 83.1201H7.12012V0.120117H49.1201V83.1201H9.37012ZM9.37012 83.1201V2.37012H46.8701V83.1201" stroke="#010101" stroke-width="0.25" stroke-miterlimit="10"/>
<path d="M9.62012 82.8701V2.62012H46.6201V82.8701" stroke="#010101" stroke-width="0.25" stroke-miterlimit="10"/>
<path d="M13.1102 44.2501L13.0902 44.1901L13.0702 44.1301L13.0402 44.0701L13.0102 44.0201L12.9802 43.9701L12.9402 43.9201L12.9002 43.8701L12.8602 43.8301L12.8102 43.7901L12.7602 43.7501L12.7102 43.7201L12.6602 43.6901L12.6002 43.6601L12.5402 43.6401L12.4802 43.6201L12.4202 43.6001H12.3602L12.3002 43.5801H12.2402H12.1802H12.1202H12.0602H12.0002L11.9402 43.6001L11.8802 43.6201L11.8202 43.6401L11.7602 43.6601L11.7002 43.6901L11.6502 43.7201L11.6002 43.7501L11.5502 43.7901L11.5002 43.8301L11.4602 43.8701L11.4202 43.9201L11.3802 43.9701L11.3502 44.0201L11.3202 44.0701L11.2902 44.1301L11.2702 44.1901L11.2502 44.2501L11.2302 44.3101V44.3701L11.2102 44.4301V44.4901V44.5501V44.6101V44.6701V44.7301L11.2302 44.7901L11.2502 44.8501L11.2702 44.9101L11.2902 44.9701L11.3202 45.0301L11.3502 45.0801L11.3802 45.1301L11.4202 45.1801L11.4602 45.2301L11.5002 45.2701L11.5502 45.3101L11.6002 45.3501L11.6502 45.3801L11.7002 45.4101L11.7602 45.4401L11.8202 45.4601L11.8802 45.4801L11.9402 45.5001H12.0002L12.0602 45.5201H12.1202H12.1802H12.2402H12.3002H12.3602L12.4202 45.5001L12.4802 45.4801L12.5402 45.4601L12.6002 45.4401L12.6602 45.4101L12.7102 45.3801L12.7602 45.3501L12.8102 45.3101L12.8602 45.2701L12.9002 45.2301L12.9402 45.1801L12.9802 45.1301L13.0102 45.0801L13.0402 45.0301L13.0702 44.9701L13.0902 44.9101L13.1102 44.8501" stroke="#010101" stroke-width="0.25" stroke-miterlimit="10"/>
<path d="M14.25 49.3301V75.6601H24.83V49.3301H14.25Z" stroke="#010101" stroke-width="0.25" stroke-miterlimit="10"/>
<path d="M31.4202 49.3301V75.6601H42.0002V49.3301H31.4202Z" stroke="#010101" stroke-width="0.25" stroke-miterlimit="10"/>
<path d="M39.9402 73.6803H33.4702V51.3203H39.9402V73.6803Z" stroke="#010101" stroke-width="0.25" stroke-miterlimit="10"/>
<path d="M22.77 73.6803H16.3V51.3203H22.77V73.6803Z" stroke="#010101" stroke-width="0.25" stroke-miterlimit="10"/>
</g>
<defs>
<clipPath id="clip0_1601_2846">
<rect width="56.05" height="54.15" fill="white" transform="translate(0 46)"/>
</clipPath>
<clipPath id="clip1_1601_2846">
<rect width="42.25" height="83.25" fill="white" transform="translate(7)"/>
</clipPath>
</defs>
</svg>
