<?xml version="1.0" encoding="UTF-8"?>
<svg id="Layer_2" data-name="Layer 2" xmlns="http://www.w3.org/2000/svg" viewBox="0 0 76.25 25.72">
  <defs>
    <style>
      .cls-1, .cls-2 {
        fill: none;
        stroke: #000;
        stroke-linecap: round;
        stroke-linejoin: round;
        stroke-width: .25px;
      }

      .cls-2 {
        stroke-dasharray: 0 0 .6 .3;
      }
    </style>
  </defs>
  <g id="Default">
    <g id="LINE">
      <line class="cls-1" x1="74.06" y1="5.88" x2="74.06" y2="6"/>
    </g>
    <g id="LINE-2" data-name="LINE">
      <line class="cls-1" x1="74.25" y1="4.28" x2="74.25" y2="6.06"/>
    </g>
    <g id="LINE-3" data-name="LINE">
      <line class="cls-1" x1="74.25" y1="6.06" x2="74.06" y2="6"/>
    </g>
    <g id="LINE-4" data-name="LINE">
      <line class="cls-1" x1="74.06" y1="6" x2="74.06" y2="4.28"/>
    </g>
    <g id="LINE-5" data-name="LINE">
      <line class="cls-1" x1="74.06" y1="4.28" x2="74.25" y2="4.28"/>
    </g>
    <g id="LINE-6" data-name="LINE">
      <line class="cls-1" x1="73.88" y1="4.28" x2="73.88" y2="6.06"/>
    </g>
    <g id="LINE-7" data-name="LINE">
      <line class="cls-1" x1="73.88" y1="6.06" x2="74.06" y2="6"/>
    </g>
    <g id="LINE-8" data-name="LINE">
      <line class="cls-1" x1="74.06" y1="6" x2="74.06" y2="4.28"/>
    </g>
    <g id="LINE-9" data-name="LINE">
      <line class="cls-1" x1="74.06" y1="4.28" x2="73.88" y2="4.28"/>
    </g>
    <g id="SPLINE">
      <path class="cls-1" d="M74.06,6c.16,0,.29.13.29.28"/>
    </g>
    <g id="SPLINE-2" data-name="SPLINE">
      <path class="cls-1" d="M74.35,6.28c0,.16-.13.28-.29.28"/>
    </g>
    <g id="SPLINE-3" data-name="SPLINE">
      <path class="cls-1" d="M74.06,6.57c-.16,0-.28-.13-.28-.28"/>
    </g>
    <g id="SPLINE-4" data-name="SPLINE">
      <path class="cls-1" d="M73.78,6.28c0-.16.13-.28.28-.28"/>
    </g>
    <g id="LINE-10" data-name="LINE">
      <line class="cls-1" x1="73.88" y1="5.88" x2="74.06" y2="5.88"/>
    </g>
    <g id="LINE-11" data-name="LINE">
      <line class="cls-1" x1="43.56" y1="23.57" x2="42.26" y2="24.32"/>
    </g>
    <g id="LINE-12" data-name="LINE">
      <line class="cls-1" x1="42.26" y1="24.32" x2="42.19" y2="24.21"/>
    </g>
    <g id="LINE-13" data-name="LINE">
      <line class="cls-1" x1="42.19" y1="24.21" x2="43.49" y2="23.46"/>
    </g>
    <g id="LINE-14" data-name="LINE">
      <line class="cls-1" x1="43.49" y1="23.46" x2="43.56" y2="23.57"/>
    </g>
    <g id="ARC">
      <path class="cls-2" d="M38.05,5.87c-.02,6.31,1.64,12.5,4.79,17.96"/>
    </g>
    <g id="LINE-15" data-name="LINE">
      <line class="cls-1" x1="2.12" y1=".12" x2="74.13" y2=".12"/>
    </g>
    <g id="LINE-16" data-name="LINE">
      <line class="cls-1" x1="74.13" y1=".12" x2="74.13" y2="5.88"/>
    </g>
    <g id="LINE-17" data-name="LINE">
      <line class="cls-1" x1="74.13" y1="5.88" x2="2.12" y2="5.88"/>
    </g>
    <g id="LINE-18" data-name="LINE">
      <line class="cls-1" x1="2.12" y1="5.88" x2="2.12" y2=".12"/>
    </g>
    <g id="LINE-19" data-name="LINE">
      <line class="cls-1" x1="2.19" y1="5.88" x2="2.19" y2="6"/>
    </g>
    <g id="LINE-20" data-name="LINE">
      <line class="cls-1" x1="2" y1="4.28" x2="2" y2="6.06"/>
    </g>
    <g id="LINE-21" data-name="LINE">
      <line class="cls-1" x1="2" y1="6.06" x2="2.19" y2="6"/>
    </g>
    <g id="LINE-22" data-name="LINE">
      <line class="cls-1" x1="2.19" y1="6" x2="2.19" y2="4.28"/>
    </g>
    <g id="LINE-23" data-name="LINE">
      <line class="cls-1" x1="2.19" y1="4.28" x2="2" y2="4.28"/>
    </g>
    <g id="LINE-24" data-name="LINE">
      <line class="cls-1" x1="2.37" y1="4.28" x2="2.37" y2="6.06"/>
    </g>
    <g id="LINE-25" data-name="LINE">
      <line class="cls-1" x1="2.37" y1="6.06" x2="2.19" y2="6"/>
    </g>
    <g id="LINE-26" data-name="LINE">
      <line class="cls-1" x1="2.19" y1="6" x2="2.19" y2="4.28"/>
    </g>
    <g id="LINE-27" data-name="LINE">
      <line class="cls-1" x1="2.19" y1="4.28" x2="2.37" y2="4.28"/>
    </g>
    <g id="SPLINE-5" data-name="SPLINE">
      <path class="cls-1" d="M2.19,6c-.16,0-.29.13-.29.28"/>
    </g>
    <g id="SPLINE-6" data-name="SPLINE">
      <path class="cls-1" d="M1.9,6.28c0,.16.13.28.29.28"/>
    </g>
    <g id="SPLINE-7" data-name="SPLINE">
      <path class="cls-1" d="M2.19,6.57c.16,0,.28-.13.28-.28"/>
    </g>
    <g id="SPLINE-8" data-name="SPLINE">
      <path class="cls-1" d="M2.47,6.28c0-.16-.13-.28-.28-.28"/>
    </g>
    <g id="LINE-28" data-name="LINE">
      <line class="cls-1" x1="2.37" y1="5.88" x2="2.19" y2="5.88"/>
    </g>
    <g id="LINE-29" data-name="LINE">
      <line class="cls-1" x1="2.57" y1="5.96" x2="38.05" y2="5.96"/>
    </g>
    <g id="LINE-30" data-name="LINE">
      <line class="cls-1" x1="38.05" y1="5.96" x2="38.05" y2="4.21"/>
    </g>
    <g id="LINE-31" data-name="LINE">
      <line class="cls-1" x1="38.05" y1="4.21" x2="2.45" y2="4.21"/>
    </g>
    <g id="LINE-32" data-name="LINE">
      <line class="cls-1" x1="2.45" y1="4.21" x2="2.45" y2="5.96"/>
    </g>
    <g id="LINE-33" data-name="LINE">
      <line class="cls-1" x1="2.45" y1="5.96" x2="2.57" y2="5.96"/>
    </g>
    <g id="LINE-34" data-name="LINE">
      <line class="cls-1" x1="2.13" y1="1.62" x2="2.75" y2="1.62"/>
    </g>
    <g id="LINE-35" data-name="LINE">
      <line class="cls-1" x1="2.75" y1="1.62" x2="2.75" y2="3.87"/>
    </g>
    <g id="LINE-36" data-name="LINE">
      <line class="cls-1" x1="2.75" y1="3.87" x2="2.13" y2="3.87"/>
    </g>
    <g id="LINE-37" data-name="LINE">
      <line class="cls-1" x1="2.13" y1="3.87" x2="2.13" y2="1.62"/>
    </g>
    <g id="LINE-38" data-name="LINE">
      <line class="cls-1" x1=".12" y1="5.44" x2=".12" y2="5.88"/>
    </g>
    <g id="LINE-39" data-name="LINE">
      <line class="cls-1" x1=".12" y1="5.88" x2="2.12" y2="5.88"/>
    </g>
    <g id="LINE-40" data-name="LINE">
      <line class="cls-1" x1="2.12" y1="5.88" x2="2.12" y2="3.87"/>
    </g>
    <g id="LINE-41" data-name="LINE">
      <line class="cls-1" x1="2.12" y1="3.87" x2="2.75" y2="3.87"/>
    </g>
    <g id="LINE-42" data-name="LINE">
      <line class="cls-1" x1="2.75" y1="3.87" x2="2.75" y2="1.63"/>
    </g>
    <g id="LINE-43" data-name="LINE">
      <line class="cls-1" x1="2.75" y1="1.63" x2="2.12" y2="1.63"/>
    </g>
    <g id="LINE-44" data-name="LINE">
      <line class="cls-1" x1="2.12" y1="1.63" x2="2.12" y2=".13"/>
    </g>
    <g id="LINE-45" data-name="LINE">
      <line class="cls-1" x1="2.12" y1=".13" x2=".12" y2=".13"/>
    </g>
    <g id="LINE-46" data-name="LINE">
      <line class="cls-1" x1=".12" y1=".13" x2=".12" y2=".56"/>
    </g>
    <g id="LINE-47" data-name="LINE">
      <line class="cls-1" x1="73.7" y1="6.02" x2="42.84" y2="23.84"/>
    </g>
    <g id="LINE-48" data-name="LINE">
      <line class="cls-1" x1="42.84" y1="23.84" x2="41.97" y2="22.32"/>
    </g>
    <g id="LINE-49" data-name="LINE">
      <line class="cls-1" x1="41.97" y1="22.32" x2="72.93" y2="4.45"/>
    </g>
    <g id="LINE-50" data-name="LINE">
      <line class="cls-1" x1="72.93" y1="4.45" x2="73.8" y2="5.96"/>
    </g>
    <g id="LINE-51" data-name="LINE">
      <line class="cls-1" x1="73.8" y1="5.96" x2="73.7" y2="6.02"/>
    </g>
    <g id="LINE-52" data-name="LINE">
      <line class="cls-1" x1="42.15" y1="18.49" x2="43.11" y2="17.94"/>
    </g>
    <g id="LINE-53" data-name="LINE">
      <line class="cls-1" x1="42.15" y1="18.49" x2="43.11" y2="17.94"/>
    </g>
    <g id="LINE-54" data-name="LINE">
      <line class="cls-1" x1="43.73" y1="18.08" x2="44.73" y2="19.81"/>
    </g>
    <g id="LINE-55" data-name="LINE">
      <line class="cls-1" x1="44.73" y1="19.81" x2="44.33" y2="20.05"/>
    </g>
    <g id="LINE-56" data-name="LINE">
      <line class="cls-1" x1="44.33" y1="20.05" x2="43.32" y2="18.31"/>
    </g>
    <g id="LINE-57" data-name="LINE">
      <line class="cls-1" x1="43.32" y1="18.31" x2="43.73" y2="18.08"/>
    </g>
    <g id="LINE-58" data-name="LINE">
      <line class="cls-1" x1="42.71" y1="21.43" x2="43.37" y2="20.6"/>
    </g>
    <g id="LINE-59" data-name="LINE">
      <line class="cls-1" x1="43.37" y1="20.6" x2="44.33" y2="20.05"/>
    </g>
    <g id="LINE-60" data-name="LINE">
      <line class="cls-1" x1="44.33" y1="20.05" x2="45.37" y2="19.9"/>
    </g>
    <g id="LINE-61" data-name="LINE">
      <line class="cls-1" x1="47" y1="17.2" x2="46.28" y2="16.61"/>
    </g>
    <g id="LINE-62" data-name="LINE">
      <line class="cls-1" x1="46.28" y1="16.61" x2="43.32" y2="18.31"/>
    </g>
    <g id="LINE-63" data-name="LINE">
      <line class="cls-1" x1="43.32" y1="18.31" x2="44.33" y2="20.05"/>
    </g>
    <g id="LINE-64" data-name="LINE">
      <line class="cls-1" x1="44.33" y1="20.05" x2="43.37" y2="20.6"/>
    </g>
    <g id="LINE-65" data-name="LINE">
      <line class="cls-1" x1="43.37" y1="20.6" x2="42.15" y2="18.49"/>
    </g>
    <g id="LINE-66" data-name="LINE">
      <line class="cls-1" x1="42.15" y1="18.49" x2="46.27" y2="16.11"/>
    </g>
    <g id="LINE-67" data-name="LINE">
      <line class="cls-1" x1="46.27" y1="16.11" x2="47.32" y2="17.14"/>
    </g>
    <g id="LINE-68" data-name="LINE">
      <line class="cls-1" x1="47.32" y1="17.14" x2="47.08" y2="17.28"/>
    </g>
    <g id="LINE-69" data-name="LINE">
      <line class="cls-1" x1="47.08" y1="17.28" x2="47" y2="17.2"/>
    </g>
    <g id="LINE-70" data-name="LINE">
      <line class="cls-1" x1="45.37" y1="19.9" x2="42.71" y2="21.43"/>
    </g>
    <g id="LINE-71" data-name="LINE">
      <line class="cls-1" x1="45.37" y1="19.9" x2="42.71" y2="21.43"/>
    </g>
    <g id="LINE-72" data-name="LINE">
      <line class="cls-1" x1="42.71" y1="21.43" x2="42.91" y2="21.78"/>
    </g>
    <g id="LINE-73" data-name="LINE">
      <line class="cls-1" x1="42.91" y1="21.78" x2="45.57" y2="20.24"/>
    </g>
    <g id="LINE-74" data-name="LINE">
      <line class="cls-1" x1="45.57" y1="20.24" x2="45.37" y2="19.9"/>
    </g>
    <g id="LINE-75" data-name="LINE">
      <line class="cls-1" x1="46.26" y1="25.6" x2="47.21" y2="25.05"/>
    </g>
    <g id="LINE-76" data-name="LINE">
      <line class="cls-1" x1="46.26" y1="25.6" x2="47.21" y2="25.05"/>
    </g>
    <g id="LINE-77" data-name="LINE">
      <line class="cls-1" x1="47.4" y1="24.44" x2="46.4" y2="22.7"/>
    </g>
    <g id="LINE-78" data-name="LINE">
      <line class="cls-1" x1="46.4" y1="22.7" x2="45.99" y2="22.93"/>
    </g>
    <g id="LINE-79" data-name="LINE">
      <line class="cls-1" x1="45.99" y1="22.93" x2="46.99" y2="24.67"/>
    </g>
    <g id="LINE-80" data-name="LINE">
      <line class="cls-1" x1="46.99" y1="24.67" x2="47.4" y2="24.44"/>
    </g>
    <g id="LINE-81" data-name="LINE">
      <line class="cls-1" x1="43.99" y1="23.64" x2="45.04" y2="23.49"/>
    </g>
    <g id="LINE-82" data-name="LINE">
      <line class="cls-1" x1="45.04" y1="23.49" x2="45.99" y2="22.93"/>
    </g>
    <g id="LINE-83" data-name="LINE">
      <line class="cls-1" x1="45.99" y1="22.93" x2="46.64" y2="22.1"/>
    </g>
    <g id="LINE-84" data-name="LINE">
      <line class="cls-1" x1="49.8" y1="22.04" x2="49.95" y2="22.96"/>
    </g>
    <g id="LINE-85" data-name="LINE">
      <line class="cls-1" x1="49.95" y1="22.96" x2="46.99" y2="24.67"/>
    </g>
    <g id="LINE-86" data-name="LINE">
      <line class="cls-1" x1="46.99" y1="24.67" x2="45.99" y2="22.93"/>
    </g>
    <g id="LINE-87" data-name="LINE">
      <line class="cls-1" x1="45.99" y1="22.93" x2="45.04" y2="23.49"/>
    </g>
    <g id="LINE-88" data-name="LINE">
      <line class="cls-1" x1="45.04" y1="23.49" x2="46.26" y2="25.6"/>
    </g>
    <g id="LINE-89" data-name="LINE">
      <line class="cls-1" x1="46.26" y1="25.6" x2="50.37" y2="23.22"/>
    </g>
    <g id="LINE-90" data-name="LINE">
      <line class="cls-1" x1="50.37" y1="23.22" x2="50" y2="21.8"/>
    </g>
    <g id="LINE-91" data-name="LINE">
      <line class="cls-1" x1="50" y1="21.8" x2="49.77" y2="21.93"/>
    </g>
    <g id="LINE-92" data-name="LINE">
      <line class="cls-1" x1="49.77" y1="21.93" x2="49.8" y2="22.04"/>
    </g>
    <g id="LINE-93" data-name="LINE">
      <line class="cls-1" x1="46.64" y1="22.1" x2="43.99" y2="23.64"/>
    </g>
    <g id="LINE-94" data-name="LINE">
      <line class="cls-1" x1="46.64" y1="22.1" x2="43.99" y2="23.64"/>
    </g>
    <g id="LINE-95" data-name="LINE">
      <line class="cls-1" x1="43.99" y1="23.64" x2="43.79" y2="23.3"/>
    </g>
    <g id="LINE-96" data-name="LINE">
      <line class="cls-1" x1="43.79" y1="23.3" x2="46.45" y2="21.76"/>
    </g>
    <g id="LINE-97" data-name="LINE">
      <line class="cls-1" x1="46.45" y1="21.76" x2="46.64" y2="22.1"/>
    </g>
    <g id="LINE-98" data-name="LINE">
      <line class="cls-1" x1="74.13" y1="1.62" x2="73.5" y2="1.62"/>
    </g>
    <g id="LINE-99" data-name="LINE">
      <line class="cls-1" x1="73.5" y1="1.62" x2="73.5" y2="3.87"/>
    </g>
    <g id="LINE-100" data-name="LINE">
      <line class="cls-1" x1="73.5" y1="3.87" x2="74.13" y2="3.87"/>
    </g>
    <g id="LINE-101" data-name="LINE">
      <line class="cls-1" x1="74.13" y1="3.87" x2="74.13" y2="1.62"/>
    </g>
    <g id="LINE-102" data-name="LINE">
      <line class="cls-1" x1="76.13" y1="5.44" x2="76.13" y2="5.88"/>
    </g>
    <g id="LINE-103" data-name="LINE">
      <line class="cls-1" x1="76.13" y1="5.88" x2="74.13" y2="5.88"/>
    </g>
    <g id="LINE-104" data-name="LINE">
      <line class="cls-1" x1="74.13" y1="5.88" x2="74.13" y2="3.87"/>
    </g>
    <g id="LINE-105" data-name="LINE">
      <line class="cls-1" x1="74.13" y1="3.87" x2="73.5" y2="3.87"/>
    </g>
    <g id="LINE-106" data-name="LINE">
      <line class="cls-1" x1="73.5" y1="3.87" x2="73.5" y2="1.63"/>
    </g>
    <g id="LINE-107" data-name="LINE">
      <line class="cls-1" x1="73.5" y1="1.63" x2="74.13" y2="1.63"/>
    </g>
    <g id="LINE-108" data-name="LINE">
      <line class="cls-1" x1="74.13" y1="1.63" x2="74.13" y2=".13"/>
    </g>
    <g id="LINE-109" data-name="LINE">
      <line class="cls-1" x1="74.13" y1=".13" x2="76.13" y2=".13"/>
    </g>
    <g id="LINE-110" data-name="LINE">
      <line class="cls-1" x1="76.13" y1=".13" x2="76.13" y2=".56"/>
    </g>
  </g>
  <g id="_0" data-name="0">
    <g id="LINE-111" data-name="LINE">
      <line class="cls-1" x1="74.06" y1="6" x2="74.06" y2="5.88"/>
    </g>
    <g id="LINE-112" data-name="LINE">
      <line class="cls-1" x1="74.06" y1="5.88" x2="73.88" y2="5.88"/>
    </g>
    <g id="LINE-113" data-name="LINE">
      <line class="cls-1" x1="42.84" y1="23.84" x2="38.05" y2="5.87"/>
    </g>
    <g id="LINE-114" data-name="LINE">
      <line class="cls-1" x1="2.19" y1="6" x2="2.19" y2="5.88"/>
    </g>
    <g id="LINE-115" data-name="LINE">
      <line class="cls-1" x1="2.19" y1="5.88" x2="2.37" y2="5.88"/>
    </g>
    <g id="LINE-116" data-name="LINE">
      <line class="cls-1" x1=".12" y1=".56" x2=".12" y2="5.44"/>
    </g>
    <g id="LINE-117" data-name="LINE">
      <line class="cls-1" x1="43.11" y1="17.94" x2="42.15" y2="18.49"/>
    </g>
    <g id="LINE-118" data-name="LINE">
      <line class="cls-1" x1="43.11" y1="17.94" x2="42.15" y2="18.49"/>
    </g>
    <g id="LINE-119" data-name="LINE">
      <line class="cls-1" x1="45.37" y1="19.9" x2="42.71" y2="21.43"/>
    </g>
    <g id="LINE-120" data-name="LINE">
      <line class="cls-1" x1="42.71" y1="21.43" x2="45.37" y2="19.9"/>
    </g>
    <g id="LINE-121" data-name="LINE">
      <line class="cls-1" x1="47.21" y1="25.05" x2="46.26" y2="25.6"/>
    </g>
    <g id="LINE-122" data-name="LINE">
      <line class="cls-1" x1="47.21" y1="25.05" x2="46.26" y2="25.6"/>
    </g>
    <g id="LINE-123" data-name="LINE">
      <line class="cls-1" x1="46.64" y1="22.1" x2="43.99" y2="23.64"/>
    </g>
    <g id="LINE-124" data-name="LINE">
      <line class="cls-1" x1="43.99" y1="23.64" x2="46.64" y2="22.1"/>
    </g>
    <g id="LINE-125" data-name="LINE">
      <line class="cls-1" x1="76.13" y1=".56" x2="76.13" y2="5.44"/>
    </g>
  </g>
</svg>