<?xml version="1.0" encoding="UTF-8"?>
<svg id="Layer_2" data-name="Layer 2" xmlns="http://www.w3.org/2000/svg" viewBox="0 0 43.52 35.81">
  <defs>
    <style>
      .cls-1, .cls-2 {
        fill: none;
        stroke: #000;
        stroke-linecap: round;
        stroke-linejoin: round;
        stroke-width: .25px;
      }

      .cls-2 {
        stroke-dasharray: 0 0 .6 .3;
      }
    </style>
  </defs>
  <g id="Default">
    <g id="LINE">
      <line class="cls-1" x1=".12" y1="3.76" x2="43.4" y2="3.76"/>
    </g>
    <g id="LINE-2" data-name="LINE">
      <line class="cls-1" x1="43.4" y1="3.76" x2="43.4" y2="4.01"/>
    </g>
    <g id="LINE-3" data-name="LINE">
      <line class="cls-1" x1="43.4" y1="4.01" x2=".12" y2="4.01"/>
    </g>
    <g id="LINE-4" data-name="LINE">
      <line class="cls-1" x1=".12" y1="4.01" x2=".12" y2="3.76"/>
    </g>
    <g id="LINE-5" data-name="LINE">
      <line class="cls-1" x1="3.63" y1="1.59" x2="39.89" y2="1.59"/>
    </g>
    <g id="LINE-6" data-name="LINE">
      <line class="cls-1" x1="39.89" y1="1.59" x2="39.89" y2="3.76"/>
    </g>
    <g id="LINE-7" data-name="LINE">
      <line class="cls-1" x1="39.89" y1="3.76" x2="3.63" y2="3.76"/>
    </g>
    <g id="LINE-8" data-name="LINE">
      <line class="cls-1" x1="3.63" y1="3.76" x2="3.63" y2="1.59"/>
    </g>
    <g id="LINE-9" data-name="LINE">
      <line class="cls-1" x1=".13" y1="3.76" x2="3.63" y2="3.76"/>
    </g>
    <g id="LINE-10" data-name="LINE">
      <line class="cls-1" x1="3.63" y1="3.76" x2="3.63" y2="1.6"/>
    </g>
    <g id="LINE-11" data-name="LINE">
      <line class="cls-1" x1="3.63" y1="1.6" x2="4.34" y2="1.6"/>
    </g>
    <g id="LINE-12" data-name="LINE">
      <line class="cls-1" x1="4.34" y1="1.6" x2="4.34" y2=".13"/>
    </g>
    <g id="LINE-13" data-name="LINE">
      <line class="cls-1" x1="4.34" y1=".13" x2="2.7" y2=".13"/>
    </g>
    <g id="LINE-14" data-name="LINE">
      <line class="cls-1" x1="2.7" y1=".13" x2="2.7" y2=".89"/>
    </g>
    <g id="LINE-15" data-name="LINE">
      <line class="cls-1" x1="2.7" y1=".89" x2="2.7" y2="3.68"/>
    </g>
    <g id="LINE-16" data-name="LINE">
      <line class="cls-1" x1="2.7" y1="3.68" x2=".13" y2="3.68"/>
    </g>
    <g id="LINE-17" data-name="LINE">
      <line class="cls-1" x1=".13" y1="3.68" x2=".13" y2="3.76"/>
    </g>
    <g id="LINE-18" data-name="LINE">
      <line class="cls-1" x1="3.18" y1=".23" x2="2.78" y2=".23"/>
    </g>
    <g id="LINE-19" data-name="LINE">
      <line class="cls-1" x1="2.78" y1=".23" x2="2.78" y2="3.68"/>
    </g>
    <g id="LINE-20" data-name="LINE">
      <line class="cls-1" x1="2.78" y1="3.68" x2="2.39" y2="3.68"/>
    </g>
    <g id="LINE-21" data-name="LINE">
      <line class="cls-1" x1="43.4" y1="3.76" x2="39.89" y2="3.76"/>
    </g>
    <g id="LINE-22" data-name="LINE">
      <line class="cls-1" x1="39.89" y1="3.76" x2="39.89" y2="1.59"/>
    </g>
    <g id="LINE-23" data-name="LINE">
      <line class="cls-1" x1="39.89" y1="1.59" x2="39.18" y2="1.59"/>
    </g>
    <g id="LINE-24" data-name="LINE">
      <line class="cls-1" x1="39.18" y1="1.59" x2="39.18" y2=".12"/>
    </g>
    <g id="LINE-25" data-name="LINE">
      <line class="cls-1" x1="39.18" y1=".12" x2="40.82" y2=".12"/>
    </g>
    <g id="LINE-26" data-name="LINE">
      <line class="cls-1" x1="40.82" y1=".12" x2="40.82" y2=".89"/>
    </g>
    <g id="LINE-27" data-name="LINE">
      <line class="cls-1" x1="40.82" y1=".89" x2="40.82" y2="3.68"/>
    </g>
    <g id="LINE-28" data-name="LINE">
      <line class="cls-1" x1="40.82" y1="3.68" x2="43.4" y2="3.68"/>
    </g>
    <g id="LINE-29" data-name="LINE">
      <line class="cls-1" x1="43.4" y1="3.68" x2="43.4" y2="3.76"/>
    </g>
    <g id="LINE-30" data-name="LINE">
      <line class="cls-1" x1="40.34" y1=".23" x2="40.74" y2=".23"/>
    </g>
    <g id="LINE-31" data-name="LINE">
      <line class="cls-1" x1="40.74" y1=".23" x2="40.74" y2="3.68"/>
    </g>
    <g id="LINE-32" data-name="LINE">
      <line class="cls-1" x1="40.74" y1="3.68" x2="41.13" y2="3.68"/>
    </g>
    <g id="LINE-33" data-name="LINE">
      <line class="cls-1" x1="4.34" y1=".13" x2="39.18" y2=".13"/>
    </g>
    <g id="LINE-34" data-name="LINE">
      <line class="cls-1" x1="39.18" y1=".13" x2="39.18" y2="1.59"/>
    </g>
    <g id="LINE-35" data-name="LINE">
      <line class="cls-1" x1="39.18" y1="1.59" x2="4.34" y2="1.59"/>
    </g>
    <g id="LINE-36" data-name="LINE">
      <line class="cls-1" x1="4.34" y1="1.59" x2="4.34" y2=".13"/>
    </g>
    <g id="SPLINE">
      <path class="cls-1" d="M29.31,29.43s-.02-.04,0-.05"/>
    </g>
    <g id="LINE-37" data-name="LINE">
      <line class="cls-1" x1="29.3" y1="29.38" x2="30.56" y2="28.13"/>
    </g>
    <g id="LINE-38" data-name="LINE">
      <line class="cls-1" x1="30.56" y1="28.13" x2="5.07" y2="2.61"/>
    </g>
    <g id="LINE-39" data-name="LINE">
      <line class="cls-1" x1="5.07" y1="2.61" x2="3.82" y2="3.86"/>
    </g>
    <g id="LINE-40" data-name="LINE">
      <line class="cls-1" x1="3.82" y1="3.86" x2="29.19" y2="29.24"/>
    </g>
    <g id="SPLINE-2" data-name="SPLINE">
      <path class="cls-1" d="M29.19,29.24s.03.08,0,.12"/>
    </g>
    <g id="SPLINE-3" data-name="SPLINE">
      <path class="cls-1" d="M29.18,29.36s-.02.05,0,.07"/>
    </g>
    <g id="LINE-41" data-name="LINE">
      <line class="cls-1" x1="29.19" y1="29.43" x2="29.5" y2="29.75"/>
    </g>
    <g id="SPLINE-4" data-name="SPLINE">
      <path class="cls-1" d="M29.5,29.75s.07.03.09,0"/>
    </g>
    <g id="SPLINE-5" data-name="SPLINE">
      <path class="cls-1" d="M29.6,29.75s.02-.07,0-.09"/>
    </g>
    <g id="LINE-42" data-name="LINE">
      <line class="cls-1" x1="29.59" y1="29.66" x2="29.36" y2="29.43"/>
    </g>
    <g id="LINE-43" data-name="LINE">
      <line class="cls-1" x1="29.36" y1="29.43" x2="29.35" y2="29.41"/>
    </g>
    <g id="SPLINE-6" data-name="SPLINE">
      <path class="cls-1" d="M29.35,29.41s-.02,0-.03,0"/>
    </g>
    <g id="SPLINE-7" data-name="SPLINE">
      <path class="cls-1" d="M29.32,29.41s0,.02,0,.03"/>
    </g>
    <g id="LINE-44" data-name="LINE">
      <line class="cls-1" x1="29.32" y1="29.44" x2="29.56" y2="29.69"/>
    </g>
    <g id="LINE-45" data-name="LINE">
      <line class="cls-1" x1="25.49" y1="30.11" x2="24.71" y2="29.33"/>
    </g>
    <g id="LINE-46" data-name="LINE">
      <line class="cls-1" x1="25.49" y1="30.11" x2="24.71" y2="29.33"/>
    </g>
    <g id="LINE-47" data-name="LINE">
      <line class="cls-1" x1="24.69" y1="28.69" x2="26.11" y2="27.27"/>
    </g>
    <g id="LINE-48" data-name="LINE">
      <line class="cls-1" x1="26.11" y1="27.27" x2="26.44" y2="27.61"/>
    </g>
    <g id="LINE-49" data-name="LINE">
      <line class="cls-1" x1="26.44" y1="27.61" x2="25.02" y2="29.03"/>
    </g>
    <g id="LINE-50" data-name="LINE">
      <line class="cls-1" x1="25.02" y1="29.03" x2="24.69" y2="28.69"/>
    </g>
    <g id="LINE-51" data-name="LINE">
      <line class="cls-1" x1="28.2" y1="28.8" x2="27.22" y2="28.39"/>
    </g>
    <g id="LINE-52" data-name="LINE">
      <line class="cls-1" x1="27.22" y1="28.39" x2="26.44" y2="27.61"/>
    </g>
    <g id="LINE-53" data-name="LINE">
      <line class="cls-1" x1="26.44" y1="27.61" x2="26.02" y2="26.63"/>
    </g>
    <g id="LINE-54" data-name="LINE">
      <line class="cls-1" x1="23" y1="25.76" x2="22.61" y2="26.61"/>
    </g>
    <g id="LINE-55" data-name="LINE">
      <line class="cls-1" x1="22.61" y1="26.61" x2="25.02" y2="29.03"/>
    </g>
    <g id="LINE-56" data-name="LINE">
      <line class="cls-1" x1="25.02" y1="29.03" x2="26.44" y2="27.61"/>
    </g>
    <g id="LINE-57" data-name="LINE">
      <line class="cls-1" x1="26.44" y1="27.61" x2="27.22" y2="28.39"/>
    </g>
    <g id="LINE-58" data-name="LINE">
      <line class="cls-1" x1="27.22" y1="28.39" x2="25.49" y2="30.11"/>
    </g>
    <g id="LINE-59" data-name="LINE">
      <line class="cls-1" x1="25.49" y1="30.11" x2="22.14" y2="26.75"/>
    </g>
    <g id="LINE-60" data-name="LINE">
      <line class="cls-1" x1="22.14" y1="26.75" x2="22.86" y2="25.47"/>
    </g>
    <g id="LINE-61" data-name="LINE">
      <line class="cls-1" x1="22.86" y1="25.47" x2="23.05" y2="25.66"/>
    </g>
    <g id="LINE-62" data-name="LINE">
      <line class="cls-1" x1="23.05" y1="25.66" x2="23" y2="25.76"/>
    </g>
    <g id="LINE-63" data-name="LINE">
      <line class="cls-1" x1="26.02" y1="26.63" x2="28.2" y2="28.8"/>
    </g>
    <g id="LINE-64" data-name="LINE">
      <line class="cls-1" x1="26.02" y1="26.63" x2="28.2" y2="28.8"/>
    </g>
    <g id="LINE-65" data-name="LINE">
      <line class="cls-1" x1="28.2" y1="28.8" x2="28.47" y2="28.53"/>
    </g>
    <g id="LINE-66" data-name="LINE">
      <line class="cls-1" x1="28.47" y1="28.53" x2="26.3" y2="26.35"/>
    </g>
    <g id="LINE-67" data-name="LINE">
      <line class="cls-1" x1="26.3" y1="26.35" x2="26.02" y2="26.63"/>
    </g>
    <g id="SPLINE-8" data-name="SPLINE">
      <path class="cls-1" d="M3.43,4.14s.03.04.06.06"/>
    </g>
    <g id="SPLINE-9" data-name="SPLINE">
      <path class="cls-1" d="M3.43,4.13c-.08-.1-.06-.25.04-.33"/>
    </g>
    <g id="SPLINE-10" data-name="SPLINE">
      <path class="cls-1" d="M3.47,3.8c.1-.08.24-.08.33.01"/>
    </g>
    <g id="SPLINE-11" data-name="SPLINE">
      <path class="cls-1" d="M3.8,3.82c.06.06.09.15.07.23"/>
    </g>
    <g id="SPLINE-12" data-name="SPLINE">
      <path class="cls-1" d="M3.87,4.05s-.02.05-.03.07"/>
    </g>
    <g id="SPLINE-13" data-name="SPLINE">
      <path class="cls-1" d="M3.84,4.12s-.01.02-.02.03"/>
    </g>
    <g id="SPLINE-14" data-name="SPLINE">
      <path class="cls-1" d="M3.82,4.15c-.08.1-.23.12-.33.04"/>
    </g>
    <g id="SPLINE-15" data-name="SPLINE">
      <path class="cls-1" d="M3.49,4.19s-.04-.03-.06-.05"/>
    </g>
    <g id="LINE-68" data-name="LINE">
      <line class="cls-1" x1="31.3" y1="24.31" x2="30.52" y2="23.53"/>
    </g>
    <g id="LINE-69" data-name="LINE">
      <line class="cls-1" x1="31.3" y1="24.31" x2="30.52" y2="23.53"/>
    </g>
    <g id="LINE-70" data-name="LINE">
      <line class="cls-1" x1="29.88" y1="23.5" x2="28.46" y2="24.92"/>
    </g>
    <g id="LINE-71" data-name="LINE">
      <line class="cls-1" x1="28.46" y1="24.92" x2="28.8" y2="25.25"/>
    </g>
    <g id="LINE-72" data-name="LINE">
      <line class="cls-1" x1="28.8" y1="25.25" x2="30.21" y2="23.83"/>
    </g>
    <g id="LINE-73" data-name="LINE">
      <line class="cls-1" x1="30.21" y1="23.83" x2="29.88" y2="23.5"/>
    </g>
    <g id="LINE-74" data-name="LINE">
      <line class="cls-1" x1="29.99" y1="27.01" x2="29.58" y2="26.03"/>
    </g>
    <g id="LINE-75" data-name="LINE">
      <line class="cls-1" x1="29.58" y1="26.03" x2="28.8" y2="25.25"/>
    </g>
    <g id="LINE-76" data-name="LINE">
      <line class="cls-1" x1="28.8" y1="25.25" x2="27.82" y2="24.84"/>
    </g>
    <g id="LINE-77" data-name="LINE">
      <line class="cls-1" x1="26.95" y1="21.81" x2="27.8" y2="21.42"/>
    </g>
    <g id="LINE-78" data-name="LINE">
      <line class="cls-1" x1="27.8" y1="21.42" x2="30.21" y2="23.83"/>
    </g>
    <g id="LINE-79" data-name="LINE">
      <line class="cls-1" x1="30.21" y1="23.83" x2="28.8" y2="25.25"/>
    </g>
    <g id="LINE-80" data-name="LINE">
      <line class="cls-1" x1="28.8" y1="25.25" x2="29.58" y2="26.03"/>
    </g>
    <g id="LINE-81" data-name="LINE">
      <line class="cls-1" x1="29.58" y1="26.03" x2="31.3" y2="24.31"/>
    </g>
    <g id="LINE-82" data-name="LINE">
      <line class="cls-1" x1="31.3" y1="24.31" x2="27.94" y2="20.95"/>
    </g>
    <g id="LINE-83" data-name="LINE">
      <line class="cls-1" x1="27.94" y1="20.95" x2="26.66" y2="21.67"/>
    </g>
    <g id="LINE-84" data-name="LINE">
      <line class="cls-1" x1="26.66" y1="21.67" x2="26.85" y2="21.86"/>
    </g>
    <g id="LINE-85" data-name="LINE">
      <line class="cls-1" x1="26.85" y1="21.86" x2="26.95" y2="21.81"/>
    </g>
    <g id="LINE-86" data-name="LINE">
      <line class="cls-1" x1="27.82" y1="24.84" x2="29.99" y2="27.01"/>
    </g>
    <g id="LINE-87" data-name="LINE">
      <line class="cls-1" x1="27.82" y1="24.84" x2="29.99" y2="27.01"/>
    </g>
    <g id="LINE-88" data-name="LINE">
      <line class="cls-1" x1="29.99" y1="27.01" x2="29.72" y2="27.28"/>
    </g>
    <g id="LINE-89" data-name="LINE">
      <line class="cls-1" x1="29.72" y1="27.28" x2="27.54" y2="25.11"/>
    </g>
    <g id="LINE-90" data-name="LINE">
      <line class="cls-1" x1="27.54" y1="25.11" x2="27.82" y2="24.84"/>
    </g>
    <g id="LINE-91" data-name="LINE">
      <line class="cls-1" x1="25.74" y1="26.13" x2="33.17" y2="33.56"/>
    </g>
    <g id="LINE-92" data-name="LINE">
      <line class="cls-1" x1="33.17" y1="33.56" x2="31.04" y2="35.68"/>
    </g>
    <g id="LINE-93" data-name="LINE">
      <line class="cls-1" x1="31.04" y1="35.68" x2="23.62" y2="28.26"/>
    </g>
    <g id="LINE-94" data-name="LINE">
      <line class="cls-1" x1="23.62" y1="28.26" x2="25.74" y2="26.13"/>
    </g>
    <g id="LINE-95" data-name="LINE">
      <line class="cls-1" x1="25.95" y1="25.99" x2="27.36" y2="27.4"/>
    </g>
    <g id="LINE-96" data-name="LINE">
      <line class="cls-1" x1="27.36" y1="27.4" x2="27.19" y2="27.58"/>
    </g>
    <g id="LINE-97" data-name="LINE">
      <line class="cls-1" x1="27.19" y1="27.58" x2="25.77" y2="26.17"/>
    </g>
    <g id="LINE-98" data-name="LINE">
      <line class="cls-1" x1="25.77" y1="26.17" x2="25.95" y2="25.99"/>
    </g>
    <g id="ARC">
      <path class="cls-2" d="M29.33,29.41c6.75-6.83,10.51-16.06,10.44-25.67"/>
    </g>
  </g>
  <g id="_0" data-name="0">
    <g id="LINE-99" data-name="LINE">
      <line class="cls-1" x1="2.39" y1="3.68" x2="3.18" y2=".23"/>
    </g>
    <g id="LINE-100" data-name="LINE">
      <line class="cls-1" x1="41.13" y1="3.68" x2="40.34" y2=".23"/>
    </g>
    <g id="LINE-101" data-name="LINE">
      <line class="cls-1" x1="29.56" y1="29.69" x2="29.31" y2="29.43"/>
    </g>
    <g id="LINE-102" data-name="LINE">
      <line class="cls-1" x1="24.71" y1="29.33" x2="25.49" y2="30.11"/>
    </g>
    <g id="LINE-103" data-name="LINE">
      <line class="cls-1" x1="24.71" y1="29.33" x2="25.49" y2="30.11"/>
    </g>
    <g id="LINE-104" data-name="LINE">
      <line class="cls-1" x1="26.02" y1="26.63" x2="28.2" y2="28.8"/>
    </g>
    <g id="LINE-105" data-name="LINE">
      <line class="cls-1" x1="28.2" y1="28.8" x2="26.02" y2="26.63"/>
    </g>
    <g id="LINE-106" data-name="LINE">
      <line class="cls-1" x1="3.48" y1="4.19" x2="3.43" y2="4.14"/>
    </g>
    <g id="LINE-107" data-name="LINE">
      <line class="cls-1" x1="30.52" y1="23.53" x2="31.3" y2="24.31"/>
    </g>
    <g id="LINE-108" data-name="LINE">
      <line class="cls-1" x1="30.52" y1="23.53" x2="31.3" y2="24.31"/>
    </g>
    <g id="LINE-109" data-name="LINE">
      <line class="cls-1" x1="27.82" y1="24.84" x2="29.99" y2="27.01"/>
    </g>
    <g id="LINE-110" data-name="LINE">
      <line class="cls-1" x1="29.99" y1="27.01" x2="27.82" y2="24.84"/>
    </g>
    <g id="LINE-111" data-name="LINE">
      <line class="cls-1" x1="39.77" y1="3.74" x2="29.33" y2="29.41"/>
    </g>
  </g>
</svg>