<?xml version="1.0" encoding="UTF-8"?>
<svg id="Layer_2" data-name="Layer 2" xmlns="http://www.w3.org/2000/svg" viewBox="0 0 43.52 35.77">
  <defs>
    <style>
      .cls-1 {
        fill: none;
        stroke: #000;
        stroke-miterlimit: 10;
        stroke-width: .25px;
      }
    </style>
  </defs>
  <g id="Default">
    <g id="LINE">
      <line class="cls-1" x1="43.4" y1="3.76" x2=".12" y2="3.76"/>
    </g>
    <g id="LINE-2" data-name="LINE">
      <line class="cls-1" x1=".12" y1="3.76" x2=".12" y2="4.01"/>
    </g>
    <g id="LINE-3" data-name="LINE">
      <line class="cls-1" x1=".12" y1="4.01" x2="43.4" y2="4.01"/>
    </g>
    <g id="LINE-4" data-name="LINE">
      <line class="cls-1" x1="43.4" y1="4.01" x2="43.4" y2="3.76"/>
    </g>
    <g id="LINE-5" data-name="LINE">
      <line class="cls-1" x1="39.89" y1="1.59" x2="3.63" y2="1.59"/>
    </g>
    <g id="LINE-6" data-name="LINE">
      <line class="cls-1" x1="3.63" y1="1.59" x2="3.63" y2="3.76"/>
    </g>
    <g id="LINE-7" data-name="LINE">
      <line class="cls-1" x1="3.63" y1="3.76" x2="39.89" y2="3.76"/>
    </g>
    <g id="LINE-8" data-name="LINE">
      <line class="cls-1" x1="39.89" y1="3.76" x2="39.89" y2="1.59"/>
    </g>
    <g id="LINE-9" data-name="LINE">
      <line class="cls-1" x1="43.4" y1="3.76" x2="39.89" y2="3.76"/>
    </g>
    <g id="LINE-10" data-name="LINE">
      <line class="cls-1" x1="39.89" y1="3.76" x2="39.89" y2="1.6"/>
    </g>
    <g id="LINE-11" data-name="LINE">
      <line class="cls-1" x1="39.89" y1="1.6" x2="39.18" y2="1.6"/>
    </g>
    <g id="LINE-12" data-name="LINE">
      <line class="cls-1" x1="39.18" y1="1.6" x2="39.18" y2=".13"/>
    </g>
    <g id="LINE-13" data-name="LINE">
      <line class="cls-1" x1="39.18" y1=".13" x2="40.82" y2=".13"/>
    </g>
    <g id="LINE-14" data-name="LINE">
      <line class="cls-1" x1="40.82" y1=".13" x2="40.82" y2=".89"/>
    </g>
    <g id="LINE-15" data-name="LINE">
      <line class="cls-1" x1="40.82" y1=".89" x2="40.82" y2="3.68"/>
    </g>
    <g id="LINE-16" data-name="LINE">
      <line class="cls-1" x1="40.82" y1="3.68" x2="43.4" y2="3.68"/>
    </g>
    <g id="LINE-17" data-name="LINE">
      <line class="cls-1" x1="43.4" y1="3.68" x2="43.4" y2="3.76"/>
    </g>
    <g id="LINE-18" data-name="LINE">
      <line class="cls-1" x1="40.34" y1=".23" x2="40.74" y2=".23"/>
    </g>
    <g id="LINE-19" data-name="LINE">
      <line class="cls-1" x1="40.74" y1=".23" x2="40.74" y2="3.68"/>
    </g>
    <g id="LINE-20" data-name="LINE">
      <line class="cls-1" x1="40.74" y1="3.68" x2="41.13" y2="3.68"/>
    </g>
    <g id="LINE-21" data-name="LINE">
      <line class="cls-1" x1=".13" y1="3.76" x2="3.63" y2="3.76"/>
    </g>
    <g id="LINE-22" data-name="LINE">
      <line class="cls-1" x1="3.63" y1="3.76" x2="3.63" y2="1.59"/>
    </g>
    <g id="LINE-23" data-name="LINE">
      <line class="cls-1" x1="3.63" y1="1.59" x2="4.34" y2="1.59"/>
    </g>
    <g id="LINE-24" data-name="LINE">
      <line class="cls-1" x1="4.34" y1="1.59" x2="4.34" y2=".12"/>
    </g>
    <g id="LINE-25" data-name="LINE">
      <line class="cls-1" x1="4.34" y1=".12" x2="2.7" y2=".12"/>
    </g>
    <g id="LINE-26" data-name="LINE">
      <line class="cls-1" x1="2.7" y1=".12" x2="2.7" y2=".89"/>
    </g>
    <g id="LINE-27" data-name="LINE">
      <line class="cls-1" x1="2.7" y1=".89" x2="2.7" y2="3.68"/>
    </g>
    <g id="LINE-28" data-name="LINE">
      <line class="cls-1" x1="2.7" y1="3.68" x2=".13" y2="3.68"/>
    </g>
    <g id="LINE-29" data-name="LINE">
      <line class="cls-1" x1=".13" y1="3.68" x2=".13" y2="3.76"/>
    </g>
    <g id="LINE-30" data-name="LINE">
      <line class="cls-1" x1="3.18" y1=".23" x2="2.79" y2=".23"/>
    </g>
    <g id="LINE-31" data-name="LINE">
      <line class="cls-1" x1="2.79" y1=".23" x2="2.79" y2="3.68"/>
    </g>
    <g id="LINE-32" data-name="LINE">
      <line class="cls-1" x1="2.79" y1="3.68" x2="2.39" y2="3.68"/>
    </g>
    <g id="LINE-33" data-name="LINE">
      <line class="cls-1" x1="39.18" y1=".13" x2="4.34" y2=".13"/>
    </g>
    <g id="LINE-34" data-name="LINE">
      <line class="cls-1" x1="4.34" y1=".13" x2="4.34" y2="1.59"/>
    </g>
    <g id="LINE-35" data-name="LINE">
      <line class="cls-1" x1="4.34" y1="1.59" x2="39.18" y2="1.59"/>
    </g>
    <g id="LINE-36" data-name="LINE">
      <line class="cls-1" x1="39.18" y1="1.59" x2="39.18" y2=".13"/>
    </g>
    <g id="SPLINE">
      <path class="cls-1" d="M14.21,29.43s.02-.04,0-.05"/>
    </g>
    <g id="LINE-37" data-name="LINE">
      <line class="cls-1" x1="14.22" y1="29.38" x2="12.97" y2="28.13"/>
    </g>
    <g id="LINE-38" data-name="LINE">
      <line class="cls-1" x1="12.97" y1="28.13" x2="38.45" y2="2.61"/>
    </g>
    <g id="LINE-39" data-name="LINE">
      <line class="cls-1" x1="38.45" y1="2.61" x2="39.7" y2="3.86"/>
    </g>
    <g id="LINE-40" data-name="LINE">
      <line class="cls-1" x1="39.7" y1="3.86" x2="14.33" y2="29.24"/>
    </g>
    <g id="SPLINE-2" data-name="SPLINE">
      <path class="cls-1" d="M14.33,29.24s-.03.08,0,.12"/>
    </g>
    <g id="SPLINE-3" data-name="SPLINE">
      <path class="cls-1" d="M14.34,29.36s.02.05,0,.07"/>
    </g>
    <g id="LINE-41" data-name="LINE">
      <line class="cls-1" x1="14.33" y1="29.43" x2="14.02" y2="29.75"/>
    </g>
    <g id="SPLINE-4" data-name="SPLINE">
      <path class="cls-1" d="M14.02,29.75s-.07.03-.09,0"/>
    </g>
    <g id="SPLINE-5" data-name="SPLINE">
      <path class="cls-1" d="M13.92,29.75s-.02-.07,0-.09"/>
    </g>
    <g id="LINE-42" data-name="LINE">
      <line class="cls-1" x1="13.93" y1="29.66" x2="14.16" y2="29.43"/>
    </g>
    <g id="LINE-43" data-name="LINE">
      <line class="cls-1" x1="14.16" y1="29.43" x2="14.17" y2="29.41"/>
    </g>
    <g id="SPLINE-6" data-name="SPLINE">
      <path class="cls-1" d="M14.17,29.41s.02,0,.03,0"/>
    </g>
    <g id="SPLINE-7" data-name="SPLINE">
      <path class="cls-1" d="M14.2,29.41s0,.02,0,.03"/>
    </g>
    <g id="LINE-44" data-name="LINE">
      <line class="cls-1" x1="14.2" y1="29.44" x2="13.96" y2="29.69"/>
    </g>
    <g id="LINE-45" data-name="LINE">
      <line class="cls-1" x1="18.03" y1="30.11" x2="18.81" y2="29.33"/>
    </g>
    <g id="LINE-46" data-name="LINE">
      <line class="cls-1" x1="18.03" y1="30.11" x2="18.81" y2="29.33"/>
    </g>
    <g id="LINE-47" data-name="LINE">
      <line class="cls-1" x1="18.83" y1="28.69" x2="17.41" y2="27.27"/>
    </g>
    <g id="LINE-48" data-name="LINE">
      <line class="cls-1" x1="17.41" y1="27.27" x2="17.08" y2="27.61"/>
    </g>
    <g id="LINE-49" data-name="LINE">
      <line class="cls-1" x1="17.08" y1="27.61" x2="18.5" y2="29.03"/>
    </g>
    <g id="LINE-50" data-name="LINE">
      <line class="cls-1" x1="18.5" y1="29.03" x2="18.83" y2="28.69"/>
    </g>
    <g id="LINE-51" data-name="LINE">
      <line class="cls-1" x1="15.33" y1="28.8" x2="16.3" y2="28.39"/>
    </g>
    <g id="LINE-52" data-name="LINE">
      <line class="cls-1" x1="16.3" y1="28.39" x2="17.08" y2="27.61"/>
    </g>
    <g id="LINE-53" data-name="LINE">
      <line class="cls-1" x1="17.08" y1="27.61" x2="17.5" y2="26.63"/>
    </g>
    <g id="LINE-54" data-name="LINE">
      <line class="cls-1" x1="20.52" y1="25.76" x2="20.91" y2="26.61"/>
    </g>
    <g id="LINE-55" data-name="LINE">
      <line class="cls-1" x1="20.91" y1="26.61" x2="18.5" y2="29.03"/>
    </g>
    <g id="LINE-56" data-name="LINE">
      <line class="cls-1" x1="18.5" y1="29.03" x2="17.08" y2="27.61"/>
    </g>
    <g id="LINE-57" data-name="LINE">
      <line class="cls-1" x1="17.08" y1="27.61" x2="16.3" y2="28.39"/>
    </g>
    <g id="LINE-58" data-name="LINE">
      <line class="cls-1" x1="16.3" y1="28.39" x2="18.03" y2="30.11"/>
    </g>
    <g id="LINE-59" data-name="LINE">
      <line class="cls-1" x1="18.03" y1="30.11" x2="21.38" y2="26.75"/>
    </g>
    <g id="LINE-60" data-name="LINE">
      <line class="cls-1" x1="21.38" y1="26.75" x2="20.66" y2="25.47"/>
    </g>
    <g id="LINE-61" data-name="LINE">
      <line class="cls-1" x1="20.66" y1="25.47" x2="20.47" y2="25.66"/>
    </g>
    <g id="LINE-62" data-name="LINE">
      <line class="cls-1" x1="20.47" y1="25.66" x2="20.52" y2="25.76"/>
    </g>
    <g id="LINE-63" data-name="LINE">
      <line class="cls-1" x1="17.5" y1="26.63" x2="15.33" y2="28.8"/>
    </g>
    <g id="LINE-64" data-name="LINE">
      <line class="cls-1" x1="17.5" y1="26.63" x2="15.33" y2="28.8"/>
    </g>
    <g id="LINE-65" data-name="LINE">
      <line class="cls-1" x1="15.33" y1="28.8" x2="15.05" y2="28.53"/>
    </g>
    <g id="LINE-66" data-name="LINE">
      <line class="cls-1" x1="15.05" y1="28.53" x2="17.22" y2="26.35"/>
    </g>
    <g id="LINE-67" data-name="LINE">
      <line class="cls-1" x1="17.22" y1="26.35" x2="17.5" y2="26.63"/>
    </g>
    <g id="SPLINE-8" data-name="SPLINE">
      <path class="cls-1" d="M40.09,4.14s-.03.04-.06.06"/>
    </g>
    <g id="SPLINE-9" data-name="SPLINE">
      <path class="cls-1" d="M40.09,4.13c.08-.1.06-.25-.04-.33"/>
    </g>
    <g id="SPLINE-10" data-name="SPLINE">
      <path class="cls-1" d="M40.05,3.8c-.1-.08-.24-.08-.33.01"/>
    </g>
    <g id="SPLINE-11" data-name="SPLINE">
      <path class="cls-1" d="M39.72,3.82c-.06.06-.09.15-.07.23"/>
    </g>
    <g id="SPLINE-12" data-name="SPLINE">
      <path class="cls-1" d="M39.65,4.05s.02.05.03.07"/>
    </g>
    <g id="SPLINE-13" data-name="SPLINE">
      <path class="cls-1" d="M39.68,4.12s.01.02.02.03"/>
    </g>
    <g id="SPLINE-14" data-name="SPLINE">
      <path class="cls-1" d="M39.7,4.15c.08.1.23.12.33.04"/>
    </g>
    <g id="SPLINE-15" data-name="SPLINE">
      <path class="cls-1" d="M40.04,4.19s.04-.03.06-.05"/>
    </g>
    <g id="LINE-68" data-name="LINE">
      <line class="cls-1" x1="12.22" y1="24.31" x2="13" y2="23.53"/>
    </g>
    <g id="LINE-69" data-name="LINE">
      <line class="cls-1" x1="12.22" y1="24.31" x2="13" y2="23.53"/>
    </g>
    <g id="LINE-70" data-name="LINE">
      <line class="cls-1" x1="13.64" y1="23.5" x2="15.06" y2="24.92"/>
    </g>
    <g id="LINE-71" data-name="LINE">
      <line class="cls-1" x1="15.06" y1="24.92" x2="14.73" y2="25.25"/>
    </g>
    <g id="LINE-72" data-name="LINE">
      <line class="cls-1" x1="14.73" y1="25.25" x2="13.31" y2="23.83"/>
    </g>
    <g id="LINE-73" data-name="LINE">
      <line class="cls-1" x1="13.31" y1="23.83" x2="13.64" y2="23.5"/>
    </g>
    <g id="LINE-74" data-name="LINE">
      <line class="cls-1" x1="13.53" y1="27.01" x2="13.95" y2="26.03"/>
    </g>
    <g id="LINE-75" data-name="LINE">
      <line class="cls-1" x1="13.95" y1="26.03" x2="14.73" y2="25.25"/>
    </g>
    <g id="LINE-76" data-name="LINE">
      <line class="cls-1" x1="14.73" y1="25.25" x2="15.7" y2="24.84"/>
    </g>
    <g id="LINE-77" data-name="LINE">
      <line class="cls-1" x1="16.57" y1="21.81" x2="15.72" y2="21.42"/>
    </g>
    <g id="LINE-78" data-name="LINE">
      <line class="cls-1" x1="15.72" y1="21.42" x2="13.31" y2="23.83"/>
    </g>
    <g id="LINE-79" data-name="LINE">
      <line class="cls-1" x1="13.31" y1="23.83" x2="14.73" y2="25.25"/>
    </g>
    <g id="LINE-80" data-name="LINE">
      <line class="cls-1" x1="14.73" y1="25.25" x2="13.95" y2="26.03"/>
    </g>
    <g id="LINE-81" data-name="LINE">
      <line class="cls-1" x1="13.95" y1="26.03" x2="12.22" y2="24.31"/>
    </g>
    <g id="LINE-82" data-name="LINE">
      <line class="cls-1" x1="12.22" y1="24.31" x2="15.58" y2="20.95"/>
    </g>
    <g id="LINE-83" data-name="LINE">
      <line class="cls-1" x1="15.58" y1="20.95" x2="16.86" y2="21.67"/>
    </g>
    <g id="LINE-84" data-name="LINE">
      <line class="cls-1" x1="16.86" y1="21.67" x2="16.67" y2="21.86"/>
    </g>
    <g id="LINE-85" data-name="LINE">
      <line class="cls-1" x1="16.67" y1="21.86" x2="16.57" y2="21.81"/>
    </g>
    <g id="LINE-86" data-name="LINE">
      <line class="cls-1" x1="15.7" y1="24.84" x2="13.53" y2="27.01"/>
    </g>
    <g id="LINE-87" data-name="LINE">
      <line class="cls-1" x1="15.7" y1="24.84" x2="13.53" y2="27.01"/>
    </g>
    <g id="LINE-88" data-name="LINE">
      <line class="cls-1" x1="13.53" y1="27.01" x2="13.81" y2="27.28"/>
    </g>
    <g id="LINE-89" data-name="LINE">
      <line class="cls-1" x1="13.81" y1="27.28" x2="15.98" y2="25.11"/>
    </g>
    <g id="LINE-90" data-name="LINE">
      <line class="cls-1" x1="15.98" y1="25.11" x2="15.7" y2="24.84"/>
    </g>
    <g id="LINE-91" data-name="LINE">
      <line class="cls-1" x1="17.78" y1="26.13" x2="10.35" y2="33.56"/>
    </g>
    <g id="LINE-92" data-name="LINE">
      <line class="cls-1" x1="10.35" y1="33.56" x2="12.48" y2="35.68"/>
    </g>
    <g id="LINE-93" data-name="LINE">
      <line class="cls-1" x1="12.48" y1="35.68" x2="19.9" y2="28.26"/>
    </g>
    <g id="LINE-94" data-name="LINE">
      <line class="cls-1" x1="19.9" y1="28.26" x2="17.78" y2="26.13"/>
    </g>
    <g id="LINE-95" data-name="LINE">
      <line class="cls-1" x1="17.57" y1="25.99" x2="16.16" y2="27.4"/>
    </g>
    <g id="LINE-96" data-name="LINE">
      <line class="cls-1" x1="16.16" y1="27.4" x2="16.33" y2="27.58"/>
    </g>
    <g id="LINE-97" data-name="LINE">
      <line class="cls-1" x1="16.33" y1="27.58" x2="17.75" y2="26.17"/>
    </g>
    <g id="LINE-98" data-name="LINE">
      <line class="cls-1" x1="17.75" y1="26.17" x2="17.57" y2="25.99"/>
    </g>
    <g id="ARC">
      <path class="cls-1" d="M3.75,3.74c-.07,9.6,3.69,18.84,10.44,25.67"/>
    </g>
  </g>
  <g id="_0" data-name="0">
    <g id="LINE-99" data-name="LINE">
      <line class="cls-1" x1="41.13" y1="3.68" x2="40.34" y2=".23"/>
    </g>
    <g id="LINE-100" data-name="LINE">
      <line class="cls-1" x1="2.39" y1="3.68" x2="3.18" y2=".23"/>
    </g>
    <g id="LINE-101" data-name="LINE">
      <line class="cls-1" x1="13.96" y1="29.69" x2="14.21" y2="29.43"/>
    </g>
    <g id="LINE-102" data-name="LINE">
      <line class="cls-1" x1="18.81" y1="29.33" x2="18.03" y2="30.11"/>
    </g>
    <g id="LINE-103" data-name="LINE">
      <line class="cls-1" x1="18.81" y1="29.33" x2="18.03" y2="30.11"/>
    </g>
    <g id="LINE-104" data-name="LINE">
      <line class="cls-1" x1="17.5" y1="26.63" x2="15.33" y2="28.8"/>
    </g>
    <g id="LINE-105" data-name="LINE">
      <line class="cls-1" x1="15.33" y1="28.8" x2="17.5" y2="26.63"/>
    </g>
    <g id="LINE-106" data-name="LINE">
      <line class="cls-1" x1="40.04" y1="4.19" x2="40.09" y2="4.14"/>
    </g>
    <g id="LINE-107" data-name="LINE">
      <line class="cls-1" x1="13" y1="23.53" x2="12.22" y2="24.31"/>
    </g>
    <g id="LINE-108" data-name="LINE">
      <line class="cls-1" x1="13" y1="23.53" x2="12.22" y2="24.31"/>
    </g>
    <g id="LINE-109" data-name="LINE">
      <line class="cls-1" x1="15.7" y1="24.84" x2="13.53" y2="27.01"/>
    </g>
    <g id="LINE-110" data-name="LINE">
      <line class="cls-1" x1="13.53" y1="27.01" x2="15.7" y2="24.84"/>
    </g>
    <g id="LINE-111" data-name="LINE">
      <line class="cls-1" x1="14.19" y1="29.41" x2="3.75" y2="3.74"/>
    </g>
  </g>
</svg>