<?xml version="1.0" encoding="UTF-8"?>
<svg id="Layer_2" data-name="Layer 2" xmlns="http://www.w3.org/2000/svg" viewBox="0 0 76.75 7.81">
  <defs>
    <style>
      .cls-1 {
        fill: none;
        stroke: #000;
        stroke-linecap: round;
        stroke-linejoin: round;
        stroke-width: .25px;
      }
    </style>
  </defs>
  <g id="Default">
    <g id="LINE">
      <line class="cls-1" x1="2.12" y1="1.19" x2="74.63" y2="1.19"/>
    </g>
    <g id="LINE-2" data-name="LINE">
      <line class="cls-1" x1="74.63" y1="1.19" x2="74.63" y2="4.69"/>
    </g>
    <g id="LINE-3" data-name="LINE">
      <line class="cls-1" x1="74.63" y1="4.69" x2="2.12" y2="4.69"/>
    </g>
    <g id="LINE-4" data-name="LINE">
      <line class="cls-1" x1="2.12" y1="4.69" x2="2.12" y2="1.19"/>
    </g>
    <g id="LINE-5" data-name="LINE">
      <line class="cls-1" x1="2.62" y1=".12" x2="74.63" y2=".12"/>
    </g>
    <g id="LINE-6" data-name="LINE">
      <line class="cls-1" x1="74.63" y1=".12" x2="74.63" y2="4.69"/>
    </g>
    <g id="LINE-7" data-name="LINE">
      <line class="cls-1" x1="74.63" y1="4.69" x2="2.62" y2="4.69"/>
    </g>
    <g id="LINE-8" data-name="LINE">
      <line class="cls-1" x1="2.62" y1="4.69" x2="2.62" y2=".12"/>
    </g>
    <g id="CIRCLE">
      <circle class="cls-1" cx="2.38" cy="4.44" r=".25"/>
    </g>
    <g id="CIRCLE-2" data-name="CIRCLE">
      <circle class="cls-1" cx="74.38" cy="4.44" r=".25"/>
    </g>
    <g id="LINE-9" data-name="LINE">
      <line class="cls-1" x1="2.62" y1="3.44" x2="74.13" y2="3.44"/>
    </g>
    <g id="LINE-10" data-name="LINE">
      <line class="cls-1" x1="74.13" y1="3.44" x2="74.13" y2="4.69"/>
    </g>
    <g id="LINE-11" data-name="LINE">
      <line class="cls-1" x1="74.13" y1="4.69" x2="2.62" y2="4.69"/>
    </g>
    <g id="LINE-12" data-name="LINE">
      <line class="cls-1" x1="2.62" y1="4.69" x2="2.62" y2="3.44"/>
    </g>
    <g id="LINE-13" data-name="LINE">
      <line class="cls-1" x1="4.19" y1=".94" x2="38.09" y2=".94"/>
    </g>
    <g id="LINE-14" data-name="LINE">
      <line class="cls-1" x1="38.09" y1=".94" x2="38.09" y2="2.19"/>
    </g>
    <g id="LINE-15" data-name="LINE">
      <line class="cls-1" x1="38.09" y1="2.19" x2="4.19" y2="2.19"/>
    </g>
    <g id="LINE-16" data-name="LINE">
      <line class="cls-1" x1="4.19" y1="2.19" x2="4.19" y2=".94"/>
    </g>
    <g id="LINE-17" data-name="LINE">
      <line class="cls-1" x1="34.5" y1="2.19" x2="72.56" y2="2.19"/>
    </g>
    <g id="LINE-18" data-name="LINE">
      <line class="cls-1" x1="72.56" y1="2.19" x2="72.56" y2="3.44"/>
    </g>
    <g id="LINE-19" data-name="LINE">
      <line class="cls-1" x1="72.56" y1="3.44" x2="34.5" y2="3.44"/>
    </g>
    <g id="LINE-20" data-name="LINE">
      <line class="cls-1" x1="34.5" y1="3.44" x2="34.5" y2="2.19"/>
    </g>
    <g id="LINE-21" data-name="LINE">
      <line class="cls-1" x1=".12" y1="2.69" x2="2.12" y2="2.69"/>
    </g>
    <g id="LINE-22" data-name="LINE">
      <line class="cls-1" x1="2.12" y1="2.69" x2="2.12" y2="4.69"/>
    </g>
    <g id="LINE-23" data-name="LINE">
      <line class="cls-1" x1="2.12" y1="4.69" x2=".12" y2="4.69"/>
    </g>
    <g id="LINE-24" data-name="LINE">
      <line class="cls-1" x1=".12" y1="4.69" x2=".12" y2="2.69"/>
    </g>
    <g id="LINE-25" data-name="LINE">
      <line class="cls-1" x1="74.63" y1="2.69" x2="76.63" y2="2.69"/>
    </g>
    <g id="LINE-26" data-name="LINE">
      <line class="cls-1" x1="76.63" y1="2.69" x2="76.63" y2="4.69"/>
    </g>
    <g id="LINE-27" data-name="LINE">
      <line class="cls-1" x1="76.63" y1="4.69" x2="74.63" y2="4.69"/>
    </g>
    <g id="LINE-28" data-name="LINE">
      <line class="cls-1" x1="74.63" y1="4.69" x2="74.63" y2="2.69"/>
    </g>
    <g id="LINE-29" data-name="LINE">
      <line class="cls-1" x1=".13" y1="4.69" x2="76.63" y2="4.69"/>
    </g>
    <g id="LINE-30" data-name="LINE">
      <line class="cls-1" x1="76.63" y1="4.69" x2="76.63" y2="7.69"/>
    </g>
    <g id="LINE-31" data-name="LINE">
      <line class="cls-1" x1="76.63" y1="7.69" x2=".13" y2="7.69"/>
    </g>
    <g id="LINE-32" data-name="LINE">
      <line class="cls-1" x1=".13" y1="7.69" x2=".13" y2="4.69"/>
    </g>
  </g>
</svg>