<svg width="97" height="102" viewBox="0 0 97 102" fill="none" xmlns="http://www.w3.org/2000/svg">
<g clip-path="url(#clip0_107_1992)">
<path d="M0.00183105 0V4.64622H6.29258L6.29425 0H0.00183105Z" stroke="black" stroke-width="0.25" stroke-miterlimit="10"/>
<path d="M2.23596 3.31254C2.75991 3.78433 3.55752 3.78433 4.0798 3.31254V1.25533C3.55752 0.783542 2.75991 0.783542 2.23596 1.25533V3.31254Z" stroke="black" stroke-width="0.25" stroke-miterlimit="10"/>
<path d="M6.2923 96.0235V97.3522H0.166748V4.64789H6.2923V96.0235Z" stroke="black" stroke-width="0.25" stroke-miterlimit="10"/>
<path d="M89.8309 0.355103H6.29407V2.71905H89.8309V0.355103Z" stroke="black" stroke-width="0.25" stroke-miterlimit="10"/>
<path d="M89.8309 96.0235V97.3522H95.8998V4.64789H89.8309V96.0235Z" stroke="black" stroke-width="0.25" stroke-miterlimit="10"/>
<path d="M10.8477 96.8203V2.71901L6.29236 2.68567V96.8203H10.8477Z" stroke="black" stroke-width="0.25" stroke-miterlimit="10"/>
<path d="M11.557 2.71902H10.8478V96.8203H11.557V2.71902Z" stroke="black" stroke-width="0.25" stroke-miterlimit="10"/>
<path d="M16.6031 2.71902H15.8939V96.8203H16.6031V2.71902Z" stroke="black" stroke-width="0.25" stroke-miterlimit="10"/>
<path d="M20.7029 2.71902H16.6031V96.8203H20.7029V2.71902Z" stroke="black" stroke-width="0.25" stroke-miterlimit="10"/>
<path d="M15.8938 2.71902H11.557V96.8203H15.8938V2.71902Z" fill="#E5E5E5"/>
<path d="M15.8938 2.71902H11.557V96.8203H15.8938V2.71902Z" stroke="black" stroke-width="0.25" stroke-miterlimit="10"/>
<path d="M21.4119 2.71902H20.7027V96.8203H21.4119V2.71902Z" stroke="black" stroke-width="0.25" stroke-miterlimit="10"/>
<path d="M26.4578 2.71902H25.7469V96.8203H26.4578V2.71902Z" stroke="black" stroke-width="0.25" stroke-miterlimit="10"/>
<path d="M30.556 2.71902H26.4578V96.8203H30.556V2.71902Z" stroke="black" stroke-width="0.25" stroke-miterlimit="10"/>
<path d="M25.747 2.71902H21.4119V96.8203H25.747V2.71902Z" fill="#E5E5E5"/>
<path d="M25.747 2.71902H21.4119V96.8203H25.747V2.71902Z" stroke="black" stroke-width="0.25" stroke-miterlimit="10"/>
<path d="M31.2653 2.71902H30.5562V96.8203H31.2653V2.71902Z" stroke="black" stroke-width="0.25" stroke-miterlimit="10"/>
<path d="M36.3112 2.71902H35.602V96.8203H36.3112V2.71902Z" stroke="black" stroke-width="0.25" stroke-miterlimit="10"/>
<path d="M40.411 2.71902H36.3112V96.8203H40.411V2.71902Z" stroke="black" stroke-width="0.25" stroke-miterlimit="10"/>
<path d="M35.602 2.71902H31.2652V96.8203H35.602V2.71902Z" fill="#E5E5E5"/>
<path d="M35.602 2.71902H31.2652V96.8203H35.602V2.71902Z" stroke="black" stroke-width="0.25" stroke-miterlimit="10"/>
<path d="M41.1201 2.71902H40.4109V96.8203H41.1201V2.71902Z" stroke="black" stroke-width="0.25" stroke-miterlimit="10"/>
<path d="M46.1646 2.71902H45.4554V96.8203H46.1646V2.71902Z" stroke="black" stroke-width="0.25" stroke-miterlimit="10"/>
<path d="M50.2644 2.71902H46.1646V96.8203H50.2644V2.71902Z" stroke="black" stroke-width="0.25" stroke-miterlimit="10"/>
<path d="M45.4552 2.71902H41.1201V96.8203H45.4552V2.71902Z" fill="#E5E5E5"/>
<path d="M45.4552 2.71902H41.1201V96.8203H45.4552V2.71902Z" stroke="black" stroke-width="0.25" stroke-miterlimit="10"/>
<path d="M50.9734 2.71902H50.2642V96.8203H50.9734V2.71902Z" stroke="black" stroke-width="0.25" stroke-miterlimit="10"/>
<path d="M56.0193 2.71902H55.3102V96.8203H56.0193V2.71902Z" stroke="black" stroke-width="0.25" stroke-miterlimit="10"/>
<path d="M60.1192 2.71902H56.0193V96.8203H60.1192V2.71902Z" stroke="black" stroke-width="0.25" stroke-miterlimit="10"/>
<path d="M55.3102 2.71902H50.9734V96.8203H55.3102V2.71902Z" fill="#E5E5E5"/>
<path d="M55.3102 2.71902H50.9734V96.8203H55.3102V2.71902Z" stroke="black" stroke-width="0.25" stroke-miterlimit="10"/>
<path d="M60.8284 2.71902H60.1193V96.8203H60.8284V2.71902Z" stroke="black" stroke-width="0.25" stroke-miterlimit="10"/>
<path d="M65.8743 2.71902H65.1635V96.8203H65.8743V2.71902Z" stroke="black" stroke-width="0.25" stroke-miterlimit="10"/>
<path d="M69.9725 2.71902H65.8743V96.8203H69.9725V2.71902Z" stroke="black" stroke-width="0.25" stroke-miterlimit="10"/>
<path d="M65.1635 2.71902H60.8284V96.8203H65.1635V2.71902Z" fill="#E5E5E5"/>
<path d="M65.1635 2.71902H60.8284V96.8203H65.1635V2.71902Z" stroke="black" stroke-width="0.25" stroke-miterlimit="10"/>
<path d="M70.6816 2.71902H69.9724V96.8203H70.6816V2.71902Z" stroke="black" stroke-width="0.25" stroke-miterlimit="10"/>
<path d="M75.7277 2.71902H75.0186V96.8203H75.7277V2.71902Z" stroke="black" stroke-width="0.25" stroke-miterlimit="10"/>
<path d="M79.8275 2.71902H75.7277V96.8203H79.8275V2.71902Z" stroke="black" stroke-width="0.25" stroke-miterlimit="10"/>
<path d="M75.0184 2.71902H70.6816V96.8203H75.0184V2.71902Z" fill="#E5E5E5"/>
<path d="M75.0184 2.71902H70.6816V96.8203H75.0184V2.71902Z" stroke="black" stroke-width="0.25" stroke-miterlimit="10"/>
<path d="M80.5367 2.71902H79.8275V96.8203H80.5367V2.71902Z" stroke="black" stroke-width="0.25" stroke-miterlimit="10"/>
<path d="M85.5809 2.71902H84.8718V96.8203H85.5809V2.71902Z" stroke="black" stroke-width="0.25" stroke-miterlimit="10"/>
<path d="M89.8309 2.71902H85.5809V96.8203H89.8309V2.71902Z" stroke="black" stroke-width="0.25" stroke-miterlimit="10"/>
<path d="M84.8718 2.71902H80.5367V96.8203H84.8718V2.71902Z" fill="#E5E5E5"/>
<path d="M84.8718 2.71902H80.5367V96.8203H84.8718V2.71902Z" stroke="black" stroke-width="0.25" stroke-miterlimit="10"/>
<path d="M89.8308 101.547H89.6039L89.4921 98.9475H82.2852L82.1768 101.547H81.9482V98.5924H89.8308V101.547Z" stroke="black" stroke-width="0.25" stroke-miterlimit="10"/>
<path d="M14.1767 101.547H13.9481L13.8363 98.9475H6.62942L6.52263 101.547H6.29236V98.5924H14.1767V101.547Z" stroke="black" stroke-width="0.25" stroke-miterlimit="10"/>
<path d="M81.9482 101.547V98.5925H89.8309V96.8204H6.29236V98.5925H14.1767V101.547H81.9482ZM81.9482 101.547H82.1768" stroke="black" stroke-width="0.25" stroke-miterlimit="10"/>
<path d="M89.8309 0V4.64622H96.1217L96.125 0H89.8309Z" stroke="black" stroke-width="0.25" stroke-miterlimit="10"/>
<path d="M92.0652 3.31254C92.5891 3.78433 93.3867 3.78433 93.909 3.31254V1.25533C93.3867 0.783542 92.5891 0.783542 92.0652 1.25533V3.31254Z" stroke="black" stroke-width="0.25" stroke-miterlimit="10"/>
<path d="M89.8309 97.3521V102H96.1217L96.125 97.3521H89.8309Z" stroke="black" stroke-width="0.25" stroke-miterlimit="10"/>
<path d="M92.0652 100.665C92.5891 101.136 93.3867 101.136 93.909 100.665V98.6075C93.3867 98.1357 92.5891 98.1357 92.0652 98.6075V100.665Z" stroke="black" stroke-width="0.25" stroke-miterlimit="10"/>
<path d="M0 97.3521V102H6.29075L6.29242 97.3521H0Z" stroke="black" stroke-width="0.25" stroke-miterlimit="10"/>
<path d="M2.23425 100.665C2.75654 101.136 3.55581 101.136 4.07809 100.665V98.6075C3.55581 98.1357 2.75654 98.1357 2.23425 98.6075V100.665Z" stroke="black" stroke-width="0.25" stroke-miterlimit="10"/>
</g>
<defs>
<clipPath id="clip0_107_1992">
<rect width="96.125" height="102" fill="white"/>
</clipPath>
</defs>
</svg>
