<svg width="97" height="102" viewBox="0 0 97 102" fill="none" xmlns="http://www.w3.org/2000/svg">
<g clip-path="url(#clip0_40_8979)">
<path d="M48.7969 4.6463H1.37695V96.0934H48.7969V4.6463Z" stroke="black" stroke-width="0.25" stroke-miterlimit="10"/>
<path d="M47.4032 94.7146H2.81067V83.7016V81.1225V6.005H47.3781L47.4032 94.7146Z" stroke="black" stroke-width="0.25" stroke-miterlimit="10"/>
<path d="M6.75635 11.5149H43.4592V88.808H39.9474H6.75635V11.5149Z" stroke="black" stroke-width="0.25" stroke-miterlimit="10"/>
<path d="M82.1716 101.547H81.9412H14.1537V98.5924H6.26732V97.3537H1.37695V96.0934H94.7447V97.3537H89.8276V98.5924H81.9412V101.547" stroke="black" stroke-width="0.25" stroke-miterlimit="10"/>
<path d="M94.743 97.3537H95.9214V4.6463H94.7664L94.743 97.3537Z" stroke="black" stroke-width="0.25" stroke-miterlimit="10"/>
<path d="M0.163574 97.3537H1.37699V4.6463H0.185272L0.163574 97.3537Z" stroke="black" stroke-width="0.25" stroke-miterlimit="10"/>
<path d="M89.831 0.301758H6.29407V4.6463H89.831V0.301758Z" stroke="black" stroke-width="0.25" stroke-miterlimit="10"/>
<path d="M94.743 96.0934V4.63461L1.37695 4.64628V96.0934H94.743Z" stroke="black" stroke-width="0.25" stroke-miterlimit="10"/>
<path d="M1.37865 11.6749H0.183594V8.42401H1.37865L2.7573 8.60073L5.72657 8.98083C5.92352 9.00084 6.07207 9.12754 6.07207 9.27758V10.8864C6.07207 11.0364 5.92352 11.1648 5.72657 11.1848L2.7573 11.5199L1.37865 11.6749Z" stroke="black" stroke-width="0.25" stroke-miterlimit="10"/>
<path d="M89.8275 101.547H89.5988L89.487 98.9475H82.2783L82.1715 101.547H81.9412V98.5924H89.8275V101.547Z" stroke="black" stroke-width="0.25" stroke-miterlimit="10"/>
<path d="M14.1538 101.547H13.9251L13.8133 98.9475H6.60461L6.49612 101.547H6.26746V98.5924H14.1538V101.547Z" stroke="black" stroke-width="0.25" stroke-miterlimit="10"/>
<path d="M89.8309 0V4.64629H96.1217L96.125 0H89.8309Z" stroke="black" stroke-width="0.25" stroke-miterlimit="10"/>
<path d="M92.0642 3.31258C92.5883 3.78271 93.3861 3.78271 93.9085 3.31258V1.25534C93.3861 0.785208 92.5883 0.785208 92.0642 1.25534V3.31424V3.31258Z" stroke="black" stroke-width="0.25" stroke-miterlimit="10"/>
<path d="M1.37865 38.9708H0.183594V35.7199H1.37865L2.7573 35.8966L5.72657 36.2767C5.92352 36.2967 6.07207 36.4234 6.07207 36.5735V38.1823C6.07207 38.3323 5.92352 38.4607 5.72657 38.4807L2.7573 38.8158L1.37865 38.9708Z" stroke="black" stroke-width="0.25" stroke-miterlimit="10"/>
<path d="M1.37865 66.2684H0.183594V63.0175H1.37865L2.7573 63.1942L5.72657 63.5743C5.92352 63.5943 6.07207 63.721 6.07207 63.8711V65.4799C6.07207 65.6316 5.92352 65.7583 5.72657 65.7783L2.7573 66.1134L1.37865 66.2684Z" stroke="black" stroke-width="0.25" stroke-miterlimit="10"/>
<path d="M1.37865 93.5627H0.183594V90.3118H1.37865L2.7573 90.4885L5.72657 90.8686C5.92352 90.8886 6.07207 91.0153 6.07207 91.1653V92.7758C6.07207 92.9258 5.92352 93.0542 5.72657 93.0742L2.7573 93.4076L1.37865 93.5627Z" stroke="black" stroke-width="0.25" stroke-miterlimit="10"/>
<path d="M43.4592 23.5182H6.75635V28.7947H43.4575L43.4592 23.5182Z" stroke="black" stroke-width="0.25" stroke-miterlimit="10"/>
<path d="M43.4575 24.7785H6.75635V27.7394H43.4575V24.7785Z" stroke="black" stroke-width="0.25" stroke-miterlimit="10"/>
<path d="M43.4575 47.5232H6.75635V52.8013H43.4575V47.5232Z" stroke="black" stroke-width="0.25" stroke-miterlimit="10"/>
<path d="M43.4592 51.7427H6.75635V48.7835H43.4575L43.4592 51.7427Z" stroke="black" stroke-width="0.25" stroke-miterlimit="10"/>
<path d="M43.4592 71.5282H6.75635V76.8047H43.4575L43.4592 71.5282Z" stroke="black" stroke-width="0.25" stroke-miterlimit="10"/>
<path d="M43.4575 72.7885H6.75635V75.7477H43.4575V72.7885Z" stroke="black" stroke-width="0.25" stroke-miterlimit="10"/>
<path d="M22.661 3.40429H25.3398C25.5585 3.40429 25.7321 3.22757 25.7321 3.01084V2.00556C25.7321 1.78884 25.5585 1.61212 25.3398 1.61212H22.661C22.4457 1.61212 22.2671 1.78884 22.2671 2.00556V3.01084C22.2671 3.22757 22.4457 3.40429 22.661 3.40429Z" stroke="black" stroke-width="0.25" stroke-miterlimit="10"/>
<path d="M24.6004 1.61212H23.3987V98.474H24.6004V1.61212Z" stroke="black" stroke-width="0.25" stroke-miterlimit="10"/>
<path d="M24.088 88.808H24.9826" stroke="black" stroke-width="0.25" stroke-miterlimit="10"/>
<path d="M22.661 96.6819H25.3382C25.5585 96.6819 25.7321 96.8569 25.7321 97.0753V98.0789C25.7321 98.2973 25.5585 98.474 25.3382 98.474H22.661C22.4457 98.474 22.2671 98.2973 22.2671 98.0789V97.0753C22.2671 96.8569 22.4457 96.6819 22.661 96.6819Z" stroke="black" stroke-width="0.25" stroke-miterlimit="10"/>
<path d="M24.6004 1.61212H23.3987V98.474H24.6004V1.61212Z" stroke="black" stroke-width="0.25" stroke-miterlimit="10"/>
<path d="M22.998 55.5021H25.0009C25.4165 55.5021 25.752 55.8372 25.752 56.2523C25.752 56.6674 25.4165 57.0025 25.0009 57.0025H22.998C22.5841 57.0025 22.2469 56.6674 22.2469 56.2523C22.2469 55.8372 22.5841 55.5021 22.998 55.5021Z" stroke="black" stroke-width="0.25" stroke-miterlimit="10"/>
<path d="M21.9315 63.2259V61.5421H23.3986V63.9694H21.9315V63.2259Z" stroke="black" stroke-width="0.25" stroke-miterlimit="10"/>
<path d="M16.7091 64.2545C16.7091 64.0478 16.8777 63.8794 17.0846 63.8794C17.2916 63.8794 17.4602 64.0478 17.4602 64.2545C17.4602 64.4612 17.2916 64.6296 17.0846 64.6296C16.8777 64.6296 16.7091 64.4612 16.7091 64.2545Z" stroke="black" stroke-width="0.25" stroke-miterlimit="10"/>
<path d="M16.457 60.17C16.6289 60.0317 16.8476 59.95 17.0846 59.95C17.637 59.95 18.086 60.3984 18.086 60.9503V63.9511C18.086 64.5029 17.637 64.9514 17.0846 64.9514C16.5321 64.9514 16.0831 64.5029 16.0831 63.9511V60.9503H16.4587V60.1717H16.457V60.17Z" stroke="black" stroke-width="0.25" stroke-miterlimit="10"/>
<path d="M17.7004 62.549H16.4686V63.6744H17.7004V62.549Z" stroke="black" stroke-width="0.25" stroke-miterlimit="10"/>
<path d="M21.9316 63.2259V62.2873H10.2231C10.0028 62.2873 9.82751 62.464 9.82751 62.6807V62.8324C9.82751 63.0492 10.0028 63.2259 10.2231 63.2259H21.9316Z" stroke="black" stroke-width="0.25" stroke-miterlimit="10"/>
<path d="M16.5021 60.7085C16.5005 60.6902 16.5005 60.6718 16.5005 60.6535M16.5005 60.6535C16.5005 60.3317 16.7625 60.07 17.0846 60.07C17.4068 60.07 17.6688 60.3317 17.6688 60.6535V61.7405L17.9409 62.1156V62.5407L17.4602 63.0692H16.7091L16.2284 62.5407V62.1156L16.5005 61.7405V60.6535Z" stroke="black" stroke-width="0.25" stroke-miterlimit="10"/>
<path d="M17.0846 61.0303C17.2921 61.0303 17.4602 60.8624 17.4602 60.6552C17.4602 60.448 17.2921 60.2801 17.0846 60.2801C16.8772 60.2801 16.7091 60.448 16.7091 60.6552C16.7091 60.8624 16.8772 61.0303 17.0846 61.0303Z" stroke="black" stroke-width="0.25" stroke-miterlimit="10"/>
<path d="M16.8059 62.2206C16.8059 62.1356 16.9361 62.0672 17.098 62.0672C17.2599 62.0672 17.3884 62.1356 17.3884 62.2206C17.3884 62.3056 17.2582 62.374 17.098 62.374C16.9378 62.374 16.8059 62.3056 16.8059 62.2206Z" stroke="black" stroke-width="0.25" stroke-miterlimit="10"/>
<path d="M22.3739 56.2539C22.3739 56.0472 22.5425 55.8788 22.7494 55.8788C22.9564 55.8788 23.125 56.0472 23.125 56.2539C23.125 56.4607 22.9564 56.6291 22.7494 56.6291C22.5425 56.6291 22.3739 56.4607 22.3739 56.2539Z" stroke="black" stroke-width="0.25" stroke-miterlimit="10"/>
<path d="M24.8574 56.2539C24.8574 56.0472 25.026 55.8788 25.233 55.8788C25.4399 55.8788 25.6085 56.0472 25.6085 56.2539C25.6085 56.4607 25.4399 56.6291 25.233 56.6291C25.026 56.6291 24.8574 56.4607 24.8574 56.2539Z" stroke="black" stroke-width="0.25" stroke-miterlimit="10"/>
<path d="M23.876 56.2523C23.876 56.1839 23.9311 56.1289 23.9995 56.1289C24.0679 56.1289 24.123 56.1839 24.123 56.2523C24.123 56.3206 24.0679 56.3773 23.9995 56.3773C23.9311 56.3773 23.876 56.3223 23.876 56.2523Z" stroke="black" stroke-width="0.25" stroke-miterlimit="10"/>
<path d="M25.0009 6.28342H22.998C22.5832 6.28342 22.2469 6.6193 22.2469 7.03363V10.4079C22.2469 10.8222 22.5832 11.1581 22.998 11.1581H25.0009C25.4157 11.1581 25.752 10.8222 25.752 10.4079V7.03363C25.752 6.6193 25.4157 6.28342 25.0009 6.28342Z" stroke="black" stroke-width="0.25" stroke-miterlimit="10"/>
<path d="M22.2469 93.4276V90.0534C22.2469 89.6399 22.5841 89.3032 22.998 89.3032H25.0009C25.4165 89.3032 25.752 89.6399 25.752 90.0534V93.4276C25.752 93.8428 25.4165 94.1778 25.0009 94.1778H22.998C22.5841 94.1778 22.2469 93.8428 22.2469 93.4276Z" stroke="black" stroke-width="0.25" stroke-miterlimit="10"/>
<path d="M22.3739 10.4096C22.3739 10.2028 22.5425 10.0345 22.7494 10.0345C22.9564 10.0345 23.125 10.2028 23.125 10.4096C23.125 10.6163 22.9564 10.7847 22.7494 10.7847C22.5425 10.7847 22.3739 10.6163 22.3739 10.4096Z" stroke="black" stroke-width="0.25" stroke-miterlimit="10"/>
<path d="M24.8574 10.4096C24.8574 10.2028 25.026 10.0345 25.233 10.0345C25.4399 10.0345 25.6085 10.2028 25.6085 10.4096C25.6085 10.6163 25.4399 10.7847 25.233 10.7847C25.026 10.7847 24.8574 10.6163 24.8574 10.4096Z" stroke="black" stroke-width="0.25" stroke-miterlimit="10"/>
<path d="M23.9995 10.5313C24.0677 10.5313 24.123 10.476 24.123 10.4079C24.123 10.3397 24.0677 10.2845 23.9995 10.2845C23.9313 10.2845 23.876 10.3397 23.876 10.4079C23.876 10.476 23.9313 10.5313 23.9995 10.5313Z" stroke="black" stroke-width="0.25" stroke-miterlimit="10"/>
<path d="M22.7494 7.4104C22.9568 7.4104 23.125 7.24246 23.125 7.03529C23.125 6.82813 22.9568 6.66019 22.7494 6.66019C22.542 6.66019 22.3739 6.82813 22.3739 7.03529C22.3739 7.24246 22.542 7.4104 22.7494 7.4104Z" stroke="black" stroke-width="0.25" stroke-miterlimit="10"/>
<path d="M25.233 7.4104C25.4404 7.4104 25.6085 7.24246 25.6085 7.03529C25.6085 6.82813 25.4404 6.66019 25.233 6.66019C25.0256 6.66019 24.8574 6.82813 24.8574 7.03529C24.8574 7.24246 25.0256 7.4104 25.233 7.4104Z" stroke="black" stroke-width="0.25" stroke-miterlimit="10"/>
<path d="M23.876 7.03362C23.876 6.96526 23.9311 6.91025 23.9995 6.91025C24.0679 6.91025 24.123 6.96526 24.123 7.03362C24.123 7.10197 24.0679 7.15698 23.9995 7.15698C23.9311 7.15698 23.876 7.10197 23.876 7.03362Z" stroke="black" stroke-width="0.25" stroke-miterlimit="10"/>
<path d="M22.7494 93.8044C22.9568 93.8044 23.125 93.6365 23.125 93.4293C23.125 93.2221 22.9568 93.0542 22.7494 93.0542C22.542 93.0542 22.3739 93.2221 22.3739 93.4293C22.3739 93.6365 22.542 93.8044 22.7494 93.8044Z" stroke="black" stroke-width="0.25" stroke-miterlimit="10"/>
<path d="M25.233 93.8044C25.4404 93.8044 25.6085 93.6365 25.6085 93.4293C25.6085 93.2221 25.4404 93.0542 25.233 93.0542C25.0256 93.0542 24.8574 93.2221 24.8574 93.4293C24.8574 93.6365 25.0256 93.8044 25.233 93.8044Z" stroke="black" stroke-width="0.25" stroke-miterlimit="10"/>
<path d="M23.876 93.4276C23.876 93.3593 23.9311 93.3043 23.9995 93.3043C24.0679 93.3043 24.123 93.3593 24.123 93.4276C24.123 93.496 24.0679 93.5527 23.9995 93.5527C23.9311 93.5527 23.876 93.496 23.876 93.4276Z" stroke="black" stroke-width="0.25" stroke-miterlimit="10"/>
<path d="M22.7494 90.4301C22.9568 90.4301 23.125 90.2622 23.125 90.055C23.125 89.8479 22.9568 89.6799 22.7494 89.6799C22.542 89.6799 22.3739 89.8479 22.3739 90.055C22.3739 90.2622 22.542 90.4301 22.7494 90.4301Z" stroke="black" stroke-width="0.25" stroke-miterlimit="10"/>
<path d="M25.233 90.4301C25.4404 90.4301 25.6085 90.2622 25.6085 90.055C25.6085 89.8479 25.4404 89.6799 25.233 89.6799C25.0256 89.6799 24.8574 89.8479 24.8574 90.055C24.8574 90.2622 25.0256 90.4301 25.233 90.4301Z" stroke="black" stroke-width="0.25" stroke-miterlimit="10"/>
<path d="M23.9995 90.1767C24.0677 90.1767 24.123 90.1215 24.123 90.0534C24.123 89.9852 24.0677 89.93 23.9995 89.93C23.9313 89.93 23.876 89.9852 23.876 90.0534C23.876 90.1215 23.9313 90.1767 23.9995 90.1767Z" stroke="black" stroke-width="0.25" stroke-miterlimit="10"/>
<path d="M39.3916 3.40429H42.0705C42.2891 3.40429 42.4644 3.22757 42.4644 3.01084V2.00556C42.4644 1.78884 42.2891 1.61212 42.0705 1.61212H39.3916C39.178 1.61212 38.9994 1.78884 38.9994 2.00556V3.01084C38.9994 3.22757 39.178 3.40429 39.3916 3.40429Z" stroke="black" stroke-width="0.25" stroke-miterlimit="10"/>
<path d="M39.3933 96.6819H42.0705C42.2891 96.6819 42.4644 96.8569 42.4644 97.0753V98.0789C42.4644 98.2973 42.2891 98.474 42.0705 98.474H39.3933C39.178 98.474 38.9994 98.2973 38.9994 98.0789V97.0753C38.9994 96.8569 39.178 96.6819 39.3933 96.6819Z" stroke="black" stroke-width="0.25" stroke-miterlimit="10"/>
<path d="M41.331 1.61212H40.131V98.474H41.331V1.61212Z" stroke="black" stroke-width="0.25" stroke-miterlimit="10"/>
<path d="M39.7305 55.5021H41.7333C42.1473 55.5021 42.4844 55.8372 42.4844 56.2523C42.4844 56.6674 42.1473 57.0025 41.7333 57.0025H39.7305C39.3149 57.0025 38.9794 56.6674 38.9794 56.2523C38.9794 55.8372 39.3149 55.5021 39.7305 55.5021Z" stroke="black" stroke-width="0.25" stroke-miterlimit="10"/>
<path d="M38.6622 63.2259V61.5421H40.131V63.9694H38.6622V63.2259Z" stroke="black" stroke-width="0.25" stroke-miterlimit="10"/>
<path d="M33.4398 64.2545C33.4398 64.0478 33.6084 63.8794 33.817 63.8794C34.0257 63.8794 34.1926 64.0478 34.1926 64.2545C34.1926 64.4612 34.024 64.6296 33.817 64.6296C33.6101 64.6296 33.4398 64.4612 33.4398 64.2545Z" stroke="black" stroke-width="0.25" stroke-miterlimit="10"/>
<path d="M33.1893 60.17C33.3612 60.0317 33.5782 59.95 33.8169 59.95C34.3693 59.95 34.8166 60.3984 34.8166 60.9503V63.9511C34.8166 64.5029 34.3693 64.9514 33.8169 64.9514C33.2644 64.9514 32.8154 64.5029 32.8154 63.9511V60.9503H33.1893V60.1717V60.17Z" stroke="black" stroke-width="0.25" stroke-miterlimit="10"/>
<path d="M34.4313 62.549H33.2012V63.6744H34.4313V62.549Z" stroke="black" stroke-width="0.25" stroke-miterlimit="10"/>
<path d="M38.6622 63.2259V62.2873H26.9537C26.7351 62.2873 26.5598 62.464 26.5598 62.6807V62.8324C26.5598 63.0492 26.7351 63.2259 26.9537 63.2259H38.6622Z" stroke="black" stroke-width="0.25" stroke-miterlimit="10"/>
<path d="M33.2345 60.7085C33.2329 60.6902 33.2312 60.6718 33.2312 60.6535M33.2312 60.6535C33.2312 60.3317 33.4932 60.07 33.817 60.07C34.1408 60.07 34.4012 60.3317 34.4012 60.6535V61.7405L34.6716 62.1156V62.5407L34.1926 63.0692H33.4398L32.9608 62.5407V62.1156L33.2312 61.7405V60.6535Z" stroke="black" stroke-width="0.25" stroke-miterlimit="10"/>
<path d="M33.4398 60.6552C33.4398 60.4485 33.6084 60.2801 33.817 60.2801C34.0257 60.2801 34.1926 60.4485 34.1926 60.6552C34.1926 60.8619 34.024 61.0303 33.817 61.0303C33.6101 61.0303 33.4398 60.8619 33.4398 60.6552Z" stroke="black" stroke-width="0.25" stroke-miterlimit="10"/>
<path d="M33.5383 62.2206C33.5383 62.1356 33.6685 62.0672 33.8287 62.0672C33.989 62.0672 34.1208 62.1356 34.1208 62.2206C34.1208 62.3056 33.9906 62.374 33.8287 62.374C33.6668 62.374 33.5383 62.3056 33.5383 62.2206Z" stroke="black" stroke-width="0.25" stroke-miterlimit="10"/>
<path d="M39.1045 56.2539C39.1045 56.0472 39.2731 55.8788 39.48 55.8788C39.687 55.8788 39.8556 56.0472 39.8556 56.2539C39.8556 56.4607 39.6887 56.6291 39.48 56.6291C39.2714 56.6291 39.1045 56.4607 39.1045 56.2539Z" stroke="black" stroke-width="0.25" stroke-miterlimit="10"/>
<path d="M41.5897 56.2539C41.5897 56.0472 41.7583 55.8788 41.9653 55.8788C42.1722 55.8788 42.3408 56.0472 42.3408 56.2539C42.3408 56.4607 42.1722 56.6291 41.9653 56.6291C41.7583 56.6291 41.5897 56.4607 41.5897 56.2539Z" stroke="black" stroke-width="0.25" stroke-miterlimit="10"/>
<path d="M40.6067 56.2523C40.6067 56.1839 40.6618 56.1289 40.7319 56.1289C40.802 56.1289 40.8554 56.1839 40.8554 56.2523C40.8554 56.3206 40.8003 56.3773 40.7319 56.3773C40.6634 56.3773 40.6067 56.3223 40.6067 56.2523Z" stroke="black" stroke-width="0.25" stroke-miterlimit="10"/>
<path d="M38.9778 10.4079V7.03363C38.9778 6.61851 39.3149 6.28342 39.7305 6.28342H41.7334C42.1473 6.28342 42.4845 6.61851 42.4845 7.03363V10.4079C42.4845 10.8213 42.1473 11.1581 41.7334 11.1581H39.7305C39.3149 11.1581 38.9778 10.8213 38.9778 10.4079Z" stroke="black" stroke-width="0.25" stroke-miterlimit="10"/>
<path d="M38.9778 93.4276V90.0534C38.9778 89.6399 39.3149 89.3032 39.7305 89.3032H41.7334C42.1473 89.3032 42.4845 89.6399 42.4845 90.0534V93.4276C42.4845 93.8428 42.1473 94.1778 41.7334 94.1778H39.7305C39.3149 94.1778 38.9778 93.8428 38.9778 93.4276Z" stroke="black" stroke-width="0.25" stroke-miterlimit="10"/>
<path d="M39.1045 10.4096C39.1045 10.2028 39.2731 10.0345 39.48 10.0345C39.687 10.0345 39.8556 10.2028 39.8556 10.4096C39.8556 10.6163 39.6887 10.7847 39.48 10.7847C39.2714 10.7847 39.1045 10.6163 39.1045 10.4096Z" stroke="black" stroke-width="0.25" stroke-miterlimit="10"/>
<path d="M41.5897 10.4096C41.5897 10.2028 41.7583 10.0345 41.9653 10.0345C42.1722 10.0345 42.3408 10.2028 42.3408 10.4096C42.3408 10.6163 42.1722 10.7847 41.9653 10.7847C41.7583 10.7847 41.5897 10.6163 41.5897 10.4096Z" stroke="black" stroke-width="0.25" stroke-miterlimit="10"/>
<path d="M40.6067 10.4079C40.6067 10.3395 40.6618 10.2845 40.7319 10.2845C40.802 10.2845 40.8554 10.3395 40.8554 10.4079C40.8554 10.4762 40.8003 10.5313 40.7319 10.5313C40.6634 10.5313 40.6067 10.4762 40.6067 10.4079Z" stroke="black" stroke-width="0.25" stroke-miterlimit="10"/>
<path d="M39.48 7.4104C39.6874 7.4104 39.8556 7.24246 39.8556 7.03529C39.8556 6.82813 39.6874 6.66019 39.48 6.66019C39.2726 6.66019 39.1045 6.82813 39.1045 7.03529C39.1045 7.24246 39.2726 7.4104 39.48 7.4104Z" stroke="black" stroke-width="0.25" stroke-miterlimit="10"/>
<path d="M41.9653 7.4104C42.1727 7.4104 42.3408 7.24246 42.3408 7.03529C42.3408 6.82813 42.1727 6.66019 41.9653 6.66019C41.7579 6.66019 41.5897 6.82813 41.5897 7.03529C41.5897 7.24246 41.7579 7.4104 41.9653 7.4104Z" stroke="black" stroke-width="0.25" stroke-miterlimit="10"/>
<path d="M40.6067 7.03362C40.6067 6.96526 40.6618 6.91025 40.7319 6.91025C40.802 6.91025 40.8554 6.96526 40.8554 7.03362C40.8554 7.10197 40.8003 7.15698 40.7319 7.15698C40.6634 7.15698 40.6067 7.10197 40.6067 7.03362Z" stroke="black" stroke-width="0.25" stroke-miterlimit="10"/>
<path d="M39.48 93.8044C39.6874 93.8044 39.8556 93.6365 39.8556 93.4293C39.8556 93.2221 39.6874 93.0542 39.48 93.0542C39.2726 93.0542 39.1045 93.2221 39.1045 93.4293C39.1045 93.6365 39.2726 93.8044 39.48 93.8044Z" stroke="black" stroke-width="0.25" stroke-miterlimit="10"/>
<path d="M41.9653 93.8044C42.1727 93.8044 42.3408 93.6365 42.3408 93.4293C42.3408 93.2221 42.1727 93.0542 41.9653 93.0542C41.7579 93.0542 41.5897 93.2221 41.5897 93.4293C41.5897 93.6365 41.7579 93.8044 41.9653 93.8044Z" stroke="black" stroke-width="0.25" stroke-miterlimit="10"/>
<path d="M40.6067 93.4276C40.6067 93.3593 40.6618 93.3043 40.7319 93.3043C40.802 93.3043 40.8554 93.3593 40.8554 93.4276C40.8554 93.496 40.8003 93.5527 40.7319 93.5527C40.6634 93.5527 40.6067 93.496 40.6067 93.4276Z" stroke="black" stroke-width="0.25" stroke-miterlimit="10"/>
<path d="M39.48 90.4301C39.6874 90.4301 39.8556 90.2622 39.8556 90.055C39.8556 89.8479 39.6874 89.6799 39.48 89.6799C39.2726 89.6799 39.1045 89.8479 39.1045 90.055C39.1045 90.2622 39.2726 90.4301 39.48 90.4301Z" stroke="black" stroke-width="0.25" stroke-miterlimit="10"/>
<path d="M41.9653 90.4301C42.1727 90.4301 42.3408 90.2622 42.3408 90.055C42.3408 89.8479 42.1727 89.6799 41.9653 89.6799C41.7579 89.6799 41.5897 89.8479 41.5897 90.055C41.5897 90.2622 41.7579 90.4301 41.9653 90.4301Z" stroke="black" stroke-width="0.25" stroke-miterlimit="10"/>
<path d="M40.6067 90.0534C40.6067 89.985 40.6618 89.93 40.7319 89.93C40.802 89.93 40.8554 89.985 40.8554 90.0534C40.8554 90.1217 40.8003 90.1767 40.7319 90.1767C40.6634 90.1767 40.6067 90.1217 40.6067 90.0534Z" stroke="black" stroke-width="0.25" stroke-miterlimit="10"/>
<path d="M47.3999 96.1184V52.3862V49.272V4.6463H94.7664V96.1184H47.3999Z" stroke="black" stroke-width="0.25" stroke-miterlimit="10"/>
<path d="M93.4812 94.7413H48.8453L48.8203 5.97665H93.4379V94.7413" stroke="black" stroke-width="0.25" stroke-miterlimit="10"/>
<path d="M52.7893 11.5399H89.4921V88.833H85.9804H52.7893V11.5399Z" stroke="black" stroke-width="0.25" stroke-miterlimit="10"/>
<path d="M47.3999 96.1184V52.3862V49.272V4.6463H94.7664V96.1184H47.3999Z" stroke="black" stroke-width="0.25" stroke-miterlimit="10"/>
<path d="M93.4812 94.7413H48.8453L48.8203 5.97665H93.4379V94.7413" stroke="black" stroke-width="0.25" stroke-miterlimit="10"/>
<path d="M93.4812 94.7413H48.8453L48.8203 5.97665H93.4379V94.7413" stroke="black" stroke-width="0.25" stroke-miterlimit="10"/>
<path d="M52.7943 72.8135H89.4921" stroke="black" stroke-width="0.25" stroke-miterlimit="10"/>
<path d="M52.7893 71.5532H89.4921" stroke="black" stroke-width="0.25" stroke-miterlimit="10"/>
<path d="M52.7893 75.7744H89.4921" stroke="black" stroke-width="0.25" stroke-miterlimit="10"/>
<path d="M56.0924 52.8263H89.4921" stroke="black" stroke-width="0.25" stroke-miterlimit="10"/>
<path d="M56.0941 48.8086H89.4922" stroke="black" stroke-width="0.25" stroke-miterlimit="10"/>
<path d="M56.0907 47.5482H89.4921" stroke="black" stroke-width="0.25" stroke-miterlimit="10"/>
<path d="M56.0907 51.7694H89.4921" stroke="black" stroke-width="0.25" stroke-miterlimit="10"/>
<path d="M52.7926 28.8214H89.4921" stroke="black" stroke-width="0.25" stroke-miterlimit="10"/>
<path d="M52.7943 24.8036H89.4921" stroke="black" stroke-width="0.25" stroke-miterlimit="10"/>
<path d="M52.7893 23.5432H89.4921" stroke="black" stroke-width="0.25" stroke-miterlimit="10"/>
<path d="M52.7893 27.7644H89.4921" stroke="black" stroke-width="0.25" stroke-miterlimit="10"/>
<path d="M52.7926 76.8313H89.4921" stroke="black" stroke-width="0.25" stroke-miterlimit="10"/>
<path d="M52.7893 11.5399H89.4921V88.833H85.9804H52.7893V11.5399Z" stroke="black" stroke-width="0.25" stroke-miterlimit="10"/>
<path d="M94.7497 93.5893H95.9448V90.3384H94.7497L93.3711 90.5152L90.4018 90.8953C90.2048 90.9136 90.0563 91.0403 90.0563 91.192V92.8008C90.0563 92.9525 90.2048 93.0792 90.4018 93.0992L93.3711 93.4343L94.7497 93.5893Z" stroke="black" stroke-width="0.25" stroke-miterlimit="10"/>
<path d="M94.7497 66.2934H95.9448V63.0425H94.7497L93.3711 63.2192L90.4018 63.5993C90.2048 63.6193 90.0563 63.746 90.0563 63.8961V65.5049C90.0563 65.6549 90.2048 65.7833 90.4018 65.8033L93.3711 66.1384L94.7497 66.2934Z" stroke="black" stroke-width="0.25" stroke-miterlimit="10"/>
<path d="M94.7497 38.9975H95.9448V35.7466H94.7497L93.3711 35.9233L90.4018 36.3034C90.2048 36.3234 90.0563 36.4501 90.0563 36.6002V38.2089C90.0563 38.359 90.2048 38.4873 90.4018 38.5073L93.3711 38.8424L94.7497 38.9975Z" stroke="black" stroke-width="0.25" stroke-miterlimit="10"/>
<path d="M94.7497 11.7016H95.9448V8.45068H94.7497L93.3711 8.6274L90.4018 9.0075C90.2048 9.02751 90.0563 9.15421 90.0563 9.30425V10.9147C90.0563 11.0647 90.2048 11.1931 90.4018 11.2131L93.3711 11.5482L94.7497 11.7033V11.7016Z" stroke="black" stroke-width="0.25" stroke-miterlimit="10"/>
<path d="M48.8202 47.9366H44.8862V52.4379H51.5208V47.9366H48.8202Z" stroke="black" stroke-width="0.25" stroke-miterlimit="10"/>
<path d="M89.4921 71.5532H52.7926V76.8314H89.4921V71.5532Z" stroke="black" stroke-width="0.25" stroke-miterlimit="10"/>
<path d="M89.4921 72.8135H52.7943V75.7727H89.4921V72.8135Z" stroke="black" stroke-width="0.25" stroke-miterlimit="10"/>
<path d="M89.4921 47.5482H52.7909V52.8264H89.4921V47.5482Z" stroke="black" stroke-width="0.25" stroke-miterlimit="10"/>
<path d="M89.4921 48.8086H52.7893V51.7677H89.4921V48.8086Z" stroke="black" stroke-width="0.25" stroke-miterlimit="10"/>
<path d="M89.4921 23.5432H52.7926V28.8213H89.4921V23.5432Z" stroke="black" stroke-width="0.25" stroke-miterlimit="10"/>
<path d="M89.4921 24.8036H52.7893V27.7627H89.4921V24.8036Z" stroke="black" stroke-width="0.25" stroke-miterlimit="10"/>
<path d="M62.0309 64.2812C62.0309 64.0744 62.1978 63.9061 62.4064 63.9061C62.6151 63.9061 62.7803 64.0744 62.7803 64.2812C62.7803 64.4879 62.6134 64.6563 62.4064 64.6563C62.1995 64.6563 62.0309 64.4879 62.0309 64.2812Z" stroke="black" stroke-width="0.25" stroke-miterlimit="10"/>
<path d="M56.8301 3.43096H54.1512C53.9326 3.43096 53.7573 3.25424 53.7573 3.03752V2.03224C53.7573 1.81551 53.9326 1.63879 54.1512 1.63879H56.8301C57.0437 1.63879 57.224 1.81551 57.224 2.03224V3.03752C57.224 3.25424 57.0437 3.43096 56.8301 3.43096Z" stroke="black" stroke-width="0.25" stroke-miterlimit="10"/>
<path d="M56.8284 96.7069H54.1512C53.9326 96.7069 53.7573 96.8836 53.7573 97.1003V98.1056C53.7573 98.324 53.9326 98.5007 54.1512 98.5007H56.8284C57.0437 98.5007 57.224 98.324 57.224 98.1056V97.1003C57.224 96.8836 57.0437 96.7069 56.8284 96.7069Z" stroke="black" stroke-width="0.25" stroke-miterlimit="10"/>
<path d="M56.0907 1.63879H54.8906V98.5024H56.0907V1.63879Z" stroke="black" stroke-width="0.25" stroke-miterlimit="10"/>
<path d="M57.5595 63.2509V61.5688H56.0907V63.9961H57.5595V63.2509Z" stroke="black" stroke-width="0.25" stroke-miterlimit="10"/>
<path d="M56.4913 55.5271H54.4884C54.0745 55.5271 53.7373 55.8639 53.7373 56.2773C53.7373 56.6908 54.0745 57.0275 54.4884 57.0275H56.4913C56.9069 57.0275 57.2423 56.6924 57.2423 56.2773C57.2423 55.8622 56.9069 55.5271 56.4913 55.5271Z" stroke="black" stroke-width="0.25" stroke-miterlimit="10"/>
<path d="M61.7789 60.1967C61.9491 60.0583 62.1678 59.9767 62.4064 59.9767C62.9589 59.9767 63.4079 60.4251 63.4079 60.9769V63.9778C63.4079 64.5296 62.9589 64.978 62.4064 64.978C61.854 64.978 61.4033 64.5296 61.4033 63.9778V60.9769H61.7789V60.1984V60.1967Z" stroke="black" stroke-width="0.25" stroke-miterlimit="10"/>
<path d="M63.0207 62.5757H61.7889V63.701H63.0207V62.5757Z" stroke="black" stroke-width="0.25" stroke-miterlimit="10"/>
<path d="M57.5594 63.2509V62.3123H77.4013C77.6217 62.3123 77.7969 62.489 77.7969 62.7058V62.8575C77.7969 63.0742 77.6217 63.2509 77.4013 63.2509H57.5594Z" stroke="black" stroke-width="0.25" stroke-miterlimit="10"/>
<path d="M70.1976 62.314V63.2559" stroke="black" stroke-width="0.25" stroke-miterlimit="10"/>
<path d="M62.1277 62.2456C62.1277 62.1606 62.2579 62.0923 62.4181 62.0923C62.5783 62.0923 62.7102 62.1606 62.7102 62.2456C62.7102 62.3307 62.5783 62.399 62.4181 62.399C62.2579 62.399 62.1277 62.3307 62.1277 62.2456Z" stroke="black" stroke-width="0.25" stroke-miterlimit="10"/>
<path d="M61.8223 60.7352C61.8223 60.7169 61.8223 60.6985 61.8223 60.6802M61.8223 60.6802C61.8223 60.3584 62.0843 60.0967 62.4081 60.0967C62.7319 60.0967 62.9923 60.3584 62.9923 60.6802V61.7671L63.2627 62.1423V62.5674L62.782 63.0958H62.0309L61.5519 62.5674V62.1423L61.8223 61.7671V60.6802Z" stroke="black" stroke-width="0.25" stroke-miterlimit="10"/>
<path d="M62.0309 60.6802C62.0309 60.4735 62.1978 60.3051 62.4064 60.3051C62.6151 60.3051 62.7803 60.4735 62.7803 60.6802C62.7803 60.8869 62.6134 61.0553 62.4064 61.0553C62.1995 61.0553 62.0309 60.8869 62.0309 60.6802Z" stroke="black" stroke-width="0.25" stroke-miterlimit="10"/>
<path d="M57.2423 93.4543V90.08C57.2423 89.6649 56.9069 89.3298 56.4913 89.3298H54.4884C54.0745 89.3298 53.7373 89.6649 53.7373 90.08V93.4543C53.7373 93.8677 54.0745 94.2045 54.4884 94.2045H56.4913C56.9069 94.2045 57.2423 93.8677 57.2423 93.4543Z" stroke="black" stroke-width="0.25" stroke-miterlimit="10"/>
<path d="M56.4913 6.31009H54.4884C54.0736 6.31009 53.7373 6.64597 53.7373 7.0603V10.4346C53.7373 10.8489 54.0736 11.1848 54.4884 11.1848H56.4913C56.9061 11.1848 57.2423 10.8489 57.2423 10.4346V7.0603C57.2423 6.64597 56.9061 6.31009 56.4913 6.31009Z" stroke="black" stroke-width="0.25" stroke-miterlimit="10"/>
<path d="M55.615 7.06029C55.615 6.99194 55.5583 6.93692 55.4915 6.93692C55.4248 6.93692 55.3663 6.99194 55.3663 7.06029C55.3663 7.12864 55.4214 7.18366 55.4915 7.18366C55.5616 7.18366 55.615 7.12864 55.615 7.06029Z" stroke="black" stroke-width="0.25" stroke-miterlimit="10"/>
<path d="M54.6318 7.06196C54.6318 6.85524 54.4649 6.68686 54.2563 6.68686C54.0476 6.68686 53.8807 6.85524 53.8807 7.06196C53.8807 7.26869 54.0493 7.43707 54.2563 7.43707C54.4632 7.43707 54.6318 7.26869 54.6318 7.06196Z" stroke="black" stroke-width="0.25" stroke-miterlimit="10"/>
<path d="M57.1155 7.06196C57.1155 6.85524 56.9486 6.68686 56.7416 6.68686C56.5347 6.68686 56.3661 6.85524 56.3661 7.06196C56.3661 7.26869 56.533 7.43707 56.7416 7.43707C56.9503 7.43707 57.1155 7.26869 57.1155 7.06196Z" stroke="black" stroke-width="0.25" stroke-miterlimit="10"/>
<path d="M55.615 10.4346C55.615 10.3662 55.5583 10.3112 55.4915 10.3112C55.4248 10.3112 55.3663 10.3662 55.3663 10.4346C55.3663 10.5029 55.4214 10.5579 55.4915 10.5579C55.5616 10.5579 55.615 10.5029 55.615 10.4346Z" stroke="black" stroke-width="0.25" stroke-miterlimit="10"/>
<path d="M54.2563 10.8113C54.4637 10.8113 54.6318 10.6434 54.6318 10.4362C54.6318 10.2291 54.4637 10.0611 54.2563 10.0611C54.0489 10.0611 53.8807 10.2291 53.8807 10.4362C53.8807 10.6434 54.0489 10.8113 54.2563 10.8113Z" stroke="black" stroke-width="0.25" stroke-miterlimit="10"/>
<path d="M57.1155 10.4362C57.1155 10.2295 56.9486 10.0611 56.7416 10.0611C56.5347 10.0611 56.3661 10.2295 56.3661 10.4362C56.3661 10.643 56.533 10.8113 56.7416 10.8113C56.9503 10.8113 57.1155 10.643 57.1155 10.4362Z" stroke="black" stroke-width="0.25" stroke-miterlimit="10"/>
<path d="M89.8309 97.3537V102H96.1217L96.125 97.3537H89.8309Z" stroke="black" stroke-width="0.25" stroke-miterlimit="10"/>
<path d="M92.0642 100.666C92.5883 101.136 93.3861 101.136 93.9085 100.666V98.6074C93.3861 98.1373 92.5883 98.1373 92.0642 98.6074V100.666Z" stroke="black" stroke-width="0.25" stroke-miterlimit="10"/>
<path d="M0 0V4.64629H6.29239L6.29406 0H0Z" stroke="black" stroke-width="0.25" stroke-miterlimit="10"/>
<path d="M2.23486 3.31258C2.75728 3.78271 3.5551 3.78271 4.07918 3.31258V1.25534C3.5551 0.785208 2.75728 0.785208 2.23486 1.25534V3.31424V3.31258Z" stroke="black" stroke-width="0.25" stroke-miterlimit="10"/>
<path d="M0 97.3537V102H6.29239L6.29406 97.3537H0Z" stroke="black" stroke-width="0.25" stroke-miterlimit="10"/>
<path d="M2.23486 100.666C2.75728 101.136 3.5551 101.136 4.07918 100.666V98.6074C3.5551 98.1373 2.75728 98.1373 2.23486 98.6074V100.666Z" stroke="black" stroke-width="0.25" stroke-miterlimit="10"/>
<path d="M55.615 56.2773C55.615 56.2089 55.5583 56.1539 55.4915 56.1539C55.4248 56.1539 55.3663 56.2089 55.3663 56.2773C55.3663 56.3457 55.4214 56.4007 55.4915 56.4007C55.5616 56.4007 55.615 56.3457 55.615 56.2773Z" stroke="black" stroke-width="0.25" stroke-miterlimit="10"/>
<path d="M54.2563 56.6541C54.4637 56.6541 54.6318 56.4861 54.6318 56.279C54.6318 56.0718 54.4637 55.9039 54.2563 55.9039C54.0489 55.9039 53.8807 56.0718 53.8807 56.279C53.8807 56.4861 54.0489 56.6541 54.2563 56.6541Z" stroke="black" stroke-width="0.25" stroke-miterlimit="10"/>
<path d="M57.1155 56.279C57.1155 56.0722 56.9486 55.9039 56.7416 55.9039C56.5347 55.9039 56.3661 56.0722 56.3661 56.279C56.3661 56.4857 56.533 56.6541 56.7416 56.6541C56.9503 56.6541 57.1155 56.4857 57.1155 56.279Z" stroke="black" stroke-width="0.25" stroke-miterlimit="10"/>
<path d="M55.615 90.08C55.615 90.0117 55.5583 89.9567 55.4915 89.9567C55.4248 89.9567 55.3663 90.0117 55.3663 90.08C55.3663 90.1484 55.4214 90.2034 55.4915 90.2034C55.5616 90.2034 55.615 90.1484 55.615 90.08Z" stroke="black" stroke-width="0.25" stroke-miterlimit="10"/>
<path d="M54.2563 90.4568C54.4637 90.4568 54.6318 90.2888 54.6318 90.0817C54.6318 89.8745 54.4637 89.7066 54.2563 89.7066C54.0489 89.7066 53.8807 89.8745 53.8807 90.0817C53.8807 90.2888 54.0489 90.4568 54.2563 90.4568Z" stroke="black" stroke-width="0.25" stroke-miterlimit="10"/>
<path d="M57.1155 90.0817C57.1155 89.875 56.9486 89.7066 56.7416 89.7066C56.5347 89.7066 56.3661 89.875 56.3661 90.0817C56.3661 90.2884 56.533 90.4568 56.7416 90.4568C56.9503 90.4568 57.1155 90.2884 57.1155 90.0817Z" stroke="black" stroke-width="0.25" stroke-miterlimit="10"/>
<path d="M55.615 93.4543C55.615 93.3859 55.5583 93.3309 55.4915 93.3309C55.4248 93.3309 55.3663 93.3859 55.3663 93.4543C55.3663 93.5227 55.4214 93.5777 55.4915 93.5777C55.5616 93.5777 55.615 93.5227 55.615 93.4543Z" stroke="black" stroke-width="0.25" stroke-miterlimit="10"/>
<path d="M54.2563 93.8311C54.4637 93.8311 54.6318 93.6631 54.6318 93.456C54.6318 93.2488 54.4637 93.0809 54.2563 93.0809C54.0489 93.0809 53.8807 93.2488 53.8807 93.456C53.8807 93.6631 54.0489 93.8311 54.2563 93.8311Z" stroke="black" stroke-width="0.25" stroke-miterlimit="10"/>
<path d="M57.1155 93.456C57.1155 93.2493 56.9486 93.0809 56.7416 93.0809C56.5347 93.0809 56.3661 93.2493 56.3661 93.456C56.3661 93.6627 56.533 93.8311 56.7416 93.8311C56.9503 93.8311 57.1155 93.6627 57.1155 93.456Z" stroke="black" stroke-width="0.25" stroke-miterlimit="10"/>
</g>
<defs>
<clipPath id="clip0_40_8979">
<rect width="96.125" height="102" fill="white"/>
</clipPath>
</defs>
</svg>
