<svg width="240" height="102" viewBox="0 0 240 102" fill="none" xmlns="http://www.w3.org/2000/svg">
<g clip-path="url(#clip0_40_8078)">
<path d="M239.973 13.112V14.42" stroke="#FCFCFC" stroke-width="0.25" stroke-miterlimit="10"/>
<path d="M232.624 95.6867H7.02039V97.4799" stroke="black" stroke-width="0.25" stroke-miterlimit="10"/>
<path d="M7.00983 102H0.0425415V97.3533H7.00983V102Z" stroke="black" stroke-width="0.25" stroke-miterlimit="10"/>
<path d="M2.44812 100.666V98.6086C2.96854 98.1392 3.7598 98.1392 4.28553 98.6086V100.666C3.7598 101.135 2.96854 101.135 2.44812 100.666Z" stroke="black" stroke-width="0.25" stroke-miterlimit="10"/>
<path d="M7.05226 4.6414H0V0H7.05226V4.6414Z" stroke="black" stroke-width="0.25" stroke-miterlimit="10"/>
<path d="M2.43738 1.38188C2.96311 0.912462 3.76499 0.912462 4.29603 1.38188V3.43886C3.76499 3.90827 2.96311 3.90827 2.43738 3.43886V1.38188Z" stroke="black" stroke-width="0.25" stroke-miterlimit="10"/>
<path d="M232.618 101.937H240V97.29H232.618V101.937Z" stroke="black" stroke-width="0.25" stroke-miterlimit="10"/>
<path d="M235.592 98.5454C236.134 98.0759 236.952 98.0759 237.499 98.5454V100.602C236.952 101.072 236.134 101.072 235.592 100.602V98.5454Z" stroke="black" stroke-width="0.25" stroke-miterlimit="10"/>
<path d="M232.629 4.6414H239.973V0H232.629V4.6414Z" stroke="black" stroke-width="0.25" stroke-miterlimit="10"/>
<path d="M235.497 1.38188C236.049 0.912462 236.877 0.912462 237.435 1.38188V3.43886C236.883 3.90827 236.054 3.90827 235.497 3.43886V1.38188Z" stroke="black" stroke-width="0.25" stroke-miterlimit="10"/>
<path d="M232.661 1.66682H11.5395L11.3908 1.65085L11.2474 1.66682H7.05219" stroke="black" stroke-width="0.25" stroke-miterlimit="10"/>
<path d="M232.639 4.27747H7.05219" stroke="black" stroke-width="0.25" stroke-miterlimit="10"/>
<path d="M221.875 1.65084H221.025C220.967 1.65084 220.914 1.6192 220.887 1.56645L220.436 0.712014C220.409 0.65927 220.356 0.627625 220.298 0.627625H216.889C216.825 0.627625 216.772 0.65927 216.745 0.712014L216.299 1.56645C216.273 1.6192 216.22 1.65084 216.161 1.65084H214.456C214.398 1.65084 214.345 1.6192 214.313 1.56645L213.867 0.712014C213.84 0.65927 213.787 0.627625 213.729 0.627625H210.32C210.256 0.627625 210.203 0.65927 210.176 0.712014L209.73 1.56645C209.704 1.6192 209.651 1.65084 209.592 1.65084H207.887C207.824 1.65084 207.771 1.6192 207.744 1.56645L207.298 0.712014C207.271 0.65927 207.218 0.627625 207.16 0.627625H203.745C203.687 0.627625 203.634 0.65927 203.607 0.712014L203.161 1.56645C203.135 1.6192 203.082 1.65084 203.023 1.65084H201.318C201.255 1.65084 201.202 1.6192 201.175 1.56645L200.729 0.712014C200.702 0.65927 200.649 0.627625 200.591 0.627625H197.176C197.118 0.627625 197.065 0.65927 197.038 0.712014L196.592 1.56645C196.566 1.6192 196.513 1.65084 196.454 1.65084H194.744C194.686 1.65084 194.633 1.6192 194.606 1.56645L194.16 0.712014C194.133 0.65927 194.08 0.627625 194.022 0.627625H190.607C190.549 0.627625 190.496 0.65927 190.469 0.712014L190.023 1.56645C189.997 1.6192 189.944 1.65084 189.88 1.65084H188.17C188.111 1.65084 188.058 1.6192 188.026 1.56645L187.58 0.712014C187.554 0.65927 187.501 0.627625 187.442 0.627625H184.028C183.969 0.627625 183.916 0.65927 183.89 0.712014L183.444 1.56645C183.417 1.6192 183.364 1.65084 183.305 1.65084H181.596C181.537 1.65084 181.484 1.6192 181.457 1.56645L181.011 0.712014C180.985 0.65927 180.932 0.627625 180.873 0.627625H177.459C177.4 0.627625 177.347 0.65927 177.321 0.712014L176.875 1.56645C176.848 1.6192 176.795 1.65084 176.731 1.65084H175.027C174.968 1.65084 174.915 1.6192 174.888 1.56645L174.442 0.712014C174.416 0.65927 174.363 0.627625 174.304 0.627625H170.89C170.831 0.627625 170.778 0.65927 170.752 0.712014L170.306 1.56645C170.279 1.6192 170.226 1.65084 170.162 1.65084H168.458C168.399 1.65084 168.346 1.6192 168.319 1.56645L167.873 0.712014C167.847 0.65927 167.794 0.627625 167.73 0.627625H164.321C164.262 0.627625 164.209 0.65927 164.183 0.712014L163.737 1.56645C163.705 1.6192 163.652 1.65084 163.593 1.65084H161.888C161.83 1.65084 161.777 1.6192 161.75 1.56645L161.304 0.712014C161.278 0.65927 161.225 0.627625 161.161 0.627625H157.752C157.693 0.627625 157.64 0.65927 157.614 0.712014L157.162 1.56645C157.136 1.6192 157.083 1.65084 157.024 1.65084H155.319C155.261 1.65084 155.208 1.6192 155.181 1.56645L154.735 0.712014C154.703 0.65927 154.65 0.627625 154.592 0.627625H151.183C151.124 0.627625 151.071 0.65927 151.045 0.712014L150.593 1.56645C150.567 1.6192 150.514 1.65084 150.455 1.65084H148.75C148.692 1.65084 148.639 1.6192 148.612 1.56645L148.161 0.712014C148.134 0.65927 148.081 0.627625 148.023 0.627625H144.614C144.555 0.627625 144.497 0.65927 144.47 0.712014L144.024 1.56645C143.998 1.6192 143.945 1.65084 143.886 1.65084H142.181C142.123 1.65084 142.07 1.6192 142.043 1.56645L141.592 0.712014C141.565 0.65927 141.512 0.627625 141.454 0.627625H138.045C137.981 0.627625 137.928 0.65927 137.901 0.712014L137.455 1.56645C137.429 1.6192 137.376 1.65084 137.317 1.65084H135.612C135.554 1.65084 135.496 1.6192 135.469 1.56645L135.023 0.712014C134.996 0.65927 134.943 0.627625 134.885 0.627625H131.476C131.412 0.627625 131.359 0.65927 131.332 0.712014L130.886 1.56645C130.86 1.6192 130.807 1.65084 130.748 1.65084H129.043C128.98 1.65084 128.927 1.6192 128.9 1.56645L128.454 0.712014C128.427 0.65927 128.374 0.627625 128.316 0.627625H124.901C124.843 0.627625 124.79 0.65927 124.763 0.712014L124.317 1.56645C124.291 1.6192 124.238 1.65084 124.179 1.65084H122.474C122.411 1.65084 122.358 1.6192 122.331 1.56645L121.885 0.712014C121.858 0.65927 121.805 0.627625 121.747 0.627625H118.332C118.274 0.627625 118.221 0.65927 118.194 0.712014L117.748 1.56645C117.722 1.6192 117.669 1.65084 117.61 1.65084H115.9C115.842 1.65084 115.789 1.6192 115.762 1.56645L115.316 0.712014C115.289 0.65927 115.236 0.627625 115.178 0.627625H111.763C111.705 0.627625 111.652 0.65927 111.625 0.712014L111.179 1.56645C111.153 1.6192 111.099 1.65084 111.041 1.65084H109.331C109.273 1.65084 109.22 1.6192 109.193 1.56645L108.747 0.712014C108.72 0.65927 108.667 0.627625 108.609 0.627625H105.194C105.136 0.627625 105.083 0.65927 105.056 0.712014L104.61 1.56645C104.584 1.6192 104.53 1.65084 104.472 1.65084H102.762C102.704 1.65084 102.651 1.6192 102.624 1.56645L102.178 0.712014C102.151 0.65927 102.098 0.627625 102.04 0.627625H98.6253C98.5669 0.627625 98.5138 0.65927 98.4872 0.712014L98.0411 1.56645C98.0146 1.6192 97.9615 1.65084 97.8978 1.65084H96.1931C96.1347 1.65084 96.0816 1.6192 96.055 1.56645L95.609 0.712014C95.5824 0.65927 95.5293 0.627625 95.4709 0.627625H92.0563C91.9979 0.627625 91.9448 0.65927 91.9182 0.712014L91.4721 1.56645C91.4456 1.6192 91.3872 1.65084 91.3288 1.65084H89.6241C89.5657 1.65084 89.5126 1.6192 89.486 1.56645L89.04 0.712014C89.0134 0.65927 88.9603 0.627625 88.8966 0.627625H85.4873C85.4289 0.627625 85.3758 0.65927 85.3492 0.712014L84.9031 1.56645C84.8713 1.6192 84.8182 1.65084 84.7598 1.65084H83.0551C82.9967 1.65084 82.9436 1.6192 82.917 1.56645L82.4709 0.712014C82.4444 0.65927 82.386 0.627625 82.3276 0.627625H78.9183C78.8599 0.627625 78.8068 0.65927 78.7802 0.712014L78.3288 1.56645C78.3023 1.6192 78.2492 1.65084 78.1907 1.65084H76.4861C76.4277 1.65084 76.3746 1.6192 76.348 1.56645L75.9019 0.712014C75.8701 0.65927 75.817 0.627625 75.7586 0.627625H72.3493C72.2908 0.627625 72.2377 0.65927 72.2112 0.712014L71.7598 1.56645C71.7333 1.6192 71.6801 1.65084 71.6217 1.65084H69.9171C69.8587 1.65084 69.8056 1.6192 69.779 1.56645L69.3276 0.712014C69.3011 0.65927 69.248 0.627625 69.1896 0.627625H65.7803C65.7218 0.627625 65.6634 0.65927 65.6369 0.712014L65.1908 1.56645C65.1642 1.6192 65.1111 1.65084 65.0527 1.65084H63.3481C63.2897 1.65084 63.2366 1.6192 63.2047 1.56645L62.7586 0.712014C62.7321 0.65927 62.679 0.627625 62.6205 0.627625H59.2112C59.1475 0.627625 59.0944 0.65927 59.0679 0.712014L58.6218 1.56645C58.5952 1.6192 58.5421 1.65084 58.4837 1.65084H56.7791C56.7207 1.65084 56.6622 1.6192 56.6357 1.56645L56.1896 0.712014C56.1631 0.65927 56.11 0.627625 56.0515 0.627625H52.6422C52.5785 0.627625 52.5254 0.65927 52.4989 0.712014L52.0528 1.56645C52.0262 1.6192 51.9731 1.65084 51.9147 1.65084H50.2101C50.1463 1.65084 50.0932 1.6192 50.0667 1.56645L49.6206 0.712014C49.5941 0.65927 49.5409 0.627625 49.4825 0.627625H46.0679C46.0095 0.627625 45.9564 0.65927 45.9299 0.712014L45.4838 1.56645C45.4572 1.6192 45.4041 1.65084 45.3457 1.65084H43.6357C43.5773 1.65084 43.5242 1.6192 43.4977 1.56645L43.0516 0.712014C43.025 0.65927 42.9719 0.627625 42.9135 0.627625H39.4989C39.4405 0.627625 39.3874 0.65927 39.3608 0.712014L38.9148 1.56645C38.8882 1.6192 38.8351 1.65084 38.7767 1.65084H37.0667C37.0083 1.65084 36.9552 1.6192 36.9287 1.56645L36.4826 0.712014C36.456 0.65927 36.4029 0.627625 36.3445 0.627625H32.9299C32.8715 0.627625 32.8184 0.65927 32.7918 0.712014L32.3458 1.56645C32.3192 1.6192 32.2661 1.65084 32.2077 1.65084H30.4977C30.4393 1.65084 30.3862 1.6192 30.3597 1.56645L29.9136 0.712014C29.887 0.65927 29.8339 0.627625 29.7755 0.627625H26.3609C26.3025 0.627625 26.2494 0.65927 26.2228 0.712014L25.7768 1.56645C25.7502 1.6192 25.6971 1.65084 25.6334 1.65084H23.9287C23.8703 1.65084 23.8172 1.6192 23.7907 1.56645L23.3446 0.712014C23.318 0.65927 23.2649 0.627625 23.2065 0.627625H19.7919C19.7335 0.627625 19.6804 0.65927 19.6538 0.712014L19.2077 1.56645C19.1812 1.6192 19.1281 1.65084 19.0644 1.65084H17.3597C17.3013 1.65084 17.2482 1.6192 17.2216 1.56645L16.7756 0.712014C16.749 0.65927 16.6959 0.627625 16.6322 0.627625H13.2229C13.1645 0.627625 13.1114 0.65927 13.0848 0.712014L12.6387 1.56645C12.6122 1.6192 12.5538 1.65084 12.4954 1.65084H11.6457" stroke="black" stroke-width="0.25" stroke-miterlimit="10"/>
<path d="M9.15522 95.6867L9.05963 4.27747" stroke="black" stroke-width="0.25" stroke-miterlimit="10"/>
<path d="M239.814 4.64139H232.624V97.29H239.814V4.64139Z" stroke="#090A06" stroke-width="0.25" stroke-miterlimit="10"/>
<path d="M0.276123 4.64139V97.3533" stroke="#07070A" stroke-width="0.25" stroke-miterlimit="10"/>
<path d="M7.00989 101.589H232.602" stroke="black" stroke-width="0.25" stroke-miterlimit="10"/>
<path d="M232.624 95.6867V96.6888H7.02039" stroke="black" stroke-width="0.25" stroke-miterlimit="10"/>
<path d="M1.94896 8.55499H0.371765V11.7565H1.94896V8.55499Z" fill="white"/>
<path d="M1.94896 8.55499H0.371765V11.7565H1.94896V8.55499Z" stroke="black" stroke-width="0.25" stroke-miterlimit="10"/>
<path d="M1.1629 11.7565V8.55499" stroke="black" stroke-width="0.25" stroke-miterlimit="10"/>
<path d="M1.90636 35.8232H0.329163V39.0247H1.90636V35.8232Z" fill="white"/>
<path d="M1.90636 35.8232H0.329163V39.0247H1.90636V35.8232Z" stroke="black" stroke-width="0.25" stroke-miterlimit="10"/>
<path d="M1.12054 35.8232L1.11523 39.0247" stroke="black" stroke-width="0.25" stroke-miterlimit="10"/>
<path d="M1.89586 63.0966H0.318665V66.2982H1.89586V63.0966Z" fill="white"/>
<path d="M1.89586 63.0966H0.318665V66.2982H1.89586V63.0966Z" stroke="black" stroke-width="0.25" stroke-miterlimit="10"/>
<path d="M1.10474 63.0966V66.2982" stroke="black" stroke-width="0.25" stroke-miterlimit="10"/>
<path d="M1.85869 90.3649H0.281494V93.5664H1.85869V90.3649Z" fill="white"/>
<path d="M1.85869 90.3649H0.281494V93.5664H1.85869V90.3649Z" stroke="black" stroke-width="0.25" stroke-miterlimit="10"/>
<path d="M1.06757 90.3649V93.5664" stroke="black" stroke-width="0.25" stroke-miterlimit="10"/>
<path d="M21.3427 95.6392V4.27747" stroke="black" stroke-width="0.25" stroke-miterlimit="10"/>
<path d="M24.1944 95.6392V4.27747" stroke="black" stroke-width="0.25" stroke-miterlimit="10"/>
<path d="M32.3352 95.6392V4.27747" stroke="black" stroke-width="0.25" stroke-miterlimit="10"/>
<path d="M35.1869 95.6392V4.27747" stroke="black" stroke-width="0.25" stroke-miterlimit="10"/>
<path d="M43.3279 95.6392V4.27747" stroke="black" stroke-width="0.25" stroke-miterlimit="10"/>
<path d="M46.1796 95.6392V4.27747" stroke="black" stroke-width="0.25" stroke-miterlimit="10"/>
<path d="M54.3204 95.6392V4.27747" stroke="black" stroke-width="0.25" stroke-miterlimit="10"/>
<path d="M57.1721 95.6392V4.27747" stroke="black" stroke-width="0.25" stroke-miterlimit="10"/>
<path d="M65.3131 95.6392V4.27747" stroke="black" stroke-width="0.25" stroke-miterlimit="10"/>
<path d="M68.1648 95.6392V4.27747" stroke="black" stroke-width="0.25" stroke-miterlimit="10"/>
<path d="M76.3057 95.6392V4.27747" stroke="black" stroke-width="0.25" stroke-miterlimit="10"/>
<path d="M79.1573 95.6392V4.27747" stroke="black" stroke-width="0.25" stroke-miterlimit="10"/>
<path d="M87.2983 95.6392V4.27747" stroke="black" stroke-width="0.25" stroke-miterlimit="10"/>
<path d="M90.15 95.6392V4.27747" stroke="black" stroke-width="0.25" stroke-miterlimit="10"/>
<path d="M98.2908 95.6392V4.27747" stroke="black" stroke-width="0.25" stroke-miterlimit="10"/>
<path d="M101.143 95.6392V4.27747" stroke="black" stroke-width="0.25" stroke-miterlimit="10"/>
<path d="M109.284 95.6392V4.27747" stroke="black" stroke-width="0.25" stroke-miterlimit="10"/>
<path d="M112.135 95.6392V4.27747" stroke="black" stroke-width="0.25" stroke-miterlimit="10"/>
<path d="M120.276 95.6392V4.27747" stroke="black" stroke-width="0.25" stroke-miterlimit="10"/>
<path d="M123.128 95.6392V4.27747" stroke="black" stroke-width="0.25" stroke-miterlimit="10"/>
<path d="M131.269 95.6392V4.27747" stroke="black" stroke-width="0.25" stroke-miterlimit="10"/>
<path d="M134.12 95.6392V4.27747" stroke="black" stroke-width="0.25" stroke-miterlimit="10"/>
<path d="M142.261 95.6392V4.27747" stroke="black" stroke-width="0.25" stroke-miterlimit="10"/>
<path d="M145.113 95.6392V4.27747" stroke="black" stroke-width="0.25" stroke-miterlimit="10"/>
<path d="M153.254 95.6392V4.27747" stroke="black" stroke-width="0.25" stroke-miterlimit="10"/>
<path d="M156.106 95.6392V4.27747" stroke="black" stroke-width="0.25" stroke-miterlimit="10"/>
<path d="M164.246 95.6392V4.27747" stroke="black" stroke-width="0.25" stroke-miterlimit="10"/>
<path d="M167.098 95.6392V4.27747" stroke="black" stroke-width="0.25" stroke-miterlimit="10"/>
<path d="M175.239 95.6392V4.27747" stroke="black" stroke-width="0.25" stroke-miterlimit="10"/>
<path d="M178.091 95.6392V4.27747" stroke="black" stroke-width="0.25" stroke-miterlimit="10"/>
<path d="M186.232 95.6392V4.27747" stroke="black" stroke-width="0.25" stroke-miterlimit="10"/>
<path d="M189.083 95.6392V4.27747" stroke="black" stroke-width="0.25" stroke-miterlimit="10"/>
<path d="M197.224 95.6392V4.27747" stroke="black" stroke-width="0.25" stroke-miterlimit="10"/>
<path d="M200.076 95.6392V4.27747" stroke="black" stroke-width="0.25" stroke-miterlimit="10"/>
<path d="M208.217 95.6392V4.27747" stroke="black" stroke-width="0.25" stroke-miterlimit="10"/>
<path d="M211.069 95.6392V4.27747" stroke="black" stroke-width="0.25" stroke-miterlimit="10"/>
<path d="M219.209 95.6392V4.27747" stroke="black" stroke-width="0.25" stroke-miterlimit="10"/>
<path d="M222.061 95.6392V4.27747" stroke="black" stroke-width="0.25" stroke-miterlimit="10"/>
<path d="M230.202 95.6392V4.27747" stroke="black" stroke-width="0.25" stroke-miterlimit="10"/>
<path d="M13.2017 95.6392V4.27747" stroke="black" stroke-width="0.25" stroke-miterlimit="10"/>
<path d="M10.5148 95.6392V4.27747" stroke="black" stroke-width="0.25" stroke-miterlimit="10"/>
<path d="M18.613 4.27747H15.8463V95.6919H18.613V4.27747Z" fill="#E5E5E5"/>
<path d="M18.613 4.27747H15.8463V95.6919H18.613V4.27747Z" stroke="black" stroke-width="0.25" stroke-miterlimit="10"/>
<path d="M29.6057 4.27747H26.8389V95.6919H29.6057V4.27747Z" fill="#E5E5E5"/>
<path d="M29.6057 4.27747H26.8389V95.6919H29.6057V4.27747Z" stroke="black" stroke-width="0.25" stroke-miterlimit="10"/>
<path d="M40.5982 4.27747H37.8314V95.6919H40.5982V4.27747Z" fill="#E5E5E5"/>
<path d="M40.5982 4.27747H37.8314V95.6919H40.5982V4.27747Z" stroke="black" stroke-width="0.25" stroke-miterlimit="10"/>
<path d="M51.5909 4.27747H48.8242V95.6919H51.5909V4.27747Z" fill="#E5E5E5"/>
<path d="M51.5909 4.27747H48.8242V95.6919H51.5909V4.27747Z" stroke="black" stroke-width="0.25" stroke-miterlimit="10"/>
<path d="M62.5834 4.27747H59.8167V95.6919H62.5834V4.27747Z" fill="#E5E5E5"/>
<path d="M62.5834 4.27747H59.8167V95.6919H62.5834V4.27747Z" stroke="black" stroke-width="0.25" stroke-miterlimit="10"/>
<path d="M73.5761 4.27747H70.8094V95.6919H73.5761V4.27747Z" fill="#E5E5E5"/>
<path d="M73.5761 4.27747H70.8094V95.6919H73.5761V4.27747Z" stroke="black" stroke-width="0.25" stroke-miterlimit="10"/>
<path d="M84.5686 4.27747H81.8019V95.6919H84.5686V4.27747Z" fill="#E5E5E5"/>
<path d="M84.5686 4.27747H81.8019V95.6919H84.5686V4.27747Z" stroke="black" stroke-width="0.25" stroke-miterlimit="10"/>
<path d="M95.5613 4.27747H92.7946V95.6919H95.5613V4.27747Z" fill="#E5E5E5"/>
<path d="M95.5613 4.27747H92.7946V95.6919H95.5613V4.27747Z" stroke="black" stroke-width="0.25" stroke-miterlimit="10"/>
<path d="M106.554 4.27747H103.787V95.6919H106.554V4.27747Z" fill="#E5E5E5"/>
<path d="M106.554 4.27747H103.787V95.6919H106.554V4.27747Z" stroke="black" stroke-width="0.25" stroke-miterlimit="10"/>
<path d="M117.546 4.27747H114.737V95.6919H117.546V4.27747Z" fill="#E5E5E5"/>
<path d="M117.546 4.27747H114.737V95.6919H117.546V4.27747Z" stroke="black" stroke-width="0.25" stroke-miterlimit="10"/>
<path d="M128.539 4.27747H125.73V95.6919H128.539V4.27747Z" fill="#E5E5E5"/>
<path d="M128.539 4.27747H125.73V95.6919H128.539V4.27747Z" stroke="black" stroke-width="0.25" stroke-miterlimit="10"/>
<path d="M139.532 4.27747H136.722V95.6919H139.532V4.27747Z" fill="#E5E5E5"/>
<path d="M139.532 4.27747H136.722V95.6919H139.532V4.27747Z" stroke="black" stroke-width="0.25" stroke-miterlimit="10"/>
<path d="M150.524 4.27747H147.758V95.6919H150.524V4.27747Z" fill="#E5E5E5"/>
<path d="M150.524 4.27747H147.758V95.6919H150.524V4.27747Z" stroke="black" stroke-width="0.25" stroke-miterlimit="10"/>
<path d="M161.517 4.27747H158.708V95.6919H161.517V4.27747Z" fill="#E5E5E5"/>
<path d="M161.517 4.27747H158.708V95.6919H161.517V4.27747Z" stroke="black" stroke-width="0.25" stroke-miterlimit="10"/>
<path d="M172.509 4.27747H169.7V95.6919H172.509V4.27747Z" fill="#E5E5E5"/>
<path d="M172.509 4.27747H169.7V95.6919H172.509V4.27747Z" stroke="black" stroke-width="0.25" stroke-miterlimit="10"/>
<path d="M183.502 4.27747H180.693V95.6919H183.502V4.27747Z" fill="#E5E5E5"/>
<path d="M183.502 4.27747H180.693V95.6919H183.502V4.27747Z" stroke="black" stroke-width="0.25" stroke-miterlimit="10"/>
<path d="M194.495 4.27747H191.728V95.6919H194.495V4.27747Z" fill="#E5E5E5"/>
<path d="M194.495 4.27747H191.728V95.6919H194.495V4.27747Z" stroke="black" stroke-width="0.25" stroke-miterlimit="10"/>
<path d="M205.53 4.27747H202.721V95.6919H205.53V4.27747Z" fill="#E5E5E5"/>
<path d="M205.53 4.27747H202.721V95.6919H205.53V4.27747Z" stroke="black" stroke-width="0.25" stroke-miterlimit="10"/>
<path d="M216.522 4.27747H213.713V95.6919H216.522V4.27747Z" fill="#E5E5E5"/>
<path d="M216.522 4.27747H213.713V95.6919H216.522V4.27747Z" stroke="black" stroke-width="0.25" stroke-miterlimit="10"/>
<path d="M227.515 4.27747H224.706V95.6919H227.515V4.27747Z" fill="#E5E5E5"/>
<path d="M227.515 4.27747H224.706V95.6919H227.515V4.27747Z" stroke="black" stroke-width="0.25" stroke-miterlimit="10"/>
<path d="M35.187 6.88828H32.4893" stroke="black" stroke-width="0.25" stroke-miterlimit="10"/>
<path d="M35.187 13.8662H32.4893" stroke="black" stroke-width="0.25" stroke-miterlimit="10"/>
<path d="M35.1869 6.75638V13.8662" stroke="black" stroke-width="0.25" stroke-miterlimit="10"/>
<path d="M32.4893 6.75638V13.8662" stroke="black" stroke-width="0.25" stroke-miterlimit="10"/>
<path d="M34.7038 7.66885H32.9726C32.8398 7.66885 32.7336 7.79016 32.7336 7.93784V13.0487C32.7336 13.1963 32.8398 13.3124 32.9726 13.3124H34.7038C34.8366 13.3124 34.9428 13.1911 34.9428 13.0487V7.93784C34.9428 7.79016 34.8366 7.66885 34.7038 7.66885Z" stroke="black" stroke-width="0.25" stroke-miterlimit="10"/>
<path d="M34.9428 11.6984H32.7336" stroke="black" stroke-width="0.25" stroke-miterlimit="10"/>
<path d="M34.6134 7.24165C34.6134 7.32076 34.6665 7.38406 34.7409 7.38406C34.8152 7.38406 34.8683 7.32076 34.8683 7.24165C34.8683 7.16253 34.8099 7.09924 34.7409 7.09924C34.6718 7.09924 34.6134 7.16253 34.6134 7.24165Z" stroke="black" stroke-width="0.25" stroke-miterlimit="10"/>
<path d="M33.7161 13.5867C33.7161 13.6658 33.7745 13.7291 33.8435 13.7291C33.9126 13.7291 33.971 13.6658 33.971 13.5867C33.971 13.5075 33.9126 13.4495 33.8435 13.4495C33.7745 13.4495 33.7161 13.5128 33.7161 13.5867Z" stroke="black" stroke-width="0.25" stroke-miterlimit="10"/>
<path d="M32.808 7.24165C32.808 7.32076 32.8664 7.38406 32.9354 7.38406C33.0045 7.38406 33.0629 7.32076 33.0629 7.24165C33.0629 7.16253 33.0098 7.09924 32.9354 7.09924C32.8611 7.09924 32.808 7.16253 32.808 7.24165Z" stroke="black" stroke-width="0.25" stroke-miterlimit="10"/>
<path d="M211.068 6.5929H208.371" stroke="black" stroke-width="0.25" stroke-miterlimit="10"/>
<path d="M211.068 13.5708H208.376" stroke="black" stroke-width="0.25" stroke-miterlimit="10"/>
<path d="M211.069 6.46103V13.5708" stroke="black" stroke-width="0.25" stroke-miterlimit="10"/>
<path d="M208.376 6.46103V13.5708" stroke="black" stroke-width="0.25" stroke-miterlimit="10"/>
<path d="M210.585 7.37354H208.854C208.721 7.37354 208.615 7.49484 208.615 7.64253V12.7533C208.615 12.901 208.721 13.0223 208.854 13.0223H210.585C210.718 13.0223 210.824 12.901 210.824 12.7533V7.64253C210.824 7.49484 210.718 7.37354 210.585 7.37354Z" stroke="black" stroke-width="0.25" stroke-miterlimit="10"/>
<path d="M210.824 11.4031H208.615" stroke="black" stroke-width="0.25" stroke-miterlimit="10"/>
<path d="M210.495 6.94628C210.495 7.02539 210.554 7.08868 210.617 7.08868C210.681 7.08868 210.745 7.02539 210.745 6.94628C210.745 6.86716 210.686 6.80914 210.617 6.80914C210.548 6.80914 210.495 6.87243 210.495 6.94628Z" stroke="black" stroke-width="0.25" stroke-miterlimit="10"/>
<path d="M209.597 13.2913C209.597 13.3704 209.656 13.4337 209.725 13.4337C209.794 13.4337 209.847 13.3704 209.847 13.2913C209.847 13.2122 209.794 13.1541 209.725 13.1541C209.656 13.1541 209.597 13.2174 209.597 13.2913Z" stroke="black" stroke-width="0.25" stroke-miterlimit="10"/>
<path d="M208.689 6.94628C208.689 7.02539 208.748 7.08868 208.817 7.08868C208.886 7.08868 208.939 7.02539 208.939 6.94628C208.939 6.86716 208.881 6.80914 208.817 6.80914C208.753 6.80914 208.689 6.87243 208.689 6.94628Z" stroke="black" stroke-width="0.25" stroke-miterlimit="10"/>
<path d="M167.098 6.5929H164.4" stroke="black" stroke-width="0.25" stroke-miterlimit="10"/>
<path d="M167.098 13.5708H164.4" stroke="black" stroke-width="0.25" stroke-miterlimit="10"/>
<path d="M167.098 6.46103V13.5708" stroke="black" stroke-width="0.25" stroke-miterlimit="10"/>
<path d="M164.4 6.46103V13.5708" stroke="black" stroke-width="0.25" stroke-miterlimit="10"/>
<path d="M166.615 7.37354H164.884C164.751 7.37354 164.645 7.49484 164.645 7.64253V12.7533C164.645 12.901 164.751 13.0223 164.884 13.0223H166.615C166.748 13.0223 166.854 12.901 166.854 12.7533V7.64253C166.854 7.49484 166.748 7.37354 166.615 7.37354Z" stroke="black" stroke-width="0.25" stroke-miterlimit="10"/>
<path d="M166.854 11.4031H164.645" stroke="black" stroke-width="0.25" stroke-miterlimit="10"/>
<path d="M166.525 6.94628C166.525 7.02539 166.583 7.08868 166.647 7.08868C166.711 7.08868 166.774 7.02539 166.774 6.94628C166.774 6.86716 166.716 6.80914 166.647 6.80914C166.578 6.80914 166.525 6.87243 166.525 6.94628Z" stroke="black" stroke-width="0.25" stroke-miterlimit="10"/>
<path d="M165.627 13.2913C165.627 13.3704 165.685 13.4337 165.749 13.4337C165.813 13.4337 165.877 13.3704 165.877 13.2913C165.877 13.2122 165.818 13.1541 165.749 13.1541C165.68 13.1541 165.627 13.2174 165.627 13.2913Z" stroke="black" stroke-width="0.25" stroke-miterlimit="10"/>
<path d="M164.719 6.94628C164.719 7.02539 164.778 7.08868 164.847 7.08868C164.916 7.08868 164.969 7.02539 164.969 6.94628C164.969 6.86716 164.91 6.80914 164.847 6.80914C164.783 6.80914 164.719 6.87243 164.719 6.94628Z" stroke="black" stroke-width="0.25" stroke-miterlimit="10"/>
<path d="M79.1574 6.5929H76.4597" stroke="black" stroke-width="0.25" stroke-miterlimit="10"/>
<path d="M79.1575 13.5708H76.4651" stroke="black" stroke-width="0.25" stroke-miterlimit="10"/>
<path d="M79.1573 6.46103V13.5708" stroke="black" stroke-width="0.25" stroke-miterlimit="10"/>
<path d="M76.4651 6.46103V13.5708" stroke="black" stroke-width="0.25" stroke-miterlimit="10"/>
<path d="M78.6742 7.37354H76.943C76.8103 7.37354 76.704 7.49484 76.704 7.64253V12.7533C76.704 12.901 76.8103 13.0223 76.943 13.0223H78.6742C78.807 13.0223 78.9132 12.901 78.9132 12.7533V7.64253C78.9132 7.49484 78.807 7.37354 78.6742 7.37354Z" stroke="black" stroke-width="0.25" stroke-miterlimit="10"/>
<path d="M78.9132 11.4031H76.704" stroke="black" stroke-width="0.25" stroke-miterlimit="10"/>
<path d="M78.5838 6.94628C78.5838 7.02539 78.6369 7.08868 78.7059 7.08868C78.775 7.08868 78.8334 7.02539 78.8334 6.94628C78.8334 6.86716 78.775 6.80914 78.7059 6.80914C78.6369 6.80914 78.5838 6.87243 78.5838 6.94628Z" stroke="black" stroke-width="0.25" stroke-miterlimit="10"/>
<path d="M77.6865 13.2913C77.6865 13.3704 77.7396 13.4337 77.8139 13.4337C77.8883 13.4337 77.9414 13.3704 77.9414 13.2913C77.9414 13.2122 77.8883 13.1541 77.8139 13.1541C77.7396 13.1541 77.6865 13.2174 77.6865 13.2913Z" stroke="black" stroke-width="0.25" stroke-miterlimit="10"/>
<path d="M76.7784 6.94628C76.7784 7.02539 76.8315 7.08868 76.9058 7.08868C76.9802 7.08868 77.0333 7.02539 77.0333 6.94628C77.0333 6.86716 76.9749 6.80914 76.9058 6.80914C76.8368 6.80914 76.7784 6.87243 76.7784 6.94628Z" stroke="black" stroke-width="0.25" stroke-miterlimit="10"/>
<path d="M167.263 101.589V97.8122H152.999V101.589" stroke="black" stroke-width="0.25" stroke-miterlimit="10"/>
<mask id="path-149-inside-1_40_8078" fill="white">
<path d="M71.8713 101.589V97.8439H86.1351V101.589"/>
</mask>
<path d="M71.8713 97.8439V97.5939H71.6213V97.8439H71.8713ZM86.1351 97.8439H86.3851V97.5939H86.1351V97.8439ZM72.1213 101.589V97.8439H71.6213V101.589H72.1213ZM71.8713 98.0939H86.1351V97.5939H71.8713V98.0939ZM85.8851 97.8439V101.589H86.3851V97.8439H85.8851Z" fill="black" mask="url(#path-149-inside-1_40_8078)"/>
</g>
<defs>
<clipPath id="clip0_40_8078">
<rect width="240" height="102" fill="white"/>
</clipPath>
</defs>
</svg>
