<svg width="240" height="102" viewBox="0 0 240 102" fill="none" xmlns="http://www.w3.org/2000/svg">
<g clip-path="url(#clip0_422_2)">
<path d="M239.973 13.1119V14.42" stroke="#FCFCFC" stroke-width="0.25" stroke-miterlimit="10"/>
<path d="M232.624 95.6866H7.02039V97.4799" stroke="black" stroke-width="0.25" stroke-miterlimit="10"/>
<path d="M7.00983 102H0.0425415V97.3533H7.00983V102Z" stroke="black" stroke-width="0.25" stroke-miterlimit="10"/>
<path d="M2.44812 100.666V98.6086C2.96854 98.1392 3.7598 98.1392 4.28553 98.6086V100.666C3.7598 101.135 2.96854 101.135 2.44812 100.666Z" stroke="black" stroke-width="0.25" stroke-miterlimit="10"/>
<path d="M7.05226 4.6414H0V0H7.05226V4.6414Z" stroke="black" stroke-width="0.25" stroke-miterlimit="10"/>
<path d="M2.43738 1.38185C2.96311 0.912432 3.76499 0.912432 4.29603 1.38185V3.43883C3.76499 3.90824 2.96311 3.90824 2.43738 3.43883V1.38185Z" stroke="black" stroke-width="0.25" stroke-miterlimit="10"/>
<path d="M232.618 101.937H240V97.29H232.618V101.937Z" stroke="black" stroke-width="0.25" stroke-miterlimit="10"/>
<path d="M235.592 98.5454C236.134 98.0759 236.952 98.0759 237.499 98.5454V100.602C236.952 101.072 236.134 101.072 235.592 100.602V98.5454Z" stroke="black" stroke-width="0.25" stroke-miterlimit="10"/>
<path d="M232.629 4.6414H239.973V0H232.629V4.6414Z" stroke="black" stroke-width="0.25" stroke-miterlimit="10"/>
<path d="M235.497 1.38185C236.049 0.912432 236.877 0.912432 237.435 1.38185V3.43883C236.883 3.90824 236.054 3.90824 235.497 3.43883V1.38185Z" stroke="black" stroke-width="0.25" stroke-miterlimit="10"/>
<path d="M232.661 2.03922H11.5395L11.3908 2.02325L11.2474 2.03922H7.05219" stroke="black" stroke-width="0.25" stroke-miterlimit="10"/>
<path d="M232.639 4.27747H7.05219" stroke="black" stroke-width="0.25" stroke-miterlimit="10"/>
<path d="M9.15522 95.6867L9.05963 4.27747" stroke="black" stroke-width="0.25" stroke-miterlimit="10"/>
<path d="M239.814 4.64142H232.624V97.2901H239.814V4.64142Z" stroke="#090A06" stroke-width="0.25" stroke-miterlimit="10"/>
<path d="M0.276123 4.64142V97.3534" stroke="#07070A" stroke-width="0.25" stroke-miterlimit="10"/>
<path d="M7.00989 101.589H232.602" stroke="black" stroke-width="0.25" stroke-miterlimit="10"/>
<path d="M232.624 95.6866V96.6888H7.02039" stroke="black" stroke-width="0.25" stroke-miterlimit="10"/>
<path d="M1.94896 8.55499H0.371765V11.7565H1.94896V8.55499Z" fill="white"/>
<path d="M1.94896 8.55499H0.371765V11.7565H1.94896V8.55499Z" stroke="black" stroke-width="0.25" stroke-miterlimit="10"/>
<path d="M1.1629 11.7565V8.55499" stroke="black" stroke-width="0.25" stroke-miterlimit="10"/>
<path d="M1.90636 35.8231H0.329163V39.0246H1.90636V35.8231Z" fill="white"/>
<path d="M1.90636 35.8231H0.329163V39.0246H1.90636V35.8231Z" stroke="black" stroke-width="0.25" stroke-miterlimit="10"/>
<path d="M1.12054 35.8231L1.11523 39.0246" stroke="black" stroke-width="0.25" stroke-miterlimit="10"/>
<path d="M1.89586 63.0967H0.318665V66.2982H1.89586V63.0967Z" fill="white"/>
<path d="M1.89586 63.0967H0.318665V66.2982H1.89586V63.0967Z" stroke="black" stroke-width="0.25" stroke-miterlimit="10"/>
<path d="M1.10474 63.0967V66.2982" stroke="black" stroke-width="0.25" stroke-miterlimit="10"/>
<path d="M1.85869 90.3649H0.281494V93.5664H1.85869V90.3649Z" fill="white"/>
<path d="M1.85869 90.3649H0.281494V93.5664H1.85869V90.3649Z" stroke="black" stroke-width="0.25" stroke-miterlimit="10"/>
<path d="M1.06757 90.3649V93.5664" stroke="black" stroke-width="0.25" stroke-miterlimit="10"/>
<path d="M21.3427 95.6392V4.27747" stroke="black" stroke-width="0.25" stroke-miterlimit="10"/>
<path d="M24.1944 95.6392V4.27747" stroke="black" stroke-width="0.25" stroke-miterlimit="10"/>
<path d="M32.3352 95.6392V4.27747" stroke="black" stroke-width="0.25" stroke-miterlimit="10"/>
<path d="M35.1869 95.6392V4.27747" stroke="black" stroke-width="0.25" stroke-miterlimit="10"/>
<path d="M43.3279 95.6392V4.27747" stroke="black" stroke-width="0.25" stroke-miterlimit="10"/>
<path d="M46.1796 95.6392V4.27747" stroke="black" stroke-width="0.25" stroke-miterlimit="10"/>
<path d="M54.3204 95.6392V4.27747" stroke="black" stroke-width="0.25" stroke-miterlimit="10"/>
<path d="M57.1721 95.6392V4.27747" stroke="black" stroke-width="0.25" stroke-miterlimit="10"/>
<path d="M65.3131 95.6392V4.27747" stroke="black" stroke-width="0.25" stroke-miterlimit="10"/>
<path d="M68.1648 95.6392V4.27747" stroke="black" stroke-width="0.25" stroke-miterlimit="10"/>
<path d="M76.3057 95.6392V4.27747" stroke="black" stroke-width="0.25" stroke-miterlimit="10"/>
<path d="M79.1573 95.6392V4.27747" stroke="black" stroke-width="0.25" stroke-miterlimit="10"/>
<path d="M87.2983 95.6392V4.27747" stroke="black" stroke-width="0.25" stroke-miterlimit="10"/>
<path d="M90.15 95.6392V4.27747" stroke="black" stroke-width="0.25" stroke-miterlimit="10"/>
<path d="M98.2908 95.6392V4.27747" stroke="black" stroke-width="0.25" stroke-miterlimit="10"/>
<path d="M101.143 95.6392V4.27747" stroke="black" stroke-width="0.25" stroke-miterlimit="10"/>
<path d="M109.284 95.6392V4.27747" stroke="black" stroke-width="0.25" stroke-miterlimit="10"/>
<path d="M112.135 95.6392V4.27747" stroke="black" stroke-width="0.25" stroke-miterlimit="10"/>
<path d="M120.276 95.6392V4.27747" stroke="black" stroke-width="0.25" stroke-miterlimit="10"/>
<path d="M123.128 95.6392V4.27747" stroke="black" stroke-width="0.25" stroke-miterlimit="10"/>
<path d="M131.269 95.6392V4.27747" stroke="black" stroke-width="0.25" stroke-miterlimit="10"/>
<path d="M134.12 95.6392V4.27747" stroke="black" stroke-width="0.25" stroke-miterlimit="10"/>
<path d="M142.261 95.6392V4.27747" stroke="black" stroke-width="0.25" stroke-miterlimit="10"/>
<path d="M145.113 95.6392V4.27747" stroke="black" stroke-width="0.25" stroke-miterlimit="10"/>
<path d="M153.254 95.6392V4.27747" stroke="black" stroke-width="0.25" stroke-miterlimit="10"/>
<path d="M156.106 95.6392V4.27747" stroke="black" stroke-width="0.25" stroke-miterlimit="10"/>
<path d="M164.246 95.6392V4.27747" stroke="black" stroke-width="0.25" stroke-miterlimit="10"/>
<path d="M167.098 95.6392V4.27747" stroke="black" stroke-width="0.25" stroke-miterlimit="10"/>
<path d="M175.239 95.6392V4.27747" stroke="black" stroke-width="0.25" stroke-miterlimit="10"/>
<path d="M178.091 95.6392V4.27747" stroke="black" stroke-width="0.25" stroke-miterlimit="10"/>
<path d="M186.232 95.6392V4.27747" stroke="black" stroke-width="0.25" stroke-miterlimit="10"/>
<path d="M189.083 95.6392V4.27747" stroke="black" stroke-width="0.25" stroke-miterlimit="10"/>
<path d="M197.224 95.6392V4.27747" stroke="black" stroke-width="0.25" stroke-miterlimit="10"/>
<path d="M200.076 95.6392V4.27747" stroke="black" stroke-width="0.25" stroke-miterlimit="10"/>
<path d="M208.217 95.6392V4.27747" stroke="black" stroke-width="0.25" stroke-miterlimit="10"/>
<path d="M211.069 95.6392V4.27747" stroke="black" stroke-width="0.25" stroke-miterlimit="10"/>
<path d="M219.209 95.6392V4.27747" stroke="black" stroke-width="0.25" stroke-miterlimit="10"/>
<path d="M222.061 95.6392V4.27747" stroke="black" stroke-width="0.25" stroke-miterlimit="10"/>
<path d="M230.202 95.6392V4.27747" stroke="black" stroke-width="0.25" stroke-miterlimit="10"/>
<path d="M13.2017 95.6392V4.27747" stroke="black" stroke-width="0.25" stroke-miterlimit="10"/>
<path d="M10.5148 95.6392V4.27747" stroke="black" stroke-width="0.25" stroke-miterlimit="10"/>
<path d="M18.613 4.27747H15.8463V95.6919H18.613V4.27747Z" fill="#E5E5E5"/>
<path d="M18.613 4.27747H15.8463V95.6919H18.613V4.27747Z" stroke="black" stroke-width="0.25" stroke-miterlimit="10"/>
<path d="M29.6057 4.27747H26.8389V95.6919H29.6057V4.27747Z" fill="#E5E5E5"/>
<path d="M29.6057 4.27747H26.8389V95.6919H29.6057V4.27747Z" stroke="black" stroke-width="0.25" stroke-miterlimit="10"/>
<path d="M40.5982 4.27747H37.8314V95.6919H40.5982V4.27747Z" fill="#E5E5E5"/>
<path d="M40.5982 4.27747H37.8314V95.6919H40.5982V4.27747Z" stroke="black" stroke-width="0.25" stroke-miterlimit="10"/>
<path d="M51.5909 4.27747H48.8242V95.6919H51.5909V4.27747Z" fill="#E5E5E5"/>
<path d="M51.5909 4.27747H48.8242V95.6919H51.5909V4.27747Z" stroke="black" stroke-width="0.25" stroke-miterlimit="10"/>
<path d="M62.5834 4.27747H59.8167V95.6919H62.5834V4.27747Z" fill="#E5E5E5"/>
<path d="M62.5834 4.27747H59.8167V95.6919H62.5834V4.27747Z" stroke="black" stroke-width="0.25" stroke-miterlimit="10"/>
<path d="M73.5761 4.27747H70.8094V95.6919H73.5761V4.27747Z" fill="#E5E5E5"/>
<path d="M73.5761 4.27747H70.8094V95.6919H73.5761V4.27747Z" stroke="black" stroke-width="0.25" stroke-miterlimit="10"/>
<path d="M84.5686 4.27747H81.8019V95.6919H84.5686V4.27747Z" fill="#E5E5E5"/>
<path d="M84.5686 4.27747H81.8019V95.6919H84.5686V4.27747Z" stroke="black" stroke-width="0.25" stroke-miterlimit="10"/>
<path d="M95.5613 4.27747H92.7946V95.6919H95.5613V4.27747Z" fill="#E5E5E5"/>
<path d="M95.5613 4.27747H92.7946V95.6919H95.5613V4.27747Z" stroke="black" stroke-width="0.25" stroke-miterlimit="10"/>
<path d="M106.554 4.27747H103.787V95.6919H106.554V4.27747Z" fill="#E5E5E5"/>
<path d="M106.554 4.27747H103.787V95.6919H106.554V4.27747Z" stroke="black" stroke-width="0.25" stroke-miterlimit="10"/>
<path d="M117.546 4.27747H114.737V95.6919H117.546V4.27747Z" fill="#E5E5E5"/>
<path d="M117.546 4.27747H114.737V95.6919H117.546V4.27747Z" stroke="black" stroke-width="0.25" stroke-miterlimit="10"/>
<path d="M128.539 4.27747H125.73V95.6919H128.539V4.27747Z" fill="#E5E5E5"/>
<path d="M128.539 4.27747H125.73V95.6919H128.539V4.27747Z" stroke="black" stroke-width="0.25" stroke-miterlimit="10"/>
<path d="M139.532 4.27747H136.722V95.6919H139.532V4.27747Z" fill="#E5E5E5"/>
<path d="M139.532 4.27747H136.722V95.6919H139.532V4.27747Z" stroke="black" stroke-width="0.25" stroke-miterlimit="10"/>
<path d="M150.524 4.27747H147.758V95.6919H150.524V4.27747Z" fill="#E5E5E5"/>
<path d="M150.524 4.27747H147.758V95.6919H150.524V4.27747Z" stroke="black" stroke-width="0.25" stroke-miterlimit="10"/>
<path d="M161.517 4.27747H158.708V95.6919H161.517V4.27747Z" fill="#E5E5E5"/>
<path d="M161.517 4.27747H158.708V95.6919H161.517V4.27747Z" stroke="black" stroke-width="0.25" stroke-miterlimit="10"/>
<path d="M172.509 4.27747H169.7V95.6919H172.509V4.27747Z" fill="#E5E5E5"/>
<path d="M172.509 4.27747H169.7V95.6919H172.509V4.27747Z" stroke="black" stroke-width="0.25" stroke-miterlimit="10"/>
<path d="M183.502 4.27747H180.693V95.6919H183.502V4.27747Z" fill="#E5E5E5"/>
<path d="M183.502 4.27747H180.693V95.6919H183.502V4.27747Z" stroke="black" stroke-width="0.25" stroke-miterlimit="10"/>
<path d="M194.495 4.27747H191.728V95.6919H194.495V4.27747Z" fill="#E5E5E5"/>
<path d="M194.495 4.27747H191.728V95.6919H194.495V4.27747Z" stroke="black" stroke-width="0.25" stroke-miterlimit="10"/>
<path d="M205.53 4.27747H202.721V95.6919H205.53V4.27747Z" fill="#E5E5E5"/>
<path d="M205.53 4.27747H202.721V95.6919H205.53V4.27747Z" stroke="black" stroke-width="0.25" stroke-miterlimit="10"/>
<path d="M216.522 4.27747H213.713V95.6919H216.522V4.27747Z" fill="#E5E5E5"/>
<path d="M216.522 4.27747H213.713V95.6919H216.522V4.27747Z" stroke="black" stroke-width="0.25" stroke-miterlimit="10"/>
<path d="M227.515 4.27747H224.706V95.6919H227.515V4.27747Z" fill="#E5E5E5"/>
<path d="M227.515 4.27747H224.706V95.6919H227.515V4.27747Z" stroke="black" stroke-width="0.25" stroke-miterlimit="10"/>
<path d="M35.187 6.88824H32.4893" stroke="black" stroke-width="0.25" stroke-miterlimit="10"/>
<path d="M35.187 13.8662H32.4893" stroke="black" stroke-width="0.25" stroke-miterlimit="10"/>
<path d="M35.1869 6.75641V13.8662" stroke="black" stroke-width="0.25" stroke-miterlimit="10"/>
<path d="M32.4893 6.75641V13.8662" stroke="black" stroke-width="0.25" stroke-miterlimit="10"/>
<path d="M34.7038 7.66882H32.9726C32.8398 7.66882 32.7336 7.79013 32.7336 7.93781V13.0486C32.7336 13.1963 32.8398 13.3123 32.9726 13.3123H34.7038C34.8366 13.3123 34.9428 13.191 34.9428 13.0486V7.93781C34.9428 7.79013 34.8366 7.66882 34.7038 7.66882Z" stroke="black" stroke-width="0.25" stroke-miterlimit="10"/>
<path d="M34.9428 11.6984H32.7336" stroke="black" stroke-width="0.25" stroke-miterlimit="10"/>
<path d="M34.6134 7.24165C34.6134 7.32076 34.6665 7.38406 34.7409 7.38406C34.8152 7.38406 34.8683 7.32076 34.8683 7.24165C34.8683 7.16253 34.8099 7.09924 34.7409 7.09924C34.6718 7.09924 34.6134 7.16253 34.6134 7.24165Z" stroke="black" stroke-width="0.25" stroke-miterlimit="10"/>
<path d="M33.7161 13.5867C33.7161 13.6658 33.7745 13.7291 33.8435 13.7291C33.9126 13.7291 33.971 13.6658 33.971 13.5867C33.971 13.5075 33.9126 13.4495 33.8435 13.4495C33.7745 13.4495 33.7161 13.5128 33.7161 13.5867Z" stroke="black" stroke-width="0.25" stroke-miterlimit="10"/>
<path d="M32.808 7.24165C32.808 7.32076 32.8664 7.38406 32.9354 7.38406C33.0045 7.38406 33.0629 7.32076 33.0629 7.24165C33.0629 7.16253 33.0098 7.09924 32.9354 7.09924C32.8611 7.09924 32.808 7.16253 32.808 7.24165Z" stroke="black" stroke-width="0.25" stroke-miterlimit="10"/>
<path d="M211.068 6.5929H208.371" stroke="black" stroke-width="0.25" stroke-miterlimit="10"/>
<path d="M211.068 13.5708H208.376" stroke="black" stroke-width="0.25" stroke-miterlimit="10"/>
<path d="M211.069 6.46106V13.5708" stroke="black" stroke-width="0.25" stroke-miterlimit="10"/>
<path d="M208.376 6.46106V13.5708" stroke="black" stroke-width="0.25" stroke-miterlimit="10"/>
<path d="M210.585 7.37354H208.854C208.721 7.37354 208.615 7.49484 208.615 7.64253V12.7533C208.615 12.901 208.721 13.0223 208.854 13.0223H210.585C210.718 13.0223 210.824 12.901 210.824 12.7533V7.64253C210.824 7.49484 210.718 7.37354 210.585 7.37354Z" stroke="black" stroke-width="0.25" stroke-miterlimit="10"/>
<path d="M210.824 11.4031H208.615" stroke="black" stroke-width="0.25" stroke-miterlimit="10"/>
<path d="M210.495 6.94628C210.495 7.02539 210.554 7.08868 210.617 7.08868C210.681 7.08868 210.745 7.02539 210.745 6.94628C210.745 6.86716 210.686 6.80914 210.617 6.80914C210.548 6.80914 210.495 6.87243 210.495 6.94628Z" stroke="black" stroke-width="0.25" stroke-miterlimit="10"/>
<path d="M209.597 13.2913C209.597 13.3704 209.656 13.4337 209.725 13.4337C209.794 13.4337 209.847 13.3704 209.847 13.2913C209.847 13.2122 209.794 13.1542 209.725 13.1542C209.656 13.1542 209.597 13.2175 209.597 13.2913Z" stroke="black" stroke-width="0.25" stroke-miterlimit="10"/>
<path d="M208.689 6.94628C208.689 7.02539 208.748 7.08868 208.817 7.08868C208.886 7.08868 208.939 7.02539 208.939 6.94628C208.939 6.86716 208.881 6.80914 208.817 6.80914C208.753 6.80914 208.689 6.87243 208.689 6.94628Z" stroke="black" stroke-width="0.25" stroke-miterlimit="10"/>
<path d="M167.098 6.5929H164.4" stroke="black" stroke-width="0.25" stroke-miterlimit="10"/>
<path d="M167.098 13.5708H164.4" stroke="black" stroke-width="0.25" stroke-miterlimit="10"/>
<path d="M167.098 6.46106V13.5708" stroke="black" stroke-width="0.25" stroke-miterlimit="10"/>
<path d="M164.4 6.46106V13.5708" stroke="black" stroke-width="0.25" stroke-miterlimit="10"/>
<path d="M166.615 7.37354H164.884C164.751 7.37354 164.645 7.49484 164.645 7.64253V12.7533C164.645 12.901 164.751 13.0223 164.884 13.0223H166.615C166.748 13.0223 166.854 12.901 166.854 12.7533V7.64253C166.854 7.49484 166.748 7.37354 166.615 7.37354Z" stroke="black" stroke-width="0.25" stroke-miterlimit="10"/>
<path d="M166.854 11.4031H164.645" stroke="black" stroke-width="0.25" stroke-miterlimit="10"/>
<path d="M166.525 6.94628C166.525 7.02539 166.583 7.08868 166.647 7.08868C166.711 7.08868 166.774 7.02539 166.774 6.94628C166.774 6.86716 166.716 6.80914 166.647 6.80914C166.578 6.80914 166.525 6.87243 166.525 6.94628Z" stroke="black" stroke-width="0.25" stroke-miterlimit="10"/>
<path d="M165.627 13.2913C165.627 13.3704 165.685 13.4337 165.749 13.4337C165.813 13.4337 165.877 13.3704 165.877 13.2913C165.877 13.2122 165.818 13.1542 165.749 13.1542C165.68 13.1542 165.627 13.2175 165.627 13.2913Z" stroke="black" stroke-width="0.25" stroke-miterlimit="10"/>
<path d="M164.719 6.94628C164.719 7.02539 164.778 7.08868 164.847 7.08868C164.916 7.08868 164.969 7.02539 164.969 6.94628C164.969 6.86716 164.91 6.80914 164.847 6.80914C164.783 6.80914 164.719 6.87243 164.719 6.94628Z" stroke="black" stroke-width="0.25" stroke-miterlimit="10"/>
<path d="M79.1574 6.5929H76.4597" stroke="black" stroke-width="0.25" stroke-miterlimit="10"/>
<path d="M79.1575 13.5708H76.4651" stroke="black" stroke-width="0.25" stroke-miterlimit="10"/>
<path d="M79.1573 6.46106V13.5708" stroke="black" stroke-width="0.25" stroke-miterlimit="10"/>
<path d="M76.4651 6.46106V13.5708" stroke="black" stroke-width="0.25" stroke-miterlimit="10"/>
<path d="M78.6742 7.37354H76.943C76.8103 7.37354 76.704 7.49484 76.704 7.64253V12.7533C76.704 12.901 76.8103 13.0223 76.943 13.0223H78.6742C78.807 13.0223 78.9132 12.901 78.9132 12.7533V7.64253C78.9132 7.49484 78.807 7.37354 78.6742 7.37354Z" stroke="black" stroke-width="0.25" stroke-miterlimit="10"/>
<path d="M78.9132 11.4031H76.704" stroke="black" stroke-width="0.25" stroke-miterlimit="10"/>
<path d="M78.5838 6.94628C78.5838 7.02539 78.6369 7.08868 78.7059 7.08868C78.775 7.08868 78.8334 7.02539 78.8334 6.94628C78.8334 6.86716 78.775 6.80914 78.7059 6.80914C78.6369 6.80914 78.5838 6.87243 78.5838 6.94628Z" stroke="black" stroke-width="0.25" stroke-miterlimit="10"/>
<path d="M77.6865 13.2913C77.6865 13.3704 77.7396 13.4337 77.8139 13.4337C77.8883 13.4337 77.9414 13.3704 77.9414 13.2913C77.9414 13.2122 77.8883 13.1542 77.8139 13.1542C77.7396 13.1542 77.6865 13.2175 77.6865 13.2913Z" stroke="black" stroke-width="0.25" stroke-miterlimit="10"/>
<path d="M76.7784 6.94628C76.7784 7.02539 76.8315 7.08868 76.9058 7.08868C76.9802 7.08868 77.0333 7.02539 77.0333 6.94628C77.0333 6.86716 76.9749 6.80914 76.9058 6.80914C76.8368 6.80914 76.7784 6.87243 76.7784 6.94628Z" stroke="black" stroke-width="0.25" stroke-miterlimit="10"/>
<path d="M167.263 101.589V97.8122H152.999V101.589" stroke="black" stroke-width="0.25" stroke-miterlimit="10"/>
<mask id="path-148-inside-1_422_2" fill="white">
<path d="M71.8713 101.589V97.8439H86.1351V101.589"/>
</mask>
<path d="M71.8713 97.8439V97.5939H71.6213V97.8439H71.8713ZM86.1351 97.8439H86.3851V97.5939H86.1351V97.8439ZM72.1213 101.589V97.8439H71.6213V101.589H72.1213ZM71.8713 98.0939H86.1351V97.5939H71.8713V98.0939ZM85.8851 97.8439V101.589H86.3851V97.8439H85.8851Z" fill="black" mask="url(#path-148-inside-1_422_2)"/>
</g>
<defs>
<clipPath id="clip0_422_2">
<rect width="240" height="102" fill="white"/>
</clipPath>
</defs>
</svg>
