<svg width="96" height="114" viewBox="0 0 96 114" fill="none" xmlns="http://www.w3.org/2000/svg">
<g clip-path="url(#clip0_592_9846)">
<path opacity="0.5" fillRule="evenodd" clip-rule="evenodd" d="M88.7975 113.421L89.017 113.411L88.7975 113.421L88.6778 110.837H81.5441L81.4343 113.421H81.2148V110.488H89.017V113.411L88.7975 113.421Z" fill="white"/>
<path opacity="0.5" fillRule="evenodd" clip-rule="evenodd" d="M13.9968 113.421L14.2163 113.411L13.9968 113.421L13.887 110.837H6.75329L6.64354 113.421H6.41406V110.488H14.2163V113.411L13.9968 113.421Z" fill="white"/>
<path opacity="0.5" d="M15.1342 2.82349H10.9238V108.014H15.1342V2.82349Z" fill="#E5E5E5"/>
<path opacity="0.5" d="M25.0522 2.82349H20.8418V108.014H25.0522V2.82349Z" fill="#E5E5E5"/>
<path opacity="0.5" d="M34.9702 2.82349H30.7598V108.014H34.9702V2.82349Z" fill="#E5E5E5"/>
<path opacity="0.5" d="M44.8881 2.82349H40.6777V108.014H44.8881V2.82349Z" fill="#E5E5E5"/>
<path opacity="0.5" d="M54.8061 2.82349H50.5957V108.014H54.8061V2.82349Z" fill="#E5E5E5"/>
<path opacity="0.5" d="M64.7143 2.82349H60.5039V108.014H64.7143V2.82349Z" fill="#E5E5E5"/>
<path opacity="0.5" d="M74.6303 2.82349H70.4199V108.014H74.6303V2.82349Z" fill="#E5E5E5"/>
<path opacity="0.5" d="M84.5463 2.82349H80.3359V108.014H84.5463V2.82349Z" fill="#E5E5E5"/>
<path opacity="0.5" d="M6.41652 109.261H0.130859V113.87H6.41652V109.261Z" stroke="#0E040F" stroke-width="0.259408" stroke-linecap="round" stroke-linejoin="round"/>
<path opacity="0.5" d="M95.3032 109.261H89.0176V113.87H95.3032V109.261Z" stroke="#070207" stroke-width="0.259408" stroke-linecap="round" stroke-linejoin="round"/>
<path opacity="0.5" d="M6.45559 0.129639H0.169922V4.73913H6.45559V0.129639Z" stroke="#100411" stroke-width="0.259408" stroke-linecap="round" stroke-linejoin="round"/>
<path opacity="0.5" d="M14.2188 113.421H81.4354" stroke="black" stroke-width="0.259408" stroke-linecap="round" stroke-linejoin="round"/>
<path opacity="0.5" d="M0.336996 4.72913L0.287109 109.261" stroke="black" stroke-width="0.259408" stroke-linecap="round" stroke-linejoin="round"/>
<path opacity="0.5" d="M6.45397 4.72913L6.41406 109.261" stroke="black" stroke-width="0.259408" stroke-linecap="round" stroke-linejoin="round"/>
<path opacity="0.5" d="M2.35547 112.543V110.498C2.87429 110.029 3.66249 110.029 4.1813 110.498V112.543C3.66249 113.012 2.87429 113.012 2.35547 112.543Z" stroke="black" stroke-width="0.259408" stroke-linecap="round" stroke-linejoin="round"/>
<path opacity="0.5" d="M89.0675 4.72925L89.0176 109.261" stroke="black" stroke-width="0.259408" stroke-linecap="round" stroke-linejoin="round"/>
<path opacity="0.5" d="M93.0585 110.508V112.543C92.5396 113.012 91.7515 113.012 91.2227 112.543V110.508C91.7415 110.039 92.5297 110.039 93.0585 110.508Z" stroke="black" stroke-width="0.259408" stroke-linecap="round" stroke-linejoin="round"/>
<path opacity="0.5" d="M6.75329 110.837L6.64354 113.421H6.41406" stroke="black" stroke-width="0.259408" stroke-linecap="round" stroke-linejoin="round"/>
<path opacity="0.5" d="M4.21081 1.2173V3.65175C3.692 4.12068 2.90379 4.12068 2.375 3.65175V1.2173C2.89382 0.748368 3.68202 0.748368 4.21081 1.2173Z" stroke="black" stroke-width="0.259408" stroke-linecap="round" stroke-linejoin="round"/>
<path opacity="0.5" d="M89.0686 2.82349H6.45703" stroke="black" stroke-width="0.259408" stroke-linecap="round" stroke-linejoin="round"/>
<path opacity="0.5" d="M6.45703 0.478882H89.0686" stroke="black" stroke-width="0.259408" stroke-linecap="round" stroke-linejoin="round"/>
<path opacity="0.5" d="M88.7975 113.421L89.017 113.411L88.7975 113.421ZM88.7975 113.421L88.6778 110.837H81.5441L81.4343 113.421H81.2148V110.488H89.017V113.411" stroke="black" stroke-width="0.259408" stroke-linecap="round" stroke-linejoin="round"/>
<path opacity="0.5" d="M13.9968 113.421L14.2163 113.411L13.9968 113.421ZM13.9968 113.421L13.887 110.837H6.75329L6.64354 113.421H6.41406V110.488H14.2163V113.411" stroke="black" stroke-width="0.259408" stroke-linecap="round" stroke-linejoin="round"/>
<path opacity="0.5" d="M24.1562 108.014H24.9544" stroke="black" stroke-width="0.259408" stroke-linecap="round" stroke-linejoin="round"/>
<path opacity="0.5" d="M6.41406 108.014H13.0589H25.8497H32.4946H35.7671H38.6306H89.0157" stroke="black" stroke-width="0.259408" stroke-linecap="round" stroke-linejoin="round"/>
<path opacity="0.5" d="M95.1035 109.261L95.1534 4.72925" stroke="black" stroke-width="0.259408" stroke-linecap="round" stroke-linejoin="round"/>
<path opacity="0.5" d="M7.23153 2.82349L7.18164 108.014V106.467" stroke="black" stroke-width="0.259408" stroke-linecap="round" stroke-linejoin="round"/>
<path opacity="0.5" d="M10.1562 108.014L10.2061 2.82349" stroke="black" stroke-width="0.259408" stroke-linecap="round" stroke-linejoin="round"/>
<path opacity="0.5" d="M15.8652 108.014L15.9051 2.82349" stroke="black" stroke-width="0.259408" stroke-linecap="round" stroke-linejoin="round"/>
<path opacity="0.5" d="M25.7812 108.014L25.8212 2.82349" stroke="black" stroke-width="0.259408" stroke-linecap="round" stroke-linejoin="round"/>
<path opacity="0.5" d="M29.9922 108.014L30.0421 2.82349" stroke="black" stroke-width="0.259408" stroke-linecap="round" stroke-linejoin="round"/>
<path opacity="0.5" d="M35.6895 108.014L35.7393 2.82349" stroke="black" stroke-width="0.259408" stroke-linecap="round" stroke-linejoin="round"/>
<path opacity="0.5" d="M20.0723 108.014L20.1222 2.82349" stroke="black" stroke-width="0.259408" stroke-linecap="round" stroke-linejoin="round"/>
<path opacity="0.5" d="M45.6055 108.014L45.6554 2.82349" stroke="black" stroke-width="0.259408" stroke-linecap="round" stroke-linejoin="round"/>
<path opacity="0.5" d="M49.8262 108.014L49.8661 2.82349" stroke="black" stroke-width="0.259408" stroke-linecap="round" stroke-linejoin="round"/>
<path opacity="0.5" d="M55.5234 108.014L55.5733 2.82349" stroke="black" stroke-width="0.259408" stroke-linecap="round" stroke-linejoin="round"/>
<path opacity="0.5" d="M39.8906 108.014L39.9405 2.82349" stroke="black" stroke-width="0.259408" stroke-linecap="round" stroke-linejoin="round"/>
<path opacity="0.5" d="M59.7441 108.014L59.784 2.82349" stroke="black" stroke-width="0.259408" stroke-linecap="round" stroke-linejoin="round"/>
<path opacity="0.5" d="M65.4395 108.014L65.4794 2.82349" stroke="black" stroke-width="0.259408" stroke-linecap="round" stroke-linejoin="round"/>
<path opacity="0.5" d="M75.3574 108.014L75.3973 2.82349" stroke="black" stroke-width="0.259408" stroke-linecap="round" stroke-linejoin="round"/>
<path opacity="0.5" d="M79.5684 108.014L79.6083 2.82349" stroke="black" stroke-width="0.259408" stroke-linecap="round" stroke-linejoin="round"/>
<path opacity="0.5" d="M85.2773 108.014L85.3173 2.82349" stroke="black" stroke-width="0.259408" stroke-linecap="round" stroke-linejoin="round"/>
<path opacity="0.5" d="M69.6504 108.014L69.7003 2.82349" stroke="black" stroke-width="0.259408" stroke-linecap="round" stroke-linejoin="round"/>
<path opacity="0.5" d="M88.248 108.014L88.288 2.82349" stroke="black" stroke-width="0.259408" stroke-linecap="round" stroke-linejoin="round"/>
<path opacity="0.5" d="M15.1342 2.82349H10.9238V108.014H15.1342V2.82349Z" stroke="black" stroke-width="0.259408" stroke-linecap="round" stroke-linejoin="round"/>
<path opacity="0.5" d="M25.0522 2.82349H20.8418V108.014H25.0522V2.82349Z" stroke="black" stroke-width="0.259408" stroke-linecap="round" stroke-linejoin="round"/>
<path opacity="0.5" d="M34.9702 2.82349H30.7598V108.014H34.9702V2.82349Z" stroke="black" stroke-width="0.259408" stroke-linecap="round" stroke-linejoin="round"/>
<path opacity="0.5" d="M44.8881 2.82349H40.6777V108.014H44.8881V2.82349Z" stroke="black" stroke-width="0.259408" stroke-linecap="round" stroke-linejoin="round"/>
<path opacity="0.5" d="M54.8061 2.82349H50.5957V108.014H54.8061V2.82349Z" stroke="black" stroke-width="0.259408" stroke-linecap="round" stroke-linejoin="round"/>
<path opacity="0.5" d="M64.7143 2.82349H60.5039V108.014H64.7143V2.82349Z" stroke="black" stroke-width="0.259408" stroke-linecap="round" stroke-linejoin="round"/>
<path opacity="0.5" d="M74.6303 2.82349H70.4199V108.014H74.6303V2.82349Z" stroke="black" stroke-width="0.259408" stroke-linecap="round" stroke-linejoin="round"/>
<path opacity="0.5" d="M84.5463 2.82349H80.3359V108.014H84.5463V2.82349Z" stroke="black" stroke-width="0.259408" stroke-linecap="round" stroke-linejoin="round"/>
<path opacity="0.5" d="M91.3125 3.65175V1.2173C91.8313 0.748368 92.6195 0.748368 93.1383 1.2173V3.65175C92.6195 4.12068 91.8313 4.12068 91.3125 3.65175Z" stroke="black" stroke-width="0.259408" stroke-linecap="round" stroke-linejoin="round"/>
<path opacity="0.5" d="M95.3521 0.129761H89.0664V4.73925H95.3521V0.129761Z" stroke="black" stroke-width="0.259408" stroke-linecap="round" stroke-linejoin="round"/>
<path opacity="0.5" d="M6.45559 0.129639H0.169922V4.73913H6.45559V0.129639Z" stroke="black" stroke-width="0.259408" stroke-linecap="round" stroke-linejoin="round"/>
<path opacity="0.5" d="M6.41652 109.261H0.130859V113.87H6.41652V109.261Z" stroke="black" stroke-width="0.259408" stroke-linecap="round" stroke-linejoin="round"/>
<path opacity="0.5" d="M95.3032 109.261H89.0176V113.87H95.3032V109.261Z" stroke="black" stroke-width="0.259408" stroke-linecap="round" stroke-linejoin="round"/>
</g>
<defs>
<clipPath id="clip0_592_9846">
<rect width="95.4723" height="114" fill="white"/>
</clipPath>
</defs>
</svg>
