<svg width="118" height="103" viewBox="0 0 118 103" fill="none" xmlns="http://www.w3.org/2000/svg">
<g clip-path="url(#clip0_592_3803)">
<path opacity="0.5" d="M15.7533 3.94067H13.0098V95.2141H15.7533V3.94067Z" fill="#E5E5E5"/>
<path opacity="0.5" d="M26.6576 3.94067H23.9141V95.2141H26.6576V3.94067Z" fill="#E5E5E5"/>
<path opacity="0.5" d="M37.5501 3.94067H34.8066V95.2141H37.5501V3.94067Z" fill="#E5E5E5"/>
<path opacity="0.5" d="M48.4564 3.94067H45.7129V95.2141H48.4564V3.94067Z" fill="#E5E5E5"/>
<path opacity="0.5" d="M59.349 3.94067H56.6055V95.2141H59.349V3.94067Z" fill="#E5E5E5"/>
<path opacity="0.5" d="M70.2435 3.94067H67.5V95.2141H70.2435V3.94067Z" fill="#E5E5E5"/>
<path opacity="0.5" d="M81.1478 3.94067H78.4043V95.2141H81.1478V3.94067Z" fill="#E5E5E5"/>
<path opacity="0.5" d="M92.0423 3.94067H89.2988V95.2141H92.0423V3.94067Z" fill="#E5E5E5"/>
<path opacity="0.5" d="M102.947 3.94067H100.203V95.2141H102.947V3.94067Z" fill="#E5E5E5"/>
<path opacity="0.5" d="M117.791 8.65942H116.225V11.8518H117.791V8.65942Z" fill="white"/>
<path opacity="0.5" d="M117.83 35.885H116.264V39.0774H117.83V35.885Z" fill="white"/>
<path opacity="0.5" d="M117.84 63.1104H116.273V66.3028H117.84V63.1104Z" fill="white"/>
<path opacity="0.5" d="M117.881 90.3257H116.314V93.5181H117.881V90.3257Z" fill="white"/>
<path opacity="0.5" d="M105.611 95.214V3.94055" stroke="black" stroke-width="0.259385" stroke-linecap="round" stroke-linejoin="round"/>
<path opacity="0.5" d="M97.541 95.2141V3.94067" stroke="black" stroke-width="0.259385" stroke-linecap="round" stroke-linejoin="round"/>
<path opacity="0.5" d="M94.707 95.214V3.94055" stroke="black" stroke-width="0.259385" stroke-linecap="round" stroke-linejoin="round"/>
<path opacity="0.5" d="M86.6367 95.2141V3.94067" stroke="black" stroke-width="0.259385" stroke-linecap="round" stroke-linejoin="round"/>
<path opacity="0.5" d="M83.8145 95.2141V3.94067" stroke="black" stroke-width="0.259385" stroke-linecap="round" stroke-linejoin="round"/>
<path opacity="0.5" d="M75.7402 95.214V3.94055" stroke="black" stroke-width="0.259385" stroke-linecap="round" stroke-linejoin="round"/>
<path opacity="0.5" d="M72.9082 95.2141V3.94067" stroke="black" stroke-width="0.259385" stroke-linecap="round" stroke-linejoin="round"/>
<path opacity="0.5" d="M64.8379 95.2141V3.94067" stroke="black" stroke-width="0.259385" stroke-linecap="round" stroke-linejoin="round"/>
<path opacity="0.5" d="M62.0137 95.2141V3.94067" stroke="black" stroke-width="0.259385" stroke-linecap="round" stroke-linejoin="round"/>
<path opacity="0.5" d="M53.9434 95.2141V3.94067" stroke="black" stroke-width="0.259385" stroke-linecap="round" stroke-linejoin="round"/>
<path opacity="0.5" d="M51.1191 95.214V3.94055" stroke="black" stroke-width="0.259385" stroke-linecap="round" stroke-linejoin="round"/>
<path opacity="0.5" d="M43.0488 95.2141V3.94067" stroke="black" stroke-width="0.259385" stroke-linecap="round" stroke-linejoin="round"/>
<path opacity="0.5" d="M40.2168 95.2141V3.94067" stroke="black" stroke-width="0.259385" stroke-linecap="round" stroke-linejoin="round"/>
<path opacity="0.5" d="M32.1445 95.214V3.94055" stroke="black" stroke-width="0.259385" stroke-linecap="round" stroke-linejoin="round"/>
<path opacity="0.5" d="M29.3223 95.2141V3.94067" stroke="black" stroke-width="0.259385" stroke-linecap="round" stroke-linejoin="round"/>
<path opacity="0.5" d="M21.252 95.2141V3.94067" stroke="black" stroke-width="0.259385" stroke-linecap="round" stroke-linejoin="round"/>
<path opacity="0.5" d="M18.416 95.2141V3.94067" stroke="black" stroke-width="0.259385" stroke-linecap="round" stroke-linejoin="round"/>
<path opacity="0.5" d="M15.7552 3.94067H13.0117V95.2141H15.7552V3.94067Z" stroke="black" stroke-width="0.259385" stroke-linecap="round" stroke-linejoin="round"/>
<path opacity="0.5" d="M10.3477 95.2141V3.94067" stroke="black" stroke-width="0.259385" stroke-linecap="round" stroke-linejoin="round"/>
<path opacity="0.5" d="M7.52344 95.2141V3.94067" stroke="black" stroke-width="0.259385" stroke-linecap="round" stroke-linejoin="round"/>
<path opacity="0.5" d="M107.416 95.2141V3.94067" stroke="black" stroke-width="0.259385" stroke-linecap="round" stroke-linejoin="round"/>
<path opacity="0.5" d="M108.693 95.4634V3.94055" stroke="black" stroke-width="0.259385" stroke-linecap="round" stroke-linejoin="round"/>
<path opacity="0.5" d="M46.8904 101.2V96.6407H32.7539V101.2" stroke="black" stroke-width="0.259385" stroke-linecap="round" stroke-linejoin="round"/>
<path opacity="0.5" d="M117.882 97.2491H110.889V101.878H117.882V97.2491Z" stroke="black" stroke-width="0.259385" stroke-linecap="round" stroke-linejoin="round"/>
<path opacity="0.5" d="M115.457 100.551V98.4963C114.938 98.0274 114.14 98.0274 113.621 98.4963V100.551C114.14 101.02 114.938 101.02 115.457 100.551Z" stroke="black" stroke-width="0.259385" stroke-linecap="round" stroke-linejoin="round"/>
<path opacity="0.5" d="M117.882 0.129761H110.889V4.76875H117.882V0.129761Z" stroke="black" stroke-width="0.259385" stroke-linecap="round" stroke-linejoin="round"/>
<path opacity="0.5" d="M115.457 3.56157V1.50645C114.938 1.03756 114.14 1.03756 113.621 1.50645V3.56157C114.15 4.03046 114.938 4.03046 115.457 3.56157Z" stroke="black" stroke-width="0.259385" stroke-linecap="round" stroke-linejoin="round"/>
<path opacity="0.5" d="M110.889 3.94067H7.11523" stroke="black" stroke-width="0.259385" stroke-linecap="round" stroke-linejoin="round"/>
<path opacity="0.5" d="M110.889 1.69592H7.11523" stroke="black" stroke-width="0.259385" stroke-linecap="round" stroke-linejoin="round"/>
<path opacity="0.5" d="M110.889 101.2H7.11523" stroke="black" stroke-width="0.259385" stroke-linecap="round" stroke-linejoin="round"/>
<path opacity="0.5" d="M7.11523 95.2141H110.889V97.2493" stroke="black" stroke-width="0.259385" stroke-linecap="round" stroke-linejoin="round"/>
<path opacity="0.5" d="M0.130859 97.2493V4.75879" stroke="black" stroke-width="0.259385" stroke-linecap="round" stroke-linejoin="round"/>
<path opacity="0.5" d="M71.6719 101.2V96.6406H85.8083V101.2" stroke="black" stroke-width="0.259385" stroke-linecap="round" stroke-linejoin="round"/>
<path opacity="0.5" d="M7.12426 97.2491H0.130859V101.878H7.12426V97.2491Z" stroke="black" stroke-width="0.259385" stroke-linecap="round" stroke-linejoin="round"/>
<path opacity="0.5" d="M4.39033 100.551V98.4963C3.86159 98.0274 3.07346 98.0274 2.55469 98.4963V100.551C3.08343 101.02 3.87156 101.02 4.39033 100.551Z" stroke="black" stroke-width="0.259385" stroke-linecap="round" stroke-linejoin="round"/>
<path opacity="0.5" d="M7.12426 0.129761H0.130859V4.76875H7.12426V0.129761Z" stroke="black" stroke-width="0.259385" stroke-linecap="round" stroke-linejoin="round"/>
<path opacity="0.5" d="M4.39033 3.56157V1.50645C3.86159 1.03756 3.07346 1.03756 2.55469 1.50645V3.56157C3.08343 4.03046 3.87156 4.03046 4.39033 3.56157Z" stroke="black" stroke-width="0.259385" stroke-linecap="round" stroke-linejoin="round"/>
<path opacity="0.5" d="M25.938 1.69592H25.0999H24.252" stroke="black" stroke-width="0.259385" stroke-linecap="round" stroke-linejoin="round"/>
<path opacity="0.5" d="M24.2533 1.69609C24.1933 1.69609 24.1433 1.66609 24.1133 1.61609" stroke="black" stroke-width="0.259385" stroke-linecap="round" stroke-linejoin="round"/>
<path opacity="0.5" d="M24.1147 1.61626L23.6758 0.758301" stroke="black" stroke-width="0.259385" stroke-linecap="round" stroke-linejoin="round"/>
<path opacity="0.5" d="M23.6754 0.758467C23.6454 0.708467 23.5954 0.678467 23.5254 0.678467" stroke="black" stroke-width="0.259385" stroke-linecap="round" stroke-linejoin="round"/>
<path opacity="0.5" d="M23.5243 0.678467H20.1523" stroke="black" stroke-width="0.259385" stroke-linecap="round" stroke-linejoin="round"/>
<path opacity="0.5" d="M20.1537 0.678467C20.0937 0.678467 20.0337 0.708467 20.0137 0.758467" stroke="black" stroke-width="0.259385" stroke-linecap="round" stroke-linejoin="round"/>
<path opacity="0.5" d="M20.0054 0.758301L19.5664 1.61626" stroke="black" stroke-width="0.259385" stroke-linecap="round" stroke-linejoin="round"/>
<path opacity="0.5" d="M19.5658 1.61609C19.5358 1.66609 19.4858 1.69609 19.4258 1.69609" stroke="black" stroke-width="0.259385" stroke-linecap="round" stroke-linejoin="round"/>
<path opacity="0.5" d="M19.4261 1.69592H18.5781" stroke="black" stroke-width="0.259385" stroke-linecap="round" stroke-linejoin="round"/>
<path opacity="0.5" d="M32.4655 1.69592H31.6175H30.7695" stroke="black" stroke-width="0.259385" stroke-linecap="round" stroke-linejoin="round"/>
<path opacity="0.5" d="M30.7689 1.69609C30.7189 1.69609 30.6589 1.66609 30.6289 1.61609" stroke="black" stroke-width="0.259385" stroke-linecap="round" stroke-linejoin="round"/>
<path opacity="0.5" d="M30.6304 1.61626L30.1914 0.758301" stroke="black" stroke-width="0.259385" stroke-linecap="round" stroke-linejoin="round"/>
<path opacity="0.5" d="M30.1908 0.758467C30.1608 0.708467 30.1108 0.678467 30.0508 0.678467" stroke="black" stroke-width="0.259385" stroke-linecap="round" stroke-linejoin="round"/>
<path opacity="0.5" d="M30.0502 0.678467H26.6582" stroke="black" stroke-width="0.259385" stroke-linecap="round" stroke-linejoin="round"/>
<path opacity="0.5" d="M26.6576 0.678467C26.5976 0.678467 26.5476 0.708467 26.5176 0.758467" stroke="black" stroke-width="0.259385" stroke-linecap="round" stroke-linejoin="round"/>
<path opacity="0.5" d="M26.529 0.758301L26.0801 1.61626" stroke="black" stroke-width="0.259385" stroke-linecap="round" stroke-linejoin="round"/>
<path opacity="0.5" d="M26.0797 1.61609C26.0497 1.66609 25.9997 1.69609 25.9297 1.69609" stroke="black" stroke-width="0.259385" stroke-linecap="round" stroke-linejoin="round"/>
<path opacity="0.5" d="M38.9792 1.69592H38.1312H37.2832" stroke="black" stroke-width="0.259385" stroke-linecap="round" stroke-linejoin="round"/>
<path opacity="0.5" d="M37.2826 1.69621C37.2226 1.69621 37.1626 1.66621 37.1426 1.61621" stroke="black" stroke-width="0.259385" stroke-linecap="round" stroke-linejoin="round"/>
<path opacity="0.5" d="M37.1442 1.61626L36.6953 0.758301" stroke="black" stroke-width="0.259385" stroke-linecap="round" stroke-linejoin="round"/>
<path opacity="0.5" d="M36.6927 0.758467C36.6627 0.708467 36.6127 0.678467 36.5527 0.678467" stroke="black" stroke-width="0.259385" stroke-linecap="round" stroke-linejoin="round"/>
<path opacity="0.5" d="M36.5638 0.678467H33.1719" stroke="black" stroke-width="0.259385" stroke-linecap="round" stroke-linejoin="round"/>
<path opacity="0.5" d="M33.1732 0.678467C33.1132 0.678467 33.0632 0.708467 33.0332 0.758467" stroke="black" stroke-width="0.259385" stroke-linecap="round" stroke-linejoin="round"/>
<path opacity="0.5" d="M33.0427 0.758301L32.5938 1.61626" stroke="black" stroke-width="0.259385" stroke-linecap="round" stroke-linejoin="round"/>
<path opacity="0.5" d="M32.5931 1.61609C32.5631 1.66609 32.5131 1.69609 32.4531 1.69609" stroke="black" stroke-width="0.259385" stroke-linecap="round" stroke-linejoin="round"/>
<path opacity="0.5" d="M45.4928 1.69592H44.6449H43.7969" stroke="black" stroke-width="0.259385" stroke-linecap="round" stroke-linejoin="round"/>
<path opacity="0.5" d="M43.7982 1.69621C43.7482 1.69621 43.6882 1.66621 43.6582 1.61621" stroke="black" stroke-width="0.259385" stroke-linecap="round" stroke-linejoin="round"/>
<path opacity="0.5" d="M43.6577 1.61626L43.2188 0.758301" stroke="black" stroke-width="0.259385" stroke-linecap="round" stroke-linejoin="round"/>
<path opacity="0.5" d="M43.2201 0.758345C43.1901 0.708345 43.1401 0.678345 43.0801 0.678345" stroke="black" stroke-width="0.259385" stroke-linecap="round" stroke-linejoin="round"/>
<path opacity="0.5" d="M43.0792 0.678467H39.6973" stroke="black" stroke-width="0.259385" stroke-linecap="round" stroke-linejoin="round"/>
<path opacity="0.5" d="M39.6966 0.678467C39.6366 0.678467 39.5766 0.708467 39.5566 0.758467" stroke="black" stroke-width="0.259385" stroke-linecap="round" stroke-linejoin="round"/>
<path opacity="0.5" d="M39.5583 0.758301L39.1094 1.61626" stroke="black" stroke-width="0.259385" stroke-linecap="round" stroke-linejoin="round"/>
<path opacity="0.5" d="M39.1087 1.61621C39.0787 1.66621 39.0287 1.69621 38.9688 1.69621" stroke="black" stroke-width="0.259385" stroke-linecap="round" stroke-linejoin="round"/>
<path opacity="0.5" d="M52.0083 1.69592H51.1603H50.3223" stroke="black" stroke-width="0.259385" stroke-linecap="round" stroke-linejoin="round"/>
<path opacity="0.5" d="M50.3216 1.69621C50.2616 1.69621 50.2016 1.66621 50.1816 1.61621" stroke="black" stroke-width="0.259385" stroke-linecap="round" stroke-linejoin="round"/>
<path opacity="0.5" d="M50.1714 1.61626L49.7324 0.758301" stroke="black" stroke-width="0.259385" stroke-linecap="round" stroke-linejoin="round"/>
<path opacity="0.5" d="M49.7337 0.758467C49.7037 0.708467 49.6537 0.678467 49.5938 0.678467" stroke="black" stroke-width="0.259385" stroke-linecap="round" stroke-linejoin="round"/>
<path opacity="0.5" d="M49.5929 0.678467H46.2109" stroke="black" stroke-width="0.259385" stroke-linecap="round" stroke-linejoin="round"/>
<path opacity="0.5" d="M46.2123 0.678467C46.1623 0.678467 46.1023 0.708467 46.0723 0.758467" stroke="black" stroke-width="0.259385" stroke-linecap="round" stroke-linejoin="round"/>
<path opacity="0.5" d="M46.0698 0.758301L45.6309 1.61626" stroke="black" stroke-width="0.259385" stroke-linecap="round" stroke-linejoin="round"/>
<path opacity="0.5" d="M45.6341 1.61609C45.6041 1.66609 45.5541 1.69609 45.4941 1.69609" stroke="black" stroke-width="0.259385" stroke-linecap="round" stroke-linejoin="round"/>
<path opacity="0.5" d="M58.5219 1.69592H57.6839H56.8359" stroke="black" stroke-width="0.259385" stroke-linecap="round" stroke-linejoin="round"/>
<path opacity="0.5" d="M56.8353 1.69621C56.7753 1.69621 56.7253 1.66621 56.6953 1.61621" stroke="black" stroke-width="0.259385" stroke-linecap="round" stroke-linejoin="round"/>
<path opacity="0.5" d="M56.6968 1.61626L56.2578 0.758301" stroke="black" stroke-width="0.259385" stroke-linecap="round" stroke-linejoin="round"/>
<path opacity="0.5" d="M56.2572 0.758467C56.2272 0.708467 56.1772 0.678467 56.1172 0.678467" stroke="black" stroke-width="0.259385" stroke-linecap="round" stroke-linejoin="round"/>
<path opacity="0.5" d="M56.1083 0.678467H52.7363" stroke="black" stroke-width="0.259385" stroke-linecap="round" stroke-linejoin="round"/>
<path opacity="0.5" d="M52.7357 0.678467C52.6757 0.678467 52.6157 0.708467 52.5957 0.758467" stroke="black" stroke-width="0.259385" stroke-linecap="round" stroke-linejoin="round"/>
<path opacity="0.5" d="M52.5874 0.758301L52.1484 1.61626" stroke="black" stroke-width="0.259385" stroke-linecap="round" stroke-linejoin="round"/>
<path opacity="0.5" d="M52.1478 1.61609C52.1178 1.66609 52.0678 1.69609 52.0078 1.69609" stroke="black" stroke-width="0.259385" stroke-linecap="round" stroke-linejoin="round"/>
<path opacity="0.5" d="M65.0456 1.69592H64.1976H63.3496" stroke="black" stroke-width="0.259385" stroke-linecap="round" stroke-linejoin="round"/>
<path opacity="0.5" d="M63.3529 1.69609C63.3029 1.69609 63.2429 1.66609 63.2129 1.61609" stroke="black" stroke-width="0.259385" stroke-linecap="round" stroke-linejoin="round"/>
<path opacity="0.5" d="M63.2104 1.61614L62.7715 0.758179" stroke="black" stroke-width="0.259385" stroke-linecap="round" stroke-linejoin="round"/>
<path opacity="0.5" d="M62.7728 0.758467C62.7428 0.708467 62.6928 0.678467 62.6328 0.678467" stroke="black" stroke-width="0.259385" stroke-linecap="round" stroke-linejoin="round"/>
<path opacity="0.5" d="M62.632 0.678467H59.25" stroke="black" stroke-width="0.259385" stroke-linecap="round" stroke-linejoin="round"/>
<path opacity="0.5" d="M59.2513 0.678467C59.1913 0.678467 59.1413 0.708467 59.1113 0.758467" stroke="black" stroke-width="0.259385" stroke-linecap="round" stroke-linejoin="round"/>
<path opacity="0.5" d="M59.1108 0.758301L58.6719 1.61626" stroke="black" stroke-width="0.259385" stroke-linecap="round" stroke-linejoin="round"/>
<path opacity="0.5" d="M58.6715 1.61621C58.6415 1.66621 58.5915 1.69621 58.5215 1.69621" stroke="black" stroke-width="0.259385" stroke-linecap="round" stroke-linejoin="round"/>
<path opacity="0.5" d="M71.5612 1.69592H70.7132H69.8652" stroke="black" stroke-width="0.259385" stroke-linecap="round" stroke-linejoin="round"/>
<path opacity="0.5" d="M69.8666 1.69609C69.8066 1.69609 69.7566 1.66609 69.7266 1.61609" stroke="black" stroke-width="0.259385" stroke-linecap="round" stroke-linejoin="round"/>
<path opacity="0.5" d="M69.7261 1.61626L69.2871 0.758301" stroke="black" stroke-width="0.259385" stroke-linecap="round" stroke-linejoin="round"/>
<path opacity="0.5" d="M69.2865 0.758467C69.2665 0.708467 69.2065 0.678467 69.1465 0.678467" stroke="black" stroke-width="0.259385" stroke-linecap="round" stroke-linejoin="round"/>
<path opacity="0.5" d="M69.1459 0.678467H65.7539" stroke="black" stroke-width="0.259385" stroke-linecap="round" stroke-linejoin="round"/>
<path opacity="0.5" d="M65.7572 0.678467C65.7072 0.678467 65.6472 0.708467 65.6172 0.758467" stroke="black" stroke-width="0.259385" stroke-linecap="round" stroke-linejoin="round"/>
<path opacity="0.5" d="M65.6247 0.758301L65.1758 1.61626" stroke="black" stroke-width="0.259385" stroke-linecap="round" stroke-linejoin="round"/>
<path opacity="0.5" d="M65.1771 1.61621C65.1471 1.66621 65.0971 1.69621 65.0371 1.69621" stroke="black" stroke-width="0.259385" stroke-linecap="round" stroke-linejoin="round"/>
<path opacity="0.5" d="M78.0768 1.69592H77.2289H76.3809" stroke="black" stroke-width="0.259385" stroke-linecap="round" stroke-linejoin="round"/>
<path opacity="0.5" d="M76.3802 1.69609C76.3202 1.69609 76.2702 1.66609 76.2402 1.61609" stroke="black" stroke-width="0.259385" stroke-linecap="round" stroke-linejoin="round"/>
<path opacity="0.5" d="M76.2397 1.61614L75.8008 0.758179" stroke="black" stroke-width="0.259385" stroke-linecap="round" stroke-linejoin="round"/>
<path opacity="0.5" d="M75.8021 0.758467C75.7721 0.708467 75.7221 0.678467 75.6621 0.678467" stroke="black" stroke-width="0.259385" stroke-linecap="round" stroke-linejoin="round"/>
<path opacity="0.5" d="M75.6632 0.678467H72.2812" stroke="black" stroke-width="0.259385" stroke-linecap="round" stroke-linejoin="round"/>
<path opacity="0.5" d="M72.2806 0.678467C72.2206 0.678467 72.1706 0.708467 72.1406 0.758467" stroke="black" stroke-width="0.259385" stroke-linecap="round" stroke-linejoin="round"/>
<path opacity="0.5" d="M72.1403 0.758179L71.6914 1.61614" stroke="black" stroke-width="0.259385" stroke-linecap="round" stroke-linejoin="round"/>
<path opacity="0.5" d="M71.6908 1.61621C71.6708 1.66621 71.6108 1.69621 71.5508 1.69621" stroke="black" stroke-width="0.259385" stroke-linecap="round" stroke-linejoin="round"/>
<path opacity="0.5" d="M84.5923 1.69592H83.7443H82.9062" stroke="black" stroke-width="0.259385" stroke-linecap="round" stroke-linejoin="round"/>
<path opacity="0.5" d="M82.9056 1.69609C82.8456 1.69609 82.7856 1.66609 82.7656 1.61609" stroke="black" stroke-width="0.259385" stroke-linecap="round" stroke-linejoin="round"/>
<path opacity="0.5" d="M82.7554 1.61614L82.3164 0.758179" stroke="black" stroke-width="0.259385" stroke-linecap="round" stroke-linejoin="round"/>
<path opacity="0.5" d="M82.3177 0.758467C82.2877 0.708467 82.2377 0.678467 82.1777 0.678467" stroke="black" stroke-width="0.259385" stroke-linecap="round" stroke-linejoin="round"/>
<path opacity="0.5" d="M82.1754 0.678467H78.7935C78.7336 0.678467 78.6837 0.708396 78.6538 0.758277L78.2148 1.60627" stroke="black" stroke-width="0.259385" stroke-linecap="round" stroke-linejoin="round"/>
<path opacity="0.5" d="M78.2181 1.61609C78.1881 1.66609 78.1381 1.69609 78.0781 1.69609" stroke="black" stroke-width="0.259385" stroke-linecap="round" stroke-linejoin="round"/>
<path opacity="0.5" d="M91.1059 1.69592H90.2679H89.4199" stroke="black" stroke-width="0.259385" stroke-linecap="round" stroke-linejoin="round"/>
<path opacity="0.5" d="M89.4173 1.69609C89.3573 1.69609 89.3073 1.66609 89.2773 1.61609" stroke="black" stroke-width="0.259385" stroke-linecap="round" stroke-linejoin="round"/>
<path opacity="0.5" d="M89.2788 1.61614L88.8398 0.758179" stroke="black" stroke-width="0.259385" stroke-linecap="round" stroke-linejoin="round"/>
<path opacity="0.5" d="M88.8412 0.758467C88.8112 0.708467 88.7612 0.678467 88.7012 0.678467" stroke="black" stroke-width="0.259385" stroke-linecap="round" stroke-linejoin="round"/>
<path opacity="0.5" d="M88.6923 0.678467H85.3203" stroke="black" stroke-width="0.259385" stroke-linecap="round" stroke-linejoin="round"/>
<path opacity="0.5" d="M85.3177 0.678467C85.2577 0.678467 85.1977 0.708467 85.1777 0.758467" stroke="black" stroke-width="0.259385" stroke-linecap="round" stroke-linejoin="round"/>
<path opacity="0.5" d="M85.1694 0.758179L84.7305 1.61614" stroke="black" stroke-width="0.259385" stroke-linecap="round" stroke-linejoin="round"/>
<path opacity="0.5" d="M84.7318 1.61609C84.7018 1.66609 84.6518 1.69609 84.5918 1.69609" stroke="black" stroke-width="0.259385" stroke-linecap="round" stroke-linejoin="round"/>
<path opacity="0.5" d="M96.7816 1.69592H95.9336" stroke="black" stroke-width="0.259385" stroke-linecap="round" stroke-linejoin="round"/>
<path opacity="0.5" d="M95.9349 1.69609C95.8749 1.69609 95.8249 1.66609 95.7949 1.61609" stroke="black" stroke-width="0.259385" stroke-linecap="round" stroke-linejoin="round"/>
<path opacity="0.5" d="M95.7944 1.61626L95.3555 0.758301" stroke="black" stroke-width="0.259385" stroke-linecap="round" stroke-linejoin="round"/>
<path opacity="0.5" d="M95.3568 0.758467C95.3268 0.708467 95.2768 0.678467 95.2168 0.678467" stroke="black" stroke-width="0.259385" stroke-linecap="round" stroke-linejoin="round"/>
<path opacity="0.5" d="M95.216 0.678467H91.834" stroke="black" stroke-width="0.259385" stroke-linecap="round" stroke-linejoin="round"/>
<path opacity="0.5" d="M91.8334 0.678467C91.7734 0.678467 91.7234 0.708467 91.6934 0.758467" stroke="black" stroke-width="0.259385" stroke-linecap="round" stroke-linejoin="round"/>
<path opacity="0.5" d="M91.6948 0.758301L91.2559 1.61626" stroke="black" stroke-width="0.259385" stroke-linecap="round" stroke-linejoin="round"/>
<path opacity="0.5" d="M91.2552 1.61609C91.2252 1.66609 91.1752 1.69609 91.1152 1.69609" stroke="black" stroke-width="0.259385" stroke-linecap="round" stroke-linejoin="round"/>
<path opacity="0.5" d="M110.889 96.6407H7.11523" stroke="black" stroke-width="0.259385" stroke-linecap="round" stroke-linejoin="round"/>
<path opacity="0.5" d="M7.11523 97.2493V4.75879" stroke="black" stroke-width="0.259385" stroke-linecap="round" stroke-linejoin="round"/>
<path opacity="0.5" d="M97.4508 6.16541H94.7871" stroke="black" stroke-width="0.259385" stroke-linecap="round" stroke-linejoin="round"/>
<path opacity="0.5" d="M97.4608 6.12549V11.6823H94.7871V6.12549" stroke="black" stroke-width="0.259385" stroke-linecap="round" stroke-linejoin="round"/>
<path opacity="0.5" d="M96.9816 6.78394H95.2656" stroke="black" stroke-width="0.259385" stroke-linecap="round" stroke-linejoin="round"/>
<path opacity="0.5" d="M95.2634 6.78394C95.1334 6.78394 95.0234 6.87394 95.0234 6.99394" stroke="black" stroke-width="0.259385" stroke-linecap="round" stroke-linejoin="round"/>
<path opacity="0.5" d="M95.0234 6.99341V11.0338" stroke="black" stroke-width="0.259385" stroke-linecap="round" stroke-linejoin="round"/>
<path opacity="0.5" d="M95.0234 11.0338C95.0234 11.1538 95.1334 11.2438 95.2634 11.2438" stroke="black" stroke-width="0.259385" stroke-linecap="round" stroke-linejoin="round"/>
<path opacity="0.5" d="M96.9824 11.2438C97.1124 11.2438 97.2224 11.1538 97.2224 11.0338" stroke="black" stroke-width="0.259385" stroke-linecap="round" stroke-linejoin="round"/>
<path opacity="0.5" d="M97.2109 11.0338V6.99341" stroke="black" stroke-width="0.259385" stroke-linecap="round" stroke-linejoin="round"/>
<path opacity="0.5" d="M97.2127 6.99394C97.2127 6.87394 97.1027 6.78394 96.9727 6.78394" stroke="black" stroke-width="0.259385" stroke-linecap="round" stroke-linejoin="round"/>
<path opacity="0.5" d="M97.2083 9.96643H95.0234" stroke="black" stroke-width="0.259385" stroke-linecap="round" stroke-linejoin="round"/>
<path opacity="0.5" d="M96.8926 6.44458C96.8926 6.50458 96.9526 6.55458 97.0126 6.55458" stroke="black" stroke-width="0.259385" stroke-linecap="round" stroke-linejoin="round"/>
<path opacity="0.5" d="M97.0117 6.55458C97.0817 6.55458 97.1317 6.50458 97.1317 6.44458" stroke="black" stroke-width="0.259385" stroke-linecap="round" stroke-linejoin="round"/>
<path opacity="0.5" d="M97.1317 6.44496C97.1317 6.38496 97.0717 6.33496 97.0117 6.33496" stroke="black" stroke-width="0.259385" stroke-linecap="round" stroke-linejoin="round"/>
<path opacity="0.5" d="M97.0126 6.33496C96.9426 6.33496 96.8926 6.38496 96.8926 6.44496" stroke="black" stroke-width="0.259385" stroke-linecap="round" stroke-linejoin="round"/>
<path opacity="0.5" d="M95.1055 6.44458C95.1055 6.50458 95.1655 6.55458 95.2255 6.55458" stroke="black" stroke-width="0.259385" stroke-linecap="round" stroke-linejoin="round"/>
<path opacity="0.5" d="M95.2266 6.55458C95.2966 6.55458 95.3466 6.50458 95.3466 6.44458" stroke="black" stroke-width="0.259385" stroke-linecap="round" stroke-linejoin="round"/>
<path opacity="0.5" d="M95.3466 6.44496C95.3466 6.38496 95.2866 6.33496 95.2266 6.33496" stroke="black" stroke-width="0.259385" stroke-linecap="round" stroke-linejoin="round"/>
<path opacity="0.5" d="M95.2255 6.33496C95.1555 6.33496 95.1055 6.38496 95.1055 6.44496" stroke="black" stroke-width="0.259385" stroke-linecap="round" stroke-linejoin="round"/>
<path opacity="0.5" d="M26.6576 3.94055H23.9141V95.214H26.6576V3.94055Z" stroke="black" stroke-width="0.259385" stroke-linecap="round" stroke-linejoin="round"/>
<path opacity="0.5" d="M37.5521 3.94055H34.8086V95.214H37.5521V3.94055Z" stroke="black" stroke-width="0.259385" stroke-linecap="round" stroke-linejoin="round"/>
<path opacity="0.5" d="M48.4564 3.94067H45.7129V95.2141H48.4564V3.94067Z" stroke="black" stroke-width="0.259385" stroke-linecap="round" stroke-linejoin="round"/>
<path opacity="0.5" d="M59.3509 3.94067H56.6074V95.2141H59.3509V3.94067Z" stroke="black" stroke-width="0.259385" stroke-linecap="round" stroke-linejoin="round"/>
<path opacity="0.5" d="M70.2435 3.94055H67.5V95.214H70.2435V3.94055Z" stroke="black" stroke-width="0.259385" stroke-linecap="round" stroke-linejoin="round"/>
<path opacity="0.5" d="M81.1497 3.94067H78.4062V95.2141H81.1497V3.94067Z" stroke="black" stroke-width="0.259385" stroke-linecap="round" stroke-linejoin="round"/>
<path opacity="0.5" d="M92.0423 3.94067H89.2988V95.2141H92.0423V3.94067Z" stroke="black" stroke-width="0.259385" stroke-linecap="round" stroke-linejoin="round"/>
<path opacity="0.5" d="M102.949 3.94067H100.205V95.2141H102.949V3.94067Z" stroke="black" stroke-width="0.259385" stroke-linecap="round" stroke-linejoin="round"/>
<path opacity="0.5" d="M117.881 4.75879V97.3092" stroke="#07070A" stroke-width="0.259385" stroke-linecap="round" stroke-linejoin="round"/>
<path opacity="0.5" d="M117.791 8.65942H116.225V11.8518H117.791V8.65942Z" stroke="black" stroke-width="0.259385" stroke-linecap="round" stroke-linejoin="round"/>
<path opacity="0.5" d="M117.004 11.8618V8.65942" stroke="black" stroke-width="0.259385" stroke-linecap="round" stroke-linejoin="round"/>
<path opacity="0.5" d="M117.832 35.8849H116.266V39.0773H117.832V35.8849Z" stroke="black" stroke-width="0.259385" stroke-linecap="round" stroke-linejoin="round"/>
<path opacity="0.5" d="M117.043 35.8849V39.0873" stroke="black" stroke-width="0.259385" stroke-linecap="round" stroke-linejoin="round"/>
<path opacity="0.5" d="M117.842 63.1102H116.275V66.3027H117.842V63.1102Z" stroke="black" stroke-width="0.259385" stroke-linecap="round" stroke-linejoin="round"/>
<path opacity="0.5" d="M117.053 63.1102L117.063 66.3027" stroke="black" stroke-width="0.259385" stroke-linecap="round" stroke-linejoin="round"/>
<path opacity="0.5" d="M117.883 90.3257H116.316V93.5181H117.883V90.3257Z" stroke="black" stroke-width="0.259385" stroke-linecap="round" stroke-linejoin="round"/>
<path opacity="0.5" d="M117.094 90.3257V93.5281" stroke="black" stroke-width="0.259385" stroke-linecap="round" stroke-linejoin="round"/>
<path opacity="0.5" d="M94.7969 6.16541H97.4606" stroke="black" stroke-width="0.259385" stroke-linecap="round" stroke-linejoin="round"/>
<path opacity="0.5" d="M94.7871 6.12549V11.6823H97.4608V6.12549" stroke="black" stroke-width="0.259385" stroke-linecap="round" stroke-linejoin="round"/>
<path opacity="0.5" d="M95.2656 6.78394H96.9816" stroke="black" stroke-width="0.259385" stroke-linecap="round" stroke-linejoin="round"/>
<path opacity="0.5" d="M96.9824 6.78394C97.1124 6.78394 97.2224 6.87394 97.2224 6.99394" stroke="black" stroke-width="0.259385" stroke-linecap="round" stroke-linejoin="round"/>
<path opacity="0.5" d="M97.2207 6.99341V11.0338" stroke="black" stroke-width="0.259385" stroke-linecap="round" stroke-linejoin="round"/>
<path opacity="0.5" d="M97.2224 11.0338C97.2224 11.1538 97.1124 11.2438 96.9824 11.2438" stroke="black" stroke-width="0.259385" stroke-linecap="round" stroke-linejoin="round"/>
<path opacity="0.5" d="M96.9816 11.2434H95.2656" stroke="black" stroke-width="0.259385" stroke-linecap="round" stroke-linejoin="round"/>
<path opacity="0.5" d="M95.2634 11.2438C95.1334 11.2438 95.0234 11.1538 95.0234 11.0338" stroke="black" stroke-width="0.259385" stroke-linecap="round" stroke-linejoin="round"/>
<path opacity="0.5" d="M95.0352 11.0338V6.99341" stroke="black" stroke-width="0.259385" stroke-linecap="round" stroke-linejoin="round"/>
<path opacity="0.5" d="M95.0352 6.99394C95.0352 6.87394 95.1452 6.78394 95.2752 6.78394" stroke="black" stroke-width="0.259385" stroke-linecap="round" stroke-linejoin="round"/>
<path opacity="0.5" d="M95.0352 9.96643H97.22" stroke="black" stroke-width="0.259385" stroke-linecap="round" stroke-linejoin="round"/>
<path opacity="0.5" d="M95.3563 6.44458C95.3563 6.50458 95.2963 6.55458 95.2363 6.55458" stroke="black" stroke-width="0.259385" stroke-linecap="round" stroke-linejoin="round"/>
<path opacity="0.5" d="M95.2372 6.55458C95.1672 6.55458 95.1172 6.50458 95.1172 6.44458" stroke="black" stroke-width="0.259385" stroke-linecap="round" stroke-linejoin="round"/>
<path opacity="0.5" d="M95.1172 6.44496C95.1172 6.38496 95.1772 6.33496 95.2372 6.33496" stroke="black" stroke-width="0.259385" stroke-linecap="round" stroke-linejoin="round"/>
<path opacity="0.5" d="M95.2363 6.33496C95.3063 6.33496 95.3563 6.38496 95.3563 6.44496" stroke="black" stroke-width="0.259385" stroke-linecap="round" stroke-linejoin="round"/>
<path opacity="0.5" d="M96.2548 11.4628C96.2548 11.5228 96.1948 11.5728 96.1348 11.5728" stroke="black" stroke-width="0.259385" stroke-linecap="round" stroke-linejoin="round"/>
<path opacity="0.5" d="M96.1239 11.5728C96.0539 11.5728 96.0039 11.5228 96.0039 11.4628" stroke="black" stroke-width="0.259385" stroke-linecap="round" stroke-linejoin="round"/>
<path opacity="0.5" d="M96.0039 11.4631C96.0039 11.4031 96.0639 11.3531 96.1239 11.3531" stroke="black" stroke-width="0.259385" stroke-linecap="round" stroke-linejoin="round"/>
<path opacity="0.5" d="M96.125 11.3531C96.195 11.3531 96.245 11.4031 96.245 11.4631" stroke="black" stroke-width="0.259385" stroke-linecap="round" stroke-linejoin="round"/>
<path opacity="0.5" d="M97.1415 6.44458C97.1415 6.50458 97.0915 6.55458 97.0215 6.55458" stroke="black" stroke-width="0.259385" stroke-linecap="round" stroke-linejoin="round"/>
<path opacity="0.5" d="M97.0223 6.55458C96.9523 6.55458 96.9023 6.50458 96.9023 6.44458" stroke="black" stroke-width="0.259385" stroke-linecap="round" stroke-linejoin="round"/>
<path opacity="0.5" d="M96.9023 6.44496C96.9023 6.38496 96.9523 6.33496 97.0223 6.33496" stroke="black" stroke-width="0.259385" stroke-linecap="round" stroke-linejoin="round"/>
<path opacity="0.5" d="M97.0215 6.33496C97.0915 6.33496 97.1415 6.38496 97.1415 6.44496" stroke="black" stroke-width="0.259385" stroke-linecap="round" stroke-linejoin="round"/>
<path opacity="0.5" d="M18.5059 6.16541H21.1695" stroke="black" stroke-width="0.259385" stroke-linecap="round" stroke-linejoin="round"/>
<path opacity="0.5" d="M18.4961 6.12549V11.6823H21.1697V6.12549" stroke="black" stroke-width="0.259385" stroke-linecap="round" stroke-linejoin="round"/>
<path opacity="0.5" d="M18.9766 6.78394H20.6925" stroke="black" stroke-width="0.259385" stroke-linecap="round" stroke-linejoin="round"/>
<path opacity="0.5" d="M20.6914 6.78394C20.8214 6.78394 20.9314 6.87394 20.9314 6.99394" stroke="black" stroke-width="0.259385" stroke-linecap="round" stroke-linejoin="round"/>
<path opacity="0.5" d="M20.9297 6.99341V11.0338" stroke="black" stroke-width="0.259385" stroke-linecap="round" stroke-linejoin="round"/>
<path opacity="0.5" d="M20.9314 11.0338C20.9314 11.1538 20.8214 11.2438 20.6914 11.2438" stroke="black" stroke-width="0.259385" stroke-linecap="round" stroke-linejoin="round"/>
<path opacity="0.5" d="M20.6925 11.2433H18.9766" stroke="black" stroke-width="0.259385" stroke-linecap="round" stroke-linejoin="round"/>
<path opacity="0.5" d="M18.9783 11.2438C18.8483 11.2438 18.7383 11.1538 18.7383 11.0338" stroke="black" stroke-width="0.259385" stroke-linecap="round" stroke-linejoin="round"/>
<path opacity="0.5" d="M18.748 11.0338V6.99341" stroke="black" stroke-width="0.259385" stroke-linecap="round" stroke-linejoin="round"/>
<path opacity="0.5" d="M18.748 6.99394C18.748 6.87394 18.858 6.78394 18.988 6.78394" stroke="black" stroke-width="0.259385" stroke-linecap="round" stroke-linejoin="round"/>
<path opacity="0.5" d="M18.748 9.96643H20.9329" stroke="black" stroke-width="0.259385" stroke-linecap="round" stroke-linejoin="round"/>
<path opacity="0.5" d="M19.0653 6.4447C19.0653 6.5047 19.0053 6.5547 18.9453 6.5547" stroke="black" stroke-width="0.259385" stroke-linecap="round" stroke-linejoin="round"/>
<path opacity="0.5" d="M18.9481 6.55458C18.8781 6.55458 18.8281 6.50458 18.8281 6.44458" stroke="black" stroke-width="0.259385" stroke-linecap="round" stroke-linejoin="round"/>
<path opacity="0.5" d="M18.8281 6.44496C18.8281 6.38496 18.8881 6.33496 18.9481 6.33496" stroke="black" stroke-width="0.259385" stroke-linecap="round" stroke-linejoin="round"/>
<path opacity="0.5" d="M18.9453 6.33496C19.0153 6.33496 19.0653 6.38496 19.0653 6.44496" stroke="black" stroke-width="0.259385" stroke-linecap="round" stroke-linejoin="round"/>
<path opacity="0.5" d="M19.9638 11.4628C19.9638 11.5228 19.9037 11.5728 19.8438 11.5728" stroke="black" stroke-width="0.259385" stroke-linecap="round" stroke-linejoin="round"/>
<path opacity="0.5" d="M19.8348 11.5728C19.7648 11.5728 19.7148 11.5228 19.7148 11.4628" stroke="black" stroke-width="0.259385" stroke-linecap="round" stroke-linejoin="round"/>
<path opacity="0.5" d="M19.7148 11.463C19.7148 11.403 19.7748 11.353 19.8348 11.353" stroke="black" stroke-width="0.259385" stroke-linecap="round" stroke-linejoin="round"/>
<path opacity="0.5" d="M19.834 11.353C19.904 11.353 19.954 11.403 19.954 11.463" stroke="black" stroke-width="0.259385" stroke-linecap="round" stroke-linejoin="round"/>
<path opacity="0.5" d="M20.8622 6.44458C20.8622 6.50458 20.8122 6.55458 20.7422 6.55458" stroke="black" stroke-width="0.259385" stroke-linecap="round" stroke-linejoin="round"/>
<path opacity="0.5" d="M20.7313 6.5547C20.6613 6.5547 20.6113 6.5047 20.6113 6.4447" stroke="black" stroke-width="0.259385" stroke-linecap="round" stroke-linejoin="round"/>
<path opacity="0.5" d="M20.6113 6.44496C20.6113 6.38496 20.6613 6.33496 20.7313 6.33496" stroke="black" stroke-width="0.259385" stroke-linecap="round" stroke-linejoin="round"/>
<path opacity="0.5" d="M20.7324 6.33496C20.8024 6.33496 20.8524 6.38496 20.8524 6.44496" stroke="black" stroke-width="0.259385" stroke-linecap="round" stroke-linejoin="round"/>
<path opacity="0.5" d="M110.889 4.75879V95.2142" stroke="black" stroke-width="0.708319" stroke-linecap="round" stroke-linejoin="round"/>
</g>
<defs>
<clipPath id="clip0_592_3803">
<rect width="118" height="102.018" fill="white"/>
</clipPath>
</defs>
</svg>
