<svg width="30" height="5" viewBox="0 0 30 5" fill="none" xmlns="http://www.w3.org/2000/svg">
<g clip-path="url(#clip0_1603_18)">
<rect width="29.49" height="4.95" fill="white"/>
<path d="M25.2 3.32988H4.29V3.24988V3.01988C4.29 2.99988 4.27 2.97988 4.25 2.97988H2.75V0.249883C2.75 0.179883 2.69 0.129883 2.63 0.129883H0.520005C0.520005 0.129883 0.460005 0.159883 0.460005 0.189883V0.509883C0.460005 0.509883 0.460005 0.529883 0.440005 0.529883H0.250005C0.250005 0.529883 0.230005 0.529883 0.230005 0.509883V0.349883C0.230005 0.349883 0.230005 0.329883 0.250005 0.329883H0.270005V0.289883L0.230005 0.209883H0.190005C0.190005 0.209883 0.130005 0.239883 0.130005 0.269883V4.38988C0.130005 4.44988 0.170005 4.48988 0.230005 4.48988H1.25L1.37 4.55988L1.67 4.79988C1.67 4.79988 1.7 4.80988 1.72 4.80988H3.35C3.35 4.80988 3.37 4.80988 3.37 4.78988H3.39001H4.29V4.39988H25.2V4.78988H26.1H26.12C26.12 4.78988 26.13 4.80988 26.14 4.80988H27.77C27.77 4.80988 27.8 4.80988 27.82 4.79988L28.12 4.55988L28.21 4.48988H29.25C29.31 4.48988 29.35 4.44988 29.35 4.38988V0.279883C29.35 0.279883 29.32 0.219883 29.29 0.219883H29.25L29.21 0.299883V0.339883H29.23C29.23 0.339883 29.25 0.339883 29.25 0.359883V0.519883C29.25 0.519883 29.25 0.539883 29.23 0.539883H29.04C29.04 0.539883 29.02 0.539883 29.02 0.519883V0.189883C29.02 0.189883 28.99 0.129883 28.96 0.129883H26.85C26.78 0.129883 26.73 0.189883 26.73 0.249883V2.97988H25.23C25.23 2.97988 25.19 2.99988 25.19 3.01988V3.35988" fill="white"/>
<path d="M25.45 3.23975V3.32975" stroke="#010101" stroke-width="0.25" stroke-miterlimit="10"/>
<path d="M26.25 4.71992L26.23 4.69992H26.11V4.80992H25.21V4.41992H25.31V4.70992H26.05V4.67992C26.05 4.64992 26.08 4.62992 26.11 4.63992H26.25L26.39 4.51992C26.4 4.50992 26.42 4.50992 26.43 4.51992C26.44 4.52992 26.44 4.54992 26.43 4.55992L26.25 4.72992V4.71992Z" stroke="#010101" stroke-width="0.25" stroke-miterlimit="10"/>
<path d="M26 3.25977V4.42977" stroke="#010101" stroke-width="0.25" stroke-miterlimit="10"/>
<path d="M25.95 4.43994H26.01" stroke="#010101" stroke-width="0.25" stroke-miterlimit="10"/>
<path d="M26.1 3.25977H25.95" stroke="#010101" stroke-width="0.25" stroke-miterlimit="10"/>
<path d="M25.39 4.15004C25.39 4.15004 25.42 4.21004 25.45 4.21004H25.76C25.76 4.21004 25.83 4.18004 25.83 4.14004V3.61004C25.83 3.61004 25.8 3.54004 25.76 3.54004H25.45C25.45 3.54004 25.39 3.57004 25.39 3.60004V3.65004H25.4V3.60004L25.44 3.56004H25.75C25.75 3.56004 25.81 3.59004 25.81 3.62004V4.15004C25.81 4.15004 25.78 4.21004 25.75 4.21004H25.44L25.4 4.17004V4.12004H25.39V4.17004V4.15004Z" stroke="#010101" stroke-width="0.25" stroke-miterlimit="10"/>
<path d="M3.20002 3.56H3.19002C3.19002 3.56 3.13002 3.63 3.15002 3.67C3.17002 3.71 3.21002 3.73 3.24002 3.71C3.28002 3.7 3.30002 3.65 3.28002 3.62C3.28002 3.62 3.28002 3.61 3.28002 3.6V3.58L3.29002 3.53C3.29002 3.52 3.29002 3.51 3.28002 3.5H3.25002C3.25002 3.5 3.23002 3.5 3.22002 3.5V3.55L3.20002 3.56Z" stroke="#010101" stroke-width="0.25" stroke-miterlimit="10"/>
<path d="M4.01001 4.20996V4.24996" stroke="#010101" stroke-width="0.25" stroke-miterlimit="10"/>
<path d="M3.62 4.24977V3.50977" stroke="#010101" stroke-width="0.25" stroke-miterlimit="10"/>
<path d="M28.03 4.51998H27.65C27.65 4.51998 27.63 4.51998 27.63 4.49998V4.04998C27.63 3.99998 27.6 3.94998 27.55 3.92998L27.12 3.77998V3.75998L27.11 3.35998C27.11 3.34998 27.11 3.33998 27.13 3.33998H27.79C27.79 3.33998 27.81 3.33998 27.81 3.31998V3.27998L27.72 3.11998H27.7L27.66 3.10998L27.64 3.12998V3.15998L27.67 3.18998V3.23998H26.87C26.87 3.23998 26.85 3.23998 26.85 3.25998C26.85 3.25998 26.85 3.29998 26.83 3.29998H26.76C26.76 3.29998 26.74 3.29998 26.74 3.27998V3.07998C26.74 3.07998 26.76 3.07998 26.76 3.05998V2.99998C26.76 2.99998 26.76 2.97998 26.74 2.97998H25.27C25.27 2.97998 25.23 2.99998 25.23 3.01998V3.24998C25.23 3.24998 25.23 3.26998 25.25 3.26998H25.28C25.28 3.26998 25.3 3.26998 25.3 3.24998L26.11 3.23998C26.12 3.23998 26.13 3.23998 26.13 3.25998V4.36998C26.13 4.43998 26.19 4.48998 26.25 4.48998H26.45C26.45 4.48998 26.49 4.50998 26.49 4.52998V4.66998C26.49 4.66998 26.47 4.70998 26.45 4.70998H26.23C26.23 4.70998 26.19 4.66998 26.17 4.67998C26.16 4.67998 26.15 4.69998 26.15 4.71998V4.78998C26.15 4.78998 26.15 4.80998 26.17 4.80998H27.8C27.8 4.80998 27.83 4.80998 27.85 4.79998L28.15 4.55998V4.53998H28.16C28.16 4.52998 28.16 4.51998 28.14 4.51998H28.05H28.03Z" stroke="#010101" stroke-width="0.25" stroke-miterlimit="10"/>
<path d="M4.01001 3.5V3.54" stroke="#010101" stroke-width="0.25" stroke-miterlimit="10"/>
<path d="M26.29 3.56H26.3C26.3 3.56 26.36 3.63 26.34 3.67C26.32 3.71 26.28 3.73 26.25 3.71C26.22 3.69 26.19 3.65 26.21 3.62C26.21 3.62 26.21 3.61 26.21 3.6V3.58L26.2 3.53C26.2 3.52 26.2 3.51 26.21 3.5H26.24C26.24 3.5 26.26 3.5 26.27 3.5V3.55L26.29 3.56Z" stroke="#010101" stroke-width="0.25" stroke-miterlimit="10"/>
<path d="M3.39001 3.25977H3.54001" stroke="#010101" stroke-width="0.25" stroke-miterlimit="10"/>
<path d="M26.01 4.4401L26.1 4.3501" stroke="#010101" stroke-width="0.25" stroke-miterlimit="10"/>
<path d="M2.41002 3.87984L1.98002 4.02984V4.04984L1.97002 4.57984V4.63984L1.96002 4.69984C1.96002 4.70984 1.96002 4.71984 1.98002 4.71984H2.91002C2.91002 4.71984 2.93002 4.71984 2.93002 4.69984V4.53984C2.93002 4.45984 2.99002 4.39984 3.07002 4.39984H3.27002C3.27002 4.39984 3.29002 4.39984 3.29002 4.37984V3.80984V3.78984H3.27002C3.19002 3.80984 3.11002 3.76984 3.09002 3.68984C3.07002 3.62984 3.09002 3.55984 3.15002 3.52984V3.49984C3.16002 3.44984 3.21002 3.41984 3.26002 3.43984H3.28002V3.41984V3.26984C3.28002 3.21984 3.31002 3.16984 3.37002 3.14984L3.39002 3.12984V3.10984C3.39002 3.10984 3.39002 3.08984 3.37002 3.08984H2.90002C2.90002 3.08984 2.88002 3.08984 2.88002 3.10984V3.27984C2.88002 3.34984 2.82002 3.39984 2.76002 3.39984H2.69002C2.69002 3.39984 2.61002 3.37984 2.59002 3.34984H2.57002H2.52002C2.51002 3.34984 2.50002 3.34984 2.50002 3.36984V3.76984C2.50002 3.81984 2.47002 3.86984 2.42002 3.88984" stroke="#010101" stroke-width="0.25" stroke-miterlimit="10"/>
<path d="M25.95 3.25977V4.42977" stroke="#010101" stroke-width="0.25" stroke-miterlimit="10"/>
<path d="M25.48 4.20996V4.24996" stroke="#010101" stroke-width="0.25" stroke-miterlimit="10"/>
<path d="M4.04004 3.23975V3.32975" stroke="#010101" stroke-width="0.25" stroke-miterlimit="10"/>
<path d="M3.23999 4.71992L3.25999 4.69992H3.37999V4.80992H4.27999V4.41992H4.17999V4.70992H3.43999V4.67992C3.43999 4.64992 3.40999 4.62992 3.37999 4.63992H3.23999L3.09999 4.51992C3.08999 4.50992 3.06999 4.50992 3.05999 4.51992C3.04999 4.52992 3.04999 4.54992 3.05999 4.55992L3.23999 4.72992V4.71992Z" stroke="#010101" stroke-width="0.25" stroke-miterlimit="10"/>
<path d="M25.48 3.5V3.54" stroke="#010101" stroke-width="0.25" stroke-miterlimit="10"/>
<path d="M3.48999 3.25977V4.42977" stroke="#010101" stroke-width="0.25" stroke-miterlimit="10"/>
<path d="M3.54004 4.43994H3.48004" stroke="#010101" stroke-width="0.25" stroke-miterlimit="10"/>
<path d="M25.81 4.14012C25.81 4.14012 25.74 4.11012 25.74 4.07012V3.69012C25.74 3.69012 25.77 3.62012 25.81 3.62012" stroke="#010101" stroke-width="0.25" stroke-miterlimit="10"/>
<path d="M3.54004 3.25977V4.42977" stroke="#010101" stroke-width="0.25" stroke-miterlimit="10"/>
<path d="M3.48001 4.4401L3.39001 4.3501" stroke="#010101" stroke-width="0.25" stroke-miterlimit="10"/>
<path d="M4.10003 4.15004C4.10003 4.15004 4.07003 4.21004 4.04003 4.21004H3.73003C3.73003 4.21004 3.66003 4.18004 3.66003 4.14004V3.61004C3.66003 3.61004 3.69003 3.54004 3.73003 3.54004H4.04003C4.04003 3.54004 4.10003 3.57004 4.10003 3.60004V3.65004H4.09003V3.60004L4.05003 3.56004H3.74003C3.74003 3.56004 3.68003 3.59004 3.68003 3.62004V4.15004C3.68003 4.15004 3.71003 4.21004 3.74003 4.21004H4.05003L4.09003 4.17004V4.12004H4.10003V4.17004V4.15004Z" stroke="#010101" stroke-width="0.25" stroke-miterlimit="10"/>
<path d="M1.46002 4.51998H1.84002C1.84002 4.51998 1.86002 4.51998 1.86002 4.49998V4.04998C1.86002 3.99998 1.89002 3.94998 1.94002 3.92998L2.37002 3.77998V3.75998L2.38002 3.35998C2.38002 3.34998 2.38002 3.33998 2.36002 3.33998H1.70002C1.70002 3.33998 1.68002 3.33998 1.68002 3.31998V3.27998L1.77002 3.11998H1.79002L1.83002 3.10998L1.85002 3.12998V3.15998L1.82002 3.18998V3.23998H2.62002C2.62002 3.23998 2.64002 3.23998 2.64002 3.25998C2.64002 3.25998 2.64002 3.29998 2.66002 3.29998H2.73002C2.73002 3.29998 2.75002 3.29998 2.75002 3.27998V3.07998C2.75002 3.07998 2.73002 3.07998 2.73002 3.05998V2.99998C2.73002 2.99998 2.73002 2.97998 2.75002 2.97998H4.22002C4.22002 2.97998 4.26002 2.99998 4.26002 3.01998V3.24998C4.26002 3.24998 4.26002 3.26998 4.24002 3.26998H4.21002C4.21002 3.26998 4.19002 3.26998 4.19002 3.24998L3.38002 3.23998C3.37002 3.23998 3.36002 3.23998 3.36002 3.25998V4.36998C3.36002 4.43998 3.30002 4.48998 3.24002 4.48998H3.04002C3.04002 4.48998 3.00002 4.50998 3.00002 4.52998V4.66998C3.00002 4.66998 3.02002 4.70998 3.04002 4.70998H3.26002C3.26002 4.70998 3.30002 4.66998 3.32002 4.67998C3.33002 4.67998 3.34002 4.69998 3.34002 4.71998V4.78998C3.34002 4.78998 3.34002 4.80998 3.32002 4.80998H1.69002C1.69002 4.80998 1.66002 4.80998 1.64002 4.79998L1.34002 4.55998V4.53998H1.33002C1.33002 4.52998 1.33002 4.51998 1.35002 4.51998H1.44002H1.46002Z" stroke="#010101" stroke-width="0.25" stroke-miterlimit="10"/>
<path d="M27.08 3.8801L27.51 4.0301V4.0501L27.52 4.5801V4.6401L27.53 4.7001C27.53 4.7101 27.53 4.7201 27.51 4.7201H26.58C26.58 4.7201 26.56 4.7201 26.56 4.7001V4.5401C26.56 4.4601 26.5 4.4001 26.42 4.4001H26.22C26.22 4.4001 26.2 4.4001 26.2 4.3801V3.7901H26.23C26.31 3.8101 26.39 3.7701 26.41 3.7001C26.43 3.6401 26.41 3.5701 26.35 3.5401V3.5101C26.34 3.4601 26.29 3.4301 26.24 3.4501H26.22V3.4301V3.2801C26.22 3.2301 26.19 3.1801 26.13 3.1601L26.11 3.1401V3.1201C26.11 3.1201 26.11 3.1001 26.13 3.1001H26.6C26.6 3.1001 26.62 3.1001 26.62 3.1201V3.2901C26.62 3.3601 26.68 3.4101 26.74 3.4101H26.81C26.81 3.4101 26.89 3.3901 26.91 3.3601H26.93H26.98C26.99 3.3601 27 3.3601 27 3.3801V3.7801C27 3.8301 27.03 3.8801 27.08 3.9001" stroke="#010101" stroke-width="0.25" stroke-miterlimit="10"/>
<path d="M25.87 4.24977V3.50977" stroke="#010101" stroke-width="0.25" stroke-miterlimit="10"/>
<path d="M3.67999 4.14012C3.67999 4.14012 3.74999 4.11012 3.74999 4.07012V3.69012C3.74999 3.69012 3.71999 3.62012 3.67999 3.62012" stroke="#010101" stroke-width="0.25" stroke-miterlimit="10"/>
<path d="M25.92 4.42V4.25H3.57001V4.42H25.93H25.92Z" stroke="#010101" stroke-width="0.25" stroke-miterlimit="10"/>
<path d="M25.92 3.50008V3.33008H3.57001V3.50008H25.93H25.92Z" stroke="#010101" stroke-width="0.25" stroke-miterlimit="10"/>
<path d="M4.28998 3.25977V3.50977" stroke="#010101" stroke-width="0.25" stroke-miterlimit="10"/>
<path d="M0.229995 0.219883L0.269995 0.299883V0.339883H0.249995C0.249995 0.339883 0.229995 0.339883 0.229995 0.359883V0.519883C0.229995 0.519883 0.229995 0.539883 0.249995 0.539883H0.439995C0.439995 0.539883 0.459995 0.539883 0.459995 0.519883V0.189883C0.459995 0.189883 0.489995 0.129883 0.519995 0.129883H2.63C2.7 0.129883 2.75 0.189883 2.75 0.249883V3.25988C2.75 3.25988 2.75 3.27988 2.73 3.27988H2.7C2.7 3.27988 2.68 3.27988 2.68 3.25988L1.85 3.24988V3.20988L1.91 3.14988V3.11988C1.91 3.11988 1.91 3.09988 1.89 3.09988H1.72C1.72 3.09988 1.68 3.11988 1.68 3.13988V4.39988C1.68 4.45988 1.64 4.49988 1.58 4.49988H0.219995C0.159995 4.49988 0.119995 4.45988 0.119995 4.39988V0.279883C0.119995 0.279883 0.149995 0.219883 0.179995 0.219883H0.219995H0.229995Z" stroke="#010101" stroke-width="0.25" stroke-miterlimit="10"/>
<path d="M4.29001 4.25H3.57001V4.42H4.29001" stroke="#010101" stroke-width="0.25" stroke-miterlimit="10"/>
<path d="M4.29001 3.33008H3.57001V3.50008H4.29001" stroke="#010101" stroke-width="0.25" stroke-miterlimit="10"/>
<path d="M25.2 3.33008H25.92V3.50008H25.2" stroke="#010101" stroke-width="0.25" stroke-miterlimit="10"/>
<path d="M25.2 4.25H25.92V4.42H25.2" stroke="#010101" stroke-width="0.25" stroke-miterlimit="10"/>
<path d="M29.26 0.219883L29.22 0.299883V0.339883H29.24C29.24 0.339883 29.26 0.339883 29.26 0.359883V0.519883C29.26 0.519883 29.26 0.539883 29.24 0.539883H29.05C29.05 0.539883 29.03 0.539883 29.03 0.519883V0.189883C29.03 0.189883 29 0.129883 28.97 0.129883H26.86C26.79 0.129883 26.74 0.189883 26.74 0.249883V3.25988C26.74 3.25988 26.74 3.27988 26.76 3.27988H26.79C26.79 3.27988 26.81 3.27988 26.81 3.25988L27.64 3.24988V3.20988L27.58 3.14988V3.11988C27.58 3.11988 27.58 3.09988 27.6 3.09988H27.77C27.77 3.09988 27.81 3.11988 27.81 3.13988V4.39988C27.81 4.45988 27.85 4.49988 27.91 4.49988H29.25C29.31 4.49988 29.35 4.45988 29.35 4.39988V0.279883C29.35 0.279883 29.32 0.219883 29.29 0.219883H29.25H29.26Z" stroke="#010101" stroke-width="0.25" stroke-miterlimit="10"/>
</g>
<defs>
<clipPath id="clip0_1603_18">
<rect width="29.49" height="4.95" fill="white"/>
</clipPath>
</defs>
</svg>
