<svg width="36" height="5" viewBox="0 0 36 5" fill="none" xmlns="http://www.w3.org/2000/svg">
<g clip-path="url(#clip0_1603_220)">
<rect width="35.49" height="4.95" fill="white"/>
<path d="M32.11 2.26988C32.11 2.26988 32.12 2.28988 32.13 2.28988H32.94V2.42988H32.82C32.82 2.42988 32.78 2.39988 32.76 2.41988C32.76 2.41988 32.75 2.43988 32.75 2.44988V3.05988C32.75 3.05988 32.75 3.07988 32.77 3.07988H32.8C32.8 3.07988 32.82 3.07988 32.82 3.05988L33.65 3.04988V3.00988L33.59 2.94988V2.91988C33.59 2.91988 33.59 2.89988 33.61 2.89988H33.78C33.78 2.89988 33.82 2.91988 33.82 2.93988V3.17988C33.82 3.17988 33.81 3.15988 33.79 3.15988H32.88C32.88 3.15988 32.85 3.15988 32.85 3.17988V3.41988H32.75C32.75 3.41988 32.72 3.41988 32.72 3.43988V3.69988C32.72 3.69988 32.73 3.71988 32.75 3.71988H32.78C32.78 3.71988 32.81 3.71988 32.81 3.69988V3.61988H32.78V3.45988H32.98V3.68988C32.98 3.68988 32.99 3.70988 33.01 3.70988H33.79C33.79 3.70988 33.82 3.70988 33.82 3.68988V3.70988C33.82 3.70988 33.8 3.74988 33.78 3.74988H33.67C33.67 3.74988 33.64 3.75988 33.64 3.77988V4.15988C33.64 4.22988 33.7 4.27988 33.76 4.27988H33.96C33.96 4.27988 34 4.29988 34 4.31988V4.59988L33.98 4.63988H33.94L33.74 4.53988V4.51988H33.73C33.73 4.49988 33.71 4.47988 33.69 4.47988C33.67 4.47988 33.65 4.49988 33.65 4.51988V4.60988L34.01 4.78988H34.02H35.03H35.04H35.05H35.31C35.33 4.78988 35.35 4.76988 35.35 4.74988H35.34H35.32L35.29 4.70988H35.33C35.33 4.70988 35.35 4.69988 35.35 4.67988V2.83988V2.18988C35.35 2.11988 35.29 2.06988 35.23 2.06988H35.05C35.05 2.06988 35.03 2.06988 35.03 2.04988V1.36988C35.03 1.36988 35.03 1.34988 35.05 1.34988H35.23C35.3 1.34988 35.35 1.28988 35.35 1.22988V0.239883C35.35 0.239883 35.35 0.219883 35.33 0.219883H35.26L35.22 0.299883V0.339883H35.24C35.24 0.339883 35.26 0.339883 35.26 0.359883V0.519883C35.26 0.519883 35.26 0.539883 35.24 0.539883H35.05C35.05 0.539883 35.03 0.539883 35.03 0.519883V0.149883C35.03 0.149883 35.03 0.129883 35.01 0.129883H32.93C32.93 0.129883 32.89 0.139883 32.89 0.159883L32.83 0.389883C32.83 0.389883 32.85 0.449883 32.87 0.449883H31.24C31.24 0.449883 31.2 0.469883 31.2 0.489883V0.799883H18.73V0.489883C18.73 0.489883 18.71 0.449883 18.69 0.449883H16.66C16.61 0.449883 16.57 0.489883 16.57 0.539883V0.629883C16.57 0.679883 16.61 0.719883 16.66 0.719883H16.86C16.86 0.719883 16.88 0.719883 16.88 0.739883V1.64988C16.88 1.64988 16.88 1.66988 16.86 1.66988H16.66C16.61 1.66988 16.57 1.70988 16.57 1.75988V2.16988C16.57 2.22988 16.62 2.26988 16.67 2.26988H16.74C16.73 2.32988 16.69 2.37988 16.64 2.40988H17C17 2.40988 16.95 2.36988 16.93 2.33988H17.86V2.87988H17.71C17.71 2.87988 17.73 2.85988 17.73 2.84988V2.78988C17.73 2.78988 17.73 2.76988 17.71 2.76988H16.24C16.24 2.76988 16.2 2.78988 16.2 2.80988V3.11988H4.28V2.80988C4.28 2.80988 4.26 2.76988 4.24 2.76988H2.77C2.77 2.76988 2.75 2.76988 2.75 2.78988V2.42988C2.75 2.42988 2.73 2.38988 2.71 2.38988C2.7 2.38988 2.69001 2.38988 2.68001 2.39988H2.66001H1.71L1.61 2.33988H1.57V2.39988H1.48C1.48 2.39988 1.39 2.35988 1.39 2.30988V0.499883C1.39 0.499883 1.43 0.409883 1.48 0.409883H1.57V0.469883H1.61L1.71 0.409883H2.41001C2.41001 0.409883 2.41001 0.439883 2.43001 0.439883H2.62C2.62 0.439883 2.66001 0.419883 2.66001 0.399883L2.6 0.159883C2.6 0.139883 2.58 0.129883 2.56 0.129883H0.470005C0.470005 0.129883 0.450005 0.129883 0.450005 0.149883V0.509883C0.450005 0.509883 0.450005 0.529883 0.430005 0.529883H0.240005C0.240005 0.529883 0.220005 0.529883 0.220005 0.509883V0.349883C0.220005 0.349883 0.220005 0.329883 0.240005 0.329883H0.260005V0.289883L0.220005 0.209883H0.150005C0.150005 0.209883 0.130005 0.209883 0.130005 0.229883V1.23988C0.130005 1.30988 0.190005 1.35988 0.250005 1.35988H0.430005C0.430005 1.35988 0.450005 1.35988 0.450005 1.37988V2.05988C0.450005 2.05988 0.450005 2.07988 0.430005 2.07988H0.250005C0.180005 2.07988 0.130005 2.13988 0.130005 2.19988V4.68988C0.130005 4.68988 0.130005 4.70988 0.150005 4.70988H0.190005L0.160005 4.74988H0.140005H0.130005C0.130005 4.74988 0.150005 4.79988 0.170005 4.79988H0.440005H0.450005H1.46H1.47L1.82 4.61988V4.59988H1.83C1.83 4.59988 1.84 4.60988 1.85 4.60988H3.34C3.34 4.60988 3.36 4.60988 3.36 4.58988H4.26V4.19988H16.18V4.58988H17.08C17.08 4.58988 17.09 4.60988 17.1 4.60988H18.59C18.59 4.60988 18.61 4.60988 18.61 4.58988V4.49988C18.61 4.49988 18.61 4.47988 18.63 4.47988H18.69C18.69 4.47988 18.71 4.47988 18.71 4.49988V4.53988H18.75L18.93 4.43988V4.41988H18.94C18.94 4.40988 18.94 4.39988 18.92 4.39988H18.82L18.78 4.41988H18.76L18.69 4.39988H18.62C18.62 4.39988 18.6 4.39988 18.6 4.37988V3.84988C18.6 3.79988 18.57 3.74988 18.52 3.72988H18.49L19.23 3.71988C19.24 3.71988 19.26 3.71988 19.26 3.69988V3.46988H19.46V3.62988H19.43V3.70988C19.43 3.70988 19.44 3.72988 19.46 3.72988H19.49C19.49 3.72988 19.52 3.72988 19.52 3.70988V3.44988C19.52 3.44988 19.51 3.42988 19.49 3.42988H19.39V3.18988C19.39 3.18988 19.38 3.16988 19.36 3.16988H18.78V3.08988L18.69 2.92988H18.67L18.63 2.91988L18.61 2.93988V2.96988L18.64 2.99988V3.04988H17.96V2.27988V2.25988H18.72V1.86988H31.19V2.25988H32.09L32.11 2.26988Z" fill="white"/>
<path d="M18.0699 1.70973V0.969727" stroke="#010101" stroke-width="0.25" stroke-miterlimit="10"/>
<path d="M17.8201 0.609805L17.8401 0.589805V0.569805C17.8401 0.569805 17.8401 0.549805 17.8201 0.549805H16.7001C16.7001 0.549805 16.6801 0.549805 16.6801 0.569805V0.609805C16.6801 0.609805 16.6801 0.629805 16.7001 0.629805H16.8701C16.9401 0.629805 16.9901 0.689805 16.9901 0.749805V1.6598C16.9901 1.7298 16.9301 1.7798 16.8701 1.7798H16.7001C16.7001 1.7798 16.6801 1.7798 16.6801 1.7998V2.0198C16.6801 2.0198 16.6801 2.0398 16.7001 2.0398H16.9801C17.0401 2.0398 17.0801 2.0898 17.0801 2.1398V2.1598C17.0801 2.1598 17.0801 2.1798 17.1001 2.1798H17.3501C17.3501 2.1798 17.3701 2.1798 17.3701 2.1598V1.9998C17.3701 1.9198 17.4301 1.8598 17.5101 1.8598H17.7101C17.7101 1.8598 17.7301 1.8598 17.7301 1.8398V0.729805C17.7301 0.679805 17.7601 0.629805 17.8201 0.609805Z" stroke="#010101" stroke-width="0.25" stroke-miterlimit="10"/>
<path d="M18.46 1.66992V1.70992" stroke="#010101" stroke-width="0.25" stroke-miterlimit="10"/>
<path d="M16.28 3.0698L17.09 3.0598C17.1 3.0598 17.11 3.0598 17.11 3.0798V4.1898C17.11 4.2598 17.17 4.3098 17.23 4.3098H17.43C17.43 4.3098 17.47 4.3298 17.47 4.3498V4.4898C17.47 4.4898 17.45 4.5298 17.43 4.5298H17.19C17.19 4.5298 17.15 4.4898 17.13 4.4998C17.12 4.4998 17.11 4.5198 17.11 4.5398V4.6098C17.11 4.6098 17.11 4.6298 17.13 4.6298H18.62C18.62 4.6298 18.64 4.6298 18.64 4.6098V4.5198C18.64 4.5198 18.64 4.4998 18.66 4.4998H18.72C18.72 4.4998 18.74 4.4998 18.74 4.5198V4.5598H18.78L18.96 4.4598V4.4398H18.97C18.97 4.4298 18.97 4.4198 18.95 4.4198H18.85L18.81 4.4398H18.79L18.72 4.4198H18.65C18.65 4.4198 18.63 4.4198 18.63 4.3998V3.8698C18.63 3.8198 18.6 3.7698 18.55 3.7498L18.12 3.5998V3.5798L18.11 3.1798C18.11 3.1698 18.11 3.1598 18.13 3.1598H18.79C18.79 3.1598 18.81 3.1598 18.81 3.1398V3.0998L18.72 2.9398H18.7L18.66 2.9298L18.64 2.9498V2.9798L18.67 3.0098V3.0598H17.87C17.87 3.0598 17.85 3.0598 17.85 3.0798C17.85 3.0798 17.85 3.1198 17.83 3.1198H17.76C17.76 3.1198 17.74 3.1198 17.74 3.0998V2.8998C17.74 2.8998 17.76 2.8998 17.76 2.8798V2.8198C17.76 2.8198 17.76 2.7998 17.74 2.7998H16.27C16.27 2.7998 16.23 2.8198 16.23 2.8398V3.0698C16.23 3.0698 16.23 3.0898 16.25 3.0898H16.28C16.28 3.0898 16.3 3.0898 16.3 3.0698" stroke="#010101" stroke-width="0.25" stroke-miterlimit="10"/>
<path d="M16.46 3.1398V3.0498" stroke="#010101" stroke-width="0.25" stroke-miterlimit="10"/>
<path d="M18.46 0.959961V0.999961" stroke="#010101" stroke-width="0.25" stroke-miterlimit="10"/>
<path d="M16.4 3.95967V3.90967" stroke="#010101" stroke-width="0.25" stroke-miterlimit="10"/>
<path d="M0.219951 4.72967H0.389951L0.429951 4.78967H0.439951V4.73967H0.449951V4.42967C0.449951 4.42967 0.449951 4.40967 0.429951 4.40967H0.219951C0.219951 4.40967 0.199951 4.40967 0.199951 4.42967H0.209951V4.59967C0.209951 4.59967 0.209951 4.61967 0.229951 4.61967H0.259951V4.65967L0.219951 4.73967V4.72967Z" stroke="#010101" stroke-width="0.25" stroke-miterlimit="10"/>
<path d="M0.229971 2.93971C0.229971 2.93971 0.229971 2.95971 0.249971 2.95971H0.469971C0.469971 2.95971 0.489971 2.95971 0.489971 2.93971V2.19971H0.459971H0.419971H0.239971C0.229971 2.19971 0.219971 2.19971 0.219971 2.21971H0.229971V2.93971Z" stroke="#010101" stroke-width="0.25" stroke-miterlimit="10"/>
<path d="M0.46998 4.31979C0.46998 4.31979 0.48998 4.31979 0.48998 4.29979V3.79979C0.48998 3.79979 0.48998 3.77979 0.46998 3.77979H0.24998C0.24998 3.77979 0.22998 3.77979 0.22998 3.79979V4.29979C0.22998 4.29979 0.22998 4.31979 0.24998 4.31979H0.46998Z" stroke="#010101" stroke-width="0.25" stroke-miterlimit="10"/>
<path d="M2.77003 2.89006V3.09006C2.77003 3.09006 2.77003 3.11006 2.75003 3.11006H2.68003C2.68003 3.11006 2.66003 3.11006 2.66003 3.09006C2.66003 3.09006 2.66003 3.05006 2.64003 3.05006H1.84003V3.00006L1.87003 2.97006V2.94006L1.85003 2.92006H1.79003L1.70003 3.09006V3.13006C1.70003 3.13006 1.70003 3.15006 1.72003 3.15006H2.38003C2.38003 3.15006 2.40003 3.15006 2.40003 3.17006V3.59006L1.95003 3.74006C1.90003 3.76006 1.87003 3.80006 1.87003 3.86006V4.39006C1.87003 4.39006 1.87003 4.41006 1.85003 4.41006H1.78003L1.71003 4.43006H1.69003L1.65003 4.41006H1.64003H1.55003C1.54003 4.41006 1.53003 4.41006 1.53003 4.43006L1.54003 4.46006L1.72003 4.56006H1.76003V4.52006C1.76003 4.52006 1.76003 4.50006 1.78003 4.50006H1.84003C1.84003 4.50006 1.86003 4.50006 1.86003 4.52006V4.61006C1.86003 4.61006 1.86003 4.63006 1.88003 4.63006H3.37003C3.37003 4.63006 3.39003 4.63006 3.39003 4.61006V4.54006C3.39003 4.54006 3.37003 4.50006 3.35003 4.50006C3.33003 4.50006 3.32003 4.50006 3.31003 4.52006H3.29003L3.07003 4.53006C3.05003 4.53006 3.03003 4.51006 3.03003 4.49006V4.35006C3.03003 4.35006 3.05003 4.31006 3.07003 4.31006H3.27003C3.34003 4.31006 3.39003 4.25006 3.39003 4.19006V3.08006C3.39003 3.08006 3.39003 3.06006 3.41003 3.06006H4.22003C4.22003 3.06006 4.22003 3.10006 4.24003 3.10006H4.27003C4.27003 3.10006 4.29003 3.10006 4.29003 3.08006V2.85006C4.29003 2.85006 4.27003 2.81006 4.25003 2.81006H2.78003C2.78003 2.81006 2.76003 2.81006 2.76003 2.83006V2.89006C2.76003 2.89006 2.76003 2.91006 2.78003 2.91006" stroke="#010101" stroke-width="0.25" stroke-miterlimit="10"/>
<path d="M4.03003 3.0498V3.1398" stroke="#010101" stroke-width="0.25" stroke-miterlimit="10"/>
<path d="M3.60999 4.05982V3.31982" stroke="#010101" stroke-width="0.25" stroke-miterlimit="10"/>
<path d="M4 3.31006V3.35006" stroke="#010101" stroke-width="0.25" stroke-miterlimit="10"/>
<path d="M4 4.02002V4.06002" stroke="#010101" stroke-width="0.25" stroke-miterlimit="10"/>
<path d="M3.18995 3.37006H3.17995C3.17995 3.37006 3.11995 3.44006 3.13995 3.48006C3.14995 3.52006 3.19995 3.54006 3.22995 3.52006C3.26995 3.51006 3.28995 3.46006 3.26995 3.43006C3.26995 3.43006 3.26995 3.42006 3.26995 3.41006V3.39006L3.27995 3.34006C3.27995 3.33006 3.27995 3.32006 3.26995 3.31006H3.23995C3.23995 3.31006 3.21995 3.31006 3.20995 3.31006V3.36006L3.18995 3.37006Z" stroke="#010101" stroke-width="0.25" stroke-miterlimit="10"/>
<path d="M3.23999 4.53975L3.25999 4.51975H3.37999V4.62975H4.27999V4.23975H4.17999V4.52975H3.43999V4.49975C3.43999 4.46975 3.40999 4.44975 3.37999 4.45975H3.23999L3.09999 4.33975C3.08999 4.32975 3.06999 4.32975 3.05999 4.33975C3.04999 4.34975 3.04999 4.36975 3.05999 4.37975L3.23999 4.54975V4.53975Z" stroke="#010101" stroke-width="0.25" stroke-miterlimit="10"/>
<path d="M3.48999 3.08008V4.25008" stroke="#010101" stroke-width="0.25" stroke-miterlimit="10"/>
<path d="M18.54 1.56V1.61C18.54 1.61 18.52 1.67 18.49 1.67H18.18C18.18 1.67 18.11 1.64 18.11 1.6V1.07C18.11 1.07 18.14 1 18.18 1H18.49C18.49 1 18.55 1.03 18.55 1.06" stroke="#010101" stroke-width="0.25" stroke-miterlimit="10"/>
<path d="M18.13 1.6001C18.13 1.6001 18.16 1.6601 18.19 1.6601H18.5C18.5 1.6601 18.54 1.6401 18.54 1.6201" stroke="#010101" stroke-width="0.25" stroke-miterlimit="10"/>
<path d="M16.97 2.2199V2.1499H16.67V2.2199H16.97Z" stroke="#010101" stroke-width="0.25" stroke-miterlimit="10"/>
<path d="M17.6901 2.18965L17.7101 2.16965H17.8301V2.27965H18.7301V1.88965H18.6301V2.17965H17.8901V2.14965C17.8901 2.11965 17.8601 2.09965 17.8301 2.10965H17.6901L17.5501 1.98965C17.5401 1.97965 17.5201 1.97965 17.5101 1.98965C17.5001 1.99965 17.5001 2.01965 17.5101 2.02965L17.6901 2.19965V2.18965Z" stroke="#010101" stroke-width="0.25" stroke-miterlimit="10"/>
<path d="M17.9401 0.72998V1.89998" stroke="#010101" stroke-width="0.25" stroke-miterlimit="10"/>
<path d="M18.67 0.789707V0.699707" stroke="#010101" stroke-width="0.25" stroke-miterlimit="10"/>
<path d="M18.12 0.699707V0.789707" stroke="#010101" stroke-width="0.25" stroke-miterlimit="10"/>
<path d="M17.89 0.560039V0.590039C17.89 0.590039 17.89 0.610039 17.91 0.610039H18.62C18.62 0.610039 18.64 0.610039 18.64 0.590039V0.560039C18.64 0.560039 18.64 0.540039 18.62 0.540039H17.91C17.91 0.540039 17.89 0.540039 17.89 0.560039Z" stroke="#010101" stroke-width="0.25" stroke-miterlimit="10"/>
<path d="M16.76 4.00971C16.76 4.00971 16.82 3.97971 16.82 3.94971" stroke="#010101" stroke-width="0.25" stroke-miterlimit="10"/>
<path d="M16.45 4.00977H16.76" stroke="#010101" stroke-width="0.25" stroke-miterlimit="10"/>
<path d="M16.4 3.90967H16.41" stroke="#010101" stroke-width="0.25" stroke-miterlimit="10"/>
<path d="M16.45 3.3501H16.76" stroke="#010101" stroke-width="0.25" stroke-miterlimit="10"/>
<path d="M16.83 3.4201C16.83 3.4201 16.8 3.3501 16.76 3.3501" stroke="#010101" stroke-width="0.25" stroke-miterlimit="10"/>
<path d="M16.41 3.45996H16.4" stroke="#010101" stroke-width="0.25" stroke-miterlimit="10"/>
<path d="M16.8101 3.94992V3.41992" stroke="#010101" stroke-width="0.25" stroke-miterlimit="10"/>
<path d="M16.81 3.41986C16.81 3.41986 16.78 3.35986 16.75 3.35986" stroke="#010101" stroke-width="0.25" stroke-miterlimit="10"/>
<path d="M16.76 3.35986H16.45" stroke="#010101" stroke-width="0.25" stroke-miterlimit="10"/>
<path d="M16.41 3.40967V3.45967" stroke="#010101" stroke-width="0.25" stroke-miterlimit="10"/>
<path d="M16.88 3.31006V4.05006" stroke="#010101" stroke-width="0.25" stroke-miterlimit="10"/>
<path d="M16.45 3.3501C16.45 3.3501 16.39 3.3801 16.39 3.4101" stroke="#010101" stroke-width="0.25" stroke-miterlimit="10"/>
<path d="M16.76 4.01971C16.76 4.01971 16.83 3.98971 16.83 3.94971" stroke="#010101" stroke-width="0.25" stroke-miterlimit="10"/>
<path d="M16.74 3.48975V3.86975" stroke="#010101" stroke-width="0.25" stroke-miterlimit="10"/>
<path d="M16.74 3.87988C16.74 3.87988 16.77 3.94988 16.81 3.94988" stroke="#010101" stroke-width="0.25" stroke-miterlimit="10"/>
<path d="M16.49 3.35006V3.31006" stroke="#010101" stroke-width="0.25" stroke-miterlimit="10"/>
<path d="M16.49 4.06002V4.02002" stroke="#010101" stroke-width="0.25" stroke-miterlimit="10"/>
<path d="M16.81 3.41992C16.81 3.41992 16.74 3.44992 16.74 3.48992" stroke="#010101" stroke-width="0.25" stroke-miterlimit="10"/>
<path d="M17.3 3.36993V3.31993C17.3 3.31993 17.27 3.29993 17.26 3.30993H17.23C17.23 3.30993 17.21 3.32993 17.22 3.34993L17.23 3.39993V3.41993C17.23 3.41993 17.21 3.49993 17.24 3.51993C17.27 3.53993 17.32 3.52993 17.34 3.49993C17.36 3.46993 17.35 3.41993 17.32 3.39993C17.32 3.39993 17.31 3.39993 17.3 3.39993H17.29L17.3 3.36993Z" stroke="#010101" stroke-width="0.25" stroke-miterlimit="10"/>
<path d="M17.44 4.35973C17.44 4.35973 17.45 4.32973 17.44 4.31973C17.43 4.30973 17.41 4.30973 17.4 4.31973L17.26 4.44973H17.12C17.12 4.44973 17.06 4.44973 17.06 4.47973V4.50973H16.31V4.21973H16.21V4.60973H17.11V4.49973H17.23L17.25 4.51973L17.43 4.34973L17.44 4.35973Z" stroke="#010101" stroke-width="0.25" stroke-miterlimit="10"/>
<path d="M17 4.25008V3.08008" stroke="#010101" stroke-width="0.25" stroke-miterlimit="10"/>
<path d="M17.02 4.25H16.96" stroke="#010101" stroke-width="0.25" stroke-miterlimit="10"/>
<path d="M16.96 4.25008V3.08008" stroke="#010101" stroke-width="0.25" stroke-miterlimit="10"/>
<path d="M16.96 3.08008H17.11" stroke="#010101" stroke-width="0.25" stroke-miterlimit="10"/>
<path d="M17.11 4.15967L17.02 4.24967" stroke="#010101" stroke-width="0.25" stroke-miterlimit="10"/>
<path d="M33.94 3.77979H33.92C33.9 3.84979 33.84 3.87979 33.79 3.87979H33.78C33.78 3.87979 33.76 3.87979 33.76 3.89979V4.18979C33.76 4.18979 33.76 4.20979 33.78 4.20979H33.98C34.06 4.20979 34.12 4.26979 34.12 4.34979V4.69978C34.12 4.69978 34.12 4.71978 34.14 4.71978H34.92C34.92 4.71978 34.94 4.71978 34.94 4.69978V3.79979C34.94 3.79979 34.94 3.77979 34.92 3.77979H33.94Z" stroke="#010101" stroke-width="0.25" stroke-miterlimit="10"/>
<path d="M33 3.64969V3.71969C33 3.71969 33.01 3.73969 33.03 3.73969H33.81C33.81 3.73969 33.84 3.73969 33.84 3.71969V3.19969C33.84 3.19969 33.83 3.17969 33.81 3.17969H32.9C32.9 3.17969 32.87 3.17969 32.87 3.19969V3.43969H32.77C32.77 3.43969 32.74 3.43969 32.74 3.45969V3.71969C32.74 3.71969 32.75 3.73969 32.77 3.73969H32.8C32.8 3.73969 32.83 3.73969 32.83 3.71969V3.63969H32.8V3.47969H33V3.64969Z" stroke="#010101" stroke-width="0.25" stroke-miterlimit="10"/>
<path d="M33.93 3.70002C33.93 3.70002 33.93 3.72002 33.95 3.72002H34.91C34.91 3.72002 34.93 3.72002 34.93 3.70002V3.02002H34.9L33.94 3.23002L33.92 3.25002V3.71002L33.93 3.70002Z" stroke="#010101" stroke-width="0.25" stroke-miterlimit="10"/>
<path d="M33.93 3.13984V3.15984H33.96L34.92 2.94984L34.94 2.92984V2.35984C34.94 2.35984 34.94 2.33984 34.92 2.33984H34.2201L34.2001 2.35984C34.2001 2.45984 34.11 2.52984 34.01 2.52984H33.92L33.8601 2.50984H33.84H33.7901L33.57 2.51984H33.55V2.54984L33.62 2.77984L33.64 2.79984H33.7901C33.8701 2.79984 33.93 2.85984 33.93 2.93984V3.12984V3.13984Z" stroke="#010101" stroke-width="0.25" stroke-miterlimit="10"/>
<path d="M34.2 2.27006C34.2 2.27006 34.2 2.29006 34.22 2.29006H34.91C34.91 2.29006 34.93 2.29006 34.93 2.27006V1.58006C34.93 1.58006 34.93 1.56006 34.91 1.56006H34.22C34.22 1.56006 34.2 1.56006 34.2 1.58006V2.27006Z" stroke="#010101" stroke-width="0.25" stroke-miterlimit="10"/>
<path d="M3.52997 4.25H3.46997" stroke="#010101" stroke-width="0.25" stroke-miterlimit="10"/>
<path d="M33 0.22998L32.98 0.24998L32.96 0.31998V0.33998H32.98H33.01L33.09 0.30998H33.84V0.32998H33.86L33.92 0.30998H34.02C34.02 0.30998 34.04 0.30998 34.04 0.28998V0.24998C34.04 0.24998 34.04 0.22998 34.02 0.22998H33Z" stroke="#010101" stroke-width="0.25" stroke-miterlimit="10"/>
<path d="M3.68005 3.94969C3.68005 3.94969 3.75005 3.91969 3.75005 3.87969V3.49969C3.75005 3.49969 3.72005 3.42969 3.68005 3.42969" stroke="#010101" stroke-width="0.25" stroke-miterlimit="10"/>
<path d="M33.28 2.2199V2.1499H32.98V2.2199H33.28Z" stroke="#010101" stroke-width="0.25" stroke-miterlimit="10"/>
<path d="M32.25 2.10988H32.11C32.11 2.10988 32.0499 2.10988 32.0499 2.13988V2.16988H31.2999V1.87988H31.2V2.26988H32.0999V2.15988H32.22L32.24 2.17988L32.4199 2.00988C32.4199 2.00988 32.4299 1.97988 32.4199 1.96988C32.4099 1.95988 32.39 1.95988 32.38 1.96988L32.24 2.09988L32.25 2.10988Z" stroke="#010101" stroke-width="0.25" stroke-miterlimit="10"/>
<path d="M32 1.89998V0.72998" stroke="#010101" stroke-width="0.25" stroke-miterlimit="10"/>
<path d="M31.28 0.699707V0.789707" stroke="#010101" stroke-width="0.25" stroke-miterlimit="10"/>
<path d="M31.8199 0.789707V0.699707" stroke="#010101" stroke-width="0.25" stroke-miterlimit="10"/>
<path d="M32.05 0.560039C32.05 0.560039 32.05 0.540039 32.03 0.540039H31.32C31.32 0.540039 31.3 0.540039 31.3 0.560039V0.590039C31.3 0.590039 31.3 0.610039 31.32 0.610039H32.03C32.03 0.610039 32.05 0.610039 32.05 0.590039V0.560039Z" stroke="#010101" stroke-width="0.25" stroke-miterlimit="10"/>
<path d="M32.13 0.609805C32.18 0.629805 32.22 0.669805 32.22 0.729805V1.8398C32.22 1.8398 32.22 1.8598 32.24 1.8598H32.44C32.52 1.8598 32.58 1.9198 32.58 1.9998V2.1598C32.58 2.1598 32.58 2.1798 32.6 2.1798H32.85C32.85 2.1798 32.87 2.1798 32.87 2.1598V2.1398C32.87 2.0798 32.92 2.0398 32.97 2.0398H33.25C33.25 2.0398 33.27 2.0398 33.27 2.0198V1.7998C33.27 1.7998 33.27 1.7798 33.25 1.7798H33.08C33.01 1.7798 32.96 1.7198 32.96 1.6598V0.749805C32.96 0.679805 33.02 0.629805 33.08 0.629805H33.25C33.25 0.629805 33.27 0.629805 33.27 0.609805V0.569805C33.27 0.569805 33.27 0.549805 33.25 0.549805H32.13C32.13 0.549805 32.11 0.549805 32.11 0.569805V0.589805L32.13 0.609805Z" stroke="#010101" stroke-width="0.25" stroke-miterlimit="10"/>
<path d="M31.88 0.959961V1.69996" stroke="#010101" stroke-width="0.25" stroke-miterlimit="10"/>
<path d="M31.49 0.999961V0.959961" stroke="#010101" stroke-width="0.25" stroke-miterlimit="10"/>
<path d="M31.49 1.70992V1.66992" stroke="#010101" stroke-width="0.25" stroke-miterlimit="10"/>
<path d="M19.2801 3.47969H19.4801V3.63969H19.4501V3.71969C19.4501 3.71969 19.4601 3.73969 19.4801 3.73969H19.5101C19.5101 3.73969 19.5401 3.73969 19.5401 3.71969V3.45969C19.5401 3.45969 19.5301 3.43969 19.5101 3.43969H19.4101V3.19969C19.4101 3.19969 19.4001 3.17969 19.3801 3.17969H18.4701C18.4701 3.17969 18.4401 3.17969 18.4401 3.19969V3.71969C18.4401 3.71969 18.4501 3.73969 18.4701 3.73969H19.2501C19.2501 3.73969 19.2801 3.73969 19.2801 3.71969V3.48969V3.47969Z" stroke="#010101" stroke-width="0.25" stroke-miterlimit="10"/>
<path d="M17.98 2.28979H16.98V2.35979H17.87V2.89979H17.72V3.00979H17.98V2.27979V2.28979Z" stroke="#010101" stroke-width="0.25" stroke-miterlimit="10"/>
<path d="M35.36 2.86988V2.21988C35.36 2.14988 35.3 2.09988 35.24 2.09988H35.06C35.06 2.09988 35.04 2.09988 35.04 2.07988V1.39988C35.04 1.39988 35.04 1.37988 35.06 1.37988H35.24C35.31 1.37988 35.36 1.31988 35.36 1.25988V0.239883C35.36 0.239883 35.36 0.219883 35.34 0.219883H35.27L35.23 0.299883V0.339883H35.25C35.25 0.339883 35.27 0.339883 35.27 0.359883V0.519883C35.27 0.519883 35.27 0.539883 35.25 0.539883H35.06C35.06 0.539883 35.04 0.539883 35.04 0.519883V0.149883C35.04 0.149883 35.04 0.129883 35.02 0.129883H32.94C32.94 0.129883 32.9 0.139883 32.9 0.159883L32.84 0.389883C32.84 0.389883 32.86 0.449883 32.88 0.449883H33.07C33.07 0.449883 33.09 0.449883 33.09 0.429883H33.79L33.89 0.489883H33.93V0.429883H34.02C34.02 0.429883 34.11 0.469883 34.11 0.519883V2.35988C34.11 2.35988 34.07 2.44988 34.02 2.44988H33.93V2.38988H33.89L33.79 2.44988H32.83C32.83 2.44988 32.79 2.41988 32.77 2.43988C32.77 2.43988 32.76 2.45988 32.76 2.46988V3.07988C32.76 3.07988 32.76 3.09988 32.78 3.09988H32.81C32.81 3.09988 32.83 3.09988 32.83 3.07988L33.66 3.06988V3.02988L33.6 2.96988V2.93988C33.6 2.93988 33.6 2.91988 33.62 2.91988H33.79C33.79 2.91988 33.83 2.93988 33.83 2.95988V3.73988C33.83 3.73988 33.81 3.77988 33.79 3.77988H33.68C33.68 3.77988 33.65 3.78988 33.65 3.80988V4.18988C33.65 4.25988 33.71 4.30988 33.77 4.30988H33.97C33.97 4.30988 34.01 4.32988 34.01 4.34988V4.62988L33.99 4.66988H33.95L33.75 4.56988V4.54988H33.74C33.74 4.52988 33.72 4.50988 33.7 4.50988C33.68 4.50988 33.66 4.52988 33.66 4.54988V4.63988L34.02 4.81988H34.03H35.04H35.05H35.06H35.32C35.34 4.81988 35.36 4.79988 35.36 4.77988H35.35H35.33L35.3 4.73988H35.34C35.34 4.73988 35.36 4.72988 35.36 4.70988V2.86988Z" stroke="#010101" stroke-width="0.25" stroke-miterlimit="10"/>
<path d="M18.09 3.6899C18.09 3.6899 18.01 3.6299 18.01 3.5699V3.1699C18.01 3.1699 18.01 3.1499 17.99 3.1499H17.92C17.92 3.1499 17.86 3.2099 17.82 3.2099H17.75C17.68 3.2099 17.63 3.1499 17.63 3.0899V2.9199C17.63 2.9199 17.63 2.8999 17.61 2.8999H17.14C17.14 2.8999 17.12 2.8999 17.12 2.9199V2.9399L17.14 2.9599C17.19 2.9799 17.23 3.0199 17.23 3.0799V3.2399H17.26C17.31 3.2299 17.36 3.2599 17.37 3.2999V3.3199L17.38 3.3299C17.45 3.3799 17.46 3.4699 17.42 3.5299C17.38 3.5799 17.32 3.6099 17.26 3.5899H17.24V3.6099V4.1799C17.24 4.1799 17.24 4.1999 17.26 4.1999H17.46C17.54 4.1999 17.6 4.2599 17.6 4.3399V4.4999C17.6 4.4999 17.6 4.5199 17.62 4.5199H18.55C18.55 4.5199 18.57 4.5199 18.57 4.4999V4.3799L18.56 3.8499V3.8299L18.11 3.6799L18.09 3.6899Z" stroke="#010101" stroke-width="0.25" stroke-miterlimit="10"/>
<path d="M16.6399 2.42996C16.7099 2.37996 16.7499 2.29996 16.7399 2.20996V2.27996H16.6699C16.6099 2.27996 16.5699 2.22996 16.5699 2.17996V1.76996C16.5699 1.71996 16.6099 1.67996 16.6599 1.67996H16.8599C16.8599 1.67996 16.8799 1.67996 16.8799 1.65996V0.749961C16.8799 0.749961 16.8799 0.729961 16.8599 0.729961H16.6599C16.6099 0.729961 16.5699 0.689961 16.5699 0.639961V0.549961C16.5699 0.499961 16.6099 0.459961 16.6599 0.459961H18.6899C18.6899 0.459961 18.7299 0.479961 18.7299 0.499961V0.729961C18.7299 0.729961 18.7299 0.749961 18.7099 0.749961H18.6799C18.6799 0.749961 18.6599 0.749961 18.6599 0.729961H17.8499H17.8299V1.83996C17.8299 1.90996 17.7699 1.95996 17.7099 1.95996H17.5099C17.5099 1.95996 17.4699 1.97996 17.4699 1.99996V2.13996C17.4699 2.13996 17.4899 2.17996 17.5099 2.17996H17.7499C17.7499 2.17996 17.7899 2.13996 17.8099 2.14996C17.8199 2.14996 17.8299 2.16996 17.8299 2.18996V2.25996C17.8299 2.25996 17.8299 2.27996 17.8099 2.27996H16.9099V2.20996C16.8899 2.29996 16.9299 2.37996 16.9999 2.42996" stroke="#010101" stroke-width="0.25" stroke-miterlimit="10"/>
<path d="M18.54 1.11002V1.06002C18.54 1.06002 18.51 1.02002 18.49 1.02002H18.18C18.18 1.02002 18.12 1.05002 18.12 1.08002" stroke="#010101" stroke-width="0.25" stroke-miterlimit="10"/>
<path d="M18.13 1.60008C18.13 1.60008 18.2 1.57008 18.2 1.53008V1.15008L18.18 1.10008L18.13 1.08008V1.61008V1.60008Z" stroke="#010101" stroke-width="0.25" stroke-miterlimit="10"/>
<path d="M0.220005 0.219883H0.150005C0.150005 0.219883 0.130005 0.219883 0.130005 0.239883V1.24988C0.130005 1.31988 0.190005 1.36988 0.250005 1.36988H0.430005C0.430005 1.36988 0.450005 1.36988 0.450005 1.38988V2.06988C0.450005 2.06988 0.450005 2.08988 0.430005 2.08988H0.250005C0.180005 2.08988 0.130005 2.14988 0.130005 2.20988V4.69988C0.130005 4.69988 0.130005 4.71988 0.150005 4.71988H0.190005L0.160005 4.75988H0.140005H0.130005C0.130005 4.75988 0.150005 4.80988 0.170005 4.80988H0.440005H0.450005H1.46H1.47L1.82 4.62988V4.60988L1.83 4.53988C1.83 4.51988 1.81 4.49988 1.79 4.49988C1.77 4.49988 1.75 4.51988 1.75 4.53988L1.74 4.55988L1.54 4.65988H1.5L1.48 4.61988V4.33988C1.48 4.33988 1.5 4.29988 1.52 4.29988H1.72C1.79 4.29988 1.84 4.23988 1.84 4.17988V3.79988C1.84 3.79988 1.83 3.76988 1.81 3.76988H1.7C1.7 3.76988 1.66 3.74988 1.66 3.72988V2.94988C1.66 2.94988 1.68 2.90988 1.7 2.90988H1.87C1.87 2.90988 1.89 2.90988 1.89 2.92988V2.95988L1.83 3.01988V3.05988H2.66001C2.66001 3.05988 2.66001 3.09988 2.68001 3.09988H2.71C2.71 3.09988 2.73 3.09988 2.73 3.07988V2.46988C2.73 2.46988 2.71 2.42988 2.69 2.42988C2.68 2.42988 2.67001 2.42988 2.66001 2.43988H2.64001H1.69L1.59 2.37988H1.55V2.43988H1.46C1.46 2.43988 1.37 2.39988 1.37 2.34988V0.499883C1.37 0.499883 1.41 0.409883 1.46 0.409883H1.55V0.469883H1.59L1.69 0.409883H2.39001C2.39001 0.409883 2.39001 0.439883 2.41001 0.439883H2.6C2.6 0.439883 2.64001 0.419883 2.64001 0.399883L2.58 0.159883C2.58 0.139883 2.56 0.129883 2.54 0.129883H0.470005C0.470005 0.129883 0.450005 0.129883 0.450005 0.149883V0.509883C0.450005 0.509883 0.450005 0.529883 0.430005 0.529883H0.240005C0.240005 0.529883 0.220005 0.529883 0.220005 0.509883V0.349883C0.220005 0.349883 0.220005 0.329883 0.240005 0.329883H0.260005V0.289883L0.220005 0.209883V0.219883Z" stroke="#010101" stroke-width="0.25" stroke-miterlimit="10"/>
<path d="M16.76 4.02002H16.45" stroke="#010101" stroke-width="0.25" stroke-miterlimit="10"/>
<path d="M1.55005 3.77979H0.570049C0.570049 3.77979 0.550049 3.77979 0.550049 3.79979V4.69978C0.550049 4.69978 0.550049 4.71978 0.570049 4.71978H1.35005C1.35005 4.71978 1.37005 4.71978 1.37005 4.69978V4.34979C1.37005 4.26979 1.43005 4.20979 1.51005 4.20979H1.71005C1.71005 4.20979 1.73005 4.20979 1.73005 4.18979V3.89979C1.73005 3.89979 1.73005 3.87979 1.71005 3.87979H1.70005C1.64005 3.87979 1.59005 3.84979 1.57005 3.78979H1.55005V3.77979Z" stroke="#010101" stroke-width="0.25" stroke-miterlimit="10"/>
<path d="M2.39995 3.6899L1.96995 3.8399V3.8599L1.95995 4.3899V4.4499L1.94995 4.5099C1.94995 4.5199 1.94995 4.5299 1.96995 4.5299H2.89995C2.89995 4.5299 2.91995 4.5299 2.91995 4.5099V4.3499C2.91995 4.2699 2.97995 4.2099 3.05995 4.2099H3.25995C3.25995 4.2099 3.27995 4.2099 3.27995 4.1899V3.6199V3.5999H3.25995C3.17995 3.6199 3.09995 3.5799 3.07995 3.4999C3.05995 3.4399 3.07995 3.3699 3.13995 3.3399V3.3099C3.14995 3.2599 3.19995 3.2299 3.24995 3.2499H3.26995V3.2299V3.0799C3.26995 3.0299 3.29995 2.9799 3.35995 2.9599L3.37995 2.9399V2.9199C3.37995 2.9199 3.37995 2.8999 3.35995 2.8999H2.88995C2.88995 2.8999 2.86995 2.8999 2.86995 2.9199V3.0899C2.86995 3.1599 2.80995 3.2099 2.74995 3.2099H2.67995C2.67995 3.2099 2.59995 3.1899 2.57995 3.1599H2.55995H2.50995C2.49995 3.1599 2.48995 3.1599 2.48995 3.1799V3.5799C2.48995 3.6299 2.45995 3.6799 2.40995 3.6999" stroke="#010101" stroke-width="0.25" stroke-miterlimit="10"/>
<path d="M2.00005 2.92979C2.00005 2.92979 2.00005 2.94979 2.02005 2.94979H2.62005C2.62005 2.94979 2.64005 2.94979 2.64005 2.92979V2.54979C2.64005 2.54979 2.64005 2.52979 2.62005 2.52979H2.03005L2.01005 2.54979L1.93005 2.79979V2.81979C1.93005 2.81979 2.00005 2.87979 2.00005 2.91979" stroke="#010101" stroke-width="0.25" stroke-miterlimit="10"/>
<path d="M1.56006 3.69977V3.23977L1.54006 3.21977L0.580059 3.00977H0.560059V3.02977V3.68977C0.560059 3.68977 0.560059 3.70977 0.580059 3.70977H1.54006C1.54006 3.70977 1.56006 3.70977 1.56006 3.68977" stroke="#010101" stroke-width="0.25" stroke-miterlimit="10"/>
<path d="M16.41 3.95996L16.45 3.99996" stroke="#010101" stroke-width="0.25" stroke-miterlimit="10"/>
<path d="M16.83 3.41992V3.94992" stroke="#010101" stroke-width="0.25" stroke-miterlimit="10"/>
<path d="M1.56005 3.1401V2.9501C1.56005 2.8701 1.62005 2.8101 1.70005 2.8101H1.85005L1.87005 2.7901L1.94005 2.5601V2.5401H1.92005H1.65005V2.5201H1.63005L1.57005 2.5401H1.48005C1.38005 2.5401 1.30005 2.4701 1.29005 2.3701L1.27005 2.3501H0.570049C0.570049 2.3501 0.550049 2.3501 0.550049 2.3701V2.9401L0.570049 2.9601L1.53005 3.1701H1.55005V3.1501L1.56005 3.1401Z" stroke="#010101" stroke-width="0.25" stroke-miterlimit="10"/>
<path d="M16.41 3.90967V3.95967" stroke="#010101" stroke-width="0.25" stroke-miterlimit="10"/>
<path d="M1.29006 2.27006V1.58006C1.29006 1.58006 1.29006 1.56006 1.27006 1.56006H0.580059C0.580059 1.56006 0.560059 1.56006 0.560059 1.58006V2.27006C0.560059 2.27006 0.560059 2.29006 0.580059 2.29006H1.27006C1.27006 2.29006 1.29006 2.29006 1.29006 2.27006Z" stroke="#010101" stroke-width="0.25" stroke-miterlimit="10"/>
<path d="M1.28998 1.47998V0.49998C1.28998 0.42998 1.31998 0.36998 1.37998 0.33998V0.31998L1.38998 0.24998C1.38998 0.23998 1.38998 0.22998 1.36998 0.22998H0.56998C0.56998 0.22998 0.54998 0.22998 0.54998 0.24998V0.50998C0.54998 0.57998 0.48998 0.62998 0.42998 0.62998H0.24998C0.24998 0.62998 0.22998 0.62998 0.22998 0.64998V1.24998C0.22998 1.24998 0.22998 1.26998 0.24998 1.26998H0.42998C0.49998 1.26998 0.54998 1.32998 0.54998 1.38998V1.46998C0.54998 1.46998 0.54998 1.48998 0.56998 1.48998H1.25998C1.25998 1.48998 1.27998 1.48998 1.27998 1.46998" stroke="#010101" stroke-width="0.25" stroke-miterlimit="10"/>
<path d="M16.4 3.95996C16.4 3.95996 16.43 4.01996 16.46 4.01996" stroke="#010101" stroke-width="0.25" stroke-miterlimit="10"/>
<path d="M2.48995 0.22998H1.46995C1.46995 0.22998 1.44995 0.22998 1.44995 0.24998V0.28998C1.44995 0.28998 1.44995 0.30998 1.46995 0.30998H1.56995L1.62995 0.32998H1.64995H1.69995L2.39995 0.31998L2.47995 0.34998H2.52995V0.31998L2.50995 0.24998L2.48995 0.22998Z" stroke="#010101" stroke-width="0.25" stroke-miterlimit="10"/>
<path d="M16.4 3.45967V3.40967" stroke="#010101" stroke-width="0.25" stroke-miterlimit="10"/>
<path d="M16.45 3.35986L16.41 3.39986" stroke="#010101" stroke-width="0.25" stroke-miterlimit="10"/>
<path d="M0.22998 3.70002C0.22998 3.70002 0.22998 3.72002 0.24998 3.72002H0.46998C0.46998 3.72002 0.48998 3.72002 0.48998 3.70002V3.04002C0.48998 3.04002 0.48998 3.02002 0.46998 3.02002H0.24998C0.24998 3.02002 0.22998 3.02002 0.22998 3.04002V3.70002Z" stroke="#010101" stroke-width="0.25" stroke-miterlimit="10"/>
<path d="M34.2 1.47998C34.2 1.47998 34.2 1.49998 34.22 1.49998H34.91C34.91 1.49998 34.93 1.49998 34.93 1.47998V1.39998C34.93 1.32998 34.99 1.27998 35.05 1.27998H35.23C35.23 1.27998 35.25 1.27998 35.25 1.25998V0.65998C35.25 0.65998 35.25 0.63998 35.23 0.63998H35.05C34.98 0.63998 34.93 0.57998 34.93 0.51998V0.24998C34.93 0.24998 34.93 0.22998 34.91 0.22998H34.11C34.11 0.22998 34.09 0.22998 34.09 0.24998V0.33998C34.16 0.36998 34.19 0.43998 34.19 0.49998V1.47998H34.2Z" stroke="#010101" stroke-width="0.25" stroke-miterlimit="10"/>
<path d="M33.49 2.93004C33.49 2.93004 33.51 2.85004 33.55 2.83004V2.81004L33.48 2.56004L33.46 2.54004H32.87C32.87 2.54004 32.85 2.54004 32.85 2.56004V2.94004C32.85 2.94004 32.85 2.96004 32.87 2.96004H33.47C33.47 2.96004 33.49 2.96004 33.49 2.94004" stroke="#010101" stroke-width="0.25" stroke-miterlimit="10"/>
<path d="M3.53003 3.08008V4.25008" stroke="#010101" stroke-width="0.25" stroke-miterlimit="10"/>
<path d="M35.1 4.7399H35.27L35.23 4.6499V4.6099H35.26C35.26 4.6099 35.28 4.6099 35.28 4.5899V4.4199C35.28 4.4199 35.28 4.3999 35.26 4.3999H35.05C35.05 4.3999 35.03 4.3999 35.03 4.4199V4.7299H35.04V4.7799H35.05L35.09 4.7399H35.1Z" stroke="#010101" stroke-width="0.25" stroke-miterlimit="10"/>
<path d="M35.26 3.70002V3.04002C35.26 3.04002 35.26 3.02002 35.24 3.02002H35.02C35.02 3.02002 35 3.02002 35 3.04002V3.70002C35 3.70002 35 3.72002 35.02 3.72002H35.24C35.24 3.72002 35.26 3.72002 35.26 3.70002Z" stroke="#010101" stroke-width="0.25" stroke-miterlimit="10"/>
<path d="M3.38 3.08008H3.53" stroke="#010101" stroke-width="0.25" stroke-miterlimit="10"/>
<path d="M35.26 2.93971V2.21971C35.26 2.21971 35.26 2.19971 35.24 2.19971H35.02H35V2.21971V2.93971C35 2.94971 35 2.95971 35.02 2.95971H35.24C35.24 2.95971 35.26 2.95971 35.26 2.93971Z" stroke="#010101" stroke-width="0.25" stroke-miterlimit="10"/>
<path d="M35.02 4.31979H35.24C35.24 4.31979 35.26 4.31979 35.26 4.29979V3.79979C35.26 3.79979 35.26 3.77979 35.24 3.77979H35.02C35.02 3.77979 35 3.77979 35 3.79979V4.29979C35 4.29979 35 4.31979 35.02 4.31979Z" stroke="#010101" stroke-width="0.25" stroke-miterlimit="10"/>
<path d="M3.47 4.24967L3.38 4.15967" stroke="#010101" stroke-width="0.25" stroke-miterlimit="10"/>
<path d="M32.94 2.42996C33.01 2.37996 33.05 2.29996 33.04 2.20996V2.27996H32.13C32.13 2.27996 32.11 2.27996 32.11 2.25996V2.18996C32.11 2.18996 32.13 2.14996 32.15 2.14996C32.17 2.14996 32.18 2.14996 32.19 2.16996H32.43C32.43 2.16996 32.47 2.16996 32.47 2.13996V1.99996C32.47 1.99996 32.45 1.95996 32.43 1.95996H32.23C32.16 1.95996 32.11 1.89996 32.11 1.83996V0.729961C32.11 0.729961 32.11 0.709961 32.09 0.709961H31.28C31.28 0.709961 31.28 0.749961 31.26 0.749961H31.23C31.23 0.749961 31.21 0.749961 31.21 0.729961V0.499961C31.21 0.499961 31.23 0.459961 31.25 0.459961H33.28C33.33 0.459961 33.37 0.499961 33.37 0.549961V0.639961C33.37 0.689961 33.33 0.729961 33.28 0.729961H33.08C33.08 0.729961 33.06 0.729961 33.06 0.749961V1.65996C33.06 1.65996 33.06 1.67996 33.08 1.67996H33.28C33.33 1.67996 33.37 1.71996 33.37 1.76996V2.17996C33.37 2.23996 33.32 2.27996 33.27 2.27996H33.21V2.20996C33.19 2.29996 33.23 2.37996 33.3 2.42996" stroke="#010101" stroke-width="0.25" stroke-miterlimit="10"/>
<path d="M31.81 1.06975C31.81 1.06975 31.78 1.00975 31.75 1.00975H31.44C31.44 1.00975 31.4 1.02975 31.4 1.04975V1.09975L31.39 1.04975C31.39 1.01975 31.42 0.989746 31.45 0.989746H31.76C31.76 0.989746 31.83 1.01975 31.83 1.05975V1.58975C31.83 1.58975 31.8 1.65975 31.76 1.65975H31.45C31.45 1.65975 31.39 1.62975 31.39 1.59975V1.54975L31.4 1.59975C31.4 1.61975 31.42 1.63975 31.44 1.63975H31.75C31.75 1.63975 31.81 1.60975 31.81 1.57975" stroke="#010101" stroke-width="0.25" stroke-miterlimit="10"/>
<path d="M4.09002 3.9601C4.09002 3.9601 4.06002 4.0201 4.03002 4.0201H3.72002C3.72002 4.0201 3.65002 3.9901 3.65002 3.9501V3.4201C3.65002 3.4201 3.68002 3.3501 3.72002 3.3501H4.03002C4.03002 3.3501 4.09002 3.3801 4.09002 3.4101V3.4601H4.08002V3.4101L4.04002 3.3701H3.73002C3.73002 3.3701 3.67002 3.4001 3.67002 3.4301V3.9601C3.67002 3.9601 3.70002 4.0201 3.73002 4.0201H4.04002L4.08002 3.9801V3.9301H4.09002V3.9801V3.9601Z" stroke="#010101" stroke-width="0.25" stroke-miterlimit="10"/>
<path d="M31.74 1.52982C31.74 1.52982 31.77 1.59982 31.81 1.59982V1.06982L31.76 1.08982L31.74 1.13982V1.51982V1.52982Z" stroke="#010101" stroke-width="0.25" stroke-miterlimit="10"/>
<path d="M32.11 1.80998L32.02 1.89998H31.96V0.72998H32.11" stroke="#010101" stroke-width="0.25" stroke-miterlimit="10"/>
<path d="M17.83 0.72998H17.98V1.89998H17.92L17.83 1.80998" stroke="#010101" stroke-width="0.25" stroke-miterlimit="10"/>
<path d="M31.93 0.960039V0.790039H18.01V0.960039H31.93Z" stroke="#010101" stroke-width="0.25" stroke-miterlimit="10"/>
<path d="M31.93 1.87996V1.70996H18.01V1.87996H31.93Z" stroke="#010101" stroke-width="0.25" stroke-miterlimit="10"/>
<path d="M16.9301 4.23006V4.06006H3.56006V4.23006H16.9301Z" stroke="#010101" stroke-width="0.25" stroke-miterlimit="10"/>
<path d="M16.9301 3.31014V3.14014H3.56006V3.31014H16.9301Z" stroke="#010101" stroke-width="0.25" stroke-miterlimit="10"/>
<path d="M4.28006 3.14014H3.56006V3.31014H4.28006" stroke="#010101" stroke-width="0.25" stroke-miterlimit="10"/>
<path d="M4.28006 4.06006H3.56006V4.23006H4.28006" stroke="#010101" stroke-width="0.25" stroke-miterlimit="10"/>
<path d="M31.2101 1.87996H31.9301V1.70996H31.2101" stroke="#010101" stroke-width="0.25" stroke-miterlimit="10"/>
<path d="M31.2101 0.960039H31.9301V0.790039H31.2101" stroke="#010101" stroke-width="0.25" stroke-miterlimit="10"/>
</g>
<defs>
<clipPath id="clip0_1603_220">
<rect width="35.49" height="4.95" fill="white"/>
</clipPath>
</defs>
</svg>
