<svg width="54" height="5" viewBox="0 0 54 5" fill="none" xmlns="http://www.w3.org/2000/svg">
<g clip-path="url(#clip0_1603_355)">
<rect width="53.49" height="4.95" fill="white"/>
<path d="M50.11 2.26988C50.11 2.26988 50.12 2.28988 50.13 2.28988H50.94V2.42988H50.82C50.82 2.42988 50.78 2.39988 50.76 2.41988C50.76 2.41988 50.75 2.43988 50.75 2.44988V3.05988C50.75 3.05988 50.75 3.07988 50.77 3.07988H50.8C50.8 3.07988 50.82 3.07988 50.82 3.05988L51.65 3.04988V3.00988L51.59 2.94988V2.91988C51.59 2.91988 51.59 2.89988 51.61 2.89988H51.78C51.78 2.89988 51.82 2.91988 51.82 2.93988V3.17988C51.82 3.17988 51.81 3.15988 51.79 3.15988H50.88C50.88 3.15988 50.85 3.15988 50.85 3.17988V3.41988H50.75C50.75 3.41988 50.72 3.41988 50.72 3.43988V3.69988C50.72 3.69988 50.73 3.71988 50.75 3.71988H50.78C50.78 3.71988 50.81 3.71988 50.81 3.69988V3.61988H50.78V3.45988H50.98V3.68988C50.98 3.68988 50.99 3.70988 51.01 3.70988H51.79C51.79 3.70988 51.82 3.70988 51.82 3.68988V3.70988C51.82 3.70988 51.8 3.74988 51.78 3.74988H51.67C51.67 3.74988 51.64 3.75988 51.64 3.77988V4.15988C51.64 4.22988 51.7 4.27988 51.76 4.27988H51.96C51.96 4.27988 52 4.29988 52 4.31988V4.59988L51.98 4.63988H51.94L51.74 4.53988V4.51988H51.73C51.73 4.49988 51.71 4.47988 51.69 4.47988C51.67 4.47988 51.65 4.49988 51.65 4.51988V4.60988L52.01 4.78988H52.02H53.03H53.04H53.05H53.31C53.33 4.78988 53.35 4.76988 53.35 4.74988H53.34H53.32L53.29 4.70988H53.33C53.33 4.70988 53.35 4.69988 53.35 4.67988V2.83988V2.18988C53.35 2.11988 53.29 2.06988 53.23 2.06988H53.05C53.05 2.06988 53.03 2.06988 53.03 2.04988V1.36988C53.03 1.36988 53.03 1.34988 53.05 1.34988H53.23C53.3 1.34988 53.35 1.28988 53.35 1.22988V0.219883C53.35 0.209883 53.35 0.199883 53.33 0.199883H53.26L53.22 0.279883V0.319883H53.24C53.24 0.319883 53.26 0.319883 53.26 0.339883V0.499883C53.26 0.499883 53.26 0.519883 53.24 0.519883H53.05C53.05 0.519883 53.03 0.519883 53.03 0.499883V0.149883C53.03 0.149883 53.03 0.129883 53.01 0.129883H50.93C50.93 0.129883 50.89 0.139883 50.89 0.159883L50.83 0.389883C50.83 0.389883 50.85 0.449883 50.87 0.449883H49.24C49.24 0.449883 49.2 0.469883 49.2 0.489883V0.799883H27.73V0.489883C27.73 0.489883 27.71 0.449883 27.69 0.449883H25.66C25.61 0.449883 25.57 0.489883 25.57 0.539883V0.629883C25.57 0.679883 25.61 0.719883 25.66 0.719883H25.86C25.86 0.719883 25.88 0.719883 25.88 0.739883V1.64988C25.88 1.64988 25.88 1.66988 25.86 1.66988H25.66C25.61 1.66988 25.57 1.70988 25.57 1.75988V2.16988C25.57 2.22988 25.62 2.26988 25.67 2.26988H25.74C25.73 2.32988 25.69 2.37988 25.64 2.40988H26C26 2.40988 25.95 2.36988 25.93 2.33988H26.86V2.87988H26.71C26.71 2.87988 26.73 2.85988 26.73 2.84988V2.78988C26.73 2.78988 26.73 2.76988 26.71 2.76988H25.24C25.24 2.76988 25.2 2.78988 25.2 2.80988V3.03988V3.11988H4.28V2.80988C4.28 2.80988 4.26 2.76988 4.24 2.76988H2.77C2.77 2.76988 2.75 2.76988 2.75 2.78988V2.42988C2.75 2.42988 2.73 2.38988 2.71 2.38988C2.7 2.38988 2.69001 2.38988 2.68001 2.39988H2.66001H1.71L1.61 2.33988H1.57V2.39988H1.48C1.48 2.39988 1.39 2.35988 1.39 2.30988V0.499883C1.39 0.499883 1.43 0.409883 1.48 0.409883H1.57V0.469883H1.61L1.71 0.409883H2.41001C2.41001 0.409883 2.41001 0.439883 2.43001 0.439883H2.62C2.62 0.439883 2.66001 0.419883 2.66001 0.399883L2.6 0.159883C2.6 0.139883 2.58 0.129883 2.56 0.129883H0.470005C0.470005 0.129883 0.450005 0.129883 0.450005 0.149883V0.509883C0.450005 0.509883 0.450005 0.529883 0.430005 0.529883H0.240005C0.240005 0.529883 0.220005 0.529883 0.220005 0.509883V0.349883C0.220005 0.349883 0.220005 0.329883 0.240005 0.329883H0.260005V0.289883L0.220005 0.209883H0.150005C0.150005 0.209883 0.130005 0.209883 0.130005 0.229883V1.23988C0.130005 1.30988 0.190005 1.35988 0.250005 1.35988H0.430005C0.430005 1.35988 0.450005 1.35988 0.450005 1.37988V2.05988C0.450005 2.05988 0.450005 2.07988 0.430005 2.07988H0.250005C0.180005 2.07988 0.130005 2.13988 0.130005 2.19988V4.68988C0.130005 4.68988 0.130005 4.70988 0.150005 4.70988H0.190005L0.160005 4.74988H0.140005H0.130005C0.130005 4.74988 0.150005 4.79988 0.170005 4.79988H0.440005H0.450005H1.46H1.47L1.82 4.61988V4.59988H1.83C1.83 4.59988 1.84 4.60988 1.85 4.60988H3.34C3.34 4.60988 3.36 4.60988 3.36 4.58988H4.27V4.19988H25.19V4.58988H26.09C26.09 4.58988 26.1 4.60988 26.11 4.60988H27.6C27.6 4.60988 27.62 4.60988 27.62 4.58988V4.49988C27.62 4.49988 27.62 4.47988 27.64 4.47988H27.7C27.7 4.47988 27.72 4.47988 27.72 4.49988V4.53988H27.76L27.94 4.43988V4.41988H27.95C27.95 4.40988 27.95 4.39988 27.93 4.39988H27.83L27.79 4.41988H27.77L27.7 4.39988H27.63C27.63 4.39988 27.61 4.39988 27.61 4.37988V3.84988C27.61 3.79988 27.58 3.74988 27.53 3.72988H27.5L28.24 3.71988C28.25 3.71988 28.27 3.71988 28.27 3.69988V3.46988H28.47V3.62988H28.44V3.70988C28.44 3.70988 28.45 3.72988 28.47 3.72988H28.5C28.5 3.72988 28.53 3.72988 28.53 3.70988V3.44988C28.53 3.44988 28.52 3.42988 28.5 3.42988H28.4V3.18988C28.4 3.18988 28.39 3.16988 28.37 3.16988H27.79V3.08988L27.7 2.92988H27.68L27.64 2.91988L27.62 2.93988V2.96988L27.65 2.99988V3.04988H26.97V2.27988V2.25988H27.73V1.86988H49.2V2.25988H50.1L50.11 2.26988Z" fill="white"/>
<path d="M25.81 3.41986C25.81 3.41986 25.78 3.35986 25.75 3.35986" stroke="#010101" stroke-width="0.25" stroke-miterlimit="10"/>
<path d="M25.45 4.00977H25.76" stroke="#010101" stroke-width="0.25" stroke-miterlimit="10"/>
<path d="M0.22998 2.93971C0.22998 2.93971 0.22998 2.95971 0.24998 2.95971H0.46998C0.46998 2.95971 0.48998 2.95971 0.48998 2.93971V2.21971V2.19971H0.46998H0.42998H0.24998C0.24998 2.19971 0.22998 2.19971 0.22998 2.21971V2.93971Z" stroke="#010101" stroke-width="0.25" stroke-miterlimit="10"/>
<path d="M25.88 3.31006V4.05006" stroke="#010101" stroke-width="0.25" stroke-miterlimit="10"/>
<path d="M25.45 3.3501C25.45 3.3501 25.39 3.3801 25.39 3.4101" stroke="#010101" stroke-width="0.25" stroke-miterlimit="10"/>
<path d="M25.45 3.35986L25.41 3.39986" stroke="#010101" stroke-width="0.25" stroke-miterlimit="10"/>
<path d="M27.13 1.6001C27.13 1.6001 27.16 1.6601 27.19 1.6601H27.5C27.5 1.6601 27.54 1.6401 27.54 1.6201" stroke="#010101" stroke-width="0.25" stroke-miterlimit="10"/>
<path d="M25.74 3.48975V3.86975" stroke="#010101" stroke-width="0.25" stroke-miterlimit="10"/>
<path d="M53.02 4.31979H53.24C53.24 4.31979 53.26 4.31979 53.26 4.29979V3.79979C53.26 3.79979 53.26 3.77979 53.24 3.77979H53.02C53.02 3.77979 53 3.77979 53 3.79979V4.29979C53 4.29979 53 4.31979 53.02 4.31979Z" stroke="#010101" stroke-width="0.25" stroke-miterlimit="10"/>
<path d="M25.4 3.45967V3.40967" stroke="#010101" stroke-width="0.25" stroke-miterlimit="10"/>
<path d="M53.26 3.70002V3.04002C53.26 3.04002 53.26 3.02002 53.24 3.02002H53.02C53.02 3.02002 53 3.02002 53 3.04002V3.70002C53 3.70002 53 3.72002 53.02 3.72002H53.24C53.24 3.72002 53.26 3.72002 53.26 3.70002Z" stroke="#010101" stroke-width="0.25" stroke-miterlimit="10"/>
<path d="M1.29006 2.27006V1.58006C1.29006 1.58006 1.29006 1.56006 1.27006 1.56006H0.580059C0.580059 1.56006 0.560059 1.56006 0.560059 1.58006V2.27006C0.560059 2.27006 0.560059 2.29006 0.580059 2.29006H1.27006C1.27006 2.29006 1.29006 2.29006 1.29006 2.27006Z" stroke="#010101" stroke-width="0.25" stroke-miterlimit="10"/>
<path d="M51 0.22998L50.98 0.24998L50.96 0.31998V0.33998H50.98H51.01L51.09 0.30998H51.84V0.32998H51.86L51.92 0.30998H52.02C52.02 0.30998 52.04 0.30998 52.04 0.28998V0.24998C52.04 0.24998 52.04 0.22998 52.02 0.22998H51Z" stroke="#010101" stroke-width="0.25" stroke-miterlimit="10"/>
<path d="M50.94 2.42996C51.01 2.37996 51.05 2.29996 51.04 2.20996V2.27996H50.13C50.13 2.27996 50.11 2.27996 50.11 2.25996V2.18996C50.11 2.18996 50.13 2.14996 50.15 2.14996C50.17 2.14996 50.18 2.14996 50.19 2.16996H50.43C50.43 2.16996 50.47 2.16996 50.47 2.13996V1.99996C50.47 1.99996 50.45 1.95996 50.43 1.95996H50.23C50.16 1.95996 50.11 1.89996 50.11 1.83996V0.729961C50.11 0.729961 50.11 0.709961 50.09 0.709961H49.28C49.28 0.709961 49.28 0.749961 49.26 0.749961H49.23C49.23 0.749961 49.21 0.749961 49.21 0.729961V0.499961C49.21 0.499961 49.23 0.459961 49.25 0.459961H51.28C51.33 0.459961 51.37 0.499961 51.37 0.549961V0.639961C51.37 0.689961 51.33 0.729961 51.28 0.729961H51.08C51.08 0.729961 51.06 0.729961 51.06 0.749961V1.65996C51.06 1.65996 51.06 1.67996 51.08 1.67996H51.28C51.33 1.67996 51.37 1.71996 51.37 1.76996V2.17996C51.37 2.23996 51.32 2.27996 51.27 2.27996H51.21V2.20996C51.19 2.29996 51.23 2.37996 51.3 2.42996" stroke="#010101" stroke-width="0.25" stroke-miterlimit="10"/>
<path d="M52.2 1.47998C52.2 1.47998 52.2 1.49998 52.22 1.49998H52.91C52.91 1.49998 52.93 1.49998 52.93 1.47998V1.39998C52.93 1.32998 52.99 1.27998 53.05 1.27998H53.23C53.23 1.27998 53.25 1.27998 53.25 1.25998V0.65998C53.25 0.65998 53.25 0.63998 53.23 0.63998H53.05C52.98 0.63998 52.93 0.57998 52.93 0.51998V0.24998C52.93 0.24998 52.93 0.22998 52.91 0.22998H52.11C52.11 0.22998 52.09 0.22998 52.09 0.24998V0.33998C52.16 0.36998 52.19 0.43998 52.19 0.49998V1.47998H52.2Z" stroke="#010101" stroke-width="0.25" stroke-miterlimit="10"/>
<path d="M25.76 4.01971C25.76 4.01971 25.83 3.98971 25.83 3.94971" stroke="#010101" stroke-width="0.25" stroke-miterlimit="10"/>
<path d="M27.54 1.56V1.61C27.54 1.61 27.52 1.67 27.49 1.67H27.18C27.18 1.67 27.11 1.64 27.11 1.6V1.07C27.11 1.07 27.14 1 27.18 1H27.49C27.49 1 27.55 1.03 27.55 1.06" stroke="#010101" stroke-width="0.25" stroke-miterlimit="10"/>
<path d="M52.2 2.27006C52.2 2.27006 52.2 2.29006 52.22 2.29006H52.91C52.91 2.29006 52.93 2.29006 52.93 2.27006V1.58006C52.93 1.58006 52.93 1.56006 52.91 1.56006H52.22C52.22 1.56006 52.2 1.56006 52.2 1.58006V2.27006Z" stroke="#010101" stroke-width="0.25" stroke-miterlimit="10"/>
<path d="M53.36 2.86988V2.21988C53.36 2.14988 53.3 2.09988 53.24 2.09988H53.06C53.06 2.09988 53.04 2.09988 53.04 2.07988V1.39988C53.04 1.39988 53.04 1.37988 53.06 1.37988H53.24C53.31 1.37988 53.36 1.31988 53.36 1.25988V0.249883C53.36 0.239883 53.36 0.229883 53.34 0.229883H53.27L53.23 0.309883V0.349883H53.25C53.25 0.349883 53.27 0.349883 53.27 0.369883V0.529883C53.27 0.529883 53.27 0.549883 53.25 0.549883H53.06C53.06 0.549883 53.04 0.549883 53.04 0.529883V0.149883C53.04 0.149883 53.04 0.129883 53.02 0.129883H50.94C50.94 0.129883 50.9 0.139883 50.9 0.159883L50.84 0.389883C50.84 0.389883 50.86 0.449883 50.88 0.449883H51.07C51.07 0.449883 51.09 0.449883 51.09 0.429883H51.79L51.89 0.489883H51.93V0.429883H52.02C52.02 0.429883 52.11 0.469883 52.11 0.519883V2.35988C52.11 2.35988 52.07 2.44988 52.02 2.44988H51.93V2.38988H51.89L51.79 2.44988H50.83C50.83 2.44988 50.79 2.41988 50.77 2.43988C50.77 2.43988 50.76 2.45988 50.76 2.46988V3.07988C50.76 3.07988 50.76 3.09988 50.78 3.09988H50.81C50.81 3.09988 50.83 3.09988 50.83 3.07988L51.66 3.06988V3.02988L51.6 2.96988V2.93988C51.6 2.93988 51.6 2.91988 51.62 2.91988H51.79C51.79 2.91988 51.83 2.93988 51.83 2.95988V3.73988C51.83 3.73988 51.81 3.77988 51.79 3.77988H51.68C51.68 3.77988 51.65 3.78988 51.65 3.80988V4.18988C51.65 4.25988 51.71 4.30988 51.77 4.30988H51.97C51.97 4.30988 52.01 4.32988 52.01 4.34988V4.62988L51.99 4.66988H51.95L51.75 4.56988V4.54988H51.74C51.74 4.52988 51.72 4.50988 51.7 4.50988C51.68 4.50988 51.66 4.52988 51.66 4.54988V4.63988L52.02 4.81988H52.03H53.04H53.05H53.06H53.32C53.34 4.81988 53.36 4.79988 53.36 4.77988H53.35H53.33L53.3 4.73988H53.34C53.34 4.73988 53.36 4.72988 53.36 4.70988V2.86988Z" stroke="#010101" stroke-width="0.25" stroke-miterlimit="10"/>
<path d="M25.6399 2.42996C25.7099 2.37996 25.7499 2.29996 25.7399 2.20996V2.27996H25.6699C25.6099 2.27996 25.5699 2.22996 25.5699 2.17996V1.76996C25.5699 1.71996 25.6099 1.67996 25.6599 1.67996H25.8599C25.8599 1.67996 25.8799 1.67996 25.8799 1.65996V0.749961C25.8799 0.749961 25.8799 0.729961 25.8599 0.729961H25.6599C25.6099 0.729961 25.5699 0.689961 25.5699 0.639961V0.549961C25.5699 0.499961 25.6099 0.459961 25.6599 0.459961H27.6899C27.6899 0.459961 27.7299 0.479961 27.7299 0.499961V0.729961C27.7299 0.729961 27.7299 0.749961 27.7099 0.749961H27.6799C27.6799 0.749961 27.6599 0.749961 27.6599 0.729961H26.8499H26.8299V1.83996C26.8299 1.90996 26.7699 1.95996 26.7099 1.95996H26.5099C26.5099 1.95996 26.4699 1.97996 26.4699 1.99996V2.13996C26.4699 2.13996 26.4899 2.17996 26.5099 2.17996H26.7499C26.7499 2.17996 26.7899 2.13996 26.8099 2.14996C26.8199 2.14996 26.8299 2.16996 26.8299 2.18996V2.25996C26.8299 2.25996 26.8299 2.27996 26.8099 2.27996H25.9099V2.20996C25.8899 2.29996 25.9299 2.37996 25.9999 2.42996" stroke="#010101" stroke-width="0.25" stroke-miterlimit="10"/>
<path d="M25.41 3.45996H25.4" stroke="#010101" stroke-width="0.25" stroke-miterlimit="10"/>
<path d="M51.49 2.93004C51.49 2.93004 51.51 2.85004 51.55 2.83004V2.81004L51.48 2.56004L51.46 2.54004H50.87C50.87 2.54004 50.85 2.54004 50.85 2.56004V2.94004C50.85 2.94004 50.85 2.96004 50.87 2.96004H51.47C51.47 2.96004 51.49 2.96004 51.49 2.94004" stroke="#010101" stroke-width="0.25" stroke-miterlimit="10"/>
<path d="M0.219951 4.72967H0.389951L0.429951 4.78967H0.439951V4.73967H0.449951V4.42967C0.449951 4.42967 0.449951 4.40967 0.429951 4.40967H0.219951C0.219951 4.40967 0.199951 4.40967 0.199951 4.42967V4.59967C0.199951 4.59967 0.199951 4.61967 0.219951 4.61967H0.249951V4.65967L0.209951 4.73967L0.219951 4.72967Z" stroke="#010101" stroke-width="0.25" stroke-miterlimit="10"/>
<path d="M25.49 3.35006V3.31006" stroke="#010101" stroke-width="0.25" stroke-miterlimit="10"/>
<path d="M53.1 4.7399H53.27L53.23 4.6499V4.6099H53.26C53.26 4.6099 53.28 4.6099 53.28 4.5899V4.4199C53.28 4.4199 53.28 4.3999 53.26 4.3999H53.05C53.05 4.3999 53.03 4.3999 53.03 4.4199V4.7299H53.04V4.7799H53.05L53.09 4.7399H53.1Z" stroke="#010101" stroke-width="0.25" stroke-miterlimit="10"/>
<path d="M27.13 1.60008C27.13 1.60008 27.2 1.57008 27.2 1.53008V1.15008L27.18 1.10008L27.13 1.08008V1.61008V1.60008Z" stroke="#010101" stroke-width="0.25" stroke-miterlimit="10"/>
<path d="M25.49 4.06002V4.02002" stroke="#010101" stroke-width="0.25" stroke-miterlimit="10"/>
<path d="M4.03003 3.0498V3.1398" stroke="#010101" stroke-width="0.25" stroke-miterlimit="10"/>
<path d="M25.4 3.95996C25.4 3.95996 25.43 4.01996 25.46 4.01996" stroke="#010101" stroke-width="0.25" stroke-miterlimit="10"/>
<path d="M26.83 0.72998H26.98V1.89998H26.92L26.83 1.80998" stroke="#010101" stroke-width="0.25" stroke-miterlimit="10"/>
<path d="M25.4 3.95967V3.90967" stroke="#010101" stroke-width="0.25" stroke-miterlimit="10"/>
<path d="M49.81 1.06975C49.81 1.06975 49.78 1.00975 49.75 1.00975H49.44C49.44 1.00975 49.4 1.02975 49.4 1.04975V1.09975L49.39 1.04975C49.39 1.01975 49.42 0.989746 49.45 0.989746H49.76C49.76 0.989746 49.83 1.01975 49.83 1.05975V1.58975C49.83 1.58975 49.8 1.65975 49.76 1.65975H49.45C49.45 1.65975 49.39 1.62975 49.39 1.59975V1.54975L49.4 1.59975C49.4 1.61975 49.42 1.63975 49.44 1.63975H49.75C49.75 1.63975 49.81 1.60975 49.81 1.57975" stroke="#010101" stroke-width="0.25" stroke-miterlimit="10"/>
<path d="M49.74 1.52982C49.74 1.52982 49.77 1.59982 49.81 1.59982V1.06982L49.76 1.08982L49.74 1.13982V1.51982V1.52982Z" stroke="#010101" stroke-width="0.25" stroke-miterlimit="10"/>
<path d="M3.18995 3.37006H3.17995C3.17995 3.37006 3.11995 3.44006 3.13995 3.48006C3.14995 3.52006 3.19995 3.54006 3.22995 3.52006C3.26995 3.51006 3.28995 3.46006 3.26995 3.43006C3.26995 3.43006 3.26995 3.42006 3.26995 3.41006V3.39006L3.27995 3.34006C3.27995 3.33006 3.27995 3.32006 3.26995 3.31006H3.23995C3.23995 3.31006 3.21995 3.31006 3.20995 3.31006V3.36006L3.18995 3.37006Z" stroke="#010101" stroke-width="0.25" stroke-miterlimit="10"/>
<path d="M3.23999 4.53975L3.25999 4.51975H3.37999V4.62975H4.27999V4.23975H4.17999V4.52975H3.43999V4.49975C3.43999 4.46975 3.40999 4.44975 3.37999 4.45975H3.23999L3.09999 4.33975C3.08999 4.32975 3.06999 4.32975 3.05999 4.33975C3.04999 4.34975 3.04999 4.36975 3.05999 4.37975L3.23999 4.54975V4.53975Z" stroke="#010101" stroke-width="0.25" stroke-miterlimit="10"/>
<path d="M25.45 3.3501H25.76" stroke="#010101" stroke-width="0.25" stroke-miterlimit="10"/>
<path d="M50.11 1.80998L50.02 1.89998H49.96V0.72998H50.11" stroke="#010101" stroke-width="0.25" stroke-miterlimit="10"/>
<path d="M3.53003 3.08008V4.25008" stroke="#010101" stroke-width="0.25" stroke-miterlimit="10"/>
<path d="M3.38 3.08008H3.53" stroke="#010101" stroke-width="0.25" stroke-miterlimit="10"/>
<path d="M51.28 2.2199V2.1499H50.98V2.2199H51.28Z" stroke="#010101" stroke-width="0.25" stroke-miterlimit="10"/>
<path d="M3.47 4.24967L3.38 4.15967" stroke="#010101" stroke-width="0.25" stroke-miterlimit="10"/>
<path d="M25.4 3.90967H25.41" stroke="#010101" stroke-width="0.25" stroke-miterlimit="10"/>
<path d="M50.25 2.10988H50.11C50.11 2.10988 50.0499 2.10988 50.0499 2.13988V2.16988H49.2999V1.87988H49.2V2.26988H50.0999V2.15988H50.22L50.24 2.17988L50.4199 2.00988C50.4199 2.00988 50.4299 1.97988 50.4199 1.96988C50.4099 1.95988 50.39 1.95988 50.38 1.96988L50.24 2.09988L50.25 2.10988Z" stroke="#010101" stroke-width="0.25" stroke-miterlimit="10"/>
<path d="M26.44 4.35973C26.44 4.35973 26.45 4.32973 26.44 4.31973C26.43 4.30973 26.41 4.30973 26.4 4.31973L26.26 4.44973H26.12C26.12 4.44973 26.06 4.44973 26.06 4.47973V4.50973H25.31V4.21973H25.21V4.60973H26.11V4.49973H26.23L26.25 4.51973L26.43 4.34973L26.44 4.35973Z" stroke="#010101" stroke-width="0.25" stroke-miterlimit="10"/>
<path d="M50 1.89998V0.72998" stroke="#010101" stroke-width="0.25" stroke-miterlimit="10"/>
<path d="M25.41 3.90967V3.95967" stroke="#010101" stroke-width="0.25" stroke-miterlimit="10"/>
<path d="M49.28 0.699707V0.789707" stroke="#010101" stroke-width="0.25" stroke-miterlimit="10"/>
<path d="M26 4.25008V3.08008" stroke="#010101" stroke-width="0.25" stroke-miterlimit="10"/>
<path d="M49.8199 0.789707V0.699707" stroke="#010101" stroke-width="0.25" stroke-miterlimit="10"/>
<path d="M25.83 3.4201C25.83 3.4201 25.8 3.3501 25.76 3.3501" stroke="#010101" stroke-width="0.25" stroke-miterlimit="10"/>
<path d="M50.05 0.560039C50.05 0.560039 50.05 0.540039 50.03 0.540039H49.32C49.32 0.540039 49.3 0.540039 49.3 0.560039V0.590039C49.3 0.590039 49.3 0.610039 49.32 0.610039H50.03C50.03 0.610039 50.05 0.610039 50.05 0.590039V0.560039Z" stroke="#010101" stroke-width="0.25" stroke-miterlimit="10"/>
<path d="M50.13 0.609805C50.18 0.629805 50.22 0.669805 50.22 0.729805V1.8398C50.22 1.8398 50.22 1.8598 50.24 1.8598H50.44C50.52 1.8598 50.58 1.9198 50.58 1.9998V2.1598C50.58 2.1598 50.58 2.1798 50.6 2.1798H50.85C50.85 2.1798 50.87 2.1798 50.87 2.1598V2.1398C50.87 2.0798 50.92 2.0398 50.97 2.0398H51.25C51.25 2.0398 51.27 2.0398 51.27 2.0198V1.7998C51.27 1.7998 51.27 1.7798 51.25 1.7798H51.08C51.01 1.7798 50.96 1.7198 50.96 1.6598V0.749805C50.96 0.679805 51.02 0.629805 51.08 0.629805H51.25C51.25 0.629805 51.27 0.629805 51.27 0.609805V0.569805C51.27 0.569805 51.27 0.549805 51.25 0.549805H50.13C50.13 0.549805 50.11 0.549805 50.11 0.569805V0.589805L50.13 0.609805Z" stroke="#010101" stroke-width="0.25" stroke-miterlimit="10"/>
<path d="M25.83 3.41992V3.94992" stroke="#010101" stroke-width="0.25" stroke-miterlimit="10"/>
<path d="M49.88 0.959961V1.69996" stroke="#010101" stroke-width="0.25" stroke-miterlimit="10"/>
<path d="M26.6901 2.18965L26.7101 2.16965H26.8301V2.27965H27.7301V1.88965H27.6301V2.17965H26.8901V2.14965C26.8901 2.11965 26.8601 2.09965 26.8301 2.10965H26.6901L26.5501 1.98965C26.5401 1.97965 26.5201 1.97965 26.5101 1.98965C26.5001 1.99965 26.5001 2.01965 26.5101 2.02965L26.6901 2.19965V2.18965Z" stroke="#010101" stroke-width="0.25" stroke-miterlimit="10"/>
<path d="M25.96 4.25008V3.08008" stroke="#010101" stroke-width="0.25" stroke-miterlimit="10"/>
<path d="M49.49 0.999961V0.959961" stroke="#010101" stroke-width="0.25" stroke-miterlimit="10"/>
<path d="M28.2801 3.47969H28.4801V3.63969H28.4501V3.71969C28.4501 3.71969 28.4601 3.73969 28.4801 3.73969H28.5101C28.5101 3.73969 28.5401 3.73969 28.5401 3.71969V3.45969C28.5401 3.45969 28.5301 3.43969 28.5101 3.43969H28.4101V3.19969C28.4101 3.19969 28.4001 3.17969 28.3801 3.17969H27.4701C27.4701 3.17969 27.4401 3.17969 27.4401 3.19969V3.71969C27.4401 3.71969 27.4501 3.73969 27.4701 3.73969H28.2501C28.2501 3.73969 28.2801 3.73969 28.2801 3.71969V3.48969V3.47969Z" stroke="#010101" stroke-width="0.25" stroke-miterlimit="10"/>
<path d="M49.49 1.70992V1.66992" stroke="#010101" stroke-width="0.25" stroke-miterlimit="10"/>
<path d="M25.41 3.95996L25.45 3.99996" stroke="#010101" stroke-width="0.25" stroke-miterlimit="10"/>
<path d="M25.96 3.08008H26.11" stroke="#010101" stroke-width="0.25" stroke-miterlimit="10"/>
<path d="M26.98 2.28979H25.98V2.35979H26.87V2.89979H26.72V3.00979H26.98V2.27979V2.28979Z" stroke="#010101" stroke-width="0.25" stroke-miterlimit="10"/>
<path d="M26.9401 0.72998V1.89998" stroke="#010101" stroke-width="0.25" stroke-miterlimit="10"/>
<path d="M26.11 4.15967L26.02 4.24967" stroke="#010101" stroke-width="0.25" stroke-miterlimit="10"/>
<path d="M26.02 4.25H25.96" stroke="#010101" stroke-width="0.25" stroke-miterlimit="10"/>
<path d="M27.67 0.789707V0.699707" stroke="#010101" stroke-width="0.25" stroke-miterlimit="10"/>
<path d="M25.76 4.00971C25.76 4.00971 25.82 3.97971 25.82 3.94971" stroke="#010101" stroke-width="0.25" stroke-miterlimit="10"/>
<path d="M25.97 2.2199V2.1499H25.67V2.2199H25.97Z" stroke="#010101" stroke-width="0.25" stroke-miterlimit="10"/>
<path d="M3.68005 3.94969C3.68005 3.94969 3.75005 3.91969 3.75005 3.87969V3.49969C3.75005 3.49969 3.72005 3.42969 3.68005 3.42969" stroke="#010101" stroke-width="0.25" stroke-miterlimit="10"/>
<path d="M4.09002 3.9601C4.09002 3.9601 4.06002 4.0201 4.03002 4.0201H3.72002C3.72002 4.0201 3.65002 3.9901 3.65002 3.9501V3.4201C3.65002 3.4201 3.68002 3.3501 3.72002 3.3501H4.03002C4.03002 3.3501 4.09002 3.3801 4.09002 3.4101V3.4601H4.08002V3.4101L4.04002 3.3701H3.73002C3.73002 3.3701 3.67002 3.4001 3.67002 3.4301V3.9601C3.67002 3.9601 3.70002 4.0201 3.73002 4.0201H4.04002L4.08002 3.9801V3.9301H4.09002V3.9801V3.9601Z" stroke="#010101" stroke-width="0.25" stroke-miterlimit="10"/>
<path d="M3.52997 4.25H3.46997" stroke="#010101" stroke-width="0.25" stroke-miterlimit="10"/>
<path d="M3.48999 3.08008V4.25008" stroke="#010101" stroke-width="0.25" stroke-miterlimit="10"/>
<path d="M26.3 3.36993V3.31993C26.3 3.31993 26.27 3.29993 26.26 3.30993H26.23C26.23 3.30993 26.21 3.32993 26.22 3.34993V3.39993L26.23 3.41993C26.21 3.44993 26.22 3.49993 26.25 3.51993C26.28 3.53993 26.33 3.52993 26.35 3.49993C26.37 3.46993 26.36 3.41993 26.33 3.39993C26.33 3.39993 26.32 3.39993 26.31 3.39993H26.3V3.36993Z" stroke="#010101" stroke-width="0.25" stroke-miterlimit="10"/>
<path d="M27.12 0.699707V0.789707" stroke="#010101" stroke-width="0.25" stroke-miterlimit="10"/>
<path d="M4 4.02002V4.06002" stroke="#010101" stroke-width="0.25" stroke-miterlimit="10"/>
<path d="M4 3.31006V3.35006" stroke="#010101" stroke-width="0.25" stroke-miterlimit="10"/>
<path d="M25.81 3.41992C25.81 3.41992 25.74 3.44992 25.74 3.48992" stroke="#010101" stroke-width="0.25" stroke-miterlimit="10"/>
<path d="M2.77004 2.8898V3.0898C2.77004 3.0898 2.77004 3.1098 2.75004 3.1098H2.68004C2.68004 3.1098 2.66004 3.1098 2.66004 3.0898C2.66004 3.0898 2.66004 3.0498 2.64004 3.0498H1.84004V2.9998L1.87004 2.9698V2.9398L1.85004 2.9198H1.79004L1.70004 3.0898V3.1298C1.70004 3.1298 1.70004 3.1498 1.72004 3.1498H2.38004C2.38004 3.1498 2.40004 3.1498 2.40004 3.1698V3.5698L2.39004 3.5898L1.96004 3.7398C1.96004 3.7398 1.88004 3.7998 1.88004 3.8598V4.3898C1.88004 4.3898 1.88004 4.4098 1.86004 4.4098H1.79004L1.72004 4.4298H1.70004L1.66004 4.4098H1.65004H1.56004C1.55004 4.4098 1.54004 4.4098 1.54004 4.4298L1.55004 4.4598L1.73004 4.5598H1.77004V4.5198C1.77004 4.5198 1.77004 4.4998 1.79004 4.4998H1.85004C1.85004 4.4998 1.87004 4.4998 1.87004 4.5198V4.6098C1.87004 4.6098 1.87004 4.6298 1.89004 4.6298H3.38004C3.38004 4.6298 3.40004 4.6298 3.40004 4.6098V4.5398C3.40004 4.5398 3.38004 4.4998 3.36004 4.4998C3.34004 4.4998 3.33004 4.4998 3.32004 4.5198H3.30004L3.08004 4.5298C3.06004 4.5298 3.04004 4.5098 3.04004 4.4898V4.3498C3.04004 4.3498 3.06004 4.3098 3.08004 4.3098H3.28004C3.35004 4.3098 3.40004 4.2498 3.40004 4.1898V3.0798C3.40004 3.0798 3.40004 3.0598 3.42004 3.0598H4.23004V3.0698C4.23004 3.0798 4.23004 3.0898 4.25004 3.0898H4.28004C4.28004 3.0898 4.30004 3.0898 4.30004 3.0698V2.8398C4.30004 2.8398 4.28004 2.7998 4.26004 2.7998H2.79004C2.79004 2.7998 2.77004 2.7998 2.77004 2.8198V2.8798C2.77004 2.8798 2.77004 2.8998 2.79004 2.8998" stroke="#010101" stroke-width="0.25" stroke-miterlimit="10"/>
<path d="M0.46998 4.31979C0.46998 4.31979 0.48998 4.31979 0.48998 4.29979V3.79979C0.48998 3.79979 0.48998 3.77979 0.46998 3.77979H0.24998C0.24998 3.77979 0.22998 3.77979 0.22998 3.79979V4.29979C0.22998 4.29979 0.22998 4.31979 0.24998 4.31979H0.46998Z" stroke="#010101" stroke-width="0.25" stroke-miterlimit="10"/>
<path d="M26.89 0.560039V0.590039C26.89 0.590039 26.89 0.610039 26.91 0.610039H27.62C27.62 0.610039 27.64 0.610039 27.64 0.590039V0.560039C27.64 0.560039 27.64 0.540039 27.62 0.540039H26.91C26.91 0.540039 26.89 0.540039 26.89 0.560039Z" stroke="#010101" stroke-width="0.25" stroke-miterlimit="10"/>
<path d="M0.22998 3.70002C0.22998 3.70002 0.22998 3.72002 0.24998 3.72002H0.46998C0.46998 3.72002 0.48998 3.72002 0.48998 3.70002V3.04002C0.48998 3.04002 0.48998 3.02002 0.46998 3.02002H0.24998C0.24998 3.02002 0.22998 3.02002 0.22998 3.04002V3.70002Z" stroke="#010101" stroke-width="0.25" stroke-miterlimit="10"/>
<path d="M2.00005 2.92979C2.00005 2.92979 2.00005 2.94979 2.02005 2.94979H2.62005C2.62005 2.94979 2.64005 2.94979 2.64005 2.92979V2.54979C2.64005 2.54979 2.64005 2.52979 2.62005 2.52979H2.03005L2.01005 2.54979L1.93005 2.79979V2.81979C1.93005 2.81979 2.00005 2.87979 2.00005 2.91979" stroke="#010101" stroke-width="0.25" stroke-miterlimit="10"/>
<path d="M26.8201 0.609805L26.8401 0.589805V0.569805C26.8401 0.569805 26.8401 0.549805 26.8201 0.549805H25.7001C25.7001 0.549805 25.6801 0.549805 25.6801 0.569805V0.609805C25.6801 0.609805 25.6801 0.629805 25.7001 0.629805H25.8701C25.9401 0.629805 25.9901 0.689805 25.9901 0.749805V1.6598C25.9901 1.7298 25.9301 1.7798 25.8701 1.7798H25.7001C25.7001 1.7798 25.6801 1.7798 25.6801 1.7998V2.0198C25.6801 2.0198 25.6801 2.0398 25.7001 2.0398H25.9801C26.0401 2.0398 26.0801 2.0898 26.0801 2.1398V2.1598C26.0801 2.1598 26.0801 2.1798 26.1001 2.1798H26.3501C26.3501 2.1798 26.3701 2.1798 26.3701 2.1598V1.9998C26.3701 1.9198 26.4301 1.8598 26.5101 1.8598H26.7101C26.7101 1.8598 26.7301 1.8598 26.7301 1.8398V0.729805C26.7301 0.679805 26.7601 0.629805 26.8201 0.609805Z" stroke="#010101" stroke-width="0.25" stroke-miterlimit="10"/>
<path d="M2.48995 0.22998H1.46995C1.46995 0.22998 1.44995 0.22998 1.44995 0.24998V0.28998C1.44995 0.28998 1.44995 0.30998 1.46995 0.30998H1.56995L1.62995 0.32998H1.64995H1.69995L2.39995 0.31998L2.47995 0.34998H2.52995V0.31998L2.50995 0.24998L2.48995 0.22998Z" stroke="#010101" stroke-width="0.25" stroke-miterlimit="10"/>
<path d="M1.28998 1.47998V0.49998C1.28998 0.42998 1.31998 0.36998 1.37998 0.33998V0.31998L1.38998 0.24998C1.38998 0.23998 1.38998 0.22998 1.36998 0.22998H0.56998C0.56998 0.22998 0.54998 0.22998 0.54998 0.24998V0.50998C0.54998 0.57998 0.48998 0.62998 0.42998 0.62998H0.24998C0.24998 0.62998 0.22998 0.62998 0.22998 0.64998V1.24998C0.22998 1.24998 0.22998 1.26998 0.24998 1.26998H0.42998C0.49998 1.26998 0.54998 1.32998 0.54998 1.38998V1.46998C0.54998 1.46998 0.54998 1.48998 0.56998 1.48998H1.25998C1.25998 1.48998 1.27998 1.48998 1.27998 1.46998" stroke="#010101" stroke-width="0.25" stroke-miterlimit="10"/>
<path d="M27.46 0.959961V0.999961" stroke="#010101" stroke-width="0.25" stroke-miterlimit="10"/>
<path d="M1.56005 3.1401V2.9501C1.56005 2.8701 1.62005 2.8101 1.70005 2.8101H1.85005L1.87005 2.7901L1.94005 2.5601V2.5401H1.92005H1.65005V2.5201H1.63005L1.57005 2.5401H1.48005C1.38005 2.5401 1.30005 2.4701 1.29005 2.3701L1.27005 2.3501H0.570049C0.570049 2.3501 0.550049 2.3501 0.550049 2.3701V2.9401L0.570049 2.9601L1.53005 3.1701H1.55005V3.1501L1.56005 3.1401Z" stroke="#010101" stroke-width="0.25" stroke-miterlimit="10"/>
<path d="M25.74 3.87988C25.74 3.87988 25.77 3.94988 25.81 3.94988" stroke="#010101" stroke-width="0.25" stroke-miterlimit="10"/>
<path d="M1.56006 3.69977V3.23977L1.54006 3.21977L0.580059 3.00977H0.560059V3.02977V3.68977C0.560059 3.68977 0.560059 3.70977 0.580059 3.70977H1.54006C1.54006 3.70977 1.56006 3.70977 1.56006 3.68977" stroke="#010101" stroke-width="0.25" stroke-miterlimit="10"/>
<path d="M2.39995 3.68967L1.96995 3.83967V3.85967L1.95995 4.38967V4.44967L1.94995 4.50967C1.94995 4.51967 1.94995 4.52967 1.96995 4.52967H2.89995C2.89995 4.52967 2.91995 4.52967 2.91995 4.50967V4.34967C2.91995 4.26967 2.97995 4.20967 3.05995 4.20967H3.25995C3.25995 4.20967 3.27995 4.20967 3.27995 4.18967V3.59967H3.24995C3.16995 3.61967 3.08995 3.57967 3.06995 3.50967C3.04995 3.44967 3.06995 3.37967 3.12995 3.34967V3.31967C3.13995 3.26967 3.18995 3.23967 3.23995 3.25967H3.25995V3.23967V3.08967C3.25995 3.03967 3.28995 2.98967 3.34995 2.96967L3.36995 2.94967V2.92967C3.36995 2.92967 3.36995 2.90967 3.34995 2.90967H2.87995C2.87995 2.90967 2.85995 2.90967 2.85995 2.92967V3.09967C2.85995 3.16967 2.79995 3.21967 2.73995 3.21967H2.66995C2.66995 3.21967 2.58995 3.19967 2.56995 3.16967H2.54995H2.49995C2.48995 3.16967 2.47995 3.16967 2.47995 3.18967V3.58967C2.47995 3.63967 2.44995 3.68967 2.39995 3.70967" stroke="#010101" stroke-width="0.25" stroke-miterlimit="10"/>
<path d="M1.55005 3.77979H0.570049C0.570049 3.77979 0.550049 3.77979 0.550049 3.79979V4.69978C0.550049 4.69978 0.550049 4.71978 0.570049 4.71978H1.35005C1.35005 4.71978 1.37005 4.71978 1.37005 4.69978V4.34979C1.37005 4.26979 1.43005 4.20979 1.51005 4.20979H1.71005C1.71005 4.20979 1.73005 4.20979 1.73005 4.18979V3.89979C1.73005 3.89979 1.73005 3.87979 1.71005 3.87979H1.70005C1.64005 3.87979 1.59005 3.84979 1.57005 3.78979H1.55005V3.77979Z" stroke="#010101" stroke-width="0.25" stroke-miterlimit="10"/>
<path d="M53.26 2.93971V2.21971C53.26 2.21971 53.26 2.19971 53.24 2.19971H53.06H53.02H53V2.21971V2.93971C53 2.93971 53 2.95971 53.02 2.95971H53.24C53.24 2.95971 53.26 2.95971 53.26 2.93971Z" stroke="#010101" stroke-width="0.25" stroke-miterlimit="10"/>
<path d="M0.220005 0.219883H0.150005C0.150005 0.219883 0.130005 0.219883 0.130005 0.239883V1.24988C0.130005 1.31988 0.190005 1.36988 0.250005 1.36988H0.430005C0.430005 1.36988 0.450005 1.36988 0.450005 1.38988V2.06988C0.450005 2.06988 0.450005 2.08988 0.430005 2.08988H0.250005C0.180005 2.08988 0.130005 2.14988 0.130005 2.20988V4.69988C0.130005 4.69988 0.130005 4.71988 0.150005 4.71988H0.190005L0.160005 4.75988H0.140005H0.130005C0.130005 4.75988 0.150005 4.80988 0.170005 4.80988H0.440005H0.450005H1.46H1.47L1.82 4.62988V4.60988L1.83 4.53988C1.83 4.51988 1.81 4.49988 1.79 4.49988C1.77 4.49988 1.75 4.51988 1.75 4.53988L1.74 4.55988L1.54 4.65988H1.5L1.48 4.61988V4.33988C1.48 4.33988 1.5 4.29988 1.52 4.29988H1.72C1.79 4.29988 1.84 4.23988 1.84 4.17988V3.79988C1.84 3.79988 1.83 3.76988 1.81 3.76988H1.7C1.7 3.76988 1.66 3.74988 1.66 3.72988V2.94988C1.66 2.94988 1.68 2.90988 1.7 2.90988H1.87C1.87 2.90988 1.89 2.90988 1.89 2.92988V2.95988L1.83 3.01988V3.05988H2.66001C2.66001 3.05988 2.66001 3.09988 2.68001 3.09988H2.71C2.71 3.09988 2.73 3.09988 2.73 3.07988V2.46988C2.73 2.46988 2.71 2.42988 2.69 2.42988C2.68 2.42988 2.67001 2.42988 2.66001 2.43988H2.64001H1.69L1.59 2.37988H1.55V2.43988H1.46C1.46 2.43988 1.37 2.39988 1.37 2.34988V0.499883C1.37 0.499883 1.41 0.409883 1.46 0.409883H1.55V0.469883H1.59L1.69 0.409883H2.39001C2.39001 0.409883 2.39001 0.439883 2.41001 0.439883H2.6C2.6 0.439883 2.64001 0.419883 2.64001 0.399883L2.58 0.159883C2.58 0.139883 2.56 0.129883 2.54 0.129883H0.470005C0.470005 0.129883 0.450005 0.129883 0.450005 0.149883V0.509883C0.450005 0.509883 0.450005 0.529883 0.430005 0.529883H0.240005C0.240005 0.529883 0.220005 0.529883 0.220005 0.509883V0.349883C0.220005 0.349883 0.220005 0.329883 0.240005 0.329883H0.260005V0.289883L0.220005 0.209883V0.219883Z" stroke="#010101" stroke-width="0.25" stroke-miterlimit="10"/>
<path d="M27.0699 1.70973V0.969727" stroke="#010101" stroke-width="0.25" stroke-miterlimit="10"/>
<path d="M27.46 1.66992V1.70992" stroke="#010101" stroke-width="0.25" stroke-miterlimit="10"/>
<path d="M25.41 3.40967V3.45967" stroke="#010101" stroke-width="0.25" stroke-miterlimit="10"/>
<path d="M27.54 1.11002V1.06002C27.54 1.06002 27.51 1.02002 27.49 1.02002H27.18C27.18 1.02002 27.12 1.05002 27.12 1.08002" stroke="#010101" stroke-width="0.25" stroke-miterlimit="10"/>
<path d="M51.94 3.77979H51.92C51.9 3.84979 51.84 3.87979 51.79 3.87979H51.78C51.78 3.87979 51.76 3.87979 51.76 3.89979V4.18979C51.76 4.18979 51.76 4.20979 51.78 4.20979H51.98C52.06 4.20979 52.12 4.26979 52.12 4.34979V4.69978C52.12 4.69978 52.12 4.71978 52.14 4.71978H52.92C52.92 4.71978 52.94 4.71978 52.94 4.69978V3.79979C52.94 3.79979 52.94 3.77979 52.92 3.77979H51.94Z" stroke="#010101" stroke-width="0.25" stroke-miterlimit="10"/>
<path d="M25.28 3.0698L26.09 3.0598C26.1 3.0598 26.11 3.0598 26.11 3.0798V4.1898C26.11 4.2598 26.17 4.3098 26.23 4.3098H26.43C26.43 4.3098 26.47 4.3298 26.47 4.3498V4.4898C26.47 4.4898 26.45 4.5298 26.43 4.5298H26.19C26.19 4.5298 26.15 4.4898 26.13 4.4998C26.12 4.4998 26.11 4.5198 26.11 4.5398V4.6098C26.11 4.6098 26.11 4.6298 26.13 4.6298H27.62C27.62 4.6298 27.64 4.6298 27.64 4.6098V4.5198C27.64 4.5198 27.64 4.4998 27.66 4.4998H27.72C27.72 4.4998 27.74 4.4998 27.74 4.5198V4.5598H27.78L27.96 4.4598V4.4398H27.97C27.97 4.4298 27.97 4.4198 27.95 4.4198H27.85L27.81 4.4398H27.79L27.72 4.4198H27.65C27.65 4.4198 27.63 4.4198 27.63 4.3998V3.8698C27.63 3.8198 27.6 3.7698 27.55 3.7498L27.12 3.5998V3.5798L27.11 3.1798C27.11 3.1698 27.11 3.1598 27.13 3.1598H27.79C27.79 3.1598 27.81 3.1598 27.81 3.1398V3.0998L27.72 2.9398H27.7L27.66 2.9298L27.64 2.9498V2.9798L27.67 3.0098V3.0598H26.87C26.87 3.0598 26.85 3.0598 26.85 3.0798C26.85 3.0798 26.85 3.1198 26.83 3.1198H26.76C26.76 3.1198 26.74 3.1198 26.74 3.0998V2.8998C26.74 2.8998 26.76 2.8998 26.76 2.8798V2.8198C26.76 2.8198 26.76 2.7998 26.74 2.7998H25.27C25.27 2.7998 25.23 2.8198 25.23 2.8398V3.0698C25.23 3.0698 25.23 3.0898 25.25 3.0898H25.28C25.28 3.0898 25.3 3.0898 25.3 3.0698" stroke="#010101" stroke-width="0.25" stroke-miterlimit="10"/>
<path d="M25.76 3.35986H25.45" stroke="#010101" stroke-width="0.25" stroke-miterlimit="10"/>
<path d="M51.93 3.70002C51.93 3.70002 51.93 3.72002 51.95 3.72002H52.91C52.91 3.72002 52.93 3.72002 52.93 3.70002V3.02002H52.9L51.94 3.23002L51.92 3.25002V3.71002L51.93 3.70002Z" stroke="#010101" stroke-width="0.25" stroke-miterlimit="10"/>
<path d="M27.09 3.6899C27.09 3.6899 27.01 3.6299 27.01 3.5699V3.1699C27.01 3.1699 27.01 3.1499 26.99 3.1499H26.92C26.92 3.1499 26.86 3.2099 26.82 3.2099H26.75C26.68 3.2099 26.63 3.1499 26.63 3.0899V2.9199C26.63 2.9199 26.63 2.8999 26.61 2.8999H26.14C26.14 2.8999 26.12 2.8999 26.12 2.9199V2.9399L26.14 2.9599C26.19 2.9799 26.23 3.0199 26.23 3.0799V3.2399H26.26C26.31 3.2299 26.36 3.2599 26.37 3.2999V3.3199L26.38 3.3299C26.45 3.3799 26.46 3.4699 26.42 3.5299C26.38 3.5799 26.32 3.6099 26.26 3.5899H26.24V3.6099V4.1799C26.24 4.1799 26.24 4.1999 26.26 4.1999H26.46C26.54 4.1999 26.6 4.2599 26.6 4.3399V4.4999C26.6 4.4999 26.6 4.5199 26.62 4.5199H27.55C27.55 4.5199 27.57 4.5199 27.57 4.4999V4.3799L27.56 3.8499V3.8299L27.11 3.6799L27.09 3.6899Z" stroke="#010101" stroke-width="0.25" stroke-miterlimit="10"/>
<path d="M25.46 3.1398V3.0498" stroke="#010101" stroke-width="0.25" stroke-miterlimit="10"/>
<path d="M51.93 3.13984V3.15984H51.96L52.92 2.94984L52.94 2.92984V2.35984C52.94 2.35984 52.94 2.33984 52.92 2.33984H52.2201L52.2001 2.35984C52.2001 2.45984 52.11 2.52984 52.01 2.52984H51.92L51.8601 2.50984H51.84H51.7901L51.57 2.51984H51.55V2.54984L51.62 2.77984L51.64 2.79984H51.7901C51.8701 2.79984 51.93 2.85984 51.93 2.93984V3.12984V3.13984Z" stroke="#010101" stroke-width="0.25" stroke-miterlimit="10"/>
<path d="M3.60999 4.05982V3.31982" stroke="#010101" stroke-width="0.25" stroke-miterlimit="10"/>
<path d="M25.76 4.02002H25.45" stroke="#010101" stroke-width="0.25" stroke-miterlimit="10"/>
<path d="M25.8101 3.94992V3.41992" stroke="#010101" stroke-width="0.25" stroke-miterlimit="10"/>
<path d="M51 3.64969V3.71969C51 3.71969 51.01 3.73969 51.03 3.73969H51.81C51.81 3.73969 51.84 3.73969 51.84 3.71969V3.19969C51.84 3.19969 51.83 3.17969 51.81 3.17969H50.9C50.9 3.17969 50.87 3.17969 50.87 3.19969V3.43969H50.77C50.77 3.43969 50.74 3.43969 50.74 3.45969V3.71969C50.74 3.71969 50.75 3.73969 50.77 3.73969H50.8C50.8 3.73969 50.83 3.73969 50.83 3.71969V3.63969H50.8V3.47969H51V3.64969Z" stroke="#010101" stroke-width="0.25" stroke-miterlimit="10"/>
<path d="M49.93 1.87996V1.70996H27.01V1.87996H49.93Z" stroke="#010101" stroke-width="0.25" stroke-miterlimit="10"/>
<path d="M25.9301 4.23006V4.06006H3.56006V4.23006H25.9301Z" stroke="#010101" stroke-width="0.25" stroke-miterlimit="10"/>
<path d="M25.9301 3.31014V3.14014H3.56006V3.31014H25.9301Z" stroke="#010101" stroke-width="0.25" stroke-miterlimit="10"/>
<path d="M49.93 0.960039V0.790039H27.01V0.960039H49.93Z" stroke="#010101" stroke-width="0.25" stroke-miterlimit="10"/>
<path d="M4.28006 3.14014H3.56006V3.31014H4.28006" stroke="#010101" stroke-width="0.25" stroke-miterlimit="10"/>
<path d="M4.28006 4.06006H3.56006V4.23006H4.28006" stroke="#010101" stroke-width="0.25" stroke-miterlimit="10"/>
<path d="M49.2101 1.87996H49.9301V1.70996H49.2101" stroke="#010101" stroke-width="0.25" stroke-miterlimit="10"/>
<path d="M49.2101 0.960039H49.9301V0.790039H49.2101" stroke="#010101" stroke-width="0.25" stroke-miterlimit="10"/>
</g>
<defs>
<clipPath id="clip0_1603_355">
<rect width="53.49" height="4.95" fill="white"/>
</clipPath>
</defs>
</svg>
