<svg width="66" height="5" viewBox="0 0 66 5" fill="none" xmlns="http://www.w3.org/2000/svg">
<g clip-path="url(#clip0_1603_490)">
<rect width="65.49" height="4.95" fill="white"/>
<path d="M62.11 2.26988C62.11 2.26988 62.12 2.28988 62.13 2.28988H62.94V2.42988H62.82C62.82 2.42988 62.78 2.39988 62.76 2.41988C62.76 2.41988 62.75 2.43988 62.75 2.44988V3.05988C62.75 3.05988 62.75 3.07988 62.77 3.07988H62.8C62.8 3.07988 62.82 3.07988 62.82 3.05988L63.65 3.04988V3.00988L63.59 2.94988V2.91988C63.59 2.91988 63.59 2.89988 63.61 2.89988H63.78C63.78 2.89988 63.82 2.91988 63.82 2.93988V3.17988C63.82 3.17988 63.81 3.15988 63.79 3.15988H62.88C62.88 3.15988 62.85 3.15988 62.85 3.17988V3.41988H62.75C62.75 3.41988 62.72 3.41988 62.72 3.43988V3.69988C62.72 3.69988 62.73 3.71988 62.75 3.71988H62.78C62.78 3.71988 62.81 3.71988 62.81 3.69988V3.61988H62.78V3.45988H62.98V3.68988C62.98 3.68988 62.99 3.70988 63.01 3.70988H63.79C63.79 3.70988 63.82 3.70988 63.82 3.68988V3.70988C63.82 3.70988 63.8 3.74988 63.78 3.74988H63.67C63.67 3.74988 63.64 3.75988 63.64 3.77988V4.15988C63.64 4.22988 63.7 4.27988 63.76 4.27988H63.96C63.96 4.27988 64 4.29988 64 4.31988V4.59988L63.98 4.63988H63.94L63.74 4.53988V4.51988H63.73C63.73 4.49988 63.71 4.47988 63.69 4.47988C63.67 4.47988 63.65 4.49988 63.65 4.51988V4.58988L63.66 4.60988L64.01 4.78988H64.02H65.03H65.04H65.05H65.31C65.33 4.78988 65.35 4.76988 65.35 4.74988H65.32L65.29 4.70988H65.33C65.33 4.70988 65.35 4.69988 65.35 4.67988V2.83988V2.18988C65.35 2.11988 65.29 2.06988 65.23 2.06988H65.05C65.05 2.06988 65.03 2.06988 65.03 2.04988V1.36988C65.03 1.36988 65.03 1.34988 65.05 1.34988H65.23C65.3 1.34988 65.35 1.28988 65.35 1.22988V0.219883C65.35 0.209883 65.35 0.199883 65.33 0.199883H65.26L65.22 0.279883V0.319883H65.24C65.24 0.319883 65.26 0.319883 65.26 0.339883V0.499883C65.26 0.499883 65.26 0.519883 65.24 0.519883H65.05C65.05 0.519883 65.03 0.519883 65.03 0.499883V0.149883C65.03 0.149883 65.03 0.129883 65.01 0.129883H62.93C62.93 0.129883 62.89 0.139883 62.89 0.159883L62.83 0.389883C62.83 0.389883 62.85 0.449883 62.87 0.449883H61.24C61.24 0.449883 61.2 0.469883 61.2 0.489883V0.719883V0.799883H33.73V0.489883C33.73 0.489883 33.71 0.449883 33.69 0.449883H31.66C31.61 0.449883 31.57 0.489883 31.57 0.539883V0.629883C31.57 0.679883 31.61 0.719883 31.66 0.719883H31.86C31.86 0.719883 31.88 0.719883 31.88 0.739883V1.64988C31.88 1.64988 31.88 1.66988 31.86 1.66988H31.66C31.61 1.66988 31.57 1.70988 31.57 1.75988V2.16988C31.57 2.22988 31.62 2.26988 31.67 2.26988H31.74C31.73 2.32988 31.69 2.37988 31.64 2.40988H32C32 2.40988 31.95 2.36988 31.93 2.33988H32.86V2.87988H32.71C32.71 2.87988 32.73 2.85988 32.73 2.84988V2.78988C32.73 2.78988 32.73 2.76988 32.71 2.76988H31.24C31.24 2.76988 31.2 2.78988 31.2 2.80988V3.11988H4.28V2.80988C4.28 2.80988 4.26 2.76988 4.24 2.76988H2.77C2.77 2.76988 2.75 2.76988 2.75 2.78988V2.42988C2.75 2.42988 2.73 2.38988 2.71 2.38988C2.7 2.38988 2.69001 2.38988 2.68001 2.39988H2.66001H1.71L1.61 2.33988H1.57V2.39988H1.48C1.48 2.39988 1.39 2.35988 1.39 2.30988V0.499883C1.39 0.499883 1.43 0.409883 1.48 0.409883H1.57V0.469883H1.61L1.71 0.409883H2.41001C2.41001 0.409883 2.41001 0.439883 2.43001 0.439883H2.62C2.62 0.439883 2.66001 0.419883 2.66001 0.399883L2.6 0.159883C2.6 0.139883 2.58 0.129883 2.56 0.129883H0.470005C0.470005 0.129883 0.450005 0.129883 0.450005 0.149883V0.509883C0.450005 0.509883 0.450005 0.529883 0.430005 0.529883H0.240005C0.240005 0.529883 0.220005 0.529883 0.220005 0.509883V0.349883C0.220005 0.349883 0.220005 0.329883 0.240005 0.329883H0.260005V0.289883L0.220005 0.209883H0.150005C0.150005 0.209883 0.130005 0.209883 0.130005 0.229883V1.23988C0.130005 1.30988 0.190005 1.35988 0.250005 1.35988H0.430005C0.430005 1.35988 0.450005 1.35988 0.450005 1.37988V2.05988C0.450005 2.05988 0.450005 2.07988 0.430005 2.07988H0.250005C0.180005 2.07988 0.130005 2.13988 0.130005 2.19988V4.68988C0.130005 4.68988 0.130005 4.70988 0.150005 4.70988H0.190005L0.160005 4.74988H0.140005H0.130005C0.130005 4.74988 0.150005 4.79988 0.170005 4.79988H0.430005H0.440005H0.460005H1.47H1.48L1.83 4.61988V4.59988H1.84C1.84 4.59988 1.85 4.60988 1.86 4.60988H3.35C3.35 4.60988 3.37 4.60988 3.37 4.58988H4.28V4.19988H31.2V4.58988H32.1C32.1 4.58988 32.11 4.60988 32.12 4.60988H33.61C33.61 4.60988 33.63 4.60988 33.63 4.58988V4.49988C33.63 4.49988 33.63 4.47988 33.65 4.47988H33.71C33.71 4.47988 33.73 4.47988 33.73 4.49988V4.53988H33.77L33.95 4.43988V4.41988H33.96C33.96 4.40988 33.96 4.39988 33.94 4.39988H33.85H33.84L33.8 4.41988H33.78L33.71 4.39988H33.64C33.64 4.39988 33.62 4.39988 33.62 4.37988V3.84988C33.62 3.79988 33.59 3.74988 33.54 3.72988H33.51L34.25 3.71988C34.26 3.71988 34.28 3.71988 34.28 3.69988V3.46988H34.48V3.62988H34.45V3.70988C34.45 3.70988 34.46 3.72988 34.48 3.72988H34.51C34.51 3.72988 34.54 3.72988 34.54 3.70988V3.44988C34.54 3.44988 34.53 3.42988 34.51 3.42988H34.41V3.18988C34.41 3.18988 34.4 3.16988 34.38 3.16988H33.8V3.08988L33.71 2.92988H33.69L33.65 2.91988L33.63 2.93988V2.96988L33.66 2.99988V3.04988H32.98V2.27988V2.25988H33.74V1.86988H61.21V2.25988H62.11V2.26988Z" fill="white"/>
<path d="M31.88 3.31006V4.05006" stroke="#010101" stroke-width="0.25" stroke-miterlimit="10"/>
<path d="M31.8199 3.94992V3.41992" stroke="#010101" stroke-width="0.25" stroke-miterlimit="10"/>
<path d="M62.94 2.42996C63.01 2.37996 63.05 2.29996 63.04 2.20996V2.27996H62.13C62.13 2.27996 62.11 2.27996 62.11 2.25996V2.18996C62.11 2.18996 62.13 2.14996 62.15 2.14996C62.17 2.14996 62.18 2.14996 62.19 2.16996H62.43C62.43 2.16996 62.47 2.16996 62.47 2.13996V1.99996C62.47 1.97996 62.45 1.95996 62.43 1.95996H62.23C62.16 1.95996 62.11 1.89996 62.11 1.83996V0.729961C62.11 0.729961 62.11 0.709961 62.09 0.709961H61.28C61.28 0.709961 61.28 0.749961 61.26 0.749961H61.23C61.23 0.749961 61.21 0.749961 61.21 0.729961V0.499961C61.21 0.499961 61.23 0.459961 61.25 0.459961H63.28C63.33 0.459961 63.37 0.499961 63.37 0.549961V0.639961C63.37 0.689961 63.33 0.729961 63.28 0.729961H63.08C63.08 0.729961 63.06 0.729961 63.06 0.749961V1.65996C63.06 1.65996 63.06 1.67996 63.08 1.67996H63.28C63.33 1.67996 63.37 1.71996 63.37 1.76996V2.17996C63.37 2.23996 63.32 2.27996 63.27 2.27996H63.21V2.20996C63.19 2.29996 63.23 2.37996 63.3 2.42996" stroke="#010101" stroke-width="0.25" stroke-miterlimit="10"/>
<path d="M61.81 1.06975C61.81 1.06975 61.78 1.00975 61.75 1.00975H61.44C61.44 1.00975 61.4 1.02975 61.4 1.04975V1.09975L61.39 1.04975C61.39 1.01975 61.42 0.989746 61.45 0.989746H61.76C61.76 0.989746 61.83 1.01975 61.83 1.05975V1.58975C61.83 1.58975 61.8 1.65975 61.76 1.65975H61.45C61.45 1.65975 61.39 1.62975 61.39 1.59975V1.54975L61.4 1.59975C61.4 1.61975 61.42 1.63975 61.44 1.63975H61.75C61.75 1.63975 61.81 1.60975 61.81 1.57975" stroke="#010101" stroke-width="0.25" stroke-miterlimit="10"/>
<path d="M63 3.64969V3.71969C63 3.71969 63.01 3.73969 63.03 3.73969H63.81C63.81 3.73969 63.84 3.73969 63.84 3.71969V3.19969C63.84 3.19969 63.83 3.17969 63.81 3.17969H62.9C62.9 3.17969 62.87 3.17969 62.87 3.19969V3.43969H62.77C62.77 3.43969 62.74 3.43969 62.74 3.45969V3.71969C62.74 3.71969 62.75 3.73969 62.77 3.73969H62.8C62.8 3.73969 62.83 3.73969 62.83 3.71969V3.63969H62.8V3.47969H63V3.64969Z" stroke="#010101" stroke-width="0.25" stroke-miterlimit="10"/>
<path d="M63.93 3.13984V3.15984H63.96L64.92 2.94984L64.9401 2.92984V2.35984C64.9401 2.35984 64.94 2.33984 64.92 2.33984H64.2201L64.2 2.35984C64.2 2.45984 64.1101 2.52984 64.0101 2.52984H63.92L63.8601 2.50984H63.84H63.7901L63.57 2.51984H63.55V2.54984L63.62 2.77984L63.64 2.79984H63.7901C63.8701 2.79984 63.93 2.85984 63.93 2.93984V3.12984V3.13984Z" stroke="#010101" stroke-width="0.25" stroke-miterlimit="10"/>
<path d="M31.82 3.41992C31.82 3.41992 31.75 3.44992 31.75 3.48992" stroke="#010101" stroke-width="0.25" stroke-miterlimit="10"/>
<path d="M63 0.22998L62.98 0.24998L62.96 0.31998V0.33998H62.98H63.01L63.09 0.30998H63.84V0.32998H63.86L63.92 0.30998H64.02C64.02 0.30998 64.04 0.30998 64.04 0.28998V0.24998C64.04 0.24998 64.04 0.22998 64.02 0.22998H63Z" stroke="#010101" stroke-width="0.25" stroke-miterlimit="10"/>
<path d="M1.56006 3.69977V3.23977L1.54006 3.21977L0.580059 3.00977H0.560059V3.02977V3.68977C0.560059 3.68977 0.560059 3.70977 0.580059 3.70977H1.54006C1.54006 3.70977 1.56006 3.70977 1.56006 3.68977" stroke="#010101" stroke-width="0.25" stroke-miterlimit="10"/>
<path d="M31.4 3.95996C31.4 3.95996 31.43 4.01996 31.46 4.01996" stroke="#010101" stroke-width="0.25" stroke-miterlimit="10"/>
<path d="M2.00005 2.92979C2.00005 2.92979 2.00005 2.94979 2.02005 2.94979H2.62005C2.62005 2.94979 2.64005 2.94979 2.64005 2.92979V2.54979C2.64005 2.54979 2.64005 2.52979 2.62005 2.52979H2.03005L2.01005 2.54979L1.93005 2.79979V2.81979C1.93005 2.81979 2.00005 2.87979 2.00005 2.91979" stroke="#010101" stroke-width="0.25" stroke-miterlimit="10"/>
<path d="M63.93 3.70002C63.93 3.70002 63.93 3.72002 63.95 3.72002H64.91C64.91 3.72002 64.93 3.72002 64.93 3.70002V3.02002H64.9L63.94 3.23002L63.92 3.25002V3.71002L63.93 3.70002Z" stroke="#010101" stroke-width="0.25" stroke-miterlimit="10"/>
<path d="M1.56005 3.1401V2.9501C1.56005 2.8701 1.62005 2.8101 1.70005 2.8101H1.85005L1.87005 2.7901L1.94005 2.5601V2.5401H1.92005H1.65005V2.5201H1.63005L1.57005 2.5401H1.48005C1.38005 2.5401 1.30005 2.4701 1.29005 2.3701L1.27005 2.3501H0.570049C0.570049 2.3501 0.550049 2.3501 0.550049 2.3701V2.9401L0.570049 2.9601L1.53005 3.1701H1.55005V3.1501L1.56005 3.1401Z" stroke="#010101" stroke-width="0.25" stroke-miterlimit="10"/>
<path d="M0.22998 3.70002C0.22998 3.70002 0.22998 3.72002 0.24998 3.72002H0.46998C0.46998 3.72002 0.48998 3.72002 0.48998 3.70002V3.04002C0.48998 3.04002 0.48998 3.02002 0.46998 3.02002H0.24998C0.24998 3.02002 0.22998 3.02002 0.22998 3.04002V3.70002Z" stroke="#010101" stroke-width="0.25" stroke-miterlimit="10"/>
<path d="M31.49 3.35006V3.31006" stroke="#010101" stroke-width="0.25" stroke-miterlimit="10"/>
<path d="M0.229971 2.93971C0.229971 2.93971 0.229971 2.95971 0.249971 2.95971H0.469971C0.469971 2.95971 0.489971 2.95971 0.489971 2.93971V2.19971H0.459971H0.419971H0.239971C0.229971 2.19971 0.219971 2.19971 0.219971 2.21971V2.93971H0.229971Z" stroke="#010101" stroke-width="0.25" stroke-miterlimit="10"/>
<path d="M2.39995 3.68967L1.96995 3.83967V3.85967L1.95995 4.38967V4.44967L1.94995 4.50967C1.94995 4.51967 1.94995 4.52967 1.96995 4.52967H2.89995C2.89995 4.52967 2.91995 4.52967 2.91995 4.50967V4.34967C2.91995 4.26967 2.97995 4.20967 3.05995 4.20967H3.25995C3.25995 4.20967 3.27995 4.20967 3.27995 4.18967V3.59967H3.24995C3.16995 3.61967 3.08995 3.57967 3.06995 3.50967C3.04995 3.44967 3.06995 3.37967 3.12995 3.34967V3.31967C3.13995 3.26967 3.18995 3.23967 3.23995 3.25967H3.25995V3.23967V3.08967C3.25995 3.03967 3.28995 2.98967 3.34995 2.96967L3.36995 2.94967V2.92967C3.36995 2.92967 3.36995 2.90967 3.34995 2.90967H2.87995C2.87995 2.90967 2.85995 2.90967 2.85995 2.92967V3.09967C2.85995 3.16967 2.79995 3.21967 2.73995 3.21967H2.66995C2.66995 3.21967 2.58995 3.19967 2.56995 3.16967H2.54995H2.49995C2.48995 3.16967 2.47995 3.16967 2.47995 3.18967V3.58967C2.47995 3.63967 2.44995 3.68967 2.39995 3.70967" stroke="#010101" stroke-width="0.25" stroke-miterlimit="10"/>
<path d="M31.4 3.95967V3.90967" stroke="#010101" stroke-width="0.25" stroke-miterlimit="10"/>
<path d="M33.13 1.6001C33.13 1.6001 33.16 1.6601 33.19 1.6601H33.5C33.5 1.6601 33.54 1.6401 33.54 1.6201" stroke="#010101" stroke-width="0.25" stroke-miterlimit="10"/>
<path d="M65.26 2.93971V2.21971C65.26 2.21971 65.26 2.19971 65.24 2.19971H65.06H65.02H65V2.21971V2.93971C65 2.93971 65 2.95971 65.02 2.95971H65.24C65.24 2.95971 65.26 2.95971 65.26 2.93971Z" stroke="#010101" stroke-width="0.25" stroke-miterlimit="10"/>
<path d="M1.29006 2.27006V1.58006C1.29006 1.58006 1.29006 1.56006 1.27006 1.56006H0.580059C0.580059 1.56006 0.560059 1.56006 0.560059 1.58006V2.27006C0.560059 2.27006 0.560059 2.29006 0.580059 2.29006H1.27006C1.27006 2.29006 1.29006 2.29006 1.29006 2.27006Z" stroke="#010101" stroke-width="0.25" stroke-miterlimit="10"/>
<path d="M1.28998 1.47998V0.49998C1.28998 0.42998 1.31998 0.36998 1.37998 0.33998V0.31998L1.38998 0.24998C1.38998 0.23998 1.38998 0.22998 1.36998 0.22998H0.56998C0.56998 0.22998 0.54998 0.22998 0.54998 0.24998V0.50998C0.54998 0.57998 0.48998 0.62998 0.42998 0.62998H0.24998C0.24998 0.62998 0.22998 0.62998 0.22998 0.64998V1.24998C0.22998 1.24998 0.22998 1.26998 0.24998 1.26998H0.42998C0.49998 1.26998 0.54998 1.32998 0.54998 1.38998V1.46998C0.54998 1.46998 0.54998 1.48998 0.56998 1.48998H1.25998C1.25998 1.48998 1.27998 1.48998 1.27998 1.46998" stroke="#010101" stroke-width="0.25" stroke-miterlimit="10"/>
<path d="M32.3 3.36993V3.31993C32.3 3.31993 32.27 3.29993 32.26 3.30993H32.23C32.23 3.30993 32.21 3.32993 32.22 3.34993L32.23 3.39993V3.41993C32.23 3.41993 32.21 3.49993 32.24 3.51993C32.27 3.53993 32.32 3.52993 32.34 3.49993C32.36 3.46993 32.35 3.41993 32.32 3.39993C32.32 3.39993 32.31 3.39993 32.3 3.39993H32.29L32.3 3.36993Z" stroke="#010101" stroke-width="0.25" stroke-miterlimit="10"/>
<path d="M32.6899 2.18965L32.7099 2.16965H32.8299V2.27965H33.7299V1.88965H33.6299V2.17965H32.8899V2.14965C32.8899 2.11965 32.8599 2.09965 32.8299 2.10965H32.6899L32.5499 1.98965C32.5399 1.97965 32.5199 1.97965 32.5099 1.98965C32.4999 1.99965 32.4999 2.01965 32.5099 2.02965L32.6899 2.19965V2.18965Z" stroke="#010101" stroke-width="0.25" stroke-miterlimit="10"/>
<path d="M2.48995 0.22998H1.46995C1.46995 0.22998 1.44995 0.22998 1.44995 0.24998V0.28998C1.44995 0.28998 1.44995 0.30998 1.46995 0.30998H1.56995L1.62995 0.32998H1.64995H1.69995L2.39995 0.31998L2.47995 0.34998H2.52995V0.31998L2.50995 0.24998L2.48995 0.22998Z" stroke="#010101" stroke-width="0.25" stroke-miterlimit="10"/>
<path d="M31.45 3.3501H31.76" stroke="#010101" stroke-width="0.25" stroke-miterlimit="10"/>
<path d="M62.11 1.80998L62.02 1.89998H61.96V0.72998H62.11" stroke="#010101" stroke-width="0.25" stroke-miterlimit="10"/>
<path d="M32.44 4.35973C32.44 4.35973 32.45 4.32973 32.44 4.31973C32.43 4.30973 32.41 4.30973 32.4 4.31973L32.26 4.44973H32.12C32.12 4.44973 32.06 4.44973 32.06 4.47973V4.50973H31.31V4.21973H31.21V4.60973H32.11V4.49973H32.23L32.25 4.51973L32.43 4.34973L32.44 4.35973Z" stroke="#010101" stroke-width="0.25" stroke-miterlimit="10"/>
<path d="M62.25 2.10988H62.11C62.11 2.10988 62.0499 2.10988 62.0499 2.13988V2.16988H61.2999V1.87988H61.2V2.26988H62.0999V2.15988H62.22L62.24 2.17988L62.4199 2.00988C62.4199 2.00988 62.4299 1.97988 62.4199 1.96988C62.4099 1.95988 62.39 1.95988 62.38 1.96988L62.24 2.09988L62.25 2.10988Z" stroke="#010101" stroke-width="0.25" stroke-miterlimit="10"/>
<path d="M34.2799 3.47969H34.4799V3.63969H34.4499V3.71969C34.4499 3.71969 34.4599 3.73969 34.4799 3.73969H34.5099C34.5099 3.73969 34.5399 3.73969 34.5399 3.71969V3.45969C34.5399 3.45969 34.5299 3.43969 34.5099 3.43969H34.4099V3.19969C34.4099 3.19969 34.3999 3.17969 34.3799 3.17969H33.4699C33.4699 3.17969 33.4399 3.17969 33.4399 3.19969V3.71969C33.4399 3.71969 33.4499 3.73969 33.4699 3.73969H34.2499C34.2499 3.73969 34.2799 3.73969 34.2799 3.71969V3.48969V3.47969Z" stroke="#010101" stroke-width="0.25" stroke-miterlimit="10"/>
<path d="M0.219951 4.72967H0.389951L0.429951 4.78967H0.439951V4.73967H0.449951V4.42967C0.449951 4.42967 0.449951 4.40967 0.429951 4.40967H0.219951C0.219951 4.40967 0.199951 4.40967 0.199951 4.42967V4.59967C0.199951 4.59967 0.199951 4.61967 0.219951 4.61967H0.249951V4.65967L0.209951 4.73967L0.219951 4.72967Z" stroke="#010101" stroke-width="0.25" stroke-miterlimit="10"/>
<path d="M62 1.89998V0.72998" stroke="#010101" stroke-width="0.25" stroke-miterlimit="10"/>
<path d="M31.41 3.90967V3.95967" stroke="#010101" stroke-width="0.25" stroke-miterlimit="10"/>
<path d="M0.46998 4.31979C0.46998 4.31979 0.48998 4.31979 0.48998 4.29979V3.79979C0.48998 3.79979 0.48998 3.77979 0.46998 3.77979H0.24998C0.24998 3.77979 0.22998 3.77979 0.22998 3.79979V4.29979C0.22998 4.29979 0.22998 4.31979 0.24998 4.31979H0.46998Z" stroke="#010101" stroke-width="0.25" stroke-miterlimit="10"/>
<path d="M32.02 4.25H31.96" stroke="#010101" stroke-width="0.25" stroke-miterlimit="10"/>
<path d="M62.13 0.609805C62.18 0.629805 62.22 0.669805 62.22 0.729805V1.8398C62.22 1.8398 62.22 1.8598 62.24 1.8598H62.44C62.52 1.8598 62.58 1.9198 62.58 1.9998V2.1598C62.58 2.1698 62.58 2.1798 62.6 2.1798H62.85C62.85 2.1798 62.87 2.1798 62.87 2.1598V2.1398C62.87 2.0798 62.92 2.0398 62.97 2.0398H63.25C63.25 2.0398 63.27 2.0398 63.27 2.0198V1.7998C63.27 1.7898 63.27 1.7798 63.25 1.7798H63.08C63.01 1.7798 62.96 1.7198 62.96 1.6598V0.749805C62.96 0.679805 63.02 0.629805 63.08 0.629805H63.25C63.25 0.629805 63.27 0.629805 63.27 0.609805V0.569805C63.27 0.559805 63.27 0.549805 63.25 0.549805H62.13C62.13 0.549805 62.11 0.549805 62.11 0.569805V0.589805L62.13 0.609805Z" stroke="#010101" stroke-width="0.25" stroke-miterlimit="10"/>
<path d="M32.98 2.28979H31.98V2.35979H32.87V2.89979H32.72V3.00979H32.98V2.27979V2.28979Z" stroke="#010101" stroke-width="0.25" stroke-miterlimit="10"/>
<path d="M31.83 3.4201C31.83 3.4201 31.8 3.3501 31.76 3.3501" stroke="#010101" stroke-width="0.25" stroke-miterlimit="10"/>
<path d="M61.49 1.70992V1.66992" stroke="#010101" stroke-width="0.25" stroke-miterlimit="10"/>
<path d="M2.77004 2.89006V3.09006C2.77004 3.09006 2.77004 3.11006 2.75004 3.11006H2.68004C2.68004 3.11006 2.66004 3.11006 2.66004 3.09006C2.66004 3.09006 2.66004 3.05006 2.64004 3.05006H1.84004V3.00006L1.87004 2.97006V2.94006L1.85004 2.92006H1.79004L1.70004 3.09006V3.13006C1.70004 3.13006 1.70004 3.15006 1.72004 3.15006H2.38004C2.38004 3.15006 2.40004 3.15006 2.40004 3.17006V3.57006L2.39004 3.59006L1.96004 3.74006C1.96004 3.74006 1.88004 3.80006 1.88004 3.86006V4.39006C1.88004 4.39006 1.88004 4.41006 1.86004 4.41006H1.79004L1.72004 4.43006H1.70004L1.66004 4.41006H1.65004H1.56004C1.55004 4.41006 1.54004 4.41006 1.54004 4.43006L1.55004 4.46006L1.73004 4.56006H1.77004V4.52006C1.77004 4.52006 1.77004 4.50006 1.79004 4.50006H1.85004C1.85004 4.50006 1.87004 4.50006 1.87004 4.52006V4.61006C1.87004 4.61006 1.87004 4.63006 1.89004 4.63006H3.38004C3.38004 4.63006 3.40004 4.63006 3.40004 4.61006V4.54006C3.40004 4.54006 3.38004 4.50006 3.36004 4.50006C3.34004 4.50006 3.33004 4.50006 3.32004 4.52006H3.30004L3.08004 4.53006C3.06004 4.53006 3.04004 4.51006 3.04004 4.49006V4.35006C3.04004 4.35006 3.06004 4.31006 3.08004 4.31006H3.28004C3.35004 4.31006 3.40004 4.25006 3.40004 4.19006V3.08006C3.40004 3.08006 3.40004 3.06006 3.42004 3.06006H4.23004C4.23004 3.06006 4.23004 3.10006 4.25004 3.10006H4.28004C4.28004 3.10006 4.30004 3.10006 4.30004 3.08006V2.85006C4.30004 2.85006 4.28004 2.81006 4.26004 2.81006H2.79004C2.79004 2.81006 2.77004 2.81006 2.77004 2.83006V2.89006ZM2.77004 2.89006C2.77004 2.89006 2.77004 2.91006 2.79004 2.91006" stroke="#010101" stroke-width="0.25" stroke-miterlimit="10"/>
<path d="M4.03003 3.0498V3.1398" stroke="#010101" stroke-width="0.25" stroke-miterlimit="10"/>
<path d="M31.83 3.41992V3.94992" stroke="#010101" stroke-width="0.25" stroke-miterlimit="10"/>
<path d="M3.60999 4.05982V3.31982" stroke="#010101" stroke-width="0.25" stroke-miterlimit="10"/>
<path d="M4 3.31006V3.35006" stroke="#010101" stroke-width="0.25" stroke-miterlimit="10"/>
<path d="M33.09 3.68965C33.09 3.68965 33.01 3.62965 33.01 3.56965V3.16965C33.01 3.16965 33.01 3.14965 32.99 3.14965H32.94H32.92C32.9 3.17965 32.86 3.19965 32.82 3.19965H32.75C32.68 3.19965 32.63 3.13965 32.63 3.07965V2.90965C32.63 2.90965 32.63 2.88965 32.61 2.88965H32.14C32.14 2.88965 32.12 2.88965 32.12 2.90965V2.92965L32.14 2.94965C32.19 2.96965 32.23 3.00965 32.23 3.06965V3.22965H32.26C32.31 3.21965 32.36 3.24965 32.37 3.28965V3.30965L32.38 3.31965C32.45 3.36965 32.46 3.45965 32.42 3.51965C32.38 3.56965 32.32 3.59965 32.26 3.57965H32.24V3.59965V4.16965C32.24 4.16965 32.24 4.18965 32.26 4.18965H32.46C32.54 4.18965 32.6 4.24965 32.6 4.32965V4.48965C32.6 4.48965 32.6 4.50965 32.62 4.50965H33.55C33.55 4.50965 33.57 4.50965 33.57 4.48965V4.42965L33.56 4.36965V3.81965L33.11 3.66965L33.09 3.68965Z" stroke="#010101" stroke-width="0.25" stroke-miterlimit="10"/>
<path d="M31.96 3.08008H32.11" stroke="#010101" stroke-width="0.25" stroke-miterlimit="10"/>
<path d="M31.41 3.95996L31.45 3.99996" stroke="#010101" stroke-width="0.25" stroke-miterlimit="10"/>
<path d="M4 4.02002V4.06002" stroke="#010101" stroke-width="0.25" stroke-miterlimit="10"/>
<path d="M3.18995 3.37006H3.17995C3.17995 3.37006 3.11995 3.44006 3.13995 3.48006C3.15995 3.52006 3.19995 3.54006 3.22995 3.52006C3.26995 3.51006 3.28995 3.46006 3.26995 3.43006C3.26995 3.43006 3.26995 3.42006 3.26995 3.41006V3.39006L3.27995 3.34006C3.27995 3.33006 3.27995 3.32006 3.26995 3.31006H3.23995C3.23995 3.31006 3.21995 3.31006 3.20995 3.31006V3.36006L3.18995 3.37006Z" stroke="#010101" stroke-width="0.25" stroke-miterlimit="10"/>
<path d="M31.45 4.00977H31.76" stroke="#010101" stroke-width="0.25" stroke-miterlimit="10"/>
<path d="M3.23999 4.53975L3.25999 4.51975H3.37999V4.62975H4.27999V4.23975H4.17999V4.52975H3.43999V4.49975C3.43999 4.46975 3.40999 4.44975 3.37999 4.45975H3.23999L3.09999 4.33975C3.08999 4.32975 3.06999 4.32975 3.05999 4.33975C3.04999 4.34975 3.04999 4.36975 3.05999 4.37975L3.23999 4.54975V4.53975Z" stroke="#010101" stroke-width="0.25" stroke-miterlimit="10"/>
<path d="M3.48999 3.08008V4.25008" stroke="#010101" stroke-width="0.25" stroke-miterlimit="10"/>
<path d="M31.6399 2.42996C31.7099 2.37996 31.7499 2.29996 31.7399 2.20996V2.27996H31.6699C31.6099 2.27996 31.5699 2.22996 31.5699 2.17996V1.76996C31.5699 1.71996 31.6099 1.67996 31.6599 1.67996H31.8599C31.8599 1.67996 31.8799 1.67996 31.8799 1.65996V0.749961C31.8799 0.749961 31.8799 0.729961 31.8599 0.729961H31.6599C31.6099 0.729961 31.5699 0.689961 31.5699 0.639961V0.549961C31.5699 0.499961 31.6099 0.459961 31.6599 0.459961H33.6899C33.6899 0.459961 33.7299 0.479961 33.7299 0.499961V0.729961C33.7299 0.729961 33.7299 0.749961 33.7099 0.749961H33.6799C33.6799 0.749961 33.6599 0.749961 33.6599 0.729961H32.8499H32.8299V1.83996C32.8299 1.90996 32.7699 1.95996 32.7099 1.95996H32.5099C32.5099 1.95996 32.4699 1.97996 32.4699 1.99996V2.13996C32.4699 2.13996 32.4899 2.17996 32.5099 2.17996H32.7499C32.7499 2.17996 32.7899 2.13996 32.8099 2.14996C32.8199 2.14996 32.8299 2.16996 32.8299 2.18996V2.25996C32.8299 2.25996 32.8299 2.27996 32.8099 2.27996H31.9099V2.20996C31.8899 2.29996 31.9299 2.37996 31.9999 2.42996" stroke="#010101" stroke-width="0.25" stroke-miterlimit="10"/>
<path d="M31.76 4.00971C31.76 4.00971 31.82 3.97971 31.82 3.94971" stroke="#010101" stroke-width="0.25" stroke-miterlimit="10"/>
<path d="M3.52997 4.25H3.46997" stroke="#010101" stroke-width="0.25" stroke-miterlimit="10"/>
<path d="M3.53003 3.08008V4.25008" stroke="#010101" stroke-width="0.25" stroke-miterlimit="10"/>
<path d="M31.76 4.02002H31.45" stroke="#010101" stroke-width="0.25" stroke-miterlimit="10"/>
<path d="M3.38 3.08008H3.53" stroke="#010101" stroke-width="0.25" stroke-miterlimit="10"/>
<path d="M32.89 0.560039V0.590039C32.89 0.590039 32.89 0.610039 32.91 0.610039H33.62C33.62 0.610039 33.64 0.610039 33.64 0.590039V0.560039C33.64 0.560039 33.64 0.540039 33.62 0.540039H32.91C32.91 0.540039 32.89 0.540039 32.89 0.560039Z" stroke="#010101" stroke-width="0.25" stroke-miterlimit="10"/>
<path d="M3.47 4.24967L3.38 4.15967" stroke="#010101" stroke-width="0.25" stroke-miterlimit="10"/>
<path d="M33.12 0.699707V0.789707" stroke="#010101" stroke-width="0.25" stroke-miterlimit="10"/>
<path d="M32.11 4.15967L32.02 4.24967" stroke="#010101" stroke-width="0.25" stroke-miterlimit="10"/>
<path d="M4.09002 3.9601C4.09002 3.9601 4.06002 4.0201 4.03002 4.0201H3.72002C3.72002 4.0201 3.65002 3.9901 3.65002 3.9501V3.4201C3.65002 3.4201 3.68002 3.3501 3.72002 3.3501H4.03002C4.03002 3.3501 4.09002 3.3801 4.09002 3.4101V3.4601H4.08002V3.4101L4.04002 3.3701H3.73002C3.73002 3.3701 3.67002 3.4001 3.67002 3.4301V3.9601C3.67002 3.9601 3.70002 4.0201 3.73002 4.0201H4.04002L4.08002 3.9801V3.9301H4.09002V3.9801V3.9601Z" stroke="#010101" stroke-width="0.25" stroke-miterlimit="10"/>
<path d="M3.68005 3.94969C3.68005 3.94969 3.75005 3.91969 3.75005 3.87969V3.49969C3.75005 3.49969 3.72005 3.42969 3.68005 3.42969" stroke="#010101" stroke-width="0.25" stroke-miterlimit="10"/>
<path d="M65.36 2.86988V2.21988C65.36 2.14988 65.3 2.09988 65.24 2.09988H65.06C65.06 2.09988 65.04 2.09988 65.04 2.07988V1.39988C65.04 1.39988 65.04 1.37988 65.06 1.37988H65.24C65.31 1.37988 65.36 1.31988 65.36 1.25988V0.249883C65.36 0.239883 65.36 0.229883 65.34 0.229883H65.27L65.23 0.309883V0.349883H65.25C65.25 0.349883 65.27 0.349883 65.27 0.369883V0.529883C65.27 0.529883 65.27 0.549883 65.25 0.549883H65.06C65.06 0.549883 65.04 0.549883 65.04 0.529883V0.149883C65.04 0.149883 65.04 0.129883 65.02 0.129883H62.94C62.94 0.129883 62.9 0.139883 62.9 0.159883L62.84 0.389883C62.84 0.389883 62.86 0.449883 62.88 0.449883H63.07C63.07 0.449883 63.09 0.449883 63.09 0.429883H63.79L63.89 0.489883H63.93V0.429883H64.02C64.02 0.429883 64.11 0.469883 64.11 0.519883V2.35988C64.11 2.35988 64.07 2.44988 64.02 2.44988H63.93V2.38988H63.89L63.79 2.44988H62.83C62.83 2.44988 62.79 2.41988 62.77 2.43988C62.77 2.43988 62.76 2.45988 62.76 2.46988V3.07988C62.76 3.07988 62.76 3.09988 62.78 3.09988H62.81C62.81 3.09988 62.83 3.09988 62.83 3.07988L63.66 3.06988V3.02988L63.6 2.96988V2.93988C63.6 2.93988 63.6 2.91988 63.62 2.91988H63.79C63.79 2.91988 63.83 2.93988 63.83 2.95988V3.73988C63.83 3.73988 63.81 3.77988 63.79 3.77988H63.68C63.68 3.77988 63.65 3.78988 63.65 3.80988V4.18988C63.65 4.25988 63.71 4.30988 63.77 4.30988H63.97C63.97 4.30988 64.01 4.32988 64.01 4.34988V4.62988L63.99 4.66988H63.95L63.75 4.56988V4.54988H63.74C63.74 4.52988 63.72 4.50988 63.7 4.50988C63.68 4.50988 63.66 4.52988 63.66 4.54988V4.61988L63.67 4.63988L64.02 4.81988H64.03H65.04H65.05H65.06H65.32C65.34 4.81988 65.36 4.79988 65.36 4.77988H65.33L65.3 4.73988H65.34C65.34 4.73988 65.36 4.72988 65.36 4.70988V2.86988Z" stroke="#010101" stroke-width="0.25" stroke-miterlimit="10"/>
<path d="M32.8201 0.609805L32.8401 0.589805V0.569805C32.8401 0.569805 32.8401 0.549805 32.8201 0.549805H31.7001C31.7001 0.549805 31.6801 0.549805 31.6801 0.569805V0.609805C31.6801 0.609805 31.6801 0.629805 31.7001 0.629805H31.8701C31.9401 0.629805 31.9901 0.689805 31.9901 0.749805V1.6598C31.9901 1.7298 31.9301 1.7798 31.8701 1.7798H31.7001C31.7001 1.7798 31.6801 1.7798 31.6801 1.7998V2.0198C31.6801 2.0198 31.6801 2.0398 31.7001 2.0398H31.9801C32.0401 2.0398 32.0801 2.0898 32.0801 2.1398V2.1598C32.0801 2.1598 32.0801 2.1798 32.1001 2.1798H32.3501C32.3501 2.1798 32.3701 2.1798 32.3701 2.1598V1.9998C32.3701 1.9198 32.4301 1.8598 32.5101 1.8598H32.7101C32.7101 1.8598 32.7301 1.8598 32.7301 1.8398V0.729805C32.7301 0.679805 32.7601 0.629805 32.8201 0.609805Z" stroke="#010101" stroke-width="0.25" stroke-miterlimit="10"/>
<path d="M31.96 4.25008V3.08008" stroke="#010101" stroke-width="0.25" stroke-miterlimit="10"/>
<path d="M33.67 0.789707V0.699707" stroke="#010101" stroke-width="0.25" stroke-miterlimit="10"/>
<path d="M31.82 3.41986C31.82 3.41986 31.79 3.35986 31.76 3.35986" stroke="#010101" stroke-width="0.25" stroke-miterlimit="10"/>
<path d="M61.49 0.999961V0.959961" stroke="#010101" stroke-width="0.25" stroke-miterlimit="10"/>
<path d="M61.88 0.959961V1.69996" stroke="#010101" stroke-width="0.25" stroke-miterlimit="10"/>
<path d="M62.05 0.560039C62.05 0.560039 62.05 0.540039 62.03 0.540039H61.32C61.32 0.540039 61.3 0.540039 61.3 0.560039V0.590039C61.3 0.590039 61.3 0.610039 61.32 0.610039H62.03C62.03 0.610039 62.05 0.610039 62.05 0.590039V0.560039Z" stroke="#010101" stroke-width="0.25" stroke-miterlimit="10"/>
<path d="M61.8199 0.789707V0.699707" stroke="#010101" stroke-width="0.25" stroke-miterlimit="10"/>
<path d="M61.28 0.699707V0.789707" stroke="#010101" stroke-width="0.25" stroke-miterlimit="10"/>
<path d="M33.54 1.11002V1.06002C33.54 1.06002 33.51 1.02002 33.49 1.02002H33.18C33.18 1.02002 33.12 1.05002 33.12 1.08002" stroke="#010101" stroke-width="0.25" stroke-miterlimit="10"/>
<path d="M32 4.25008V3.08008" stroke="#010101" stroke-width="0.25" stroke-miterlimit="10"/>
<path d="M33.0699 1.70973V0.969727" stroke="#010101" stroke-width="0.25" stroke-miterlimit="10"/>
<path d="M32.9399 0.72998V1.89998" stroke="#010101" stroke-width="0.25" stroke-miterlimit="10"/>
<path d="M61.74 1.52982C61.74 1.52982 61.77 1.59982 61.81 1.59982V1.06982L61.76 1.08982L61.74 1.13982V1.51982V1.52982Z" stroke="#010101" stroke-width="0.25" stroke-miterlimit="10"/>
<path d="M33.46 0.959961V0.999961" stroke="#010101" stroke-width="0.25" stroke-miterlimit="10"/>
<path d="M65.02 4.31979H65.24C65.24 4.31979 65.26 4.31979 65.26 4.29979V3.79979C65.26 3.79979 65.26 3.77979 65.24 3.77979H65.02C65.02 3.77979 65 3.77979 65 3.79979V4.29979C65 4.29979 65 4.31979 65.02 4.31979Z" stroke="#010101" stroke-width="0.25" stroke-miterlimit="10"/>
<path d="M65.26 3.70002V3.04002C65.26 3.04002 65.26 3.02002 65.24 3.02002H65.02C65.02 3.02002 65 3.02002 65 3.04002V3.70002C65 3.70002 65 3.72002 65.02 3.72002H65.24C65.24 3.72002 65.26 3.72002 65.26 3.70002Z" stroke="#010101" stroke-width="0.25" stroke-miterlimit="10"/>
<path d="M65.1 4.7399H65.27L65.23 4.6499V4.6099H65.26C65.26 4.6099 65.28 4.6099 65.28 4.5899V4.4199C65.28 4.4099 65.28 4.3999 65.26 4.3999H65.05C65.05 4.3999 65.03 4.3999 65.03 4.4199V4.7299H65.04V4.7799H65.05L65.09 4.7399H65.1Z" stroke="#010101" stroke-width="0.25" stroke-miterlimit="10"/>
<path d="M63.49 2.93004C63.49 2.93004 63.51 2.85004 63.55 2.83004V2.81004L63.48 2.56004L63.46 2.54004H62.87C62.87 2.54004 62.85 2.54004 62.85 2.56004V2.94004C62.85 2.95004 62.85 2.96004 62.87 2.96004H63.47C63.47 2.96004 63.49 2.96004 63.49 2.94004" stroke="#010101" stroke-width="0.25" stroke-miterlimit="10"/>
<path d="M31.28 3.0698L32.09 3.0598C32.1 3.0598 32.11 3.0598 32.11 3.0798V4.1898C32.11 4.2598 32.17 4.3098 32.23 4.3098H32.43C32.43 4.3098 32.47 4.3298 32.47 4.3498V4.4898C32.47 4.4898 32.45 4.5298 32.43 4.5298H32.19C32.19 4.5298 32.15 4.4898 32.13 4.4998C32.12 4.4998 32.11 4.5198 32.11 4.5398V4.6098C32.11 4.6098 32.11 4.6298 32.13 4.6298H33.62C33.62 4.6298 33.64 4.6298 33.64 4.6098V4.5198C33.64 4.5198 33.64 4.4998 33.66 4.4998H33.72C33.72 4.4998 33.74 4.4998 33.74 4.5198V4.5598H33.78L33.96 4.4598V4.4398H33.97C33.97 4.4298 33.97 4.4198 33.95 4.4198H33.86H33.85L33.81 4.4398H33.79L33.72 4.4198H33.65C33.65 4.4198 33.63 4.4198 33.63 4.3998V3.8698C33.63 3.8198 33.6 3.7698 33.55 3.7498L33.12 3.5998V3.5798L33.11 3.1798C33.11 3.1698 33.11 3.1598 33.13 3.1598H33.79C33.79 3.1598 33.81 3.1598 33.81 3.1398V3.0998L33.72 2.9398H33.7L33.66 2.9298L33.64 2.9498V2.9798L33.67 3.0098V3.0598H32.87C32.87 3.0598 32.85 3.0598 32.85 3.0798C32.85 3.0798 32.85 3.1198 32.83 3.1198H32.76C32.76 3.1198 32.74 3.1198 32.74 3.0998V2.8998C32.74 2.8998 32.76 2.8998 32.76 2.8798V2.8198C32.76 2.8198 32.76 2.7998 32.74 2.7998H31.27C31.27 2.7998 31.23 2.8198 31.23 2.8398V3.0698C31.23 3.0698 31.23 3.0898 31.25 3.0898H31.28C31.28 3.0898 31.3 3.0898 31.3 3.0698" stroke="#010101" stroke-width="0.25" stroke-miterlimit="10"/>
<path d="M64.2 1.47998C64.2 1.47998 64.2 1.49998 64.22 1.49998H64.91C64.91 1.49998 64.93 1.49998 64.93 1.47998V1.39998C64.93 1.32998 64.99 1.27998 65.05 1.27998H65.23C65.23 1.27998 65.25 1.27998 65.25 1.25998V0.65998C65.25 0.65998 65.25 0.63998 65.23 0.63998H65.05C64.98 0.63998 64.93 0.57998 64.93 0.51998V0.24998C64.93 0.24998 64.93 0.22998 64.91 0.22998H64.11C64.11 0.22998 64.09 0.22998 64.09 0.24998V0.33998C64.16 0.36998 64.19 0.43998 64.19 0.49998V1.47998H64.2Z" stroke="#010101" stroke-width="0.25" stroke-miterlimit="10"/>
<path d="M64.2 2.27006C64.2 2.27006 64.2 2.29006 64.22 2.29006H64.91C64.91 2.29006 64.93 2.29006 64.93 2.27006V1.58006C64.93 1.58006 64.93 1.56006 64.91 1.56006H64.22C64.22 1.56006 64.2 1.56006 64.2 1.58006V2.27006Z" stroke="#010101" stroke-width="0.25" stroke-miterlimit="10"/>
<path d="M31.49 4.06002V4.02002" stroke="#010101" stroke-width="0.25" stroke-miterlimit="10"/>
<path d="M31.97 2.2199V2.1499H31.67V2.2199H31.97Z" stroke="#010101" stroke-width="0.25" stroke-miterlimit="10"/>
<path d="M31.4 3.90967H31.41" stroke="#010101" stroke-width="0.25" stroke-miterlimit="10"/>
<path d="M63.94 3.77979H63.92C63.9 3.84979 63.84 3.87979 63.79 3.87979H63.78C63.78 3.87979 63.76 3.87979 63.76 3.89979V4.18979C63.76 4.18979 63.76 4.20979 63.78 4.20979H63.98C64.06 4.20979 64.12 4.26979 64.12 4.34979V4.69978C64.12 4.69978 64.12 4.71978 64.14 4.71978H64.92C64.92 4.71978 64.94 4.71978 64.94 4.69978V3.79979C64.94 3.79979 64.94 3.77979 64.92 3.77979H63.94Z" stroke="#010101" stroke-width="0.25" stroke-miterlimit="10"/>
<path d="M31.46 3.1398V3.0498" stroke="#010101" stroke-width="0.25" stroke-miterlimit="10"/>
<path d="M31.74 3.87988C31.74 3.87988 31.77 3.94988 31.81 3.94988" stroke="#010101" stroke-width="0.25" stroke-miterlimit="10"/>
<path d="M32.83 0.72998H32.98V1.89998H32.92L32.83 1.80998" stroke="#010101" stroke-width="0.25" stroke-miterlimit="10"/>
<path d="M33.46 1.66992V1.70992" stroke="#010101" stroke-width="0.25" stroke-miterlimit="10"/>
<path d="M31.45 3.35986L31.41 3.39986" stroke="#010101" stroke-width="0.25" stroke-miterlimit="10"/>
<path d="M31.74 3.48975V3.86975" stroke="#010101" stroke-width="0.25" stroke-miterlimit="10"/>
<path d="M31.76 4.01971C31.76 4.01971 31.83 3.98971 31.83 3.94971" stroke="#010101" stroke-width="0.25" stroke-miterlimit="10"/>
<path d="M33.13 1.60008C33.13 1.60008 33.2 1.57008 33.2 1.53008V1.15008L33.18 1.10008L33.13 1.08008V1.61008V1.60008Z" stroke="#010101" stroke-width="0.25" stroke-miterlimit="10"/>
<path d="M31.41 3.45996H31.4" stroke="#010101" stroke-width="0.25" stroke-miterlimit="10"/>
<path d="M63.28 2.2199V2.1499H62.98V2.2199H63.28Z" stroke="#010101" stroke-width="0.25" stroke-miterlimit="10"/>
<path d="M31.45 3.3501C31.45 3.3501 31.39 3.3801 31.39 3.4101" stroke="#010101" stroke-width="0.25" stroke-miterlimit="10"/>
<path d="M0.220005 0.219883H0.150005C0.150005 0.219883 0.130005 0.219883 0.130005 0.239883V1.24988C0.130005 1.31988 0.190005 1.36988 0.250005 1.36988H0.430005C0.430005 1.36988 0.450005 1.36988 0.450005 1.38988V2.06988C0.450005 2.06988 0.450005 2.08988 0.430005 2.08988H0.250005C0.180005 2.08988 0.130005 2.14988 0.130005 2.20988V4.69988C0.130005 4.69988 0.130005 4.71988 0.150005 4.71988H0.190005L0.160005 4.75988H0.140005H0.130005C0.130005 4.75988 0.150005 4.80988 0.170005 4.80988H0.430005H0.440005H0.460005H1.47H1.48L1.83 4.62988V4.60988L1.84 4.53988C1.84 4.51988 1.82 4.49988 1.8 4.49988C1.78 4.49988 1.76 4.51988 1.76 4.53988L1.75 4.55988L1.55 4.65988H1.51L1.49 4.61988V4.33988C1.49 4.33988 1.51 4.29988 1.53 4.29988H1.73C1.8 4.29988 1.85 4.23988 1.85 4.17988V3.79988C1.85 3.79988 1.84 3.76988 1.82 3.76988H1.71C1.71 3.76988 1.67 3.74988 1.67 3.72988V2.94988C1.67 2.94988 1.69 2.90988 1.71 2.90988H1.88C1.88 2.90988 1.9 2.90988 1.9 2.92988V2.95988L1.84 3.01988V3.05988H2.67C2.67 3.05988 2.67 3.09988 2.69 3.09988H2.72001C2.72001 3.09988 2.74001 3.09988 2.74001 3.07988V2.46988C2.74001 2.46988 2.72001 2.42988 2.70001 2.42988C2.69001 2.42988 2.68 2.42988 2.67 2.43988H2.65H1.7L1.6 2.37988H1.56V2.43988H1.47C1.47 2.43988 1.38 2.39988 1.38 2.34988V0.499883C1.38 0.499883 1.42 0.409883 1.47 0.409883H1.56V0.469883H1.6L1.7 0.409883H2.4C2.4 0.409883 2.4 0.439883 2.42 0.439883H2.61C2.61 0.439883 2.65 0.419883 2.65 0.399883L2.59 0.159883C2.59 0.139883 2.57 0.129883 2.55 0.129883H0.470005C0.470005 0.129883 0.450005 0.129883 0.450005 0.149883V0.509883C0.450005 0.509883 0.450005 0.529883 0.430005 0.529883H0.240005C0.240005 0.529883 0.220005 0.529883 0.220005 0.509883V0.349883C0.220005 0.349883 0.220005 0.329883 0.240005 0.329883H0.260005V0.289883L0.220005 0.209883V0.219883Z" stroke="#010101" stroke-width="0.25" stroke-miterlimit="10"/>
<path d="M31.4 3.45967V3.40967" stroke="#010101" stroke-width="0.25" stroke-miterlimit="10"/>
<path d="M1.55005 3.77979H0.570049C0.570049 3.77979 0.550049 3.77979 0.550049 3.79979V4.69978C0.550049 4.69978 0.550049 4.71978 0.570049 4.71978H1.35005C1.35005 4.71978 1.37005 4.71978 1.37005 4.69978V4.34979C1.37005 4.26979 1.43005 4.20979 1.51005 4.20979H1.71005C1.71005 4.20979 1.73005 4.20979 1.73005 4.18979V3.89979C1.73005 3.89979 1.73005 3.87979 1.71005 3.87979H1.70005C1.64005 3.87979 1.59005 3.84979 1.57005 3.78979H1.55005V3.77979Z" stroke="#010101" stroke-width="0.25" stroke-miterlimit="10"/>
<path d="M31.41 3.40967V3.45967" stroke="#010101" stroke-width="0.25" stroke-miterlimit="10"/>
<path d="M31.76 3.35986H31.45" stroke="#010101" stroke-width="0.25" stroke-miterlimit="10"/>
<path d="M33.54 1.56V1.61C33.54 1.61 33.52 1.67 33.49 1.67H33.18C33.18 1.67 33.11 1.64 33.11 1.6V1.07C33.11 1.07 33.14 1 33.18 1H33.49C33.49 1 33.55 1.03 33.55 1.06" stroke="#010101" stroke-width="0.25" stroke-miterlimit="10"/>
<path d="M61.93 0.960039V0.790039H33.01V0.960039H61.93Z" stroke="#010101" stroke-width="0.25" stroke-miterlimit="10"/>
<path d="M31.9301 4.23006V4.06006H3.56006V4.23006H31.9301Z" stroke="#010101" stroke-width="0.25" stroke-miterlimit="10"/>
<path d="M31.9301 3.31014V3.14014H3.56006V3.31014H31.9301Z" stroke="#010101" stroke-width="0.25" stroke-miterlimit="10"/>
<path d="M61.93 1.87996V1.70996H33.01V1.87996H61.93Z" stroke="#010101" stroke-width="0.25" stroke-miterlimit="10"/>
<path d="M61.2101 0.960039H61.9301V0.790039H61.2101" stroke="#010101" stroke-width="0.25" stroke-miterlimit="10"/>
<path d="M61.2101 1.87996H61.9301V1.70996H61.2101" stroke="#010101" stroke-width="0.25" stroke-miterlimit="10"/>
<path d="M4.28006 3.14014H3.56006V3.31014H4.28006" stroke="#010101" stroke-width="0.25" stroke-miterlimit="10"/>
<path d="M4.28006 4.06006H3.56006V4.23006H4.28006" stroke="#010101" stroke-width="0.25" stroke-miterlimit="10"/>
</g>
<defs>
<clipPath id="clip0_1603_490">
<rect width="65.49" height="4.95" fill="white"/>
</clipPath>
</defs>
</svg>
