<?xml version="1.0" encoding="UTF-8"?>
<svg id="Layer_1" data-name="Layer 1" xmlns="http://www.w3.org/2000/svg" width="15" height="15" viewBox="0 0 15 15">
  <defs>
    <style>
      .cls-1 {
        fill: #fff;
      }

      .cls-2 {
        fill: none;
        stroke: #010101;
        stroke-miterlimit: 10;
        stroke-width: .25px;
      }
    </style>
  </defs>
  <rect class="cls-1" y="0" width="14.99" height="14.99"/>
  <g id="Make2D">
    <g id="Make2D::Visible">
      <g id="Make2D::Visible::Curves">
        <path class="cls-2" d="m5.45,5.64v.1"/>
        <path class="cls-2" d="m4.15,5.64v.1"/>
        <path class="cls-2" d="m10.73,3.63v.1"/>
        <path class="cls-2" d="m5.01,5.74v-.1"/>
        <path class="cls-2" d="m12.05,5.64v.1"/>
        <path class="cls-2" d="m5.67,5.64v.1"/>
        <path class="cls-2" d="m7.43,5.74s0-.06,0-.1"/>
        <path class="cls-2" d="m12.95,3.63v.1"/>
        <path class="cls-2" d="m3.47,3.63v.1"/>
        <path class="cls-2" d="m4.35,5.74v-.1"/>
        <path class="cls-2" d="m7.87,3.63v.1"/>
        <path class="cls-2" d="m10.51,5.74v-.1"/>
        <path class="cls-2" d="m5.47,3.63v.1"/>
        <path class="cls-2" d="m6.11,5.74v-.1"/>
        <path class="cls-2" d="m11.63,5.74v-.1"/>
        <path class="cls-2" d="m8.75,5.74v-.1"/>
        <path class="cls-2" d="m9.43,3.63v.1"/>
        <path class="cls-2" d="m11.41,3.63v.1"/>
        <path class="cls-2" d="m10.53,5.74v-.1"/>
        <path class="cls-2" d="m2.61,3.73v-.1"/>
        <path class="cls-2" d="m2.83,3.73v-.1"/>
        <path class="cls-2" d="m3.93,5.64v.1"/>
        <path class="cls-2" d="m8.09,5.74v-.1"/>
        <path class="cls-2" d="m8.75,3.73v-.1"/>
        <path class="cls-2" d="m10.53,3.73v-.1"/>
        <path class="cls-2" d="m10.07,5.74v-.1"/>
        <path class="cls-2" d="m2.39,5.64v.1"/>
        <path class="cls-2" d="m4.57,3.63v.1"/>
        <path class="cls-2" d="m4.37,5.74v-.1"/>
        <path class="cls-2" d="m11.39,5.74v-.1"/>
        <path class="cls-2" d="m12.29,3.63v.1"/>
        <path class="cls-2" d="m3.03,5.74v-.1"/>
        <path class="cls-2" d="m9.85,5.74v-.1"/>
        <path class="cls-2" d="m8.97,5.64v.1"/>
        <path class="cls-2" d="m2.59,5.64v.1"/>
        <path class="cls-2" d="m10.51,3.73v-.1"/>
        <path class="cls-2" d="m11.61,5.64v.1"/>
        <path class="cls-2" d="m11.17,3.63v.1"/>
        <path class="cls-2" d="m3.49,5.74v-.1"/>
        <path class="cls-2" d="m9.43,5.64v.1"/>
        <path class="cls-2" d="m8.77,5.74v-.1"/>
        <path class="cls-2" d="m2.81,5.64v.1"/>
        <path class="cls-2" d="m9.63,3.73v-.1"/>
        <path class="cls-2" d="m2.37,3.73v-.1"/>
        <path class="cls-2" d="m12.05,3.63v.1"/>
        <path class="cls-2" d="m2.17,5.74v-.1"/>
        <path class="cls-2" d="m11.17,5.64v.1"/>
        <path class="cls-2" d="m6.77,5.74v-.1"/>
        <path class="cls-2" d="m2.37,5.74v-.1"/>
        <path class="cls-2" d="m8.97,3.63v.1"/>
        <path class="cls-2" d="m1.95,3.73v-.1"/>
        <path class="cls-2" d="m11.19,3.73v-.1"/>
        <path class="cls-2" d="m3.05,5.64v.1"/>
        <path class="cls-2" d="m6.79,5.74v-.1"/>
        <path class="cls-2" d="m7.45,5.74s0-.06,0-.1"/>
        <path class="cls-2" d="m2.15,3.63v.1"/>
        <path class="cls-2" d="m12.49,3.63v.1"/>
        <path class="cls-2" d="m1.73,3.73v-.1"/>
        <path class="cls-2" d="m10.07,3.73v-.1"/>
        <path class="cls-2" d="m1.95,5.74v-.1"/>
        <path class="cls-2" d="m8.53,5.74v-.1"/>
        <path class="cls-2" d="m11.83,5.64v.1"/>
        <path class="cls-2" d="m5.69,3.73v-.1"/>
        <path class="cls-2" d="m12.27,3.73v-.1"/>
        <path class="cls-2" d="m13.39,3.63s0,.06,0,.1"/>
        <path class="cls-2" d="m1.93,3.73v-.1"/>
        <path class="cls-2" d="m5.89,5.64v.1"/>
        <path class="cls-2" d="m10.31,5.64v.1"/>
        <path class="cls-2" d="m13.15,5.64v.1"/>
        <path class="cls-2" d="m8.99,5.74v-.1"/>
        <path class="cls-2" d="m5.25,5.74v-.1"/>
        <path class="cls-2" d="m2.61,5.74v-.1"/>
        <path class="cls-2" d="m6.77,3.73v-.1"/>
        <path class="cls-2" d="m10.95,3.73v-.1"/>
        <path class="cls-2" d="m5.03,3.63v.1"/>
        <path class="cls-2" d="m12.71,5.64v.1"/>
        <path class="cls-2" d="m6.55,3.73v-.1"/>
        <path class="cls-2" d="m10.09,3.63v.1"/>
        <path class="cls-2" d="m1.71,5.74v-.1"/>
        <path class="cls-2" d="m11.85,5.64v.1"/>
        <path class="cls-2" d="m6.55,5.74v-.1"/>
        <path class="cls-2" d="m9.41,5.64v.1"/>
        <path class="cls-2" d="m10.75,5.74v-.1"/>
        <path class="cls-2" d="m9.19,5.64v.1"/>
        <path class="cls-2" d="m5.69,5.74v-.1"/>
        <path class="cls-2" d="m3.25,5.64v.1"/>
        <path class="cls-2" d="m12.73,3.73v-.1"/>
        <path class="cls-2" d="m10.97,3.73v-.1"/>
        <path class="cls-2" d="m5.45,3.63v.1"/>
        <path class="cls-2" d="m1.5,5.74h12"/>
        <path class="cls-2" d="m8.11,3.73v-.1"/>
        <path class="cls-2" d="m9.85,3.73v-.1"/>
        <path class="cls-2" d="m11.63,3.73v-.1"/>
        <path class="cls-2" d="m4.81,3.63v.1"/>
        <path class="cls-2" d="m6.99,5.64v.1"/>
        <path class="cls-2" d="m10.95,5.74v-.1"/>
        <path class="cls-2" d="m12.95,5.64v.1"/>
        <path class="cls-2" d="m7.01,5.74v-.1"/>
        <path class="cls-2" d="m3.71,5.64v.1"/>
        <path class="cls-2" d="m3.25,3.63v.1"/>
        <path class="cls-2" d="m13.37,3.73s0-.06,0-.1"/>
        <path class="cls-2" d="m13.17,3.73v-.1"/>
        <path class="cls-2" d="m4.13,3.73v-.1"/>
        <path class="cls-2" d="m1.5,3.73h12"/>
        <path class="cls-2" d="m6.35,3.73v-.1"/>
        <path class="cls-2" d="m9.21,3.63v.1"/>
        <path class="cls-2" d="m7.67,3.63v.1"/>
        <path class="cls-2" d="m3.93,3.63v.1"/>
        <path class="cls-2" d="m3.69,5.64v.1"/>
        <path class="cls-2" d="m8.33,5.74v-.1"/>
        <path class="cls-2" d="m12.93,5.74v-.1"/>
        <path class="cls-2" d="m9.21,5.64v.1"/>
        <path class="cls-2" d="m6.33,5.64v.1"/>
        <path class="cls-2" d="m3.47,5.64v.1"/>
        <path class="cls-2" d="m11.83,3.63v.1"/>
        <path class="cls-2" d="m12.93,3.73v-.1"/>
        <path class="cls-2" d="m8.31,3.73v-.1"/>
        <path class="cls-2" d="m3.03,3.73v-.1"/>
        <path class="cls-2" d="m7.23,3.63v.1"/>
        <path class="cls-2" d="m9.87,3.63v.1"/>
        <path class="cls-2" d="m7.43,3.73s0-.06,0-.1"/>
        <path class="cls-2" d="m6.33,3.63v.1"/>
        <path class="cls-2" d="m5.03,5.64v.1"/>
        <path class="cls-2" d="m7.67,5.64v.1"/>
        <path class="cls-2" d="m9.65,5.64v.1"/>
        <path class="cls-2" d="m12.27,5.74v-.1"/>
        <path class="cls-2" d="m3.05,3.63v.1"/>
        <path class="cls-2" d="m5.67,3.63v.1"/>
        <path class="cls-2" d="m7.45,3.73s0-.06,0-.1"/>
        <path class="cls-2" d="m12.51,3.73v-.1"/>
        <path class="cls-2" d="m13.15,3.63v.1"/>
        <path class="cls-2" d="m8.33,3.73v-.1"/>
        <path class="cls-2" d="m4.59,3.63v.1"/>
        <path class="cls-2" d="m2.83,5.74v-.1"/>
        <path class="cls-2" d="m4.57,5.64v.1"/>
        <path class="cls-2" d="m6.35,5.74v-.1"/>
        <path class="cls-2" d="m8.55,5.64v.1"/>
        <path class="cls-2" d="m10.29,5.74v-.1"/>
        <path class="cls-2" d="m12.29,5.64v.1"/>
        <path class="cls-2" d="m13.37,5.74s0-.06,0-.1"/>
        <path class="cls-2" d="m12.49,5.64v.1"/>
        <path class="cls-2" d="m9.87,5.64v.1"/>
        <path class="cls-2" d="m8.11,5.74v-.1"/>
        <path class="cls-2" d="m5.47,5.64v.1"/>
        <path class="cls-2" d="m4.13,5.74v-.1"/>
        <path class="cls-2" d="m2.39,3.63v.1"/>
        <path class="cls-2" d="m5.01,3.73v-.1"/>
        <path class="cls-2" d="m11.85,3.63v.1"/>
        <path class="cls-2" d="m9.41,3.63v.1"/>
        <path class="cls-2" d="m12.07,3.63v.1"/>
        <path class="cls-2" d="m6.79,3.73v-.1"/>
        <path class="cls-2" d="m5.25,3.73v-.1"/>
        <path class="cls-2" d="m2.81,3.63v.1"/>
        <path class="cls-2" d="m13.5,13.5V1.5"/>
        <path class="cls-2" d="m3.49,3.73v-.1"/>
        <path class="cls-2" d="m3.69,3.63v.1"/>
        <path class="cls-2" d="m8.53,3.73v-.1"/>
        <path class="cls-2" d="m10.31,3.63v.1"/>
        <path class="cls-2" d="m12.71,3.63v.1"/>
        <path class="cls-2" d="m6.11,3.73v-.1"/>
        <path class="cls-2" d="m4.15,3.63v.1"/>
        <path class="cls-2" d="m12.73,5.74v-.1"/>
        <path class="cls-2" d="m4.79,5.74v-.1"/>
        <path class="cls-2" d="m5.91,5.74v-.1"/>
        <path class="cls-2" d="m7.87,5.64v.1"/>
        <path class="cls-2" d="m7.21,5.64v.1"/>
        <path class="cls-2" d="m11.19,5.74v-.1"/>
        <path class="cls-2" d="m13.39,5.64s0,.06,0,.1"/>
        <path class="cls-2" d="m12.51,5.74v-.1"/>
        <path class="cls-2" d="m10.09,5.64v.1"/>
        <path class="cls-2" d="m7.89,5.74v-.1"/>
        <path class="cls-2" d="m6.57,5.74v-.1"/>
        <path class="cls-2" d="m4.81,5.64v.1"/>
        <path class="cls-2" d="m13.17,5.74v-.1"/>
        <path class="cls-2" d="m1.73,5.74v-.1"/>
        <path class="cls-2" d="m7.89,3.73v-.1"/>
        <path class="cls-2" d="m10.75,3.73v-.1"/>
        <path class="cls-2" d="m11.39,3.73v-.1"/>
        <path class="cls-2" d="m7.21,3.63v.1"/>
        <path class="cls-2" d="m6.57,3.73v-.1"/>
        <path class="cls-2" d="m3.91,3.73v-.1"/>
        <path class="cls-2" d="m1.71,3.73v-.1"/>
        <path class="cls-2" d="m4.37,3.73v-.1"/>
        <path class="cls-2" d="m3.71,3.63v.1"/>
        <path class="cls-2" d="m8.55,3.63v.1"/>
        <path class="cls-2" d="m8.99,3.73v-.1"/>
        <path class="cls-2" d="m9.65,3.63v.1"/>
        <path class="cls-2" d="m9.19,3.63v.1"/>
        <path class="cls-2" d="m6.13,3.73v-.1"/>
        <path class="cls-2" d="m5.89,3.63v.1"/>
        <path class="cls-2" d="m7.65,5.64v.1"/>
        <path class="cls-2" d="m8.31,5.74v-.1"/>
        <path class="cls-2" d="m7.23,5.64v.1"/>
        <path class="cls-2" d="m9.63,5.74v-.1"/>
        <path class="cls-2" d="m11.41,5.64v.1"/>
        <path class="cls-2" d="m10.73,5.64v.1"/>
        <path class="cls-2" d="m12.07,5.64v.1"/>
        <path class="cls-2" d="m10.97,5.74v-.1"/>
        <path class="cls-2" d="m6.13,5.74v-.1"/>
        <path class="cls-2" d="m5.23,5.74v-.1"/>
        <path class="cls-2" d="m4.59,5.64v.1"/>
        <path class="cls-2" d="m3.91,5.74v-.1"/>
        <path class="cls-2" d="m2.15,5.64v.1"/>
        <path class="cls-2" d="m5.23,3.73v-.1"/>
        <path class="cls-2" d="m6.99,3.63v.1"/>
        <path class="cls-2" d="m11.61,3.63v.1"/>
        <path class="cls-2" d="m7.65,3.63v.1"/>
        <path class="cls-2" d="m4.79,3.73v-.1"/>
        <path class="cls-2" d="m2.59,3.63v.1"/>
        <path class="cls-2" d="m2.17,3.73v-.1"/>
        <path class="cls-2" d="m3.27,3.63v.1"/>
        <path class="cls-2" d="m4.35,3.73v-.1"/>
        <path class="cls-2" d="m8.09,3.73v-.1"/>
        <path class="cls-2" d="m7.01,3.73v-.1"/>
        <path class="cls-2" d="m10.29,3.73v-.1"/>
        <path class="cls-2" d="m8.77,3.73v-.1"/>
        <path class="cls-2" d="m5.91,3.73v-.1"/>
        <path class="cls-2" d="m1.93,5.74v-.1"/>
        <path class="cls-2" d="m3.27,5.64v.1"/>
        <path class="cls-2" d="m5.67,11.66v.1"/>
        <path class="cls-2" d="m3.93,11.66v.1"/>
        <path class="cls-2" d="m3.05,7.63v.1"/>
        <path class="cls-2" d="m4.37,9.73v-.1"/>
        <path class="cls-2" d="m4.81,11.66v.1"/>
        <path class="cls-2" d="m3.05,11.66v.1"/>
        <path class="cls-2" d="m3.03,11.76v-.1"/>
        <path class="cls-2" d="m2.81,11.66v.1"/>
        <path class="cls-2" d="m2.83,11.76v-.1"/>
        <path class="cls-2" d="m2.37,11.76v-.1"/>
        <path class="cls-2" d="m12.73,11.76v-.1"/>
        <path class="cls-2" d="m12.71,11.66v.1"/>
        <path class="cls-2" d="m12.95,11.66v.1"/>
        <path class="cls-2" d="m12.07,9.63v.1"/>
        <path class="cls-2" d="m3.25,11.66v.1"/>
        <path class="cls-2" d="m11.39,9.73v-.1"/>
        <path class="cls-2" d="m5.69,11.76v-.1"/>
        <path class="cls-2" d="m12.05,9.63v.1"/>
        <path class="cls-2" d="m12.27,11.76v-.1"/>
        <path class="cls-2" d="m12.05,11.66v.1"/>
        <path class="cls-2" d="m9.21,9.63v.1"/>
        <path class="cls-2" d="m10.07,9.73v-.1"/>
        <path class="cls-2" d="m12.29,11.66v.1"/>
        <path class="cls-2" d="m10.73,9.63v.1"/>
        <path class="cls-2" d="m11.19,11.76v-.1"/>
        <path class="cls-2" d="m11.39,11.76v-.1"/>
        <path class="cls-2" d="m11.63,11.76v-.1"/>
        <path class="cls-2" d="m2.17,11.76v-.1"/>
        <path class="cls-2" d="m2.59,11.66v.1"/>
        <path class="cls-2" d="m13.37,11.76s0-.06,0-.1"/>
        <path class="cls-2" d="m2.61,11.76v-.1"/>
        <path class="cls-2" d="m5.45,7.63v.1"/>
        <path class="cls-2" d="m6.35,9.73v-.1"/>
        <path class="cls-2" d="m5.67,9.63v.1"/>
        <path class="cls-2" d="m4.13,11.76v-.1"/>
        <path class="cls-2" d="m4.15,11.66v.1"/>
        <path class="cls-2" d="m4.35,11.76v-.1"/>
        <path class="cls-2" d="m4.37,11.76v-.1"/>
        <path class="cls-2" d="m4.57,11.66v.1"/>
        <path class="cls-2" d="m4.59,11.66v.1"/>
        <path class="cls-2" d="m5.01,11.76v-.1"/>
        <path class="cls-2" d="m5.03,11.66v.1"/>
        <path class="cls-2" d="m5.25,11.76v-.1"/>
        <path class="cls-2" d="m5.45,11.66v.1"/>
        <path class="cls-2" d="m5.47,11.66v.1"/>
        <path class="cls-2" d="m9.63,11.76v-.1"/>
        <path class="cls-2" d="m10.51,11.76v-.1"/>
        <path class="cls-2" d="m12.51,11.76v-.1"/>
        <path class="cls-2" d="m9.43,11.66v.1"/>
        <path class="cls-2" d="m10.07,11.76v-.1"/>
        <path class="cls-2" d="m10.29,11.76v-.1"/>
        <path class="cls-2" d="m8.77,11.76v-.1"/>
        <path class="cls-2" d="m7.43,11.76s0-.06,0-.1"/>
        <path class="cls-2" d="m7.01,11.76v-.1"/>
        <path class="cls-2" d="m12.27,7.73v-.1"/>
        <path class="cls-2" d="m7.21,11.66v.1"/>
        <path class="cls-2" d="m4.81,9.63v.1"/>
        <path class="cls-2" d="m8.09,9.73v-.1"/>
        <path class="cls-2" d="m8.53,11.76v-.1"/>
        <path class="cls-2" d="m6.99,11.66v.1"/>
        <path class="cls-2" d="m2.61,9.73v-.1"/>
        <path class="cls-2" d="m11.41,7.63v.1"/>
        <path class="cls-2" d="m11.17,7.63v.1"/>
        <path class="cls-2" d="m8.33,11.76v-.1"/>
        <path class="cls-2" d="m7.87,11.66v.1"/>
        <path class="cls-2" d="m8.09,11.76v-.1"/>
        <path class="cls-2" d="m13.15,7.63v.1"/>
        <path class="cls-2" d="m7.65,11.66v.1"/>
        <path class="cls-2" d="m6.55,11.76v-.1"/>
        <path class="cls-2" d="m6.11,11.76v-.1"/>
        <path class="cls-2" d="m1.95,9.73v-.1"/>
        <path class="cls-2" d="m8.75,11.76v-.1"/>
        <path class="cls-2" d="m6.13,11.76v-.1"/>
        <path class="cls-2" d="m13.17,7.73v-.1"/>
        <path class="cls-2" d="m7.67,11.66v.1"/>
        <path class="cls-2" d="m8.31,11.76v-.1"/>
        <path class="cls-2" d="m11.61,7.63v.1"/>
        <path class="cls-2" d="m11.39,7.73v-.1"/>
        <path class="cls-2" d="m8.55,11.66v.1"/>
        <path class="cls-2" d="m4.79,9.73v-.1"/>
        <path class="cls-2" d="m6.79,11.76v-.1"/>
        <path class="cls-2" d="m5.23,9.73v-.1"/>
        <path class="cls-2" d="m7.45,11.76s0-.06,0-.1"/>
        <path class="cls-2" d="m8.99,11.76v-.1"/>
        <path class="cls-2" d="m9.19,11.66v.1"/>
        <path class="cls-2" d="m9.21,11.66v.1"/>
        <path class="cls-2" d="m10.31,11.66v.1"/>
        <path class="cls-2" d="m9.85,11.76v-.1"/>
        <path class="cls-2" d="m10.07,7.73v-.1"/>
        <path class="cls-2" d="m7.45,9.73s0-.06,0-.1"/>
        <path class="cls-2" d="m10.97,11.76v-.1"/>
        <path class="cls-2" d="m12.49,11.66v.1"/>
        <path class="cls-2" d="m10.31,9.63v.1"/>
        <path class="cls-2" d="m10.09,9.63v.1"/>
        <path class="cls-2" d="m12.29,9.63v.1"/>
        <path class="cls-2" d="m7.43,9.73s0-.06,0-.1"/>
        <path class="cls-2" d="m7.23,9.63v.1"/>
        <path class="cls-2" d="m11.17,11.66v.1"/>
        <path class="cls-2" d="m11.41,11.66v.1"/>
        <path class="cls-2" d="m11.63,9.73v-.1"/>
        <path class="cls-2" d="m12.71,9.63v.1"/>
        <path class="cls-2" d="m10.73,11.66v.1"/>
        <path class="cls-2" d="m1.71,11.76v-.1"/>
        <path class="cls-2" d="m8.53,9.73v-.1"/>
        <path class="cls-2" d="m11.61,11.66v.1"/>
        <path class="cls-2" d="m2.81,9.63v.1"/>
        <path class="cls-2" d="m2.59,9.63v.1"/>
        <path class="cls-2" d="m2.39,9.63v.1"/>
        <path class="cls-2" d="m1.93,11.76v-.1"/>
        <path class="cls-2" d="m1.73,9.73v-.1"/>
        <path class="cls-2" d="m1.71,9.73v-.1"/>
        <path class="cls-2" d="m13.37,7.73s0-.06,0-.1"/>
        <path class="cls-2" d="m13.39,7.63s0,.06,0,.1"/>
        <path class="cls-2" d="m11.83,7.63v.1"/>
        <path class="cls-2" d="m11.85,7.63v.1"/>
        <path class="cls-2" d="m12.71,7.63v.1"/>
        <path class="cls-2" d="m2.39,11.66v.1"/>
        <path class="cls-2" d="m11.85,11.66v.1"/>
        <path class="cls-2" d="m12.07,7.63v.1"/>
        <path class="cls-2" d="m12.05,7.63v.1"/>
        <path class="cls-2" d="m12.29,7.63v.1"/>
        <path class="cls-2" d="m12.49,7.63v.1"/>
        <path class="cls-2" d="m10.97,7.73v-.1"/>
        <path class="cls-2" d="m10.95,7.73v-.1"/>
        <path class="cls-2" d="m10.53,7.73v-.1"/>
        <path class="cls-2" d="m9.65,7.63v.1"/>
        <path class="cls-2" d="m9.63,7.73v-.1"/>
        <path class="cls-2" d="m9.43,7.63v.1"/>
        <path class="cls-2" d="m9.41,7.63v.1"/>
        <path class="cls-2" d="m9.87,7.63v.1"/>
        <path class="cls-2" d="m9.85,7.73v-.1"/>
        <path class="cls-2" d="m10.31,7.63v.1"/>
        <path class="cls-2" d="m10.29,7.73v-.1"/>
        <path class="cls-2" d="m9.21,7.63v.1"/>
        <path class="cls-2" d="m9.19,7.63v.1"/>
        <path class="cls-2" d="m8.99,7.73v-.1"/>
        <path class="cls-2" d="m7.45,7.73s0-.06,0-.1"/>
        <path class="cls-2" d="m7.23,7.63v.1"/>
        <path class="cls-2" d="m7.21,7.63v.1"/>
        <path class="cls-2" d="m7.01,7.73v-.1"/>
        <path class="cls-2" d="m6.99,7.63v.1"/>
        <path class="cls-2" d="m6.79,7.73v-.1"/>
        <path class="cls-2" d="m6.77,7.73v-.1"/>
        <path class="cls-2" d="m8.55,7.63v.1"/>
        <path class="cls-2" d="m8.53,7.73v-.1"/>
        <path class="cls-2" d="m7.89,7.73v-.1"/>
        <path class="cls-2" d="m7.87,7.63v.1"/>
        <path class="cls-2" d="m8.33,7.73v-.1"/>
        <path class="cls-2" d="m8.31,7.73v-.1"/>
        <path class="cls-2" d="m8.11,7.73v-.1"/>
        <path class="cls-2" d="m8.09,7.73v-.1"/>
        <path class="cls-2" d="m7.67,7.63v.1"/>
        <path class="cls-2" d="m7.65,7.63v.1"/>
        <path class="cls-2" d="m6.13,7.73v-.1"/>
        <path class="cls-2" d="m6.11,7.73v-.1"/>
        <path class="cls-2" d="m6.57,7.73v-.1"/>
        <path class="cls-2" d="m6.55,7.73v-.1"/>
        <path class="cls-2" d="m5.91,7.73v-.1"/>
        <path class="cls-2" d="m6.35,7.73v-.1"/>
        <path class="cls-2" d="m5.69,7.73v-.1"/>
        <path class="cls-2" d="m5.47,7.63v.1"/>
        <path class="cls-2" d="m5.25,7.73v-.1"/>
        <path class="cls-2" d="m5.23,7.73v-.1"/>
        <path class="cls-2" d="m5.03,7.63v.1"/>
        <path class="cls-2" d="m3.69,7.63v.1"/>
        <path class="cls-2" d="m4.81,7.63v.1"/>
        <path class="cls-2" d="m4.79,7.73v-.1"/>
        <path class="cls-2" d="m4.59,7.63v.1"/>
        <path class="cls-2" d="m4.57,7.63v.1"/>
        <path class="cls-2" d="m4.37,7.73v-.1"/>
        <path class="cls-2" d="m4.35,7.73v-.1"/>
        <path class="cls-2" d="m4.15,7.63v.1"/>
        <path class="cls-2" d="m4.13,7.73v-.1"/>
        <path class="cls-2" d="m3.93,7.63v.1"/>
        <path class="cls-2" d="m3.91,7.73v-.1"/>
        <path class="cls-2" d="m3.47,7.63v.1"/>
        <path class="cls-2" d="m3.27,7.63v.1"/>
        <path class="cls-2" d="m3.25,7.63v.1"/>
        <path class="cls-2" d="m3.03,7.73v-.1"/>
        <path class="cls-2" d="m2.83,7.73v-.1"/>
        <path class="cls-2" d="m2.81,7.63v.1"/>
        <path class="cls-2" d="m2.61,7.73v-.1"/>
        <path class="cls-2" d="m2.59,7.63v.1"/>
        <path class="cls-2" d="m2.39,7.63v.1"/>
        <path class="cls-2" d="m2.37,7.73v-.1"/>
        <path class="cls-2" d="m2.17,7.73v-.1"/>
        <path class="cls-2" d="m2.15,7.63v.1"/>
        <path class="cls-2" d="m1.73,7.73v-.1"/>
        <path class="cls-2" d="m3.27,11.66v.1"/>
        <path class="cls-2" d="m3.47,11.66v.1"/>
        <path class="cls-2" d="m3.49,11.76v-.1"/>
        <path class="cls-2" d="m5.25,9.73v-.1"/>
        <path class="cls-2" d="m3.91,11.76v-.1"/>
        <path class="cls-2" d="m4.57,9.63v.1"/>
        <path class="cls-2" d="m4.79,11.76v-.1"/>
        <path class="cls-2" d="m3.71,11.66v.1"/>
        <path class="cls-2" d="m5.23,11.76v-.1"/>
        <path class="cls-2" d="m3.05,9.63v.1"/>
        <path class="cls-2" d="m2.83,9.73v-.1"/>
        <path class="cls-2" d="m13.15,11.66v.1"/>
        <path class="cls-2" d="m5.89,11.66v.1"/>
        <path class="cls-2" d="m6.35,11.76v-.1"/>
        <path class="cls-2" d="m5.67,7.63v.1"/>
        <path class="cls-2" d="m5.01,7.73v-.1"/>
        <path class="cls-2" d="m2.15,9.63v.1"/>
        <path class="cls-2" d="m3.71,7.63v.1"/>
        <path class="cls-2" d="m13.17,11.76v-.1"/>
        <path class="cls-2" d="m10.75,11.76v-.1"/>
        <path class="cls-2" d="m12.93,11.76v-.1"/>
        <path class="cls-2" d="m10.09,7.63v.1"/>
        <path class="cls-2" d="m5.91,11.76v-.1"/>
        <path class="cls-2" d="m11.63,7.73v-.1"/>
        <path class="cls-2" d="m8.11,11.76v-.1"/>
        <path class="cls-2" d="m12.93,7.73v-.1"/>
        <path class="cls-2" d="m10.73,7.63v.1"/>
        <path class="cls-2" d="m10.75,7.73v-.1"/>
        <path class="cls-2" d="m12.73,7.73v-.1"/>
        <path class="cls-2" d="m2.17,9.73v-.1"/>
        <path class="cls-2" d="m2.37,9.73v-.1"/>
        <path class="cls-2" d="m3.27,9.63v.1"/>
        <path class="cls-2" d="m7.89,11.76v-.1"/>
        <path class="cls-2" d="m3.49,9.73v-.1"/>
        <path class="cls-2" d="m3.91,9.73v-.1"/>
        <path class="cls-2" d="m4.35,9.73v-.1"/>
        <path class="cls-2" d="m4.13,9.73v-.1"/>
        <path class="cls-2" d="m6.77,11.76v-.1"/>
        <path class="cls-2" d="m4.59,9.63v.1"/>
        <path class="cls-2" d="m5.47,9.63v.1"/>
        <path class="cls-2" d="m6.33,9.63v.1"/>
        <path class="cls-2" d="m7.23,11.66v.1"/>
        <path class="cls-2" d="m6.57,11.76v-.1"/>
        <path class="cls-2" d="m8.97,11.66v.1"/>
        <path class="cls-2" d="m9.87,11.66v.1"/>
        <path class="cls-2" d="m10.09,11.66v.1"/>
        <path class="cls-2" d="m9.41,11.66v.1"/>
        <path class="cls-2" d="m9.65,11.66v.1"/>
        <path class="cls-2" d="m8.75,7.73v-.1"/>
        <path class="cls-2" d="m10.53,11.76v-.1"/>
        <path class="cls-2" d="m10.95,11.76v-.1"/>
        <path class="cls-2" d="m12.51,9.73v-.1"/>
        <path class="cls-2" d="m12.49,9.63v.1"/>
        <path class="cls-2" d="m10.97,9.73v-.1"/>
        <path class="cls-2" d="m10.95,9.73v-.1"/>
        <path class="cls-2" d="m10.53,9.73v-.1"/>
        <path class="cls-2" d="m10.51,9.73v-.1"/>
        <path class="cls-2" d="m9.65,9.63v.1"/>
        <path class="cls-2" d="m9.63,9.73v-.1"/>
        <path class="cls-2" d="m9.43,9.63v.1"/>
        <path class="cls-2" d="m10.29,9.73v-.1"/>
        <path class="cls-2" d="m9.41,9.63v.1"/>
        <path class="cls-2" d="m9.87,9.63v.1"/>
        <path class="cls-2" d="m9.85,9.73v-.1"/>
        <path class="cls-2" d="m9.19,9.63v.1"/>
        <path class="cls-2" d="m8.99,9.73v-.1"/>
        <path class="cls-2" d="m8.97,9.63v.1"/>
        <path class="cls-2" d="m8.77,9.73v-.1"/>
        <path class="cls-2" d="m8.75,9.73v-.1"/>
        <path class="cls-2" d="m7.21,9.63v.1"/>
        <path class="cls-2" d="m7.01,9.73v-.1"/>
        <path class="cls-2" d="m6.99,9.63v.1"/>
        <path class="cls-2" d="m6.79,9.73v-.1"/>
        <path class="cls-2" d="m6.77,9.73v-.1"/>
        <path class="cls-2" d="m8.55,9.63v.1"/>
        <path class="cls-2" d="m12.27,9.73v-.1"/>
        <path class="cls-2" d="m7.89,9.73v-.1"/>
        <path class="cls-2" d="m7.87,9.63v.1"/>
        <path class="cls-2" d="m8.33,9.73v-.1"/>
        <path class="cls-2" d="m8.31,9.73v-.1"/>
        <path class="cls-2" d="m8.11,9.73v-.1"/>
        <path class="cls-2" d="m7.67,9.63v.1"/>
        <path class="cls-2" d="m11.17,9.63v.1"/>
        <path class="cls-2" d="m7.65,9.63v.1"/>
        <path class="cls-2" d="m11.19,9.73v-.1"/>
        <path class="cls-2" d="m6.13,9.73v-.1"/>
        <path class="cls-2" d="m6.11,9.73v-.1"/>
        <path class="cls-2" d="m6.57,9.73v-.1"/>
        <path class="cls-2" d="m6.55,9.73v-.1"/>
        <path class="cls-2" d="m11.41,9.63v.1"/>
        <path class="cls-2" d="m12.93,9.73v-.1"/>
        <path class="cls-2" d="m12.95,9.63v.1"/>
        <path class="cls-2" d="m5.69,9.73v-.1"/>
        <path class="cls-2" d="m11.61,9.63v.1"/>
        <path class="cls-2" d="m11.83,9.63v.1"/>
        <path class="cls-2" d="m10.75,9.73v-.1"/>
        <path class="cls-2" d="m13.15,9.63v.1"/>
        <path class="cls-2" d="m5.03,9.63v.1"/>
        <path class="cls-2" d="m5.01,9.73v-.1"/>
        <path class="cls-2" d="m13.17,9.73v-.1"/>
        <path class="cls-2" d="m3.71,9.63v.1"/>
        <path class="cls-2" d="m3.69,9.63v.1"/>
        <path class="cls-2" d="m12.73,9.73v-.1"/>
        <path class="cls-2" d="m11.85,9.63v.1"/>
        <path class="cls-2" d="m1.95,11.76v-.1"/>
        <path class="cls-2" d="m3.93,9.63v.1"/>
        <path class="cls-2" d="m13.39,9.63s0,.06,0,.1"/>
        <path class="cls-2" d="m3.47,9.63v.1"/>
        <path class="cls-2" d="m13.37,9.73s0-.06,0-.1"/>
        <path class="cls-2" d="m1.73,11.76v-.1"/>
        <path class="cls-2" d="m2.15,11.66v.1"/>
        <path class="cls-2" d="m1.93,9.73v-.1"/>
        <path class="cls-2" d="m5.91,9.73v-.1"/>
        <path class="cls-2" d="m5.89,9.63v.1"/>
        <path class="cls-2" d="m12.95,7.63v.1"/>
        <path class="cls-2" d="m11.83,11.66v.1"/>
        <path class="cls-2" d="m13.39,11.66s0,.06,0,.1"/>
        <path class="cls-2" d="m11.19,7.73v-.1"/>
        <path class="cls-2" d="m12.51,7.73v-.1"/>
        <path class="cls-2" d="m10.51,7.73v-.1"/>
        <path class="cls-2" d="m8.97,7.63v.1"/>
        <path class="cls-2" d="m8.77,7.73v-.1"/>
        <path class="cls-2" d="m7.43,7.73s0-.06,0-.1"/>
        <path class="cls-2" d="m5.89,7.63v.1"/>
        <path class="cls-2" d="m6.33,7.63v.1"/>
        <path class="cls-2" d="m3.49,7.73v-.1"/>
        <path class="cls-2" d="m1.95,7.73v-.1"/>
        <path class="cls-2" d="m1.93,7.73v-.1"/>
        <path class="cls-2" d="m1.71,7.73v-.1"/>
        <path class="cls-2" d="m5.45,9.63v.1"/>
        <path class="cls-2" d="m4.15,9.63v.1"/>
        <path class="cls-2" d="m3.69,11.66v.1"/>
        <path class="cls-2" d="m3.25,9.63v.1"/>
        <path class="cls-2" d="m3.03,9.73v-.1"/>
        <path class="cls-2" d="m6.33,11.66v.1"/>
        <path class="cls-2" d="m1.5,2.4s.01,0,.01,0"/>
        <path class="cls-2" d="m13.38,2.4s-.01,0-.01,0"/>
        <path class="cls-2" d="m13.5,11.92H1.5"/>
        <path class="cls-2" d="m13.5,3.88H1.5"/>
        <path class="cls-2" d="m13.5,5.88H1.5"/>
        <path class="cls-2" d="m13.5,7.88H1.5"/>
        <path class="cls-2" d="m13.5,9.88H1.5"/>
        <path class="cls-2" d="m13.5,5.64H1.5"/>
        <path class="cls-2" d="m1.5,7.73h12"/>
        <path class="cls-2" d="m1.5,9.73h12"/>
        <path class="cls-2" d="m1.5,11.76h12"/>
        <path class="cls-2" d="m13.5,13.5H1.5"/>
        <path class="cls-2" d="m13.5,1.65H1.5"/>
        <path class="cls-2" d="m13.5,3.63H1.5"/>
        <path class="cls-2" d="m7.62.32h-.23"/>
        <path class="cls-2" d="m7.39.35h.23"/>
        <path class="cls-2" d="m7.62,14.68h-.23"/>
        <path class="cls-2" d="m7.39,14.65h.23"/>
        <path class="cls-2" d="m.43,7.52h-.23"/>
        <path class="cls-2" d="m.2,7.49h.23"/>
        <path class="cls-2" d="m14.57,7.52h.23"/>
        <path class="cls-2" d="m14.8,7.49h-.23"/>
        <path class="cls-2" d="m13.78,13.67h-.13"/>
        <path class="cls-2" d="m13.65,13.65h.13"/>
        <path class="cls-2" d="m14.62,14.68h.13"/>
        <path class="cls-2" d="m12.07,11.66v.1"/>
        <path class="cls-2" d="m14.75,14.7h-.13"/>
        <path class="cls-2" d="m1.22,13.67h.13"/>
        <path class="cls-2" d="m1.35,13.65h-.13"/>
        <path class="cls-2" d="m.38,14.68h-.13"/>
        <path class="cls-2" d="m.25,14.7h.13"/>
        <path class="cls-2" d="m13.78,1.33h-.13"/>
        <path class="cls-2" d="m13.65,1.35h.13"/>
        <path class="cls-2" d="m14.62.32h.13"/>
        <path class="cls-2" d="m14.75.3h-.13"/>
        <path class="cls-2" d="m1.22,1.33h.13"/>
        <path class="cls-2" d="m1.35,1.35h-.13"/>
        <path class="cls-2" d="m.38.32h-.13"/>
        <path class="cls-2" d="m.25.3h.13"/>
        <path class="cls-2" d="m1.5,3.73v9.77"/>
        <path class="cls-2" d="m14.88,1.5v13.38"/>
        <path class="cls-2" d="m1.43,1.5v12.07"/>
        <path class="cls-2" d="m14.88,1.5H.13"/>
        <path class="cls-2" d="m1.43,13.57h12.14"/>
        <path class="cls-2" d="m1.5,1.5v2.13"/>
        <path class="cls-2" d="m13.57,13.57V1.5"/>
        <path class="cls-2" d="m13.51,14.88H1.5"/>
        <path class="cls-2" d="m.13.12h14.75"/>
        <path class="cls-2" d="m14.88,14.88h-1.37"/>
        <path class="cls-2" d="m14.88.12v1.37"/>
        <path class="cls-2" d="m.13,1.5V.12"/>
        <path class="cls-2" d="m.13,14.88V1.5"/>
        <path class="cls-2" d="m1.5,13.5v1.38"/>
        <path class="cls-2" d="m1.5,3.63v.1"/>
        <path class="cls-2" d="m1.5,14.88H.13"/>
        <path class="cls-2" d="m13.5,14.88v-1.38"/>
        <path class="cls-2" d="m13.5,11.66H1.5"/>
        <path class="cls-2" d="m13.5,9.63H1.5"/>
        <path class="cls-2" d="m13.5,7.63H1.5"/>
      </g>
    </g>
    <g id="Default">
      <circle class="cls-2" cx="5.81" cy="11.99" r=".07"/>
      <circle class="cls-2" cx="3.17" cy="11.99" r=".07"/>
      <circle class="cls-2" cx="9.19" cy="11.99" r=".07"/>
      <circle class="cls-2" cx=".32" cy=".31" r=".07"/>
      <path class="cls-2" d="m.27.3s.03-.04.05-.04c.02,0,.03.02.04.04"/>
      <path class="cls-2" d="m.36.32s-.03.04-.05.04c-.02,0-.03-.02-.04-.04"/>
      <path class="cls-2" d="m1.24,1.33s.03-.04.05-.04c.02,0,.03.02.04.04"/>
      <circle class="cls-2" cx="1.29" cy="1.34" r=".07"/>
      <circle class="cls-2" cx="14.69" cy=".31" r=".07"/>
      <path class="cls-2" d="m14.64.32s.03.04.05.04c.02,0,.03-.02.04-.04"/>
      <path class="cls-2" d="m13.67,1.35s.03.04.05.04c.02,0,.03-.02.04-.04"/>
      <path class="cls-2" d="m13.76,1.33s-.03-.04-.05-.04c-.02,0-.03.02-.04.04"/>
      <circle class="cls-2" cx="13.72" cy="1.34" r=".07"/>
      <circle class="cls-2" cx=".32" cy="14.69" r=".07"/>
      <path class="cls-2" d="m.27,14.7s.03.04.05.04c.02,0,.03-.02.04-.04"/>
      <path class="cls-2" d="m.36,14.68s-.03-.04-.05-.04c-.02,0-.03.02-.04.04"/>
      <path class="cls-2" d="m1.33,13.65s-.03-.04-.05-.04c-.02,0-.03.02-.04.04"/>
      <path class="cls-2" d="m1.24,13.67s.03.04.05.04c.02,0,.03-.02.04-.04"/>
      <circle class="cls-2" cx="1.29" cy="13.66" r=".07"/>
      <circle class="cls-2" cx="14.69" cy="14.69" r=".07"/>
      <path class="cls-2" d="m14.73,14.7s-.03.04-.05.04c-.02,0-.03-.02-.04-.04"/>
      <path class="cls-2" d="m14.64,14.68s.03-.04.05-.04c.02,0,.03.02.04.04"/>
      <path class="cls-2" d="m13.67,13.65s.03-.04.05-.04c.02,0,.03.02.04.04"/>
      <path class="cls-2" d="m13.76,13.67s-.03.04-.05.04c-.02,0-.03-.02-.04-.04"/>
      <circle class="cls-2" cx="13.72" cy="13.66" r=".07"/>
      <path class="cls-2" d="m14.77,7.49s-.05-.07-.1-.07c-.03,0-.06.03-.07.07"/>
      <path class="cls-2" d="m14.6,7.52s.05.07.1.07c.03,0,.06-.03.07-.07"/>
      <circle class="cls-2" cx="14.69" cy="7.5" r=".11"/>
      <path class="cls-2" d="m.24,7.49s.05-.07.1-.07c.03,0,.06.03.07.07"/>
      <path class="cls-2" d="m.4,7.52s-.05.07-.1.07c-.03,0-.06-.03-.07-.07"/>
      <path class="cls-2" d="m14.73.3s-.03-.04-.05-.04c-.02,0-.03.02-.04.04"/>
      <circle class="cls-2" cx=".32" cy="7.5" r=".11"/>
      <path class="cls-2" d="m7.42,14.65s.05-.07.1-.07c.03,0,.06.03.07.07"/>
      <path class="cls-2" d="m7.58,14.68s-.05.07-.1.07c-.03,0-.06-.03-.07-.07"/>
      <path class="cls-2" d="m1.33,1.35s-.03.04-.05.04c-.02,0-.03-.02-.04-.04"/>
      <circle class="cls-2" cx="7.5" cy="14.66" r=".11"/>
      <path class="cls-2" d="m7.42.35s.05.07.1.07c.03,0,.06-.03.07-.07"/>
      <path class="cls-2" d="m7.58.32s-.05-.07-.1-.07c-.03,0-.06.03-.07.07"/>
      <circle class="cls-2" cx="11.83" cy="11.99" r=".07"/>
      <circle class="cls-2" cx="7.5" cy=".34" r=".11"/>
    </g>
  </g>
</svg>