<svg width="26" height="16" viewBox="0 0 26 16" fill="none" xmlns="http://www.w3.org/2000/svg">
<g clip-path="url(#clip0_1623_122)">
<path d="M25.6899 0.120117H0.159912V15.4001H25.6899V0.120117Z" fill="white"/>
<path d="M1.23022 6.12993C1.23022 6.04993 1.27022 5.98993 1.34022 5.94993C1.37022 5.93993 1.38022 5.92993 1.39022 5.92993C1.40022 5.92993 1.42022 5.92993 1.43022 5.92993C5.25022 5.92993 9.07022 5.92993 12.8902 5.92993C16.7102 5.92993 20.5302 5.92993 24.3502 5.92993C24.3602 5.92993 24.3802 5.92993 24.3902 5.92993C24.4002 5.92993 24.4202 5.92993 24.4302 5.93993C24.4502 5.94993 24.4802 5.96993 24.5002 5.97993C24.5202 5.98993 24.5302 6.00993 24.5402 6.02993C24.5902 6.12993 24.5502 6.24993 24.4502 6.29993C24.4202 6.30993 24.3902 6.31993 24.3602 6.31993C20.5402 6.31993 16.7202 6.31993 12.9002 6.31993C9.08022 6.31993 5.26022 6.31993 1.44022 6.31993C1.43022 6.31993 1.41022 6.31993 1.40022 6.31993C1.39022 6.31993 1.37022 6.31993 1.36022 6.30993C1.34022 6.29993 1.31022 6.27993 1.29022 6.26993C1.25022 6.22993 1.23022 6.17993 1.23022 6.12993Z" stroke="#010101" stroke-width="0.25" stroke-miterlimit="10"/>
<path d="M20.6101 2.6499H22.4401" stroke="#010101" stroke-width="0.25" stroke-miterlimit="10"/>
<path d="M20.5502 2.25H18.7202" stroke="#010101" stroke-width="0.25" stroke-miterlimit="10"/>
<path d="M16.7702 1.73999H14.9402" stroke="#010101" stroke-width="0.25" stroke-miterlimit="10"/>
<path d="M20.6101 1.63989H22.4401" stroke="#010101" stroke-width="0.25" stroke-miterlimit="10"/>
<path d="M22.4401 2.75H20.6101" stroke="#010101" stroke-width="0.25" stroke-miterlimit="10"/>
<path d="M7.46021 2.6499H9.22021" stroke="#010101" stroke-width="0.25" stroke-miterlimit="10"/>
<path d="M7.46021 3.1499H9.22021" stroke="#010101" stroke-width="0.25" stroke-miterlimit="10"/>
<path d="M22.4401 1.73999H20.6101" stroke="#010101" stroke-width="0.25" stroke-miterlimit="10"/>
<path d="M22.5 2.6499H24.26" stroke="#010101" stroke-width="0.25" stroke-miterlimit="10"/>
<path d="M16.8301 2.6499H18.6601" stroke="#010101" stroke-width="0.25" stroke-miterlimit="10"/>
<path d="M16.8401 1.63989H18.6601" stroke="#010101" stroke-width="0.25" stroke-miterlimit="10"/>
<path d="M24.26 1.73999H22.5" stroke="#010101" stroke-width="0.25" stroke-miterlimit="10"/>
<path d="M16.8301 3.1499H18.6601" stroke="#010101" stroke-width="0.25" stroke-miterlimit="10"/>
<path d="M13.0601 3.65991H14.8901" stroke="#010101" stroke-width="0.25" stroke-miterlimit="10"/>
<path d="M18.6601 3.75977H16.8301" stroke="#010101" stroke-width="0.25" stroke-miterlimit="10"/>
<path d="M18.6601 2.25H16.8301" stroke="#010101" stroke-width="0.25" stroke-miterlimit="10"/>
<path d="M13.0002 1.73999H11.1702" stroke="#010101" stroke-width="0.25" stroke-miterlimit="10"/>
<path d="M13.05 2.6499H14.88" stroke="#010101" stroke-width="0.25" stroke-miterlimit="10"/>
<path d="M13.0601 1.63989H14.8901" stroke="#010101" stroke-width="0.25" stroke-miterlimit="10"/>
<path d="M12.9902 2.25H11.1602" stroke="#010101" stroke-width="0.25" stroke-miterlimit="10"/>
<path d="M13.0601 2.1499H14.8901" stroke="#010101" stroke-width="0.25" stroke-miterlimit="10"/>
<path d="M22.4401 3.75977H20.6101" stroke="#010101" stroke-width="0.25" stroke-miterlimit="10"/>
<path d="M24.26 3.75977H22.5" stroke="#010101" stroke-width="0.25" stroke-miterlimit="10"/>
<path d="M20.5502 3.75977H18.7202" stroke="#010101" stroke-width="0.25" stroke-miterlimit="10"/>
<path d="M18.7202 1.63989H20.5502" stroke="#010101" stroke-width="0.25" stroke-miterlimit="10"/>
<path d="M18.7202 2.6499H20.5402" stroke="#010101" stroke-width="0.25" stroke-miterlimit="10"/>
<path d="M18.6601 1.73999H16.8301" stroke="#010101" stroke-width="0.25" stroke-miterlimit="10"/>
<path d="M18.7202 2.1499H20.5402" stroke="#010101" stroke-width="0.25" stroke-miterlimit="10"/>
<path d="M12.9902 3.75977H11.1602" stroke="#010101" stroke-width="0.25" stroke-miterlimit="10"/>
<path d="M18.7202 3.65991H20.5502" stroke="#010101" stroke-width="0.25" stroke-miterlimit="10"/>
<path d="M7.46021 2.1499H9.21021" stroke="#010101" stroke-width="0.25" stroke-miterlimit="10"/>
<path d="M20.5501 2.75H19.0801" stroke="#010101" stroke-width="0.25" stroke-miterlimit="10"/>
<path d="M22.4401 2.25H20.6201" stroke="#010101" stroke-width="0.25" stroke-miterlimit="10"/>
<path d="M16.7702 2.25H14.9402" stroke="#010101" stroke-width="0.25" stroke-miterlimit="10"/>
<path d="M22.5 3.1499H24.26" stroke="#010101" stroke-width="0.25" stroke-miterlimit="10"/>
<path d="M7.4502 1.63989H9.2102" stroke="#010101" stroke-width="0.25" stroke-miterlimit="10"/>
<path d="M24.26 2.25H22.51" stroke="#010101" stroke-width="0.25" stroke-miterlimit="10"/>
<path d="M22.4401 3.25977H20.6101" stroke="#010101" stroke-width="0.25" stroke-miterlimit="10"/>
<path d="M24.26 2.75H22.5" stroke="#010101" stroke-width="0.25" stroke-miterlimit="10"/>
<path d="M20.5502 1.73999H18.7202" stroke="#010101" stroke-width="0.25" stroke-miterlimit="10"/>
<path d="M16.8301 2.1499H18.6601" stroke="#010101" stroke-width="0.25" stroke-miterlimit="10"/>
<path d="M20.6101 3.1499H22.4401" stroke="#010101" stroke-width="0.25" stroke-miterlimit="10"/>
<path d="M16.7702 2.75H14.9402" stroke="#010101" stroke-width="0.25" stroke-miterlimit="10"/>
<path d="M16.8301 3.65991H18.6601" stroke="#010101" stroke-width="0.25" stroke-miterlimit="10"/>
<path d="M7.4502 3.65991H9.2102" stroke="#010101" stroke-width="0.25" stroke-miterlimit="10"/>
<path d="M13.05 3.1499H14.88" stroke="#010101" stroke-width="0.25" stroke-miterlimit="10"/>
<path d="M0.670117 14.0599C0.670117 14.0599 0.620117 13.9799 0.620117 13.9399C0.620117 13.9399 0.620117 13.9099 0.620117 13.8699C0.620117 13.8299 0.620117 13.7999 0.620117 13.7999C0.620117 13.7499 0.640117 13.7099 0.670117 13.6799" stroke="#010101" stroke-width="0.25" stroke-miterlimit="10"/>
<path d="M14.3101 5.47996C13.3701 4.86996 12.4301 4.86996 11.4801 5.47996L11.3401 5.44996" stroke="#010101" stroke-width="0.25" stroke-miterlimit="10"/>
<path d="M25.1401 14.0599C25.1401 14.0599 25.1901 13.9799 25.1901 13.9399C25.1901 13.9399 25.1901 13.9099 25.1901 13.8699C25.1901 13.8299 25.1901 13.7999 25.1901 13.7999C25.1901 13.7499 25.1701 13.7099 25.1401 13.6799" stroke="#010101" stroke-width="0.25" stroke-miterlimit="10"/>
<path d="M18.8702 7.67977V7.27977C15.9602 7.27977 13.0602 7.27977 10.1502 7.27977C7.24021 7.27977 4.34021 7.27977 1.43021 7.27977C1.42021 7.27977 1.40021 7.27977 1.39021 7.27977C1.38021 7.27977 1.36021 7.27977 1.35021 7.28977C1.33021 7.29977 1.30021 7.31977 1.28021 7.32977C1.24021 7.36977 1.22021 7.41977 1.22021 7.46977C1.22021 7.51977 1.24021 7.56977 1.28021 7.60977C1.30021 7.62977 1.32021 7.63977 1.35021 7.64977C1.36021 7.64977 1.37021 7.64977 1.39021 7.65977C1.40021 7.65977 1.42021 7.65977 1.43021 7.65977C2.33021 7.65977 3.23021 7.65977 4.14021 7.65977C5.04021 7.65977 5.94021 7.65977 6.85021 7.65977V7.25977" stroke="#010101" stroke-width="0.25" stroke-miterlimit="10"/>
<path d="M24.4502 8.10999C24.4502 8.10999 24.3902 8.12999 24.3602 8.12999C20.5402 8.12999 16.7202 8.12999 12.9002 8.12999C9.08022 8.12999 5.26022 8.12999 1.44022 8.12999C1.43022 8.12999 1.41022 8.12999 1.40022 8.12999C1.39022 8.12999 1.37022 8.12999 1.36022 8.11999C1.34022 8.10999 1.31022 8.08999 1.29022 8.07999C1.25022 8.03999 1.23022 7.98999 1.23022 7.93999C1.23022 7.85999 1.27022 7.79999 1.34022 7.75999C1.38022 7.73999 1.41022 7.73999 1.43022 7.73999C5.25022 7.73999 9.07022 7.73999 12.8902 7.73999C16.7102 7.73999 20.5302 7.73999 24.3502 7.73999C24.3602 7.73999 24.3802 7.73999 24.3902 7.73999C24.4002 7.73999 24.4202 7.73999 24.4302 7.74999C24.4502 7.75999 24.4802 7.77999 24.5002 7.78999C24.5202 7.79999 24.5302 7.81999 24.5402 7.83999C24.5902 7.93999 24.5502 8.05999 24.4502 8.10999Z" stroke="#010101" stroke-width="0.25" stroke-miterlimit="10"/>
<path d="M6.92017 5.92993V6.32993" stroke="#010101" stroke-width="0.25" stroke-miterlimit="10"/>
<path d="M0.610156 1.30999H0.160156C0.160156 1.30999 0.160156 1.28999 0.160156 1.27999C0.160156 1.27999 0.180156 1.26999 0.190156 1.23999" stroke="#010101" stroke-width="0.25" stroke-miterlimit="10"/>
<path d="M6.8501 6.78989V6.38989" stroke="#010101" stroke-width="0.25" stroke-miterlimit="10"/>
<path d="M6.92017 10.4299V10.8299" stroke="#010101" stroke-width="0.25" stroke-miterlimit="10"/>
<path d="M6.8501 10.8299V10.4299" stroke="#010101" stroke-width="0.25" stroke-miterlimit="10"/>
<path d="M6.92017 6.37988V6.77988" stroke="#010101" stroke-width="0.25" stroke-miterlimit="10"/>
<path d="M6.8501 6.33994V5.93994" stroke="#010101" stroke-width="0.25" stroke-miterlimit="10"/>
<path d="M9.27002 3.1499H11.1" stroke="#010101" stroke-width="0.25" stroke-miterlimit="10"/>
<path d="M6.8501 11.2799V10.8799" stroke="#010101" stroke-width="0.25" stroke-miterlimit="10"/>
<path d="M6.92017 11.7698V12.1698" stroke="#010101" stroke-width="0.25" stroke-miterlimit="10"/>
<path d="M6.92017 10.8799V11.2799" stroke="#010101" stroke-width="0.25" stroke-miterlimit="10"/>
<path d="M6.8501 12.1798V11.7798" stroke="#010101" stroke-width="0.25" stroke-miterlimit="10"/>
<path d="M24.4902 6.7399C24.4902 6.7399 24.4602 6.7599 24.4502 6.7699C24.4102 6.7899 24.3802 6.7899 24.3602 6.7899C20.5402 6.7899 16.7202 6.7899 12.9002 6.7899C9.08022 6.7899 5.26022 6.7899 1.44022 6.7899C1.43022 6.7899 1.41022 6.7899 1.40022 6.7899C1.39022 6.7899 1.37022 6.7899 1.36022 6.7799C1.34022 6.7699 1.31022 6.7499 1.29022 6.7399C1.25022 6.6999 1.23022 6.6499 1.23022 6.5999C1.23022 6.5499 1.25022 6.4999 1.29022 6.4599C1.30022 6.4499 1.32022 6.4299 1.34022 6.4199C1.38022 6.3999 1.41022 6.3999 1.43022 6.3999C3.23022 6.3999 5.04022 6.3999 6.84022 6.3999C9.76022 6.3999 12.6802 6.3999 15.6002 6.3999C18.5202 6.3999 21.4402 6.3999 24.3502 6.3999C24.3602 6.3999 24.3802 6.3999 24.3902 6.3999C24.4002 6.3999 24.4202 6.3999 24.4302 6.4099C24.4502 6.4199 24.4802 6.4399 24.5002 6.4499C24.5402 6.4899 24.5602 6.5399 24.5602 6.5899C24.5602 6.6399 24.5402 6.6899 24.4902 6.7399Z" stroke="#010101" stroke-width="0.25" stroke-miterlimit="10"/>
<path d="M6.92017 12.22V12.62" stroke="#010101" stroke-width="0.25" stroke-miterlimit="10"/>
<path d="M6.8501 12.63V12.23" stroke="#010101" stroke-width="0.25" stroke-miterlimit="10"/>
<path d="M6.8501 10.38V9.97998" stroke="#010101" stroke-width="0.25" stroke-miterlimit="10"/>
<path d="M6.92017 9.97998V10.38" stroke="#010101" stroke-width="0.25" stroke-miterlimit="10"/>
<path d="M24.2102 1.28979C24.2102 1.28979 24.2602 1.30979 24.2602 1.33979V4.05979C24.2602 4.05979 24.2602 4.0798 24.2502 4.0898H24.2302L24.2202 4.1098H7.5002L7.4602 4.0898V4.05979L7.4502 1.33979L7.4702 1.29979H7.4802C7.5202 1.29979 7.5602 1.29979 7.6002 1.29979H24.1902L24.2102 1.28979Z" stroke="#010101" stroke-width="0.25" stroke-miterlimit="10"/>
<path d="M6.92017 9.52979V9.92979" stroke="#010101" stroke-width="0.25" stroke-miterlimit="10"/>
<path d="M6.8501 9.47983V9.07983" stroke="#010101" stroke-width="0.25" stroke-miterlimit="10"/>
<path d="M24.2401 4.20994C24.2401 4.20994 24.2601 4.20994 24.2701 4.20994C24.2701 4.20994 24.2701 4.20994 24.2801 4.20994C24.2901 4.20994 24.3101 4.18994 24.3201 4.17994C24.3201 4.17994 24.3301 4.16994 24.3401 4.15994C24.3601 4.12994 24.3701 4.10994 24.3701 4.06994V1.33994C24.3701 1.27994 24.3301 1.22994 24.2801 1.19994C24.2601 1.19994 24.2401 1.18994 24.2201 1.18994H7.5001C7.5001 1.18994 7.4501 1.18994 7.4401 1.19994C7.4201 1.19994 7.4001 1.21994 7.3901 1.22994C7.3601 1.25994 7.3501 1.29994 7.3501 1.32994V4.04994C7.3501 4.04994 7.3501 4.10994 7.3801 4.13994C7.3801 4.13994 7.3901 4.14994 7.4001 4.15994C7.4101 4.16994 7.4201 4.17994 7.4401 4.18994C7.4601 4.19994 7.4901 4.20994 7.5101 4.20994H24.2101C24.2101 4.20994 24.2201 4.20994 24.2401 4.20994Z" stroke="#010101" stroke-width="0.25" stroke-miterlimit="10"/>
<path d="M6.92017 9.07983V9.47983" stroke="#010101" stroke-width="0.25" stroke-miterlimit="10"/>
<path d="M6.8501 9.02988V8.62988" stroke="#010101" stroke-width="0.25" stroke-miterlimit="10"/>
<path d="M6.92017 8.62988V9.02988" stroke="#010101" stroke-width="0.25" stroke-miterlimit="10"/>
<path d="M6.8501 8.57993V8.17993" stroke="#010101" stroke-width="0.25" stroke-miterlimit="10"/>
<path d="M11.4801 5.48999C11.4801 5.48999 11.4701 5.48999 11.4601 5.48999C11.4401 5.49999 11.4201 5.51999 11.4001 5.53999C11.3701 5.55999 11.3401 5.58999 11.3101 5.60999C11.2501 5.65999 11.1901 5.69999 11.1301 5.74999C11.2601 5.67999 11.3701 5.61999 11.4801 5.55999C11.5001 5.55999 11.5201 5.53999 11.5401 5.54999C11.9901 5.54999 12.4501 5.54999 12.9001 5.54999H12.9401C13.3801 5.54999 13.8301 5.54999 14.2701 5.54999C14.2901 5.54999 14.3101 5.54999 14.3301 5.55999C14.4401 5.61999 14.5401 5.67999 14.6701 5.74999L14.4901 5.60999C14.4901 5.60999 14.4001 5.53999 14.3501 5.50999C14.3401 5.50999 14.3301 5.48999 14.3201 5.48999C14.3101 5.48999 14.2901 5.48999 14.2801 5.48999H11.5501C11.5501 5.48999 11.5101 5.48999 11.5001 5.49999" stroke="#010101" stroke-width="0.25" stroke-miterlimit="10"/>
<path d="M6.92017 8.17993V8.57993" stroke="#010101" stroke-width="0.25" stroke-miterlimit="10"/>
<path d="M6.8501 8.12998V7.72998" stroke="#010101" stroke-width="0.25" stroke-miterlimit="10"/>
<path d="M6.92017 7.72998V8.12998" stroke="#010101" stroke-width="0.25" stroke-miterlimit="10"/>
<path d="M6.8501 7.22983V6.82983" stroke="#010101" stroke-width="0.25" stroke-miterlimit="10"/>
<path d="M6.92017 6.82983V7.22983" stroke="#010101" stroke-width="0.25" stroke-miterlimit="10"/>
<path d="M14.4601 5.45996L14.3201 5.48996" stroke="#010101" stroke-width="0.25" stroke-miterlimit="10"/>
<path d="M25.2001 1.23988H25.6801V0.159883C25.6801 0.159883 25.6701 0.129883 25.6501 0.129883H0.160127C0.160127 0.129883 0.130127 0.139883 0.130127 0.159883V1.23988H0.610127" stroke="#010101" stroke-width="0.25" stroke-miterlimit="10"/>
<path d="M18.2901 2.75H16.8301" stroke="#010101" stroke-width="0.25" stroke-miterlimit="10"/>
<path d="M12.6302 2.75H11.1702" stroke="#010101" stroke-width="0.25" stroke-miterlimit="10"/>
<path d="M22.4402 4.1098V1.28979" stroke="#010101" stroke-width="0.25" stroke-miterlimit="10"/>
<path d="M22.5 1.63989H24.26" stroke="#010101" stroke-width="0.25" stroke-miterlimit="10"/>
<path d="M22.5 2.1499H24.26" stroke="#010101" stroke-width="0.25" stroke-miterlimit="10"/>
<path d="M20.6101 2.1499H22.4401" stroke="#010101" stroke-width="0.25" stroke-miterlimit="10"/>
<path d="M14.9402 2.1499H16.7702" stroke="#010101" stroke-width="0.25" stroke-miterlimit="10"/>
<path d="M18.7202 3.1499H20.5502" stroke="#010101" stroke-width="0.25" stroke-miterlimit="10"/>
<path d="M24.26 3.25977H22.5" stroke="#010101" stroke-width="0.25" stroke-miterlimit="10"/>
<path d="M20.55 4.1098V1.28979" stroke="#010101" stroke-width="0.25" stroke-miterlimit="10"/>
<path d="M20.6101 1.28979V4.1098" stroke="#010101" stroke-width="0.25" stroke-miterlimit="10"/>
<path d="M14.8801 4.1098V1.28979" stroke="#010101" stroke-width="0.25" stroke-miterlimit="10"/>
<path d="M14.9402 1.28979V4.1098" stroke="#010101" stroke-width="0.25" stroke-miterlimit="10"/>
<path d="M11.1001 4.1098V1.28979" stroke="#010101" stroke-width="0.25" stroke-miterlimit="10"/>
<path d="M11.1602 1.28979V4.1098" stroke="#010101" stroke-width="0.25" stroke-miterlimit="10"/>
<path d="M9.21021 4.1098V1.28979" stroke="#010101" stroke-width="0.25" stroke-miterlimit="10"/>
<path d="M25.6102 14.5498V14.3498C25.6102 14.3498 25.6102 14.3298 25.6102 14.3198C25.6102 14.3198 25.6302 14.2998 25.6402 14.2898C25.6502 14.2798 25.6402 14.2698 25.6402 14.2598H25.1902V14.3498H25.6002" stroke="#010101" stroke-width="0.25" stroke-miterlimit="10"/>
<path d="M9.27002 1.28979V4.1098" stroke="#010101" stroke-width="0.25" stroke-miterlimit="10"/>
<path d="M23.82 13.0699C20.18 13.0699 16.54 13.0699 12.9 13.0699C9.26002 13.0699 5.62002 13.0699 1.98002 13.0699C1.97002 13.0699 1.95002 13.0699 1.94002 13.0699C1.93002 13.0699 1.91002 13.0699 1.90002 13.0599C1.88002 13.0499 1.85002 13.0299 1.83002 13.0199C1.79002 12.9799 1.77002 12.9299 1.77002 12.8799C1.77002 12.8299 1.79002 12.7799 1.83002 12.7399C1.85002 12.7199 1.87002 12.7099 1.90002 12.6999C1.91002 12.6999 1.92002 12.6999 1.94002 12.6899C1.95002 12.6899 1.97002 12.6899 1.98002 12.6899C5.62002 12.6899 9.26002 12.6899 12.9 12.6899C16.54 12.6899 20.18 12.6899 23.82 12.6899C23.83 12.6899 23.85 12.6899 23.86 12.6899C23.87 12.6899 23.89 12.6899 23.9 12.6999C23.92 12.7099 23.95 12.7299 23.97 12.7399C24.01 12.7799 24.03 12.8299 24.03 12.8799C24.03 12.9299 24.01 12.9799 23.97 13.0199C23.95 13.0399 23.93 13.0499 23.9 13.0599C23.89 13.0599 23.88 13.0599 23.86 13.0699C23.85 13.0699 23.83 13.0699 23.82 13.0699Z" stroke="#010101" stroke-width="0.25" stroke-miterlimit="10"/>
<path d="M18.6602 2.6798V1.28979" stroke="#010101" stroke-width="0.25" stroke-miterlimit="10"/>
<path d="M0.720205 15.0998C0.720205 15.0998 0.720205 15.0898 0.710205 15.0798C0.710205 15.0798 0.710205 15.0898 0.720205 15.0998Z" stroke="#010101" stroke-width="0.25" stroke-miterlimit="10"/>
<path d="M6.8501 9.92979V9.52979" stroke="#010101" stroke-width="0.25" stroke-miterlimit="10"/>
<path d="M18.6602 4.10988V3.12988" stroke="#010101" stroke-width="0.25" stroke-miterlimit="10"/>
<path d="M18.7202 3.12988V4.10988" stroke="#010101" stroke-width="0.25" stroke-miterlimit="10"/>
<path d="M18.9402 7.67978V7.27978C19.8402 7.27978 20.7402 7.27978 21.6502 7.27978C22.5502 7.27978 23.4602 7.27978 24.3602 7.27978C24.3702 7.27978 24.3902 7.27978 24.4002 7.27978C24.4102 7.27978 24.4302 7.27978 24.4402 7.28978C24.4602 7.29978 24.4902 7.31978 24.5102 7.32978C24.5302 7.33978 24.5402 7.35978 24.5502 7.37978C24.5602 7.40978 24.5702 7.43978 24.5702 7.46978C24.5702 7.54978 24.5302 7.60978 24.4602 7.64978C24.4202 7.66978 24.3902 7.66978 24.3702 7.66978C18.5602 7.66978 12.7402 7.66978 6.93018 7.66978V7.26978" stroke="#010101" stroke-width="0.25" stroke-miterlimit="10"/>
<path d="M18.9402 5.92993V6.32993" stroke="#010101" stroke-width="0.25" stroke-miterlimit="10"/>
<path d="M18.7202 1.28979V2.6798" stroke="#010101" stroke-width="0.25" stroke-miterlimit="10"/>
<path d="M12.9302 5.92993V6.32993" stroke="#010101" stroke-width="0.25" stroke-miterlimit="10"/>
<path d="M5.88007 15.1599C5.88007 15.0999 5.88007 15.0099 5.88007 14.9499C5.88007 14.8899 5.84007 14.8699 5.80007 14.8699C5.76007 14.8699 5.72007 14.9099 5.72007 14.9499H4.73007C4.73007 14.9499 4.69007 14.8799 4.65007 14.8699C4.61007 14.8699 4.58007 14.8899 4.57007 14.9499C4.57007 15.0099 4.57007 15.0999 4.57007 15.1599" stroke="#010101" stroke-width="0.25" stroke-miterlimit="10"/>
<path d="M12.8601 6.33994V5.93994" stroke="#010101" stroke-width="0.25" stroke-miterlimit="10"/>
<path d="M12.9902 2.6798V1.28979" stroke="#010101" stroke-width="0.25" stroke-miterlimit="10"/>
<path d="M12.9302 6.37988V6.77988" stroke="#010101" stroke-width="0.25" stroke-miterlimit="10"/>
<path d="M12.9902 4.10988V3.12988" stroke="#010101" stroke-width="0.25" stroke-miterlimit="10"/>
<path d="M0.160156 14.55V1.23999" stroke="#010101" stroke-width="0.25" stroke-miterlimit="10"/>
<path d="M24.5402 8.7399C24.5402 8.7399 24.5602 8.7999 24.5602 8.8299C24.5602 8.9099 24.5202 8.9699 24.4502 9.0099C24.4102 9.0299 24.3802 9.0299 24.3602 9.0299C20.5402 9.0299 16.7202 9.0299 12.9002 9.0299C10.9902 9.0299 9.08022 9.0299 7.17022 9.0299C5.26022 9.0299 3.35022 9.0299 1.44022 9.0299C1.43022 9.0299 1.41022 9.0299 1.40022 9.0299C1.39022 9.0299 1.37022 9.0299 1.36022 9.0199C1.34022 9.0099 1.31022 8.9899 1.29022 8.9799C1.25022 8.9399 1.23022 8.8899 1.23022 8.8399C1.23022 8.7899 1.25022 8.7399 1.29022 8.6999C1.31022 8.6799 1.33022 8.6699 1.36022 8.6599C1.37022 8.6599 1.38022 8.6599 1.40022 8.6499C1.41022 8.6499 1.43022 8.6499 1.44022 8.6499C5.26022 8.6499 9.08022 8.6499 12.9002 8.6499C16.7202 8.6499 20.5402 8.6499 24.3602 8.6499C24.3702 8.6499 24.3902 8.6499 24.4002 8.6499C24.4102 8.6499 24.4302 8.6499 24.4402 8.6599C24.4602 8.6699 24.4902 8.6899 24.5102 8.6999C24.5302 8.7099 24.5402 8.7299 24.5502 8.7499L24.5402 8.7399Z" stroke="#010101" stroke-width="0.25" stroke-miterlimit="10"/>
<path d="M12.8601 6.78989V6.38989" stroke="#010101" stroke-width="0.25" stroke-miterlimit="10"/>
<path d="M13.05 3.12988V4.10988" stroke="#010101" stroke-width="0.25" stroke-miterlimit="10"/>
<path d="M13.05 1.28979V2.6798" stroke="#010101" stroke-width="0.25" stroke-miterlimit="10"/>
<path d="M12.9302 6.82983V7.22983" stroke="#010101" stroke-width="0.25" stroke-miterlimit="10"/>
<path d="M12.8601 7.22983V6.82983" stroke="#010101" stroke-width="0.25" stroke-miterlimit="10"/>
<path d="M9.28003 3.65991H13" stroke="#010101" stroke-width="0.25" stroke-miterlimit="10"/>
<path d="M12.9302 7.27979V7.67978" stroke="#010101" stroke-width="0.25" stroke-miterlimit="10"/>
<path d="M22.5 1.28979V4.1098" stroke="#010101" stroke-width="0.25" stroke-miterlimit="10"/>
<path d="M14.8802 3.25977H11.1602" stroke="#010101" stroke-width="0.25" stroke-miterlimit="10"/>
<path d="M24.4502 11.2599C24.4502 11.2599 24.3902 11.2799 24.3602 11.2799C22.5602 11.2799 20.7502 11.2799 18.9502 11.2799H6.92023C6.01023 11.2799 5.09023 11.2799 4.18023 11.2799C3.72023 11.2799 3.27023 11.2799 2.81023 11.2799C2.35023 11.2799 1.89023 11.2799 1.44023 11.2799C1.42023 11.2799 1.40023 11.2799 1.39023 11.2799C1.37023 11.2799 1.35023 11.2699 1.34023 11.2599C1.31023 11.2399 1.28023 11.2099 1.26023 11.1799C1.25023 11.1499 1.24023 11.1199 1.24023 11.0899C1.24023 11.0399 1.26023 10.9899 1.30023 10.9499C1.32023 10.9299 1.34023 10.9199 1.37023 10.9099C1.38023 10.9099 1.39023 10.9099 1.41023 10.8999C1.42023 10.8999 1.44023 10.8999 1.45023 10.8999C2.40023 10.8999 3.36023 10.8999 4.31023 10.8999C5.27023 10.8999 6.22023 10.8999 7.18023 10.8999C9.09023 10.8999 11.0002 10.8999 12.9102 10.8999C14.8202 10.8999 16.7302 10.8999 18.6402 10.8999C19.6002 10.8999 20.5502 10.8999 21.5102 10.8999C22.4702 10.8999 23.4202 10.8999 24.3702 10.8999C24.3802 10.8999 24.4002 10.8999 24.4102 10.8999C24.4202 10.8999 24.4402 10.8999 24.4502 10.9099C24.4702 10.9199 24.5002 10.9399 24.5202 10.9499C24.5602 10.9899 24.5802 11.0499 24.5802 11.0899C24.5802 11.1699 24.5402 11.2299 24.4702 11.2699" stroke="#010101" stroke-width="0.25" stroke-miterlimit="10"/>
<path d="M12.8601 7.67978V7.27979" stroke="#010101" stroke-width="0.25" stroke-miterlimit="10"/>
<path d="M20.5501 3.25977H16.8201" stroke="#010101" stroke-width="0.25" stroke-miterlimit="10"/>
<path d="M0.610117 14.5498H0.120117V15.4098C0.120117 15.4098 0.130117 15.4398 0.150117 15.4398H25.6501C25.6501 15.4398 25.6801 15.4298 25.6801 15.4098V14.5498H25.2001" stroke="#010101" stroke-width="0.25" stroke-miterlimit="10"/>
<path d="M12.9302 7.72998V8.12998" stroke="#010101" stroke-width="0.25" stroke-miterlimit="10"/>
<path d="M0.480029 3.54995C0.480029 3.60995 0.440029 3.64995 0.380029 3.64995C0.320029 3.64995 0.280029 3.60995 0.280029 3.54995C0.280029 3.48995 0.320029 3.44995 0.380029 3.44995C0.440029 3.44995 0.480029 3.48995 0.480029 3.54995Z" stroke="#010101" stroke-width="0.25" stroke-miterlimit="10"/>
<path d="M12.8601 8.12998V7.72998" stroke="#010101" stroke-width="0.25" stroke-miterlimit="10"/>
<path d="M16.77 4.1098V1.28979" stroke="#010101" stroke-width="0.25" stroke-miterlimit="10"/>
<path d="M12.9302 8.17993V8.57993" stroke="#010101" stroke-width="0.25" stroke-miterlimit="10"/>
<path d="M16.8301 1.28979V4.1098" stroke="#010101" stroke-width="0.25" stroke-miterlimit="10"/>
<path d="M24.4502 10.8099C24.4502 10.8099 24.3902 10.8299 24.3602 10.8299C20.5402 10.8299 16.7202 10.8299 12.9002 10.8299C10.9902 10.8299 9.08022 10.8299 7.17022 10.8299C5.26022 10.8299 3.35022 10.8299 1.44022 10.8299C1.43022 10.8299 1.41022 10.8299 1.40022 10.8299C1.39022 10.8299 1.37022 10.8299 1.36022 10.8199C1.34022 10.8099 1.31022 10.7999 1.29022 10.7799C1.25022 10.7399 1.23022 10.6899 1.23022 10.6299C1.23022 10.5599 1.27022 10.4899 1.34022 10.4499C1.37022 10.4299 1.40022 10.4299 1.43022 10.4299C5.25022 10.4299 9.07022 10.4299 12.8902 10.4299C14.8002 10.4299 16.7102 10.4299 18.6202 10.4299C20.5302 10.4299 22.4402 10.4299 24.3502 10.4299C24.3602 10.4299 24.3802 10.4299 24.3902 10.4299C24.4002 10.4299 24.4202 10.4299 24.4302 10.4399C24.4502 10.4499 24.4802 10.4699 24.5002 10.4799C24.5402 10.5199 24.5602 10.5699 24.5602 10.6199C24.5602 10.6999 24.5202 10.7599 24.4502 10.7999" stroke="#010101" stroke-width="0.25" stroke-miterlimit="10"/>
<path d="M12.8601 8.57993V8.17993" stroke="#010101" stroke-width="0.25" stroke-miterlimit="10"/>
<path d="M12.9302 8.62988V9.02988" stroke="#010101" stroke-width="0.25" stroke-miterlimit="10"/>
<path d="M12.8601 9.02988V8.62988" stroke="#010101" stroke-width="0.25" stroke-miterlimit="10"/>
<path d="M14.3401 5.50977L14.6501 5.73977" stroke="#010101" stroke-width="0.25" stroke-miterlimit="10"/>
<path d="M11.1 3.25977H9.27002" stroke="#010101" stroke-width="0.25" stroke-miterlimit="10"/>
<path d="M12.9302 9.52979V9.92979" stroke="#010101" stroke-width="0.25" stroke-miterlimit="10"/>
<path d="M9.2102 3.25977H7.4502" stroke="#010101" stroke-width="0.25" stroke-miterlimit="10"/>
<path d="M24.17 12.6C24.17 12.6 24.14 12.61 24.13 12.61C24.11 12.61 24.09 12.61 24.08 12.61C20.35 12.61 16.62 12.61 12.89 12.61C9.16 12.61 5.43 12.61 1.7 12.61C1.68 12.61 1.66 12.61 1.65 12.61C1.63 12.61 1.62 12.6 1.6 12.59C1.59 12.59 1.57 12.57 1.56 12.56C1.54 12.55 1.53 12.53 1.52 12.51C1.51 12.48 1.5 12.45 1.5 12.42C1.5 12.37 1.52 12.32 1.56 12.28C1.58 12.26 1.6 12.25 1.63 12.24C1.64 12.24 1.66 12.24 1.67 12.23C1.68 12.23 1.7 12.23 1.71 12.23C3.57 12.23 5.44 12.23 7.3 12.23C9.16 12.23 11.03 12.23 12.89 12.23C14.75 12.23 16.62 12.23 18.48 12.23C20.35 12.23 22.21 12.23 24.07 12.23C24.09 12.23 24.11 12.23 24.12 12.23C24.14 12.23 24.16 12.24 24.17 12.25C24.2 12.27 24.23 12.3 24.25 12.33C24.26 12.36 24.27 12.39 24.27 12.42C24.27 12.5 24.23 12.57 24.16 12.6" stroke="#010101" stroke-width="0.25" stroke-miterlimit="10"/>
<path d="M14.88 3.75977H13.05" stroke="#010101" stroke-width="0.25" stroke-miterlimit="10"/>
<path d="M12.8601 9.92979V9.52979" stroke="#010101" stroke-width="0.25" stroke-miterlimit="10"/>
<path d="M25.6501 1.23999V14.55" stroke="#010101" stroke-width="0.25" stroke-miterlimit="10"/>
<path d="M12.9302 9.97998V10.38" stroke="#010101" stroke-width="0.25" stroke-miterlimit="10"/>
<path d="M0.190186 14.3499H0.600186" stroke="#010101" stroke-width="0.25" stroke-miterlimit="10"/>
<path d="M12.8601 10.38V9.97998" stroke="#010101" stroke-width="0.25" stroke-miterlimit="10"/>
<path d="M11.11 2.25H9.28003" stroke="#010101" stroke-width="0.25" stroke-miterlimit="10"/>
<path d="M12.9302 10.4299V10.8299" stroke="#010101" stroke-width="0.25" stroke-miterlimit="10"/>
<path d="M9.2102 2.25H7.4502" stroke="#010101" stroke-width="0.25" stroke-miterlimit="10"/>
<path d="M0.670137 0.719981C0.670137 0.719981 0.670137 0.70998 0.670137 0.69998C0.670137 0.69998 0.670137 0.68998 0.670137 0.67998C0.670137 0.67998 0.670137 0.66998 0.670137 0.63998C0.670137 0.63998 0.670137 0.62998 0.670137 0.60998C0.670137 0.60998 0.670137 0.60998 0.670137 0.57998C0.670137 0.57998 0.670137 0.57998 0.680137 0.55998C0.680137 0.55998 0.680137 0.559981 0.690137 0.539981C0.720137 0.499981 0.760137 0.47998 0.800137 0.47998C4.82014 0.47998 8.85014 0.47998 12.8701 0.47998C14.8801 0.47998 16.9001 0.47998 18.9101 0.47998C19.9201 0.47998 20.9201 0.47998 21.9301 0.47998C22.9401 0.47998 23.9501 0.47998 24.9501 0.47998C24.9901 0.47998 25.0301 0.499981 25.0601 0.539981C25.0801 0.569981 25.0901 0.59998 25.1001 0.62998C25.1001 0.64998 25.1001 0.699981 25.1101 0.719981V14.68C25.1101 14.84 25.0401 14.92 24.9601 14.92C24.9601 14.92 21.9401 14.92 21.9301 14.92C20.9201 14.92 19.9201 14.92 18.9101 14.92C16.9001 14.92 14.8901 14.92 12.8701 14.92C10.8501 14.92 8.85014 14.92 6.83014 14.92H3.81014C3.31014 14.92 0.800137 14.92 0.790137 14.92C0.710137 14.92 0.640137 14.85 0.640137 14.68V0.719981H0.670137Z" stroke="#010101" stroke-width="0.25" stroke-miterlimit="10"/>
<path d="M14.9402 1.63989H16.7602" stroke="#010101" stroke-width="0.25" stroke-miterlimit="10"/>
<path d="M12.8601 10.8299V10.4299" stroke="#010101" stroke-width="0.25" stroke-miterlimit="10"/>
<path d="M14.9502 3.1499H16.7702" stroke="#010101" stroke-width="0.25" stroke-miterlimit="10"/>
<path d="M12.9302 10.8799V11.2799" stroke="#010101" stroke-width="0.25" stroke-miterlimit="10"/>
<path d="M12.8601 11.2799V10.8799" stroke="#010101" stroke-width="0.25" stroke-miterlimit="10"/>
<path d="M14.9402 2.6499H16.7702" stroke="#010101" stroke-width="0.25" stroke-miterlimit="10"/>
<path d="M11.1 1.73999H9.27002" stroke="#010101" stroke-width="0.25" stroke-miterlimit="10"/>
<path d="M12.6301 2.70993C12.6301 2.70993 12.6401 2.67993 12.6601 2.67993H13.3901C13.3901 2.67993 13.4201 2.68993 13.4201 2.70993V3.09993C13.4201 3.09993 13.4101 3.12993 13.3901 3.12993H12.6601C12.6601 3.12993 12.6301 3.11993 12.6301 3.09993V2.70993Z" stroke="#010101" stroke-width="0.25" stroke-miterlimit="10"/>
<path d="M18.9402 11.7698V12.1698" stroke="#010101" stroke-width="0.25" stroke-miterlimit="10"/>
<path d="M12.9302 11.3198V11.7198" stroke="#010101" stroke-width="0.25" stroke-miterlimit="10"/>
<path d="M11.9602 15.1599C11.9602 15.1599 11.9602 15.1499 11.9602 15.1399C11.9602 15.1299 11.9602 15.1099 11.9702 15.0999C11.9702 15.0999 11.9802 15.0999 11.9902 15.0899C12.0002 15.0799 12.0002 15.0899 12.0102 15.0899C12.1602 15.0899 12.3202 15.0899 12.4802 15.0899C12.6402 15.0899 12.7902 15.0899 12.9502 15.0899C13.1102 15.0899 13.2602 15.0899 13.4202 15.0899C13.5802 15.0899 13.7302 15.0899 13.8902 15.0899C13.8902 15.0899 13.9002 15.0899 13.9102 15.0899C13.9102 15.0899 13.9202 15.0899 13.9302 15.0999C13.9302 15.0999 13.9402 15.1199 13.9402 15.1399C13.9402 15.1399 13.9402 15.1499 13.9402 15.1599" stroke="#010101" stroke-width="0.25" stroke-miterlimit="10"/>
<path d="M9.21021 1.73999H7.46021" stroke="#010101" stroke-width="0.25" stroke-miterlimit="10"/>
<path d="M18.8701 11.7298V11.3298" stroke="#010101" stroke-width="0.25" stroke-miterlimit="10"/>
<path d="M0.610156 14.25H0.160156C0.160156 14.25 0.160156 14.27 0.160156 14.28C0.160156 14.29 0.180156 14.3 0.190156 14.31C0.190156 14.31 0.190156 14.33 0.190156 14.34V14.54" stroke="#010101" stroke-width="0.25" stroke-miterlimit="10"/>
<path d="M12.8601 11.7298V11.3298" stroke="#010101" stroke-width="0.25" stroke-miterlimit="10"/>
<path d="M11.11 2.75H9.28003" stroke="#010101" stroke-width="0.25" stroke-miterlimit="10"/>
<path d="M25.2002 1.30999H25.6502C25.6502 1.30999 25.6502 1.28999 25.6402 1.27999C25.6302 1.26999 25.6102 1.25999 25.6102 1.23999" stroke="#010101" stroke-width="0.25" stroke-miterlimit="10"/>
<path d="M25.3301 3.52994C25.3301 3.57994 25.3601 3.63994 25.4101 3.63994C25.4601 3.63994 25.5201 3.60994 25.5201 3.55994C25.5201 3.55994 25.5201 3.54994 25.5201 3.53994C25.5201 3.47994 25.4801 3.43994 25.4201 3.43994C25.4201 3.43994 25.3301 3.47994 25.3201 3.51994" stroke="#010101" stroke-width="0.25" stroke-miterlimit="10"/>
<path d="M18.9402 11.3198V11.7198" stroke="#010101" stroke-width="0.25" stroke-miterlimit="10"/>
<path d="M1.23022 1.13999C1.23022 1.05999 1.30022 0.98999 1.38022 0.98999H6.41022C6.41022 0.98999 6.47022 0.98999 6.49022 1.00999C6.53022 1.03999 6.56022 1.07999 6.56022 1.13999V4.25999C6.56022 4.33999 6.50022 4.40999 6.42022 4.40999H1.38022C1.30022 4.40999 1.23022 4.33999 1.23022 4.25999V1.13999Z" stroke="#010101" stroke-width="0.25" stroke-miterlimit="10"/>
<path d="M12.9302 11.7698V12.1698" stroke="#010101" stroke-width="0.25" stroke-miterlimit="10"/>
<path d="M18.8701 11.2799V10.8799" stroke="#010101" stroke-width="0.25" stroke-miterlimit="10"/>
<path d="M12.8601 12.1798V11.7798" stroke="#010101" stroke-width="0.25" stroke-miterlimit="10"/>
<path d="M9.2102 2.75H7.4502" stroke="#010101" stroke-width="0.25" stroke-miterlimit="10"/>
<path d="M11.1 3.75977H9.27002" stroke="#010101" stroke-width="0.25" stroke-miterlimit="10"/>
<path d="M18.9402 10.8799V11.2799" stroke="#010101" stroke-width="0.25" stroke-miterlimit="10"/>
<path d="M12.9302 12.22V12.62" stroke="#010101" stroke-width="0.25" stroke-miterlimit="10"/>
<path d="M11.1402 5.74996C11.7202 5.74996 12.3102 5.74996 12.8902 5.74996C14.9002 5.74996 16.9102 5.74996 18.9302 5.74996C19.9402 5.74996 20.9502 5.74996 21.9502 5.74996C22.7802 5.74996 23.6102 5.74996 24.4602 5.74996C24.5002 5.74996 24.5602 5.71996 24.5602 5.64996C24.5602 5.36996 24.5602 5.18996 24.5602 5.05996C24.5602 5.02996 24.5302 4.95996 24.4602 4.95996C23.6102 4.95996 22.7802 4.95996 21.9502 4.95996C20.9502 4.95996 19.9402 4.95996 18.9302 4.95996C16.9102 4.95996 14.9002 4.95996 12.8902 4.95996C9.04022 4.95996 5.18022 4.95996 1.33022 4.95996C1.26022 4.95996 1.23022 5.02996 1.23022 5.05996C1.23022 5.18996 1.23022 5.36996 1.23022 5.64996C1.23022 5.71996 1.30022 5.74996 1.33022 5.74996C4.51022 5.74996 7.70022 5.74996 10.8802 5.74996M10.8802 5.74996H11.1202C12.3002 5.74996 13.4802 5.74996 14.6602 5.74996H14.9002C14.7602 5.64996 14.6102 5.54996 14.4502 5.45996C13.4102 4.87996 12.3702 4.87996 11.3302 5.45996C11.1702 5.54996 11.0202 5.63996 10.8802 5.74996Z" stroke="#010101" stroke-width="0.25" stroke-miterlimit="10"/>
<path d="M9.22021 3.75977H7.46021" stroke="#010101" stroke-width="0.25" stroke-miterlimit="10"/>
<path d="M24.5601 4.25999C24.5601 4.33999 24.4901 4.40999 24.4101 4.40999H7.30015C7.22015 4.40999 7.15015 4.33999 7.15015 4.25999C7.15015 4.22999 7.15015 4.18999 7.15015 4.13999V1.13999C7.15015 1.05999 7.22015 0.98999 7.30015 0.98999H24.4101C24.4901 0.98999 24.5601 1.05999 24.5601 1.13999V4.25999Z" stroke="#010101" stroke-width="0.25" stroke-miterlimit="10"/>
<path d="M18.8701 10.8299V10.4299" stroke="#010101" stroke-width="0.25" stroke-miterlimit="10"/>
<path d="M12.8601 12.63V12.23" stroke="#010101" stroke-width="0.25" stroke-miterlimit="10"/>
<path d="M14.9402 3.65991H16.7702" stroke="#010101" stroke-width="0.25" stroke-miterlimit="10"/>
<path d="M18.9402 10.4299V10.8299" stroke="#010101" stroke-width="0.25" stroke-miterlimit="10"/>
<path d="M12.9302 12.6699V13.0699" stroke="#010101" stroke-width="0.25" stroke-miterlimit="10"/>
<path d="M9.27002 2.1499H11.1" stroke="#010101" stroke-width="0.25" stroke-miterlimit="10"/>
<path d="M12.8601 13.0699V12.6699" stroke="#010101" stroke-width="0.25" stroke-miterlimit="10"/>
<path d="M18.8701 10.38V9.97998" stroke="#010101" stroke-width="0.25" stroke-miterlimit="10"/>
<path d="M11.1602 2.1499H12.9902" stroke="#010101" stroke-width="0.25" stroke-miterlimit="10"/>
<path d="M12.9302 13.1199V13.5199" stroke="#010101" stroke-width="0.25" stroke-miterlimit="10"/>
<path d="M18.32 2.67993C18.32 2.67993 18.29 2.68993 18.29 2.70993V3.09993C18.29 3.09993 18.3 3.12993 18.32 3.12993H19.05C19.05 3.12993 19.08 3.11993 19.08 3.09993V2.70993C19.08 2.70993 19.07 2.67993 19.05 2.67993H18.32Z" stroke="#010101" stroke-width="0.25" stroke-miterlimit="10"/>
<path d="M18.9402 9.97998V10.38" stroke="#010101" stroke-width="0.25" stroke-miterlimit="10"/>
<path d="M14.88 2.25H13.05" stroke="#010101" stroke-width="0.25" stroke-miterlimit="10"/>
<path d="M1.52009 12.1698C1.42009 12.1598 1.34009 12.0698 1.34009 11.9698C1.34009 11.9198 1.36009 11.8698 1.40009 11.8298C1.42009 11.8098 1.44009 11.7998 1.47009 11.7898C1.48009 11.7898 1.49009 11.7898 1.51009 11.7798C1.52009 11.7798 1.54009 11.7798 1.55009 11.7798C2.49009 11.7798 3.44009 11.7798 4.39009 11.7798C5.34009 11.7798 6.28009 11.7798 7.23009 11.7798C9.12009 11.7798 11.0201 11.7798 12.9101 11.7798C14.8001 11.7798 16.7001 11.7798 18.5901 11.7798C20.4801 11.7798 22.3801 11.7798 24.2701 11.7798C24.2801 11.7798 24.3001 11.7798 24.3101 11.7798C24.3201 11.7798 24.3401 11.7798 24.3501 11.7898C24.3701 11.7998 24.4001 11.8098 24.4201 11.8298C24.4601 11.8698 24.4801 11.9198 24.4801 11.9698C24.4801 12.0198 24.4601 12.0798 24.4201 12.1098C24.3901 12.1398 24.3501 12.1598 24.3001 12.1698H24.2801C16.7101 12.1698 9.14009 12.1698 1.57009 12.1698H1.55009H1.52009Z" stroke="#010101" stroke-width="0.25" stroke-miterlimit="10"/>
<path d="M9.27002 1.63989H11.1" stroke="#010101" stroke-width="0.25" stroke-miterlimit="10"/>
<path d="M18.8701 9.92979V9.52979" stroke="#010101" stroke-width="0.25" stroke-miterlimit="10"/>
<path d="M12.8601 13.5199V13.1199" stroke="#010101" stroke-width="0.25" stroke-miterlimit="10"/>
<path d="M12.9302 13.5698V13.9698" stroke="#010101" stroke-width="0.25" stroke-miterlimit="10"/>
<path d="M12.8601 13.9698V13.5698" stroke="#010101" stroke-width="0.25" stroke-miterlimit="10"/>
<path d="M18.8701 8.12998V7.72998" stroke="#010101" stroke-width="0.25" stroke-miterlimit="10"/>
<path d="M18.9402 9.52979V9.92979" stroke="#010101" stroke-width="0.25" stroke-miterlimit="10"/>
<path d="M1.30022 7.18986C1.30022 7.18986 1.30022 7.18986 1.29022 7.18986C1.27022 7.16986 1.26022 7.15986 1.25022 7.13986C1.24022 7.10986 1.23022 7.07986 1.23022 7.04986C1.23022 6.99986 1.25022 6.94986 1.29022 6.90986C1.31022 6.88986 1.33022 6.87986 1.36022 6.86986C1.37022 6.86986 1.38022 6.86986 1.40022 6.85986C1.41022 6.85986 1.43022 6.85986 1.44022 6.85986C5.26022 6.85986 9.08022 6.85986 12.9002 6.85986C16.7202 6.85986 20.5402 6.85986 24.3602 6.85986C24.3702 6.85986 24.3902 6.85986 24.4002 6.85986C24.4102 6.85986 24.4302 6.85986 24.4402 6.86986C24.4602 6.87986 24.4902 6.89986 24.5102 6.90986C24.5502 6.94986 24.5702 6.99986 24.5702 7.04986C24.5702 7.09986 24.5502 7.14986 24.5102 7.18986C24.4902 7.20986 24.4702 7.21986 24.4402 7.22986C24.4302 7.22986 24.4202 7.22986 24.4002 7.23986C24.3802 7.24986 24.3702 7.23986 24.3602 7.23986C20.5402 7.23986 16.7202 7.23986 12.9002 7.23986C9.08022 7.23986 5.26022 7.23986 1.44022 7.23986C1.43022 7.23986 1.41022 7.23986 1.40022 7.23986C1.39022 7.23986 1.37022 7.23986 1.36022 7.22986C1.34022 7.22986 1.32022 7.20986 1.30022 7.19986V7.18986Z" stroke="#010101" stroke-width="0.25" stroke-miterlimit="10"/>
<path d="M18.9402 9.07983V9.47983" stroke="#010101" stroke-width="0.25" stroke-miterlimit="10"/>
<path d="M14.8802 2.75H13.4202" stroke="#010101" stroke-width="0.25" stroke-miterlimit="10"/>
<path d="M18.8701 13.5199V13.1199" stroke="#010101" stroke-width="0.25" stroke-miterlimit="10"/>
<path d="M6.8501 13.9698V13.5698" stroke="#010101" stroke-width="0.25" stroke-miterlimit="10"/>
<path d="M2.29004 13.3199C2.29004 13.2399 2.33004 13.1799 2.40004 13.1399C2.43004 13.1299 2.44004 13.1199 2.45004 13.1199C2.46004 13.1199 2.48004 13.1199 2.49004 13.1199C5.96004 13.1199 9.42004 13.1199 12.89 13.1199C16.36 13.1199 19.82 13.1199 23.29 13.1199C23.3 13.1199 23.32 13.1199 23.33 13.1199C23.34 13.1199 23.36 13.1199 23.37 13.1299C23.39 13.1399 23.42 13.1599 23.44 13.1699C23.48 13.2099 23.5 13.2599 23.5 13.3099C23.5 13.3599 23.48 13.4099 23.44 13.4499C23.43 13.4599 23.41 13.4799 23.39 13.4899C23.36 13.4999 23.33 13.5099 23.3 13.5099C19.83 13.5099 16.37 13.5099 12.9 13.5099C9.43004 13.5099 5.97004 13.5099 2.50004 13.5099C2.49004 13.5099 2.47004 13.5099 2.46004 13.5099C2.45004 13.5099 2.43004 13.5099 2.42004 13.4999C2.40004 13.4899 2.37004 13.4699 2.35004 13.4599C2.31004 13.4199 2.29004 13.3699 2.29004 13.3199Z" stroke="#010101" stroke-width="0.25" stroke-miterlimit="10"/>
<path d="M11.1602 1.63989H12.9902" stroke="#010101" stroke-width="0.25" stroke-miterlimit="10"/>
<path d="M18.8701 9.47983V9.07983" stroke="#010101" stroke-width="0.25" stroke-miterlimit="10"/>
<path d="M18.9402 8.17993V8.57993" stroke="#010101" stroke-width="0.25" stroke-miterlimit="10"/>
<path d="M6.92017 13.5698V13.9698" stroke="#010101" stroke-width="0.25" stroke-miterlimit="10"/>
<path d="M18.8701 9.02988V8.62988" stroke="#010101" stroke-width="0.25" stroke-miterlimit="10"/>
<path d="M21.2302 15.1599C21.2302 15.0999 21.2302 15.0099 21.2302 14.9499C21.2302 14.8899 21.1902 14.8699 21.1502 14.8699C21.1102 14.8699 21.0702 14.9099 21.0702 14.9499H20.0802C20.0802 14.9499 20.0402 14.8799 20.0002 14.8699C19.9602 14.8699 19.9302 14.8899 19.9202 14.9499C19.9202 15.0099 19.9202 15.0999 19.9202 15.1599" stroke="#010101" stroke-width="0.25" stroke-miterlimit="10"/>
<path d="M18.9402 13.5698V13.9698" stroke="#010101" stroke-width="0.25" stroke-miterlimit="10"/>
<path d="M6.8501 13.5199V13.1199" stroke="#010101" stroke-width="0.25" stroke-miterlimit="10"/>
<path d="M14.88 1.73999H13.05" stroke="#010101" stroke-width="0.25" stroke-miterlimit="10"/>
<path d="M24.4502 9.9098C24.4502 9.9098 24.3902 9.9298 24.3602 9.9298C20.5402 9.9298 16.7202 9.9298 12.9002 9.9298C10.9902 9.9298 9.08022 9.9298 7.17022 9.9298C6.21022 9.9298 5.26022 9.9298 4.30022 9.9298C3.34022 9.9298 2.39022 9.9298 1.44022 9.9298C1.43022 9.9298 1.41022 9.9298 1.40022 9.9298C1.39022 9.9298 1.37022 9.9298 1.36022 9.9198C1.34022 9.9098 1.31022 9.8898 1.29022 9.8798C1.25022 9.8398 1.23022 9.7798 1.23022 9.7398C1.23022 9.6898 1.25022 9.6398 1.29022 9.5998C1.31022 9.5798 1.33022 9.5698 1.36022 9.5598C1.37022 9.5598 1.38022 9.5598 1.40022 9.5498C1.41022 9.5498 1.43022 9.5498 1.44022 9.5498C2.39022 9.5498 3.35022 9.5498 4.30022 9.5498C5.26022 9.5498 6.21022 9.5498 7.17022 9.5498C9.08022 9.5498 10.9902 9.5498 12.9002 9.5498C14.8102 9.5498 16.7202 9.5498 18.6302 9.5498C19.5902 9.5498 20.5402 9.5498 21.5002 9.5498C22.4602 9.5498 23.4102 9.5498 24.3602 9.5498C24.3702 9.5498 24.3902 9.5498 24.4002 9.5498C24.4102 9.5498 24.4302 9.5498 24.4402 9.5598C24.4602 9.5698 24.4902 9.5898 24.5102 9.5998C24.5502 9.6398 24.5702 9.6998 24.5702 9.7398C24.5702 9.8198 24.5302 9.8798 24.4602 9.9198" stroke="#010101" stroke-width="0.25" stroke-miterlimit="10"/>
<path d="M18.8701 8.57993V8.17993" stroke="#010101" stroke-width="0.25" stroke-miterlimit="10"/>
<path d="M11.1602 2.6499H12.9902" stroke="#010101" stroke-width="0.25" stroke-miterlimit="10"/>
<path d="M6.92017 13.1199V13.5199" stroke="#010101" stroke-width="0.25" stroke-miterlimit="10"/>
<path d="M18.9402 8.62988V9.02988" stroke="#010101" stroke-width="0.25" stroke-miterlimit="10"/>
<path d="M1.23022 8.37994C1.23022 8.31994 1.25022 8.26994 1.29022 8.23994C1.31022 8.21994 1.33022 8.20994 1.36022 8.19994C1.37022 8.19994 1.38022 8.19994 1.40022 8.18994C1.41022 8.18994 1.43022 8.18994 1.44022 8.18994C5.26022 8.18994 9.08022 8.18994 12.9002 8.18994C16.7202 8.18994 20.5402 8.18994 24.3602 8.18994C24.3702 8.18994 24.3902 8.18994 24.4002 8.18994C24.4102 8.18994 24.4302 8.18994 24.4402 8.19994C24.4602 8.20994 24.4902 8.22994 24.5102 8.23994C24.5502 8.27994 24.5702 8.32994 24.5702 8.37994C24.5702 8.45994 24.5302 8.51994 24.4602 8.55994C24.4202 8.57994 24.3902 8.57994 24.3702 8.57994C20.5502 8.57994 16.7302 8.57994 12.9102 8.57994C9.09022 8.57994 5.27022 8.57994 1.45022 8.57994C1.44022 8.57994 1.42022 8.57994 1.41022 8.57994C1.40022 8.57994 1.38022 8.57994 1.37022 8.56994C1.35022 8.55994 1.32022 8.53994 1.30022 8.52994C1.26022 8.48994 1.24022 8.43994 1.24022 8.38994L1.23022 8.37994Z" stroke="#010101" stroke-width="0.25" stroke-miterlimit="10"/>
<path d="M6.8501 13.0699V12.6699" stroke="#010101" stroke-width="0.25" stroke-miterlimit="10"/>
<path d="M18.8701 13.9698V13.5698" stroke="#010101" stroke-width="0.25" stroke-miterlimit="10"/>
<path d="M24.4502 10.36C24.4502 10.36 24.3902 10.38 24.3602 10.38C20.5402 10.38 16.7202 10.38 12.9002 10.38C10.9902 10.38 9.08022 10.38 7.17022 10.38C6.21022 10.38 5.26022 10.38 4.30022 10.38C3.34022 10.38 2.39022 10.38 1.44022 10.38C1.43022 10.38 1.41022 10.38 1.40022 10.38C1.39022 10.38 1.37022 10.38 1.36022 10.37C1.34022 10.36 1.31022 10.34 1.29022 10.33C1.25022 10.29 1.23022 10.23 1.23022 10.19C1.23022 10.14 1.25022 10.09 1.29022 10.05C1.31022 10.03 1.33022 10.02 1.36022 10.01C1.37022 10.01 1.38022 10.01 1.40022 10C1.41022 10 1.43022 10 1.44022 10C2.39022 10 3.35022 10 4.30022 10C5.26022 10 6.21022 10 7.17022 10C9.08022 10 10.9902 10 12.9002 10C14.8102 10 16.7202 10 18.6302 10C20.5402 10 22.4502 10 24.3602 10C24.3802 10 24.4002 10 24.4102 10C24.4302 10 24.4502 10.01 24.4602 10.02C24.4902 10.04 24.5202 10.07 24.5402 10.1C24.5902 10.2 24.5502 10.32 24.4502 10.37" stroke="#010101" stroke-width="0.25" stroke-miterlimit="10"/>
<path d="M11.1702 3.1499H13.0002" stroke="#010101" stroke-width="0.25" stroke-miterlimit="10"/>
<path d="M9.27002 2.6499H11.1" stroke="#010101" stroke-width="0.25" stroke-miterlimit="10"/>
<path d="M6.92017 12.6699V13.0699" stroke="#010101" stroke-width="0.25" stroke-miterlimit="10"/>
<path d="M0.380029 12.2498C0.435258 12.2498 0.480029 12.205 0.480029 12.1498C0.480029 12.0946 0.435258 12.0498 0.380029 12.0498C0.324801 12.0498 0.280029 12.0946 0.280029 12.1498C0.280029 12.205 0.324801 12.2498 0.380029 12.2498Z" stroke="#010101" stroke-width="0.25" stroke-miterlimit="10"/>
<path d="M18.9402 13.1199V13.5199" stroke="#010101" stroke-width="0.25" stroke-miterlimit="10"/>
<path d="M12.8602 9.07982V9.47982C10.9602 9.47982 9.05022 9.47982 7.15022 9.47982C6.20022 9.47982 5.25021 9.47982 4.29021 9.47982C3.33021 9.47982 2.39021 9.47982 1.43021 9.47982C1.42021 9.47982 1.40021 9.47982 1.39021 9.47982C1.38021 9.47982 1.36021 9.47982 1.35021 9.46982C1.33021 9.45982 1.30021 9.44982 1.28021 9.42982C1.24021 9.38982 1.22021 9.33982 1.22021 9.27982C1.22021 9.20982 1.26021 9.13982 1.33021 9.09982C1.36021 9.07982 1.39021 9.07982 1.42021 9.07982C3.23021 9.07982 5.03021 9.07982 6.84021 9.07982C9.76021 9.07982 12.6802 9.07982 15.5902 9.07982C17.0502 9.07982 18.5102 9.07982 19.9702 9.07982C21.4302 9.07982 22.8902 9.07982 24.3402 9.07982C24.3602 9.07982 24.3802 9.07982 24.3902 9.07982C24.4102 9.07982 24.4302 9.08982 24.4402 9.09982C24.4702 9.11982 24.5002 9.14982 24.5202 9.17982C24.5302 9.20982 24.5402 9.23982 24.5402 9.26982C24.5402 9.37982 24.4502 9.46982 24.3402 9.46982H12.9202V9.06982" stroke="#010101" stroke-width="0.25" stroke-miterlimit="10"/>
<path d="M18.9402 7.72998V8.12998" stroke="#010101" stroke-width="0.25" stroke-miterlimit="10"/>
<path d="M18.8701 13.0699V12.6699" stroke="#010101" stroke-width="0.25" stroke-miterlimit="10"/>
<path d="M25.4301 12.2498C25.4853 12.2498 25.5301 12.205 25.5301 12.1498C25.5301 12.0946 25.4853 12.0498 25.4301 12.0498C25.3749 12.0498 25.3301 12.0946 25.3301 12.1498C25.3301 12.205 25.3749 12.2498 25.4301 12.2498Z" stroke="#010101" stroke-width="0.25" stroke-miterlimit="10"/>
<path d="M24.9802 0.48999V14.9V14.92C24.9802 15 24.9802 15.07 24.9802 15.15" stroke="#010101" stroke-width="0.25" stroke-miterlimit="10"/>
<path d="M18.8701 7.22983V6.82983" stroke="#010101" stroke-width="0.25" stroke-miterlimit="10"/>
<path d="M3.01022 13.7698C3.01022 13.7698 3.01022 13.7098 3.03022 13.6898C3.05022 13.6498 3.07022 13.6198 3.10022 13.5998C3.12022 13.5898 3.13022 13.5798 3.15022 13.5698C3.15022 13.5698 3.17022 13.5698 3.18022 13.5698C3.18022 13.5698 3.18022 13.5698 3.19022 13.5698C3.19022 13.5698 3.19022 13.5698 3.20022 13.5698C6.43022 13.5698 9.66022 13.5698 12.8802 13.5698C16.1102 13.5698 19.3402 13.5698 22.5602 13.5698C22.5802 13.5698 22.6002 13.5698 22.6202 13.5698C22.6402 13.5698 22.6602 13.5798 22.6702 13.5998C22.7002 13.6198 22.7302 13.6498 22.7402 13.6898C22.7502 13.7098 22.7602 13.7398 22.7602 13.7698C22.7602 13.8198 22.7402 13.8698 22.7002 13.9098C22.6802 13.9298 22.6602 13.9398 22.6302 13.9498C22.6202 13.9498 22.6002 13.9498 22.5902 13.9598C22.5902 13.9598 22.5802 13.9598 22.5702 13.9598C22.5702 13.9598 22.5602 13.9598 22.5502 13.9598C19.3202 13.9598 16.0902 13.9598 12.8702 13.9598C9.64022 13.9598 6.41022 13.9598 3.19022 13.9598C3.18022 13.9598 3.16022 13.9598 3.15022 13.9598C3.14022 13.9598 3.12022 13.9598 3.11022 13.9498C3.09022 13.9398 3.06022 13.9198 3.04022 13.9098C3.00022 13.8698 2.98022 13.8198 2.98022 13.7698H3.01022Z" stroke="#010101" stroke-width="0.25" stroke-miterlimit="10"/>
<path d="M18.9402 12.6699V13.0699" stroke="#010101" stroke-width="0.25" stroke-miterlimit="10"/>
<path d="M0.670166 14.6799V14.9099C0.670166 15.0799 0.740166 15.1499 0.820166 15.1499H24.9602C25.0402 15.1499 25.1102 15.0799 25.1102 14.9099V14.8099" stroke="#010101" stroke-width="0.25" stroke-miterlimit="10"/>
<path d="M25.2002 0.80999V0.48999" stroke="#010101" stroke-width="0.25" stroke-miterlimit="10"/>
<path d="M18.9402 6.82983V7.22983" stroke="#010101" stroke-width="0.25" stroke-miterlimit="10"/>
<path d="M16.7702 3.25977H14.9402" stroke="#010101" stroke-width="0.25" stroke-miterlimit="10"/>
<path d="M18.8701 12.63V12.23" stroke="#010101" stroke-width="0.25" stroke-miterlimit="10"/>
<path d="M18.8701 6.78989V6.38989" stroke="#010101" stroke-width="0.25" stroke-miterlimit="10"/>
<path d="M0.610107 0.80999V0.48999" stroke="#010101" stroke-width="0.25" stroke-miterlimit="10"/>
<path d="M16.7702 3.75977H14.9402" stroke="#010101" stroke-width="0.25" stroke-miterlimit="10"/>
<path d="M18.9402 12.22V12.62" stroke="#010101" stroke-width="0.25" stroke-miterlimit="10"/>
<path d="M6.8501 11.7298V11.3298" stroke="#010101" stroke-width="0.25" stroke-miterlimit="10"/>
<path d="M18.9402 6.37988V6.77988" stroke="#010101" stroke-width="0.25" stroke-miterlimit="10"/>
<path d="M20.6101 3.65991H22.4401" stroke="#010101" stroke-width="0.25" stroke-miterlimit="10"/>
<path d="M18.8701 12.1798V11.7798" stroke="#010101" stroke-width="0.25" stroke-miterlimit="10"/>
<path d="M18.8701 6.33994V5.93994" stroke="#010101" stroke-width="0.25" stroke-miterlimit="10"/>
<path d="M0.830078 0.48999V15.16" stroke="#010101" stroke-width="0.25" stroke-miterlimit="10"/>
<path d="M6.92017 11.3198V11.7198" stroke="#010101" stroke-width="0.25" stroke-miterlimit="10"/>
<path d="M22.5 3.65991H24.26" stroke="#010101" stroke-width="0.25" stroke-miterlimit="10"/>
<path d="M24.5602 11.5298C24.5602 11.6098 24.5202 11.6698 24.4502 11.7098C24.4202 11.7298 24.3902 11.7298 24.3602 11.7298C16.7202 11.7298 9.08023 11.7298 1.44023 11.7298C1.41023 11.7298 1.39023 11.7298 1.37023 11.7198C1.29023 11.6898 1.24023 11.6198 1.24023 11.5298C1.24023 11.4498 1.28023 11.3898 1.35023 11.3498C1.38023 11.3298 1.41023 11.3298 1.44023 11.3298C5.26023 11.3298 9.08023 11.3298 12.9002 11.3298C14.8102 11.3298 16.7202 11.3298 18.6302 11.3298C20.5402 11.3298 22.4502 11.3298 24.3602 11.3298C24.3702 11.3298 24.3902 11.3298 24.4002 11.3298C24.4102 11.3298 24.4302 11.3298 24.4402 11.3398C24.4602 11.3498 24.4902 11.3698 24.5102 11.3798C24.5302 11.3898 24.5402 11.4098 24.5502 11.4298C24.5602 11.4598 24.5702 11.4898 24.5702 11.5198" stroke="#010101" stroke-width="0.25" stroke-miterlimit="10"/>
<path d="M0.370234 0.969961C0.442031 0.969961 0.500234 0.911758 0.500234 0.839961C0.500234 0.768164 0.442031 0.709961 0.370234 0.709961C0.298437 0.709961 0.240234 0.768164 0.240234 0.839961C0.240234 0.911758 0.298437 0.969961 0.370234 0.969961Z" stroke="#010101" stroke-width="0.25" stroke-miterlimit="10"/>
<path d="M25.4602 0.889863C25.4602 0.889863 25.4802 0.869863 25.4902 0.859863" stroke="#010101" stroke-width="0.25" stroke-miterlimit="10"/>
<path d="M25.3901 0.859863C25.3901 0.859863 25.4101 0.879863 25.4201 0.889863" stroke="#010101" stroke-width="0.25" stroke-miterlimit="10"/>
<path d="M25.4201 0.779785C25.4201 0.779785 25.4001 0.799785 25.3901 0.809785" stroke="#010101" stroke-width="0.25" stroke-miterlimit="10"/>
<path d="M25.4902 0.809785C25.4902 0.809785 25.4702 0.789785 25.4602 0.779785" stroke="#010101" stroke-width="0.25" stroke-miterlimit="10"/>
<path d="M0.340059 0.779785V0.809785C0.340059 0.809785 0.340059 0.809785 0.340059 0.819785H0.310059" stroke="#010101" stroke-width="0.25" stroke-miterlimit="10"/>
<path d="M0.420127 0.859863H0.390127C0.390127 0.859863 0.390127 0.859863 0.380127 0.859863V0.889863" stroke="#010101" stroke-width="0.25" stroke-miterlimit="10"/>
<path d="M0.420029 0.80999C0.420029 0.80999 0.400029 0.78999 0.390029 0.77999V0.73999C0.390029 0.73999 0.360029 0.73999 0.350029 0.73999V0.77999C0.350029 0.77999 0.330029 0.79999 0.320029 0.80999H0.280029C0.280029 0.80999 0.280029 0.83999 0.280029 0.84999H0.320029" stroke="#010101" stroke-width="0.25" stroke-miterlimit="10"/>
<path d="M0.350068 0.889795C0.350068 0.889795 0.330068 0.869795 0.320068 0.859795H0.350068C0.350068 0.859795 0.350068 0.859795 0.360068 0.859795V0.889795L0.350068 0.929795C0.360068 0.929795 0.380068 0.929795 0.390068 0.929795V0.889795C0.390068 0.889795 0.420068 0.869795 0.420068 0.859795H0.460068C0.460068 0.859795 0.460068 0.829795 0.460068 0.819795H0.420068L0.390068 0.829795C0.390068 0.829795 0.390068 0.819795 0.380068 0.819795V0.789795" stroke="#010101" stroke-width="0.25" stroke-miterlimit="10"/>
<path d="M0.670098 13.2998C0.620098 13.3598 0.600098 13.4398 0.600098 13.5198H0.630098V13.6198H0.600098V13.6398C0.600098 13.6798 0.600098 13.7298 0.630098 13.7698" stroke="#010101" stroke-width="0.25" stroke-miterlimit="10"/>
<path d="M25.4401 0.969961C25.5119 0.969961 25.5701 0.911758 25.5701 0.839961C25.5701 0.768164 25.5119 0.709961 25.4401 0.709961C25.3683 0.709961 25.3101 0.768164 25.3101 0.839961C25.3101 0.911758 25.3683 0.969961 25.4401 0.969961Z" stroke="#010101" stroke-width="0.25" stroke-miterlimit="10"/>
<path d="M0.670098 3.09985C0.620098 3.15985 0.600098 3.23985 0.600098 3.31985H0.630098V3.41985H0.600098V3.43985C0.600098 3.50985 0.620098 3.57985 0.670098 3.63985" stroke="#010101" stroke-width="0.25" stroke-miterlimit="10"/>
<path d="M25.1401 13.2998C25.1901 13.3598 25.2101 13.4398 25.2101 13.5198H25.1801V13.6198H25.2101V13.6398C25.2101 13.6798 25.2101 13.7298 25.1801 13.7698" stroke="#010101" stroke-width="0.25" stroke-miterlimit="10"/>
<path d="M25.1401 3.09985C25.1901 3.15985 25.2101 3.23985 25.2101 3.31985H25.1801V3.41985H25.2101V3.43985C25.2101 3.50985 25.1901 3.57985 25.1401 3.63985" stroke="#010101" stroke-width="0.25" stroke-miterlimit="10"/>
<path d="M25.4601 0.75C25.4601 0.75 25.4301 0.75 25.4201 0.75V0.79L25.4301 0.82C25.4301 0.82 25.4201 0.82 25.4201 0.83H25.3901L25.3501 0.82C25.3501 0.83 25.3501 0.85 25.3501 0.86H25.3901L25.4201 0.85C25.4201 0.85 25.4201 0.86 25.4301 0.86V0.89L25.4201 0.93C25.4301 0.93 25.4501 0.93 25.4601 0.93V0.89L25.4501 0.86C25.4501 0.86 25.4601 0.86 25.4601 0.85H25.4901L25.5301 0.86C25.5301 0.85 25.5301 0.83 25.5301 0.82H25.4901L25.4601 0.83C25.4601 0.83 25.4601 0.82 25.4501 0.82V0.79L25.4601 0.75Z" stroke="#010101" stroke-width="0.25" stroke-miterlimit="10"/>
<path d="M24.26 2.52983V2.32983" stroke="#010101" stroke-width="0.25" stroke-miterlimit="10"/>
<path d="M24.5601 2.37988H24.3601V2.47988H24.5601" stroke="#010101" stroke-width="0.25" stroke-miterlimit="10"/>
<path d="M7.4502 2.52983V2.32983" stroke="#010101" stroke-width="0.25" stroke-miterlimit="10"/>
<path d="M7.15015 2.37988H7.35015V2.47988H7.15015" stroke="#010101" stroke-width="0.25" stroke-miterlimit="10"/>
<path d="M25.2 14.26V0.810029C25.25 0.760029 25.3 0.710029 25.36 0.650029C25.41 0.600029 25.47 0.550029 25.51 0.490029C25.53 0.470029 25.54 0.450029 25.54 0.430029C25.54 0.410029 25.54 0.390029 25.54 0.360029C25.52 0.320029 25.48 0.290029 25.43 0.290029C25.42 0.290029 25.4 0.290029 25.39 0.290029C25.38 0.290029 25.37 0.310029 25.35 0.320029C25.3 0.370029 25.25 0.420029 25.2 0.470029H0.61002C0.56002 0.420029 0.51002 0.370029 0.46002 0.320029C0.44002 0.300029 0.41002 0.290029 0.39002 0.280029C0.36002 0.280029 0.33002 0.280029 0.31002 0.310029C0.27002 0.350029 0.26002 0.430029 0.30002 0.470029L0.62002 0.790029V14.73C0.57002 14.78 0.52002 14.83 0.46002 14.89C0.41002 14.94 0.35002 14.99 0.31002 15.05C0.30002 15.06 0.29002 15.08 0.28002 15.09C0.28002 15.11 0.27002 15.13 0.27002 15.15C0.27002 15.19 0.29002 15.22 0.31002 15.25C0.34002 15.28 0.37002 15.29 0.41002 15.29C0.45002 15.29 0.48002 15.27 0.51002 15.25C0.53002 15.23 0.55002 15.21 0.56002 15.19C0.58002 15.17 0.60002 15.15 0.62002 15.13H1.81002C1.81002 15.13 1.85002 15.21 1.89002 15.21C1.93002 15.21 1.97002 15.17 1.97002 15.13H23.86C23.86 15.13 23.9 15.21 23.94 15.21C23.98 15.21 24.02 15.17 24.02 15.13H25.21C25.21 15.13 25.25 15.17 25.27 15.19C25.29 15.21 25.3 15.23 25.32 15.25C25.35 15.27 25.38 15.29 25.42 15.29C25.46 15.29 25.49 15.27 25.52 15.25C25.55 15.22 25.56 15.19 25.56 15.15C25.56 15.13 25.56 15.11 25.55 15.09C25.55 15.07 25.53 15.06 25.52 15.05C25.47 15 25.42 14.94 25.37 14.89C25.32 14.84 25.27 14.79 25.21 14.73V14.32" stroke="#010101" stroke-width="0.25" stroke-miterlimit="10"/>
</g>
<defs>
<clipPath id="clip0_1623_122">
<rect width="25.81" height="15.56" fill="white"/>
</clipPath>
</defs>
</svg>
