<svg width="14" height="5" viewBox="0 0 14 5" fill="none" xmlns="http://www.w3.org/2000/svg">
<g clip-path="url(#clip0_1375_19135)">
<path d="M4.24012 4.65988H2.14012H2.09012C2.03012 4.65988 1.99012 4.61988 1.99012 4.55988V4.21988C1.80012 4.21988 1.62012 4.21988 1.43012 4.21988C1.34012 4.21988 1.24012 4.21988 1.15012 4.21988C1.06012 4.21988 0.960117 4.21988 0.870117 4.21988C0.800117 4.21988 0.740117 4.21988 0.680117 4.19988C0.620117 4.17988 0.550117 4.15988 0.490117 4.11988C0.370117 4.04988 0.260117 3.93988 0.200117 3.80988C0.150117 3.69988 0.120117 3.58988 0.120117 3.46988C0.120117 3.09988 0.120117 2.72988 0.120117 2.35988C0.120117 2.17988 0.120117 1.98988 0.120117 1.80988C0.120117 1.71988 0.120117 1.62988 0.120117 1.52988C0.120117 1.43988 0.120117 1.33988 0.120117 1.25988C0.120117 1.22988 0.120117 1.19988 0.120117 1.15988C0.120117 1.12988 0.120117 1.09988 0.140117 1.05988C0.160117 0.999883 0.180117 0.929883 0.220117 0.869883C0.290117 0.749883 0.400117 0.639883 0.530117 0.579883C0.590117 0.549883 0.640117 0.529883 0.700117 0.519883C0.730117 0.519883 0.760117 0.509883 0.790117 0.509883C0.820117 0.509883 0.850117 0.509883 0.880117 0.509883C1.06012 0.509883 1.25012 0.509883 1.43012 0.509883C1.62012 0.509883 1.80012 0.509883 1.99012 0.509883V0.229883C1.99012 0.169883 2.03012 0.129883 2.09012 0.129883C2.09012 0.129883 2.11012 0.129883 2.14012 0.129883H11.7701H11.8201C11.8801 0.129883 11.9201 0.169883 11.9201 0.229883V0.509883C12.1101 0.509883 12.2901 0.509883 12.4801 0.509883C12.5701 0.509883 12.6701 0.509883 12.7601 0.509883C12.8501 0.509883 12.9501 0.509883 13.0401 0.509883C13.1401 0.509883 13.2301 0.529883 13.3201 0.559883C13.4101 0.599883 13.5001 0.649883 13.5701 0.729883C13.6401 0.799883 13.7001 0.889883 13.7401 0.979883C13.7601 1.02988 13.7701 1.06988 13.7801 1.11988C13.7801 1.16988 13.7901 1.20988 13.7901 1.25988C13.7901 1.34988 13.7901 1.43988 13.7901 1.52988C13.7901 1.61988 13.7901 1.70988 13.7901 1.80988C13.7901 1.98988 13.7901 2.17988 13.7901 2.35988C13.7901 2.72988 13.7901 3.09988 13.7901 3.46988C13.7901 3.64988 13.7201 3.84988 13.5701 3.99988C13.5001 4.06988 13.4101 4.12988 13.3201 4.16988C13.2301 4.20988 13.1401 4.21988 13.0401 4.21988C12.9501 4.21988 12.8501 4.21988 12.7601 4.21988C12.6701 4.21988 12.5701 4.21988 12.4801 4.21988C12.2901 4.21988 12.1101 4.21988 11.9201 4.21988V4.55988C11.9201 4.61988 11.8801 4.65988 11.8201 4.65988C11.8201 4.65988 11.8001 4.65988 11.7701 4.65988H4.24012Z" fill="white"/>
<path d="M9.69995 0.159912C9.69995 0.159912 9.71995 0.209912 9.70995 0.229912" stroke="#010101" stroke-width="0.25" stroke-linecap="round" stroke-linejoin="round"/>
<path d="M0.209883 3.80997C0.159883 3.69997 0.129883 3.58997 0.129883 3.46997" stroke="#010101" stroke-width="0.25" stroke-linecap="round" stroke-linejoin="round"/>
<path d="M9.66992 0.129883C9.66992 0.129883 9.69992 0.139883 9.70992 0.159883" stroke="#010101" stroke-width="0.25" stroke-linecap="round" stroke-linejoin="round"/>
<path d="M9.66992 0.129883H11.7299" stroke="#010101" stroke-width="0.25" stroke-linecap="round" stroke-linejoin="round"/>
<path d="M3.82992 1.25977C3.82992 1.62977 3.82992 1.99977 3.82992 2.36977C3.82992 2.54977 3.82992 2.73977 3.82992 2.91977C3.82992 3.00977 3.82992 3.09977 3.82992 3.19977C3.82992 3.28977 3.82992 3.38977 3.82992 3.46977C3.82992 3.49977 3.82992 3.52977 3.82992 3.56977C3.82992 3.59977 3.82992 3.62977 3.80992 3.66977C3.78992 3.72977 3.76992 3.79977 3.72992 3.85977C3.65992 3.97977 3.54992 4.08977 3.41992 4.14977" stroke="#010101" stroke-width="0.25" stroke-linecap="round" stroke-linejoin="round"/>
<path d="M2.08999 4.65981C2.02999 4.65981 1.98999 4.61981 1.98999 4.55981" stroke="#010101" stroke-width="0.25" stroke-linecap="round" stroke-linejoin="round"/>
<path d="M4.18994 4.55998V0.22998" stroke="#010101" stroke-width="0.25" stroke-linecap="round" stroke-linejoin="round"/>
<path d="M11.8198 4.65981C11.8798 4.65981 11.9198 4.61981 11.9198 4.55981" stroke="#010101" stroke-width="0.25" stroke-linecap="round" stroke-linejoin="round"/>
<path d="M2.08999 0.129883C2.02999 0.129883 1.98999 0.169883 1.98999 0.229883" stroke="#010101" stroke-width="0.25" stroke-linecap="round" stroke-linejoin="round"/>
<path d="M2.08984 4.65991C2.08984 4.65991 2.10984 4.65991 2.13984 4.65991" stroke="#010101" stroke-width="0.25" stroke-linecap="round" stroke-linejoin="round"/>
<path d="M10.0798 1.25977C10.0798 1.62977 10.0798 1.99977 10.0798 2.36977C10.0798 2.54977 10.0798 2.73977 10.0798 2.91977C10.0798 3.00977 10.0798 3.09977 10.0798 3.19977C10.0798 3.28977 10.0798 3.38977 10.0798 3.46977C10.0798 3.49977 10.0798 3.52977 10.0798 3.56977C10.0798 3.59977 10.0798 3.62977 10.0998 3.66977C10.1198 3.72977 10.1398 3.79977 10.1798 3.85977C10.2498 3.97977 10.3598 4.08977 10.4898 4.14977" stroke="#010101" stroke-width="0.25" stroke-linecap="round" stroke-linejoin="round"/>
<path d="M9.50977 0.129883H9.66977" stroke="#010101" stroke-width="0.25" stroke-linecap="round" stroke-linejoin="round"/>
<path d="M4.3999 0.129883H9.5099" stroke="#010101" stroke-width="0.25" stroke-linecap="round" stroke-linejoin="round"/>
<path d="M13.7 3.80997C13.75 3.69997 13.78 3.58997 13.78 3.46997" stroke="#010101" stroke-width="0.25" stroke-linecap="round" stroke-linejoin="round"/>
<path d="M9.71997 0.22998V4.55998" stroke="#010101" stroke-width="0.25" stroke-linecap="round" stroke-linejoin="round"/>
<path d="M13.7799 3.46983C13.7799 3.09983 13.7799 2.72983 13.7799 2.35983C13.7799 2.17983 13.7799 1.98983 13.7799 1.80983C13.7799 1.71983 13.7799 1.62983 13.7799 1.52983C13.7799 1.43983 13.7799 1.33983 13.7799 1.25983C13.7799 1.22983 13.7799 1.19983 13.7799 1.15983C13.7799 1.12983 13.7799 1.09983 13.7599 1.05983C13.7399 0.999834 13.7199 0.929834 13.6799 0.869834C13.6099 0.749834 13.4999 0.639834 13.3699 0.579834" stroke="#010101" stroke-width="0.25" stroke-linecap="round" stroke-linejoin="round"/>
<path d="M0.129883 3.46983C0.129883 3.09983 0.129883 2.72983 0.129883 2.35983C0.129883 2.17983 0.129883 1.98983 0.129883 1.80983C0.129883 1.71983 0.129883 1.62983 0.129883 1.52983C0.129883 1.43983 0.129883 1.33983 0.129883 1.25983C0.129883 1.22983 0.129883 1.19983 0.129883 1.15983C0.129883 1.12983 0.129883 1.09983 0.149883 1.05983C0.169883 0.999834 0.189883 0.929834 0.229883 0.869834C0.299883 0.749834 0.409883 0.639834 0.539883 0.579834" stroke="#010101" stroke-width="0.25" stroke-linecap="round" stroke-linejoin="round"/>
<path d="M2.08984 0.129883C2.08984 0.129883 2.10984 0.129883 2.13984 0.129883" stroke="#010101" stroke-width="0.25" stroke-linecap="round" stroke-linejoin="round"/>
<path d="M4.22998 0.129883C4.22998 0.129883 4.22998 0.129883 4.23998 0.129883" stroke="#010101" stroke-width="0.25" stroke-linecap="round" stroke-linejoin="round"/>
<path d="M11.8198 0.129883C11.8798 0.129883 11.9198 0.169883 11.9198 0.229883" stroke="#010101" stroke-width="0.25" stroke-linecap="round" stroke-linejoin="round"/>
<path d="M11.77 4.65991H11.73" stroke="#010101" stroke-width="0.25" stroke-linecap="round" stroke-linejoin="round"/>
<path d="M11.7299 4.65991H9.66992" stroke="#010101" stroke-width="0.25" stroke-linecap="round" stroke-linejoin="round"/>
<path d="M9.5099 4.65991H4.3999" stroke="#010101" stroke-width="0.25" stroke-linecap="round" stroke-linejoin="round"/>
<path d="M11.8198 0.129883C11.8198 0.129883 11.7998 0.129883 11.7698 0.129883" stroke="#010101" stroke-width="0.25" stroke-linecap="round" stroke-linejoin="round"/>
<path d="M11.77 0.129883H11.73" stroke="#010101" stroke-width="0.25" stroke-linecap="round" stroke-linejoin="round"/>
<path d="M3.75 0.919922C3.8 1.02992 3.83 1.13992 3.83 1.25992" stroke="#010101" stroke-width="0.25" stroke-linecap="round" stroke-linejoin="round"/>
<path d="M2.13989 4.65991H2.17989" stroke="#010101" stroke-width="0.25" stroke-linecap="round" stroke-linejoin="round"/>
<path d="M0.529785 0.589775C0.589785 0.559775 0.639785 0.539775 0.699785 0.529775C0.729785 0.529775 0.759785 0.519775 0.789785 0.519775C0.819785 0.519775 0.849785 0.519775 0.879785 0.519775C1.05979 0.519775 1.23979 0.519775 1.42979 0.519775C1.60979 0.519775 1.79979 0.519775 1.97979 0.519775C2.15979 0.519775 2.34979 0.519775 2.52979 0.519775C2.61979 0.519775 2.70979 0.519775 2.80979 0.519775C2.89979 0.519775 2.99979 0.519775 3.07979 0.519775C3.10979 0.519775 3.13979 0.519775 3.17979 0.519775C3.20979 0.519775 3.23979 0.519775 3.27979 0.539775C3.33979 0.559775 3.40979 0.579775 3.46979 0.619775C3.58979 0.689775 3.69979 0.799775 3.75979 0.929775" stroke="#010101" stroke-width="0.25" stroke-linecap="round" stroke-linejoin="round"/>
<path d="M10.48 4.1398C10.54 4.1698 10.59 4.1898 10.65 4.1998C10.68 4.1998 10.71 4.2098 10.74 4.2098C10.77 4.2098 10.8 4.2098 10.83 4.2098C11.01 4.2098 11.19 4.2098 11.38 4.2098C11.56 4.2098 11.75 4.2098 11.93 4.2098C12.11 4.2098 12.3 4.2098 12.48 4.2098C12.57 4.2098 12.66 4.2098 12.76 4.2098C12.85 4.2098 12.95 4.2098 13.03 4.2098C13.06 4.2098 13.09 4.2098 13.13 4.2098C13.16 4.2098 13.19 4.2098 13.23 4.1898C13.29 4.1698 13.36 4.1498 13.42 4.1098C13.54 4.0398 13.65 3.9298 13.71 3.7998" stroke="#010101" stroke-width="0.25" stroke-linecap="round" stroke-linejoin="round"/>
<path d="M2.17993 0.129883H4.23993" stroke="#010101" stroke-width="0.25" stroke-linecap="round" stroke-linejoin="round"/>
<path d="M3.42995 4.1398C3.36995 4.1698 3.31995 4.1898 3.25995 4.1998C3.22995 4.1998 3.19995 4.2098 3.16995 4.2098C3.13995 4.2098 3.10995 4.2098 3.07995 4.2098C2.89995 4.2098 2.71995 4.2098 2.52995 4.2098C2.34995 4.2098 2.15995 4.2098 1.97995 4.2098C1.79995 4.2098 1.60995 4.2098 1.42995 4.2098C1.33995 4.2098 1.24995 4.2098 1.14995 4.2098C1.05995 4.2098 0.959951 4.2098 0.879951 4.2098C0.849951 4.2098 0.819951 4.2098 0.779951 4.2098C0.749951 4.2098 0.719951 4.2098 0.679951 4.1898C0.619951 4.1698 0.549951 4.1498 0.489951 4.1098C0.369951 4.0398 0.259951 3.9298 0.199951 3.7998" stroke="#010101" stroke-width="0.25" stroke-linecap="round" stroke-linejoin="round"/>
<path d="M13.3799 0.589775C13.3199 0.559775 13.2699 0.539775 13.2099 0.529775C13.1799 0.529775 13.1499 0.519775 13.1199 0.519775C13.0899 0.519775 13.0599 0.519775 13.0299 0.519775C12.8499 0.519775 12.6699 0.519775 12.4799 0.519775C12.2999 0.519775 12.1099 0.519775 11.9299 0.519775C11.7499 0.519775 11.5599 0.519775 11.3799 0.519775C11.2899 0.519775 11.1999 0.519775 11.0999 0.519775C11.0099 0.519775 10.9099 0.519775 10.8299 0.519775C10.7999 0.519775 10.7699 0.519775 10.7299 0.519775C10.6999 0.519775 10.6699 0.519775 10.6299 0.539775C10.5699 0.559775 10.4999 0.579775 10.4399 0.619775C10.3199 0.689775 10.2099 0.799775 10.1499 0.929775" stroke="#010101" stroke-width="0.25" stroke-linecap="round" stroke-linejoin="round"/>
<path d="M2.13989 0.129883H2.17989" stroke="#010101" stroke-width="0.25" stroke-linecap="round" stroke-linejoin="round"/>
<path d="M11.8198 4.65991C11.8198 4.65991 11.7998 4.65991 11.7698 4.65991" stroke="#010101" stroke-width="0.25" stroke-linecap="round" stroke-linejoin="round"/>
<path d="M11.9199 0.50998V0.22998" stroke="#010101" stroke-width="0.25" stroke-linecap="round" stroke-linejoin="round"/>
<path d="M10.1598 0.919922C10.1098 1.02992 10.0798 1.13992 10.0798 1.25992" stroke="#010101" stroke-width="0.25" stroke-linecap="round" stroke-linejoin="round"/>
<path d="M9.71992 4.55981C9.71992 4.55981 9.68992 4.66981 9.66992 4.65981" stroke="#010101" stroke-width="0.25" stroke-linecap="round" stroke-linejoin="round"/>
<path d="M4.23994 4.65981C4.23994 4.65981 4.18994 4.60981 4.18994 4.55981" stroke="#010101" stroke-width="0.25" stroke-linecap="round" stroke-linejoin="round"/>
<path d="M4.23993 4.65991H2.17993" stroke="#010101" stroke-width="0.25" stroke-linecap="round" stroke-linejoin="round"/>
<path d="M4.39999 4.65991H4.23999" stroke="#010101" stroke-width="0.25" stroke-linecap="round" stroke-linejoin="round"/>
<path d="M9.50977 4.65991H9.66977" stroke="#010101" stroke-width="0.25" stroke-linecap="round" stroke-linejoin="round"/>
<path d="M4.18994 0.229883C4.18994 0.229883 4.19994 0.159883 4.22994 0.129883" stroke="#010101" stroke-width="0.25" stroke-linecap="round" stroke-linejoin="round"/>
<path d="M4.39999 0.129883H4.23999" stroke="#010101" stroke-width="0.25" stroke-linecap="round" stroke-linejoin="round"/>
<path d="M11.9199 4.55997V4.21997" stroke="#010101" stroke-width="0.25" stroke-linecap="round" stroke-linejoin="round"/>
<path d="M1.98999 0.22998V0.50998" stroke="#010101" stroke-width="0.25" stroke-linecap="round" stroke-linejoin="round"/>
<path d="M1.98999 4.21997V4.55997" stroke="#010101" stroke-width="0.25" stroke-linecap="round" stroke-linejoin="round"/>
<path d="M12.2999 0.98999C12.3899 0.98999 12.4999 1.03999 12.5699 1.12999C12.6399 1.21999 12.6799 1.33999 12.6799 1.45999C12.6799 1.57999 12.6399 1.69999 12.5699 1.78999C12.4999 1.87999 12.3999 1.92999 12.2999 1.92999C12.1999 1.92999 12.0999 1.87999 12.0299 1.78999C11.9599 1.69999 11.9199 1.57999 11.9199 1.45999C11.9199 1.33999 11.9599 1.21999 12.0299 1.12999C12.0999 1.03999 12.2099 0.98999 12.2999 0.98999Z" stroke="#010101" stroke-width="0.25" stroke-linecap="round" stroke-linejoin="round"/>
<path d="M13.7399 0.98999H10.1299" stroke="#010101" stroke-width="0.25" stroke-linecap="round" stroke-linejoin="round"/>
<path d="M13.0599 0.98999C13.1499 0.98999 13.2599 1.03999 13.3299 1.12999C13.3999 1.21999 13.4399 1.33999 13.4399 1.45999C13.4399 1.57999 13.3999 1.69999 13.3299 1.78999C13.2599 1.87999 13.1599 1.92999 13.0599 1.92999C12.9599 1.92999 12.8599 1.87999 12.7899 1.78999C12.7199 1.69999 12.6799 1.57999 12.6799 1.45999C12.6799 1.33999 12.7199 1.21999 12.7899 1.12999C12.8599 1.03999 12.9699 0.98999 13.0599 0.98999Z" stroke="#010101" stroke-width="0.25" stroke-linecap="round" stroke-linejoin="round"/>
<path d="M11.1499 4.21977V0.509766" stroke="#010101" stroke-width="0.25" stroke-linecap="round" stroke-linejoin="round"/>
<path d="M0.199951 3.78979H3.76995" stroke="#010101" stroke-width="0.25" stroke-linecap="round" stroke-linejoin="round"/>
<path d="M11.9199 4.34988V0.379883" stroke="#010101" stroke-width="0.25" stroke-linecap="round" stroke-linejoin="round"/>
<path d="M12.2999 1.91992C12.3899 1.91992 12.4999 1.96992 12.5699 2.05992C12.6399 2.14992 12.6799 2.26992 12.6799 2.38992C12.6799 2.50992 12.6399 2.62992 12.5699 2.71992C12.4999 2.80992 12.3999 2.85992 12.2999 2.85992C12.1999 2.85992 12.0999 2.80992 12.0299 2.71992C11.9599 2.62992 11.9199 2.50992 11.9199 2.38992C11.9199 2.26992 11.9599 2.14992 12.0299 2.05992C12.0999 1.96992 12.2099 1.91992 12.2999 1.91992Z" stroke="#010101" stroke-width="0.25" stroke-linecap="round" stroke-linejoin="round"/>
<path d="M13.0599 1.91992C13.1499 1.91992 13.2599 1.96992 13.3299 2.05992C13.3999 2.14992 13.4399 2.26992 13.4399 2.38992C13.4399 2.50992 13.3999 2.62992 13.3299 2.71992C13.2599 2.80992 13.1599 2.85992 13.0599 2.85992C12.9599 2.85992 12.8599 2.80992 12.7899 2.71992C12.7199 2.62992 12.6799 2.50992 12.6799 2.38992C12.6799 2.26992 12.7199 2.14992 12.7899 2.05992C12.8599 1.96992 12.9699 1.91992 13.0599 1.91992Z" stroke="#010101" stroke-width="0.25" stroke-linecap="round" stroke-linejoin="round"/>
<path d="M10.7599 2.84985C10.8499 2.84985 10.9599 2.89985 11.0299 2.98985C11.0999 3.07985 11.1399 3.19985 11.1399 3.31985C11.1399 3.43985 11.0999 3.55985 11.0299 3.64985C10.9599 3.73985 10.8599 3.78985 10.7599 3.78985C10.6599 3.78985 10.5599 3.73985 10.4899 3.64985C10.4199 3.55985 10.3799 3.43985 10.3799 3.31985C10.3799 3.19985 10.4199 3.07985 10.4899 2.98985C10.5599 2.89985 10.6699 2.84985 10.7599 2.84985Z" stroke="#010101" stroke-width="0.25" stroke-linecap="round" stroke-linejoin="round"/>
<path d="M13.7798 2.84985H10.0698" stroke="#010101" stroke-width="0.25" stroke-linecap="round" stroke-linejoin="round"/>
<path d="M11.5299 2.84985C11.6199 2.84985 11.7299 2.89985 11.7999 2.98985C11.8699 3.07985 11.9099 3.19985 11.9099 3.31985C11.9099 3.43985 11.8699 3.55985 11.7999 3.64985C11.7299 3.73985 11.6299 3.78985 11.5299 3.78985C11.4299 3.78985 11.3299 3.73985 11.2599 3.64985C11.1899 3.55985 11.1499 3.43985 11.1499 3.31985C11.1499 3.19985 11.1899 3.07985 11.2599 2.98985C11.3299 2.89985 11.4399 2.84985 11.5299 2.84985Z" stroke="#010101" stroke-width="0.25" stroke-linecap="round" stroke-linejoin="round"/>
<path d="M12.2999 2.84985C12.3899 2.84985 12.4999 2.89985 12.5699 2.98985C12.6399 3.07985 12.6799 3.19985 12.6799 3.31985C12.6799 3.43985 12.6399 3.55985 12.5699 3.64985C12.4999 3.73985 12.3999 3.78985 12.2999 3.78985C12.1999 3.78985 12.0999 3.73985 12.0299 3.64985C11.9599 3.55985 11.9199 3.43985 11.9199 3.31985C11.9199 3.19985 11.9599 3.07985 12.0299 2.98985C12.0999 2.89985 12.2099 2.84985 12.2999 2.84985Z" stroke="#010101" stroke-width="0.25" stroke-linecap="round" stroke-linejoin="round"/>
<path d="M11.5299 1.91992C11.6199 1.91992 11.7299 1.96992 11.7999 2.05992C11.8699 2.14992 11.9099 2.26992 11.9099 2.38992C11.9099 2.50992 11.8699 2.62992 11.7999 2.71992C11.7299 2.80992 11.6299 2.85992 11.5299 2.85992C11.4299 2.85992 11.3299 2.80992 11.2599 2.71992C11.1899 2.62992 11.1499 2.50992 11.1499 2.38992C11.1499 2.26992 11.1899 2.14992 11.2599 2.05992C11.3299 1.96992 11.4399 1.91992 11.5299 1.91992Z" stroke="#010101" stroke-width="0.25" stroke-linecap="round" stroke-linejoin="round"/>
<path d="M13.0599 2.84985C13.1499 2.84985 13.2599 2.89985 13.3299 2.98985C13.3999 3.07985 13.4399 3.19985 13.4399 3.31985C13.4399 3.43985 13.3999 3.55985 13.3299 3.64985C13.2599 3.73985 13.1599 3.78985 13.0599 3.78985C12.9599 3.78985 12.8599 3.73985 12.7899 3.64985C12.7199 3.55985 12.6799 3.43985 12.6799 3.31985C12.6799 3.19985 12.7199 3.07985 12.7899 2.98985C12.8599 2.89985 12.9699 2.84985 13.0599 2.84985Z" stroke="#010101" stroke-width="0.25" stroke-linecap="round" stroke-linejoin="round"/>
<path d="M0.169922 0.98999H3.77992" stroke="#010101" stroke-width="0.25" stroke-linecap="round" stroke-linejoin="round"/>
<path d="M1.22998 4.21977V0.509766" stroke="#010101" stroke-width="0.25" stroke-linecap="round" stroke-linejoin="round"/>
<path d="M10.7599 1.91992C10.8499 1.91992 10.9599 1.96992 11.0299 2.05992C11.0999 2.14992 11.1399 2.26992 11.1399 2.38992C11.1399 2.50992 11.0999 2.62992 11.0299 2.71992C10.9599 2.80992 10.8599 2.85992 10.7599 2.85992C10.6599 2.85992 10.5599 2.80992 10.4899 2.71992C10.4199 2.62992 10.3799 2.50992 10.3799 2.38992C10.3799 2.26992 10.4199 2.14992 10.4899 2.05992C10.5599 1.96992 10.6699 1.91992 10.7599 1.91992Z" stroke="#010101" stroke-width="0.25" stroke-linecap="round" stroke-linejoin="round"/>
<path d="M2.75977 4.21977V0.509766" stroke="#010101" stroke-width="0.25" stroke-linecap="round" stroke-linejoin="round"/>
<path d="M12.6799 4.21977V0.509766" stroke="#010101" stroke-width="0.25" stroke-linecap="round" stroke-linejoin="round"/>
<path d="M0.129883 2.84985H3.83988" stroke="#010101" stroke-width="0.25" stroke-linecap="round" stroke-linejoin="round"/>
<path d="M11.5299 0.98999C11.6199 0.98999 11.7299 1.03999 11.7999 1.12999C11.8699 1.21999 11.9099 1.33999 11.9099 1.45999C11.9099 1.57999 11.8699 1.69999 11.7999 1.78999C11.7299 1.87999 11.6299 1.92999 11.5299 1.92999C11.4299 1.92999 11.3299 1.87999 11.2599 1.78999C11.1899 1.69999 11.1499 1.57999 11.1499 1.45999C11.1499 1.33999 11.1899 1.21999 11.2599 1.12999C11.3299 1.03999 11.4399 0.98999 11.5299 0.98999Z" stroke="#010101" stroke-width="0.25" stroke-linecap="round" stroke-linejoin="round"/>
<path d="M1.98999 4.34988V0.379883" stroke="#010101" stroke-width="0.25" stroke-linecap="round" stroke-linejoin="round"/>
<path d="M2.38 0.98999C2.29 0.98999 2.18 1.03999 2.11 1.12999C2.04 1.21999 2 1.33999 2 1.45999C2 1.57999 2.04 1.69999 2.11 1.78999C2.18 1.87999 2.28 1.92999 2.38 1.92999C2.48 1.92999 2.58 1.87999 2.65 1.78999C2.72 1.69999 2.76 1.57999 2.76 1.45999C2.76 1.33999 2.72 1.21999 2.65 1.12999C2.58 1.03999 2.47 0.98999 2.38 0.98999Z" stroke="#010101" stroke-width="0.25" stroke-linecap="round" stroke-linejoin="round"/>
<path d="M1.60998 0.98999C1.51998 0.98999 1.40998 1.03999 1.33998 1.12999C1.26998 1.21999 1.22998 1.33999 1.22998 1.45999C1.22998 1.57999 1.26998 1.69999 1.33998 1.78999C1.40998 1.87999 1.50998 1.92999 1.60998 1.92999C1.70998 1.92999 1.80998 1.87999 1.87998 1.78999C1.94998 1.69999 1.98998 1.57999 1.98998 1.45999C1.98998 1.33999 1.94998 1.21999 1.87998 1.12999C1.80998 1.03999 1.69998 0.98999 1.60998 0.98999Z" stroke="#010101" stroke-width="0.25" stroke-linecap="round" stroke-linejoin="round"/>
<path d="M0.849971 0.98999C0.759971 0.98999 0.649971 1.03999 0.579971 1.12999C0.509971 1.21999 0.469971 1.33999 0.469971 1.45999C0.469971 1.57999 0.509971 1.69999 0.579971 1.78999C0.649971 1.87999 0.749971 1.92999 0.849971 1.92999C0.949971 1.92999 1.04997 1.87999 1.11997 1.78999C1.18997 1.69999 1.22997 1.57999 1.22997 1.45999C1.22997 1.33999 1.18997 1.21999 1.11997 1.12999C1.04997 1.03999 0.939971 0.98999 0.849971 0.98999Z" stroke="#010101" stroke-width="0.25" stroke-linecap="round" stroke-linejoin="round"/>
<path d="M2.38 1.91992C2.29 1.91992 2.18 1.96992 2.11 2.05992C2.04 2.14992 2 2.26992 2 2.38992C2 2.50992 2.04 2.62992 2.11 2.71992C2.18 2.80992 2.28 2.85992 2.38 2.85992C2.48 2.85992 2.58 2.80992 2.65 2.71992C2.72 2.62992 2.76 2.50992 2.76 2.38992C2.76 2.26992 2.72 2.14992 2.65 2.05992C2.58 1.96992 2.47 1.91992 2.38 1.91992Z" stroke="#010101" stroke-width="0.25" stroke-linecap="round" stroke-linejoin="round"/>
<path d="M1.60998 1.91992C1.51998 1.91992 1.40998 1.96992 1.33998 2.05992C1.26998 2.14992 1.22998 2.26992 1.22998 2.38992C1.22998 2.50992 1.26998 2.62992 1.33998 2.71992C1.40998 2.80992 1.50998 2.85992 1.60998 2.85992C1.70998 2.85992 1.80998 2.80992 1.87998 2.71992C1.94998 2.62992 1.98998 2.50992 1.98998 2.38992C1.98998 2.26992 1.94998 2.14992 1.87998 2.05992C1.80998 1.96992 1.69998 1.91992 1.60998 1.91992Z" stroke="#010101" stroke-width="0.25" stroke-linecap="round" stroke-linejoin="round"/>
<path d="M0.849971 1.91992C0.759971 1.91992 0.649971 1.96992 0.579971 2.05992C0.509971 2.14992 0.469971 2.26992 0.469971 2.38992C0.469971 2.50992 0.509971 2.62992 0.579971 2.71992C0.649971 2.80992 0.749971 2.85992 0.849971 2.85992C0.949971 2.85992 1.04997 2.80992 1.11997 2.71992C1.18997 2.62992 1.22997 2.50992 1.22997 2.38992C1.22997 2.26992 1.18997 2.14992 1.11997 2.05992C1.04997 1.96992 0.939971 1.91992 0.849971 1.91992Z" stroke="#010101" stroke-width="0.25" stroke-linecap="round" stroke-linejoin="round"/>
<path d="M3.14978 2.84985C3.05978 2.84985 2.94978 2.89985 2.87978 2.98985C2.80978 3.07985 2.76978 3.19985 2.76978 3.31985C2.76978 3.43985 2.80978 3.55985 2.87978 3.64985C2.94978 3.73985 3.04978 3.78985 3.14978 3.78985C3.24978 3.78985 3.34978 3.73985 3.41978 3.64985C3.48978 3.55985 3.52978 3.43985 3.52978 3.31985C3.52978 3.19985 3.48978 3.07985 3.41978 2.98985C3.34978 2.89985 3.23978 2.84985 3.14978 2.84985Z" stroke="#010101" stroke-width="0.25" stroke-linecap="round" stroke-linejoin="round"/>
<path d="M2.38 2.84985C2.29 2.84985 2.18 2.89985 2.11 2.98985C2.04 3.07985 2 3.19985 2 3.31985C2 3.43985 2.04 3.55985 2.11 3.64985C2.18 3.73985 2.28 3.78985 2.38 3.78985C2.48 3.78985 2.58 3.73985 2.65 3.64985C2.72 3.55985 2.76 3.43985 2.76 3.31985C2.76 3.19985 2.72 3.07985 2.65 2.98985C2.58 2.89985 2.47 2.84985 2.38 2.84985Z" stroke="#010101" stroke-width="0.25" stroke-linecap="round" stroke-linejoin="round"/>
<path d="M1.60998 2.84985C1.51998 2.84985 1.40998 2.89985 1.33998 2.98985C1.26998 3.07985 1.22998 3.19985 1.22998 3.31985C1.22998 3.43985 1.26998 3.55985 1.33998 3.64985C1.40998 3.73985 1.50998 3.78985 1.60998 3.78985C1.70998 3.78985 1.80998 3.73985 1.87998 3.64985C1.94998 3.55985 1.98998 3.43985 1.98998 3.31985C1.98998 3.19985 1.94998 3.07985 1.87998 2.98985C1.80998 2.89985 1.69998 2.84985 1.60998 2.84985Z" stroke="#010101" stroke-width="0.25" stroke-linecap="round" stroke-linejoin="round"/>
<path d="M0.849971 2.84985C0.759971 2.84985 0.649971 2.89985 0.579971 2.98985C0.509971 3.07985 0.469971 3.19985 0.469971 3.31985C0.469971 3.43985 0.509971 3.55985 0.579971 3.64985C0.649971 3.73985 0.749971 3.78985 0.849971 3.78985C0.949971 3.78985 1.04997 3.73985 1.11997 3.64985C1.18997 3.55985 1.22997 3.43985 1.22997 3.31985C1.22997 3.19985 1.18997 3.07985 1.11997 2.98985C1.04997 2.89985 0.939971 2.84985 0.849971 2.84985Z" stroke="#010101" stroke-width="0.25" stroke-linecap="round" stroke-linejoin="round"/>
<path d="M3.14978 1.91992C3.05978 1.91992 2.94978 1.96992 2.87978 2.05992C2.80978 2.14992 2.76978 2.26992 2.76978 2.38992C2.76978 2.50992 2.80978 2.62992 2.87978 2.71992C2.94978 2.80992 3.04978 2.85992 3.14978 2.85992C3.24978 2.85992 3.34978 2.80992 3.41978 2.71992C3.48978 2.62992 3.52978 2.50992 3.52978 2.38992C3.52978 2.26992 3.48978 2.14992 3.41978 2.05992C3.34978 1.96992 3.23978 1.91992 3.14978 1.91992Z" stroke="#010101" stroke-width="0.25" stroke-linecap="round" stroke-linejoin="round"/>
<path d="M0.129883 1.91992H3.83988" stroke="#010101" stroke-width="0.25" stroke-linecap="round" stroke-linejoin="round"/>
<path d="M10.7599 0.98999C10.8499 0.98999 10.9599 1.03999 11.0299 1.12999C11.0999 1.21999 11.1399 1.33999 11.1399 1.45999C11.1399 1.57999 11.0999 1.69999 11.0299 1.78999C10.9599 1.87999 10.8599 1.92999 10.7599 1.92999C10.6599 1.92999 10.5599 1.87999 10.4899 1.78999C10.4199 1.69999 10.3799 1.57999 10.3799 1.45999C10.3799 1.33999 10.4199 1.21999 10.4899 1.12999C10.5599 1.03999 10.6699 0.98999 10.7599 0.98999Z" stroke="#010101" stroke-width="0.25" stroke-linecap="round" stroke-linejoin="round"/>
<path d="M13.7099 3.78979H10.1399" stroke="#010101" stroke-width="0.25" stroke-linecap="round" stroke-linejoin="round"/>
<path d="M3.14978 0.98999C3.05978 0.98999 2.94978 1.03999 2.87978 1.12999C2.80978 1.21999 2.76978 1.33999 2.76978 1.45999C2.76978 1.57999 2.80978 1.69999 2.87978 1.78999C2.94978 1.87999 3.04978 1.92999 3.14978 1.92999C3.24978 1.92999 3.34978 1.87999 3.41978 1.78999C3.48978 1.69999 3.52978 1.57999 3.52978 1.45999C3.52978 1.33999 3.48978 1.21999 3.41978 1.12999C3.34978 1.03999 3.23978 0.98999 3.14978 0.98999Z" stroke="#010101" stroke-width="0.25" stroke-linecap="round" stroke-linejoin="round"/>
<path d="M13.7798 1.91992H10.0698" stroke="#010101" stroke-width="0.25" stroke-linecap="round" stroke-linejoin="round"/>
</g>
<defs>
<clipPath id="clip0_1375_19135">
<rect width="13.91" height="4.79" fill="white"/>
</clipPath>
</defs>
</svg>
