<?xml version="1.0" encoding="UTF-8"?>
<svg id="Layer_1" data-name="Layer 1" xmlns="http://www.w3.org/2000/svg" width="16.84" height="13.93" viewBox="0 0 16.84 13.93">
  <defs>
    <style>
      .cls-1 {
        fill: #fff;
      }

      .cls-2 {
        fill: none;
        stroke: #010101;
        stroke-linecap: round;
        stroke-linejoin: round;
        stroke-width: .25px;
      }
    </style>
  </defs>
  <rect class="cls-1" x="0" y="0" width="16.83" height="13.92"/>
  <g id="Make2D">
    <g id="Make2D::Visible">
      <g id="Make2D::Visible::Curves">
        <path class="cls-2" d="m12.33,6.71c.05-.27.15-.52.29-.75.09-.15.19-.28.31-.4.03-.03.06-.06.09-.09.03-.03.07-.06.1-.08.03-.02.06-.04.09-.06.01,0,.03-.02.05-.03.04-.03.09-.05.13-.08.05-.03.11-.06.17-.08.11-.05.22-.08.33-.1.09-.02.17-.03.26-.03"/>
        <path class="cls-2" d="m14.39,7.21c0-.09-.02-.18-.06-.26"/>
        <path class="cls-2" d="m13.97,7.7c-.25,0-.51,0-.76,0-.23,0-.45,0-.68,0-.2,0-.4,0-.6-.02-.17,0-.35-.02-.52-.03-.15-.01-.31-.03-.46-.06-.14-.02-.27-.05-.41-.09-.12-.03-.25-.08-.37-.13-.11-.05-.22-.11-.33-.19-.1-.07-.19-.15-.28-.25-.08-.08-.15-.18-.22-.28,0,0,0,0,0,0-.12-.19-.22-.4-.3-.64-.07-.21-.12-.43-.17-.66-.04-.21-.07-.42-.09-.64-.02-.2-.04-.39-.05-.59-.01-.17-.03-.35-.04-.52-.01-.16-.02-.32-.04-.49-.01-.14-.02-.28-.04-.41-.01-.13-.03-.25-.05-.38-.02-.12-.04-.24-.06-.35-.02-.11-.05-.23-.08-.33-.03-.1-.07-.2-.1-.28-.03-.06-.06-.11-.08-.16,0,0,0,0,0-.01,0,0-.01-.02-.02-.02-.04-.05-.06-.06-.07-.07"/>
        <path class="cls-2" d="m4.7,9.44c.19-.4.19-.41.24-.51.01-.03.03-.06.07-.08.04-.02.09-.02.13-.04.02-.02.03-.05.04-.07,0-.03.02-.06.02-.08.01-.05.02-.09.03-.14.02-.1.04-.19.06-.29.12-.64.3-1.61.42-2.24.02-.1.04-.2.05-.29,0-.04.02-.08.03-.14,0-.05.02-.11.04-.15.03-.06.08-.08.13-.1.1-.03.23-.06.32-.07.04,0,.07,0,.13-.01.03,0,.07,0,.09-.01.02,0,.03-.02.04-.04"/>
        <path class="cls-2" d="m14.51,9.42h-.31"/>
        <path class="cls-2" d="m15.85,5.21c.4.32.74.92.84,1.59.05.33.03.68-.03,1-.06.32-.18.6-.32.84-.07.12-.15.23-.24.34-.09.11-.2.21-.31.3-.23.18-.5.31-.78.36"/>
        <path class="cls-2" d="m15,9.63c-.55.11-1.12-.04-1.55-.39"/>
        <path class="cls-2" d="m15,4.79c.31.07.61.21.85.42"/>
        <path class="cls-2" d="m13.45,5.18c.43-.35,1-.5,1.55-.39"/>
        <path class="cls-2" d="m9.35,9.44c.97.15,1.17.18,1.58.26.15.03.33.06.51.1.11.02.23.05.34.08.1.03.2.06.29.1.06.03.12.06.17.11.04.04.08.1.11.14.03.04.03.07.05.11.02.04.04.11.06.17.15.4.33.84.5,1.26.19.45.38.89.56,1.32.05.12.1.23.14.29,0,0,.01.02.03.03.02.02.06.04.08.07.03.03.06.06.08.09.04.05.05.09.08.25"/>
        <path class="cls-2" d="m7.52,5.16s-.03,0-.08,0h-.81c-.06,0-.1,0-.1,0"/>
        <path class="cls-2" d="m13.98,7.7c.06,0,.11-.01.16-.04"/>
        <path class="cls-2" d="m14.14,7.66c.16-.08.25-.27.25-.46,0-.13-.04-.25-.12-.34-.08-.09-.2-.15-.29-.14,0,0,0,0,0,0"/>
        <path class="cls-2" d="m.12,13.81c.03-.16.04-.2.08-.25.02-.03.05-.06.08-.09.03-.03.06-.05.08-.07.01-.01.02-.02.03-.03.04-.05.09-.17.14-.29.18-.43.37-.86.56-1.32.17-.42.35-.86.5-1.26.02-.06.05-.13.06-.17.02-.04.02-.07.05-.11.02-.04.06-.1.11-.14.05-.05.11-.08.17-.11.09-.04.19-.07.29-.1.12-.03.23-.06.34-.08.18-.04.35-.07.51-.1.41-.07.61-.1,1.58-.26"/>
        <path class="cls-2" d="m15.06,7.4s-.04,0-.06-.02c-.02-.01-.04-.03-.06-.04,0,0,0,0,0,0-.03-.03-.04-.08-.04-.12s.01-.09.04-.12c0,0,0,0,0,0,.02-.02.03-.03.06-.04.02,0,.04-.01.06-.02"/>
        <path class="cls-2" d="m13.97,6.72h0,0Z"/>
        <path class="cls-2" d="m12.69,8.14s0,0,0,0h0Z"/>
        <path class="cls-2" d="m12.69,8.14c-.07-.14-.13-.29-.16-.45"/>
        <path class="cls-2" d="m15.13,7.02c.08,0,.16.09.16.19s-.08.2-.16.19"/>
        <path class="cls-2" d="m15.13,7.4h-.07"/>
        <path class="cls-2" d="m15.07,7.02h.07"/>
        <path class="cls-2" d="m15.13,7.4s-.02,0-.03,0"/>
        <path class="cls-2" d="m15.1,7.03s.02,0,.03,0"/>
        <path class="cls-2" d="m7.52,5.16s.02.03.04.04c.02,0,.06,0,.09.01.06,0,.09,0,.13.01.09.01.22.04.32.07.05.02.1.04.13.1.02.04.03.11.04.15.01.07.02.1.03.14.02.09.03.19.05.29.12.63.3,1.6.42,2.24.02.1.04.19.06.29,0,.04.02.09.03.14,0,.03.01.05.02.08,0,.03.02.06.04.07.04.03.09.03.13.04.04.02.05.05.07.08.05.11.04.11.24.51"/>
        <path class="cls-2" d="m6.53,5.16c0-.25,0-.5,0-.74,0-.2,0-.41,0-.61,0-.17,0-.34,0-.51,0-.15,0-.3.02-.45,0-.15.02-.29.04-.43.02-.14.04-.29.06-.43.02-.14.05-.28.09-.42.03-.14.07-.27.12-.4.05-.13.1-.26.17-.38.02-.03.03-.05.05-.08.06-.09.13-.18.21-.26.1-.1.22-.18.34-.23.13-.06.26-.09.4-.09.02,0,.03,0,.05,0,.12,0,.24.02.35.06.12.04.25.11.36.2.1.08.19.19.26.3,0,0,0,0,0,.01.07.1.12.21.17.33.05.12.09.25.13.38.04.13.07.26.1.4.03.13.05.26.07.4.02.13.04.27.05.4.02.14.03.28.04.42.01.16.02.32.04.48.01.17.03.34.04.51.01.18.03.37.05.55.02.18.04.37.07.55.03.18.07.36.12.52.05.17.12.32.19.44.01.02.02.04.03.05.03.04.06.08.08.11.04.05.09.09.13.13.05.04.11.07.17.1.07.03.15.06.23.09.1.03.2.05.31.07.13.02.26.04.4.05.16.01.32.02.48.03.19,0,.38.01.57.02.22,0,.45,0,.67,0,.25,0,.5,0,.76,0"/>
        <path class="cls-2" d="m14.21,5h.31"/>
        <path class="cls-2" d="m14.21,9.42s-.04,0-.07,0"/>
        <path class="cls-2" d="m14.36,5.01c.05,0,.1,0,.15,0"/>
        <path class="cls-2" d="m14.14,7.66c.16-.09.26-.27.25-.45"/>
        <path class="cls-2" d="m13.97,7.7s0,0,0,0h0Z"/>
        <path class="cls-2" d="m13.39,5.56c.24-.12.52-.17.78-.13.13.02.26.06.37.11.11.05.21.12.31.2.3.25.55.68.62,1.17.03.24.02.5-.02.73-.05.23-.13.44-.24.61-.04.06-.08.12-.12.18-.04.06-.09.11-.15.17-.11.11-.23.2-.37.26"/>
        <path class="cls-2" d="m14.33,6.95c-.06-.14-.2-.23-.35-.24"/>
        <path class="cls-2" d="m13.98,7.7c.06,0,.11-.01.16-.04"/>
        <path class="cls-2" d="m16.1,6.06c.19.36.29.83.27,1.27-.02.44-.15.84-.34,1.17-.09.16-.2.3-.33.42-.13.13-.28.24-.45.33"/>
        <path class="cls-2" d="m15.06,7.4s0,0,0,0"/>
        <path class="cls-2" d="m14.14,5s.05,0,.07,0"/>
        <path class="cls-2" d="m14.51,5c.41,0,.78.16,1.08.41.2.17.36.38.51.65"/>
        <path class="cls-2" d="m14.57,8.86c-.24.13-.52.17-.78.13-.26-.04-.49-.16-.69-.32-.08-.07-.15-.14-.22-.23-.07-.09-.14-.19-.19-.3"/>
        <path class="cls-2" d="m12.53,6.71c.05-.21.12-.38.22-.54.15-.25.37-.47.64-.61"/>
        <path class="cls-2" d="m15.08,7.35s-.03.01-.05.01c-.06,0-.13-.08-.13-.16,0-.06.03-.12.08-.14"/>
        <path class="cls-2" d="m14.98,7.07s.03-.01.05-.01c.06,0,.13.08.13.16,0,.06-.03.12-.08.14"/>
        <path class="cls-2" d="m15.24,9.24c-.27.14-.58.2-.88.17"/>
        <path class="cls-2" d="m15.79,6.06c.19.36.29.83.27,1.27-.02.44-.15.84-.34,1.17-.16.27-.37.5-.63.66-.26.16-.58.27-.88.27"/>
        <path class="cls-2" d="m14.21,5c.4,0,.78.15,1.08.41"/>
        <path class="cls-2" d="m15.13,7.38c.06-.03.1-.1.1-.17,0-.1-.08-.2-.16-.19"/>
        <path class="cls-2" d="m15.07,7.02s-.04,0-.06.02"/>
        <path class="cls-2" d="m15.07,7.4s.04,0,.06-.02"/>
        <path class="cls-2" d="m8.12,1.09s0,0-.01,0c0,0-.01,0-.02,0-.01,0-.02,0-.03,0-.01,0-.03,0-.05.02-.02.01-.05.03-.07.07,0,.01-.02.02-.03.04-.02.03-.04.07-.06.11-.03.07-.06.15-.09.24-.03.09-.06.19-.08.29-.02.11-.05.22-.06.33-.02.12-.03.24-.05.36-.01.12-.02.25-.03.38,0,.14-.01.27-.01.41,0,.16,0,.32,0,.48,0,.2,0,.4,0,.6,0,.25,0,.49,0,.74"/>
        <path class="cls-2" d="m14.14,9.42c-.14,0-.27-.03-.41-.07-.08-.02-.17-.06-.25-.09-.07-.03-.16-.08-.23-.13-.02-.01-.04-.03-.05-.03-.02-.01-.04-.03-.06-.04-.03-.02-.06-.05-.09-.07-.19-.16-.35-.36-.48-.6-.12-.21-.2-.45-.25-.7"/>
        <path class="cls-2" d="m15.28,5.41c.21.18.38.4.51.65"/>
      </g>
    </g>
    <path class="cls-2" d="m9.35,9.44h-4.65"/>
    <path class="cls-2" d="m5.16,8.76h3.72"/>
    <path class="cls-2" d="m.4,13.36h13.25"/>
    <path class="cls-2" d="m13.93,13.81H.12"/>
  </g>
</svg>