<svg width="16" height="15" viewBox="0 0 16 15" fill="none" xmlns="http://www.w3.org/2000/svg">
<path d="M8 0L7.5 0.5V4.88739L6.5 5.5L5.5 7L6 9L5.5 9.5L3 10L1 14H15L13 10L10.5 9.5L10 9L10.5 7L9.5 5.5L8.5 4.88739V1.5V0.5L8 0Z" fill="white"/>
<path d="M9.82316 8.65014C10.5532 7.64014 10.3232 6.24014 9.31316 5.51014C9.07316 5.33014 8.79316 5.21014 8.49316 5.14014" stroke="#010101" stroke-width="0.25" stroke-linecap="round" stroke-linejoin="round"/>
<path d="M7.50319 5.14014C6.29319 5.42014 5.53319 6.62014 5.81319 7.83014C5.88319 8.12014 6.00319 8.40014 6.18319 8.65014" stroke="#010101" stroke-width="0.25" stroke-linecap="round" stroke-linejoin="round"/>
<path d="M9.54321 7.21021C9.58321 7.26021 9.60321 7.3302 9.57321 7.3902" stroke="#010101" stroke-width="0.25" stroke-linecap="round" stroke-linejoin="round"/>
<path d="M6.65321 6.1001C6.18321 6.6101 6.04321 7.3501 6.30321 8.0001" stroke="#010101" stroke-width="0.25" stroke-linecap="round" stroke-linejoin="round"/>
<path d="M9.69326 8.0001C9.95326 7.3501 9.81326 6.6101 9.34326 6.1001" stroke="#010101" stroke-width="0.25" stroke-linecap="round" stroke-linejoin="round"/>
<path d="M6.4132 7.3902C6.3932 7.3302 6.4132 7.26021 6.4432 7.21021" stroke="#010101" stroke-width="0.25" stroke-linecap="round" stroke-linejoin="round"/>
<path d="M7.50317 5.25012V0.620117C7.50317 0.340117 7.73317 0.120117 8.01317 0.120117C8.28317 0.120117 8.50317 0.340117 8.50317 0.610117V5.24012" stroke="#010101" stroke-width="0.25" stroke-linecap="round" stroke-linejoin="round"/>
<path d="M5.64319 9.60001C5.83319 9.21001 5.85319 9.16001 5.87319 9.11001C5.89319 9.06001 5.91319 9.02001 5.95319 9.00001C5.99319 8.99001 6.03319 8.97001 6.07319 8.96001C6.11319 8.94001 6.12319 8.89001 6.23319 8.33001C6.34319 7.77001 6.54319 6.68001 6.64319 6.12001C6.74319 5.56001 6.75319 5.52001 6.77319 5.48001C6.79319 5.44001 6.82319 5.41001 6.91319 5.39001C6.99319 5.36001 7.13319 5.34001 7.24319 5.32001C7.34319 5.31001 7.42319 5.30001 7.45319 5.29001H7.47319C7.48319 5.29001 7.49319 5.27001 7.49319 5.26001C7.47319 5.26001 7.73319 5.26001 7.99319 5.26001C8.25319 5.26001 8.51319 5.26001 8.49319 5.26001C8.49319 5.28001 8.49319 5.29001 8.53319 5.30001C8.56319 5.30001 8.64319 5.31001 8.74319 5.33001C8.84319 5.34001 8.98319 5.37001 9.07319 5.40001C9.15319 5.43001 9.19319 5.46001 9.21319 5.49001C9.23319 5.52001 9.24319 5.56001 9.34319 6.13001C9.44319 6.69001 9.64319 7.77001 9.75319 8.34001C9.85319 8.85001 9.87319 8.94001 9.90319 8.97001C9.90319 8.97001 9.90319 8.97001 9.91319 8.97001C9.95319 8.99001 10.0032 8.99001 10.0432 9.01001C10.0732 9.02001 10.0932 9.05001 10.1032 9.08001C10.1832 9.26001 10.2632 9.44001 10.3432 9.61001" stroke="#010101" stroke-width="0.25" stroke-linecap="round" stroke-linejoin="round"/>
<path d="M1.01322 14.0501C1.04322 13.8901 1.06322 13.8401 1.08322 13.8001C1.10322 13.7601 1.13322 13.7301 1.17322 13.7001C1.20322 13.6701 1.23322 13.6501 1.26322 13.6301C1.28322 13.6101 1.29322 13.6001 1.31322 13.5801C1.32322 13.5501 1.34322 13.5101 1.46322 13.2401C1.58322 12.9701 1.79322 12.4601 1.99322 11.9801C2.19322 11.5001 2.36322 11.0501 2.46322 10.7901C2.56322 10.5301 2.58322 10.4701 2.61322 10.4101C2.64322 10.3501 2.67322 10.3101 2.72322 10.2701C2.76322 10.2401 2.80322 10.2101 2.85322 10.1801C2.86322 10.1801 2.88322 10.1701 2.89322 10.1601C2.97322 10.1301 3.08322 10.0901 3.18322 10.0601C3.29322 10.0301 3.40322 10.0001 3.54322 9.97011C3.68322 9.94011 3.85322 9.91011 4.10322 9.86011C4.35322 9.82011 4.69322 9.76011 5.63322 9.61011C5.54322 9.61011 6.76322 9.61011 7.99322 9.61011C9.22322 9.61011 10.4332 9.61011 10.3532 9.61011C11.2932 9.76011 11.6332 9.81011 11.8832 9.86011C12.1332 9.90011 12.3032 9.94011 12.4432 9.97011C12.5832 10.0001 12.6932 10.0301 12.8032 10.0601C12.9132 10.0901 13.0132 10.1201 13.0932 10.1601C13.1732 10.1901 13.2232 10.2301 13.2732 10.2701C13.3132 10.3101 13.3532 10.3601 13.3832 10.4101C13.4132 10.4601 13.4332 10.5301 13.5332 10.7901C13.6332 11.0501 13.8032 11.5001 14.0032 11.9801C14.2032 12.4601 14.4132 12.9701 14.5332 13.2401C14.6532 13.5101 14.6732 13.5601 14.6832 13.5801C14.6932 13.6101 14.7032 13.6201 14.7332 13.6301C14.7532 13.6501 14.7832 13.6801 14.8232 13.7001C14.8532 13.7301 14.8832 13.7601 14.9132 13.8001C14.9132 13.8001 14.9132 13.8101 14.9232 13.8201C14.9532 13.8901 14.9732 13.9701 14.9832 14.0501C15.2432 14.0501 11.6132 14.0501 7.99322 14.0501C4.37322 14.0501 0.753217 14.0501 1.01322 14.0501Z" stroke="#010101" stroke-width="0.25" stroke-linecap="round" stroke-linejoin="round"/>
<path d="M9.90316 8.95014C10.7932 7.90014 10.6632 6.32014 9.60316 5.43014C9.28316 5.16014 8.90316 4.97014 8.49316 4.89014" stroke="#010101" stroke-width="0.25" stroke-linecap="round" stroke-linejoin="round"/>
<path d="M7.50327 4.88013C6.15327 5.16013 5.28327 6.48013 5.55327 7.83013C5.63327 8.24013 5.82327 8.62013 6.09327 8.94013" stroke="#010101" stroke-width="0.25" stroke-linecap="round" stroke-linejoin="round"/>
<path d="M1.29321 13.5901H14.7132" stroke="#010101" stroke-width="0.25" stroke-linecap="round" stroke-linejoin="round"/>
<path d="M6.11316 8.91016H9.88316" stroke="#010101" stroke-width="0.25" stroke-linecap="round" stroke-linejoin="round"/>
</svg>
