<svg width="20" height="20" viewBox="0 0 20 20" fill="none" xmlns="http://www.w3.org/2000/svg">
<g clip-path="url(#clip0_1375_19591)">
<path d="M0.239883 10.3199C0.179883 10.3199 0.129883 10.2799 0.129883 10.2199C0.129883 10.1599 0.189883 10.1199 0.239883 10.1199H0.299883V10.0899H0.329883C0.329883 9.39988 0.329883 8.69988 0.329883 8.00988C0.329883 7.65988 0.329883 7.31988 0.329883 6.96988C0.329883 6.62988 0.329883 6.27988 0.329883 5.91988C0.329883 5.87988 0.329883 5.84988 0.329883 5.80988C0.329883 5.76988 0.349883 5.72988 0.369883 5.68988C0.389883 5.64988 0.409883 5.60988 0.429883 5.57988C0.449883 5.54988 0.479883 5.51988 0.499883 5.49988C0.959883 5.04988 1.40988 4.61988 1.85988 4.18988C2.30988 3.75988 2.75988 3.31988 3.20988 2.88988C3.65988 2.44988 4.10988 2.01988 4.55988 1.58988C5.00988 1.15988 5.44988 0.719883 5.91988 0.279883C5.93988 0.259883 5.96988 0.229883 5.99988 0.209883C6.02988 0.189883 6.06988 0.169883 6.09988 0.159883C6.13988 0.149883 6.17988 0.129883 6.20988 0.129883C6.24988 0.129883 6.27988 0.129883 6.30988 0.129883C6.92988 0.129883 7.51988 0.129883 8.11988 0.129883C8.71988 0.129883 9.31988 0.129883 9.91988 0.129883C10.5199 0.129883 11.1199 0.129883 11.7199 0.129883C12.3199 0.129883 12.9099 0.129883 13.5299 0.129883C13.5599 0.129883 13.5999 0.129883 13.6299 0.129883C13.6699 0.129883 13.6999 0.149883 13.7399 0.159883C13.7799 0.169883 13.8099 0.189883 13.8399 0.209883C13.8699 0.229883 13.8899 0.249883 13.9199 0.279883C14.3899 0.719883 14.8299 1.14988 15.2799 1.58988C15.7299 2.01988 16.1799 2.45988 16.6299 2.88988C17.0799 3.32988 17.5299 3.75988 17.9799 4.18988C18.4299 4.61988 18.8799 5.04988 19.3399 5.49988C19.3599 5.51988 19.3899 5.54988 19.4099 5.57988C19.4299 5.60988 19.4499 5.64988 19.4699 5.68988C19.4899 5.72988 19.4999 5.76988 19.5099 5.80988C19.5099 5.84988 19.5099 5.87988 19.5099 5.91988C19.5099 6.27988 19.5099 6.62988 19.5099 6.96988C19.5099 7.30988 19.5099 7.65988 19.5099 8.00988C19.5099 8.69988 19.5099 9.39988 19.5099 10.0899H19.5399C19.5399 10.0899 19.5399 10.0999 19.5399 10.1199H19.5999C19.6599 10.1199 19.6999 10.1699 19.7099 10.2199C19.7099 10.2799 19.6499 10.3199 19.5999 10.3199H19.5399V10.3499H19.5099C19.5099 10.5099 19.5099 10.6299 19.5099 10.6199H19.4099C19.4099 10.6199 19.4099 10.5699 19.4099 10.4699C19.4099 10.4999 19.3899 10.5199 19.3599 10.5199H19.0999C18.9299 15.5999 14.6799 19.5799 9.59988 19.4099C4.75988 19.2499 0.869883 15.3599 0.709883 10.5199H0.449883C0.449883 10.5199 0.399883 10.4999 0.399883 10.4699C0.399883 10.5699 0.399883 10.6199 0.399883 10.6099H0.299883C0.299883 10.6099 0.299883 10.4999 0.299883 10.3399H0.269883C0.269883 10.3399 0.269883 10.3299 0.269883 10.3099H0.289883H0.229883L0.239883 10.3199Z" fill="white"/>
<path d="M0.420166 10.62C0.420166 10.62 0.420166 10.57 0.420166 10.48" stroke="#010101" stroke-width="0.25" stroke-miterlimit="10"/>
<path d="M0.320068 10.62C0.320068 10.62 0.320068 10.42 0.320068 10.22" stroke="#010101" stroke-width="0.25" stroke-miterlimit="10"/>
<path d="M19.1001 9.90994C18.9301 4.84994 14.6901 0.87994 9.62014 1.04994C4.55014 1.21994 0.580135 5.45994 0.750135 10.5199C0.920135 15.5799 5.16013 19.5499 10.2301 19.3799C15.0601 19.2199 18.9401 15.3399 19.1001 10.5199" stroke="#010101" stroke-width="0.25" stroke-miterlimit="10"/>
<path d="M9.92021 19.3998C15.0012 19.3998 19.1202 15.2853 19.1202 10.2098C19.1202 5.13428 15.0012 1.01978 9.92021 1.01978C4.83919 1.01978 0.720215 5.13428 0.720215 10.2098C0.720215 15.2853 4.83919 19.3998 9.92021 19.3998Z" stroke="#010101" stroke-width="0.25" stroke-miterlimit="10"/>
<path d="M8.67017 10.22H0.920166" stroke="#010101" stroke-width="0.25" stroke-miterlimit="10"/>
<path d="M9.92012 16.0099C13.1234 16.0099 15.7201 13.4132 15.7201 10.2099C15.7201 7.00666 13.1234 4.40991 9.92012 4.40991C6.71687 4.40991 4.12012 7.00666 4.12012 10.2099C4.12012 13.4132 6.71687 16.0099 9.92012 16.0099Z" stroke="#010101" stroke-width="0.25" stroke-miterlimit="10"/>
<path d="M8.84013 9.58997C5.81013 7.83997 4.43013 7.04997 3.72013 6.63997C3.01013 6.22997 2.96013 6.19997 2.87013 6.14997C2.78013 6.09997 2.65013 6.01997 2.13013 5.71997" stroke="#010101" stroke-width="0.25" stroke-miterlimit="10"/>
<path d="M9.30017 9.13993C7.55017 6.10993 6.75017 4.73993 6.34017 4.01993C5.93017 3.30993 5.90017 3.25993 5.85017 3.16993C5.80017 3.07993 5.72017 2.94993 5.42017 2.42993" stroke="#010101" stroke-width="0.25" stroke-miterlimit="10"/>
<path d="M9.92017 8.96997V1.21997" stroke="#010101" stroke-width="0.25" stroke-miterlimit="10"/>
<path d="M9.92021 17.41C13.9022 17.41 17.1302 14.1865 17.1302 10.21C17.1302 6.23356 13.9022 3.01001 9.92021 3.01001C5.93823 3.01001 2.71021 6.23356 2.71021 10.21C2.71021 14.1865 5.93823 17.41 9.92021 17.41Z" stroke="#010101" stroke-width="0.25" stroke-miterlimit="10"/>
<path d="M9.92021 15.66C12.9357 15.66 15.3802 13.22 15.3802 10.21C15.3802 7.20006 12.9357 4.76001 9.92021 4.76001C6.90473 4.76001 4.46021 7.20006 4.46021 10.21C4.46021 13.22 6.90473 15.66 9.92021 15.66Z" stroke="#010101" stroke-width="0.25" stroke-miterlimit="10"/>
<path d="M9.92001 16.3598C13.3221 16.3598 16.08 13.6064 16.08 10.2098C16.08 6.81326 13.3221 4.05981 9.92001 4.05981C6.51794 4.05981 3.76001 6.81326 3.76001 10.2098C3.76001 13.6064 6.51794 16.3598 9.92001 16.3598Z" stroke="#010101" stroke-width="0.25" stroke-miterlimit="10"/>
<path d="M9.92014 18.7299C14.6311 18.7299 18.4501 14.9154 18.4501 10.2099C18.4501 5.50448 14.6311 1.68994 9.92014 1.68994C5.20915 1.68994 1.39014 5.50448 1.39014 10.2099C1.39014 14.9154 5.20915 18.7299 9.92014 18.7299Z" stroke="#010101" stroke-width="0.25" stroke-miterlimit="10"/>
<path d="M9.92007 11.8099C10.8037 11.8099 11.5201 11.0935 11.5201 10.2099C11.5201 9.32621 10.8037 8.60986 9.92007 8.60986C9.03641 8.60986 8.32007 9.32621 8.32007 10.2099C8.32007 11.0935 9.03641 11.8099 9.92007 11.8099Z" stroke="#010101" stroke-width="0.25" stroke-miterlimit="10"/>
<path d="M8.84013 10.8398C5.81013 12.5898 4.43013 13.3798 3.72013 13.7898C3.01013 14.1998 2.96013 14.2298 2.87013 14.2798C2.78013 14.3298 2.65013 14.4098 2.13013 14.7098" stroke="#010101" stroke-width="0.25" stroke-miterlimit="10"/>
<path d="M9.92016 16.71C13.5155 16.71 16.4302 13.7998 16.4302 10.21C16.4302 6.62011 13.5155 3.70996 9.92016 3.70996C6.32478 3.70996 3.41016 6.62011 3.41016 10.21C3.41016 13.7998 6.32478 16.71 9.92016 16.71Z" stroke="#010101" stroke-width="0.25" stroke-miterlimit="10"/>
<path d="M9.92007 17.0599C13.7032 17.0599 16.7701 13.993 16.7701 10.2099C16.7701 6.42671 13.7032 3.35986 9.92007 3.35986C6.13692 3.35986 3.07007 6.42671 3.07007 10.2099C3.07007 13.993 6.13692 17.0599 9.92007 17.0599Z" stroke="#010101" stroke-width="0.25" stroke-miterlimit="10"/>
<path d="M0.420068 10.22H0.320068" stroke="#010101" stroke-width="0.25" stroke-miterlimit="10"/>
<path d="M9.92017 13.21C11.577 13.21 12.9202 11.8668 12.9202 10.21C12.9202 8.55311 11.577 7.20996 9.92017 7.20996C8.26331 7.20996 6.92017 8.55311 6.92017 10.21C6.92017 11.8668 8.26331 13.21 9.92017 13.21Z" stroke="#010101" stroke-width="0.25" stroke-miterlimit="10"/>
<path d="M9.92011 18.5099C14.5096 18.5099 18.2301 14.7939 18.2301 10.2099C18.2301 5.62595 14.5096 1.90991 9.92011 1.90991C5.33062 1.90991 1.61011 5.62595 1.61011 10.2099C1.61011 14.7939 5.33062 18.5099 9.92011 18.5099Z" stroke="#010101" stroke-width="0.25" stroke-miterlimit="10"/>
<path d="M9.92007 13.5599C11.7702 13.5599 13.2701 12.06 13.2701 10.2099C13.2701 8.35971 11.7702 6.85986 9.92007 6.85986C8.06991 6.85986 6.57007 8.35971 6.57007 10.2099C6.57007 12.06 8.06991 13.5599 9.92007 13.5599Z" stroke="#010101" stroke-width="0.25" stroke-miterlimit="10"/>
<path d="M9.92022 13.91C11.9637 13.91 13.6202 12.2535 13.6202 10.21C13.6202 8.16656 11.9637 6.51001 9.92022 6.51001C7.87676 6.51001 6.22021 8.16656 6.22021 10.21C6.22021 12.2535 7.87676 13.91 9.92022 13.91Z" stroke="#010101" stroke-width="0.25" stroke-miterlimit="10"/>
<path d="M9.92002 12.8598C11.3836 12.8598 12.57 11.6734 12.57 10.2098C12.57 8.74626 11.3836 7.55981 9.92002 7.55981C8.45647 7.55981 7.27002 8.74626 7.27002 10.2098C7.27002 11.6734 8.45647 12.8598 9.92002 12.8598Z" stroke="#010101" stroke-width="0.25" stroke-miterlimit="10"/>
<path d="M11.1702 10.22H18.9202" stroke="#010101" stroke-width="0.25" stroke-miterlimit="10"/>
<path d="M9.92012 12.5099C11.1904 12.5099 12.2201 11.4802 12.2201 10.2099C12.2201 8.93966 11.1904 7.90991 9.92012 7.90991C8.64986 7.90991 7.62012 8.93966 7.62012 10.2099C7.62012 11.4802 8.64986 12.5099 9.92012 12.5099Z" stroke="#010101" stroke-width="0.25" stroke-miterlimit="10"/>
<path d="M11.01 10.8398C14.04 12.5898 15.42 13.3798 16.13 13.7898C16.84 14.1998 16.89 14.2298 16.98 14.2798C17.07 14.3298 17.2 14.4098 17.72 14.7098" stroke="#010101" stroke-width="0.25" stroke-miterlimit="10"/>
<path d="M9.92017 11.47V19.21" stroke="#010101" stroke-width="0.25" stroke-miterlimit="10"/>
<path d="M10.55 11.2998C12.3 14.3298 13.1 15.6998 13.51 16.4198C13.92 17.1298 13.95 17.1798 14 17.2698C14.05 17.3598 14.13 17.4898 14.43 18.0098" stroke="#010101" stroke-width="0.25" stroke-miterlimit="10"/>
<path d="M9.92006 15.3099C12.7422 15.3099 15.0301 13.0265 15.0301 10.2099C15.0301 7.39321 12.7422 5.10986 9.92006 5.10986C7.09788 5.10986 4.81006 7.39321 4.81006 10.2099C4.81006 13.0265 7.09788 15.3099 9.92006 15.3099Z" stroke="#010101" stroke-width="0.25" stroke-miterlimit="10"/>
<path d="M9.92019 18.93C14.7416 18.93 18.6502 15.0259 18.6502 10.21C18.6502 5.39407 14.7416 1.48999 9.92019 1.48999C5.09874 1.48999 1.19019 5.39407 1.19019 10.21C1.19019 15.0259 5.09874 18.93 9.92019 18.93Z" stroke="#010101" stroke-width="0.25" stroke-miterlimit="10"/>
<path d="M9.92002 14.6098C12.3501 14.6098 14.32 12.6399 14.32 10.2098C14.32 7.77976 12.3501 5.80981 9.92002 5.80981C7.48997 5.80981 5.52002 7.77976 5.52002 10.2098C5.52002 12.6399 7.48997 14.6098 9.92002 14.6098Z" stroke="#010101" stroke-width="0.25" stroke-miterlimit="10"/>
<path d="M17.72 5.71997C17.2 6.01997 17.07 6.08997 16.98 6.14997C16.89 6.19997 16.84 6.22997 16.13 6.63997C15.42 7.04997 14.04 7.84997 11.01 9.58997" stroke="#010101" stroke-width="0.25" stroke-miterlimit="10"/>
<path d="M9.92003 18.0898C14.2776 18.0898 17.81 14.5618 17.81 10.2098C17.81 5.85783 14.2776 2.32983 9.92003 2.32983C5.5625 2.32983 2.03003 5.85783 2.03003 10.2098C2.03003 14.5618 5.5625 18.0898 9.92003 18.0898Z" stroke="#010101" stroke-width="0.25" stroke-miterlimit="10"/>
<path d="M9.92012 14.2599C12.1569 14.2599 13.9701 12.4467 13.9701 10.2099C13.9701 7.97316 12.1569 6.15991 9.92012 6.15991C7.68336 6.15991 5.87012 7.97316 5.87012 10.2099C5.87012 12.4467 7.68336 14.2599 9.92012 14.2599Z" stroke="#010101" stroke-width="0.25" stroke-miterlimit="10"/>
<path d="M5.42017 17.9998C5.72017 17.4798 5.80017 17.3498 5.85017 17.2598C5.90017 17.1698 5.93017 17.1198 6.34017 16.4098C6.75017 15.6998 7.55017 14.3198 9.30017 11.2898" stroke="#010101" stroke-width="0.25" stroke-miterlimit="10"/>
<path d="M9.92012 17.7499C14.0899 17.7499 17.4701 14.3741 17.4701 10.2099C17.4701 6.04569 14.0899 2.66992 9.92012 2.66992C5.75037 2.66992 2.37012 6.04569 2.37012 10.2099C2.37012 14.3741 5.75037 17.7499 9.92012 17.7499Z" stroke="#010101" stroke-width="0.25" stroke-miterlimit="10"/>
<path d="M9.92002 18.3498C14.4211 18.3498 18.07 14.7054 18.07 10.2098C18.07 5.71423 14.4211 2.06982 9.92002 2.06982C5.4189 2.06982 1.77002 5.71423 1.77002 10.2098C1.77002 14.7054 5.4189 18.3498 9.92002 18.3498Z" stroke="#010101" stroke-width="0.25" stroke-miterlimit="10"/>
<path d="M15.6601 5.48997C15.6001 5.42997 15.5301 5.37997 15.4701 5.32997C15.3701 5.24997 15.2801 5.17997 15.1801 5.11997C15.0801 5.05997 14.9801 4.99997 14.8801 4.94997C14.7801 4.89997 14.6701 4.85997 14.5601 4.81997C14.4501 4.78997 14.3301 4.75997 14.2001 4.73997C14.0901 4.72997 13.9801 4.71997 13.8701 4.71997C13.7601 4.71997 13.6601 4.72997 13.5501 4.74997C13.4401 4.76997 13.3401 4.78997 13.2401 4.81997C13.1401 4.84997 13.0301 4.87997 12.9201 4.90997C12.6901 4.98997 12.4701 5.06997 12.2701 5.16997C12.0701 5.26997 11.8801 5.37997 11.7201 5.51997C11.6001 5.61997 11.4801 5.72997 11.3801 5.83997" stroke="#010101" stroke-width="0.25" stroke-miterlimit="10"/>
<path d="M10.1902 17.7198C10.5202 17.6898 10.8402 17.6298 11.1502 17.5398" stroke="#010101" stroke-width="0.25" stroke-miterlimit="10"/>
<path d="M17.1501 11.4199C17.1501 11.4199 17.1501 11.4199 17.1601 11.4199" stroke="#010101" stroke-width="0.25" stroke-miterlimit="10"/>
<path d="M9.92017 14.96C12.5435 14.96 14.6702 12.8333 14.6702 10.21C14.6702 7.58661 12.5435 5.45996 9.92017 5.45996C7.29681 5.45996 5.17017 7.58661 5.17017 10.21C5.17017 12.8333 7.29681 14.96 9.92017 14.96Z" stroke="#010101" stroke-width="0.25" stroke-miterlimit="10"/>
<path d="M14.42 2.42993C14.12 2.94993 14.04 3.07993 13.99 3.16993C13.94 3.25993 13.91 3.30993 13.5 4.01993C13.09 4.72993 12.29 6.10993 10.54 9.13993" stroke="#010101" stroke-width="0.25" stroke-miterlimit="10"/>
<path d="M0.420068 10.6199H0.320068" stroke="#010101" stroke-width="0.25" stroke-miterlimit="10"/>
<path d="M19.5302 10.6199H19.4302" stroke="#010101" stroke-width="0.25" stroke-miterlimit="10"/>
<path d="M0.240234 10.2199V10.1499" stroke="#010101" stroke-width="0.25" stroke-miterlimit="10"/>
<path d="M0.240234 10.3198V10.2898" stroke="#010101" stroke-width="0.25" stroke-miterlimit="10"/>
<path d="M0.220215 10.3099V10.1299" stroke="#010101" stroke-width="0.25" stroke-miterlimit="10"/>
<path d="M19.55 10.3499H19.52" stroke="#010101" stroke-width="0.25" stroke-miterlimit="10"/>
<path d="M0.320039 10.3499H0.290039" stroke="#010101" stroke-width="0.25" stroke-miterlimit="10"/>
<path d="M11.8301 9.73999C12.2601 9.58999 12.7001 9.49999 13.1501 9.48999" stroke="#010101" stroke-width="0.25" stroke-miterlimit="10"/>
<path d="M9.39019 12.0999C9.31019 12.5399 9.16019 12.9699 8.94019 13.3699" stroke="#010101" stroke-width="0.25" stroke-miterlimit="10"/>
<path d="M9.92001 19.1098C14.8409 19.1098 18.83 15.1251 18.83 10.2098C18.83 5.29448 14.8409 1.30981 9.92001 1.30981C4.99915 1.30981 1.01001 5.29448 1.01001 10.2098C1.01001 15.1251 4.99915 19.1098 9.92001 19.1098Z" stroke="#010101" stroke-width="0.25" stroke-miterlimit="10"/>
<path d="M9.92022 12.16C10.9972 12.16 11.8702 11.287 11.8702 10.21C11.8702 9.13305 10.9972 8.26001 9.92022 8.26001C8.84326 8.26001 7.97021 9.13305 7.97021 10.21C7.97021 11.287 8.84326 12.16 9.92022 12.16Z" stroke="#010101" stroke-width="0.25" stroke-miterlimit="10"/>
<path d="M19.4302 10.22H19.5302" stroke="#010101" stroke-width="0.25" stroke-miterlimit="10"/>
<path d="M19.4302 10.22C19.4302 10.42 19.4302 10.64 19.4302 10.62" stroke="#010101" stroke-width="0.25" stroke-miterlimit="10"/>
<path d="M19.5301 10.2199C19.5301 9.50989 19.5301 8.78989 19.5301 8.07989C19.5301 7.71989 19.5301 7.35989 19.5301 7.00989C19.5301 6.65989 19.5301 6.29989 19.5301 5.92989C19.5301 5.88989 19.5301 5.85989 19.5301 5.81989C19.5301 5.77989 19.5101 5.73989 19.4901 5.69989C19.4701 5.65989 19.4501 5.61989 19.4301 5.58989C19.4101 5.55989 19.3801 5.52989 19.3601 5.50989C18.9001 5.05989 18.4501 4.62989 18.0001 4.19989C17.5501 3.76989 17.1001 3.32989 16.6501 2.89989C16.2001 2.46989 15.7501 2.02989 15.3001 1.59989C14.8501 1.16989 14.4101 0.739893 13.9401 0.289893C13.9201 0.269893 13.8901 0.239893 13.8601 0.219893C13.8301 0.199893 13.7901 0.179893 13.7601 0.169893C13.7201 0.159893 13.6801 0.139893 13.6501 0.139893C13.6101 0.139893 13.5801 0.139893 13.5501 0.139893C12.9301 0.139893 12.3401 0.139893 11.7401 0.139893C11.1401 0.139893 10.5401 0.139893 9.9401 0.139893C9.3401 0.139893 8.7401 0.139893 8.1401 0.139893C7.5401 0.139893 6.9501 0.139893 6.3301 0.139893C6.3001 0.139893 6.2601 0.139893 6.2301 0.139893C6.1901 0.139893 6.1601 0.159893 6.1201 0.169893C6.0801 0.179893 6.0501 0.199893 6.0201 0.219893C5.9901 0.239893 5.9701 0.259893 5.9401 0.289893C5.4701 0.729893 5.0301 1.15989 4.5801 1.59989C4.1301 2.02989 3.6801 2.46989 3.2301 2.89989C2.7801 3.32989 2.3301 3.76989 1.8801 4.19989C1.4301 4.62989 0.980098 5.05989 0.520098 5.50989C0.500098 5.52989 0.470098 5.55989 0.450098 5.58989C0.430098 5.61989 0.410098 5.65989 0.390098 5.69989C0.370098 5.73989 0.360098 5.77989 0.350098 5.81989C0.350098 5.85989 0.350098 5.88989 0.350098 5.92989C0.350098 6.29989 0.350098 6.65989 0.350098 7.00989C0.350098 7.35989 0.350098 7.71989 0.350098 8.07989C0.350098 8.79989 0.350098 9.50989 0.350098 10.2199" stroke="#010101" stroke-width="0.25" stroke-miterlimit="10"/>
<path d="M19.55 10.2898H19.6101" stroke="#010101" stroke-width="0.25" stroke-miterlimit="10"/>
<path d="M19.55 10.3499V10.1399" stroke="#010101" stroke-width="0.25" stroke-miterlimit="10"/>
<path d="M19.55 10.1398V10.0898" stroke="#010101" stroke-width="0.25" stroke-miterlimit="10"/>
<path d="M0.290039 10.3499V10.1399" stroke="#010101" stroke-width="0.25" stroke-miterlimit="10"/>
<path d="M19.6101 10.1399V10.2099" stroke="#010101" stroke-width="0.25" stroke-miterlimit="10"/>
<path d="M19.55 10.22H19.6101" stroke="#010101" stroke-width="0.25" stroke-miterlimit="10"/>
<path d="M19.55 10.1099H19.6101" stroke="#010101" stroke-width="0.25" stroke-miterlimit="10"/>
<path d="M19.6101 10.1099V10.1299" stroke="#010101" stroke-width="0.25" stroke-miterlimit="10"/>
<path d="M0.240234 10.1399V10.1099" stroke="#010101" stroke-width="0.25" stroke-miterlimit="10"/>
<path d="M19.53 10.0898H19.56" stroke="#010101" stroke-width="0.25" stroke-miterlimit="10"/>
<path d="M0.290234 10.1399H0.240234" stroke="#010101" stroke-width="0.25" stroke-miterlimit="10"/>
<path d="M19.6101 10.1199H19.6301" stroke="#010101" stroke-width="0.25" stroke-miterlimit="10"/>
<path d="M19.6301 10.31C19.6301 10.31 19.6301 10.26 19.6301 10.22C19.6301 10.18 19.6301 10.12 19.6301 10.13" stroke="#010101" stroke-width="0.25" stroke-miterlimit="10"/>
<path d="M19.6101 10.1299V10.1499" stroke="#010101" stroke-width="0.25" stroke-miterlimit="10"/>
<path d="M19.6301 10.3098H19.6101" stroke="#010101" stroke-width="0.25" stroke-miterlimit="10"/>
<path d="M0.240234 10.29V10.22" stroke="#010101" stroke-width="0.25" stroke-miterlimit="10"/>
<path d="M0.220117 10.31C0.170117 10.31 0.130117 10.27 0.120117 10.22" stroke="#010101" stroke-width="0.25" stroke-miterlimit="10"/>
<path d="M0.220215 10.1199H0.240215" stroke="#010101" stroke-width="0.25" stroke-miterlimit="10"/>
<path d="M0.120117 10.2199C0.120117 10.1699 0.170117 10.1299 0.220117 10.1299" stroke="#010101" stroke-width="0.25" stroke-miterlimit="10"/>
<path d="M0.290225 10.22H0.230225" stroke="#010101" stroke-width="0.25" stroke-miterlimit="10"/>
<path d="M19.7201 10.22C19.7201 10.27 19.6701 10.31 19.6201 10.31" stroke="#010101" stroke-width="0.25" stroke-miterlimit="10"/>
<path d="M19.6301 10.1199C19.6801 10.1199 19.7201 10.1599 19.7301 10.2099" stroke="#010101" stroke-width="0.25" stroke-miterlimit="10"/>
<path d="M0.290225 10.2898H0.230225" stroke="#010101" stroke-width="0.25" stroke-miterlimit="10"/>
<path d="M19.4302 10.22C19.4302 9.51 19.4302 8.79 19.4302 8.08C19.4302 7.72 19.4302 7.37 19.4302 7.01C19.4302 6.65 19.4302 6.3 19.4302 5.94C19.4302 5.91 19.4302 5.87 19.4302 5.84C19.4302 5.81 19.4102 5.77 19.4002 5.74C19.3902 5.71 19.3702 5.68 19.3502 5.65C19.3302 5.62 19.3102 5.6 19.2802 5.58C18.8302 5.14 18.3802 4.71 17.9302 4.28C17.4802 3.85 17.0302 3.41 16.5802 2.98C16.1302 2.55 15.6802 2.11 15.2302 1.68C14.7802 1.25 14.3302 0.81 13.8802 0.38C13.8602 0.36 13.8302 0.34 13.8102 0.32C13.7902 0.3 13.7502 0.29 13.7202 0.28C13.6902 0.27 13.6602 0.26 13.6302 0.25C13.6002 0.25 13.5702 0.25 13.5302 0.25C12.9302 0.25 12.3302 0.25 11.7302 0.25C11.1302 0.25 10.5302 0.25 9.93018 0.25C9.33018 0.25 8.73018 0.25 8.13018 0.25C7.53018 0.25 6.93018 0.25 6.33018 0.25C6.30018 0.25 6.27018 0.25 6.23018 0.25C6.20018 0.25 6.17018 0.27 6.14018 0.28C6.11018 0.29 6.08018 0.31 6.05018 0.32C6.02018 0.34 6.00018 0.36 5.98018 0.38C5.53018 0.81 5.08018 1.24 4.63018 1.68C4.18018 2.11 3.73018 2.55 3.28018 2.98C2.83018 3.41 2.38018 3.85 1.93018 4.28C1.48018 4.71 1.03018 5.15 0.580176 5.58C0.560176 5.6 0.530176 5.63 0.510176 5.65C0.490176 5.68 0.470176 5.71 0.460176 5.74C0.450176 5.77 0.440176 5.8 0.430176 5.84C0.430176 5.87 0.430176 5.91 0.430176 5.94C0.430176 6.3 0.430176 6.65 0.430176 7.01C0.430176 7.37 0.430176 7.72 0.430176 8.08C0.430176 8.79 0.430176 9.51 0.430176 10.22" stroke="#010101" stroke-width="0.25" stroke-miterlimit="10"/>
<path d="M0.290225 10.3198H0.230225" stroke="#010101" stroke-width="0.25" stroke-miterlimit="10"/>
<path d="M19.5601 10.1399H19.6101" stroke="#010101" stroke-width="0.25" stroke-miterlimit="10"/>
<path d="M19.6101 10.2898V10.3198" stroke="#010101" stroke-width="0.25" stroke-miterlimit="10"/>
<path d="M0.290234 10.1099H0.240234" stroke="#010101" stroke-width="0.25" stroke-miterlimit="10"/>
<path d="M0.290039 10.1398V10.0898" stroke="#010101" stroke-width="0.25" stroke-miterlimit="10"/>
<path d="M0.240215 10.3098H0.220215" stroke="#010101" stroke-width="0.25" stroke-miterlimit="10"/>
<path d="M0.290039 10.0898H0.320039" stroke="#010101" stroke-width="0.25" stroke-miterlimit="10"/>
<path d="M19.55 10.3198H19.6101" stroke="#010101" stroke-width="0.25" stroke-miterlimit="10"/>
<path d="M19.6101 10.22V10.29" stroke="#010101" stroke-width="0.25" stroke-miterlimit="10"/>
<path d="M2.96013 7.61987C2.94013 7.69987 2.93013 7.78987 2.91013 7.86987C2.89013 7.98987 2.88013 8.10987 2.88013 8.22987C2.88013 8.34987 2.88013 8.45987 2.88013 8.57987C2.88013 8.68987 2.91013 8.80987 2.93013 8.91987C2.96013 9.02987 2.99013 9.14987 3.04013 9.26987C3.08013 9.37987 3.14013 9.46987 3.19013 9.56987C3.25013 9.65987 3.31013 9.74987 3.38013 9.82987C3.45013 9.90987 3.52013 9.98987 3.59013 10.0699C3.67013 10.1499 3.75013 10.2199 3.83013 10.2999C4.02013 10.4599 4.20013 10.6099 4.38013 10.7299C4.57013 10.8499 4.76013 10.9599 4.96013 11.0399C5.11013 11.0999 5.26013 11.1399 5.41013 11.1799" stroke="#010101" stroke-width="0.25" stroke-miterlimit="10"/>
<path d="M7.35009 3.36987C7.35009 3.36987 7.35009 3.36987 7.34009 3.36987" stroke="#010101" stroke-width="0.25" stroke-miterlimit="10"/>
<path d="M16.3002 6.22999C16.1102 5.95999 15.9002 5.70999 15.6602 5.48999" stroke="#010101" stroke-width="0.25" stroke-miterlimit="10"/>
<path d="M5.27002 15.8799C5.27002 15.8799 5.27002 15.9499 5.28002 15.9799C5.29002 16.0399 5.32002 16.0999 5.35002 16.1499C5.38002 16.1999 5.42002 16.2599 5.46002 16.2999C5.50002 16.3499 5.54002 16.3899 5.58002 16.4199C5.62002 16.4599 5.67002 16.4999 5.71002 16.5299C5.76002 16.5599 5.80002 16.5999 5.85002 16.6299C5.90002 16.6599 5.95002 16.6899 5.99002 16.7199C6.04002 16.7499 6.09002 16.7799 6.14002 16.8099C6.34002 16.9299 6.55002 17.0299 6.75002 17.1299C6.96002 17.2199 7.16002 17.3099 7.37002 17.3799C7.58002 17.4499 7.79002 17.5199 8.01002 17.5699C8.23002 17.6199 8.45002 17.6599 8.69002 17.6899C8.90002 17.7199 9.12002 17.7399 9.35002 17.7399C9.58002 17.7399 9.81002 17.7399 10.04 17.7299C10.08 17.7299 10.13 17.7299 10.17 17.7199" stroke="#010101" stroke-width="0.25" stroke-miterlimit="10"/>
<path d="M9.92015 19.2199C14.9018 19.2199 18.9401 15.186 18.9401 10.21C18.9401 5.23387 14.9018 1.19995 9.92015 1.19995C4.93854 1.19995 0.900146 5.23387 0.900146 10.21C0.900146 15.186 4.93854 19.2199 9.92015 19.2199Z" stroke="#010101" stroke-width="0.25" stroke-miterlimit="10"/>
<path d="M11.3602 5.85986C11.3602 5.85986 11.2802 5.94986 11.2402 5.99986C11.1002 6.16986 10.9702 6.36986 10.8502 6.58986C10.7402 6.79986 10.6502 7.00986 10.5702 7.21986C10.4902 7.42986 10.4202 7.63986 10.3502 7.85986C10.3102 7.99986 10.2702 8.14986 10.2402 8.28986" stroke="#010101" stroke-width="0.25" stroke-miterlimit="10"/>
<path d="M13.1501 9.48999C13.3201 9.48999 13.4801 9.48999 13.6501 9.51999C13.9001 9.54999 14.1301 9.60999 14.3401 9.68999C14.5501 9.76999 14.7501 9.86999 14.9301 9.98999C15.1201 10.11 15.2901 10.24 15.4701 10.38C15.6401 10.52 15.8201 10.67 15.9901 10.83C16.0401 10.88 16.1101 10.94 16.2001 11.02C16.2901 11.09 16.3801 11.17 16.4801 11.25C16.5801 11.32 16.6901 11.38 16.7901 11.42C16.9001 11.46 17.0001 11.47 17.0901 11.44C17.1101 11.44 17.1301 11.43 17.1401 11.42" stroke="#010101" stroke-width="0.25" stroke-miterlimit="10"/>
<path d="M11.1501 17.5399C11.2301 17.5099 11.3101 17.4899 11.3901 17.4599C11.5101 17.4099 11.6101 17.3599 11.7201 17.3099C11.8201 17.2599 11.9201 17.1999 12.0201 17.1299C12.1101 17.0599 12.2001 16.9899 12.2901 16.9099C12.3801 16.8299 12.4601 16.7399 12.5401 16.6399C12.6101 16.5499 12.6701 16.4599 12.7201 16.3599C12.7701 16.2599 12.8201 16.1699 12.8501 16.0699C12.8901 15.9699 12.9201 15.8699 12.9501 15.7699C12.9801 15.6699 13.0001 15.5599 13.0301 15.4499C13.0801 15.2099 13.1101 14.9799 13.1301 14.7499C13.1401 14.5299 13.1301 14.3099 13.1101 14.0999C13.0901 13.9499 13.0501 13.7899 13.0001 13.6399" stroke="#010101" stroke-width="0.25" stroke-miterlimit="10"/>
<path d="M12.9902 13.64C12.9702 13.58 12.9502 13.53 12.9302 13.47C12.8502 13.26 12.7402 13.05 12.6102 12.84C12.4902 12.64 12.3502 12.46 12.2102 12.28C12.0702 12.1 11.9202 11.94 11.7702 11.77C11.6702 11.66 11.5602 11.56 11.4502 11.45" stroke="#010101" stroke-width="0.25" stroke-miterlimit="10"/>
<path d="M8.94001 13.3699C8.86001 13.5199 8.77001 13.6599 8.67001 13.7899C8.51001 13.9899 8.35001 14.1599 8.17001 14.2999C7.99001 14.4399 7.81001 14.5599 7.61001 14.6599C7.42001 14.7599 7.21001 14.8499 7.01001 14.9299C6.81001 15.0099 6.58001 15.0799 6.36001 15.1599C6.29001 15.1799 6.20001 15.2099 6.09001 15.2499C5.98001 15.2899 5.86001 15.3299 5.75001 15.3799C5.64001 15.4299 5.53001 15.4899 5.44001 15.5699C5.36001 15.6399 5.29001 15.7299 5.27001 15.8199C5.27001 15.8399 5.27001 15.8599 5.26001 15.8699" stroke="#010101" stroke-width="0.25" stroke-miterlimit="10"/>
<path d="M7.33002 3.35981C7.33002 3.35981 7.28002 3.32981 7.25002 3.32981C7.19002 3.30981 7.13002 3.30981 7.07002 3.30981C7.01002 3.30981 6.94002 3.30981 6.88002 3.32981C6.82002 3.33981 6.76002 3.35981 6.72002 3.36981C6.66002 3.38981 6.61002 3.40981 6.56002 3.42981C6.51002 3.44981 6.46002 3.47981 6.40002 3.49981C6.35002 3.52981 6.30002 3.54981 6.25002 3.57981C6.20002 3.60981 6.15002 3.62981 6.10002 3.65981C5.90002 3.77981 5.70002 3.89981 5.52002 4.02981C5.34002 4.15981 5.16002 4.29981 4.99002 4.43981C4.82002 4.57981 4.66002 4.73981 4.50002 4.89981C4.34002 5.05981 4.20002 5.23981 4.05002 5.41981C3.92002 5.58981 3.79002 5.76981 3.67002 5.96981C3.55002 6.15981 3.44002 6.36981 3.33002 6.56981C3.31002 6.60981 3.29002 6.64981 3.27002 6.68981" stroke="#010101" stroke-width="0.25" stroke-miterlimit="10"/>
<path d="M5.43018 11.1599C5.49018 11.1699 5.55018 11.1799 5.61018 11.1899C5.83018 11.2199 6.06018 11.2399 6.32018 11.2299C6.55018 11.2299 6.78018 11.1999 7.01018 11.1599C7.23018 11.1299 7.45018 11.0799 7.67018 11.0299C7.82018 10.9899 7.96018 10.9499 8.11018 10.9099" stroke="#010101" stroke-width="0.25" stroke-miterlimit="10"/>
<path d="M5.27002 15.8699C5.27002 15.8699 5.27002 15.8699 5.27002 15.8799" stroke="#010101" stroke-width="0.25" stroke-miterlimit="10"/>
<path d="M7.68016 7.78987C7.59016 7.64987 7.52016 7.49987 7.45016 7.33987C7.35016 7.10987 7.29017 6.87987 7.26017 6.65987C7.22017 6.43987 7.22016 6.21987 7.23016 5.99987C7.24016 5.77987 7.26017 5.55987 7.30017 5.33987C7.34017 5.11987 7.38016 4.88987 7.43016 4.66987C7.44016 4.59987 7.46016 4.50987 7.49016 4.39987C7.51016 4.28987 7.53016 4.16987 7.54016 4.03987C7.55016 3.91987 7.55016 3.78987 7.54016 3.67987C7.52016 3.56987 7.47016 3.46987 7.41016 3.40987C7.39016 3.39987 7.38016 3.37987 7.37016 3.36987" stroke="#010101" stroke-width="0.25" stroke-miterlimit="10"/>
<path d="M17.16 11.41C17.16 11.41 17.21 11.37 17.24 11.35C17.29 11.31 17.32 11.26 17.35 11.2C17.38 11.15 17.41 11.08 17.43 11.03C17.45 10.97 17.46 10.92 17.47 10.87C17.48 10.81 17.49 10.76 17.5 10.7C17.5 10.64 17.51 10.59 17.52 10.53C17.52 10.47 17.52 10.42 17.52 10.36C17.52 10.3 17.52 10.25 17.52 10.19C17.52 9.95999 17.51 9.72999 17.49 9.49999C17.47 9.27999 17.44 9.04999 17.4 8.83999C17.36 8.61999 17.31 8.39999 17.24 8.18999C17.18 7.96999 17.1 7.75999 17.01 7.53999C16.93 7.33999 16.83 7.13999 16.73 6.93999C16.62 6.73999 16.5 6.53999 16.37 6.34999C16.35 6.30999 16.32 6.27999 16.29 6.23999" stroke="#010101" stroke-width="0.25" stroke-miterlimit="10"/>
<path d="M8.57019 8.81979C8.22019 8.52979 7.93019 8.17979 7.69019 7.78979" stroke="#010101" stroke-width="0.25" stroke-miterlimit="10"/>
<path d="M19.53 10.22C19.53 10.42 19.53 10.64 19.53 10.62" stroke="#010101" stroke-width="0.25" stroke-miterlimit="10"/>
<path d="M3.28021 6.69995C3.14021 6.99995 3.03021 7.29995 2.96021 7.61995" stroke="#010101" stroke-width="0.25" stroke-miterlimit="10"/>
<path d="M8.3501 8.6098C8.8701 8.0998 9.6001 7.86981 10.3101 7.99981" stroke="#010101" stroke-width="0.25" stroke-miterlimit="10"/>
<path d="M9.92017 11.46C10.6105 11.46 11.1702 10.9003 11.1702 10.21C11.1702 9.5196 10.6105 8.95996 9.92017 8.95996C9.22981 8.95996 8.67017 9.5196 8.67017 10.21C8.67017 10.9003 9.22981 11.46 9.92017 11.46Z" stroke="#010101" stroke-width="0.25" stroke-miterlimit="10"/>
<path d="M9.92001 11.6198C10.6987 11.6198 11.33 10.9885 11.33 10.2098C11.33 9.43108 10.6987 8.7998 9.92001 8.7998C9.14129 8.7998 8.51001 9.43108 8.51001 10.2098C8.51001 10.9885 9.14129 11.6198 9.92001 11.6198Z" stroke="#010101" stroke-width="0.25" stroke-miterlimit="10"/>
<path d="M9.32006 12.38C8.62006 12.19 8.06006 11.67 7.81006 10.99" stroke="#010101" stroke-width="0.25" stroke-miterlimit="10"/>
<path d="M12.1001 9.6499C12.2801 10.3499 12.1101 11.0999 11.6501 11.6499" stroke="#010101" stroke-width="0.25" stroke-miterlimit="10"/>
<path d="M0.470166 10.52C0.470166 10.52 0.420166 10.5 0.420166 10.47" stroke="#010101" stroke-width="0.25" stroke-miterlimit="10"/>
<path d="M19.1201 10.5198H19.3801" stroke="#010101" stroke-width="0.25" stroke-miterlimit="10"/>
<path d="M0.730215 10.5198H0.470215" stroke="#010101" stroke-width="0.25" stroke-miterlimit="10"/>
<path d="M19.4301 9.95991C19.4301 9.95991 19.4101 9.90991 19.3801 9.90991" stroke="#010101" stroke-width="0.25" stroke-miterlimit="10"/>
<path d="M19.3801 10.52C19.3801 10.52 19.4301 10.5 19.4301 10.47" stroke="#010101" stroke-width="0.25" stroke-miterlimit="10"/>
<path d="M19.3801 9.90991H19.1001" stroke="#010101" stroke-width="0.25" stroke-miterlimit="10"/>
<path d="M0.420166 10.47V10.22" stroke="#010101" stroke-width="0.25" stroke-miterlimit="10"/>
<path d="M0.470215 9.90991H0.750215" stroke="#010101" stroke-width="0.25" stroke-miterlimit="10"/>
<path d="M0.420166 9.95991C0.420166 9.95991 0.440166 9.90991 0.470166 9.90991" stroke="#010101" stroke-width="0.25" stroke-miterlimit="10"/>
</g>
<defs>
<clipPath id="clip0_1375_19591">
<rect width="19.85" height="19.53" fill="white"/>
</clipPath>
</defs>
</svg>
