<?xml version="1.0" encoding="UTF-8"?>
<svg id="Layer_1" data-name="Layer 1" xmlns="http://www.w3.org/2000/svg" width="8.95" height="5.45" viewBox="0 0 8.95 5.45">
  <defs>
    <style>
      .cls-1 {
        fill: #fff;
      }

      .cls-2 {
        fill: none;
        stroke: #010101;
        stroke-linecap: round;
        stroke-linejoin: round;
        stroke-width: .25px;
      }
    </style>
  </defs>
  <rect class="cls-1" y="0" width="8.94" height="5.44"/>
  <g id="Make2D">
    <g id="Make2D::Visible">
      <g id="Make2D::Visible::Curves">
        <path class="cls-2" d="m4.41.21s0,0,0,0"/>
        <path class="cls-2" d="m4.37.35v.16"/>
        <path class="cls-2" d="m4.37.34s0,0,0,0"/>
        <path class="cls-2" d="m4.68.34s0,0,0,0"/>
        <path class="cls-2" d="m4.68.32v.02"/>
        <path class="cls-2" d="m4.68.32s0,0,0,0"/>
        <path class="cls-2" d="m4.68.31s0,0,0,0"/>
        <path class="cls-2" d="m4.57.31h.11"/>
        <path class="cls-2" d="m4.38.32s0,0,0,0"/>
        <path class="cls-2" d="m4.38.34v-.02"/>
        <path class="cls-2" d="m4.38.34s0,0,0,0"/>
        <path class="cls-2" d="m4.71.34h-.13"/>
        <path class="cls-2" d="m4.71.35s0,0,0,0"/>
        <path class="cls-2" d="m4.71.44v-.09"/>
        <path class="cls-2" d="m4.71.51v-.08"/>
        <path class="cls-2" d="m4.24.44s-.06,0-.09.01"/>
        <path class="cls-2" d="m4.24.35v.09"/>
        <path class="cls-2" d="m4.24.34s0,0,0,0"/>
        <path class="cls-2" d="m4.37.34h-.13"/>
        <path class="cls-2" d="m4.58.34h-.21"/>
        <path class="cls-2" d="m4.58.35s0,0,0,0"/>
        <path class="cls-2" d="m4.58.35s0,0,0,0"/>
        <path class="cls-2" d="m4.58.5v-.16"/>
        <path class="cls-2" d="m4.71.51s.02,0,.03,0"/>
        <path class="cls-2" d="m4.47.5c.08,0,.16,0,.24.01"/>
        <path class="cls-2" d="m4.21.52c.09,0,.18-.01.27-.01"/>
        <path class="cls-2" d="m4.6.18s0,0,0,0"/>
        <path class="cls-2" d="m4.6.15v.03"/>
        <path class="cls-2" d="m4.59.15s0,0,0,0"/>
        <path class="cls-2" d="m4.53.15h.07"/>
        <path class="cls-2" d="m4.32.31s0,0,0,0"/>
        <path class="cls-2" d="m4.32.21v.1"/>
        <path class="cls-2" d="m4.32.21s0,0,0,0"/>
        <path class="cls-2" d="m4.41.21h-.09"/>
        <path class="cls-2" d="m4.54.21h-.14"/>
        <path class="cls-2" d="m4.55.21s0,0,0,0"/>
        <path class="cls-2" d="m4.55.31v-.1"/>
        <path class="cls-2" d="m4.55.31s0,0,0,0"/>
        <path class="cls-2" d="m4.55.31s0,0,0,0"/>
        <path class="cls-2" d="m4.57.34s0,0,0,0"/>
        <path class="cls-2" d="m4.57.32v.02"/>
        <path class="cls-2" d="m4.57.31s0,0,0,0"/>
        <path class="cls-2" d="m4.38.31h.18"/>
        <path class="cls-2" d="m4.31.31h.07"/>
        <path class="cls-2" d="m4.27.31h.04"/>
        <path class="cls-2" d="m4.27.32s0,0,0,0"/>
        <path class="cls-2" d="m4.27.34v-.02"/>
        <path class="cls-2" d="m4.26.34s0,0,0,0"/>
        <path class="cls-2" d="m4.63.31s0,0,0,0"/>
        <path class="cls-2" d="m4.63.21v.1"/>
        <path class="cls-2" d="m4.63.21s0,0,0,0"/>
        <path class="cls-2" d="m4.63.21s0,0,0,0"/>
        <path class="cls-2" d="m4.54.21h.09"/>
        <path class="cls-2" d="m4.43.14s0,0,0,0"/>
        <path class="cls-2" d="m4.43.13h0"/>
        <path class="cls-2" d="m4.44.12s0,0,0,0"/>
        <path class="cls-2" d="m4.34.2s0,0,0,0"/>
        <path class="cls-2" d="m4.34.19h0"/>
        <path class="cls-2" d="m4.34.18s0,0,0,0"/>
        <path class="cls-2" d="m4.34.18s0,0,0,0"/>
        <path class="cls-2" d="m4.42.18h-.07"/>
        <path class="cls-2" d="m4.42.18s0,0,0,0"/>
        <path class="cls-2" d="m4.42.15v.03"/>
        <path class="cls-2" d="m4.42.15s0,0,0,0"/>
        <path class="cls-2" d="m4.53.15h-.1"/>
        <path class="cls-2" d="m4.53.15s0,0,0,0"/>
        <path class="cls-2" d="m4.53.15s0,0,0,0"/>
        <path class="cls-2" d="m4.53.18v-.03"/>
        <path class="cls-2" d="m4.53.18s0,0,0,0"/>
        <path class="cls-2" d="m4.54.19s0,0,0,0"/>
        <path class="cls-2" d="m4.54.19s0,0,0,0"/>
        <path class="cls-2" d="m4.54.2h0"/>
        <path class="cls-2" d="m4.54.21s0,0,0,0"/>
        <path class="cls-2" d="m4.52.14s0,0,0,0"/>
        <path class="cls-2" d="m4.52.14s0,0,0,0"/>
        <path class="cls-2" d="m4.52.13h0"/>
        <path class="cls-2" d="m4.51.12s0,0,0,0"/>
        <path class="cls-2" d="m4.56.14s0,0,0,0"/>
        <path class="cls-2" d="m4.56.13h0"/>
        <path class="cls-2" d="m4.56.12s0,0,0,0"/>
        <path class="cls-2" d="m4.51.12h.05"/>
        <path class="cls-2" d="m4.44.12h.08"/>
        <path class="cls-2" d="m4.39.12h.05"/>
        <path class="cls-2" d="m4.39.13s0,0,0,0"/>
        <path class="cls-2" d="m4.39.14h0"/>
        <path class="cls-2" d="m4.38.15s0,0,0,0"/>
        <path class="cls-2" d="m4.36.15h.07"/>
        <path class="cls-2" d="m4.35.15s0,0,0,0"/>
        <path class="cls-2" d="m4.35.18v-.03"/>
        <path class="cls-2" d="m4.35.18s0,0,0,0"/>
        <path class="cls-2" d="m4.61.2s0,0,0,0"/>
        <path class="cls-2" d="m4.61.19h0"/>
        <path class="cls-2" d="m4.61.18s0,0,0,0"/>
        <path class="cls-2" d="m4.53.18h.07"/>
        <path class="cls-2" d="m4.42.18h.12"/>
        <path class="cls-2" d="m4.41.19s0,0,0,0"/>
        <path class="cls-2" d="m4.41.2h0"/>
        <path class="cls-2" d="m4.41.21s0,0,0,0"/>
        <path class="cls-2" d="m3.79.6s.05.03.07.05c.03.02.05.05.07.08,0,.01.02.03.03.04,0,.02.02.03.02.05.02.06.03.12.04.18.01.1.02.2.03.3.01.14.01.29.01.43,0,.1,0,.21-.01.31,0,.07-.01.15-.02.22,0,.06-.01.11-.03.17,0,.04-.02.09-.04.13-.02.05-.04.1-.08.14-.02.02-.03.04-.05.06-.02.02-.04.03-.07.05-.06.04-.14.06-.21.07-.12.03-.25.04-.38.04-.28.02-.56.02-.85.02-.29,0-.59,0-.88-.02-.14,0-.28-.02-.42-.04-.05,0-.1-.02-.15-.03-.04-.01-.08-.02-.11-.04,0,0,0,0-.01,0-.02-.01-.04-.02-.06-.04-.02-.02-.04-.03-.05-.05-.03-.04-.06-.08-.08-.13-.01-.02-.02-.05-.03-.08,0-.03-.01-.06-.02-.09-.02-.1-.03-.19-.03-.29,0-.1-.02-.2-.02-.3,0-.12,0-.23,0-.35,0-.11.01-.22.02-.33,0-.07.02-.14.03-.2,0-.03.01-.07.02-.1,0-.02.01-.04.02-.06,0-.02.01-.03.02-.04,0-.01.02-.03.03-.04.01-.02.03-.04.05-.05.02-.02.04-.03.06-.04.04-.02.08-.04.13-.05.08-.02.16-.04.23-.05.19-.03.38-.05.58-.06.26-.01.51-.01.77,0,.26,0,.52.02.79.04.12,0,.23.02.34.04.07.01.13.03.19.05,0,0,.02,0,.03.01Z"/>
        <path class="cls-2" d="m5.16.6s-.05.03-.07.05c-.03.02-.05.05-.07.08,0,.01-.02.03-.03.04,0,.02-.02.03-.02.05-.02.06-.03.12-.04.18-.01.1-.02.2-.03.3-.01.14-.01.29-.01.43,0,.1,0,.21.01.31,0,.07.01.15.02.22,0,.06.01.11.03.17,0,.04.02.09.04.13.02.05.04.1.08.14.02.02.03.04.05.06.02.02.04.03.07.05.06.04.14.06.21.07.12.03.25.04.38.04.28.02.56.02.85.02.29,0,.59,0,.88-.02.14,0,.28-.02.42-.04.05,0,.1-.02.15-.03.04-.01.08-.02.11-.04,0,0,0,0,.01,0,.02-.01.04-.02.06-.04.02-.02.04-.03.05-.05.03-.04.06-.08.08-.13.01-.02.02-.05.03-.08,0-.03.01-.06.02-.09.02-.1.03-.19.03-.29,0-.1.02-.2.02-.3,0-.12,0-.23,0-.35,0-.11-.01-.22-.02-.33,0-.07-.02-.14-.03-.2,0-.03-.01-.07-.02-.1,0-.02-.01-.04-.02-.06,0-.02-.01-.03-.02-.04,0-.01-.02-.03-.03-.04-.01-.02-.03-.04-.05-.05-.02-.02-.04-.03-.06-.04-.04-.02-.08-.04-.13-.05-.08-.02-.16-.04-.23-.05-.19-.03-.38-.05-.58-.06-.26-.01-.51-.01-.77,0-.26,0-.52.02-.79.04-.12,0-.23.02-.34.04-.07.01-.13.03-.19.05,0,0-.02,0-.03.01Z"/>
        <path class="cls-2" d="m2.17,3.28c.06.31.18.61.36.88,0,0,.04-.03.08-.05.01.01.02.03.04.04.02.03.05.05.07.07.02.02.04.03.05.05.02.01.04.03.06.04,0,0,0,0,0,0,.02,0,.03.01.05.02.02,0,.03,0,.05,0,.01,0,.02,0,.03,0,.01,0,.02,0,.03,0,0,0,.01,0,.02,0,0,0,0,0,.01,0,0,0,0,0,.01,0,0,0,.02-.02.03-.02s.02-.02.02-.03c.01-.01.02-.03.03-.04,0-.02.02-.03.03-.05.02-.04.03-.07.05-.11.02-.04.03-.09.04-.13,0-.05.02-.09.02-.14.01-.12.02-.23.03-.35,0-.06,0-.12.01-.18"/>
        <path class="cls-2" d="m8.24,2.98s-.05.02-.08.03c-.04.01-.07.02-.11.03-.04,0-.07.02-.11.02-.04,0-.07.01-.11.02-.04,0-.07,0-.11.01-.09,0-.18.01-.27.02-.09,0-.18,0-.27.01-.1,0-.2,0-.3,0-.1,0-.2,0-.3,0-.1,0-.21,0-.31,0-.1,0-.21,0-.31,0-.17,0-.35-.02-.52-.04-.06,0-.12-.02-.18-.04-.05-.01-.09-.03-.14-.05-.01,0-.02-.01-.03-.02-.04-.02-.08-.05-.11-.09-.03-.03-.06-.07-.09-.11-.05-.07-.08-.16-.1-.24-.03-.1-.04-.2-.05-.3-.03-.29-.03-.59-.01-.88,0-.13.02-.26.04-.39.01-.08.03-.16.06-.23,0,0,0-.01,0-.02.04-.08.1-.15.17-.2.03-.02.07-.05.11-.06.1-.04.2-.06.31-.07.07-.01.15-.02.22-.02.08,0,.15-.01.23-.02.09,0,.18-.01.26-.01.09,0,.18,0,.26-.01.09,0,.18,0,.26,0,.09,0,.18,0,.26,0,.15,0,.3,0,.45.01.08,0,.15.01.23.02.08,0,.15.02.23.03.03,0,.05,0,.08.01.03,0,.05,0,.08.01.03,0,.05.01.08.02s.05.01.08.02c.05.01.1.03.15.06.02.01.04.02.06.03.02.02.05.04.07.06.02.02.04.04.06.07,0,.01.02.02.02.04,0,.01.01.03.02.04,0,.01.01.03.02.04,0,.01.01.03.02.05.01.05.03.09.03.14,0,.05.02.1.02.14,0,.07.02.14.02.22,0,.07,0,.14.01.22,0,.08,0,.15,0,.23,0,.08,0,.15,0,.23,0,.03,0,.06,0,.1,0,.03,0,.06,0,.1,0,.06-.01.13-.02.19,0,.02,0,.05,0,.07,0,.02,0,.05-.01.07,0,.02,0,.05-.02.07,0,.02-.01.04-.02.07-.01.04-.03.07-.04.1-.06.12-.15.21-.27.27"/>
        <path class="cls-2" d="m4.95.82s.01-.03.02-.04c0,0,0,0,0,0,0,0,0,0,0,0,0-.01.01-.02.02-.03,0,0,0,0,0,0,.02-.02.03-.05.05-.07.01-.01.03-.03.05-.04.02-.02.05-.03.07-.04.02,0,.04-.02.07-.02.04-.01.09-.02.13-.03.12-.02.23-.03.35-.04.26-.02.52-.03.79-.04.26,0,.51-.01.77,0,.11,0,.23.02.34.03.08,0,.16.02.24.03.08.01.16.03.24.05.04.01.08.02.11.04,0,0,0,0,0,0,.11.06.18.16.2.28,0,.03.01.06.02.09.02.1.03.19.04.29,0,.05,0,.09.01.14,0,.04,0,.07,0,.11,0,.12,0,.23,0,.35,0,.1-.01.2-.02.3,0,.05,0,.1-.01.15,0,.05-.01.1-.02.15,0,0,0,.01,0,.02,0,.02,0,.04-.01.06-.01.04-.03.09-.05.13-.04.09-.12.17-.22.2-.09.03-.18.06-.28.07-.02,0-.05,0-.07,0-.03,0-.07,0-.1.01-.07,0-.14.01-.21.02-.15,0-.29.01-.44.02-.11,0-.22,0-.32,0-.33,0-.67,0-1-.03-.06,0-.13-.01-.19-.02-.09-.01-.19-.03-.28-.06-.03,0-.05-.02-.08-.03-.04-.02-.08-.05-.11-.08-.01-.01-.02-.02-.03-.04-.02-.02-.03-.05-.04-.07-.01-.02-.02-.05-.03-.07,0-.02-.02-.04-.02-.06,0-.02-.01-.04-.02-.07,0-.03-.01-.06-.01-.09,0-.03,0-.06-.01-.09,0-.07-.01-.15-.02-.22,0-.05,0-.1,0-.16,0-.05,0-.1,0-.16,0-.07,0-.14,0-.21,0-.07,0-.14.01-.21,0-.05,0-.1.01-.15,0-.05.01-.1.02-.15,0-.04.01-.07.02-.11,0-.02.01-.04.02-.06,0-.03.02-.05.03-.08,0,0,0,0,0,0"/>
        <path class="cls-2" d="m.71,2.98s.05.02.08.03c.04.01.07.02.11.03.04,0,.07.02.11.02.04,0,.07.01.11.02.04,0,.07,0,.11.01.09,0,.18.01.27.02.09,0,.18,0,.27.01.1,0,.2,0,.3,0,.1,0,.2,0,.3,0,.1,0,.21,0,.31,0,.1,0,.21,0,.31,0,.17,0,.35-.02.52-.04.06,0,.12-.02.18-.04.05-.01.09-.03.14-.05.01,0,.02-.01.03-.02.04-.02.08-.05.11-.09.03-.03.06-.07.09-.11.05-.07.08-.16.1-.24.03-.1.04-.2.05-.3.03-.29.03-.59.01-.88,0-.13-.02-.26-.04-.39-.01-.08-.03-.16-.06-.23,0,0,0-.01,0-.02-.04-.08-.1-.15-.17-.2-.03-.02-.07-.05-.11-.06-.1-.04-.2-.06-.31-.07-.07-.01-.15-.02-.22-.02-.08,0-.15-.01-.23-.02-.09,0-.18-.01-.26-.01-.09,0-.18,0-.26-.01-.09,0-.18,0-.26,0-.09,0-.18,0-.26,0-.15,0-.3,0-.45.01-.08,0-.15.01-.23.02-.08,0-.15.02-.23.03-.03,0-.05,0-.08.01-.03,0-.05,0-.08.01-.03,0-.05.01-.08.02s-.05.01-.08.02c-.05.01-.1.03-.15.06-.02.01-.04.02-.06.03-.02.02-.05.04-.07.06-.02.02-.04.04-.06.07,0,.01-.02.02-.02.04,0,.01-.01.03-.02.04,0,.01-.01.03-.02.04,0,.01-.01.03-.02.05-.01.05-.03.09-.03.14,0,.05-.02.1-.02.14,0,.07-.02.14-.02.22,0,.07,0,.14-.01.22,0,.08,0,.15,0,.23,0,.08,0,.15,0,.23,0,.03,0,.06,0,.1,0,.03,0,.06,0,.1,0,.06.01.13.02.19,0,.02,0,.05,0,.07,0,.02,0,.05.01.07,0,.02,0,.05.02.07,0,.02.01.04.02.07.01.04.03.07.04.1.06.12.15.21.27.27"/>
        <path class="cls-2" d="m4,.82s-.01-.03-.02-.04c0,0,0,0,0,0,0,0,0,0,0,0,0-.01-.01-.02-.02-.03,0,0,0,0,0,0-.02-.02-.03-.05-.05-.07-.01-.01-.03-.03-.05-.04-.02-.02-.05-.03-.07-.04-.02,0-.04-.02-.07-.02-.04-.01-.09-.02-.13-.03-.12-.02-.23-.03-.35-.04-.26-.02-.52-.03-.79-.04-.26,0-.51-.01-.77,0-.11,0-.23.02-.34.03-.08,0-.16.02-.24.03-.08.01-.16.03-.24.05-.04.01-.08.02-.11.04,0,0,0,0,0,0-.11.06-.18.16-.2.28,0,.03-.01.06-.02.09-.02.1-.03.19-.04.29,0,.05,0,.09-.01.14,0,.04,0,.07,0,.11,0,.12,0,.23,0,.35,0,.1.01.2.02.3,0,.05,0,.1.01.15s.01.1.02.15c0,0,0,.01,0,.02,0,.02,0,.04.01.06.01.04.03.09.05.13.04.09.12.17.22.2.09.03.18.06.28.07.02,0,.05,0,.07,0,.03,0,.07,0,.1.01.07,0,.14.01.21.02.15,0,.29.01.44.02.11,0,.22,0,.32,0,.33,0,.67,0,1-.03.06,0,.13-.01.19-.02.09-.01.19-.03.28-.06.03,0,.05-.02.08-.03.04-.02.08-.05.11-.08.01-.01.02-.02.03-.04.02-.02.03-.05.04-.07.01-.02.02-.05.03-.07,0-.02.02-.04.02-.06,0-.02.01-.04.02-.07,0-.03.01-.06.01-.09,0-.03,0-.06.01-.09,0-.07.01-.15.02-.22,0-.05,0-.1,0-.16,0-.05,0-.1,0-.16,0-.07,0-.14,0-.21,0-.07,0-.14-.01-.21,0-.05,0-.1-.01-.15,0-.05-.01-.1-.02-.15,0-.04-.01-.07-.02-.11,0-.02-.01-.04-.02-.06,0-.03-.02-.05-.03-.08,0,0,0,0,0,0"/>
        <path class="cls-2" d="m2.26,3.28c.06.3.17.58.34.83.05.07.11.14.17.2.03.03.05.05.08.08.04.03.07.06.11.09.03.02.06.04.09.06.03.02.05.03.08.04.02,0,.05.02.07.02.02,0,.04,0,.06,0,.03,0,.07-.02.09-.04"/>
        <path class="cls-2" d="m4.96.47s0,0,0,0c0,0,0,0,0,0,0,0,0,0,0,0,0,0,0,0,0,0h0Z"/>
        <path class="cls-2" d="m2.06,3.28c.22,1.33,1.49,2.23,2.82,2.01.25-.04.48-.12.71-.23.69-.35,1.18-1.01,1.3-1.78"/>
        <path class="cls-2" d="m2.17,3.28c.06.31.18.61.36.88.05.08.11.15.17.22.03.03.06.06.08.09.04.04.08.08.12.11.03.02.06.05.09.07.03.02.07.04.1.06,0,0,0,0,0,0,.03.01.06.02.09.03.03,0,.05,0,.07,0,.04,0,.08-.02.11-.06"/>
        <path class="cls-2" d="m5.57,4.69c-.08-.09-.14-.18-.19-.28-.01-.03-.03-.05-.04-.08-.03-.08-.06-.16-.08-.24,0-.02-.01-.04-.01-.07-.02-.12-.04-.24-.05-.37,0-.09-.01-.18-.02-.27,0-.07-.01-.14-.02-.21"/>
        <path class="cls-2" d="m6.42,4.16c-.05.08-.11.15-.17.22-.03.03-.05.06-.08.09-.04.04-.08.08-.12.11-.03.02-.06.05-.09.07-.03.02-.07.04-.1.06,0,0,0,0,0,0-.03.01-.06.02-.09.03-.03,0-.05,0-.07,0-.02,0-.04,0-.06-.01-.02,0-.04-.02-.05-.04.05-.03.07-.11.03-.13,0,0,0,0,0-.01-.03-.03-.05-.06-.07-.09-.03-.04-.05-.08-.08-.13-.03-.07-.06-.15-.08-.22-.01-.05-.03-.11-.04-.16-.01-.08-.02-.17-.03-.25,0-.02,0-.04,0-.06,0-.05,0-.09-.01-.14,0-.04,0-.08,0-.12,0-.03,0-.06,0-.09,0-.03,0-.05,0-.08"/>
        <path class="cls-2" d="m6.69,3.28c-.06.3-.17.58-.34.83-.05.07-.11.14-.17.2-.03.03-.05.05-.08.08-.04.03-.07.06-.11.09-.03.02-.06.04-.09.06-.03.02-.05.03-.08.04-.02,0-.05.02-.07.02-.02,0-.04,0-.06,0-.02,0-.03,0-.05-.01-.01,0-.03-.02-.04-.03"/>
        <path class="cls-2" d="m6.78,3.28c-.06.31-.18.61-.36.88,0,0-.04-.03-.08-.05-.01.01-.02.03-.04.04-.02.03-.05.05-.07.07-.02.02-.04.03-.05.05-.02.01-.04.03-.06.04,0,0,0,0,0,0-.02,0-.03.01-.05.02-.02,0-.03,0-.05,0-.01,0-.02,0-.03,0-.01,0-.02,0-.03,0,0,0-.01,0-.02,0,0,0,0,0-.01,0,0,0,0,0-.01,0,0,0-.02-.02-.03-.02s-.02-.02-.02-.03c-.01-.01-.02-.03-.03-.04,0-.02-.02-.03-.03-.05-.02-.04-.03-.07-.05-.11-.02-.04-.03-.09-.04-.13,0-.05-.02-.09-.02-.14-.01-.12-.02-.23-.03-.35,0-.06,0-.12-.01-.18"/>
        <path class="cls-2" d="m3.69,3.2c-.01.14-.02.29-.03.43,0,.12-.02.24-.04.35,0,.02,0,.04-.01.06-.02.07-.04.15-.07.22-.02.06-.05.11-.08.16-.03.04-.06.08-.08.11,0,0,0,.01-.01.02,0,0,0,0,0,.01-.03.02-.02.11.03.13.01-.01.02-.02.03-.04.03-.04.07-.09.1-.14.04-.06.07-.12.09-.18.03-.08.06-.16.08-.24,0-.02.01-.04.01-.07.02-.12.04-.24.05-.37.01-.16.02-.32.04-.48"/>
        <path class="cls-2" d="m8.37,2.64s0,0,0,0"/>
        <path class="cls-2" d="m4.24.44v.08"/>
        <path class="cls-2" d="m.58,2.64s0,0,0,0"/>
        <path class="cls-2" d="m4.8.45s-.01.01-.02.02c-.05.05-.09.11-.12.17,0,.02-.02.03-.02.05-.03.08-.05.17-.06.26-.01.09-.02.18-.03.26,0,.09-.01.18-.02.27,0,.09,0,.18,0,.27,0,.09,0,.18,0,.27,0,.09.01.18.02.27,0,.09.02.18.04.26.02.09.04.17.08.25.04.08.09.16.15.22.06.06.14.11.22.14.06.03.13.04.2.06.02,0,.04,0,.06.01.09.01.18.02.26.03.09,0,.18.01.26.02.09,0,.18,0,.26,0,.09,0,.18,0,.27,0,.09,0,.18,0,.27,0,.09,0,.18,0,.27,0,.09,0,.18,0,.27,0,.09,0,.18,0,.26,0,.09,0,.18,0,.26-.02.09,0,.18-.02.26-.03.09-.01.18-.03.26-.05.08-.03.17-.06.24-.11.07-.05.13-.12.18-.2.05-.08.08-.16.1-.25.02-.09.03-.17.04-.26,0-.09.02-.18.02-.26,0-.09.01-.18.01-.27,0-.09,0-.18,0-.27,0-.09,0-.18-.01-.27,0-.09-.02-.18-.03-.26-.01-.09-.02-.18-.05-.26-.01-.04-.03-.09-.05-.13-.02-.04-.04-.07-.06-.11-.05-.07-.12-.13-.2-.17-.08-.04-.16-.07-.25-.09-.09-.02-.17-.03-.26-.05-.09-.01-.18-.02-.26-.03-.09,0-.18-.02-.26-.02-.09,0-.18,0-.27-.01-.09,0-.18,0-.27,0-.09,0-.18,0-.27,0-.09,0-.18,0-.27,0-.09,0-.18,0-.27.01-.09,0-.18,0-.27.02-.09,0-.18.01-.26.02-.09,0-.18.02-.26.03-.09.01-.17.03-.26.07-.07.03-.14.08-.2.13Z"/>
        <path class="cls-2" d="m5.1.39c.13-.05.31-.08.55-.1.23-.02.52-.04.79-.04.27,0,.53-.01.77,0,.25.01.48.03.66.06.18.03.32.06.42.11.1.05.17.12.22.2.05.08.08.17.11.33.03.17.05.41.05.65,0,.24-.01.47-.03.66-.02.18-.04.31-.09.43-.05.13-.14.25-.31.33-.17.08-.41.11-.68.13-.27.02-.56.02-.88.02s-.65,0-.93-.02c-.28-.02-.5-.05-.66-.13-.16-.08-.25-.2-.3-.33-.06-.13-.08-.25-.1-.43-.02-.18-.03-.42-.03-.66,0-.24.02-.48.05-.65.03-.17.06-.25.12-.34.06-.08.13-.17.26-.22Z"/>
        <path class="cls-2" d="m6.92,2.99c-.11,0-.22,0-.33,0-.08,0-.16,0-.24,0-.08,0-.16,0-.24,0-.06,0-.12,0-.18,0s-.12,0-.18-.01c-.13,0-.25-.02-.38-.05-.04,0-.08-.02-.11-.03-.04-.01-.07-.03-.11-.05-.01,0-.02-.02-.04-.02-.01,0-.02-.02-.03-.03-.02-.02-.04-.04-.06-.06,0-.01-.02-.02-.02-.03,0-.01-.01-.02-.02-.04,0-.01-.01-.03-.02-.04,0-.01-.01-.03-.02-.04,0-.02-.02-.04-.02-.07,0-.02-.01-.05-.02-.07,0-.03-.01-.06-.01-.09,0-.03,0-.06-.01-.09,0-.07-.01-.15-.02-.22,0-.05,0-.1,0-.16,0-.05,0-.1,0-.16,0-.07,0-.14,0-.21,0-.07,0-.14.01-.21,0-.05,0-.1.01-.15,0-.05.01-.1.02-.15,0-.04.01-.07.02-.11,0-.01,0-.03,0-.04s0-.03.01-.04c0-.02.01-.04.02-.06,0-.02.02-.04.03-.05.02-.03.05-.06.08-.09.03-.03.07-.05.11-.07.07-.03.13-.04.2-.05.12-.02.23-.03.35-.04.26-.02.53-.03.79-.04.26,0,.52-.01.77,0,.11,0,.23.02.34.03.08,0,.16.02.24.03.08.01.16.03.24.05.05.01.09.03.14.05.02.01.05.03.07.05.02.02.04.04.05.06.01.01.02.03.03.04,0,.02.02.03.02.05,0,.02.02.04.02.07,0,.04.02.07.02.11.01.07.02.14.03.21.01.11.02.22.02.33,0,.12,0,.23,0,.35,0,.1-.01.2-.02.3,0,.05,0,.1-.01.15,0,.05-.01.1-.02.15,0,.03-.01.06-.02.09,0,.03-.02.06-.03.08-.01.03-.02.05-.04.07-.01.02-.03.05-.05.07-.02.02-.04.04-.07.06-.02.02-.05.03-.08.05-.04.02-.09.03-.13.05-.05.01-.09.02-.14.03-.07.01-.14.02-.21.03-.07,0-.14.01-.21.02-.19.01-.38.02-.56.02Z"/>
        <path class="cls-2" d="m4.15.45s.01.01.02.02c.05.05.09.11.12.17,0,.02.02.03.02.05.03.08.05.17.06.26.01.09.02.18.03.26,0,.09.01.18.02.27,0,.09,0,.18,0,.27,0,.09,0,.18,0,.27,0,.09-.01.18-.02.27,0,.09-.02.18-.04.26-.02.09-.04.17-.08.25-.04.08-.09.16-.15.22-.06.06-.14.11-.22.14-.06.03-.13.04-.2.06-.02,0-.04,0-.06.01-.09.01-.18.02-.26.03-.09,0-.18.01-.26.02-.09,0-.18,0-.26,0-.09,0-.18,0-.27,0-.09,0-.18,0-.27,0-.09,0-.18,0-.27,0-.09,0-.18,0-.27,0-.09,0-.18,0-.26,0-.09,0-.18,0-.26-.02-.09,0-.18-.02-.26-.03-.09-.01-.18-.03-.26-.05-.08-.03-.17-.06-.24-.11-.07-.05-.13-.12-.18-.2-.05-.08-.08-.16-.1-.25-.02-.09-.03-.17-.04-.26,0-.09-.02-.18-.02-.26,0-.09-.01-.18-.01-.27,0-.09,0-.18,0-.27,0-.09,0-.18.01-.27,0-.09.02-.18.03-.26.01-.09.02-.18.05-.26.01-.04.03-.09.05-.13.02-.04.04-.07.06-.11.05-.07.12-.13.2-.17.08-.04.16-.07.25-.09.09-.02.17-.03.26-.05.09-.01.18-.02.26-.03.09,0,.18-.02.26-.02.09,0,.18,0,.27-.01.09,0,.18,0,.27,0,.09,0,.18,0,.27,0,.09,0,.18,0,.27,0,.09,0,.18,0,.27.01.09,0,.18,0,.27.02.09,0,.18.01.26.02.09,0,.18.02.26.03.09.01.17.03.26.07.07.03.14.08.2.13Z"/>
        <path class="cls-2" d="m4.71.44s.06,0,.09.01"/>
        <path class="cls-2" d="m3.85.39c-.13-.05-.31-.08-.55-.1-.23-.02-.52-.04-.79-.04-.27,0-.53-.01-.77,0-.25.01-.48.03-.66.06-.18.03-.32.06-.42.11s-.17.12-.22.2c-.05.08-.08.17-.11.33-.03.17-.05.41-.05.65,0,.24.01.47.03.66.02.18.04.31.09.43.05.13.14.25.31.33.17.08.41.11.68.13.27.02.56.02.88.02s.65,0,.93-.02c.28-.02.5-.05.66-.13.16-.08.25-.2.3-.33.06-.13.08-.25.1-.43.02-.18.03-.42.03-.66,0-.24-.02-.48-.05-.65-.03-.17-.06-.25-.12-.34-.06-.08-.13-.17-.26-.22Z"/>
        <path class="cls-2" d="m4.28,1.88s0,0,0,0h0Z"/>
        <path class="cls-2" d="m4.41,1.57s.09-.01.13,0"/>
        <path class="cls-2" d="m4.98,2.62s0,0,0,.01"/>
        <path class="cls-2" d="m4.15.67s0,0,0,0"/>
        <path class="cls-2" d="m4.54,1.98s-.09.01-.14,0"/>
        <path class="cls-2" d="m2.03,2.99c.11,0,.22,0,.33,0,.08,0,.16,0,.24,0,.08,0,.16,0,.24,0,.06,0,.12,0,.18,0s.12,0,.18-.01c.13,0,.25-.02.38-.05.04,0,.08-.02.11-.03.04-.01.07-.03.11-.05.01,0,.02-.02.04-.02.01,0,.02-.02.03-.03.02-.02.04-.04.06-.06,0-.01.02-.02.02-.03,0-.01.01-.02.02-.04,0-.01.01-.03.02-.04,0-.01.01-.03.02-.04,0-.02.02-.04.02-.07,0-.02.01-.05.02-.07,0-.03.01-.06.01-.09,0-.03,0-.06.01-.09,0-.07.01-.15.02-.22,0-.05,0-.1,0-.16,0-.05,0-.1,0-.16,0-.07,0-.14,0-.21,0-.07,0-.14-.01-.21,0-.05,0-.1-.01-.15,0-.05-.01-.1-.02-.15,0-.04-.01-.07-.02-.11,0-.01,0-.03,0-.04,0-.01,0-.03-.01-.04,0-.02-.01-.04-.02-.06,0-.02-.02-.04-.03-.05-.02-.03-.05-.06-.08-.09-.03-.03-.07-.05-.11-.07-.07-.03-.13-.04-.2-.05-.12-.02-.23-.03-.35-.04-.26-.02-.53-.03-.79-.04-.26,0-.52-.01-.77,0-.11,0-.23.02-.34.03-.08,0-.16.02-.24.03-.08.01-.16.03-.24.05-.05.01-.09.03-.14.05-.02.01-.05.03-.07.05-.02.02-.04.04-.05.06-.01.01-.02.03-.03.04,0,.02-.02.03-.02.05,0,.02-.02.04-.02.07,0,.04-.02.07-.02.11-.01.07-.02.14-.03.21-.01.11-.02.22-.02.33,0,.12,0,.23,0,.35,0,.1.01.2.02.3,0,.05,0,.1.01.15,0,.05.01.1.02.15,0,.03.01.06.02.09,0,.03.02.06.03.08.01.03.02.05.04.07.01.02.03.05.05.07.02.02.04.04.07.06.02.02.05.03.08.05.04.02.09.03.13.05.05.01.09.02.14.03.07.01.14.02.21.03.07,0,.14.01.21.02.19.01.38.02.56.02Z"/>
        <path class="cls-2" d="m4.4.31s0,0,0,0"/>
        <path class="cls-2" d="m4.4.21v.1"/>
      </g>
    </g>
  </g>
</svg>