<svg width="9" height="7" viewBox="0 0 9 7" fill="none" xmlns="http://www.w3.org/2000/svg">
<path d="M8.5 1.5H0.5V4H2C2.16667 4.66667 2.9 6 4.5 6C6.1 6 6.83333 4.66667 7 4H8.5V1.5Z" fill="white"/>
<path d="M4.37 1.22998V1.38998" stroke="#010101" stroke-width="0.25" stroke-linecap="round" stroke-linejoin="round"/>
<path d="M4.68005 1.19995V1.21995" stroke="#010101" stroke-width="0.25" stroke-linecap="round" stroke-linejoin="round"/>
<path d="M4.57007 1.18994H4.68007" stroke="#010101" stroke-width="0.25" stroke-linecap="round" stroke-linejoin="round"/>
<path d="M4.38 1.21995V1.19995" stroke="#010101" stroke-width="0.25" stroke-linecap="round" stroke-linejoin="round"/>
<path d="M4.71008 1.21997H4.58008" stroke="#010101" stroke-width="0.25" stroke-linecap="round" stroke-linejoin="round"/>
<path d="M4.71008 1.31998V1.22998" stroke="#010101" stroke-width="0.25" stroke-linecap="round" stroke-linejoin="round"/>
<path d="M4.71008 1.39006V1.31006" stroke="#010101" stroke-width="0.25" stroke-linecap="round" stroke-linejoin="round"/>
<path d="M4.24002 1.32007C4.24002 1.32007 4.18002 1.32007 4.15002 1.33007" stroke="#010101" stroke-width="0.25" stroke-linecap="round" stroke-linejoin="round"/>
<path d="M4.23999 1.22998V1.31998" stroke="#010101" stroke-width="0.25" stroke-linecap="round" stroke-linejoin="round"/>
<path d="M4.36999 1.21997H4.23999" stroke="#010101" stroke-width="0.25" stroke-linecap="round" stroke-linejoin="round"/>
<path d="M4.58 1.21997H4.37" stroke="#010101" stroke-width="0.25" stroke-linecap="round" stroke-linejoin="round"/>
<path d="M4.58008 1.37997V1.21997" stroke="#010101" stroke-width="0.25" stroke-linecap="round" stroke-linejoin="round"/>
<path d="M4.71008 1.38989C4.71008 1.38989 4.73008 1.38989 4.74008 1.38989" stroke="#010101" stroke-width="0.25" stroke-linecap="round" stroke-linejoin="round"/>
<path d="M4.47009 1.37988C4.55009 1.37988 4.63009 1.37988 4.71009 1.38988" stroke="#010101" stroke-width="0.25" stroke-linecap="round" stroke-linejoin="round"/>
<path d="M4.21008 1.39989C4.30008 1.39989 4.39008 1.38989 4.48008 1.38989" stroke="#010101" stroke-width="0.25" stroke-linecap="round" stroke-linejoin="round"/>
<path d="M4.59998 1.03003V1.06003" stroke="#010101" stroke-width="0.25" stroke-linecap="round" stroke-linejoin="round"/>
<path d="M4.53003 1.03003H4.60003" stroke="#010101" stroke-width="0.25" stroke-linecap="round" stroke-linejoin="round"/>
<path d="M4.32007 1.09009V1.19009" stroke="#010101" stroke-width="0.25" stroke-linecap="round" stroke-linejoin="round"/>
<path d="M4.41007 1.09009H4.32007" stroke="#010101" stroke-width="0.25" stroke-linecap="round" stroke-linejoin="round"/>
<path d="M4.54002 1.09009H4.40002" stroke="#010101" stroke-width="0.25" stroke-linecap="round" stroke-linejoin="round"/>
<path d="M4.55005 1.19009V1.09009" stroke="#010101" stroke-width="0.25" stroke-linecap="round" stroke-linejoin="round"/>
<path d="M4.57007 1.19995V1.21995" stroke="#010101" stroke-width="0.25" stroke-linecap="round" stroke-linejoin="round"/>
<path d="M4.38 1.18994H4.56" stroke="#010101" stroke-width="0.25" stroke-linecap="round" stroke-linejoin="round"/>
<path d="M4.31006 1.18994H4.38006" stroke="#010101" stroke-width="0.25" stroke-linecap="round" stroke-linejoin="round"/>
<path d="M4.27002 1.18994H4.31002" stroke="#010101" stroke-width="0.25" stroke-linecap="round" stroke-linejoin="round"/>
<path d="M4.27002 1.21995V1.19995" stroke="#010101" stroke-width="0.25" stroke-linecap="round" stroke-linejoin="round"/>
<path d="M4.63 1.09009V1.19009" stroke="#010101" stroke-width="0.25" stroke-linecap="round" stroke-linejoin="round"/>
<path d="M4.54004 1.09009H4.63004" stroke="#010101" stroke-width="0.25" stroke-linecap="round" stroke-linejoin="round"/>
<path d="M4.41998 1.06006H4.34998" stroke="#010101" stroke-width="0.25" stroke-linecap="round" stroke-linejoin="round"/>
<path d="M4.42004 1.03003V1.06003" stroke="#010101" stroke-width="0.25" stroke-linecap="round" stroke-linejoin="round"/>
<path d="M4.53005 1.03003H4.43005" stroke="#010101" stroke-width="0.25" stroke-linecap="round" stroke-linejoin="round"/>
<path d="M4.53003 1.06003V1.03003" stroke="#010101" stroke-width="0.25" stroke-linecap="round" stroke-linejoin="round"/>
<path d="M4.51001 1H4.56001" stroke="#010101" stroke-width="0.25" stroke-linecap="round" stroke-linejoin="round"/>
<path d="M4.44006 1H4.52006" stroke="#010101" stroke-width="0.25" stroke-linecap="round" stroke-linejoin="round"/>
<path d="M4.39001 1H4.44001" stroke="#010101" stroke-width="0.25" stroke-linecap="round" stroke-linejoin="round"/>
<path d="M4.35999 1.03003H4.42999" stroke="#010101" stroke-width="0.25" stroke-linecap="round" stroke-linejoin="round"/>
<path d="M4.34998 1.06003V1.03003" stroke="#010101" stroke-width="0.25" stroke-linecap="round" stroke-linejoin="round"/>
<path d="M4.53003 1.06006H4.60003" stroke="#010101" stroke-width="0.25" stroke-linecap="round" stroke-linejoin="round"/>
<path d="M4.42004 1.06006H4.54004" stroke="#010101" stroke-width="0.25" stroke-linecap="round" stroke-linejoin="round"/>
<path d="M3.79008 1.48002C3.79008 1.48002 3.84008 1.51002 3.86008 1.53002C3.89008 1.55002 3.91008 1.58002 3.93008 1.61002C3.93008 1.62002 3.95008 1.64002 3.96008 1.65002C3.96008 1.67002 3.98008 1.68002 3.98008 1.70002C4.00008 1.76002 4.01008 1.82002 4.02008 1.88002C4.03008 1.98002 4.04008 2.08002 4.05008 2.18002C4.06008 2.32002 4.06008 2.47002 4.06008 2.61002C4.06008 2.71002 4.06008 2.82002 4.05008 2.92002C4.05008 2.99002 4.04008 3.07002 4.03008 3.14002C4.03008 3.20002 4.02008 3.25002 4.00008 3.31002C4.00008 3.35002 3.98008 3.40002 3.96008 3.44002C3.94008 3.49002 3.92008 3.54002 3.88008 3.58002C3.86008 3.60002 3.85008 3.62002 3.83008 3.64002C3.81008 3.66002 3.79008 3.67002 3.76008 3.69002C3.70008 3.73002 3.62008 3.75002 3.55008 3.76002C3.43008 3.79002 3.30008 3.80002 3.17008 3.80002C2.89008 3.82002 2.61008 3.82002 2.32008 3.82002C2.03008 3.82002 1.73008 3.82002 1.44008 3.80002C1.30008 3.80002 1.16008 3.78002 1.02008 3.76002C0.970083 3.76002 0.920083 3.74002 0.870083 3.73002C0.830083 3.72002 0.790083 3.71002 0.760083 3.69002C0.760083 3.69002 0.760083 3.69002 0.750083 3.69002C0.730083 3.68002 0.710083 3.67002 0.690083 3.65002C0.670083 3.63002 0.650083 3.62002 0.640083 3.60002C0.610083 3.56002 0.580083 3.52002 0.560083 3.47002C0.550083 3.45002 0.540083 3.42002 0.530083 3.39002C0.530083 3.36002 0.520083 3.33002 0.510083 3.30002C0.490083 3.20002 0.480083 3.11002 0.480083 3.01002C0.480083 2.91002 0.460083 2.81002 0.460083 2.71002C0.460083 2.59002 0.460083 2.48002 0.460083 2.36002C0.460083 2.25002 0.470083 2.14002 0.480083 2.03002C0.480083 1.96002 0.500083 1.89002 0.510083 1.83002C0.510083 1.80002 0.520083 1.76002 0.530083 1.73002C0.530083 1.71002 0.540083 1.69002 0.550083 1.67002C0.550083 1.65002 0.560083 1.64002 0.570083 1.63002C0.570083 1.62002 0.590083 1.60002 0.600083 1.59002C0.610083 1.57002 0.630083 1.55002 0.650083 1.54002C0.670083 1.52002 0.690083 1.51002 0.710083 1.50002C0.750083 1.48002 0.790083 1.46002 0.840083 1.45002C0.920083 1.43002 1.00008 1.41002 1.07008 1.40002C1.26008 1.37002 1.45008 1.35002 1.65008 1.34002C1.91008 1.33002 2.16008 1.33002 2.42008 1.34002C2.68008 1.34002 2.94008 1.36002 3.21008 1.38002C3.33008 1.38002 3.44008 1.40002 3.55008 1.42002C3.62008 1.43002 3.68008 1.45002 3.74008 1.47002C3.74008 1.47002 3.76008 1.47002 3.77008 1.48002H3.79008Z" stroke="#010101" stroke-width="0.25" stroke-linecap="round" stroke-linejoin="round"/>
<path d="M5.16001 1.48002C5.16001 1.48002 5.11001 1.51002 5.09001 1.53002C5.06001 1.55002 5.04001 1.58002 5.02001 1.61002C5.02001 1.62002 5.00001 1.64002 4.99001 1.65002C4.99001 1.67002 4.97001 1.68002 4.97001 1.70002C4.95001 1.76002 4.94001 1.82002 4.93001 1.88002C4.92001 1.98002 4.91001 2.08002 4.90001 2.18002C4.89001 2.32002 4.89001 2.47002 4.89001 2.61002C4.89001 2.71002 4.89001 2.82002 4.90001 2.92002C4.90001 2.99002 4.91001 3.07002 4.92001 3.14002C4.92001 3.20002 4.93001 3.25002 4.95001 3.31002C4.95001 3.35002 4.97001 3.40002 4.99001 3.44002C5.01001 3.49002 5.03001 3.54002 5.07001 3.58002C5.09001 3.60002 5.10001 3.62002 5.12001 3.64002C5.14001 3.66002 5.16001 3.67002 5.19001 3.69002C5.25001 3.73002 5.33001 3.75002 5.40001 3.76002C5.52001 3.79002 5.65001 3.80002 5.78001 3.80002C6.06001 3.82002 6.34001 3.82002 6.63001 3.82002C6.92001 3.82002 7.22002 3.82002 7.51002 3.80002C7.65002 3.80002 7.79001 3.78002 7.93001 3.76002C7.98001 3.76002 8.03001 3.74002 8.08001 3.73002C8.12001 3.72002 8.16001 3.71002 8.19001 3.69002C8.19001 3.69002 8.19001 3.69002 8.20001 3.69002C8.22001 3.68002 8.24002 3.67002 8.26002 3.65002C8.28002 3.63002 8.30002 3.62002 8.31002 3.60002C8.34002 3.56002 8.37002 3.52002 8.39002 3.47002C8.40002 3.45002 8.41001 3.42002 8.42001 3.39002C8.42001 3.36002 8.43001 3.33002 8.44001 3.30002C8.46001 3.20002 8.47002 3.11002 8.47002 3.01002C8.47002 2.91002 8.49001 2.81002 8.49001 2.71002C8.49001 2.59002 8.49001 2.48002 8.49001 2.36002C8.49001 2.25002 8.48002 2.14002 8.47002 2.03002C8.47002 1.96002 8.45001 1.89002 8.44001 1.83002C8.44001 1.80002 8.43001 1.76002 8.42001 1.73002C8.42001 1.71002 8.41001 1.69002 8.40001 1.67002C8.40001 1.65002 8.39001 1.64002 8.38001 1.63002C8.38001 1.62002 8.36002 1.60002 8.35002 1.59002C8.34002 1.57002 8.32001 1.55002 8.30001 1.54002C8.28001 1.52002 8.26001 1.51002 8.24001 1.50002C8.20001 1.48002 8.16001 1.46002 8.11001 1.45002C8.03001 1.43002 7.95001 1.41002 7.88001 1.40002C7.69001 1.37002 7.50001 1.35002 7.30001 1.34002C7.04001 1.33002 6.79001 1.33002 6.53001 1.34002C6.27002 1.34002 6.01001 1.36002 5.74001 1.38002C5.62001 1.38002 5.51001 1.40002 5.40001 1.42002C5.33001 1.43002 5.27001 1.45002 5.21001 1.47002C5.21001 1.47002 5.19001 1.47002 5.18001 1.48002H5.16001Z" stroke="#010101" stroke-width="0.25" stroke-linecap="round" stroke-linejoin="round"/>
<path d="M2.17004 4.15991C2.23004 4.46991 2.35004 4.76991 2.53004 5.03991C2.53004 5.03991 2.57004 5.00991 2.61004 4.98991C2.62004 4.99991 2.63004 5.01991 2.65004 5.02991C2.67004 5.05991 2.70004 5.07991 2.72004 5.09991C2.74004 5.11991 2.76004 5.12991 2.77004 5.14991C2.79004 5.15991 2.81004 5.17991 2.83004 5.18991C2.85004 5.18991 2.86004 5.19991 2.88004 5.20991C2.90004 5.20991 2.91004 5.20991 2.93004 5.20991C2.94004 5.20991 2.95004 5.20991 2.96004 5.20991C2.97004 5.20991 2.98004 5.20991 2.99004 5.20991C2.99004 5.20991 3.00004 5.20991 3.01004 5.20991C3.01004 5.20991 3.01004 5.20991 3.02004 5.20991C3.02004 5.20991 3.02004 5.20991 3.03004 5.20991C3.03004 5.20991 3.05004 5.18991 3.06004 5.18991C3.07004 5.18991 3.08004 5.16991 3.08004 5.15991C3.09004 5.14991 3.10004 5.12991 3.11004 5.11991C3.11004 5.09991 3.13004 5.08991 3.14004 5.06991C3.16004 5.02991 3.17004 4.99991 3.19004 4.95991C3.21004 4.91991 3.22004 4.86991 3.23004 4.82991C3.23004 4.77991 3.25004 4.73991 3.25004 4.68991C3.26004 4.56991 3.27004 4.45991 3.28004 4.33991C3.28004 4.27991 3.28004 4.21991 3.29004 4.15991" stroke="#010101" stroke-width="0.25" stroke-linecap="round" stroke-linejoin="round"/>
<path d="M8.24 3.85995C8.24 3.85995 8.19 3.87995 8.16 3.88995C8.12 3.89995 8.09 3.90995 8.05 3.91995C8.01 3.91995 7.98 3.93995 7.94 3.93995C7.9 3.93995 7.87 3.94995 7.83 3.95995C7.79 3.95995 7.76 3.95995 7.72 3.96995C7.63 3.96995 7.54 3.97995 7.45 3.98995C7.36 3.98995 7.27 3.98995 7.18 3.99995C7.08 3.99995 6.98 3.99995 6.88 3.99995C6.78 3.99995 6.68 3.99995 6.58 3.99995C6.48 3.99995 6.37 3.99995 6.27 3.99995C6.17 3.99995 6.06 3.99995 5.96 3.99995C5.79 3.99995 5.61 3.97995 5.44 3.95995C5.38 3.95995 5.32 3.93995 5.26 3.91995C5.21 3.90995 5.17 3.88995 5.12 3.86995C5.11 3.86995 5.1 3.85995 5.09 3.84995C5.05 3.82995 5.01 3.79995 4.98 3.75995C4.95 3.72995 4.92 3.68995 4.89 3.64995C4.84 3.57995 4.81 3.48995 4.79 3.40995C4.76 3.30995 4.75 3.20995 4.74 3.10995C4.71 2.81995 4.71 2.51995 4.73 2.22995C4.73 2.09995 4.75 1.96995 4.77 1.83995C4.78 1.75995 4.8 1.67995 4.83 1.60995C4.83 1.60995 4.83 1.59995 4.83 1.58995C4.87 1.50995 4.93 1.43995 5 1.38995C5.03 1.36995 5.07 1.33995 5.11 1.32995C5.21 1.28995 5.31 1.26995 5.42 1.25995C5.49 1.24995 5.57 1.23995 5.64 1.23995C5.72 1.23995 5.79 1.22995 5.87 1.21995C5.96 1.21995 6.05 1.20995 6.13 1.20995C6.22 1.20995 6.31 1.20995 6.39 1.19995C6.48 1.19995 6.57 1.19995 6.65 1.19995C6.74 1.19995 6.83 1.19995 6.91 1.19995C7.06 1.19995 7.21 1.19995 7.36 1.20995C7.44 1.20995 7.51 1.21995 7.59 1.22995C7.67 1.22995 7.74 1.24995 7.82 1.25995C7.85 1.25995 7.87 1.25995 7.9 1.26995C7.93 1.26995 7.95 1.26995 7.98 1.27995C8.01 1.27995 8.03 1.28995 8.06 1.29995C8.09 1.30995 8.11 1.30995 8.14 1.31995C8.19 1.32995 8.24 1.34995 8.29 1.37995C8.31 1.38995 8.33 1.39995 8.35 1.40995C8.37 1.42995 8.4 1.44995 8.42 1.46995C8.44 1.48995 8.46 1.50995 8.48 1.53995C8.48 1.54995 8.5 1.55995 8.5 1.57995C8.5 1.58995 8.51 1.60995 8.52 1.61995C8.52 1.62995 8.53 1.64995 8.54 1.65995C8.54 1.66995 8.55 1.68995 8.56 1.70995C8.57 1.75995 8.59 1.79995 8.59 1.84995C8.59 1.89995 8.61 1.94995 8.61 1.98995C8.61 2.05995 8.63 2.12995 8.63 2.20995C8.63 2.27995 8.63 2.34995 8.64 2.42995C8.64 2.50995 8.64 2.57995 8.64 2.65995C8.64 2.73995 8.64 2.80995 8.64 2.88995C8.64 2.91995 8.64 2.94995 8.64 2.98995C8.64 3.01995 8.64 3.04995 8.64 3.08995C8.64 3.14995 8.63 3.21995 8.62 3.27995C8.62 3.29995 8.62 3.32995 8.62 3.34995C8.62 3.36995 8.62 3.39995 8.61 3.41995C8.61 3.43995 8.61 3.46995 8.59 3.48995C8.59 3.50995 8.58 3.52995 8.57 3.55995C8.56 3.59995 8.54 3.62995 8.53 3.65995C8.47 3.77995 8.38 3.86995 8.26 3.92995" stroke="#010101" stroke-width="0.25" stroke-linecap="round" stroke-linejoin="round"/>
<path d="M4.95 1.6999C4.95 1.6999 4.96 1.6699 4.97 1.6599C4.97 1.6499 4.98 1.6399 4.99 1.6299C5.01 1.6099 5.02 1.5799 5.04 1.5599C5.05 1.5499 5.07 1.5299 5.09 1.5199C5.11 1.4999 5.14 1.4899 5.16 1.4799C5.18 1.4799 5.2 1.4599 5.23 1.4599C5.27 1.4499 5.32 1.4399 5.36 1.4299C5.48 1.4099 5.59 1.3999 5.71 1.3899C5.97 1.3699 6.23 1.3599 6.5 1.3499C6.76 1.3499 7.01 1.3399 7.27 1.3499C7.38 1.3499 7.5 1.3699 7.61 1.3799C7.69 1.3799 7.77 1.3999 7.85 1.4099C7.93 1.4199 8.01 1.4399 8.09 1.4599C8.13 1.4699 8.17 1.4799 8.2 1.4999C8.31 1.5599 8.38 1.6599 8.4 1.7799C8.4 1.8099 8.41 1.8399 8.42 1.8699C8.44 1.9699 8.45 2.0599 8.46 2.1599C8.46 2.2099 8.46001 2.2499 8.47001 2.2999C8.47001 2.3399 8.47001 2.3699 8.47001 2.4099C8.47001 2.5299 8.47001 2.6399 8.47001 2.7599C8.47001 2.8599 8.46 2.9599 8.45 3.0599C8.45 3.1099 8.45 3.1599 8.44 3.2099C8.44 3.2599 8.43 3.3099 8.42 3.3599C8.42 3.3599 8.42 3.3699 8.42 3.3799C8.42 3.3999 8.42 3.4199 8.41 3.4399C8.4 3.4799 8.38 3.5299 8.36 3.5699C8.32 3.6599 8.24001 3.7399 8.14001 3.7699C8.05001 3.7999 7.96 3.8299 7.86 3.8399C7.84 3.8399 7.81 3.8399 7.79 3.8399C7.76 3.8399 7.72 3.8399 7.69 3.8499C7.62 3.8499 7.55 3.8599 7.48 3.8699C7.33 3.8699 7.19 3.8799 7.04 3.8899C6.93 3.8899 6.82 3.8899 6.72 3.8899C6.39 3.8899 6.05 3.8899 5.72 3.8599C5.66 3.8599 5.59 3.8499 5.53 3.8399C5.44 3.8299 5.34 3.8099 5.25 3.7799C5.22 3.7799 5.2 3.7599 5.17 3.7499C5.13 3.7299 5.09 3.6999 5.06 3.6699C5.05 3.6599 5.04 3.6499 5.03 3.6299C5.01 3.6099 5 3.5799 4.99 3.5599C4.98 3.5399 4.97 3.5099 4.96 3.4899C4.96 3.4699 4.94 3.4499 4.94 3.4299C4.94 3.4099 4.93 3.3899 4.92 3.3599C4.92 3.3299 4.91 3.2999 4.91 3.2699C4.91 3.2399 4.91 3.2099 4.9 3.1799C4.9 3.1099 4.89 3.0299 4.88 2.9599C4.88 2.9099 4.88 2.8599 4.88 2.7999C4.88 2.7499 4.88 2.6999 4.88 2.6399C4.88 2.5699 4.88 2.4999 4.88 2.4299C4.88 2.3599 4.88 2.2899 4.89 2.2199C4.89 2.1699 4.89 2.1199 4.9 2.0699C4.9 2.0199 4.91 1.9699 4.92 1.9199C4.92 1.8799 4.93 1.8499 4.94 1.8099C4.94 1.7899 4.95 1.7699 4.96 1.7499C4.96 1.7199 4.98 1.6999 4.99 1.6699" stroke="#010101" stroke-width="0.25" stroke-linecap="round" stroke-linejoin="round"/>
<path d="M0.710059 3.85995C0.710059 3.85995 0.760059 3.87995 0.790059 3.88995C0.830059 3.89995 0.860059 3.90995 0.900059 3.91995C0.940059 3.91995 0.970059 3.93995 1.01006 3.93995C1.05006 3.93995 1.08006 3.94995 1.12006 3.95995C1.16006 3.95995 1.19006 3.95995 1.23006 3.96995C1.32006 3.96995 1.41006 3.97995 1.50006 3.98995C1.59006 3.98995 1.68006 3.98995 1.77006 3.99995C1.87006 3.99995 1.97006 3.99995 2.07006 3.99995C2.17006 3.99995 2.27006 3.99995 2.37006 3.99995C2.47006 3.99995 2.58006 3.99995 2.68006 3.99995C2.78006 3.99995 2.89006 3.99995 2.99006 3.99995C3.16006 3.99995 3.34006 3.97995 3.51006 3.95995C3.57006 3.95995 3.63006 3.93995 3.69006 3.91995C3.74006 3.90995 3.78006 3.88995 3.83006 3.86995C3.84006 3.86995 3.85006 3.85995 3.86006 3.84995C3.90006 3.82995 3.94006 3.79995 3.97006 3.75995C4.00006 3.72995 4.03006 3.68995 4.06006 3.64995C4.11006 3.57995 4.14006 3.48995 4.16006 3.40995C4.19006 3.30995 4.20006 3.20995 4.21006 3.10995C4.24006 2.81995 4.24006 2.51995 4.22006 2.22995C4.22006 2.09995 4.20006 1.96995 4.18006 1.83995C4.17006 1.75995 4.15006 1.67995 4.12006 1.60995C4.12006 1.60995 4.12006 1.59995 4.12006 1.58995C4.08006 1.50995 4.02006 1.43995 3.95006 1.38995C3.92006 1.36995 3.88006 1.33995 3.84006 1.32995C3.74006 1.28995 3.64006 1.26995 3.53006 1.25995C3.46006 1.24995 3.38006 1.23995 3.31006 1.23995C3.23006 1.23995 3.16006 1.22995 3.08006 1.21995C2.99006 1.21995 2.90006 1.20995 2.82006 1.20995C2.73006 1.20995 2.64006 1.20995 2.56006 1.19995C2.47006 1.19995 2.38006 1.19995 2.30006 1.19995C2.21006 1.19995 2.12006 1.19995 2.04006 1.19995C1.89006 1.19995 1.74006 1.19995 1.59006 1.20995C1.51006 1.20995 1.44006 1.21995 1.36006 1.22995C1.28006 1.22995 1.21006 1.24995 1.13006 1.25995C1.10006 1.25995 1.08006 1.25995 1.05006 1.26995C1.02006 1.26995 1.00006 1.26995 0.970059 1.27995C0.940059 1.27995 0.920059 1.28995 0.890059 1.29995C0.860059 1.30995 0.840059 1.30995 0.810059 1.31995C0.760059 1.32995 0.710059 1.34995 0.660059 1.37995C0.640059 1.38995 0.620059 1.39995 0.600059 1.40995C0.580059 1.42995 0.550059 1.44995 0.530059 1.46995C0.510059 1.48995 0.490059 1.50995 0.470059 1.53995C0.470059 1.54995 0.450059 1.55995 0.450059 1.57995C0.450059 1.58995 0.440059 1.60995 0.430059 1.61995C0.430059 1.62995 0.420059 1.64995 0.410059 1.65995C0.410059 1.66995 0.400059 1.68995 0.390059 1.70995C0.380059 1.75995 0.360059 1.79995 0.360059 1.84995C0.360059 1.89995 0.340059 1.94995 0.340059 1.98995C0.340059 2.05995 0.320059 2.12995 0.320059 2.20995C0.320059 2.27995 0.320059 2.34995 0.310059 2.42995C0.310059 2.50995 0.310059 2.57995 0.310059 2.65995C0.310059 2.73995 0.310059 2.80995 0.310059 2.88995C0.310059 2.91995 0.310059 2.94995 0.310059 2.98995C0.310059 3.01995 0.310059 3.04995 0.310059 3.08995C0.310059 3.14995 0.320059 3.21995 0.330059 3.27995C0.330059 3.29995 0.330059 3.32995 0.330059 3.34995C0.330059 3.36995 0.330059 3.39995 0.340059 3.41995C0.340059 3.43995 0.340059 3.46995 0.360059 3.48995C0.360059 3.50995 0.370059 3.52995 0.380059 3.55995C0.390059 3.59995 0.410059 3.62995 0.420059 3.65995C0.480059 3.77995 0.570059 3.86995 0.690059 3.92995" stroke="#010101" stroke-width="0.25" stroke-linecap="round" stroke-linejoin="round"/>
<path d="M3.99998 1.6999C3.99998 1.6999 3.98998 1.6699 3.97998 1.6599C3.97998 1.6499 3.96998 1.6399 3.95998 1.6299C3.93998 1.6099 3.92998 1.5799 3.90998 1.5599C3.89998 1.5499 3.87998 1.5299 3.85998 1.5199C3.83998 1.4999 3.80998 1.4899 3.78998 1.4799C3.76998 1.4799 3.74998 1.4599 3.71998 1.4599C3.67998 1.4499 3.62998 1.4399 3.58998 1.4299C3.46998 1.4099 3.35998 1.3999 3.23998 1.3899C2.97998 1.3699 2.71998 1.3599 2.44998 1.3499C2.18998 1.3499 1.93998 1.3399 1.67998 1.3499C1.56998 1.3499 1.44998 1.3699 1.33998 1.3799C1.25998 1.3799 1.17998 1.3999 1.09998 1.4099C1.01998 1.4199 0.93998 1.4399 0.85998 1.4599C0.81998 1.4699 0.77998 1.4799 0.74998 1.4999C0.63998 1.5599 0.56998 1.6599 0.54998 1.7799C0.54998 1.8099 0.53998 1.8399 0.52998 1.8699C0.50998 1.9699 0.49998 2.0599 0.48998 2.1599C0.48998 2.2099 0.48998 2.2499 0.47998 2.2999C0.47998 2.3399 0.47998 2.3699 0.47998 2.4099C0.47998 2.5299 0.47998 2.6399 0.47998 2.7599C0.47998 2.8599 0.48998 2.9599 0.49998 3.0599C0.49998 3.1099 0.49998 3.1599 0.50998 3.2099C0.51998 3.2599 0.51998 3.3099 0.52998 3.3599C0.52998 3.3599 0.52998 3.3699 0.52998 3.3799C0.52998 3.3999 0.529981 3.4199 0.539981 3.4399C0.549981 3.4799 0.56998 3.5299 0.58998 3.5699C0.62998 3.6599 0.70998 3.7399 0.80998 3.7699C0.89998 3.7999 0.98998 3.8299 1.08998 3.8399C1.10998 3.8399 1.13998 3.8399 1.15998 3.8399C1.18998 3.8399 1.22998 3.8399 1.25998 3.8499C1.32998 3.8499 1.39998 3.8599 1.46998 3.8699C1.61998 3.8699 1.75998 3.8799 1.90998 3.8899C2.01998 3.8899 2.12998 3.8899 2.22998 3.8899C2.55998 3.8899 2.89998 3.8899 3.22998 3.8599C3.28998 3.8599 3.35998 3.8499 3.41998 3.8399C3.50998 3.8299 3.60998 3.8099 3.69998 3.7799C3.72998 3.7799 3.74998 3.7599 3.77998 3.7499C3.81998 3.7299 3.85998 3.6999 3.88998 3.6699C3.89998 3.6599 3.90998 3.6499 3.91998 3.6299C3.93998 3.6099 3.94998 3.5799 3.95998 3.5599C3.96998 3.5399 3.97998 3.5099 3.98998 3.4899C3.98998 3.4699 4.00998 3.4499 4.00998 3.4299C4.00998 3.4099 4.01998 3.3899 4.02998 3.3599C4.02998 3.3299 4.03998 3.2999 4.03998 3.2699C4.03998 3.2399 4.03998 3.2099 4.04998 3.1799C4.04998 3.1099 4.05998 3.0299 4.06998 2.9599C4.06998 2.9099 4.06998 2.8599 4.06998 2.7999C4.06998 2.7499 4.06998 2.6999 4.06998 2.6399C4.06998 2.5699 4.06998 2.4999 4.06998 2.4299C4.06998 2.3599 4.06998 2.2899 4.05998 2.2199C4.05998 2.1699 4.05998 2.1199 4.04998 2.0699C4.04998 2.0199 4.03998 1.9699 4.02998 1.9199C4.02998 1.8799 4.01998 1.8499 4.00998 1.8099C4.00998 1.7899 3.99998 1.7699 3.98998 1.7499C3.98998 1.7199 3.96998 1.6999 3.95998 1.6699" stroke="#010101" stroke-width="0.25" stroke-linecap="round" stroke-linejoin="round"/>
<path d="M2.26001 4.15991C2.32001 4.45991 2.43001 4.73991 2.60001 4.98991C2.65001 5.05991 2.71001 5.12991 2.77001 5.18991C2.80001 5.21991 2.82001 5.23991 2.85001 5.26991C2.89001 5.29991 2.92001 5.32991 2.96001 5.35991C2.99001 5.37991 3.02001 5.39991 3.05001 5.41991C3.08001 5.43991 3.10001 5.44991 3.13001 5.45991C3.15001 5.45991 3.18001 5.47991 3.20001 5.47991C3.22001 5.47991 3.24001 5.47991 3.26001 5.47991C3.29001 5.47991 3.33001 5.45991 3.35001 5.43991" stroke="#010101" stroke-width="0.25" stroke-linecap="round" stroke-linejoin="round"/>
<path d="M2.06006 4.15991C2.28006 5.48991 3.55006 6.38991 4.88006 6.16991C5.13006 6.12991 5.36006 6.04991 5.59006 5.93991C6.28006 5.58991 6.77006 4.92991 6.89006 4.15991" stroke="#010101" stroke-width="0.25" stroke-linecap="round" stroke-linejoin="round"/>
<path d="M2.17004 4.15991C2.23004 4.46991 2.35004 4.76991 2.53004 5.03991C2.58004 5.11991 2.64004 5.18991 2.70004 5.25991C2.73004 5.28991 2.76004 5.31991 2.78004 5.34991C2.82004 5.38991 2.86004 5.42991 2.90004 5.45991C2.93004 5.47991 2.96004 5.50991 2.99004 5.52991C3.02004 5.54991 3.06004 5.56991 3.09004 5.58991C3.12004 5.59991 3.15004 5.60991 3.18004 5.61991C3.21004 5.61991 3.23004 5.61991 3.25004 5.61991C3.29004 5.61991 3.33004 5.59991 3.36004 5.55991" stroke="#010101" stroke-width="0.25" stroke-linecap="round" stroke-linejoin="round"/>
<path d="M5.57003 5.57005C5.49003 5.48005 5.43003 5.39005 5.38003 5.29005C5.37003 5.26005 5.35003 5.24005 5.34003 5.21005C5.31003 5.13005 5.28003 5.05005 5.26003 4.97005C5.26003 4.95005 5.25003 4.93005 5.25003 4.90005C5.23003 4.78005 5.21003 4.66005 5.20003 4.53005C5.20003 4.44005 5.19003 4.35005 5.18003 4.26005C5.18003 4.19005 5.17003 4.12005 5.16003 4.05005" stroke="#010101" stroke-width="0.25" stroke-linecap="round" stroke-linejoin="round"/>
<path d="M6.42006 5.04009C6.37006 5.12009 6.31006 5.19009 6.25006 5.26009C6.22006 5.29009 6.20006 5.32009 6.17006 5.35009C6.13006 5.39009 6.09006 5.43009 6.05006 5.46009C6.02006 5.48009 5.99006 5.51009 5.96006 5.53009C5.93006 5.55009 5.89006 5.57009 5.86006 5.59009C5.83006 5.60009 5.80006 5.61009 5.77006 5.62009C5.74006 5.62009 5.72006 5.62009 5.70006 5.62009C5.68006 5.62009 5.66006 5.62009 5.64006 5.61009C5.62006 5.61009 5.60006 5.59009 5.59006 5.57009C5.64006 5.54009 5.66006 5.46009 5.62006 5.44009C5.62006 5.44009 5.62006 5.44009 5.62006 5.43009C5.59006 5.40009 5.57006 5.37009 5.55006 5.34009C5.52006 5.30009 5.50006 5.26009 5.47006 5.21009C5.44006 5.14009 5.41006 5.06009 5.39006 4.99009C5.38006 4.94009 5.36006 4.88009 5.35006 4.83009C5.34006 4.75009 5.33006 4.66009 5.32006 4.58009C5.32006 4.56009 5.32006 4.54009 5.32006 4.52009C5.32006 4.47009 5.32006 4.43009 5.31006 4.38009C5.31006 4.34009 5.31006 4.30009 5.31006 4.26009C5.31006 4.23009 5.31006 4.20009 5.31006 4.17009C5.31006 4.14009 5.31006 4.12009 5.31006 4.09009" stroke="#010101" stroke-width="0.25" stroke-linecap="round" stroke-linejoin="round"/>
<path d="M6.68998 4.15991C6.62998 4.45991 6.51998 4.73991 6.34998 4.98991C6.29998 5.05991 6.23998 5.12991 6.17998 5.18991C6.14998 5.21991 6.12998 5.23991 6.09998 5.26991C6.05998 5.29991 6.02998 5.32991 5.98998 5.35991C5.95998 5.37991 5.92998 5.39991 5.89998 5.41991C5.86998 5.43991 5.84998 5.44991 5.81998 5.45991C5.79998 5.45991 5.76998 5.47991 5.74998 5.47991C5.72998 5.47991 5.70998 5.47991 5.68998 5.47991C5.66998 5.47991 5.65998 5.47991 5.63998 5.46991C5.62998 5.46991 5.60998 5.44991 5.59998 5.43991" stroke="#010101" stroke-width="0.25" stroke-linecap="round" stroke-linejoin="round"/>
<path d="M6.78003 4.15991C6.72003 4.46991 6.60003 4.76991 6.42003 5.03991C6.42003 5.03991 6.38003 5.00991 6.34003 4.98991C6.33003 4.99991 6.32003 5.01991 6.30003 5.02991C6.28003 5.05991 6.25003 5.07991 6.23003 5.09991C6.21003 5.11991 6.19003 5.12991 6.18003 5.14991C6.16003 5.15991 6.14003 5.17991 6.12003 5.18991C6.10003 5.18991 6.09003 5.19991 6.07003 5.20991C6.05003 5.20991 6.04003 5.20991 6.02003 5.20991C6.01003 5.20991 6.00003 5.20991 5.99003 5.20991C5.98003 5.20991 5.97003 5.20991 5.96003 5.20991C5.96003 5.20991 5.95003 5.20991 5.94003 5.20991C5.94003 5.20991 5.94003 5.20991 5.93003 5.20991C5.93003 5.20991 5.93003 5.20991 5.92003 5.20991C5.92003 5.20991 5.90003 5.18991 5.89003 5.18991C5.88003 5.18991 5.87003 5.16991 5.87003 5.15991C5.86003 5.14991 5.85003 5.12991 5.84003 5.11991C5.84003 5.09991 5.82003 5.08991 5.81003 5.06991C5.79003 5.02991 5.78003 4.99991 5.76003 4.95991C5.74003 4.91991 5.73003 4.86991 5.72003 4.82991C5.72003 4.77991 5.70003 4.73991 5.70003 4.68991C5.69003 4.56991 5.68003 4.45991 5.67003 4.33991C5.67003 4.27991 5.67003 4.21991 5.66003 4.15991" stroke="#010101" stroke-width="0.25" stroke-linecap="round" stroke-linejoin="round"/>
<path d="M3.69002 4.08005C3.68002 4.22005 3.67002 4.37005 3.66002 4.51005C3.66002 4.63005 3.64002 4.75005 3.62002 4.86005C3.62002 4.88005 3.62002 4.90005 3.61002 4.92005C3.59002 4.99005 3.57002 5.07005 3.54002 5.14005C3.52002 5.20005 3.49002 5.25005 3.46002 5.30005C3.43002 5.34005 3.40002 5.38005 3.38002 5.41005C3.38002 5.41005 3.38002 5.42005 3.37002 5.43005C3.37002 5.43005 3.37002 5.43005 3.37002 5.44005C3.34002 5.46005 3.35002 5.55005 3.40002 5.57005C3.41002 5.56005 3.42002 5.55005 3.43002 5.53005C3.46002 5.49005 3.50002 5.44005 3.53002 5.39005C3.57002 5.33005 3.60002 5.27005 3.62002 5.21005C3.65002 5.13005 3.68002 5.05005 3.70002 4.97005C3.70002 4.95005 3.71002 4.93005 3.71002 4.90005C3.73002 4.78005 3.75002 4.66005 3.76002 4.53005C3.77002 4.37005 3.78002 4.21005 3.80002 4.05005" stroke="#010101" stroke-width="0.25" stroke-linecap="round" stroke-linejoin="round"/>
<path d="M4.23999 1.32007V1.40007" stroke="#010101" stroke-width="0.25" stroke-linecap="round" stroke-linejoin="round"/>
<path d="M4.80003 1.33004C4.80003 1.33004 4.79003 1.34004 4.78003 1.35004C4.73003 1.40004 4.69003 1.46004 4.66003 1.52004C4.66003 1.54004 4.64003 1.55004 4.64003 1.57004C4.61003 1.65004 4.59003 1.74004 4.58003 1.83004C4.57003 1.92004 4.56003 2.01004 4.55003 2.09004C4.55003 2.18004 4.54003 2.27004 4.53003 2.36004C4.53003 2.45004 4.53003 2.54004 4.53003 2.63004C4.53003 2.72004 4.53003 2.81004 4.53003 2.90004C4.53003 2.99004 4.54003 3.08004 4.55003 3.17004C4.55003 3.26004 4.57003 3.35004 4.59003 3.43004C4.61003 3.52004 4.63003 3.60004 4.67003 3.68004C4.71003 3.76004 4.76003 3.84004 4.82003 3.90004C4.88003 3.96004 4.96003 4.01004 5.04003 4.04004C5.10003 4.07004 5.17003 4.08004 5.24003 4.10004C5.26003 4.10004 5.28003 4.10004 5.30003 4.11004C5.39003 4.12004 5.48003 4.13004 5.56003 4.14004C5.65003 4.14004 5.74003 4.15004 5.82003 4.16004C5.91003 4.16004 6.00003 4.16004 6.08003 4.16004C6.17003 4.16004 6.26003 4.16004 6.35003 4.16004C6.44003 4.16004 6.53003 4.16004 6.62003 4.16004C6.71003 4.16004 6.80003 4.16004 6.89003 4.16004C6.98003 4.16004 7.07003 4.16004 7.16003 4.16004C7.25003 4.16004 7.34003 4.16004 7.42003 4.16004C7.51003 4.16004 7.60003 4.16004 7.68003 4.14004C7.77003 4.14004 7.86003 4.12004 7.94003 4.11004C8.03003 4.10004 8.12003 4.08004 8.20003 4.06004C8.28003 4.03004 8.37003 4.00004 8.44003 3.95004C8.51003 3.90004 8.57003 3.83004 8.62003 3.75004C8.67003 3.67004 8.70003 3.59004 8.72003 3.50004C8.74003 3.41004 8.75003 3.33004 8.76003 3.24004C8.76003 3.15004 8.78003 3.06004 8.78003 2.98004C8.78003 2.89004 8.79003 2.80004 8.79003 2.71004C8.79003 2.62004 8.79003 2.53004 8.79003 2.44004C8.79003 2.35004 8.79003 2.26004 8.78003 2.17004C8.78003 2.08004 8.76003 1.99004 8.75003 1.91004C8.74003 1.82004 8.73003 1.73004 8.70003 1.65004C8.69003 1.61004 8.67003 1.56004 8.65003 1.52004C8.63003 1.48004 8.61003 1.45004 8.59003 1.41004C8.54003 1.34004 8.47003 1.28004 8.39003 1.24004C8.31003 1.20004 8.23003 1.17004 8.14003 1.15004C8.05003 1.13004 7.97003 1.12004 7.88003 1.10004C7.79003 1.09004 7.70003 1.08004 7.62003 1.07004C7.53003 1.07004 7.44003 1.05004 7.36003 1.05004C7.27003 1.05004 7.18003 1.05004 7.09003 1.04004C7.00003 1.04004 6.91003 1.04004 6.82003 1.04004C6.73003 1.04004 6.64003 1.04004 6.55003 1.04004C6.46003 1.04004 6.37003 1.04004 6.28003 1.04004C6.19003 1.04004 6.10003 1.04004 6.01003 1.05004C5.92003 1.05004 5.83003 1.05004 5.74003 1.07004C5.65003 1.07004 5.56003 1.08004 5.48003 1.09004C5.39003 1.09004 5.30003 1.11004 5.22003 1.12004C5.13003 1.13004 5.05003 1.15004 4.96003 1.19004C4.89003 1.22004 4.82003 1.27004 4.76003 1.32004L4.80003 1.33004Z" stroke="#010101" stroke-width="0.25" stroke-linecap="round" stroke-linejoin="round"/>
<path d="M5.10003 1.26993C5.23003 1.21993 5.41003 1.18993 5.65003 1.16993C5.88003 1.14993 6.17003 1.12993 6.44003 1.12993C6.71003 1.12993 6.97003 1.11993 7.21003 1.12993C7.46003 1.13993 7.69003 1.15993 7.87003 1.18993C8.05003 1.21993 8.19003 1.24993 8.29003 1.29993C8.39003 1.34993 8.46003 1.41993 8.51003 1.49993C8.56003 1.57993 8.59003 1.66993 8.62003 1.82993C8.65003 1.99993 8.67003 2.23993 8.67003 2.47993C8.67003 2.71993 8.66003 2.94993 8.64003 3.13993C8.62003 3.31993 8.60003 3.44993 8.55003 3.56993C8.50003 3.69993 8.41003 3.81993 8.24003 3.89993C8.07003 3.97993 7.83003 4.00993 7.56003 4.02993C7.29003 4.04993 7.00003 4.04993 6.68003 4.04993C6.36003 4.04993 6.03003 4.04993 5.75003 4.02993C5.47003 4.00993 5.25003 3.97993 5.09003 3.89993C4.93003 3.81993 4.84003 3.69993 4.79003 3.56993C4.73003 3.43993 4.71003 3.31993 4.69003 3.13993C4.67003 2.95993 4.66003 2.71993 4.66003 2.47993C4.66003 2.23993 4.68003 1.99993 4.71003 1.82993C4.74003 1.65993 4.77003 1.57993 4.83003 1.48993C4.89003 1.40993 4.96003 1.31993 5.09003 1.26993H5.10003Z" stroke="#010101" stroke-width="0.25" stroke-linecap="round" stroke-linejoin="round"/>
<path d="M6.91999 3.8701C6.80999 3.8701 6.69999 3.8701 6.58999 3.8701C6.50999 3.8701 6.42999 3.8701 6.34999 3.8701C6.26999 3.8701 6.18999 3.8701 6.10999 3.8701C6.04999 3.8701 5.98999 3.8701 5.92999 3.8701C5.86999 3.8701 5.80999 3.8701 5.74999 3.8601C5.61999 3.8601 5.49999 3.8401 5.36999 3.8101C5.32999 3.8101 5.28999 3.7901 5.25999 3.7801C5.21999 3.7701 5.18999 3.7501 5.14999 3.7301C5.13999 3.7301 5.12999 3.7101 5.10999 3.7101C5.09999 3.7101 5.08999 3.6901 5.07999 3.6801C5.05999 3.6601 5.03999 3.6401 5.01999 3.6201C5.01999 3.6101 4.99999 3.6001 4.99999 3.5901C4.99999 3.5801 4.98999 3.5701 4.97999 3.5501C4.97999 3.5401 4.96999 3.5201 4.95999 3.5101C4.95999 3.5001 4.94999 3.4801 4.93999 3.4701C4.93999 3.4501 4.91999 3.4301 4.91999 3.4001C4.91999 3.3801 4.90999 3.3501 4.89999 3.3301C4.89999 3.3001 4.88999 3.2701 4.88999 3.2401C4.88999 3.2101 4.88999 3.1801 4.87999 3.1501C4.87999 3.0801 4.86999 3.0001 4.85999 2.9301C4.85999 2.8801 4.85999 2.8301 4.85999 2.7701C4.85999 2.7201 4.85999 2.6701 4.85999 2.6101C4.85999 2.5401 4.85999 2.4701 4.85999 2.4001C4.85999 2.3301 4.85999 2.2601 4.86999 2.1901C4.86999 2.1401 4.86999 2.0901 4.87999 2.0401C4.87999 1.9901 4.88999 1.9401 4.89999 1.8901C4.89999 1.8501 4.90999 1.8201 4.91999 1.7801C4.91999 1.7701 4.91999 1.7501 4.91999 1.7401C4.91999 1.7301 4.91999 1.7101 4.92999 1.7001C4.92999 1.6801 4.93999 1.6601 4.94999 1.6401C4.94999 1.6201 4.96999 1.6001 4.97999 1.5901C4.99999 1.5601 5.02999 1.5301 5.05999 1.5001C5.08999 1.4701 5.12999 1.4501 5.16999 1.4301C5.23999 1.4001 5.29999 1.3901 5.36999 1.3801C5.48999 1.3601 5.59999 1.3501 5.71999 1.3401C5.97998 1.3201 6.24999 1.3101 6.50999 1.3001C6.76999 1.3001 7.02999 1.2901 7.27999 1.3001C7.38999 1.3001 7.50999 1.3201 7.61999 1.3301C7.69999 1.3301 7.77999 1.3501 7.85999 1.3601C7.93999 1.3701 8.01999 1.3901 8.09999 1.4101C8.14999 1.4201 8.18998 1.4401 8.23998 1.4601C8.25998 1.4701 8.28999 1.4901 8.30999 1.5101C8.32999 1.5301 8.34998 1.5501 8.35998 1.5701C8.36998 1.5801 8.37999 1.6001 8.38999 1.6101C8.38999 1.6301 8.40999 1.6401 8.40999 1.6601C8.40999 1.6801 8.42999 1.7001 8.42999 1.7301C8.42999 1.7701 8.44999 1.8001 8.44999 1.8401C8.45999 1.9101 8.46998 1.9801 8.47998 2.0501C8.48998 2.1601 8.49999 2.2701 8.49999 2.3801C8.49999 2.5001 8.49999 2.6101 8.49999 2.7301C8.49999 2.8301 8.48998 2.9301 8.47998 3.0301C8.47998 3.0801 8.47999 3.1301 8.46999 3.1801C8.46999 3.2301 8.45999 3.2801 8.44999 3.3301C8.44999 3.3601 8.43999 3.3901 8.42999 3.4201C8.42999 3.4501 8.40998 3.4801 8.39998 3.5001C8.38998 3.5301 8.37998 3.5501 8.35998 3.5701C8.34998 3.5901 8.32999 3.6201 8.30999 3.6401C8.28999 3.6601 8.26998 3.6801 8.23998 3.7001C8.21998 3.7201 8.18999 3.7301 8.15999 3.7501C8.11999 3.7701 8.06998 3.7801 8.02998 3.8001C7.97998 3.8101 7.93999 3.8201 7.88999 3.8301C7.81999 3.8401 7.74999 3.8501 7.67999 3.8601C7.60999 3.8601 7.53999 3.8701 7.46999 3.8801C7.27999 3.8901 7.08999 3.9001 6.90999 3.9001L6.91999 3.8701Z" stroke="#010101" stroke-width="0.25" stroke-linecap="round" stroke-linejoin="round"/>
<path d="M4.15003 1.33004C4.15003 1.33004 4.16003 1.34004 4.17003 1.35004C4.22003 1.40004 4.26003 1.46004 4.29003 1.52004C4.29003 1.54004 4.31003 1.55004 4.31003 1.57004C4.34003 1.65004 4.36003 1.74004 4.37003 1.83004C4.38003 1.92004 4.39003 2.01004 4.40003 2.09004C4.40003 2.18004 4.41003 2.27004 4.42003 2.36004C4.42003 2.45004 4.42003 2.54004 4.42003 2.63004C4.42003 2.72004 4.42003 2.81004 4.42003 2.90004C4.42003 2.99004 4.41003 3.08004 4.40003 3.17004C4.40003 3.26004 4.38003 3.35004 4.36003 3.43004C4.34003 3.52004 4.32003 3.60004 4.28003 3.68004C4.24003 3.76004 4.19003 3.84004 4.13003 3.90004C4.07003 3.96004 3.99003 4.01004 3.91003 4.04004C3.85003 4.07004 3.78003 4.08004 3.71003 4.10004C3.69003 4.10004 3.67003 4.10004 3.65003 4.11004C3.56003 4.12004 3.47003 4.13004 3.39003 4.14004C3.30003 4.14004 3.21003 4.15004 3.13003 4.16004C3.04003 4.16004 2.95003 4.16004 2.87003 4.16004C2.78003 4.16004 2.69003 4.16004 2.60003 4.16004C2.51003 4.16004 2.42003 4.16004 2.33003 4.16004C2.24003 4.16004 2.15003 4.16004 2.06003 4.16004C1.97003 4.16004 1.88003 4.16004 1.79003 4.16004C1.70003 4.16004 1.61003 4.16004 1.53003 4.16004C1.44003 4.16004 1.35003 4.16004 1.27003 4.14004C1.18003 4.14004 1.09003 4.12004 1.01003 4.11004C0.920034 4.10004 0.830034 4.08004 0.750034 4.06004C0.670034 4.03004 0.580034 4.00004 0.510034 3.95004C0.440034 3.90004 0.380034 3.83004 0.330034 3.75004C0.280034 3.67004 0.250034 3.59004 0.230034 3.50004C0.210034 3.41004 0.200034 3.33004 0.190034 3.24004C0.190034 3.15004 0.170034 3.06004 0.170034 2.98004C0.170034 2.89004 0.160034 2.80004 0.160034 2.71004C0.160034 2.62004 0.160034 2.53004 0.160034 2.44004C0.160034 2.35004 0.160034 2.26004 0.170034 2.17004C0.170034 2.08004 0.190034 1.99004 0.200034 1.91004C0.210034 1.82004 0.220034 1.73004 0.250034 1.65004C0.260034 1.61004 0.280034 1.56004 0.300034 1.52004C0.320034 1.48004 0.340034 1.45004 0.360034 1.41004C0.410034 1.34004 0.480034 1.28004 0.560034 1.24004C0.640034 1.20004 0.720034 1.17004 0.810034 1.15004C0.900034 1.13004 0.980034 1.12004 1.07003 1.10004C1.16003 1.09004 1.25003 1.08004 1.33003 1.07004C1.42003 1.07004 1.51003 1.05004 1.59003 1.05004C1.68003 1.05004 1.77003 1.05004 1.86003 1.04004C1.95003 1.04004 2.04003 1.04004 2.13003 1.04004C2.22003 1.04004 2.31003 1.04004 2.40003 1.04004C2.49003 1.04004 2.58003 1.04004 2.67003 1.04004C2.76003 1.04004 2.85003 1.04004 2.94003 1.05004C3.03003 1.05004 3.12003 1.05004 3.21003 1.07004C3.30003 1.07004 3.39003 1.08004 3.47003 1.09004C3.56003 1.09004 3.65003 1.11004 3.73003 1.12004C3.82003 1.13004 3.90003 1.15004 3.99003 1.19004C4.06003 1.22004 4.13003 1.27004 4.19003 1.32004L4.15003 1.33004Z" stroke="#010101" stroke-width="0.25" stroke-linecap="round" stroke-linejoin="round"/>
<path d="M4.71008 1.32007C4.71008 1.32007 4.77008 1.32007 4.80008 1.33007" stroke="#010101" stroke-width="0.25" stroke-linecap="round" stroke-linejoin="round"/>
<path d="M3.85003 1.26993C3.72003 1.21993 3.54003 1.18993 3.30003 1.16993C3.07003 1.14993 2.78003 1.12993 2.51003 1.12993C2.24003 1.12993 1.98003 1.11993 1.74003 1.12993C1.49003 1.13993 1.26003 1.15993 1.08003 1.18993C0.900029 1.21993 0.760029 1.24993 0.660029 1.29993C0.560029 1.34993 0.490029 1.41993 0.440029 1.49993C0.390029 1.57993 0.360029 1.66993 0.330029 1.82993C0.300029 1.99993 0.280029 2.23993 0.280029 2.47993C0.280029 2.71993 0.290029 2.94993 0.310029 3.13993C0.330029 3.31993 0.350029 3.44993 0.400029 3.56993C0.450029 3.69993 0.540029 3.81993 0.710029 3.89993C0.880029 3.97993 1.12003 4.00993 1.39003 4.02993C1.66003 4.04993 1.95003 4.04993 2.27003 4.04993C2.59003 4.04993 2.92003 4.04993 3.20003 4.02993C3.48003 4.00993 3.70003 3.97993 3.86003 3.89993C4.02003 3.81993 4.11003 3.69993 4.16003 3.56993C4.22003 3.43993 4.24003 3.31993 4.26003 3.13993C4.28003 2.95993 4.29003 2.71993 4.29003 2.47993C4.29003 2.23993 4.27003 1.99993 4.24003 1.82993C4.21003 1.65993 4.18003 1.57993 4.12003 1.48993C4.06003 1.40993 3.99003 1.31993 3.86003 1.26993H3.85003Z" stroke="#010101" stroke-width="0.25" stroke-linecap="round" stroke-linejoin="round"/>
<path d="M4.41003 2.45C4.41003 2.45 4.50003 2.44 4.54003 2.45" stroke="#010101" stroke-width="0.25" stroke-linecap="round" stroke-linejoin="round"/>
<path d="M4.97998 3.5C4.97998 3.5 4.97998 3.5 4.97998 3.51" stroke="#010101" stroke-width="0.25" stroke-linecap="round" stroke-linejoin="round"/>
<path d="M4.54002 2.86011C4.54002 2.86011 4.45002 2.87011 4.40002 2.86011" stroke="#010101" stroke-width="0.25" stroke-linecap="round" stroke-linejoin="round"/>
<path d="M2.03007 3.8701C2.14007 3.8701 2.25007 3.8701 2.36007 3.8701C2.44007 3.8701 2.52007 3.8701 2.60007 3.8701C2.68007 3.8701 2.76007 3.8701 2.84007 3.8701C2.90007 3.8701 2.96007 3.8701 3.02007 3.8701C3.08007 3.8701 3.14007 3.8701 3.20007 3.8601C3.33007 3.8601 3.45007 3.8401 3.58007 3.8101C3.62007 3.8101 3.66007 3.7901 3.69007 3.7801C3.73007 3.7701 3.76007 3.7501 3.80007 3.7301C3.81007 3.7301 3.82007 3.7101 3.84007 3.7101C3.85007 3.7101 3.86007 3.6901 3.87007 3.6801C3.89007 3.6601 3.91007 3.6401 3.93007 3.6201C3.93007 3.6101 3.95007 3.6001 3.95007 3.5901C3.95007 3.5801 3.96007 3.5701 3.97007 3.5501C3.97007 3.5401 3.98007 3.5201 3.99007 3.5101C3.99007 3.5001 4.00007 3.4801 4.01007 3.4701C4.01007 3.4501 4.03007 3.4301 4.03007 3.4001C4.03007 3.3801 4.04007 3.3501 4.05007 3.3301C4.05007 3.3001 4.06007 3.2701 4.06007 3.2401C4.06007 3.2101 4.06007 3.1801 4.07007 3.1501C4.07007 3.0801 4.08007 3.0001 4.09007 2.9301C4.09007 2.8801 4.09007 2.8301 4.09007 2.7701C4.09007 2.7201 4.09007 2.6701 4.09007 2.6101C4.09007 2.5401 4.09007 2.4701 4.09007 2.4001C4.09007 2.3301 4.09007 2.2601 4.08007 2.1901C4.08007 2.1401 4.08007 2.0901 4.07007 2.0401C4.07007 1.9901 4.06007 1.9401 4.05007 1.8901C4.05007 1.8501 4.04007 1.8201 4.03007 1.7801C4.03007 1.7701 4.03007 1.7501 4.03007 1.7401C4.03007 1.7301 4.03007 1.7101 4.02007 1.7001C4.02007 1.6801 4.01007 1.6601 4.00007 1.6401C4.00007 1.6201 3.98007 1.6001 3.97007 1.5901C3.95007 1.5601 3.92007 1.5301 3.89007 1.5001C3.86007 1.4701 3.82007 1.4501 3.78007 1.4301C3.71007 1.4001 3.65007 1.3901 3.58007 1.3801C3.46007 1.3601 3.35007 1.3501 3.23007 1.3401C2.97007 1.3201 2.70007 1.3101 2.44007 1.3001C2.18007 1.3001 1.92007 1.2901 1.67007 1.3001C1.56007 1.3001 1.44007 1.3201 1.33007 1.3301C1.25007 1.3301 1.17007 1.3501 1.09007 1.3601C1.01007 1.3701 0.930073 1.3901 0.850073 1.4101C0.800073 1.4201 0.760073 1.4401 0.710073 1.4601C0.690073 1.4701 0.660073 1.4901 0.640073 1.5101C0.620073 1.5301 0.600073 1.5501 0.590073 1.5701C0.580073 1.5801 0.570073 1.6001 0.560073 1.6101C0.560073 1.6301 0.540073 1.6401 0.540073 1.6601C0.540073 1.6801 0.520073 1.7001 0.520073 1.7301C0.520073 1.7701 0.500073 1.8001 0.500073 1.8401C0.490073 1.9101 0.480073 1.9801 0.470073 2.0501C0.460073 2.1601 0.450073 2.2701 0.450073 2.3801C0.450073 2.5001 0.450073 2.6101 0.450073 2.7301C0.450073 2.8301 0.460073 2.9301 0.470073 3.0301C0.470073 3.0801 0.470073 3.1301 0.480073 3.1801C0.480073 3.2301 0.490073 3.2801 0.500073 3.3301C0.500073 3.3601 0.510073 3.3901 0.520073 3.4201C0.520073 3.4501 0.540073 3.4801 0.550073 3.5001C0.560073 3.5301 0.570073 3.5501 0.590073 3.5701C0.600073 3.5901 0.620073 3.6201 0.640073 3.6401C0.660073 3.6601 0.680073 3.6801 0.710073 3.7001C0.730073 3.7201 0.760073 3.7301 0.790073 3.7501C0.830073 3.7701 0.880073 3.7801 0.920073 3.8001C0.970073 3.8101 1.01007 3.8201 1.06007 3.8301C1.13007 3.8401 1.20007 3.8501 1.27007 3.8601C1.34007 3.8601 1.41007 3.8701 1.48007 3.8801C1.67007 3.8901 1.86007 3.9001 2.04007 3.9001L2.03007 3.8701Z" stroke="#010101" stroke-width="0.25" stroke-linecap="round" stroke-linejoin="round"/>
<path d="M4.40002 1.09009V1.19009" stroke="#010101" stroke-width="0.25" stroke-linecap="round" stroke-linejoin="round"/>
</svg>
