<?xml version="1.0" encoding="UTF-8"?>
<svg id="Layer_1" data-name="Layer 1" xmlns="http://www.w3.org/2000/svg" width="6.09" height="12.75" viewBox="0 0 6.09 12.75">
  <defs>
    <style>
      .cls-1 {
        fill: #fff;
      }

      .cls-2 {
        stroke-miterlimit: 4;
      }

      .cls-2, .cls-3 {
        fill: none;
        stroke: #010101;
        stroke-width: .25px;
      }

      .cls-3 {
        stroke-linecap: round;
        stroke-linejoin: round;
      }
    </style>
  </defs>
  <rect class="cls-1" width="6.08" height="12.74"/>
  <g id="Make2D">
    <g id="Make2D::Visible">
      <g id="Make2D::Visible::Layer_01" data-name="Make2D::Visible::Layer 01">
        <path class="cls-3" d="m5.81,11.63c-.09-.45-1.28-.82-2.77-.82"/>
        <path class="cls-3" d="m4.08,10.87c-.69.12-1.39.12-2.07,0"/>
        <path class="cls-3" d="m3.05,10.81c-1.49,0-2.67.37-2.77.82"/>
        <circle class="cls-2" cx="1.65" cy="2.63" r=".19"/>
        <path class="cls-3" d="m2.19,4.98C.89,4.5.23,3.07.7,1.77S2.61-.19,3.91.28c1.3.47,1.96,1.91,1.49,3.21-.25.69-.79,1.23-1.48,1.49"/>
        <path class="cls-3" d="m3.84,4.73c1.16-.44,1.75-1.73,1.31-2.89C4.72.68,3.42.09,2.26.52c-1.16.44-1.75,1.73-1.31,2.89.23.61.71,1.09,1.31,1.31"/>
        <path class="cls-3" d="m3.74,4.31c.93-.38,1.37-1.45.99-2.38s-1.45-1.37-2.38-.99c-.93.38-1.37,1.45-.99,2.38.19.45.54.81.99.99"/>
        <circle class="cls-2" cx="1.65" cy="2.63" r=".16"/>
        <circle class="cls-2" cx="4.45" cy="2.63" r=".19"/>
        <path class="cls-3" d="m5.96,11.59s0,.05,0,.07c0,.26-.32.51-.88.69-.55.18-1.28.27-2.04.27s-1.49-.1-2.04-.27c-.55-.18-.88-.43-.88-.69,0-.02,0-.04,0-.06.24-1.25.46-2.41.73-3.71.01-.05.02-.11.03-.15.02-.08.03-.13.05-.17.05-.15.15-.24.37-.36.09-.05.21-.11.28-.15,0-.02,0-.02.01-.03.01-.04.05-.19.09-.32.12-.41.21-.72.3-1.06.05-.17.1-.35.15-.52.05-.17.1-.35.15-.51,0-.01,0-.03.01-.04,0-.01.01-.02.02-.03.02-.02.03-.03.04-.04.02-.02.04-.03.07-.04s.05-.02.09-.03c.06-.02.15-.04.24-.05.09-.01.18-.02.28-.02.1,0,.19,0,.28.02.09.01.18.03.24.05.03.01.06.02.09.03.02.01.04.02.07.04.01,0,.03.02.04.04,0,0,.02.02.02.03,0,.01.01.03.01.04.05.16.1.33.15.51.05.17.1.35.15.52.1.34.18.64.3,1.06.04.14.08.28.09.32,0,0,0,.01.01.03.08.04.19.1.28.15.22.12.31.22.37.36.02.05.03.1.05.17,0,.04.02.1.03.15.27,1.3.49,2.46.73,3.71Z"/>
        <path class="cls-3" d="m2.3,4.59s0-.06-.01-.1c0-.02,0-.03,0-.05.02-.11.41-.22.75-.21.34,0,.73.1.75.21,0,.01,0,.03,0,.05,0,.03,0,.06-.01.09"/>
        <path class="cls-3" d="m2.29,4.45c.09-.22.23-.42.39-.6.04-.05.21-.09.37-.09.15,0,.33.04.37.09,0,0,0,0,.01.01.15.17.28.37.37.58"/>
        <path class="cls-3" d="m2.67,2.99s.04-.05.11-.1c.02-.01.03-.02.04-.03.04-.04.07-.07.1-.11.03-.03.1-.12.15-.13.04.01.08.04.1.07.05.05.09.11.13.17.01.02.03.04.04.06.03.05.06.09.08.13.02.03.03.06.03.09v.1c-.01.21-.02.41-.02.61"/>
        <path class="cls-3" d="m2.66,3.87c0-.21,0-.41,0-.62,0-.09,0-.17,0-.26,0-.03,0-.11,0-.2,0-.09,0-.2,0-.3,0-.13,0-.26,0-.25.03-.06.06-.11.11-.13.04-.02.09-.03.14-.03.06,0,.11,0,.19,0,.2,0,.27,0,.31,0,.05,0,.1,0,.14.03.05.03.09.08.11.13,0,0,0,.12,0,.25,0,.17,0,.44,0,.5,0,0,0,.01,0,.02-.03.09-.12.16-.22.16"/>
        <path class="cls-3" d="m3.18,2.08h0s-.01,0-.02.01c0,0,.01,0,.02,0,.01,0,.03.01.06.03,0,0-.01,0-.02,0-.01,0-.03.01-.04.02,0,0-.01,0-.02,0,0,0,.01,0,.02,0,.01,0,.03.01.06.03,0,0-.01,0-.02,0-.01,0-.03.01-.04.02,0,0-.01,0-.02,0,0,0,.01,0,.02,0,.01,0,.03.01.06.03,0,0-.01,0-.02,0-.01,0-.03.01-.04.02,0,0-.01,0-.02,0,0,0,.01,0,.02,0,.01,0,.03.01.06.03,0,0-.01,0-.02,0-.01,0-.03.01-.04.02,0,0-.01,0-.02,0,0,0,.01,0,.02,0,.01,0,.03.01.06.03,0,0-.01,0-.02,0-.01,0-.03.01-.04.02,0,0-.01,0-.02,0,0,0,.01,0,.02,0,.01,0,.03.01.06.03,0,0-.01,0-.02,0-.01,0-.03.01-.04.02,0,0-.01,0-.02,0,0,0,.01,0,.02,0,.01,0,.03.01.06.03,0,0-.01,0-.02,0-.01,0-.03.01-.04.02,0,0-.01,0-.02,0,0,0,.01,0,.02,0,.01,0,.03.01.06.03,0,0-.01,0-.02,0-.01,0-.03.01-.04.02,0,0-.01,0-.02,0,0,0,.01,0,.02,0,.01,0,.03.01.06.03-.02.01-.04.02-.06.02,0,0,0,0,0,0,0,0,.01,0,.02,0,0,0-.01,0-.02,0-.01,0-.02,0-.03-.01"/>
        <path class="cls-3" d="m3.12,2.64s.04-.02.05-.02c0,0,.01,0,.02,0,0,0-.01,0-.02,0-.01,0-.03-.01-.06-.03.03-.01.04-.02.06-.03,0,0,.01,0,.02,0,0,0-.01,0-.02,0-.01,0-.03-.01-.06-.03.03-.01.04-.02.06-.03,0,0,.01,0,.02,0,0,0-.01,0-.02,0-.01,0-.03-.01-.06-.03.03-.01.04-.02.06-.03,0,0,.01,0,.02,0,0,0-.01,0-.02,0-.01,0-.03-.01-.06-.03.03-.01.04-.02.06-.03,0,0,.01,0,.02,0,0,0-.01,0-.02,0-.01,0-.03-.01-.06-.03.03-.01.04-.02.06-.03,0,0,.01,0,.02,0,0,0-.01,0-.02,0-.01,0-.03-.01-.06-.03.03-.01.04-.02.06-.03,0,0,.01,0,.02,0,0,0-.01,0-.02,0-.01,0-.03-.01-.06-.03.03-.01.04-.02.06-.03,0,0,.01,0,.02,0,0,0-.01,0-.02,0-.01,0-.03-.01-.06-.03,0,0,.01,0,.02,0,0,0,0,0,.01,0"/>
        <path class="cls-3" d="m3.67,2.86s.01.01.02.01h.05s.04-.02.04-.04c0,0,0-.1,0-.21s0-.22,0-.21c0-.02-.02-.04-.04-.04h-.05s-.02,0-.02.02c0,0,0,0,0,0"/>
        <circle class="cls-2" cx="4.45" cy="2.63" r=".16"/>
      </g>
    </g>
  </g>
</svg>