<svg width="7" height="13" viewBox="0 0 7 13" fill="none" xmlns="http://www.w3.org/2000/svg">
<path d="M6.5 2.5C6.5 0.9 4.83333 0.166667 4 0C3.5 0 1.5 0.5 1.5 2.5C1.5 4.1 2.5 4.83333 3 5L2.5 7L2 7.5L1 11.5C1.16667 11.8333 2 12.5 4 12.5C6 12.5 6.83333 11.8333 7 11.5L6 7.5L5.5 7L5 5C5.5 4.83333 6.5 4.1 6.5 2.5Z" fill="white"/>
<path d="M6.69004 11.6301C6.60004 11.1801 5.41004 10.8101 3.92004 10.8101" stroke="#010101" stroke-width="0.25" stroke-linecap="round" stroke-linejoin="round"/>
<path d="M4.96001 10.8701C4.27001 10.9901 3.57001 10.9901 2.89001 10.8701" stroke="#010101" stroke-width="0.25" stroke-linecap="round" stroke-linejoin="round"/>
<path d="M3.93003 10.8101C2.44003 10.8101 1.26003 11.1801 1.16003 11.6301" stroke="#010101" stroke-width="0.25" stroke-linecap="round" stroke-linejoin="round"/>
<path d="M2.52997 2.81994C2.6349 2.81994 2.71997 2.73488 2.71997 2.62994C2.71997 2.52501 2.6349 2.43994 2.52997 2.43994C2.42503 2.43994 2.33997 2.52501 2.33997 2.62994C2.33997 2.73488 2.42503 2.81994 2.52997 2.81994Z" stroke="#010101" stroke-width="0.25"/>
<path d="M3.06994 4.98001C1.76994 4.50001 1.10994 3.07001 1.57994 1.77001C2.04994 0.470013 3.48994 -0.189987 4.78994 0.280013C6.08994 0.750013 6.74994 2.19001 6.27994 3.49001C6.02994 4.18001 5.48994 4.72001 4.79994 4.98001" stroke="#010101" stroke-width="0.25" stroke-linecap="round" stroke-linejoin="round"/>
<path d="M4.72001 4.73013C5.88001 4.29013 6.47001 3.00013 6.03001 1.84013C5.60001 0.680134 4.30001 0.0901335 3.14001 0.520133C1.98001 0.960133 1.39001 2.25013 1.83001 3.41013C2.06001 4.02013 2.54001 4.50013 3.14001 4.72013" stroke="#010101" stroke-width="0.25" stroke-linecap="round" stroke-linejoin="round"/>
<path d="M4.62001 4.30996C5.55001 3.92996 5.99001 2.85996 5.61001 1.92996C5.23001 0.999962 4.16001 0.559962 3.23001 0.939962C2.30001 1.31996 1.86001 2.38996 2.24001 3.31996C2.43001 3.76996 2.78001 4.12996 3.23001 4.30996" stroke="#010101" stroke-width="0.25" stroke-linecap="round" stroke-linejoin="round"/>
<path d="M2.53 2.78997C2.61836 2.78997 2.69 2.71834 2.69 2.62997C2.69 2.54161 2.61836 2.46997 2.53 2.46997C2.44163 2.46997 2.37 2.54161 2.37 2.62997C2.37 2.71834 2.44163 2.78997 2.53 2.78997Z" stroke="#010101" stroke-width="0.25"/>
<path d="M5.33001 2.81994C5.43495 2.81994 5.52001 2.73488 5.52001 2.62994C5.52001 2.52501 5.43495 2.43994 5.33001 2.43994C5.22508 2.43994 5.14001 2.52501 5.14001 2.62994C5.14001 2.73488 5.22508 2.81994 5.33001 2.81994Z" stroke="#010101" stroke-width="0.25"/>
<path d="M6.84 11.5901C6.84 11.5901 6.84 11.6401 6.84 11.6601C6.84 11.9201 6.52 12.1701 5.96 12.3501C5.41 12.5301 4.68 12.6201 3.92 12.6201C3.16 12.6201 2.43 12.5201 1.88 12.3501C1.33 12.1701 1 11.9201 1 11.6601C1 11.6401 1 11.6201 1 11.6001C1.24 10.3501 1.46 9.19012 1.73 7.89012C1.74 7.84012 1.75 7.78012 1.76 7.74012C1.78 7.66012 1.79 7.61012 1.81 7.57012C1.86 7.42012 1.96 7.33012 2.18 7.21012C2.27 7.16012 2.39 7.10012 2.46 7.06012C2.46 7.04012 2.46 7.04012 2.47 7.03012C2.48 6.99012 2.52 6.84012 2.56 6.71012C2.68 6.30012 2.77 5.99012 2.86 5.65012C2.91 5.48012 2.96 5.30012 3.01 5.13012C3.06 4.96012 3.11 4.78012 3.16 4.62012C3.16 4.61012 3.16 4.59012 3.17 4.58012C3.17 4.57012 3.18 4.56012 3.19 4.55012C3.21 4.53012 3.22 4.52012 3.23 4.51012C3.25 4.49012 3.27 4.48012 3.3 4.47012C3.33 4.46012 3.35 4.45012 3.39 4.44012C3.45 4.42012 3.54 4.40012 3.63 4.39012C3.72 4.38012 3.81 4.37012 3.91 4.37012C4.01 4.37012 4.1 4.37012 4.19 4.39012C4.28 4.40012 4.37 4.42012 4.43 4.44012C4.46 4.45012 4.49 4.46012 4.52 4.47012C4.54 4.48012 4.56 4.49012 4.59 4.51012C4.6 4.51012 4.62 4.53012 4.63 4.55012C4.63 4.55012 4.65 4.57012 4.65 4.58012C4.65 4.59012 4.66 4.61012 4.66 4.62012C4.71 4.78012 4.76 4.95012 4.81 5.13012C4.86 5.30012 4.91 5.48012 4.96 5.65012C5.06 5.99012 5.14 6.29012 5.26 6.71012C5.3 6.85012 5.34 6.99012 5.35 7.03012C5.35 7.03012 5.35 7.04012 5.36 7.06012C5.44 7.10012 5.55 7.16012 5.64 7.21012C5.86 7.33012 5.95 7.43012 6.01 7.57012C6.03 7.62012 6.04 7.67012 6.06 7.74012C6.06 7.78012 6.08 7.84012 6.09 7.89012C6.36 9.19012 6.58 10.3501 6.82 11.6001L6.84 11.5901Z" stroke="#010101" stroke-width="0.25" stroke-linecap="round" stroke-linejoin="round"/>
<path d="M3.18004 4.59013C3.18004 4.59013 3.18004 4.53013 3.17004 4.49013C3.17004 4.47013 3.17004 4.46013 3.17004 4.44013C3.19004 4.33013 3.58004 4.22013 3.92004 4.23013C4.26004 4.23013 4.65004 4.33013 4.67004 4.44013C4.67004 4.45013 4.67004 4.47013 4.67004 4.49013C4.67004 4.52013 4.67004 4.55013 4.66004 4.58013" stroke="#010101" stroke-width="0.25" stroke-linecap="round" stroke-linejoin="round"/>
<path d="M3.17004 4.45001C3.26004 4.23001 3.40004 4.03001 3.56004 3.85001C3.60004 3.80001 3.77004 3.76001 3.93004 3.76001C4.08004 3.76001 4.26004 3.80001 4.30004 3.85001C4.30004 3.85001 4.30004 3.85001 4.31004 3.86001C4.46004 4.03001 4.59004 4.23001 4.68004 4.44001" stroke="#010101" stroke-width="0.25" stroke-linecap="round" stroke-linejoin="round"/>
<path d="M3.55005 2.99012C3.55005 2.99012 3.59005 2.94012 3.66005 2.89012C3.68005 2.88012 3.69005 2.87012 3.70005 2.86012C3.74005 2.82012 3.77005 2.79012 3.80005 2.75012C3.83005 2.72012 3.90005 2.63012 3.95005 2.62012C3.99005 2.63012 4.03005 2.66012 4.05005 2.69012C4.10005 2.74012 4.14005 2.80012 4.18005 2.86012C4.19005 2.88012 4.21005 2.90012 4.22005 2.92012C4.25005 2.97012 4.28005 3.01012 4.30005 3.05012C4.32005 3.08012 4.33005 3.11012 4.33005 3.14012V3.24012C4.32005 3.45012 4.31005 3.65012 4.31005 3.85012" stroke="#010101" stroke-width="0.25" stroke-linecap="round" stroke-linejoin="round"/>
<path d="M3.54004 3.87008C3.54004 3.66008 3.54004 3.46008 3.54004 3.25008C3.54004 3.16008 3.54004 3.08008 3.54004 2.99008C3.54004 2.96008 3.54004 2.88008 3.54004 2.79008C3.54004 2.70008 3.54004 2.59008 3.54004 2.49008C3.54004 2.36008 3.54004 2.23008 3.54004 2.24008C3.57004 2.18008 3.60004 2.13008 3.65004 2.11008C3.69004 2.09008 3.74004 2.08008 3.79004 2.08008C3.85004 2.08008 3.90004 2.08008 3.98004 2.08008C4.18004 2.08008 4.25004 2.08008 4.29004 2.08008C4.34004 2.08008 4.39004 2.08008 4.43004 2.11008C4.48004 2.14008 4.52004 2.19008 4.54004 2.24008C4.54004 2.24008 4.54004 2.36008 4.54004 2.49008C4.54004 2.66008 4.54004 2.93008 4.54004 2.99008C4.54004 2.99008 4.54004 3.00008 4.54004 3.01008C4.51004 3.10008 4.42004 3.17008 4.32004 3.17008" stroke="#010101" stroke-width="0.25" stroke-linecap="round" stroke-linejoin="round"/>
<path d="M4.06003 2.08008C4.06003 2.08008 4.05003 2.08008 4.04003 2.09008C4.04003 2.09008 4.05003 2.09008 4.06003 2.09008C4.07003 2.09008 4.09003 2.10008 4.12003 2.12008C4.12003 2.12008 4.11003 2.12008 4.10003 2.12008C4.09003 2.12008 4.07003 2.13008 4.06003 2.14008M4.06003 2.14008C4.06003 2.14008 4.05003 2.14008 4.04003 2.14008C4.04003 2.14008 4.05003 2.14008 4.06003 2.14008ZM4.06003 2.14008C4.07003 2.14008 4.09003 2.15008 4.12003 2.17008C4.12003 2.17008 4.11003 2.17008 4.10003 2.17008C4.09003 2.17008 4.07003 2.18008 4.06003 2.19008M4.06003 2.19008C4.06003 2.19008 4.05003 2.19008 4.04003 2.19008C4.04003 2.19008 4.05003 2.19008 4.06003 2.19008ZM4.06003 2.19008C4.07003 2.19008 4.09003 2.20008 4.12003 2.22008C4.12003 2.22008 4.11003 2.22008 4.10003 2.22008C4.09003 2.22008 4.07003 2.23008 4.06003 2.24008M4.06003 2.24008C4.06003 2.24008 4.05003 2.24008 4.04003 2.24008C4.04003 2.24008 4.05003 2.24008 4.06003 2.24008ZM4.06003 2.24008C4.07003 2.24008 4.09003 2.25008 4.12003 2.27008C4.12003 2.27008 4.11003 2.27008 4.10003 2.27008C4.09003 2.27008 4.07003 2.28008 4.06003 2.29008M4.06003 2.29008C4.06003 2.29008 4.05003 2.29008 4.04003 2.29008C4.04003 2.29008 4.05003 2.29008 4.06003 2.29008ZM4.06003 2.29008C4.07003 2.29008 4.09003 2.30008 4.12003 2.32008C4.12003 2.32008 4.11003 2.32008 4.10003 2.32008C4.09003 2.32008 4.07003 2.33008 4.06003 2.34008M4.06003 2.34008C4.06003 2.34008 4.05003 2.34008 4.04003 2.34008C4.04003 2.34008 4.05003 2.34008 4.06003 2.34008ZM4.06003 2.34008C4.07003 2.34008 4.09003 2.35008 4.12003 2.37008C4.12003 2.37008 4.11003 2.37008 4.10003 2.37008C4.09003 2.37008 4.07003 2.38008 4.06003 2.39008M4.06003 2.39008C4.06003 2.39008 4.05003 2.39008 4.04003 2.39008C4.04003 2.39008 4.05003 2.39008 4.06003 2.39008ZM4.06003 2.39008C4.07003 2.39008 4.09003 2.40008 4.12003 2.42008C4.12003 2.42008 4.11003 2.42008 4.10003 2.42008C4.09003 2.42008 4.07003 2.43008 4.06003 2.44008M4.06003 2.44008C4.06003 2.44008 4.05003 2.44008 4.04003 2.44008C4.04003 2.44008 4.05003 2.44008 4.06003 2.44008ZM4.06003 2.44008C4.07003 2.44008 4.09003 2.45008 4.12003 2.47008C4.12003 2.47008 4.11003 2.47008 4.10003 2.47008C4.09003 2.47008 4.07003 2.48008 4.06003 2.49008M4.06003 2.49008C4.06003 2.49008 4.05003 2.49008 4.04003 2.49008C4.04003 2.49008 4.05003 2.49008 4.06003 2.49008ZM4.06003 2.49008C4.07003 2.49008 4.09003 2.50008 4.12003 2.52008C4.10003 2.53008 4.08003 2.54008 4.06003 2.54008M4.06003 2.54008C4.06003 2.54008 4.07003 2.54008 4.08003 2.54008C4.08003 2.54008 4.07003 2.54008 4.06003 2.54008ZM4.06003 2.54008C4.05003 2.54008 4.04003 2.54008 4.03003 2.53008" stroke="#010101" stroke-width="0.25" stroke-linecap="round" stroke-linejoin="round"/>
<path d="M3.99999 2.63992C3.99999 2.63992 4.03999 2.61992 4.04999 2.61992M4.04999 2.61992C4.04999 2.61992 4.05999 2.61992 4.06999 2.61992C4.06999 2.61992 4.05999 2.61992 4.04999 2.61992ZM4.04999 2.61992C4.03999 2.61992 4.01999 2.60992 3.98999 2.58992C4.01999 2.57992 4.02999 2.56992 4.04999 2.55992M4.04999 2.55992C4.04999 2.55992 4.05999 2.55992 4.06999 2.55992C4.06999 2.55992 4.05999 2.55992 4.04999 2.55992ZM4.04999 2.55992C4.03999 2.55992 4.01999 2.54992 3.98999 2.52992C4.01999 2.51992 4.02999 2.50992 4.04999 2.49992M4.04999 2.49992C4.04999 2.49992 4.05999 2.49992 4.06999 2.49992C4.06999 2.49992 4.05999 2.49992 4.04999 2.49992ZM4.04999 2.49992C4.03999 2.49992 4.01999 2.48992 3.98999 2.46992C4.01999 2.45992 4.02999 2.44992 4.04999 2.43992M4.04999 2.43992C4.04999 2.43992 4.05999 2.43992 4.06999 2.43992C4.06999 2.43992 4.05999 2.43992 4.04999 2.43992ZM4.04999 2.43992C4.03999 2.43992 4.01999 2.42992 3.98999 2.40992C4.01999 2.39992 4.02999 2.38992 4.04999 2.37992M4.04999 2.37992C4.04999 2.37992 4.05999 2.37992 4.06999 2.37992C4.06999 2.37992 4.05999 2.37992 4.04999 2.37992ZM4.04999 2.37992C4.03999 2.37992 4.01999 2.36992 3.98999 2.34992C4.01999 2.33992 4.02999 2.32992 4.04999 2.31992M4.04999 2.31992C4.04999 2.31992 4.05999 2.31992 4.06999 2.31992C4.06999 2.31992 4.05999 2.31992 4.04999 2.31992ZM4.04999 2.31992C4.03999 2.31992 4.01999 2.30992 3.98999 2.28992C4.01999 2.27992 4.02999 2.26992 4.04999 2.25992M4.04999 2.25992C4.04999 2.25992 4.05999 2.25992 4.06999 2.25992C4.06999 2.25992 4.05999 2.25992 4.04999 2.25992ZM4.04999 2.25992C4.03999 2.25992 4.01999 2.24992 3.98999 2.22992C4.01999 2.21992 4.02999 2.20992 4.04999 2.19992M4.04999 2.19992C4.04999 2.19992 4.05999 2.19992 4.06999 2.19992C4.06999 2.19992 4.05999 2.19992 4.04999 2.19992ZM4.04999 2.19992C4.03999 2.19992 4.01999 2.18992 3.98999 2.16992C3.98999 2.16992 3.99999 2.16992 4.00999 2.16992C4.00999 2.16992 4.00999 2.16992 4.01999 2.16992" stroke="#010101" stroke-width="0.25" stroke-linecap="round" stroke-linejoin="round"/>
<path d="M4.55005 2.86012C4.55005 2.86012 4.56005 2.87012 4.57005 2.87012H4.62005C4.62005 2.87012 4.66005 2.85012 4.66005 2.83012C4.66005 2.83012 4.66005 2.73012 4.66005 2.62012C4.66005 2.51012 4.66005 2.40012 4.66005 2.41012C4.66005 2.39012 4.64005 2.37012 4.62005 2.37012H4.57005C4.57005 2.37012 4.55005 2.37012 4.55005 2.39012" stroke="#010101" stroke-width="0.25" stroke-linecap="round" stroke-linejoin="round"/>
<path d="M5.33004 2.78997C5.41841 2.78997 5.49004 2.71834 5.49004 2.62997C5.49004 2.54161 5.41841 2.46997 5.33004 2.46997C5.24168 2.46997 5.17004 2.54161 5.17004 2.62997C5.17004 2.71834 5.24168 2.78997 5.33004 2.78997Z" stroke="#010101" stroke-width="0.25"/>
</svg>
