<?xml version="1.0" encoding="UTF-8"?>
<svg id="Layer_2" data-name="Layer 2" xmlns="http://www.w3.org/2000/svg" viewBox="0 0 28.25 2.45">
  <defs>
    <style>
      .cls-1 {
        fill: none;
        stroke: #000;
        stroke-linecap: round;
        stroke-linejoin: round;
        stroke-width: .25px;
      }
    </style>
  </defs>
  <g id="Default">
    <g id="LINE">
      <line class="cls-1" x1="27" y1="2.2" x2="27" y2="2.33"/>
    </g>
    <g id="LINE-2" data-name="LINE">
      <line class="cls-1" x1="27" y1="2.33" x2="1.12" y2="2.33"/>
    </g>
    <g id="LINE-3" data-name="LINE">
      <line class="cls-1" x1="1.12" y1="2.33" x2="1.12" y2="2.2"/>
    </g>
    <g id="LINE-4" data-name="LINE">
      <line class="cls-1" x1="1.12" y1="2.2" x2="27" y2="2.2"/>
    </g>
    <g id="LINE-5" data-name="LINE">
      <line class="cls-1" x1="25.87" y1=".58" x2="25.87" y2="2.2"/>
    </g>
    <g id="LINE-6" data-name="LINE">
      <line class="cls-1" x1="25.87" y1="2.2" x2="2.37" y2="2.2"/>
    </g>
    <g id="LINE-7" data-name="LINE">
      <line class="cls-1" x1="2.37" y1="2.2" x2="2.37" y2=".58"/>
    </g>
    <g id="LINE-8" data-name="LINE">
      <line class="cls-1" x1="2.37" y1=".58" x2="25.87" y2=".58"/>
    </g>
    <g id="LINE-9" data-name="LINE">
      <line class="cls-1" x1=".12" y1=".12" x2="2.12" y2=".12"/>
    </g>
    <g id="LINE-10" data-name="LINE">
      <line class="cls-1" x1="2.12" y1=".12" x2="2.12" y2="2.12"/>
    </g>
    <g id="LINE-11" data-name="LINE">
      <line class="cls-1" x1="2.12" y1="2.12" x2=".12" y2="2.12"/>
    </g>
    <g id="LINE-12" data-name="LINE">
      <line class="cls-1" x1=".12" y1="2.12" x2=".12" y2=".12"/>
    </g>
    <g id="LINE-13" data-name="LINE">
      <line class="cls-1" x1="26.13" y1=".12" x2="28.13" y2=".12"/>
    </g>
    <g id="LINE-14" data-name="LINE">
      <line class="cls-1" x1="28.13" y1=".12" x2="28.13" y2="2.12"/>
    </g>
    <g id="LINE-15" data-name="LINE">
      <line class="cls-1" x1="28.13" y1="2.12" x2="26.13" y2="2.12"/>
    </g>
    <g id="LINE-16" data-name="LINE">
      <line class="cls-1" x1="26.13" y1="2.12" x2="26.13" y2=".12"/>
    </g>
  </g>
</svg>