<?xml version="1.0" encoding="UTF-8"?>
<svg id="Layer_2" data-name="Layer 2" xmlns="http://www.w3.org/2000/svg" viewBox="0 0 12.21 12.21">
  <defs>
    <style>
      .cls-1 {
        fill: none;
        stroke: #000;
        stroke-linecap: round;
        stroke-linejoin: round;
        stroke-width: .25px;
      }
    </style>
  </defs>
  <g id="Default">
    <g id="SPLINE">
      <path class="cls-1" d="M3.41,5.96c.08-1.42,1.26-2.55,2.7-2.55"/>
    </g>
    <g id="SPLINE-2" data-name="SPLINE">
      <path class="cls-1" d="M6.1,3.41c1.49,0,2.7,1.21,2.7,2.7"/>
    </g>
    <g id="SPLINE-3" data-name="SPLINE">
      <path class="cls-1" d="M8.8,6.11c0,1.49-1.21,2.7-2.7,2.7"/>
    </g>
    <g id="SPLINE-4" data-name="SPLINE">
      <path class="cls-1" d="M6.1,8.81c-1.49,0-2.7-1.21-2.7-2.7"/>
    </g>
    <g id="SPLINE-5" data-name="SPLINE">
      <path class="cls-1" d="M3.4,6.11c0-.05,0-.1,0-.15"/>
    </g>
    <g id="LINE">
      <line class="cls-1" x1=".41" y1="5.14" x2=".21" y2="5.08"/>
    </g>
    <g id="SPLINE-6" data-name="SPLINE">
      <path class="cls-1" d="M.21,5.08c.29-.54.56-1.11,1.17-1.1"/>
    </g>
    <g id="LINE-2" data-name="LINE">
      <line class="cls-1" x1="1.38" y1="3.98" x2="3.63" y2="5.03"/>
    </g>
    <g id="SPLINE-7" data-name="SPLINE">
      <path class="cls-1" d="M3.63,5.03c-.13.29-.2.61-.22.93"/>
    </g>
    <g id="SPLINE-8" data-name="SPLINE">
      <path class="cls-1" d="M3.41,5.96c0,.05,0,.1,0,.15"/>
    </g>
    <g id="LINE-3" data-name="LINE">
      <line class="cls-1" x1="3.4" y1="6.11" x2=".41" y2="5.14"/>
    </g>
    <g id="SPLINE-9" data-name="SPLINE">
      <path class="cls-1" d="M.44,4.19c.37-.49.72-1.01,1.32-.91"/>
    </g>
    <g id="LINE-4" data-name="LINE">
      <line class="cls-1" x1="1.76" y1="3.28" x2="3.82" y2="4.67"/>
    </g>
    <g id="SPLINE-10" data-name="SPLINE">
      <path class="cls-1" d="M3.82,4.67c-.2.31-.33.66-.39,1.03"/>
    </g>
    <g id="LINE-5" data-name="LINE">
      <line class="cls-1" x1="3.44" y1="5.7" x2=".44" y2="4.19"/>
    </g>
    <g id="SPLINE-11" data-name="SPLINE">
      <path class="cls-1" d="M.8,3.34c.44-.43.86-.89,1.45-.7"/>
    </g>
    <g id="LINE-6" data-name="LINE">
      <line class="cls-1" x1="2.25" y1="2.64" x2="4.07" y2="4.33"/>
    </g>
    <g id="SPLINE-12" data-name="SPLINE">
      <path class="cls-1" d="M4.07,4.33c-.24.28-.43.61-.54.96"/>
    </g>
    <g id="LINE-7" data-name="LINE">
      <line class="cls-1" x1="3.53" y1="5.29" x2=".8" y2="3.34"/>
    </g>
    <g id="SPLINE-13" data-name="SPLINE">
      <path class="cls-1" d="M1.28,2.56c.5-.36.99-.74,1.54-.47"/>
    </g>
    <g id="LINE-8" data-name="LINE">
      <line class="cls-1" x1="2.82" y1="2.09" x2="4.37" y2="4.04"/>
    </g>
    <g id="SPLINE-14" data-name="SPLINE">
      <path class="cls-1" d="M4.37,4.04c-.28.24-.52.53-.68.86"/>
    </g>
    <g id="LINE-9" data-name="LINE">
      <line class="cls-1" x1="3.69" y1="4.91" x2="1.28" y2="2.56"/>
    </g>
    <g id="SPLINE-15" data-name="SPLINE">
      <path class="cls-1" d="M1.89,1.86c.55-.28,1.09-.58,1.59-.23"/>
    </g>
    <g id="LINE-10" data-name="LINE">
      <line class="cls-1" x1="3.48" y1="1.64" x2="4.71" y2="3.8"/>
    </g>
    <g id="SPLINE-16" data-name="SPLINE">
      <path class="cls-1" d="M4.71,3.8c-.32.19-.59.45-.81.75"/>
    </g>
    <g id="LINE-11" data-name="LINE">
      <line class="cls-1" x1="3.9" y1="4.55" x2="1.89" y2="1.86"/>
    </g>
    <g id="SPLINE-17" data-name="SPLINE">
      <path class="cls-1" d="M2.59,1.27c.58-.19,1.17-.41,1.61.02"/>
    </g>
    <g id="LINE-12" data-name="LINE">
      <line class="cls-1" x1="4.2" y1="1.29" x2="5.08" y2="3.61"/>
    </g>
    <g id="SPLINE-18" data-name="SPLINE">
      <path class="cls-1" d="M5.08,3.61c-.34.14-.65.35-.91.62"/>
    </g>
    <g id="LINE-13" data-name="LINE">
      <line class="cls-1" x1="4.17" y1="4.23" x2="2.59" y2="1.27"/>
    </g>
    <g id="SPLINE-19" data-name="SPLINE">
      <path class="cls-1" d="M3.37.78c.61-.1,1.22-.22,1.58.27"/>
    </g>
    <g id="LINE-14" data-name="LINE">
      <line class="cls-1" x1="4.96" y1="1.05" x2="5.47" y2="3.49"/>
    </g>
    <g id="SPLINE-20" data-name="SPLINE">
      <path class="cls-1" d="M5.47,3.49c-.36.09-.7.25-.99.47"/>
    </g>
    <g id="LINE-15" data-name="LINE">
      <line class="cls-1" x1="4.48" y1="3.96" x2="3.37" y2=".78"/>
    </g>
    <g id="SPLINE-21" data-name="SPLINE">
      <path class="cls-1" d="M4.22.43c.61,0,1.24-.03,1.53.51"/>
    </g>
    <g id="LINE-16" data-name="LINE">
      <line class="cls-1" x1="5.75" y1=".94" x2="5.88" y2="3.42"/>
    </g>
    <g id="SPLINE-22" data-name="SPLINE">
      <path class="cls-1" d="M5.88,3.42c-.37.03-.73.14-1.06.31"/>
    </g>
    <g id="LINE-17" data-name="LINE">
      <line class="cls-1" x1="4.83" y1="3.73" x2="4.22" y2=".43"/>
    </g>
    <g id="SPLINE-23" data-name="SPLINE">
      <path class="cls-1" d="M5.12.21c.61.09,1.23.16,1.43.74"/>
    </g>
    <g id="LINE-18" data-name="LINE">
      <line class="cls-1" x1="6.55" y1=".94" x2="6.3" y2="3.42"/>
    </g>
    <g id="SPLINE-24" data-name="SPLINE">
      <path class="cls-1" d="M6.3,3.42c-.37-.03-.74.02-1.09.15"/>
    </g>
    <g id="LINE-19" data-name="LINE">
      <line class="cls-1" x1="5.21" y1="3.56" x2="5.12" y2=".21"/>
    </g>
    <g id="SPLINE-25" data-name="SPLINE">
      <path class="cls-1" d="M6.03.12c.59.18,1.19.34,1.3.95"/>
    </g>
    <g id="LINE-20" data-name="LINE">
      <line class="cls-1" x1="7.33" y1="1.07" x2="6.71" y2="3.48"/>
    </g>
    <g id="SPLINE-26" data-name="SPLINE">
      <path class="cls-1" d="M6.71,3.48c-.36-.08-.74-.09-1.1-.02"/>
    </g>
    <g id="LINE-21" data-name="LINE">
      <line class="cls-1" x1="5.61" y1="3.46" x2="6.03" y2=".12"/>
    </g>
    <g id="SPLINE-27" data-name="SPLINE">
      <path class="cls-1" d="M6.95.19c.55.27,1.12.52,1.14,1.13"/>
    </g>
    <g id="LINE-22" data-name="LINE">
      <line class="cls-1" x1="8.09" y1="1.32" x2="7.1" y2="3.6"/>
    </g>
    <g id="SPLINE-28" data-name="SPLINE">
      <path class="cls-1" d="M7.1,3.6c-.34-.14-.71-.2-1.08-.19"/>
    </g>
    <g id="LINE-23" data-name="LINE">
      <line class="cls-1" x1="6.02" y1="3.41" x2="6.95" y2=".19"/>
    </g>
    <g id="SPLINE-29" data-name="SPLINE">
      <path class="cls-1" d="M7.85.39c.5.35,1.03.69.95,1.3"/>
    </g>
    <g id="LINE-24" data-name="LINE">
      <line class="cls-1" x1="8.8" y1="1.68" x2="7.48" y2="3.79"/>
    </g>
    <g id="SPLINE-30" data-name="SPLINE">
      <path class="cls-1" d="M7.48,3.79c-.32-.19-.67-.31-1.04-.35"/>
    </g>
    <g id="LINE-25" data-name="LINE">
      <line class="cls-1" x1="6.44" y1="3.43" x2="7.85" y2=".39"/>
    </g>
    <g id="SPLINE-31" data-name="SPLINE">
      <path class="cls-1" d="M8.71.72c.44.43.91.84.74,1.43"/>
    </g>
    <g id="LINE-26" data-name="LINE">
      <line class="cls-1" x1="9.45" y1="2.15" x2="7.82" y2="4.02"/>
    </g>
    <g id="SPLINE-32" data-name="SPLINE">
      <path class="cls-1" d="M7.82,4.02c-.29-.24-.62-.41-.97-.51"/>
    </g>
    <g id="LINE-27" data-name="LINE">
      <line class="cls-1" x1="6.84" y1="3.51" x2="8.71" y2=".72"/>
    </g>
    <g id="SPLINE-33" data-name="SPLINE">
      <path class="cls-1" d="M9.5,1.18c.37.49.77.97.51,1.52"/>
    </g>
    <g id="LINE-28" data-name="LINE">
      <line class="cls-1" x1="10.02" y1="2.71" x2="8.12" y2="4.31"/>
    </g>
    <g id="SPLINE-34" data-name="SPLINE">
      <path class="cls-1" d="M8.12,4.31c-.25-.28-.55-.5-.89-.65"/>
    </g>
    <g id="LINE-29" data-name="LINE">
      <line class="cls-1" x1="7.23" y1="3.66" x2="9.5" y2="1.18"/>
    </g>
    <g id="SPLINE-35" data-name="SPLINE">
      <path class="cls-1" d="M10.22,1.76c.29.54.62,1.07.27,1.58"/>
    </g>
    <g id="LINE-30" data-name="LINE">
      <line class="cls-1" x1="10.49" y1="3.35" x2="8.37" y2="4.64"/>
    </g>
    <g id="SPLINE-36" data-name="SPLINE">
      <path class="cls-1" d="M8.37,4.64c-.2-.31-.47-.58-.77-.78"/>
    </g>
    <g id="LINE-31" data-name="LINE">
      <line class="cls-1" x1="7.59" y1="3.86" x2="10.22" y2="1.76"/>
    </g>
    <g id="SPLINE-37" data-name="SPLINE">
      <path class="cls-1" d="M10.84,2.45c.21.58.44,1.16.03,1.61"/>
    </g>
    <g id="LINE-32" data-name="LINE">
      <line class="cls-1" x1="10.87" y1="4.05" x2="8.57" y2="5.01"/>
    </g>
    <g id="SPLINE-38" data-name="SPLINE">
      <path class="cls-1" d="M8.57,5.01c-.15-.34-.37-.64-.65-.89"/>
    </g>
    <g id="LINE-33" data-name="LINE">
      <line class="cls-1" x1="7.92" y1="4.12" x2="10.84" y2="2.45"/>
    </g>
    <g id="SPLINE-39" data-name="SPLINE">
      <path class="cls-1" d="M11.34,3.22c.12.6.26,1.21-.22,1.59"/>
    </g>
    <g id="LINE-34" data-name="LINE">
      <line class="cls-1" x1="11.13" y1="4.81" x2="8.71" y2="5.4"/>
    </g>
    <g id="SPLINE-40" data-name="SPLINE">
      <path class="cls-1" d="M8.71,5.4c-.1-.36-.27-.69-.5-.98"/>
    </g>
    <g id="LINE-35" data-name="LINE">
      <line class="cls-1" x1="8.21" y1="4.42" x2="11.34" y2="3.22"/>
    </g>
    <g id="SPLINE-41" data-name="SPLINE">
      <path class="cls-1" d="M11.73,4.05c.02.61.07,1.24-.46,1.54"/>
    </g>
    <g id="LINE-36" data-name="LINE">
      <line class="cls-1" x1="11.27" y1="5.6" x2="8.79" y2="5.81"/>
    </g>
    <g id="SPLINE-42" data-name="SPLINE">
      <path class="cls-1" d="M8.79,5.81c-.04-.37-.16-.72-.34-1.04"/>
    </g>
    <g id="LINE-37" data-name="LINE">
      <line class="cls-1" x1="8.44" y1="4.76" x2="11.73" y2="4.05"/>
    </g>
    <g id="SPLINE-43" data-name="SPLINE">
      <path class="cls-1" d="M11.97,4.94c-.07.61-.12,1.23-.69,1.45"/>
    </g>
    <g id="LINE-38" data-name="LINE">
      <line class="cls-1" x1="11.28" y1="6.39" x2="8.8" y2="6.22"/>
    </g>
    <g id="SPLINE-44" data-name="SPLINE">
      <path class="cls-1" d="M8.8,6.22c.02-.37-.05-.74-.18-1.09"/>
    </g>
    <g id="LINE-39" data-name="LINE">
      <line class="cls-1" x1="8.62" y1="5.14" x2="11.97" y2="4.94"/>
    </g>
    <g id="SPLINE-45" data-name="SPLINE">
      <path class="cls-1" d="M12.08,5.86c-.17.59-.31,1.2-.91,1.33"/>
    </g>
    <g id="LINE-40" data-name="LINE">
      <line class="cls-1" x1="11.18" y1="7.18" x2="8.75" y2="6.63"/>
    </g>
    <g id="SPLINE-46" data-name="SPLINE">
      <path class="cls-1" d="M8.75,6.63c.07-.36.07-.74-.01-1.1"/>
    </g>
    <g id="LINE-41" data-name="LINE">
      <line class="cls-1" x1="8.74" y1="5.53" x2="12.08" y2="5.86"/>
    </g>
    <g id="SPLINE-47" data-name="SPLINE">
      <path class="cls-1" d="M12.05,6.78c-.25.56-.49,1.14-1.1,1.17"/>
    </g>
    <g id="LINE-42" data-name="LINE">
      <line class="cls-1" x1="10.95" y1="7.95" x2="8.64" y2="7.03"/>
    </g>
    <g id="SPLINE-48" data-name="SPLINE">
      <path class="cls-1" d="M8.64,7.03c.13-.35.18-.72.16-1.09"/>
    </g>
    <g id="LINE-43" data-name="LINE">
      <line class="cls-1" x1="8.8" y1="5.94" x2="12.05" y2="6.78"/>
    </g>
    <g id="SPLINE-49" data-name="SPLINE">
      <path class="cls-1" d="M11.88,7.68c-.34.51-.65,1.05-1.27.99"/>
    </g>
    <g id="LINE-44" data-name="LINE">
      <line class="cls-1" x1="10.62" y1="8.67" x2="8.47" y2="7.41"/>
    </g>
    <g id="SPLINE-50" data-name="SPLINE">
      <path class="cls-1" d="M8.47,7.41c.18-.32.29-.68.32-1.05"/>
    </g>
    <g id="LINE-45" data-name="LINE">
      <line class="cls-1" x1="8.79" y1="6.36" x2="11.88" y2="7.68"/>
    </g>
    <g id="SPLINE-51" data-name="SPLINE">
      <path class="cls-1" d="M11.57,8.55c-.41.46-.81.94-1.4.79"/>
    </g>
    <g id="LINE-46" data-name="LINE">
      <line class="cls-1" x1="10.17" y1="9.33" x2="8.24" y2="7.76"/>
    </g>
    <g id="SPLINE-52" data-name="SPLINE">
      <path class="cls-1" d="M8.24,7.76c.23-.29.39-.63.48-.99"/>
    </g>
    <g id="LINE-47" data-name="LINE">
      <line class="cls-1" x1="8.72" y1="6.77" x2="11.57" y2="8.55"/>
    </g>
    <g id="SPLINE-53" data-name="SPLINE">
      <path class="cls-1" d="M11.13,9.36c-.48.39-.94.8-1.51.56"/>
    </g>
    <g id="LINE-48" data-name="LINE">
      <line class="cls-1" x1="9.63" y1="9.92" x2="7.96" y2="8.07"/>
    </g>
    <g id="SPLINE-54" data-name="SPLINE">
      <path class="cls-1" d="M7.96,8.07c.27-.26.48-.56.63-.9"/>
    </g>
    <g id="LINE-49" data-name="LINE">
      <line class="cls-1" x1="8.59" y1="7.16" x2="11.13" y2="9.36"/>
    </g>
    <g id="SPLINE-55" data-name="SPLINE">
      <path class="cls-1" d="M10.58,10.09c-.53.31-1.05.65-1.57.32"/>
    </g>
    <g id="LINE-50" data-name="LINE">
      <line class="cls-1" x1="9" y1="10.41" x2="7.64" y2="8.33"/>
    </g>
    <g id="SPLINE-56" data-name="SPLINE">
      <path class="cls-1" d="M7.64,8.33c.3-.21.56-.48.76-.8"/>
    </g>
    <g id="LINE-51" data-name="LINE">
      <line class="cls-1" x1="8.4" y1="7.53" x2="10.58" y2="10.09"/>
    </g>
    <g id="SPLINE-57" data-name="SPLINE">
      <path class="cls-1" d="M9.91,10.73c-.57.22-1.14.48-1.61.08"/>
    </g>
    <g id="LINE-52" data-name="LINE">
      <line class="cls-1" x1="8.31" y1="10.81" x2="7.28" y2="8.54"/>
    </g>
    <g id="SPLINE-58" data-name="SPLINE">
      <path class="cls-1" d="M7.28,8.54c.33-.16.63-.39.87-.67"/>
    </g>
    <g id="LINE-53" data-name="LINE">
      <line class="cls-1" x1="8.15" y1="7.87" x2="9.91" y2="10.73"/>
    </g>
    <g id="SPLINE-59" data-name="SPLINE">
      <path class="cls-1" d="M9.16,11.26c-.6.13-1.2.3-1.6-.17"/>
    </g>
    <g id="LINE-54" data-name="LINE">
      <line class="cls-1" x1="7.56" y1="11.09" x2="6.9" y2="8.69"/>
    </g>
    <g id="SPLINE-60" data-name="SPLINE">
      <path class="cls-1" d="M6.9,8.69c.35-.11.68-.29.96-.53"/>
    </g>
    <g id="LINE-55" data-name="LINE">
      <line class="cls-1" x1="7.86" y1="8.16" x2="9.16" y2="11.26"/>
    </g>
    <g id="SPLINE-61" data-name="SPLINE">
      <path class="cls-1" d="M8.33,11.67c-.61.04-1.23.11-1.55-.41"/>
    </g>
    <g id="LINE-56" data-name="LINE">
      <line class="cls-1" x1="6.78" y1="11.25" x2="6.49" y2="8.78"/>
    </g>
    <g id="SPLINE-62" data-name="SPLINE">
      <path class="cls-1" d="M6.49,8.78c.37-.05.72-.18,1.03-.38"/>
    </g>
    <g id="LINE-57" data-name="LINE">
      <line class="cls-1" x1="7.53" y1="8.41" x2="8.33" y2="11.67"/>
    </g>
    <g id="SPLINE-63" data-name="SPLINE">
      <path class="cls-1" d="M7.45,11.94c-.61-.05-1.24-.08-1.47-.65"/>
    </g>
    <g id="LINE-58" data-name="LINE">
      <line class="cls-1" x1="5.98" y1="11.3" x2="6.08" y2="8.81"/>
    </g>
    <g id="SPLINE-64" data-name="SPLINE">
      <path class="cls-1" d="M6.08,8.81c.37,0,.74-.07,1.08-.21"/>
    </g>
    <g id="LINE-59" data-name="LINE">
      <line class="cls-1" x1="7.16" y1="8.6" x2="7.45" y2="11.94"/>
    </g>
    <g id="SPLINE-65" data-name="SPLINE">
      <path class="cls-1" d="M6.54,12.08c-.6-.15-1.21-.27-1.36-.86"/>
    </g>
    <g id="LINE-60" data-name="LINE">
      <line class="cls-1" x1="5.19" y1="11.22" x2="5.66" y2="8.77"/>
    </g>
    <g id="SPLINE-66" data-name="SPLINE">
      <path class="cls-1" d="M5.66,8.77c.37.06.74.05,1.1-.05"/>
    </g>
    <g id="LINE-61" data-name="LINE">
      <line class="cls-1" x1="6.76" y1="8.73" x2="6.54" y2="12.08"/>
    </g>
    <g id="SPLINE-67" data-name="SPLINE">
      <path class="cls-1" d="M5.62,12.08c-.57-.24-1.15-.45-1.21-1.06"/>
    </g>
    <g id="LINE-62" data-name="LINE">
      <line class="cls-1" x1="4.42" y1="11.02" x2="5.26" y2="8.68"/>
    </g>
    <g id="SPLINE-68" data-name="SPLINE">
      <path class="cls-1" d="M5.26,8.68c.35.12.72.16,1.09.12"/>
    </g>
    <g id="LINE-63" data-name="LINE">
      <line class="cls-1" x1="6.35" y1="8.8" x2="5.62" y2="12.08"/>
    </g>
    <g id="SPLINE-69" data-name="SPLINE">
      <path class="cls-1" d="M4.71,11.93c-.52-.32-1.07-.62-1.03-1.23"/>
    </g>
    <g id="LINE-64" data-name="LINE">
      <line class="cls-1" x1="3.68" y1="10.7" x2="4.88" y2="8.52"/>
    </g>
    <g id="SPLINE-70" data-name="SPLINE">
      <path class="cls-1" d="M4.88,8.52c.33.17.69.27,1.06.29"/>
    </g>
    <g id="LINE-65" data-name="LINE">
      <line class="cls-1" x1="5.94" y1="8.81" x2="4.71" y2="11.93"/>
    </g>
    <g id="SPLINE-71" data-name="SPLINE">
      <path class="cls-1" d="M3.84,11.65c-.47-.4-.96-.78-.83-1.38"/>
    </g>
    <g id="LINE-66" data-name="LINE">
      <line class="cls-1" x1="3.01" y1="10.27" x2="4.52" y2="8.3"/>
    </g>
    <g id="SPLINE-72" data-name="SPLINE">
      <path class="cls-1" d="M4.52,8.3c.3.22.64.37,1,.45"/>
    </g>
    <g id="LINE-67" data-name="LINE">
      <line class="cls-1" x1="5.53" y1="8.75" x2="3.84" y2="11.65"/>
    </g>
    <g id="SPLINE-73" data-name="SPLINE">
      <path class="cls-1" d="M3.01,11.24c-.4-.46-.83-.92-.61-1.49"/>
    </g>
    <g id="LINE-68" data-name="LINE">
      <line class="cls-1" x1="2.41" y1="9.75" x2="4.21" y2="8.03"/>
    </g>
    <g id="SPLINE-74" data-name="SPLINE">
      <path class="cls-1" d="M4.21,8.03c.26.26.58.46.92.6"/>
    </g>
    <g id="LINE-69" data-name="LINE">
      <line class="cls-1" x1="5.13" y1="8.63" x2="3.01" y2="11.24"/>
    </g>
    <g id="SPLINE-75" data-name="SPLINE">
      <path class="cls-1" d="M2.26,10.7c-.33-.52-.68-1.03-.37-1.56"/>
    </g>
    <g id="LINE-70" data-name="LINE">
      <line class="cls-1" x1="1.89" y1="9.14" x2="3.93" y2="7.72"/>
    </g>
    <g id="SPLINE-76" data-name="SPLINE">
      <path class="cls-1" d="M3.93,7.72c.22.3.5.55.82.73"/>
    </g>
    <g id="LINE-71" data-name="LINE">
      <line class="cls-1" x1="4.75" y1="8.45" x2="2.26" y2="10.7"/>
    </g>
    <g id="SPLINE-77" data-name="SPLINE">
      <path class="cls-1" d="M1.6,10.06c-.24-.56-.51-1.13-.13-1.6"/>
    </g>
    <g id="LINE-72" data-name="LINE">
      <line class="cls-1" x1="1.48" y1="8.46" x2="3.71" y2="7.36"/>
    </g>
    <g id="SPLINE-78" data-name="SPLINE">
      <path class="cls-1" d="M3.71,7.36c.17.33.41.62.7.85"/>
    </g>
    <g id="LINE-73" data-name="LINE">
      <line class="cls-1" x1="4.41" y1="8.21" x2="1.6" y2="10.06"/>
    </g>
    <g id="SPLINE-79" data-name="SPLINE">
      <path class="cls-1" d="M1.05,9.32c-.15-.59-.34-1.19.12-1.6"/>
    </g>
    <g id="LINE-74" data-name="LINE">
      <line class="cls-1" x1="1.17" y1="7.72" x2="3.55" y2="6.98"/>
    </g>
    <g id="SPLINE-80" data-name="SPLINE">
      <path class="cls-1" d="M3.55,6.98c.12.35.31.67.56.95"/>
    </g>
    <g id="LINE-75" data-name="LINE">
      <line class="cls-1" x1="4.11" y1="7.93" x2="1.05" y2="9.32"/>
    </g>
    <g id="SPLINE-81" data-name="SPLINE">
      <path class="cls-1" d="M.62,8.51c-.06-.61-.15-1.23.36-1.57"/>
    </g>
    <g id="LINE-76" data-name="LINE">
      <line class="cls-1" x1=".98" y1="6.94" x2="3.45" y2="6.58"/>
    </g>
    <g id="SPLINE-82" data-name="SPLINE">
      <path class="cls-1" d="M3.45,6.58c.06.37.2.71.41,1.02"/>
    </g>
    <g id="LINE-77" data-name="LINE">
      <line class="cls-1" x1="3.85" y1="7.6" x2=".62" y2="8.51"/>
    </g>
    <g id="SPLINE-83" data-name="SPLINE">
      <path class="cls-1" d="M.32,7.64c.04-.61.04-1.24.6-1.49"/>
    </g>
    <g id="LINE-78" data-name="LINE">
      <line class="cls-1" x1=".92" y1="6.15" x2="3.4" y2="6.17"/>
    </g>
    <g id="SPLINE-84" data-name="SPLINE">
      <path class="cls-1" d="M3.4,6.17c0,.37.09.74.25,1.07"/>
    </g>
    <g id="LINE-79" data-name="LINE">
      <line class="cls-1" x1="3.65" y1="7.24" x2=".32" y2="7.64"/>
    </g>
    <g id="SPLINE-85" data-name="SPLINE">
      <path class="cls-1" d="M3.41,5.96c-.02.3.02.6.1.89"/>
    </g>
    <g id="LINE-80" data-name="LINE">
      <line class="cls-1" x1="3.51" y1="6.85" x2=".15" y2="6.73"/>
    </g>
    <g id="SPLINE-86" data-name="SPLINE">
      <path class="cls-1" d="M.15,6.73c.13-.6.23-1.22.82-1.38"/>
    </g>
    <g id="LINE-81" data-name="LINE">
      <line class="cls-1" x1=".97" y1="5.35" x2="3.41" y2="5.96"/>
    </g>
    <g id="SPLINE-87" data-name="SPLINE">
      <path class="cls-1" d="M3.41,5.96c0,.16,0,.32.02.48"/>
    </g>
    <g id="LINE-82" data-name="LINE">
      <line class="cls-1" x1="3.42" y1="6.44" x2=".12" y2="5.81"/>
    </g>
    <g id="SPLINE-88" data-name="SPLINE">
      <path class="cls-1" d="M.12,5.81c.09-.23.17-.47.28-.67"/>
    </g>
    <g id="LINE-83" data-name="LINE">
      <line class="cls-1" x1=".41" y1="5.14" x2="3.41" y2="5.96"/>
    </g>
  </g>
</svg>