<svg width="152" height="53" viewBox="0 0 152 53" fill="none" xmlns="http://www.w3.org/2000/svg">
<g clip-path="url(#clip0_1597_512)">
<path d="M148.52 52.7901V9.52012L150.43 9.00012V1.00012L150.91 0.870117V0.120117L0.120041 40.9601V41.7101L0.600037 41.5801V49.5801L2.51004 49.0601V52.7901H148.52Z" fill="white"/>
<path d="M150.43 9L0.920059 49.49" stroke="#010101" stroke-width="0.25" stroke-miterlimit="10"/>
<path d="M150.92 0.120117L0.130035 40.9601" stroke="#010101" stroke-width="0.25" stroke-miterlimit="10"/>
<path d="M144.02 52.79H7.02002" stroke="#010101" stroke-width="0.25" stroke-miterlimit="10"/>
<path d="M144.02 10.7402V52.7902" stroke="#010101" stroke-width="0.25" stroke-miterlimit="10"/>
<path d="M150.92 0.870117L0.130035 41.7101" stroke="#010101" stroke-width="0.25" stroke-miterlimit="10"/>
<path d="M7.02002 47.8403V52.7903" stroke="#010101" stroke-width="0.25" stroke-miterlimit="10"/>
<path d="M144.02 52.79H148.52" stroke="#010101" stroke-width="0.25" stroke-miterlimit="10"/>
<path d="M2.52002 52.79H7.02002" stroke="#010101" stroke-width="0.25" stroke-miterlimit="10"/>
<path d="M150.92 0.870117V0.120117" stroke="#010101" stroke-width="0.25" stroke-miterlimit="10"/>
<path d="M0.119995 41.71V40.96" stroke="#010101" stroke-width="0.25" stroke-miterlimit="10"/>
<path d="M2.52002 49.0601V52.7901" stroke="#010101" stroke-width="0.25" stroke-miterlimit="10"/>
<path d="M0.610107 41.5801V49.5801" stroke="#010101" stroke-width="0.25" stroke-miterlimit="10"/>
<path d="M0.930054 49.4902L0.610062 49.5802" stroke="#010101" stroke-width="0.25" stroke-miterlimit="10"/>
<path d="M148.52 9.52002V52.79" stroke="#010101" stroke-width="0.25" stroke-miterlimit="10"/>
<path d="M150.43 1V9" stroke="#010101" stroke-width="0.25" stroke-miterlimit="10"/>
<path d="M150.43 1V9" stroke="#010101" stroke-width="0.25" stroke-miterlimit="10"/>
<path d="M0.930054 49.4902L0.610062 49.5802" stroke="#010101" stroke-width="0.25" stroke-miterlimit="10"/>
<path d="M150.92 0.870117V0.120117" stroke="#010101" stroke-width="0.25" stroke-miterlimit="10"/>
<path d="M150.92 0.120117L0.130035 40.9601" stroke="#010101" stroke-width="0.25" stroke-miterlimit="10"/>
<path d="M144.02 52.79H148.52" stroke="#010101" stroke-width="0.25" stroke-miterlimit="10"/>
<path d="M150.92 0.870117L0.130035 41.7101" stroke="#010101" stroke-width="0.25" stroke-miterlimit="10"/>
<path d="M150.43 9L0.920059 49.49" stroke="#010101" stroke-width="0.25" stroke-miterlimit="10"/>
<path d="M148.52 9.52002V52.79" stroke="#010101" stroke-width="0.25" stroke-miterlimit="10"/>
<path d="M144.02 52.79H7.02002" stroke="#010101" stroke-width="0.25" stroke-miterlimit="10"/>
<path d="M0.119995 41.71V40.96" stroke="#010101" stroke-width="0.25" stroke-miterlimit="10"/>
<path d="M2.52002 49.0601V52.7901" stroke="#010101" stroke-width="0.25" stroke-miterlimit="10"/>
<path d="M0.610107 41.5801V49.5801" stroke="#010101" stroke-width="0.25" stroke-miterlimit="10"/>
<path d="M2.52002 52.79H7.02002" stroke="#010101" stroke-width="0.25" stroke-miterlimit="10"/>
</g>
<defs>
<clipPath id="clip0_1597_512">
<rect width="151.04" height="52.92" fill="white" transform="matrix(-1 0 0 1 151.04 0)"/>
</clipPath>
</defs>
</svg>
