<?xml version="1.0" encoding="UTF-8"?>
<svg id="Layer_2" data-name="Layer 2" xmlns="http://www.w3.org/2000/svg" viewBox="0 0 54.25 6.13">
  <defs>
    <style>
      .cls-1 {
        fill: none;
        stroke: #000;
        stroke-linecap: round;
        stroke-linejoin: round;
        stroke-width: .25px;
      }
    </style>
  </defs>
  <g id="Default">
    <g id="LINE">
      <line class="cls-1" x1=".12" y1="5.38" x2="3.13" y2="5.38"/>
    </g>
    <g id="LINE-2" data-name="LINE">
      <line class="cls-1" x1="3.13" y1="5.38" x2="3.13" y2="1.38"/>
    </g>
    <g id="LINE-3" data-name="LINE">
      <line class="cls-1" x1="3.13" y1="1.38" x2="2.88" y2="1.38"/>
    </g>
    <g id="LINE-4" data-name="LINE">
      <line class="cls-1" x1="2.88" y1="1.38" x2="2.88" y2="5.13"/>
    </g>
    <g id="LINE-5" data-name="LINE">
      <line class="cls-1" x1="2.88" y1="5.13" x2=".12" y2="5.13"/>
    </g>
    <g id="LINE-6" data-name="LINE">
      <line class="cls-1" x1=".12" y1="5.13" x2=".12" y2="5.38"/>
    </g>
    <g id="LINE-7" data-name="LINE">
      <line class="cls-1" x1="54.13" y1="5.38" x2="51.13" y2="5.38"/>
    </g>
    <g id="LINE-8" data-name="LINE">
      <line class="cls-1" x1="51.13" y1="5.38" x2="51.13" y2="1.38"/>
    </g>
    <g id="LINE-9" data-name="LINE">
      <line class="cls-1" x1="51.13" y1="1.38" x2="51.38" y2="1.38"/>
    </g>
    <g id="LINE-10" data-name="LINE">
      <line class="cls-1" x1="51.38" y1="1.38" x2="51.38" y2="5.13"/>
    </g>
    <g id="LINE-11" data-name="LINE">
      <line class="cls-1" x1="51.38" y1="5.13" x2="54.13" y2="5.13"/>
    </g>
    <g id="LINE-12" data-name="LINE">
      <line class="cls-1" x1="54.13" y1="5.13" x2="54.13" y2="5.38"/>
    </g>
    <g id="LINE-13" data-name="LINE">
      <line class="cls-1" x1="3.13" y1=".13" x2="51.13" y2=".13"/>
    </g>
    <g id="LINE-14" data-name="LINE">
      <line class="cls-1" x1="51.13" y1=".13" x2="51.13" y2="5.38"/>
    </g>
    <g id="LINE-15" data-name="LINE">
      <line class="cls-1" x1="51.13" y1="5.38" x2="3.13" y2="5.38"/>
    </g>
    <g id="LINE-16" data-name="LINE">
      <line class="cls-1" x1="3.13" y1="5.38" x2="3.13" y2=".13"/>
    </g>
    <g id="LINE-17" data-name="LINE">
      <line class="cls-1" x1="3.63" y1=".12" x2="50.63" y2=".12"/>
    </g>
    <g id="LINE-18" data-name="LINE">
      <line class="cls-1" x1="50.63" y1=".12" x2="50.63" y2="3.63"/>
    </g>
    <g id="LINE-19" data-name="LINE">
      <line class="cls-1" x1="50.63" y1="3.63" x2="3.63" y2="3.63"/>
    </g>
    <g id="LINE-20" data-name="LINE">
      <line class="cls-1" x1="3.63" y1="3.63" x2="3.63" y2=".12"/>
    </g>
    <g id="CIRCLE">
      <circle class="cls-1" cx="3.38" cy="3.38" r=".25"/>
    </g>
    <g id="CIRCLE-2" data-name="CIRCLE">
      <circle class="cls-1" cx="50.88" cy="3.38" r=".25"/>
    </g>
    <g id="LINE-21" data-name="LINE">
      <line class="cls-1" x1="3.63" y1="2.38" x2="50.63" y2="2.38"/>
    </g>
    <g id="LINE-22" data-name="LINE">
      <line class="cls-1" x1="50.63" y1="2.38" x2="50.63" y2="3.63"/>
    </g>
    <g id="LINE-23" data-name="LINE">
      <line class="cls-1" x1="50.63" y1="3.63" x2="3.63" y2="3.63"/>
    </g>
    <g id="LINE-24" data-name="LINE">
      <line class="cls-1" x1="3.63" y1="3.63" x2="3.63" y2="2.38"/>
    </g>
    <g id="LINE-25" data-name="LINE">
      <line class="cls-1" x1="3.63" y1="1.13" x2="25.63" y2="1.13"/>
    </g>
    <g id="LINE-26" data-name="LINE">
      <line class="cls-1" x1="25.63" y1="1.13" x2="25.63" y2="2.38"/>
    </g>
    <g id="LINE-27" data-name="LINE">
      <line class="cls-1" x1="25.63" y1="2.38" x2="3.63" y2="2.38"/>
    </g>
    <g id="LINE-28" data-name="LINE">
      <line class="cls-1" x1="3.63" y1="2.38" x2="3.63" y2="1.13"/>
    </g>
    <g id="LINE-29" data-name="LINE">
      <line class="cls-1" x1="2.12" y1="5.38" x2="5.62" y2="5.38"/>
    </g>
    <g id="LINE-30" data-name="LINE">
      <line class="cls-1" x1="5.62" y1="5.38" x2="5.62" y2="5.63"/>
    </g>
    <g id="LINE-31" data-name="LINE">
      <line class="cls-1" x1="5.62" y1="5.63" x2="2.12" y2="5.63"/>
    </g>
    <g id="LINE-32" data-name="LINE">
      <line class="cls-1" x1="2.12" y1="5.63" x2="2.12" y2="5.38"/>
    </g>
    <g id="LINE-33" data-name="LINE">
      <line class="cls-1" x1="3.37" y1="5.13" x2="50.87" y2="5.13"/>
    </g>
    <g id="LINE-34" data-name="LINE">
      <line class="cls-1" x1="50.87" y1="5.13" x2="50.87" y2="5.38"/>
    </g>
    <g id="LINE-35" data-name="LINE">
      <line class="cls-1" x1="50.87" y1="5.38" x2="3.37" y2="5.38"/>
    </g>
    <g id="LINE-36" data-name="LINE">
      <line class="cls-1" x1="3.37" y1="5.38" x2="3.37" y2="5.13"/>
    </g>
    <g id="LINE-37" data-name="LINE">
      <line class="cls-1" x1="25.63" y1="1.13" x2="50.63" y2="1.13"/>
    </g>
    <g id="LINE-38" data-name="LINE">
      <line class="cls-1" x1="50.63" y1="1.13" x2="50.63" y2="2.38"/>
    </g>
    <g id="LINE-39" data-name="LINE">
      <line class="cls-1" x1="50.63" y1="2.38" x2="25.63" y2="2.38"/>
    </g>
    <g id="LINE-40" data-name="LINE">
      <line class="cls-1" x1="25.63" y1="2.38" x2="25.63" y2="1.13"/>
    </g>
    <g id="SPLINE">
      <path class="cls-1" d="M50.95,5.38c.06,0,.12,0,.18.03"/>
    </g>
    <g id="SPLINE-2" data-name="SPLINE">
      <path class="cls-1" d="M51.12,5.4c.16.07.23.26.15.42"/>
    </g>
    <g id="SPLINE-3" data-name="SPLINE">
      <path class="cls-1" d="M51.28,5.82c-.07.16-.26.23-.42.15"/>
    </g>
    <g id="SPLINE-4" data-name="SPLINE">
      <path class="cls-1" d="M50.86,5.97c-.06-.03-.1-.07-.13-.12"/>
    </g>
    <g id="SPLINE-5" data-name="SPLINE">
      <path class="cls-1" d="M50.72,5.86c-.06-.09-.07-.2-.02-.3"/>
    </g>
    <g id="SPLINE-6" data-name="SPLINE">
      <path class="cls-1" d="M50.71,5.56c.05-.1.14-.16.24-.18"/>
    </g>
    <g id="CIRCLE-3" data-name="CIRCLE">
      <circle class="cls-1" cx="50.99" cy="5.69" r=".2"/>
    </g>
    <g id="SPLINE-7" data-name="SPLINE">
      <path class="cls-1" d="M50.72,5.86c-.06-.09-.07-.2-.02-.3"/>
    </g>
    <g id="SPLINE-8" data-name="SPLINE">
      <path class="cls-1" d="M50.71,5.56c.05-.1.14-.16.24-.18"/>
    </g>
    <g id="LINE-41" data-name="LINE">
      <line class="cls-1" x1="50.95" y1="5.38" x2="50.63" y2="5.38"/>
    </g>
    <g id="LINE-42" data-name="LINE">
      <line class="cls-1" x1="50.63" y1="5.38" x2="50.52" y2="5.62"/>
    </g>
    <g id="LINE-43" data-name="LINE">
      <line class="cls-1" x1="50.52" y1="5.62" x2="50.72" y2="5.86"/>
    </g>
    <g id="SPLINE-9" data-name="SPLINE">
      <path class="cls-1" d="M51.03,5.38c.1.01.2.08.24.18"/>
    </g>
    <g id="SPLINE-10" data-name="SPLINE">
      <path class="cls-1" d="M51.28,5.56c.05.1.04.21-.02.3"/>
    </g>
    <g id="LINE-44" data-name="LINE">
      <line class="cls-1" x1="51.26" y1="5.86" x2="51.46" y2="5.61"/>
    </g>
    <g id="LINE-45" data-name="LINE">
      <line class="cls-1" x1="51.46" y1="5.61" x2="51.35" y2="5.38"/>
    </g>
    <g id="LINE-46" data-name="LINE">
      <line class="cls-1" x1="51.35" y1="5.38" x2="51.03" y2="5.38"/>
    </g>
  </g>
</svg>