<svg width="55" height="7" viewBox="0 0 55 7" fill="none" xmlns="http://www.w3.org/2000/svg">
<g clip-path="url(#clip0_788_1966)">
<path d="M51.18 0H3.17999V5.25H51.18V0Z" fill="white"/>
<path d="M0.0499878 5.76001H3.04999" stroke="black" stroke-width="0.1" stroke-linecap="round" stroke-linejoin="round"/>
<path d="M3.04999 5.76001V1.76001" stroke="black" stroke-width="0.1" stroke-linecap="round" stroke-linejoin="round"/>
<path d="M3.04999 1.76001H2.79999" stroke="black" stroke-width="0.1" stroke-linecap="round" stroke-linejoin="round"/>
<path d="M2.79999 1.76001V5.51001" stroke="black" stroke-width="0.1" stroke-linecap="round" stroke-linejoin="round"/>
<path d="M2.79999 5.51001H0.0499878" stroke="black" stroke-width="0.1" stroke-linecap="round" stroke-linejoin="round"/>
<path d="M0.0499878 5.51001V5.76001" stroke="black" stroke-width="0.1" stroke-linecap="round" stroke-linejoin="round"/>
<path d="M54.05 5.76001H51.05" stroke="black" stroke-width="0.1" stroke-linecap="round" stroke-linejoin="round"/>
<path d="M51.05 5.76001V1.76001" stroke="black" stroke-width="0.1" stroke-linecap="round" stroke-linejoin="round"/>
<path d="M51.05 1.76001H51.3" stroke="black" stroke-width="0.1" stroke-linecap="round" stroke-linejoin="round"/>
<path d="M51.3 1.76001V5.51001" stroke="black" stroke-width="0.1" stroke-linecap="round" stroke-linejoin="round"/>
<path d="M51.3 5.51001H54.05" stroke="black" stroke-width="0.1" stroke-linecap="round" stroke-linejoin="round"/>
<path d="M54.05 5.51001V5.76001" stroke="black" stroke-width="0.1" stroke-linecap="round" stroke-linejoin="round"/>
<path d="M3.04999 0.51001H51.05" stroke="black" stroke-width="0.1" stroke-linecap="round" stroke-linejoin="round"/>
<path d="M51.05 0.51001V5.76001" stroke="black" stroke-width="0.1" stroke-linecap="round" stroke-linejoin="round"/>
<path d="M51.05 5.76001H3.04999" stroke="black" stroke-width="0.1" stroke-linecap="round" stroke-linejoin="round"/>
<path d="M3.04999 5.76001V0.51001" stroke="black" stroke-width="0.1" stroke-linecap="round" stroke-linejoin="round"/>
<path d="M3.54999 0.51001H50.55" stroke="black" stroke-width="0.1" stroke-linecap="round" stroke-linejoin="round"/>
<path d="M50.55 0.51001V4.01001" stroke="black" stroke-width="0.1" stroke-linecap="round" stroke-linejoin="round"/>
<path d="M50.55 4.01001H3.54999" stroke="black" stroke-width="0.1" stroke-linecap="round" stroke-linejoin="round"/>
<path d="M3.54999 4.01001V0.51001" stroke="black" stroke-width="0.1" stroke-linecap="round" stroke-linejoin="round"/>
<path d="M3.29999 4.01001C3.43806 4.01001 3.54999 3.89808 3.54999 3.76001C3.54999 3.62194 3.43806 3.51001 3.29999 3.51001C3.16192 3.51001 3.04999 3.62194 3.04999 3.76001C3.04999 3.89808 3.16192 4.01001 3.29999 4.01001Z" stroke="black" stroke-width="0.1" stroke-linecap="round" stroke-linejoin="round"/>
<path d="M50.8 4.01001C50.9381 4.01001 51.05 3.89808 51.05 3.76001C51.05 3.62194 50.9381 3.51001 50.8 3.51001C50.6619 3.51001 50.55 3.62194 50.55 3.76001C50.55 3.89808 50.6619 4.01001 50.8 4.01001Z" stroke="black" stroke-width="0.1" stroke-linecap="round" stroke-linejoin="round"/>
<path d="M3.54999 2.76001H50.55" stroke="black" stroke-width="0.1" stroke-linecap="round" stroke-linejoin="round"/>
<path d="M50.55 2.76001V4.01001" stroke="black" stroke-width="0.1" stroke-linecap="round" stroke-linejoin="round"/>
<path d="M50.55 4.01001H3.54999" stroke="black" stroke-width="0.1" stroke-linecap="round" stroke-linejoin="round"/>
<path d="M3.54999 4.01001V2.76001" stroke="black" stroke-width="0.1" stroke-linecap="round" stroke-linejoin="round"/>
<path d="M3.54999 1.51001H25.55" stroke="black" stroke-width="0.1" stroke-linecap="round" stroke-linejoin="round"/>
<path d="M25.55 1.51001V2.76001" stroke="black" stroke-width="0.1" stroke-linecap="round" stroke-linejoin="round"/>
<path d="M25.55 2.76001H3.54999" stroke="black" stroke-width="0.1" stroke-linecap="round" stroke-linejoin="round"/>
<path d="M3.54999 2.76001V1.51001" stroke="black" stroke-width="0.1" stroke-linecap="round" stroke-linejoin="round"/>
<path d="M2.03998 5.76001H5.53998" stroke="black" stroke-width="0.1" stroke-linecap="round" stroke-linejoin="round"/>
<path d="M5.53998 5.76001V6.01001" stroke="black" stroke-width="0.1" stroke-linecap="round" stroke-linejoin="round"/>
<path d="M5.53998 6.01001H2.03998" stroke="black" stroke-width="0.1" stroke-linecap="round" stroke-linejoin="round"/>
<path d="M2.03998 6.01001V5.76001" stroke="black" stroke-width="0.1" stroke-linecap="round" stroke-linejoin="round"/>
<path d="M3.29999 5.51001H50.8" stroke="black" stroke-width="0.1" stroke-linecap="round" stroke-linejoin="round"/>
<path d="M50.8 5.51001V5.76001" stroke="black" stroke-width="0.1" stroke-linecap="round" stroke-linejoin="round"/>
<path d="M50.8 5.76001H3.29999" stroke="black" stroke-width="0.1" stroke-linecap="round" stroke-linejoin="round"/>
<path d="M3.29999 5.76001V5.51001" stroke="black" stroke-width="0.1" stroke-linecap="round" stroke-linejoin="round"/>
<path d="M25.55 1.51001H50.55" stroke="black" stroke-width="0.1" stroke-linecap="round" stroke-linejoin="round"/>
<path d="M50.55 1.51001V2.76001" stroke="black" stroke-width="0.1" stroke-linecap="round" stroke-linejoin="round"/>
<path d="M50.55 2.76001H25.55" stroke="black" stroke-width="0.1" stroke-linecap="round" stroke-linejoin="round"/>
<path d="M25.55 2.76001V1.51001" stroke="black" stroke-width="0.1" stroke-linecap="round" stroke-linejoin="round"/>
<path d="M50.87 5.76001C50.93 5.76001 50.99 5.76001 51.05 5.79001" stroke="black" stroke-width="0.1" stroke-linecap="round" stroke-linejoin="round"/>
<path d="M51.05 5.78003C51.21 5.85003 51.28 6.04003 51.2 6.20003" stroke="black" stroke-width="0.1" stroke-linecap="round" stroke-linejoin="round"/>
<path d="M51.2 6.19995C51.13 6.35995 50.94 6.42995 50.78 6.34995" stroke="black" stroke-width="0.1" stroke-linecap="round" stroke-linejoin="round"/>
<path d="M50.78 6.34998C50.72 6.31998 50.68 6.27998 50.65 6.22998" stroke="black" stroke-width="0.1" stroke-linecap="round" stroke-linejoin="round"/>
<path d="M50.65 6.24006C50.59 6.15006 50.58 6.04006 50.63 5.94006" stroke="black" stroke-width="0.1" stroke-linecap="round" stroke-linejoin="round"/>
<path d="M50.63 5.94001C50.68 5.84001 50.77 5.78001 50.87 5.76001" stroke="black" stroke-width="0.1" stroke-linecap="round" stroke-linejoin="round"/>
<path d="M50.92 6.27C51.0304 6.27 51.12 6.18045 51.12 6.07C51.12 5.95954 51.0304 5.87 50.92 5.87C50.8095 5.87 50.72 5.95954 50.72 6.07C50.72 6.18045 50.8095 6.27 50.92 6.27Z" stroke="black" stroke-width="0.1" stroke-linecap="round" stroke-linejoin="round"/>
<path d="M50.65 6.24006C50.59 6.15006 50.58 6.04006 50.63 5.94006" stroke="black" stroke-width="0.1" stroke-linecap="round" stroke-linejoin="round"/>
<path d="M50.63 5.94001C50.68 5.84001 50.77 5.78001 50.87 5.76001" stroke="black" stroke-width="0.1" stroke-linecap="round" stroke-linejoin="round"/>
<path d="M50.87 5.76001H50.56" stroke="black" stroke-width="0.1" stroke-linecap="round" stroke-linejoin="round"/>
<path d="M50.56 5.76001L50.45 6.00001" stroke="black" stroke-width="0.1" stroke-linecap="round" stroke-linejoin="round"/>
<path d="M50.45 6L50.65 6.24" stroke="black" stroke-width="0.1" stroke-linecap="round" stroke-linejoin="round"/>
<path d="M50.96 5.76001C51.06 5.77001 51.16 5.84001 51.2 5.94001" stroke="black" stroke-width="0.1" stroke-linecap="round" stroke-linejoin="round"/>
<path d="M51.2 5.94006C51.25 6.04006 51.24 6.15006 51.18 6.24006" stroke="black" stroke-width="0.1" stroke-linecap="round" stroke-linejoin="round"/>
<path d="M51.18 6.24L51.38 6" stroke="black" stroke-width="0.1" stroke-linecap="round" stroke-linejoin="round"/>
<path d="M51.38 6.00001L51.27 5.76001" stroke="black" stroke-width="0.1" stroke-linecap="round" stroke-linejoin="round"/>
<path d="M51.27 5.76001H50.96" stroke="black" stroke-width="0.1" stroke-linecap="round" stroke-linejoin="round"/>
</g>
<defs>
<clipPath id="clip0_788_1966">
<rect width="54.1" height="6.43" fill="white"/>
</clipPath>
</defs>
</svg>
