<svg width="55" height="6" viewBox="0 0 55 6" fill="none" xmlns="http://www.w3.org/2000/svg">
<g clip-path="url(#clip0_788_2088)">
<path d="M51.05 0.0500488H3.04999V5.30005H51.05V0.0500488Z" fill="white"/>
<path d="M0.0499878 5.30005H3.04999" stroke="black" stroke-width="0.1" stroke-linecap="round" stroke-linejoin="round"/>
<path d="M3.04999 5.30005V1.30005" stroke="black" stroke-width="0.1" stroke-linecap="round" stroke-linejoin="round"/>
<path d="M3.04999 1.30005H2.79999" stroke="black" stroke-width="0.1" stroke-linecap="round" stroke-linejoin="round"/>
<path d="M2.79999 1.30005V5.05005" stroke="black" stroke-width="0.1" stroke-linecap="round" stroke-linejoin="round"/>
<path d="M2.79999 5.05005H0.0499878" stroke="black" stroke-width="0.1" stroke-linecap="round" stroke-linejoin="round"/>
<path d="M0.0499878 5.05005V5.30005" stroke="black" stroke-width="0.1" stroke-linecap="round" stroke-linejoin="round"/>
<path d="M54.05 5.30005H51.05" stroke="black" stroke-width="0.1" stroke-linecap="round" stroke-linejoin="round"/>
<path d="M51.05 5.30005V1.30005" stroke="black" stroke-width="0.1" stroke-linecap="round" stroke-linejoin="round"/>
<path d="M51.05 1.30005H51.3" stroke="black" stroke-width="0.1" stroke-linecap="round" stroke-linejoin="round"/>
<path d="M51.3 1.30005V5.05005" stroke="black" stroke-width="0.1" stroke-linecap="round" stroke-linejoin="round"/>
<path d="M51.3 5.05005H54.05" stroke="black" stroke-width="0.1" stroke-linecap="round" stroke-linejoin="round"/>
<path d="M54.05 5.05005V5.30005" stroke="black" stroke-width="0.1" stroke-linecap="round" stroke-linejoin="round"/>
<path d="M3.04999 0.0500488H51.05" stroke="black" stroke-width="0.1" stroke-linecap="round" stroke-linejoin="round"/>
<path d="M51.05 0.0500488V5.30005" stroke="black" stroke-width="0.1" stroke-linecap="round" stroke-linejoin="round"/>
<path d="M51.05 5.30005H3.04999" stroke="black" stroke-width="0.1" stroke-linecap="round" stroke-linejoin="round"/>
<path d="M3.04999 5.30005V0.0500488" stroke="black" stroke-width="0.1" stroke-linecap="round" stroke-linejoin="round"/>
<path d="M3.54999 0.0500488H50.55" stroke="black" stroke-width="0.1" stroke-linecap="round" stroke-linejoin="round"/>
<path d="M50.55 0.0500488V3.55005" stroke="black" stroke-width="0.1" stroke-linecap="round" stroke-linejoin="round"/>
<path d="M50.55 3.55005H3.54999" stroke="black" stroke-width="0.1" stroke-linecap="round" stroke-linejoin="round"/>
<path d="M3.54999 3.55005V0.0500488" stroke="black" stroke-width="0.1" stroke-linecap="round" stroke-linejoin="round"/>
<path d="M3.29999 3.55005C3.43806 3.55005 3.54999 3.43812 3.54999 3.30005C3.54999 3.16198 3.43806 3.05005 3.29999 3.05005C3.16192 3.05005 3.04999 3.16198 3.04999 3.30005C3.04999 3.43812 3.16192 3.55005 3.29999 3.55005Z" stroke="black" stroke-width="0.1" stroke-linecap="round" stroke-linejoin="round"/>
<path d="M50.8 3.55005C50.9381 3.55005 51.05 3.43812 51.05 3.30005C51.05 3.16198 50.9381 3.05005 50.8 3.05005C50.6619 3.05005 50.55 3.16198 50.55 3.30005C50.55 3.43812 50.6619 3.55005 50.8 3.55005Z" stroke="black" stroke-width="0.1" stroke-linecap="round" stroke-linejoin="round"/>
<path d="M3.54999 2.30005H50.55" stroke="black" stroke-width="0.1" stroke-linecap="round" stroke-linejoin="round"/>
<path d="M50.55 2.30005V3.55005" stroke="black" stroke-width="0.1" stroke-linecap="round" stroke-linejoin="round"/>
<path d="M50.55 3.55005H3.54999" stroke="black" stroke-width="0.1" stroke-linecap="round" stroke-linejoin="round"/>
<path d="M3.54999 3.55005V2.30005" stroke="black" stroke-width="0.1" stroke-linecap="round" stroke-linejoin="round"/>
<path d="M3.54999 1.05005H25.55" stroke="black" stroke-width="0.1" stroke-linecap="round" stroke-linejoin="round"/>
<path d="M25.55 1.05005V2.30005" stroke="black" stroke-width="0.1" stroke-linecap="round" stroke-linejoin="round"/>
<path d="M25.55 2.30005H3.54999" stroke="black" stroke-width="0.1" stroke-linecap="round" stroke-linejoin="round"/>
<path d="M3.54999 2.30005V1.05005" stroke="black" stroke-width="0.1" stroke-linecap="round" stroke-linejoin="round"/>
<path d="M25.55 1.05005H50.55" stroke="black" stroke-width="0.1" stroke-linecap="round" stroke-linejoin="round"/>
<path d="M50.55 1.05005V2.30005" stroke="black" stroke-width="0.1" stroke-linecap="round" stroke-linejoin="round"/>
<path d="M50.55 2.30005H25.55" stroke="black" stroke-width="0.1" stroke-linecap="round" stroke-linejoin="round"/>
<path d="M25.55 2.30005V1.05005" stroke="black" stroke-width="0.1" stroke-linecap="round" stroke-linejoin="round"/>
</g>
<defs>
<clipPath id="clip0_788_2088">
<rect width="54.1" height="5.35" fill="white"/>
</clipPath>
</defs>
</svg>
